<?xml version="1.0" encoding="utf-8"?>
<!-- Generator: Adobe Illustrator 23.0.3, SVG Export Plug-In . SVG Version: 6.00 Build 0)  -->
<svg version="1.1" id="Layer_1" xmlns="http://www.w3.org/2000/svg" xmlns:xlink="http://www.w3.org/1999/xlink" x="0px" y="0px"
	 viewBox="0 0 124.1 40.4" style="enable-background:new 0 0 124.1 40.4;" xml:space="preserve">
<style type="text/css">
	.st0{fill:#58595B;}
	.st1{fill:#58595B;stroke:none;stroke-width:1;}
</style>
<path class="st0" d="M13.4,26.8c-1.1,0-2,1-2,2.1s1,2,2.1,2s2-0.9,2-2C15.5,27.7,14.6,26.8,13.4,26.8L13.4,26.8z M13.4,29.9
	c-0.6,0-1.1-0.5-1.1-1.1s0.5-1.1,1.1-1.1s1.1,0.5,1.1,1.1C14.6,29.4,14.1,30,13.4,29.9L13.4,29.9L13.4,29.9z"/>
<path class="st1" d="M10.2,10.7h21.4c1.1,0,1.9-0.9,2-1.9V2.4c0-1.1-0.9-1.9-2-1.9H10.2c-1.1,0-1.9,0.9-1.9,1.9v6.3
	C8.3,9.8,9.2,10.7,10.2,10.7z M10,2.4c0-0.1,0.1-0.3,0.3-0.3h21.4c0.1,0,0.3,0.1,0.3,0.3v6.3C32,8.8,31.9,9,31.7,9H10.3
	C10.2,9,10,8.9,10,8.7V2.4z"/>
<path class="st0" d="M13.4,7.7c1.1,0,2.1-0.9,2-2.1c0-1.1-0.9-2.1-2.1-2c-1.1,0-2,0.9-2,2.1C11.3,6.7,12.3,7.7,13.4,7.7z M13.4,4.5
	c0.6,0,1.1,0.5,1.1,1.1S14,6.7,13.4,6.7s-1.1-0.5-1.1-1.1S12.8,4.5,13.4,4.5z"/>
<path class="st1" d="M10.2,22.3h21.4c1.1,0,1.9-0.9,2-1.9v-6.3c0-1.1-0.9-1.9-2-1.9H10.2c-1.1,0-1.9,0.9-1.9,1.9v6.3
	C8.3,21.4,9.2,22.3,10.2,22.3z M10,14.1c0-0.1,0.1-0.3,0.3-0.3h21.4c0.1,0,0.3,0.1,0.3,0.3v6.3c0,0.1-0.1,0.3-0.3,0.3H10.3
	c-0.1,0-0.3-0.1-0.3-0.3V14.1z"/>
<path class="st0" d="M13.4,19.3c1.1,0,2.1-0.9,2-2.1c0-1.1-0.9-2.1-2.1-2c-1.1,0-2,0.9-2,2.1C11.3,18.3,12.3,19.3,13.4,19.3z
	 M13.4,16.1c0.6,0,1.1,0.5,1.1,1.1s-0.5,1.1-1.1,1.1s-1.1-0.5-1.1-1.1S12.8,16.1,13.4,16.1L13.4,16.1z"/>
<path class="st0" d="M40.7,26.8c-1.1,0-2.1,0.9-2,2.1c0,1.1,0.9,2.1,2.1,2c1.1,0,2-0.9,2-2.1C42.8,27.7,41.9,26.7,40.7,26.8z
	 M40.7,29.9c-0.6,0-1.1-0.5-1.1-1.1s0.5-1.1,1.1-1.1s1.1,0.5,1.1,1.1C41.9,29.4,41.4,30,40.7,29.9L40.7,29.9L40.7,29.9z"/>
<path class="st1" d="M37.5,10.7h21.4c1.1,0,1.9-0.9,2-1.9V2.4c0-1.1-0.9-1.9-2-1.9H37.5c-1.1,0-1.9,0.9-2,1.9v6.3
	C35.6,9.8,36.5,10.7,37.5,10.7z M37.3,2.4c0-0.1,0.1-0.3,0.3-0.3H59c0.1,0,0.3,0.1,0.3,0.3v6.3C59.3,8.8,59.2,9,59,9H37.6
	c-0.1,0-0.2-0.1-0.2-0.3L37.3,2.4z"/>
<path class="st0" d="M40.7,7.7c1.1,0,2.1-0.9,2-2.1c0-1.1-0.9-2.1-2.1-2c-1.1,0-2,0.9-2,2.1C38.6,6.7,39.6,7.7,40.7,7.7z M40.7,4.5
	c0.6,0,1.1,0.5,1.1,1.1s-0.5,1.1-1.1,1.1s-1.1-0.5-1.1-1.1C39.6,5,40.1,4.5,40.7,4.5z"/>
<path class="st1" d="M37.5,22.3h21.4c1.1,0,1.9-0.9,2-1.9v-6.3c0-1.1-0.9-1.9-2-1.9H37.5c-1.1,0-1.9,0.9-2,1.9v6.3
	C35.6,21.4,36.5,22.3,37.5,22.3z M37.3,14.1c0-0.1,0.1-0.3,0.3-0.3H59c0.1,0,0.3,0.1,0.3,0.3v6.3c0,0.1-0.1,0.3-0.3,0.3H37.6
	c-0.1,0-0.3-0.1-0.3-0.3V14.1z"/>
<path class="st0" d="M40.7,19.3c1.1,0,2.1-0.9,2-2.1c0-1.1-0.9-2.1-2.1-2c-1.1,0-2,0.9-2,2.1C38.6,18.3,39.6,19.3,40.7,19.3z
	 M40.7,16.1c0.6,0,1.1,0.5,1.1,1.1s-0.5,1.1-1.1,1.1s-1.1-0.5-1.1-1.1C39.6,16.6,40.1,16.1,40.7,16.1L40.7,16.1z"/>
<path class="st0" d="M68.2,26.8c-1.1,0-2,1-2,2.1s1,2,2.1,2s2-0.9,2-2C70.3,27.7,69.4,26.8,68.2,26.8L68.2,26.8z M68.2,29.9
	c-0.6,0-1.1-0.5-1.1-1.1s0.5-1.1,1.1-1.1s1.1,0.5,1.1,1.1S68.8,30,68.2,29.9L68.2,29.9L68.2,29.9z"/>
<path class="st1" d="M65,10.7h21.4c1.1,0,1.9-0.9,2-1.9V2.4c0-1.1-0.9-1.9-2-1.9H65c-1.1,0-1.9,0.9-2,1.9v6.3
	C63,9.8,63.9,10.7,65,10.7z M64.7,2.4c0-0.1,0.1-0.3,0.3-0.3h21.4c0.1,0,0.3,0.1,0.3,0.3v6.3c0,0.1-0.1,0.3-0.3,0.3H65
	c-0.1,0-0.3-0.1-0.3-0.3V2.4z"/>
<path class="st0" d="M68.2,7.7c1.1,0,2.1-0.9,2-2.1c0-1.1-0.9-2.1-2.1-2c-1.1,0-2,0.9-2,2.1C66.1,6.7,67,7.7,68.2,7.7z M68.2,4.5
	c0.6,0,1.1,0.5,1.1,1.1s-0.5,1.1-1.1,1.1s-1.1-0.5-1.1-1.1C67,5,67.5,4.5,68.2,4.5z"/>
<path class="st1" d="M65,22.3h21.4c1.1,0,1.9-0.9,2-1.9v-6.3c0-1.1-0.9-1.9-2-1.9l0,0H65c-1.1,0-1.9,0.9-2,1.9v6.3
	C63,21.4,63.9,22.3,65,22.3z M64.7,14.1c0-0.1,0.1-0.3,0.3-0.3h21.4c0.1,0,0.3,0.1,0.3,0.3v6.3c0,0.1-0.1,0.3-0.3,0.3H65
	c-0.1,0-0.3-0.1-0.3-0.3V14.1z"/>
<path class="st0" d="M68.2,19.3c1.1,0,2.1-0.9,2-2.1c0-1.1-0.9-2.1-2.1-2c-1.1,0-2,0.9-2,2.1C66.1,18.3,67,19.3,68.2,19.3z
	 M68.2,16.1c0.6,0,1.1,0.5,1.1,1.1s-0.5,1.1-1.1,1.1s-1.1-0.5-1.1-1.1C67,16.6,67.5,16.1,68.2,16.1L68.2,16.1z"/>
<path class="st1" d="M122.2,37.9h-18.5v-4h10c1.1,0,1.9-0.9,2-1.9v-6.3c0-1.1-0.9-1.9-2-1.9H92.3c-1.1,0-1.9,0.9-2,1.9V32
	c0,1.1,0.9,1.9,2,1.9h9.4v4H76.5v-4h10c1.1,0,1.9-0.9,2-1.9v-6.3c0-1.1-0.9-1.9-2-1.9H65.1c-1.1,0-1.9,0.9-2,1.9V32
	c0,1.1,0.9,1.9,2,1.9h9.4v4H49.2v-4h10c1.1,0,1.9-0.9,2-1.9v-6.3c0-1.1-0.9-1.9-2-1.9H37.8c-1.1,0-1.9,0.9-2,1.9V32
	c0,1.1,0.9,1.9,2,1.9h9.4v4H22v-4h10c1.1,0,1.9-0.9,2-1.9v-6.3c0-1.1-0.9-1.9-2-1.9H10.6c-1.1,0-1.9,0.9-1.9,1.9V32
	c0,1.1,0.9,1.9,1.9,1.9H20v4H1.5c-0.6,0-1,0.5-1,1c0,0.6,0.5,1,1,1h121.1c0.6,0,1-0.5,1-1C123.2,38.4,122.8,37.9,122.2,37.9z M10,32
	v-6.3c0-0.1,0.1-0.3,0.3-0.3h21.4c0.1,0,0.3,0.1,0.3,0.3V32c0,0.1-0.1,0.3-0.3,0.3H10.3C10.1,32.3,10,32.1,10,32z M37.3,32v-6.3
	c0-0.1,0.1-0.3,0.3-0.3H59c0.1,0,0.3,0.1,0.3,0.3V32c0,0.1-0.1,0.3-0.3,0.3H37.6C37.4,32.2,37.3,32.1,37.3,32z M64.7,32v-6.3
	c0-0.1,0.1-0.3,0.3-0.3h21.4c0.1,0,0.3,0.1,0.3,0.3V32c0,0.1-0.1,0.3-0.3,0.3H65C64.8,32.3,64.7,32.1,64.7,32L64.7,32z M92,32v-6.3
	c0-0.1,0.1-0.3,0.3-0.3h21.4c0.1,0,0.3,0.1,0.3,0.3V32c0,0.1-0.1,0.3-0.3,0.3H92.3C92.1,32.2,92,32.1,92,32z"/>
<path class="st0" d="M95.5,26.8c-1.1,0-2.1,0.9-2,2.1s0.9,2.1,2.1,2c1.1,0,2-0.9,2-2.1C97.5,27.7,96.6,26.7,95.5,26.8z M95.5,29.9
	c-0.6,0-1.1-0.5-1.1-1.1s0.5-1.1,1.1-1.1s1.1,0.5,1.1,1.1S96.1,30,95.5,29.9L95.5,29.9L95.5,29.9z"/>
<path class="st1" d="M92.3,10.7h21.4c1.1,0,1.9-0.9,2-1.9V2.4c0-1.1-0.9-1.9-2-1.9H92.3c-1.1,0-1.9,0.9-2,1.9v6.3
	C90.3,9.8,91.2,10.7,92.3,10.7z M92,2.4c0-0.1,0.1-0.3,0.3-0.3h21.4c0.1,0,0.3,0.1,0.3,0.3v6.3c0,0.1-0.1,0.3-0.3,0.3H92.3
	c-0.1,0-0.2-0.1-0.2-0.3L92,2.4z"/>
<path class="st0" d="M95.5,7.7c1.1,0,2.1-0.9,2-2.1c0-1.1-0.9-2.1-2.1-2c-1.1,0-2,0.9-2,2.1C93.4,6.7,94.3,7.7,95.5,7.7z M95.5,4.5
	c0.6,0,1.1,0.5,1.1,1.1s-0.5,1.1-1.1,1.1s-1.1-0.5-1.1-1.1C94.3,5,94.8,4.5,95.5,4.5z"/>
<path class="st1" d="M92.3,22.3h21.4c1.1,0,1.9-0.9,2-1.9v-6.3c0-1.1-0.9-1.9-2-1.9H92.3c-1.1,0-1.9,0.9-2,1.9v6.3
	C90.3,21.4,91.2,22.3,92.3,22.3z M92,14.1c0-0.1,0.1-0.3,0.3-0.3h21.4c0.1,0,0.3,0.1,0.3,0.3v6.3c0,0.1-0.1,0.3-0.3,0.3H92.3
	c-0.1,0-0.3-0.1-0.3-0.3V14.1z"/>
<path class="st0" d="M95.5,19.3c1.1,0,2.1-0.9,2-2.1c0-1.1-0.9-2.1-2.1-2c-1.1,0-2,0.9-2,2.1C93.4,18.3,94.3,19.3,95.5,19.3z
	 M95.5,16.1c0.6,0,1.1,0.5,1.1,1.1s-0.5,1.1-1.1,1.1s-1.1-0.5-1.1-1.1C94.3,16.6,94.8,16.1,95.5,16.1L95.5,16.1z"/>
</svg>
