<?xml version="1.0" encoding="utf-8"?>
<!-- Generator: Adobe Illustrator 23.0.3, SVG Export Plug-In . SVG Version: 6.00 Build 0)  -->
<svg version="1.1" id="Layer_1" xmlns="http://www.w3.org/2000/svg" xmlns:xlink="http://www.w3.org/1999/xlink" x="0px" y="0px"
	 viewBox="0 0 197.1 96.8" style="enable-background:new 0 0 197.1 96.8;" xml:space="preserve">
<style type="text/css">
	.st0{fill:#58595B;stroke:none;stroke-width:1;}
	.st1{fill:#FFFFFF;}
	.st2{fill:#6AA845;}
	.st3{fill:#4D8FCC;}
	.st4{fill:#FFB71B;}
	.st5{fill:#58595B;}
	.st6{fill:#414042;}
</style>
<path class="st0" d="M65.3,0.5H4.2c-2,0-3.7,1.6-3.7,3.7V86c0,2,1.6,3.7,3.7,3.7h4.5v5.6c0,0.5,0.4,1,1,1h14.8c0.5,0,1-0.4,1-1l0,0
	v-5.6h18.6v5.6c0,0.5,0.4,1,1,1h14.7c0.5,0,1-0.4,1-1v-5.6h4.5c2,0,3.7-1.6,3.7-3.7V4.2C69,2.2,67.3,0.5,65.3,0.5L65.3,0.5z
	 M23.4,94.3H10.6v-4.6h12.8C23.4,89.7,23.4,94.3,23.4,94.3z M58.9,94.3H46.1v-4.6h12.8C58.9,89.7,58.9,94.3,58.9,94.3z"/>
<rect x="4" y="32.8" class="st1" width="61.4" height="24.6"/>
<path class="st2" d="M66.2,58.2H3.3V32.1h62.9C66.2,32.1,66.2,58.2,66.2,58.2z M4.8,56.7h59.9V33.5H4.8V56.7L4.8,56.7z"/>
<path class="st1" d="M4.2,4h61.1c0.1,0,0.2,0.1,0.2,0.2v25.2H4.1V4.3C4,4.1,4.1,4,4.2,4L4.2,4z"/>
<path class="st3" d="M66.2,30.1H3.3V4.2c0-0.5,0.4-0.9,0.9-0.9h61.1c0.5,0,0.9,0.4,0.9,0.9V30.1z M4.8,28.6h59.9V4.7H4.8V28.6
	L4.8,28.6z"/>
<path class="st1" d="M65.3,86.2H4.2C4.1,86.2,4,86.1,4,86V60.9h61.4V86C65.5,86.1,65.4,86.2,65.3,86.2z"/>
<path class="st4" d="M65.3,86.9H4.2c-0.5,0-0.9-0.4-0.9-0.9V60.1h62.9V86C66.2,86.5,65.8,86.9,65.3,86.9z M4.8,85.4h59.9V61.6H4.8
	V85.4L4.8,85.4z"/>
<path class="st5" d="M17.1,39.7c-3,0-5.4,2.4-5.4,5.4s2.4,5.4,5.4,5.4s5.4-2.4,5.4-5.4l0,0C22.5,42.1,20,39.7,17.1,39.7z M17.1,48.5
	c-1.9,0-3.5-1.5-3.5-3.5c0-1.9,1.5-3.5,3.5-3.5c1.9,0,3.5,1.5,3.5,3.5C20.5,47,19,48.5,17.1,48.5L17.1,48.5z"/>
<path class="st5" d="M17.1,22.4c3,0,5.4-2.4,5.4-5.4s-2.4-5.4-5.4-5.4S11.7,14,11.7,17S14.1,22.4,17.1,22.4z M17.1,13.6
	c1.9,0,3.5,1.5,3.5,3.5c0,1.9-1.5,3.5-3.5,3.5c-1.9,0-3.5-1.5-3.5-3.5l0,0C13.6,15.1,15.2,13.6,17.1,13.6z"/>
<path class="st5" d="M17.1,67.8c-3,0-5.4,2.4-5.4,5.4s2.4,5.4,5.4,5.4s5.4-2.4,5.4-5.4l0,0C22.5,70.2,20,67.8,17.1,67.8z M17.1,76.6
	c-1.9,0-3.5-1.5-3.5-3.5s1.5-3.5,3.5-3.5c1.9,0,3.5,1.5,3.5,3.5C20.5,75,19,76.6,17.1,76.6L17.1,76.6L17.1,76.6z"/>
<path class="st5" d="M55.4,42.6c1.4,0,2.4,1.1,2.4,2.4c0,1.4-1.1,2.4-2.4,2.4S53,46.3,53,45C53,43.7,54,42.6,55.4,42.6z"/>
<path class="st5" d="M46.5,42.6c1.4,0,2.4,1.1,2.4,2.4c0,1.4-1.1,2.4-2.4,2.4c-1.4,0-2.4-1.1-2.4-2.4C44.1,43.7,45.2,42.6,46.5,42.6
	z"/>
<path class="st5" d="M37.7,42.6c1.4,0,2.4,1.1,2.4,2.4c0,1.4-1.1,2.4-2.4,2.4c-1.4,0-2.4-1.1-2.4-2.4C35.2,43.7,36.3,42.6,37.7,42.6
	z"/>
<path class="st5" d="M55.4,19.5c1.3,0,2.4-1.1,2.5-2.4c0-1.4-1.1-2.4-2.4-2.5c-1.4,0-2.4,1.1-2.5,2.4l0,0C53,18.4,54,19.5,55.4,19.5
	z"/>
<path class="st5" d="M46.5,19.5c1.4,0,2.4-1.1,2.4-2.4c0-1.4-1.1-2.4-2.4-2.4c-1.4,0-2.4,1.1-2.4,2.4S45.2,19.5,46.5,19.5z"/>
<path class="st5" d="M37.7,19.5c1.4,0,2.4-1.1,2.4-2.4c0-1.4-1.1-2.4-2.4-2.4c-1.4,0-2.4,1.1-2.4,2.4S36.3,19.5,37.7,19.5z"/>
<path class="st5" d="M55.4,70.8c-1.4,0-2.4,1.1-2.4,2.4c0,1.4,1.1,2.4,2.4,2.4c1.3,0,2.4-1.1,2.4-2.4l0,0
	C57.8,71.8,56.7,70.8,55.4,70.8z"/>
<path class="st5" d="M46.5,70.8c-1.4,0-2.4,1.1-2.4,2.4c0,1.4,1.1,2.4,2.4,2.4c1.4,0,2.4-1.1,2.4-2.4l0,0
	C49,71.8,47.9,70.8,46.5,70.8z"/>
<path class="st5" d="M37.7,70.8c-1.4,0-2.4,1.1-2.4,2.4c0,1.4,1.1,2.4,2.4,2.4c1.4,0,2.4-1.1,2.4-2.4l0,0
	C40.1,71.8,39,70.8,37.7,70.8z"/>
<path class="st6" d="M84.3,45.5v1.9c0,1.9-1,3.1-3.1,3.1c-0.8,0-1.5,0-2.2-0.1v-8c0.6,0,1.4-0.1,2.3-0.1
	C83.2,42.4,84.3,43.5,84.3,45.5z M80.3,43.6v5.5c0.3,0,0.5,0,0.8,0.1c0.8,0.1,1.6-0.6,1.7-1.4c0-0.1,0-0.2,0-0.3v-2
	c0-1.3-0.6-1.9-1.7-1.9C80.9,43.6,80.6,43.6,80.3,43.6z"/>
<path class="st6" d="M91.4,50.4h-1.5l-0.4-1.6H87l-0.4,1.6h-1.5l2.3-7.9h1.7L91.4,50.4z M87.2,47.5h1.9l-1-3.8L87.2,47.5z"/>
<polygon class="st6" points="97.1,43.8 94.9,43.8 94.9,50.4 93.5,50.4 93.5,43.8 91.3,43.8 91.3,42.5 97.1,42.5 "/>
<path class="st6" d="M103.4,50.4h-1.5l-0.4-1.6H99l-0.4,1.6h-1.5l2.3-7.9h1.7L103.4,50.4z M99.2,47.5h1.9l-1-3.8L99.2,47.5z"/>
<path class="st6" d="M109.5,44.3v0.2c0,0.8-0.4,1.5-1.2,1.7c0.9,0.1,1.5,0.9,1.5,1.8v0.2c0,1.3-0.9,2.3-2.9,2.3
	c-0.7,0-1.2,0-2.3-0.1v-8c0.6,0,1.5-0.1,2.3-0.1C108.6,42.3,109.5,43.2,109.5,44.3z M106,43.6v2.2h0.9c0.8,0,1.2-0.4,1.2-1v-0.3
	c0-0.6-0.4-0.9-1.3-0.9C106.5,43.6,106.3,43.6,106,43.6z M106,47v2.3c0.3,0,0.6,0,0.9,0c1.1,0,1.5-0.4,1.5-1.1V48c0-0.6-0.4-1-1.4-1
	H106z"/>
<path class="st6" d="M116.9,50.4h-1.5l-0.4-1.6h-2.5l-0.4,1.6h-1.5l2.3-7.9h1.7L116.9,50.4z M112.7,47.5h1.9l-1-3.8L112.7,47.5z"/>
<path class="st6" d="M121.9,42.5v1.3c-0.6-0.1-1.2-0.2-1.8-0.2c-0.8,0-1,0.3-1,0.8v0.3c0,0.4,0.1,0.6,0.8,0.8l1.1,0.4
	c1,0.2,1.7,1.1,1.5,2.1v0.2c0,1.4-0.8,2.3-2.7,2.3c-0.6,0-1.2-0.1-1.9-0.2V49c0.6,0.1,1.2,0.2,1.8,0.3c1,0,1.3-0.3,1.3-0.9v-0.3
	c0-0.4-0.2-0.6-0.6-0.8l-1.2-0.4c-1-0.2-1.7-1.1-1.6-2.1v-0.1c0-1.4,0.8-2.3,2.4-2.3C120.6,42.4,121.3,42.4,121.9,42.5z"/>
<polygon class="st6" points="128.2,43.8 125.3,43.8 125.3,45.7 128,45.7 128,47 125.3,47 125.3,49 128.2,49 128.2,50.4 123.9,50.4 
	123.9,42.5 128.2,42.5 "/>
<path class="st6" d="M136.2,42.5v1.2c-0.4-0.1-0.9-0.1-1.3-0.1c-0.8,0-1.1,0.3-1.1,0.9v0.2c0,0.6,0.4,1.1,1.2,1.1h1V45h1.3v0.8h0.8
	V47h-0.8v3.2c-0.8,0.2-1.5,0.3-2.3,0.3c-2.1,0-2.8-0.8-2.8-2.1v-0.3c0-0.9,0.6-1.6,1.4-1.8c-0.7-0.3-1.2-0.9-1.1-1.7v-0.2
	c0-1.1,0.8-2,2.3-2C135.2,42.4,135.7,42.4,136.2,42.5z M134.9,47c-1,0-1.4,0.4-1.4,1.1v0.3c0,0.6,0.4,1,1.4,1c0.3,0,0.7,0,1-0.1
	v-2.2L134.9,47L134.9,47z"/>
<path class="st6" d="M146.8,44.6v0.3c0,0.9-0.5,1.7-1.3,2l1.9,3.5h-1.6l-1.7-3.2c-0.3,0-0.6,0-0.9,0v3.2h-1.4v-8
	c0.7,0,1.6-0.1,2.2-0.1C145.9,42.3,146.8,43.2,146.8,44.6z M143.2,43.6v2.3c0.2,0,0.5,0,0.8,0.1c1,0,1.4-0.4,1.4-1.1v-0.2
	c0-0.7-0.4-1-1.4-1L143.2,43.6z"/>
<polygon class="st6" points="152.9,43.8 150,43.8 150,45.7 152.7,45.7 152.7,47 150,47 150,49 152.9,49 152.9,50.4 148.6,50.4 
	148.6,42.5 152.9,42.5 "/>
<path class="st6" d="M159.7,44.6v0.3c0,1.5-0.9,2.5-2.7,2.5c-0.3,0-0.6,0-0.9-0.1v3.1h-1.4v-7.9c0.6,0,1.4-0.1,2.2-0.1
	C158.8,42.3,159.7,43.2,159.7,44.6z M156.1,43.6V46c0.3,0,0.5,0.1,0.8,0.1c0.9,0,1.4-0.4,1.4-1.2v-0.2c0-0.7-0.4-1.1-1.4-1.1
	C156.5,43.6,156.3,43.6,156.1,43.6z"/>
<path class="st6" d="M166.5,45v2.9c0,1.6-0.8,2.6-2.7,2.6s-2.7-1-2.7-2.6V45c0-1.7,0.8-2.7,2.7-2.7C165.6,42.3,166.5,43.3,166.5,45z
	 M162.5,44.9v3c0.1,0.7,0.7,1.2,1.4,1.2c0.6,0,1.1-0.5,1.2-1.2v-3c-0.1-0.7-0.7-1.2-1.4-1.2C163,43.8,162.5,44.3,162.5,44.9
	L162.5,44.9z"/>
<path class="st6" d="M173.3,44.6v0.3c0,0.9-0.5,1.7-1.3,2l1.9,3.5h-1.6l-1.7-3.2c-0.3,0-0.6,0-0.9,0v3.2h-1.4v-8
	c0.7,0,1.6-0.1,2.2-0.1C172.4,42.3,173.3,43.2,173.3,44.6z M169.7,43.6v2.3c0.2,0,0.5,0,0.8,0.1c1,0,1.4-0.4,1.4-1.1v-0.2
	c0-0.7-0.4-1-1.4-1C170.2,43.6,169.9,43.6,169.7,43.6z"/>
<polygon class="st6" points="180.2,43.8 178,43.8 178,50.4 176.6,50.4 176.6,43.8 174.4,43.8 174.4,42.5 180.2,42.5 "/>
<rect x="181.6" y="42.5" class="st6" width="1.4" height="7.9"/>
<polygon class="st6" points="186.2,44.8 186.2,50.4 184.8,50.4 184.8,42.5 186.8,42.5 188.8,48.1 188.8,42.5 190.2,42.5 190.2,50.4 
	188.3,50.4 "/>
<path class="st6" d="M196.8,42.6v1.3c-0.7-0.1-1.4-0.2-2.1-0.3c-0.9,0-1.3,0.3-1.3,1.2V48c0,0.9,0.3,1.2,1.2,1.2
	c0.4,0,0.8,0,1.1-0.1V47h-1.2v-1.3h2.6V50c-0.8,0.3-1.7,0.4-2.5,0.5c-2,0-2.6-0.8-2.6-2.5v-3.1c0-1.7,0.8-2.5,2.7-2.5
	C195.4,42.4,196.1,42.5,196.8,42.6z"/>
<polygon class="st6" points="86.3,77.7 84.6,77.7 83.2,71.4 81.9,77.7 80.1,77.7 78.4,69.9 79.9,69.9 81.1,76.3 82.4,69.9 
	84.1,69.9 85.4,76.2 86.5,69.9 88,69.9 "/>
<polygon class="st6" points="93.8,71.2 90.8,71.2 90.8,73.1 93.5,73.1 93.5,74.4 90.8,74.4 90.8,76.4 93.8,76.4 93.8,77.7 
	89.4,77.7 89.4,69.9 93.8,69.9 "/>
<path class="st6" d="M100.4,71.7v0.2c0,0.8-0.4,1.5-1.2,1.7c0.9,0.1,1.5,0.9,1.5,1.8v0.2c0,1.3-0.8,2.3-2.9,2.3
	c-0.7,0-1.2,0-2.3-0.1v-8.1c0.6,0,1.5-0.1,2.3-0.1C99.5,69.7,100.4,70.6,100.4,71.7z M96.9,71v2.2h0.9c0.8,0,1.2-0.4,1.2-1V72
	c0-0.6-0.4-0.9-1.3-0.9C97.4,71,97.2,71,96.9,71z M96.9,74.4v2.3c0.3,0,0.6,0,0.9,0c1,0,1.5-0.4,1.5-1.1v-0.2c0-0.6-0.4-1-1.4-1
	C97.9,74.4,96.9,74.4,96.9,74.4z"/>
<path class="st6" d="M108.6,69.9v1.3c-0.6-0.1-1.2-0.2-1.8-0.2c-0.8,0-1,0.3-1,0.8v0.3c0,0.4,0.1,0.6,0.8,0.8l1.1,0.4
	c1,0.2,1.7,1.1,1.5,2.1v0.2c0,1.4-0.8,2.3-2.7,2.3c-0.6,0-1.2-0.1-1.8-0.2v-1.3c0.6,0.1,1.2,0.2,1.8,0.3c1,0,1.3-0.3,1.3-0.9v-0.3
	c0-0.4-0.2-0.6-0.6-0.8l-1.2-0.4c-1-0.2-1.7-1.1-1.6-2.1v-0.1c0-1.4,0.8-2.3,2.4-2.3C107.4,69.8,108,69.8,108.6,69.9z"/>
<polygon class="st6" points="115,71.2 112.1,71.2 112.1,73.1 114.8,73.1 114.8,74.4 112.1,74.4 112.1,76.4 115,76.4 115,77.7 
	110.6,77.7 110.6,69.9 115,69.9 "/>
<path class="st6" d="M121.7,71.9v0.3c0,0.9-0.5,1.7-1.3,2l2,3.5h-1.6l-1.7-3.2c-0.3,0-0.6,0-0.9,0v3.2h-1.4v-8
	c0.7,0,1.6-0.1,2.2-0.1C120.9,69.7,121.7,70.6,121.7,71.9z M118.1,71v2.3c0.2,0,0.5,0,0.8,0.1c1,0,1.4-0.4,1.4-1.1v-0.2
	c0-0.7-0.4-1-1.4-1C118.7,71,118.4,71,118.1,71z"/>
<polygon class="st6" points="126.7,77.7 125,77.7 122.8,69.9 124.3,69.9 125.9,76.5 127.5,69.9 129,69.9 "/>
<polygon class="st6" points="134.7,71.2 131.7,71.2 131.7,73.1 134.4,73.1 134.4,74.4 131.7,74.4 131.7,76.4 134.7,76.4 134.7,77.7 
	130.3,77.7 130.3,69.9 134.7,69.9 "/>
<path class="st6" d="M141.4,71.9v0.3c0,0.9-0.5,1.7-1.3,2l1.9,3.5h-1.6l-1.7-3.2c-0.3,0-0.6,0-0.9,0v3.2h-1.4v-8
	c0.7,0,1.6-0.1,2.2-0.1C140.6,69.7,141.4,70.6,141.4,71.9z M137.8,71v2.3c0.2,0,0.5,0,0.8,0.1c1,0,1.4-0.4,1.4-1.1v-0.2
	c0-0.7-0.4-1-1.4-1L137.8,71z"/>
<polygon class="st6" points="84.4,16.9 83.1,21.5 81.6,21.5 80.3,16.9 80.3,22.4 78.9,22.4 79,14.5 80.8,14.5 82.3,20.1 83.9,14.5 
	85.7,14.5 85.8,22.4 84.4,22.4 "/>
<path class="st6" d="M93.3,22.4h-1.5l-0.4-1.6h-2.5l-0.4,1.6H87l2.3-7.9H91L93.3,22.4z M89.1,19.5H91l-1-3.8L89.1,19.5z"/>
<polygon class="st6" points="95.9,16.8 95.9,22.4 94.5,22.4 94.5,14.5 96.4,14.5 98.4,20.1 98.4,14.5 99.8,14.5 99.8,22.4 
	97.9,22.4 "/>
<path class="st6" d="M107.4,22.4h-1.5l-0.4-1.6H103l-0.4,1.6h-1.5l2.3-7.9h1.7L107.4,22.4z M103.2,19.5h1.9l-1-3.8L103.2,19.5z"/>
<path class="st6" d="M113.1,14.6v1.3c-0.7-0.1-1.4-0.2-2.1-0.2c-0.9,0-1.3,0.3-1.3,1.2v3.2c0,0.9,0.3,1.2,1.2,1.2
	c0.4,0,0.8,0,1.1-0.1v-2.1h-1.3v-1.3h2.6v4.3c-0.8,0.3-1.7,0.4-2.5,0.5c-2,0-2.6-0.8-2.6-2.5V17c0-1.7,0.8-2.5,2.7-2.5
	C111.6,14.4,112.4,14.5,113.1,14.6z"/>
<polygon class="st6" points="119.6,15.8 116.7,15.8 116.7,17.7 119.4,17.7 119.4,19 116.7,19 116.7,21 119.6,21 119.6,22.3 
	115.2,22.3 115.2,14.5 119.6,14.5 "/>
<polygon class="st6" points="126.7,16.9 125.5,21.5 123.9,21.5 122.7,16.9 122.6,22.4 121.3,22.4 121.3,14.5 123.2,14.5 124.7,20.1 
	126.2,14.5 128.1,14.5 128.1,22.4 126.8,22.4 "/>
<polygon class="st6" points="134.3,15.8 131.4,15.8 131.4,17.7 134.1,17.7 134.1,19 131.4,19 131.4,21 134.3,21 134.3,22.3 
	129.9,22.3 129.9,14.5 134.3,14.5 "/>
<polygon class="st6" points="137.4,16.8 137.4,22.4 136,22.4 136,14.5 138,14.5 140,20.1 140,14.5 141.4,14.5 141.4,22.4 
	139.5,22.4 "/>
<polygon class="st6" points="148.6,15.8 146.4,15.8 146.4,22.4 145,22.4 145,15.8 142.8,15.8 142.8,14.5 148.6,14.5 "/>
<polygon class="st6" points="156.9,15.8 153.9,15.8 153.9,17.7 156.6,17.7 156.6,19 153.9,19 153.9,21 156.9,21 156.9,22.3 
	152.5,22.3 152.5,14.5 156.9,14.5 "/>
<polygon class="st6" points="160,16.8 160,22.4 158.6,22.4 158.6,14.5 160.5,14.5 162.6,20.1 162.6,14.5 163.9,14.5 163.9,22.4 
	162,22.4 "/>
<path class="st6" d="M170.6,14.6v1.3c-0.7-0.1-1.4-0.2-2.1-0.2c-0.9,0-1.3,0.3-1.3,1.2v3.2c0,0.9,0.3,1.2,1.2,1.2
	c0.4,0,0.8,0,1.1-0.1v-2.1h-1.2v-1.3h2.6v4.3c-0.8,0.3-1.7,0.4-2.5,0.5c-1.9,0-2.6-0.8-2.6-2.5V17c0-1.7,0.8-2.5,2.7-2.5
	C169.1,14.4,169.8,14.5,170.6,14.6z"/>
<rect x="172.7" y="14.5" class="st6" width="1.4" height="7.9"/>
<polygon class="st6" points="177.3,16.8 177.3,22.4 175.9,22.4 175.9,14.5 177.9,14.5 179.9,20.1 179.9,14.5 181.3,14.5 181.3,22.4 
	179.4,22.4 "/>
<polygon class="st6" points="187.5,15.8 184.6,15.8 184.6,17.7 187.3,17.7 187.3,19 184.6,19 184.6,21 187.5,21 187.5,22.3 
	183.1,22.3 183.1,14.5 187.5,14.5 "/>
</svg>
