<?xml version="1.0" encoding="utf-8"?>
<!-- Generator: Adobe Illustrator 23.0.3, SVG Export Plug-In . SVG Version: 6.00 Build 0)  -->
<svg version="1.1" id="Layer_1" xmlns="http://www.w3.org/2000/svg" xmlns:xlink="http://www.w3.org/1999/xlink" x="0px" y="0px"
	 viewBox="0 0 97.7 45.6" style="enable-background:new 0 0 97.7 45.6;" xml:space="preserve">
<style type="text/css">
	.st0{fill:#58595B;stroke:none;stroke-width:1;}
	.st1{fill:#58595B;}
</style>
<path class="st0" d="M49.8,33.4l-3.7-5.9V4.7c0-1.9-1.6-3.5-3.5-3.5H7.9C6,1.2,4.4,2.8,4.4,4.7v22.8l-3.7,5.9
	c-0.1,0.2-0.2,0.4-0.2,0.6v0.8c0,2.3,1.9,4.2,4.2,4.2h40.9c2.3,0,4.2-1.9,4.2-4.2V34C49.9,33.7,49.9,33.5,49.8,33.4z M6.7,4.7
	c0-0.6,0.5-1.2,1.2-1.2h15.3l0.2,0.8h3.9l0.2-0.8h15.3C43.4,3.5,44,4,44,4.7v22.4H7V4.7H6.7z M6.5,28.6h37.6l3.1,5H31.4L31,31.7
	H19.4l-0.3,1.9H3.3L6.5,28.6z M47.6,34.7c0,1.1-0.9,1.9-1.9,1.9H4.8c-1.1,0-1.9-0.9-1.9-1.9v-0.4h44.7L47.6,34.7z"/>
<path class="st1" d="M8.7,25.5h33.2v-20H8.7V25.5z M9.4,6.2H41v18.5H9.4V6.2z"/>
<path class="st0" d="M73.3,37.4c-0.8,0-1.7,0-2.7,0c-3.9,0.1-7.7-0.2-11.5-0.9v-4c0-0.4-0.3-0.7-0.7-0.7s-0.7,0.3-0.7,0.7v3.7
	c-2.3-0.6-3.1-1.3-3.1-1.7c0-6.3,4.2-8.7,10.5-10.4h0.1c0.3,1.2,1.1,2.2,2.2,2.8c2,1.1,4.4,1.1,6.5,0c1.1-0.6,1.9-1.6,2.2-2.8h0.1
	l0.6,0.2c0.6-0.6,1.3-1.1,2-1.6c-0.7-0.2-1.4-0.4-2.1-0.6h-0.1c-1.1-0.2-1.5-0.5-1.7-1c2.4-2,4.8-5.3,4.8-9.1
	c0-7.2-3.4-11.5-9.1-11.5S61.5,4.8,61.5,12c0,3.7,2.4,7,4.8,9.1c-0.2,0.6-0.5,0.8-1.6,1h-0.1c-6,1.6-12.1,4.4-12.1,12.4
	c0,2.3,3.2,5,18.1,5c1.3,0,2.4,0,3.5-0.1C73.8,38.7,73.6,38.1,73.3,37.4z M63.6,12c0-2.8,0.7-9.4,7-9.4c6.4,0,7,6.5,7,9.4
	c0,3.2-2.3,6.2-4.5,7.8c-0.3,0.2-0.5,0.6-0.4,1c0.3,1.5,0.8,2.3,2,2.8c-0.2,0.8-0.8,1.5-1.6,2c-1.6,0.8-3.5,0.8-5.1,0
	c-0.8-0.4-1.3-1.1-1.6-2c1.1-0.5,1.7-1.4,1.9-2.9c0.1-0.4-0.1-0.8-0.4-1C66,18.1,63.6,15.1,63.6,12z"/>
<path class="st0" d="M85.7,45.1c-6.4,0-11.5-5.2-11.5-11.5c0-6.4,5.2-11.5,11.5-11.5c6.4,0,11.5,5.2,11.5,11.5S92,45,85.7,45.1z
	 M85.7,24.1c-5.2,0-9.4,4.2-9.4,9.4s4.2,9.4,9.4,9.4c5.2,0,9.4-4.2,9.4-9.4C95.1,28.4,90.9,24.1,85.7,24.1z"/>
<path class="st1" d="M89,32.8h-0.3v-1.2c0.2-1.7-1.1-3.2-2.8-3.4s-3.2,1.1-3.4,2.8c0,0.2,0,0.4,0,0.6v1.2h-0.3
	c-0.6,0-1.1,0.5-1.1,1.1v4c0,0.6,0.5,1.1,1.1,1.1H89c0.6,0,1.1-0.5,1.1-1.1v-4C90.1,33.3,89.6,32.8,89,32.8z M83.5,31.6
	c-0.2-1.2,0.7-2.3,1.8-2.5c1.2-0.2,2.3,0.7,2.5,1.8c0,0.2,0,0.4,0,0.6v1.2h-4.3V31.6z M89.2,37.9L89,38.1h-6.8l-0.1-0.2v-4l0.1-0.1
	H89l0.2,0.1V37.9z"/>
<path class="st1" d="M85.7,34.5c-0.5,0-0.9,0.4-0.9,0.9c0,0.4,0.2,0.7,0.6,0.9v0.8c0,0.2,0.1,0.3,0.3,0.3c0.2,0,0.3-0.1,0.3-0.3
	v-0.8c0.5-0.2,0.7-0.7,0.6-1.2C86.4,34.7,86.1,34.4,85.7,34.5z"/>
</svg>
