<?xml version="1.0" encoding="utf-8"?>
<!-- Generator: Adobe Illustrator 23.0.3, SVG Export Plug-In . SVG Version: 6.00 Build 0)  -->
<svg version="1.1" id="Layer_1" xmlns="http://www.w3.org/2000/svg" xmlns:xlink="http://www.w3.org/1999/xlink" x="0px" y="0px"
	 viewBox="0 0 62.3 38.9" style="enable-background:new 0 0 62.3 38.9;" xml:space="preserve">
<style type="text/css">
	.st0{fill:#58595B;stroke:none;stroke-width:1}
	.st1{fill:#58595B;}
</style>
<path class="st0" d="M37.7,0.7H4.8C2.4,0.7,0.5,2.6,0.5,5v23.3c0,2.4,1.9,4.3,4.3,4.3h11v3.6H11c-0.6,0-1.1,0.5-1.1,1.1
	s0.5,1.1,1.1,1.1h20.4c0.6,0,1.1-0.5,1.1-1.1s-0.5-1.1-1.1-1.1h-4.8v-3.6h11.1c2.4,0,4.3-1.9,4.3-4.3V5C42,2.6,40.1,0.7,37.7,0.7z
	 M24.5,36.1H18v-3.5h6.5V36.1z M39.8,28.2c0,1.2-1,2.2-2.2,2.2H4.8c-1.2,0-2.2-1-2.2-2.2V4.9c0-1.2,1-2.1,2.2-2.1h32.9
	c1.2,0,2.2,1,2.2,2.2L39.8,28.2z"/>
<path class="st1" d="M53.2,23.7c0.7,0,1.4,0.6,1.4,1.3c0,0.7-0.6,1.4-1.4,1.4s-1.4-0.6-1.4-1.4C51.9,24.3,52.5,23.7,53.2,23.7z"/>
<path class="st1" d="M56.4,6.1h-6.5v5.4h6.5V6.1z M55.4,10.5h-4.3V7.2h4.3V10.5z"/>
<path class="st1" d="M53.2,17.7c-1.2,0-2.2,1-2.2,2.2s1,2.2,2.2,2.2s2.2-1,2.2-2.2S54.4,17.7,53.2,17.7z M53.2,21
	c-0.6,0-1.1-0.5-1.1-1.1s0.5-1.1,1.1-1.1s1.1,0.5,1.1,1.1S53.8,21,53.2,21z"/>
<path class="st0" d="M57.5,0.5h-8.6c-2.4,0-4.3,1.9-4.3,4.3V34c0,2.4,1.9,4.3,4.3,4.3h8.6c2.4,0,4.3-1.9,4.3-4.3V4.8
	C61.8,2.4,59.9,0.5,57.5,0.5z M48.9,2.6h8.6c1.2,0,2.2,1,2.2,2.2v26.4h-13V4.7C46.7,3.6,47.7,2.6,48.9,2.6z M57.5,36.1h-8.6
	c-1.2,0-2.2-1-2.2-2.2v-1.6h13v1.6C59.7,35.1,58.7,36.1,57.5,36.1z"/>
<path class="st1" d="M5,27.8h32.4V5.1H5V27.8z M6.1,6.2h30.2v20.5H6.1V6.2z"/>
</svg>
