<?xml version="1.0" encoding="utf-8"?>
<!-- Generator: Adobe Illustrator 23.0.3, SVG Export Plug-In . SVG Version: 6.00 Build 0)  -->
<svg version="1.1" id="Layer_1" xmlns="http://www.w3.org/2000/svg" xmlns:xlink="http://www.w3.org/1999/xlink" x="0px" y="0px"
	 viewBox="0 0 58.2 38.7" style="enable-background:new 0 0 58.2 38.7;" xml:space="preserve">
<style type="text/css">
	.st0{fill:#58595B;stroke:none;stroke-width:1}
</style>
<path class="st0" d="M46.9,14.5c0.2-0.9,0.3-1.8,0.3-2.6C47.1,5.5,41.9,0.4,35.5,0.5c-4.2,0-8.1,2.2-10.2,5.8
	c-0.6-0.1-1.3-0.2-1.9-0.2c-5.3,0-10,3.4-11.6,8.4C5.2,14.8,0.2,20.3,0.5,26.9c0.3,6.5,5.7,11.5,12.1,11.3h33.3
	c6.6-0.1,11.8-5.4,11.8-12C57.6,20.1,53,15.1,46.9,14.5z M45.9,35.5H12.6c-5.1,0.2-9.3-3.8-9.5-8.9s3.8-9.3,8.9-9.5
	c0.2,0,0.3,0,0.5,0c1.3,0,2.6,0.3,3.8,0.8c0.1,0,0.2,0.1,0.4,0.1c0.5,0,0.9-0.4,0.9-0.9c0-0.4-0.2-0.7-0.6-0.8
	c-0.8-0.4-1.7-0.6-2.6-0.8c1.2-4,4.9-6.7,9.1-6.7h0.2c2.3,0,4.6,0.9,6.4,2.4c0.2,0.1,0.4,0.2,0.6,0.2c0.3,0,0.5-0.1,0.7-0.3
	c0.3-0.4,0.3-0.9-0.1-1.3l0,0c-1.1-0.9-2.3-1.6-3.6-2.1c1.6-2.9,4.6-4.7,7.9-4.6c4.9-0.1,8.9,3.8,9,8.7c0,1.2-0.3,2.4-0.8,3.4
	c0,0.1-0.1,0.2-0.1,0.3c-1.3,0.3-2.5,0.7-3.6,1.4c-0.4,0.3-0.6,0.8-0.3,1.2c0.2,0.3,0.4,0.4,0.8,0.4c0.2,0,0.3,0,0.5-0.1
	c1.3-0.8,2.8-1.2,4.3-1.3h0.5c5.1-0.2,9.4,3.7,9.6,8.8s-3.7,9.4-8.8,9.6C46.4,35.5,46.1,35.5,45.9,35.5z"/>
</svg>
