<?xml version="1.0" encoding="utf-8"?>
<!-- Generator: Adobe Illustrator 23.0.3, SVG Export Plug-In . SVG Version: 6.00 Build 0)  -->
<svg version="1.1" id="Layer_1" xmlns="http://www.w3.org/2000/svg" xmlns:xlink="http://www.w3.org/1999/xlink" x="0px" y="0px"
	 viewBox="0 0 50.4 38.8" style="enable-background:new 0 0 50.4 38.8;" xml:space="preserve">
<style type="text/css">
	.st0{fill:#58595B;stroke:none;stroke-width:1}
	.st1{fill:#58595B;}
</style>
<path class="st0" d="M49.7,32.7L46,26.8V4c0-1.9-1.6-3.5-3.5-3.5H7.9C6,0.5,4.4,2,4.4,4l0,0v22.8l-3.7,5.9c-0.1,0.2-0.2,0.4-0.2,0.6
	v0.8c0,2.3,1.9,4.2,4.2,4.2h40.9c2.3,0,4.2-1.9,4.2-4.2v-0.8C49.9,33.1,49.9,32.9,49.7,32.7z M6.7,4c0-0.6,0.5-1.2,1.2-1.2h15.3
	l0.2,0.8h3.9l0.2-0.8h15.3C43.4,2.8,44,3.3,44,4v22.4H7V4H6.7z M6.4,27.9H44l3.1,5H31.3L31,31H19.5l-0.3,1.9H3.3L6.4,27.9z
	 M47.6,34.1c0,1.1-0.9,1.9-1.9,1.9H4.8c-1.1,0-1.9-0.9-1.9-1.9v-0.4h44.8v0.4H47.6z"/>
<path class="st1" d="M8.6,24.8h33.2V4.7H8.6V24.8z M9.4,5.5H41V24H9.4V5.5z"/>
</svg>
