<?xml version="1.0" encoding="utf-8"?>
<!-- Generator: Adobe Illustrator 23.0.3, SVG Export Plug-In . SVG Version: 6.00 Build 0)  -->
<svg version="1.1" id="Layer_1" xmlns="http://www.w3.org/2000/svg" xmlns:xlink="http://www.w3.org/1999/xlink" x="0px" y="0px"
	 viewBox="0 0 97.8 45.6" style="enable-background:new 0 0 97.8 45.6;" xml:space="preserve">
<style type="text/css">
	.st0{fill:#58595B;stroke:none;stroke-width:1}
	.st1{fill:#58595B;}
</style>
<path class="st0" d="M49.8,33.9L46.1,28V5.2c0-1.9-1.6-3.5-3.5-3.5H7.9C6,1.7,4.4,3.3,4.4,5.2V28l-3.7,5.9c-0.1,0.2-0.2,0.4-0.2,0.6
	v0.8c0,2.3,1.9,4.2,4.2,4.2h40.9c2.3,0,4.2-1.9,4.2-4.2v-0.8C50,34.3,49.9,34,49.8,33.9z M6.8,5.2C6.8,4.6,7.3,4,8,4h15.3l0.2,0.8
	h3.9L27.6,4h15.3c0.6,0,1.2,0.5,1.2,1.2v22.4h-37V5.2H6.8z M6.5,29.1h37.6l3.1,5H31.4l-0.3-1.9H19.5l-0.3,1.9H3.4L6.5,29.1z
	 M47.7,35.2c0,1.1-0.8,1.9-1.9,2h-0.1H4.8c-1.1,0-1.9-0.9-1.9-1.9v-0.4h44.7L47.7,35.2C47.6,35.2,47.7,35.2,47.7,35.2z"/>
<path class="st1" d="M8.7,26h33.2V6H8.7V26z M9.5,6.7h31.6v18.5H9.5V6.7z"/>
<path class="st0" d="M73.5,37.4c-0.8,0-1.7,0-2.7,0c-3.9,0.1-7.7-0.2-11.5-0.9v-4c0-0.4-0.3-0.7-0.7-0.7s-0.7,0.3-0.7,0.7l0,0v3.7
	c-2.3-0.6-3.1-1.3-3.1-1.7c0-6.3,4.2-8.7,10.5-10.4h0.1c0.3,1.2,1.1,2.2,2.2,2.8c2,1.1,4.5,1.1,6.5,0c1.1-0.6,1.9-1.6,2.2-2.8h0.1
	l0.6,0.2c0.6-0.6,1.3-1.1,2-1.6c-0.7-0.2-1.4-0.4-2.1-0.6h-0.1c-1.1-0.2-1.5-0.5-1.6-1c2.4-2,4.8-5.3,4.8-9.1
	c0-7.2-3.4-11.5-9.1-11.5S61.8,4.8,61.8,12c0,3.7,2.4,7,4.8,9.1c-0.2,0.6-0.5,0.8-1.7,1h-0.1c-6,1.6-12.1,4.4-12.1,12.4
	c0,2.3,3.1,5,18.1,5c1.3,0,2.4,0,3.5-0.1C74,38.8,73.7,38.1,73.5,37.4z M63.7,11.9c0-2.8,0.7-9.4,7-9.4s7,6.6,7,9.4
	c0,3.2-2.3,6.2-4.5,7.8c-0.3,0.2-0.5,0.6-0.4,1c0.3,1.5,0.8,2.3,1.9,2.9c-0.2,0.9-0.8,1.6-1.5,2c-1.6,0.8-3.5,0.8-5.1,0
	c-0.8-0.4-1.3-1.1-1.5-2c1.1-0.5,1.7-1.4,1.9-2.9c0.1-0.4-0.1-0.8-0.4-1C66.1,18.1,63.7,15.2,63.7,11.9z"/>
<path class="st0" d="M85.8,45.1c-6.4,0-11.5-5.1-11.5-11.5s5.1-11.5,11.5-11.5s11.5,5.1,11.5,11.5l0,0
	C97.3,39.9,92.1,45.1,85.8,45.1z M85.8,24.2c-5.2,0-9.4,4.2-9.4,9.4s4.2,9.4,9.4,9.4s9.4-4.2,9.4-9.4C95.2,28.4,91,24.2,85.8,24.2z"
	/>
<circle class="st1" cx="85.3" cy="36.2" r="0.3"/>
<path class="st1" d="M91.5,33l-1.6-1.4v-3.4c0-0.2-0.1-0.3-0.3-0.3h-2c-0.2,0-0.3,0.1-0.3,0.3v1.1l-1.4-1.2c-0.1-0.1-0.3-0.1-0.4,0
	L80,33c-0.1,0.1-0.1,0.4,0,0.5l0,0l0.2,0.2c0.1,0.1,0.4,0.1,0.5,0l0.4-0.3v5h-0.5c-0.2,0-0.4,0.2-0.4,0.4V39c0,0.2,0.2,0.4,0.4,0.4
	H91c0.2,0,0.4-0.2,0.4-0.4v-0.2c0-0.2-0.2-0.4-0.4-0.4h-0.5v-5l0.4,0.3c0.1,0.1,0.4,0.1,0.5,0l0.1-0.2C91.7,33.4,91.7,33.2,91.5,33
	L91.5,33z M88.3,28.8h0.6v1.8l-0.6-0.5V28.8z M86.8,38.3h-2.1v-3.8h2.1V38.3z M87.5,38.3V34c0-0.2-0.1-0.3-0.3-0.3h-3
	c-0.2,0-0.3,0.1-0.3,0.3l0,0v4.3H82v-5.8l3.4-3.1l0.3-0.2l0.3,0.2l3.5,3.1v5.8H87.5z"/>
</svg>
