<?xml version="1.0" encoding="utf-8"?>
<!-- Generator: Adobe Illustrator 23.0.3, SVG Export Plug-In . SVG Version: 6.00 Build 0)  -->
<svg version="1.1" id="Layer_1" xmlns="http://www.w3.org/2000/svg" xmlns:xlink="http://www.w3.org/1999/xlink" x="0px" y="0px"
	 viewBox="0 0 40.8 40.8" style="enable-background:new 0 0 40.8 40.8;" xml:space="preserve">
<style type="text/css">
	.st0{fill:#58595B;}
	.st1{fill:#58595B;stroke:none;stroke-width:1}
</style>
<path class="st0" d="M30.5,9c-1.4,0-2.4-1.1-2.4-2.4s1.1-2.4,2.4-2.4c1.4,0,2.4,1.1,2.4,2.4S31.8,9,30.5,9z M30.5,5.3
	c-0.7,0-1.3,0.6-1.3,1.3s0.6,1.3,1.3,1.3s1.3-0.6,1.3-1.3l0,0C31.8,5.9,31.3,5.2,30.5,5.3L30.5,5.3L30.5,5.3z"/>
<path class="st0" d="M9.1,7.8c-0.7,0-1.2-0.5-1.2-1.2s0.5-1.2,1.2-1.2s1.2,0.5,1.2,1.2C10.3,7.2,9.8,7.7,9.1,7.8L9.1,7.8z"/>
<path class="st0" d="M12.9,7.8c-0.7,0-1.2-0.5-1.2-1.2s0.5-1.2,1.2-1.2s1.2,0.5,1.2,1.2C14.1,7.2,13.5,7.7,12.9,7.8L12.9,7.8z"/>
<path class="st0" d="M16.6,7.8c-0.7,0-1.2-0.5-1.2-1.2s0.5-1.2,1.2-1.2c0.7,0,1.2,0.5,1.2,1.2C17.8,7.2,17.3,7.7,16.6,7.8L16.6,7.8z
	"/>
<path class="st1" d="M39.3,12.6H1.5c-0.5,0-1-0.5-1-1V1.5c0-0.5,0.4-1,1-1h37.8c0.5,0,1,0.4,1,1v10.1C40.3,12.2,39.9,12.6,39.3,12.6
	z M2.5,10.6h35.8V2.5H2.5V10.6z"/>
<path class="st0" d="M30.5,22.9c-1.4,0-2.4-1.1-2.4-2.4c0-1.4,1.1-2.4,2.4-2.4c1.4,0,2.4,1.1,2.4,2.4S31.8,22.9,30.5,22.9z
	 M30.5,19.1c-0.7,0-1.3,0.6-1.3,1.3s0.6,1.3,1.3,1.3s1.3-0.6,1.3-1.3l0,0C31.8,19.7,31.3,19.1,30.5,19.1L30.5,19.1L30.5,19.1z"/>
<path class="st0" d="M9.1,21.6c-0.7,0-1.2-0.5-1.2-1.2s0.5-1.2,1.2-1.2s1.2,0.5,1.2,1.2S9.8,21.6,9.1,21.6L9.1,21.6z"/>
<path class="st0" d="M12.9,21.6c-0.7,0-1.2-0.5-1.2-1.2s0.5-1.2,1.2-1.2s1.2,0.5,1.2,1.2S13.5,21.6,12.9,21.6L12.9,21.6z"/>
<path class="st0" d="M16.6,21.6c-0.7,0-1.2-0.5-1.2-1.2s0.5-1.2,1.2-1.2c0.7,0,1.2,0.5,1.2,1.2C17.8,21.1,17.3,21.6,16.6,21.6
	L16.6,21.6z"/>
<path class="st1" d="M39.3,26.5H1.5c-0.5,0-1-0.4-1-1V15.4c0-0.5,0.4-1,1-1h37.8c0.5,0,1,0.4,1,1v10.1C40.3,26,39.9,26.5,39.3,26.5z
	 M2.5,24.5h35.8v-8.1H2.5V24.5z"/>
<path class="st0" d="M30.5,36.7c-1.4,0-2.4-1.1-2.4-2.4s1.1-2.4,2.4-2.4c1.4,0,2.4,1.1,2.4,2.4S31.8,36.7,30.5,36.7z M30.5,33
	c-0.7,0-1.3,0.6-1.3,1.3s0.6,1.3,1.3,1.3s1.3-0.6,1.3-1.3l0,0C31.8,33.6,31.3,33,30.5,33L30.5,33L30.5,33z"/>
<path class="st0" d="M9.1,35.5c-0.7,0-1.2-0.5-1.2-1.2s0.5-1.2,1.2-1.2s1.2,0.5,1.2,1.2C10.3,34.9,9.8,35.5,9.1,35.5L9.1,35.5z"/>
<path class="st0" d="M12.9,35.5c-0.7,0-1.2-0.5-1.2-1.2s0.5-1.2,1.2-1.2s1.2,0.5,1.2,1.2C14.1,34.9,13.5,35.5,12.9,35.5L12.9,35.5z"
	/>
<path class="st0" d="M16.6,35.5c-0.7,0-1.2-0.5-1.2-1.2s0.5-1.2,1.2-1.2c0.7,0,1.2,0.5,1.2,1.2C17.8,34.9,17.3,35.5,16.6,35.5
	L16.6,35.5z"/>
<path class="st1" d="M39.3,40.3H1.5c-0.5,0-1-0.5-1-1V29.2c0-0.5,0.4-1,1-1l0,0h37.8c0.5,0,1,0.4,1,1v10.1
	C40.3,39.9,39.9,40.3,39.3,40.3z M2.5,38.3h35.8v-8.1H2.5V38.3z"/>
</svg>
