<?xml version="1.0" encoding="utf-8"?>
<!-- Generator: Adobe Illustrator 23.0.3, SVG Export Plug-In . SVG Version: 6.00 Build 0)  -->
<svg version="1.1" id="Layer_1" xmlns="http://www.w3.org/2000/svg" xmlns:xlink="http://www.w3.org/1999/xlink" x="0px" y="0px"
	 viewBox="0 0 40.5 38.8" style="enable-background:new 0 0 40.5 38.8;" xml:space="preserve">
<style type="text/css">
	.st0{fill:#58595B;stroke:none;stroke-width:1}
	.st1{fill:#58595B;}
</style>
<path class="st0" d="M37.3,0.5H3.2c-1.5,0-2.7,1.2-2.7,2.7v25.4c0,1.5,1.2,2.7,2.7,2.7h34.1c1.5,0,2.7-1.2,2.7-2.7V3.2
	C40,1.7,38.8,0.5,37.3,0.5z M38.5,26.3H1.9V3.1c0-0.7,0.5-1.2,1.2-1.2l0,0h34.2c0.7,0,1.2,0.5,1.2,1.2l0,0V26.3z M37.3,29.7H3.2
	c-0.7,0-1.2-0.5-1.2-1.2l0,0v-1.2h36.6v1.2C38.5,29.2,38,29.7,37.3,29.7L37.3,29.7L37.3,29.7z"/>
<path class="st0" d="M25.8,36.8c-0.9,0-1.7-0.8-1.7-1.7v-2.9h-1.5v2.9c0,0.6,0.2,1.2,0.5,1.7h-5.8c0.3-0.5,0.5-1.1,0.5-1.7v-2.9
	h-1.5v2.9c0,0.9-0.8,1.7-1.7,1.7h-4.1v1.5H30v-1.5H25.8z"/>
<path class="st1" d="M22.7,27.8c0.3,0,0.6,0.3,0.6,0.6c0,0.3-0.3,0.6-0.6,0.6c-0.3,0-0.6-0.3-0.6-0.6C22.1,28,22.3,27.8,22.7,27.8z"
	/>
<path class="st1" d="M20.2,27.8c0.3,0,0.6,0.3,0.6,0.6c0,0.3-0.3,0.6-0.6,0.6c-0.3,0-0.6-0.3-0.6-0.6C19.6,28,19.9,27.8,20.2,27.8z"
	/>
<path class="st1" d="M17.8,27.8c0.3,0,0.6,0.3,0.6,0.6c0,0.3-0.3,0.6-0.6,0.6c-0.3,0-0.6-0.3-0.6-0.6C17.2,28,17.5,27.8,17.8,27.8z"
	/>
<polygon class="st1" points="27.9,10.5 20.9,13.8 20.9,14.9 20.9,15.1 20.9,15.5 20.9,15.8 20.9,21.9 27.9,18.6 27.9,18.5 
	27.9,12.2 27.9,11.6 "/>
<polygon class="st1" points="19.6,15.8 19.6,15.1 19.6,13.9 12.6,10.7 12.6,18.5 12.6,18.7 19.6,21.9 "/>
<polygon class="st1" points="13.3,9.5 20.2,12.6 27.1,9.4 20.2,6.2 "/>
</svg>
