<?xml version="1.0" encoding="UTF-8" standalone="no"?>
<svg
   xmlns:dc="http://purl.org/dc/elements/1.1/"
   xmlns:cc="http://creativecommons.org/ns#"
   xmlns:rdf="http://www.w3.org/1999/02/22-rdf-syntax-ns#"
   xmlns:svg="http://www.w3.org/2000/svg"
   xmlns="http://www.w3.org/2000/svg"
   id="svg145554"
   version="1.1"
   viewBox="0 0 18.454 18.454"
   height="18.454mm"
   width="18.454mm">
  <defs
     id="defs145548" />
  <metadata
     id="metadata145551">
    <rdf:RDF>
      <cc:Work
         rdf:about="">
        <dc:format>image/svg+xml</dc:format>
        <dc:type
           rdf:resource="http://purl.org/dc/dcmitype/StillImage" />
        <dc:title></dc:title>
      </cc:Work>
    </rdf:RDF>
  </metadata>
  <g
     transform="translate(-235.70157,-133.55871)"
     id="layer1">
    <g
       style="stroke-width:0.78855985"
       transform="matrix(0.33552728,0,0,0.33552728,235.70157,133.55871)"
       id="Layer_2-92-2"
       data-name="Layer 2">
      <g
         style="stroke-width:0.78855985"
         id="Layer_1-2-28-0"
         data-name="Layer 1">
        <path
           style="fill:#58595b;stroke-width:0.78855985"
           class="cls-1"
           d="m 29.82,6.84 a 4.27,4.27 0 0 0 0.81,-0.1 3,3 0 0 1 0.45,-0.06 h 0.25 l 0.11,-0.22 c 0.13,-0.26 0.2,-0.29 0.32,-0.3 h 0.27 l 0.09,-0.24 a 1.56,1.56 0 0 0 0.08,-0.75 1.62,1.62 0 0 0 0,-0.21 V 4.49 h -0.42 c -0.37,0 -0.68,0 -1,0 a 8.59,8.59 0 0 1 -1.13,0 0.9,0.9 0 0 0 -0.7,-0.37 1,1 0 0 0 -0.92,1 1,1 0 0 0 0.64,1 1.1,1.1 0 0 0 1.15,0.72 z M 29,5.05 a 0.53,0.53 0 0 1 0.13,0.15 l 0.11,0.16 h 0.2 a 7.22,7.22 0 0 0 1.47,0 h 0.48 A 1.28,1.28 0 0 0 30.84,5.85 L 30.53,5.9 a 4.22,4.22 0 0 1 -0.66,0.08 c -0.33,0 -0.35,-0.1 -0.37,-0.22 l -0.06,-0.3 h -0.3 c -0.17,0 -0.18,-0.09 -0.18,-0.12 A 0.57,0.57 0 0 1 29,5.05 Z"
           id="path2917-2" />
        <path
           style="fill:#58595b;stroke-width:0.78855985"
           class="cls-1"
           d="m 9.34,13.26 a 0.66,0.66 0 0 0 -0.58,0.27 0.57,0.57 0 0 0 0,0.55 l 0.06,0.15 0.13,0.07 a 0.91,0.91 0 0 0 0.4,0.1 0.73,0.73 0 0 0 0.77,-0.58 L 10.17,13.53 9.91,13.38 A 1.25,1.25 0 0 0 9.34,13.26 Z"
           id="path2919-9" />
        <path
           style="fill:#58595b;stroke-width:0.78855985"
           class="cls-1"
           d="M 27.5,0 A 27.5,27.5 0 1 0 55,27.5 27.54,27.54 0 0 0 27.5,0 Z m 20.31,24.58 a 1.25,1.25 0 0 0 -0.49,-1 A 1.34,1.34 0 0 1 47,23.19 1.19,1.19 0 0 1 46.92,23.03 c -0.16,-0.36 -0.42,-1 -1,-1 a 0.78,0.78 0 0 0 -0.41,0.12 l -0.2,0.11 v 0.23 a 0.51,0.51 0 0 0 0.14,0.4 0.31,0.31 0 0 0 0.12,0.1 c 0.12,0.35 0.27,0.72 0.43,1.1 0.16,0.38 0.29,0.7 0.42,1.06 a 4,4 0 0 0 0.83,1.56 1.07,1.07 0 0 0 0.09,0.27 1.23,1.23 0 0 0 0,0.13 v 0.13 l 0.07,0.11 a 2.79,2.79 0 0 0 0.83,0.82 l 0.23,0.17 0.1,0.09 a 1.1,1.1 0 0 0 0.85,0.41 v 0 a 2.1,2.1 0 0 0 0.85,-0.23 l 0.34,-0.14 a 1.41,1.41 0 0 0 -0.18,0.5 4.9,4.9 0 0 0 -0.72,1.33 l -0.06,0.13 -0.41,0.37 c -0.17,0.16 -0.35,0.32 -0.54,0.47 -0.19,0.15 -0.38,0.27 -0.59,0.41 a 3.3,3.3 0 0 0 -0.85,0.66 8.46,8.46 0 0 0 -0.73,1.66 1.46,1.46 0 0 0 0.25,1.2 2.29,2.29 0 0 1 0.14,0.27 c 0,0 0,0 0,0.08 A 1,1 0 0 0 47.04,36 v 0.2 c 0,0.61 0,0.75 -0.34,0.92 a 3.81,3.81 0 0 0 -0.58,0.41 l -0.11,0.09 -0.19,0.14 c -0.41,0.3 -0.93,0.68 -0.84,1.18 a 1.11,1.11 0 0 0 0.08,0.3 c 0.08,0.23 0.09,0.32 0,0.44 -0.09,0.12 0,0 -0.17,0.11 L 44.6,40 44.42,40.11 v 0.22 a 3.07,3.07 0 0 0 0,0.38 2,2 0 0 1 0,0.23 l -0.31,0.37 a 3.52,3.52 0 0 1 -1.2,1.11 l -0.17,0.08 v 0.18 c 0,0 0,0.08 0,0.12 h -0.31 a 9.8,9.8 0 0 1 -1.52,0.16 c -0.51,0 -0.83,-0.09 -1,-0.27 0,-0.39 -0.1,-1.06 -0.55,-1.25 a 6.66,6.66 0 0 1 -0.22,-1.13 c 0,-0.29 -0.08,-0.59 -0.14,-0.86 A 3.81,3.81 0 0 0 38.73,38.07 3.31,3.31 0 0 0 38.52,37.61 1.38,1.38 0 0 1 38.33,37.19 1.68,1.68 0 0 1 38.7,36.1 2.41,2.41 0 0 0 39.16,34.16 2.46,2.46 0 0 0 38.76,33.39 2.08,2.08 0 0 0 38,32 2.63,2.63 0 0 1 37.6,31.49 0.41,0.41 0 0 0 37.6,31.4 1.76,1.76 0 0 0 38,30.29 V 30.16 L 37.93,30.05 A 1.34,1.34 0 0 1 37.82,29.84 L 37.71,29.6 37.59,29.38 h -0.26 c -0.7,0 -0.84,-0.15 -0.88,-0.27 l -0.1,-0.24 H 36.1 a 1.7,1.7 0 0 0 -0.33,0 l -0.16,-0.15 -0.27,0.15 a 4.3,4.3 0 0 1 -1.59,0.35 v 0 a 1.72,1.72 0 0 0 -1.42,0 A 1.18,1.18 0 0 1 31.6,29 v -0.05 a 1.23,1.23 0 0 0 -0.45,-0.59 2.41,2.41 0 0 0 -0.6,-0.91 1.4,1.4 0 0 1 -0.42,-0.63 V 26.68 L 30,26.57 29.86,26.47 C 29.64,26.3 29.61,26.28 29.65,26.03 a 4.28,4.28 0 0 1 0.13,-0.46 2.32,2.32 0 0 0 0.13,-1.05 c 0,-0.13 0,-0.26 0,-0.39 0,-0.13 0,-0.26 0,-0.38 a 1.26,1.26 0 0 0 -0.08,-0.3 2.4,2.4 0 0 1 0.23,-0.21 1.25,1.25 0 0 0 0.52,-0.76 4.33,4.33 0 0 1 1,-0.7 l 0.12,-0.06 0.07,-0.12 a 1,1 0 0 1 0.14,-0.11 1.28,1.28 0 0 0 0.33,-0.3 l 0.09,-0.11 v -0.62 l 0.28,-0.2 a 2.27,2.27 0 0 0 0.84,-0.8 0.56,0.56 0 0 1 0.24,0.14 l 0.18,0.16 0.23,-0.08 a 9.45,9.45 0 0 1 1.25,-0.23 9.15,9.15 0 0 0 1.67,-0.33 1.46,1.46 0 0 0 1,0 h 0.27 0.23 v 0.33 a 3,3 0 0 1 0,0.53 v 0.31 l 0.29,0.14 a 12.19,12.19 0 0 0 1.2,0.49 1.06,1.06 0 0 0 0.89,0.58 0.87,0.87 0 0 0 0.1,0 l 0.16,-0.06 0.07,-0.14 a 1.28,1.28 0 0 0 0.1,-0.34 c 0.37,-0.16 0.79,0 1.26,0.24 a 3.29,3.29 0 0 0 1.56,0.41 1.66,1.66 0 0 0 0.44,-0.11 l 0.16,-0.05 a 0.79,0.79 0 0 1 0.28,0.06 1.56,1.56 0 0 0 0.89,0 l 0.22,-0.07 0.06,-0.23 a 4.87,4.87 0 0 1 0.18,-0.47 3,3 0 0 0 0.3,-1 l 0.06,-0.06 h -0.05 a 2.48,2.48 0 0 0 0,-0.38 L 46.64,19 h -0.36 a 1.35,1.35 0 0 0 -0.58,0.15 v 0 A 3.51,3.51 0 0 0 44.38,19 h -0.22 l -0.1,-0.11 c -0.07,-0.08 -0.14,-0.15 -0.19,-0.22 0,-0.27 0,-0.46 0.05,-0.71 H 44 a 0.85,0.85 0 0 0 0.77,-0.22 v 0 a 3.88,3.88 0 0 1 0.92,-0.07 5.48,5.48 0 0 1 0.85,0.05 1,1 0 0 1 0.19,0.15 1.3,1.3 0 0 0 0.58,0.33 1.43,1.43 0 0 0 0.82,-0.1 0.67,0.67 0 0 1 0.19,-0.06 l 0.45,-0.06 -0.06,-0.3 a 0.56,0.56 0 0 0 0.1,-0.43 V 17.09 L 48.5,16.84 a 3.21,3.21 0 0 1 -0.83,-0.86 0.62,0.62 0 0 0 0.11,-0.79 l -0.4,-0.66 -0.32,0.64 h -0.23 a 1.55,1.55 0 0 0 -0.55,0.09 l -0.2,0.09 v 0.08 h -0.39 c -0.08,0 -0.1,0 -0.1,0 L 45.47,15 45.12,15.07 a 1.43,1.43 0 0 0 -1,0.81 l -0.17,0.27 -0.13,0.14 a 0.86,0.86 0 0 0 -0.29,0.61 0.71,0.71 0 0 0 0.09,0.34 v 0 a 1,1 0 0 0 -0.34,-0.06 2,2 0 0 0 -1,0.39 l -0.25,0.17 0.07,0.29 v 0.2 A 3,3 0 0 0 41.47,17.34 1.44,1.44 0 0 0 41.12,16.39 1.13,1.13 0 0 0 40.07,16 l -0.37,0.06 v 0.37 a 1.8,1.8 0 0 0 0.32,1 l -0.1,0.09 a 1.79,1.79 0 0 0 -0.19,-0.32 1.62,1.62 0 0 0 -0.24,-0.93 1.2,1.2 0 0 0 -1.85,-0.41 1.33,1.33 0 0 1 -0.24,0.12 1.61,1.61 0 0 0 -1,0 l -0.27,0.05 -0.28,0.05 -0.07,0.28 c -0.06,0.3 -0.3,0.43 -0.72,0.64 l -0.22,0.11 -0.26,0.14 v 0.29 a 0.72,0.72 0 0 1 -0.16,0.56 1.08,1.08 0 0 1 -1,0.26 h -0.1 a 0.66,0.66 0 0 0 -0.3,0.07 4.79,4.79 0 0 1 -0.68,-0.34 5.87,5.87 0 0 1 0,-0.62 4.49,4.49 0 0 0 0,-1 3.89,3.89 0 0 1 1.14,0 6.28,6.28 0 0 0 1,0 h 0.23 l 0.11,-0.21 a 1.61,1.61 0 0 0 0.13,-0.5 1.12,1.12 0 0 1 0.06,-0.26 l 0.1,-0.17 -0.06,-0.18 a 1.79,1.79 0 0 0 -0.53,-0.8 l 0.37,-0.11 a 2.37,2.37 0 0 0 0.77,-0.45 1.12,1.12 0 0 1 0.58,-0.32 h 0.25 l 0.09,-0.24 c 0.07,-0.18 0.24,-0.3 0.51,-0.47 a 4.68,4.68 0 0 0 0.4,-0.27 0.91,0.91 0 0 0 0.77,-0.29 1.26,1.26 0 0 0 0.13,-1.07 1.67,1.67 0 0 1 -0.05,-0.43 c 0.16,-0.1 0.31,-0.2 0.43,-0.16 0.12,0.04 0.4,0.49 0.54,0.82 a 1.82,1.82 0 0 0 0.13,0.28 l 0.12,0.26 h 1.11 A 2.36,2.36 0 0 0 42,11.56 l 0.17,-0.11 v -0.2 a 2.64,2.64 0 0 0 0,-0.29 0.45,0.45 0 0 0 0,-0.12 0.9,0.9 0 0 0 1,-0.2 0.81,0.81 0 0 0 0.19,-0.67 0.63,0.63 0 0 0 -0.1,-0.27 2.2,2.2 0 0 1 0.58,0 l 0.35,0.07 0.09,-0.22 h 0.24 V 9.32 a 25.1,25.1 0 0 1 6.08,8.86 1,1 0 0 0 -0.11,0.41 1.08,1.08 0 0 0 0.3,0.83 1,1 0 0 0 0.35,0.24 24.55,24.55 0 0 1 0.77,2.86 c 0,-0.06 -0.09,-0.12 -0.13,-0.19 a 1.34,1.34 0 0 0 -1.34,-0.75 l -0.37,0.05 V 22 a 1,1 0 0 0 0.43,0.83 l 0.05,0.05 a 0.73,0.73 0 0 0 0.11,0.63 v 0.05 a 0.7,0.7 0 0 0 0.49,0.21 c 0,0 0,0 0.06,0 a 0.53,0.53 0 0 1 0.09,0.11 1,1 0 0 0 0.79,0.48 h 0.07 c 0.07,0.56 0.12,1.13 0.16,1.71 a 3.86,3.86 0 0 0 -1.58,0.87 4,4 0 0 0 -1,0.17 1.5,1.5 0 0 1 -0.9,0.09 c 0,-0.13 0,-0.26 0,-0.39 a 2.89,2.89 0 0 0 -0.33,-1.5 V 25.26 C 48.39,25.13 48.26,25.02 48.13,24.9 A 3.14,3.14 0 0 1 47.81,24.58 Z M 48,26.25 v 0 a 2.34,2.34 0 0 1 -0.51,-0.8 l 0.15,0.13 0.28,0.26 A 1.19,1.19 0 0 1 48,26.25 Z m -5,-8.13 h 0.08 c 0,0.18 0,0.35 -0.06,0.61 v 0.15 l 0.08,0.13 a 4.45,4.45 0 0 0 0.37,0.45 l 0.2,0.21 0.12,0.14 h 0.18 0.42 a 6,6 0 0 1 0.63,0.05 v 0.45 l 0.26,0.11 a 0.85,0.85 0 0 0 0.35,0.08 v 0 c 0,0.09 -0.08,0.17 -0.11,0.25 L 45.33,20.7 a 2,2 0 0 0 -0.53,-0.09 1.2,1.2 0 0 0 -0.47,0.11 1,1 0 0 1 -0.18,0.05 H 44.09 A 2.78,2.78 0 0 1 43,20.42 3.15,3.15 0 0 0 41.68,20 1.69,1.69 0 0 0 40.74,20.28 l -0.14,0.09 v 0.13 0 l -0.06,-0.22 -0.31,-0.11 c -0.28,-0.1 -0.6,-0.22 -0.92,-0.36 0,-0.11 0,-0.21 0,-0.33 0,-0.12 0,-0.29 0,-0.51 v -0.1 -0.1 a 0.92,0.92 0 0 0 -0.77,-0.48 l 0.09,-0.17 a 2.66,2.66 0 0 0 0.19,-0.46 v -0.09 l 0.26,0.17 c 0,0 0.09,0.14 0.13,0.22 a 1,1 0 0 0 1,0.73 h 0.19 0.13 l 0.09,-0.09 a 0.89,0.89 0 0 0 0.31,-0.62 v 0 a 2,2 0 0 1 0.6,1.25 v 0.4 h 0.4 A 1,1 0 0 0 42.71,19.25 1.57,1.57 0 0 0 43,18.12 Z M 38.69,16.91 A 0.58,0.58 0 0 0 38.38,16.83 0.79,0.79 0 0 0 38,17 c 0,0 0,0 0,0 h -0.42 v 0.42 a 1,1 0 0 0 0.27,0.82 l -0.14,0.11 a 0.38,0.38 0 0 1 -0.17,0 0.44,0.44 0 0 1 -0.24,-0.05 l -0.2,-0.13 -0.21,0.1 a 6.68,6.68 0 0 1 -1.54,0.33 1.6,1.6 0 0 0 0.28,-0.8 2,2 0 0 0 1,-0.92 v 0 a 1.32,1.32 0 0 1 0.31,-0.05 0.52,0.52 0 0 1 0.24,0.07 l 0.11,0.05 h 0.13 a 1.48,1.48 0 0 0 0.68,-0.27 0.89,0.89 0 0 1 0.36,-0.15 v 0 a 0.59,0.59 0 0 1 0.31,0.27 0.61,0.61 0 0 1 0.1,0.26 z m 6.92,-0.29 a 1.1,1.1 0 0 0 0.31,0 1.91,1.91 0 0 0 0.88,-0.28 l 0.16,-0.09 a 3.29,3.29 0 0 0 0.84,1 0.5,0.5 0 0 1 -0.24,0 0.68,0.68 0 0 1 -0.18,-0.14 1.47,1.47 0 0 0 -0.46,-0.3 4.58,4.58 0 0 0 -1.15,-0.11 5.32,5.32 0 0 0 -1.15,0.1 l -0.13,0.05 v 0 0 a 2.81,2.81 0 0 0 0.2,-0.24 3,3 0 0 0 0.21,-0.33 2,2 0 0 1 0.21,-0.3 0.54,0.54 0 0 0 0.15,0.09 v 0 a 0.28,0.28 0 0 1 0,0.08 v 0.33 z m -11.4,-6.53 h 0.07 v 0 c 0,0.06 0,0.11 -0.08,0.16 l -0.11,0.25 0.17,0.2 a 3.84,3.84 0 0 0 0.35,0.35 c 0.27,0.24 0.4,0.38 0.43,0.66 V 12 l 0.28,0.09 a 0.23,0.23 0 0 1 0.18,0.22 0.38,0.38 0 0 1 -0.11,0.31 h -0.27 a 5.51,5.51 0 0 0 -0.7,0.06 0.53,0.53 0 0 0 -0.09,-0.35 v 0 a 0.5,0.5 0 0 0 0,-0.13 v 0 l 0.41,-0.14 -0.09,-0.26 0.33,-0.13 -0.44,-0.46 A 0.87,0.87 0 0 0 34,11 a 1.91,1.91 0 0 0 -0.15,-0.21 1.21,1.21 0 0 0 0,-0.33 V 10.32 L 33.75,10.22 33.63,10 a 0.5,0.5 0 0 1 0.16,-0.11 v 0 z m 3.49,-2 a 3.53,3.53 0 0 0 1.66,-1.6 V 6.4 6.3 a 1,1 0 0 1 0.19,-0.61 c 0.62,0.34 1.22,0.71 1.8,1.1 L 41.14,7 C 40.69,7.3 40.07,7.7 40.22,8.57 V 8.7 l 0.09,0.09 0.12,0.13 0.12,0.12 A 4.68,4.68 0 0 1 40.07,9.86 0.84,0.84 0 0 1 40,9.59 L 39.88,9.35 H 39.62 A 0.8,0.8 0 0 1 39.27,9.22 0.41,0.41 0 0 0 39.16,9.15 L 38.9,9 38.69,9.11 A 1.86,1.86 0 0 0 38.38,9.32 1.07,1.07 0 0 1 38.16,9.46 0.71,0.71 0 0 0 38,9.35 1,1 0 0 0 37.66,9.26 c 0,-0.07 0,-0.14 0,-0.21 A 5,5 0 0 0 37.67,8.1 Z m 3.83,0.67 V 8.9 L 41.47,8.75 a 1.93,1.93 0 0 0 -0.39,-0.5 c 0,-0.2 0.15,-0.32 0.52,-0.57 a 2.2,2.2 0 0 0 -0.1,1.09 z m 0,0.35 L 41.52,9 v 0.13 h 0.34 l 0.11,0.09 a 2,2 0 0 0 0.26,0.19 1.16,1.16 0 0 0 0,0.18 0.57,0.57 0 0 0 0.08,0.31 h -0.17 c -0.68,0 -0.73,0.72 -0.75,1 a 2.2,2.2 0 0 1 -0.62,0.06 H 40.2 l -0.07,-0.18 0.22,0.06 0.17,-0.19 a 4.85,4.85 0 0 0 0.93,-1.53 z m 1.11,-1.46 q 0.57,0.44 1.11,0.9 a 2.74,2.74 0 0 0 -0.5,0.07 1.88,1.88 0 0 1 -0.37,0.06 v 0 a 0.59,0.59 0 0 1 -0.22,-0.14 1.75,1.75 0 0 0 -0.2,-0.16 1.08,1.08 0 0 1 0.1,-0.72 z m -14.63,-5 A 4.6,4.6 0 0 1 25.86,3.08 H 25.7 25.63 a 0.83,0.83 0 0 0 -0.5,0.47 l -0.21,0.06 a 2.08,2.08 0 0 0 -0.59,0.22 1.39,1.39 0 0 0 -0.39,0.37 0.61,0.61 0 0 0 -0.07,0.1 0.85,0.85 0 0 0 -0.25,0 v 0 A 1.4,1.4 0 0 0 22.49,5 1.26,1.26 0 0 1 22.07,5.41 l -0.15,0.08 -0.06,0.16 c 0,0.12 -0.09,0.24 -0.14,0.36 a 4.55,4.55 0 0 0 -0.3,0.86 l -0.1,0.07 h -0.1 A 2.26,2.26 0 0 0 19.88,6.08 L 19.65,6 A 5.05,5.05 0 0 0 19.54,5.44 2.68,2.68 0 0 1 19.46,4.67 V 4.55 L 19.38,4.43 A 1.86,1.86 0 0 0 19,4.07 24.89,24.89 0 0 1 27.5,2.58 h 0.28 z m -12.14,7.58 a 1.47,1.47 0 0 0 0.66,0.15 v 0 0.1 c -0.11,0.18 -0.22,0.22 -0.5,0.29 h -0.19 a 1.33,1.33 0 0 0 -0.43,0.22 0.88,0.88 0 0 1 -0.2,0.12 2.21,2.21 0 0 1 -0.79,0 2.94,2.94 0 0 0 -1,-0.06 1.91,1.91 0 0 0 -0.86,0.45 1.15,1.15 0 0 1 -0.45,0.25 v 0.86 h 0.08 a 4.19,4.19 0 0 0 1.15,-0.21 h 0.09 l -0.06,0.1 -0.09,0.2 0.07,0.19 a 0.73,0.73 0 0 1 0,0.31 2,2 0 0 0 -1,0.42 1,1 0 0 1 -0.7,0.28 v 0 H 11.3 l -0.09,0.34 a 0.88,0.88 0 0 0 0,0.32 2.87,2.87 0 0 1 -0.43,0.25 2.29,2.29 0 0 0 -1.11,1 H 9.62 9.11 l 0.13,0.49 c 0.24,0.9 -0.76,1.3 -1.2,1.43 l -0.2,0.06 -0.08,0.2 A 1.33,1.33 0 0 1 7.5,18.44 l -0.13,0.17 v 0.13 a 1.51,1.51 0 0 0 0,0.3 0.55,0.55 0 0 0 -0.08,-0.15 V 18.56 L 6.73,18.63 A 1,1 0 0 1 6.18,18.53 2,2 0 0 0 5.49,18.38 1.39,1.39 0 0 0 5.09,18.44 L 5,18.5 A 0.69,0.69 0 0 0 4.83,18.67 4.71,4.71 0 0 0 4.21,18.6 24.68,24.68 0 0 1 6.11,14.7 h 0.1 c 0.71,-0.16 0.66,-0.87 0.65,-1.13 v 0 L 7,13.42 7.21,13.35 v 0 A 1.46,1.46 0 0 0 7.4,14.2 l 1,1.53 L 8.13,14 c 0,0 0,-0.08 0.17,-0.22 a 1.06,1.06 0 0 0 0.41,-1 L 8.63,12.42 H 8.27 A 0.45,0.45 0 0 1 8,12.32 L 7.81,12.23 c 0.38,-0.49 0.77,-1 1.19,-1.42 a 0.77,0.77 0 0 0 0.4,-0.42 l 0.21,-0.23 0.16,-0.08 v -0.05 a 25.15,25.15 0 0 1 2.8,-2.46 1,1 0 0 0 0.4,0.35 h 0.1 0.12 A 1.16,1.16 0 0 0 14.26,7.2 c 0.27,0.18 0.38,0.52 0.54,1.07 a 5.08,5.08 0 0 0 0.15,0.52 v 0.1 L 15,9 15.26,9.22 a 0.94,0.94 0 0 1 0.34,0.37 v 0.1 a 0.31,0.31 0 0 1 0,0.08 l -0.05,0.3 z m -0.48,2.27 h -0.07 l -0.36,0.05 -0.07,0.26 c -0.05,0.17 -0.35,0.27 -0.59,0.2 v 0 a 1.5,1.5 0 0 0 0,-0.22 l 0.08,-0.07 a 1.21,1.21 0 0 0 0.51,-0.68 1.63,1.63 0 0 0 0.63,-0.06 h 0.1 a 3.33,3.33 0 0 0 -0.23,0.52 z m 1.28,-0.72 a 0.82,0.82 0 0 0 0.22,0.57 l 0.18,0.18 h 0.22 v 0.16 h -0.35 a 1.71,1.71 0 0 0 -0.66,-0.3 1.53,1.53 0 0 1 0.39,-0.61 z m -8.26,8.84 a 0.52,0.52 0 0 0 0.29,0.27 0.7,0.7 0 0 0 0.08,0.46 L 8.53,21.27 8.1,21.12 8.26,20.9 A 1.1,1.1 0 0 0 8.41,20.62 Z M 12,23.8 h 0.19 a 1.76,1.76 0 0 0 0.4,0.06 v 0 a 0.75,0.75 0 0 0 0.23,0 h 0.14 0.13 a 0.46,0.46 0 0 0 0.15,0.16 0.37,0.37 0 0 0 0.05,0.11 v 0.19 l 0.24,0.08 v 0 0.15 0 l -0.46,0.47 0.55,0.21 a 0.71,0.71 0 0 0 -0.17,0.36 h -0.08 l -0.32,-0.08 -0.15,0.07 a 0.81,0.81 0 0 1 -0.17,0.07 l -0.11,-0.06 c -0.09,0 -0.19,-0.1 -0.33,-0.15 A 1.1,1.1 0 0 0 11.93,25.37 H 11.86 L 11.81,25.31 A 0.69,0.69 0 0 0 11.24,25 v 0 a 0.6,0.6 0 0 0 -0.27,0.07 L 10.92,24.78 H 10.55 A 1.36,1.36 0 0 0 9.68,25.2 1.6,1.6 0 0 1 9.38,25.43 1.19,1.19 0 0 0 8.7,25.57 0.67,0.67 0 0 0 8.32,25.4 H 8.06 c -0.38,0 -1,-0.08 -1,-0.22 A 1.06,1.06 0 0 1 7.17,25 1.58,1.58 0 0 0 7.28,23.78 L 7.19,23.58 H 7.03 v 0 A 1,1 0 0 0 6.66,23.24 1.7,1.7 0 0 0 6,23 1.21,1.21 0 0 1 5.7,23 c 0,-0.11 0,-0.18 0.12,-0.35 A 1.51,1.51 0 0 0 6,21.78 V 21.6 L 5.87,21.48 A 1.22,1.22 0 0 0 5.06,21.17 1.27,1.27 0 0 0 3.91,21.93 1.09,1.09 0 0 0 3.72,22.03 H 3.62 A 0.56,0.56 0 0 1 3.21,22 24,24 0 0 1 3.92,19.49 H 4 a 3.71,3.71 0 0 1 0.94,0.13 h 0.12 0.12 a 0.71,0.71 0 0 0 0.36,-0.31 1,1 0 0 1 0.42,0.09 2,2 0 0 0 0.68,0.16 3.41,3.41 0 0 0 1,1.42 1.56,1.56 0 0 0 -0.52,-0.11 0.86,0.86 0 0 0 -0.85,0.66 l -0.1,0.3 0.27,0.18 a 3.2,3.2 0 0 0 1.11,0.4 l 0.48,0.13 v 1 h 0.43 a 0.41,0.41 0 0 1 0.18,0 1.4,1.4 0 0 0 0.46,0.11 h 0.4 v -0.16 a 0.42,0.42 0 0 0 0.06,0.08 l 0.12,0.1 h 0.66 a 3.51,3.51 0 0 0 0.53,0.1 h 0.2 0.2 l 0.15,-0.14 v 0 l -0.1,0.33 z m 5.21,6.68 a 1.61,1.61 0 0 0 0.68,-0.06 l 0.23,-0.05 c 0.19,0.12 0.38,0.22 0.57,0.32 a 6.37,6.37 0 0 1 0.89,0.54 l 0.16,0.12 h 0.19 c 0.22,0 0.34,0 0.65,0.2 a 4.37,4.37 0 0 0 0.49,0.26 3.73,3.73 0 0 1 0.46,0.29 4.87,4.87 0 0 0 0.68,0.4 v 0 0.09 c 0,0.1 -0.08,0.2 -0.11,0.29 -0.13,0.38 -0.17,0.42 -0.29,0.43 H 21.5 l -0.07,0.31 a 0.83,0.83 0 0 0 0,0.15 0.84,0.84 0 0 0 -0.05,0.17 l -0.34,0.12 -0.31,0.1 v 0.33 a 4.8,4.8 0 0 1 0,0.66 c 0,0 0,0.1 0,0.15 a 4.9,4.9 0 0 0 -0.67,1.51 3.58,3.58 0 0 1 -0.11,0.35 c -0.3,0.07 -0.58,0.16 -0.84,0.24 a 7.55,7.55 0 0 1 -0.9,0.25 h -0.15 l -0.1,0.11 a 2.29,2.29 0 0 1 -0.32,0.28 2.45,2.45 0 0 0 -0.53,0.5 l -0.13,0.17 0.07,0.21 a 1.25,1.25 0 0 1 0,0.59 1,1 0 0 0 -0.65,0.64 l -0.19,-0.05 -0.17,0.17 a 3.18,3.18 0 0 0 -0.48,0.63 l -0.09,0.15 -0.43,0.09 a 1.77,1.77 0 0 1 -0.82,0 l -0.4,-0.08 -0.1,0.4 a 0.87,0.87 0 0 0 0.29,0.81 2.82,2.82 0 0 1 -1.51,0.52 h -0.15 l -0.11,0.1 a 0.51,0.51 0 0 0 -0.17,0.48 0.92,0.92 0 0 0 -0.73,0.5 v 0.1 a 0.73,0.73 0 0 0 0,0.38 c -0.12,0.2 -0.27,0.4 -0.41,0.6 a 6.24,6.24 0 0 0 -0.46,0.68 C 10,45.19 9.55,44.74 9.11,44.27 A 4,4 0 0 0 9.17,43.8 V 43.58 L 9.01,43.44 C 9.06,43.5 9,43.35 9,43 A 5.45,5.45 0 0 0 9.31,42.42 3.42,3.42 0 0 1 9.64,41.84 L 9.75,41.73 V 41.57 A 3,3 0 0 0 9.66,40.7 2.63,2.63 0 0 1 9.6,40.31 a 3.17,3.17 0 0 0 0.74,-1.9 1.29,1.29 0 0 0 0.07,-0.63 c 0,-0.13 0,-0.28 0,-0.39 0,-0.11 0.05,-0.26 0.07,-0.39 0.14,-0.73 0.28,-1.5 -0.56,-2 L 9.75,34.93 H 9.6 9.46 v 0 A 1.29,1.29 0 0 1 9.24,34.38 c 0,-0.15 -0.08,-0.3 -0.14,-0.47 A 2.42,2.42 0 0 0 8.63,33.23 1.73,1.73 0 0 1 8.3,32.81 2.21,2.21 0 0 1 8.21,32.46 2.48,2.48 0 0 0 8,31.83 V 31.7 H 7.94 v 0 A 1.68,1.68 0 0 0 7.84,31.41 2,2 0 0 0 7.65,31.1 0.86,0.86 0 0 1 7.46,30.72 l 0.1,-0.13 a 1.35,1.35 0 0 0 0.32,-0.61 2,2 0 0 0 0,-0.54 c 0,0 0,-0.07 0,-0.11 v 0 a 5.35,5.35 0 0 0 0.85,-1.11 1.36,1.36 0 0 0 0,-1.48 l 0.15,-0.1 C 9.1,26.5 9.25,26.42 9.38,26.45 H 9.5 9.62 a 1.64,1.64 0 0 0 0.54,-0.32 v 0.13 l 0.35,0.14 a 0.69,0.69 0 0 0 0.24,0.05 0.75,0.75 0 0 0 0.59,-0.35 1,1 0 0 0 0.24,0.19 0.88,0.88 0 0 0 0.37,0.09 h 0.14 l 0.24,0.11 a 1,1 0 0 0 0.91,0.07 v 0 c 0.46,0.13 0.74,0.22 0.9,0.5 l 0.12,0.21 h 0.23 0.07 c 0.06,0.06 0.13,0.12 0.18,0.18 a 1.35,1.35 0 0 1 0.17,0.17 L 15,27.76 h 0.17 a 2.61,2.61 0 0 1 1,0.52 3.58,3.58 0 0 0 0.95,0.55 l 0.16,0.19 a 0.81,0.81 0 0 1 0.16,0.2 v 0 a 1.57,1.57 0 0 0 -0.47,0.7 L 16.84,30.4 Z M 13.93,25 13.86,25.13 a 0.13,0.13 0 0 1 -0.07,-0.09 0.21,0.21 0 0 1 0,-0.16 l 0.1,0.06 v 0 z m 0,-0.82 v -0.05 0 z m -0.5,-0.68 c 0,0 0,0 0,0 l -0.09,0.08 a 0.48,0.48 0 0 1 0.08,-0.16 v 0 z m 0.34,2.21 a 0.33,0.33 0 0 1 0.26,-0.18 l 0.06,0.34 a 2.08,2.08 0 0 0 -0.32,-0.12 z m 0.5,0.25 -0.17,-0.09 V 25.52 A 0.31,0.31 0 0 1 14.41,25.8 0.2,0.2 0 0 1 14.22,26 Z M 6.27,25.37 6.17,25.3 6,25.2 A 1.61,1.61 0 0 1 5.9,25 1.24,1.24 0 0 0 5.18,24.24 H 5.05 5 4.87 v 0 L 4.7,24 V 23.83 L 4.53,23.68 A 2.37,2.37 0 0 0 3,23.17 v -0.33 a 1.41,1.41 0 0 0 0.72,0.1 1.42,1.42 0 0 0 0.42,-0.16 L 4.2,22.73 H 4.63 V 22.31 A 0.39,0.39 0 0 1 5.12,22 l -0.1,0.18 a 1.27,1.27 0 0 0 -0.17,1.14 l 0.06,0.11 a 1.15,1.15 0 0 0 1,0.42 1.11,1.11 0 0 1 0.31,0.05 c 0,0 0,0.05 0.08,0.09 a 1.28,1.28 0 0 0 0.2,0.22 1.28,1.28 0 0 1 -0.13,0.47 1.43,1.43 0 0 0 -0.13,0.56 c 0,0 0.01,0.1 0.01,0.13 z m 3.47,-2.08 v 0.07 c 0,0 0,0 0,0 z M 13.26,7.08 v 0 L 13.42,7 A 0.23,0.23 0 0 1 13.26,7.08 Z M 2.83,24 a 1.81,1.81 0 0 1 1,0.25 1.15,1.15 0 0 0 0.37,0.51 L 4.32,24.88 4.54,25.15 4.81,25 h 0.15 a 0.75,0.75 0 0 1 0.16,0.27 2.47,2.47 0 0 0 0.21,0.38 1.4,1.4 0 0 0 0.31,0.28 1.36,1.36 0 0 1 0.25,0.2 2.34,2.34 0 0 0 1.54,0.88 A 1.36,1.36 0 0 0 7.87,27 c 0.27,0.24 0.24,0.44 0.08,0.75 -0.06,0.1 -0.4,0.6 -0.53,0.76 a 0.52,0.52 0 0 0 -0.37,0.25 1.15,1.15 0 0 0 -0.07,0.74 1.38,1.38 0 0 1 0,0.28 0.59,0.59 0 0 1 -0.14,0.23 1.11,1.11 0 0 0 -0.28,0.55 1.4,1.4 0 0 0 0.33,1 1.2,1.2 0 0 1 0.13,0.21 0.81,0.81 0 0 1 0,0.11 0.94,0.94 0 0 0 0.2,0.42 1.76,1.76 0 0 1 0.07,0.27 2.23,2.23 0 0 0 0.15,0.56 2.65,2.65 0 0 0 0.47,0.64 1.63,1.63 0 0 1 0.31,0.41 2.47,2.47 0 0 1 0.11,0.36 1.83,1.83 0 0 0 0.55,1.05 l 0.08,0.08 h 0.11 0.08 a 1.24,1.24 0 0 0 0.39,0.07 c 0.19,0.15 0.19,0.35 0.06,1 0,0.13 -0.05,0.26 -0.08,0.41 a 2.81,2.81 0 0 0 0,0.58 v 0 h -0.1 v 0.38 A 2.5,2.5 0 0 1 8.75,39.8 L 8.72,40 v 0.14 a 3.51,3.51 0 0 0 0.09,0.67 2.94,2.94 0 0 1 0.08,0.53 3.86,3.86 0 0 0 -0.37,0.65 2.63,2.63 0 0 1 -0.29,0.53 l -0.08,0.1 v 0.12 a 3,3 0 0 0 0,0.42 A 24.77,24.77 0 0 1 2.83,24 Z m 46,13.87 c 0.22,-0.38 0.37,-0.42 0.57,-0.4 h 0.16 l 0.12,-0.08 v 0 l 0.16,-0.14 A 0.54,0.54 0 0 0 50,36.84 1.29,1.29 0 0 0 50.24,36.45 l 0.05,0.11 v 0.09 A 2.13,2.13 0 0 0 50.15,37 1.58,1.58 0 0 1 49.92,37.47 l -0.1,0.11 v 0.15 a 1.69,1.69 0 0 1 -0.31,0.75 2.26,2.26 0 0 0 -0.4,1.09 c -0.08,0.12 -0.15,0.24 -0.22,0.37 a 1.71,1.71 0 0 1 -0.21,0.35 1.34,1.34 0 0 0 -0.06,-0.12 1.8,1.8 0 0 0 -0.22,-0.37 4.27,4.27 0 0 1 0.16,-0.64 3.64,3.64 0 0 0 0.25,-1.27 z m -0.1,2.48 v 0 0.19 0 z M 50.94,36 a 0.82,0.82 0 0 0 -0.69,-0.44 h -0.06 a 0.83,0.83 0 0 0 -0.7,0.61 1,1 0 0 1 -0.09,0.16 l -0.21,0.09 v 0.22 0 a 1.66,1.66 0 0 0 -1.15,1 l -0.08,0.15 v 0.16 a 2.3,2.3 0 0 1 -0.15,1 3.75,3.75 0 0 0 -0.2,1.05 v 0.21 l 0.17,0.13 a 0.85,0.85 0 0 1 0.13,0.22 1.19,1.19 0 0 0 0.44,0.56 24.88,24.88 0 0 1 -34.41,7.25 1.09,1.09 0 0 0 0.05,-0.17 l 0.06,-0.36 -0.34,-0.12 A 1.89,1.89 0 0 0 13.07,47.6 h -0.22 c -0.42,-0.31 -0.84,-0.63 -1.24,-1 l 0.12,-0.13 -0.24,-0.29 a 1,1 0 0 0 -0.15,-0.14 c 0.1,-0.17 0.24,-0.35 0.37,-0.54 a 6.7,6.7 0 0 0 0.53,-0.78 v -0.07 -0.08 a 0.73,0.73 0 0 0 0,-0.3 h 0.1 A 1.18,1.18 0 0 0 12.9,44.01 L 13.02,43.9 V 43.74 43.66 A 2.89,2.89 0 0 0 15,42.65 l 0.11,-0.16 v -0.18 a 1.19,1.19 0 0 0 -0.08,-0.2 l 0.34,-0.07 a 5.1,5.1 0 0 1 0.54,-0.11 h 0.18 l 0.11,-0.15 0.23,-0.34 c 0.08,-0.13 0.15,-0.24 0.23,-0.35 a 0.7,0.7 0 0 0 0.37,-0.14 h 0.33 v -0.37 c 0,-0.07 0,-0.1 0.23,-0.17 h 0.11 l 0.08,-0.08 A 1.46,1.46 0 0 0 18,39 l 0.23,-0.19 a 2.79,2.79 0 0 0 0.34,-0.28 9,9 0 0 0 0.87,-0.25 7.4,7.4 0 0 1 1,-0.26 h 0.24 l 0.09,-0.24 c 0.07,-0.2 0.14,-0.41 0.2,-0.61 a 3.9,3.9 0 0 1 0.59,-1.33 l 0.1,-0.11 v -0.14 a 2.28,2.28 0 0 1 0,-0.27 c 0,-0.15 0,-0.29 0,-0.45 l 0.31,-0.11 0.25,-0.1 v -0.28 a 0.71,0.71 0 0 1 0,-0.2 1.39,1.39 0 0 0 0.73,-0.94 1.75,1.75 0 0 1 0.13,-0.33 l 0.08,-0.14 V 32.61 A 1.48,1.48 0 0 0 23.01,32.2 1,1 0 0 1 23,32 L 22.93,31.81 22.74,31.75 A 3.53,3.53 0 0 1 22.07,31.36 4.19,4.19 0 0 0 21.49,31.02 L 21,30.77 A 1.68,1.68 0 0 0 20,30.44 7.48,7.48 0 0 0 19.14,29.93 C 18.92,29.81 18.7,29.7 18.5,29.57 L 18.39,29.5 h -0.1 v 0 -0.18 A 1.45,1.45 0 0 0 17.86,28.49 1.3,1.3 0 0 1 17.7,28.28 L 17.6,28.12 H 17.42 A 2.33,2.33 0 0 1 16.62,27.67 3.64,3.64 0 0 0 15.46,27 1.53,1.53 0 0 0 15.28,26.82 0.81,0.81 0 0 1 15.12,26.65 L 15,26.44 h -0.21 v 0 a 1.8,1.8 0 0 0 -0.27,-0.28 0.85,0.85 0 0 0 0.1,-0.48 0.49,0.49 0 0 0 -0.08,-0.24 l 0.07,-0.13 a 0.65,0.65 0 0 0 0,-0.51 c 0,0 0,-0.07 0,-0.11 v 0 a 0.62,0.62 0 0 0 0.15,-0.48 L 14.7,23.83 h -0.34 a 0.77,0.77 0 0 0 -0.14,-0.25 0.56,0.56 0 0 0 -0.15,-0.1 0.59,0.59 0 0 0 -0.25,-0.27 V 23.15 L 13.55,23 13.36,22.91 13,22.51 v 0.36 a 0.27,0.27 0 0 0 -0.12,0.06 1.77,1.77 0 0 0 -0.63,-0.15 0.86,0.86 0 0 0 -0.24,0 L 11.9,22.67 A 1.24,1.24 0 0 0 11.37,22.36 0.61,0.61 0 0 0 11.31,21.9 0.72,0.72 0 0 0 10.7,21.59 1.11,1.11 0 0 0 10.13,21.19 L 9.95,21.01 a 1.17,1.17 0 0 1 -0.17,-0.26 1.88,1.88 0 0 0 -0.21,-0.31 0.92,0.92 0 0 0 0,-0.16 V 19.84 H 9.18 a 0.85,0.85 0 0 0 -0.23,0 v 0 0.05 l -0.2,0.07 -0.2,0.07 A 3.16,3.16 0 0 0 8.41,19.48 2.68,2.68 0 0 1 8.29,18.95 1.88,1.88 0 0 0 8.55,18.53 2.13,2.13 0 0 0 10.21,16.67 l 0.12,-0.05 0.19,-0.1 v -0.2 c 0.08,-0.36 0.34,-0.52 0.79,-0.77 a 3.26,3.26 0 0 0 0.77,-0.52 0.53,0.53 0 0 0 0.14,-0.32 2.17,2.17 0 0 0 0.76,-0.39 1.06,1.06 0 0 1 0.68,-0.27 h 0.1 0.09 L 14,13.9 A 0.68,0.68 0 0 0 14.54,14.13 1.9,1.9 0 0 0 15,14 1.51,1.51 0 0 1 15.31,13.94 h 0.34 l 0.08,-0.33 v -0.09 a 1.37,1.37 0 0 0 0.1,-0.38 0.93,0.93 0 0 1 0.7,0.27 l 0.19,0.17 0.24,-0.09 a 1,1 0 0 1 0.47,0 1.39,1.39 0 0 0 0.5,0 l 0.64,-0.14 -0.38,-0.54 a 1,1 0 0 1 -0.07,-0.3 c -0.05,-0.26 -0.13,-0.75 -0.56,-0.89 l 0.16,-0.22 -0.28,-0.26 a 1.06,1.06 0 0 0 -0.27,-0.18 l 0.08,-0.11 A 1.34,1.34 0 0 0 17.16,9.71 L 17.07,9.58 H 16.91 16.78 V 9.31 L 16.65,9.18 A 0.66,0.66 0 0 0 16.3,9 2.15,2.15 0 0 0 15.84,8.55 L 15.71,8.44 C 15.71,8.32 15.64,8.19 15.6,8.07 A 2.11,2.11 0 0 0 14.37,6.36 h 0.14 V 6.25 a 24.84,24.84 0 0 1 3.6,-1.83 4.07,4.07 0 0 0 0.34,0.3 l 0.16,0.12 a 3.28,3.28 0 0 0 0.1,0.82 3.22,3.22 0 0 1 0.11,0.69 v 0.26 l 0.24,0.11 a 5,5 0 0 0 0.54,0.21 c 0.51,0.18 0.83,0.3 0.93,0.61 l 0.09,0.3 h 1 l 0.12,-0.11 a 1.18,1.18 0 0 1 0.27,-0.2 L 22.17,7.42 V 7.23 a 3.32,3.32 0 0 1 0.28,-0.84 c 0,-0.09 0.07,-0.18 0.1,-0.26 a 2.38,2.38 0 0 0 0.57,-0.58 c 0.19,-0.26 0.27,-0.36 0.44,-0.37 h 0.05 a 0.94,0.94 0 0 0 0.41,0 1,1 0 0 0 0.54,-0.42 1.31,1.31 0 0 1 0.14,-0.16 1.09,1.09 0 0 1 0.36,-0.12 1.83,1.83 0 0 0 0.58,-0.22 l 0.09,-0.07 0.05,-0.1 0.05,-0.1 V 4 a 6.18,6.18 0 0 0 2.55,-0.58 l 0.63,-0.24 h 0.14 L 29.3,3 a 0.44,0.44 0 0 0 0.09,-0.27 h 0.15 V 2.67 A 24.71,24.71 0 0 1 38.8,5.3 1.77,1.77 0 0 0 38.51,6.24 3.42,3.42 0 0 1 37,7.49 l -0.31,0.16 0.09,0.33 a 3.71,3.71 0 0 1 0,1 5.13,5.13 0 0 0 0,0.53 V 9.6 9.68 a 0.7,0.7 0 0 0 0.68,0.42 h 0.06 l 0.09,0.1 a 1.79,1.79 0 0 0 0,1 2.45,2.45 0 0 1 0,0.35 h -0.2 -0.21 l -0.15,0.15 a 1.79,1.79 0 0 1 -0.4,0.29 l -0.38,0.27 a 1.12,1.12 0 0 0 -0.52,-0.8 1.87,1.87 0 0 0 -0.66,-1 L 35.02,10.4 A 1.35,1.35 0 0 0 35.13,9.68 V 9.49 L 35,9.38 a 0.54,0.54 0 0 0 -0.3,-0.1 v 0 L 34.61,9.09 H 34.4 A 1.52,1.52 0 0 0 32.79,9.78 L 32.7,9.92 v 0.17 a 1.18,1.18 0 0 0 0.21,0.48 1.48,1.48 0 0 0 -0.64,0.27 1.35,1.35 0 0 1 -0.29,0.15 h -0.45 v 0.45 a 1.4,1.4 0 0 1 -0.1,0.65 l -0.25,0.39 0.41,0.21 c 0,0 0,0 0,0.06 a 1,1 0 0 0 0.17,0.18 l 0.11,0.1 h 0.2 a 2.1,2.1 0 0 0 0.85,-0.19 1.86,1.86 0 0 1 0.31,-0.1 0.66,0.66 0 0 0 -0.34,0.53 v 0.14 l 0.07,0.12 a 0.72,0.72 0 0 0 0.46,0.31 0.76,0.76 0 0 0 -0.17,0.31 l -0.07,0.26 0.21,0.18 0.26,0.21 a 1.73,1.73 0 0 1 0.54,0.54 c 0,0.12 -0.05,0.23 -0.07,0.34 v 0 H 33.6 c -0.23,0 -0.47,0 -0.71,0 a 2.2,2.2 0 0 0 -1.2,0.29 l -0.26,0.17 0.07,0.29 a 3,3 0 0 1 0,1.11 9.17,9.17 0 0 0 0,1 v 0.22 l 0.19,0.12 a 7,7 0 0 0 0.79,0.44 2.1,2.1 0 0 1 -0.48,0.39 3.92,3.92 0 0 0 -0.55,0.41 l -0.12,0.13 v 0.66 h -0.05 a 1.81,1.81 0 0 0 -0.31,0.27 5.87,5.87 0 0 0 -1.26,0.94 l -0.17,0.17 0.05,0.21 a 1.49,1.49 0 0 1 -0.22,0.21 1.4,1.4 0 0 0 -0.52,0.7 0.8,0.8 0 0 0 0,0.46 0.26,0.26 0 0 1 0,0.1 c 0,0.1 0,0.2 0,0.3 a 3,3 0 0 0 0,0.5 1.41,1.41 0 0 1 -0.11,0.68 c 0,0.16 -0.1,0.34 -0.14,0.55 a 1.16,1.16 0 0 0 0.55,1.29 v 0 a 2.34,2.34 0 0 0 0.59,0.86 1.46,1.46 0 0 1 0.44,0.7 v 0.28 l 0.28,0.07 a 0.89,0.89 0 0 1 0.11,0.2 1.67,1.67 0 0 0 0.11,0.23 l 0.05,0.06 0.06,0.05 a 2.1,2.1 0 0 0 1.4,0.42 h 0.14 l 0.11,-0.09 a 1,1 0 0 1 0.73,0.09 l 0.11,0.06 h 0.28 a 5.46,5.46 0 0 0 1.73,-0.36 0.67,0.67 0 0 0 0.25,0 1.64,1.64 0 0 0 1.24,0.52 l 0.1,0.2 a 1,1 0 0 1 -0.19,0.48 2,2 0 0 0 -0.19,0.35 l -0.07,0.15 0.06,0.16 a 3.14,3.14 0 0 0 0.63,1 c 0.33,0.36 0.51,0.58 0.47,1 v 0.16 l 0.1,0.14 a 1.87,1.87 0 0 1 0.34,0.59 1.58,1.58 0 0 1 -0.36,1.29 2.41,2.41 0 0 0 -0.47,1.66 2.09,2.09 0 0 0 0.27,0.7 c 0.06,0.12 0.12,0.23 0.16,0.33 a 3,3 0 0 1 0.22,1.14 v 0.05 0 c 0,0.24 0.09,0.53 0.13,0.83 a 4.3,4.3 0 0 0 0.42,1.63 l 0.15,0.2 h 0.12 a 2.9,2.9 0 0 1 0.08,0.59 v 0.08 L 39,43 c 0.25,0.55 0.85,0.83 1.77,0.83 a 10.71,10.71 0 0 0 1.65,-0.17 l 0.55,-0.08 h 0.28 l 0.13,-0.42 v 0 a 4.59,4.59 0 0 0 1.33,-1.26 c 0.13,-0.15 0.25,-0.31 0.38,-0.45 l 0.09,-0.11 V 41.2 a 3.84,3.84 0 0 0 0,-0.42 v -0.1 h 0.06 A 1.17,1.17 0 0 0 45.76,40.26 1.29,1.29 0 0 0 45.88,39 v -0.11 a 3.28,3.28 0 0 1 0.48,-0.4 l 0.22,-0.16 0.12,-0.1 a 3.24,3.24 0 0 1 0.43,-0.31 c 0.82,-0.42 0.81,-1 0.81,-1.69 V 35.68 L 47.81,35.57 V 35.52 A 1.43,1.43 0 0 0 47.74,35.17 C 47.68,35.03 47.6,34.9 47.54,34.79 47.48,34.68 47.33,34.44 47.38,34.24 A 8.85,8.85 0 0 1 48,32.89 3.53,3.53 0 0 1 48.62,32.43 c 0.23,-0.15 0.46,-0.3 0.67,-0.46 0.21,-0.16 0.4,-0.34 0.58,-0.51 0.18,-0.17 0.31,-0.28 0.46,-0.4 l 0.08,-0.07 0.14,-0.33 a 4,4 0 0 1 0.65,-1.18 l 0.11,-0.11 v -0.16 a 0.81,0.81 0 0 1 0.29,-0.53 2.2,2.2 0 0 0 0.2,-0.23 l 0.31,-0.39 -0.44,-0.24 A 1.54,1.54 0 0 0 51.24,27.65 2.86,2.86 0 0 1 52.41,27 c 0,0.18 0,0.36 0,0.54 A 24.71,24.71 0 0 1 50.94,36 Z m -18.08,-24.12 -0.2,0.07 a 1.6,1.6 0 0 1 -0.33,0.11 1.91,1.91 0 0 0 0.06,-0.37 l 0.34,-0.19 0.1,-0.06 a 2.64,2.64 0 0 0 0,0.29 c 0.02,0.06 0.03,0.11 0.03,0.15 z"
           id="path2921-0" />
      </g>
    </g>
  </g>
</svg>
