<?xml version="1.0" encoding="UTF-8" standalone="no"?>
<svg
   xmlns:dc="http://purl.org/dc/elements/1.1/"
   xmlns:cc="http://creativecommons.org/ns#"
   xmlns:rdf="http://www.w3.org/1999/02/22-rdf-syntax-ns#"
   xmlns:svg="http://www.w3.org/2000/svg"
   xmlns="http://www.w3.org/2000/svg"
   id="svg268603"
   version="1.1"
   viewBox="0 0 19.682516 18.454"
   height="18.454mm"
   width="19.682516mm">
  <defs
     id="defs268597" />
  <metadata
     id="metadata268600">
    <rdf:RDF>
      <cc:Work
         rdf:about="">
        <dc:format>image/svg+xml</dc:format>
        <dc:type
           rdf:resource="http://purl.org/dc/dcmitype/StillImage" />
        <dc:title></dc:title>
      </cc:Work>
    </rdf:RDF>
  </metadata>
  <g
     transform="translate(-188.97422,-409.48133)"
     id="layer1">
    <g
       style="stroke-width:0.80655336"
       transform="matrix(0.32804195,0,0,0.32804195,188.97422,409.48133)"
       id="Layer_2-44-3"
       data-name="Layer 2">
      <g
         style="stroke-width:0.80655336"
         id="Layer_1-2-447-7"
         data-name="Layer 1">
        <path
           style="fill:#616161;stroke-width:0.80655336"
           class="cls-1"
           d="M 56.72,0 H 3.28 A 3.28,3.28 0 0 0 0,3.28 V 41.72 A 3.28,3.28 0 0 0 3.28,45 h 20.16 v 8.44 h -7.5 a 1.41,1.41 0 1 0 0,2.81 h 28.12 a 1.41,1.41 0 1 0 0,-2.81 h -7.5 V 45 H 56.72 A 3.28,3.28 0 0 0 60,41.72 V 3.28 A 3.28,3.28 0 0 0 56.72,0 Z M 3.28,2.81 h 53.44 a 0.47,0.47 0 0 1 0.47,0.47 v 34 H 2.81 v -34 A 0.47,0.47 0 0 1 3.28,2.81 Z M 34.69,53.44 H 25.31 V 45 h 9.38 z m 22,-11.25 H 3.28 A 0.47,0.47 0 0 1 2.81,41.72 V 38.2 h 54.38 v 3.52 a 0.47,0.47 0 0 1 -0.47,0.47 z"
           id="path5621-1" />
        <path
           style="fill:#616161;stroke-width:0.80655336"
           class="cls-1"
           d="m 32.34,40.08 h -4.68 a 0.47,0.47 0 1 0 0,0.94 h 4.68 a 0.47,0.47 0 0 0 0,-0.94 z"
           id="path5623-2" />
        <polygon
           style="fill:#616161;stroke-width:0.80655336"
           class="cls-1"
           points="29.94,11.07 29.94,8.03 24.92,10.93 27.56,12.45 "
           id="polygon5625-2" />
        <polygon
           style="fill:#616161;stroke-width:0.80655336"
           class="cls-1"
           points="24.86,11.03 24.87,16.82 27.51,15.3 27.51,12.55 "
           id="polygon5627-0" />
        <polygon
           style="fill:#616161;stroke-width:0.80655336"
           class="cls-1"
           points="32.44,15.39 32.55,15.33 32.55,12.45 32.49,12.48 32.44,12.45 32.44,15.27 30.05,13.89 30.05,11.07 29.94,11.07 29.94,13.89 27.51,15.3 27.56,15.39 30,13.98 "
           id="polygon5629-2" />
        <polygon
           style="fill:#616161;stroke-width:0.80655336"
           class="cls-1"
           points="35.13,10.96 30.05,8.03 30.05,11.07 32.49,12.48 "
           id="polygon5631-1" />
        <polygon
           style="fill:#616161;stroke-width:0.80655336"
           class="cls-1"
           points="35.14,13.83 30.06,16.77 30.06,19.82 35.14,16.88 "
           id="polygon5633-7" />
        <polygon
           style="fill:#616161;stroke-width:0.80655336"
           class="cls-1"
           points="29.95,16.77 27.56,15.39 24.93,16.92 29.95,19.81 "
           id="polygon5635-5" />
        <path
           style="fill:#616161;stroke-width:0.80655336"
           class="cls-1"
           d="m 19.53,22 v 0.65 A 5.27,5.27 0 0 0 18.7,22.56 c -0.52,0 -0.69,0.16 -0.69,0.65 v 1.5 c 0,0.49 0.18,0.65 0.69,0.65 a 4.27,4.27 0 0 0 0.83,-0.11 v 0.67 a 5,5 0 0 1 -0.91,0.11 c -1,0 -1.35,-0.42 -1.35,-1.27 v -1.57 c 0,-0.86 0.36,-1.27 1.35,-1.27 A 7.16,7.16 0 0 1 19.53,22 Z"
           id="path5637-1" />
        <path
           style="fill:#616161;stroke-width:0.80655336"
           class="cls-1"
           d="M 21.8,24.6 V 26 H 21.07 V 24.6 L 19.92,22 h 0.82 l 0.7,1.91 0.7,-1.91 H 23 Z"
           id="path5639-7" />
        <path
           style="fill:#616161;stroke-width:0.80655336"
           class="cls-1"
           d="M 25.94,22.91 V 23 a 0.89,0.89 0 0 1 -0.59,0.88 0.88,0.88 0 0 1 0.75,0.9 v 0.13 c 0,0.65 -0.43,1.12 -1.48,1.12 -0.35,0 -0.61,0 -1.16,0 V 22 h 1.12 c 0.91,-0.08 1.36,0.34 1.36,0.91 z m -1.76,-0.35 v 1.09 h 0.45 c 0.39,0 0.58,-0.2 0.58,-0.53 V 23 c 0,-0.31 -0.19,-0.48 -0.68,-0.48 z m 0,1.7 v 1.13 h 0.45 c 0.53,0 0.74,-0.21 0.74,-0.54 v -0.11 c 0,-0.32 -0.21,-0.5 -0.71,-0.5 z"
           id="path5641-4" />
        <path
           style="fill:#616161;stroke-width:0.80655336"
           class="cls-1"
           d="m 28.92,22.66 h -1.49 v 1 h 1.37 v 0.67 h -1.37 v 1 h 1.49 V 26 H 26.7 v -4 h 2.22 z"
           id="path5643-1" />
        <path
           style="fill:#616161;stroke-width:0.80655336"
           class="cls-1"
           d="m 32.22,23 v 0.14 a 1.06,1.06 0 0 1 -0.67,1 l 1,1.8 h -0.8 L 30.88,24.33 H 30.41 V 26 h -0.73 v -4 h 1.12 c 0.99,-0.08 1.42,0.36 1.42,1 z m -1.83,-0.47 v 1.16 h 0.39 c 0.5,0 0.71,-0.22 0.71,-0.58 v -0.1 c 0,-0.35 -0.21,-0.52 -0.71,-0.52 z"
           id="path5645-7" />
        <path
           style="fill:#616161;stroke-width:0.80655336"
           class="cls-1"
           d="M 36,26 H 35.22 L 35,25.14 h -1.31 l -0.22,0.84 h -0.75 l 1.19,-4 h 0.86 z m -2.12,-1.46 h 1 L 34.4,22.62 Z"
           id="path5647-1" />
        <path
           style="fill:#616161;stroke-width:0.80655336"
           class="cls-1"
           d="m 39,23 v 0.14 a 1.06,1.06 0 0 1 -0.68,1 l 1,1.8 H 38.51 L 37.65,24.33 H 37.18 V 26 h -0.73 v -4 h 1.11 c 1,-0.08 1.44,0.36 1.44,1 z m -1.84,-0.47 v 1.16 h 0.4 c 0.5,0 0.71,-0.22 0.71,-0.58 v -0.1 c 0,-0.35 -0.21,-0.52 -0.72,-0.52 z"
           id="path5649-1" />
        <path
           style="fill:#616161;stroke-width:0.80655336"
           class="cls-1"
           d="m 41.12,23.94 1.58,2 H 41.81 L 40.5,24.22 V 26 h -0.73 v -4 h 0.73 v 1.8 L 41.79,22 h 0.78 z"
           id="path5651-1" />
        <path
           style="fill:#616161;stroke-width:0.80655336"
           class="cls-1"
           d="m 8.34,29.08 v 0.14 c 0,0.77 -0.46,1.24 -1.38,1.24 A 3,3 0 0 1 6.5,30.41 V 32 H 5.77 v -4 c 0.3,0 0.7,0 1.11,0 1,-0.09 1.46,0.37 1.46,1.08 z M 6.49,28.56 v 1.21 a 2.61,2.61 0 0 0 0.41,0 c 0.48,0 0.71,-0.21 0.71,-0.62 V 29.1 c 0,-0.35 -0.21,-0.55 -0.73,-0.55 z"
           id="path5653-7" />
        <path
           style="fill:#616161;stroke-width:0.80655336"
           class="cls-1"
           d="M 11.57,32 H 10.79 L 10.58,31.16 H 9.31 L 9.09,32 H 8.34 l 1.18,-4 h 0.87 z M 9.45,30.52 h 1 L 9.94,28.6 Z"
           id="path5655-0" />
        <path
           style="fill:#616161;stroke-width:0.80655336"
           class="cls-1"
           d="m 14.61,29 v 0.14 a 1.06,1.06 0 0 1 -0.68,1 l 1,1.8 H 14.12 L 13.26,30.33 H 12.79 V 32 h -0.73 v -4 h 1.11 c 1.01,-0.08 1.44,0.36 1.44,1 z m -1.84,-0.47 v 1.16 h 0.4 c 0.5,0 0.71,-0.22 0.71,-0.58 v -0.1 c 0,-0.35 -0.21,-0.52 -0.72,-0.52 z"
           id="path5657-4" />
        <path
           style="fill:#616161;stroke-width:0.80655336"
           class="cls-1"
           d="M 18,28.66 H 16.89 V 32 H 16.16 V 28.66 H 15.07 V 28 H 18 Z"
           id="path5659-0" />
        <path
           style="fill:#616161;stroke-width:0.80655336"
           class="cls-1"
           d="M 19.28,29.16 V 32 h -0.7 v -4 h 1 l 1,2.82 V 28 h 0.7 v 4 h -1 z"
           id="path5661-8" />
        <path
           style="fill:#616161;stroke-width:0.80655336"
           class="cls-1"
           d="m 24.32,28.66 h -1.49 v 1 h 1.37 v 0.67 h -1.37 v 1 h 1.49 V 32 H 22.1 v -4 h 2.22 z"
           id="path5663-5" />
        <path
           style="fill:#616161;stroke-width:0.80655336"
           class="cls-1"
           d="m 27.62,29 v 0.14 a 1.06,1.06 0 0 1 -0.67,1 l 1,1.8 h -0.8 L 26.28,30.33 H 25.81 V 32 h -0.73 v -4 h 1.12 c 1,-0.08 1.42,0.36 1.42,1 z m -1.83,-0.47 v 1.16 h 0.39 c 0.5,0 0.71,-0.22 0.71,-0.58 v -0.1 c 0,-0.35 -0.21,-0.52 -0.71,-0.52 z"
           id="path5665-1" />
        <path
           style="fill:#616161;stroke-width:0.80655336"
           class="cls-1"
           d="M 30.27,29.16 V 32 h -0.7 v -4 h 1 l 1,2.82 V 28 h 0.7 v 4 h -1 z"
           id="path5667-6" />
        <path
           style="fill:#616161;stroke-width:0.80655336"
           class="cls-1"
           d="m 35.31,28.66 h -1.49 v 1 h 1.37 v 0.67 h -1.37 v 1 h 1.49 V 32 h -2.22 v -4 h 2.22 z"
           id="path5669-6" />
        <path
           style="fill:#616161;stroke-width:0.80655336"
           class="cls-1"
           d="m 38.76,28.66 h -1.1 V 32 h -0.72 v -3.34 h -1.1 V 28 h 2.92 z"
           id="path5671-2" />
        <path
           style="fill:#616161;stroke-width:0.80655336"
           class="cls-1"
           d="m 43.16,32 h -0.9 L 41.59,28.8 40.91,32 H 40 L 39.13,28 H 39.9 L 40.48,31.24 41.15,28 H 42 L 42.67,31.23 43.25,28 H 44 Z"
           id="path5673-1" />
        <path
           style="fill:#616161;stroke-width:0.80655336"
           class="cls-1"
           d="m 47.19,29.26 v 1.45 a 1.38,1.38 0 0 1 -2.75,0 v -1.45 a 1.38,1.38 0 0 1 2.75,0 z m -2,-0.05 v 1.55 a 0.65,0.65 0 0 0 1.29,0 v -1.54 a 0.57,0.57 0 0 0 -0.65,-0.64 0.56,0.56 0 0 0 -0.66,0.63 z"
           id="path5675-9" />
        <path
           style="fill:#616161;stroke-width:0.80655336"
           class="cls-1"
           d="m 50.52,29 v 0.14 a 1.06,1.06 0 0 1 -0.68,1 l 1,1.8 H 50 L 49.13,30.33 H 48.66 V 32 H 48 v -4 h 1.12 c 0.97,-0.08 1.4,0.36 1.4,1 z m -1.83,-0.47 v 1.16 h 0.39 c 0.5,0 0.71,-0.22 0.71,-0.58 v -0.1 c 0,-0.35 -0.21,-0.52 -0.71,-0.52 z"
           id="path5677-6" />
        <path
           style="fill:#616161;stroke-width:0.80655336"
           class="cls-1"
           d="m 52.65,29.94 1.58,2 H 53.34 L 52,30.22 V 32 H 51.3 V 28 H 52 v 1.8 L 53.32,28 h 0.78 z"
           id="path5679-4" />
      </g>
    </g>
  </g>
</svg>
