<?xml version="1.0" encoding="UTF-8" standalone="no"?>
<svg
   xmlns:dc="http://purl.org/dc/elements/1.1/"
   xmlns:cc="http://creativecommons.org/ns#"
   xmlns:rdf="http://www.w3.org/1999/02/22-rdf-syntax-ns#"
   xmlns:svg="http://www.w3.org/2000/svg"
   xmlns="http://www.w3.org/2000/svg"
   id="svg279048"
   version="1.1"
   viewBox="0 0 26.15659 18.453997"
   height="18.453997mm"
   width="26.15659mm">
  <defs
     id="defs279042" />
  <metadata
     id="metadata279045">
    <rdf:RDF>
      <cc:Work
         rdf:about="">
        <dc:format>image/svg+xml</dc:format>
        <dc:type
           rdf:resource="http://purl.org/dc/dcmitype/StillImage" />
        <dc:title></dc:title>
      </cc:Work>
    </rdf:RDF>
  </metadata>
  <g
     transform="translate(13.834247,-511.53491)"
     id="layer1">
    <g
       style="fill:#58595b;fill-opacity:1;stroke:#58595b;stroke-width:0.57134587;stroke-miterlimit:4;stroke-dasharray:none;stroke-opacity:1"
       transform="matrix(0.28879522,0,0,0.28878837,-13.751746,511.61744)"
       id="Layer_2-9"
       data-name="Layer 2">
      <g
         style="fill:#58595b;fill-opacity:1;stroke:#58595b;stroke-width:0.57134587;stroke-miterlimit:4;stroke-dasharray:none;stroke-opacity:1"
         id="Layer_1-2-9"
         data-name="Layer 1">
        <path
           style="fill:#58595b;fill-opacity:1;stroke:#58595b;stroke-width:0.57134587;stroke-miterlimit:4;stroke-dasharray:none;stroke-opacity:1"
           class="cls-1"
           d="M 78.67,10.33 H 46.12 v 2.05 h 32 a 3.5,3.5 0 0 1 0.55,-2.05 z"
           id="path8436" />
        <path
           style="fill:#58595b;fill-opacity:1;stroke:#58595b;stroke-width:0.57134587;stroke-miterlimit:4;stroke-dasharray:none;stroke-opacity:1"
           class="cls-1"
           d="m 80.17,32.32 h -0.19 a 1.38,1.38 0 0 0 -0.17,0.08 7,7 0 0 1 -0.86,0.34 V 61.3 H 2.06 V 12.38 H 34.89 V 10.33 H 0 v 53 h 81 v -31.5 a 1.83,1.83 0 0 1 -0.83,0.49 z"
           id="path8438" />
        <path
           style="fill:#58595b;fill-opacity:1;stroke:#58595b;stroke-width:0.57134587;stroke-miterlimit:4;stroke-dasharray:none;stroke-opacity:1"
           class="cls-1"
           d="m 79.17,27.37 a 1.82,1.82 0 0 1 1.84,-0.5 v -11 a 2,2 0 0 1 -1,0.29 1.91,1.91 0 0 1 -1,-0.28 v 11.73 z"
           id="path8440" />
        <path
           style="fill:#58595b;fill-opacity:1;stroke:#58595b;stroke-width:0.57134587;stroke-miterlimit:4;stroke-dasharray:none;stroke-opacity:1"
           class="cls-1"
           d="M 36,56.05 H 7.68 V 23.79 H 36 Z M 10.15,53.59 H 33.57 V 26.26 H 10.15 Z"
           id="path8442" />
        <path
           style="fill:#58595b;fill-opacity:1;stroke:#58595b;stroke-width:0.57134587;stroke-miterlimit:4;stroke-dasharray:none;stroke-opacity:1"
           class="cls-1"
           d="m 41.9,48.18 a 1,1 0 1 0 0,2 h 17.91 a 1,1 0 0 0 0,-2 z"
           id="path8444" />
        <path
           style="fill:#58595b;fill-opacity:1;stroke:#58595b;stroke-width:0.57134587;stroke-miterlimit:4;stroke-dasharray:none;stroke-opacity:1"
           class="cls-1"
           d="M 73.23,42.14 H 41.9 a 1,1 0 1 0 0,2 h 31.36 z"
           id="path8446" />
        <path
           style="fill:#58595b;fill-opacity:1;stroke:#58595b;stroke-width:0.57134587;stroke-miterlimit:4;stroke-dasharray:none;stroke-opacity:1"
           class="cls-1"
           d="M 73.23,36.11 H 41.9 a 1,1 0 1 0 0,2 h 31.36 z"
           id="path8448" />
        <path
           style="fill:#58595b;fill-opacity:1;stroke:#58595b;stroke-width:0.57134587;stroke-miterlimit:4;stroke-dasharray:none;stroke-opacity:1"
           class="cls-1"
           d="M 56.75,30.08 H 41.9 a 1,1 0 1 0 0,2 h 15.64 a 2,2 0 0 1 -0.79,-2 z"
           id="path8450" />
        <path
           style="fill:#58595b;fill-opacity:1;stroke:#58595b;stroke-width:0.57134587;stroke-miterlimit:4;stroke-dasharray:none;stroke-opacity:1"
           class="cls-1"
           d="m 59.71,32.07 h 4.64 a 6.63,6.63 0 0 1 -2.14,-2 H 60.5 a 2,2 0 0 1 -0.79,2 z"
           id="path8452" />
        <path
           style="fill:#58595b;fill-opacity:1;stroke:#58595b;stroke-width:0.57134587;stroke-miterlimit:4;stroke-dasharray:none;stroke-opacity:1"
           class="cls-1"
           d="M 34.89,0.46 V 17.24 H 46.12 V 0.46 Z M 43,15.12 h -4.94 v -4.9 H 43 Z"
           id="path8454" />
        <path
           style="fill:#58595b;fill-opacity:1;stroke:#58595b;stroke-width:0.57134587;stroke-miterlimit:4;stroke-dasharray:none;stroke-opacity:1"
           class="cls-1"
           d="m 21.85,53.87 h -2.2 c 0.81,0 1.62,0.09 2.45,0.06 0.59,0 1.17,0 1.75,0 l -0.1,-0.08 c -0.59,0.01 -1.22,0.02 -1.9,0.02 z"
           id="path8456" />
        <path
           style="fill:#58595b;fill-opacity:1;stroke:#58595b;stroke-width:0.57134587;stroke-miterlimit:4;stroke-dasharray:none;stroke-opacity:1"
           class="cls-1"
           d="m 87.43,18.78 a 0.85,0.85 0 0 0 -0.85,0.85 c 0,5.21 -5.71,7.06 -10.6,7.06 a 11.67,11.67 0 0 1 -7.92,-2.9 L 72,19.7 a 0.85,0.85 0 0 0 0.17,-0.93 0.84,0.84 0 0 0 -0.78,-0.52 H 57.21 a 0.86,0.86 0 0 0 -0.86,0.86 v 14.82 a 0.85,0.85 0 0 0 0.86,0.86 0.84,0.84 0 0 0 0.62,-0.27 l 3.82,-4 a 15.45,15.45 0 0 0 10.67,4.28 c 9.25,0 16,-6.38 16,-15.16 a 0.85,0.85 0 0 0 -0.89,-0.86 z m -5,10.65 A 14.93,14.93 0 0 1 72.32,33.08 13.82,13.82 0 0 1 62.26,28.7 0.88,0.88 0 0 0 61.64,28.43 0.85,0.85 0 0 0 61.02,28.7 l -3,3.1 V 20 h 11.33 l -3.11,3.26 a 0.86,0.86 0 0 0 0,1.17 13.19,13.19 0 0 0 9.75,4 c 3.88,0 7,-0.93 9.2,-2.57 a 12.28,12.28 0 0 1 -2.76,3.57 z"
           id="path8458" />
        <path
           style="fill:#58595b;fill-opacity:1;stroke:#58595b;stroke-width:0.57134587;stroke-miterlimit:4;stroke-dasharray:none;stroke-opacity:1"
           class="cls-1"
           d="m 89.46,0.06 a 0.84,0.84 0 0 0 -0.93,0.21 l -3.83,4 A 15.45,15.45 0 0 0 74,0 C 64.75,0 58,6.37 58,15.16 a 0.86,0.86 0 0 0 0.86,0.85 0.85,0.85 0 0 0 0.85,-0.85 c 0,-5.21 5.72,-7.06 10.61,-7.06 a 11.66,11.66 0 0 1 7.97,2.9 l -3.9,4.09 a 0.87,0.87 0 0 0 -0.17,0.93 0.86,0.86 0 0 0 0.79,0.52 H 89.14 A 0.85,0.85 0 0 0 90,15.68 V 0.86 A 0.86,0.86 0 0 0 89.46,0.06 Z M 88.29,14.83 H 77 l 3.11,-3.26 a 0.86,0.86 0 0 0 0,-1.17 13.18,13.18 0 0 0 -9.74,-4 c -3.89,0 -7.06,0.93 -9.21,2.56 A 12.37,12.37 0 0 1 63.91,5.37 14.93,14.93 0 0 1 74,1.71 a 13.86,13.86 0 0 1 10.1,4.38 0.84,0.84 0 0 0 1.23,0 l 3,-3.1 z"
           id="path8460" />
        <path
           style="fill:#58595b;fill-opacity:1;stroke:#58595b;stroke-width:0.57134587;stroke-miterlimit:4;stroke-dasharray:none;stroke-opacity:1"
           class="cls-2"
           d="m 27.6,50.45 a 0.42,0.42 0 0 1 0.43,0.42 v 3.05 h 3.54 c -0.16,-3.56 -2.66,-8.64 -6.36,-9.64 h -0.06 a 2.78,2.78 0 0 1 -1.33,1.72 4.09,4.09 0 0 1 -3.92,0 3,3 0 0 1 -0.84,-0.73 2.57,2.57 0 0 1 -0.49,-1 h -0.06 l -0.35,0.09 v 0 c -3.5,1 -5.85,6.1 -6,9.55 h 3.22 v -3.05 a 0.42,0.42 0 1 1 0.84,0 v 3.06 h 11 v -3.05 a 0.42,0.42 0 0 1 0.38,-0.42 z"
           id="path8462" />
        <path
           style="fill:#58595b;fill-opacity:1;stroke:#58595b;stroke-width:0.57134587;stroke-miterlimit:4;stroke-dasharray:none;stroke-opacity:1"
           class="cls-2"
           d="m 21.86,31.22 c -3.86,0 -4.27,4 -4.27,5.69 a 5.84,5.84 0 0 0 1.75,3.85 9,9 0 0 0 1,0.89 0.46,0.46 0 0 1 0.12,0.12 0.65,0.65 0 0 1 0.13,0.5 2.09,2.09 0 0 1 -1.2,1.73 1.83,1.83 0 0 0 0.38,0.75 2,2 0 0 0 0.55,0.44 3.22,3.22 0 0 0 3.07,0 1.92,1.92 0 0 0 0.94,-1.2 1.84,1.84 0 0 1 -0.78,-0.64 3,3 0 0 1 -0.4,-1.09 0.63,0.63 0 0 1 0.24,-0.62 6.51,6.51 0 0 0 2.74,-4.75 7.18,7.18 0 0 0 -1.23,-4.34 3.69,3.69 0 0 0 -3.04,-1.33 z"
           id="path8464" />
        <path
           style="fill:#58595b;fill-opacity:1;stroke:#58595b;stroke-width:0.57134587;stroke-miterlimit:4;stroke-dasharray:none;stroke-opacity:1"
           class="cls-1"
           d="m 23.39,41.65 a 0.63,0.63 0 0 0 -0.24,0.62 3,3 0 0 0 0.4,1.09 2.89,2.89 0 0 1 -0.39,-1.09 0.63,0.63 0 0 1 0.24,-0.61 6.51,6.51 0 0 0 2.74,-4.75 7.23,7.23 0 0 0 -1.24,-4.35 7.18,7.18 0 0 1 1.23,4.34 6.51,6.51 0 0 1 -2.74,4.75 z"
           id="path8466" />
        <path
           style="fill:#58595b;fill-opacity:1;stroke:#58595b;stroke-width:0.57134587;stroke-miterlimit:4;stroke-dasharray:none;stroke-opacity:1"
           class="cls-1"
           d="m 23.39,45.2 a 3.22,3.22 0 0 1 -3.07,0 2,2 0 0 1 -0.55,-0.44 2.05,2.05 0 0 0 0.56,0.45 3.22,3.22 0 0 0 3.07,0 2,2 0 0 0 0.94,-1.2 v 0 a 1.92,1.92 0 0 1 -0.95,1.19 z"
           id="path8468" />
        <path
           style="fill:#58595b;fill-opacity:1;stroke:#58595b;stroke-width:0.57134587;stroke-miterlimit:4;stroke-dasharray:none;stroke-opacity:1"
           class="cls-1"
           d="m 19.34,40.76 a 8.22,8.22 0 0 0 1,0.9 0.57,0.57 0 0 1 0.11,0.11 0.46,0.46 0 0 0 -0.12,-0.12 9,9 0 0 1 -0.99,-0.89 z"
           id="path8470" />
        <path
           style="fill:#58595b;fill-opacity:1;stroke:#58595b;stroke-width:0.57134587;stroke-miterlimit:4;stroke-dasharray:none;stroke-opacity:1"
           class="cls-1"
           d="m 21.86,30 a 5.08,5.08 0 0 1 3.7,1.42 5.06,5.06 0 0 0 -3.71,-1.43 c -3.47,0 -5.54,2.6 -5.54,7 A 6.94,6.94 0 0 0 18.16,41.43 7,7 0 0 1 16.32,37 c 0,-4.45 2.07,-7 5.54,-7 z"
           id="path8472" />
        <path
           style="fill:#58595b;fill-opacity:1;stroke:#58595b;stroke-width:0.57134587;stroke-miterlimit:4;stroke-dasharray:none;stroke-opacity:1"
           class="cls-1"
           d="m 25.49,43 v 0 c 0.46,0.12 0.92,0.27 1.38,0.44 h 0.06 c -0.48,-0.16 -1,-0.3 -1.45,-0.43 v 0 A 1.82,1.82 0 0 1 24.66,42.7 1.7,1.7 0 0 0 25.49,43 Z"
           id="path8474" />
        <path
           style="fill:#58595b;fill-opacity:1;stroke:#58595b;stroke-width:0.57134587;stroke-miterlimit:4;stroke-dasharray:none;stroke-opacity:1"
           class="cls-1"
           d="m 18.58,44.26 v 0 a 2.57,2.57 0 0 0 0.49,1 2.48,2.48 0 0 1 -0.49,-1 z"
           id="path8476" />
        <path
           style="fill:#58595b;fill-opacity:1;stroke:#58595b;stroke-width:0.57134587;stroke-miterlimit:4;stroke-dasharray:none;stroke-opacity:1"
           class="cls-1"
           d="m 18.15,44.37 a 6.27,6.27 0 0 0 -0.61,-0.53 1.89,1.89 0 0 0 -0.76,-0.35 c -3,1.15 -5.74,6.41 -5.9,10.43 h 1.26 c 0.16,-3.45 2.51,-8.51 6.01,-9.55 z"
           id="path8478" />
        <path
           style="fill:#58595b;fill-opacity:1;stroke:#58595b;stroke-width:0.57134587;stroke-miterlimit:4;stroke-dasharray:none;stroke-opacity:1"
           class="cls-1"
           d="m 15.78,50.44 a 0.42,0.42 0 0 0 -0.42,0.42 v 3.06 h 0.84 v -3.06 a 0.42,0.42 0 0 0 -0.42,-0.42 z"
           id="path8480" />
        <path
           style="fill:#58595b;fill-opacity:1;stroke:#58595b;stroke-width:0.57134587;stroke-miterlimit:4;stroke-dasharray:none;stroke-opacity:1"
           class="cls-1"
           d="m 18.24,43 c 0.69,-0.14 0.89,-0.28 1,-0.63 v 0 c -0.11,0.35 -0.31,0.49 -1,0.63 v 0 c -0.35,0.09 -0.69,0.2 -1,0.32 0.35,-0.11 0.7,-0.22 1.05,-0.31 z"
           id="path8482" />
        <path
           style="fill:#58595b;fill-opacity:1;stroke:#58595b;stroke-width:0.57134587;stroke-miterlimit:4;stroke-dasharray:none;stroke-opacity:1"
           class="cls-1"
           d="m 25.56,44.37 -0.35,-0.1 h -0.07 a 2.75,2.75 0 0 1 -1.33,1.69 4.07,4.07 0 0 1 -3.91,0 3,3 0 0 1 -0.84,-0.72 3,3 0 0 0 0.84,0.73 4.09,4.09 0 0 0 3.92,0 2.78,2.78 0 0 0 1.33,-1.69 h 0.06 c 3.7,1 6.2,6.08 6.36,9.64 h 1.27 c -0.16,-4 -2.9,-9.28 -5.93,-10.43 a 1.85,1.85 0 0 0 -0.74,0.34 7.84,7.84 0 0 0 -0.61,0.54 z"
           id="path8484" />
        <path
           style="fill:#58595b;fill-opacity:1;stroke:#58595b;stroke-width:0.57134587;stroke-miterlimit:4;stroke-dasharray:none;stroke-opacity:1"
           class="cls-1"
           d="m 16.75,43.48 v 0 l 0.37,-0.13 z"
           id="path8486" />
        <path
           style="fill:#58595b;fill-opacity:1;stroke:#58595b;stroke-width:0.57134587;stroke-miterlimit:4;stroke-dasharray:none;stroke-opacity:1"
           class="cls-1"
           d="m 18.51,44.28 h 0.06 v 0 H 18.5 l -0.35,0.1 v 0 z"
           id="path8488" />
        <path
           style="fill:#58595b;fill-opacity:1;stroke:#58595b;stroke-width:0.57134587;stroke-miterlimit:4;stroke-dasharray:none;stroke-opacity:1"
           class="cls-1"
           d="m 28,50.87 a 0.43,0.43 0 0 0 -0.85,0 v 3.05 H 28 Z"
           id="path8490" />
        <path
           style="fill:#58595b;fill-opacity:1;stroke:#58595b;stroke-width:0.57134587;stroke-miterlimit:4;stroke-dasharray:none;stroke-opacity:1"
           class="cls-1"
           d="m 24.33,44 v 0 A 1.84,1.84 0 0 1 23.55,43.36 1.84,1.84 0 0 0 24.33,44 Z"
           id="path8492" />
        <path
           style="fill:#58595b;fill-opacity:1;stroke:#58595b;stroke-width:0.57134587;stroke-miterlimit:4;stroke-dasharray:none;stroke-opacity:1"
           class="cls-1"
           d="m 20.57,42.27 a 0.65,0.65 0 0 0 -0.13,-0.5 0.63,0.63 0 0 1 0.12,0.5 2.09,2.09 0 0 1 -1.18,1.73 1.89,1.89 0 0 0 0.39,0.76 1.83,1.83 0 0 1 -0.38,-0.75 2.09,2.09 0 0 0 1.18,-1.74 z"
           id="path8494" />
        <path
           style="fill:#58595b;fill-opacity:1;stroke:#58595b;stroke-width:0.57134587;stroke-miterlimit:4;stroke-dasharray:none;stroke-opacity:1"
           class="cls-1"
           d="m 19.34,40.76 a 5.84,5.84 0 0 1 -1.75,-3.85 c 0,-1.71 0.41,-5.69 4.27,-5.69 a 3.69,3.69 0 0 1 3,1.34 3.7,3.7 0 0 0 -3,-1.35 c -3.85,0 -4.27,4 -4.27,5.69 a 5.86,5.86 0 0 0 1.75,3.86 z"
           id="path8496" />
        <path
           style="fill:#58595b;fill-opacity:1;stroke:#58595b;stroke-width:0.57134587;stroke-miterlimit:4;stroke-dasharray:none;stroke-opacity:1"
           class="cls-1"
           d="m 24.48,42.4 a 0.72,0.72 0 0 0 0.18,0.32 0.78,0.78 0 0 1 -0.17,-0.31 7.65,7.65 0 0 0 1.07,-11 7.66,7.66 0 0 1 -1.08,11 z"
           id="path8498" />
        <path
           style="fill:#58595b;fill-opacity:1;stroke:#58595b;stroke-width:0.57134587;stroke-miterlimit:4;stroke-dasharray:none;stroke-opacity:1"
           class="cls-1"
           d="m 18.16,41.34 a 8.9,8.9 0 0 0 1.07,1.06 v 0 a 8.9,8.9 0 0 1 -1.07,-1.06 z"
           id="path8500" />
        <path
           style="fill:#58595b;fill-opacity:1;stroke:#58595b;stroke-width:0.57134587;stroke-miterlimit:4;stroke-dasharray:none;stroke-opacity:1"
           class="cls-1"
           d="m 18.15,44.37 0.35,-0.1 h 0.07 v 0 a 2.48,2.48 0 0 0 0.48,1 3,3 0 0 0 0.84,0.72 4.07,4.07 0 0 0 3.91,0 2.75,2.75 0 0 0 1.33,-1.69 h 0.07 l 0.35,0.1 a 7.84,7.84 0 0 1 0.61,-0.54 1.85,1.85 0 0 1 0.74,-0.34 C 26.44,43.35 25.98,43.2 25.52,43.08 v 0 a 1.7,1.7 0 0 1 -0.83,-0.32 0.72,0.72 0 0 1 -0.18,-0.32 7.66,7.66 0 0 0 1.08,-11 A 5.08,5.08 0 0 0 21.86,30 c -3.47,0 -5.54,2.6 -5.54,7 a 7,7 0 0 0 1.84,4.43 8.9,8.9 0 0 0 1.07,1.06 v 0 c -0.11,0.35 -0.31,0.49 -1,0.63 v 0 c -0.35,0.09 -0.7,0.2 -1.05,0.31 l -0.37,0.13 a 1.89,1.89 0 0 1 0.76,0.35 6.27,6.27 0 0 1 0.58,0.46 z M 17.58,36.9 c 0,-1.71 0.42,-5.69 4.27,-5.69 a 3.7,3.7 0 0 1 3,1.35 7.23,7.23 0 0 1 1.24,4.35 6.51,6.51 0 0 1 -2.74,4.75 0.63,0.63 0 0 0 -0.24,0.61 2.89,2.89 0 0 0 0.39,1.09 1.84,1.84 0 0 0 0.78,0.64 v 0 a 2,2 0 0 1 -0.94,1.2 3.22,3.22 0 0 1 -3.07,0 2.05,2.05 0 0 1 -0.56,-0.45 1.89,1.89 0 0 1 -0.39,-0.76 2.09,2.09 0 0 0 1.18,-1.73 0.63,0.63 0 0 0 -0.12,-0.5 0.57,0.57 0 0 0 -0.11,-0.11 8.22,8.22 0 0 1 -1,-0.9 5.86,5.86 0 0 1 -1.69,-3.85 z"
           id="path8502" />
      </g>
    </g>
  </g>
</svg>
