<?xml version="1.0" encoding="iso-8859-1"?>
<!-- Generator: Adobe Illustrator 23.0.3, SVG Export Plug-In . SVG Version: 6.00 Build 0)  -->
<svg version="1.1"
	 id="svg87247" xmlns:cc="http://creativecommons.org/ns#" xmlns:dc="http://purl.org/dc/elements/1.1/" xmlns:rdf="http://www.w3.org/1999/02/22-rdf-syntax-ns#" xmlns:svg="http://www.w3.org/2000/svg"
	 xmlns="http://www.w3.org/2000/svg" xmlns:xlink="http://www.w3.org/1999/xlink" x="0px" y="0px" viewBox="0 0 53.2 52.3"
	 style="enable-background:new 0 0 53.2 52.3;" xml:space="preserve">
<style type="text/css">
	.st0{fill:#666666;}
</style>
<g id="layer1" transform="translate(353.33434,-289.28491)">
	<g id="Layer_2-618-3" transform="matrix(0.26149665,0,0,0.26149665,-353.33434,289.28509)">
		<g id="Layer_1-2-79-8">
			<path id="path2850-0" class="st0" d="M164,49.7c0.7-3.1,1.1-6.2,1.1-9.3C164.8,17.8,146.4-0.2,123.8,0c-14.8,0-28.5,7.8-36,20.7
				C67,17.3,46.7,29.6,40,49.6C17.8,50.9,0.3,69.2,0,91.4c0.2,21.2,16.1,38.9,37.1,41.5c0.4-3.2,1-6.3,1.9-9.4
				c-16.6-1.7-29.2-15.5-29.5-32.1c0.3-18,15-32.4,33-32.4c4.6,0.1,9.1,1,13.3,2.8c1.6,0.7,3.5-0.1,4.2-1.7c0.7-1.6-0.1-3.5-1.7-4.2
				c-3-1.2-6.1-2.1-9.3-2.7c4.3-14.1,17.3-23.7,32.1-23.6h0.8c8.3,0.1,16.2,3,22.5,8.4c0.6,0.5,1.3,0.8,2,0.8c0.9,0,1.8-0.4,2.4-1.1
				c1.1-1.3,1-3.3-0.4-4.5c0,0,0,0,0,0c-3.7-3.2-8-5.6-12.6-7.3c5.7-10.1,16.4-16.4,28-16.3c17.3-0.2,31.5,13.6,31.7,30.8
				c0,4.2-0.9,8.3-2.6,12.1c-0.1,0.3-0.2,0.7-0.3,1c-4.5,0.9-8.8,2.6-12.7,4.9c-1.4,1-1.8,3-0.8,4.4c0.5,0.8,1.4,1.3,2.4,1.4
				c0.6,0,1.1-0.1,1.6-0.4c4.6-2.8,9.9-4.4,15.3-4.8h1.8c18.1-0.3,33,14.1,33.3,32.2c-0.2,16.7-12.9,30.5-29.5,32.3
				c0.9,3.1,1.5,6.2,1.9,9.4c22.9-2.6,39.5-23.3,36.9-46.2C200.7,66.6,184.3,50.9,164,49.7z"/>
			<path id="path2852-4" class="st0" d="M101.6,200c-32.5,0-58.8-26.3-58.8-58.7c0-32.5,26.3-58.8,58.7-58.8
				c32.5,0,58.8,26.3,58.8,58.7c0,0,0,0,0,0.1C160.3,173.7,134,200,101.6,200z M101.6,92.1c-27.2,0-49.2,22-49.2,49.2
				s22,49.2,49.2,49.2s49.2-22,49.2-49.2l0,0C150.8,114.1,128.8,92.1,101.6,92.1z"/>
			<path id="path2854-7" class="st0" d="M153.8,144.6H49.4c-1.8,0-3.2-1.4-3.2-3.2s1.4-3.2,3.2-3.2h104.4c1.8,0,3.2,1.4,3.2,3.2
				S155.6,144.6,153.8,144.6z"/>
			<path id="path2856-6" class="st0" d="M101.6,117.7c-9.7,0.1-19.4-0.7-28.9-2.4c-9.6-1.9-14.2-4.7-14.2-8.5c0-0.9,0.7-1.6,1.6-1.6
				c0.9,0,1.6,0.7,1.6,1.6c0,3.8,16.1,7.8,40,7.8c24,0,40-4.1,40-7.9c0-0.9,0.7-1.6,1.6-1.6c0.9,0,1.6,0.7,1.6,1.6
				C144.8,117.2,108.8,117.7,101.6,117.7z"/>
			<path id="path2858-8" class="st0" d="M143.2,177c-0.9,0-1.6-0.7-1.6-1.6c0,0,0,0,0,0c0-1.4-3.1-3.7-11.7-5.5
				c-9.4-1.6-18.8-2.4-28.3-2.3c-24,0-40,4-40,7.8c0,0.9-0.7,1.6-1.6,1.6c-0.9,0-1.6-0.7-1.6-1.6c0.1-10.4,36.1-11,43.3-11
				c7.2,0,43.2,0.5,43.2,10.9C144.8,176.2,144.2,177,143.2,177C143.3,177,143.2,177,143.2,177z"/>
			<path id="path2860-9" class="st0" d="M101.4,196.7c-1.8,0-3.2-1.4-3.2-3.2l0,0V89.1c0-1.8,1.4-3.2,3.2-3.2c1.8,0,3.2,1.4,3.2,3.2
				v104.4C104.5,195.3,103.1,196.7,101.4,196.7C101.4,196.7,101.4,196.7,101.4,196.7z"/>
			<path id="path2862-2-0" class="st0" d="M101.6,195.1c-0.9,0-1.6-0.7-1.6-1.6c0-0.9,0.7-1.6,1.6-1.6c11.3,0,18.3-8.5,22.1-15.5
				c5.3-10.9,7.9-23,7.7-35.1c0-24.4-9.3-50.6-29.7-50.6c-0.9,0-1.6-0.7-1.6-1.6s0.7-1.6,1.6-1.6c22.7,0,32.9,27.9,32.9,53.9
				S124.2,195.1,101.6,195.1z"/>
			<path id="path2864-0-6" class="st0" d="M101.6,195.1c-22.7,0-32.9-27.9-32.9-53.9c-0.3-12.7,2.5-25.2,8-36.7
				c6-11.3,14.6-17.1,24.9-17.1c0.9,0,1.6,0.7,1.6,1.6c0,0.9-0.7,1.6-1.6,1.6c-20.4,0-29.8,26.2-29.8,50.6s9.3,50.6,29.8,50.6
				c0.9,0,1.6,0.7,1.6,1.6C103.2,194.3,102.5,195.1,101.6,195.1L101.6,195.1z"/>
		</g>
	</g>
</g>
</svg>
