<?xml version="1.0" encoding="UTF-8" standalone="no"?>
<svg
   xmlns:dc="http://purl.org/dc/elements/1.1/"
   xmlns:cc="http://creativecommons.org/ns#"
   xmlns:rdf="http://www.w3.org/1999/02/22-rdf-syntax-ns#"
   xmlns:svg="http://www.w3.org/2000/svg"
   xmlns="http://www.w3.org/2000/svg"
   id="svg110433"
   version="1.1"
   viewBox="0 0 18.177402 18.454"
   height="18.454mm"
   width="18.177402mm">
  <defs
     id="defs110427" />
  <metadata
     id="metadata110430">
    <rdf:RDF>
      <cc:Work
         rdf:about="">
        <dc:format>image/svg+xml</dc:format>
        <dc:type
           rdf:resource="http://purl.org/dc/dcmitype/StillImage" />
        <dc:title></dc:title>
      </cc:Work>
    </rdf:RDF>
  </metadata>
  <g
     transform="translate(-204.84582,-39.820619)"
     id="layer1">
    <g
       style="stroke-width:1.04392135"
       transform="matrix(0.2534514,0,0,0.2534514,204.84582,39.820794)"
       id="Layer_2-18-3"
       data-name="Layer 2">
      <g
         style="stroke-width:1.04392135"
         id="Layer_1-2-59-3"
         data-name="Layer 1">
        <path
           style="fill:#666666;stroke-width:1.04392135"
           class="cls-1"
           d="M 57.86,17.53 A 13.9,13.9 0 0 0 58.25,14.24 14.42,14.42 0 0 0 43.69,0 14.64,14.64 0 0 0 31,7.29 15.25,15.25 0 0 0 14.12,17.51 15,15 0 0 0 0,32.26 15,15 0 0 0 15.12,47.05 H 28 A 15.36,15.36 0 0 1 27.68,43.69 H 15.12 A 11.62,11.62 0 0 1 3.36,32.26 11.61,11.61 0 0 1 15,20.84 a 12.19,12.19 0 0 1 4.7,1 1.1226976,1.1226976 0 0 0 0.87,-2.07 14.61,14.61 0 0 0 -3.28,-0.94 11.75,11.75 0 0 1 11.31,-8.33 h 0.29 a 12.45,12.45 0 0 1 7.95,2.95 1.09,1.09 0 0 0 0.72,0.27 1.15,1.15 0 0 0 0.86,-0.4 1.12,1.12 0 0 0 -0.13,-1.58 15,15 0 0 0 -4.44,-2.59 11.25,11.25 0 0 1 9.88,-5.75 11.06,11.06 0 0 1 11.2,10.88 10.54,10.54 0 0 1 -0.9,4.28 2.47,2.47 0 0 0 -0.11,0.36 14.17,14.17 0 0 0 -4.47,1.73 1.12,1.12 0 0 0 0.55,2.04 1.16,1.16 0 0 0 0.57,-0.15 12.08,12.08 0 0 1 5.38,-1.68 h 0.64 a 11.56,11.56 0 0 1 11.74,11.35 11.58,11.58 0 0 1 -8.9,11.12 16.33,16.33 0 0 1 -0.26,3.49 14.74,14.74 0 0 0 -1.31,-29.29 z"
           id="path5848-3" />
        <path
           style="fill:#666666;stroke-width:1.04392135"
           class="cls-1"
           d="M 20.89,72.81 A 6.25,6.25 0 0 1 16.48,62.15 l 14.1,-14.1 a 13.64,13.64 0 0 1 17.89,-16.9 1.69,1.69 0 0 1 1,1.22 1.66,1.66 0 0 1 -0.46,1.54 l -6.42,6.42 4.5,4.5 6.42,-6.42 A 1.66,1.66 0 0 1 55.09,38 1.69,1.69 0 0 1 56.31,39 13.65,13.65 0 0 1 43.58,57.53 v 0 A 13.61,13.61 0 0 1 39.41,56.88 L 25.31,71 a 6.21,6.21 0 0 1 -4.42,1.81 z m 22.68,-39.2 a 10.26,10.26 0 0 0 -9.49,14.22 1.68,1.68 0 0 1 -0.37,1.83 L 18.85,64.52 a 2.89,2.89 0 0 0 2,4.93 2.87,2.87 0 0 0 2,-0.84 L 37.79,53.74 a 1.69,1.69 0 0 1 1.84,-0.36 10.24,10.24 0 0 0 3.95,0.79 v 0 a 10.2,10.2 0 0 0 7.26,-3 10.34,10.34 0 0 0 3,-8.26 l -4.44,4.44 a 3.2,3.2 0 0 1 -4.49,0 l -4.76,-4.76 a 3.19,3.19 0 0 1 0,-4.49 l 4.44,-4.44 C 44.23,33.62 43.9,33.61 43.57,33.61 Z"
           id="path5850-7" />
        <path
           style="fill:#666666;stroke-width:1.04392135"
           class="cls-1"
           d="m 43.13,52.34 a 8,8 0 0 1 -8,-8.09 h 1.12 a 6.82,6.82 0 0 0 6.9,7 z"
           id="path5852-3" />
        <path
           style="fill:#666666;stroke-width:1.04392135"
           class="cls-1"
           d="M 22,66.78 A 1.33,1.33 0 1 1 20.67,65.45 1.34,1.34 0 0 1 22,66.78 Z"
           id="path5854-2" />
        <path
           style="fill:#666666;stroke-width:1.04392135"
           class="cls-1"
           d="m 24.94,63.64 a 1.13,1.13 0 0 1 -0.79,-1.92 l 8.64,-8.64 a 1.1207698,1.1207698 0 0 1 1.58,1.59 l -8.64,8.64 a 1.09,1.09 0 0 1 -0.79,0.33 z"
           id="path5856-6" />
      </g>
    </g>
  </g>
</svg>
