<?xml version="1.0" encoding="UTF-8" standalone="no"?>
<svg
   xmlns:dc="http://purl.org/dc/elements/1.1/"
   xmlns:cc="http://creativecommons.org/ns#"
   xmlns:rdf="http://www.w3.org/1999/02/22-rdf-syntax-ns#"
   xmlns:svg="http://www.w3.org/2000/svg"
   xmlns="http://www.w3.org/2000/svg"
   id="svg80350"
   version="1.1"
   viewBox="0 0 19.475164 18.454"
   height="18.454mm"
   width="19.475164mm">
  <defs
     id="defs80344" />
  <metadata
     id="metadata80347">
    <rdf:RDF>
      <cc:Work
         rdf:about="">
        <dc:format>image/svg+xml</dc:format>
        <dc:type
           rdf:resource="http://purl.org/dc/dcmitype/StillImage" />
        <dc:title></dc:title>
      </cc:Work>
    </rdf:RDF>
  </metadata>
  <g
     transform="translate(625.08282,-46.62419)"
     id="layer1">
    <g
       style="stroke-width:0.9739573"
       transform="matrix(0.27165803,0,0,0.27165803,-625.08282,46.624378)"
       id="Layer_2-02-5"
       data-name="Layer 2">
      <g
         style="stroke-width:0.9739573"
         id="Layer_1-2-10-2"
         data-name="Layer 1">
        <path
           style="fill:#666666;stroke-width:0.9739573"
           class="cls-1"
           d="M 59.61,62.46 56,56.74 V 34.59 A 3.37,3.37 0 0 0 52.63,31.22 H 19 a 3.37,3.37 0 0 0 -3.37,3.37 V 56.74 L 12,62.46 a 1.08,1.08 0 0 0 -0.18,0.6 v 0.75 A 4.13,4.13 0 0 0 16,67.93 h 39.66 a 4.13,4.13 0 0 0 4.12,-4.12 v -0.75 a 1.16,1.16 0 0 0 -0.17,-0.6 z M 17.83,34.59 A 1.12,1.12 0 0 1 19,33.47 h 14.78 l 0.15,0.75 h 3.75 l 0.15,-0.75 h 14.83 a 1.13,1.13 0 0 1 1.13,1.12 v 21.73 h -36 z m -0.27,23.23 h 36.49 l 3.05,4.87 H 41.74 L 41.42,60.81 H 30.19 l -0.31,1.88 H 14.52 Z m 40,6 a 1.87,1.87 0 0 1 -1.87,1.87 H 16 a 1.87,1.87 0 0 1 -1.87,-1.87 v -0.38 h 43.4 z"
           id="path12071-6" />
        <path
           style="fill:#666666;stroke-width:0.9739573"
           class="cls-1"
           d="M 19.7,54.82 H 51.91 V 35.34 H 19.7 Z m 0.75,-18.73 h 30.71 v 18 H 20.45 Z"
           id="path12073-5" />
        <rect
           style="fill:#666666;stroke-width:0.9739573"
           class="cls-1"
           x="20.26"
           y="40.16"
           width="31.27"
           height="0.89999998"
           id="rect12075-8" />
        <circle
           style="fill:#666666;stroke-width:0.9739573"
           class="cls-1"
           cx="48.779999"
           cy="38.299999"
           r="0.82999998"
           id="circle12077-7" />
        <circle
           style="fill:#666666;stroke-width:0.9739573"
           class="cls-1"
           cx="46.470001"
           cy="38.299999"
           r="0.82999998"
           id="circle12079-9" />
        <circle
           style="fill:#666666;stroke-width:0.9739573"
           class="cls-1"
           cx="44.16"
           cy="38.299999"
           r="0.82999998"
           id="circle12081-6" />
        <path
           style="fill:#666666;stroke-width:0.9739573"
           class="cls-1"
           d="m 42,46.75 2.4,4.15 0.45,-1.71 1.38,1 a 0.3,0.3 0 0 0 0.15,0.05 0.26,0.26 0 0 0 0.2,-0.1 0.24,0.24 0 0 0 -0.05,-0.35 l -1.36,-1 1.53,-0.89 z"
           id="path12083-0" />
        <path
           style="fill:#666666;stroke-width:0.9739573"
           class="cls-1"
           d="M 71.69,32.26 A 14.93,14.93 0 0 0 57.86,17.53 13.9,13.9 0 0 0 58.25,14.24 14.42,14.42 0 0 0 43.69,0 14.64,14.64 0 0 0 31,7.29 15.25,15.25 0 0 0 14.12,17.51 15,15 0 0 0 0,32.26 14.89,14.89 0 0 0 12,46.72 V 43.27 A 11.5,11.5 0 0 1 3.32,32.27 11.61,11.61 0 0 1 15,20.84 a 12.19,12.19 0 0 1 4.7,1 1.1226976,1.1226976 0 0 0 0.87,-2.07 14.61,14.61 0 0 0 -3.28,-0.94 11.75,11.75 0 0 1 11.31,-8.33 h 0.29 a 12.45,12.45 0 0 1 7.95,2.95 1.11,1.11 0 0 0 0.72,0.27 1.15,1.15 0 0 0 0.86,-0.4 1.12,1.12 0 0 0 -0.13,-1.58 15,15 0 0 0 -4.44,-2.59 11.25,11.25 0 0 1 9.88,-5.75 11.06,11.06 0 0 1 11.2,10.88 10.54,10.54 0 0 1 -0.9,4.28 2.47,2.47 0 0 0 -0.11,0.36 14.17,14.17 0 0 0 -4.47,1.73 1.12,1.12 0 0 0 0.55,2.04 1.16,1.16 0 0 0 0.57,-0.15 12.08,12.08 0 0 1 5.38,-1.68 h 0.64 A 11.56,11.56 0 0 1 68.33,32.21 11.56,11.56 0 0 1 59.5,43.3 v 3.45 A 14.89,14.89 0 0 0 71.69,32.26 Z"
           id="path12085-4" />
      </g>
    </g>
  </g>
</svg>
