<?xml version="1.0" encoding="iso-8859-1"?>
<!-- Generator: Adobe Illustrator 23.0.3, SVG Export Plug-In . SVG Version: 6.00 Build 0)  -->
<svg version="1.1"
	 id="svg262454" xmlns:cc="http://creativecommons.org/ns#" xmlns:dc="http://purl.org/dc/elements/1.1/" xmlns:rdf="http://www.w3.org/1999/02/22-rdf-syntax-ns#" xmlns:svg="http://www.w3.org/2000/svg"
	 xmlns="http://www.w3.org/2000/svg" xmlns:xlink="http://www.w3.org/1999/xlink" x="0px" y="0px" viewBox="0 0 102.1 52.3"
	 style="enable-background:new 0 0 102.1 52.3;" xml:space="preserve">
<style type="text/css">
	.st0{fill:none;stroke:#878589;stroke-width:0.4909;stroke-miterlimit:10;}
	.st1{fill:none;stroke:#666666;stroke-width:1.4727;stroke-miterlimit:10;}
</style>
<g id="layer1" transform="translate(536.5926,25.949609)">
	<g id="Layer_2-598-4" transform="matrix(0.4025646,0,0,0.4059306,-536.739,-26.097235)">
		<g id="Layer_1-2-481-1">
			<polyline id="polyline11988-9" class="st0" points="11,31.6 18.6,48.7 41,43.8 			"/>
			<polyline id="polyline11990-0" class="st0" points="111.6,20.6 91.7,24.3 89.2,42.4 			"/>
			<polyline id="polyline11992-9" class="st0" points="44.4,89.8 47.5,108.5 29.7,117.3 			"/>
			<polyline id="polyline11994-8" class="st0" points="91.5,85.5 109.9,90 111.3,109.6 			"/>
			<polyline id="polyline11996-8" class="st0" points="135.4,27.7 154.1,30.5 157.5,49.8 			"/>
			<polyline id="polyline11998-5" class="st0" points="235.7,21.4 231.8,39.9 212.8,42.7 			"/>
			<polyline id="polyline12000-8" class="st0" points="214.5,86.1 212.2,106.2 230.6,112.7 			"/>
			<polyline id="polyline12002-4" class="st0" points="163.7,86.1 145.3,89.8 142.2,108.5 			"/>
			<path id="path12004-3" class="st1" d="M189.5,2.5c-29.8,0-48.2,16.7-62.4,35.1C113,19.2,94.6,2.5,64.8,2.5
				C39.9,2.5,2.5,19.2,2.5,64.8s37.4,62.4,62.4,62.4c29.8,0,48.2-16.7,62.4-35.1c14.2,18.4,32.6,35.1,62.4,35.1
				c24.9,0,62.4-16.7,62.4-62.4S214.8,2.5,189.5,2.5z M64.8,96c-5.1,0-31.2-1.4-31.2-31.2c0-28.6,24.1-31.2,31.2-31.2
				c19,0,30,11.6,43.7,31.2C94.9,84.4,83.8,96,64.8,96z M189.5,96c-19,0-30-11.6-43.4-31.2c13.6-19.6,24.4-31.2,43.7-31.2
				c5.1,0,31.2,1.4,31.2,31.2C220.7,93.4,196.9,96,189.5,96z"/>
			<line id="line12006-7" class="st1" x1="127.2" y1="92" x2="145.9" y2="64.8"/>
			<line id="line12008-1" class="st1" x1="127.2" y1="37.6" x2="108.5" y2="64.8"/>
		</g>
	</g>
</g>
</svg>
