<?xml version="1.0" encoding="UTF-8" standalone="no"?>
<svg
   xmlns:dc="http://purl.org/dc/elements/1.1/"
   xmlns:cc="http://creativecommons.org/ns#"
   xmlns:rdf="http://www.w3.org/1999/02/22-rdf-syntax-ns#"
   xmlns:svg="http://www.w3.org/2000/svg"
   xmlns="http://www.w3.org/2000/svg"
   id="svg258137"
   version="1.1"
   viewBox="0 0 20.093271 18.454023"
   height="18.454023mm"
   width="20.093271mm">
  <defs
     id="defs258131" />
  <metadata
     id="metadata258134">
    <rdf:RDF>
      <cc:Work
         rdf:about="">
        <dc:format>image/svg+xml</dc:format>
        <dc:type
           rdf:resource="http://purl.org/dc/dcmitype/StillImage" />
        <dc:title></dc:title>
      </cc:Work>
    </rdf:RDF>
  </metadata>
  <g
     transform="translate(33.859135,-139.60632)"
     id="layer1">
    <g
       style="fill:#58595b;fill-opacity:1;stroke:#58595b;stroke-width:1.04146099;stroke-opacity:1"
       transform="matrix(0.25402735,0,0,0.25407298,-33.592553,139.73881)"
       id="Layer_2-33"
       data-name="Layer 2">
      <g
         style="fill:#58595b;fill-opacity:1;stroke:#58595b;stroke-width:1.04146099;stroke-opacity:1"
         id="Layer_1-2-46"
         data-name="Layer 1">
        <path
           style="fill:#58595b;fill-opacity:1;stroke:#58595b;stroke-width:1.04146099;stroke-opacity:1"
           class="cls-1"
           d="M 38.39,47.45 A 11.66,11.66 0 1 1 50,35.8 11.67,11.67 0 0 1 38.39,47.45 Z m 0,-21.81 A 10.16,10.16 0 1 0 48.54,35.8 10.17,10.17 0 0 0 38.39,25.64 Z"
           id="path9621" />
        <path
           style="fill:#58595b;fill-opacity:1;stroke:#58595b;stroke-width:1.04146099;stroke-opacity:1"
           class="cls-1"
           d="M 41.74,59.86 H 35 a 1.13,1.13 0 0 1 -1.12,-1 l -0.57,-4.58 a 19.54,19.54 0 0 1 -4.46,-1.85 l -3.64,2.83 A 1.13,1.13 0 0 1 23.72,55.17 L 19,50.44 A 1.13,1.13 0 0 1 18.91,49 l 2.83,-3.65 a 19.36,19.36 0 0 1 -1.85,-4.46 l -4.58,-0.57 a 1.12,1.12 0 0 1 -1,-1.12 v -6.76 a 1.12,1.12 0 0 1 1,-1.12 l 4.58,-0.57 a 19.36,19.36 0 0 1 1.85,-4.46 L 18.91,22.64 A 1.13,1.13 0 0 1 19,21.15 l 4.75,-4.74 a 1.13,1.13 0 0 1 1.49,-0.09 l 3.64,2.83 a 19.54,19.54 0 0 1 4.46,-1.85 l 0.57,-4.58 a 1.13,1.13 0 0 1 1.12,-1 h 6.71 a 1.13,1.13 0 0 1 1.12,1 l 0.57,4.58 a 19.36,19.36 0 0 1 4.46,1.85 l 3.65,-2.83 a 1.13,1.13 0 0 1 1.49,0.09 l 4.74,4.74 a 1.12,1.12 0 0 1 0.1,1.49 L 55,26.29 a 18.51,18.51 0 0 1 1.85,4.46 l 4.58,0.57 a 1.13,1.13 0 0 1 1,1.12 v 6.71 a 1.13,1.13 0 0 1 -1,1.12 l -4.58,0.57 A 18.51,18.51 0 0 1 55,45.3 l 2.87,3.7 a 1.12,1.12 0 0 1 -0.1,1.49 L 53,55.18 a 1.13,1.13 0 0 1 -1.49,0.09 l -3.65,-2.83 a 19.36,19.36 0 0 1 -4.46,1.85 l -0.57,4.58 a 1.13,1.13 0 0 1 -1.09,0.99 z M 36,57.6 h 4.72 l 0.54,-4.36 a 1.14,1.14 0 0 1 0.87,-1 16.77,16.77 0 0 0 5.21,-2.16 1.15,1.15 0 0 1 1.3,0.06 l 3.47,2.7 3.33,-3.34 -2.7,-3.47 a 1.13,1.13 0 0 1 -0.06,-1.29 17,17 0 0 0 2.17,-5.21 1.12,1.12 0 0 1 0.95,-0.87 l 4.36,-0.54 V 33.43 L 55.8,32.89 a 1.12,1.12 0 0 1 -0.95,-0.87 17,17 0 0 0 -2.17,-5.21 1.13,1.13 0 0 1 0.06,-1.29 l 2.7,-3.47 -3.33,-3.34 -3.47,2.7 a 1.15,1.15 0 0 1 -1.3,0.06 16.77,16.77 0 0 0 -5.21,-2.16 1.14,1.14 0 0 1 -0.87,-1 L 40.75,14 H 36 l -0.55,4.36 a 1.13,1.13 0 0 1 -0.87,1 16.77,16.77 0 0 0 -5.21,2.16 1.13,1.13 0 0 1 -1.29,-0.06 l -3.47,-2.7 -3.31,3.29 2.7,3.47 a 1.11,1.11 0 0 1 0.06,1.29 16.77,16.77 0 0 0 -2.16,5.19 1.14,1.14 0 0 1 -1,0.87 l -4.36,0.54 v 4.73 l 4.36,0.54 a 1.14,1.14 0 0 1 1,0.87 16.77,16.77 0 0 0 2.16,5.21 1.11,1.11 0 0 1 -0.06,1.31 l -2.7,3.47 3.34,3.34 3.47,-2.7 a 1.13,1.13 0 0 1 1.29,-0.06 16.77,16.77 0 0 0 5.21,2.16 1.13,1.13 0 0 1 0.87,1 z"
           id="path9623" />
        <path
           style="fill:#58595b;fill-opacity:1;stroke:#58595b;stroke-width:1.04146099;stroke-opacity:1"
           class="cls-1"
           d="m 38.39,43.69 a 7.9,7.9 0 1 1 7.89,-7.89 7.9,7.9 0 0 1 -7.89,7.89 z m 0,-13.53 A 5.64,5.64 0 1 0 44,35.8 5.65,5.65 0 0 0 38.39,30.16 Z"
           id="path9625" />
        <path
           style="fill:#58595b;fill-opacity:1;stroke:#58595b;stroke-width:1.04146099;stroke-opacity:1"
           class="cls-1"
           d="M 74.18,35.8 H 71.65 A 33.3,33.3 0 0 0 38.39,2.53 V 0 a 35.84,35.84 0 0 1 35.79,35.8 z"
           id="path9627" />
        <path
           style="fill:#58595b;fill-opacity:1;stroke:#58595b;stroke-width:1.04146099;stroke-opacity:1"
           class="cls-1"
           d="m 38.39,71.59 v -2.53 c 1.07,0 2.17,0 3.24,-0.15 l 0.24,2.51 c -1.15,0.11 -2.32,0.17 -3.48,0.17 z m 5.21,-0.38 -0.36,-2.5 a 30.79,30.79 0 0 0 3.18,-0.62 L 47,70.54 C 45.91,70.82 44.76,71 43.6,71.21 Z M 48.72,70.08 48,67.66 c 1,-0.32 2.07,-0.68 3.06,-1.09 l 1,2.34 c -1.12,0.44 -2.23,0.83 -3.34,1.17 z m 4.89,-1.88 -1.08,-2.28 a 31.57,31.57 0 0 0 2.87,-1.53 l 1.29,2.17 a 33.68,33.68 0 0 1 -3.08,1.64 z m 4.56,-2.57 -1.4,-2.1 c 0.9,-0.6 1.78,-1.25 2.61,-1.93 l 1.6,2 c -0.9,0.7 -1.85,1.4 -2.81,2.03 z m 4.14,-3.2 -1.69,-1.88 c 0.8,-0.72 1.57,-1.49 2.3,-2.29 L 64.79,60 C 64,60.83 63.17,61.65 62.31,62.43 Z M 65.93,58.65 64,57 c 0.69,-0.83 1.34,-1.7 1.95,-2.59 L 68,55.87 a 33.73,33.73 0 0 1 -2.07,2.78 z m 3,-4.25 -2.15,-1.32 c 0.56,-0.92 1.08,-1.88 1.54,-2.84 l 2.28,1.09 A 33.8,33.8 0 0 1 69,54.4 Z"
           id="path9629" />
        <path
           style="fill:#58595b;fill-opacity:1;stroke:#58595b;stroke-width:1.04146099;stroke-opacity:1"
           class="cls-1"
           d="M 8.41,21.35 6.13,20.26 c 0.5,-1 1.07,-2.07 1.67,-3.07 l 2.2,1.32 c -0.6,0.92 -1.13,1.88 -1.59,2.84 z m 2.42,-4.21 -2.09,-1.42 c 0.66,-1 1.36,-1.89 2.1,-2.78 l 1.94,1.61 c -0.68,0.83 -1.34,1.7 -1.95,2.59 z m 3,-3.81 L 12,11.62 A 33.71,33.71 0 0 1 14.48,9.17 L 16.16,11 c -0.8,0.76 -1.58,1.53 -2.31,2.33 z M 17.39,10 15.79,8 C 16.7,7.3 17.64,6.6 18.6,6 L 20,8.06 C 19.11,8.66 18.23,9.31 17.39,10 Z m 4,-2.79 L 20.08,5 a 33.85,33.85 0 0 1 3.09,-1.64 l 1.07,2.29 A 31.31,31.31 0 0 0 21.38,7.2 Z M 25.73,5 24.73,2.66 C 25.8,2.22 26.91,1.83 28.02,1.49 l 0.73,2.42 c -1,0.34 -2.03,0.7 -3.02,1.09 z M 30.35,3.5 29.74,1.05 C 30.86,0.77 32,0.55 33.17,0.38 l 0.36,2.5 A 30.79,30.79 0 0 0 30.35,3.5 Z M 35.15,2.68 34.9,0.17 C 36.06,0.06 37.23,0 38.39,0 v 2.53 c -1.08,0 -2.17,0.05 -3.24,0.15 z"
           id="path9631" />
        <path
           style="fill:#58595b;fill-opacity:1;stroke:#58595b;stroke-width:1.04146099;stroke-opacity:1"
           class="cls-1"
           d="M 38.39,71.59 A 35.84,35.84 0 0 1 2.59,35.8 h 2.53 a 33.3,33.3 0 0 0 33.27,33.26 z"
           id="path9633" />
        <polygon
           style="fill:#58595b;fill-opacity:1;stroke:#58595b;stroke-width:1.04146099;stroke-opacity:1"
           class="cls-1"
           points="3.98,30.93 7.96,36.17 0,36.17 "
           id="polygon9635" />
        <polygon
           style="fill:#58595b;fill-opacity:1;stroke:#58595b;stroke-width:1.04146099;stroke-opacity:1"
           class="cls-1"
           points="73.02,39.71 77,34.47 69.04,34.47 "
           id="polygon9637" />
      </g>
    </g>
  </g>
</svg>
