<?xml version="1.0" encoding="UTF-8" standalone="no"?>
<!-- Created with Inkscape (http://www.inkscape.org/) -->

<svg
   xmlns:dc="http://purl.org/dc/elements/1.1/"
   xmlns:cc="http://creativecommons.org/ns#"
   xmlns:rdf="http://www.w3.org/1999/02/22-rdf-syntax-ns#"
   xmlns:svg="http://www.w3.org/2000/svg"
   xmlns="http://www.w3.org/2000/svg"
   xmlns:sodipodi="http://sodipodi.sourceforge.net/DTD/sodipodi-0.dtd"
   xmlns:inkscape="http://www.inkscape.org/namespaces/inkscape"
   width="23.348686mm"
   height="18.453999mm"
   viewBox="0 0 23.348686 18.453999"
   version="1.1"
   id="svg308809"
   inkscape:version="0.92.3 (2405546, 2018-03-11)"
   sodipodi:docname="enterprise_class_integration_api.svg">
  <defs
     id="defs308803" />
  <sodipodi:namedview
     id="base"
     pagecolor="#ffffff"
     bordercolor="#666666"
     borderopacity="1.0"
     inkscape:pageopacity="0.0"
     inkscape:pageshadow="2"
     inkscape:zoom="0.35"
     inkscape:cx="1054.1235"
     inkscape:cy="1229.1594"
     inkscape:document-units="mm"
     inkscape:current-layer="layer1"
     showgrid="false"
     fit-margin-top="0"
     fit-margin-left="0"
     fit-margin-right="0"
     fit-margin-bottom="0"
     inkscape:window-width="3773"
     inkscape:window-height="2105"
     inkscape:window-x="67"
     inkscape:window-y="27"
     inkscape:window-maximized="1" />
  <metadata
     id="metadata308806">
    <rdf:RDF>
      <cc:Work
         rdf:about="">
        <dc:format>image/svg+xml</dc:format>
        <dc:type
           rdf:resource="http://purl.org/dc/dcmitype/StillImage" />
        <dc:title></dc:title>
      </cc:Work>
    </rdf:RDF>
  </metadata>
  <g
     inkscape:label="Layer 1"
     inkscape:groupmode="layer"
     id="layer1"
     transform="translate(302.71601,-455.59443)">
    <g
       data-name="Layer 2"
       id="Layer_2-30-8"
       transform="matrix(0.30746229,0,0,0.30746229,-302.71601,455.59946)"
       style="stroke-width:0.86053908">
      <g
         data-name="Layer 1"
         id="Layer_1-2-78-3"
         style="stroke-width:0.86053908">
        <path
           id="path3474-0"
           d="M 4.94,36.56 C 4.94,33.92 2.29,32.5 0.88,32.27 A 1.13,1.13 0 0 1 0,31.21 v -2.36 a 1.06,1.06 0 0 1 0.82,-0.94 c 1,-0.12 4.12,-1.71 4.12,-4.3 V 15.13 C 4.94,3.3 13.36,0.12 19.43,0 a 1,1 0 0 1 1.18,1 l 0.11,2.41 A 1,1 0 0 1 20,4.48 C 14.83,5.36 10.6,9 10.6,15.13 v 7 C 10.6,27.62 7,29.5 5.83,30 v 0.18 c 1.64,0.7 4.77,2.35 4.77,7.71 v 7.06 c 0,6.19 4.23,9.72 9.36,10.6 a 1,1 0 0 1 0.76,1.06 L 20.61,59 a 1.09,1.09 0 0 1 -1.18,1 C 13.36,59.88 4.94,56.76 4.94,44.92 Z"
           class="cls-1"
           inkscape:connector-curvature="0"
           style="fill:#666666;stroke-width:0.86053908" />
        <path
           id="path3476-1"
           d="m 65.31,37.86 c 0,-5.36 3.13,-7 4.78,-7.71 V 30 c -1.12,-0.47 -4.78,-2.35 -4.78,-7.83 v -7 C 65.31,9 61.08,5.36 56,4.48 A 1,1 0 0 1 55.24,3.42 L 55.31,1 A 1,1 0 0 1 56.48,0 C 62.55,0.12 71,3.3 71,15.13 v 8.48 c 0,2.59 3.18,4.18 4.12,4.3 a 1.06,1.06 0 0 1 0.82,0.94 v 2.36 A 1.13,1.13 0 0 1 75,32.27 c -1.38,0.23 -4,1.65 -4,4.29 v 8.36 C 71,56.76 62.58,59.92 56.51,60 A 1.08,1.08 0 0 1 55.34,59 L 55.22,56.59 A 1,1 0 0 1 56,55.52 c 5.13,-0.88 9.36,-4.41 9.36,-10.6 z"
           class="cls-1"
           inkscape:connector-curvature="0"
           style="fill:#666666;stroke-width:0.86053908" />
        <path
           id="path3478-7"
           d="M 24.45,25.91 A 4.09,4.09 0 1 1 20.39,30 4.1,4.1 0 0 1 24.45,25.91 Z"
           class="cls-1"
           inkscape:connector-curvature="0"
           style="fill:#666666;stroke-width:0.86053908" />
        <path
           id="path3480-8"
           d="M 37.93,25.91 A 4.09,4.09 0 1 1 33.87,30 4.1,4.1 0 0 1 37.93,25.91 Z"
           class="cls-1"
           inkscape:connector-curvature="0"
           style="fill:#666666;stroke-width:0.86053908" />
        <path
           id="path3482-9"
           d="M 51.41,25.91 A 4.09,4.09 0 1 1 47.34,30 4.1,4.1 0 0 1 51.41,25.91 Z"
           class="cls-1"
           inkscape:connector-curvature="0"
           style="fill:#666666;stroke-width:0.86053908" />
      </g>
    </g>
  </g>
</svg>
