<?xml version="1.0" encoding="iso-8859-1"?>
<!-- Generator: Adobe Illustrator 23.0.3, SVG Export Plug-In . SVG Version: 6.00 Build 0)  -->
<svg version="1.1"
	 id="svg238967" xmlns:cc="http://creativecommons.org/ns#" xmlns:dc="http://purl.org/dc/elements/1.1/" xmlns:rdf="http://www.w3.org/1999/02/22-rdf-syntax-ns#" xmlns:svg="http://www.w3.org/2000/svg"
	 xmlns="http://www.w3.org/2000/svg" xmlns:xlink="http://www.w3.org/1999/xlink" x="0px" y="0px" viewBox="0 0 48.1 52.3"
	 style="enable-background:new 0 0 48.1 52.3;" xml:space="preserve">
<style type="text/css">
	.st0{fill:#616161;}
</style>
<g id="layer1" transform="translate(32.291221,-139.60633)">
	<g id="Layer_2-6" transform="matrix(0.2470415,0,0,0.2470415,-32.289979,139.60633)">
		<g id="Layer_1-2-39">
			<path id="path8746" class="st0" d="M179.3,162V120h-7.6v3.3h-1.6v36.7H24.3V63.4c-0.1-2.6,1.9-4.9,4.5-5H89l0.6,3.3h7.6V48.4
				H28.9c-7.9,0.4-14,7.1-13.7,15V162L0.7,187.5c-0.5,0.8-0.7,1.7-0.7,2.6v3.3c-0.4,9.7,7.1,17.8,16.7,18.3h161
				c9.7-0.5,17.1-8.7,16.7-18.3v-3.3c0-0.9-0.2-1.8-0.7-2.6L179.3,162z M23.2,166.7h148l12.4,21.7h-62.4l-1.3-8.4H74.4l-1.2,8.4
				H10.8L23.2,166.7z M185.4,193.4c0.2,4.4-3.2,8.1-7.6,8.3h-161c-4.4-0.2-7.8-3.9-7.6-8.3v-1.7h176.2V193.4z"/>
			<path id="path8748" class="st0" d="M130.5,38.4h-9.1c-1.8,0.2-3.2,1.8-3,3.6c0.1,1.6,1.4,2.9,3,3h9.1c1.8-0.2,3.2-1.8,3-3.6
				C133.4,39.8,132.1,38.5,130.5,38.4z"/>
			<path id="path8750" class="st0" d="M121.4,21.7h9.1c1.8-0.1,3.1-1.6,3-3.3c0.1-1.8-1.3-3.3-3-3.3h-9.1c-1.8,0.1-3.1,1.6-3,3.3
				C118.3,20.1,119.7,21.6,121.4,21.7z"/>
			<path id="path8752" class="st0" d="M130.5,61.7h-9.1c-1.8,0.2-3.1,1.9-2.9,3.8c0.2,1.5,1.4,2.7,2.9,2.9h9.1
				c1.8-0.2,3.1-1.9,2.9-3.8C133.3,63.1,132.1,61.9,130.5,61.7z"/>
			<path id="path8754" class="st0" d="M189.9,0h-82c-2.6,0.1-4.7,2.4-4.6,5v73.4c-0.1,2.6,1.9,4.9,4.6,5c0,0,0,0,0,0h38V90h-4.5v10
				h-9.1v16.7h33.4V100h-9.1V90h-4.6v-6.7h38c2.6-0.1,4.7-2.4,4.6-5c0,0,0,0,0,0V5C194.6,2.4,192.6,0.1,189.9,0z M112.4,30h65.3
				v23.3h-65.3V30z M180.8,30h4.6v23.3h-4.6V30z M185.4,26.7h-4.6V10h4.6V26.7z M177.8,10v16.7h-65.3V10H177.8z M112.4,56.7h65.3
				v16.7h-65.3V56.7z M180.8,73.4V56.7h4.6v16.7H180.8z"/>
			<path id="path8756" class="st0" d="M103.3,108.4c-0.1,2.6,1.9,4.9,4.6,5c0,0,0,0,0,0h21.3v-10h-21.3
				C105.3,103.5,103.2,105.7,103.3,108.4z"/>
			<path id="path8758" class="st0" d="M189.9,103.4h-21.3v10h21.3c2.8-0.2,4.8-2.6,4.6-5.4C194.4,105.5,192.4,103.6,189.9,103.4z"/>
			<polygon id="polygon8760" class="st0" points="97.2,70 97.2,66.7 31.9,66.7 31.9,153.4 162.6,153.4 162.6,123.4 159.5,123.4 
				159.5,150.1 35,150.1 35,70 			"/>
			<path id="path8762" class="st0" d="M65.2,98.9c-0.7-0.8-2-0.9-2.8-0.2c-0.1,0.1-0.2,0.1-0.2,0.2l-10.3,11.3l-2.8-3.1
				c-0.7-0.8-2-0.9-2.8-0.2c-0.1,0.1-0.2,0.1-0.2,0.2c-0.8,1-0.8,2.4,0,3.4l4.4,4.8c0.7,0.8,2,0.9,2.8,0.2c0.1-0.1,0.2-0.1,0.2-0.2
				l11.9-13C66.1,101.3,66.1,99.9,65.2,98.9z"/>
			<path id="path8764" class="st0" d="M59.5,119.6h-17v-17h17V119.6z M44.3,117.9h13.5v-13.6H44.2L44.3,117.9z"/>
			<path id="path8766" class="st0" d="M65.2,123.4c-0.7-0.8-2-0.9-2.8-0.2c-0.1,0.1-0.2,0.1-0.2,0.2l-10.3,11.3l-2.8-3.1
				c-0.7-0.8-2-0.9-2.8-0.2c-0.1,0.1-0.2,0.1-0.2,0.2c-0.8,1-0.8,2.4,0,3.4l4.4,4.8c0.7,0.8,2,0.9,2.8,0.2c0.1-0.1,0.2-0.1,0.2-0.2
				l11.9-13C66.1,125.8,66.1,124.4,65.2,123.4z"/>
			<path id="path8768" class="st0" d="M59.5,144.1h-17v-17h17V144.1z M44.3,142.3h13.5v-13.6H44.2L44.3,142.3z"/>
			<path id="path8770" class="st0" d="M65.2,74.5c-0.7-0.8-2-0.9-2.8-0.2c-0.1,0.1-0.2,0.1-0.2,0.2L51.8,85.8L49,82.7
				c-0.7-0.8-2-0.9-2.8-0.2c-0.1,0.1-0.2,0.1-0.2,0.2c-0.8,1-0.8,2.4,0,3.4l4.4,4.8c0.8,0.8,2.1,0.9,2.9,0.1c0,0,0.1-0.1,0.1-0.1
				l11.9-13C66.1,76.9,66.1,75.4,65.2,74.5z"/>
			<path id="path8772" class="st0" d="M59.5,95.1h-17v-17h17V95.1z M44.2,93.5h13.7V79.9H44.2V93.5z"/>
			<path id="path8774" class="st0" d="M72.9,138.4c-0.8,0-1.5,0.7-1.5,1.6c0,0,0,0,0,0c0,0.9,0.6,1.6,1.5,1.6h26.3
				c0.9,0,1.5-0.8,1.5-1.6c0-0.8-0.6-1.6-1.4-1.6c0,0,0,0,0,0H72.9z"/>
			<path id="path8776" class="st0" d="M119.1,128.7H72.9c-0.9,0-1.5,0.8-1.5,1.6c0,0.8,0.6,1.6,1.4,1.6c0,0,0,0,0,0h46.2V128.7z"/>
			<path id="path8778" class="st0" d="M72.9,89.3c-0.8,0-1.5,0.7-1.5,1.6c0,0,0,0,0,0c0,0.9,0.6,1.6,1.5,1.6h15.3
				c0.9,0,1.5-0.8,1.5-1.6c0-0.8-0.6-1.6-1.4-1.6c0,0,0,0,0,0H72.9z"/>
			<path id="path8780" class="st0" d="M97.2,79.6H72.9c-0.9,0-1.6,0.7-1.6,1.6c0,0.9,0.7,1.6,1.6,1.6h24.3V79.6z"/>
			<path id="path8782" class="st0" d="M72.9,114.6c-0.9,0.1-1.5,0.9-1.4,1.8c0.1,0.7,0.7,1.3,1.4,1.4h15.3c0.9-0.1,1.5-0.9,1.4-1.8
				c-0.1-0.7-0.7-1.3-1.4-1.4H72.9z"/>
			<path id="path8784" class="st0" d="M97.2,104.9H72.9c-0.9,0.1-1.5,0.9-1.4,1.8c0.1,0.7,0.7,1.3,1.4,1.4h24.3V104.9z"/>
		</g>
	</g>
</g>
</svg>
