<?xml version="1.0" encoding="UTF-8" standalone="no"?>
<svg
   xmlns:dc="http://purl.org/dc/elements/1.1/"
   xmlns:cc="http://creativecommons.org/ns#"
   xmlns:rdf="http://www.w3.org/1999/02/22-rdf-syntax-ns#"
   xmlns:svg="http://www.w3.org/2000/svg"
   xmlns="http://www.w3.org/2000/svg"
   id="svg250498"
   version="1.1"
   viewBox="0 0 20.653395 18.254099"
   height="18.254099mm"
   width="20.653395mm">
  <defs
     id="defs250492" />
  <metadata
     id="metadata250495">
    <rdf:RDF>
      <cc:Work
         rdf:about="">
        <dc:format>image/svg+xml</dc:format>
        <dc:type
           rdf:resource="http://purl.org/dc/dcmitype/StillImage" />
        <dc:title></dc:title>
      </cc:Work>
    </rdf:RDF>
  </metadata>
  <g
     transform="translate(34.139197,-139.70628)"
     id="layer1">
    <g
       style="fill:#58595b;fill-opacity:1"
       transform="matrix(0.26458333,0,0,0.26458333,-34.139178,139.70628)"
       id="Layer_2-3"
       data-name="Layer 2">
      <g
         style="fill:#58595b;fill-opacity:1"
         id="Layer_1-2-1"
         data-name="Layer 1">
        <path
           style="fill:#58595b;fill-opacity:1"
           class="cls-1"
           d="m 58.7,52.11 a 2.86,2.86 0 0 1 1.78,-0.63 2.83,2.83 0 0 1 1.81,0.63 2.57,2.57 0 0 1 0.23,3.89 3,3 0 0 1 -4.07,0 2.7,2.7 0 0 1 -0.78,-1.87 2.53,2.53 0 0 1 1.03,-2.02 z m 6.08,6.39 a 9.3,9.3 0 0 0 0.84,-1 19.27,19.27 0 0 0 1.81,-2.46 27.56,27.56 0 0 0 1.67,-3 29.33,29.33 0 0 0 2.7,-10.04 0.52,0.52 0 0 1 0.56,-0.45 0.5,0.5 0 0 1 0.47,0.55 30.1,30.1 0 0 1 -2.56,10 27.68,27.68 0 0 1 -1.62,3 28.09,28.09 0 0 1 -1.7,2.46 c -0.25,0.34 -0.5,0.66 -0.78,1 a 25.52,25.52 0 0 1 -5.38,4.78 0.43,0.43 0 0 1 -0.31,0.11 0.41,0.41 0 0 1 -0.28,-0.11 25.08,25.08 0 0 1 -4.6,-3.88 0.51,0.51 0 0 1 0.06,-0.71 0.54,0.54 0 0 1 0.72,0.05 26,26 0 0 0 4.1,3.54 24.49,24.49 0 0 0 4.29,-3.84 z"
           id="path4112-8" />
        <polygon
           style="fill:#58595b;fill-opacity:1"
           class="cls-1"
           points="52,58.24 52.02,58.22 "
           id="polygon4114-3" />
        <rect
           style="fill:#58595b;fill-opacity:1"
           class="cls-1"
           x="13.96"
           y="35.52"
           width="6.3899999"
           height="8.8999996"
           id="rect4116-4" />
        <rect
           style="fill:#58595b;fill-opacity:1"
           class="cls-1"
           x="23.360001"
           y="27.459999"
           width="6.6700001"
           height="16.959999"
           id="rect4118-2" />
        <rect
           style="fill:#58595b;fill-opacity:1"
           class="cls-1"
           x="33.040001"
           y="31.07"
           width="6.3899999"
           height="13.06"
           id="rect4120-2" />
        <path
           style="fill:#58595b;fill-opacity:1"
           class="cls-1"
           d="M 49,34.48 V 19.68 H 42.58 V 36.15 A 3.28,3.28 0 0 1 43.82,35.68 35.75,35.75 0 0 0 49,34.48 Z"
           id="path4122-4" />
        <path
           style="fill:#58595b;fill-opacity:1"
           class="cls-1"
           d="M 32.35,58.27 A 27.06,27.06 0 0 1 26.69,57.66 L 25,63.81 a 32.25,32.25 0 0 0 22.84,-3.06 33.62,33.62 0 0 1 -3.29,-5.53 25.74,25.74 0 0 1 -12.2,3.05 z"
           id="path4124-5" />
        <path
           style="fill:#58595b;fill-opacity:1"
           class="cls-1"
           d="M 7.66,40.3 1.45,41.88 A 32.34,32.34 0 0 0 21.9,63 l 1.73,-6.19 A 26.06,26.06 0 0 1 7.66,40.3 Z"
           id="path4126-1" />
        <path
           style="fill:#58595b;fill-opacity:1"
           class="cls-1"
           d="M 6.41,32.3 A 26,26 0 0 1 30.74,6.41 V 0 A 32.32,32.32 0 0 0 0,32.3 31.12,31.12 0 0 0 0.67,38.79 L 6.88,37.17 A 25.64,25.64 0 0 1 6.41,32.3 Z"
           id="path4128-7" />
        <path
           style="fill:#58595b;fill-opacity:1"
           class="cls-1"
           d="m 62.6,29.56 a 22.32,22.32 0 0 0 2.05,1.5 A 32.32,32.32 0 0 0 33.94,0 v 6.41 a 26,26 0 0 1 24.22,23.24 l 0.12,-0.08 a 3.32,3.32 0 0 1 4.32,-0.01 z"
           id="path4130-5" />
        <rect
           style="fill:#58595b;fill-opacity:1"
           height="0"
           width="0"
           class="cls-1"
           x="52"
           y="58.240002"
           id="rect4132-7" />
        <polygon
           style="fill:#58595b;fill-opacity:1"
           class="cls-1"
           points=""
           id="polygon4134-1" />
        <path
           style="fill:#58595b;fill-opacity:1"
           class="cls-1"
           d="m 56.39,58.73 a 0.54,0.54 0 0 0 -0.72,-0.05 0.51,0.51 0 0 0 -0.06,0.71 25.08,25.08 0 0 0 4.6,3.88 0.41,0.41 0 0 0 0.28,0.11 0.43,0.43 0 0 0 0.31,-0.11 25.52,25.52 0 0 0 5.38,-4.78 c 0.28,-0.32 0.53,-0.63 0.78,-1 a 28.09,28.09 0 0 0 1.7,-2.46 27.68,27.68 0 0 0 1.62,-3 30.1,30.1 0 0 0 2.56,-10 0.5,0.5 0 0 0 -0.47,-0.55 0.52,0.52 0 0 0 -0.56,0.45 29.33,29.33 0 0 1 -2.7,10.06 27.56,27.56 0 0 1 -1.67,3 19.27,19.27 0 0 1 -1.81,2.46 9.3,9.3 0 0 1 -0.84,1 24.49,24.49 0 0 1 -4.29,3.78 26,26 0 0 1 -4.11,-3.5 z"
           id="path4136-6" />
        <path
           style="fill:#58595b;fill-opacity:1"
           class="cls-1"
           d="m 60.48,56.83 a 3.07,3.07 0 0 0 2,-0.79 2.57,2.57 0 0 0 -0.22,-3.93 2.83,2.83 0 0 0 -1.81,-0.63 2.86,2.86 0 0 0 -1.78,0.63 2.53,2.53 0 0 0 -1,2.06 2.7,2.7 0 0 0 0.78,1.83 3.07,3.07 0 0 0 2.03,0.83 z"
           id="path4138-9" />
        <path
           style="fill:#58595b;fill-opacity:1"
           class="cls-1"
           d="m 76.8,37.4 a 32.27,32.27 0 0 1 -12.14,-4.18 24.14,24.14 0 0 1 -3.2,-2.33 1.56,1.56 0 0 0 -2,0 c -0.35,0.31 -0.77,0.55 -1.15,0.84 a 27.73,27.73 0 0 1 -9.3,4.6 38.26,38.26 0 0 1 -4.89,1.08 1.56,1.56 0 0 0 -1.33,1.54 39.75,39.75 0 0 0 0.41,5.47 34.16,34.16 0 0 0 2.8,9.91 32,32 0 0 0 3.27,5.52 30.16,30.16 0 0 0 10.49,9 1.56,1.56 0 0 0 1.3,0 c 0.7,-0.32 17,-8.07 17,-29.92 A 1.56,1.56 0 0 0 76.8,37.4 Z m -2,5.64 c 0,0.28 -0.07,0.56 -0.11,0.83 -0.08,0.61 -0.17,1.21 -0.28,1.78 q -0.09,0.45 -0.18,0.89 c -0.12,0.55 -0.25,1.08 -0.39,1.6 -0.07,0.26 -0.14,0.53 -0.21,0.78 -0.19,0.62 -0.39,1.21 -0.6,1.79 0,0.13 -0.09,0.26 -0.14,0.39 -0.27,0.69 -0.55,1.35 -0.86,2 -0.09,0.2 -0.19,0.38 -0.29,0.57 -0.22,0.44 -0.44,0.87 -0.67,1.28 l -0.38,0.64 c -0.1,0.17 -0.2,0.35 -0.3,0.52 v 0 q -0.58,0.93 -1.19,1.76 v 0 l -0.29,0.37 q -0.34,0.45 -0.68,0.87 l -0.56,0.66 -0.7,0.77 -0.55,0.58 -0.7,0.68 -0.53,0.49 -0.69,0.59 -0.48,0.4 -0.67,0.51 -0.42,0.32 -0.64,0.44 -0.34,0.23 -0.6,0.38 -0.23,0.14 -0.65,0.37 -0.65,-0.37 -0.23,-0.14 -0.6,-0.38 -0.34,-0.23 -0.65,-0.43 -0.42,-0.32 -0.67,-0.51 -0.48,-0.4 -0.69,-0.6 -0.52,-0.48 -0.71,-0.68 -0.55,-0.57 -0.7,-0.77 -0.56,-0.66 q -0.35,-0.42 -0.69,-0.87 v 0 L 51.88,58.1 51.72,57.89 v 0 q -0.61,-0.83 -1.19,-1.76 v 0 c -0.1,-0.16 -0.2,-0.35 -0.3,-0.52 L 49.83,55 c -0.23,-0.41 -0.45,-0.83 -0.67,-1.27 -0.1,-0.19 -0.2,-0.38 -0.29,-0.58 -0.09,-0.2 -0.17,-0.41 -0.26,-0.6 -0.2,-0.45 -0.41,-0.9 -0.6,-1.39 0,-0.13 -0.09,-0.26 -0.14,-0.39 -0.21,-0.58 -0.42,-1.18 -0.6,-1.79 -0.08,-0.25 -0.14,-0.52 -0.21,-0.78 q -0.21,-0.79 -0.4,-1.61 -0.1,-0.44 -0.18,-0.89 c -0.08,-0.4 -0.14,-0.83 -0.2,-1.25 0,-0.18 -0.06,-0.35 -0.08,-0.54 -0.02,-0.19 -0.08,-0.55 -0.11,-0.84 -0.1,-0.9 -0.17,-1.82 -0.21,-2.78 C 47,40.06 48,39.77 49,39.5 c 0.51,-0.14 1.06,-0.23 1.56,-0.39 0.92,-0.28 1.8,-0.6 2.66,-0.95 a 31.18,31.18 0 0 0 3,-1.41 c 0.27,-0.14 0.56,-0.26 0.83,-0.42 0.27,-0.16 0.67,-0.46 1,-0.68 a 26.33,26.33 0 0 0 2.38,-1.58 27.88,27.88 0 0 0 3.41,2.25 c 0.17,0.1 0.36,0.18 0.55,0.27 l 0.29,0.14 a 31.28,31.28 0 0 0 3,1.41 c 0.86,0.34 1.74,0.66 2.66,0.95 A 39.8,39.8 0 0 0 75,40.26 c -0.05,0.96 -0.13,1.88 -0.22,2.74 z"
           id="path4140-8" />
        <path
           style="fill:#58595b;fill-opacity:1"
           class="cls-1"
           d="m 60.49,39 a 2.45,2.45 0 0 0 -2.35,2.53 L 58.92,48 a 1.69,1.69 0 0 0 0.82,1.46 1.45,1.45 0 0 0 0.75,0.23 1.63,1.63 0 0 0 1.57,-1.69 l 0.51,-4.23 0.27,-2.25 A 2.45,2.45 0 0 0 60.49,39 Z"
           id="path4142-1" />
      </g>
    </g>
  </g>
</svg>
