<?xml version="1.0" encoding="UTF-8" standalone="no"?>
<svg
   xmlns:dc="http://purl.org/dc/elements/1.1/"
   xmlns:cc="http://creativecommons.org/ns#"
   xmlns:rdf="http://www.w3.org/1999/02/22-rdf-syntax-ns#"
   xmlns:svg="http://www.w3.org/2000/svg"
   xmlns="http://www.w3.org/2000/svg"
   id="svg337790"
   version="1.1"
   viewBox="0 0 28.819719 18.254107"
   height="18.254107mm"
   width="28.819719mm">
  <defs
     id="defs337784" />
  <metadata
     id="metadata337787">
    <rdf:RDF>
      <cc:Work
         rdf:about="">
        <dc:format>image/svg+xml</dc:format>
        <dc:type
           rdf:resource="http://purl.org/dc/dcmitype/StillImage" />
        <dc:title></dc:title>
      </cc:Work>
    </rdf:RDF>
  </metadata>
  <g
     transform="translate(324.35033,-262.92652)"
     id="layer1">
    <g
       style="fill:#58595b;fill-opacity:1;stroke-width:0.86385667"
       transform="matrix(0.30615173,0,0,0.30641134,-324.37072,262.90566)"
       id="Layer_2-2-3"
       data-name="Layer 2">
      <g
         style="fill:#58595b;fill-opacity:1;stroke-width:0.86385667"
         id="Layer_1-2-4-3"
         data-name="Layer 1">
        <path
           style="fill:#58595b;fill-opacity:1;stroke-width:0.86385667"
           class="cls-1"
           d="m 22.7,43.5 c -3.64,0 -9.75,-0.35 -9.75,-2.67 0,-4.35 3.28,-5.83 6.49,-6.7 v 0 c 0.67,-0.14 0.85,-0.27 1,-0.67 a 6.8,6.8 0 0 1 -2.61,-4.91 c 0,-3.87 1.82,-6.19 4.88,-6.19 3.06,0 4.88,2.31 4.88,6.19 A 6.8,6.8 0 0 1 25,33.45 c 0.11,0.4 0.29,0.53 1,0.67 v 0 c 3.21,0.87 6.49,2.36 6.49,6.7 -0.05,2.33 -6.15,2.68 -9.79,2.68 z"
           id="path4177-3" />
        <path
           style="fill:#58595b;fill-opacity:1;stroke-width:0.86385667"
           class="cls-1"
           d="m 47.1,54.36 a 0.9,0.9 0 0 1 -0.9,-0.9 V 12.39 a 0.905,0.905 0 1 1 1.81,0 v 41.07 a 0.9,0.9 0 0 1 -0.91,0.9 z"
           id="path4179-7" />
        <path
           style="fill:#58595b;fill-opacity:1;stroke-width:0.86385667"
           class="cls-1"
           d="m 56.75,48.94 -2,-3.62 -1.57,1.45 H 51 a 0.59,0.59 0 1 1 0,-1.17 h 1.73 l 2.35,-2.16 2,3.62 1.58,-1.45 h 5.75 a 0.59,0.59 0 1 1 0,1.17 h -5.32 z"
           id="path4181-9" />
        <path
           style="fill:#58595b;fill-opacity:1;stroke-width:0.86385667"
           class="cls-1"
           d="m 37.46,48.94 -2.35,-2.16 h -5.28 a 0.59,0.59 0 1 1 0,-1.17 h 5.75 l 1.57,1.45 2,-3.62 2.35,2.16 h 1.73 a 0.59,0.59 0 1 1 0,1.17 H 41 l -1.57,-1.45 z"
           id="path4183-8" />
        <path
           style="fill:#58595b;fill-opacity:1;stroke-width:0.86385667"
           class="cls-1"
           d="M 86.26,46.79 H 63.92 a 0.59,0.59 0 1 1 0,-1.17 h 22.34 a 0.59,0.59 0 1 1 0,1.17 z"
           id="path4185-6" />
        <path
           style="fill:#58595b;fill-opacity:1;stroke-width:0.86385667"
           class="cls-1"
           d="M 75.09,46.79 A 0.59,0.59 0 0 1 74.5,46.2 v -4.41 a 0.59,0.59 0 0 1 1.17,0 v 4.41 a 0.59,0.59 0 0 1 -0.58,0.59 z"
           id="path4187-7" />
        <path
           style="fill:#58595b;fill-opacity:1;stroke-width:0.86385667"
           class="cls-1"
           d="M 81.8,42.32 H 68.39 a 2.82,2.82 0 1 1 0,-5.64 H 81.8 a 2.82,2.82 0 1 1 0,5.64 z M 68.39,37.85 a 1.65,1.65 0 0 0 0,3.3 H 81.8 a 1.65,1.65 0 0 0 0,-3.3 z"
           id="path4189-0" />
        <path
           style="fill:#58595b;fill-opacity:1;stroke-width:0.86385667"
           class="cls-1"
           d="M 81.8,28.91 H 68.39 a 2.82,2.82 0 1 1 0,-5.64 H 81.8 a 2.82,2.82 0 1 1 0,5.64 z M 68.39,24.44 a 1.65,1.65 0 0 0 0,3.3 H 81.8 a 1.65,1.65 0 0 0 0,-3.3 z"
           id="path4191-4" />
        <path
           style="fill:#58595b;fill-opacity:1;stroke-width:0.86385667"
           class="cls-1"
           d="M 81.8,35.61 H 68.39 a 2.82,2.82 0 1 1 0,-5.64 H 81.8 a 2.82,2.82 0 1 1 0,5.64 z M 68.39,31.14 a 1.65,1.65 0 1 0 0,3.3 H 81.8 a 1.65,1.65 0 1 0 0,-3.3 z"
           id="path4193-8" />
        <path
           style="fill:#58595b;fill-opacity:1;stroke-width:0.86385667"
           class="cls-1"
           d="M 80.31,26 A 0.09,0.09 0 1 1 80.22,26.09 0.09,0.09 0 0 1 80.31,26 m 0,-0.65 a 0.74,0.74 0 1 0 0.74,0.74 0.74,0.74 0 0 0 -0.74,-0.74 z"
           id="path4195-4" />
        <path
           style="fill:#58595b;fill-opacity:1;stroke-width:0.86385667"
           class="cls-1"
           d="M 77.33,26 A 0.09,0.09 0 1 1 77.24,26.09 0.09,0.09 0 0 1 77.33,26 m 0,-0.65 a 0.74,0.74 0 1 0 0.74,0.74 0.75,0.75 0 0 0 -0.74,-0.74 z"
           id="path4197-8" />
        <path
           style="fill:#58595b;fill-opacity:1;stroke-width:0.86385667"
           class="cls-1"
           d="m 80.31,32.7 a 0.09,0.09 0 1 1 -0.09,0.09 0.09,0.09 0 0 1 0.09,-0.09 m 0,-0.65 a 0.74,0.74 0 1 0 0.74,0.74 0.74,0.74 0 0 0 -0.74,-0.74 z"
           id="path4199-1" />
        <path
           style="fill:#58595b;fill-opacity:1;stroke-width:0.86385667"
           class="cls-1"
           d="m 77.33,32.7 a 0.09,0.09 0 1 1 -0.09,0.09 0.09,0.09 0 0 1 0.09,-0.09 m 0,-0.65 a 0.74,0.74 0 1 0 0.74,0.74 0.75,0.75 0 0 0 -0.74,-0.74 z"
           id="path4201-6" />
        <path
           style="fill:#58595b;fill-opacity:1;stroke-width:0.86385667"
           class="cls-1"
           d="m 80.31,39.4 a 0.09,0.09 0 1 1 -0.09,0.09 0.09,0.09 0 0 1 0.09,-0.09 m 0,-0.65 a 0.74,0.74 0 1 0 0.74,0.74 0.74,0.74 0 0 0 -0.74,-0.74 z"
           id="path4203-8" />
        <path
           style="fill:#58595b;fill-opacity:1;stroke-width:0.86385667"
           class="cls-1"
           d="m 77.33,39.4 a 0.09,0.09 0 1 1 -0.09,0.09 0.09,0.09 0 0 1 0.09,-0.09 m 0,-0.65 a 0.74,0.74 0 1 0 0.74,0.74 0.75,0.75 0 0 0 -0.74,-0.74 z"
           id="path4205-5" />
        <circle
           style="fill:#58595b;fill-opacity:1;stroke-width:0.86385667"
           class="cls-1"
           cx="80.669998"
           cy="12.18"
           r="2.9400001"
           id="circle4207-2" />
        <path
           style="fill:#58595b;fill-opacity:1;stroke-width:0.86385667"
           class="cls-1"
           d="M 65.64,10.83 V 11 a 1.51,1.51 0 0 1 -1,1.42 L 66.08,15 h -1.14 l -1.23,-2.29 a 4.27,4.27 0 0 1 -0.67,0 V 15 H 62 V 9.28 c 0.5,0 1.18,-0.05 1.59,-0.05 1.41,0 2.05,0.63 2.05,1.6 z M 63,10.16 v 1.66 a 5.2,5.2 0 0 0 0.56,0 c 0.71,0 1,-0.31 1,-0.82 v -0.14 c 0,-0.49 -0.3,-0.75 -1,-0.75 z"
           id="path4209-1" />
        <path
           style="fill:#58595b;fill-opacity:1;stroke-width:0.86385667"
           class="cls-1"
           d="m 67.71,10.29 v 1.37 h 2 v 0.95 h -2 v 1.46 h 2.13 v 1 H 66.67 V 9.33 h 3.17 v 1 z"
           id="path4211-9" />
        <path
           style="fill:#58595b;fill-opacity:1;stroke-width:0.86385667"
           class="cls-1"
           d="m 73.92,9.38 v 0.93 a 7,7 0 0 0 -1.18,-0.14 c -0.74,0 -1,0.23 -1,0.94 v 2.14 c 0,0.69 0.25,0.93 1,0.93 A 6.14,6.14 0 0 0 73.91,14 v 1 a 7.85,7.85 0 0 1 -1.3,0.16 c -1.42,0 -1.92,-0.61 -1.92,-1.81 V 11 c 0,-1.22 0.51,-1.81 1.92,-1.81 a 9.07,9.07 0 0 1 1.31,0.19 z"
           id="path4213-9" />
        <path
           style="fill:#58595b;fill-opacity:1;stroke-width:0.86385667"
           class="cls-1"
           d="M 33.84,46.79 H 11.49 a 0.59,0.59 0 1 1 0,-1.17 h 22.35 a 0.59,0.59 0 1 1 0,1.17 z"
           id="path4215-6" />
        <path
           style="fill:#58595b;fill-opacity:1;stroke-width:0.86385667"
           class="cls-1"
           d="M 22.66,46.79 A 0.59,0.59 0 0 1 22.07,46.2 v -4.41 a 0.59,0.59 0 0 1 1.17,0 v 4.41 a 0.59,0.59 0 0 1 -0.58,0.59 z"
           id="path4217-0" />
        <path
           style="fill:#58595b;fill-opacity:1;stroke:#666666;stroke-width:0.86385667;stroke-miterlimit:10"
           class="cls-2"
           d="M 16.36,59.21 H 6.1 A 5.58,5.58 0 0 1 3.92,58.77 5.67,5.67 0 0 1 2.92,58.25 5.61,5.61 0 0 1 2.09,57.57 5.58,5.58 0 0 1 0.89,55.79 5.57,5.57 0 0 1 0.5,53.61 V 40.83 a 0.905,0.905 0 0 1 1.81,0 v 12.78 a 3.81,3.81 0 0 0 0.08,0.77 3.78,3.78 0 0 0 0.61,1.35 3.84,3.84 0 0 0 1,1 3.81,3.81 0 0 0 0.65,0.35 3.74,3.74 0 0 0 1.47,0.3 h 10.24 a 0.905,0.905 0 1 1 0,1.81 z"
           id="path4219-6" />
        <path
           style="fill:#58595b;fill-opacity:1;stroke:#666666;stroke-width:0.86385667;stroke-miterlimit:10"
           class="cls-2"
           d="M 88.17,59.21 H 77.91 a 0.905,0.905 0 1 1 0,-1.81 h 10.26 a 3.78,3.78 0 0 0 1.48,-0.3 3.75,3.75 0 0 0 0.64,-0.35 3.62,3.62 0 0 0 0.56,-0.46 3.58,3.58 0 0 0 0.46,-0.56 3.67,3.67 0 0 0 0.35,-0.64 3.77,3.77 0 0 0 0.3,-1.48 V 40.83 a 0.905,0.905 0 0 1 1.81,0 v 12.78 a 5.58,5.58 0 0 1 -0.44,2.18 5.62,5.62 0 0 1 -2,2.46 5.7,5.7 0 0 1 -0.95,0.52 5.61,5.61 0 0 1 -2.18,0.44 z"
           id="path4221-4" />
        <path
           style="fill:#58595b;fill-opacity:1;stroke:#666666;stroke-width:0.86385667;stroke-miterlimit:10"
           class="cls-2"
           d="m 92.87,19.78 a 0.9,0.9 0 0 1 -0.9,-0.9 V 6.1 A 3.79,3.79 0 0 0 91.67,4.62 3.9,3.9 0 0 0 91.32,4 4,4 0 0 0 90.85,3.44 3.73,3.73 0 0 0 90.29,3 3.79,3.79 0 0 0 89.64,2.65 3.74,3.74 0 0 0 88.17,2.35 H 77.91 a 0.905,0.905 0 1 1 0,-1.81 h 10.26 a 5.56,5.56 0 0 1 3.13,1 5.54,5.54 0 0 1 0.83,0.68 5.62,5.62 0 0 1 0.68,0.83 5.56,5.56 0 0 1 0.52,1 5.69,5.69 0 0 1 0.33,0.95 5.58,5.58 0 0 1 0.11,1.13 v 12.75 a 0.9,0.9 0 0 1 -0.9,0.9 z"
           id="path4223-9" />
        <path
           style="fill:#58595b;fill-opacity:1;stroke:#666666;stroke-width:0.86385667;stroke-miterlimit:10"
           class="cls-2"
           d="M 1.4,19.78 A 0.9,0.9 0 0 1 0.5,18.88 V 6.1 A 5.58,5.58 0 0 1 0.61,5 5.68,5.68 0 0 1 0.93,4 5.76,5.76 0 0 1 1.45,3 5.66,5.66 0 0 1 2.13,2.17 5.57,5.57 0 0 1 5,0.61 5.7,5.7 0 0 1 6.1,0.5 h 10.26 a 0.905,0.905 0 1 1 0,1.81 H 6.1 A 3.78,3.78 0 0 0 4.62,2.61 3.87,3.87 0 0 0 3.41,3.42 3.93,3.93 0 0 0 3,4 3.77,3.77 0 0 0 2.43,5.35 3.79,3.79 0 0 0 2.35,6.11 v 12.77 a 0.9,0.9 0 0 1 -0.95,0.9 z"
           id="path4225-9" />
      </g>
    </g>
  </g>
</svg>
