<?xml version="1.0" encoding="iso-8859-1"?>
<!-- Generator: Adobe Illustrator 23.0.3, SVG Export Plug-In . SVG Version: 6.00 Build 0)  -->
<svg version="1.1"
	 id="svg192966" xmlns:cc="http://creativecommons.org/ns#" xmlns:dc="http://purl.org/dc/elements/1.1/" xmlns:rdf="http://www.w3.org/1999/02/22-rdf-syntax-ns#" xmlns:svg="http://www.w3.org/2000/svg"
	 xmlns="http://www.w3.org/2000/svg" xmlns:xlink="http://www.w3.org/1999/xlink" x="0px" y="0px" viewBox="0 0 53.8 52.3"
	 style="enable-background:new 0 0 53.8 52.3;" xml:space="preserve">
<style type="text/css">
	.st0{fill:#666666;}
	.st1{fill:#CCCCCC;}
</style>
<g id="layer1" transform="translate(33.305237,-139.60633)">
	<g id="Layer_2-76-2" transform="matrix(0.24605333,0,0,0.24605333,-33.305237,139.60633)">
		<g id="Layer_1-2-56-8">
			<rect id="rect3213-4" y="145.5" class="st0" width="9.6" height="29.1"/>
			<rect id="rect3215-7" y="38" class="st0" width="9.6" height="29.1"/>
			<path id="path3217-2" class="st0" d="M201.7,212.6H23c-9.4,0-17-7.6-17-17V17C6,7.6,13.6,0,23,0h178.8c9.4,0,17,7.6,17,17v178.6
				C218.7,205,211.1,212.6,201.7,212.6z M23,9.1c-4.3,0-7.8,3.5-7.8,7.9c0,0,0,0,0,0.1v178.6c0,4.3,3.4,7.9,7.7,7.9c0,0,0,0,0.1,0
				h178.8c4.3,0,7.8-3.5,7.8-7.9c0,0,0,0,0,0V17c0-4.3-3.5-7.8-7.8-7.8L23,9.1z"/>
			<path id="path3219-4" class="st0" d="M180.1,188.5H45.8c-8.2-0.2-15-6.6-15.6-14.8V38.2c0-8.1,8.2-14.2,15.6-14.2h134.4
				c7.8-0.1,14.3,6.1,14.4,13.9c0,0.1,0,0.2,0,0.3v136.1l-0.2,0.3C194,182.3,187.8,188.3,180.1,188.5z M45.8,28.6
				c-5.1,0-11.1,4.2-11.1,9.6v135.5c0.7,5.7,5.3,10,11.1,10.3h134.4c5.4-0.1,9.8-4.5,9.8-9.9v-0.6l0.2-0.3V38.2
				c-0.2-5.3-4.5-9.6-9.9-9.6H45.8z"/>
			<path id="path3221-0" class="st1" d="M41.1,50.5h11.3v2.1H41.1V50.5z M43.9,32.2h1.4v2.1h-3.8L43.9,32.2z M48,50.2h-2.2V32.2H48
				V50.2z"/>
			<path id="path3223-6" class="st1" d="M59.7,32.2h7.1v2.1h-9.3L59.7,32.2z M59.7,52.6l-2.2-2.2V34.6h2L59.7,52.6z M67.1,52.6H60
				v-2.1h9.3L67.1,52.6z M67.1,32.2l2.2,2.2v15.9h-2.2V32.2z"/>
			<path id="path3225-2" class="st1" d="M73.7,50.5H85v2.1H73.7V50.5z M76.5,32.2h1.6v2.1h-3.9L76.5,32.2z M80.6,50.2h-2.2V32.2h2.2
				V50.2z"/>
			<path id="path3227-9" class="st1" d="M92.4,32.2h7.1v2.1h-9.3L92.4,32.2z M92.4,52.6l-2.2-2.2V34.6h2.2V52.6z M99.8,52.6h-7.1
				v-2.1h9.4L99.8,52.6z M99.8,32.2l2.2,2.2v15.9h-2.2L99.8,32.2z"/>
			<path id="path3229-9" class="st1" d="M106.5,50.5h11.3v2.1h-11.3V50.5z M109.4,32.2h1.6v2.1h-4L109.4,32.2z M113.4,50.2h-2.2
				V32.2h2.2V50.2z"/>
			<path id="path3231-0" class="st1" d="M125.1,32.2h7.1v2.1h-9.3L125.1,32.2z M125.1,52.6l-2.2-2.2V34.6h2.2V52.6z M132.5,52.6
				h-7.1v-2.1h9.4L132.5,52.6z M132.5,32.2l2.2,2.2v15.9h-2.2V32.2z"/>
			<path id="path3233-8" class="st1" d="M139.2,50.5h11.3v2.1h-11.3V50.5z M142.1,32.2h1.6v2.1h-4L142.1,32.2z M146.2,50.2H144V32.2
				h2.2V50.2z"/>
			<path id="path3235-9-1" class="st1" d="M157.8,32.2h7.1v2.1h-9.3L157.8,32.2z M157.8,52.6l-2.2-2.2V34.6h2.2V52.6z M165.2,52.6
				h-7.1v-2.1h9.3L165.2,52.6z M165.2,32.2l2.2,2.2v15.9h-2.2V32.2z"/>
			<path id="path3237-3-3" class="st1" d="M171.9,50.5h11.3v2.1h-11.3V50.5z M174.8,32.2h1.6v2.1h-4L174.8,32.2z M178.9,50.2h-2.2
				V32.2h2.2V50.2z"/>
			<path id="path3239-7-1" class="st1" d="M43.3,57.7h7.1v2.1h-9.3L43.3,57.7z M43.3,78.1l-2.2-2.2V60h2.2L43.3,78.1z M50.7,78.1
				h-7.1V76H53L50.7,78.1z M50.7,57.7l2.2,2.2v15.9h-2.2V57.7z"/>
			<path id="path3241-1" class="st1" d="M57.5,76h11.3v2.1H57.5V76z M60.3,57.7h1.6v2.1h-4L60.3,57.7z M64.4,75.7h-2.2V57.7h2.2
				V75.7z"/>
			<path id="path3243-0" class="st1" d="M76.1,57.7h7.1v2.1h-9.4L76.1,57.7z M76.1,78.1l-2.4-2.2V60h2.2L76.1,78.1z M83.4,78.1h-7.1
				V76h9.3L83.4,78.1z M83.4,57.7l2.2,2.2v15.9h-2.2V57.7z"/>
			<path id="path3245-3" class="st1" d="M90.2,76h11.3v2.1H90.2V76z M93,57.7h1.6v2.1h-3.9L93,57.7z M97.1,75.7h-2.2V57.7h2.2V75.7z
				"/>
			<path id="path3247-4" class="st1" d="M108.8,57.7h7.1v2.1h-9.3L108.8,57.7z M108.8,78.1l-2.2-2.2V60h2.2V78.1z M116.1,78.1H109
				V76h9.3L116.1,78.1z M116.1,57.7l2.2,2.2v15.9h-2.1L116.1,57.7z"/>
			<path id="path3249-0" class="st1" d="M122.9,76h11.3v2.1h-11.3V76z M125.7,57.7h1.6v2.1h-4L125.7,57.7z M129.8,75.7h-2.2V57.7
				h2.2L129.8,75.7z"/>
			<path id="path3251-3" class="st1" d="M141.5,57.7h7.1v2.1h-9.3L141.5,57.7z M141.5,78.1l-2.2-2.2V60h2.2V78.1z M148.8,78.1h-7.1
				V76h9.3L148.8,78.1z M148.8,57.7l2.2,2.2v15.9h-2.2V57.7z"/>
			<path id="path3253-9" class="st1" d="M155.6,76h11.3v2.1h-11.3V76z M158.4,57.7h1.6v2.1h-4L158.4,57.7z M162.5,75.7h-2.2V57.7
				h2.2V75.7z"/>
			<path id="path3255-1" class="st1" d="M174.2,57.7h7.2v2.1h-9.5L174.2,57.7z M174.2,78.1l-2.2-2.2V60h2.2V78.1z M181.6,78.1h-7.1
				V76h9.3L181.6,78.1z M181.6,57.7l2.2,2.2v15.9h-2.2V57.7z"/>
			<path id="path3257-9" class="st1" d="M41.1,101.5h11.3v2.1H41.1V101.5z M43.9,83.2h1.4v2.1h-3.8L43.9,83.2z M48,101.2h-2.2v-18
				H48V101.2z"/>
			<path id="path3259-6" class="st1" d="M57.5,101.5h11.3v2.1H57.5V101.5z M60.3,83.2h1.6v2.1h-4L60.3,83.2z M64.4,101.2h-2.2v-18
				h2.2V101.2z"/>
			<path id="path3261-9" class="st1" d="M76.1,83.2h7.1v2.1h-9.4L76.1,83.2z M76.1,103.6l-2.4-2.2V85.5h2.2L76.1,103.6z M83.4,103.6
				h-7.1v-2.1h9.3L83.4,103.6z M83.4,83.2l2.2,2.2v15.8h-2.2V83.2z"/>
			<path id="path3263-3" class="st1" d="M90.2,101.5h11.3v2.1H90.2V101.5z M93,83.2h1.6v2.1h-3.9L93,83.2z M97.1,101.2h-2.2v-18h2.2
				V101.2z"/>
			<path id="path3265-3" class="st1" d="M106.5,101.5h11.3v2.1h-11.3V101.5z M109.4,83.2h1.6v2.1h-4L109.4,83.2z M113.4,101.2h-2.2
				v-18h2.2V101.2z"/>
			<path id="path3267-8" class="st1" d="M125.1,83.2h7.1v2.1h-9.3L125.1,83.2z M125.1,103.6l-2.2-2.2V85.5h2.2V103.6z M132.5,103.6
				h-7.1v-2.1h9.4L132.5,103.6z M132.5,83.2l2.2,2.2v15.8h-2.2V83.2z"/>
			<path id="path3269-0" class="st1" d="M139.2,101.5h11.3v2.1h-11.3V101.5z M142.1,83.2h1.6v2.1h-4L142.1,83.2z M146.2,101.2H144
				v-18h2.2V101.2z"/>
			<path id="path3271-5" class="st1" d="M155.6,101.5h11.3v2.1h-11.3V101.5z M158.4,83.2h1.6v2.1h-4L158.4,83.2z M162.5,101.2h-2.2
				v-18h2.2V101.2z"/>
			<path id="path3273-6" class="st1" d="M174.2,83.2h7.2v2.1h-9.5L174.2,83.2z M174.2,103.6l-2.2-2.2V85.5h2.2V103.6z M181.6,103.6
				h-7.1v-2.1h9.3L181.6,103.6z M181.6,83.2l2.2,2.2v15.8h-2.2V83.2z"/>
			<path id="path3275-6" class="st1" d="M43.3,108.7h7.1v2.1h-9.3L43.3,108.7z M43.3,129.1l-2.2-2.2v-15.8h2.2L43.3,129.1z
				 M50.7,129.1h-7.1V127H53L50.7,129.1z M50.7,108.7l2.2,2.2v15.8h-2.2V108.7z"/>
			<path id="path3277-4" class="st1" d="M59.7,108.7h7.1v2.1h-9.3L59.7,108.7z M59.7,129.1l-2.2-2.2v-15.8h2L59.7,129.1z
				 M67.1,129.1H60V127h9.3L67.1,129.1z M67.1,108.7l2.2,2.2v15.8h-2.2V108.7z"/>
			<path id="path3279-0" class="st1" d="M76.1,108.7h7.1v2.1h-9.4L76.1,108.7z M76.1,129.1l-2.4-2.2v-15.8h2.2L76.1,129.1z
				 M83.4,129.1h-7.1V127h9.3L83.4,129.1z M83.4,108.7l2.2,2.2v15.8h-2.2V108.7z"/>
			<path id="path3281-0" class="st1" d="M90.2,127h11.3v2.1H90.2V127z M93,108.7h1.6v2.1h-3.9L93,108.7z M97.1,126.7h-2.2v-18.1h2.2
				V126.7z"/>
			<path id="path3283-4" class="st1" d="M108.8,108.7h7.1v2.1h-9.3L108.8,108.7z M108.8,129.1l-2.2-2.2v-15.8h2.2V129.1z
				 M116.1,129.1H109V127h9.3L116.1,129.1z M116.1,108.7l2.2,2.2v15.8h-2.1L116.1,108.7z"/>
			<path id="path3285-6" class="st1" d="M122.9,127h11.3v2.1h-11.3V127z M125.7,108.7h1.6v2.1h-4L125.7,108.7z M129.8,126.7h-2.2
				v-18.1h2.2L129.8,126.7z"/>
			<path id="path3287-2" class="st1" d="M139.2,127h11.3v2.1h-11.3V127z M142.1,108.7h1.6v2.1h-4L142.1,108.7z M146.2,126.7H144
				v-18.1h2.2V126.7z"/>
			<path id="path3289-6" class="st1" d="M157.8,108.7h7.1v2.1h-9.3L157.8,108.7z M157.8,129.1l-2.2-2.2v-15.8h2.2V129.1z
				 M165.2,129.1h-7.1V127h9.3L165.2,129.1z M165.2,108.7l2.2,2.2v15.8h-2.2V108.7z"/>
			<path id="path3291-7" class="st1" d="M171.9,127h11.3v2.1h-11.3V127z M174.8,108.7h1.6v2.1h-4L174.8,108.7z M178.9,126.7h-2.2
				v-18.1h2.2V126.7z"/>
			<path id="path3293-5" class="st1" d="M41.1,152.5h11.3v2.1H41.1V152.5z M43.9,134.2h1.4v2.1h-3.8L43.9,134.2z M48,152.2h-2.2
				v-18.1H48V152.2z"/>
			<path id="path3295-6" class="st1" d="M59.7,134.2h7.1v2.1h-9.3L59.7,134.2z M59.7,154.6l-2.2-2.2v-15.9h2L59.7,154.6z
				 M67.1,154.6H60v-2.1h9.3L67.1,154.6z M67.1,134.2l2.2,2.2v15.9h-2.2V134.2z"/>
			<path id="path3297-9" class="st1" d="M76.1,134.2h7.1v2.1h-9.4L76.1,134.2z M76.1,154.6l-2.4-2.2v-15.9h2.2L76.1,154.6z
				 M83.4,154.6h-7.1v-2.1h9.3L83.4,154.6z M83.4,134.2l2.2,2.2v15.9h-2.2V134.2z"/>
			<path id="path3299-8" class="st1" d="M92.4,134.2h7.1v2.1h-9.3L92.4,134.2z M92.4,154.6l-2.2-2.2v-15.9h2.2V154.6z M99.8,154.6
				h-7.1v-2.1h9.4L99.8,154.6z M99.8,134.2l2.2,2.2v15.9h-2.2L99.8,134.2z"/>
			<path id="path3301-7" class="st1" d="M106.5,152.5h11.3v2.1h-11.3V152.5z M109.4,134.2h1.6v2.1h-4L109.4,134.2z M113.4,152.2
				h-2.2v-18.1h2.2V152.2z"/>
			<path id="path3303-2" class="st1" d="M125.1,134.2h7.1v2.1h-9.3L125.1,134.2z M125.1,154.6l-2.2-2.2v-15.9h2.2V154.6z
				 M132.5,154.6h-7.1v-2.1h9.4L132.5,154.6z M132.5,134.2l2.2,2.2v15.9h-2.2V134.2z"/>
			<path id="path3305-8" class="st1" d="M141.5,134.2h7.1v2.1h-9.3L141.5,134.2z M141.5,154.6l-2.2-2.2v-15.9h2.2V154.6z
				 M148.8,154.6h-7.1v-2.1h9.3L148.8,154.6z M148.8,134.2l2.2,2.2v15.9h-2.2V134.2z"/>
			<path id="path3307-2" class="st1" d="M155.6,152.5h11.3v2.1h-11.3V152.5z M158.4,134.2h1.6v2.1h-4L158.4,134.2z M162.5,152.2
				h-2.2v-18.1h2.2V152.2z"/>
			<path id="path3309-9" class="st1" d="M171.9,152.5h11.3v2.1h-11.3V152.5z M174.8,134.2h1.6v2.1h-4L174.8,134.2z M178.9,152.2
				h-2.2v-18.1h2.2V152.2z"/>
			<path id="path3311-9" class="st1" d="M43.3,159.7h7.1v2.1h-9.3L43.3,159.7z M43.3,180.1l-2.2-2.2v-15.9h2.2L43.3,180.1z
				 M50.7,180.1h-7.1V178H53L50.7,180.1z M50.7,159.7l2.2,2.2v15.8h-2.2V159.7z"/>
			<path id="path3313-6" class="st1" d="M57.5,178h11.3v2.1H57.5V178z M60.3,159.7h1.6v2.1h-4L60.3,159.7z M64.4,177.7h-2.2v-18h2.2
				V177.7z"/>
			<path id="path3315-0" class="st1" d="M73.7,178H85v2.1H73.7V178z M76.5,159.7h1.6v2.1h-3.9L76.5,159.7z M80.6,177.7h-2.2v-18h2.2
				V177.7z"/>
			<path id="path3317-2" class="st1" d="M90.2,178h11.3v2.1H90.2V178z M93,159.7h1.6v2.1h-3.9L93,159.7z M97.1,177.7h-2.2v-18h2.2
				V177.7z"/>
			<path id="path3319-7" class="st1" d="M108.8,159.7h7.1v2.1h-9.3L108.8,159.7z M108.8,180.1l-2.2-2.2v-15.9h2.2V180.1z
				 M116.1,180.1H109V178h9.3L116.1,180.1z M116.1,159.7l2.2,2.2v15.8h-2.1L116.1,159.7z"/>
			<path id="path3321-6" class="st1" d="M122.9,178h11.3v2.1h-11.3V178z M125.7,159.7h1.6v2.1h-4L125.7,159.7z M129.8,177.7h-2.2
				v-18h2.2L129.8,177.7z"/>
			<path id="path3323-1" class="st1" d="M139.2,178h11.3v2.1h-11.3V178z M142.1,159.7h1.6v2.1h-4L142.1,159.7z M146.2,177.7H144v-18
				h2.2V177.7z"/>
			<path id="path3325-3" class="st1" d="M155.6,178h11.3v2.1h-11.3V178z M158.4,159.7h1.6v2.1h-4L158.4,159.7z M162.5,177.7h-2.2
				v-18h2.2V177.7z"/>
			<path id="path3327-2" class="st1" d="M171.9,178h11.3v2.1h-11.3V178z M174.8,159.7h1.6v2.1h-4L174.8,159.7z M178.9,177.7h-2.2
				v-18h2.2V177.7z"/>
			<path id="path3329-1" class="st0" d="M112.9,142h-1.6c-19.7-0.9-35-17.5-34.1-37.2s17.5-35,37.2-34.1c19.7,0.9,35,17.5,34.1,37.2
				c0,0,0,0.1,0,0.1l0,0C147.6,127,131.9,142,112.9,142z M112.9,79.3c-14.9,0-27,12.1-27,27c0,14.9,12.1,27,27,27
				c14.4,0,26.3-11.3,27-25.7l0,0c0.7-14.9-10.8-27.6-25.8-28.3c0,0,0,0,0,0L112.9,79.3z"/>
			<path id="path3331-5" class="st0" d="M86,137.3c-2.4,0-4.4-2-4.3-4.4c0-1.2,0.5-2.3,1.3-3.1l53.8-53.3c1.8-1.6,4.6-1.4,6.2,0.4
				c1.5,1.7,1.5,4.2,0,5.9L89,136.1C88.2,136.9,87.1,137.3,86,137.3z"/>
			<path id="path3333-9" class="st0" d="M141.3,135.7c-1,0-2.1-0.4-2.8-1.1L81.6,84.5c-2-1.3-2.6-4-1.2-6.1s4-2.6,6.1-1.2
				c0.3,0.2,0.6,0.4,0.8,0.7l57,50.1c1.8,1.6,2,4.3,0.4,6.2C143.8,135.2,142.6,135.7,141.3,135.7z"/>
			<ellipse id="ellipse3335-9" class="st0" cx="112.9" cy="106.3" rx="10.7" ry="10.7"/>
		</g>
	</g>
</g>
</svg>
