<?xml version="1.0" encoding="UTF-8" standalone="no"?>
<svg
   xmlns:dc="http://purl.org/dc/elements/1.1/"
   xmlns:cc="http://creativecommons.org/ns#"
   xmlns:rdf="http://www.w3.org/1999/02/22-rdf-syntax-ns#"
   xmlns:svg="http://www.w3.org/2000/svg"
   xmlns="http://www.w3.org/2000/svg"
   id="svg206941"
   version="1.1"
   viewBox="0 0 18.550627 18.254"
   height="18.254mm"
   width="18.550627mm">
  <defs
     id="defs206935" />
  <metadata
     id="metadata206938">
    <rdf:RDF>
      <cc:Work
         rdf:about="">
        <dc:format>image/svg+xml</dc:format>
        <dc:type
           rdf:resource="http://purl.org/dc/dcmitype/StillImage" />
        <dc:title></dc:title>
      </cc:Work>
    </rdf:RDF>
  </metadata>
  <g
     transform="translate(33.087814,-139.70633)"
     id="layer1">
    <g
       style="fill:#58595b;fill-opacity:1;stroke-width:1.04360688"
       transform="matrix(0.25352778,0,0,0.25352778,-33.087814,139.70633)"
       id="Layer_2-4-0"
       data-name="Layer 2">
      <g
         style="fill:#58595b;fill-opacity:1;stroke-width:1.04360688"
         id="Layer_1-2-3-8"
         data-name="Layer 1">
        <path
           style="fill:#58595b;fill-opacity:1;stroke-width:1.04360688"
           class="cls-1"
           d="m 40.29,36.21 a 10.4,10.4 0 0 0 -0.35,-12 l 0.36,-0.36 a 1.4849411,1.4849411 0 1 0 -2.09,-2.11 l -0.36,0.36 a 10.38,10.38 0 0 0 -13.08,0.39 l -0.39,-0.34 a 1.49774,1.49774 0 0 0 -2,2.23 l 0.39,0.34 a 10.4,10.4 0 0 0 0.35,12 l -0.36,0.36 a 1.49,1.49 0 0 0 1.05,2.54 1.47,1.47 0 0 0 1,-0.43 l 0.36,-0.35 A 10.39,10.39 0 0 0 31.08,41 h 0.47 a 10.43,10.43 0 0 0 6.78,-2.52 l 0.38,0.34 a 1.46,1.46 0 0 0 1,0.37 1.49,1.49 0 0 0 1,-2.6 z M 39,30.82 a 7.53,7.53 0 0 1 -1,3.4 l -3.49,-3.08 a 2.93,2.93 0 0 0 0.08,-0.67 3.12,3.12 0 0 0 -0.13,-0.81 l 3.31,-3.28 A 7.5,7.5 0 0 1 39,30.82 Z M 31.54,23 h 0.34 a 7.41,7.41 0 0 1 3.83,1.27 l -3.31,3.27 a 3.16,3.16 0 0 0 -0.87,-0.13 2.83,2.83 0 0 0 -1,0.19 L 27,24.52 A 7.45,7.45 0 0 1 31.54,23 Z m -7.48,7.17 a 7.52,7.52 0 0 1 1,-3.4 l 3.5,3.08 a 2.93,2.93 0 0 0 -0.08,0.67 3.12,3.12 0 0 0 0.13,0.81 L 25.3,34.61 A 7.5,7.5 0 0 1 24.06,30.15 Z M 31.21,38 a 7.41,7.41 0 0 1 -3.83,-1.27 l 3.31,-3.28 a 3.16,3.16 0 0 0 0.87,0.13 2.83,2.83 0 0 0 1,-0.19 l 3.49,3.08 A 7.52,7.52 0 0 1 31.21,38 Z"
           id="path4269-9" />
        <path
           style="fill:#58595b;fill-opacity:1;stroke-width:1.04360688"
           class="cls-1"
           d="M 54.9,11 A 3.88,3.88 0 0 0 51,7.13 H 12.46 c -2,0 -4.27,1.64 -4.27,3.83 V 49.8 a 4.38,4.38 0 0 0 4.27,4 h 17 V 53 h -17 A 3.49,3.49 0 0 1 9.08,49.8 V 11 c 0,-1.7 1.82,-3 3.38,-3 H 51 a 3,3 0 0 1 3,3 v 35.4 h 0.93 z"
           id="path4271-3" />
        <path
           style="fill:#58595b;fill-opacity:1;stroke-width:1.04360688"
           class="cls-1"
           d="m 43.41,59.83 -0.22,0.32 a 0.22,0.22 0 0 1 -0.29,0.07 l -0.84,-0.59 v 0.62 0.38 a 0.23,0.23 0 0 1 -0.22,0.22 H 41.5 a 0.23,0.23 0 0 1 -0.23,-0.22 v -0.38 -0.63 l -0.84,0.58 a 0.22,0.22 0 0 1 -0.3,-0.05 l -0.2,-0.32 a 0.22,0.22 0 0 1 0.06,-0.31 l 1,-0.58 -1,-0.58 A 0.25,0.25 0 0 1 40,58 l 0.22,-0.31 a 0.22,0.22 0 0 1 0.29,0 l 0.84,0.58 v -0.72 -0.3 A 0.23,0.23 0 0 1 41.5,57 h 0.37 a 0.23,0.23 0 0 1 0.22,0.22 v 0.3 0.72 l 0.84,-0.59 a 0.23,0.23 0 0 1 0.3,0.06 l 0.2,0.31 a 0.22,0.22 0 0 1 -0.06,0.32 l -1,0.58 1,0.59 a 0.21,0.21 0 0 1 0.04,0.32 z"
           id="path4273-1" />
        <path
           style="fill:#58595b;fill-opacity:1;stroke-width:1.04360688"
           class="cls-1"
           d="m 48.66,59.83 -0.22,0.32 a 0.22,0.22 0 0 1 -0.29,0.07 l -0.83,-0.59 v 1 a 0.22,0.22 0 0 1 -0.22,0.22 h -0.37 a 0.22,0.22 0 0 1 -0.22,-0.22 v -1 l -0.84,0.58 a 0.22,0.22 0 0 1 -0.3,-0.05 l -0.2,-0.32 a 0.22,0.22 0 0 1 0.06,-0.31 l 1,-0.58 -1,-0.58 A 0.25,0.25 0 0 1 45.2,58 l 0.22,-0.31 a 0.22,0.22 0 0 1 0.29,0 l 0.84,0.58 v -0.72 -0.3 a 0.22,0.22 0 0 1 0.22,-0.22 h 0.37 a 0.22,0.22 0 0 1 0.22,0.22 v 1 l 0.83,-0.59 a 0.24,0.24 0 0 1 0.31,0.06 l 0.19,0.31 a 0.22,0.22 0 0 1 0,0.32 l -1,0.58 1,0.59 a 0.21,0.21 0 0 1 -0.03,0.31 z"
           id="path4275-4" />
        <path
           style="fill:#58595b;fill-opacity:1;stroke-width:1.04360688"
           class="cls-1"
           d="m 61,58 c 0.1,-0.13 0.14,-0.21 0.23,-0.31 a 0.21,0.21 0 0 1 0.29,0 l 0.83,0.58 v -1 A 0.22,0.22 0 0 1 62.5,57 h 0.37 a 0.22,0.22 0 0 1 0.22,0.22 v 1 l 0.84,-0.59 a 0.23,0.23 0 0 1 0.3,0.06 L 64.42,58 a 0.22,0.22 0 0 1 -0.05,0.32 l -1,0.58 1,0.59 a 0.23,0.23 0 0 1 0.07,0.3 l -0.22,0.32 a 0.22,0.22 0 0 1 -0.29,0.07 l -0.84,-0.59 v 1 a 0.22,0.22 0 0 1 -0.22,0.22 H 62.5 a 0.22,0.22 0 0 1 -0.22,-0.22 v -1 l -0.83,0.58 A 0.23,0.23 0 0 1 61.14,60.12 L 61,59.83 a 0.22,0.22 0 0 1 0.05,-0.31 l 1,-0.58 -1,-0.58 A 0.26,0.26 0 0 1 61,58 Z"
           id="path4277-8" />
        <path
           style="fill:#58595b;fill-opacity:1;stroke-width:1.04360688"
           class="cls-1"
           d="m 55.7,58 c 0.1,-0.13 0.14,-0.21 0.23,-0.31 a 0.21,0.21 0 0 1 0.29,0 l 0.83,0.58 v -1 a 0.22,0.22 0 0 1 0.22,-0.22 h 0.37 a 0.22,0.22 0 0 1 0.22,0.22 v 1 l 0.84,-0.59 a 0.23,0.23 0 0 1 0.3,0.06 l 0.2,0.31 a 0.23,0.23 0 0 1 -0.06,0.32 l -1,0.58 1,0.59 a 0.22,0.22 0 0 1 0.07,0.3 l -0.22,0.32 a 0.22,0.22 0 0 1 -0.29,0.07 l -0.84,-0.59 v 1 a 0.22,0.22 0 0 1 -0.22,0.22 h -0.37 a 0.22,0.22 0 0 1 -0.22,-0.22 v -1 l -0.83,0.58 a 0.23,0.23 0 0 1 -0.31,-0.05 l -0.19,-0.32 a 0.22,0.22 0 0 1 0.05,-0.31 l 1,-0.58 -1,-0.58 A 0.26,0.26 0 0 1 55.7,58 Z"
           id="path4279-9" />
        <path
           style="fill:#58595b;fill-opacity:1;stroke-width:1.04360688"
           class="cls-1"
           d="m 53.41,57.67 a 0.23,0.23 0 0 1 0.3,0.06 l 0.2,0.31 a 0.23,0.23 0 0 1 -0.06,0.32 l -1,0.58 1,0.59 a 0.22,0.22 0 0 1 0.07,0.3 l -0.22,0.32 a 0.22,0.22 0 0 1 -0.29,0.07 l -0.84,-0.59 v 1 a 0.22,0.22 0 0 1 -0.22,0.22 H 52 a 0.22,0.22 0 0 1 -0.22,-0.22 v -1 L 51,60.2 A 0.23,0.23 0 0 1 50.69,60.15 L 50.5,59.83 a 0.22,0.22 0 0 1 0.05,-0.31 l 1,-0.58 -0.3,-0.18 -0.67,-0.4 a 0.24,0.24 0 0 1 -0.06,-0.32 c 0.08,-0.13 0.14,-0.2 0.22,-0.31 a 0.22,0.22 0 0 1 0.29,0 l 0.7,0.49 0.13,0.09 V 58 57.23 A 0.22,0.22 0 0 1 52,57 h 0.37 a 0.22,0.22 0 0 1 0.22,0.22 v 1 z"
           id="path4281-6" />
        <path
           style="fill:#58595b;fill-opacity:1;stroke-width:1.04360688"
           class="cls-1"
           d="m 70.41,59.78 a 3,3 0 0 1 0.16,0.9 3.33,3.33 0 0 1 -3.47,3.16 H 38.47 V 61.23 L 31.2,66.62 38.47,72 v -2.6 h 28.58 v 0 h 0.44 a 5.45,5.45 0 0 0 5.68,-5.18 5.11,5.11 0 0 0 -2.76,-4.44 z"
           id="path4283-7" />
        <path
           style="fill:#58595b;fill-opacity:1;stroke-width:1.04360688"
           class="cls-1"
           d="m 34,58.12 a 2.7,2.7 0 0 1 -0.16,-0.9 3.32,3.32 0 0 1 3.46,-3.16 h 28.6 v 2.61 L 73.17,51.28 65.9,45.9 v 2.61 H 37.31 v 0 h -0.43 a 5.44,5.44 0 0 0 -5.68,5.17 5.09,5.09 0 0 0 2.8,4.44 z"
           id="path4285-7" />
        <path
           style="fill:#58595b;fill-opacity:1;stroke-width:1.04360688"
           class="cls-1"
           d="M 57.16,0 H 5.93 A 4.88,4.88 0 0 0 1.06,4.87 v 6 H 0 V 19.2 H 1.06 V 41.73 H 0 v 8.33 h 1.06 v 6 A 4.87,4.87 0 0 0 5.93,61 H 32.15 A 5.34,5.34 0 0 1 29.76,58.35 H 5.93 A 2.22,2.22 0 0 1 3.72,56.1 V 4.87 A 2.21,2.21 0 0 1 5.93,2.66 h 51.23 a 2.21,2.21 0 0 1 2.21,2.21 V 46.36 H 62 V 4.87 A 4.88,4.88 0 0 0 57.16,0 Z"
           id="path4287-3" />
      </g>
    </g>
  </g>
</svg>
