<?xml version="1.0" encoding="iso-8859-1"?>
<!-- Generator: Adobe Illustrator 23.0.3, SVG Export Plug-In . SVG Version: 6.00 Build 0)  -->
<svg version="1.1"
	 id="svg208268" xmlns:cc="http://creativecommons.org/ns#" xmlns:dc="http://purl.org/dc/elements/1.1/" xmlns:rdf="http://www.w3.org/1999/02/22-rdf-syntax-ns#" xmlns:svg="http://www.w3.org/2000/svg"
	 xmlns="http://www.w3.org/2000/svg" xmlns:xlink="http://www.w3.org/1999/xlink" x="0px" y="0px" viewBox="0 0 54.2 52.3"
	 style="enable-background:new 0 0 54.2 52.3;" xml:space="preserve">
<style type="text/css">
	.st0{fill:#616161;}
</style>
<g id="layer1" transform="translate(-146.17041,-357.32062)">
	<g id="Layer_2-12-1" transform="matrix(0.23400964,0,0,0.23400964,146.17041,357.32062)">
		<g id="Layer_1-2-93-0">
			<path id="path2978-8" class="st0" d="M127.3,114.4c7.6-11.6,7.2-26.7-1.1-37.8l1.1-1.1c1.8-1.8,1.9-4.8,0-6.6
				c-1.8-1.8-4.8-1.9-6.6,0c0,0,0,0,0,0l-1.1,1.1C107.2,60.5,90,61,78.2,71.1L77,70c-1.9-1.8-4.9-1.7-6.6,0.3
				c-1.8,1.9-1.7,4.9,0.3,6.6c0.1,0.1,0.2,0.1,0.2,0.2l1.2,1.1c-7.6,11.6-7.2,26.7,1.1,37.8l-1.1,1.1c-1.9,1.7-2.1,4.7-0.4,6.6
				s4.7,2.1,6.6,0.4c0.1-0.1,0.2-0.2,0.3-0.3l1.1-1.1c5.3,4.1,11.7,6.4,18.4,6.7h1.5c7.9,0,15.5-2.8,21.4-8l1.2,1.1
				c1.9,1.8,4.8,1.8,6.7-0.1c1.8-1.9,1.8-4.8-0.1-6.7c-0.1-0.1-0.2-0.2-0.3-0.3L127.3,114.4z M123.3,97.4c-0.2,3.8-1.2,7.5-3.1,10.7
				l-11-9.7c0.2-0.7,0.3-1.4,0.3-2.1c0-0.9-0.1-1.7-0.4-2.6l10.4-10.4C122.1,87.5,123.5,92.4,123.3,97.4z M99.6,72.6h1.1
				c4.3,0.2,8.5,1.5,12.1,3.9L102.4,87c-0.9-0.3-1.9-0.4-2.8-0.4c-1.1,0-2.2,0.2-3.2,0.6l-11.1-9.8C89.4,74.3,94.4,72.6,99.6,72.6z
				 M76,95.3c0.2-3.8,1.2-7.5,3.1-10.7l11,9.7c-0.1,0.7-0.2,1.4-0.2,2.1c0,0.9,0.1,1.7,0.4,2.6l-10.4,10.3
				C77.2,105.1,75.8,100.2,76,95.3L76,95.3z M98.7,120c-4.3-0.2-8.5-1.6-12.1-4l10.4-10.4c0.9,0.3,1.9,0.4,2.8,0.4
				c1.1,0,2.2-0.2,3.2-0.6l11,9.7c-4.4,3.4-9.9,5.1-15.5,4.8L98.7,120z"/>
			<path id="path2980-5" class="st0" d="M173.4,34.6c-0.2-6.7-5.7-12.1-12.4-12H39.4c-6.4,0-13.5,5.2-13.5,12.1v122.5
				c0.6,7.1,6.4,12.6,13.5,12.8h53.5v-2.8H39.4c-5.6-0.1-10.1-4.4-10.7-9.9V34.6c0-5.2,5.7-9.3,10.7-9.3H161c5.2,0,9.5,4.1,9.6,9.3
				v111.8h2.8L173.4,34.6z"/>
			<path id="path2982-0" class="st0" d="M92.2,184.3H18.7c-3.9,0-7-3.1-7-7V15.4c0.1-3.8,3.2-6.9,7-6.9h161.8c3.9,0,7,3.1,7,7v128.7
				c1.3-0.3,2.7-0.5,4.1-0.5c1.5,0,2.9,0.2,4.3,0.5V15.4c0-8.5-6.9-15.4-15.4-15.4H18.7C10.2,0,3.4,6.9,3.3,15.4v19.1H0v26.3h3.3
				v71.1H0v26.3h3.3v19.1c-0.1,8.5,6.8,15.5,15.3,15.5c0,0,0.1,0,0.1,0h73.7C91.7,190,91.6,187.1,92.2,184.3z"/>
			<path id="path2984-6" class="st0" d="M197.7,223.5v-5.5c11.3,0,28.3-7.5,28.3-28.3h5.5C231.4,214.6,211.2,223.5,197.7,223.5z"/>
			<path id="path2986-4" class="st0" d="M197.7,223.5c-15.1,0-24.7-8.5-30.9-15.8c-6.6,7.9-16,15.8-31,15.8v-5.5
				c14.3,0,22.9-8.8,28.8-16.4l2.2-2.8l2.2,2.8c5.9,7.6,14.4,16.4,28.8,16.4V223.5z"/>
			<path id="path2988-6" class="st0" d="M135.8,223.5c-13.5,0-33.8-9-33.8-33.6s20.2-33.7,33.8-33.7c15.1,0,24.7,8.4,31,15.8
				c6.2-7.5,15.9-15.8,30.9-15.8c13.5,0,33.7,9,33.7,33.7h-5.5c0-20.7-17-28.3-28.3-28.3c-14.3,0-22.9,8.7-28.8,16.4l-2.2,2.8
				l-2.2-2.8c-5.7-7.5-14.2-16.3-28.7-16.3c-11.3,0-28.3,7.5-28.3,28.3s17,28.3,28.3,28.3V223.5z"/>
			<path id="path2990-2" class="st0" d="M135.6,208.1c-8.5,0-18.2-4.8-18.2-18.2s9.4-18.1,18.2-18.2c11.3,0,17.6,7.5,23.9,16.6
				l1.1,1.6l-1.1,1.6C153.1,200.5,147,208.1,135.6,208.1z M135.6,177.1c-3.8,0-12.8,1.4-12.8,12.8c-0.5,6.5,4.3,12.2,10.8,12.7
				c0.6,0.1,1.3,0.1,1.9,0c7.5,0,12.2-4.3,18.3-12.7C147.8,181.4,143.1,177.1,135.6,177.1z"/>
			<path id="path2992-5" class="st0" d="M197.9,208.1L197.9,208.1c-11.3,0-17.5-7.5-23.8-16.6l-1.2-1.5l1.1-1.6
				c6.3-9.1,12.5-16.6,23.9-16.6c8.5,0,18.2,4.8,18.2,18.2C216.1,203.4,206.6,208,197.9,208.1L197.9,208.1z M179.7,189.9
				c6,8.5,10.7,12.7,18.2,12.7c4.8,0,12.8-1.8,12.8-12.7c0.5-6.5-4.3-12.2-10.9-12.8c-0.6,0-1.2-0.1-1.9,0
				C190.4,177.1,185.7,181.4,179.7,189.9z"/>
			<polygon id="polygon2994-8" class="st0" points="179.7,189.9 166.8,207.7 165,201.1 173,189.9 			"/>
			<polygon id="polygon2996-6" class="st0" points="166.8,180.9 160.5,189.9 153.8,189.9 166.8,172 			"/>
		</g>
	</g>
</g>
</svg>
