<svg xmlns="http://www.w3.org/2000/svg" viewBox="0 0 71.69 71.13"><defs><style>.cls-1{fill:#666;}</style></defs><title>Run Privileged Access Security in the Cloud</title><g id="Layer_2" data-name="Layer 2"><g id="Layer_1-2" data-name="Layer 1"><path class="cls-1" d="M57.86,17.53a13.9,13.9,0,0,0,.39-3.29A14.42,14.42,0,0,0,43.69,0,14.64,14.64,0,0,0,31,7.29,15.25,15.25,0,0,0,14.12,17.51,15,15,0,0,0,0,32.26,15,15,0,0,0,15.12,47.05h.47c-.23-1.09-.43-2.2-.59-3.37A11.6,11.6,0,0,1,3.36,32.26,11.61,11.61,0,0,1,15,20.84a12.19,12.19,0,0,1,4.7,1,1.12,1.12,0,0,0,.87-2.07,14.61,14.61,0,0,0-3.28-.94,11.75,11.75,0,0,1,11.31-8.33h.29a12.45,12.45,0,0,1,7.95,2.95,1.09,1.09,0,0,0,.72.27,1.15,1.15,0,0,0,.86-.4,1.12,1.12,0,0,0-.13-1.58,15,15,0,0,0-4.44-2.59,11.25,11.25,0,0,1,9.88-5.75,11.06,11.06,0,0,1,11.2,10.88,10.7,10.7,0,0,1-.9,4.28,2.47,2.47,0,0,0-.11.36,14.17,14.17,0,0,0-4.47,1.73A1.12,1.12,0,0,0,50,22.69a1.16,1.16,0,0,0,.57-.15,12.08,12.08,0,0,1,5.38-1.68l.64,0A11.56,11.56,0,0,1,68.33,32.21,11.64,11.64,0,0,1,56.69,43.68c-.16,1.17-.36,2.28-.59,3.37h.47A15,15,0,0,0,71.69,32.26,14.93,14.93,0,0,0,57.86,17.53Z"/><path class="cls-1" d="M35.85,71.13a1.71,1.71,0,0,1-.74-.17c-.75-.36-18.31-9.18-18.31-34a1.68,1.68,0,0,1,1.42-1.66c6.75-1.08,12.3-3.58,16.49-7.42a1.68,1.68,0,0,1,2.27,0c4.2,3.84,9.74,6.34,16.49,7.42A1.68,1.68,0,0,1,54.89,37c0,24.81-17.56,33.63-18.31,34A1.7,1.7,0,0,1,35.85,71.13ZM20.18,38.37c.57,19.12,12.51,27.33,15.67,29.17C39,65.7,51,57.49,51.51,38.37a34.36,34.36,0,0,1-15.66-7A34.45,34.45,0,0,1,20.18,38.37Z"/><rect class="cls-1" x="20.45" y="45.72" width="30.8" height="2.24" transform="translate(-22.7 39.67) rotate(-45.59)"/><path class="cls-1" d="M35.85,64.77a.64.64,0,0,1-.33-.1,28.84,28.84,0,0,1-4.92-4.43.56.56,0,0,1,0-.79.58.58,0,0,1,.8,0,28,28,0,0,0,4.41,4C39.37,61,46.88,54,48,40.55a.55.55,0,0,1,.6-.51.56.56,0,0,1,.52.6c-1.22,14.33-9.48,21.58-13,24A.63.63,0,0,1,35.85,64.77Z"/></g></g></svg>
