<?xml version="1.0" encoding="UTF-8"?><svg xmlns="http://www.w3.org/2000/svg" viewBox="0 0 253.36 259.71"><defs><style>.cls-1{isolation:isolate;}.cls-2,.cls-4{fill:none;stroke-miterlimit:10;}.cls-2{stroke:#e6e7e8;stroke-width:7.14px;}.cls-3{mix-blend-mode:multiply;}.cls-4{stroke:#4d8fcc;stroke-width:21.43px;}.cls-5{fill:#414042;}</style></defs><title>Asset 76</title><g class="cls-1"><g id="Layer_2" data-name="Layer 2"><g id="Layer_1-2" data-name="Layer 1"><circle class="cls-2" cx="123.7" cy="130.05" r="118.94"/><g class="cls-3"><path class="cls-4" d="M123.5,10.72a119.14,119.14,0,1,1,0,238.27c-52.64,0-97-32.26-113.31-82.32"/></g><path class="cls-5" d="M63.2,129c3.88,0,10.3-2.64,10.3-2.64v9.53A22.64,22.64,0,0,1,63,138.77c-6.23,0-8-2.55-13.88-2.55-3.87,0-10.29,2.74-10.29,2.74v-9.54a23.21,23.21,0,0,1,10.57-2.93C55.55,126.49,57.44,129,63.2,129Z"/><path class="cls-5" d="M116.67,113.93,96.45,163.52H84.65l19.64-46.85v-.09H81.43v-9.73h35.24Z"/><path class="cls-5" d="M159.73,125.08v20c0,13.13-6.42,19.55-18,19.55s-18-6.42-18-19.55v-20c0-13.23,6.52-19.46,18-19.46S159.73,111.85,159.73,125.08Zm-25-1v21.92c0,6.32,2.45,9,7,9s7-2.65,7-9V124.13c0-6.33-2.55-8.88-7-8.88S134.71,117.8,134.71,124.13Z"/><path class="cls-5" d="M187.9,114.79v1.54c0,5.89-3,9.2-9,9.2s-9.14-3.2-9.14-9.2v-1.54c0-5.89,3.14-9.14,9.14-9.14S187.9,108.9,187.9,114.79ZM176,114.62v1.88c0,2.42,1,3.47,2.86,3.47s2.81-1,2.81-3.47v-1.88c0-2.47-.94-3.41-2.81-3.41S176,112.2,176,114.62Zm10.41,25.45h-6.94l18.44-33.76h7Zm28.14-10v1.55c0,5.83-3,9.14-9,9.14s-9.14-3.2-9.14-9.14V130c0-5.94,3.14-9.19,9.14-9.19S214.56,124.1,214.56,130Zm-11.9-.16v1.87c0,2.42,1,3.41,2.86,3.41s2.81-1,2.81-3.41v-1.87c0-2.48-.93-3.47-2.81-3.47S202.66,127.46,202.66,129.88Z"/></g></g></g></svg>