<?xml version="1.0" encoding="UTF-8"?><svg xmlns="http://www.w3.org/2000/svg" viewBox="0 0 259.4 259.71"><defs><style>.cls-1{isolation:isolate;}.cls-2,.cls-4{fill:none;stroke-miterlimit:10;}.cls-2{stroke:#e6e7e8;stroke-width:7.14px;}.cls-3{mix-blend-mode:multiply;}.cls-4{stroke:#4d8fcc;stroke-width:21.43px;}.cls-5{fill:#414042;}</style></defs><title>Asset 75</title><g class="cls-1"><g id="Layer_2" data-name="Layer 2"><g id="Layer_1-2" data-name="Layer 1"><circle class="cls-2" cx="129.73" cy="130.05" r="118.94"/><g class="cls-3"><path class="cls-4" d="M129.54,10.72a119.14,119.14,0,1,1,0,238.27C66.37,249,15.1,201.18,10.69,138.17"/></g><path class="cls-5" d="M117.85,113.93,97.63,163.52H85.83l19.64-46.85v-.09H82.62v-9.73h35.23Z"/><path class="cls-5" d="M155.65,142.83h5.58v9.45h-5.58v11.24H144.79V152.28H121v-7.37l21-38.16h13.69Zm-22.76,0h12v-2.17l.56-22.57Z"/><path class="cls-5" d="M187.6,114.79v1.54c0,5.89-3,9.2-9,9.2s-9.14-3.2-9.14-9.2v-1.54c0-5.89,3.14-9.14,9.14-9.14S187.6,108.9,187.6,114.79Zm-11.89-.17v1.88c0,2.42,1,3.47,2.86,3.47s2.81-1,2.81-3.47v-1.88c0-2.47-.94-3.41-2.81-3.41S175.71,112.2,175.71,114.62Zm10.4,25.45h-6.94l18.45-33.76h7Zm28.14-10v1.55c0,5.83-3,9.14-9,9.14s-9.14-3.2-9.14-9.14V130c0-5.94,3.14-9.19,9.14-9.19S214.25,124.1,214.25,130Zm-11.89-.16v1.87c0,2.42,1,3.41,2.86,3.41s2.81-1,2.81-3.41v-1.87c0-2.48-.94-3.47-2.81-3.47S202.36,127.46,202.36,129.88Z"/></g></g></g></svg>