<?xml version="1.0" encoding="UTF-8"?><svg xmlns="http://www.w3.org/2000/svg" viewBox="0 0 259.32 259.32"><defs><style>.cls-1{isolation:isolate;}.cls-2,.cls-4{fill:none;stroke-miterlimit:10;}.cls-2{stroke:#e6e7e8;stroke-width:7.14px;}.cls-3{mix-blend-mode:multiply;}.cls-4{stroke:#4d8fcc;stroke-width:21.43px;}.cls-5{fill:#414042;}</style></defs><title>Asset 74</title><g class="cls-1"><g id="Layer_2" data-name="Layer 2"><g id="Layer_1-2" data-name="Layer 1"><circle class="cls-2" cx="129.66" cy="129.66" r="118.94"/><g class="cls-3"><path class="cls-4" d="M129.66,10.72A118.94,118.94,0,1,1,10.72,129.66c0-31.53,10.45-58.06,32-81.12"/></g><path class="cls-5" d="M117.54,120.16V121c0,4.91-2.27,9.54-6.33,11.71a13.48,13.48,0,0,1,8.5,12.94v1.8c0,10.76-6.61,17-18.89,17s-18.89-6.14-18.89-17v-1.8a13.57,13.57,0,0,1,8.5-12.94c-4.15-2.17-6.23-6.8-6.23-11.71v-.85c0-9.54,6.23-14.74,16.62-14.74S117.54,110.52,117.54,120.16ZM93,145v3.4c0,4.06,2.74,6.9,7.93,6.9s7.84-2.84,7.84-6.9V145c0-4.91-3-7.65-7.84-7.65C95.91,137.35,93,140.18,93,145Zm1.89-24.84v2.17c0,4.25,1.7,6,5.95,6s6-1.8,6-6v-2.17c0-4.16-2-6-6-6S94.87,116.19,94.87,120.16Z"/><path class="cls-5" d="M161.86,113.74l-20.21,49.58H129.84l19.65-46.84v-.1H126.63v-9.73h35.23Z"/><path class="cls-5" d="M188.24,114.59v1.55c0,5.89-3,9.19-9,9.19s-9.15-3.19-9.15-9.19v-1.55c0-5.89,3.14-9.14,9.15-9.14S188.24,108.7,188.24,114.59Zm-11.9-.16v1.87c0,2.42,1,3.47,2.87,3.47s2.8-1,2.8-3.47v-1.87c0-2.48-.93-3.42-2.8-3.42S176.34,112,176.34,114.43Zm10.41,25.44h-6.94l18.45-33.76h7Zm28.14-10v1.54c0,5.84-3,9.14-9,9.14s-9.14-3.19-9.14-9.14v-1.54c0-5.95,3.14-9.2,9.14-9.2S214.89,123.9,214.89,129.85ZM203,129.68v1.88c0,2.42,1,3.41,2.86,3.41s2.81-1.05,2.81-3.41v-1.88c0-2.48-.94-3.47-2.81-3.47S203,127.26,203,129.68Z"/></g></g></g></svg>