<svg xmlns="http://www.w3.org/2000/svg" viewBox="0 0 862.17 590.87"><defs><style>.cls-1{fill:#f05b40;}.cls-1,.cls-12{stroke:#be1e2d;stroke-width:2px;}.cls-1,.cls-11,.cls-12{stroke-miterlimit:10;}.cls-2{fill:#133653;}.cls-3{fill:#808083;}.cls-4{fill:#4c8ecb;}.cls-5{fill:#2e73af;}.cls-6{fill:#1a4b74;}.cls-7{fill:#404041;}.cls-11,.cls-12,.cls-8{fill:none;}.cls-9{fill:#59595c;}.cls-10{fill:#fff;}.cls-11{stroke:#fff;stroke-width:1.39px;}</style></defs><title>Asset 81</title><g id="Layer_2" data-name="Layer 2"><g id="Layer_1-2" data-name="Layer 1"><polygon class="cls-1" points="314.66 267.12 300.25 267.12 290.05 277.32 290.05 291.73 300.25 301.92 314.66 301.92 324.85 291.73 324.85 277.32 314.66 267.12"/><path class="cls-2" d="M474,358.15v.24h38.66a161.47,161.47,0,0,0,51.46-25H550A155.12,155.12,0,0,1,474,358.15Z"/><path class="cls-3" d="M51.28,520.37h25c0-71.73,58-130.16,129.5-131v-25C120.45,365.21,51.28,434.86,51.28,520.37Z"/><path class="cls-3" d="M20.28,520.37h25c0-88.82,71.86-161.16,160.5-162v-25C103.36,334.21,20.28,417.77,20.28,520.37Z"/><path class="cls-3" d="M20.28,520.37h25c0-88.82,71.86-161.16,160.5-162v-25C103.36,334.21,20.28,417.77,20.28,520.37Z"/><path class="cls-4" d="M627.91,519.52h0v60l-45-60h20c-.44-71.85-59-130.18-131-130.18v-25C557.67,364.34,627.47,433.88,627.91,519.52Z"/><path class="cls-5" d="M658.91,519.52h20l-45,60V520.33h0c0-89.32-72.67-162-162-162v-25C574.77,333.34,658.47,416.79,658.91,519.52Z"/><path class="cls-6" d="M605,389.09H566.87Q572.66,393.3,578,398h35.16Q609.23,393.42,605,389.09Z"/><path class="cls-2" d="M532.89,343.43a154.94,154.94,0,0,1-60.76,14.79v.07a161.8,161.8,0,0,1,28.2,2.46,160.75,160.75,0,0,0,40.31-14.46C548,341.65,539.39,340.75,532.89,343.43Z"/><path class="cls-7" d="M36,154.94a3.77,3.77,0,0,0,.72.67,15.33,15.33,0,0,0,3.48,5.86,7.87,7.87,0,0,0,6.08,2.88h.07a7.92,7.92,0,0,0,6.08-2.87,15.35,15.35,0,0,0,3.47-5.87,3.86,3.86,0,0,0,.73-.68,6.67,6.67,0,0,0,1.22-2.35,8.52,8.52,0,0,0,.42-2.52,5.78,5.78,0,0,0,0-.58v0h0a3.9,3.9,0,0,0-.88-2.14,3.12,3.12,0,0,0-.46-.43,1.18,1.18,0,0,0,0-.2c.62-3.42-.21-9.8-7.25-12a10.86,10.86,0,0,0-3.28-.53,9.6,9.6,0,0,0-6.9,2.94,4.27,4.27,0,0,0-3.09,1.74c-.81,1.07-1.95,3.52-.83,8.15a1.94,1.94,0,0,0-.32.32,3.77,3.77,0,0,0-.88,2.13h0a5.79,5.79,0,0,0,0,.61,8.74,8.74,0,0,0,.72,3.35A5.71,5.71,0,0,0,36,154.94ZM38,140a2.23,2.23,0,0,1,1.89-1,1,1,0,0,0,.85-.37,7.51,7.51,0,0,1,5.69-2.57,9,9,0,0,1,2.7.44,8.38,8.38,0,0,1,5.9,9.77c-.05.28-.11.55-.16.81a1.09,1.09,0,0,0,0,.26c-1.95.28-6-1.77-8.51-5.59a3.21,3.21,0,0,0-2.51-1.66c-2.08-.1-4,2.2-4.06,2.33A18.11,18.11,0,0,0,37.59,147C36.48,142.83,37.34,140.84,38,140Zm-1.65,9.65v0a2.18,2.18,0,0,1,.31-.94q.06.32.09.54c.14.85.18,1.08.54,1.08h0c.35,0,.41-.3.49-.76a17.13,17.13,0,0,1,2.6-6.64s1.71-2.09,3.38-2a2.43,2.43,0,0,1,1.89,1.3c2.65,4.06,7.11,6.39,9.48,5.9l-.27,1.29a.39.39,0,0,0,.3.46.4.4,0,0,0,.47-.3l.21-1,0,0a2,2,0,0,1,.41,1.07h0c0,.13,0,.26,0,.39A6.89,6.89,0,0,1,56,152a5,5,0,0,1-.86,1.68,1.82,1.82,0,0,1-.51.44,1,1,0,0,0-.5.62A13.41,13.41,0,0,1,51,160.15a5.87,5.87,0,0,1-4.64,2.24h-.07a5.84,5.84,0,0,1-4.64-2.25,13.09,13.09,0,0,1-3.13-5.41,1,1,0,0,0-.5-.62,1.72,1.72,0,0,1-.52-.44,4.76,4.76,0,0,1-.62-1,6.83,6.83,0,0,1-.55-2.57C36.3,149.92,36.3,149.8,36.31,149.68Z"/><path class="cls-7" d="M43,158.2a7.22,7.22,0,0,0,3.28.83,7.65,7.65,0,0,0,3.34-.83.41.41,0,0,0,.18-.53.4.4,0,0,0-.52-.18,6.32,6.32,0,0,1-5.93,0,.38.38,0,0,0-.52.17A.4.4,0,0,0,43,158.2Z"/><ellipse class="cls-7" cx="41.87" cy="150.43" rx="1.18" ry="1.57"/><ellipse class="cls-7" cx="50.36" cy="150.43" rx="1.18" ry="1.57"/><path class="cls-7" d="M45.44,155.46l.21,0a.91.91,0,0,0,.51-.16.39.39,0,0,0,.1-.55.4.4,0,0,0-.54-.1.17.17,0,0,1-.12,0,.39.39,0,0,1-.24-.18,1.32,1.32,0,0,1-.08-.79,6.06,6.06,0,0,1,.57-2,.41.41,0,0,0-.18-.53.4.4,0,0,0-.53.19,7,7,0,0,0-.64,2.21,2.06,2.06,0,0,0,.19,1.29A1.14,1.14,0,0,0,45.44,155.46Z"/><rect class="cls-7" x="41.05" y="147.37" width="0.73" height="3.24" transform="translate(-111.94 129.1) rotate(-67.08)"/><rect class="cls-7" x="49.19" y="148.63" width="3.24" height="0.73" transform="translate(-54 31.54) rotate(-22.91)"/><path class="cls-8" d="M35,166.36l2.88,2a.35.35,0,0,1,.16.26.41.41,0,0,1-.07.3l-2.19,2.84L45.22,182l-6.9-16.71Z"/><polygon class="cls-8" points="40.51 166.5 44.63 176.48 45.45 172.82 44.33 171.46 45.67 169.84 40.51 166.5"/><path class="cls-8" d="M34.93,171.56l2.14-2.79-3-2.11-4.45,1.4a3,3,0,0,0-1.95,2l-3.92,12.65h4.94v-6.13a.4.4,0,1,1,.79,0v6.13H44.83L35,172.06A.38.38,0,0,1,34.93,171.56Z"/><polygon class="cls-8" points="47.95 176.48 52.07 166.5 46.91 169.84 48.25 171.46 47.13 172.82 47.95 176.48"/><path class="cls-8" d="M54.53,168.93a.42.42,0,0,1-.08-.3.39.39,0,0,1,.17-.26l2.91-2-3.27-1-6.8,16.48,9.26-10Z"/><path class="cls-7" d="M57.81,182.75H47.63l9.89-10.69a.38.38,0,0,0,0-.5l-2.14-2.79,3.07-2.14L63,168.06a3,3,0,0,1,2,2.07l.07.23.33-.55a4.85,4.85,0,0,1,1.06-1.27,4.93,4.93,0,0,0-2.83-2.35l-9.41-3a1,1,0,0,0-.82.11l-7.07,4.58-7.06-4.58a1,1,0,0,0-.83-.11l-9.41,3a4.92,4.92,0,0,0-3.24,3.36l-4.31,13.89a1,1,0,0,0,.94,1.27H56.71a6.27,6.27,0,0,1,.29-.58Zm-28.37,0v-6.13a.4.4,0,1,0-.79,0v6.13H23.71l3.92-12.65a3,3,0,0,1,1.95-2l4.45-1.4,3,2.11-2.14,2.79a.38.38,0,0,0,0,.5l9.88,10.69Zm6.31-11,2.19-2.84a.41.41,0,0,0,.07-.3.35.35,0,0,0-.16-.26l-2.88-2,3.35-1.06L45.22,182Zm9.7,1-.82,3.66-4.12-10,5.16,3.34-1.34,1.62Zm1.46-3,5.16-3.34-4.12,10-.82-3.66,1.12-1.36Zm7.35-4.54,3.27,1-2.91,2a.39.39,0,0,0-.17.26.42.42,0,0,0,.08.3l2.19,2.84-9.26,10Z"/><path class="cls-7" d="M78.14,189.6H61.42a2.9,2.9,0,0,1-2.54-1.47,2.87,2.87,0,0,1,0-2.89l8.36-14.33a2.93,2.93,0,0,1,5.06,0l8.36,14.33a2.85,2.85,0,0,1,0,2.89A2.88,2.88,0,0,1,78.14,189.6Zm-8.36-18.31a1.1,1.1,0,0,0-1,.54l-8.36,14.33a1.06,1.06,0,0,0,0,1.06,1.09,1.09,0,0,0,1,.55H78.14a1.11,1.11,0,0,0,1-.55,1,1,0,0,0,0-1.06l-8.36-14.33A1.09,1.09,0,0,0,69.78,171.29Z"/><path class="cls-7" d="M71.52,185a1.74,1.74,0,1,1-1.74-1.73A1.73,1.73,0,0,1,71.52,185Z"/><path class="cls-7" d="M70.75,181.31a1,1,0,1,1-1.93,0l-.48-4.17a1.46,1.46,0,1,1,2.89,0Z"/><path class="cls-7" d="M43,559.47a7.22,7.22,0,0,0,3.28.83,7.65,7.65,0,0,0,3.34-.83.4.4,0,0,0,.18-.52.38.38,0,0,0-.52-.18,6.29,6.29,0,0,1-5.93,0,.38.38,0,0,0-.52.17A.39.39,0,0,0,43,559.47Z"/><ellipse class="cls-7" cx="41.87" cy="551.71" rx="1.18" ry="1.57"/><ellipse class="cls-7" cx="50.36" cy="551.71" rx="1.18" ry="1.57"/><path class="cls-7" d="M45.44,556.74l.21,0a.84.84,0,0,0,.51-.16.38.38,0,0,0,.1-.54.39.39,0,0,0-.54-.1.17.17,0,0,1-.12,0,.41.41,0,0,1-.24-.17,1.35,1.35,0,0,1-.08-.8,6.13,6.13,0,0,1,.57-2,.39.39,0,0,0-.71-.34,7.11,7.11,0,0,0-.64,2.21,2.06,2.06,0,0,0,.19,1.29A1.19,1.19,0,0,0,45.44,556.74Z"/><rect class="cls-7" x="41.05" y="548.65" width="0.73" height="3.24" transform="translate(-481.52 374.08) rotate(-67.08)"/><rect class="cls-7" x="49.19" y="549.9" width="3.24" height="0.73" transform="translate(-210.22 63.2) rotate(-22.91)"/><path class="cls-7" d="M29.44,584v-6.13a.4.4,0,0,0-.79,0V584H23.71l3.92-12.64a2.94,2.94,0,0,1,1.95-2l8.74-2.77,2.19,1.2,5.16,3.34h1.24l5.16-3.34,2.19-1.2L63,569.34a3,3,0,0,1,2,2.06l.07.24.33-.56a5,5,0,0,1,1.06-1.27,4.91,4.91,0,0,0-2.83-2.34l-9.41-3a1,1,0,0,0-.82.11l-7.07,4.58-7.06-4.58a1,1,0,0,0-.83-.11l-9.41,3a4.91,4.91,0,0,0-3.24,3.35l-4.31,13.89a1,1,0,0,0,.15.88,1,1,0,0,0,.79.39H56.71c.09-.19.18-.38.29-.57l.81-1.39Z"/><path class="cls-7" d="M78.14,590.87H61.42a2.9,2.9,0,0,1-2.53-4.36l8.36-14.32a2.93,2.93,0,0,1,5.06,0l8.36,14.32a2.9,2.9,0,0,1-2.53,4.36Zm-8.36-18.3a1.08,1.08,0,0,0-1,.54l-8.36,14.33a1,1,0,0,0,0,1,1.07,1.07,0,0,0,1,.55H78.14a1.09,1.09,0,0,0,1-.55,1,1,0,0,0,0-1l-8.36-14.33A1.07,1.07,0,0,0,69.78,572.57Z"/><path class="cls-7" d="M71.52,586.24a1.74,1.74,0,1,1-1.74-1.72A1.73,1.73,0,0,1,71.52,586.24Z"/><path class="cls-7" d="M70.75,582.59a1,1,0,1,1-1.93,0l-.48-4.17a1.46,1.46,0,1,1,2.89,0Z"/><rect class="cls-7" x="40.99" y="567.34" width="0.69" height="11.43"/><rect class="cls-7" x="40.45" y="576.26" width="1.73" height="1.73" rx="0.87"/><rect class="cls-7" x="50.8" y="567.34" width="0.69" height="11.43"/><rect class="cls-7" x="50.27" y="576.26" width="1.73" height="1.73" rx="0.87"/><path class="cls-8" d="M37.94,547.23c-.18.12-.35.24-.51.37,0,.2.1.41.16.63C37.69,547.92,37.8,547.58,37.94,547.23Z"/><path class="cls-7" d="M55,547.25c0,.12,0,.25,0,.36-.05.28-.11.54-.16.8a1.15,1.15,0,0,0,0,.26c-1.52.22-4.34-1-6.68-3.34q-.54,0-1.11,0c2.62,2.93,6.1,4.53,8.1,4.11l-.27,1.29a.39.39,0,1,0,.77.16l.21-1,0,0a1.93,1.93,0,0,1,.41,1.06v0h0c0,.12,0,.25,0,.38a7,7,0,0,1-.32,1.94,5.17,5.17,0,0,1-.86,1.68,1.77,1.77,0,0,1-.51.43,1,1,0,0,0-.5.62A13.34,13.34,0,0,1,51,561.42a5.87,5.87,0,0,1-4.64,2.24h-.07a5.85,5.85,0,0,1-4.64-2.24A13.12,13.12,0,0,1,38.49,556a1,1,0,0,0-.5-.62,1.83,1.83,0,0,1-.52-.43,4.76,4.76,0,0,1-.62-1,6.88,6.88,0,0,1-.55-2.58c0-.13,0-.26,0-.37v0a2.09,2.09,0,0,1,.31-.94q.06.3.09.54c.14.84.18,1.07.54,1.08h0c.35,0,.41-.31.49-.76A17.53,17.53,0,0,1,39,546.62a8.77,8.77,0,0,0-1.1.61c-.14.35-.25.69-.35,1-.06-.22-.11-.43-.16-.63a7.25,7.25,0,0,0-2.67,6.28,6.94,6.94,0,0,0,.3.8,5.71,5.71,0,0,0,.92,1.53,3.48,3.48,0,0,0,.72.67,15.43,15.43,0,0,0,3.48,5.87,7.87,7.87,0,0,0,6.08,2.87h.07a7.89,7.89,0,0,0,6.08-2.87,15.19,15.19,0,0,0,3.47-5.87,3.79,3.79,0,0,0,.73-.67,6.85,6.85,0,0,0,1.22-2.35,10,10,0,0,0,.26-1A6.9,6.9,0,0,0,55,547.25Z"/><path class="cls-7" d="M58.31,567.69,52,566.24l.88-1.3c1.75-2.59,5.77-10.29,3.38-14.78-1.34-2.52-4.62-3.8-9.74-3.8s-8.62,1.31-10,3.87c-2.78,5.22,3,14.08,3.08,14.17l.77,1.13-5.58,2.06-.48-.57c-3.22-3.76-6.66-15.7-1.48-24.14.38-.63.8-1.44,1.28-2.38C36.31,536.33,39.55,530,45.5,530h.43c7.81,0,11.88,6.83,14.31,10.91l.08.15c4.53,7.6,1.51,19.62-1.63,25.84Zm-2.81-2.86,1.63.38c2.69-5.8,5.23-16.5,1.34-23l-.08-.15c-2.34-3.92-5.87-9.86-12.46-9.86H45.5c-4.64,0-7.4,5.38-9.42,9.3-.49.94-.94,1.82-1.37,2.52-4.47,7.29-1.62,17.42.84,21l1.62-.6c-1.62-2.8-5.23-10.09-2.5-15.22,1.77-3.32,5.76-5,11.88-5s9.9,1.67,11.64,4.94C61,554.37,57.25,561.83,55.5,564.83Z"/><rect class="cls-5" x="360.4" y="333.39" width="108.29" height="25"/><rect class="cls-4" x="360.4" y="364.39" width="108.29" height="25"/><polygon class="cls-9" points="361.63 306.7 254.79 306.7 254.79 416.98 361.63 416.98 402.01 361.84 361.63 306.7"/><path class="cls-4" d="M569.18,358.39h293l-60-45v20H599.49A188,188,0,0,1,569.18,358.39Z"/><path class="cls-5" d="M557,364.39a185.84,185.84,0,0,1-85.91,25H802.17v20l60-45Z"/><path class="cls-5" d="M600,333.39h0a188,188,0,0,1-30.31,25h0A188,188,0,0,0,600,333.39Z"/><path class="cls-6" d="M609,333.39H597a188,188,0,0,1-30.31,25H582.2A188.06,188.06,0,0,0,609,333.39Z"/><path class="cls-4" d="M340,41.71l3.4,7.83-1.7,1.4-7-4.85,6,7.43-1.41,1.16L331.39,45l2-1.68,8,5.53L337.5,40l2-1.65,8,9.52L346.1,49Z"/><path class="cls-4" d="M351.06,37.76,352.7,40c1.29,1.76,1.2,3.43-.69,4.82s-3.5,1-4.8-.79l-1.64-2.24c-1.29-1.76-1.2-3.43.69-4.82S349.76,36,351.06,37.76ZM347,40.59,348.78,43c.69.93,1.51,1.08,2.27.52a1.49,1.49,0,0,0,.18-2.32l-1.78-2.44c-.69-.93-1.5-1.07-2.26-.51A1.49,1.49,0,0,0,347,40.59Z"/><path class="cls-4" d="M359.58,39.25l-2,1.32-7.5-6.13,1.65-1.12,6.06,5.44-2.71-7.68,1.64-1.1Z"/><path class="cls-4" d="M365.22,28.56l1.06,1.73-4,2.47.5.81c.6,1,1.29,1.13,2.37.46a15.2,15.2,0,0,0,2-1.57l.89,1.38a16.85,16.85,0,0,1-2.07,1.67c-2.21,1.35-3.62.94-4.87-1.1L359.58,32c-1.15-1.88-.89-3.49,1-4.65S364,26.64,365.22,28.56ZM361,30.81l.45.73,2.45-1.5-.42-.68A1.45,1.45,0,1,0,361,30.81Z"/><path class="cls-4" d="M373.77,28.75,378,26.49l.8,1.51-5.93,3.16-5.85-11,1.68-.89Z"/><path class="cls-4" d="M383,19l2.74,5.7-1.6.77-.6-1.26a3,3,0,0,1-1.46,2.5c-1.3.62-2.61.09-3.4-1.56l-.22-.46A2.62,2.62,0,0,1,379.92,21a11.7,11.7,0,0,1,1.7-.59l-.39-.8c-.42-.89-1-1-1.86-.6a16.46,16.46,0,0,0-2.15,1.36l-.71-1.47a18.1,18.1,0,0,1,2.24-1.41C380.79,16.5,382,16.9,383,19Zm-2.77,5,.08.17c.38.79,1,1,1.47.78a2.45,2.45,0,0,0,1-2.12l-.59-1.24a8.92,8.92,0,0,0-1.27.49A1.3,1.3,0,0,0,380.24,24Z"/><path class="cls-4" d="M386.07,14.39l2.2-1,.62,1.45-2.19.95,2,4.61c.36.83.84,1,1.54.72a7.64,7.64,0,0,0,1.35-.79l.67,1.45a7.7,7.7,0,0,1-1.41.85c-1.88.82-3,.42-3.92-1.59L385,16.59l-1.17.51-.62-1.45,1.18-.52-.7-2.38,1.43-.62Z"/><path class="cls-4" d="M397.36,13.31l.74,1.89-4.41,1.72.34.88c.42,1.08,1.07,1.34,2.26.88a15.49,15.49,0,0,0,2.22-1.19l.63,1.51a15.63,15.63,0,0,1-2.34,1.27c-2.41.94-3.72.28-4.59-1.95l-1-2.62c-.8-2-.26-3.59,1.81-4.4S396.55,11.22,397.36,13.31Zm-4.52,1.47.3.8,2.68-1-.29-.75a1.4,1.4,0,0,0-1.94-1A1.38,1.38,0,0,0,392.84,14.78Z"/><path class="cls-4" d="M402.58,7.89l.68,2a3.94,3.94,0,0,0-.69.18,2.35,2.35,0,0,0-1.53,1.9l2,5.82-1.78.61-3-8.76L399.89,9l.46,1.31A3.08,3.08,0,0,1,402.17,8,1.71,1.71,0,0,1,402.58,7.89Z"/><path class="cls-4" d="M410.69,8.65l1.85,6-1.69.52-.4-1.33a3,3,0,0,1-1.82,2.25c-1.38.42-2.59-.3-3.13-2l-.15-.49a2.63,2.63,0,0,1,2-3.41,11.84,11.84,0,0,1,1.77-.32L408.83,9c-.29-.94-.81-1.16-1.75-.87a16.53,16.53,0,0,0-2.33,1l-.48-1.56a18.68,18.68,0,0,1,2.42-1.06C408.85,5.9,410,6.48,410.69,8.65Zm-3.49,4.57.06.18c.25.84.79,1.15,1.33,1s1.05-.85,1.29-1.94l-.4-1.31a8.78,8.78,0,0,0-1.32.29A1.3,1.3,0,0,0,407.2,13.22Z"/><path class="cls-4" d="M416.49,13.62l-1.81.5L411.27,1.59l1.82-.49Z"/><path class="cls-4" d="M420.54,12.59l-1.82.45L415.58.46,417.41,0Z"/><path class="cls-4" d="M426.3,14.88l-1.82.39.41-3.68-.69.14-4.46-8.52,2-.43,3.43,7.34.56-8.2,1.91-.41Z"/><path class="cls-4" d="M654.59,122.65l-.42.19c-2.27,1-4.23.28-5.48-2.51a12.42,12.42,0,0,1-.57-1.65l-4.85,2.15-.81-1.83,12.08-5.36c.47.9,1,1.93,1.55,3.18C657.43,119.79,656.73,121.7,654.59,122.65Zm-.75-6.51L649.71,118a11.76,11.76,0,0,0,.53,1.54c.71,1.61,1.78,2.1,3.19,1.47l.29-.13c1.23-.54,1.58-1.57.79-3.35A14.41,14.41,0,0,0,653.84,116.14Z"/><path class="cls-4" d="M654.78,132l-2,.77-1.8-4.64-.93.36c-1.14.44-1.41,1.13-.93,2.37a15.8,15.8,0,0,0,1.26,2.35l-1.59.66a16,16,0,0,1-1.34-2.46c-1-2.54-.3-3.92,2-4.83l2.76-1.07c2.16-.84,3.78-.27,4.62,1.92S657,131.16,654.78,132Zm-1.54-4.77-.84.33,1.09,2.82.78-.31c1.08-.42,1.39-1.18,1.06-2A1.46,1.46,0,0,0,653.24,127.25Z"/><path class="cls-4" d="M660.49,137.56l-2.06.7a3.7,3.7,0,0,0-.19-.72,2.48,2.48,0,0,0-2-1.62L650.12,138l-.65-1.87,9.24-3.18.59,1.75-1.38.47a3.24,3.24,0,0,1,2.46,1.93A2.72,2.72,0,0,1,660.49,137.56Z"/><path class="cls-4" d="M666.27,143.51l-1.53.47a9,9,0,0,0-.27-1.24c-.22-.73-.8-1.05-1.82-.74l-.91.28.56,1.83-1.59.49-.56-1.84-7.75,2.36-.58-1.89,7.75-2.36-.39-1.29,1.59-.48.39,1.28.9-.27c2.05-.61,3.39.14,4,2A6,6,0,0,1,666.27,143.51Z"/><path class="cls-4" d="M661.23,153.3l-2.82.74c-2.22.59-3.82-.14-4.45-2.52s.4-3.81,2.62-4.4l2.82-.74c2.23-.59,3.83.15,4.46,2.52S663.46,152.71,661.23,153.3ZM660,148.24l-3,.81c-1.18.31-1.65,1-1.39,2s1,1.38,2.2,1.07l3.08-.81c1.18-.31,1.62-1.05,1.37-2S661.2,147.93,660,148.24Z"/><path class="cls-4" d="M666.36,159.66l-2.13.47a3.29,3.29,0,0,0-.1-.74,2.48,2.48,0,0,0-1.8-1.84L656,159l-.43-1.93,9.53-2.11.4,1.8-1.43.32a3.22,3.22,0,0,1,2.23,2.19A2,2,0,0,1,666.36,159.66Z"/><path class="cls-4" d="M665.5,173.87,659,175l-.33-2,6.31-1c1.29-.21,1.67-.7,1.56-1.37a2.55,2.55,0,0,0-1.73-1.66l-6.63,1.1-.33-1.95,6.31-1.05c1.29-.22,1.67-.71,1.56-1.36a2.5,2.5,0,0,0-1.73-1.65l-6.63,1.1-.33-2,9.63-1.61.3,1.82-1.4.23a3.14,3.14,0,0,1,2.06,2.26,2.29,2.29,0,0,1-1.35,2.61,3.13,3.13,0,0,1,2.17,2.32C668.66,172.4,667.67,173.51,665.5,173.87Z"/><path class="cls-4" d="M670,188.13l-.48,0a3.38,3.38,0,0,1-3.48-2.08l-5.68,3.81-.19-2.22,5.23-3.48a13.54,13.54,0,0,1-.12-1.92l-5.52.46-.17-2,13.19-1.1c.14,1.13.31,2.48.4,3.54C673.44,186.48,672.16,188,670,188.13Zm1.28-6.35-4.31.36c0,.74,0,1.1,0,1.58.16,1.85,1,2.56,2.36,2.45l.35,0c1.28-.1,1.89-.94,1.74-2.83C671.42,182.93,671.35,182.26,671.27,181.78Z"/><path class="cls-4" d="M667,197.52l-2.14.08-.18-5-1,0c-1.22,0-1.7.6-1.65,1.94a16.13,16.13,0,0,0,.41,2.62l-1.71.1a15.12,15.12,0,0,1-.46-2.76c-.1-2.72,1-3.8,3.52-3.89l3-.1c2.32-.08,3.66,1,3.74,3.33S669.34,197.44,667,197.52Zm.1-5-.9,0,.11,3,.84,0c1.16,0,1.69-.66,1.66-1.58A1.45,1.45,0,0,0,667.08,192.52Z"/><path class="cls-4" d="M670.29,205.37l-1.76-.07a9,9,0,0,0,.29-2c0-1.24-.61-1.83-1.85-1.85l-2.94-.05a1.66,1.66,0,0,0-1.93,1.79,8.44,8.44,0,0,0,.23,2h-1.76a10.06,10.06,0,0,1-.23-2.14c0-2.46,1.32-3.64,3.74-3.6l2.88,0c2.36,0,3.66,1.22,3.62,3.74A9.67,9.67,0,0,1,670.29,205.37Z"/><path class="cls-4" d="M666.53,214.46l-2.92-.14c-2.3-.11-3.6-1.29-3.48-3.75s1.53-3.51,3.83-3.4l2.91.14c2.3.11,3.6,1.3,3.48,3.75S668.82,214.57,666.53,214.46Zm.37-5.18-3.16-.16c-1.22-.05-1.89.51-1.93,1.51s.56,1.63,1.78,1.69l3.17.15c1.22.06,1.87-.51,1.92-1.51S668.12,209.33,666.9,209.28Z"/><path class="cls-4" d="M666,223.93l-6.61-.63.19-2,6.37.61c1.28.12,1.79-.27,1.86-.95a2.53,2.53,0,0,0-1.25-2.09l-6.69-.64.19-2,9.72.93-.18,1.83-1.41-.13a3.12,3.12,0,0,1,1.4,2.74C669.42,223.32,668.17,224.14,666,223.93Z"/><path class="cls-4" d="M664.65,233.54l-6.57-.95.29-2,6.33.92c1.27.18,1.81-.19,1.9-.86a2.55,2.55,0,0,0-1.14-2.15l-6.65-1,.28-2,9.66,1.4-.26,1.82-1.41-.2a3.15,3.15,0,0,1,1.27,2.81C668.11,233.09,666.83,233.86,664.65,233.54Z"/><path class="cls-4" d="M663,242.47l-6.54-1.26.35-1.83,1.44.28a3.2,3.2,0,0,1-1.2-2.8c.29-1.49,1.56-2.27,3.45-1.9l.53.1a2.76,2.76,0,0,1,2.19,3.52,13.32,13.32,0,0,1-.57,1.8l.92.18c1,.2,1.48-.18,1.68-1.2a16.83,16.83,0,0,0,.19-2.68l1.69.33a19.82,19.82,0,0,1-.21,2.77C666.48,242.12,665.37,242.92,663,242.47Zm-2.52-5.5-.2,0c-.9-.17-1.46.17-1.57.76s.28,1.4,1.17,2.16l1.41.27a9.8,9.8,0,0,0,.39-1.37A1.37,1.37,0,0,0,660.49,237Z"/><path class="cls-4" d="M655.52,245.37l.44-1.93,9.52,2.17-.44,1.93ZM668,248.45l-.55-.12c-.62-.14-.89-.66-.72-1.44s.65-1.1,1.27-1l.55.13c.66.15.91.65.74,1.42S668.65,248.6,668,248.45Z"/><path class="cls-4" d="M663.16,255l-1.66-.47a8.33,8.33,0,0,0,.75-1.83c.3-1.14,0-1.67-.56-1.82l-.14,0c-.42-.11-.67,0-1.06.51l-1.3,1.58a2.58,2.58,0,0,1-2.76,1.06l-.4-.1c-1.78-.49-2.48-1.68-1.86-4.06a10.82,10.82,0,0,1,1.08-2.45l1.7.53a9.51,9.51,0,0,0-1.07,2.34c-.3,1.14-.09,1.55.58,1.72l.16,0a1,1,0,0,0,1.23-.42l1.24-1.6a2.5,2.5,0,0,1,2.71-1.11l.27.07c1.77.51,2.46,1.72,1.85,4.06A9.55,9.55,0,0,1,663.16,255Z"/><path class="cls-4" d="M657.57,262.94,651.2,261l.55-1.78,1.39.43a3.2,3.2,0,0,1-.89-2.91c.45-1.45,1.79-2.08,3.63-1.52l.51.16a2.75,2.75,0,0,1,1.81,3.73,12.85,12.85,0,0,1-.76,1.73l.9.27c1,.31,1.49,0,1.8-1a18.26,18.26,0,0,0,.47-2.63l1.64.5a19.81,19.81,0,0,1-.5,2.73C661.05,263,659.86,263.64,657.57,262.94Zm-1.93-5.73-.19-.06c-.88-.27-1.47,0-1.64.58a2.55,2.55,0,0,0,.93,2.27l1.38.42a8.25,8.25,0,0,0,.53-1.32A1.37,1.37,0,0,0,655.64,257.21Z"/><path class="cls-4" d="M654.38,272l-6.25-2.23.67-1.86,6,2.15c1.21.43,1.81.18,2-.46a2.52,2.52,0,0,0-.69-2.33L649.83,265l.67-1.87,9.19,3.29-.62,1.73-1.34-.48a3.15,3.15,0,0,1,.69,3C657.86,272.24,656.45,272.73,654.38,272Z"/><path class="cls-4" d="M654.17,280.83l-1.62-.7a8.65,8.65,0,0,0,1-1.71,1.63,1.63,0,0,0-1-2.4l-2.72-1.11a1.65,1.65,0,0,0-2.45,1,8.77,8.77,0,0,0-.5,1.91l-1.64-.63a10.79,10.79,0,0,1,.56-2.08c.93-2.27,2.55-2.91,4.79-2l2.67,1.09c2.19.89,3,2.47,2,4.8A9.17,9.17,0,0,1,654.17,280.83Z"/><path class="cls-4" d="M647.37,287.73l-2-.89,2.08-4.53-.91-.42c-1.11-.51-1.79-.22-2.35,1a15.83,15.83,0,0,0-.81,2.54l-1.58-.68a16.33,16.33,0,0,1,.83-2.68c1.13-2.47,2.6-2.94,4.89-1.89l2.7,1.23c2.11,1,2.82,2.53,1.85,4.65S649.51,288.71,647.37,287.73Zm2.33-4.43-.81-.38-1.26,2.75.76.35a1.48,1.48,0,0,0,2.2-.67A1.45,1.45,0,0,0,649.7,283.3Z"/><path class="cls-9" d="M661.94,318.79v3c0,3.08-1.63,4.85-4.9,4.85-1.24,0-2.26,0-3.42-.11v-12.7c.91,0,2.13-.09,3.55-.09C660.23,313.78,661.94,315.57,661.94,318.79Zm-6.42-3.32v9.46c.65.06,1.14.1,1.56.1A2.74,2.74,0,0,0,660,322v-3.29c0-2.18-1.1-3.25-2.94-3.25C656.55,315.43,656,315.45,655.52,315.47Z"/><path class="cls-9" d="M666.31,314.25v.54c0,.6-.42,1-1.18,1s-1.15-.37-1.15-1v-.54c0-.64.41-1,1.15-1S666.31,313.61,666.31,314.25Zm-.23,12.2H664.2v-9.27h1.88Z"/><path class="cls-9" d="M673.23,317.18l0,1.63a8.1,8.1,0,0,0-1.86-.24c-1.12,0-1.54.36-1.54.95v.13c0,.42.19.61.72.85l1.77.82a2.44,2.44,0,0,1,1.63,2.28v.4c0,1.75-.95,2.68-3.29,2.68a10.27,10.27,0,0,1-2.5-.4l.07-1.69a9.4,9.4,0,0,0,2.42.42c1.12,0,1.44-.29,1.44-.95v-.15a1,1,0,0,0-.68-1l-1.77-.76a2.37,2.37,0,0,1-1.67-2.22v-.27c0-1.75,1-2.68,3.28-2.68A9.45,9.45,0,0,1,673.23,317.18Z"/><path class="cls-9" d="M680.35,317v2.07a3.31,3.31,0,0,0-.7-.06,2.34,2.34,0,0,0-2.07,1.3v6.15H675.7v-9.27h1.75v1.39a3.07,3.07,0,0,1,2.49-1.62A2,2,0,0,1,680.35,317Z"/><path class="cls-9" d="M688.43,326.45h-1.75v-1.29a3,3,0,0,1-2.41,1.52c-1.47,0-2.41-1-2.41-3.19v-6.31h1.88v6c0,1.24.39,1.73,1,1.73a2.38,2.38,0,0,0,1.81-1.35v-6.4h1.88Z"/><path class="cls-9" d="M697.47,320.18v3.27c0,2.07-1.1,3.23-2.79,3.23a4.38,4.38,0,0,1-2-.65V330H690.8V317.18h1.75v1.29A3,3,0,0,1,695,317C696.52,317,697.47,318,697.47,320.18Zm-4.8-.19v4.41a2.78,2.78,0,0,0,1.55.61c.92,0,1.35-.57,1.35-1.77v-2.85c0-1.27-.43-1.75-1.06-1.75A2.34,2.34,0,0,0,692.67,320Z"/><path class="cls-9" d="M701.92,317.18h2.39v1.58h-2.39v5c0,.91.36,1.27,1.12,1.27a7.87,7.87,0,0,0,1.56-.18l0,1.59a7.09,7.09,0,0,1-1.63.23c-2,0-3-.84-3-3v-4.9h-1.28v-1.58h1.3l.3-2.47h1.56Z"/><path class="cls-9" d="M717.15,316.84v.38a2.78,2.78,0,0,1-1.8,2.75,2.75,2.75,0,0,1,2.3,2.83v.4c0,2-1.37,3.48-4.54,3.48-1.12,0-1.73,0-3.54-.11v-12.7c.92,0,2.19-.09,3.42-.09C715.77,313.78,717.15,315.05,717.15,316.84Zm-5.68-1.37v3.88h1.66c1.4,0,2.11-.71,2.11-1.9v-.31c0-1.1-.69-1.73-2.45-1.73C712.37,315.41,712,315.43,711.47,315.47Zm0,5.45v4a11.14,11.14,0,0,0,1.66.1c1.86,0,2.62-.76,2.62-1.92v-.38c0-1.14-.76-1.79-2.51-1.79Z"/><path class="cls-9" d="M726,326.45h-1.75v-1.29a3,3,0,0,1-2.41,1.52c-1.46,0-2.41-1-2.41-3.19v-6.31h1.88v6c0,1.24.4,1.73,1,1.73a2.37,2.37,0,0,0,1.8-1.35v-6.4H726Z"/><path class="cls-9" d="M733.12,317.18l0,1.63a8.1,8.1,0,0,0-1.86-.24c-1.13,0-1.54.36-1.54.95v.13c0,.42.19.61.72.85l1.77.82a2.44,2.44,0,0,1,1.63,2.28v.4c0,1.75-.95,2.68-3.29,2.68a10.41,10.41,0,0,1-2.51-.4l.08-1.69a9.4,9.4,0,0,0,2.41.42c1.12,0,1.45-.29,1.45-.95v-.15a1,1,0,0,0-.69-1l-1.76-.76a2.37,2.37,0,0,1-1.67-2.22v-.27c0-1.75,1-2.68,3.28-2.68A9.45,9.45,0,0,1,733.12,317.18Z"/><path class="cls-9" d="M737.77,314.25v.54c0,.6-.42,1-1.18,1s-1.16-.37-1.16-1v-.54c0-.64.42-1,1.16-1S737.77,313.61,737.77,314.25Zm-.23,12.2h-1.88v-9.27h1.88Z"/><path class="cls-9" d="M746.61,320.14v6.31h-1.89v-6.08c0-1.21-.41-1.67-1.06-1.67a2.38,2.38,0,0,0-1.86,1.37v6.38h-1.88v-9.27h1.75v1.35a3,3,0,0,1,2.47-1.58C745.71,317,746.61,318.05,746.61,320.14Z"/><path class="cls-9" d="M755.4,320.39v2h-4.73v.95c0,1.16.51,1.64,1.79,1.64a14,14,0,0,0,2.5-.31l0,1.64a15.79,15.79,0,0,1-2.64.34c-2.58,0-3.57-1.08-3.57-3.48v-2.81c0-2.2,1.06-3.44,3.29-3.44S755.4,318.15,755.4,320.39Zm-4.75-.27V321h2.87v-.8c0-1.1-.57-1.63-1.44-1.63A1.38,1.38,0,0,0,750.65,320.12Z"/><path class="cls-9" d="M762.13,317.18l0,1.63a8.1,8.1,0,0,0-1.86-.24c-1.12,0-1.54.36-1.54.95v.13c0,.42.19.61.72.85l1.77.82a2.44,2.44,0,0,1,1.63,2.28v.4c0,1.75-.95,2.68-3.28,2.68a10.27,10.27,0,0,1-2.51-.4l.07-1.69a9.4,9.4,0,0,0,2.42.42c1.12,0,1.44-.29,1.44-.95v-.15a1,1,0,0,0-.68-1l-1.77-.76a2.37,2.37,0,0,1-1.67-2.22v-.27c0-1.75,1-2.68,3.28-2.68A9.45,9.45,0,0,1,762.13,317.18Z"/><path class="cls-9" d="M769.25,317.18l0,1.63a8,8,0,0,0-1.86-.24c-1.12,0-1.54.36-1.54.95v.13c0,.42.19.61.73.85l1.76.82a2.44,2.44,0,0,1,1.64,2.28v.4c0,1.75-1,2.68-3.29,2.68a10.34,10.34,0,0,1-2.51-.4l.08-1.69a9.33,9.33,0,0,0,2.41.42c1.12,0,1.45-.29,1.45-.95v-.15a1,1,0,0,0-.69-1l-1.77-.76A2.38,2.38,0,0,1,764,319.9v-.27c0-1.75,1-2.68,3.29-2.68A9.3,9.3,0,0,1,769.25,317.18Z"/><path class="cls-9" d="M640.67,404.59l-2.9-3.86-2.83,2.12,2.67,3.56-1.36,1-2.68-3.55-3,2.24,2.9,3.87-1.38,1-4-5.38,10-7.47,4,5.38Z"/><path class="cls-9" d="M639.41,413.1l-2.34,5.13-1.22-1.77,1.78-3.52-3.9.42-1.22-1.78,5.56-.33,2.2-4.75,1.21,1.77-1.62,3.18,3.56-.36,1.18,1.72Z"/><path class="cls-9" d="M651.56,416.92l-1.41.87a7.76,7.76,0,0,0-.72-1.7,1.16,1.16,0,0,0-1.83-.43l-.87.54,2.45,4L641.3,425l-1-1.59,6.54-4.06L645.39,417l-6.54,4-1-1.6,6.54-4.05-.67-1.08,1.34-.84.67,1.09.66-.41c1.83-1.12,3.17-.87,4.32,1A13.2,13.2,0,0,1,651.56,416.92Z"/><path class="cls-9" d="M643.26,428.48l-.93-1.64,11.25-6.45.94,1.64Z"/><path class="cls-9" d="M653.49,427.82l1.13,2.11-1.38.75-1.14-2.11L647.68,431c-.8.43-.95.92-.59,1.59a7,7,0,0,0,.91,1.28l-1.39.79a7.78,7.78,0,0,1-1-1.33c-1-1.81-.66-3,1.26-4l4.32-2.32-.6-1.13,1.39-.74.61,1.13,2.32-.9.74,1.37Z"/><path class="cls-9" d="M657.68,435.63l-1.85.92a3.12,3.12,0,0,0-.27-.65,2.32,2.32,0,0,0-2.07-1.28L648,437.35l-.83-1.68,8.3-4.13.78,1.57-1.24.62a3.06,3.06,0,0,1,2.55,1.51A1.66,1.66,0,0,1,657.68,435.63Z"/><path class="cls-9" d="M657.87,443.57l-5.76,2.61-.73-1.61,1.26-.57a3,3,0,0,1-2.46-1.51c-.6-1.32,0-2.62,1.63-3.37l.46-.21a2.64,2.64,0,0,1,3.64,1.52,12,12,0,0,1,.54,1.72l.81-.37c.91-.41,1-1,.65-1.86a16.41,16.41,0,0,0-1.33-2.17l1.49-.68a18.06,18.06,0,0,1,1.36,2.27C660.37,441.39,660,442.63,657.87,443.57Zm-5-2.88-.17.08c-.8.36-1,.93-.8,1.45s1,.93,2.09,1l1.25-.56a8.14,8.14,0,0,0-.46-1.28A1.31,1.31,0,0,0,652.89,440.69Z"/><path class="cls-9" d="M662.28,446.5l.9,2.22-1.46.6-.9-2.22-4.65,1.9c-.84.34-1,.81-.75,1.52a7.59,7.59,0,0,0,.76,1.37l-1.46.64a7.4,7.4,0,0,1-.83-1.43c-.78-1.9-.35-3.06,1.67-3.89l4.54-1.85-.48-1.18,1.46-.6.49,1.2,2.4-.65.59,1.44Z"/><path class="cls-9" d="M663,457.57l-1.91.7-1.62-4.44-.9.32c-1.08.4-1.36,1-.92,2.24a14,14,0,0,0,1.15,2.25l-1.53.6a14.89,14.89,0,0,1-1.22-2.37c-.89-2.42-.21-3.72,2-4.54l2.64-1c2.07-.75,3.6-.18,4.36,1.91S665.15,456.81,663,457.57ZM661.66,453l-.8.29,1,2.7.75-.27c1-.38,1.34-1.1,1-1.92A1.38,1.38,0,0,0,661.66,453Z"/><path class="cls-9" d="M668.52,470l-2.92.85c-3,.87-5.11-.21-6-3.34-.35-1.19-.6-2.18-.85-3.32l12.18-3.55c.29.86.68,2,1.08,3.38C672.85,466.93,671.62,469.08,668.52,470Zm1.39-7.09-9.08,2.65c.12.63.22,1.12.34,1.52a2.75,2.75,0,0,0,3.76,2l3.16-.92c2.09-.61,2.81-2,2.29-3.74C670.23,463.86,670.07,463.37,669.91,462.89Z"/><path class="cls-9" d="M669.18,478.4,663,479.87l-.41-1.72,1.35-.32a3,3,0,0,1-2.13-2c-.33-1.4.46-2.57,2.24-3l.49-.12a2.63,2.63,0,0,1,3.28,2.19,12.39,12.39,0,0,1,.21,1.78l.87-.2c1-.23,1.21-.74,1-1.7a16.8,16.8,0,0,0-.88-2.39l1.59-.38a18.27,18.27,0,0,1,.9,2.48C672.05,476.74,671.4,477.87,669.18,478.4Zm-4.34-3.77-.18,0c-.85.21-1.2.72-1.06,1.27s.79,1.1,1.86,1.41l1.33-.31a10.25,10.25,0,0,0-.21-1.34A1.3,1.3,0,0,0,664.84,474.63Z"/><path class="cls-9" d="M673,482.14l.47,2.34-1.55.31-.46-2.35-4.92,1c-.9.18-1.18.6-1,1.35a7.23,7.23,0,0,0,.49,1.49l-1.56.35a7.22,7.22,0,0,1-.54-1.56c-.4-2,.24-3.07,2.38-3.49l4.81-1-.25-1.25,1.55-.31.25,1.27,2.48-.18.3,1.52Z"/><path class="cls-9" d="M671.81,492.79l-6.25,1-.28-1.74,1.37-.22a3,3,0,0,1-2-2.11c-.23-1.43.65-2.53,2.45-2.82l.51-.08a2.63,2.63,0,0,1,3.1,2.43,11.76,11.76,0,0,1,.08,1.8l.88-.14c1-.16,1.26-.65,1.11-1.62a17,17,0,0,0-.7-2.45l1.61-.26a19.62,19.62,0,0,1,.72,2.55C674.79,491.35,674.06,492.43,671.81,492.79Zm-4-4.09-.19,0c-.86.13-1.25.62-1.16,1.18s.71,1.16,1.75,1.55l1.35-.21a10.4,10.4,0,0,0-.1-1.36A1.3,1.3,0,0,0,667.77,488.7Z"/><path class="cls-10" d="M287,344.44h-5v2.68h4.56v2.71H282v2.9h5v2.73H279V341.71H287Z"/><path class="cls-10" d="M295.91,341.81l0,2.71a23.64,23.64,0,0,0-3.21-.38c-1.09,0-1.51.44-1.51,1.2v.36c0,.59.21.86,1.09,1.15l1.78.59c2,.65,2.79,1.68,2.79,3.86v.4c0,2.61-1.36,4-4.89,4a19.42,19.42,0,0,1-3.36-.46l0-2.77a18.53,18.53,0,0,0,3.24.5c1.53,0,2-.48,2-1.24v-.46a1.06,1.06,0,0,0-.88-1.13l-2-.65c-2.12-.72-2.83-1.64-2.83-3.84v-.21c0-2.57,1.32-4,4.38-4A20.64,20.64,0,0,1,295.91,341.81Z"/><path class="cls-10" d="M306,341.83l0,2.65a17.93,17.93,0,0,0-2.83-.34c-1.73,0-2.21.51-2.21,2.12v4.62c0,1.62.53,2.1,2.21,2.1a14.51,14.51,0,0,0,2.83-.4l0,2.73a19.46,19.46,0,0,1-3.31.4c-3.51,0-4.73-1.49-4.73-4.49V346c0-3,1.26-4.49,4.73-4.49A20.62,20.62,0,0,1,306,341.83Z"/><path class="cls-10" d="M318,355.46h-3.17l-.63-2.69H310.3l-.63,2.69H306.6l4-13.75h3.46Zm-7.22-5.16h2.9l-1.45-6.2Z"/><path class="cls-10" d="M321.87,352.75h5v2.71h-7.93V341.71h3Z"/><path class="cls-10" d="M338.69,355.46h-3.17l-.63-2.69h-3.95l-.63,2.69h-3.07l4-13.75h3.47Zm-7.23-5.16h2.9l-1.45-6.2Z"/><path class="cls-10" d="M347.67,344.44H344v11h-3v-11h-3.63v-2.73h10.24Z"/><path class="cls-10" d="M356.87,344.44h-5v2.68h4.55v2.71H351.9v2.9h5v2.73h-7.93V341.71h7.93Z"/><path class="cls-10" d="M282.3,369.57V370c0,2.71-1.63,4.37-4.78,4.37a9.33,9.33,0,0,1-1.33-.1v5.18h-3V365.6c1-.06,2.59-.12,3.95-.12C280.69,365.46,282.3,367.07,282.3,369.57Zm-6.11-1.47v3.55c.47,0,.8.08,1.1.08,1.4,0,2-.63,2-1.8v-.3c0-1-.63-1.57-2.14-1.57A7.41,7.41,0,0,0,276.19,368.1Z"/><path class="cls-10" d="M292.59,369.45v.46a3.78,3.78,0,0,1-2.16,3.44l3.32,6.11h-3.28l-2.77-5.27a7.88,7.88,0,0,1-1.17,0v5.29h-3V365.58c1.24,0,3.11-.1,4-.1C291.08,365.48,292.59,367,292.59,369.45Zm-6.06-1.31v3.43c.44,0,.71.06,1,.06,1.47,0,2.06-.65,2.06-1.7v-.3c0-1-.59-1.55-2-1.55A9.94,9.94,0,0,0,286.53,368.14Z"/><path class="cls-10" d="M297.51,379.46h-3V365.71h3Z"/><path class="cls-10" d="M305.84,379.46H302.4l-3.88-13.75h3.12l2.48,11.19,2.5-11.19h3.13Z"/><path class="cls-10" d="M313.72,379.46h-3V365.71h3Z"/><path class="cls-10" d="M318.53,376.75h5v2.71h-7.93V365.71h3Z"/><path class="cls-10" d="M332.62,368.44h-5v2.68h4.56v2.71h-4.56v2.9h5v2.73h-7.94V365.71h7.94Z"/><path class="cls-10" d="M342.74,365.88l0,2.66a23.62,23.62,0,0,0-3.8-.42c-1.41,0-1.91.51-1.91,1.79v5.29c0,1.3.52,1.83,1.82,1.83a11.86,11.86,0,0,0,1.66-.15v-3.09h-1.8v-2.64h4.62v7.66a15.4,15.4,0,0,1-4.6.9c-3.45,0-4.66-1.49-4.66-4.49V370c0-3.09,1.3-4.49,4.72-4.49A25.73,25.73,0,0,1,342.74,365.88Z"/><path class="cls-10" d="M353,368.44h-5v2.68h4.56v2.71h-4.56v2.9h5v2.73h-7.94V365.71H353Z"/><path class="cls-10" d="M362,365.81l0,2.71a23.76,23.76,0,0,0-3.22-.38c-1.09,0-1.51.44-1.51,1.2v.36c0,.59.21.86,1.09,1.15l1.79.59a3.47,3.47,0,0,1,2.79,3.86v.4c0,2.61-1.36,4-4.89,4a19.42,19.42,0,0,1-3.36-.46l0-2.77a18.3,18.3,0,0,0,3.23.5c1.54,0,2-.48,2-1.24v-.46a1.06,1.06,0,0,0-.88-1.13l-2-.65c-2.12-.72-2.83-1.64-2.83-3.84v-.21c0-2.57,1.32-4,4.39-4A20.86,20.86,0,0,1,362,365.81Z"/><path class="cls-9" d="M109,361.39q-3.56,2.21-7,4.56a188.19,188.19,0,0,0,24.91,13.84c2.87-1.65,5.8-3.2,8.77-4.68A186.52,186.52,0,0,1,109,361.39Z"/><polygon class="cls-2" points="574.98 364.4 567.55 359.4 557.01 364.39 574.98 364.4"/><path class="cls-6" d="M522.13,389.09a186.37,186.37,0,0,0,51.79-24.7H557a185.71,185.71,0,0,1-83.12,24.7h-3.95c1.09,0,2.18,0,3.28,0l-.79.05c-1.28.08-2.55.16-3.83.21h10.31a136.61,136.61,0,0,1,40,8.62h49.73c-4-3.16-8.08-6.15-12.36-8.92Z"/><path class="cls-5" d="M597.18,202.4a131.14,131.14,0,0,1-131,131v25c86,0,156-70,156-156A155.89,155.89,0,0,0,558.94,77.05l-4.33,28.79A130.68,130.68,0,0,1,597.18,202.4Z"/><path class="cls-5" d="M466.19,46.41c-1.34,0-2.68,0-4,.05l-1.38,0-2.61.1-1.52.1-2.45.15-1.69.15-2.24.2-1.87.22c-.68.07-1.36.14-2,.23l-1.93.27c-.65.09-1.3.17-1.95.27s-1.31.22-2,.33l-1.87.31-2,.38-1.82.35-2,.44-1.79.39c-.69.15-1.37.33-2.06.5l-1.68.41-2.13.57-1.58.43-2.13.64-1.54.46c-.73.22-1.44.46-2.16.7-.49.16-1,.31-1.48.48-.74.25-1.48.51-2.21.78l-1.38.48-2.28.87-1.27.48-2.32.95-1.19.49-2.33,1-1.14.5-2.36,1.1-1.06.5-2.41,1.19-1,.48L393,64.7l-.9.48c-.82.44-1.63.9-2.44,1.36l-.84.47-2.48,1.46-.75.45c-.84.51-1.66,1-2.49,1.55l-.69.43c-.85.54-1.68,1.09-2.51,1.65l-.62.41c-.85.57-1.69,1.15-2.53,1.74l-.55.38c-.85.61-1.69,1.22-2.52,1.84l-.51.36c-.85.64-1.69,1.29-2.53,1.94l-.43.33c-.86.67-1.7,1.35-2.54,2l-.37.3c-.86.7-1.7,1.42-2.54,2.14l-.32.26c-.85.74-1.69,1.48-2.52,2.23l-.27.25c-.85.76-1.69,1.55-2.52,2.33l-.21.2c-.85.81-1.69,1.62-2.52,2.45l-.16.15c-.84.84-1.67,1.68-2.49,2.54l-.12.12c-.83.87-1.65,1.75-2.46,2.63l-.09.09c-.82.91-1.63,1.82-2.44,2.74l0,0c-.81.94-1.62,1.89-2.41,2.84h0a155.19,155.19,0,0,0-35.93,98.68h0v60l45-60h-20a130.37,130.37,0,0,1,28.23-80.35l0,0c.64-.81,1.29-1.62,2-2.42l0,0c.66-.78,1.32-1.57,2-2.34a.27.27,0,0,0,.07-.08c.67-.76,1.34-1.51,2-2.25l.09-.1c.68-.74,1.36-1.47,2.05-2.19l.12-.13c.68-.7,1.37-1.41,2.07-2.1l.17-.16c.68-.68,1.37-1.35,2.07-2l.21-.19c.69-.65,1.38-1.3,2.09-1.93l.25-.23,2.09-1.85L381,103c.7-.6,1.4-1.19,2.11-1.77l.34-.28c.7-.57,1.39-1.13,2.1-1.68l.4-.31c.69-.54,1.39-1.07,2.09-1.6l.45-.32c.69-.52,1.39-1,2.09-1.52l.5-.35c.69-.48,1.38-1,2.08-1.44l.55-.36L395.82,92l.61-.38,2.06-1.28c.22-.14.44-.26.66-.39.68-.41,1.36-.82,2.05-1.21l.73-.41c.67-.38,1.34-.76,2-1.13l.79-.42c.66-.35,1.33-.71,2-1,.28-.15.56-.28.84-.42.66-.33,1.33-.67,2-1l.9-.42,2-.92,1-.42,2-.85c.34-.15.69-.28,1-.42.64-.27,1.27-.53,1.91-.78l1.12-.43,1.87-.71,1.17-.41,1.84-.65,1.24-.4,1.81-.59,1.28-.38,1.81-.54,1.33-.36c.59-.16,1.18-.33,1.78-.48l1.39-.34,1.75-.43,1.44-.31,1.74-.38,1.48-.28c.57-.11,1.14-.23,1.72-.33l1.58-.26,1.65-.28,1.64-.23,1.61-.22,1.72-.2,1.56-.18,1.79-.16,1.52-.13,2-.13,1.37-.08,2.19-.09,1.16,0c1.12,0,2.24,0,3.37,0a130.39,130.39,0,0,1,83.05,29.77l4.21-28A155.1,155.1,0,0,0,466.19,46.41Z"/><path class="cls-4" d="M466.19,15.41c-1.61,0-3.22,0-4.82.06l-1.22,0c-1.19,0-2.37.08-3.56.14-.66,0-1.32.09-2,.13-.92.05-1.85.1-2.77.17l-2.18.2-2.54.22-2.24.26-2.44.28-2.33.32c-.77.11-1.55.21-2.32.33s-1.59.26-2.39.4-1.48.23-2.22.37-1.65.31-2.47.47l-2.1.4c-.84.17-1.67.36-2.51.55-.67.15-1.35.28-2,.44l-2.53.62c-.65.16-1.31.31-2,.48-.86.22-1.71.46-2.57.69l-1.88.51c-.88.25-1.75.52-2.62.78l-1.78.53c-.9.28-1.8.58-2.69.88l-1.67.54-2.72,1c-.52.19-1.06.37-1.59.57q-1.38.51-2.76,1.05l-1.5.57c-.94.37-1.87.76-2.81,1.14l-1.39.58c-1,.39-1.89.81-2.82,1.23l-1.35.58c-.95.43-1.89.88-2.83,1.33l-1.27.59c-1,.46-1.92.95-2.87,1.43l-1.18.58-2.94,1.55-1,.56c-1,.54-2,1.09-3,1.65l-1,.54c-1,.58-2,1.17-3,1.77l-.88.52c-1,.62-2,1.25-3,1.88l-.81.5c-1,.65-2,1.32-3,2l-.72.48c-1,.69-2,1.4-3.05,2.11l-.64.44c-1,.74-2.06,1.49-3.08,2.24l-.55.4c-1,.77-2.06,1.56-3.08,2.36l-.48.36C350,56,349,56.82,348,57.65l-.41.33c-1,.84-2.05,1.71-3.06,2.58l-.36.3c-1,.89-2.05,1.8-3.07,2.71l-.28.26c-1,.93-2,1.88-3.07,2.84l-.21.2c-1,1-2,2-3,3-.05,0-.11.1-.16.16-1,1-2,2-3,3.08l-.1.11q-1.52,1.57-3,3.2a.23.23,0,0,0-.07.07q-1.5,1.64-3,3.31l0,0a186.22,186.22,0,0,0-45.91,121.8h-20l45,60V202.4h0c0-89.32,72.67-162,162-162a161.07,161.07,0,0,1,92.26,28.92L591.83,64A186.27,186.27,0,0,0,466.19,15.41Z"/><path class="cls-4" d="M597.32,69.23l-32.07,5.09A161.8,161.8,0,0,1,628.18,202.4c0,89.32-72.67,162-162,162v25c103.11,0,187-83.88,187-187A186.43,186.43,0,0,0,597.32,69.23Z"/><path class="cls-9" d="M2.47,233.2l-.21-1.89,12.36-1.41.21,1.89Z"/><path class="cls-9" d="M10,241.63l-6.23.93-.28-1.86,6-.9c1.2-.18,1.59-.66,1.49-1.3a2.38,2.38,0,0,0-1.63-1.64l-6.31.95L2.79,236,12,234.57l.26,1.73-1.34.2a3,3,0,0,1,1.93,2.21C13,240.27,12.09,241.32,10,241.63Z"/><path class="cls-9" d="M13.81,245.76l.46,2.35-1.55.3-.46-2.35L7.34,247c-.9.17-1.18.59-1,1.34a7.91,7.91,0,0,0,.48,1.49l-1.56.34a7.25,7.25,0,0,1-.53-1.56c-.39-2,.26-3.07,2.4-3.48l4.82-.93L11.67,243l1.55-.3.24,1.27,2.48-.17.3,1.53Z"/><path class="cls-9" d="M13,256.93l-2,.47-1.07-4.61L9,253c-1.13.26-1.47.87-1.18,2.11a14.37,14.37,0,0,0,.87,2.37l-1.59.41a15.81,15.81,0,0,1-.93-2.49c-.59-2.52.24-3.72,2.57-4.27l2.74-.64c2.14-.5,3.59.25,4.09,2.41S15.17,256.42,13,256.93Zm-.82-4.68-.83.2.65,2.79.78-.18c1.07-.26,1.46-.93,1.26-1.78A1.39,1.39,0,0,0,12.16,252.25Z"/><path class="cls-9" d="M18.05,262.57l-2,.55a3.35,3.35,0,0,0-.14-.69,2.32,2.32,0,0,0-1.79-1.65L8.2,262.42l-.5-1.82,8.93-2.46.47,1.68-1.34.37a3.08,3.08,0,0,1,2.22,2A2.17,2.17,0,0,1,18.05,262.57Z"/><path class="cls-9" d="M17.53,271.41l-6,1.92L11,271.54l5.79-1.85c1.15-.37,1.46-.91,1.26-1.52a2.37,2.37,0,0,0-1.87-1.36l-6.08,1.95L9.48,267l8.83-2.82.53,1.66-1.28.41a3,3,0,0,1,2.25,1.87C20.29,269.59,19.52,270.77,17.53,271.41Z"/><path class="cls-9" d="M20.55,279.63l-5.93,2.21L14,280.19l1.3-.49A3,3,0,0,1,13,278c-.51-1.35.14-2.6,1.85-3.24l.48-.18a2.63,2.63,0,0,1,3.52,1.77,12.44,12.44,0,0,1,.43,1.75l.83-.32c.93-.34,1.12-.88.77-1.8a16.73,16.73,0,0,0-1.17-2.26l1.53-.57a16.94,16.94,0,0,1,1.2,2.35C23.19,277.64,22.69,278.84,20.55,279.63Zm-4.76-3.21-.18.07c-.82.3-1.1.85-.9,1.39s.91,1,2,1.17l1.28-.47a9.2,9.2,0,0,0-.37-1.31A1.3,1.3,0,0,0,15.79,276.42Z"/><path class="cls-9" d="M16.31,286l-.72-1.74,12-4.94.71,1.74Z"/><path class="cls-9" d="M31.92,294.35l-1.52-3.17-9.67,4.61-.82-1.71,9.67-4.62-1.52-3.19,1.56-.74,3.86,8.08Z"/><path class="cls-9" d="M31.36,298.85a2.86,2.86,0,0,1,2.33,1.4c.75,1.38.21,2.69-1.63,3.69l-5.55,3-.89-1.66L31,302.39c1.08-.59,1.26-1.18,1-1.73a2.4,2.4,0,0,0-2.09-1l-5.61,3-.9-1.65,11.42-6.17.89,1.65Z"/><path class="cls-9" d="M38.39,308.44l-1.78,1.06a4.46,4.46,0,0,0-.31-.63,2.35,2.35,0,0,0-2.17-1.12l-5.3,3.14-1-1.62,8-4.73.89,1.5-1.19.71a3.09,3.09,0,0,1,2.66,1.32A1.74,1.74,0,0,1,38.39,308.44Z"/><path class="cls-9" d="M39.77,316.9,38.06,318l-2.57-4-.8.52c-1,.63-1.09,1.32-.4,2.39a14.23,14.23,0,0,0,1.62,1.94l-1.36.92a17.55,17.55,0,0,1-1.72-2c-1.4-2.18-1-3.59,1-4.89l2.37-1.53c1.85-1.2,3.46-1,4.67.89S41.65,315.69,39.77,316.9Zm-2.36-4.13-.72.46,1.56,2.41.67-.43a1.4,1.4,0,0,0,.59-2.1A1.38,1.38,0,0,0,37.41,312.77Z"/><path class="cls-9" d="M44.77,323.55l-5.15,3.67-1-1.44,1.13-.8a3,3,0,0,1-2.7-1c-.84-1.17-.54-2.55.95-3.61l.42-.3a2.63,2.63,0,0,1,3.86.8,12.42,12.42,0,0,1,.86,1.58l.73-.52c.8-.57.85-1.14.27-1.94a15.87,15.87,0,0,0-1.71-1.89l1.33-.94a18.51,18.51,0,0,1,1.77,2C46.81,320.94,46.63,322.23,44.77,323.55Zm-5.43-1.87-.16.11c-.71.51-.84,1.12-.51,1.58a2.42,2.42,0,0,0,2.26.61l1.11-.79a8.62,8.62,0,0,0-.69-1.17A1.31,1.31,0,0,0,39.34,321.68Z"/><path class="cls-9" d="M49.91,325.43l1.47,1.9-1.25,1-1.46-1.89-4,3.06c-.72.56-.78,1.07-.32,1.67a7.82,7.82,0,0,0,1.1,1.12l-1.24,1a7.37,7.37,0,0,1-1.18-1.15c-1.25-1.63-1.15-2.86.58-4.19l3.89-3-.78-1,1.25-1,.79,1,2.14-1.27.95,1.23Z"/><path class="cls-9" d="M55.59,332.45l-1.28,1a8.28,8.28,0,0,0-1-1.59c-.72-.86-1.27-.95-1.72-.57l-.1.08c-.32.27-.35.54-.2,1.1l.5,1.89a2.44,2.44,0,0,1-.71,2.71l-.3.25c-1.36,1.11-2.67,1-4.16-.81a10.54,10.54,0,0,1-1.3-2.19l1.35-1a9.26,9.26,0,0,0,1.22,2.12c.72.87,1.14.93,1.65.51l.12-.1a1,1,0,0,0,.35-1.18l-.54-1.85a2.36,2.36,0,0,1,.64-2.7l.2-.17c1.37-1.09,2.7-1,4.17.81A10.23,10.23,0,0,1,55.59,332.45Z"/><path class="cls-1" d="M51.28,520.37a155.07,155.07,0,0,1,26-86.06l2.54,1.59-.3-4.88-.27-4.56-4.89,1.48-4.87,1.47,2.71,1.7a161.09,161.09,0,0,0-26.88,89.26"/><path class="cls-3" d="M76.28,202.41h-25c0,85.51,69.17,155.16,154.5,156v-25C134.24,332.57,76.28,274.14,76.28,202.41Z"/><path class="cls-3" d="M45.28,202.41h-25c0,102.61,83.08,186.16,185.5,187v-25C117.14,363.58,45.28,291.23,45.28,202.41Z"/><path class="cls-3" d="M45.28,202.41h-25c0,102.61,83.08,186.16,185.5,187v-25C117.14,363.58,45.28,291.23,45.28,202.41Z"/><path class="cls-9" d="M143.32,378.12c-3.23,1.45-6.39,3-9.5,4.68a185.65,185.65,0,0,0,39,11.2,130.94,130.94,0,0,1,33-4.59v0A186.07,186.07,0,0,1,143.32,378.12Z"/><path class="cls-9" d="M143.32,344.67c-2.59.94-5.15,1.95-7.69,3a160.66,160.66,0,0,0,40.53,13.72,162.37,162.37,0,0,1,29.62-3v0A155,155,0,0,1,143.32,344.67Z"/><path class="cls-3" d="M76.28,202.41h-25c0,85.51,69.17,155.16,154.5,156v-25C134.24,332.57,76.28,274.14,76.28,202.41Z"/><path class="cls-1" d="M51.28,202.41a155.13,155.13,0,0,0,26,86.07l2.54-1.6-.3,4.88-.27,4.56-4.89-1.48-4.87-1.47,2.71-1.7a161.09,161.09,0,0,1-26.88-89.26"/><path class="cls-11" d="M299,276.87a15.42,15.42,0,0,0,8.42-3.06,15.45,15.45,0,0,0,8.42,3.06v10.37c0,3.57-3.46,6.63-8.42,8-5-1.37-8.42-4.43-8.42-8Z"/><path class="cls-10" d="M310.87,281.1a.66.66,0,0,0-.92,0l-2.5,2.51L305,281.1a.65.65,0,0,0-.92.92l2.5,2.5L304,287a.65.65,0,1,0,.92.91l2.5-2.5,2.5,2.5a.66.66,0,0,0,.46.2.66.66,0,0,0,.46-1.11l-2.5-2.51,2.5-2.5A.64.64,0,0,0,310.87,281.1Z"/><polygon class="cls-1" points="237.45 343.38 223.04 343.38 212.84 353.57 212.84 367.99 223.04 378.18 237.45 378.18 247.64 367.99 247.64 353.57 237.45 343.38"/><path class="cls-11" d="M221.82,353.13a15.39,15.39,0,0,0,8.42-3.06,15.45,15.45,0,0,0,8.42,3.06V363.5c0,3.56-3.46,6.62-8.42,8-5-1.37-8.42-4.43-8.42-8Z"/><path class="cls-10" d="M233.66,357.36a.66.66,0,0,0-.92,0l-2.5,2.5-2.5-2.5a.65.65,0,0,0-.92.92l2.5,2.5-2.5,2.5a.66.66,0,0,0,0,.92.65.65,0,0,0,.46.19.63.63,0,0,0,.46-.19l2.5-2.5,2.5,2.5a.65.65,0,0,0,.46.19.62.62,0,0,0,.46-.19.64.64,0,0,0,0-.92l-2.5-2.5,2.5-2.5A.64.64,0,0,0,233.66,357.36Z"/><polyline class="cls-12" points="290.11 289.03 285.64 279.42 281.17 289.03 276.7 279.42 272.23 289.03 267.76 279.42 263.29 289.03 258.82 279.42 254.35 289.03"/><polyline class="cls-12" points="360.73 289.03 356.26 279.42 351.79 289.03 347.32 279.42 342.85 289.03 338.38 279.42 333.91 289.03 329.44 279.42 324.97 289.03"/><polyline class="cls-12" points="234.4 378.32 224.78 382.79 234.4 387.26 224.78 391.73 234.4 396.2 224.78 400.67 234.4 405.14 224.78 409.61 234.4 414.08"/><polyline class="cls-12" points="234.4 307.7 224.78 312.17 234.4 316.64 224.78 321.11 234.4 325.58 224.78 330.05 234.4 334.52 224.78 338.99 234.4 343.46"/><path class="cls-9" d="M2.79,485.11,2,489.88l3.49.57.71-4.39,1.69.27-.71,4.39,3.69.6.78-4.76,1.7.27-1.08,6.64L0,491.48l1.08-6.64Z"/><path class="cls-9" d="M9.81,480.08l5.32-1.86-.44,2.1-3.77,1.16,3,2.53-.44,2.1L9.4,482.33,4.45,484l.43-2.1,3.42-1-2.72-2.31.43-2Z"/><path class="cls-9" d="M7,472.69l.58-2.32,1.53.38-.58,2.32,4.87,1.21c.88.22,1.32,0,1.5-.78a7.6,7.6,0,0,0,.19-1.55l1.56.35a7.36,7.36,0,0,1-.17,1.64c-.5,2-1.53,2.67-3.65,2.14L8,474.9l-.3,1.23-1.53-.38.31-1.25-2.32-.89.37-1.52Z"/><path class="cls-9" d="M12.92,463.24l1.95.57-1.32,4.54.91.27c1.11.32,1.71,0,2.07-1.26a15.37,15.37,0,0,0,.41-2.49l1.58.42a16.14,16.14,0,0,1-.41,2.63c-.73,2.48-2,3.13-4.34,2.46l-2.7-.79c-2.12-.61-3-2-2.39-4.12S10.76,462.61,12.92,463.24Zm-1.59,4.49.82.24.81-2.76-.77-.22a1.44,1.44,0,1,0-.86,2.74Z"/><path class="cls-9" d="M11.73,456l2,.66a3.27,3.27,0,0,0-.27.65,2.34,2.34,0,0,0,.57,2.37l5.84,1.94-.59,1.78-8.8-2.92L11,458.8l1.32.44a3.06,3.06,0,0,1-.75-2.87A3.37,3.37,0,0,1,11.73,456Z"/><path class="cls-9" d="M17.55,449.38l5.9,2.22-.66,1.76-5.69-2.14c-1.14-.43-1.71-.2-1.94.41a2.38,2.38,0,0,0,.63,2.22l6,2.25-.66,1.76-8.68-3.27L13,453l1.26.47a3,3,0,0,1-.61-2.86C14.25,449.09,15.59,448.64,17.55,449.38Z"/><path class="cls-9" d="M20.82,441.6l5.81,2.49-.7,1.63-1.27-.55A3,3,0,0,1,25.2,448c-.57,1.32-1.91,1.78-3.58,1.06l-.47-.2a2.62,2.62,0,0,1-1.32-3.71,11.27,11.27,0,0,1,.89-1.56l-.82-.35c-.91-.39-1.41-.13-1.8.78a17.24,17.24,0,0,0-.72,2.44l-1.5-.64a18,18,0,0,1,.76-2.53C17.53,441.22,18.72,440.7,20.82,441.6Zm1.23,5.61.17.08c.8.34,1.39.14,1.61-.39a2.41,2.41,0,0,0-.65-2.24l-1.25-.54a8.94,8.94,0,0,0-.64,1.19A1.31,1.31,0,0,0,22.05,447.21Z"/><path class="cls-9" d="M28.28,440.56l-.8,1.71-11.75-5.51.8-1.7Z"/><path class="cls-9" d="M25,423.59l-1.66,3.1,9.45,5.05-.89,1.68-9.45-5.05-1.67,3.11-1.52-.81,4.22-7.89Z"/><path class="cls-9" d="M29.11,421.69a2.87,2.87,0,0,1,0-2.72c.81-1.35,2.22-1.55,4-.48l5.41,3.24-1,1.61-5.21-3.12c-1.06-.63-1.66-.48-2,.06a2.39,2.39,0,0,0,.22,2.29l5.47,3.28-1,1.61L24,420.8l1-1.61Z"/><path class="cls-9" d="M34.22,411,36,412.14a3.77,3.77,0,0,0-.44.56,2.38,2.38,0,0,0-.05,2.44l5.16,3.36-1,1.58L31.84,415l.95-1.47,1.16.76a3.08,3.08,0,0,1,0-3A2.11,2.11,0,0,1,34.22,411Z"/><path class="cls-9" d="M41.52,406.52l1.66,1.17-2.73,3.86.78.55c1,.67,1.63.53,2.36-.51a14.76,14.76,0,0,0,1.2-2.23l1.36.91a15.65,15.65,0,0,1-1.25,2.36c-1.49,2.11-2.94,2.29-4.89.91l-2.3-1.62c-1.8-1.27-2.2-2.85-.92-4.67S39.69,405.23,41.52,406.52Zm-3,3.73.7.49,1.66-2.35-.65-.46a1.45,1.45,0,1,0-1.71,2.32Z"/><path class="cls-9" d="M46.16,400l5,3.87-1.08,1.4L49,404.43a3,3,0,0,1-.19,2.88c-.88,1.14-2.29,1.26-3.73.14l-.41-.31a2.64,2.64,0,0,1-.36-3.93,12.64,12.64,0,0,1,1.26-1.28l-.71-.55c-.78-.6-1.33-.48-1.93.31a17.48,17.48,0,0,0-1.31,2.18l-1.29-1a17.7,17.7,0,0,1,1.36-2.26C43.07,398.82,44.36,398.62,46.16,400Zm-.2,5.74.15.12c.69.53,1.3.48,1.65,0a2.42,2.42,0,0,0-.07-2.33l-1.08-.84a7.93,7.93,0,0,0-.91,1A1.29,1.29,0,0,0,46,405.75Z"/><path class="cls-9" d="M46.73,394.71l1.53-1.84,1.21,1-1.53,1.84,3.85,3.21c.7.59,1.21.54,1.7,0a8.29,8.29,0,0,0,.85-1.32l1.25,1a7.58,7.58,0,0,1-.87,1.4c-1.32,1.58-2.55,1.74-4.22.34l-3.77-3.14-.81,1-1.21-1,.83-1-1.71-1.81,1-1.2Z"/><path class="cls-9" d="M52.66,387.9,53.85,389a8.36,8.36,0,0,0-1.42,1.22c-.75.84-.76,1.39-.32,1.78l.1.09c.31.28.58.27,1.12,0l1.79-.77a2.45,2.45,0,0,1,2.78.3l.3.27c1.29,1.18,1.36,2.49-.19,4.24a10.76,10.76,0,0,1-2,1.6l-1.21-1.18a9.6,9.6,0,0,0,1.92-1.52c.74-.84.75-1.27.25-1.71l-.11-.11a1,1,0,0,0-1.22-.17l-1.75.81a2.38,2.38,0,0,1-2.77-.23l-.2-.18c-1.27-1.2-1.33-2.52.2-4.24A10,10,0,0,1,52.66,387.9Z"/></g></g></svg>