<svg xmlns="http://www.w3.org/2000/svg" viewBox="0 0 74.63 70"><defs><style>.cls-1{fill:#616161;}</style></defs><title>Asset 26</title><g id="Layer_2" data-name="Layer 2"><g id="Layer_3" data-name="Layer 3"><path class="cls-1" d="M42.11,22.42H21.33a.55.55,0,0,0,0,1.1H42.11a.55.55,0,1,0,0-1.1Z"/><path class="cls-1" d="M42.66,33.91a.55.55,0,0,0-.55-.55H21.33a.55.55,0,1,0,0,1.09H42.11A.55.55,0,0,0,42.66,33.91Z"/><path class="cls-1" d="M18.09,20.6a1.08,1.08,0,0,0-1.54,0l-5.21,5.21L9.91,24.38a1.09,1.09,0,0,0-1.54,1.55l2.2,2.2a1.09,1.09,0,0,0,1.54,0l6-6A1.09,1.09,0,0,0,18.09,20.6Z"/><path class="cls-1" d="M18.09,31.54a1.08,1.08,0,0,0-1.54,0l-5.21,5.21L9.91,35.32a1.08,1.08,0,0,0-1.54,0,1.09,1.09,0,0,0,0,1.55l2.2,2.2a1.09,1.09,0,0,0,1.54,0l6-6A1.09,1.09,0,0,0,18.09,31.54Z"/><path class="cls-1" d="M18.09,42.48a1.08,1.08,0,0,0-1.54,0l-5.21,5.2L9.91,46.26A1.09,1.09,0,0,0,8.37,47.8l2.2,2.2a1.09,1.09,0,0,0,1.54,0l6-6A1.08,1.08,0,0,0,18.09,42.48Z"/><path class="cls-1" d="M21.33,26.8h9.84a.55.55,0,1,0,0-1.1H21.33a.55.55,0,0,0,0,1.1Z"/><path class="cls-1" d="M21.33,37.73h9.84a.55.55,0,0,0,.55-.54.55.55,0,0,0-.55-.55H21.33a.55.55,0,0,0-.55.55A.55.55,0,0,0,21.33,37.73Z"/><path class="cls-1" d="M21.33,48.67h9.84a.55.55,0,1,0,0-1.09H21.33a.55.55,0,1,0,0,1.09Z"/><path class="cls-1" d="M21.33,58.52a.55.55,0,0,0-.55.54.55.55,0,0,0,.55.55h9.84a.55.55,0,0,0,.55-.55.55.55,0,0,0-.55-.54Z"/><path class="cls-1" d="M16.55,53.41l-5.21,5.21L9.91,57.2a1.09,1.09,0,1,0-1.54,1.54l2.2,2.2a1.09,1.09,0,0,0,1.54,0l6-6a1.09,1.09,0,0,0-1.54-1.55Z"/><path class="cls-1" d="M38.55,55.23H21.33a.55.55,0,0,0,0,1.1H38.57Z"/><path class="cls-1" d="M50.31,54.46V66.72h-47V3.28H36.35V16.15a1.09,1.09,0,0,0,1.1,1.09H50.31v10a15,15,0,0,1,3.28-.84V16.15A1.63,1.63,0,0,0,53.11,15L38.61.48A1.64,1.64,0,0,0,37.45,0H1.64A1.63,1.63,0,0,0,0,1.64V68.36A1.63,1.63,0,0,0,1.64,70H52a1.63,1.63,0,0,0,1.64-1.64V55.3A14,14,0,0,1,50.31,54.46ZM38.54,5.05l10,10h-10Z"/><path class="cls-1" d="M41.37,44.3h-20a.55.55,0,1,0,0,1.09H41.67C41.55,45,41.46,44.67,41.37,44.3Z"/><path class="cls-1" d="M55.51,54.21A13.34,13.34,0,1,1,68.85,40.87,13.35,13.35,0,0,1,55.51,54.21Zm0-24A10.67,10.67,0,1,0,66.18,40.87,10.69,10.69,0,0,0,55.51,30.2Z"/><path class="cls-1" d="M63.7,41.32a.45.45,0,0,1-.45-.45,7.75,7.75,0,0,0-7.74-7.74.45.45,0,0,1,0-.89,8.64,8.64,0,0,1,8.63,8.63A.45.45,0,0,1,63.7,41.32Z"/><path class="cls-1" d="M72.85,60a1.82,1.82,0,0,1-1.26-.52L63.15,51a1.77,1.77,0,0,1,2.51-2.51L74.11,57a1.78,1.78,0,0,1-1.26,3Z"/></g></g></svg>