<svg xmlns="http://www.w3.org/2000/svg" viewBox="0 0 67.83 68.2"><defs><style>.cls-1{fill:#666;}.cls-2{fill:#878589;}</style></defs><title>Authorize</title><g id="Layer_2" data-name="Layer 2"><g id="Layer_1-2" data-name="Layer 1"><path class="cls-1" d="M61.43,20.78a1.6,1.6,0,0,1-1.6-1.6V9.06a.53.53,0,0,0-.53-.53H30.53a1.6,1.6,0,0,1-1.13-.47L24.54,3.2H8.15a.53.53,0,0,0-.53.53V19.18a1.6,1.6,0,0,1-3.2,0V3.73A3.73,3.73,0,0,1,8.15,0h17a1.6,1.6,0,0,1,1.13.47l4.86,4.86H59.3A3.73,3.73,0,0,1,63,9.06V19.18A1.6,1.6,0,0,1,61.43,20.78Z"/><path class="cls-2" d="M56.11,19.71H11.35a.53.53,0,0,1-.53-.53V12.79a.53.53,0,0,1,.53-.53H56.11a.53.53,0,0,1,.53.53v6.39A.53.53,0,0,1,56.11,19.71ZM11.88,18.65H55.57V13.32H11.88Z"/><path class="cls-1" d="M28.4,49.55c0-.54,0-1.07.07-1.6H7.84a.53.53,0,0,1-.53-.45L3.2,21.93a.53.53,0,0,1,.53-.62h60a.53.53,0,0,1,.53.62L62.39,33.52a21,21,0,0,1,2.79,2.79l2.23-13.87a3.73,3.73,0,0,0-3.68-4.32h-60A3.73,3.73,0,0,0,0,22.44L4.16,48a3.71,3.71,0,0,0,3.68,3.14H28.47C28.43,50.62,28.4,50.09,28.4,49.55Z"/><path class="cls-1" d="M49.18,30.9A18.65,18.65,0,1,0,67.83,49.55,18.67,18.67,0,0,0,49.18,30.9Zm0,34.53A15.88,15.88,0,1,1,65.06,49.55,15.9,15.9,0,0,1,49.18,65.43Z"/><path class="cls-1" d="M58.09,43a1.38,1.38,0,0,0-2,0L45.88,53.21l-3.67-3.66a1.38,1.38,0,1,0-2,2l5.62,5.62L58.09,44.91A1.38,1.38,0,0,0,58.09,43Z"/></g></g></svg>