<svg xmlns="http://www.w3.org/2000/svg" viewBox="0 0 48.77 48.77"><defs><style>.cls-1{fill:#58595b;}</style></defs><title>Banks</title><g id="Layer_2" data-name="Layer 2"><g id="Layer_1-2" data-name="Layer 1"><path class="cls-1" d="M47.55,48.77H1.22A1.22,1.22,0,0,1,0,47.55V41.37a1.21,1.21,0,0,1,1.22-1.21H47.55a1.22,1.22,0,0,1,1.22,1.21v6.18A1.22,1.22,0,0,1,47.55,48.77ZM2.43,46.34H46.34V42.59H2.43Z"/><path class="cls-1" d="M42.15,38.39H34.42a.87.87,0,0,1-.87-.88V17.43a.87.87,0,0,1,.87-.87h7.73a.87.87,0,0,1,.87.87V37.51A.87.87,0,0,1,42.15,38.39ZM35.3,36.64h6V18.31h-6Z"/><path class="cls-1" d="M14.34,38.39H6.62a.87.87,0,0,1-.87-.88V17.43a.87.87,0,0,1,.87-.87h7.72a.87.87,0,0,1,.88.87V37.51A.87.87,0,0,1,14.34,38.39ZM7.5,36.64h6V18.31h-6Z"/><path class="cls-1" d="M28.24,38.39H20.52a.87.87,0,0,1-.87-.88V17.43a.87.87,0,0,1,.87-.87h7.72a.87.87,0,0,1,.88.87V37.51A.87.87,0,0,1,28.24,38.39ZM21.4,36.64h6V18.31h-6Z"/><path class="cls-1" d="M47.55,14.79H1.22A1.22,1.22,0,0,1,0,13.57V9.51A1.22,1.22,0,0,1,.81,8.36L24,.07a1.28,1.28,0,0,1,.82,0L48,8.36a1.23,1.23,0,0,1,.81,1.15v4.06A1.22,1.22,0,0,1,47.55,14.79ZM2.43,12.36H46.34v-2l-22-7.85L2.43,10.36Z"/><path class="cls-1" d="M24.38,10.39a3,3,0,1,1,3-3A3,3,0,0,1,24.38,10.39Zm0-4.64A1.64,1.64,0,1,0,26,7.39,1.65,1.65,0,0,0,24.38,5.75Z"/></g></g></svg>
