<svg xmlns="http://www.w3.org/2000/svg" viewBox="0 0 32.92 44.57"><defs><style>.cls-1{fill:#fff;}</style></defs><title>Case_Study</title><g id="Layer_2" data-name="Layer 2"><g id="Layer_1-2" data-name="Layer 1"><path class="cls-1" d="M30.73,42.38H2.19V2.19h19.2V10.8a.73.73,0,0,0,.73.73h8.61Zm-7.88-39,6.69,6.69H22.85ZM1.1,0A1.1,1.1,0,0,0,0,1.1V43.47a1.1,1.1,0,0,0,1.1,1.1H31.83a1.09,1.09,0,0,0,1.09-1.1V10.8A1.06,1.06,0,0,0,32.6,10L22.9.32A1.14,1.14,0,0,0,22.12,0Z"/><path class="cls-1" d="M26.34,18.83H6.58a.36.36,0,0,0-.36.36.37.37,0,0,0,.36.37H26.34a.37.37,0,0,0,.36-.37A.36.36,0,0,0,26.34,18.83Z"/><path class="cls-1" d="M26.34,22.48H6.58a.37.37,0,0,0-.36.37.36.36,0,0,0,.36.36H26.34a.36.36,0,0,0,.36-.36A.37.37,0,0,0,26.34,22.48Z"/><path class="cls-1" d="M26.34,26.14H6.58a.37.37,0,0,0-.36.37.36.36,0,0,0,.36.36H26.34a.36.36,0,0,0,.36-.36A.37.37,0,0,0,26.34,26.14Z"/><path class="cls-1" d="M26.34,29.8H6.58a.37.37,0,0,0,0,.73H26.34a.37.37,0,0,0,0-.73Z"/><path class="cls-1" d="M15.36,33.46H6.58a.37.37,0,0,0,0,.73h8.78a.37.37,0,1,0,0-.73Z"/></g></g></svg>