<svg xmlns="http://www.w3.org/2000/svg" viewBox="0 0 104.87 64"><defs><style>.cls-1{fill:#878589;}.cls-2{fill:#394d54;}.cls-3{fill:#666;}</style></defs><title>Containers</title><g id="Layer_2" data-name="Layer 2"><g id="Layer_1-2" data-name="Layer 1"><rect class="cls-1" x="47.96" y="45.15" width="1" height="14.57"/><rect class="cls-1" x="53.26" y="45.15" width="1" height="14.57"/><rect class="cls-1" x="50.61" y="45.15" width="1" height="14.57"/><rect class="cls-1" x="55.91" y="45.15" width="1" height="14.57"/><rect class="cls-1" x="27.79" y="24.98" width="1" height="14.57"/><rect class="cls-1" x="58.55" y="45.15" width="0.97" height="14.57"/><rect class="cls-1" x="30.44" y="24.98" width="1" height="14.57"/><rect class="cls-1" x="25.19" y="24.98" width="0.96" height="14.57"/><rect class="cls-1" x="50.61" y="24.98" width="1" height="14.57"/><rect class="cls-1" x="47.96" y="24.98" width="1" height="14.57"/><rect class="cls-1" x="53.26" y="24.98" width="1" height="14.57"/><rect class="cls-1" x="55.91" y="24.98" width="1" height="14.57"/><rect class="cls-1" x="58.55" y="24.98" width="0.97" height="14.57"/><rect class="cls-1" x="45.36" y="45.15" width="0.96" height="14.57"/><rect class="cls-1" x="33.09" y="24.98" width="1" height="14.57"/><rect class="cls-2" x="7.63" y="45.15" width="1" height="14.57"/><rect class="cls-2" x="5.02" y="45.15" width="0.97" height="14.57"/><rect class="cls-1" x="10.27" y="45.15" width="1" height="14.57"/><rect class="cls-1" x="38.38" y="45.15" width="0.97" height="14.57"/><rect class="cls-1" x="12.92" y="45.15" width="1" height="14.57"/><rect class="cls-1" x="18.21" y="45.15" width="0.97" height="14.57"/><rect class="cls-1" x="15.57" y="45.15" width="1" height="14.57"/><rect class="cls-1" x="33.09" y="45.15" width="1" height="14.57"/><rect class="cls-1" x="38.38" y="24.98" width="0.97" height="14.57"/><rect class="cls-1" x="35.74" y="24.98" width="1" height="14.57"/><rect class="cls-1" x="25.19" y="45.15" width="0.96" height="14.57"/><rect class="cls-1" x="45.36" y="24.98" width="0.96" height="14.57"/><rect class="cls-1" x="35.74" y="45.15" width="1" height="14.57"/><rect class="cls-1" x="30.44" y="45.15" width="1" height="14.57"/><rect class="cls-1" x="27.79" y="45.15" width="1" height="14.57"/><rect class="cls-1" x="76.07" y="45.15" width="1" height="14.57"/><rect class="cls-1" x="68.13" y="4.82" width="1" height="14.57"/><rect class="cls-1" x="98.88" y="45.15" width="0.97" height="14.57"/><rect class="cls-1" x="70.78" y="4.82" width="1" height="14.57"/><rect class="cls-1" x="65.53" y="4.82" width="0.97" height="14.57"/><rect class="cls-1" x="73.42" y="4.82" width="1" height="14.57"/><rect class="cls-1" x="76.07" y="4.82" width="1" height="14.57"/><rect class="cls-1" x="90.94" y="45.15" width="1" height="14.57"/><rect class="cls-1" x="85.69" y="45.15" width="0.97" height="14.57"/><rect class="cls-1" x="88.29" y="45.15" width="1" height="14.57"/><rect class="cls-1" x="96.24" y="45.15" width="1" height="14.57"/><rect class="cls-1" x="93.59" y="45.15" width="1" height="14.57"/><rect class="cls-1" x="78.71" y="4.82" width="0.97" height="14.57"/><rect class="cls-1" x="65.53" y="24.98" width="0.97" height="14.57"/><rect class="cls-1" x="68.13" y="45.15" width="1" height="14.57"/><rect class="cls-1" x="65.53" y="45.15" width="0.97" height="14.57"/><rect class="cls-2" x="78.71" y="24.98" width="0.97" height="14.57"/><rect class="cls-1" x="76.07" y="24.98" width="1" height="14.57"/><rect class="cls-1" x="70.78" y="45.15" width="1" height="14.57"/><rect class="cls-1" x="78.71" y="45.15" width="0.97" height="14.57"/><rect class="cls-1" x="73.42" y="45.15" width="1" height="14.57"/><rect class="cls-1" x="73.42" y="24.98" width="1" height="14.57"/><rect class="cls-1" x="68.13" y="24.98" width="1" height="14.57"/><rect class="cls-1" x="70.78" y="24.98" width="1" height="14.57"/><rect class="cls-1" x="53.26" y="45.15" width="1" height="14.57"/><rect class="cls-1" x="55.91" y="45.15" width="1" height="14.57"/><rect class="cls-1" x="50.61" y="45.15" width="1" height="14.57"/><rect class="cls-1" x="25.19" y="24.98" width="0.96" height="14.57"/><rect class="cls-1" x="27.79" y="24.98" width="1" height="14.57"/><rect class="cls-1" x="47.96" y="45.15" width="1" height="14.57"/><rect class="cls-1" x="18.21" y="45.15" width="0.97" height="14.57"/><rect class="cls-1" x="50.61" y="24.98" width="1" height="14.57"/><rect class="cls-1" x="30.44" y="24.98" width="1" height="14.57"/><rect class="cls-1" x="45.36" y="45.15" width="0.96" height="14.57"/><rect class="cls-1" x="47.96" y="24.98" width="1" height="14.57"/><rect class="cls-1" x="45.36" y="24.98" width="0.96" height="14.57"/><rect class="cls-1" x="53.26" y="24.98" width="1" height="14.57"/><rect class="cls-1" x="58.55" y="24.98" width="0.97" height="14.57"/><rect class="cls-1" x="55.91" y="24.98" width="1" height="14.57"/><rect class="cls-1" x="58.55" y="45.15" width="0.97" height="14.57"/><rect class="cls-1" x="5.02" y="45.15" width="0.97" height="14.57"/><rect class="cls-1" x="7.63" y="45.15" width="1" height="14.57"/><rect class="cls-1" x="38.38" y="45.15" width="0.97" height="14.57"/><rect class="cls-1" x="33.09" y="24.98" width="1" height="14.57"/><rect class="cls-1" x="15.57" y="45.15" width="1" height="14.57"/><rect class="cls-1" x="10.27" y="45.15" width="1" height="14.57"/><rect class="cls-1" x="12.92" y="45.15" width="1" height="14.57"/><rect class="cls-1" x="35.74" y="45.15" width="1" height="14.57"/><rect class="cls-1" x="25.19" y="45.15" width="0.96" height="14.57"/><rect class="cls-1" x="38.38" y="24.98" width="0.97" height="14.57"/><rect class="cls-1" x="33.09" y="45.15" width="1" height="14.57"/><rect class="cls-1" x="35.74" y="24.98" width="1" height="14.57"/><rect class="cls-1" x="27.79" y="45.15" width="1" height="14.57"/><rect class="cls-1" x="30.44" y="45.15" width="1" height="14.57"/><rect class="cls-1" x="76.07" y="45.15" width="1" height="14.57"/><rect class="cls-1" x="70.78" y="4.82" width="1" height="14.57"/><rect class="cls-1" x="73.42" y="4.82" width="1" height="14.57"/><rect class="cls-1" x="65.53" y="4.82" width="0.97" height="14.57"/><rect class="cls-1" x="68.13" y="4.82" width="1" height="14.57"/><rect class="cls-1" x="65.53" y="24.98" width="0.97" height="14.57"/><rect class="cls-1" x="78.71" y="4.82" width="0.97" height="14.57"/><rect class="cls-1" x="76.07" y="4.82" width="1" height="14.57"/><rect class="cls-1" x="98.88" y="45.15" width="0.97" height="14.57"/><rect class="cls-1" x="90.94" y="45.15" width="1" height="14.57"/><rect class="cls-1" x="85.69" y="45.15" width="0.97" height="14.57"/><rect class="cls-1" x="88.29" y="45.15" width="1" height="14.57"/><rect class="cls-1" x="93.59" y="45.15" width="1" height="14.57"/><rect class="cls-1" x="96.24" y="45.15" width="1" height="14.57"/><rect class="cls-1" x="70.78" y="45.15" width="1" height="14.57"/><rect class="cls-1" x="78.71" y="45.15" width="0.97" height="14.57"/><rect class="cls-1" x="68.13" y="45.15" width="1" height="14.57"/><rect class="cls-1" x="65.53" y="45.15" width="0.97" height="14.57"/><rect class="cls-1" x="78.71" y="24.98" width="0.97" height="14.57"/><rect class="cls-1" x="73.42" y="45.15" width="1" height="14.57"/><rect class="cls-1" x="70.78" y="24.98" width="1" height="14.57"/><rect class="cls-1" x="73.42" y="24.98" width="1" height="14.57"/><rect class="cls-1" x="76.07" y="24.98" width="1" height="14.57"/><rect class="cls-1" x="68.13" y="24.98" width="1" height="14.57"/><path class="cls-3" d="M84.7,40.33V0H60.5V20.17H20.17V40.33H0V64H104.87V40.33ZM20.84,61.17H3.36V43.7H20.84Zm20.17,0H23.53V43.7H41ZM41,41H23.53V23.53H41ZM61.17,61.17H43.7V43.7H61.17Zm0-20.17H43.7V23.53H61.17ZM81.34,61.17H63.86V43.7H81.34Zm0-20.17H63.86V23.53H81.34Zm0-20.17H63.86V3.36H81.34Zm20.17,40.33H84V43.7h17.48Z"/></g></g></svg>