<svg xmlns="http://www.w3.org/2000/svg" viewBox="0 0 54.17 55"><defs><style>.cls-1{fill:#58595b;}</style></defs><title>Customers</title><g id="Layer_2" data-name="Layer 2"><g id="Layer_1-2" data-name="Layer 1"><path class="cls-1" d="M54.12,53.62,49.45,38.53a5.36,5.36,0,0,0-3.54-3.68L35.67,31.61a1.1,1.1,0,0,0-.9.12l-7.69,5-7.68-5a1.1,1.1,0,0,0-.9-.12L8.26,34.85A5.34,5.34,0,0,0,4.73,38.5L.05,53.62a1.08,1.08,0,0,0,.16,1,1.07,1.07,0,0,0,.86.43h52a1.06,1.06,0,0,0,1-1.38ZM36.05,37.83l2.38,3.09L28.36,51.82l7.4-17.94L39.32,35l-3.18,2.22a.45.45,0,0,0-.18.28A.49.49,0,0,0,36.05,37.83ZM17.9,37.22,14.77,35l3.64-1.15,7.5,18.18L15.61,40.92,18,37.83a.43.43,0,0,0,.08-.33A.41.41,0,0,0,17.9,37.22Zm11,8.82-.89-4,1.22-1.48-1.46-1.76,5.62-3.64Zm-2.72-4-.89,4L20.79,35.18l5.62,3.64L25,40.58Zm-19.39-3a3.18,3.18,0,0,1,2.13-2.21l4.83-1.53,3.31,2.3-2.33,3a.42.42,0,0,0,0,.55L25.5,52.87H8.74V46.19a.43.43,0,0,0-.85,0v6.68H2.51Zm39.5,13.77V46.19a.43.43,0,0,0-.85,0v6.68H28.55L39.3,41.24a.42.42,0,0,0,0-.55l-2.32-3,3.34-2.33,4.92,1.56a3.2,3.2,0,0,1,2.14,2.24l4.26,13.74Z"/><path class="cls-1" d="M15.86,22.61a4.5,4.5,0,0,0,.79.73,16.85,16.85,0,0,0,3.78,6.38,8.59,8.59,0,0,0,6.62,3.12h.07a8.59,8.59,0,0,0,6.62-3.12,16.78,16.78,0,0,0,3.78-6.38,4.21,4.21,0,0,0,.79-.74A7.37,7.37,0,0,0,39.65,20a9.37,9.37,0,0,0,.44-2.74c0-.21,0-.42,0-.64v0h0a4.23,4.23,0,0,0-1-2.33,3.07,3.07,0,0,0-.49-.46c0-.07,0-.15,0-.22C39.32,9.9,38.42,3,30.77.57A11.92,11.92,0,0,0,27.2,0a10.48,10.48,0,0,0-7.52,3.2,4.63,4.63,0,0,0-3.36,1.89c-.88,1.16-2.12,3.83-.9,8.86a2.89,2.89,0,0,0-.35.35,4.2,4.2,0,0,0-1,2.32h0c0,.22,0,.43,0,.67a9.5,9.5,0,0,0,.78,3.64A6.91,6.91,0,0,0,15.86,22.61ZM18,6.38a2.41,2.41,0,0,1,2.06-1A1.1,1.1,0,0,0,21,4.92a8.25,8.25,0,0,1,6.2-2.79,10,10,0,0,1,2.93.47,9.13,9.13,0,0,1,6.42,10.64q-.07.47-.18.87a1,1,0,0,0,0,.29c-2.13.3-6.56-1.92-9.27-6.08a3.45,3.45,0,0,0-2.73-1.8C22.08,6.4,20.05,8.9,19.94,9a19.49,19.49,0,0,0-2.32,4.88C16.41,9.43,17.35,7.27,18,6.38Zm-1.79,10.5v0a2.2,2.2,0,0,1,.34-1c0,.22.07.42.1.59.15.92.19,1.17.59,1.17h0c.38,0,.44-.33.53-.82a18.69,18.69,0,0,1,2.83-7.23s1.87-2.27,3.68-2.18a2.69,2.69,0,0,1,2.06,1.42c2.87,4.42,7.73,7,10.31,6.42l-.29,1.4a.42.42,0,0,0,.83.17l.24-1.11,0,0a2.11,2.11,0,0,1,.45,1.16h0c0,.13,0,.27,0,.41a7.11,7.11,0,0,1-.35,2.11,5.4,5.4,0,0,1-.93,1.83,2,2,0,0,1-.56.47,1,1,0,0,0-.54.68,14.45,14.45,0,0,1-3.41,5.89,6.38,6.38,0,0,1-5.05,2.44h-.07A6.38,6.38,0,0,1,22,28.27a14.45,14.45,0,0,1-3.41-5.89,1.06,1.06,0,0,0-.54-.68,2,2,0,0,1-.56-.47,4.33,4.33,0,0,1-.67-1.13,7.33,7.33,0,0,1-.61-2.8A2.82,2.82,0,0,1,16.23,16.88Z"/><path class="cls-1" d="M23.48,26.15a7.84,7.84,0,0,0,3.57.9,8.24,8.24,0,0,0,3.63-.9.42.42,0,1,0-.37-.76,6.86,6.86,0,0,1-6.44,0,.43.43,0,1,0-.39.76Z"/><ellipse class="cls-1" cx="21.97" cy="17.7" rx="1.28" ry="1.71"/><ellipse class="cls-1" cx="32.2" cy="17.7" rx="1.28" ry="1.71"/><path class="cls-1" d="M26.16,23.18l.23,0A1,1,0,0,0,27,23a.42.42,0,0,0,.1-.59.41.41,0,0,0-.59-.11.17.17,0,0,1-.12,0,.44.44,0,0,1-.27-.19,1.46,1.46,0,0,1-.09-.86,6.79,6.79,0,0,1,.62-2.13.41.41,0,0,0-.2-.57.42.42,0,0,0-.57.19,7.49,7.49,0,0,0-.69,2.41,2.21,2.21,0,0,0,.2,1.4A1.3,1.3,0,0,0,26.16,23.18Z"/></g></g></svg>
