<svg xmlns="http://www.w3.org/2000/svg" viewBox="0 0 81.63 78.86"><defs><style>.cls-1{fill:#616161;}</style></defs><title>CyberArk Vault Integration</title><g id="Layer_2" data-name="Layer 2"><g id="Layer_1-2" data-name="Layer 1"><path class="cls-1" d="M44.9,40.35A11.62,11.62,0,0,0,44.51,27l.4-.4a1.65,1.65,0,1,0-2.33-2.35l-.4.4a11.57,11.57,0,0,0-14.58.44l-.43-.38A1.66,1.66,0,1,0,25,27.22l.43.38a11.62,11.62,0,0,0,.39,13.33l-.4.39a1.66,1.66,0,1,0,2.33,2.36l.4-.4a11.6,11.6,0,0,0,6.5,2.36h.53a11.57,11.57,0,0,0,7.55-2.81l.43.38a1.66,1.66,0,1,0,2.19-2.49Zm-1.41-6a8.21,8.21,0,0,1-1.11,3.78l-3.89-3.42a3.2,3.2,0,0,0,.09-.75,3.39,3.39,0,0,0-.14-.91l3.68-3.66A8.35,8.35,0,0,1,43.49,34.35Zm-8.34-8.74h.38A8.24,8.24,0,0,1,39.79,27L36.11,30.7a3.17,3.17,0,0,0-1-.15,3.24,3.24,0,0,0-1.13.21l-3.9-3.44A8.33,8.33,0,0,1,35.15,25.61Zm-8.33,8a8.24,8.24,0,0,1,1.1-3.79l3.89,3.43a3.67,3.67,0,0,0-.08.75,3.39,3.39,0,0,0,.14.91l-3.68,3.65A8.27,8.27,0,0,1,26.82,33.6Zm8,8.73a8.21,8.21,0,0,1-4.26-1.42l3.68-3.66a3.12,3.12,0,0,0,1,.15,3.28,3.28,0,0,0,1.13-.21l3.89,3.43A8.37,8.37,0,0,1,34.78,42.33Z"/><path class="cls-1" d="M61.18,12.22A4.32,4.32,0,0,0,56.8,8H13.89c-2.25,0-4.76,1.82-4.76,4.27V55.5A4.88,4.88,0,0,0,13.89,60H32.77V59H13.89a3.89,3.89,0,0,1-3.77-3.51V12.22c0-1.85,2-3.28,3.77-3.28H56.8a3.38,3.38,0,0,1,3.39,3.28l0,39.44h1Z"/><path class="cls-1" d="M32.54,65H6.61a2.48,2.48,0,0,1-2.47-2.47V5.43A2.48,2.48,0,0,1,6.61,3H63.7a2.48,2.48,0,0,1,2.47,2.47V50.88a5.91,5.91,0,0,1,1.44-.18,6.08,6.08,0,0,1,1.52.19V5.43A5.44,5.44,0,0,0,63.7,0H6.61A5.44,5.44,0,0,0,1.18,5.43v6.73H0v9.28H1.18V46.51H0v9.28H1.18v6.73A5.44,5.44,0,0,0,6.61,68h26A6.3,6.3,0,0,1,32.54,65Z"/><path class="cls-1" d="M69.74,78.86V76.93c4,0,10-2.65,10-10h1.93C81.63,75.7,74.52,78.86,69.74,78.86Z"/><path class="cls-1" d="M69.74,78.86c-5.31,0-8.71-3-10.91-5.58-2.32,2.77-5.63,5.58-10.92,5.58V76.93c5.05,0,8.08-3.09,10.15-5.78l.77-1,.76,1c2.07,2.69,5.09,5.78,10.15,5.78Z"/><path class="cls-1" d="M47.91,78.86C43.13,78.86,36,75.7,36,67S43.13,55.1,47.91,55.1c5.32,0,8.72,2.95,10.92,5.58,2.2-2.63,5.6-5.58,10.91-5.58,4.78,0,11.89,3.16,11.89,11.88H79.7c0-7.3-6-10-10-10-5.06,0-8.08,3.08-10.15,5.78l-.76,1-.77-1C56,60.11,53,57,47.91,57c-4,0-10,2.65-10,10s6,10,10,10Z"/><path class="cls-1" d="M47.83,73.4c-3,0-6.43-1.68-6.43-6.42s3.32-6.38,6.41-6.42c4,0,6.21,2.66,8.43,5.87l.39.55-.39.55C54,70.74,51.85,73.4,47.83,73.4Zm0-10.92c-1.34,0-4.5.5-4.5,4.5a4.17,4.17,0,0,0,4.5,4.49c2.66,0,4.32-1.51,6.44-4.49C52.15,64,50.49,62.48,47.83,62.48Z"/><path class="cls-1" d="M69.81,73.4h0c-4,0-6.19-2.66-8.4-5.87L61,67l.38-.55c2.23-3.21,4.4-5.87,8.42-5.87,3,0,6.42,1.68,6.42,6.42s-3.32,6.38-6.43,6.42ZM63.38,67c2.11,3,3.76,4.48,6.42,4.49,1.69,0,4.52-.64,4.52-4.49a4.18,4.18,0,0,0-4.49-4.5C67.16,62.48,65.51,64,63.38,67Z"/><polygon class="cls-1" points="58.83 73.28 58.22 70.95 61.03 66.98 63.38 66.98 58.83 73.28"/><polygon class="cls-1" points="56.63 66.98 54.27 66.98 58.83 60.68 58.83 63.8 56.63 66.98"/></g></g></svg>
