<svg xmlns="http://www.w3.org/2000/svg" viewBox="0 0 76.68 84.6"><defs><style>.cls-1{fill:#666;}.cls-2{fill:#ccc;}</style></defs><title>Cyber Security Professional</title><g id="Layer_2" data-name="Layer 2"><g id="Layer_1-2" data-name="Layer 1"><path class="cls-1" d="M64.31,55.13a6.09,6.09,0,0,0-4-4.2l-12.39-3.6a1.32,1.32,0,0,0-1.09.16L38.34,53l-8.45-5.49a1.31,1.31,0,0,0-1.09-.16L16.38,50.94a6.11,6.11,0,0,0-4,4.25L9.29,68.43a1.32,1.32,0,0,0,1.1,1.6l6.15.92C17,72,19,72.58,23.63,73.05c3.94.39,9.16.61,14.71.61s10.78-.22,14.71-.61c4.67-.47,6.6-1,7.09-2.1L66.29,70a1.3,1.3,0,0,0,.9-.56,1.33,1.33,0,0,0,.2-1Zm-16.17-.64,2.54,3.33L39.4,70.06l8.2-19.94.13-.08,3.94,1.14-3.39,2.37a.66.66,0,0,0-.14.94Zm-19.88-.94-3.34-2.34L29,50l.12.08,8.22,20-.06.08L25.86,57.82l2.55-3.33a.63.63,0,0,0,.12-.5A.61.61,0,0,0,28.26,53.55ZM40.46,64l-1.29-5.73,1.54-1.87-1-1.19,5.92-3.85Zm-3-5.73L36.23,64,31,51.38,37,55.23l-1,1.19ZM19,69.64V62a1.32,1.32,0,1,0-2.64,0v6.23l-4.21-.62,2.72-11.79a3.44,3.44,0,0,1,2.24-2.37l6.14-1.78,3.65,2.55-2.47,3.21a.66.66,0,0,0,0,.85L36.21,71C27,70.91,20.77,70.22,19,69.64Zm41.24-1.39V62a1.32,1.32,0,1,0-2.64,0v7.62c-1.74.58-8,1.28-17.31,1.36L52,58.3a.65.65,0,0,0,0-.85l-2.46-3.21,3.68-2.58,6.21,1.8a3.42,3.42,0,0,1,2.25,2.32l2.74,11.85Z"/><path class="cls-1" d="M76.68,7.89A2,2,0,0,0,75.2,6,114.76,114.76,0,0,0,38.34,0a114.74,114.74,0,0,0-37,6A2,2,0,0,0,0,7.86C-.3,29,3.71,44.1,10.06,55.6l.21-.89a8.47,8.47,0,0,1,2-3.6C7.1,40.7,3.87,27.37,4,9.32A111.15,111.15,0,0,1,38.34,4,111,111,0,0,1,72.7,9.32c.1,18-3.13,31.37-8.28,41.77a8.36,8.36,0,0,1,2,3.47l0,.09.22.94c6.3-11.44,10.3-26.4,10-47.38C76.67,8.11,76.68,8,76.68,7.89Z"/><path class="cls-1" d="M38.33,80.14Q35.47,78,32.66,75.72c-2.32-.06-4.51-.17-6.49-.31,3.5,3.13,7.15,6,10.82,8.68a2,2,0,0,0,1.34.51h0A2,2,0,0,0,39.74,84c3.65-2.69,7.28-5.52,10.76-8.63-2,.14-4.17.25-6.49.31C42.14,77.25,40.24,78.72,38.33,80.14Z"/><path class="cls-2" d="M8,12.24A107.57,107.57,0,0,1,38.34,7.93a107.45,107.45,0,0,1,30.38,4.31C68.5,28,65.53,39.77,61.08,49a8.36,8.36,0,0,1,1.22.54c4.56-9.43,7.58-21.52,7.75-37.75a.68.68,0,0,0-.47-.64,108.76,108.76,0,0,0-31.24-4.5A108.83,108.83,0,0,0,7.09,11.12a.65.65,0,0,0-.47.64C6.79,28,9.81,40.07,14.36,49.5A7.91,7.91,0,0,1,15.59,49C11.14,39.77,8.17,28,8,12.24Z"/><path class="cls-1" d="M26.54,37.94a4.27,4.27,0,0,0,.83.77,17.56,17.56,0,0,0,4,6.71,9,9,0,0,0,7,3.29h.08a9,9,0,0,0,7-3.29,17.55,17.55,0,0,0,4-6.71,4.57,4.57,0,0,0,.83-.77,7.93,7.93,0,0,0,1.4-2.69A9.74,9.74,0,0,0,52,32.36c0-.22,0-.43,0-.66v0h0a4.38,4.38,0,0,0-1-2.45,3.52,3.52,0,0,0-.52-.5c0-.07,0-.15,0-.22.71-3.92-.24-11.22-8.29-13.73a12.49,12.49,0,0,0-3.75-.6,11,11,0,0,0-7.9,3.37,4.8,4.8,0,0,0-3.53,2c-.93,1.22-2.24,4-1,9.32a3.24,3.24,0,0,0-.38.36,4.41,4.41,0,0,0-1,2.44v0a5,5,0,0,0,0,.69,10.07,10.07,0,0,0,.82,3.83A6.73,6.73,0,0,0,26.54,37.94Zm2.27-17.06A2.56,2.56,0,0,1,31,19.78a1.15,1.15,0,0,0,1-.43,8.66,8.66,0,0,1,6.52-2.93,10.3,10.3,0,0,1,3.08.49c6.56,2.05,7.33,8,6.76,11.19-.06.32-.13.62-.19.92a1,1,0,0,0,0,.29c-2.24.33-6.9-2-9.74-6.38A3.62,3.62,0,0,0,35.47,21c-2.39-.12-4.53,2.51-4.64,2.65a20.66,20.66,0,0,0-2.45,5.13C27.12,24.09,28.1,21.82,28.81,20.88ZM26.92,31.93v0a2.3,2.3,0,0,1,.36-1.08c0,.23.07.44.1.62.16,1,.2,1.23.62,1.23h0c.4,0,.46-.34.56-.87a19.88,19.88,0,0,1,3-7.6s2-2.38,3.88-2.29a2.83,2.83,0,0,1,2.16,1.5c3,4.64,8.13,7.3,10.85,6.74l-.32,1.48a.45.45,0,1,0,.88.18l.25-1.17,0,0a2.21,2.21,0,0,1,.46,1.22v0h0c0,.14,0,.29,0,.44a7.52,7.52,0,0,1-.37,2.21,5.64,5.64,0,0,1-1,1.92,1.9,1.9,0,0,1-.59.5,1.15,1.15,0,0,0-.57.71,15.07,15.07,0,0,1-3.58,6.2,6.71,6.71,0,0,1-5.31,2.57H38.3A6.71,6.71,0,0,1,33,43.9a15.07,15.07,0,0,1-3.58-6.2,1.15,1.15,0,0,0-.57-.71,2,2,0,0,1-.59-.49,4.93,4.93,0,0,1-.71-1.19,8.12,8.12,0,0,1-.64-3C26.9,32.21,26.91,32.06,26.92,31.93Z"/><path class="cls-1" d="M34.55,41.67a8.24,8.24,0,0,0,3.75.95,8.65,8.65,0,0,0,3.82-.95.44.44,0,0,0,.21-.6.45.45,0,0,0-.6-.2,7.18,7.18,0,0,1-6.77,0,.46.46,0,0,0-.61.2A.45.45,0,0,0,34.55,41.67Z"/><ellipse class="cls-1" cx="32.96" cy="32.79" rx="1.35" ry="1.79"/><ellipse class="cls-1" cx="43.72" cy="32.79" rx="1.35" ry="1.79"/><path class="cls-1" d="M37.36,38.54l.25,0a1,1,0,0,0,.58-.18.44.44,0,0,0,.12-.62.45.45,0,0,0-.63-.12s-.09,0-.13,0a.5.5,0,0,1-.27-.2,1.56,1.56,0,0,1-.1-.91,7,7,0,0,1,.65-2.24.45.45,0,1,0-.8-.39,7.63,7.63,0,0,0-.74,2.52,2.32,2.32,0,0,0,.22,1.48A1.3,1.3,0,0,0,37.36,38.54Z"/></g></g></svg>
