<svg xmlns="http://www.w3.org/2000/svg" viewBox="0 0 297.66 59.58"><defs><style>.cls-1{fill:#4c8ecb;}.cls-2{fill:#2e73af;}.cls-3{fill:#808184;}.cls-4{fill:#58595b;}.cls-5{fill:#fff;}</style></defs><title>Asset 25</title><g id="Layer_2" data-name="Layer 2"><g id="Layer_1-2" data-name="Layer 1"><polygon class="cls-1" points="13.29 22.57 25.82 15.32 25.82 0 0 14.92 13.29 22.57"/><polygon class="cls-2" points="25.84 44.26 38.39 37.02 38.39 37.02 51.65 29.36 51.65 44.68 25.86 59.58 25.84 44.26"/><polygon class="cls-2" points="25.82 15.32 38.36 22.56 51.62 14.89 25.82 0 25.82 15.32"/><polygon class="cls-1" points="25.85 44.26 13.29 37.04 0.04 44.71 25.87 59.58 25.85 44.26"/><polygon class="cls-2" points="13.29 37.04 13.29 22.57 0 14.92 0.04 44.71 13.29 37.04"/><polygon class="cls-3" points="25.82 15.31 38.36 22.56 38.36 37.04 25.82 29.8 25.82 15.31"/><polyline class="cls-4" points="25.82 15.31 13.29 22.57 13.29 37.04 25.82 29.8 25.82 15.32"/><path class="cls-5" d="M87.59,39a13.7,13.7,0,0,1-9.81,3.88C68.29,42.83,64,36.3,64,29.43s4.44-13.7,13.78-13.7a13.35,13.35,0,0,1,9.55,3.95l-2.8,2.69a9.58,9.58,0,0,0-6.75-2.69c-6.65,0-9.67,4.89-9.64,9.71s2.88,9.52,9.64,9.52a10.13,10.13,0,0,0,6.94-2.84Z"/><path class="cls-5" d="M102.93,27.71l7.43-11.53h5v.18L105,31.59V42.31h-4.18V31.59L90.76,16.36v-.18h5Z"/><path class="cls-5" d="M132.91,16.18c5,0,8.88,2.27,8.88,7.46a5.44,5.44,0,0,1-3.62,5.19,6.45,6.45,0,0,1,4.44,6c0,5.71-4.55,7.47-9.7,7.47h-12V16.18ZM125.07,27H133c3.13,0,4.7-1.23,4.7-3.28,0-1.83-1.61-3.77-4.74-3.77h-7.84Zm0,11.42h7.84c2.31,0,5.52-.74,5.52-3.62s-3.1-4.07-5.48-4.07h-7.88Z"/><path class="cls-5" d="M168.82,42.31h-19.3V16.18H168.7v4.06h-15V27.3h14.41v3.88H153.7v7h15.12Z"/><path class="cls-5" d="M198.6,42.31h-4.89l-8-9h-5.52v9h-4.18V16.14c4.07,0,8.1,0,12.17,0,6,0,9.22,4.14,9.22,8.54,0,3.74-1.94,7.4-7.1,8.14l7.81,8.7ZM180.24,20v9.48h7.95c3.47,0,5-2.2,5-4.66a4.66,4.66,0,0,0-5-4.82Z"/><path class="cls-2" d="M222.23,38H210.55l-1.72,4.3H201l11.72-26.13h7.47l11.68,26.13H224Zm-5.82-14.52-3.36,8.33h6.68Z"/><path class="cls-2" d="M260,42.31h-8.14l-6.08-8.48h-2.58v8.48h-7.39V16.18h12.77c6.68,0,10.15,4.29,10.15,9,0,3.21-1.12,5.94-5.53,7.88l6.8,8.81Zm-16.8-20.24v6.27h5.45a2.74,2.74,0,0,0,2.8-3c0-1.64-.93-3.25-2.87-3.25Z"/><path class="cls-2" d="M288.3,16.62,277.7,29c3.66,4,7.88,8.73,11.5,12.88v.45h-9.15l-7.46-8.7v8.7H265.2V16.18h7.39v8.58c2.24-2.76,4.66-5.82,6.87-8.58h8.84Z"/><path class="cls-2" d="M294.61,17.3a3.05,3.05,0,1,1,3.05-3.05A3,3,0,0,1,294.61,17.3Zm0-5.66a2.53,2.53,0,0,0-2.51,2.61,2.51,2.51,0,1,0,5,0A2.53,2.53,0,0,0,294.61,11.64Zm1.11,4.3h-.3a.16.16,0,0,1-.14-.06c-.08-.15-.14-.27-.24-.44a6.3,6.3,0,0,0-.59-.85.28.28,0,0,0-.2-.1h-.11v1.27a.17.17,0,0,1-.16.17h-.21a.18.18,0,0,1-.17-.17V12.7a.17.17,0,0,1,.17-.16h.87c.76,0,1.13.44,1.13.94a.87.87,0,0,1-.88.93,4.9,4.9,0,0,1,.95,1.34A.12.12,0,0,1,295.72,15.94Zm-1.25-3h-.33v1.08h.33c.58,0,.74-.17.74-.56S294.94,13,294.47,13Z"/></g></g></svg>