<svg xmlns="http://www.w3.org/2000/svg" viewBox="0 0 78.63 78.63"><defs><style>.cls-1{fill:#616161;}</style></defs><title>Deliver_Scale</title><g id="Layer_2" data-name="Layer 2"><g id="Layer_1-2" data-name="Layer 1"><path class="cls-1" d="M68.19,30.1a1.82,1.82,0,0,0,1.3-.54l8.6-8.6a1.85,1.85,0,0,0,0-2.61l-8.6-8.6a1.87,1.87,0,0,0-1.3-.54H44.84V4.3A4.3,4.3,0,0,0,40.54,0H38.09a4.31,4.31,0,0,0-4.3,4.3V9.21H10.44A1.85,1.85,0,0,0,8.6,11.06v17.2a1.84,1.84,0,0,0,1.84,1.84H33.79V35H10.44a1.82,1.82,0,0,0-1.3.54l-8.6,8.6a1.83,1.83,0,0,0,0,2.6l8.6,8.6a1.82,1.82,0,0,0,1.3.54H33.79V74.33a4.31,4.31,0,0,0,4.3,4.3h2.45a4.3,4.3,0,0,0,4.3-4.3V55.9H68.19A1.84,1.84,0,0,0,70,54.06V36.86A1.84,1.84,0,0,0,68.19,35H44.84V30.1ZM37.47,4.3a.62.62,0,0,1,.62-.61h2.45a.62.62,0,0,1,.62.61V9.21H37.47ZM12.29,12.9H67.42l6.76,6.76-6.76,6.75H12.29ZM41.16,74.33a.62.62,0,0,1-.62.61H38.09a.62.62,0,0,1-.62-.61V55.9h3.69ZM66.34,52.22H11.21L4.45,45.46l6.76-6.76H66.34ZM41.16,35H37.47V30.1h3.69Z"/></g></g></svg>