<?xml version="1.0" encoding="utf-8"?>
<!-- Generator: Adobe Illustrator 21.1.0, SVG Export Plug-In . SVG Version: 6.00 Build 0)  -->
<svg version="1.1" id="Layer_1" xmlns="http://www.w3.org/2000/svg" xmlns:xlink="http://www.w3.org/1999/xlink" x="0px" y="0px"
	 viewBox="0 0 90.2 46.2" style="enable-background:new 0 0 90.2 46.2;" xml:space="preserve">
<style type="text/css">
	.st0{fill:none;stroke:#878589;stroke-width:0.75;stroke-miterlimit:10;}
	.st1{fill:none;stroke:#666666;stroke-width:2.25;stroke-miterlimit:10;}
</style>
<title>Developers</title>
<g id="Layer_2">
	<g id="Layer_1-2">
		<polyline class="st0" points="4.1,11.4 6.8,17.4 14.7,15.7 		"/>
		<polyline class="st0" points="39.6,7.5 32.6,8.8 31.7,15.2 		"/>
		<polyline class="st0" points="15.9,31.9 17,38.5 10.7,41.6 		"/>
		<polyline class="st0" points="32.5,30.4 39,32 39.5,38.9 		"/>
		<polyline class="st0" points="48,10 54.6,11 55.8,17.8 		"/>
		<polyline class="st0" points="83.4,7.8 82,14.3 75.3,15.3 		"/>
		<polyline class="st0" points="75.9,30.6 75.1,37.7 81.6,40 		"/>
		<polyline class="st0" points="58,30.6 51.5,31.9 50.4,38.5 		"/>
		<path class="st1" d="M67.1,1.1c-10.5,0-17,5.9-22,12.4c-5-6.5-11.5-12.4-22-12.4c-8.8,0-22,5.9-22,22s13.2,22,22,22
			c10.5,0,17-5.9,22-12.4c5,6.5,11.5,12.4,22,12.4c8.8,0,22-5.9,22-22S76,1.1,67.1,1.1z M23.1,34.1c-1.8,0-11-0.5-11-11
			c0-10.1,8.5-11,11-11c6.7,0,10.6,4.1,15.4,11C33.7,30,29.8,34.1,23.1,34.1L23.1,34.1z M67.1,34.1c-6.7,0-10.6-4.1-15.3-11
			c4.8-6.9,8.6-11,15.4-11c1.8,0,11,0.5,11,11C78.1,33.2,69.7,34.1,67.1,34.1L67.1,34.1z"/>
		<line class="st1" x1="45.1" y1="32.7" x2="51.7" y2="23.1"/>
		<line class="st1" x1="45.1" y1="13.5" x2="38.5" y2="23.1"/>
	</g>
</g>
</svg>