<svg xmlns="http://www.w3.org/2000/svg" viewBox="0 0 71.85 57.64"><defs><style>.cls-1{fill:#666;}</style></defs><title>Secure the DevOps Pipeline</title><g id="Layer_2" data-name="Layer 2"><g id="Layer_1-2" data-name="Layer 1"><path class="cls-1" d="M71.85,32.33A15,15,0,0,0,58,17.57a14.06,14.06,0,0,0,.4-3.3A14.45,14.45,0,0,0,43.78,0,14.67,14.67,0,0,0,31.05,7.3a16.33,16.33,0,0,0-2.42-.19A15.2,15.2,0,0,0,14.15,17.54,15,15,0,0,0,0,32.33,14.83,14.83,0,0,0,10.59,46.39c0-.35-.05-.69-.05-1.06a16.6,16.6,0,0,1,.18-2.4,11.48,11.48,0,0,1-7.35-10.6A11.63,11.63,0,0,1,15,20.89a12,12,0,0,1,4.71.95,1.12,1.12,0,1,0,.87-2.06,14.13,14.13,0,0,0-3.28-1,11.79,11.79,0,0,1,11.34-8.35h.29a12.51,12.51,0,0,1,8,3,1.11,1.11,0,0,0,.72.27,1.12,1.12,0,0,0,.73-2,14.9,14.9,0,0,0-4.45-2.6,11.29,11.29,0,0,1,9.9-5.76A11.08,11.08,0,0,1,55,14.27a10.56,10.56,0,0,1-.91,4.29,1.61,1.61,0,0,0-.1.36,14.31,14.31,0,0,0-4.49,1.74,1.12,1.12,0,0,0,.58,2.08,1.1,1.1,0,0,0,.57-.16,12.25,12.25,0,0,1,5.39-1.68l.64,0A11.59,11.59,0,0,1,68.48,32.27a11.56,11.56,0,0,1-8.82,11.09,17.86,17.86,0,0,1,.11,2c0,.53,0,1-.07,1.52A14.93,14.93,0,0,0,71.85,32.33Z"/><path class="cls-1" d="M46,33a13.25,13.25,0,0,0-6.65,1.76,23.34,23.34,0,0,0-4.14,3.51c-.24-.27-.48-.53-.73-.79a16,16,0,0,0-2.54-2.17A13.37,13.37,0,0,0,24.34,33C19.4,33,12,36.3,12,45.33S19.4,57.64,24.43,57.64a13.26,13.26,0,0,0,7.45-2.29,17,17,0,0,0,2.57-2.18c.24-.25.48-.51.71-.77A14,14,0,0,0,46,57.64c4.95,0,12.31-3.27,12.31-12.31S50.91,33,46,33Zm0,5.41a7.89,7.89,0,0,0-5.72,2.32L40,39.2,38.75,39a12.85,12.85,0,0,1,2.06-1.64A10.24,10.24,0,0,1,46,36a9.71,9.71,0,0,1,7.44,3.49l-.29,1.33-1.52.21A6.88,6.88,0,0,0,46,38.43Zm0,10.81c-2.13,0-3.57-1-5.7-3.9,2.16-3,3.6-3.91,5.71-3.91a3.58,3.58,0,0,1,3.91,3.9C49.87,48.68,47.4,49.22,46,49.24Zm0-9.31h0Zm-13.68-.34c.33.34.66.71,1,1.08l.16.18L32,43a14.32,14.32,0,0,0-3-3.08l.2-1.44,1.5-.26A13.55,13.55,0,0,1,32.29,39.59Zm-7.95,9.65a3.58,3.58,0,0,1-3.9-3.91c0-3.34,2.45-3.88,3.91-3.9,2.11,0,3.55,1,5.7,3.91C27.91,48.27,26.46,49.24,24.34,49.24Zm5.87-11.43s.05,0,.07,0l-1.43.25-.21,1.55a7.7,7.7,0,0,0-4.3-1.23h0a6.75,6.75,0,0,0-6.13,3.51l-1.73.37-.54-1.19A9.37,9.37,0,0,1,24.34,36,10.37,10.37,0,0,1,30.21,37.81ZM18.94,45.32Zm-3.9,0a9.72,9.72,0,0,1,.71-3.7l.5,1.1L18,42.36a7.75,7.75,0,0,0-.56,3,6.42,6.42,0,0,0,3.49,6.11l.23,1.32-1.45.71A8.68,8.68,0,0,1,15,45.33ZM30.2,52.87a10.43,10.43,0,0,1-5.86,1.77,10.2,10.2,0,0,1-4.19-1L21.57,53l-.23-1.35a7.71,7.71,0,0,0,3,.62,8.1,8.1,0,0,0,6.17-2.78L32,49.8l.12,1.48A14.91,14.91,0,0,1,30.2,52.87Zm6.39-7.57-2.21,3.37h0L33.2,50.08c-.25.29-.51.57-.77.85l-.11-1.42-1.51-.36a26.21,26.21,0,0,0,2.11-2.67l.76-1.12h0l2.62-3.92c.43-.48,1.21-1.3,2.08-2.12l1.24.19.28,1.56a23,23,0,0,0-2.5,3.07l-.82,1.16Zm1.29,5.61c-.34-.36-.67-.72-1-1.08l1.41-2.07c.4.52.8,1,1.2,1.42l-1.39.28Zm8,5.23Zm0,0Zm0,0Zm0,0Zm0,0Zm-7.75-4.9.25-1.47,1.38-.27A8.12,8.12,0,0,0,46,52.24a7.83,7.83,0,0,0,3.86-1.07l-.17,1.44,1.47.52A10.19,10.19,0,0,1,46,54.64,10.58,10.58,0,0,1,38.2,51.24Zm13.32,1.64-1.46-.52.18-1.46a6.42,6.42,0,0,0,2.63-5.57,7.18,7.18,0,0,0-1.08-3.94l1.63-.22L53.68,40a9.21,9.21,0,0,1,1.59,5.38A8.68,8.68,0,0,1,51.52,52.88Zm5.25-7.52h0Z"/></g></g></svg>
