<svg xmlns="http://www.w3.org/2000/svg" viewBox="0 0 77.13 75"><defs><style>.cls-1{fill:#666;}.cls-2{fill:#ccc;}</style></defs><title>Digital Vault</title><g id="Layer_2" data-name="Layer 2"><g id="Layer_1-2" data-name="Layer 1"><rect class="cls-1" y="51.34" width="3.38" height="10.26"/><rect class="cls-1" y="13.4" width="3.38" height="10.26"/><path class="cls-1" d="M71.16,75H8.1a6,6,0,0,1-6-6V6a6,6,0,0,1,6-6H71.16a6,6,0,0,1,6,6V69A6,6,0,0,1,71.16,75ZM8.1,3.21A2.76,2.76,0,0,0,5.35,6V69A2.76,2.76,0,0,0,8.1,71.79H71.16A2.77,2.77,0,0,0,73.92,69V6a2.77,2.77,0,0,0-2.76-2.76Z"/><path class="cls-1" d="M63.55,66.5H16.14a5.65,5.65,0,0,1-5.51-5.22V13.47c0-2.85,2.91-5,5.51-5H63.55a5,5,0,0,1,5.09,5v48l-.07.12A5.13,5.13,0,0,1,63.55,66.5ZM16.14,10.1c-1.8,0-3.9,1.47-3.9,3.37V61.28a4.09,4.09,0,0,0,3.9,3.62H63.55A3.52,3.52,0,0,0,67,61.39v-.21l.06-.11V13.47a3.47,3.47,0,0,0-3.48-3.37Z"/><path class="cls-2" d="M14.5,17.82h4v.73h-4Zm1-6.47H16v.73H14.65Zm1.44,6.37h-.78V11.35h.78Z"/><path class="cls-2" d="M21.06,11.35h2.5v.73H20.27Zm0,7.2-.77-.77V12.19H21Zm2.6,0h-2.5v-.73h3.29Zm0-7.2.77.77v5.6h-.77Z"/><path class="cls-2" d="M26,17.82h4v.73H26Zm1-6.47h.56v.73H26.19Zm1.44,6.37h-.77V11.35h.77Z"/><path class="cls-2" d="M32.6,11.35h2.5v.73H31.81Zm0,7.2-.77-.77V12.19h.77Zm2.6,0h-2.5v-.73H36Zm0-7.2.77.77v5.6H35.2Z"/><path class="cls-2" d="M37.58,17.82h4v.73h-4Zm1-6.47h.56v.73H37.73ZM40,17.72h-.77V11.35H40Z"/><path class="cls-2" d="M44.14,11.35h2.5v.73H43.35Zm0,7.2-.77-.77V12.19h.77Zm2.6,0h-2.5v-.73h3.3Zm0-7.2.78.77v5.6h-.78Z"/><path class="cls-2" d="M49.12,17.82h4v.73h-4Zm1-6.47h.56v.73H49.28Zm1.44,6.37h-.77V11.35h.77Z"/><path class="cls-2" d="M55.68,11.35h2.5v.73H54.89Zm0,7.2-.77-.77V12.19h.77Zm2.6,0H55.77v-.73h3.29Zm0-7.2.77.77v5.6h-.77Z"/><path class="cls-2" d="M60.66,17.82h4v.73h-4Zm1-6.47h.56v.73H60.82Zm1.44,6.37h-.77V11.35h.77Z"/><path class="cls-2" d="M15.29,20.35h2.5v.73H14.5Zm0,7.2-.77-.77v-5.6h.77Zm2.6,0h-2.5v-.73h3.29Zm0-7.2.77.77v5.6h-.77Z"/><path class="cls-2" d="M20.27,26.82h4v.73h-4Zm1-6.47h.56v.73H20.42Zm1.44,6.37h-.78V20.35h.78Z"/><path class="cls-2" d="M26.83,20.35h2.5v.73H26Zm0,7.2L26,26.78v-5.6h.77Zm2.6,0h-2.5v-.73H30.2Zm0-7.2.77.77v5.6h-.77Z"/><path class="cls-2" d="M31.81,26.82h4v.73h-4Zm1-6.47h.56v.73H32Zm1.44,6.37h-.78V20.35h.78Z"/><path class="cls-2" d="M38.37,20.35h2.5v.73H37.58Zm0,7.2-.77-.77v-5.6h.77Zm2.6,0h-2.5v-.73h3.29Zm0-7.2.77.77v5.6H41Z"/><path class="cls-2" d="M43.35,26.82h4v.73h-4Zm1-6.47h.56v.73H43.5Zm1.44,6.37H45V20.35h.77Z"/><path class="cls-2" d="M49.91,20.35h2.5v.73H49.12Zm0,7.2-.77-.77v-5.6h.77Zm2.6,0H50v-.73h3.29Zm0-7.2.78.77v5.6h-.78Z"/><path class="cls-2" d="M54.89,26.82h4v.73h-4Zm1-6.47h.56v.73H55.05Zm1.44,6.37h-.77V20.35h.77Z"/><path class="cls-2" d="M61.45,20.35H64v.73H60.66Zm0,7.2-.77-.77v-5.6h.77Zm2.6,0H61.54v-.73h3.29Zm0-7.2.77.77v5.6h-.77Z"/><path class="cls-2" d="M14.5,35.82h4v.73h-4Zm1-6.47H16v.73H14.65Zm1.44,6.36h-.78V29.35h.78Z"/><path class="cls-2" d="M20.27,35.82h4v.73h-4Zm1-6.47h.56v.73H20.42Zm1.44,6.36h-.78V29.35h.78Z"/><path class="cls-2" d="M26.83,29.35h2.5v.73H26Zm0,7.2L26,35.77V30.18h.77Zm2.6,0h-2.5v-.73H30.2Zm0-7.2.77.77v5.59h-.77Z"/><path class="cls-2" d="M31.81,35.82h4v.73h-4Zm1-6.47h.56v.73H32Zm1.44,6.36h-.78V29.35h.78Z"/><path class="cls-2" d="M37.58,35.82h4v.73h-4Zm1-6.47h.56v.73H37.73ZM40,35.71h-.77V29.35H40Z"/><path class="cls-2" d="M44.14,29.35h2.5v.73H43.35Zm0,7.2-.77-.78V30.18h.77Zm2.6,0h-2.5v-.73h3.3Zm0-7.2.78.77v5.59h-.78Z"/><path class="cls-2" d="M49.12,35.82h4v.73h-4Zm1-6.47h.56v.73H49.28Zm1.44,6.36h-.77V29.35h.77Z"/><path class="cls-2" d="M54.89,35.82h4v.73h-4Zm1-6.47h.56v.73H55.05Zm1.44,6.36h-.77V29.35h.77Z"/><path class="cls-2" d="M61.45,29.35H64v.73H60.66Zm0,7.2-.77-.78V30.18h.77Zm2.6,0H61.54v-.73h3.29Zm0-7.2.77.77v5.59h-.77Z"/><path class="cls-2" d="M15.29,38.34h2.5v.73H14.5Zm0,7.2-.77-.77V39.18h.77Zm2.6,0h-2.5v-.73h3.29Zm0-7.2.77.78v5.59h-.77Z"/><path class="cls-2" d="M21.06,38.34h2.5v.73H20.27Zm0,7.2-.77-.77V39.18H21Zm2.6,0h-2.5v-.73h3.29Zm0-7.2.77.78v5.59h-.77Z"/><path class="cls-2" d="M26.83,38.34h2.5v.73H26Zm0,7.2L26,44.77V39.18h.77Zm2.6,0h-2.5v-.73H30.2Zm0-7.2.77.78v5.59h-.77Z"/><path class="cls-2" d="M31.81,44.81h4v.73h-4Zm1-6.47h.56v.73H32Zm1.44,6.37h-.78V38.34h.78Z"/><path class="cls-2" d="M38.37,38.34h2.5v.73H37.58Zm0,7.2-.77-.77V39.18h.77Zm2.6,0h-2.5v-.73h3.29Zm0-7.2.77.78v5.59H41Z"/><path class="cls-2" d="M43.35,44.81h4v.73h-4Zm1-6.47h.56v.73H43.5Zm1.44,6.37H45V38.34h.77Z"/><path class="cls-2" d="M49.12,44.81h4v.73h-4Zm1-6.47h.56v.73H49.28Zm1.44,6.37h-.77V38.34h.77Z"/><path class="cls-2" d="M55.68,38.34h2.5v.73H54.89Zm0,7.2-.77-.77V39.18h.77Zm2.6,0H55.77v-.73h3.29Zm0-7.2.77.78v5.59h-.77Z"/><path class="cls-2" d="M60.66,44.81h4v.73h-4Zm1-6.47h.56v.73H60.82Zm1.44,6.37h-.77V38.34h.77Z"/><path class="cls-2" d="M14.5,53.81h4v.73h-4Zm1-6.47H16v.73H14.65Zm1.44,6.37h-.78V47.34h.78Z"/><path class="cls-2" d="M21.06,47.34h2.5v.73H20.27Zm0,7.2-.77-.77v-5.6H21Zm2.6,0h-2.5v-.73h3.29Zm0-7.2.77.77v5.6h-.77Z"/><path class="cls-2" d="M26.83,47.34h2.5v.73H26Zm0,7.2L26,53.77v-5.6h.77Zm2.6,0h-2.5v-.73H30.2Zm0-7.2.77.77v5.6h-.77Z"/><path class="cls-2" d="M32.6,47.34h2.5v.73H31.81Zm0,7.2-.77-.77v-5.6h.77Zm2.6,0h-2.5v-.73H36Zm0-7.2.77.77v5.6H35.2Z"/><path class="cls-2" d="M37.58,53.81h4v.73h-4Zm1-6.47h.56v.73H37.73ZM40,53.71h-.77V47.34H40Z"/><path class="cls-2" d="M44.14,47.34h2.5v.73H43.35Zm0,7.2-.77-.77v-5.6h.77Zm2.6,0h-2.5v-.73h3.3Zm0-7.2.78.77v5.6h-.78Z"/><path class="cls-2" d="M49.91,47.34h2.5v.73H49.12Zm0,7.2-.77-.77v-5.6h.77Zm2.6,0H50v-.73h3.29Zm0-7.2.78.77v5.6h-.78Z"/><path class="cls-2" d="M54.89,53.81h4v.73h-4Zm1-6.47h.56v.73H55.05Zm1.44,6.37h-.77V47.34h.77Z"/><path class="cls-2" d="M60.66,53.81h4v.73h-4Zm1-6.47h.56v.73H60.82Zm1.44,6.37h-.77V47.34h.77Z"/><path class="cls-2" d="M15.29,56.34h2.5v.73H14.5Zm0,7.2-.77-.77v-5.6h.77Zm2.6,0h-2.5v-.73h3.29Zm0-7.2.77.77V62.7h-.77Z"/><path class="cls-2" d="M20.27,62.81h4v.73h-4Zm1-6.47h.56v.73H20.42Zm1.44,6.36h-.78V56.34h.78Z"/><path class="cls-2" d="M26,62.81h4v.73H26Zm1-6.47h.56v.73H26.19Zm1.44,6.36h-.77V56.34h.77Z"/><path class="cls-2" d="M31.81,62.81h4v.73h-4Zm1-6.47h.56v.73H32Zm1.44,6.36h-.78V56.34h.78Z"/><path class="cls-2" d="M38.37,56.34h2.5v.73H37.58Zm0,7.2-.77-.77v-5.6h.77Zm2.6,0h-2.5v-.73h3.29Zm0-7.2.77.77V62.7H41Z"/><path class="cls-2" d="M43.35,62.81h4v.73h-4Zm1-6.47h.56v.73H43.5Zm1.44,6.36H45V56.34h.77Z"/><path class="cls-2" d="M49.12,62.81h4v.73h-4Zm1-6.47h.56v.73H49.28Zm1.44,6.36h-.77V56.34h.77Z"/><path class="cls-2" d="M54.89,62.81h4v.73h-4Zm1-6.47h.56v.73H55.05Zm1.44,6.36h-.77V56.34h.77Z"/><path class="cls-2" d="M60.66,62.81h4v.73h-4Zm1-6.47h.56v.73H60.82Zm1.44,6.36h-.77V56.34h.77Z"/><path class="cls-1" d="M39.83,50.1h-.57a12.6,12.6,0,1,1,13.13-12h0a12.59,12.59,0,0,1-12.56,12Zm0-22.13a9.53,9.53,0,1,0,9.51,10h0A9.54,9.54,0,0,0,40.24,28Z"/><path class="cls-1" d="M30.33,48.45a1.54,1.54,0,0,1-1.08-2.63L48.23,27a1.54,1.54,0,0,1,2.16,2.19L31.41,48A1.51,1.51,0,0,1,30.33,48.45Z"/><path class="cls-1" d="M49.85,47.88a1.55,1.55,0,0,1-1-.39L28.77,29.82a1.54,1.54,0,1,1,2-2.31L50.87,45.18A1.54,1.54,0,0,1,51,47.35,1.51,1.51,0,0,1,49.85,47.88Z"/><ellipse class="cls-1" cx="39.82" cy="37.5" rx="3.78" ry="3.79"/></g></g></svg>
