<svg xmlns="http://www.w3.org/2000/svg" viewBox="0 0 76.82 71"><defs><style>.cls-1{fill:#666;}</style></defs><title>Discovery Engine</title><g id="Layer_2" data-name="Layer 2"><g id="Layer_1-2" data-name="Layer 1"><path class="cls-1" d="M47.72,0c-14.46,0-29.1,3.4-29.1,9.89V23.18a20.43,20.43,0,0,1,3.49-.85V14.85c5.2,3.25,15.45,4.94,25.61,4.94s20.41-1.69,25.61-4.94v9.71c-2.34,2.69-11.65,5.7-25.61,5.7q-3.67,0-6.9-.26a19.37,19.37,0,0,1,1.57,2.43c1.77.1,3.56.16,5.33.16,10.09,0,20.64-1.74,25.61-5v2.82c-2.34,2.69-11.65,5.7-25.61,5.7-1.31,0-2.58,0-3.81-.07a20,20,0,0,1,.58,2.34c1.07,0,2.16.06,3.23.06,10.1,0,20.65-1.74,25.61-5v9.81c-2.34,2.7-11.65,5.71-25.61,5.71-1.43,0-2.81,0-4.15-.1a20.08,20.08,0,0,1-1,2.27c1.71.1,3.44.15,5.16.15,10.09,0,20.64-1.74,25.61-5V49C71,51.7,61.68,54.7,47.72,54.7q-3.94,0-7.37-.29a20.19,20.19,0,0,1-2,2.12,88.36,88.36,0,0,0,9.39.5c10.1,0,20.65-1.74,25.61-5v9.11c0,.71-1.42,2.49-6.77,4.08a68.6,68.6,0,0,1-18.84,2.32c-15.66,0-24.58-3.78-25.52-6a19.47,19.47,0,0,1-3.58-.86v.49c0,6.49,14.64,9.89,29.1,9.89s29.1-3.4,29.1-9.89V9.89C76.82,3.4,62.18,0,47.72,0ZM66.56,14A69,69,0,0,1,47.72,16.3c-16.57,0-25.61-4.23-25.61-6.41,0-.71,1.42-2.49,6.77-4.08A68.6,68.6,0,0,1,47.72,3.49c16.57,0,25.61,4.23,25.61,6.4C73.33,10.61,71.91,12.39,66.56,14Z"/><path class="cls-1" d="M25,59.36A17.46,17.46,0,1,1,42.48,41.9,17.47,17.47,0,0,1,25,59.36Zm0-31.43a14,14,0,1,0,14,14A14,14,0,0,0,25,27.93Z"/><path class="cls-1" d="M14.31,42.48a.58.58,0,0,1-.58-.58A11.3,11.3,0,0,1,25,30.61a.58.58,0,1,1,0,1.16A10.14,10.14,0,0,0,14.89,41.9.58.58,0,0,1,14.31,42.48Z"/><path class="cls-1" d="M2.33,66.93A2.34,2.34,0,0,1,.68,63L11.74,51.89A2.33,2.33,0,1,1,15,55.19L4,66.24A2.3,2.3,0,0,1,2.33,66.93Z"/><path class="cls-1" d="M65.94,23.48a1.16,1.16,0,0,1-.28-2.29,23,23,0,0,0,4.42-1.54,1.16,1.16,0,1,1,1,2.08,25,25,0,0,1-4.89,1.72A1.33,1.33,0,0,1,65.94,23.48Z"/><path class="cls-1" d="M65.94,42.1a1.16,1.16,0,0,1-.28-2.29,22.29,22.29,0,0,0,4.42-1.54,1.17,1.17,0,1,1,1,2.09,25.07,25.07,0,0,1-4.89,1.71A1.33,1.33,0,0,1,65.94,42.1Z"/><path class="cls-1" d="M65.94,60.73a1.17,1.17,0,0,1-.28-2.3,22.29,22.29,0,0,0,4.42-1.54,1.17,1.17,0,1,1,1,2.09,24.42,24.42,0,0,1-4.89,1.71A.9.9,0,0,1,65.94,60.73Z"/></g></g></svg>
