<svg xmlns="http://www.w3.org/2000/svg" viewBox="0 0 141.33 20.76"><defs><style>.cls-1{fill:#010101;}</style></defs><title>Duracell</title><g id="Layer_2" data-name="Layer 2"><g id="Layer_1-2" data-name="Layer 1"><polygon class="cls-1" points="109.11 20.28 95.38 20.28 95.38 0.15 109.16 0.15 109.16 4.71 101.55 4.71 101.55 7.63 107.5 7.63 107.49 11.73 101.55 11.73 101.55 15.46 110.41 15.46 109.11 20.28"/><path class="cls-1" d="M39.13.15v11.9c0,5.66-3.53,8.71-9.25,8.71-5.57,0-9.07-2.84-9.1-8V.15h6.1l0,12.6c0,1.88.94,3.46,3.09,3.46s3-1.68,3-3.46V.15Z"/><path class="cls-1" d="M0,.18H9.38c4.5,0,9.8,2.26,9.84,9.85,0,6.3-4.33,10.25-10.71,10.25H0ZM6.08,15.75H7.66c4,0,5.46-2.19,5.44-5.67,0-3.81-2-5.37-5.49-5.37H6.09Z"/><path class="cls-1" d="M72.36,20.28H78.9l-7-20.1H64.43l-6.78,20.1h6.18l.8-2.79h6.9Zm-6.57-6.84L68,5.64l2.32,7.8Z"/><polygon class="cls-1" points="124.52 20.28 111.97 20.28 111.94 0.18 118.22 0.18 118.23 15.41 125.86 15.41 124.52 20.28"/><polygon class="cls-1" points="139.97 20.28 127.41 20.28 127.41 0.18 133.67 0.18 133.68 15.41 141.31 15.41 139.97 20.28"/><path class="cls-1" d="M93.15,15.55h-3.5c-1.54,0-2.65-.05-3.89-1.34a5.51,5.51,0,0,1-1.5-4.07,5.93,5.93,0,0,1,1.32-3.9,4.41,4.41,0,0,1,3.77-1.45h3.84l0-4.61H87.9a11.14,11.14,0,0,0-5.33,1.26c-3.23,1.77-4.68,5.09-4.66,8.65a10.66,10.66,0,0,0,2.69,7.26,9.87,9.87,0,0,0,7.61,2.93h4.95Z"/><path class="cls-1" d="M41.28,20.28h6.06V4.59H50c1.17,0,1.93.62,1.93,1.55a3.46,3.46,0,0,1-1.12,2.08c-1.16,1.36-2.5,2.95-2.5,2.95l4.36,9.11h6.48L54.6,11.17,56.77,8.8a5.87,5.87,0,0,0,1.56-3.74c0-2.92-2.51-4.95-6.65-4.95H41.27Z"/><path class="cls-1" d="M136.52,2.39a2.41,2.41,0,0,1,4.81,0,2.41,2.41,0,1,1-4.81,0Zm2.58-2H139a1.21,1.21,0,0,0-.66.06A2,2,0,0,0,137,2.14a2,2,0,0,0,1,2A2,2,0,0,0,140.09,4a2.06,2.06,0,0,0,.78-2.18A2,2,0,0,0,139.25.44.4.4,0,0,0,139.1.4Zm.47,2.36c0,.06.06.09.09.16a5.74,5.74,0,0,1,.34.65h-.56a6.26,6.26,0,0,1-.37-.78h-.56v.78h-.56V1.27H139c.41,0,.72,0,.93.37a.79.79,0,0,1,0,.74A.58.58,0,0,1,139.56,2.77Zm-1.06-1.09v.74a2.75,2.75,0,0,0,.75,0,.56.56,0,0,0,.22-.25.43.43,0,0,0-.12-.37c0-.06-.22-.09-.28-.09Z"/></g></g></svg>