<svg xmlns="http://www.w3.org/2000/svg" viewBox="0 0 630.63 610.4"><defs><style>.cls-1{fill:#414042;}.cls-2{fill:#616161;}.cls-3{fill:#fff;}.cls-4{fill:#6aa845;}.cls-5{fill:#4d8fcc;}.cls-6{fill:#ffb71b;}</style></defs><title>Asset 50</title><g id="Layer_2" data-name="Layer 2"><g id="Layer_1-2" data-name="Layer 1"><path class="cls-1" d="M266.38,75.92l4.93-11.14a.22.22,0,0,1,.19-.11h.05a.2.2,0,0,1,.21.11l4.88,11.14c0,.1,0,.19-.14.19h-.42a.26.26,0,0,1-.22-.14l-1.3-3h-6.11l-1.28,3a.29.29,0,0,1-.23.14h-.45C266.38,76.11,266.33,76.05,266.38,75.92Zm7.91-3.52L271.55,66h0l-2.78,6.45Z" transform="translate(-1.7)"/><path class="cls-1" d="M281.28,69.55a3.22,3.22,0,0,1,2,.64V65.12a.2.2,0,0,1,.21-.21h.28a.21.21,0,0,1,.2.21V75.9a.21.21,0,0,1-.21.21h-.16a.21.21,0,0,1-.23-.21l0-.56a3,3,0,0,1-5.17-2.43A3.19,3.19,0,0,1,281.28,69.55Zm-.14,6.08a2.55,2.55,0,0,0,2.11-1.13V70.91a3,3,0,0,0-1.91-.67,2.71,2.71,0,0,0-.2,5.39Z" transform="translate(-1.7)"/><path class="cls-1" d="M291.6,65.12a.21.21,0,0,1,.19-.21h3.39a5.6,5.6,0,1,1,0,11.2h-3.39a.21.21,0,0,1-.19-.21Zm3.46,10.3a4.92,4.92,0,1,0,0-9.83h-2.71v9.83Z" transform="translate(-1.7)"/><path class="cls-1" d="M306.14,69.55a3.36,3.36,0,1,1-3.21,3.34A3.28,3.28,0,0,1,306.14,69.55Zm0,6.07a2.71,2.71,0,1,0-2.53-2.73A2.61,2.61,0,0,0,306.14,75.62Z" transform="translate(-1.7)"/><path class="cls-1" d="M312,69.92a.22.22,0,0,1,.21-.21h.19a.18.18,0,0,1,.18.16l.08.69a2.78,2.78,0,0,1,2.21-1,2.22,2.22,0,0,1,2.09,1.17,3.23,3.23,0,0,1,2.4-1.17c1.75,0,2.5,1.14,2.5,2.93V75.9a.21.21,0,0,1-.21.21h-.32a.19.19,0,0,1-.17-.21V72.48c0-1.47-.64-2.24-1.85-2.24a2.73,2.73,0,0,0-2.11,1.09,4,4,0,0,1,.15,1.15V75.9a.21.21,0,0,1-.21.21h-.31a.19.19,0,0,1-.19-.21V72.48c0-1.47-.65-2.24-1.85-2.24a2.59,2.59,0,0,0-2.09,1.1V75.9c0,.13-.06.21-.2.21h-.32c-.12,0-.18-.09-.18-.21Z" transform="translate(-1.7)"/><path class="cls-1" d="M327,72a5.34,5.34,0,0,1,1.62.29c0-1.41-.14-2.11-1.41-2.11a4.74,4.74,0,0,0-1.92.43.17.17,0,0,1-.24-.13l-.08-.19A.17.17,0,0,1,325,70a4.65,4.65,0,0,1,2.19-.48c1.95,0,2,1.17,2,2.8V75.9a.2.2,0,0,1-.2.21h-.2c-.11,0-.16-.06-.19-.17l-.06-.58a3.38,3.38,0,0,1-2.23.91,2,2,0,0,1-2.09-2.13C324.29,72.91,325.29,72,327,72Zm-.51,3.67a2.9,2.9,0,0,0,2.13-1V72.89a4.33,4.33,0,0,0-1.62-.33c-1.21,0-2,.62-2,1.57A1.44,1.44,0,0,0,326.46,75.65Z" transform="translate(-1.7)"/><path class="cls-1" d="M332.08,66a.55.55,0,1,1,1.09,0,.55.55,0,0,1-1.09,0Zm.19,3.88a.22.22,0,0,1,.21-.21h.29a.21.21,0,0,1,.2.21v6c0,.13-.06.21-.2.21h-.32c-.12,0-.18-.09-.18-.21Z" transform="translate(-1.7)"/><path class="cls-1" d="M336.05,69.92a.21.21,0,0,1,.22-.21h.16a.17.17,0,0,1,.19.16l.07.69a3.35,3.35,0,0,1,2.36-1c1.8,0,2.58,1.14,2.58,2.93V75.9a.21.21,0,0,1-.21.21h-.28a.21.21,0,0,1-.21-.21V72.48c0-1.47-.69-2.24-1.91-2.24a3.31,3.31,0,0,0-2.29,1.1V75.9c0,.13-.06.21-.2.21h-.31c-.11,0-.17-.09-.17-.21Z" transform="translate(-1.7)"/><path class="cls-2" d="M343.26,133.39H261.85a4.91,4.91,0,0,0-4.9,4.89v109a4.91,4.91,0,0,0,4.9,4.9h6v7.51a1.29,1.29,0,0,0,1.29,1.29h19.67a1.28,1.28,0,0,0,1.29-1.29V252.2h25v7.51a1.29,1.29,0,0,0,1.29,1.29H336a1.29,1.29,0,0,0,1.29-1.29V252.2h6a4.91,4.91,0,0,0,4.9-4.9v-109A4.91,4.91,0,0,0,343.26,133.39Zm-55.77,125H270.4V252.2h17.09Zm47.22,0h-17.1V252.2h17.1Z" transform="translate(-1.7)"/><rect class="cls-3" x="259.9" y="176.38" width="81.91" height="32.83"/><path class="cls-4" d="M344.51,210.21H260.6V175.38h83.91Zm-81.91-2h79.91V177.38H262.6Z" transform="translate(-1.7)"/><path class="cls-3" d="M261.85,138h81.41a.25.25,0,0,1,.25.24V171.8H261.6V138.28A.25.25,0,0,1,261.85,138Z" transform="translate(-1.7)"/><path class="cls-5" d="M344.51,172.8H260.6V138.28a1.25,1.25,0,0,1,1.25-1.24h81.41a1.25,1.25,0,0,1,1.25,1.24Zm-81.91-2h79.91V139H262.6Z" transform="translate(-1.7)"/><path class="cls-3" d="M343.26,247.55H261.85a.25.25,0,0,1-.25-.25V213.79h81.91V247.3A.25.25,0,0,1,343.26,247.55Z" transform="translate(-1.7)"/><path class="cls-6" d="M343.26,248.55H261.85a1.25,1.25,0,0,1-1.25-1.25V212.79h83.91V247.3A1.25,1.25,0,0,1,343.26,248.55Zm-80.66-2h79.91V214.79H262.6Z" transform="translate(-1.7)"/><path class="cls-2" d="M279,185.6a7.2,7.2,0,1,0,7.19,7.19A7.21,7.21,0,0,0,279,185.6Zm0,11.8a4.61,4.61,0,1,1,4.61-4.61A4.6,4.6,0,0,1,279,197.4Z" transform="translate(-1.7)"/><path class="cls-2" d="M279,162.58a7.2,7.2,0,1,0-7.2-7.2A7.21,7.21,0,0,0,279,162.58Zm0-11.81a4.62,4.62,0,1,1-4.61,4.61A4.62,4.62,0,0,1,279,150.77Z" transform="translate(-1.7)"/><path class="cls-2" d="M279,223a7.2,7.2,0,1,0,7.19,7.19A7.21,7.21,0,0,0,279,223Zm0,11.8a4.61,4.61,0,1,1,4.61-4.61A4.6,4.6,0,0,1,279,234.81Z" transform="translate(-1.7)"/><circle class="cls-2" cx="328.4" cy="192.79" r="3.26"/><circle class="cls-2" cx="316.59" cy="192.79" r="3.26"/><circle class="cls-2" cx="304.79" cy="192.79" r="3.26"/><path class="cls-2" d="M330.09,158.64a3.26,3.26,0,1,0-3.25-3.26A3.26,3.26,0,0,0,330.09,158.64Z" transform="translate(-1.7)"/><path class="cls-2" d="M318.29,158.64a3.26,3.26,0,1,0-3.26-3.26A3.26,3.26,0,0,0,318.29,158.64Z" transform="translate(-1.7)"/><path class="cls-2" d="M306.49,158.64a3.26,3.26,0,1,0-3.26-3.26A3.27,3.27,0,0,0,306.49,158.64Z" transform="translate(-1.7)"/><path class="cls-2" d="M330.09,227a3.26,3.26,0,1,0,3.26,3.25A3.26,3.26,0,0,0,330.09,227Z" transform="translate(-1.7)"/><path class="cls-2" d="M318.29,227a3.26,3.26,0,1,0,3.26,3.25A3.26,3.26,0,0,0,318.29,227Z" transform="translate(-1.7)"/><path class="cls-2" d="M306.49,227a3.26,3.26,0,1,0,3.26,3.25A3.26,3.26,0,0,0,306.49,227Z" transform="translate(-1.7)"/><path class="cls-1" d="M278.74,278.25a5.45,5.45,0,0,1,3.89,1.49.19.19,0,0,1,0,.28l-.26.28c-.09.09-.17.08-.27,0a5,5,0,1,0-3.38,8.77,5.07,5.07,0,0,0,3.38-1.34.2.2,0,0,1,.26,0l.27.27a.18.18,0,0,1,0,.27,5.52,5.52,0,0,1-3.91,1.55,5.76,5.76,0,1,1,0-11.52Z" transform="translate(-1.7)"/><path class="cls-1" d="M283.85,283.47c-.07-.13-.05-.26.09-.26h.35a.23.23,0,0,1,.21.14l2.74,5.41h0l2.5-5.41a.25.25,0,0,1,.21-.14h.35c.14,0,.16.13.09.26l-5,10.82a.22.22,0,0,1-.21.12h-.37c-.12,0-.17-.08-.11-.22l2.16-4.64Z" transform="translate(-1.7)"/><path class="cls-1" d="M292.55,278.62a.21.21,0,0,1,.21-.21H293a.21.21,0,0,1,.21.21v5.07a3.31,3.31,0,0,1,2-.64,3.38,3.38,0,0,1,.2,6.72,3.09,3.09,0,0,1-2.23-.94l-.05.57a.2.2,0,0,1-.22.21h-.16a.21.21,0,0,1-.21-.21Zm2.8,10.51a2.71,2.71,0,0,0-.21-5.39,3,3,0,0,0-1.89.67V288A2.56,2.56,0,0,0,295.35,289.13Z" transform="translate(-1.7)"/><path class="cls-1" d="M303.65,283.05a2.81,2.81,0,0,1,2.9,2.93c0,.26,0,.62-.24.62h-5.1a2.52,2.52,0,0,0,2.49,2.53,3.37,3.37,0,0,0,1.89-.59c.15-.1.21-.11.29,0l.16.22c0,.07,0,.16-.06.26a3.88,3.88,0,0,1-2.33.75,3.37,3.37,0,0,1,0-6.72Zm2.2,3a2.16,2.16,0,0,0-2.2-2.34,2.38,2.38,0,0,0-2.43,2.34Z" transform="translate(-1.7)"/><path class="cls-1" d="M309.08,283.42a.21.21,0,0,1,.21-.21h.19a.19.19,0,0,1,.19.18l.06.65a2.49,2.49,0,0,1,2-1,2.63,2.63,0,0,1,1,.19c.14.05.22.16.17.29l-.12.32a.18.18,0,0,1-.26.08,2.08,2.08,0,0,0-.83-.19,2.28,2.28,0,0,0-1.91,1.1v4.56a.19.19,0,0,1-.21.21h-.32c-.11,0-.17-.09-.17-.21Z" transform="translate(-1.7)"/><path class="cls-1" d="M313.32,289.42l4.93-11.14a.22.22,0,0,1,.19-.11h.05a.2.2,0,0,1,.21.11l4.88,11.14c0,.1,0,.19-.15.19H323a.29.29,0,0,1-.23-.14l-1.29-3h-6.12l-1.28,3a.26.26,0,0,1-.22.14h-.45C313.32,289.61,313.27,289.55,313.32,289.42Zm7.9-3.52-2.73-6.45h0l-2.79,6.45Z" transform="translate(-1.7)"/><path class="cls-1" d="M325.53,283.42a.21.21,0,0,1,.2-.21h.2a.19.19,0,0,1,.19.18l.06.65a2.47,2.47,0,0,1,2-1,2.64,2.64,0,0,1,1,.19c.14.05.22.16.17.29l-.13.32c0,.11-.14.13-.25.08a2.09,2.09,0,0,0-.84-.19,2.27,2.27,0,0,0-1.9,1.1v4.56a.19.19,0,0,1-.21.21h-.32c-.11,0-.17-.09-.17-.21Z" transform="translate(-1.7)"/><path class="cls-1" d="M331.35,278.62a.21.21,0,0,1,.21-.21h.27a.21.21,0,0,1,.21.21v7.17l3.41-2.48a.38.38,0,0,1,.25-.1h.47c.16,0,.17.21,0,.29L332.77,286l3.86,3.31a.15.15,0,0,1-.08.27h-.49a.42.42,0,0,1-.32-.13L332,286.3v3.1a.19.19,0,0,1-.21.21h-.3c-.12,0-.18-.09-.18-.21Z" transform="translate(-1.7)"/><path class="cls-1" d="M244.18,297.62a.2.2,0,0,1,.2-.21h6.42a.21.21,0,0,1,.21.21v.27a.21.21,0,0,1-.21.2h-5.86v4.42H250a.22.22,0,0,1,.21.21V303a.21.21,0,0,1-.21.21h-5.08v4.74h5.86a.22.22,0,0,1,.21.21v.25a.21.21,0,0,1-.21.21h-6.42a.2.2,0,0,1-.2-.21Z" transform="translate(-1.7)"/><path class="cls-1" d="M253.71,302.42a.22.22,0,0,1,.23-.21h.16a.18.18,0,0,1,.19.16l.06.69a3.4,3.4,0,0,1,2.37-1c1.79,0,2.58,1.14,2.58,2.93v3.42a.21.21,0,0,1-.21.21h-.29a.21.21,0,0,1-.21-.21V305c0-1.47-.69-2.24-1.9-2.24a3.28,3.28,0,0,0-2.29,1.1v4.56a.19.19,0,0,1-.21.21h-.3a.19.19,0,0,1-.18-.21Z" transform="translate(-1.7)"/><path class="cls-1" d="M265,302.05a3.22,3.22,0,0,1,2,.64v-5.07a.2.2,0,0,1,.21-.21h.29a.21.21,0,0,1,.19.21V308.4a.21.21,0,0,1-.21.21h-.16a.2.2,0,0,1-.22-.21l0-.56a3.1,3.1,0,0,1-2.21.93,3.15,3.15,0,0,1-3-3.36A3.19,3.19,0,0,1,265,302.05Zm-.14,6.08a2.55,2.55,0,0,0,2.11-1.13v-3.59a3,3,0,0,0-1.9-.67,2.71,2.71,0,0,0-.21,5.39Z" transform="translate(-1.7)"/><path class="cls-1" d="M271.38,313.21a.21.21,0,0,1-.21.2h-.27a.2.2,0,0,1-.21-.2V302.42a.21.21,0,0,1,.22-.21h.18a.17.17,0,0,1,.19.16l.05.45a3.23,3.23,0,0,1,2.09-.77,3.18,3.18,0,0,1,3.09,3.36,3.21,3.21,0,0,1-3.23,3.36,2.89,2.89,0,0,1-1.9-.65Zm1.82-5.11a2.58,2.58,0,0,0,2.61-2.71,2.5,2.5,0,0,0-2.43-2.68,2.57,2.57,0,0,0-2,.89v3.75A2.51,2.51,0,0,0,273.2,308.1Z" transform="translate(-1.7)"/><path class="cls-1" d="M281.86,302.05a3.36,3.36,0,1,1-3.22,3.34A3.28,3.28,0,0,1,281.86,302.05Zm0,6.07a2.71,2.71,0,1,0-2.53-2.73A2.6,2.6,0,0,0,281.86,308.12Z" transform="translate(-1.7)"/><path class="cls-1" d="M287.47,298.54a.55.55,0,1,1,1.09,0,.55.55,0,0,1-1.09,0Zm.19,3.88a.22.22,0,0,1,.21-.21h.29a.22.22,0,0,1,.21.21v6a.19.19,0,0,1-.21.21h-.32a.19.19,0,0,1-.18-.21Z" transform="translate(-1.7)"/><path class="cls-1" d="M291.44,302.42a.22.22,0,0,1,.22-.21h.16a.18.18,0,0,1,.2.16l.06.69a3.4,3.4,0,0,1,2.37-1c1.79,0,2.58,1.14,2.58,2.93v3.42a.21.21,0,0,1-.21.21h-.29a.21.21,0,0,1-.21-.21V305c0-1.47-.69-2.24-1.9-2.24a3.26,3.26,0,0,0-2.29,1.1v4.56a.19.19,0,0,1-.21.21h-.3c-.12,0-.18-.09-.18-.21Z" transform="translate(-1.7)"/><path class="cls-1" d="M300.27,302.83h-.75c-.16,0-.19-.08-.19-.2v-.26c0-.11.08-.16.19-.16h.75v-1.75a.2.2,0,0,1,.21-.2l.27,0a.22.22,0,0,1,.21.21v1.76h2.22a.2.2,0,0,1,.21.21v.21a.19.19,0,0,1-.21.2H301v4.09c0,.75.08,1.16.83,1.16a3.42,3.42,0,0,0,1.46-.43.16.16,0,0,1,.25.07l.12.19a.19.19,0,0,1-.05.27,3.22,3.22,0,0,1-1.86.59c-1.33,0-1.44-.78-1.44-1.81Z" transform="translate(-1.7)"/><path class="cls-1" d="M310.49,297.62a.21.21,0,0,1,.21-.21h3.44a3.61,3.61,0,1,1,0,7.22h-2.91v3.77c0,.12-.1.21-.26.21h-.29a.21.21,0,0,1-.21-.21Zm3.62,6.27A2.92,2.92,0,0,0,317,301a2.88,2.88,0,0,0-2.91-2.82h-2.85v5.73Z" transform="translate(-1.7)"/><path class="cls-1" d="M319.84,302.42a.22.22,0,0,1,.21-.21h.19a.18.18,0,0,1,.19.18l.07.65a2.45,2.45,0,0,1,2-1,2.63,2.63,0,0,1,1,.19c.14.05.22.16.17.29l-.12.32a.18.18,0,0,1-.26.08,2.08,2.08,0,0,0-.83-.19,2.28,2.28,0,0,0-1.91,1.1v4.56c0,.13-.06.21-.2.21H320c-.12,0-.18-.09-.18-.21Z" transform="translate(-1.7)"/><path class="cls-1" d="M325.47,298.54a.55.55,0,1,1,1.09,0,.55.55,0,0,1-1.09,0Zm.19,3.88a.22.22,0,0,1,.21-.21h.29a.22.22,0,0,1,.21.21v6a.19.19,0,0,1-.21.21h-.32a.19.19,0,0,1-.18-.21Z" transform="translate(-1.7)"/><path class="cls-1" d="M328.49,302.45c-.06-.13,0-.24.1-.24h.35a.21.21,0,0,1,.21.14l2.32,5.29h0l2.33-5.29a.21.21,0,0,1,.21-.14h.35c.15,0,.16.11.1.24l-2.78,6.18a.23.23,0,0,1-.2.14h-.06a.17.17,0,0,1-.19-.14Z" transform="translate(-1.7)"/><path class="cls-1" d="M336.41,298.54a.55.55,0,1,1,1.09,0,.55.55,0,0,1-1.09,0Zm.2,3.88a.21.21,0,0,1,.2-.21h.29a.22.22,0,0,1,.21.21v6a.19.19,0,0,1-.21.21h-.32c-.11,0-.17-.09-.17-.21Z" transform="translate(-1.7)"/><path class="cls-1" d="M340.38,297.62a.21.21,0,0,1,.21-.21h.29a.21.21,0,0,1,.21.21V308.4a.19.19,0,0,1-.21.21h-.32a.19.19,0,0,1-.18-.21Z" transform="translate(-1.7)"/><path class="cls-1" d="M346.85,302.05a2.81,2.81,0,0,1,2.89,2.93c0,.26,0,.62-.24.62h-5.1a2.52,2.52,0,0,0,2.49,2.53,3.44,3.44,0,0,0,1.9-.59c.14-.1.2-.11.28,0l.16.22c0,.07,0,.16-.06.26a3.88,3.88,0,0,1-2.32.75,3.37,3.37,0,0,1,0-6.72Zm2.19,3a2.15,2.15,0,0,0-2.19-2.34,2.38,2.38,0,0,0-2.44,2.34Z" transform="translate(-1.7)"/><path class="cls-1" d="M352.67,306.35a2.72,2.72,0,0,1-.5-1.59,2.63,2.63,0,0,1,2.81-2.71h2.62a.2.2,0,0,1,.21.21v.17a.2.2,0,0,1-.15.2l-1.15.08a2.17,2.17,0,0,1,1,2.05,2.57,2.57,0,0,1-2.65,2.65,2.48,2.48,0,0,1-1.75-.57,1.3,1.3,0,0,0-.81,1.15c0,.75.64.93,1.26.93h2.32c1.38,0,2.37.62,2.37,2s-1.31,2.61-3.26,2.61c-2.18,0-3.12-1.28-3.12-2.37a2,2,0,0,1,1-1.68,1.58,1.58,0,0,1-1.24-1.45A2,2,0,0,1,352.67,306.35Zm2.29,6.57c1.44,0,2.54-.85,2.54-1.94,0-.73-.44-1.41-1.63-1.41h-2a1.75,1.75,0,0,0-1.3,1.55C352.56,312,353.41,312.92,355,312.92Zm1.87-8.18a1.9,1.9,0,0,0-2-2.05,2,2,0,0,0-2,2.05,1.92,1.92,0,0,0,2,2.05A1.94,1.94,0,0,0,356.83,304.74Z" transform="translate(-1.7)"/><path class="cls-1" d="M363,302.05a2.82,2.82,0,0,1,2.9,2.93c0,.26,0,.62-.24.62h-5.11a2.53,2.53,0,0,0,2.5,2.53,3.4,3.4,0,0,0,1.89-.59c.14-.1.21-.11.29,0l.16.22c0,.07,0,.16-.07.26a3.88,3.88,0,0,1-2.32.75,3.37,3.37,0,0,1,0-6.72Zm2.19,3a2.15,2.15,0,0,0-2.19-2.34,2.38,2.38,0,0,0-2.43,2.34Z" transform="translate(-1.7)"/><path class="cls-1" d="M278,316.36a.15.15,0,0,1,.14-.11h.18a.16.16,0,0,1,.16.11l3.29,9.83h0l3.31-9.83a.15.15,0,0,1,.16-.11h.17a.16.16,0,0,1,.15.11l2.27,11c0,.16,0,.21-.17.21h-.39a.21.21,0,0,1-.19-.17l-1.81-9.38h0l-3.23,9.58a.22.22,0,0,1-.23.13h-.06c-.08,0-.18,0-.21-.13l-3.23-9.58h0l-1.8,9.38a.21.21,0,0,1-.2.17h-.38c-.14,0-.21-.05-.18-.21Z" transform="translate(-1.7)"/><path class="cls-1" d="M292.66,323.48a5.32,5.32,0,0,1,1.61.29c0-1.41-.14-2.11-1.4-2.11a4.76,4.76,0,0,0-1.93.43c-.12.05-.2,0-.24-.13l-.08-.19c0-.14,0-.21.1-.24a4.65,4.65,0,0,1,2.19-.48c2,0,2,1.17,2,2.8v3.55a.21.21,0,0,1-.21.21h-.2c-.11,0-.16-.06-.19-.17l-.06-.58a3.38,3.38,0,0,1-2.23.91,2,2,0,0,1-2.09-2.13C290,324.41,291,323.48,292.66,323.48Zm-.52,3.67a2.9,2.9,0,0,0,2.13-1v-1.77a4.27,4.27,0,0,0-1.61-.33c-1.22,0-2,.62-2,1.57A1.44,1.44,0,0,0,292.14,327.15Z" transform="translate(-1.7)"/><path class="cls-1" d="M298,321.42a.22.22,0,0,1,.23-.21h.16a.18.18,0,0,1,.19.16l.06.69a3.4,3.4,0,0,1,2.37-1c1.79,0,2.58,1.14,2.58,2.93v3.42a.21.21,0,0,1-.21.21H303a.21.21,0,0,1-.21-.21V324c0-1.47-.69-2.24-1.9-2.24a3.28,3.28,0,0,0-2.29,1.1v4.56a.19.19,0,0,1-.21.21h-.3a.19.19,0,0,1-.18-.21Z" transform="translate(-1.7)"/><path class="cls-1" d="M308.69,323.48a5.32,5.32,0,0,1,1.61.29c0-1.41-.14-2.11-1.4-2.11a4.76,4.76,0,0,0-1.93.43c-.12.05-.2,0-.24-.13l-.08-.19c0-.14,0-.21.1-.24a4.69,4.69,0,0,1,2.19-.48c2,0,2,1.17,2,2.8v3.55a.21.21,0,0,1-.21.21h-.19c-.12,0-.16-.06-.2-.17l-.06-.58a3.37,3.37,0,0,1-2.22.91,2,2,0,0,1-2.1-2.13C306,324.41,307,323.48,308.69,323.48Zm-.51,3.67a2.9,2.9,0,0,0,2.12-1v-1.77a4.22,4.22,0,0,0-1.61-.33c-1.22,0-2,.62-2,1.57A1.45,1.45,0,0,0,308.18,327.15Z" transform="translate(-1.7)"/><path class="cls-1" d="M314.38,325.35a2.81,2.81,0,0,1-.49-1.59,2.62,2.62,0,0,1,2.8-2.71h2.62a.2.2,0,0,1,.21.21v.17a.2.2,0,0,1-.14.2l-1.16.08a2.17,2.17,0,0,1,1,2.05,2.58,2.58,0,0,1-2.66,2.65,2.48,2.48,0,0,1-1.75-.57A1.31,1.31,0,0,0,314,327c0,.75.64.93,1.26.93h2.32c1.38,0,2.37.62,2.37,2s-1.31,2.61-3.26,2.61c-2.18,0-3.12-1.28-3.12-2.37a2,2,0,0,1,1-1.68,1.58,1.58,0,0,1-1.24-1.45A2.06,2.06,0,0,1,314.38,325.35Zm2.29,6.57c1.44,0,2.55-.85,2.55-1.94,0-.73-.45-1.41-1.64-1.41h-2a1.75,1.75,0,0,0-1.3,1.55C314.27,331,315.12,331.92,316.67,331.92Zm1.87-8.18a1.9,1.9,0,0,0-2-2.05,2,2,0,0,0-2,2.05,2,2,0,1,0,4,0Z" transform="translate(-1.7)"/><path class="cls-1" d="M324.7,321.05a2.82,2.82,0,0,1,2.9,2.93c0,.26,0,.62-.24.62h-5.1a2.52,2.52,0,0,0,2.49,2.53,3.37,3.37,0,0,0,1.89-.59c.15-.1.21-.11.29,0l.16.22c.05.07,0,.16-.06.26a3.88,3.88,0,0,1-2.33.75,3.37,3.37,0,0,1,0-6.72Zm2.2,3a2.16,2.16,0,0,0-2.2-2.34,2.38,2.38,0,0,0-2.43,2.34Z" transform="translate(-1.7)"/><path class="cls-1" d="M330.13,321.42a.21.21,0,0,1,.2-.21h.2a.19.19,0,0,1,.19.18l.06.65a2.47,2.47,0,0,1,2-1,2.7,2.7,0,0,1,1,.19c.14.05.22.16.17.29l-.13.32c0,.11-.14.13-.25.08a2.09,2.09,0,0,0-.84-.19,2.27,2.27,0,0,0-1.9,1.1v4.56a.19.19,0,0,1-.21.21h-.32c-.11,0-.17-.09-.17-.21Z" transform="translate(-1.7)"/><path class="cls-1" d="M445.93,575.07a5.47,5.47,0,0,1,3.89,1.49.21.21,0,0,1,0,.29l-.25.27c-.1.09-.18.08-.28,0a5,5,0,1,0-3.37,8.77,5.07,5.07,0,0,0,3.37-1.34.2.2,0,0,1,.26,0l.27.27a.18.18,0,0,1,0,.27,5.51,5.51,0,0,1-3.9,1.55,5.76,5.76,0,1,1,0-11.52Z" transform="translate(-1.7)"/><path class="cls-1" d="M451,580.29c-.07-.13,0-.26.09-.26h.36a.22.22,0,0,1,.2.15l2.74,5.41h0l2.5-5.41a.24.24,0,0,1,.21-.15h.35c.14,0,.16.13.1.26l-5,10.82a.23.23,0,0,1-.21.13H452c-.12,0-.17-.08-.11-.23l2.16-4.64Z" transform="translate(-1.7)"/><path class="cls-1" d="M459.73,575.44a.22.22,0,0,1,.21-.21h.27a.22.22,0,0,1,.21.21v5.07a3.31,3.31,0,0,1,2-.64,3.38,3.38,0,0,1,.2,6.72,3.09,3.09,0,0,1-2.23-.94l-.05.58a.19.19,0,0,1-.22.2h-.16a.21.21,0,0,1-.21-.2Zm2.8,10.51a2.71,2.71,0,0,0-.21-5.39,3,3,0,0,0-1.88.67v3.59A2.53,2.53,0,0,0,462.53,586Z" transform="translate(-1.7)"/><path class="cls-1" d="M470.84,579.87a2.81,2.81,0,0,1,2.89,2.93c0,.26,0,.63-.24.63h-5.1a2.52,2.52,0,0,0,2.49,2.52,3.37,3.37,0,0,0,1.89-.59c.15-.1.21-.11.29,0l.16.23c0,.06,0,.16-.06.25a3.88,3.88,0,0,1-2.32.75,3.37,3.37,0,0,1,0-6.72Zm2.19,3a2.15,2.15,0,0,0-2.19-2.34,2.39,2.39,0,0,0-2.44,2.34Z" transform="translate(-1.7)"/><path class="cls-1" d="M476.26,580.24a.22.22,0,0,1,.21-.21h.19a.18.18,0,0,1,.19.18l.07.65a2.47,2.47,0,0,1,2-1,2.63,2.63,0,0,1,1,.19c.14.05.22.16.17.29l-.12.32a.18.18,0,0,1-.26.08,2.08,2.08,0,0,0-.83-.19,2.25,2.25,0,0,0-1.91,1.11v4.56a.18.18,0,0,1-.2.2h-.32a.18.18,0,0,1-.18-.2Z" transform="translate(-1.7)"/><path class="cls-1" d="M480.5,586.24l4.93-11.14a.22.22,0,0,1,.19-.11h.05a.22.22,0,0,1,.21.11l4.88,11.14c0,.1,0,.19-.14.19h-.42a.26.26,0,0,1-.22-.14l-1.3-2.95h-6.12l-1.28,2.95a.26.26,0,0,1-.22.14h-.45C480.5,586.43,480.45,586.37,480.5,586.24Zm7.91-3.52-2.74-6.45h0l-2.79,6.45Z" transform="translate(-1.7)"/><path class="cls-1" d="M492.71,580.24a.21.21,0,0,1,.21-.21h.19a.19.19,0,0,1,.19.18l.06.65a2.47,2.47,0,0,1,2-1,2.63,2.63,0,0,1,1,.19c.14.05.22.16.17.29l-.12.32a.18.18,0,0,1-.26.08,2.08,2.08,0,0,0-.83-.19,2.25,2.25,0,0,0-1.91,1.11v4.56a.18.18,0,0,1-.21.2h-.32a.18.18,0,0,1-.17-.2Z" transform="translate(-1.7)"/><path class="cls-1" d="M498.53,575.44a.22.22,0,0,1,.21-.21H499a.22.22,0,0,1,.21.21v7.17l3.41-2.48a.38.38,0,0,1,.25-.1h.47c.16,0,.18.21,0,.29L500,582.85l3.85,3.31a.15.15,0,0,1-.08.27h-.49a.44.44,0,0,1-.32-.12l-3.7-3.19v3.11a.18.18,0,0,1-.21.2h-.3a.18.18,0,0,1-.18-.2Z" transform="translate(-1.7)"/><path class="cls-1" d="M510.61,575.44a.22.22,0,0,1,.21-.21h6.42a.22.22,0,0,1,.21.21v.27a.22.22,0,0,1-.21.21h-5.86v4.42h5.07a.2.2,0,0,1,.21.2v.28a.2.2,0,0,1-.21.2h-5.07v4.74h5.86a.22.22,0,0,1,.21.21v.26a.21.21,0,0,1-.21.2h-6.42a.21.21,0,0,1-.21-.2Z" transform="translate(-1.7)"/><path class="cls-1" d="M520.15,580.24a.21.21,0,0,1,.22-.21h.16a.17.17,0,0,1,.19.16l.07.69a3.45,3.45,0,0,1,2.37-1c1.79,0,2.57,1.14,2.57,2.93v3.43a.2.2,0,0,1-.2.2h-.29a.2.2,0,0,1-.21-.2V582.8c0-1.47-.69-2.24-1.91-2.24a3.3,3.3,0,0,0-2.29,1.11v4.56a.18.18,0,0,1-.2.2h-.31a.18.18,0,0,1-.17-.2Z" transform="translate(-1.7)"/><path class="cls-1" d="M531.4,579.87a3.21,3.21,0,0,1,2,.64v-5.07a.2.2,0,0,1,.21-.21h.29a.21.21,0,0,1,.19.21v10.79a.2.2,0,0,1-.21.2h-.16a.2.2,0,0,1-.22-.2l-.05-.56a3,3,0,0,1-5.17-2.44A3.19,3.19,0,0,1,531.4,579.87Zm-.15,6.08a2.55,2.55,0,0,0,2.11-1.13v-3.59a3,3,0,0,0-1.9-.67,2.71,2.71,0,0,0-.21,5.39Z" transform="translate(-1.7)"/><path class="cls-1" d="M537.81,591a.22.22,0,0,1-.21.21h-.27a.22.22,0,0,1-.21-.21V580.24a.22.22,0,0,1,.23-.21h.17a.17.17,0,0,1,.19.16l0,.45a3.27,3.27,0,0,1,2.1-.77,3.18,3.18,0,0,1,3.09,3.36,3.22,3.22,0,0,1-3.23,3.36,3,3,0,0,1-1.91-.65Zm1.83-5.11a2.57,2.57,0,0,0,2.61-2.7,2.5,2.5,0,0,0-4.42-1.79v3.74A2.51,2.51,0,0,0,539.64,585.92Z" transform="translate(-1.7)"/><path class="cls-1" d="M548.29,579.87a3.36,3.36,0,1,1-3.22,3.35A3.29,3.29,0,0,1,548.29,579.87Zm0,6.07a2.71,2.71,0,1,0-2.53-2.72A2.59,2.59,0,0,0,548.29,585.94Z" transform="translate(-1.7)"/><path class="cls-1" d="M553.91,576.37a.55.55,0,0,1,.54-.56.56.56,0,0,1,.55.56.54.54,0,0,1-.55.52A.53.53,0,0,1,553.91,576.37Zm.19,3.87a.21.21,0,0,1,.21-.21h.28a.21.21,0,0,1,.21.21v6a.18.18,0,0,1-.21.2h-.32a.18.18,0,0,1-.17-.2Z" transform="translate(-1.7)"/><path class="cls-1" d="M557.88,580.24a.21.21,0,0,1,.22-.21h.16a.18.18,0,0,1,.19.16l.06.69a3.45,3.45,0,0,1,2.37-1c1.8,0,2.58,1.14,2.58,2.93v3.43a.2.2,0,0,1-.21.2H563a.2.2,0,0,1-.2-.2V582.8c0-1.47-.69-2.24-1.91-2.24a3.3,3.3,0,0,0-2.29,1.11v4.56a.18.18,0,0,1-.21.2h-.3a.18.18,0,0,1-.17-.2Z" transform="translate(-1.7)"/><path class="cls-1" d="M566.71,580.66H566c-.16,0-.19-.08-.19-.21v-.26c0-.11.08-.16.19-.16h.76v-1.74a.2.2,0,0,1,.2-.21l.28,0a.21.21,0,0,1,.2.21V580h2.23a.2.2,0,0,1,.21.21v.21a.19.19,0,0,1-.21.21h-2.23v4.08c0,.75.08,1.17.84,1.17a3.31,3.31,0,0,0,1.45-.44.17.17,0,0,1,.26.07l.11.19a.18.18,0,0,1,0,.27,3.18,3.18,0,0,1-1.85.59c-1.33,0-1.44-.78-1.44-1.8Z" transform="translate(-1.7)"/><path class="cls-1" d="M576.93,575.44a.22.22,0,0,1,.21-.21h3.44a3.61,3.61,0,1,1,0,7.22h-2.92v3.78c0,.11-.09.2-.25.2h-.29a.21.21,0,0,1-.21-.2Zm3.62,6.27a2.91,2.91,0,0,0,2.89-2.91,2.87,2.87,0,0,0-2.91-2.82h-2.85v5.73Z" transform="translate(-1.7)"/><path class="cls-1" d="M586.27,580.24a.22.22,0,0,1,.21-.21h.19a.2.2,0,0,1,.2.18l.06.65a2.47,2.47,0,0,1,2-1,2.58,2.58,0,0,1,1,.19c.15.05.23.16.18.29l-.13.32a.17.17,0,0,1-.25.08,2.09,2.09,0,0,0-.84-.19,2.23,2.23,0,0,0-1.9,1.11v4.56a.19.19,0,0,1-.21.2h-.32a.18.18,0,0,1-.18-.2Z" transform="translate(-1.7)"/><path class="cls-1" d="M591.91,576.37a.55.55,0,0,1,.54-.56.56.56,0,0,1,.55.56.54.54,0,0,1-.55.52A.53.53,0,0,1,591.91,576.37Zm.19,3.87a.21.21,0,0,1,.21-.21h.28a.21.21,0,0,1,.21.21v6a.18.18,0,0,1-.21.2h-.32a.18.18,0,0,1-.17-.2Z" transform="translate(-1.7)"/><path class="cls-1" d="M594.93,580.27c-.06-.13,0-.24.1-.24h.35a.21.21,0,0,1,.21.15l2.32,5.28h0l2.34-5.28a.21.21,0,0,1,.21-.15h.35c.14,0,.16.11.1.24l-2.79,6.18a.21.21,0,0,1-.19.14h-.06a.19.19,0,0,1-.2-.14Z" transform="translate(-1.7)"/><path class="cls-1" d="M602.85,576.37a.55.55,0,1,1,1.09,0,.55.55,0,0,1-1.09,0Zm.19,3.87a.22.22,0,0,1,.21-.21h.29a.22.22,0,0,1,.21.21v6a.19.19,0,0,1-.21.2h-.32a.18.18,0,0,1-.18-.2Z" transform="translate(-1.7)"/><path class="cls-1" d="M606.82,575.44a.21.21,0,0,1,.21-.21h.28a.21.21,0,0,1,.21.21v10.79a.18.18,0,0,1-.21.2H607a.18.18,0,0,1-.17-.2Z" transform="translate(-1.7)"/><path class="cls-1" d="M613.28,579.87a2.82,2.82,0,0,1,2.9,2.93c0,.26,0,.63-.24.63h-5.11a2.53,2.53,0,0,0,2.5,2.52,3.37,3.37,0,0,0,1.89-.59c.14-.1.21-.11.29,0l.16.23c.05.06,0,.16-.07.25a3.85,3.85,0,0,1-2.32.75,3.37,3.37,0,0,1,0-6.72Zm2.2,3a2.16,2.16,0,0,0-2.2-2.34,2.39,2.39,0,0,0-2.43,2.34Z" transform="translate(-1.7)"/><path class="cls-1" d="M619.11,584.18a2.79,2.79,0,0,1-.5-1.6,2.62,2.62,0,0,1,2.8-2.71H624a.2.2,0,0,1,.2.21v.18a.18.18,0,0,1-.14.19l-1.15.08a2.19,2.19,0,0,1,1,2.05,2.58,2.58,0,0,1-2.66,2.65,2.44,2.44,0,0,1-1.74-.57,1.32,1.32,0,0,0-.82,1.15c0,.75.64.93,1.27.93h2.32c1.37,0,2.37.62,2.37,2s-1.32,2.61-3.27,2.61c-2.18,0-3.12-1.28-3.12-2.37a2,2,0,0,1,1-1.68,1.61,1.61,0,0,1-1.25-1.46A2,2,0,0,1,619.11,584.18Zm2.28,6.56c1.44,0,2.55-.85,2.55-1.94,0-.73-.45-1.41-1.63-1.41h-2A1.75,1.75,0,0,0,619,589C619,589.83,619.84,590.74,621.39,590.74Zm1.88-8.18a1.91,1.91,0,0,0-2-2,2,2,0,0,0-2,2,1.91,1.91,0,0,0,2,2.05A1.94,1.94,0,0,0,623.27,582.56Z" transform="translate(-1.7)"/><path class="cls-1" d="M629.43,579.87a2.81,2.81,0,0,1,2.89,2.93c0,.26,0,.63-.24.63H627a2.52,2.52,0,0,0,2.49,2.52,3.37,3.37,0,0,0,1.89-.59c.15-.1.21-.11.29,0l.16.23c.05.06,0,.16-.06.25a3.88,3.88,0,0,1-2.32.75,3.37,3.37,0,0,1,0-6.72Zm2.19,3a2.15,2.15,0,0,0-2.19-2.34,2.39,2.39,0,0,0-2.44,2.34Z" transform="translate(-1.7)"/><path class="cls-1" d="M460.31,594.18a.15.15,0,0,1,.14-.11h.18a.15.15,0,0,1,.16.11l3.3,9.83h0l3.31-9.83a.15.15,0,0,1,.16-.11h.18a.15.15,0,0,1,.14.11l2.27,11.05c0,.16,0,.2-.17.2h-.39a.21.21,0,0,1-.19-.17l-1.81-9.38h0l-3.23,9.59a.22.22,0,0,1-.23.12h-.06c-.08,0-.18,0-.21-.12l-3.23-9.59h0l-1.81,9.38a.21.21,0,0,1-.19.17h-.39c-.14,0-.21,0-.17-.2Z" transform="translate(-1.7)"/><path class="cls-1" d="M475,601.3a5.41,5.41,0,0,1,1.62.29c0-1.41-.15-2.11-1.41-2.11a4.63,4.63,0,0,0-1.92.43.16.16,0,0,1-.24-.13l-.08-.19c-.05-.14,0-.21.09-.24a4.71,4.71,0,0,1,2.2-.48c2,0,2,1.17,2,2.8v3.56a.21.21,0,0,1-.21.2h-.19c-.11,0-.16-.06-.19-.17l-.07-.58a3.3,3.3,0,0,1-2.22.91,2,2,0,0,1-2.1-2.12C472.26,602.23,473.27,601.3,475,601.3Zm-.51,3.67a2.94,2.94,0,0,0,2.13-1v-1.76a4.09,4.09,0,0,0-1.62-.34c-1.22,0-2,.63-2,1.57A1.44,1.44,0,0,0,474.44,605Z" transform="translate(-1.7)"/><path class="cls-1" d="M480.24,599.24a.22.22,0,0,1,.23-.21h.16a.18.18,0,0,1,.19.16l.06.69a3.45,3.45,0,0,1,2.37-1c1.8,0,2.58,1.14,2.58,2.93v3.43a.21.21,0,0,1-.21.2h-.29a.2.2,0,0,1-.2-.2V601.8c0-1.47-.69-2.24-1.91-2.24a3.3,3.3,0,0,0-2.29,1.11v4.56a.18.18,0,0,1-.21.2h-.3a.18.18,0,0,1-.18-.2Z" transform="translate(-1.7)"/><path class="cls-1" d="M491,601.3a5.41,5.41,0,0,1,1.62.29c0-1.41-.15-2.11-1.41-2.11a4.63,4.63,0,0,0-1.92.43.16.16,0,0,1-.24-.13l-.08-.19c-.05-.14,0-.21.09-.24a4.71,4.71,0,0,1,2.2-.48c1.95,0,2,1.17,2,2.8v3.56a.21.21,0,0,1-.21.2h-.19c-.11,0-.16-.06-.19-.17l-.07-.58a3.3,3.3,0,0,1-2.22.91,2,2,0,0,1-2.1-2.12C488.29,602.23,489.3,601.3,491,601.3Zm-.51,3.67a2.94,2.94,0,0,0,2.13-1v-1.76a4.09,4.09,0,0,0-1.62-.34c-1.22,0-2,.63-2,1.57A1.44,1.44,0,0,0,490.47,605Z" transform="translate(-1.7)"/><path class="cls-1" d="M496.67,603.18a2.88,2.88,0,0,1-.49-1.6,2.62,2.62,0,0,1,2.8-2.71h2.63a.2.2,0,0,1,.2.21v.18a.18.18,0,0,1-.14.19l-1.15.08a2.19,2.19,0,0,1,1,2.05,2.58,2.58,0,0,1-2.66,2.65,2.44,2.44,0,0,1-1.74-.57,1.32,1.32,0,0,0-.82,1.15c0,.75.64.93,1.27.93h2.32c1.37,0,2.37.62,2.37,2s-1.32,2.61-3.27,2.61c-2.18,0-3.12-1.28-3.12-2.37a2,2,0,0,1,1-1.68,1.61,1.61,0,0,1-1.25-1.46A2,2,0,0,1,496.67,603.18Zm2.29,6.56c1.44,0,2.55-.85,2.55-1.94,0-.73-.45-1.41-1.63-1.41h-2a1.75,1.75,0,0,0-1.3,1.56C496.56,608.83,497.41,609.74,499,609.74Zm1.88-8.18a1.91,1.91,0,0,0-2-2,2,2,0,0,0-2,2,2,2,0,1,0,4,0Z" transform="translate(-1.7)"/><path class="cls-1" d="M507,598.87a2.81,2.81,0,0,1,2.89,2.93c0,.26,0,.63-.24.63h-5.1A2.52,2.52,0,0,0,507,605a3.37,3.37,0,0,0,1.89-.59c.15-.1.21-.11.29,0l.16.23c.05.06,0,.16-.06.25a3.88,3.88,0,0,1-2.32.75,3.37,3.37,0,0,1,0-6.72Zm2.19,3a2.15,2.15,0,0,0-2.19-2.34,2.39,2.39,0,0,0-2.44,2.34Z" transform="translate(-1.7)"/><path class="cls-1" d="M512.42,599.24a.21.21,0,0,1,.21-.21h.19a.18.18,0,0,1,.19.18l.07.65a2.47,2.47,0,0,1,2-1,2.63,2.63,0,0,1,1,.19c.14.05.22.16.17.29l-.12.32a.18.18,0,0,1-.26.08,2.08,2.08,0,0,0-.83-.19,2.25,2.25,0,0,0-1.91,1.11v4.56a.18.18,0,0,1-.2.2h-.33a.18.18,0,0,1-.17-.2Z" transform="translate(-1.7)"/><path class="cls-1" d="M521.23,605.24l4.94-11.14a.22.22,0,0,1,.19-.11h0a.21.21,0,0,1,.2.11l4.89,11.14c0,.1,0,.19-.15.19h-.42a.26.26,0,0,1-.22-.14l-1.3-2.95H523.3L522,605.29a.26.26,0,0,1-.23.14h-.44C521.23,605.43,521.19,605.37,521.23,605.24Zm7.91-3.52-2.73-6.45h0l-2.78,6.45Z" transform="translate(-1.7)"/><path class="cls-1" d="M536.13,598.87a3.22,3.22,0,0,1,2,.64v-5.07a.2.2,0,0,1,.21-.21h.29a.22.22,0,0,1,.19.21v10.79a.21.21,0,0,1-.21.2h-.16a.19.19,0,0,1-.22-.2l-.05-.56a3,3,0,0,1-5.17-2.44A3.19,3.19,0,0,1,536.13,598.87ZM536,605a2.55,2.55,0,0,0,2.11-1.13v-3.59a3,3,0,0,0-1.9-.67A2.71,2.71,0,0,0,536,605Z" transform="translate(-1.7)"/><path class="cls-1" d="M541.86,599.24a.22.22,0,0,1,.21-.21h.19a.18.18,0,0,1,.18.16l.08.69a2.77,2.77,0,0,1,2.2-1,2.23,2.23,0,0,1,2.1,1.17,3.23,3.23,0,0,1,2.4-1.17c1.75,0,2.5,1.14,2.5,2.93v3.43a.21.21,0,0,1-.21.2h-.32a.18.18,0,0,1-.18-.2V601.8c0-1.47-.63-2.24-1.84-2.24a2.73,2.73,0,0,0-2.11,1.09,4,4,0,0,1,.15,1.15v3.43a.21.21,0,0,1-.21.2h-.31a.19.19,0,0,1-.19-.2V601.8c0-1.47-.66-2.24-1.86-2.24a2.59,2.59,0,0,0-2.08,1.11v4.56a.18.18,0,0,1-.2.2H542a.18.18,0,0,1-.18-.2Z" transform="translate(-1.7)"/><path class="cls-1" d="M554.51,595.37a.55.55,0,1,1,1.09,0,.55.55,0,0,1-1.09,0Zm.2,3.87a.21.21,0,0,1,.21-.21h.28a.21.21,0,0,1,.21.21v6a.18.18,0,0,1-.21.2h-.32a.18.18,0,0,1-.17-.2Z" transform="translate(-1.7)"/><path class="cls-1" d="M558.48,599.24a.22.22,0,0,1,.23-.21h.16a.18.18,0,0,1,.19.16l.06.69a3.45,3.45,0,0,1,2.37-1c1.79,0,2.58,1.14,2.58,2.93v3.43a.21.21,0,0,1-.21.2h-.29a.21.21,0,0,1-.21-.2V601.8c0-1.47-.68-2.24-1.9-2.24a3.28,3.28,0,0,0-2.29,1.11v4.56a.18.18,0,0,1-.21.2h-.3a.18.18,0,0,1-.18-.2Z" transform="translate(-1.7)"/><path class="cls-1" d="M566.85,595.37a.55.55,0,1,1,1.09,0,.55.55,0,0,1-1.09,0Zm.19,3.87a.22.22,0,0,1,.21-.21h.29a.22.22,0,0,1,.21.21v6a.19.19,0,0,1-.21.2h-.32a.18.18,0,0,1-.18-.2Z" transform="translate(-1.7)"/><path class="cls-1" d="M570.45,604.65l.16-.26a.19.19,0,0,1,.29,0,2.81,2.81,0,0,0,1.71.62c.91,0,1.54-.51,1.54-1.13s-.72-1-1.8-1.44-2-.9-2-1.89a1.85,1.85,0,0,1,2.09-1.67,3.46,3.46,0,0,1,1.81.51.24.24,0,0,1,.07.31l-.1.17a.2.2,0,0,1-.3.08,3.17,3.17,0,0,0-1.48-.44c-1,0-1.37.59-1.37,1,0,.64.57.94,1.52,1.28,1.2.45,2.25.85,2.25,2a2.06,2.06,0,0,1-2.27,1.77,3.24,3.24,0,0,1-2.1-.72A.17.17,0,0,1,570.45,604.65Z" transform="translate(-1.7)"/><path class="cls-1" d="M577.65,599.66h-.75c-.16,0-.19-.08-.19-.21v-.26c0-.11.08-.16.19-.16h.75v-1.74a.2.2,0,0,1,.21-.21l.27,0a.22.22,0,0,1,.21.21V599h2.22a.2.2,0,0,1,.21.21v.21a.19.19,0,0,1-.21.21h-2.22v4.08c0,.75.08,1.17.83,1.17a3.41,3.41,0,0,0,1.46-.44.16.16,0,0,1,.25.07l.12.19a.19.19,0,0,1,0,.27,3.22,3.22,0,0,1-1.86.59c-1.33,0-1.44-.78-1.44-1.8Z" transform="translate(-1.7)"/><path class="cls-1" d="M583.28,599.24a.22.22,0,0,1,.21-.21h.19a.18.18,0,0,1,.19.18l.07.65a2.47,2.47,0,0,1,2-1,2.63,2.63,0,0,1,1,.19c.15.05.23.16.18.29l-.13.32a.18.18,0,0,1-.26.08,2.08,2.08,0,0,0-.83-.19,2.21,2.21,0,0,0-1.9,1.11v4.56a.19.19,0,0,1-.21.2h-.32a.18.18,0,0,1-.18-.2Z" transform="translate(-1.7)"/><path class="cls-1" d="M591.28,601.3a5.41,5.41,0,0,1,1.62.29c0-1.41-.14-2.11-1.41-2.11a4.63,4.63,0,0,0-1.92.43.16.16,0,0,1-.24-.13l-.08-.19a.17.17,0,0,1,.1-.24,4.6,4.6,0,0,1,2.19-.48c2,0,2,1.17,2,2.8v3.56a.2.2,0,0,1-.21.2h-.19c-.11,0-.16-.06-.19-.17l-.06-.58a3.35,3.35,0,0,1-2.23.91,2,2,0,0,1-2.1-2.12C588.59,602.23,589.6,601.3,591.28,601.3Zm-.51,3.67a2.9,2.9,0,0,0,2.13-1v-1.76a4.09,4.09,0,0,0-1.62-.34c-1.21,0-2,.63-2,1.57A1.44,1.44,0,0,0,590.77,605Z" transform="translate(-1.7)"/><path class="cls-1" d="M596.85,599.66h-.75c-.16,0-.19-.08-.19-.21v-.26c0-.11.08-.16.19-.16h.75v-1.74a.2.2,0,0,1,.21-.21l.27,0a.22.22,0,0,1,.21.21V599h2.22a.2.2,0,0,1,.21.21v.21a.19.19,0,0,1-.21.21h-2.22v4.08c0,.75.08,1.17.83,1.17a3.41,3.41,0,0,0,1.46-.44.16.16,0,0,1,.25.07l.12.19a.19.19,0,0,1-.05.27,3.22,3.22,0,0,1-1.86.59c-1.33,0-1.44-.78-1.44-1.8Z" transform="translate(-1.7)"/><path class="cls-1" d="M605.22,598.87a3.36,3.36,0,1,1-3.22,3.35A3.29,3.29,0,0,1,605.22,598.87Zm0,6.07a2.71,2.71,0,1,0-2.53-2.72A2.59,2.59,0,0,0,605.22,604.94Z" transform="translate(-1.7)"/><path class="cls-1" d="M611,599.24a.21.21,0,0,1,.2-.21h.19a.2.2,0,0,1,.2.18l.06.65a2.47,2.47,0,0,1,2-1,2.58,2.58,0,0,1,1,.19c.15.05.23.16.18.29l-.13.32a.17.17,0,0,1-.25.08,2.09,2.09,0,0,0-.84-.19,2.25,2.25,0,0,0-1.9,1.11v4.56a.18.18,0,0,1-.21.2h-.32a.18.18,0,0,1-.17-.2Z" transform="translate(-1.7)"/><path class="cls-1" d="M279.47,575.44a.2.2,0,0,1,.21-.21h4a3.43,3.43,0,0,1,.93,6.77l2.33,4.15c.08.12,0,.28-.11.28h-.5a.22.22,0,0,1-.22-.14l-2.32-4.19h-3.54v4.12c0,.11-.09.2-.25.2h-.29a.21.21,0,0,1-.21-.2Zm4.15,6a2.8,2.8,0,0,0,2.83-2.78A2.76,2.76,0,0,0,283.6,576h-3.36v5.47Z" transform="translate(-1.7)"/><path class="cls-1" d="M292.29,579.87a2.81,2.81,0,0,1,2.89,2.93c0,.26,0,.63-.24.63h-5.1a2.52,2.52,0,0,0,2.49,2.52,3.37,3.37,0,0,0,1.89-.59c.15-.1.21-.11.29,0l.16.23c.05.06,0,.16-.06.25a3.88,3.88,0,0,1-2.32.75,3.37,3.37,0,0,1,0-6.72Zm2.19,3a2.15,2.15,0,0,0-2.19-2.34,2.39,2.39,0,0,0-2.44,2.34Z" transform="translate(-1.7)"/><path class="cls-1" d="M297.71,580.24a.22.22,0,0,1,.21-.21h.19a.18.18,0,0,1,.18.16l.08.69a2.78,2.78,0,0,1,2.21-1,2.22,2.22,0,0,1,2.09,1.17,3.23,3.23,0,0,1,2.4-1.17c1.75,0,2.5,1.14,2.5,2.93v3.43a.21.21,0,0,1-.21.2H307a.18.18,0,0,1-.17-.2V582.8c0-1.47-.64-2.24-1.85-2.24a2.73,2.73,0,0,0-2.11,1.09,4,4,0,0,1,.15,1.15v3.43a.21.21,0,0,1-.21.2h-.31a.19.19,0,0,1-.19-.2V582.8c0-1.47-.65-2.24-1.85-2.24a2.59,2.59,0,0,0-2.09,1.11v4.56a.18.18,0,0,1-.2.2h-.32a.18.18,0,0,1-.18-.2Z" transform="translate(-1.7)"/><path class="cls-1" d="M313.29,579.87a3.36,3.36,0,1,1-3.21,3.35A3.29,3.29,0,0,1,313.29,579.87Zm0,6.07a2.71,2.71,0,1,0-2.52-2.72A2.6,2.6,0,0,0,313.29,585.94Z" transform="translate(-1.7)"/><path class="cls-1" d="M319.37,580.66h-.75c-.16,0-.19-.08-.19-.21v-.26c0-.11.08-.16.19-.16h.75v-1.74a.2.2,0,0,1,.21-.21l.27,0a.21.21,0,0,1,.21.21V580h2.23a.2.2,0,0,1,.21.21v.21a.19.19,0,0,1-.21.21h-2.23v4.08c0,.75.08,1.17.83,1.17a3.41,3.41,0,0,0,1.46-.44.17.17,0,0,1,.26.07l.11.19a.18.18,0,0,1-.05.27,3.19,3.19,0,0,1-1.86.59c-1.32,0-1.44-.78-1.44-1.8Z" transform="translate(-1.7)"/><path class="cls-1" d="M327.69,579.87a2.81,2.81,0,0,1,2.9,2.93c0,.26,0,.63-.24.63h-5.1a2.52,2.52,0,0,0,2.49,2.52,3.37,3.37,0,0,0,1.89-.59c.15-.1.21-.11.29,0l.16.23c.05.06,0,.16-.06.25a3.88,3.88,0,0,1-2.33.75,3.37,3.37,0,0,1,0-6.72Zm2.2,3a2.16,2.16,0,0,0-2.2-2.34,2.39,2.39,0,0,0-2.43,2.34Z" transform="translate(-1.7)"/><path class="cls-1" d="M264.69,594.44a.21.21,0,0,1,.2-.21h.36a.22.22,0,0,1,.19.21v10.32h5.1c.2,0,.21.1.21.21v.29c0,.11-.09.17-.21.17h-5.65a.2.2,0,0,1-.2-.2Z" transform="translate(-1.7)"/><path class="cls-1" d="M274.85,601.3a5.32,5.32,0,0,1,1.61.29c0-1.41-.14-2.11-1.4-2.11a4.76,4.76,0,0,0-1.93.43c-.12.05-.2,0-.24-.13l-.08-.19c0-.14,0-.21.1-.24a4.69,4.69,0,0,1,2.19-.48c2,0,2,1.17,2,2.8v3.56a.21.21,0,0,1-.21.2h-.19c-.12,0-.16-.06-.2-.17l-.06-.58a3.33,3.33,0,0,1-2.23.91,2,2,0,0,1-2.09-2.12C272.16,602.23,273.17,601.3,274.85,601.3Zm-.52,3.67a2.9,2.9,0,0,0,2.13-1v-1.76a4,4,0,0,0-1.61-.34c-1.22,0-2,.63-2,1.57A1.45,1.45,0,0,0,274.33,605Z" transform="translate(-1.7)"/><path class="cls-1" d="M280.83,610a.22.22,0,0,1-.21.21h-.27a.22.22,0,0,1-.21-.21V599.24a.22.22,0,0,1,.23-.21h.17a.17.17,0,0,1,.19.16l0,.45a3.24,3.24,0,0,1,2.1-.77,3.18,3.18,0,0,1,3.09,3.36,3.22,3.22,0,0,1-3.23,3.36,3,3,0,0,1-1.91-.65Zm1.83-5.11a2.56,2.56,0,0,0,2.6-2.7,2.5,2.5,0,0,0-4.41-1.79v3.74A2.51,2.51,0,0,0,282.66,604.92Z" transform="translate(-1.7)"/><path class="cls-1" d="M288.85,599.66h-.76c-.16,0-.19-.08-.19-.21v-.26c0-.11.08-.16.19-.16h.76v-1.74a.2.2,0,0,1,.2-.21l.28,0a.22.22,0,0,1,.21.21V599h2.22a.2.2,0,0,1,.21.21v.21a.19.19,0,0,1-.21.21h-2.22v4.08c0,.75.08,1.17.83,1.17a3.31,3.31,0,0,0,1.45-.44.17.17,0,0,1,.26.07l.11.19a.18.18,0,0,1-.05.27,3.18,3.18,0,0,1-1.85.59c-1.33,0-1.44-.78-1.44-1.8Z" transform="translate(-1.7)"/><path class="cls-1" d="M297.21,598.87a3.36,3.36,0,1,1-3.21,3.35A3.29,3.29,0,0,1,297.21,598.87Zm0,6.07a2.71,2.71,0,1,0-2.52-2.72A2.6,2.6,0,0,0,297.21,604.94Z" transform="translate(-1.7)"/><path class="cls-1" d="M303.71,610a.22.22,0,0,1-.21.21h-.27A.22.22,0,0,1,303,610V599.24a.22.22,0,0,1,.23-.21h.17a.17.17,0,0,1,.19.16l.05.45a3.24,3.24,0,0,1,2.1-.77,3.18,3.18,0,0,1,3.09,3.36,3.22,3.22,0,0,1-3.23,3.36,3,3,0,0,1-1.91-.65Zm1.83-5.11a2.56,2.56,0,0,0,2.6-2.7,2.5,2.5,0,0,0-4.41-1.79v3.74A2.51,2.51,0,0,0,305.54,604.92Z" transform="translate(-1.7)"/><path class="cls-1" d="M315.92,594.44a.21.21,0,0,1,.21-.21h.33a.22.22,0,0,1,.21.21v6.83a3.44,3.44,0,1,0,6.88,0v-6.85c0-.13.07-.21.23-.21h.32a.22.22,0,0,1,.21.21v6.91a4.2,4.2,0,1,1-8.39,0Z" transform="translate(-1.7)"/><path class="cls-1" d="M327,604.65l.16-.26c.05-.08.17-.11.29,0a2.81,2.81,0,0,0,1.71.62c.91,0,1.54-.51,1.54-1.13s-.73-1-1.8-1.44-2-.9-2-1.89a1.86,1.86,0,0,1,2.1-1.67,3.46,3.46,0,0,1,1.81.51.22.22,0,0,1,.06.31l-.09.17a.21.21,0,0,1-.31.08,3.08,3.08,0,0,0-1.47-.44c-1,0-1.38.59-1.38,1,0,.64.58.94,1.52,1.28,1.21.45,2.26.85,2.26,2a2.06,2.06,0,0,1-2.27,1.77,3.22,3.22,0,0,1-2.1-.72A.17.17,0,0,1,327,604.65Z" transform="translate(-1.7)"/><path class="cls-1" d="M336.65,598.87a2.82,2.82,0,0,1,2.9,2.93c0,.26,0,.63-.24.63h-5.1A2.52,2.52,0,0,0,336.7,605a3.37,3.37,0,0,0,1.89-.59c.15-.1.21-.11.29,0l.16.23c0,.06,0,.16-.06.25a3.88,3.88,0,0,1-2.33.75,3.37,3.37,0,0,1,0-6.72Zm2.2,3a2.16,2.16,0,0,0-2.2-2.34,2.39,2.39,0,0,0-2.43,2.34Z" transform="translate(-1.7)"/><path class="cls-1" d="M342.08,599.24a.21.21,0,0,1,.21-.21h.19a.19.19,0,0,1,.19.18l.06.65a2.47,2.47,0,0,1,2-1,2.63,2.63,0,0,1,1,.19c.14.05.22.16.17.29l-.12.32a.18.18,0,0,1-.26.08,2.08,2.08,0,0,0-.83-.19,2.25,2.25,0,0,0-1.91,1.11v4.56a.18.18,0,0,1-.21.2h-.32a.18.18,0,0,1-.17-.2Z" transform="translate(-1.7)"/><path class="cls-2" d="M328.36,404a14.81,14.81,0,0,0,.42-3.52,15.45,15.45,0,0,0-15.6-15.26A15.68,15.68,0,0,0,299.56,393a15.84,15.84,0,0,0-2.58-.2,16.26,16.26,0,0,0-15.48,11.15,15.83,15.83,0,0,0,1.08,31.64H327A15.83,15.83,0,0,0,328.36,404ZM327,432h-44.4a12.24,12.24,0,1,1-.18-24.47,12.88,12.88,0,0,1,5,1,1.17,1.17,0,0,0,.47.1,1.2,1.2,0,0,0,.47-2.31,15.47,15.47,0,0,0-3.51-1A12.6,12.6,0,0,1,297,396.38h.31a13.3,13.3,0,0,1,8.51,3.16,1.18,1.18,0,0,0,.77.28,1.21,1.21,0,0,0,.92-.42,1.19,1.19,0,0,0-.14-1.69,15.58,15.58,0,0,0-4.75-2.77,12,12,0,0,1,10.58-6.17,11.85,11.85,0,0,1,12,11.66,11.27,11.27,0,0,1-1,4.58,1.9,1.9,0,0,0-.11.39,15.43,15.43,0,0,0-4.8,1.85,1.21,1.21,0,0,0-.41,1.65,1.2,1.2,0,0,0,1,.58,1.13,1.13,0,0,0,.61-.17,12.92,12.92,0,0,1,5.77-1.79l.68,0A12.25,12.25,0,1,1,327,432Z" transform="translate(-1.7)"/><path class="cls-1" d="M278.76,443.62a.21.21,0,0,1,.21-.21h.35a.21.21,0,0,1,.21.21V454.4a.22.22,0,0,1-.23.21H279a.21.21,0,0,1-.21-.21Z" transform="translate(-1.7)"/><path class="cls-1" d="M282.85,448.42a.22.22,0,0,1,.23-.21h.16a.18.18,0,0,1,.19.16l.06.69a3.4,3.4,0,0,1,2.37-1c1.8,0,2.58,1.14,2.58,2.93v3.42a.21.21,0,0,1-.21.21h-.29a.2.2,0,0,1-.2-.21V451c0-1.47-.69-2.24-1.91-2.24a3.31,3.31,0,0,0-2.29,1.1v4.56a.19.19,0,0,1-.21.21H283a.19.19,0,0,1-.18-.21Z" transform="translate(-1.7)"/><path class="cls-1" d="M291.69,448.83h-.76c-.16,0-.19-.08-.19-.2v-.26c0-.11.08-.16.19-.16h.76v-1.75a.19.19,0,0,1,.2-.2l.28,0a.21.21,0,0,1,.2.21v1.76h2.23a.2.2,0,0,1,.21.21v.21a.19.19,0,0,1-.21.2h-2.23v4.09c0,.75.08,1.16.84,1.16a3.33,3.33,0,0,0,1.45-.43.17.17,0,0,1,.26.07l.11.19a.18.18,0,0,1,0,.27,3.18,3.18,0,0,1-1.85.59c-1.33,0-1.44-.78-1.44-1.81Z" transform="translate(-1.7)"/><path class="cls-1" d="M300,448.05A2.81,2.81,0,0,1,302.9,451c0,.26,0,.62-.24.62h-5.1a2.52,2.52,0,0,0,2.49,2.53,3.37,3.37,0,0,0,1.89-.59c.15-.1.21-.11.29,0l.16.22c.05.07,0,.16-.06.26a3.88,3.88,0,0,1-2.32.75,3.37,3.37,0,0,1,0-6.72Zm2.19,3a2.15,2.15,0,0,0-2.19-2.34,2.38,2.38,0,0,0-2.44,2.34Z" transform="translate(-1.7)"/><path class="cls-1" d="M305.43,448.42a.22.22,0,0,1,.21-.21h.19a.18.18,0,0,1,.19.18l.07.65a2.47,2.47,0,0,1,2-1,2.63,2.63,0,0,1,1,.19c.14.05.22.16.17.29l-.12.32a.18.18,0,0,1-.26.08,2.08,2.08,0,0,0-.83-.19,2.28,2.28,0,0,0-1.91,1.1v4.56c0,.13-.06.21-.2.21h-.32c-.12,0-.18-.09-.18-.21Z" transform="translate(-1.7)"/><path class="cls-1" d="M311.25,448.42a.22.22,0,0,1,.23-.21h.16a.18.18,0,0,1,.19.16l.06.69a3.4,3.4,0,0,1,2.37-1c1.8,0,2.58,1.14,2.58,2.93v3.42a.21.21,0,0,1-.21.21h-.29a.2.2,0,0,1-.2-.21V451c0-1.47-.69-2.24-1.91-2.24a3.31,3.31,0,0,0-2.29,1.1v4.56a.19.19,0,0,1-.21.21h-.3a.19.19,0,0,1-.18-.21Z" transform="translate(-1.7)"/><path class="cls-1" d="M322.5,448.05a2.82,2.82,0,0,1,2.9,2.93c0,.26,0,.62-.24.62h-5.11a2.53,2.53,0,0,0,2.5,2.53,3.4,3.4,0,0,0,1.89-.59c.14-.1.21-.11.29,0l.16.22c.05.07,0,.16-.07.26a3.85,3.85,0,0,1-2.32.75,3.37,3.37,0,0,1,0-6.72Zm2.2,3a2.16,2.16,0,0,0-2.2-2.34,2.38,2.38,0,0,0-2.43,2.34Z" transform="translate(-1.7)"/><path class="cls-1" d="M328.2,448.83h-.75c-.16,0-.2-.08-.2-.2v-.26c0-.11.08-.16.2-.16h.75v-1.75a.2.2,0,0,1,.21-.2l.27,0a.22.22,0,0,1,.21.21v1.76h2.22a.2.2,0,0,1,.21.21v.21a.19.19,0,0,1-.21.2h-2.22v4.09c0,.75.08,1.16.83,1.16a3.33,3.33,0,0,0,1.45-.43.17.17,0,0,1,.26.07l.11.19a.18.18,0,0,1,0,.27,3.25,3.25,0,0,1-1.86.59c-1.33,0-1.44-.78-1.44-1.81Z" transform="translate(-1.7)"/><path class="cls-2" d="M56.36,488.35H10.84a3.59,3.59,0,0,0-3.58,3.58v33.81a3.58,3.58,0,0,0,3.58,3.58H56.36a3.58,3.58,0,0,0,3.58-3.58V491.93A3.58,3.58,0,0,0,56.36,488.35ZM58,522.82H9.22V491.93a1.62,1.62,0,0,1,1.62-1.63H56.36A1.63,1.63,0,0,1,58,491.93Zm-1.63,4.55H10.84a1.62,1.62,0,0,1-1.62-1.63v-1.62H58v1.62A1.63,1.63,0,0,1,56.36,527.37Z" transform="translate(-1.7)"/><path class="cls-2" d="M41.08,536.8a2.28,2.28,0,0,1-2.27-2.28v-3.9h-2v3.9a4.16,4.16,0,0,0,.68,2.28H29.68a4.23,4.23,0,0,0,.67-2.28v-3.9h-2v3.9a2.28,2.28,0,0,1-2.28,2.28H20.6v2h26v-2Z" transform="translate(-1.7)"/><circle class="cls-2" cx="35.16" cy="525.58" r="0.81"/><circle class="cls-2" cx="31.91" cy="525.58" r="0.81"/><circle class="cls-2" cx="28.65" cy="525.58" r="0.81"/><polygon class="cls-2" points="42.1 503.17 42.1 501.79 32.77 506.19 32.77 507.58 32.77 507.93 32.77 508.39 32.77 508.74 32.77 516.91 42.1 512.5 42.1 512.34 42.1 503.98 42.1 503.17"/><polygon class="cls-2" points="31.04 516.92 31.04 508.74 31.04 507.93 31.04 506.2 21.71 501.96 21.71 512.34 21.71 512.68 31.04 516.92"/><polygon class="cls-2" points="31.9 504.56 41.1 500.21 31.91 496.04 22.71 500.38 31.9 504.56"/><path class="cls-2" d="M47,433.35a3.26,3.26,0,1,1,3.26-3.26A3.26,3.26,0,0,1,47,433.35Zm0-5a1.79,1.79,0,1,0,1.79,1.78A1.78,1.78,0,0,0,47,428.31Z" transform="translate(-1.7)"/><path class="cls-2" d="M18.48,431.67a1.58,1.58,0,1,1,1.58-1.58A1.57,1.57,0,0,1,18.48,431.67Z" transform="translate(-1.7)"/><path class="cls-2" d="M23.52,431.67a1.58,1.58,0,1,1,1.58-1.58A1.57,1.57,0,0,1,23.52,431.67Z" transform="translate(-1.7)"/><path class="cls-2" d="M28.56,431.67a1.58,1.58,0,1,1,1.58-1.58A1.57,1.57,0,0,1,28.56,431.67Z" transform="translate(-1.7)"/><path class="cls-2" d="M58.8,438.14H8.4a1.33,1.33,0,0,1-1.32-1.33V423.37a1.32,1.32,0,0,1,1.32-1.32H58.8a1.33,1.33,0,0,1,1.33,1.32v13.44A1.34,1.34,0,0,1,58.8,438.14ZM9.73,435.49H57.48V424.7H9.73Z" transform="translate(-1.7)"/><path class="cls-2" d="M47,451.83a3.26,3.26,0,1,1,3.26-3.26A3.26,3.26,0,0,1,47,451.83Zm0-5a1.79,1.79,0,1,0,1.79,1.78A1.78,1.78,0,0,0,47,446.79Z" transform="translate(-1.7)"/><path class="cls-2" d="M18.48,450.15a1.58,1.58,0,1,1,1.58-1.58A1.57,1.57,0,0,1,18.48,450.15Z" transform="translate(-1.7)"/><path class="cls-2" d="M23.52,450.15a1.58,1.58,0,1,1,1.58-1.58A1.57,1.57,0,0,1,23.52,450.15Z" transform="translate(-1.7)"/><path class="cls-2" d="M28.56,450.15a1.58,1.58,0,1,1,1.58-1.58A1.57,1.57,0,0,1,28.56,450.15Z" transform="translate(-1.7)"/><path class="cls-2" d="M58.8,456.62H8.4a1.33,1.33,0,0,1-1.32-1.33V441.85a1.32,1.32,0,0,1,1.32-1.32H58.8a1.33,1.33,0,0,1,1.33,1.32v13.44A1.34,1.34,0,0,1,58.8,456.62ZM9.73,454H57.48v-10.8H9.73Z" transform="translate(-1.7)"/><path class="cls-2" d="M47,470.31a3.26,3.26,0,1,1,3.26-3.26A3.26,3.26,0,0,1,47,470.31Zm0-5a1.79,1.79,0,1,0,1.79,1.78A1.78,1.78,0,0,0,47,465.27Z" transform="translate(-1.7)"/><path class="cls-2" d="M18.48,468.63a1.58,1.58,0,1,1,1.58-1.58A1.57,1.57,0,0,1,18.48,468.63Z" transform="translate(-1.7)"/><path class="cls-2" d="M23.52,468.63a1.58,1.58,0,1,1,1.58-1.58A1.57,1.57,0,0,1,23.52,468.63Z" transform="translate(-1.7)"/><path class="cls-2" d="M28.56,468.63a1.58,1.58,0,1,1,1.58-1.58A1.57,1.57,0,0,1,28.56,468.63Z" transform="translate(-1.7)"/><path class="cls-2" d="M58.8,475.1H8.4a1.33,1.33,0,0,1-1.32-1.33V460.33A1.32,1.32,0,0,1,8.4,459H58.8a1.33,1.33,0,0,1,1.33,1.32v13.44A1.34,1.34,0,0,1,58.8,475.1ZM9.73,472.45H57.48V461.66H9.73Z" transform="translate(-1.7)"/><path class="cls-2" d="M150.83,467.59l-4.91-7.85V429.32a4.63,4.63,0,0,0-4.63-4.62H95a4.62,4.62,0,0,0-4.63,4.62v30.42l-4.91,7.85a1.59,1.59,0,0,0-.23.82v1a5.66,5.66,0,0,0,5.65,5.66h54.52a5.66,5.66,0,0,0,5.65-5.66v-1A1.59,1.59,0,0,0,150.83,467.59ZM93.46,429.32A1.55,1.55,0,0,1,95,427.78h20.36l.21,1h5.14l.21-1h20.36a1.55,1.55,0,0,1,1.55,1.54v29.83H93.46Zm-.36,31.89h50.1l4.18,6.69H126.29l-.43-2.58H110.44L110,467.9H88.92ZM148,469.44a2.58,2.58,0,0,1-2.57,2.57H90.89a2.57,2.57,0,0,1-2.57-2.57v-.52H148Z" transform="translate(-1.7)"/><path class="cls-2" d="M96,457.1h44.22V430.35H96Zm1-25.72h42.18v24.69H97.06Z" transform="translate(-1.7)"/><path class="cls-2" d="M126.88,488.65H83a5.76,5.76,0,0,0-5.76,5.76v31A5.76,5.76,0,0,0,83,531.13H97.72v4.74H91.3a1.44,1.44,0,1,0,0,2.88h27.23a1.44,1.44,0,1,0,0-2.88h-6.41v-4.74h14.76a5.77,5.77,0,0,0,5.76-5.76v-31A5.77,5.77,0,0,0,126.88,488.65Zm-17.64,47.16H100.6v-4.68h8.64Zm20.52-10.44a2.88,2.88,0,0,1-2.88,2.88H83a2.88,2.88,0,0,1-2.88-2.88v-31A2.88,2.88,0,0,1,83,491.53h43.92a2.88,2.88,0,0,1,2.88,2.88Z" transform="translate(-1.7)"/><circle class="cls-2" cx="145.88" cy="521.11" r="1.8"/><path class="cls-2" d="M151.9,495.91h-8.64v7.2h8.64Zm-1.44,5.76H144.7v-4.32h5.76Z" transform="translate(-1.7)"/><path class="cls-2" d="M147.58,511.39a2.88,2.88,0,1,0,2.88,2.88A2.88,2.88,0,0,0,147.58,511.39Zm0,4.32a1.44,1.44,0,1,1,1.44-1.44A1.44,1.44,0,0,1,147.58,515.71Z" transform="translate(-1.7)"/><path class="cls-2" d="M153.34,488.35H141.82a5.77,5.77,0,0,0-5.76,5.76V533a5.77,5.77,0,0,0,5.76,5.76h11.52A5.76,5.76,0,0,0,159.1,533V494.11A5.77,5.77,0,0,0,153.34,488.35Zm-11.52,2.88h11.52a2.88,2.88,0,0,1,2.88,2.88v35.28H138.94V494.11A2.88,2.88,0,0,1,141.82,491.23Zm11.52,44.64H141.82a2.88,2.88,0,0,1-2.88-2.88v-2.16h17.28V533A2.88,2.88,0,0,1,153.34,535.87Z" transform="translate(-1.7)"/><path class="cls-2" d="M83.32,524.83h43.2V494.59H83.32ZM84.76,496h40.32v27.36H84.76Z" transform="translate(-1.7)"/><path class="cls-1" d="M24.8,575.07a5.45,5.45,0,0,1,3.89,1.49.21.21,0,0,1,0,.29l-.26.27c-.09.09-.17.08-.27,0a5,5,0,1,0-3.38,8.77,5.07,5.07,0,0,0,3.38-1.34.2.2,0,0,1,.26,0l.27.27a.18.18,0,0,1,0,.27,5.52,5.52,0,0,1-3.91,1.55,5.76,5.76,0,1,1,0-11.52Z" transform="translate(-1.7)"/><path class="cls-1" d="M34,579.87a3.36,3.36,0,1,1-3.22,3.35A3.29,3.29,0,0,1,34,579.87Zm0,6.07a2.71,2.71,0,1,0-2.53-2.72A2.59,2.59,0,0,0,34,585.94Z" transform="translate(-1.7)"/><path class="cls-1" d="M39.83,580.24A.21.21,0,0,1,40,580h.19a.2.2,0,0,1,.2.18l.06.65a2.47,2.47,0,0,1,2-1,2.58,2.58,0,0,1,1,.19c.15.05.23.16.18.29l-.13.32a.17.17,0,0,1-.25.08,2.09,2.09,0,0,0-.84-.19,2.25,2.25,0,0,0-1.9,1.11v4.56a.19.19,0,0,1-.21.2H40a.18.18,0,0,1-.17-.2Z" transform="translate(-1.7)"/><path class="cls-1" d="M46.34,591a.22.22,0,0,1-.21.21h-.27a.21.21,0,0,1-.21-.21V580.24a.21.21,0,0,1,.22-.21h.18a.17.17,0,0,1,.19.16l0,.45a3.23,3.23,0,0,1,2.09-.77,3.18,3.18,0,0,1,3.09,3.36,3.21,3.21,0,0,1-3.23,3.36,2.89,2.89,0,0,1-1.9-.65Zm1.82-5.11a2.57,2.57,0,0,0,2.61-2.7,2.5,2.5,0,0,0-2.43-2.69,2.53,2.53,0,0,0-2,.9v3.74A2.51,2.51,0,0,0,48.16,585.92Z" transform="translate(-1.7)"/><path class="cls-1" d="M56.82,579.87a3.36,3.36,0,1,1-3.22,3.35A3.29,3.29,0,0,1,56.82,579.87Zm0,6.07a2.71,2.71,0,1,0-2.53-2.72A2.59,2.59,0,0,0,56.82,585.94Z" transform="translate(-1.7)"/><path class="cls-1" d="M62.62,580.24a.22.22,0,0,1,.21-.21H63a.2.2,0,0,1,.2.18l.06.65a2.47,2.47,0,0,1,2-1,2.58,2.58,0,0,1,1,.19c.15.05.23.16.18.29l-.13.32a.17.17,0,0,1-.25.08,2.09,2.09,0,0,0-.84-.19,2.25,2.25,0,0,0-1.9,1.11v4.56a.19.19,0,0,1-.21.2H62.8a.18.18,0,0,1-.18-.2Z" transform="translate(-1.7)"/><path class="cls-1" d="M70.62,582.3a5.34,5.34,0,0,1,1.62.29c0-1.41-.14-2.11-1.41-2.11a4.74,4.74,0,0,0-1.92.43.16.16,0,0,1-.24-.13l-.08-.19a.17.17,0,0,1,.1-.24,4.65,4.65,0,0,1,2.19-.48c2,0,2,1.17,2,2.8v3.56a.2.2,0,0,1-.2.2h-.2c-.11,0-.16-.06-.19-.17l-.06-.58a3.33,3.33,0,0,1-2.23.91,2,2,0,0,1-2.09-2.12C67.94,583.23,68.94,582.3,70.62,582.3ZM70.11,586a2.9,2.9,0,0,0,2.13-1v-1.76a4.09,4.09,0,0,0-1.62-.34c-1.21,0-2,.63-2,1.57A1.44,1.44,0,0,0,70.11,586Z" transform="translate(-1.7)"/><path class="cls-1" d="M76.19,580.66h-.75c-.16,0-.19-.08-.19-.21v-.26c0-.11.08-.16.19-.16h.75v-1.74a.2.2,0,0,1,.21-.21l.27,0a.22.22,0,0,1,.21.21V580H79.1a.2.2,0,0,1,.21.21v.21a.19.19,0,0,1-.21.21H76.88v4.08c0,.75.08,1.17.83,1.17a3.41,3.41,0,0,0,1.46-.44.16.16,0,0,1,.25.07l.12.19a.19.19,0,0,1-.05.27,3.22,3.22,0,0,1-1.86.59c-1.33,0-1.44-.78-1.44-1.8Z" transform="translate(-1.7)"/><path class="cls-1" d="M84.51,579.87a2.82,2.82,0,0,1,2.9,2.93c0,.26,0,.63-.24.63H82.06a2.53,2.53,0,0,0,2.5,2.52,3.37,3.37,0,0,0,1.89-.59c.14-.1.21-.11.29,0l.16.23c0,.06,0,.16-.07.25a3.85,3.85,0,0,1-2.32.75,3.37,3.37,0,0,1,0-6.72Zm2.2,3a2.16,2.16,0,0,0-2.2-2.34,2.38,2.38,0,0,0-2.43,2.34Z" transform="translate(-1.7)"/><path class="cls-1" d="M93.86,585l.14-.2c.11-.12.22-.17.35-.06a4.7,4.7,0,0,0,3,1.23,2.49,2.49,0,0,0,2.69-2.14c0-1.43-1.17-2.07-3.1-2.72s-3.09-1.32-3.09-3.16c0-1.2,1-2.83,3.45-2.83a5.26,5.26,0,0,1,2.76.82.23.23,0,0,1,.06.33c0,.07-.09.15-.13.21a.22.22,0,0,1-.35.08,4.73,4.73,0,0,0-2.35-.75c-2,0-2.71,1.21-2.71,2.13,0,1.36,1,2,2.66,2.48,2.19.75,3.59,1.52,3.59,3.38,0,1.59-1.65,2.84-3.49,2.84a5.24,5.24,0,0,1-3.4-1.31C93.81,585.2,93.73,585.12,93.86,585Z" transform="translate(-1.7)"/><path class="cls-1" d="M106.06,579.87a2.81,2.81,0,0,1,2.9,2.93c0,.26,0,.63-.24.63h-5.1a2.52,2.52,0,0,0,2.49,2.52,3.37,3.37,0,0,0,1.89-.59c.15-.1.21-.11.29,0l.16.23c0,.06,0,.16-.06.25a3.88,3.88,0,0,1-2.33.75,3.37,3.37,0,0,1,0-6.72Zm2.2,3a2.16,2.16,0,0,0-2.2-2.34,2.39,2.39,0,0,0-2.43,2.34Z" transform="translate(-1.7)"/><path class="cls-1" d="M111.49,580.24a.21.21,0,0,1,.21-.21h.19a.19.19,0,0,1,.19.18l.06.65a2.47,2.47,0,0,1,2-1,2.63,2.63,0,0,1,1,.19c.14.05.22.16.17.29l-.12.32a.18.18,0,0,1-.26.08,2.08,2.08,0,0,0-.83-.19,2.25,2.25,0,0,0-1.91,1.11v4.56a.18.18,0,0,1-.21.2h-.32a.18.18,0,0,1-.17-.2Z" transform="translate(-1.7)"/><path class="cls-1" d="M116.46,580.27c-.06-.13,0-.24.1-.24h.35a.21.21,0,0,1,.21.15l2.32,5.28h0l2.33-5.28A.21.21,0,0,1,122,580h.35c.15,0,.16.11.1.24l-2.79,6.18a.2.2,0,0,1-.19.14h-.06a.17.17,0,0,1-.19-.14Z" transform="translate(-1.7)"/><path class="cls-1" d="M127.26,579.87a2.82,2.82,0,0,1,2.9,2.93c0,.26,0,.63-.24.63h-5.1a2.52,2.52,0,0,0,2.49,2.52,3.37,3.37,0,0,0,1.89-.59c.14-.1.21-.11.29,0l.16.23c0,.06,0,.16-.07.25a3.85,3.85,0,0,1-2.32.75,3.37,3.37,0,0,1,0-6.72Zm2.2,3a2.16,2.16,0,0,0-2.2-2.34,2.39,2.39,0,0,0-2.43,2.34Z" transform="translate(-1.7)"/><path class="cls-1" d="M132.69,580.24a.21.21,0,0,1,.21-.21h.19a.19.19,0,0,1,.19.18l.06.65a2.47,2.47,0,0,1,2-1,2.64,2.64,0,0,1,1,.19c.14.05.22.16.17.29l-.13.32c0,.11-.14.13-.25.08a2.08,2.08,0,0,0-.83-.19,2.25,2.25,0,0,0-1.91,1.11v4.56a.18.18,0,0,1-.21.2h-.32a.18.18,0,0,1-.17-.2Z" transform="translate(-1.7)"/><path class="cls-1" d="M138.14,585.65l.16-.26a.19.19,0,0,1,.29,0,2.84,2.84,0,0,0,1.71.62c.92,0,1.54-.51,1.54-1.13s-.72-1-1.79-1.44-2-.9-2-1.89a1.86,1.86,0,0,1,2.1-1.67,3.42,3.42,0,0,1,1.8.51.24.24,0,0,1,.07.31l-.1.17a.2.2,0,0,1-.3.08,3.16,3.16,0,0,0-1.47-.44c-1,0-1.38.59-1.38,1,0,.64.58.94,1.52,1.28,1.2.45,2.26.85,2.26,2a2.07,2.07,0,0,1-2.28,1.77,3.21,3.21,0,0,1-2.09-.72A.17.17,0,0,1,138.14,585.65Z" transform="translate(-1.7)"/><path class="cls-1" d="M145.66,585.33c.47,0,.9.45.9,1.51a2.71,2.71,0,0,1-1.15,2.22c-.12.06-.21.08-.28,0l-.12-.16c-.07-.08,0-.18.06-.26a2.14,2.14,0,0,0,.9-1.52,1.61,1.61,0,0,0-.08-.61.47.47,0,0,1-.26.08.63.63,0,1,1,0-1.26Z" transform="translate(-1.7)"/><path class="cls-1" d="M1.7,594.44a.21.21,0,0,1,.2-.21h.36a.22.22,0,0,1,.19.21v10.32h5.1c.2,0,.21.1.21.21v.29c0,.11-.09.17-.21.17H1.9a.2.2,0,0,1-.2-.2Z" transform="translate(-1.7)"/><path class="cls-1" d="M11.86,601.3a5.32,5.32,0,0,1,1.61.29c0-1.41-.14-2.11-1.4-2.11a4.76,4.76,0,0,0-1.93.43c-.12.05-.2,0-.24-.13l-.08-.19c0-.14,0-.21.1-.24a4.69,4.69,0,0,1,2.19-.48c2,0,2,1.17,2,2.8v3.56a.21.21,0,0,1-.21.2h-.19c-.12,0-.16-.06-.2-.17l-.06-.58a3.33,3.33,0,0,1-2.23.91,2,2,0,0,1-2.09-2.12C9.17,602.23,10.18,601.3,11.86,601.3ZM11.34,605a2.9,2.9,0,0,0,2.13-1v-1.76a4,4,0,0,0-1.61-.34c-1.22,0-2,.63-2,1.57A1.44,1.44,0,0,0,11.34,605Z" transform="translate(-1.7)"/><path class="cls-1" d="M17.84,610a.22.22,0,0,1-.21.21h-.27a.22.22,0,0,1-.21-.21V599.24a.22.22,0,0,1,.23-.21h.17a.17.17,0,0,1,.19.16l.05.45a3.24,3.24,0,0,1,2.1-.77A3.18,3.18,0,0,1,23,602.23a3.22,3.22,0,0,1-3.23,3.36,3,3,0,0,1-1.91-.65Zm1.83-5.11a2.56,2.56,0,0,0,2.6-2.7,2.5,2.5,0,0,0-4.41-1.79v3.74A2.51,2.51,0,0,0,19.67,604.92Z" transform="translate(-1.7)"/><path class="cls-1" d="M25.86,599.66H25.1c-.16,0-.19-.08-.19-.21v-.26c0-.11.08-.16.19-.16h.76v-1.74a.2.2,0,0,1,.2-.21l.28,0a.21.21,0,0,1,.2.21V599h2.23a.2.2,0,0,1,.21.21v.21a.19.19,0,0,1-.21.21H26.54v4.08c0,.75.08,1.17.84,1.17a3.31,3.31,0,0,0,1.45-.44.17.17,0,0,1,.26.07l.11.19a.18.18,0,0,1-.05.27,3.18,3.18,0,0,1-1.85.59c-1.33,0-1.44-.78-1.44-1.8Z" transform="translate(-1.7)"/><path class="cls-1" d="M34.22,598.87A3.36,3.36,0,1,1,31,602.22,3.29,3.29,0,0,1,34.22,598.87Zm0,6.07a2.71,2.71,0,1,0-2.52-2.72A2.6,2.6,0,0,0,34.22,604.94Z" transform="translate(-1.7)"/><path class="cls-1" d="M40.72,610a.22.22,0,0,1-.21.21h-.27A.22.22,0,0,1,40,610V599.24a.22.22,0,0,1,.23-.21h.17a.17.17,0,0,1,.19.16l.05.45a3.24,3.24,0,0,1,2.1-.77,3.18,3.18,0,0,1,3.09,3.36,3.22,3.22,0,0,1-3.24,3.36,2.94,2.94,0,0,1-1.9-.65Zm1.82-5.11a2.57,2.57,0,0,0,2.61-2.7,2.5,2.5,0,0,0-4.41-1.79v3.74A2.51,2.51,0,0,0,42.54,604.92Z" transform="translate(-1.7)"/><path class="cls-1" d="M48.1,604.65l.16-.26a.18.18,0,0,1,.28,0,2.85,2.85,0,0,0,1.72.62c.91,0,1.53-.51,1.53-1.13s-.72-1-1.79-1.44-2-.9-2-1.89a1.86,1.86,0,0,1,2.1-1.67,3.46,3.46,0,0,1,1.81.51.23.23,0,0,1,.06.31l-.09.17a.21.21,0,0,1-.31.08,3.08,3.08,0,0,0-1.47-.44c-1,0-1.38.59-1.38,1,0,.64.58.94,1.52,1.28,1.2.45,2.26.85,2.26,2a2.06,2.06,0,0,1-2.27,1.77,3.22,3.22,0,0,1-2.1-.72A.17.17,0,0,1,48.1,604.65Z" transform="translate(-1.7)"/><path class="cls-1" d="M55.62,604.33c.46,0,.89.45.89,1.51a2.71,2.71,0,0,1-1.15,2.22c-.11.06-.21.08-.27,0L55,607.9a.17.17,0,0,1,.06-.26,2.14,2.14,0,0,0,.9-1.52,1.44,1.44,0,0,0-.08-.61.47.47,0,0,1-.26.08.63.63,0,1,1,0-1.26Z" transform="translate(-1.7)"/><path class="cls-1" d="M62.35,594.44c-.06-.13,0-.21.13-.21h.43a.19.19,0,0,1,.18.11l4.32,9.94h0l4.37-9.94a.19.19,0,0,1,.18-.11h.41c.15,0,.21.1.15.22l-4.92,11a.2.2,0,0,1-.19.14h-.08a.21.21,0,0,1-.18-.14Z" transform="translate(-1.7)"/><path class="cls-1" d="M76.18,594.18a.15.15,0,0,1,.14-.11h.18a.16.16,0,0,1,.16.11L80,604h0l3.31-9.83a.15.15,0,0,1,.16-.11h.18a.16.16,0,0,1,.14.11l2.27,11.05c0,.16,0,.2-.17.2h-.39a.21.21,0,0,1-.19-.17l-1.81-9.38h0l-3.23,9.59a.23.23,0,0,1-.23.12h-.06c-.08,0-.18,0-.21-.12l-3.23-9.59h0l-1.8,9.38a.21.21,0,0,1-.2.17h-.38c-.14,0-.21,0-.18-.2Z" transform="translate(-1.7)"/><path class="cls-1" d="M88.26,604.65l.16-.26a.18.18,0,0,1,.28,0,2.85,2.85,0,0,0,1.72.62c.91,0,1.53-.51,1.53-1.13s-.72-1-1.79-1.44-2-.9-2-1.89a1.86,1.86,0,0,1,2.1-1.67,3.46,3.46,0,0,1,1.81.51.23.23,0,0,1,.06.31l-.09.17a.21.21,0,0,1-.31.08,3.08,3.08,0,0,0-1.47-.44c-1,0-1.38.59-1.38,1,0,.64.58.94,1.52,1.28,1.2.45,2.26.85,2.26,2a2.06,2.06,0,0,1-2.27,1.77,3.22,3.22,0,0,1-2.1-.72A.17.17,0,0,1,88.26,604.65Z" transform="translate(-1.7)"/><path class="cls-1" d="M95.78,604.33c.46,0,.89.45.89,1.51a2.71,2.71,0,0,1-1.15,2.22c-.11.06-.21.08-.27,0l-.13-.16a.17.17,0,0,1,.06-.26,2.14,2.14,0,0,0,.9-1.52,1.44,1.44,0,0,0-.08-.61.47.47,0,0,1-.26.08.63.63,0,1,1,0-1.26Z" transform="translate(-1.7)"/><path class="cls-1" d="M104.11,594.44a.22.22,0,0,1,.19-.21h3.4a5.6,5.6,0,1,1,0,11.2h-3.4a.21.21,0,0,1-.19-.2Zm3.46,10.31a4.92,4.92,0,1,0,0-9.83h-2.71v9.83Z" transform="translate(-1.7)"/><path class="cls-1" d="M118.61,598.87a2.82,2.82,0,0,1,2.9,2.93c0,.26,0,.63-.24.63h-5.11a2.52,2.52,0,0,0,2.5,2.52,3.43,3.43,0,0,0,1.89-.59c.14-.1.2-.11.28,0l.16.23c.05.06,0,.16-.06.25a3.88,3.88,0,0,1-2.32.75,3.37,3.37,0,0,1,0-6.72Zm2.19,3a2.15,2.15,0,0,0-2.19-2.34,2.38,2.38,0,0,0-2.43,2.34Z" transform="translate(-1.7)"/><path class="cls-1" d="M123.66,604.65l.16-.26a.19.19,0,0,1,.29,0,2.84,2.84,0,0,0,1.71.62c.92,0,1.54-.51,1.54-1.13s-.72-1-1.79-1.44-2-.9-2-1.89a1.86,1.86,0,0,1,2.1-1.67,3.45,3.45,0,0,1,1.8.51.24.24,0,0,1,.07.31l-.1.17a.2.2,0,0,1-.3.08,3.16,3.16,0,0,0-1.47-.44c-1,0-1.38.59-1.38,1,0,.64.58.94,1.52,1.28,1.2.45,2.26.85,2.26,2a2.07,2.07,0,0,1-2.28,1.77,3.21,3.21,0,0,1-2.09-.72A.17.17,0,0,1,123.66,604.65Z" transform="translate(-1.7)"/><path class="cls-1" d="M130.59,594.44a.22.22,0,0,1,.21-.21h.27a.22.22,0,0,1,.21.21v7.17l3.41-2.48a.41.41,0,0,1,.26-.1h.46c.16,0,.18.21.05.29L132,601.85l3.85,3.31a.15.15,0,0,1-.08.27h-.49a.44.44,0,0,1-.32-.12l-3.7-3.19v3.11a.18.18,0,0,1-.21.2h-.3a.18.18,0,0,1-.18-.2Z" transform="translate(-1.7)"/><path class="cls-1" d="M138.35,599.66h-.75c-.16,0-.19-.08-.19-.21v-.26c0-.11.08-.16.19-.16h.75v-1.74a.2.2,0,0,1,.21-.21l.27,0a.22.22,0,0,1,.21.21V599h2.22a.2.2,0,0,1,.21.21v.21a.19.19,0,0,1-.21.21H139v4.08c0,.75.08,1.17.83,1.17a3.41,3.41,0,0,0,1.46-.44.16.16,0,0,1,.25.07l.12.19a.19.19,0,0,1,0,.27,3.22,3.22,0,0,1-1.86.59c-1.33,0-1.44-.78-1.44-1.8Z" transform="translate(-1.7)"/><path class="cls-1" d="M146.72,598.87a3.36,3.36,0,1,1-3.22,3.35A3.29,3.29,0,0,1,146.72,598.87Zm0,6.07a2.71,2.71,0,1,0-2.53-2.72A2.59,2.59,0,0,0,146.72,604.94Z" transform="translate(-1.7)"/><path class="cls-1" d="M153.21,610a.21.21,0,0,1-.2.21h-.27a.21.21,0,0,1-.21-.21V599.24a.21.21,0,0,1,.22-.21h.18a.17.17,0,0,1,.19.16l0,.45a3.23,3.23,0,0,1,2.09-.77,3.18,3.18,0,0,1,3.09,3.36,3.21,3.21,0,0,1-3.23,3.36,3,3,0,0,1-1.91-.65Zm1.83-5.11a2.57,2.57,0,0,0,2.61-2.7,2.5,2.5,0,0,0-2.43-2.69,2.53,2.53,0,0,0-2,.9v3.74A2.51,2.51,0,0,0,155,604.92Z" transform="translate(-1.7)"/><path class="cls-1" d="M160.59,604.65l.16-.26a.19.19,0,0,1,.29,0,2.84,2.84,0,0,0,1.71.62c.91,0,1.54-.51,1.54-1.13s-.72-1-1.79-1.44-2-.9-2-1.89a1.85,1.85,0,0,1,2.09-1.67,3.46,3.46,0,0,1,1.81.51.24.24,0,0,1,.07.31l-.1.17a.2.2,0,0,1-.3.08,3.17,3.17,0,0,0-1.48-.44c-1,0-1.37.59-1.37,1,0,.64.57.94,1.52,1.28,1.2.45,2.25.85,2.25,2a2.06,2.06,0,0,1-2.27,1.77,3.24,3.24,0,0,1-2.1-.72A.17.17,0,0,1,160.59,604.65Z" transform="translate(-1.7)"/><path class="cls-1" d="M368.59,193.39v2.5c0,2.59-1.34,4.11-4.19,4.11q-1.53,0-2.94-.09V189.23c.81,0,1.92-.08,3.07-.08C367.17,189.15,368.59,190.69,368.59,193.39Zm-5.23-2.53v7.38a9.91,9.91,0,0,0,1.09.07,2.06,2.06,0,0,0,2.22-2.32V193.3c0-1.68-.81-2.47-2.22-2.47C364.08,190.83,363.71,190.83,363.36,190.86Z" transform="translate(-1.7)"/><path class="cls-1" d="M378.1,199.81h-2.05l-.56-2.19h-3.35l-.56,2.19h-2l3.11-10.48H375ZM372.53,196h2.57l-1.28-5.06Z" transform="translate(-1.7)"/><path class="cls-1" d="M385.7,191.09h-2.88v8.72h-1.91v-8.72H378v-1.76h7.67Z" transform="translate(-1.7)"/><path class="cls-1" d="M394.13,199.81h-2.05l-.56-2.19h-3.34l-.56,2.19h-2l3.1-10.48H391ZM388.56,196h2.58l-1.28-5.06Z" transform="translate(-1.7)"/><path class="cls-1" d="M402.24,191.74V192a2.33,2.33,0,0,1-1.57,2.31,2.31,2.31,0,0,1,2,2.38V197c0,1.73-1.14,3-3.91,3-.91,0-1.58,0-3-.08V189.21c.8,0,2.05-.08,3-.08C401.06,189.13,402.24,190.26,402.24,191.74Zm-4.62-.91v2.87h1.16c1,0,1.54-.53,1.54-1.4v-.25c0-.8-.5-1.25-1.79-1.25C398.24,190.8,398,190.8,397.62,190.83Zm0,4.47v3a10.92,10.92,0,0,0,1.16.06c1.4,0,2-.56,2-1.42v-.29c0-.83-.56-1.31-1.88-1.31Z" transform="translate(-1.7)"/><path class="cls-1" d="M412.13,199.81h-2.05l-.56-2.19h-3.34l-.56,2.19h-2l3.1-10.48H409ZM406.56,196h2.58l-1.28-5.06Z" transform="translate(-1.7)"/><path class="cls-1" d="M418.71,189.39l0,1.74a16.14,16.14,0,0,0-2.35-.27c-1,0-1.38.4-1.38,1.12v.34c0,.58.18.8,1,1.07l1.41.47a2.56,2.56,0,0,1,2.05,2.86V197c0,1.92-1,3-3.65,3a14.42,14.42,0,0,1-2.47-.33l0-1.78a11.64,11.64,0,0,0,2.4.35c1.35,0,1.79-.41,1.79-1.15v-.42c0-.56-.22-.84-.84-1l-1.56-.52a2.51,2.51,0,0,1-2.08-2.84v-.16c0-1.91,1-3,3.25-3A17.1,17.1,0,0,1,418.71,189.39Z" transform="translate(-1.7)"/><path class="cls-1" d="M427.22,191.09h-3.93v2.53h3.61v1.74h-3.61v2.69h3.93v1.76h-5.84V189.33h5.84Z" transform="translate(-1.7)"/><path class="cls-1" d="M437.78,189.29l0,1.6a11,11,0,0,0-1.76-.15c-1,0-1.41.44-1.41,1.26v.29c0,.86.55,1.41,1.57,1.41h1.28v-1h1.8v1h1v1.58h-1v4.29a13.25,13.25,0,0,1-3.12.43c-2.76,0-3.73-1.09-3.73-2.83v-.37a2.52,2.52,0,0,1,1.88-2.46,2.29,2.29,0,0,1-1.52-2.26v-.3c0-1.49,1.09-2.65,3.06-2.65A14.7,14.7,0,0,1,437.78,189.29Zm-1.7,6c-1.28,0-1.86.55-1.86,1.41v.37c0,.85.59,1.31,1.91,1.31a5.54,5.54,0,0,0,1.29-.16v-2.93Z" transform="translate(-1.7)"/><path class="cls-1" d="M451.94,192.08v.38a2.8,2.8,0,0,1-1.78,2.63l2.59,4.72h-2.11l-2.27-4.22a8.87,8.87,0,0,1-1.24,0v4.24h-1.92V189.23c.93,0,2.18-.1,2.93-.1C450.82,189.13,451.94,190.29,451.94,192.08Zm-4.82-1.23v3.05a8.86,8.86,0,0,0,1,.07c1.31,0,1.86-.58,1.86-1.52v-.26c0-.91-.55-1.38-1.88-1.38Z" transform="translate(-1.7)"/><path class="cls-1" d="M460.16,191.09h-3.92v2.53h3.6v1.74h-3.6v2.69h3.92v1.76h-5.84V189.33h5.84Z" transform="translate(-1.7)"/><path class="cls-1" d="M469.18,192.19v.35c0,2-1.2,3.27-3.63,3.27a7.37,7.37,0,0,1-1.2-.11v4.11h-1.92V189.23c.8,0,1.84-.08,2.91-.1C468,189.12,469.18,190.32,469.18,192.19Zm-4.85-1.36V194a9.21,9.21,0,0,0,1.08.09c1.25,0,1.85-.56,1.85-1.63v-.24c0-.93-.56-1.44-1.92-1.44C464.86,190.8,464.61,190.81,464.33,190.83Z" transform="translate(-1.7)"/><path class="cls-1" d="M478.19,192.67v3.8c0,2.2-1.07,3.53-3.61,3.53s-3.61-1.33-3.61-3.53v-3.8c0-2.24,1.09-3.54,3.61-3.54S478.19,190.43,478.19,192.67Zm-5.31-.14v4.06a1.7,1.7,0,0,0,3.39,0v-4.05a1.7,1.7,0,0,0-3.39,0Z" transform="translate(-1.7)"/><path class="cls-1" d="M487.26,192.08v.38a2.79,2.79,0,0,1-1.77,2.63l2.59,4.72H486l-2.27-4.22a8.84,8.84,0,0,1-1.24,0v4.24h-1.92V189.23c.93,0,2.18-.1,2.93-.1C486.14,189.13,487.26,190.29,487.26,192.08Zm-4.81-1.23v3.05a8.86,8.86,0,0,0,1,.07c1.31,0,1.85-.58,1.85-1.52v-.26c0-.91-.54-1.38-1.87-1.38C483.21,190.81,482.77,190.83,482.45,190.85Z" transform="translate(-1.7)"/><path class="cls-1" d="M496.46,191.09h-2.88v8.72h-1.9v-8.72H488.8v-1.76h7.66Z" transform="translate(-1.7)"/><path class="cls-1" d="M500.27,199.81h-1.92V189.33h1.92Z" transform="translate(-1.7)"/><path class="cls-1" d="M504.54,192.4v7.41h-1.85V189.33h2.6l2.71,7.41v-7.41h1.84v10.48h-2.55Z" transform="translate(-1.7)"/><path class="cls-1" d="M518.66,189.47l0,1.7a17.42,17.42,0,0,0-2.83-.34c-1.23,0-1.68.45-1.68,1.59v4.25c0,1.14.45,1.6,1.63,1.6a9.19,9.19,0,0,0,1.52-.14v-2.82h-1.63v-1.73h3.46v5.78a11.65,11.65,0,0,1-3.39.64c-2.6,0-3.51-1.12-3.51-3.34v-4.18c0-2.3,1-3.35,3.54-3.35A17.76,17.76,0,0,1,518.66,189.47Z" transform="translate(-1.7)"/><path class="cls-1" d="M371.36,236.31H369l-1.78-8.42-1.77,8.42H363.1l-2.29-10.48h2l1.52,8.51,1.75-8.51h2.25l1.76,8.5,1.51-8.5h2Z" transform="translate(-1.7)"/><path class="cls-1" d="M381.25,227.59h-3.92v2.53h3.6v1.74h-3.6v2.69h3.92v1.76h-5.84V225.83h5.84Z" transform="translate(-1.7)"/><path class="cls-1" d="M390.05,228.24v.29a2.34,2.34,0,0,1-1.57,2.31,2.31,2.31,0,0,1,2,2.38v.32c0,1.73-1.13,3-3.9,3-.91,0-1.59,0-3-.08V225.71c.8,0,2.05-.08,3-.08C388.87,225.63,390.05,226.76,390.05,228.24Zm-4.63-.91v2.87h1.17c1,0,1.54-.53,1.54-1.4v-.25c0-.8-.5-1.25-1.79-1.25C386.05,227.3,385.78,227.3,385.42,227.33Zm0,4.47v3a11.21,11.21,0,0,0,1.17.06c1.39,0,2-.56,2-1.42v-.29c0-.83-.56-1.31-1.87-1.31Z" transform="translate(-1.7)"/><path class="cls-1" d="M401.06,225.89l0,1.74a16.14,16.14,0,0,0-2.35-.27c-1,0-1.38.4-1.38,1.12v.34c0,.58.18.8,1,1.07l1.41.47a2.56,2.56,0,0,1,2.05,2.86v.31c0,1.92-1,3-3.65,3a14.33,14.33,0,0,1-2.46-.33v-1.78a11.83,11.83,0,0,0,2.4.35c1.35,0,1.8-.41,1.8-1.15v-.42c0-.56-.23-.84-.85-1l-1.55-.52a2.51,2.51,0,0,1-2.09-2.84v-.16c0-1.91,1-3,3.25-3A17.1,17.1,0,0,1,401.06,225.89Z" transform="translate(-1.7)"/><path class="cls-1" d="M409.57,227.59h-3.92v2.53h3.6v1.74h-3.6v2.69h3.92v1.76h-5.84V225.83h5.84Z" transform="translate(-1.7)"/><path class="cls-1" d="M418.56,228.58V229a2.8,2.8,0,0,1-1.78,2.63l2.6,4.72h-2.12L415,232.09a8.72,8.72,0,0,1-1.23,0v4.24h-1.92V225.73c.93,0,2.18-.1,2.93-.1C417.44,225.63,418.56,226.79,418.56,228.58Zm-4.82-1.23v3.05a9,9,0,0,0,1,.07c1.32,0,1.86-.58,1.86-1.52v-.26c0-.91-.54-1.38-1.87-1.38C414.51,227.31,414.06,227.33,413.74,227.35Z" transform="translate(-1.7)"/><path class="cls-1" d="M425.22,236.31h-2.31l-3-10.48h2l2.13,8.78,2.18-8.78h2Z" transform="translate(-1.7)"/><path class="cls-1" d="M435.78,227.59h-3.93v2.53h3.61v1.74h-3.61v2.69h3.93v1.76h-5.85V225.83h5.85Z" transform="translate(-1.7)"/><path class="cls-1" d="M444.77,228.58V229a2.8,2.8,0,0,1-1.78,2.63l2.59,4.72h-2.11l-2.27-4.22a8.72,8.72,0,0,1-1.23,0v4.24h-1.92V225.73c.92,0,2.17-.1,2.92-.1C443.65,225.63,444.77,226.79,444.77,228.58ZM440,227.35v3.05a8.86,8.86,0,0,0,1,.07c1.31,0,1.86-.58,1.86-1.52v-.26c0-.91-.55-1.38-1.88-1.38Z" transform="translate(-1.7)"/><path class="cls-1" d="M368.71,155.18,367,161.33H365l-1.66-6.15-.08,7.3h-1.83l.1-10.49H364l2,7.45,2.05-7.45h2.44l.1,10.49H368.8Z" transform="translate(-1.7)"/><path class="cls-1" d="M380.61,162.48h-2.05l-.56-2.2h-3.34l-.56,2.2h-2l3.1-10.49h2.27ZM375,158.65h2.58l-1.28-5.06Z" transform="translate(-1.7)"/><path class="cls-1" d="M384.05,155.07v7.41h-1.86V152h2.61l2.7,7.41V152h1.85v10.49H386.8Z" transform="translate(-1.7)"/><path class="cls-1" d="M399.41,162.48h-2.05l-.56-2.2h-3.34l-.57,2.2h-2L394,152h2.27Zm-5.57-3.83h2.58l-1.28-5.06Z" transform="translate(-1.7)"/><path class="cls-1" d="M407.06,152.14l0,1.69a19,19,0,0,0-2.84-.33c-1.23,0-1.68.45-1.68,1.58v4.26c0,1.14.45,1.6,1.63,1.6a10.67,10.67,0,0,0,1.53-.14V158H404v-1.73h3.46V162a11.65,11.65,0,0,1-3.39.64c-2.6,0-3.51-1.12-3.51-3.35v-4.17c0-2.31,1-3.35,3.54-3.35A17.76,17.76,0,0,1,407.06,152.14Z" transform="translate(-1.7)"/><path class="cls-1" d="M415.71,153.75h-3.92v2.53h3.6V158h-3.6v2.69h3.92v1.76h-5.84V152h5.84Z" transform="translate(-1.7)"/><path class="cls-1" d="M425.23,155.18l-1.66,6.15h-2.08l-1.67-6.15-.08,7.3h-1.82L418,152h2.49l2,7.45,2-7.45H427l.1,10.49h-1.81Z" transform="translate(-1.7)"/><path class="cls-1" d="M435.34,153.75h-3.92v2.53H435V158h-3.6v2.69h3.92v1.76H429.5V152h5.84Z" transform="translate(-1.7)"/><path class="cls-1" d="M439.47,155.07v7.41h-1.86V152h2.61l2.71,7.41V152h1.84v10.49h-2.55Z" transform="translate(-1.7)"/><path class="cls-1" d="M454.3,153.75h-2.88v8.73h-1.9v-8.73h-2.88V152h7.66Z" transform="translate(-1.7)"/><path class="cls-1" d="M465.41,153.75h-3.92v2.53h3.6V158h-3.6v2.69h3.92v1.76h-5.84V152h5.84Z" transform="translate(-1.7)"/><path class="cls-1" d="M469.53,155.07v7.41h-1.85V152h2.61l2.7,7.41V152h1.84v10.49h-2.54Z" transform="translate(-1.7)"/><path class="cls-1" d="M483.65,152.14l0,1.69a19,19,0,0,0-2.84-.33c-1.23,0-1.68.45-1.68,1.58v4.26c0,1.14.45,1.6,1.63,1.6a10.67,10.67,0,0,0,1.53-.14V158h-1.64v-1.73h3.46V162a11.59,11.59,0,0,1-3.39.64c-2.6,0-3.51-1.12-3.51-3.35v-4.17c0-2.31,1-3.35,3.54-3.35A17.76,17.76,0,0,1,483.65,152.14Z" transform="translate(-1.7)"/><path class="cls-1" d="M488.38,162.48h-1.92V152h1.92Z" transform="translate(-1.7)"/><path class="cls-1" d="M492.65,155.07v7.41H490.8V152h2.61l2.7,7.41V152H498v10.49h-2.54Z" transform="translate(-1.7)"/><path class="cls-1" d="M506.22,153.75H502.3v2.53h3.6V158h-3.6v2.69h3.92v1.76h-5.84V152h5.84Z" transform="translate(-1.7)"/><polygon class="cls-2" points="477 487.22 368.53 340.35 371.39 339.67 363.2 334.81 365.43 344.07 366.92 341.54 475.39 488.4 477 487.22"/><polygon class="cls-2" points="236.21 337.97 238.88 339.2 151.52 418.57 152.87 420.05 240.22 340.68 241.19 343.45 245.2 334.81 236.21 337.97"/><polygon class="cls-2" points="306.87 471.09 303.17 462.31 299.46 471.09 302.17 469.94 302.17 485.31 304.17 485.31 304.17 469.94 306.87 471.09"/><polygon class="cls-2" points="306.87 351.59 303.17 342.81 299.46 351.59 302.17 350.44 302.17 372.81 304.17 372.81 304.17 350.44 306.87 351.59"/><polygon class="cls-2" points="304.17 114.18 304.17 89.31 302.17 89.31 302.17 114.18 299.46 113.03 303.17 121.81 306.87 113.03 304.17 114.18"/><path class="cls-2" d="M241.19,35A2.75,2.75,0,1,0,244,37.78,2.77,2.77,0,0,0,241.19,35Zm0,4.26a1.51,1.51,0,1,1,1.52-1.51A1.52,1.52,0,0,1,241.19,39.29Z" transform="translate(-1.7)"/><path class="cls-2" d="M236.93,13.58h28.58A2.6,2.6,0,0,0,268.12,11V2.58A2.6,2.6,0,0,0,265.51,0H236.93a2.6,2.6,0,0,0-2.6,2.58V11A2.6,2.6,0,0,0,236.93,13.58Zm-.34-11a.35.35,0,0,1,.34-.35h28.58a.35.35,0,0,1,.35.35V11a.35.35,0,0,1-.35.34H236.93a.34.34,0,0,1-.34-.34Z" transform="translate(-1.7)"/><path class="cls-2" d="M241.19,9.54a2.75,2.75,0,1,0-2.78-2.75A2.77,2.77,0,0,0,241.19,9.54Zm0-4.26a1.51,1.51,0,1,1-1.52,1.51A1.52,1.52,0,0,1,241.19,5.28Z" transform="translate(-1.7)"/><path class="cls-2" d="M236.93,29.07h28.58a2.59,2.59,0,0,0,2.61-2.57V18.07a2.59,2.59,0,0,0-2.61-2.57H236.93a2.59,2.59,0,0,0-2.6,2.57V26.5A2.59,2.59,0,0,0,236.93,29.07Zm-.34-11a.35.35,0,0,1,.34-.34h28.58a.35.35,0,0,1,.35.34V26.5a.35.35,0,0,1-.35.34H236.93a.35.35,0,0,1-.34-.34Z" transform="translate(-1.7)"/><path class="cls-2" d="M241.19,25a2.75,2.75,0,1,0-2.78-2.74A2.77,2.77,0,0,0,241.19,25Zm0-4.25a1.51,1.51,0,1,1-1.52,1.51A1.51,1.51,0,0,1,241.19,20.78Z" transform="translate(-1.7)"/><path class="cls-2" d="M277.59,35a2.75,2.75,0,1,0,2.78,2.75A2.77,2.77,0,0,0,277.59,35Zm0,4.26a1.51,1.51,0,1,1,1.52-1.51A1.52,1.52,0,0,1,277.59,39.29Z" transform="translate(-1.7)"/><path class="cls-2" d="M273.33,13.58h28.58A2.6,2.6,0,0,0,304.52,11V2.58A2.6,2.6,0,0,0,301.91,0H273.33a2.6,2.6,0,0,0-2.6,2.58V11A2.6,2.6,0,0,0,273.33,13.58Zm-.34-11a.35.35,0,0,1,.34-.35h28.58a.35.35,0,0,1,.35.35V11a.35.35,0,0,1-.35.34H273.33A.34.34,0,0,1,273,11Z" transform="translate(-1.7)"/><path class="cls-2" d="M277.59,9.54a2.75,2.75,0,1,0-2.78-2.75A2.77,2.77,0,0,0,277.59,9.54Zm0-4.26a1.51,1.51,0,1,1-1.52,1.51A1.52,1.52,0,0,1,277.59,5.28Z" transform="translate(-1.7)"/><path class="cls-2" d="M273.33,29.07h28.58a2.59,2.59,0,0,0,2.61-2.57V18.07a2.59,2.59,0,0,0-2.61-2.57H273.33a2.59,2.59,0,0,0-2.6,2.57V26.5A2.59,2.59,0,0,0,273.33,29.07Zm-.34-11a.35.35,0,0,1,.34-.34h28.58a.35.35,0,0,1,.35.34V26.5a.35.35,0,0,1-.35.34H273.33a.35.35,0,0,1-.34-.34Z" transform="translate(-1.7)"/><path class="cls-2" d="M277.59,25a2.75,2.75,0,1,0-2.78-2.74A2.77,2.77,0,0,0,277.59,25Zm0-4.25a1.51,1.51,0,1,1-1.52,1.51A1.51,1.51,0,0,1,277.59,20.78Z" transform="translate(-1.7)"/><path class="cls-2" d="M314.18,35A2.75,2.75,0,1,0,317,37.78,2.77,2.77,0,0,0,314.18,35Zm0,4.26a1.51,1.51,0,1,1,1.52-1.51A1.52,1.52,0,0,1,314.18,39.29Z" transform="translate(-1.7)"/><path class="cls-2" d="M309.92,13.58H338.5A2.6,2.6,0,0,0,341.11,11V2.58A2.6,2.6,0,0,0,338.5,0H309.92a2.6,2.6,0,0,0-2.6,2.58V11A2.6,2.6,0,0,0,309.92,13.58Zm-.34-11a.35.35,0,0,1,.34-.35H338.5a.35.35,0,0,1,.35.35V11a.35.35,0,0,1-.35.34H309.92a.34.34,0,0,1-.34-.34Z" transform="translate(-1.7)"/><path class="cls-2" d="M314.18,9.54a2.75,2.75,0,1,0-2.78-2.75A2.77,2.77,0,0,0,314.18,9.54Zm0-4.26a1.51,1.51,0,1,1-1.52,1.51A1.52,1.52,0,0,1,314.18,5.28Z" transform="translate(-1.7)"/><path class="cls-2" d="M309.92,29.07H338.5a2.59,2.59,0,0,0,2.61-2.57V18.07a2.59,2.59,0,0,0-2.61-2.57H309.92a2.59,2.59,0,0,0-2.6,2.57V26.5A2.59,2.59,0,0,0,309.92,29.07Zm-.34-11a.34.34,0,0,1,.34-.34H338.5a.35.35,0,0,1,.35.34V26.5a.35.35,0,0,1-.35.34H309.92a.34.34,0,0,1-.34-.34Z" transform="translate(-1.7)"/><path class="cls-2" d="M314.18,25a2.75,2.75,0,1,0-2.78-2.74A2.77,2.77,0,0,0,314.18,25Zm0-4.25a1.51,1.51,0,1,1-1.52,1.51A1.51,1.51,0,0,1,314.18,20.78Z" transform="translate(-1.7)"/><path class="cls-2" d="M386.24,49.91H361.63V44.57H374.9A2.59,2.59,0,0,0,377.51,42V33.57A2.6,2.6,0,0,0,374.9,31H346.32a2.6,2.6,0,0,0-2.6,2.58V42a2.59,2.59,0,0,0,2.6,2.57h12.5v5.34H325.23V44.57H338.5A2.59,2.59,0,0,0,341.11,42V33.57A2.6,2.6,0,0,0,338.5,31H309.92a2.6,2.6,0,0,0-2.6,2.58V42a2.59,2.59,0,0,0,2.6,2.57h12.5v5.34H288.64V44.57h13.27A2.59,2.59,0,0,0,304.52,42V33.57A2.6,2.6,0,0,0,301.91,31H273.33a2.6,2.6,0,0,0-2.6,2.58V42a2.59,2.59,0,0,0,2.6,2.57h12.5v5.34H252.24V44.57h13.27A2.59,2.59,0,0,0,268.12,42V33.57A2.6,2.6,0,0,0,265.51,31H236.93a2.6,2.6,0,0,0-2.6,2.58V42a2.59,2.59,0,0,0,2.6,2.57h12.5v5.34H224.82a1.35,1.35,0,1,0,0,2.7H386.24a1.35,1.35,0,1,0,0-2.7ZM236.59,42V33.57a.34.34,0,0,1,.34-.34h28.58a.35.35,0,0,1,.35.34V42a.35.35,0,0,1-.35.34H236.93A.35.35,0,0,1,236.59,42ZM273,42V33.57a.34.34,0,0,1,.34-.34h28.58a.35.35,0,0,1,.35.34V42a.35.35,0,0,1-.35.34H273.33A.35.35,0,0,1,273,42Zm36.59,0V33.57a.34.34,0,0,1,.34-.34H338.5a.35.35,0,0,1,.35.34V42a.35.35,0,0,1-.35.34H309.92A.34.34,0,0,1,309.58,42ZM346,42V33.57a.34.34,0,0,1,.34-.34H374.9a.35.35,0,0,1,.35.34V42a.35.35,0,0,1-.35.34H346.32A.35.35,0,0,1,346,42Z" transform="translate(-1.7)"/><path class="cls-2" d="M350.58,35a2.75,2.75,0,1,0,2.78,2.75A2.77,2.77,0,0,0,350.58,35Zm0,4.26a1.51,1.51,0,1,1,1.52-1.51A1.52,1.52,0,0,1,350.58,39.29Z" transform="translate(-1.7)"/><path class="cls-2" d="M346.32,13.58H374.9A2.6,2.6,0,0,0,377.51,11V2.58A2.6,2.6,0,0,0,374.9,0H346.32a2.6,2.6,0,0,0-2.6,2.58V11A2.6,2.6,0,0,0,346.32,13.58Zm-.34-11a.35.35,0,0,1,.34-.35H374.9a.35.35,0,0,1,.35.35V11a.35.35,0,0,1-.35.34H346.32A.34.34,0,0,1,346,11Z" transform="translate(-1.7)"/><path class="cls-2" d="M350.58,9.54a2.75,2.75,0,1,0-2.78-2.75A2.77,2.77,0,0,0,350.58,9.54Zm0-4.26a1.51,1.51,0,1,1-1.52,1.51A1.52,1.52,0,0,1,350.58,5.28Z" transform="translate(-1.7)"/><path class="cls-2" d="M346.32,29.07H374.9a2.59,2.59,0,0,0,2.61-2.57V18.07a2.59,2.59,0,0,0-2.61-2.57H346.32a2.59,2.59,0,0,0-2.6,2.57V26.5A2.59,2.59,0,0,0,346.32,29.07Zm-.34-11a.35.35,0,0,1,.34-.34H374.9a.35.35,0,0,1,.35.34V26.5a.35.35,0,0,1-.35.34H346.32a.35.35,0,0,1-.34-.34Z" transform="translate(-1.7)"/><path class="cls-2" d="M350.58,25a2.75,2.75,0,1,0-2.78-2.74A2.77,2.77,0,0,0,350.58,25Zm0-4.25a1.51,1.51,0,1,1-1.52,1.51A1.51,1.51,0,0,1,350.58,20.78Z" transform="translate(-1.7)"/><path class="cls-2" d="M542.71,539.54l-4.91-7.86V501.27a4.64,4.64,0,0,0-4.63-4.63H486.88a4.63,4.63,0,0,0-4.62,4.63v30.41l-4.91,7.86a1.45,1.45,0,0,0-.24.81v1a5.67,5.67,0,0,0,5.66,5.66h54.51a5.67,5.67,0,0,0,5.66-5.66v-1A1.53,1.53,0,0,0,542.71,539.54Zm-57.37-38.27a1.55,1.55,0,0,1,1.54-1.55h20.37l.21,1h5.14l.2-1h20.37a1.55,1.55,0,0,1,1.54,1.55V531.1H485.34ZM485,533.15h50.11l4.18,6.69H518.17l-.43-2.57H502.31l-.43,2.57H480.8Zm54.89,8.23a2.58,2.58,0,0,1-2.58,2.57H482.77a2.57,2.57,0,0,1-2.57-2.57v-.51h59.66Z" transform="translate(-1.7)"/><path class="cls-2" d="M487.91,529h44.23V502.3H487.91Zm1-25.72h42.17V528H488.94Z" transform="translate(-1.7)"/><path class="cls-2" d="M574.15,544.87c-1.12,0-2.3,0-3.55,0a80.86,80.86,0,0,1-15.33-1.17v-5.34a.93.93,0,0,0-1.86,0v4.91c-3-.79-4.19-1.71-4.19-2.32,0-8.35,5.6-11.58,14-13.86l.15,0a6,6,0,0,0,2.91,3.71,9,9,0,0,0,8.61,0,6,6,0,0,0,2.91-3.71l.15,0,.78.21a17.53,17.53,0,0,1,2.68-2.09c-.92-.3-1.84-.57-2.77-.83l-.09,0c-1.53-.31-2-.61-2.2-1.38,3.22-2.71,6.42-7.13,6.42-12.08,0-9.58-4.56-15.3-12.19-15.3s-12.18,5.72-12.18,15.3c0,4.95,3.19,9.37,6.41,12.08-.23.77-.67,1.07-2.2,1.38l-.08,0c-8,2.16-16.12,5.81-16.12,16.57,0,3.06,4.2,6.71,24.17,6.71,1.67,0,3.23,0,4.68-.08A17.56,17.56,0,0,1,574.15,544.87ZM561.21,511c0-3.76.91-12.51,9.39-12.51S580,507.19,580,511c0,4.29-3.11,8.2-6,10.43a1.4,1.4,0,0,0-.53,1.36c.37,2,1.09,3.11,2.6,3.8A4.27,4.27,0,0,1,574,529.2a7.14,7.14,0,0,1-6.75,0,4.24,4.24,0,0,1-2.07-2.66c1.51-.69,2.23-1.82,2.59-3.8a1.39,1.39,0,0,0-.52-1.36C564.32,519.15,561.21,515.24,561.21,511Z" transform="translate(-1.7)"/><path class="cls-2" d="M590.59,555.14a15.34,15.34,0,1,1,15.34-15.34A15.36,15.36,0,0,1,590.59,555.14Zm0-27.89a12.55,12.55,0,1,0,12.55,12.55A12.56,12.56,0,0,0,590.59,527.25Z" transform="translate(-1.7)"/><path class="cls-2" d="M595.1,538.78h-.41v-1.64a4.12,4.12,0,1,0-8.2,0v1.64h-.41a1.43,1.43,0,0,0-1.43,1.43v5.33a1.44,1.44,0,0,0,1.43,1.44h9a1.44,1.44,0,0,0,1.43-1.44v-5.33A1.43,1.43,0,0,0,595.1,538.78Zm-7.38-1.64a2.9,2.9,0,1,1,5.74,0v1.64h-5.74Zm7.58,8.4a.21.21,0,0,1-.2.21h-9a.21.21,0,0,1-.2-.21v-5.33a.2.2,0,0,1,.2-.2h9a.2.2,0,0,1,.2.2Z" transform="translate(-1.7)"/><path class="cls-2" d="M590.59,541a1.23,1.23,0,0,0-1.23,1.23,1.21,1.21,0,0,0,.82,1.15v1.11a.41.41,0,1,0,.82,0v-1.11a1.22,1.22,0,0,0-.41-2.38Z" transform="translate(-1.7)"/><path class="cls-2" d="M311.47,539.54l-4.91-7.86V501.27a4.64,4.64,0,0,0-4.63-4.63H255.64a4.63,4.63,0,0,0-4.62,4.63v30.41l-4.91,7.86a1.45,1.45,0,0,0-.24.81v1a5.67,5.67,0,0,0,5.66,5.66H306a5.67,5.67,0,0,0,5.66-5.66v-1A1.53,1.53,0,0,0,311.47,539.54ZM254.1,501.27a1.55,1.55,0,0,1,1.54-1.55H276l.21,1h5.14l.2-1h20.37a1.55,1.55,0,0,1,1.54,1.55V531.1H254.1Zm-.36,31.88h50.1l4.18,6.69H286.93l-.43-2.57H271.07l-.43,2.57H249.56Zm54.88,8.23A2.58,2.58,0,0,1,306,544H251.53a2.57,2.57,0,0,1-2.57-2.57v-.51h59.66Z" transform="translate(-1.7)"/><path class="cls-2" d="M256.67,529H300.9V502.3H256.67Zm1-25.72h42.17V528H257.7Z" transform="translate(-1.7)"/><path class="cls-2" d="M343,544.24c-1.12,0-2.3,0-3.55,0a81,81,0,0,1-15.34-1.17v-5.34a.93.93,0,1,0-1.86,0v4.92c-3-.8-4.18-1.72-4.18-2.33,0-8.34,5.6-11.58,14-13.86l.15,0a6.05,6.05,0,0,0,2.91,3.7,9,9,0,0,0,8.62,0,6.05,6.05,0,0,0,2.91-3.7l.15,0,.77.22a16.62,16.62,0,0,1,2.69-2.1c-.92-.3-1.85-.57-2.78-.82l-.08,0c-1.53-.31-2-.61-2.2-1.39,3.22-2.7,6.41-7.13,6.41-12.07,0-9.59-4.55-15.31-12.18-15.31s-12.18,5.72-12.18,15.31c0,4.94,3.19,9.37,6.41,12.07-.24.78-.67,1.08-2.2,1.39l-.09,0c-8,2.15-16.11,5.81-16.11,16.56,0,3.06,4.19,6.71,24.17,6.71,1.67,0,3.22,0,4.68-.08A17.56,17.56,0,0,1,343,544.24ZM330,510.33c0-3.77.91-12.52,9.39-12.52s9.39,8.75,9.39,12.52c0,4.29-3.11,8.2-6,10.42a1.4,1.4,0,0,0-.53,1.36c.36,2,1.08,3.11,2.59,3.8a4.21,4.21,0,0,1-2.06,2.66,7.16,7.16,0,0,1-6.76,0,4.21,4.21,0,0,1-2.06-2.66c1.51-.69,2.22-1.82,2.59-3.8a1.4,1.4,0,0,0-.53-1.36C333.11,518.53,330,514.62,330,510.33Z" transform="translate(-1.7)"/><path class="cls-2" d="M359.39,554.52a15.34,15.34,0,1,1,15.33-15.34A15.36,15.36,0,0,1,359.39,554.52Zm0-27.89a12.55,12.55,0,1,0,12.55,12.55A12.56,12.56,0,0,0,359.39,526.63Z" transform="translate(-1.7)"/><circle class="cls-2" cx="357" cy="542.71" r="0.41"/><path class="cls-2" d="M367.05,538.35l-2.15-1.9v-4.51a.38.38,0,0,0-.38-.38h-2.68a.38.38,0,0,0-.38.38v1.48l-1.88-1.66a.38.38,0,0,0-.5,0l-7.36,6.59a.49.49,0,0,0,0,.7l.2.23a.51.51,0,0,0,.71,0l.49-.45v6.62h-.65a.5.5,0,0,0-.5.5v.3a.5.5,0,0,0,.5.5h13.91a.5.5,0,0,0,.5-.5V546a.5.5,0,0,0-.5-.5h-.65v-6.61l.5.44a.51.51,0,0,0,.71,0l.19-.23A.48.48,0,0,0,367.05,538.35Zm-4.29-5.49h.84v2.44l-.84-.73Zm-2,12.63h-2.81v-5.06h2.81Zm1,0v-5.68a.39.39,0,0,0-.39-.38h-4a.38.38,0,0,0-.39.38v5.68h-2.55v-7.78l4.58-4.1h0l.38-.33.37.33h0l4.68,4.12v7.76Z" transform="translate(-1.7)"/></g></g></svg>