<svg xmlns="http://www.w3.org/2000/svg" viewBox="0 0 635.14 243.39"><defs><style>.cls-1{fill:#5c5d60;}.cls-2{fill:#ffb71b;}.cls-3{fill:#f18a00;}.cls-4{fill:#6aa845;}.cls-5{fill:#4d8fcc;}.cls-6{fill:#6d6e71;}</style></defs><title>Asset 48</title><g id="Layer_2" data-name="Layer 2"><g id="Layer_1-2" data-name="Layer 1"><polygon class="cls-1" points="79.45 97.44 41.22 115.51 41.22 159.41 79.45 141.34 79.45 97.44"/><polygon class="cls-1" points="38.22 159.41 38.22 115.51 0 97.44 0 141.34 38.22 159.41"/><polygon class="cls-2" points="0 187.06 38.22 205.13 38.22 162.72 0 144.66 0 187.06"/><polygon class="cls-1" points="79.45 52.35 41.22 68.34 41.22 112.19 79.45 94.12 79.45 52.35"/><polygon class="cls-1" points="38.22 112.19 38.22 68.29 0 50.22 0 94.12 38.22 112.19"/><polygon class="cls-1" points="77.2 50.04 39.69 32.99 2.25 47.97 39.76 65.7 77.2 50.04"/><polygon class="cls-1" points="118.35 32.83 80.92 16.5 43.54 31.45 80.97 48.47 118.35 32.83"/><polygon class="cls-3" points="159.5 14.94 122.17 0 84.83 14.94 122.17 31.23 159.5 14.94"/><polygon class="cls-1" points="120.67 35.11 82.44 51.1 82.44 92.7 120.67 74.63 120.67 35.11"/><polygon class="cls-2" points="79.45 188.53 79.45 181.48 41.22 164.1 41.22 205.2 41.22 206.54 79.45 224.61 79.45 188.53"/><polygon class="cls-2" points="80.93 178.86 118.6 161.05 80.96 143.94 43.29 161.75 80.93 178.86"/><polygon class="cls-3" points="161.89 92.7 161.89 58.46 161.89 55.15 161.89 48.9 123.67 35 123.67 73.22 123.67 74.63 161.89 92.7"/><polygon class="cls-3" points="126.2 32.74 163.35 46.24 199.2 31.36 163.4 16.5 126.2 32.74"/><polygon class="cls-3" points="206.11 115.51 206.11 159.41 244.33 141.34 244.33 97.44 206.11 115.51"/><polygon class="cls-3" points="164.89 141.34 203.11 159.41 203.11 115.51 164.89 97.44 164.89 141.34"/><polygon class="cls-4" points="206.11 205.13 244.33 187.06 244.33 144.66 206.11 162.72 206.11 205.13"/><polygon class="cls-3" points="244.33 94.12 244.33 50.03 206.11 64.62 206.11 112.19 244.33 94.12"/><polygon class="cls-3" points="164.89 94.12 203.11 112.19 203.11 64.62 164.89 50.03 164.89 94.12"/><polygon class="cls-3" points="204.61 61.99 241.65 47.84 203.13 32.98 167.44 47.79 204.61 61.99"/><polygon class="cls-5" points="161.89 102.36 161.89 96.69 123.67 114.76 123.67 120.44 123.67 121.85 123.67 123.75 123.67 125.17 123.67 158.66 161.89 140.59 161.89 139.92 161.89 105.68 161.89 102.36"/><polygon class="cls-5" points="120.67 158.7 120.67 125.17 120.67 121.85 120.67 114.77 82.44 97.4 82.44 139.92 82.44 141.32 120.67 158.7"/><polygon class="cls-5" points="122.16 112.16 159.82 94.35 122.18 77.23 84.51 95.04 122.16 112.16"/><polygon class="cls-2" points="161.89 187.14 161.89 182.13 123.67 200.2 123.67 243.39 161.89 226.01 161.89 187.14"/><polygon class="cls-2" points="120.67 207.28 120.67 200.22 82.44 182.84 82.44 187.14 82.44 224.65 82.44 226.01 120.67 243.39 120.67 207.28"/><polygon class="cls-2" points="159.82 179.79 122.18 162.68 84.51 180.49 122.16 197.6 159.82 179.79"/><polygon class="cls-4" points="203.11 205.2 203.11 164.06 164.89 180.74 164.89 188.53 164.89 224.61 203.11 206.54 203.11 205.2"/><polygon class="cls-4" points="161.89 143.2 124.28 160.97 163.39 178.13 200.99 161.72 161.89 143.2"/><path class="cls-6" d="M380.15,33.29a.24.24,0,0,1,.24-.23h7.22a.24.24,0,0,1,.23.23v.31a.24.24,0,0,1-.23.23H381v5h5.7A.24.24,0,0,1,387,39v.3a.24.24,0,0,1-.24.24H381v5.33h6.59a.23.23,0,0,1,.23.23v.29a.24.24,0,0,1-.23.23h-7.22a.24.24,0,0,1-.24-.23Z"/><path class="cls-6" d="M391.24,38.69a.24.24,0,0,1,.25-.23h.18a.2.2,0,0,1,.22.18l.07.77a3.84,3.84,0,0,1,2.67-1.13c2,0,2.89,1.28,2.89,3.29v3.86a.23.23,0,0,1-.23.23H397a.24.24,0,0,1-.24-.23V41.57c0-1.65-.77-2.52-2.14-2.52A3.72,3.72,0,0,0,392,40.3v5.13a.21.21,0,0,1-.23.23h-.34a.21.21,0,0,1-.2-.23Z"/><path class="cls-6" d="M404.26,38.28a3.64,3.64,0,0,1,2.21.72V33.29a.23.23,0,0,1,.23-.23H407a.23.23,0,0,1,.21.23V45.43a.23.23,0,0,1-.23.23h-.18a.23.23,0,0,1-.25-.23l-.06-.63a3.47,3.47,0,0,1-2.48,1,3.54,3.54,0,0,1-3.33-3.78A3.59,3.59,0,0,1,404.26,38.28Zm-.17,6.84a2.85,2.85,0,0,0,2.38-1.28v-4a3.38,3.38,0,0,0-2.14-.76,2.84,2.84,0,0,0-2.83,3A2.81,2.81,0,0,0,404.09,45.12Z"/><path class="cls-6" d="M411.83,50.83a.23.23,0,0,1-.23.23h-.31a.23.23,0,0,1-.23-.23V38.69a.24.24,0,0,1,.25-.23h.2c.12,0,.2,0,.21.18l.06.5a3.62,3.62,0,0,1,2.36-.86,3.57,3.57,0,0,1,3.47,3.78A3.62,3.62,0,0,1,414,45.84a3.31,3.31,0,0,1-2.14-.74Zm2.05-5.75a2.9,2.9,0,0,0,2.94-3,2.81,2.81,0,0,0-2.74-3,2.86,2.86,0,0,0-2.23,1v4.21A2.83,2.83,0,0,0,413.88,45.08Z"/><path class="cls-6" d="M424,38.28A3.78,3.78,0,1,1,420.36,42,3.7,3.7,0,0,1,424,38.28Zm0,6.82A3,3,0,1,0,421.14,42,2.92,2.92,0,0,0,424,45.1Z"/><path class="cls-6" d="M430.66,34.34a.61.61,0,1,1,1.22,0,.61.61,0,0,1-1.22,0Zm.22,4.35a.23.23,0,0,1,.23-.23h.32a.24.24,0,0,1,.24.23v6.74a.21.21,0,0,1-.24.23h-.36a.21.21,0,0,1-.19-.23Z"/><path class="cls-6" d="M435.48,38.69a.24.24,0,0,1,.25-.23h.19a.2.2,0,0,1,.21.18l.07.77a3.89,3.89,0,0,1,2.67-1.13c2,0,2.9,1.28,2.9,3.29v3.86a.24.24,0,0,1-.24.23h-.32a.24.24,0,0,1-.24-.23V41.57c0-1.65-.77-2.52-2.14-2.52a3.68,3.68,0,0,0-2.57,1.25v5.13a.21.21,0,0,1-.24.23h-.34a.21.21,0,0,1-.2-.23Z"/><path class="cls-6" d="M445.78,39.16h-.85c-.18,0-.21-.09-.21-.23v-.29c0-.13.09-.18.21-.18h.85v-2a.23.23,0,0,1,.23-.24l.31,0a.23.23,0,0,1,.23.24v2h2.51a.23.23,0,0,1,.23.23v.24a.22.22,0,0,1-.23.23h-2.51v4.59c0,.85.09,1.32.94,1.32a3.94,3.94,0,0,0,1.64-.49.19.19,0,0,1,.29.07l.12.22c.07.13.06.23-.05.3a3.55,3.55,0,0,1-2.09.67c-1.49,0-1.62-.88-1.62-2Z"/><path class="cls-6" d="M458,33.29a.24.24,0,0,1,.22-.23H462a6.3,6.3,0,1,1,0,12.6h-3.81a.24.24,0,0,1-.22-.23Zm3.89,11.6a5.53,5.53,0,1,0,0-11.06h-3V44.89Z"/><path class="cls-6" d="M474.67,38.28a3.17,3.17,0,0,1,3.26,3.29c0,.29,0,.71-.27.71h-5.74a2.84,2.84,0,0,0,2.8,2.84,3.91,3.91,0,0,0,2.13-.66c.16-.11.23-.13.32,0l.18.25c.06.07,0,.18-.07.29a4.35,4.35,0,0,1-2.61.84,3.53,3.53,0,0,1-3.55-3.8A3.53,3.53,0,0,1,474.67,38.28Zm2.47,3.35A2.42,2.42,0,0,0,474.67,39a2.68,2.68,0,0,0-2.74,2.63Z"/><path class="cls-6" d="M481.44,39.16h-.85c-.18,0-.21-.09-.21-.23v-.29c0-.13.09-.18.21-.18h.85v-2a.23.23,0,0,1,.23-.24l.31,0a.24.24,0,0,1,.23.24v2h2.5a.23.23,0,0,1,.24.23v.24a.22.22,0,0,1-.24.23h-2.5v4.59c0,.85.09,1.32.94,1.32a3.94,3.94,0,0,0,1.64-.49c.16-.09.23,0,.28.07l.13.22a.21.21,0,0,1-.05.3,3.57,3.57,0,0,1-2.09.67c-1.5,0-1.62-.88-1.62-2Z"/><path class="cls-6" d="M491.16,38.28a3.17,3.17,0,0,1,3.26,3.29c0,.29,0,.71-.27.71H488.4a2.85,2.85,0,0,0,2.81,2.84,3.94,3.94,0,0,0,2.13-.66c.16-.11.23-.13.32,0l.18.25c.05.07,0,.18-.07.29a4.37,4.37,0,0,1-2.61.84,3.53,3.53,0,0,1-3.55-3.8A3.53,3.53,0,0,1,491.16,38.28Zm2.47,3.35A2.42,2.42,0,0,0,491.16,39a2.68,2.68,0,0,0-2.74,2.63Z"/><path class="cls-6" d="M500.86,38.28a3.48,3.48,0,0,1,2.66,1.13.22.22,0,0,1,0,.33l-.18.18a.25.25,0,0,1-.38,0,3,3,0,1,0-2.09,5.2A2.9,2.9,0,0,0,503.09,44c.13-.14.24-.14.34,0l.2.18c.09.09.13.18.06.29a3.61,3.61,0,0,1-2.83,1.38,3.78,3.78,0,0,1,0-7.56Z"/><path class="cls-6" d="M507.27,39.16h-.85c-.18,0-.22-.09-.22-.23v-.29c0-.13.09-.18.22-.18h.85v-2a.22.22,0,0,1,.23-.24l.31,0a.24.24,0,0,1,.23.24v2h2.5a.23.23,0,0,1,.24.23v.24a.22.22,0,0,1-.24.23H508v4.59c0,.85.09,1.32.94,1.32a3.94,3.94,0,0,0,1.64-.49c.16-.09.23,0,.28.07l.13.22a.21.21,0,0,1,0,.3,3.57,3.57,0,0,1-2.09.67c-1.5,0-1.62-.88-1.62-2Z"/><path class="cls-6" d="M513.75,34.34a.61.61,0,1,1,1.22,0,.61.61,0,0,1-1.22,0Zm.21,4.35a.24.24,0,0,1,.24-.23h.32a.23.23,0,0,1,.23.23v6.74a.21.21,0,0,1-.23.23h-.36a.21.21,0,0,1-.2-.23Z"/><path class="cls-6" d="M521.65,38.28A3.78,3.78,0,1,1,518,42,3.7,3.7,0,0,1,521.65,38.28Zm0,6.82A3,3,0,1,0,518.81,42,2.93,2.93,0,0,0,521.65,45.1Z"/><path class="cls-6" d="M528.54,38.69a.24.24,0,0,1,.25-.23H529a.2.2,0,0,1,.22.18l.07.77a3.89,3.89,0,0,1,2.67-1.13c2,0,2.9,1.28,2.9,3.29v3.86a.24.24,0,0,1-.24.23h-.32a.24.24,0,0,1-.24-.23V41.57c0-1.65-.77-2.52-2.14-2.52a3.68,3.68,0,0,0-2.57,1.25v5.13a.21.21,0,0,1-.24.23h-.34a.21.21,0,0,1-.2-.23Z"/><path class="cls-6" d="M546.43,38.89l-.26-.29a4.29,4.29,0,0,1-1.55-2.93,2.85,2.85,0,0,1,3.08-2.79,2.69,2.69,0,0,1,2.91,2.72c0,1.49-1.55,2.68-3,3.42l3.67,3.63A7,7,0,0,0,552.39,39c0-.09,0-.27,0-.36s0-.16.14-.16h.38a.19.19,0,0,1,.21.16,1.23,1.23,0,0,1,0,.36,8,8,0,0,1-1.3,4.2L553.73,45c.14.13.21.29.07.42l-.29.26c-.14.15-.27.06-.36,0l-1.8-1.82a5.37,5.37,0,0,1-4.16,2,3.23,3.23,0,0,1-3.42-3.29C543.77,40.66,545.16,39.58,546.43,38.89Zm.78,6.23a4.68,4.68,0,0,0,3.64-1.78l-3.91-4a3.77,3.77,0,0,0-2.38,3.17A2.55,2.55,0,0,0,547.21,45.12Zm2.61-9.51a2,2,0,0,0-2.18-2,2.11,2.11,0,0,0-2.27,2.11A3.43,3.43,0,0,0,546.6,38c.18.16.34.34.52.53C548.43,37.83,549.82,36.91,549.82,35.61Z"/><path class="cls-6" d="M562.33,33.29a.23.23,0,0,1,.23-.23H567a3.86,3.86,0,0,1,1,7.61l2.63,4.67c.09.14,0,.32-.13.32H570a.26.26,0,0,1-.26-.16l-2.61-4.72c-.23,0-.43,0-.66,0h-3.32v4.63a.25.25,0,0,1-.28.23h-.33a.24.24,0,0,1-.23-.23ZM567,40a3.15,3.15,0,0,0,3.19-3.13,3.11,3.11,0,0,0-3.21-3h-3.78V40Z"/><path class="cls-6" d="M577.11,38.28a3.17,3.17,0,0,1,3.26,3.29c0,.29,0,.71-.27.71h-5.75a2.85,2.85,0,0,0,2.81,2.84,3.94,3.94,0,0,0,2.13-.66c.16-.11.23-.13.32,0l.18.25c.05.07,0,.18-.07.29a4.37,4.37,0,0,1-2.61.84,3.53,3.53,0,0,1-3.55-3.8A3.53,3.53,0,0,1,577.11,38.28Zm2.46,3.35A2.42,2.42,0,0,0,577.11,39a2.68,2.68,0,0,0-2.74,2.63Z"/><path class="cls-6" d="M583.15,44.78l.18-.29a.22.22,0,0,1,.33,0,3.16,3.16,0,0,0,1.92.7c1,0,1.73-.57,1.73-1.27s-.81-1.17-2-1.62-2.22-1-2.22-2.13a2.09,2.09,0,0,1,2.36-1.87,3.74,3.74,0,0,1,2,.58.25.25,0,0,1,.08.34l-.11.2a.25.25,0,0,1-.34.09,3.4,3.4,0,0,0-1.66-.51c-1.13,0-1.55.67-1.55,1.15,0,.72.65,1.07,1.71,1.44,1.35.51,2.54,1,2.54,2.27a2.33,2.33,0,0,1-2.56,2,3.61,3.61,0,0,1-2.35-.81A.19.19,0,0,1,583.15,44.78Z"/><path class="cls-6" d="M592.08,50.83a.23.23,0,0,1-.23.23h-.31a.23.23,0,0,1-.23-.23V38.69a.24.24,0,0,1,.25-.23h.2c.12,0,.2,0,.21.18l.06.5a3.62,3.62,0,0,1,2.36-.86,3.57,3.57,0,0,1,3.47,3.78,3.62,3.62,0,0,1-3.64,3.78,3.31,3.31,0,0,1-2.14-.74Zm2.06-5.75a2.89,2.89,0,0,0,2.93-3,2.81,2.81,0,0,0-2.74-3,2.86,2.86,0,0,0-2.23,1v4.21A2.84,2.84,0,0,0,594.14,45.08Z"/><path class="cls-6" d="M604.23,38.28A3.78,3.78,0,1,1,600.61,42,3.7,3.7,0,0,1,604.23,38.28Zm0,6.82A3,3,0,1,0,601.39,42,2.92,2.92,0,0,0,604.23,45.1Z"/><path class="cls-6" d="M611.13,38.69a.24.24,0,0,1,.25-.23h.18a.19.19,0,0,1,.21.18l.08.77a3.83,3.83,0,0,1,2.66-1.13c2,0,2.9,1.28,2.9,3.29v3.86a.24.24,0,0,1-.23.23h-.33a.23.23,0,0,1-.23-.23V41.57c0-1.65-.78-2.52-2.15-2.52a3.68,3.68,0,0,0-2.57,1.25v5.13a.21.21,0,0,1-.23.23h-.35a.21.21,0,0,1-.19-.23Z"/><path class="cls-6" d="M620.7,44.78l.18-.29a.22.22,0,0,1,.33,0,3.13,3.13,0,0,0,1.92.7c1,0,1.73-.57,1.73-1.27s-.81-1.17-2-1.62-2.21-1-2.21-2.13A2.09,2.09,0,0,1,623,38.28a3.74,3.74,0,0,1,2,.58.25.25,0,0,1,.08.34l-.11.2a.26.26,0,0,1-.35.09A3.35,3.35,0,0,0,623,39c-1.14,0-1.55.67-1.55,1.15,0,.72.65,1.07,1.71,1.44,1.35.51,2.54,1,2.54,2.27a2.33,2.33,0,0,1-2.56,2,3.67,3.67,0,0,1-2.36-.81A.2.2,0,0,1,620.7,44.78Z"/><path class="cls-6" d="M631.88,38.28a3.17,3.17,0,0,1,3.26,3.29c0,.29,0,.71-.27.71h-5.74a2.84,2.84,0,0,0,2.8,2.84,3.91,3.91,0,0,0,2.13-.66c.16-.11.23-.13.32,0l.18.25c.06.07,0,.18-.07.29a4.35,4.35,0,0,1-2.61.84,3.53,3.53,0,0,1-3.55-3.8A3.53,3.53,0,0,1,631.88,38.28Zm2.47,3.35A2.42,2.42,0,0,0,631.88,39a2.68,2.68,0,0,0-2.74,2.63Z"/><polygon class="cls-1" points="357.54 35.4 344.59 40.82 344.59 55.68 357.54 49.55 357.54 35.4"/><polygon class="cls-1" points="343.57 55.68 343.57 40.8 330.62 34.68 330.62 49.55 343.57 55.68"/><polygon class="cls-1" points="356.78 34.62 344.07 28.85 331.39 33.92 344.09 39.93 356.78 34.62"/><path class="cls-6" d="M380.15,112.72a.24.24,0,0,1,.24-.23h3.87a4.06,4.06,0,1,1,0,8.12H381v4.25c0,.13-.11.23-.29.23h-.32a.23.23,0,0,1-.24-.23Zm4.07,7.06a3.28,3.28,0,0,0,3.26-3.28,3.23,3.23,0,0,0-3.28-3.16H381v6.44Z"/><path class="cls-6" d="M391,118.13a.24.24,0,0,1,.24-.24h.21a.22.22,0,0,1,.22.2l.07.74a2.77,2.77,0,0,1,2.25-1.12,2.87,2.87,0,0,1,1.12.22.25.25,0,0,1,.2.32l-.15.36c-.05.13-.16.15-.29.09a2.37,2.37,0,0,0-.93-.21,2.5,2.5,0,0,0-2.14,1.24v5.13a.21.21,0,0,1-.24.23h-.36a.21.21,0,0,1-.2-.23Z"/><path class="cls-6" d="M397.72,113.77a.61.61,0,1,1,1.22,0,.61.61,0,0,1-1.22,0Zm.22,4.36a.23.23,0,0,1,.23-.24h.32a.24.24,0,0,1,.24.24v6.73a.21.21,0,0,1-.24.23h-.36c-.12,0-.19-.1-.19-.23Z"/><path class="cls-6" d="M401.48,118.16c-.07-.14-.05-.27.11-.27h.4a.24.24,0,0,1,.23.16l2.61,6h0l2.63-6a.24.24,0,0,1,.23-.16h.4c.16,0,.18.13.11.27l-3.14,7a.23.23,0,0,1-.21.16h-.08c-.1,0-.16,0-.21-.16Z"/><path class="cls-6" d="M410.75,113.77a.62.62,0,1,1,1.23,0,.62.62,0,0,1-1.23,0Zm.22,4.36a.24.24,0,0,1,.23-.24h.33a.24.24,0,0,1,.23.24v6.73a.21.21,0,0,1-.23.23h-.36a.2.2,0,0,1-.2-.23Z"/><path class="cls-6" d="M415.58,112.72a.23.23,0,0,1,.23-.23h.32a.24.24,0,0,1,.24.23v12.14a.21.21,0,0,1-.24.23h-.36c-.12,0-.19-.1-.19-.23Z"/><path class="cls-6" d="M423.21,117.71a3.17,3.17,0,0,1,3.26,3.3c0,.28,0,.7-.27.7h-5.75a2.84,2.84,0,0,0,2.81,2.84,3.86,3.86,0,0,0,2.13-.66c.16-.11.23-.13.32,0l.18.25c.05.07,0,.18-.07.29a4.37,4.37,0,0,1-2.61.84,3.79,3.79,0,0,1,0-7.56Zm2.47,3.35a2.43,2.43,0,0,0-2.47-2.63,2.68,2.68,0,0,0-2.74,2.63Z"/><path class="cls-6" d="M430.12,122.55a3.09,3.09,0,0,1-.56-1.8,3,3,0,0,1,3.15-3h3a.23.23,0,0,1,.23.24v.19a.21.21,0,0,1-.16.22l-1.3.09a2.45,2.45,0,0,1,1.12,2.3,2.91,2.91,0,0,1-3,3,2.68,2.68,0,0,1-2-.65,1.48,1.48,0,0,0-.92,1.3c0,.85.72,1,1.42,1h2.61c1.55,0,2.67.7,2.67,2.3s-1.48,2.94-3.68,2.94c-2.45,0-3.51-1.44-3.51-2.67a2.24,2.24,0,0,1,1.14-1.89,1.8,1.8,0,0,1-1.41-1.64A2.3,2.3,0,0,1,430.12,122.55Zm2.57,7.39c1.62,0,2.87-1,2.87-2.18,0-.83-.51-1.59-1.84-1.59h-2.27a2,2,0,0,0-1.46,1.75C430,128.91,431,129.94,432.69,129.94Zm2.11-9.2a2.14,2.14,0,0,0-2.21-2.31,2.21,2.21,0,0,0-2.29,2.31,2.15,2.15,0,0,0,2.29,2.3A2.18,2.18,0,0,0,434.8,120.74Z"/><path class="cls-6" d="M442.09,117.71a3.17,3.17,0,0,1,3.26,3.3c0,.28,0,.7-.27.7h-5.74a2.83,2.83,0,0,0,2.8,2.84,3.83,3.83,0,0,0,2.13-.66c.16-.11.23-.13.32,0l.18.25c.06.07,0,.18-.07.29a4.35,4.35,0,0,1-2.61.84,3.79,3.79,0,0,1,0-7.56Zm2.47,3.35a2.43,2.43,0,0,0-2.47-2.63,2.68,2.68,0,0,0-2.74,2.63Z"/><path class="cls-6" d="M455.63,112.44a.16.16,0,0,1,.16-.13h.2a.18.18,0,0,1,.18.13l3.7,11h0l3.73-11a.17.17,0,0,1,.18-.13h.2a.17.17,0,0,1,.16.13l2.55,12.42c0,.18,0,.23-.19.23h-.44a.23.23,0,0,1-.21-.19l-2-10.56h0l-3.64,10.79a.23.23,0,0,1-.25.14h-.07c-.09,0-.2,0-.24-.14L456,114.34h0l-2,10.56a.22.22,0,0,1-.21.19h-.43c-.17,0-.24,0-.2-.23Z"/><path class="cls-6" d="M472.46,120.45a6,6,0,0,1,1.81.32c0-1.58-.16-2.37-1.58-2.37a5.38,5.38,0,0,0-2.16.48c-.14.06-.23,0-.27-.14l-.09-.22a.19.19,0,0,1,.11-.27,5.26,5.26,0,0,1,2.46-.54c2.2,0,2.29,1.32,2.29,3.15v4a.23.23,0,0,1-.23.23h-.22c-.13,0-.18-.07-.22-.19l-.07-.65a3.77,3.77,0,0,1-2.5,1,2.26,2.26,0,0,1-2.36-2.39C469.43,121.49,470.57,120.45,472.46,120.45Zm-.58,4.12a3.26,3.26,0,0,0,2.39-1.11v-2a4.82,4.82,0,0,0-1.81-.37c-1.37,0-2.29.7-2.29,1.76A1.62,1.62,0,0,0,471.88,124.57Z"/><path class="cls-6" d="M478.77,118.13a.25.25,0,0,1,.25-.24h.19a.2.2,0,0,1,.21.18l.07.78a3.84,3.84,0,0,1,2.67-1.14c2,0,2.9,1.28,2.9,3.3v3.85a.23.23,0,0,1-.24.23h-.32a.23.23,0,0,1-.23-.23V121c0-1.66-.78-2.52-2.15-2.52a3.69,3.69,0,0,0-2.57,1.24v5.13a.21.21,0,0,1-.24.23H479a.21.21,0,0,1-.2-.23Z"/><path class="cls-6" d="M491.21,120.45a6,6,0,0,1,1.82.32c0-1.58-.16-2.37-1.59-2.37a5.49,5.49,0,0,0-2.16.48c-.14.06-.23,0-.27-.14l-.09-.22a.19.19,0,0,1,.11-.27,5.32,5.32,0,0,1,2.47-.54c2.2,0,2.29,1.32,2.29,3.15v4a.23.23,0,0,1-.24.23h-.21c-.13,0-.18-.07-.22-.19l-.07-.65a3.77,3.77,0,0,1-2.5,1,2.26,2.26,0,0,1-2.36-2.39C488.19,121.49,489.32,120.45,491.21,120.45Zm-.57,4.12a3.28,3.28,0,0,0,2.39-1.11v-2a4.84,4.84,0,0,0-1.82-.37c-1.37,0-2.29.7-2.29,1.76A1.62,1.62,0,0,0,490.64,124.57Z"/><path class="cls-6" d="M498,122.55a3.09,3.09,0,0,1-.56-1.8,3,3,0,0,1,3.15-3h2.95a.23.23,0,0,1,.24.24v.19a.22.22,0,0,1-.16.22l-1.3.09a2.45,2.45,0,0,1,1.12,2.3,2.91,2.91,0,0,1-3,3,2.68,2.68,0,0,1-2-.65,1.48,1.48,0,0,0-.92,1.3c0,.85.72,1,1.42,1h2.61c1.55,0,2.66.7,2.66,2.3s-1.47,2.94-3.67,2.94c-2.45,0-3.51-1.44-3.51-2.67a2.25,2.25,0,0,1,1.13-1.89,1.81,1.81,0,0,1-1.4-1.64A2.3,2.3,0,0,1,498,122.55Zm2.57,7.39c1.62,0,2.87-1,2.87-2.18,0-.83-.51-1.59-1.84-1.59h-2.27a2,2,0,0,0-1.46,1.75C497.85,128.91,498.81,129.94,500.55,129.94Zm2.11-9.2a2.14,2.14,0,0,0-2.21-2.31,2.21,2.21,0,0,0-2.29,2.31,2.15,2.15,0,0,0,2.29,2.3A2.18,2.18,0,0,0,502.66,120.74Z"/><path class="cls-6" d="M510,117.71a3.17,3.17,0,0,1,3.26,3.3c0,.28,0,.7-.27.7h-5.75a2.84,2.84,0,0,0,2.81,2.84,3.83,3.83,0,0,0,2.13-.66c.16-.11.23-.13.32,0l.18.25c.06.07,0,.18-.07.29a4.35,4.35,0,0,1-2.61.84,3.79,3.79,0,0,1,0-7.56Zm2.47,3.35a2.43,2.43,0,0,0-2.47-2.63,2.68,2.68,0,0,0-2.74,2.63Z"/><path class="cls-6" d="M516.41,118.13a.24.24,0,0,1,.23-.24h.22a.2.2,0,0,1,.2.18l.09.78a3.13,3.13,0,0,1,2.48-1.14A2.5,2.5,0,0,1,522,119a3.66,3.66,0,0,1,2.7-1.32c2,0,2.81,1.28,2.81,3.3v3.85a.23.23,0,0,1-.23.23h-.36a.21.21,0,0,1-.2-.23V121c0-1.66-.72-2.52-2.07-2.52a3.1,3.1,0,0,0-2.38,1.22,4.67,4.67,0,0,1,.16,1.3v3.85a.23.23,0,0,1-.23.23h-.34a.21.21,0,0,1-.22-.23V121c0-1.66-.74-2.52-2.09-2.52a2.88,2.88,0,0,0-2.34,1.24v5.13a.21.21,0,0,1-.23.23h-.36a.2.2,0,0,1-.2-.23Z"/><path class="cls-6" d="M534.25,117.71a3.17,3.17,0,0,1,3.26,3.3c0,.28,0,.7-.27.7h-5.75a2.84,2.84,0,0,0,2.81,2.84,3.83,3.83,0,0,0,2.13-.66c.16-.11.23-.13.32,0l.18.25c.06.07,0,.18-.07.29a4.35,4.35,0,0,1-2.61.84,3.79,3.79,0,0,1,0-7.56Zm2.47,3.35a2.43,2.43,0,0,0-2.47-2.63,2.68,2.68,0,0,0-2.74,2.63Z"/><path class="cls-6" d="M540.71,118.13a.25.25,0,0,1,.25-.24h.18a.2.2,0,0,1,.22.18l.07.78a3.79,3.79,0,0,1,2.66-1.14c2,0,2.9,1.28,2.9,3.3v3.85a.23.23,0,0,1-.23.23h-.33a.23.23,0,0,1-.23-.23V121c0-1.66-.77-2.52-2.14-2.52a3.72,3.72,0,0,0-2.58,1.24v5.13a.21.21,0,0,1-.23.23h-.34a.2.2,0,0,1-.2-.23Z"/><path class="cls-6" d="M551,118.59h-.85c-.18,0-.22-.09-.22-.23v-.29c0-.12.09-.18.22-.18H551v-2a.22.22,0,0,1,.23-.23l.31,0a.24.24,0,0,1,.23.23v2h2.5a.23.23,0,0,1,.24.24v.23a.22.22,0,0,1-.24.23h-2.5v4.6c0,.84.09,1.31.94,1.31a3.7,3.7,0,0,0,1.63-.49c.17-.09.24,0,.29.08l.13.21a.22.22,0,0,1,0,.31,3.69,3.69,0,0,1-2.09.66c-1.5,0-1.62-.88-1.62-2Z"/><polygon class="cls-5" points="357.54 114.84 344.59 120.25 344.59 135.11 357.54 128.99 357.54 114.84"/><polygon class="cls-5" points="343.57 135.11 343.57 120.24 330.62 114.11 330.62 128.99 343.57 135.11"/><polygon class="cls-5" points="356.78 114.06 344.07 108.28 331.39 113.35 344.09 119.36 356.78 114.06"/><path class="cls-6" d="M378.35,85.16l5.55-12.53a.24.24,0,0,1,.21-.13h.06a.22.22,0,0,1,.23.13l5.49,12.53c0,.11,0,.22-.16.22h-.47a.29.29,0,0,1-.25-.17l-1.46-3.31h-6.88l-1.44,3.31a.27.27,0,0,1-.25.17h-.5C378.35,85.38,378.3,85.3,378.35,85.16Zm8.9-4-3.08-7.26h0L381,81.2Z"/><path class="cls-6" d="M392.45,78.41a.24.24,0,0,1,.25-.24h.18a.2.2,0,0,1,.21.18l.08.78A3.83,3.83,0,0,1,395.83,78c2,0,2.9,1.27,2.9,3.29v3.85a.24.24,0,0,1-.23.24h-.33a.24.24,0,0,1-.23-.24V81.29c0-1.66-.78-2.52-2.14-2.52A3.7,3.7,0,0,0,393.22,80v5.13a.21.21,0,0,1-.23.24h-.35c-.12,0-.19-.11-.19-.24Z"/><path class="cls-6" d="M402.74,78.88h-.84c-.18,0-.22-.09-.22-.24v-.29c0-.12.09-.18.22-.18h.84v-2A.23.23,0,0,1,403,76l.3,0a.24.24,0,0,1,.24.23v2H406a.23.23,0,0,1,.23.24v.23a.22.22,0,0,1-.23.24h-2.5v4.59c0,.84.09,1.31.93,1.31a3.9,3.9,0,0,0,1.64-.48c.16-.09.24,0,.29.07l.13.21a.21.21,0,0,1-.06.31,3.55,3.55,0,0,1-2.09.67c-1.49,0-1.62-.89-1.62-2Z"/><path class="cls-6" d="M409.22,74.05a.62.62,0,1,1,1.23,0,.62.62,0,0,1-1.23,0Zm.22,4.36a.24.24,0,0,1,.23-.24H410a.24.24,0,0,1,.23.24v6.73a.21.21,0,0,1-.23.24h-.36c-.13,0-.2-.11-.2-.24Z"/><path class="cls-6" d="M413,78.45c-.07-.15-.05-.28.11-.28h.4a.23.23,0,0,1,.23.17l2.61,5.94h0L419,78.34a.23.23,0,0,1,.23-.17h.4c.16,0,.18.13.11.28l-3.14,6.94c-.05.11-.12.17-.21.17h-.07c-.11,0-.17,0-.22-.17Z"/><path class="cls-6" d="M422.25,74.05a.62.62,0,1,1,1.23,0,.62.62,0,0,1-1.23,0Zm.22,4.36a.24.24,0,0,1,.23-.24H423a.24.24,0,0,1,.23.24v6.73a.21.21,0,0,1-.23.24h-.36c-.13,0-.2-.11-.2-.24Z"/><path class="cls-6" d="M427.08,78.41a.24.24,0,0,1,.23-.24h.22a.21.21,0,0,1,.21.2l.08.74A2.77,2.77,0,0,1,430.07,78a3.08,3.08,0,0,1,1.11.21.25.25,0,0,1,.2.33l-.14.35a.2.2,0,0,1-.29.1,2.21,2.21,0,0,0-.94-.22A2.52,2.52,0,0,0,427.87,80v5.13a.21.21,0,0,1-.23.24h-.36c-.13,0-.2-.11-.2-.24Z"/><path class="cls-6" d="M433.88,78.41a.24.24,0,0,1,.23-.24h.33a.24.24,0,0,1,.23.24v3.87c0,1.67.78,2.52,2.15,2.52a3,3,0,0,0,2.37-1.26V78.41a.22.22,0,0,1,.24-.24h.32a.23.23,0,0,1,.23.24v6.73a.23.23,0,0,1-.23.24h-.22c-.14,0-.19-.11-.21-.22l-.07-.7a3.31,3.31,0,0,1-2.49,1.1c-2,0-2.88-1.25-2.88-3.28Z"/><path class="cls-6" d="M443.39,84.5l.18-.29a.2.2,0,0,1,.32,0,3.24,3.24,0,0,0,1.93.7c1,0,1.72-.58,1.72-1.28s-.81-1.17-2-1.62-2.22-1-2.22-2.12A2.09,2.09,0,0,1,445.67,78a3.85,3.85,0,0,1,2,.57.26.26,0,0,1,.07.34l-.11.2a.24.24,0,0,1-.34.09,3.38,3.38,0,0,0-1.66-.5c-1.13,0-1.55.66-1.55,1.15,0,.72.65,1.06,1.71,1.44,1.35.5,2.54.95,2.54,2.27a2.32,2.32,0,0,1-2.55,2,3.68,3.68,0,0,1-2.36-.81C443.39,84.69,443.33,84.58,443.39,84.5Z"/><path class="cls-6" d="M454.89,72.92a.23.23,0,0,1,.23-.15h.25c.17,0,.27.11.22.26l-4,12.18a.25.25,0,0,1-.23.17h-.27c-.15,0-.26-.09-.2-.26Z"/><path class="cls-6" d="M459,72.83a.25.25,0,0,1,.27-.24h.31l8.64,11.26h0V73a.24.24,0,0,1,.24-.24h.36a.24.24,0,0,1,.23.24V85.32c0,.17-.14.24-.29.24h-.23s-.16-.06-8.72-11.36h0V85.14a.23.23,0,0,1-.23.24h-.34a.24.24,0,0,1-.24-.24Z"/><path class="cls-6" d="M479.62,72.59A6.17,6.17,0,0,1,484,74.27a.22.22,0,0,1,0,.32c-.09.11-.2.22-.29.31s-.2.11-.31,0a5.52,5.52,0,0,0-3.8-1.51,5.67,5.67,0,0,0,0,11.34,6.8,6.8,0,0,0,3.75-1V80.35h-3.08c-.2,0-.24-.07-.24-.23v-.36c0-.14,0-.22.24-.22H484a.23.23,0,0,1,.23.22v4.18a.46.46,0,0,1-.25.46,8.24,8.24,0,0,1-4.32,1.16,6.49,6.49,0,1,1,0-13Z"/><path class="cls-6" d="M486.66,85.16l5.54-12.53a.27.27,0,0,1,.22-.13h.05a.24.24,0,0,1,.24.13l5.49,12.53c0,.11,0,.22-.16.22h-.47a.27.27,0,0,1-.25-.17l-1.46-3.31H489l-1.44,3.31a.29.29,0,0,1-.25.17h-.51C486.66,85.38,486.6,85.3,486.66,85.16Zm8.89-4-3.08-7.26h0L489.3,81.2Z"/><path class="cls-6" d="M498.86,73c-.07-.15,0-.24.14-.24h.49a.22.22,0,0,1,.2.13l4.86,11.18h0L509.5,72.9a.22.22,0,0,1,.2-.13h.47c.16,0,.23.11.16.26L504.8,85.39a.22.22,0,0,1-.21.17h-.09a.24.24,0,0,1-.2-.17Z"/><polygon class="cls-3" points="357.54 75.12 344.59 80.54 344.59 95.39 357.54 89.27 357.54 75.12"/><polygon class="cls-3" points="343.57 95.39 343.57 80.52 330.62 74.4 330.62 89.27 343.57 95.39"/><polygon class="cls-3" points="356.78 74.34 344.07 68.56 331.39 73.64 344.09 79.64 356.78 74.34"/><path class="cls-6" d="M385.73,191.74a6.49,6.49,0,1,1-6.48,6.5A6.47,6.47,0,0,1,385.73,191.74Zm0,12.18a5.69,5.69,0,1,0-5.69-5.68A5.68,5.68,0,0,0,385.73,203.92Z"/><path class="cls-6" d="M395.47,202.85l.16-.21c.13-.15.25-.2.4-.07a5.25,5.25,0,0,0,3.33,1.38c1.64,0,3-1.1,3-2.41,0-1.6-1.31-2.32-3.49-3.06s-3.47-1.48-3.47-3.55c0-1.35,1.08-3.19,3.89-3.19a5.88,5.88,0,0,1,3.09.92.26.26,0,0,1,.07.38,1.88,1.88,0,0,0-.14.24.27.27,0,0,1-.4.09,5.2,5.2,0,0,0-2.64-.85c-2.22,0-3.05,1.37-3.05,2.39,0,1.53,1.17,2.2,3,2.79,2.47.85,4,1.72,4,3.8,0,1.8-1.86,3.21-3.93,3.21a5.87,5.87,0,0,1-3.82-1.48A.24.24,0,0,1,395.47,202.85Z"/><path class="cls-6" d="M412.07,192.16a.23.23,0,0,1,.23-.24h3.87a4.06,4.06,0,1,1,0,8.12h-3.28v4.25a.26.26,0,0,1-.29.24h-.32a.23.23,0,0,1-.23-.24Zm4.07,7.06a3.28,3.28,0,0,0,3.25-3.28,3.23,3.23,0,0,0-3.27-3.17h-3.21v6.45Z"/><path class="cls-6" d="M425.24,199.88a5.65,5.65,0,0,1,1.82.33c0-1.59-.16-2.38-1.58-2.38a5.13,5.13,0,0,0-2.16.49.19.19,0,0,1-.27-.15L423,198c-.06-.17,0-.24.1-.27a5.23,5.23,0,0,1,2.47-.54c2.2,0,2.29,1.31,2.29,3.15v4a.24.24,0,0,1-.24.24h-.21c-.13,0-.18-.07-.22-.2l-.07-.65a3.78,3.78,0,0,1-2.5,1,2.27,2.27,0,0,1-2.36-2.4C422.22,200.93,423.35,199.88,425.24,199.88Zm-.57,4.13a3.28,3.28,0,0,0,2.39-1.12v-2a4.6,4.6,0,0,0-1.82-.38c-1.37,0-2.28.7-2.28,1.77A1.63,1.63,0,0,0,424.67,204Z"/><path class="cls-6" d="M431.87,198H431c-.18,0-.22-.09-.22-.24v-.28c0-.13.09-.18.22-.18h.85v-2a.22.22,0,0,1,.23-.23l.31,0a.24.24,0,0,1,.23.24v2h2.5a.22.22,0,0,1,.24.23v.23a.22.22,0,0,1-.24.24h-2.5v4.59c0,.85.09,1.31.94,1.31a3.85,3.85,0,0,0,1.63-.48c.17-.09.24,0,.29.07l.13.22a.2.2,0,0,1-.06.3,3.54,3.54,0,0,1-2.08.67c-1.5,0-1.62-.88-1.62-2Z"/><path class="cls-6" d="M441.8,197.15a3.51,3.51,0,0,1,2.67,1.13.21.21,0,0,1,0,.32l-.18.18a.25.25,0,0,1-.38,0,3,3,0,1,0-2.09,5.2,2.88,2.88,0,0,0,2.25-1.06c.13-.14.24-.14.35,0l.19.18a.2.2,0,0,1,.06.29,3.59,3.59,0,0,1-2.83,1.39,3.78,3.78,0,0,1,0-7.56Z"/><path class="cls-6" d="M447.9,192.16a.25.25,0,0,1,.25-.24h.29a.24.24,0,0,1,.24.24v6.14a3.76,3.76,0,0,1,2.61-1.15c1.87,0,2.9,1.15,2.9,3.29v3.85a.24.24,0,0,1-.24.24h-.32a.24.24,0,0,1-.24-.24v-3.85c0-1.66-.77-2.52-2.14-2.52a3.63,3.63,0,0,0-2.57,1.26v5.11a.22.22,0,0,1-.24.24h-.34c-.13,0-.2-.11-.2-.24Z"/><path class="cls-6" d="M457.68,193.2a.61.61,0,1,1,1.22,0,.61.61,0,0,1-1.22,0Zm.21,4.36a.23.23,0,0,1,.24-.23h.32a.23.23,0,0,1,.24.23v6.73a.22.22,0,0,1-.24.24h-.36a.22.22,0,0,1-.2-.24Z"/><path class="cls-6" d="M462.5,197.56a.24.24,0,0,1,.25-.23h.18a.2.2,0,0,1,.22.18l.07.77a3.89,3.89,0,0,1,2.67-1.13c2,0,2.9,1.27,2.9,3.29v3.85a.24.24,0,0,1-.24.24h-.32a.24.24,0,0,1-.24-.24v-3.85c0-1.66-.77-2.52-2.14-2.52a3.66,3.66,0,0,0-2.57,1.24v5.13a.22.22,0,0,1-.24.24h-.34c-.13,0-.2-.11-.2-.24Z"/><path class="cls-6" d="M472.94,202a3.12,3.12,0,0,1-.56-1.8,3,3,0,0,1,3.15-3h3a.22.22,0,0,1,.23.23v.2a.2.2,0,0,1-.16.21l-1.3.09a2.46,2.46,0,0,1,1.12,2.31,2.9,2.9,0,0,1-3,3,2.73,2.73,0,0,1-2-.65,1.47,1.47,0,0,0-.92,1.3c0,.84.72,1,1.42,1h2.61c1.55,0,2.67.7,2.67,2.3s-1.48,2.94-3.68,2.94c-2.44,0-3.51-1.44-3.51-2.66a2.26,2.26,0,0,1,1.14-1.9,1.79,1.79,0,0,1-1.41-1.63A2.28,2.28,0,0,1,472.94,202Zm2.58,7.38c1.62,0,2.86-1,2.86-2.18,0-.82-.51-1.58-1.84-1.58h-2.27a2,2,0,0,0-1.46,1.75C472.81,208.35,473.77,209.37,475.52,209.37Zm2.1-9.2a2.13,2.13,0,0,0-2.21-2.3,2.21,2.21,0,0,0-2.29,2.3,2.25,2.25,0,1,0,4.5,0Z"/><polygon class="cls-2" points="357.54 194.27 344.59 199.69 344.59 214.54 357.54 208.42 357.54 194.27"/><polygon class="cls-2" points="343.57 214.54 343.57 199.67 330.62 193.55 330.62 208.42 343.57 214.54"/><polygon class="cls-2" points="356.78 193.49 344.07 187.71 331.39 192.79 344.09 198.79 356.78 193.49"/><path class="cls-6" d="M378.35,164.6l5.55-12.54a.23.23,0,0,1,.21-.12h.06a.23.23,0,0,1,.23.12l5.49,12.54c0,.1,0,.21-.16.21h-.47a.31.31,0,0,1-.25-.16l-1.46-3.31h-6.88l-1.44,3.31a.28.28,0,0,1-.25.16h-.5C378.35,164.81,378.3,164.74,378.35,164.6Zm8.9-4-3.08-7.25h0L381,160.63Z"/><path class="cls-6" d="M393.22,170a.23.23,0,0,1-.23.23h-.31a.23.23,0,0,1-.23-.23V157.84a.24.24,0,0,1,.25-.23h.2a.19.19,0,0,1,.21.18l.06.5a3.61,3.61,0,0,1,2.35-.86,3.58,3.58,0,0,1,3.48,3.78,3.62,3.62,0,0,1-3.64,3.78,3.28,3.28,0,0,1-2.14-.74Zm2-5.74a2.9,2.9,0,0,0,2.94-3.05,2.81,2.81,0,0,0-2.74-3,2.86,2.86,0,0,0-2.23,1v4.21A2.8,2.8,0,0,0,395.27,164.24Z"/><path class="cls-6" d="M403.07,170a.23.23,0,0,1-.24.23h-.3a.23.23,0,0,1-.24-.23V157.84a.24.24,0,0,1,.25-.23h.2a.19.19,0,0,1,.22.18l.05.5a3.68,3.68,0,0,1,2.36-.86,3.58,3.58,0,0,1,3.48,3.78,3.62,3.62,0,0,1-3.64,3.78,3.25,3.25,0,0,1-2.14-.74Zm2.05-5.74a2.9,2.9,0,0,0,2.93-3.05,2.8,2.8,0,0,0-2.73-3,2.89,2.89,0,0,0-2.24,1v4.21A2.83,2.83,0,0,0,405.12,164.24Z"/><path class="cls-6" d="M412.14,152.44a.24.24,0,0,1,.23-.23h.33a.24.24,0,0,1,.23.23v12.14a.21.21,0,0,1-.23.23h-.36a.21.21,0,0,1-.2-.23Z"/><path class="cls-6" d="M416.53,153.49a.61.61,0,1,1,1.22,0,.61.61,0,0,1-1.22,0Zm.22,4.35a.23.23,0,0,1,.23-.23h.32a.24.24,0,0,1,.24.23v6.74a.21.21,0,0,1-.24.23h-.36a.21.21,0,0,1-.19-.23Z"/><path class="cls-6" d="M424.6,157.43a3.48,3.48,0,0,1,2.66,1.13.22.22,0,0,1,0,.33l-.18.18a.24.24,0,0,1-.37,0,3,3,0,1,0-2.09,5.21,2.9,2.9,0,0,0,2.25-1.07c.12-.14.23-.14.34,0l.2.18a.21.21,0,0,1,.05.29A3.58,3.58,0,0,1,424.6,165a3.78,3.78,0,1,1,0-7.56Z"/><path class="cls-6" d="M433.14,160.17a6,6,0,0,1,1.82.32c0-1.58-.16-2.38-1.58-2.38a5.31,5.31,0,0,0-2.16.49.19.19,0,0,1-.27-.14l-.09-.22A.19.19,0,0,1,431,158a5.12,5.12,0,0,1,2.46-.54c2.2,0,2.29,1.31,2.29,3.15v4a.24.24,0,0,1-.23.23h-.22c-.13,0-.18-.07-.22-.2L435,164a3.73,3.73,0,0,1-2.5,1,2.27,2.27,0,0,1-2.36-2.39C430.12,161.21,431.25,160.17,433.14,160.17Zm-.57,4.12a3.26,3.26,0,0,0,2.39-1.12v-2a4.6,4.6,0,0,0-1.82-.38c-1.36,0-2.28.71-2.28,1.77A1.63,1.63,0,0,0,432.57,164.29Z"/><path class="cls-6" d="M439.77,158.31h-.85c-.18,0-.21-.09-.21-.23v-.29c0-.13.09-.18.21-.18h.85v-2a.23.23,0,0,1,.23-.24l.31,0a.24.24,0,0,1,.23.24v2H443a.23.23,0,0,1,.24.23v.24a.22.22,0,0,1-.24.23h-2.5v4.59c0,.85.09,1.32.94,1.32a3.79,3.79,0,0,0,1.64-.49c.16-.09.23,0,.28.07l.13.22a.22.22,0,0,1,0,.31,3.66,3.66,0,0,1-2.09.66c-1.5,0-1.62-.88-1.62-2Z"/><path class="cls-6" d="M446.25,153.49a.61.61,0,1,1,1.22,0,.61.61,0,0,1-1.22,0Zm.21,4.35a.24.24,0,0,1,.24-.23H447a.24.24,0,0,1,.24.23v6.74a.21.21,0,0,1-.24.23h-.36a.21.21,0,0,1-.2-.23Z"/><path class="cls-6" d="M454.15,157.43a3.78,3.78,0,1,1-3.62,3.76A3.7,3.7,0,0,1,454.15,157.43Zm0,6.82a3,3,0,1,0-2.84-3.06A2.92,2.92,0,0,0,454.15,164.25Z"/><path class="cls-6" d="M461,157.84a.25.25,0,0,1,.26-.23h.18a.2.2,0,0,1,.21.18l.07.77a3.89,3.89,0,0,1,2.67-1.13c2,0,2.9,1.28,2.9,3.29v3.86a.24.24,0,0,1-.24.23h-.32a.23.23,0,0,1-.23-.23v-3.86c0-1.65-.78-2.52-2.15-2.52a3.68,3.68,0,0,0-2.57,1.25v5.13a.21.21,0,0,1-.24.23h-.34a.21.21,0,0,1-.2-.23Z"/><path class="cls-6" d="M476.56,152.44a.24.24,0,0,1,.23-.23h3.87a4.06,4.06,0,1,1,0,8.12h-3.27v4.25c0,.12-.11.23-.29.23h-.33a.24.24,0,0,1-.23-.23Zm4.07,7.06a3.29,3.29,0,0,0,3.26-3.28,3.24,3.24,0,0,0-3.28-3.17h-3.2v6.45Z"/><path class="cls-6" d="M489.74,160.17a6,6,0,0,1,1.81.32c0-1.58-.16-2.38-1.58-2.38a5.31,5.31,0,0,0-2.16.49.19.19,0,0,1-.27-.14l-.09-.22a.19.19,0,0,1,.11-.27,5.12,5.12,0,0,1,2.46-.54c2.2,0,2.29,1.31,2.29,3.15v4a.24.24,0,0,1-.23.23h-.22c-.13,0-.18-.07-.22-.2l-.07-.65a3.73,3.73,0,0,1-2.5,1,2.27,2.27,0,0,1-2.36-2.39C486.71,161.21,487.85,160.17,489.74,160.17Zm-.58,4.12a3.26,3.26,0,0,0,2.39-1.12v-2a4.58,4.58,0,0,0-1.81-.38c-1.37,0-2.29.71-2.29,1.77A1.63,1.63,0,0,0,489.16,164.29Z"/><path class="cls-6" d="M496.36,158.31h-.85c-.18,0-.21-.09-.21-.23v-.29c0-.13.09-.18.21-.18h.85v-2a.23.23,0,0,1,.23-.24l.31,0a.24.24,0,0,1,.23.24v2h2.51a.23.23,0,0,1,.23.23v.24a.22.22,0,0,1-.23.23h-2.51v4.59c0,.85.09,1.32.94,1.32a3.79,3.79,0,0,0,1.64-.49.19.19,0,0,1,.29.07l.12.22a.21.21,0,0,1-.05.31A3.63,3.63,0,0,1,498,165c-1.5,0-1.62-.88-1.62-2Z"/><path class="cls-6" d="M506.3,157.43a3.48,3.48,0,0,1,2.66,1.13.22.22,0,0,1,0,.33l-.18.18a.24.24,0,0,1-.37,0,3,3,0,1,0-2.09,5.21,2.9,2.9,0,0,0,2.25-1.07c.12-.14.23-.14.34,0l.2.18a.21.21,0,0,1,.05.29A3.58,3.58,0,0,1,506.3,165a3.78,3.78,0,1,1,0-7.56Z"/><path class="cls-6" d="M512.4,152.44a.24.24,0,0,1,.25-.23h.29a.24.24,0,0,1,.23.23v6.14a3.83,3.83,0,0,1,2.61-1.15c1.87,0,2.9,1.15,2.9,3.29v3.86a.24.24,0,0,1-.23.23h-.33a.24.24,0,0,1-.23-.23v-3.86c0-1.65-.78-2.52-2.14-2.52a3.63,3.63,0,0,0-2.58,1.26v5.12a.21.21,0,0,1-.23.23h-.34a.21.21,0,0,1-.2-.23Z"/><path class="cls-6" d="M522.17,153.49a.61.61,0,1,1,1.22,0,.61.61,0,0,1-1.22,0Zm.22,4.35a.23.23,0,0,1,.23-.23h.32a.24.24,0,0,1,.24.23v6.74a.21.21,0,0,1-.24.23h-.36a.21.21,0,0,1-.19-.23Z"/><path class="cls-6" d="M527,157.84a.25.25,0,0,1,.26-.23h.18a.19.19,0,0,1,.21.18l.08.77a3.83,3.83,0,0,1,2.66-1.13c2,0,2.9,1.28,2.9,3.29v3.86a.24.24,0,0,1-.24.23h-.32a.23.23,0,0,1-.23-.23v-3.86c0-1.65-.78-2.52-2.15-2.52a3.68,3.68,0,0,0-2.57,1.25v5.13a.21.21,0,0,1-.24.23h-.34a.21.21,0,0,1-.2-.23Z"/><path class="cls-6" d="M537.43,162.27a3.18,3.18,0,0,1-.55-1.8,2.94,2.94,0,0,1,3.15-3h3a.23.23,0,0,1,.24.23v.2a.22.22,0,0,1-.17.22l-1.29.09a2.45,2.45,0,0,1,1.11,2.3,2.9,2.9,0,0,1-3,3,2.7,2.7,0,0,1-2-.65,1.5,1.5,0,0,0-.92,1.3c0,.85.72,1,1.43,1H541c1.54,0,2.66.71,2.66,2.31s-1.48,2.93-3.67,2.93c-2.45,0-3.51-1.44-3.51-2.66a2.23,2.23,0,0,1,1.13-1.89,1.8,1.8,0,0,1-1.4-1.64A2.3,2.3,0,0,1,537.43,162.27Zm2.58,7.39c1.62,0,2.86-1,2.86-2.18,0-.83-.5-1.59-1.83-1.59h-2.27a2,2,0,0,0-1.46,1.75C537.31,168.63,538.26,169.66,540,169.66Zm2.11-9.21a2.14,2.14,0,0,0-2.22-2.3,2.21,2.21,0,0,0-2.28,2.3,2.16,2.16,0,0,0,2.28,2.31A2.19,2.19,0,0,0,542.12,160.45Z"/><polygon class="cls-4" points="357.54 154.56 344.59 159.97 344.59 174.83 357.54 168.71 357.54 154.56"/><polygon class="cls-4" points="343.57 174.83 343.57 159.95 330.62 153.83 330.62 168.71 343.57 174.83"/><polygon class="cls-4" points="356.78 153.77 344.07 148 331.39 153.07 344.09 159.08 356.78 153.77"/></g></g></svg>