<svg xmlns="http://www.w3.org/2000/svg" viewBox="0 0 72.43 73"><defs><style>.cls-1{fill:#616161;}</style></defs><title>Extensive_Partner</title><g id="Layer_2" data-name="Layer 2"><g id="Layer_1-2" data-name="Layer 1"><path class="cls-1" d="M15.28,47a.56.56,0,0,0,.57.56,9.07,9.07,0,0,1,9,9.06.57.57,0,1,0,1.13,0A10.2,10.2,0,0,0,15.85,46.4.57.57,0,0,0,15.28,47Z"/><path class="cls-1" d="M57.16,25.47a.57.57,0,0,0-.57-.57,9.07,9.07,0,0,1-9.06-9.06.56.56,0,0,0-.56-.56.57.57,0,0,0-.57.56A10.2,10.2,0,0,0,56.59,26,.57.57,0,0,0,57.16,25.47Z"/><path class="cls-1" d="M38.12,27.91l6.28-6.28a1.7,1.7,0,0,0,.41-1.75,12.63,12.63,0,0,1-.67-4A12.46,12.46,0,0,1,56.59,3.4a13.05,13.05,0,0,1,2.58.26L52.82,10a4,4,0,0,0,0,5.6l4,4a4,4,0,0,0,5.61,0l6.34-6.34A12.25,12.25,0,0,1,69,15.84,12.46,12.46,0,0,1,56.59,28.29a12.3,12.3,0,0,1-4-.67,1.69,1.69,0,0,0-1.75.41l-6.29,6.29.71.7,2.58.81,4.68-4.68A15.85,15.85,0,0,0,71.07,9.42a1.7,1.7,0,0,0-1.24-1,1.72,1.72,0,0,0-1.51.47L60,17.21a.54.54,0,0,1-.4.17.57.57,0,0,1-.4-.17l-4-4a.57.57,0,0,1,0-.8l8.3-8.3A1.69,1.69,0,0,0,63,1.36,15.85,15.85,0,0,0,40.74,15.84,16.27,16.27,0,0,0,41.28,20l-5.56,5.56Z"/><path class="cls-1" d="M34.45,45.79l-.7-.7L28,50.81a1.69,1.69,0,0,0-.41,1.75,12.3,12.3,0,0,1,.67,4A12.46,12.46,0,0,1,15.85,69a12.28,12.28,0,0,1-2.58-.27l6.34-6.34a4,4,0,0,0,0-5.61l-4-4a4,4,0,0,0-5.6,0L3.66,59.17a13.05,13.05,0,0,1-.26-2.58A12.46,12.46,0,0,1,15.85,44.14a12.62,12.62,0,0,1,4,.67,1.7,1.7,0,0,0,1.75-.41l5.72-5.72L25,36.28l-5,5a16.25,16.25,0,0,0-4.1-.54A15.85,15.85,0,0,0,1.36,63a1.69,1.69,0,0,0,2.75.51l8.3-8.3a.58.58,0,0,1,.8,0l4,4a.57.57,0,0,1,.17.4.54.54,0,0,1-.17.4l-8.3,8.3a1.72,1.72,0,0,0-.47,1.51,1.7,1.7,0,0,0,1,1.24,15.66,15.66,0,0,0,6.43,1.36,15.84,15.84,0,0,0,15.3-19.94l4.11-4.11Z"/><path class="cls-1" d="M53,40a1.57,1.57,0,0,0-.7-.42l-8.74-2.73a1.58,1.58,0,0,0-.53-.07l-15-15a1.5,1.5,0,0,0,0-.3l-1.36-11a1.66,1.66,0,0,0-.86-1.27L10.53.78a1.7,1.7,0,0,0-2,.28l-8,8a1.7,1.7,0,0,0-.29,2L8.7,26.38a1.73,1.73,0,0,0,1.28.86L21,28.6h.29l15,15a2,2,0,0,0,.07.53L39,52.83a1.8,1.8,0,0,0,.42.7L56.12,70.2a9.55,9.55,0,0,0,13.51,0,9.57,9.57,0,0,0,0-13.52ZM67.23,59.08a6.17,6.17,0,0,1,1.63,5.8L49.15,44.62,51,42.81Zm0,8.72A6.29,6.29,0,0,1,65.56,69a2.63,2.63,0,0,1-.37-.29L45.41,48.36l2.94-2.94L68.13,65.75a2.48,2.48,0,0,1,.29.37A5.86,5.86,0,0,1,67.23,67.8ZM23.55,13l1,8.14-4,4-8.14-1ZM3.8,10.57,10,4.37l13.22,7.34L11.15,23.79ZM37.48,41.62,23.18,27.31l3.56-3.57L41.05,38.05Zm6-1.21,6.3,2-8,8-2-6.3Zm15,27.39L42.24,51.52l2.37-2.36L64.32,69.43a6.3,6.3,0,0,1-1.44.17A6.13,6.13,0,0,1,58.52,67.8Z"/></g></g></svg>