<svg xmlns="http://www.w3.org/2000/svg" viewBox="0 0 55 54.14"><defs><style>.cls-1{fill:#58595b;}</style></defs><title>Fortune 500</title><g id="Layer_2" data-name="Layer 2"><g id="Layer_1-2" data-name="Layer 1"><path class="cls-1" d="M54.14,24.06A.85.85,0,0,0,55,23.2V18.91a.85.85,0,0,0-.86-.86H38.67a.86.86,0,0,0-.86.86v3.43H36.09a.87.87,0,0,0-.86.86v4.3a.87.87,0,0,0,.86.86h1.72v2.58a.86.86,0,0,0-.86.86v4.29a.86.86,0,0,0,.86.86v2.58H37V36.09a.86.86,0,0,0-.86-.86h-.86V31.8a.85.85,0,0,0-.86-.86H18.91a.85.85,0,0,0-.86.86v4.29a.85.85,0,0,0,.86.86h.86v2.58a.86.86,0,0,0-.86.86v4.3a.86.86,0,0,0-.86-.86h-.86V40.39a.87.87,0,0,0-.86-.86H.86a.86.86,0,0,0-.86.86v4.3a.86.86,0,0,0,.86.86h.86v2.57H.86A.86.86,0,0,0,0,49v4.3a.85.85,0,0,0,.86.86H16.33a.86.86,0,0,0,.86-.86V49.84h.86a.86.86,0,0,0,.86-.86v4.3a.85.85,0,0,0,.86.86H35.23a.85.85,0,0,0,.86-.86V44.69a.87.87,0,0,0,.86.86h.86v7.73a.86.86,0,0,0,.86.86H54.14a.85.85,0,0,0,.86-.86V44.69a.85.85,0,0,0-.86-.86h-.86V41.25h.86a.85.85,0,0,0,.86-.86v-4.3a.86.86,0,0,0-.86-.86V32.66A.86.86,0,0,0,55,31.8V27.5a.86.86,0,0,0-.86-.86H52.42V24.06ZM15.47,43.83H6.87V41.25h8.6Zm-9,4.29V45.55H7.73v2.57ZM3,49.84h.86v2.58H3Zm0-8.59h.86v2.58H3Zm1.72,2.58V41.25H6v2.58Zm.86,1.72v2.57H4.73V45.55Zm-.86,4.29H6v2.58H4.73Zm-3-8.59h.43v2.58H1.72Zm1.72,4.3h.43v2.57H3.44ZM1.72,49.84h.43v2.58H1.72Zm13.75,2.58H6.87V49.84h8.6Zm1.72-4.3H8.59V45.55h8.6Zm3.43-2.57h.43v2.57h-.43Zm0-4.3h.43v2.58h-.43Zm.43-8.59h.86v2.57h-.86ZM35.23,37v2.58H26.64V37h8.59ZM23.63,48.12V45.55h1.29v2.57Zm-.86-6.87v2.58h-.86V41.25Zm0,4.3v2.57h-.86V45.55Zm.86-1.72V41.25h1.29v2.58Zm2.15-4.3H24.49V37h1.29Zm-3-4.3V32.66h1.29v2.57ZM23.63,37v2.58h-.86V37Zm-.86,12.89v2.58h-.86V49.84Zm.86,0h1.29v2.58H23.63Zm2.15-4.29h8.59v2.57H25.78Zm8.59-1.72H25.78V41.25h8.59Zm-.85-8.6h-8.6V32.66h8.6ZM19.77,32.66h.43v2.57h-.43ZM21.48,37h.43v2.58h-.43Zm-.86,12.89h.43v2.58h-.43Zm13.75,2.58H25.78V49.84h8.59ZM53.28,22.34H44.69V19.77h8.59ZM42.54,39.53V37h1.29v2.58Zm10.74,6v2.57H44.69V45.55h8.59ZM39.1,41.25H40v2.58H39.1Zm-.43-8.59h.43v2.57h-.43Zm-.43-6V24.06h.86v2.58h-.86Zm2.58-4.3V19.77h.86v2.57Zm.86,6v2.58h-.86V28.36ZM40,35.23V32.66h.86v2.57ZM41.68,37v2.58h-.86V37Zm0,8.6v2.57h-.86V45.55Zm0,4.29v2.58h-.86V49.84Zm.86,0h1.29v2.58H42.54Zm1.29-1.72H42.54V45.55h1.29Zm-3-4.29V41.25h1.29v2.58Zm.86-8.6V32.66H43v2.57Zm.86-4.29V28.36h1.29v2.58ZM40,26.64V24.06h1.29v2.58Zm2.58-6.87h1.29v2.57H42.54Zm-3,0H40v2.57h-.43ZM37,24.06h.43v2.58H37Zm2.58,4.3H40v2.58h-.43Zm0,8.59H40v2.58h-.43Zm-1.72,4.3h.43v2.58h-.43ZM40,45.55v2.57h-.43V45.55Zm-.43,4.29H40v2.58h-.43Zm13.75,2.58H44.69V49.84h8.59Zm-1.72-8.59H43V41.25h8.59Zm1.72-4.3H44.69V37h8.59Zm-.86-4.3H43.83V32.66h8.59Zm.86-4.29H44.69V28.36h8.59Zm-2.58-4.3H42.11V24.06H50.7Z"/><path class="cls-1" d="M7.2,31.61A1.29,1.29,0,0,0,8,34a1.31,1.31,0,0,0,.75-.24L45.6,7.5l3,4.19L53.93,0,41.13,1.21l3,4.18Z"/><path class="cls-1" d="M6.2,16.93a3.73,3.73,0,0,1-.81-1.67l-3.5.34a6.15,6.15,0,0,0,1.85,3.69,6.54,6.54,0,0,0,3.77,1.56V23h2V20.78A6.69,6.69,0,0,0,13.55,19,5.07,5.07,0,0,0,15,15.26a4.53,4.53,0,0,0-1.17-3.21,9,9,0,0,0-4.39-2V5.29a2.51,2.51,0,0,1,1.61,1.94l3.4-.4a4.9,4.9,0,0,0-1.61-2.9,6.09,6.09,0,0,0-3.4-1.31V1.43h-2V2.62a5.94,5.94,0,0,0-3.7,1.55A4.48,4.48,0,0,0,2.42,7.5a4.8,4.8,0,0,0,1.23,3.33,7.56,7.56,0,0,0,3.86,2.05v5.06A3.44,3.44,0,0,1,6.2,16.93ZM9.46,13.4a3.46,3.46,0,0,1,1.74.9,2,2,0,0,1,.53,1.4,2.21,2.21,0,0,1-.63,1.57,2.79,2.79,0,0,1-1.64.84ZM6.21,8.55a1.87,1.87,0,0,1-.43-1.19,2,2,0,0,1,.47-1.28,2.47,2.47,0,0,1,1.26-.82V9.44A3,3,0,0,1,6.21,8.55Z"/></g></g></svg>
