<svg xmlns="http://www.w3.org/2000/svg" viewBox="0 0 55 55"><defs><style>.cls-1{fill:#58595b;}</style></defs><title>Global 2000</title><g id="Layer_2" data-name="Layer 2"><g id="Layer_1-2" data-name="Layer 1"><path class="cls-1" d="M15.47,29.22a.43.43,0,0,0-.43-.43A11.18,11.18,0,0,0,3.87,40a.43.43,0,0,0,.43.43A.43.43,0,0,0,4.73,40,10.32,10.32,0,0,1,15,29.65.43.43,0,0,0,15.47,29.22Z"/><path class="cls-1" d="M15,50.27a.43.43,0,0,0-.43.43.43.43,0,0,0,.43.43A11.18,11.18,0,0,0,26.21,40a.43.43,0,0,0-.86,0A10.32,10.32,0,0,1,15,50.27Z"/><path class="cls-1" d="M45.12,25.78a9.9,9.9,0,0,0-9.89,9.88c0,.33,0,.66.05,1l-5.42.78A15,15,0,0,0,26,29.64L38.44,17.16a9.91,9.91,0,1,0-.6-.6L25.36,29a15,15,0,0,0-7.77-3.9l.77-5.42c.32,0,.65.05,1,.05a9.94,9.94,0,1,0-1.83-.18L16.74,25a16,16,0,0,0-1.7-.1,15,15,0,1,0,15,15,16,16,0,0,0-.1-1.7l5.43-.77a9.88,9.88,0,1,0,9.71-11.71ZM11.17,9.88a8.17,8.17,0,1,1,8.17,8.17A8.17,8.17,0,0,1,11.17,9.88ZM45.12,1.72A8.17,8.17,0,1,1,37,9.88,8.17,8.17,0,0,1,45.12,1.72ZM15,52.42A12.46,12.46,0,1,1,27.5,40,12.47,12.47,0,0,1,15,52.42Zm30.08-8.59a8.17,8.17,0,1,1,8.16-8.17A8.18,8.18,0,0,1,45.12,43.83Z"/><path class="cls-1" d="M21.16,14.45a4.22,4.22,0,0,0,1-.12A4.77,4.77,0,0,0,23,14l-.73-1.44a3.81,3.81,0,0,1-1.37.34,5.71,5.71,0,0,1-1.1-.19,4.71,4.71,0,0,0-.55-.11,2.81,2.81,0,0,0-.43,0,2.22,2.22,0,0,0-.92.17,5,5,0,0,0,.82-1.06,1.89,1.89,0,0,0,.2-.88,1.23,1.23,0,0,0,0-.27H20.7V9.22H18.6a4.87,4.87,0,0,1-.23-.76,2.85,2.85,0,0,1-.1-.67A1.07,1.07,0,0,1,18.62,7a1.41,1.41,0,0,1,1.74,0,1.63,1.63,0,0,1,.46.93l1.82-.24a2.6,2.6,0,0,0-1-1.73,3.39,3.39,0,0,0-2.11-.6,4.19,4.19,0,0,0-1.6.31,2.56,2.56,0,0,0-1.13.91,2.29,2.29,0,0,0-.4,1.26,3.8,3.8,0,0,0,.28,1.44H15.66v1.34h1.4a2.14,2.14,0,0,1,0,.34A2,2,0,0,1,16.75,12a3.32,3.32,0,0,1-1.09,1l.72,1.46a3.19,3.19,0,0,1,1.67-.52,6.63,6.63,0,0,1,1.49.25A6.56,6.56,0,0,0,21.16,14.45Z"/><path class="cls-1" d="M40.54,11.21h1a3.93,3.93,0,0,0,1.13,2,4.46,4.46,0,0,0,3.22,1.21,5,5,0,0,0,2-.39V12.22a2.88,2.88,0,0,1-2.06.71,2.26,2.26,0,0,1-1.74-.71,2.15,2.15,0,0,1-.52-1h3.06l.22-.94H43.47c0-.15,0-.3,0-.44V9.47h3.61l.22-.93H43.6a2.2,2.2,0,0,1,.54-1,2.34,2.34,0,0,1,1.77-.71,2.44,2.44,0,0,1,1.67.51L48,5.67a4.86,4.86,0,0,0-2-.37,4.6,4.6,0,0,0-3.33,1.22,3.92,3.92,0,0,0-1.12,2h-.8l-.22.93h.88c0,.14,0,.31,0,.49v.31h-.65Z"/><path class="cls-1" d="M46.84,31.66l-1.37,2.58a5.49,5.49,0,0,0-.37.85,4.37,4.37,0,0,0-.36-.85L43.4,31.66H41.33l2.09,3.82H41.67v1.33h2.49v.73H41.67v1.33h2.49v1.65H46V38.87h2.53V37.54H46v-.73h2.53V35.48H46.79l2.11-3.82Z"/><path class="cls-1" d="M15.58,48.34V46.65a5.08,5.08,0,0,0,3.07-1.38,3.82,3.82,0,0,0,1.1-2.77,3.34,3.34,0,0,0-.88-2.4,6.66,6.66,0,0,0-3.29-1.53V35a1.88,1.88,0,0,1,1.21,1.45l2.55-.3A3.69,3.69,0,0,0,18.13,34a4.54,4.54,0,0,0-2.55-1v-.89H14.12V33a4.38,4.38,0,0,0-2.78,1.17,3.34,3.34,0,0,0-1,2.49,3.62,3.62,0,0,0,.92,2.5,5.7,5.7,0,0,0,2.9,1.54v3.8a2.84,2.84,0,0,1-1-.77,2.92,2.92,0,0,1-.6-1.25l-2.63.26a4.56,4.56,0,0,0,1.39,2.76,4.93,4.93,0,0,0,2.83,1.17v1.65Zm0-7.23a2.56,2.56,0,0,1,1.3.67,1.5,1.5,0,0,1,.4,1A1.68,1.68,0,0,1,16.81,44a2.09,2.09,0,0,1-1.23.63Zm-2.44-3.64a1.45,1.45,0,0,1-.32-.89,1.52,1.52,0,0,1,.35-1,1.89,1.89,0,0,1,.95-.61v3.13A2.29,2.29,0,0,1,13.14,37.47Z"/></g></g></svg>
