<svg xmlns="http://www.w3.org/2000/svg" viewBox="0 0 93.6 83.63"><defs><style>.cls-1,.cls-3{fill:none;stroke-miterlimit:10;}.cls-1{stroke:#ccc;stroke-width:1.37px;}.cls-2{fill:#666;}.cls-3{stroke:#666;stroke-width:4.25px;}</style></defs><title>Help Wanted</title><g id="Layer_2" data-name="Layer 2"><g id="Layer_1-2" data-name="Layer 1"><polyline class="cls-1" points="82.46 16.37 46.8 1.78 11.14 16.37"/><path class="cls-2" d="M36.6,35.47V31.72H32.4v3.75H30.5V26.56h1.9v3.5h4.2v-3.5h1.91v8.91Z"/><path class="cls-2" d="M40.66,35.47V26.56H47v1.67h-4.4V30.1h4.31v1.67H42.56v2H47v1.67Z"/><path class="cls-2" d="M48.76,35.47V26.56h1.91V33.8h3.77v1.67Z"/><path class="cls-2" d="M56.12,35.47V26.56h4.16a2.87,2.87,0,1,1,0,5.73H58v3.18Zm5.22-6A1.21,1.21,0,0,0,60,28.23H58v2.39h2A1.2,1.2,0,0,0,61.34,29.43Z"/><path class="cls-2" d="M25.56,49.82,24,43.7l-1.55,6.12h-2l-2.54-8.91H20l1.56,6.44,1.7-6.44h1.48l1.68,6.44L28,40.91h2.12l-2.53,8.91Z"/><path class="cls-2" d="M36.76,49.82l-.56-1.51H32.38l-.56,1.51H29.67l3.43-8.91h2.38l3.43,8.91Zm-2.47-7L32.9,46.64h2.78Z"/><path class="cls-2" d="M46.28,49.82,42,44v5.81h-1.9V40.91h2l4.12,5.6v-5.6h1.9v8.91Z"/><path class="cls-2" d="M52.33,49.82V42.58h-2.6V40.91h7.1v1.67H54.24v7.24Z"/><path class="cls-2" d="M58.44,49.82V40.91h6.3v1.67h-4.4v1.87h4.31v1.67H60.34v2h4.4v1.67Z"/><path class="cls-2" d="M66.63,49.82V40.91h3.51c2.79,0,4.72,1.78,4.72,4.45s-1.93,4.46-4.71,4.46Zm6.3-4.46a2.6,2.6,0,0,0-2.78-2.78H68.52v5.57h1.62A2.67,2.67,0,0,0,72.93,45.36Z"/><rect class="cls-3" x="2.13" y="16.87" width="89.35" height="64.63" rx="4.04" ry="4.04"/><rect class="cls-1" x="16.16" y="57.26" width="61.29" height="14.96" rx="3.97" ry="3.97"/><circle class="cls-2" cx="46.8" cy="1.78" r="1.78"/></g></g></svg>
