<?xml version="1.0" encoding="UTF-8"?><svg xmlns="http://www.w3.org/2000/svg" viewBox="0 0 55 54.57"><defs><style>.cls-1{fill:#58595b;}</style></defs><title>Asset 27</title><g id="Layer_2" data-name="Layer 2"><g id="Layer_1-2" data-name="Layer 1"><path class="cls-1" d="M54.8,48.3l-4.1-6.56V16.33a3.86,3.86,0,0,1-3.86-3.87h-3L42.38,15h4.46a1.28,1.28,0,0,0,1.28,1.29V41.25H6.88V16.33A1.28,1.28,0,0,0,8.16,15h17l.17.86h4.3l.17-.86H36.5l1.42-2.58H8.16A3.86,3.86,0,0,1,4.3,16.33V41.74L.2,48.3A1.26,1.26,0,0,1,0,49v.86a4.73,4.73,0,0,1,4.73,4.73H50.27A4.73,4.73,0,0,1,55,49.84V49A1.26,1.26,0,0,1,54.8,48.3ZM6.57,43H48.43l3.49,5.58H34.3L34,46.41H21.05l-.35,2.14H3.08Zm43.7,9H4.73a2.16,2.16,0,0,0-2.15-2.15v-.43H52.42v.43A2.16,2.16,0,0,0,50.27,52Z"/><path class="cls-1" d="M29.44,31.48,20.6,24.69,15.15,35.23H13.32V21.05a.43.43,0,1,0-.86,0V35.66a.43.43,0,0,1,.43.43H42.11a.43.43,0,0,0,.43-.43.43.43,0,0,0-.43-.43h-25l4.1-7.93L30,34.07,44.88,6.92l3,1.65L47.7,0,40.37,4.44l3,1.65Z"/><polygon class="cls-1" points="34.85 18.05 35.32 17.19 9.02 17.19 9.02 39.53 45.98 39.53 45.98 17.19 41.2 17.19 40.73 18.05 45.12 18.05 45.12 38.67 9.88 38.67 9.88 18.05 34.85 18.05"/></g></g></svg>