<?xml version="1.0" encoding="UTF-8"?><svg xmlns="http://www.w3.org/2000/svg" viewBox="0 0 60 62.67"><defs><style>.cls-1{fill:#58595b;}</style></defs><title>Asset 27</title><g id="Layer_2" data-name="Layer 2"><g id="Layer_1-2" data-name="Layer 1"><path class="cls-1" d="M46.5,39.68a19.05,19.05,0,1,0-32.63,0l4.64,6.63c1.61,2.29,2.35,3.33,2.35,6v5.84c0,2.93,4.69,4.46,9.32,4.46s9.33-1.53,9.33-4.46V52.37c0-2.72.73-3.76,2.34-6l4.6-6.57ZM27.67,47.93a.42.42,0,0,0,.41.4h0a.41.41,0,0,0,.41-.41c0-1.09,0-2.08-.09-3,.57,0,1.16-.08,1.78-.08s1.22,0,1.78.08c0,.93-.07,1.92-.08,3a.41.41,0,0,0,.4.41h0a.4.4,0,0,0,.41-.4c0-1.06,0-2,.08-2.92,3.11.43,5.12,1.59,5.12,2.66s-3,2.43-7.71,2.43-7.7-1.44-7.7-2.43,2-2.23,5.11-2.66C27.63,45.91,27.66,46.87,27.67,47.93Zm.69-3.83a65.37,65.37,0,0,0-1.82-11.63l-.09-.4a.88.88,0,0,0,.69.34c.65,0,.92-.62,1.14-1.12.09-.22.27-.63.38-.63s.29.41.39.63c.22.5.49,1.12,1.13,1.12s.92-.62,1.13-1.12c.1-.22.28-.63.39-.63s.29.41.39.63c.21.5.48,1.12,1.13,1.12a.9.9,0,0,0,.7-.34l-.09.4A64.47,64.47,0,0,0,32,44.1c-.59-.05-1.2-.08-1.83-.08S29,44.05,28.36,44.1Zm8.13,7.39c-1.91,1.75-6.13,2.88-9.61,2.56a5.73,5.73,0,0,1-3.59-1.32v-.36a12.89,12.89,0,0,0-.14-2,16,16,0,0,0,7,1.31,15.94,15.94,0,0,0,7-1.31l0,.25A3.71,3.71,0,0,1,36.49,51.49Zm-13.2,3.22a8.78,8.78,0,0,0,3.45,1c.44,0,.88.06,1.33.06a15.93,15.93,0,0,0,9-2.62v.94a3.17,3.17,0,0,1-.56.62c-1.9,1.66-6.11,2.62-9.59,2.16a5.9,5.9,0,0,1-3.63-1.49Zm6.89,5.53c-4.52,0-6.89-1.51-6.89-2v-.85a9.18,9.18,0,0,0,3.42,1.08,14.76,14.76,0,0,0,2,.13,15.2,15.2,0,0,0,8.35-2.29v1.93C37.07,58.73,34.71,60.24,30.18,60.24Zm9.68-15.32c-.51.73-1,1.37-1.34,2-.61-1.31-2.8-2.34-5.71-2.73a65.67,65.67,0,0,1,1.81-11.55L35,31.16a.64.64,0,0,0-.44-.76.66.66,0,0,0-.81.35l-.09.22c-.1.22-.28.63-.39.63s-.29-.41-.39-.63c-.22-.5-.48-1.12-1.13-1.12s-.92.62-1.13,1.12c-.1.22-.28.63-.39.63s-.29-.41-.39-.63c-.21-.5-.48-1.12-1.13-1.12s-.91.62-1.13,1.12c-.09.22-.27.63-.39.63s-.29-.41-.38-.63a1.47,1.47,0,0,0-.1-.22.65.65,0,0,0-.81-.35.64.64,0,0,0-.43.76l.33,1.49a64.52,64.52,0,0,1,1.8,11.54c-2.9.4-5.09,1.42-5.71,2.73-.38-.63-.83-1.27-1.34-2l-4.57-6.53A16.63,16.63,0,0,1,30.21,13.21,16.63,16.63,0,0,1,44.44,38.39Z"/><path class="cls-1" d="M30.18,15.64A14.21,14.21,0,0,0,16,29.83a.41.41,0,0,0,.41.41.4.4,0,0,0,.4-.41A13.4,13.4,0,0,1,30.18,16.45a.41.41,0,1,0,0-.81Z"/><polygon class="cls-1" points="31.22 0 28.78 0 30 8.92 31.22 0"/><polygon class="cls-1" points="9.65 7.93 7.93 9.65 15.09 15.09 9.65 7.93"/><polygon class="cls-1" points="50.35 52.07 52.07 50.35 44.91 44.91 50.35 52.07"/><polygon class="cls-1" points="0 28.78 0 31.22 8.92 30 0 28.78"/><polygon class="cls-1" points="51.08 30 60 31.22 60 28.78 51.08 30"/><polygon class="cls-1" points="9.65 52.07 15.09 44.91 7.93 50.35 9.65 52.07"/><polygon class="cls-1" points="50.35 7.93 44.91 15.09 52.07 9.65 50.35 7.93"/></g></g></svg>