<svg xmlns="http://www.w3.org/2000/svg" viewBox="0 0 39.5 45.68"><defs><style>.cls-1{fill:#58595b;}</style></defs><title>Insurance</title><g id="Layer_2" data-name="Layer 2"><g id="Layer_1-2" data-name="Layer 1"><path class="cls-1" d="M15.12,45.68a5.86,5.86,0,0,1-5.85-5.85v-.26a1.22,1.22,0,0,1,2.43,0v.26a3.42,3.42,0,1,0,6.83,0V18.21a1.22,1.22,0,1,1,2.44,0V39.83A5.86,5.86,0,0,1,15.12,45.68Z"/><path class="cls-1" d="M38.28,21a1.22,1.22,0,0,1-1.21-1.22c0-.85-1.6-1.87-3.58-1.87s-3.42,1-3.42,1.87a1.22,1.22,0,1,1-2.43,0c0-.9-1.31-1.87-3.26-1.87S21,18.87,21,19.75a1.22,1.22,0,0,1-2.44,0c0-.88-1.46-1.87-3.41-1.87s-3.42,1-3.42,1.87a1.22,1.22,0,1,1-2.43,0c0-.88-1.47-1.87-3.42-1.87s-3.42,1-3.42,1.87a1.22,1.22,0,1,1-2.43,0,19.75,19.75,0,0,1,39.5,0A1.22,1.22,0,0,1,38.28,21ZM15.12,15.45a6.73,6.73,0,0,1,4.63,1.64,6.73,6.73,0,0,1,4.63-1.64,6.41,6.41,0,0,1,4.51,1.61,6.75,6.75,0,0,1,4.6-1.61,7.9,7.9,0,0,1,3.19.65A17.32,17.32,0,0,0,2.83,16a7.64,7.64,0,0,1,3-.59,6.71,6.71,0,0,1,4.63,1.64A6.74,6.74,0,0,1,15.12,15.45Z"/></g></g></svg>
