<svg xmlns="http://www.w3.org/2000/svg" viewBox="0 0 79.39 80.33"><defs><style>.cls-1,.cls-2{fill:none;stroke-miterlimit:10;stroke-width:2.5px;}.cls-1{stroke:#878589;}.cls-2{stroke:#666;}</style></defs><title>Integrations Library</title><g id="Layer_2" data-name="Layer 2"><g id="Layer_1-2" data-name="Layer 1"><path class="cls-1" d="M28.24,6.06a6,6,0,0,0-1.09,1.49L21.37,1.77,1.77,21.37,21.37,41l5.78-5.78a6,6,0,1,1,8-8L41,21.37l-5.78-5.78a6,6,0,1,0-6.95-9.52Z"/><path class="cls-2" d="M70.25,53.18A6,6,0,0,0,70,51.36h8.18V23.64H50.42v8.18a6,6,0,1,1,0,11.36v8.18H58.6a6,6,0,1,0,11.64,1.82Z"/><path class="cls-2" d="M48.6,71.18a6,6,0,0,0,1.82-.29v8.18H78.14V51.36H70a6,6,0,1,1-11.36,0H50.42v8.18A6,6,0,1,0,48.6,71.18Z"/><path class="cls-2" d="M30.6,49.54a6,6,0,0,0,.29,1.82H22.7V79.08H50.42V70.9a6,6,0,1,1,0-11.36V51.36H42.24A6,6,0,1,0,30.6,49.54Z"/></g></g></svg>