<svg xmlns="http://www.w3.org/2000/svg" viewBox="0 0 33.32 48.77"><defs><style>.cls-1{fill:#58595b;}</style></defs><title>IT Services</title><g id="Layer_2" data-name="Layer 2"><g id="Layer_1-2" data-name="Layer 1"><path class="cls-1" d="M32,45.68H1.29A1.22,1.22,0,0,1,.07,44.46v-34A1.22,1.22,0,0,1,1.29,9.27H32a1.22,1.22,0,0,1,1.22,1.22v34A1.22,1.22,0,0,1,32,45.68ZM2.51,43.25H30.82V11.7H2.51Z"/><path class="cls-1" d="M31.33,33.56H2a.68.68,0,1,1,0-1.35H31.33a.68.68,0,1,1,0,1.35Z"/><path class="cls-1" d="M31.33,22.75H2a.68.68,0,0,1,0-1.36H31.33a.68.68,0,0,1,0,1.36Z"/><path class="cls-1" d="M7.39,48.77a1.21,1.21,0,0,1-1.21-1.22V44.46a1.22,1.22,0,0,1,2.43,0v3.09A1.21,1.21,0,0,1,7.39,48.77Z"/><path class="cls-1" d="M25.93,48.77a1.22,1.22,0,0,1-1.22-1.22V44.46a1.22,1.22,0,0,1,2.43,0v3.09A1.21,1.21,0,0,1,25.93,48.77Z"/><path class="cls-1" d="M7.39,39.74a1.45,1.45,0,1,1,1.45-1.45A1.45,1.45,0,0,1,7.39,39.74Zm0-1.55v.19l.1-.09A.09.09,0,0,0,7.39,38.19Z"/><path class="cls-1" d="M12,39.74a1.45,1.45,0,1,1,1.45-1.45A1.45,1.45,0,0,1,12,39.74Zm0-1.55v.19l.1-.09A.1.1,0,0,0,12,38.19Z"/><path class="cls-1" d="M26.7,39.74H19a.68.68,0,0,1,0-1.36H26.7a.68.68,0,0,1,0,1.36Z"/><path class="cls-1" d="M7.39,28.92a1.45,1.45,0,1,1,1.45-1.44A1.45,1.45,0,0,1,7.39,28.92Zm0-1.54v.19l.1-.09A.09.09,0,0,0,7.39,27.38Z"/><path class="cls-1" d="M12,28.92a1.45,1.45,0,1,1,1.45-1.44A1.45,1.45,0,0,1,12,28.92Zm0-1.54v.19l.1-.09A.1.1,0,0,0,12,27.38Z"/><path class="cls-1" d="M26.7,28.92H19a.68.68,0,0,1-.68-.67.69.69,0,0,1,.68-.68H26.7a.69.69,0,0,1,.68.68A.68.68,0,0,1,26.7,28.92Z"/><path class="cls-1" d="M7.39,18.11a1.45,1.45,0,1,1,1.45-1.45A1.45,1.45,0,0,1,7.39,18.11Zm0-1.54v.19l.1-.1A.09.09,0,0,0,7.39,16.57Z"/><path class="cls-1" d="M12,18.11a1.45,1.45,0,1,1,1.45-1.45A1.45,1.45,0,0,1,12,18.11Zm0-1.54v.19l.1-.1A.1.1,0,0,0,12,16.57Z"/><path class="cls-1" d="M26.7,18.11H19a.68.68,0,1,1,0-1.35H26.7a.68.68,0,1,1,0,1.35Z"/><path class="cls-1" d="M1.22,11.7a1.2,1.2,0,0,1-.55-.13A1.21,1.21,0,0,1,.13,9.94L4.76.68A1.22,1.22,0,0,1,6.94,1.76L2.3,11A1.2,1.2,0,0,1,1.22,11.7Z"/><path class="cls-1" d="M32.11,11.7A1.2,1.2,0,0,1,31,11L26.39,1.76A1.21,1.21,0,1,1,28.56.68l4.63,9.26a1.21,1.21,0,0,1-.54,1.63A1.16,1.16,0,0,1,32.11,11.7Z"/><path class="cls-1" d="M27.47,2.43H5.85A1.22,1.22,0,1,1,5.85,0H27.47a1.22,1.22,0,1,1,0,2.43Z"/></g></g></svg>
