<?xml version="1.0" encoding="UTF-8"?><svg xmlns="http://www.w3.org/2000/svg" viewBox="0 0 112.43 112.43"><defs><style>.cls-1,.cls-3{fill:none;stroke:#fff;stroke-miterlimit:10;}.cls-1{stroke-width:2px;}.cls-2{fill:#fff;}.cls-3{stroke-width:0.59px;}</style></defs><title>Asset 103</title><g id="Layer_2" data-name="Layer 2"><g id="Layer_1-2" data-name="Layer 1"><circle class="cls-1" cx="56.22" cy="56.22" r="55.22"/><path class="cls-2" d="M56.22,1A55.2,55.2,0,0,0,44.79,2.19V26.82l11.43-6.91,11.42,6.91V2.19A55.1,55.1,0,0,0,56.22,1Zm3.53,15.83L56.22,15l-3.54,1.86.68-3.94L50.5,10.11l4-.57L56.22,6,58,9.54l4,.57-2.85,2.78Z"/><path class="cls-2" d="M44.17,49l.47-3.55H43.15V44.4H44.8l.35-2.62H43.59V40.71h1.72l.47-3.46h1l-.45,3.46h1.88l.47-3.46H49.8l-.45,3.46h1.48v1.07H49.18l-.32,2.62h1.56v1.07H48.7L48.22,49H47.14l.47-3.55H45.73L45.26,49Zm3.6-4.62.35-2.62H46.23l-.34,2.62Z"/><path class="cls-2" d="M56.52,32.48h-.06l-3.3,1.78-.49-1.95,4.14-2.23H59v19H56.52Z"/><path class="cls-2" d="M21.23,57.2a19.09,19.09,0,0,1,3.43-.28,5.69,5.69,0,0,1,4,1.13,3.47,3.47,0,0,1,1.09,2.63,3.63,3.63,0,0,1-2.62,3.53v.06a3.46,3.46,0,0,1,2,2.8,21.48,21.48,0,0,0,1.07,3.8H28.4a17.35,17.35,0,0,1-.93-3.31c-.41-1.91-1.15-2.63-2.77-2.69H23v6H21.23ZM23,63.51h1.83c1.91,0,3.13-1,3.13-2.63,0-1.79-1.3-2.57-3.19-2.59a7.45,7.45,0,0,0-1.77.17Z"/><path class="cls-2" d="M35,66.51,33.6,70.87H31.75L36.45,57h2.16l4.73,13.85H41.43L40,66.51Zm4.54-1.39-1.36-4c-.31-.91-.51-1.73-.72-2.53h0c-.21.82-.43,1.67-.7,2.51l-1.36,4Z"/><path class="cls-2" d="M45.78,70.87V57h2l4.43,7a38.79,38.79,0,0,1,2.49,4.5l0,0c-.16-1.85-.2-3.54-.2-5.7V57h1.68V70.87H54.37l-4.39-7a41.64,41.64,0,0,1-2.59-4.62l-.07,0c.11,1.75.15,3.41.15,5.71v5.92Z"/><path class="cls-2" d="M59.72,57H61.5V63.7h.06c.37-.54.74-1,1.09-1.48L66.89,57h2.22l-5,5.88,5.41,8H67.38l-4.56-6.8L61.5,65.59v5.28H59.72Z"/><path class="cls-2" d="M78.44,64.38H73.05v5h6v1.5H71.26V57h7.48v1.5H73.05V62.9h5.39Z"/><path class="cls-2" d="M81.78,57.2a26.41,26.41,0,0,1,3.81-.28c2.57,0,4.39.59,5.61,1.72a6.4,6.4,0,0,1,2,5,7.33,7.33,0,0,1-2,5.38c-1.3,1.3-3.44,2-6.13,2a29.84,29.84,0,0,1-3.25-.16Zm1.79,12.25a11.52,11.52,0,0,0,1.81.11c3.82,0,5.9-2.14,5.9-5.88,0-3.27-1.83-5.35-5.61-5.35a10.34,10.34,0,0,0-2.1.19Z"/><line class="cls-3" x1="16.62" y1="77.03" x2="96.27" y2="77.03"/><rect class="cls-2" x="30.67" y="83.48" width="1.07" height="5.89"/><polygon class="cls-2" points="19.91 83.5 20.75 83.5 27.05 92.88 23.7 92.88 19.91 83.5"/><polygon class="cls-2" points="21.4 83.5 22.61 83.5 37.97 92.88 34.23 92.88 21.4 83.5"/><rect class="cls-2" x="62.59" y="83.29" width="1.07" height="6.08"/><rect class="cls-2" x="81.02" y="85" width="1.07" height="4.37"/><rect class="cls-2" x="81.02" y="83.43" width="1.07" height="0.95"/><polygon class="cls-2" points="36.72 83.48 34.87 83.48 33.79 83.48 31.94 83.48 31.94 84.55 33.79 84.55 33.79 89.37 34.87 89.37 34.87 84.55 36.72 84.55 36.72 83.48"/><path class="cls-2" d="M43.51,88.07l0,1c-1.67.5-4.46.81-4.46-2.58,0-3.78,3.09-3.2,4.48-2.75v1a5.17,5.17,0,0,0-1.79-.4c-.84,0-1.66.36-1.66,2.14C40.06,89.7,43.51,88.07,43.51,88.07Z"/><path class="cls-2" d="M48.28,89.33v-4a4.87,4.87,0,0,1,2-.47,1.7,1.7,0,0,1,1.92,1.94v2.49h-1v-2.8a.66.66,0,0,0-.36-.6,3.19,3.19,0,0,0-1.5,0c0,.18,0,3.43,0,3.43Z"/><path class="cls-2" d="M87.25,89.33v-4a4.87,4.87,0,0,1,2-.47,1.7,1.7,0,0,1,1.92,1.94v2.49h-1v-2.8a.66.66,0,0,0-.36-.6,3.19,3.19,0,0,0-1.5,0c0,.18,0,3.43,0,3.43Z"/><path class="cls-2" d="M53.29,85.86h-.73V85h.73V83.67h1.07V85h1v.88h-1v2.28s0,.57,1,.28v.84s0,.12-.83.12A1.24,1.24,0,0,1,53.29,88Z"/><path class="cls-2" d="M71.54,85.86h-.72V85h.72V83.67h1.07V85h1v.88h-1v2.28s0,.57,1,.28v.84s0,.12-.83.12A1.25,1.25,0,0,1,71.54,88Z"/><path class="cls-2" d="M78.38,85.86h-.72V85h.72V83.67h1.08V85h1v.88h-1v2.28s0,.57,1,.28v.84s0,.12-.83.12A1.25,1.25,0,0,1,78.38,88Z"/><path class="cls-2" d="M55.79,89.33v-4A5.53,5.53,0,0,1,58,84.9v.89a5,5,0,0,0-1.12.16v3.38Z"/><path class="cls-2" d="M66.77,87.84a3,3,0,0,0,1.67.59c1,0,1.24-.34,1.24-.7s-.1-.66-1.48-1-1.67-1.14-1.42-2.07a2,2,0,0,1,2-1.19,4.19,4.19,0,0,1,1.58.39v1a2.47,2.47,0,0,0-1.45-.44c-.91,0-1.13.4-1.13.7s.15.5,1,.75,1.92.56,1.92,1.92-1.38,1.62-2.1,1.62a4.29,4.29,0,0,1-1.86-.47Z"/><path class="cls-2" d="M45.93,84.89c-2,0-2.1,1.68-2,2.73A1.8,1.8,0,0,0,46,89.39,2.19,2.19,0,0,0,47.52,89v-.82A3.89,3.89,0,0,1,46,88.5c-1.15,0-1.07-.94-1.07-.94h2.85S48,84.89,45.93,84.89Zm-1,1.92s0-1.08.86-1.08.9,1.08.9,1.08Z"/><path class="cls-2" d="M60,84.91a4.4,4.4,0,0,0-1.44.21V86c2.34-.67,2.21.43,2.21.62-2-.31-2.63.53-2.63,1.3s.39,1.5,2,1.5a1.54,1.54,0,0,0,1.71-1.3V86.58A1.65,1.65,0,0,0,60,84.91Zm.77,3c0,.25-.07.59-.74.59s-.87-.39-.87-.64.1-.82,1.61-.58Z"/><path class="cls-2" d="M75.72,84.91a4.37,4.37,0,0,0-1.43.21V86c2.33-.67,2.2.43,2.2.62-2-.31-2.63.53-2.63,1.3s.4,1.5,2,1.5a1.54,1.54,0,0,0,1.71-1.3V86.58A1.65,1.65,0,0,0,75.72,84.91Zm.77,3c0,.25-.07.59-.74.59s-.86-.39-.86-.64.09-.82,1.6-.58Z"/><path class="cls-2" d="M84.74,84.91c-1,0-2,.48-2,2.24s1,2.24,2,2.24,2.06-.48,2.06-2.24S85.77,84.91,84.74,84.91Zm0,3.64c-.64,0-1-.3-1-1.4s.37-1.39,1-1.39,1,.3,1,1.39S85.39,88.55,84.75,88.55Z"/></g></g></svg>