<svg xmlns="http://www.w3.org/2000/svg" viewBox="0 0 71.69 72.81"><defs><style>.cls-1{fill:#666;}</style></defs><title>Secure the Management Console</title><g id="Layer_2" data-name="Layer 2"><g id="Layer_1-2" data-name="Layer 1"><path class="cls-1" d="M57.86,17.53a13.9,13.9,0,0,0,.39-3.29A14.42,14.42,0,0,0,43.69,0,14.64,14.64,0,0,0,31,7.29,15.25,15.25,0,0,0,14.12,17.51,15,15,0,0,0,0,32.26,15,15,0,0,0,15.12,47.05H28a15.36,15.36,0,0,1-.32-3.36H15.12A11.62,11.62,0,0,1,3.36,32.26,11.61,11.61,0,0,1,15,20.84a12.19,12.19,0,0,1,4.7,1,1.12,1.12,0,0,0,.87-2.07,14.61,14.61,0,0,0-3.28-.94,11.75,11.75,0,0,1,11.31-8.33h.29a12.45,12.45,0,0,1,7.95,2.95,1.09,1.09,0,0,0,.72.27,1.15,1.15,0,0,0,.86-.4,1.12,1.12,0,0,0-.13-1.58,15,15,0,0,0-4.44-2.59,11.25,11.25,0,0,1,9.88-5.75,11.06,11.06,0,0,1,11.2,10.88,10.54,10.54,0,0,1-.9,4.28,2.47,2.47,0,0,0-.11.36,14.17,14.17,0,0,0-4.47,1.73A1.12,1.12,0,0,0,50,22.69a1.16,1.16,0,0,0,.57-.15,12.08,12.08,0,0,1,5.38-1.68l.64,0A11.56,11.56,0,0,1,68.33,32.21a11.58,11.58,0,0,1-8.9,11.12,16.33,16.33,0,0,1-.26,3.49,14.74,14.74,0,0,0-1.31-29.29Z"/><path class="cls-1" d="M20.89,72.81a6.25,6.25,0,0,1-4.41-10.66l14.1-14.1a13.64,13.64,0,0,1,17.89-16.9,1.69,1.69,0,0,1,1,1.22,1.66,1.66,0,0,1-.46,1.54l-6.42,6.42,4.5,4.5,6.42-6.42A1.66,1.66,0,0,1,55.09,38a1.69,1.69,0,0,1,1.22,1A13.65,13.65,0,0,1,43.58,57.53h0a13.61,13.61,0,0,1-4.17-.65L25.31,71A6.21,6.21,0,0,1,20.89,72.81Zm22.68-39.2a10.26,10.26,0,0,0-9.49,14.22,1.68,1.68,0,0,1-.37,1.83L18.85,64.52a2.89,2.89,0,0,0,2,4.93,2.87,2.87,0,0,0,2-.84L37.79,53.74a1.69,1.69,0,0,1,1.84-.36,10.24,10.24,0,0,0,3.95.79h0a10.2,10.2,0,0,0,7.26-3,10.34,10.34,0,0,0,3-8.26l-4.44,4.44a3.2,3.2,0,0,1-4.49,0l-4.76-4.76a3.19,3.19,0,0,1,0-4.49l4.44-4.44C44.23,33.62,43.9,33.61,43.57,33.61Z"/><path class="cls-1" d="M43.13,52.34a8,8,0,0,1-8-8.09h1.12a6.82,6.82,0,0,0,6.9,7Z"/><path class="cls-1" d="M22,66.78a1.33,1.33,0,1,1-1.33-1.33A1.34,1.34,0,0,1,22,66.78Z"/><path class="cls-1" d="M24.94,63.64a1.13,1.13,0,0,1-.79-1.92l8.64-8.64a1.12,1.12,0,0,1,1.58,1.59l-8.64,8.64A1.09,1.09,0,0,1,24.94,63.64Z"/></g></g></svg>
