<svg xmlns="http://www.w3.org/2000/svg" viewBox="0 0 42.59 49"><defs><style>.cls-1{fill:#58595b;}</style></defs><title>Manufacturing</title><g id="Layer_2" data-name="Layer 2"><g id="Layer_1-2" data-name="Layer 1"><path class="cls-1" d="M41.37,49H1.22A1.21,1.21,0,0,1,0,47.78V26.16a1.22,1.22,0,0,1,1.22-1.22H41.37a1.22,1.22,0,0,1,1.22,1.22V47.78A1.22,1.22,0,0,1,41.37,49ZM2.43,46.57H40.16V27.38H2.43Z"/><path class="cls-1" d="M13.19,27.38A1.22,1.22,0,0,1,12,26.24L10.89,8.84H7L5.9,26.24a1.19,1.19,0,0,1-1.28,1.13,1.22,1.22,0,0,1-1.14-1.29L4.64,7.55A1.21,1.21,0,0,1,5.85,6.41H12a1.21,1.21,0,0,1,1.21,1.14L14.4,26.08a1.22,1.22,0,0,1-1.14,1.29Z"/><path class="cls-1" d="M25.54,27.38a1.21,1.21,0,0,1-1.21-1.14L23.24,8.84H19.35l-1.09,17.4A1.2,1.2,0,0,1,17,27.37a1.22,1.22,0,0,1-1.14-1.29L17,7.55a1.22,1.22,0,0,1,1.22-1.14h6.17A1.22,1.22,0,0,1,25.6,7.55l1.16,18.53a1.22,1.22,0,0,1-1.14,1.29Z"/><path class="cls-1" d="M36.74,27.38a1.22,1.22,0,0,1-1.22-1.22V21.53a1.87,1.87,0,1,0-3.74,0v4.63a1.22,1.22,0,1,1-2.43,0V21.53a4.31,4.31,0,1,1,8.61,0v4.63A1.22,1.22,0,0,1,36.74,27.38Z"/><path class="cls-1" d="M35.2,49A1.21,1.21,0,0,1,34,47.78V38.19H28.69v9.59a1.22,1.22,0,1,1-2.43,0V37a1.21,1.21,0,0,1,1.21-1.21H35.2A1.21,1.21,0,0,1,36.41,37V47.78A1.21,1.21,0,0,1,35.2,49Z"/><path class="cls-1" d="M12.8,38.42H6.62A.67.67,0,0,1,6,37.74V33.11a.67.67,0,0,1,.67-.67H12.8a.68.68,0,0,1,.68.67v4.63A.68.68,0,0,1,12.8,38.42ZM7.3,37.07h4.82V33.79H7.3Z"/><path class="cls-1" d="M22.07,38.42H15.89a.68.68,0,0,1-.68-.68V33.11a.68.68,0,0,1,.68-.67h6.18a.67.67,0,0,1,.67.67v4.63A.67.67,0,0,1,22.07,38.42Zm-5.51-1.35h4.83V33.79H16.56Z"/><path class="cls-1" d="M30.43,6a3.21,3.21,0,0,1-1-.18,4.61,4.61,0,0,1-1-.45,6.9,6.9,0,0,1-.89-.64c-.27-.23-.54-.47-.8-.72L26,3.26l-.72-.7c-.24-.21-.47-.41-.72-.59a3.12,3.12,0,0,0-1.25-.56,2.82,2.82,0,0,0-1.29,0A3.57,3.57,0,0,0,20.69,2,.68.68,0,1,1,19.92.92a5.27,5.27,0,0,1,1.74-.8,4.38,4.38,0,0,1,1.87,0,4.58,4.58,0,0,1,1.79.8,10.46,10.46,0,0,1,.83.69c.26.23.51.48.76.73l.73.73c.24.22.48.45.72.65a6,6,0,0,0,.72.52,4.53,4.53,0,0,0,.72.33,2.58,2.58,0,0,0,.66.1,1.38,1.38,0,0,0,.6-.13.67.67,0,0,1,.55,1.23A3,3,0,0,1,30.48,6Z"/><path class="cls-1" d="M36.88,4.44a5.34,5.34,0,0,1-.69-.05c-.23,0-.46-.09-.68-.15s-.43-.14-.63-.22-.38-.16-.56-.24l-.53-.25-.5-.23-.49-.19a3.67,3.67,0,0,0-.91-.19,4.41,4.41,0,0,0-1,0,4.17,4.17,0,0,0-.93.2.68.68,0,0,1-.85-.43.66.66,0,0,1,.43-.85,5.82,5.82,0,0,1,1.2-.27,6.42,6.42,0,0,1,1.24,0,5.29,5.29,0,0,1,1.22.26l.59.23.54.25.51.24.5.22.5.17a4.64,4.64,0,0,0,.51.11,2.24,2.24,0,0,0,.51,0,2.42,2.42,0,0,0,.47,0,.67.67,0,1,1,.28,1.32A3.36,3.36,0,0,1,36.88,4.44Z"/></g></g></svg>
