<svg xmlns="http://www.w3.org/2000/svg" viewBox="0 0 137.77 25.81"><defs><style>.cls-1{fill:#13bbd2;}.cls-1,.cls-2{fill-rule:evenodd;}.cls-2{fill:#57575b;}</style></defs><title>Moto</title><g id="Layer_2" data-name="Layer 2"><g id="Layer_1-2" data-name="Layer 1"><path class="cls-1" d="M12.9,0A12.9,12.9,0,1,1,0,12.9,12.87,12.87,0,0,1,12.9,0Zm0,15.61-3.61-12L4.59,19h.88A17.54,17.54,0,0,1,7,14.7a2.81,2.81,0,0,1,2.4-1.55c.76,0,1.41.43,2.23,1.57a19,19,0,0,1,1.25,2.44,18.88,18.88,0,0,1,1.25-2.44c.82-1.15,1.47-1.56,2.23-1.57a2.81,2.81,0,0,1,2.4,1.55A17.52,17.52,0,0,1,20.33,19h.88L16.53,3.63l-3.61,12,0,0,0,0Z"/><polygon class="cls-2" points="34.42 17.23 36.95 8.64 41.3 8.64 42.4 12.31 45.56 8.62 50.17 8.62 47.77 17.23 44.28 17.24 45.56 12.8 41.5 17.24 39.79 17.24 38.54 12.49 37.13 17.24 34.42 17.23 34.42 17.23"/><polygon class="cls-2" points="65.16 8.62 75.88 8.64 75.23 11.42 71.55 11.42 70.04 17.23 66.65 17.24 68.06 11.44 64.43 11.44 65.16 8.62 65.16 8.62"/><path class="cls-2" d="M93.91,8.64v2h0l-.42,1.66h3.68s.89-.15.94-1a.58.58,0,0,0-.63-.67H93.91v-2h5.54s2.37.18,2.14,2.23a3.52,3.52,0,0,1-2.42,2.7s-.13.13,0,.21.91.23,1,1a4.13,4.13,0,0,1-.27,1.56,1.11,1.11,0,0,0,.31.89h-3.5a.67.67,0,0,1-.57-.74c.05-.64.08-1.2.08-1.2s-.05-.67-1-.59l-2.56,0-.73,2.56H88.73l2.44-8.6Z"/><polygon class="cls-2" points="118.2 8.64 121.49 8.64 119.9 14.87 125.3 14.87 124.67 17.24 115.96 17.24 118.2 8.64 118.2 8.64"/><polygon class="cls-2" points="135.8 8.63 137.77 17.24 134.35 17.24 133.99 15.75 133.98 15.72 129.84 15.72 129.82 15.73 128.82 17.23 125.93 17.24 131.77 8.63 132.91 11.17 131.21 13.67 131.26 13.7 133.46 13.7 133.5 13.69 132.91 11.17 131.77 8.63 135.8 8.63 135.8 8.63"/><path class="cls-2" d="M57.83,10.54c1,0,2.07.51,2.23,1.26a3.06,3.06,0,0,1-1.76,3.26c-1.47.73-3.7.5-4-1a3.16,3.16,0,0,1,1.81-3.22,4.09,4.09,0,0,1,1.68-.3V8.29a12.66,12.66,0,0,0-2,.21C53.24,9,50,11.34,50.57,14.29c.48,2.5,3.87,3.84,7.68,3.11,3.56-.68,5.9-3.43,5.4-5.87s-3.27-3.24-5.8-3.24v1.93l0,.32Z"/><path class="cls-2" d="M82.76,10.54c1,0,2.07.51,2.22,1.26a3.06,3.06,0,0,1-1.75,3.26c-1.47.73-3.7.5-4-1a3.15,3.15,0,0,1,1.81-3.22,4.09,4.09,0,0,1,1.67-.3V8.29a12.73,12.73,0,0,0-2,.21c-2.57.49-5.82,2.83-5.25,5.79.48,2.5,3.88,3.84,7.68,3.11,3.57-.68,5.91-3.43,5.4-5.87s-3.27-3.24-5.8-3.24v1.93l0,.32Z"/><path class="cls-2" d="M109.86,10.52c1,.06,2.06.54,2.22,1.29a3.07,3.07,0,0,1-1.75,3.26c-1.47.73-3.7.5-4-1a3.15,3.15,0,0,1,1.81-3.22,3.49,3.49,0,0,1,1.68-.32l0-2.23a12.82,12.82,0,0,0-2,.21c-2.57.49-5.81,2.83-5.24,5.79.48,2.5,3.88,3.84,7.68,3.11,3.57-.68,5.9-3.43,5.4-5.87s-3.27-3.24-5.79-3.24v1.93l0,.3Z"/></g></g></svg>