<?xml version="1.0" encoding="utf-8"?>
<!-- Generator: Adobe Illustrator 21.1.0, SVG Export Plug-In . SVG Version: 6.00 Build 0)  -->
<svg version="1.1" id="Layer_1" xmlns="http://www.w3.org/2000/svg" xmlns:xlink="http://www.w3.org/1999/xlink" x="0px" y="0px"
	 viewBox="0 0 61.9 61" style="enable-background:new 0 0 61.9 61;" xml:space="preserve">
<style type="text/css">
	.st0{fill:#666666;}
	.st1{fill:#878589;}
</style>
<title>Operations</title>
<g id="Layer_2">
	<g id="Layer_1-2">
		<path class="st0" d="M50,15.2c0.2-0.9,0.3-1.9,0.3-2.8C50.3,5.4,44.7-0.1,37.8,0c-4.5,0-8.7,2.4-11,6.3c-0.7-0.1-1.4-0.2-2.1-0.2
			c-5.7,0-10.7,3.6-12.5,9C5.4,15.5,0.1,21.1,0,27.9c0.1,6.3,4.7,11.6,10.9,12.6l0,0c0.1-1,0.6-2,1.3-2.8C7,37.4,3,33.1,2.9,27.9
			C3,22.4,7.4,18,12.9,18c1.4,0,2.8,0.3,4.1,0.8c0.4,0.3,1.1,0.3,1.4-0.2c0.3-0.4,0.3-1.1-0.2-1.4c-0.1-0.1-0.3-0.2-0.5-0.2
			c-0.9-0.4-1.9-0.7-2.8-0.8c1.3-4.3,5.3-7.3,9.8-7.3H25c2.5,0,5,0.9,6.9,2.6c0.3,0.5,0.9,0.6,1.4,0.2c0.5-0.3,0.6-0.9,0.2-1.4
			c-0.1-0.1-0.2-0.2-0.4-0.3c-1.1-1-2.4-1.7-3.8-2.2c1.7-3.1,5-5,8.5-5c5.3-0.1,9.6,4.1,9.7,9.4c0,1.3-0.3,2.5-0.8,3.7
			c0,0.1-0.1,0.2-0.1,0.3c-1.4,0.3-2.7,0.8-3.9,1.5c-0.5,0.2-0.8,0.7-0.7,1.2c0.2,0.5,0.7,0.8,1.2,0.7c0.2,0,0.3-0.1,0.4-0.3
			c1.4-0.8,3-1.3,4.6-1.4h0.5c5.5-0.1,10.1,4.3,10.2,9.8c0,0,0,0,0,0c-0.1,5-3.8,9.3-8.8,9.8c0.5,0.6,0.8,1.3,0.9,2.1
			c0,0.2,0.1,0.5,0.1,0.7c7-1.1,11.7-7.7,10.6-14.6C60.8,20,56,15.5,50,15.2L50,15.2z"/>
		<path class="st1" d="M31.1,51.6c-4.7,0-8.5-3.8-8.5-8.5c0-4.7,3.8-8.5,8.5-8.5c4.7,0,8.5,3.8,8.5,8.5c0,3.4-2,6.5-5.1,7.8
			C33.4,51.3,32.2,51.6,31.1,51.6z M31.1,35.6c-4.2,0-7.5,3.4-7.5,7.5s3.4,7.5,7.5,7.5c4.2,0,7.5-3.4,7.5-7.5c0-1-0.2-2.1-0.6-3
			C36.8,37.3,34.1,35.5,31.1,35.6L31.1,35.6z"/>
		<path class="st0" d="M31.1,48.1c-2.8,0-5-2.3-5-5c0-2.8,2.3-5,5-5s5,2.3,5,5c0,2-1.2,3.8-3,4.6C32.4,47.9,31.8,48.1,31.1,48.1z
			 M31.1,40.1c-1.7,0-3,1.4-3,3c0,1.7,1.4,3,3,3c1.7,0,3-1.4,3-3c0-0.4-0.1-0.8-0.2-1.1C33.4,40.7,32.3,40,31.1,40.1L31.1,40.1z"/>
		<path class="st0" d="M31.1,27.6c0.7,0,1.3,0,2,0.1c-0.5,2.1,0.8,4.1,2.9,4.6c1.6,0.4,3.3-0.4,4.1-1.8c1.2,0.9,2.3,1.9,3.2,3.1
			c-1.8,1.1-2.4,3.4-1.3,5.2c0.9,1.5,2.6,2.2,4.3,1.7c0.2,1.5,0.3,3,0.1,4.5c-2.1-0.5-4.1,0.8-4.6,2.9c-0.4,1.6,0.4,3.3,1.8,4.1
			c-0.9,1.2-1.9,2.3-3.1,3.3c-1.1-1.8-3.4-2.4-5.2-1.3c-1.5,0.9-2.2,2.6-1.7,4.3c-1.5,0.2-3,0.3-4.5,0.1c0.5-2.1-0.8-4.1-2.9-4.6
			c-1.6-0.4-3.3,0.4-4.1,1.8c-1.2-0.9-2.3-1.9-3.2-3.1c1.8-1.1,2.4-3.4,1.3-5.2c-0.9-1.5-2.6-2.2-4.3-1.7c-0.2-1.5-0.3-3-0.1-4.5
			c2.1,0.5,4.1-0.8,4.6-2.9c0.4-1.6-0.4-3.3-1.8-4.1c0.9-1.2,1.9-2.3,3.1-3.2c1.1,1.8,3.4,2.4,5.2,1.3c1.5-0.9,2.2-2.6,1.7-4.3
			C29.4,27.7,30.3,27.6,31.1,27.6 M31.1,25.2c-1,0-1.9,0.1-2.9,0.2c-1.3,0.2-2.2,1.5-2,2.8c0,0.1,0,0.2,0.1,0.3
			c0.2,0.7-0.1,1.4-0.8,1.7c-0.2,0.1-0.4,0.1-0.5,0.1c-0.5,0-0.9-0.3-1.2-0.7c-0.7-1.2-2.2-1.5-3.3-0.9c-0.1,0.1-0.2,0.1-0.2,0.2
			c-1.4,1.1-2.6,2.3-3.7,3.7c-0.8,1.1-0.5,2.6,0.6,3.4c0.1,0.1,0.2,0.1,0.2,0.2c0.7,0.4,0.9,1.2,0.5,1.9c-0.3,0.5-0.9,0.8-1.5,0.7
			c-1.3-0.3-2.6,0.4-2.9,1.7c0,0.1,0,0.2-0.1,0.3c-0.2,1.7-0.2,3.5,0.1,5.2c0.2,1.3,1.5,2.2,2.8,2c0.1,0,0.2,0,0.3-0.1
			c0.1,0,0.3-0.1,0.4-0.1c0.8,0,1.4,0.6,1.4,1.4c0,0.5-0.3,0.9-0.7,1.2c-1.2,0.7-1.5,2.2-0.9,3.3c0.1,0.1,0.1,0.2,0.2,0.2
			c1.1,1.4,2.3,2.6,3.8,3.6c1.1,0.8,2.6,0.5,3.4-0.6c0.1-0.1,0.1-0.2,0.2-0.2c0.4-0.7,1.2-0.9,1.9-0.5c0.5,0.3,0.8,0.9,0.7,1.5
			c-0.3,1.3,0.4,2.6,1.7,2.9c0.1,0,0.2,0,0.3,0.1c1.7,0.2,3.5,0.2,5.2-0.1c1.3-0.2,2.2-1.5,2-2.8c0-0.1,0-0.2-0.1-0.3
			c-0.2-0.7,0.1-1.4,0.8-1.7c0.2-0.1,0.4-0.1,0.5-0.1c0.5,0,0.9,0.3,1.2,0.7c0.7,1.2,2.2,1.5,3.3,0.9c0.1-0.1,0.2-0.1,0.2-0.2
			c1.4-1.1,2.6-2.3,3.6-3.8c0.8-1.1,0.5-2.6-0.6-3.4C45,50,44.9,50,44.9,49.9c-0.7-0.4-0.9-1.2-0.5-1.9c0.3-0.5,0.9-0.8,1.5-0.7
			c1.3,0.3,2.6-0.4,2.9-1.7c0-0.1,0-0.2,0.1-0.3c0.2-1.7,0.2-3.5-0.1-5.2c-0.2-1.3-1.5-2.2-2.8-2c-0.1,0-0.2,0-0.3,0.1
			c-0.7,0.2-1.5-0.2-1.7-1c-0.2-0.6,0.1-1.2,0.6-1.5c1.2-0.7,1.5-2.2,0.9-3.3c-0.1-0.1-0.1-0.2-0.2-0.2c-1.1-1.4-2.3-2.6-3.7-3.6
			c-1.1-0.8-2.6-0.5-3.4,0.6c-0.1,0.1-0.1,0.2-0.2,0.2c-0.4,0.7-1.2,0.9-1.9,0.5c-0.5-0.3-0.8-0.9-0.7-1.5c0.3-1.3-0.4-2.6-1.7-2.9
			c-0.1,0-0.2,0-0.3-0.1C32.7,25.2,31.9,25.2,31.1,25.2L31.1,25.2z"/>
	</g>
</g>
</svg>