<svg xmlns="http://www.w3.org/2000/svg" viewBox="0 0 87.68 23.76"><defs><style>.cls-1{fill:#f58220;}</style></defs><title>Orange</title><g id="Layer_2" data-name="Layer 2"><g id="Layer_1-2" data-name="Layer 1"><path class="cls-1" d="M32.65,17.36A7.91,7.91,0,0,1,28.2,18.7a3.73,3.73,0,0,1-4-3.9c0-3,2.77-4.6,8.46-5.24V8.8c0-1-.74-1.54-2.11-1.54A4,4,0,0,0,27.29,8.8L24.9,7.44a6.58,6.58,0,0,1,5.73-2.62c3.51,0,5.47,1.52,5.47,4,0,0,0,9.72,0,9.75H33Zm-5-2.83a1.62,1.62,0,0,0,1.6,1.75,4.94,4.94,0,0,0,3.28-1.41V11.68c-3.31.41-4.87,1.26-4.87,2.85"/><path class="cls-1" d="M38.89,5.46l2.93-.4.32,1.59a7.53,7.53,0,0,1,4.62-1.85c2.76,0,4.19,1.47,4.19,4.37v9.36H47.41V9.78c0-1.65-.43-2.39-1.71-2.39A5.22,5.22,0,0,0,42.4,8.88v9.64h-3.5Z"/><path class="cls-1" d="M74.37,18.78c-4,0-6.33-2.54-6.33-7s2.39-7,6.27-7,6.18,2.47,6.18,6.84c0,.23,0,.46,0,.69H71.52c0,2.54,1.08,3.83,3.16,3.83a3.43,3.43,0,0,0,3-1.72l2.59,1.44c-1.14,1.9-3.19,2.9-6,2.9M77,10a2.56,2.56,0,0,0-2.71-2.85c-1.59,0-2.59,1-2.74,2.85Z"/><path class="cls-1" d="M6.65,18.93C3.15,18.93,0,16.7,0,11.84S3.15,4.74,6.65,4.74,13.3,7,13.3,11.84s-3.15,7.09-6.65,7.09m0-11.19c-2.64,0-3.13,2.38-3.13,4.1s.49,4.1,3.13,4.1,3.13-2.38,3.13-4.1-.49-4.1-3.13-4.1"/><path class="cls-1" d="M15.72,5.1h3.36V6.68a5.22,5.22,0,0,1,3.7-1.86,2.7,2.7,0,0,1,.46,0V8.16h-.17c-1.54,0-3.22.24-3.76,1.43v8.94H15.72Z"/><path class="cls-1" d="M59.61,15.65c2.69,0,2.91-2.75,2.91-4.53,0-2.1-1-3.81-2.93-3.81-1.27,0-2.69.93-2.69,4,0,1.66.12,4.41,2.71,4.39M65.91,5V17.77c0,2.25-.17,5.94-6.57,6-2.64,0-5.09-1-5.58-3.35l3.49-.56c.15.66.55,1.32,2.53,1.32s2.71-.88,2.71-3V16.62l0,0a3.53,3.53,0,0,1-3.47,2c-3.13,0-5.6-2.17-5.6-6.72s2.54-7,5.4-7c2.68,0,3.68,1.22,3.9,1.86h0L62.93,5Z"/><path class="cls-1" d="M81.89.59H80.5V4.44h-.73V.59H78.37V0h3.51Zm5.79,3.85h-.73V.73h0L85.47,4.44H85L83.55.73h0V4.44h-.73V0h1.13l1.33,3.37L86.55,0h1.12Z"/></g></g></svg>