<svg xmlns="http://www.w3.org/2000/svg" viewBox="0 0 128.12 27.93"><defs><style>.cls-1{fill-rule:evenodd;}</style></defs><title>Asset 9</title><g id="Layer_2" data-name="Layer 2"><g id="Layer_1-2" data-name="Layer 1"><path class="cls-1" d="M52.14,17.11a1.34,1.34,0,0,0,1.15,1.14h7.79l-1.72-2.8H54.83V4.66H52.14Z"/><path class="cls-1" d="M17.08,17.29V13.51l-3.32.92.06,4.69a8.13,8.13,0,0,1-2,.29,7.62,7.62,0,1,1,5.27-2.12Zm6.48-5.49A11.78,11.78,0,1,0,11.81,23.58a11.76,11.76,0,0,0,2-.23l-.06,4.58h3.32V22.27A11.74,11.74,0,0,0,23.56,11.79Z"/><path class="cls-1" d="M34.42,18.25H26.75a1.28,1.28,0,0,1-1.15-1.14V4.66h2.63V15.45h4.64V4.66h2.69V17.11A1.28,1.28,0,0,1,34.42,18.25Z"/><path class="cls-1" d="M70.3,5.16a7.32,7.32,0,0,0-3.67-1,7.22,7.22,0,1,0,0,14.43,7.83,7.83,0,0,0,3.5-.86l-1.32-2.34a4.55,4.55,0,0,1-2.18.51,4.5,4.5,0,0,1-4.53-4.52,4.55,4.55,0,0,1,4.53-4.58A4.67,4.67,0,0,1,69,7.51Z"/><path class="cls-1" d="M76.49,15.94A4.48,4.48,0,0,1,72,11.44a4.53,4.53,0,0,1,4.52-4.56,4.53,4.53,0,1,1,0,9.06Zm0-11.75a7.22,7.22,0,1,0,7.22,7.25A7.22,7.22,0,0,0,76.49,4.19Z"/><path class="cls-1" d="M41.68,12.94l2.18-4.87L46,12.94Zm3.49-8.29H42.52l-5.93,13.5h2.78l1.43-3H47l.1.29,1.21,2.69h2.81Z"/><path class="cls-1" d="M126.69,16.6,121.82,5.36a1.53,1.53,0,0,0-1.54-.8,1.5,1.5,0,0,0-1.49.8l-3.61,8.21-3.61-8.21a1.45,1.45,0,0,0-1.49-.8,1.5,1.5,0,0,0-1.49.8L105,13.63l-3.61-8.26a1.5,1.5,0,0,0-1.49-.8,1.45,1.45,0,0,0-1.49.8l-3.61,8.21L91.18,5.36a1.5,1.5,0,0,0-1.49-.8,1.53,1.53,0,0,0-1.54.8L83.28,16.6a1.41,1.41,0,0,0,2.51,1.25l3.9-8.95,3.84,8.95a1.53,1.53,0,0,0,2.52,0L99.89,8.9l3.84,8.95a1.34,1.34,0,0,0,1.09.68h.34a1.34,1.34,0,0,0,1.09-.68l3.84-8.95,3.83,8.95a1.53,1.53,0,0,0,2.52,0l3.84-8.95,3.9,8.95A1.41,1.41,0,0,0,126.69,16.6Z"/><path class="cls-1" d="M126.2,6.25V5.67h.35c.23,0,.4.05.4.29s-.17.29-.47.29Zm1-.29c0-.35-.17-.52-.64-.52h-.7V7.28h.29v-.8h.29l.52.8h.29l-.52-.8C127.07,6.42,127.24,6.3,127.24,6Zm-.69,1.72a1.32,1.32,0,1,1,0-2.65,1.32,1.32,0,0,1,0,2.65Zm0-2.93a1.64,1.64,0,0,0-1.69,1.61,1.59,1.59,0,0,0,1.69,1.55,1.52,1.52,0,0,0,1.57-1.55A1.57,1.57,0,0,0,126.55,4.75Z"/></g></g></svg>