<svg xmlns="http://www.w3.org/2000/svg" viewBox="0 0 116.36 19.7"><defs><style>.cls-1{fill:#010101;}</style></defs><title>Revlon</title><g id="Layer_2" data-name="Layer 2"><g id="Layer_1-2" data-name="Layer 1"><path class="cls-1" d="M90.94,11.45c-.94,5.11-4.51,6.86-7.71,6.86H65.76V2.69c0-1.08.29-1.25,1.22-1.84L60.41.78A2.07,2.07,0,0,1,61.74,2.6l0,15.09a1.81,1.81,0,0,1-1.31,2h23c6,0,8.38-2.27,10.11-4.31a8.62,8.62,0,0,0,.75-9.85A11.38,11.38,0,0,0,86.5.31,17.72,17.72,0,0,0,83.55,0a16,16,0,0,0-3.13.31C77.69,1,74.2,2.73,72.61,5.64a8.06,8.06,0,0,0,.4,8.13,9.34,9.34,0,0,0,7.25,4l.11,0c-2.32-1.2-3.49-3.38-4.21-6.31A8.92,8.92,0,0,1,78,3.76a8,8,0,0,1,5.59-2.41A7.64,7.64,0,0,1,89,3.67c2,2.1,2.3,5.66,1.89,7.79ZM20.87,18.2,15,10.76C21.51,9.73,20.87.64,13.16.64H0c.9.31,1.5.77,1.5,1.64V17.71a2.5,2.5,0,0,1-1.16,2H6.59a2.75,2.75,0,0,1-1.33-1.92V11.08h5.36l6.45,8.63h5.52a5.06,5.06,0,0,1-1.72-1.5ZM10.6,9.7H5.25L5.23,2l6.36,0c4.6,0,5.7,7.59-1,7.68Zm34.24-7c-.47-1,.09-1.63.9-2H38.38c.77.6,1.65,1,2,2.21l8.32,16.71h1.94L58.41,2.42A3.64,3.64,0,0,1,59.74.77H55.41a1.36,1.36,0,0,1,.93,2L50.62,15.47,44.85,2.74ZM98.51,17.52a2.81,2.81,0,0,1-1.37,2.17h4.2a2.43,2.43,0,0,1-1.3-2V4.31l13.1,15.37h1.92V2.58a2.1,2.1,0,0,1,1.3-1.8h-4.18a2.44,2.44,0,0,1,1.36,2l0,11.07L102.21.78h-6c.64.32,2.33,1,2.33,2.59V17.52ZM37.94.77H22.7c.73.39,1.39.68,1.39,1.86V17.77a1.92,1.92,0,0,1-1.15,1.92H38.69l1.48-4.57a7.57,7.57,0,0,1-5.93,3.17h-6V10.68h4.38a2.86,2.86,0,0,1,2.57,1.5V7.67a2.85,2.85,0,0,1-2.58,1.57H28.24V2.09l6.16,0a4.74,4.74,0,0,1,4.28,2.64l-.74-4Z"/></g></g></svg>