<svg xmlns="http://www.w3.org/2000/svg" viewBox="0 0 65.17 62.9"><defs><style>.cls-1,.cls-2{fill:none;stroke-miterlimit:10;}.cls-1{stroke:#666;stroke-width:2.9px;}.cls-2{stroke:#878589;stroke-width:1.03px;}</style></defs><title>Secrets Management</title><g id="Layer_2" data-name="Layer 2"><g id="Layer_1-2" data-name="Layer 1"><path class="cls-1" d="M1.62,53.18l1.7,6.24,9.18,1.93c.65,0,2.2.32,2.65-.13a1.93,1.93,0,0,0,.64-1.83l0-3.28,3.54.06,0-5.9,5.91.11,0-4.72,4.72.09,0-4.72,5.94.11,3.32-3.35C45.72,40.16,53,39.14,58.22,34a19,19,0,0,0,1-25.58A19,19,0,0,0,31.43,6.75C25.54,12.56,24.7,18.87,28.32,26Z"/><path class="cls-2" d="M45.56,15A4.5,4.5,0,0,0,50,19.45a4.25,4.25,0,0,0,4.34-4.29,4.5,4.5,0,0,0-4.39-4.45A4.25,4.25,0,0,0,45.56,15Z"/><line class="cls-2" x1="8.78" y1="53.96" x2="32.45" y2="30.29"/></g></g></svg>