<svg xmlns="http://www.w3.org/2000/svg" viewBox="0 0 97 77.29"><defs><style>.cls-1{fill:#666;}</style></defs><title>Secure Flexible Architecture</title><g id="Layer_2" data-name="Layer 2"><g id="Layer_1-2" data-name="Layer 1"><rect class="cls-1" y="47.59" width="3.14" height="9.51"/><rect class="cls-1" y="12.42" width="3.14" height="9.51"/><path class="cls-1" d="M36.92,46.44h-.53a11.69,11.69,0,1,1,8.39-3A11.53,11.53,0,0,1,36.92,46.44Zm0-20.51a8.82,8.82,0,0,0-8.8,8.44,8.82,8.82,0,1,0,17.62.78h0a8.84,8.84,0,0,0-8.42-9.21Z"/><path class="cls-1" d="M28.11,44.92a1.44,1.44,0,0,1-1-.43,1.42,1.42,0,0,1,0-2L44.7,25a1.42,1.42,0,1,1,2,2L29.12,44.5A1.42,1.42,0,0,1,28.11,44.92Z"/><path class="cls-1" d="M46.21,44.38a1.4,1.4,0,0,1-.94-.36L26.67,27.64a1.42,1.42,0,0,1,1.88-2.14l18.6,16.38a1.43,1.43,0,0,1-.94,2.5Z"/><ellipse class="cls-1" cx="36.91" cy="34.76" rx="3.51" ry="3.51"/><path class="cls-1" d="M7.51,66.54A2.55,2.55,0,0,1,5,64V5.53A2.55,2.55,0,0,1,7.51,3H66a2.56,2.56,0,0,1,2.55,2.55V18.85h3V5.53A5.54,5.54,0,0,0,66,0H7.51A5.54,5.54,0,0,0,2,5.53V64a5.54,5.54,0,0,0,5.53,5.53H50.8v-3Z"/><path class="cls-1" d="M15,60.16a3.79,3.79,0,0,1-3.62-3.36V12.48c0-1.75,1.95-3.12,3.62-3.12H58.9a3.21,3.21,0,0,1,3.23,3.12v6.37h1.49V12.48a4.66,4.66,0,0,0-4.72-4.6H15c-2.41,0-5.11,2-5.11,4.6V56.8A5.26,5.26,0,0,0,15,61.65H50.8V60.16Z"/><path class="cls-1" d="M89.64,39.23H73a.44.44,0,1,0,0,.88H89.64a.44.44,0,1,0,0-.88Z"/><path class="cls-1" d="M90.08,48.42a.43.43,0,0,0-.44-.44H73a.44.44,0,1,0,0,.87H89.64A.43.43,0,0,0,90.08,48.42Z"/><path class="cls-1" d="M73,42.73H80.9a.44.44,0,0,0,.43-.44.43.43,0,0,0-.43-.43H73a.44.44,0,0,0-.44.43A.44.44,0,0,0,73,42.73Z"/><path class="cls-1" d="M73,51.48H80.9a.44.44,0,0,0,0-.88H73a.44.44,0,0,0,0,.88Z"/><path class="cls-1" d="M73,60.23H80.9a.44.44,0,0,0,0-.88H73a.44.44,0,0,0,0,.88Z"/><path class="cls-1" d="M73,68.1A.44.44,0,0,0,73,69H80.9a.44.44,0,0,0,0-.88Z"/><path class="cls-1" d="M97,34.21a1.34,1.34,0,0,0-.38-.93L85,21.68a1.28,1.28,0,0,0-.93-.38H55.44a1.31,1.31,0,0,0-1.31,1.31V76a1.32,1.32,0,0,0,1.31,1.32H95.69A1.32,1.32,0,0,0,97,76ZM94.38,74.66H56.76V23.92H83.21V34.21a.87.87,0,0,0,.87.88h10.3ZM85,25.34l8,8H85Z"/><path class="cls-1" d="M89.13,56.73H73a.44.44,0,1,0,0,.87h15.6Z"/><path class="cls-1" d="M86.8,65.48H73a.44.44,0,1,0,0,.87H86.81Z"/><path class="cls-1" d="M68.82,45.14a.86.86,0,0,0-1.24,0L63.42,49.3l-1.14-1.14A.88.88,0,0,0,61,49.4l1.76,1.76a.89.89,0,0,0,.62.25.9.9,0,0,0,.62-.25l4.78-4.79A.87.87,0,0,0,68.82,45.14Z"/><path class="cls-1" d="M66.49,52.74H59.68v-6.3h6.81Zm-6.14-.68h5.46v-5H60.35Z"/><path class="cls-1" d="M68.82,54.11a.88.88,0,0,0-1.24,0l-4.16,4.17-1.14-1.14A.87.87,0,1,0,61,58.37l1.76,1.76a.85.85,0,0,0,.62.26.87.87,0,0,0,.62-.26l4.78-4.78A.88.88,0,0,0,68.82,54.11Z"/><path class="cls-1" d="M66.49,61.72H59.68V55.41h6.81ZM60.35,61h5.46V56.09H60.35Z"/><path class="cls-1" d="M68.82,63.09a.88.88,0,0,0-1.24,0l-4.16,4.16-1.14-1.14A.88.88,0,1,0,61,67.35l1.76,1.76a.9.9,0,0,0,.62.26.91.91,0,0,0,.62-.26l4.78-4.78A.88.88,0,0,0,68.82,63.09Z"/><path class="cls-1" d="M66.49,70.69H59.68v-6.3h6.81ZM60.35,70h5.46v-5H60.35Z"/><path class="cls-1" d="M68.82,36.16a.88.88,0,0,0-1.24,0l-4.16,4.16-1.14-1.14A.88.88,0,1,0,61,40.42l1.76,1.76a.9.9,0,0,0,.62.26.91.91,0,0,0,.62-.26l4.78-4.78A.88.88,0,0,0,68.82,36.16Z"/><path class="cls-1" d="M66.49,43.76H59.68v-6.3h6.81Zm-6.14-.67h5.46v-5H60.35Z"/><path class="cls-1" d="M60,31.89,62,27.71a.11.11,0,0,1,.11-.07h.06a.1.1,0,0,1,.1.07l1.92,4.18a.12.12,0,0,1-.11.17H63.5a.18.18,0,0,1-.18-.13l-.3-.67H61.16l-.31.67a.19.19,0,0,1-.18.13h-.54A.11.11,0,0,1,60,31.89Zm2.68-1.32-.62-1.37h0l-.61,1.37Z"/><path class="cls-1" d="M64.9,27.82A.13.13,0,0,1,65,27.7h.59a.12.12,0,0,1,.12.12v2.54a.91.91,0,1,0,1.81,0V27.82a.12.12,0,0,1,.12-.12h.59a.13.13,0,0,1,.12.12v2.59a1.74,1.74,0,0,1-3.47,0Z"/><path class="cls-1" d="M69.75,27.82a.12.12,0,0,1,.11-.12h1.47a2.18,2.18,0,1,1,0,4.36H69.86a.12.12,0,0,1-.11-.12Zm1.51,3.48a1.43,1.43,0,0,0,0-2.85h-.71V31.3Z"/><path class="cls-1" d="M74.65,27.82a.13.13,0,0,1,.12-.12h.58a.13.13,0,0,1,.12.12v4.12a.13.13,0,0,1-.12.12h-.58a.13.13,0,0,1-.12-.12Z"/><path class="cls-1" d="M77.49,28.45h-.95a.12.12,0,0,1-.12-.12v-.51a.12.12,0,0,1,.12-.12h2.72a.12.12,0,0,1,.12.12v.51a.12.12,0,0,1-.12.12h-1v3.49a.13.13,0,0,1-.12.12h-.58a.13.13,0,0,1-.12-.12Z"/></g></g></svg>
