<svg xmlns="http://www.w3.org/2000/svg" viewBox="0 0 75.59 75"><defs><style>.cls-1{fill:#666;}</style></defs><title>Secure Audit</title><g id="Layer_2" data-name="Layer 2"><g id="Layer_1-2" data-name="Layer 1"><path class="cls-1" d="M69.69,57.37V42.52h-3V43.7h-.59v13H9.45V22.44a1.77,1.77,0,0,1,1.77-1.77H34.61l.23,1.18h3V17.13H11.22a5.31,5.31,0,0,0-5.31,5.31V57.37l-5.64,9a1.77,1.77,0,0,0-.27.94V68.5A6.5,6.5,0,0,0,6.5,75H69.09a6.5,6.5,0,0,0,6.5-6.5V67.32a1.77,1.77,0,0,0-.27-.94ZM9,59.06H66.56l4.8,7.67H47.15l-.5-3H28.94l-.5,3H4.23Zm63,9.44a3,3,0,0,1-3,3H6.5a3,3,0,0,1-3-3v-.59H72.05Z"/><path class="cls-1" d="M50.74,13.58H47.2a1.18,1.18,0,1,0,0,2.36h3.54a1.18,1.18,0,0,0,0-2.36Z"/><path class="cls-1" d="M47.2,7.68h3.54a1.19,1.19,0,0,0,0-2.37H47.2a1.19,1.19,0,1,0,0,2.37Z"/><path class="cls-1" d="M50.74,21.85H47.2a1.18,1.18,0,1,0,0,2.36h3.54a1.18,1.18,0,0,0,0-2.36Z"/><path class="cls-1" d="M73.82,0H41.93a1.77,1.77,0,0,0-1.77,1.77v26a1.77,1.77,0,0,0,1.77,1.77H56.69v2.36H54.92v3.54H51.38v5.91h13V35.43H60.83V31.89H59.06V29.53H73.82a1.77,1.77,0,0,0,1.77-1.77v-26A1.77,1.77,0,0,0,73.82,0ZM43.7,10.63H69.09V18.9H43.7Zm26.58,0h1.77V18.9H70.28Zm1.77-1.18H70.28V3.54h1.77Zm-3-5.91V9.45H43.7V3.54ZM43.7,20.08H69.09V26H43.7ZM70.28,26v-5.9h1.77V26Z"/><path class="cls-1" d="M40.16,38.39a1.77,1.77,0,0,0,1.77,1.77H50.2V36.61H41.93A1.78,1.78,0,0,0,40.16,38.39Z"/><path class="cls-1" d="M73.82,36.61H65.55v3.55h8.27a1.78,1.78,0,0,0,0-3.55Z"/><polygon class="cls-1" points="37.8 24.8 37.8 23.62 12.4 23.62 12.4 54.33 63.19 54.33 63.19 43.7 62.01 43.7 62.01 53.15 13.58 53.15 13.58 24.8 37.8 24.8"/></g></g></svg>
