<svg xmlns="http://www.w3.org/2000/svg" viewBox="0 0 125.22 19.23"><defs><style>.cls-1{fill:#fff;}</style></defs><title>Asset 24</title><g id="Layer_2" data-name="Layer 2"><g id="Layer_1-2" data-name="Layer 1"><polygon class="cls-1" points="10.11 0 12.5 7.34 20.22 7.34 13.97 11.88 16.36 19.23 10.11 14.69 3.86 19.23 6.25 11.88 0 7.34 7.72 7.34 10.11 0"/><polygon class="cls-1" points="36.36 0 38.75 7.34 46.47 7.34 40.22 11.88 42.61 19.23 36.36 14.69 30.11 19.23 32.5 11.88 26.25 7.34 33.97 7.34 36.36 0"/><polygon class="cls-1" points="62.61 0 65 7.34 72.72 7.34 66.47 11.88 68.86 19.23 62.61 14.69 56.36 19.23 58.75 11.88 52.5 7.34 60.22 7.34 62.61 0"/><polygon class="cls-1" points="88.86 0 91.25 7.34 98.97 7.34 92.72 11.88 95.11 19.23 88.86 14.69 82.61 19.23 85 11.88 78.75 7.34 86.47 7.34 88.86 0"/><polygon class="cls-1" points="115.11 0 117.5 7.34 125.22 7.34 118.97 11.88 121.36 19.23 115.11 14.69 108.86 19.23 111.25 11.88 105 7.34 112.72 7.34 115.11 0"/></g></g></svg>