<?xml version="1.0" encoding="iso-8859-1"?>
<!-- Generator: Adobe Illustrator 23.0.3, SVG Export Plug-In . SVG Version: 6.00 Build 0)  -->
<svg version="1.1"
	 id="svg63310" xmlns:cc="http://creativecommons.org/ns#" xmlns:dc="http://purl.org/dc/elements/1.1/" xmlns:rdf="http://www.w3.org/1999/02/22-rdf-syntax-ns#" xmlns:svg="http://www.w3.org/2000/svg"
	 xmlns="http://www.w3.org/2000/svg" xmlns:xlink="http://www.w3.org/1999/xlink" x="0px" y="0px" viewBox="0 0 421.8 454.2"
	 style="enable-background:new 0 0 421.8 454.2;" xml:space="preserve">
<style type="text/css">
	.st0{fill:#616161;}
	.st1{fill:#414042;}
	.st2{fill:#FFFFFF;}
	.st3{fill:none;stroke:#6AA845;stroke-width:2;stroke-miterlimit:10;}
	.st4{fill:none;stroke:#4D8FCC;stroke-width:2;stroke-miterlimit:10;}
	.st5{fill:none;stroke:#FFB71B;stroke-width:2;stroke-miterlimit:10;}
	.st6{fill:none;stroke:#616161;stroke-width:2;stroke-miterlimit:10;}
</style>
<g>
	<path class="st0" d="M374.1,394l-3.7-5.9v-22.8c0-1.9-1.5-3.5-3.5-3.5h0h-34.7c-1.9,0-3.5,1.6-3.5,3.5v22.8l-3.7,5.9
		c-0.1,0.2-0.2,0.4-0.2,0.6v0.8c0,2.3,1.9,4.2,4.2,4.2H370c2.3,0,4.2-1.9,4.2-4.2v-0.8C374.3,394.3,374.2,394.1,374.1,394z
		 M331.1,365.3c0-0.6,0.5-1.2,1.2-1.2h15.3l0.1,0.8h3.9l0.2-0.8H367c0.6,0,1.2,0.5,1.2,1.2v22.4h-37V365.3z M330.8,389.2h37.6l3.1,5
		h-15.8l-0.3-1.9h-11.6l-0.3,1.9h-15.8L330.8,389.2z M372,395.3c0,1.1-0.9,1.9-1.9,1.9h-40.9c-1.1,0-1.9-0.9-1.9-1.9V395H372V395.3z
		"/>
	<path class="st0" d="M333,386.1h33.2V366H333V386.1z M333.8,366.8h31.6v18.5h-31.6L333.8,366.8z"/>
	<path class="st1" d="M326.2,417c1.1,0,2.1,0.4,2.9,1.1l0,0.2l0,0l-0.2,0.2h-0.2c-1.6-1.4-3.9-1.2-5.3,0.4c-1.4,1.6-1.2,3.9,0.4,5.3
		c0.7,0.6,1.5,0.9,2.4,0.9c0.9,0,1.8-0.4,2.5-1h0.2l0.2,0.2l0,0.2l0,0c-0.8,0.8-1.8,1.2-2.9,1.2c-2.4,0-4.3-1.9-4.3-4.3
		S323.8,417,326.2,417L326.2,417z"/>
	<path class="st1" d="M330,420.9c-0.1-0.1,0-0.2,0.1-0.2h0.3l0.2,0.1l2.1,4.1l1.9-4.1l0.2-0.1h0.3c0.1,0,0.1,0.1,0.1,0.2l-3.8,8.1
		l-0.2,0.1h-0.2c-0.1,0-0.1-0.1-0.1-0.2l1.6-3.5L330,420.9z"/>
	<path class="st1" d="M336.5,417.3l0.2-0.2h0.2l0.2,0.2v3.8c0.4-0.3,1-0.5,1.5-0.5c1.4,0.1,2.4,1.3,2.3,2.7c-0.1,1.2-1,2.2-2.2,2.3
		c-0.6,0-1.2-0.3-1.7-0.7l0,0.4l-0.1,0.2l0,0h-0.1l-0.2-0.2L336.5,417.3z M338.6,425.2c1.1-0.2,1.9-1.2,1.7-2.3
		c-0.1-1-0.9-1.7-1.9-1.8c-0.5,0-1,0.2-1.4,0.5v2.7C337.4,424.8,338,425.2,338.6,425.2z"/>
	<path class="st1" d="M344.8,420.6c1.2,0,2.1,0.9,2.2,2.1l0,0.1c0,0.2,0,0.5-0.2,0.5H343c0,1,0.8,1.9,1.9,1.9c0.5,0,1-0.2,1.4-0.4
		c0.1-0.1,0.2-0.1,0.2,0l0.1,0.2l-0.1,0.2c-0.5,0.4-1.1,0.6-1.7,0.6c-1.4-0.1-2.4-1.3-2.3-2.7C342.6,421.7,343.6,420.7,344.8,420.6z
		 M346.5,422.8c0.1-0.9-0.6-1.7-1.5-1.7l-0.2,0c-1,0-1.8,0.8-1.8,1.7l0,0H346.5z"/>
	<path class="st1" d="M348.9,420.9l0.2-0.2h0.1l0.1,0.1l0,0.5c0.4-0.5,0.9-0.8,1.5-0.8c0.3,0,0.5,0,0.8,0.1c0.1,0,0.2,0.1,0.1,0.2
		l-0.1,0.2l-0.2,0.1l0,0c-0.2-0.1-0.4-0.1-0.6-0.1c-0.6,0-1.1,0.3-1.4,0.8v3.4l-0.1,0.2h0H349c-0.1,0-0.1-0.1-0.1-0.2V420.9z"/>
	<path class="st1" d="M354.9,422.4c0.4,0,0.8,0.1,1.2,0.2c0-1.1-0.1-1.6-1.1-1.6c-0.5,0-1,0.1-1.4,0.3l-0.2-0.1l0,0l-0.1-0.1
		c0-0.1,0-0.2,0.1-0.2c0.5-0.3,1.1-0.4,1.6-0.4c1.5,0,1.5,0.9,1.5,2.1v2.7l-0.2,0.2h-0.1l-0.1-0.1l-0.1-0.4c-0.5,0.4-1,0.7-1.7,0.7
		c-0.8,0-1.5-0.6-1.6-1.4l0-0.2C352.9,423.1,353.7,422.4,354.9,422.4z M354.5,425.2c0.6,0,1.2-0.3,1.6-0.8v-1.3
		c-0.4-0.2-0.8-0.2-1.2-0.2c-0.9,0-1.5,0.5-1.5,1.2C353.4,424.6,353.9,425.1,354.5,425.2L354.5,425.2z"/>
	<path class="st1" d="M358.9,420.9l0.2-0.2h0.1l0.1,0.1v0l0.1,0.5c0.4-0.5,0.9-0.8,1.5-0.8c0.3,0,0.5,0,0.8,0.1
		c0.1,0,0.2,0.1,0.1,0.2l-0.1,0.2l-0.2,0.1c-0.2-0.1-0.4-0.1-0.6-0.1c-0.6,0-1.1,0.3-1.4,0.8v3.4l-0.1,0.2h0H359l-0.1-0.1v0
		L358.9,420.9z"/>
	<path class="st1" d="M363.3,417.3l0.1-0.2h0h0.2l0.2,0.1l0,0v5.4l2.6-1.9l0.2-0.1h0.3c0.1,0,0.1,0.2,0,0.2l-2.6,1.9l2.9,2.5l0,0.2
		l-0.1,0h-0.4l-0.2-0.1l-2.8-2.4v2.3c0,0.1,0,0.2-0.2,0.2h-0.2l-0.1-0.2L363.3,417.3z"/>
	<polygon class="st1" points="372.3,417.3 372.5,417.1 372.5,417.1 377.3,417.1 377.4,417.3 377.4,417.5 377.3,417.6 377.3,417.6 
		372.9,417.6 372.9,420.9 376.7,420.9 376.8,421.1 376.8,421.3 376.7,421.5 372.9,421.5 372.9,425 377.3,425 377.4,425.2 
		377.4,425.4 377.3,425.5 372.4,425.5 372.3,425.4 372.3,425.4 	"/>
	<path class="st1" d="M379.5,420.9c0-0.1,0.1-0.2,0.2-0.2h0h0.1l0.1,0.1l0,0.5c0.5-0.5,1.1-0.7,1.8-0.8c1.3,0,1.9,0.9,1.9,2.2v2.6
		l-0.2,0.2h-0.3l-0.2-0.1v0v-2.6c0-1.1-0.5-1.7-1.4-1.7c-0.7,0-1.3,0.3-1.7,0.8v3.4l-0.1,0.2h0h-0.2l-0.1-0.1l0,0L379.5,420.9z"/>
	<path class="st1" d="M387.9,420.6c0.5,0,1.1,0.2,1.5,0.5v-3.8l0.1-0.2h0h0.2l0.1,0.2v8.1l-0.2,0.2h-0.1l-0.2-0.1l0,0v-0.4
		c-0.4,0.4-1,0.7-1.7,0.7c-1.3-0.1-2.3-1.2-2.3-2.5l0-0.1C385.5,421.8,386.5,420.7,387.9,420.6L387.9,420.6z M387.8,425.2
		c0.6,0,1.2-0.3,1.6-0.8v-2.7c-0.4-0.3-0.9-0.5-1.4-0.5c-1.1,0.1-2,1-1.9,2.1C386.1,424.2,386.8,425,387.8,425.2z"/>
	<path class="st1" d="M392.7,429l-0.2,0.2h-0.2l-0.2-0.1v0v-8.1l0.2-0.2h0h0.1l0.1,0.1l0,0l0,0.3c0.4-0.4,1-0.6,1.6-0.6
		c1.3,0,2.4,1.1,2.3,2.4l0,0.1c0.1,1.3-1,2.5-2.3,2.5l-0.1,0c-0.5,0-1-0.2-1.4-0.5V429z M394.1,425.2c1.1,0,1.9-0.8,2-1.9l0-0.1
		c0.1-1-0.7-1.9-1.7-2l-0.1,0c-0.6,0-1.1,0.2-1.5,0.7v2.8C393.1,425,393.6,425.1,394.1,425.2L394.1,425.2z"/>
	<path class="st1" d="M400.6,420.6c1.4-0.1,2.6,1,2.6,2.4c0.1,1.4-1,2.6-2.4,2.6c-1.4,0.1-2.6-1-2.6-2.4l0-0.1
		C398.1,421.7,399.2,420.6,400.6,420.6L400.6,420.6z M400.6,425.2c1.1,0.1,2.1-0.8,2.2-1.9c0.1-1.1-0.8-2.1-1.9-2.2
		c-1.1-0.1-2.1,0.8-2.2,1.9l0,0.1C398.6,424.2,399.5,425.1,400.6,425.2L400.6,425.2z"/>
	<path class="st1" d="M404.8,418c0-0.2,0.1-0.4,0.4-0.5c0.2,0,0.4,0.1,0.5,0.4v0.1c0,0.2-0.2,0.4-0.5,0.4
		C405,418.3,404.8,418.2,404.8,418z M404.9,420.9l0.2-0.2h0.2l0.2,0.2v4.5l-0.1,0.2h0h-0.2l-0.1-0.1v0V420.9z"/>
	<path class="st1" d="M407.8,420.9l0.2-0.2h0h0.1l0.1,0.1l0,0l0,0.5c0.5-0.5,1.1-0.7,1.8-0.8c1.3,0,1.9,0.9,1.9,2.2v2.6l-0.2,0.2
		h-0.2l-0.2-0.2v-2.6c0-1.1-0.5-1.7-1.4-1.7c-0.7,0-1.3,0.3-1.7,0.8v3.4l-0.1,0.2h0h-0.2l-0.1-0.2V420.9z"/>
	<path class="st1" d="M414.4,421.2h-0.6c-0.1,0-0.1-0.1-0.1-0.1v-0.2l0.1-0.1h0.6v-1.3l0.1-0.2l0,0h0.2l0.2,0.2v1.3h1.7l0.2,0.1v0
		v0.2l-0.1,0.1h0h-1.7v3.1c0,0.6,0.1,0.9,0.6,0.9c0.4,0,0.8-0.1,1.1-0.3l0.2,0l0,0l0.1,0.1l0,0.2l0,0c-0.4,0.3-0.9,0.4-1.4,0.4
		c-1,0-1.1-0.6-1.1-1.4V421.2z"/>
	<path class="st1" d="M324.8,431.5l0.2-0.2h2.6c1.5,0,2.7,1.2,2.7,2.7c0,1.5-1.2,2.7-2.7,2.7h-2.2v2.8c0,0.1-0.1,0.2-0.2,0.2H325
		l-0.2-0.2L324.8,431.5z M327.5,436.2c1.2,0,2.2-1,2.2-2.2c0-1.2-1-2.1-2.2-2.1h-2.1v4.3H327.5z"/>
	<path class="st1" d="M331.8,435.1l0.2-0.2h0.1l0.1,0.1v0l0.1,0.5c0.4-0.5,0.9-0.8,1.5-0.8c0.3,0,0.5,0,0.8,0.1
		c0.1,0,0.2,0.1,0.1,0.2l-0.1,0.2l-0.2,0.1l0,0c-0.2-0.1-0.4-0.1-0.6-0.1c-0.6,0-1.1,0.3-1.4,0.8v3.4c0,0.1,0,0.2-0.2,0.2H332
		c-0.1,0-0.1-0.1-0.1-0.2L331.8,435.1z"/>
	<path class="st1" d="M336.1,432.2c0-0.2,0.1-0.4,0.4-0.5c0.2,0,0.4,0.1,0.5,0.4v0.1c0,0.2-0.2,0.4-0.5,0.4
		C336.2,432.5,336.1,432.4,336.1,432.2z M336.2,435.1l0.2-0.2h0.2l0.2,0.2v4.5l-0.1,0.2h0h-0.2l-0.1-0.1v0V435.1z"/>
	<path class="st1" d="M338.3,435.2c0-0.1,0-0.2,0.1-0.2h0.3l0.2,0.1l1.7,4l1.7-4l0.2-0.1h0.3c0.1,0,0.1,0.1,0.1,0.2l-2.1,4.6
		l-0.2,0.1h0c-0.1,0-0.1,0-0.1-0.1L338.3,435.2z"/>
	<path class="st1" d="M344.3,432.2c0-0.2,0.2-0.4,0.4-0.4c0.2,0,0.4,0.2,0.4,0.4c0,0.2-0.2,0.4-0.4,0.4
		C344.4,432.6,344.3,432.4,344.3,432.2z M344.4,435.1l0.2-0.2h0.2l0.2,0.2v4.5l-0.1,0.2h0h-0.2c-0.1,0-0.1-0.1-0.1-0.2V435.1z"/>
	<polygon class="st1" points="347.3,431.5 347.4,431.4 347.6,431.4 347.8,431.5 347.8,439.6 347.7,439.8 347.6,439.8 347.4,439.8 
		347.2,439.6 347.3,439.6 	"/>
	<path class="st1" d="M352.1,434.8c1.2,0,2.1,0.9,2.2,2l0,0.2c0,0.2,0,0.5-0.2,0.5h-3.8c0,1,0.8,1.9,1.9,1.9c0.5,0,1-0.2,1.4-0.4
		c0.1-0.1,0.2-0.1,0.2,0l0.1,0.2l0,0.2c-0.5,0.4-1.1,0.6-1.7,0.6c-1.4-0.1-2.4-1.3-2.3-2.7C349.9,435.9,350.8,434.9,352.1,434.8
		L352.1,434.8z M353.7,437.1c0.1-0.9-0.6-1.7-1.5-1.7l-0.2,0c-1,0-1.8,0.8-1.8,1.7l0,0H353.7z"/>
	<path class="st1" d="M356.5,438.1c-0.2-0.4-0.4-0.8-0.4-1.2c0-1.1,0.8-2,1.9-2l0.2,0h2l0.2,0.1v0v0.1l-0.1,0.2l-0.9,0.1
		c0.5,0.3,0.8,0.9,0.8,1.5c0,1.1-0.8,2-1.9,2h-0.1c-0.5,0-0.9-0.1-1.3-0.4c-0.4,0.1-0.6,0.5-0.6,0.9c0,0.6,0.5,0.7,0.9,0.7h1.7
		c1,0,1.8,0.5,1.8,1.5s-1,2-2.4,2c-1.6,0-2.3-1-2.3-1.8c0-0.5,0.3-1,0.8-1.3c-0.5-0.1-0.9-0.6-0.9-1.1
		C355.7,438.8,356,438.3,356.5,438.1z M358.2,443c1.1,0,1.9-0.6,1.9-1.5c0-0.6-0.3-1.1-1.2-1.1h-1.5c-0.5,0.1-0.9,0.6-1,1.2
		C356.4,442.3,357,443,358.2,443z M359.6,436.9c0-0.8-0.6-1.5-1.3-1.5h-0.2c-0.8,0-1.5,0.7-1.5,1.5c0,0.8,0.7,1.5,1.5,1.5
		S359.6,437.7,359.6,436.9z"/>
	<path class="st1" d="M364.2,434.8c1.2,0,2.1,0.9,2.2,2.1l0,0.1c0,0.2,0,0.5-0.2,0.5h-3.8c0,1,0.8,1.9,1.9,1.9c0.5,0,1-0.2,1.4-0.4
		c0.1-0.1,0.2-0.1,0.2,0l0.1,0.2l-0.1,0.2c-0.5,0.4-1.1,0.6-1.7,0.6c-1.4-0.1-2.4-1.3-2.3-2.7C362,435.9,363,434.9,364.2,434.8z
		 M365.8,437.1c0.1-0.9-0.6-1.7-1.5-1.7l-0.2,0c-1,0-1.8,0.8-1.8,1.7v0H365.8z"/>
	<path class="st1" d="M372.8,431.3l0.1-0.1h0.1l0.1,0.1l2.5,7.4l2.5-7.4l0.1-0.1h0.1l0.1,0.1l1.7,8.3c0,0.1,0,0.2-0.1,0.2h-0.3
		l-0.1-0.1l-1.4-7l-2.5,7.2l-0.2,0.1h0c-0.1,0-0.1,0-0.2-0.1l-2.4-7.2l-1.4,7l-0.1,0.1h-0.3c-0.1,0-0.2,0-0.1-0.2L372.8,431.3z"/>
	<path class="st1" d="M383.7,436.7c0.4,0,0.8,0.1,1.2,0.2c0-1.1-0.1-1.6-1.1-1.6c-0.5,0-1,0.1-1.4,0.3l-0.2-0.1l0,0l-0.1-0.1
		l0.1-0.2l0,0c0.5-0.3,1.1-0.4,1.6-0.4c1.5,0,1.5,0.9,1.5,2.1v2.7l-0.2,0.2h-0.1l-0.1-0.1l0-0.4c-0.5,0.4-1,0.7-1.7,0.7
		c-0.8,0-1.5-0.6-1.6-1.4l0-0.2C381.7,437.4,382.5,436.7,383.7,436.7z M383.3,439.4c0.6,0,1.2-0.3,1.6-0.8v-1.3
		c-0.4-0.2-0.8-0.2-1.2-0.2c-0.9,0-1.5,0.5-1.5,1.2C382.2,438.9,382.7,439.4,383.3,439.4L383.3,439.4z"/>
	<path class="st1" d="M387.7,435.1l0.2-0.2h0h0.1l0.1,0.1l0,0l0,0.5c0.5-0.5,1.1-0.7,1.8-0.8c1.3,0,1.9,0.9,1.9,2.2v2.6l-0.2,0.2
		h-0.2l-0.2-0.2v-2.6c0-1.1-0.5-1.7-1.4-1.7c-0.7,0-1.3,0.3-1.7,0.8v3.4l-0.1,0.2h0h-0.2l-0.1-0.2L387.7,435.1z"/>
	<path class="st1" d="M395.8,436.7c0.4,0,0.8,0.1,1.2,0.2c0-1.1-0.1-1.6-1.1-1.6c-0.5,0-1,0.1-1.4,0.3c-0.1,0-0.2,0-0.2-0.1
		l-0.1-0.1c0-0.1,0-0.2,0.1-0.2c0.5-0.3,1.1-0.4,1.6-0.4c1.5,0,1.5,0.9,1.5,2.1v2.7l-0.1,0.2h0h-0.2l-0.1-0.1l0-0.4
		c-0.5,0.4-1,0.7-1.7,0.7c-0.8,0-1.5-0.6-1.6-1.4l0-0.2C393.8,437.4,394.5,436.7,395.8,436.7L395.8,436.7z M395.4,439.4
		c0.6,0,1.2-0.3,1.6-0.8v-1.3c-0.4-0.2-0.8-0.2-1.2-0.2c-0.9,0-1.5,0.5-1.5,1.2C394.2,438.9,394.7,439.4,395.4,439.4L395.4,439.4z"
		/>
	<path class="st1" d="M400,438.1c-0.2-0.4-0.4-0.8-0.4-1.2c0-1.1,0.8-2,1.9-2l0.2,0h2l0.2,0.1v0v0.1l-0.1,0.2l-0.9,0.1
		c0.5,0.3,0.8,0.9,0.8,1.5c0,1.1-0.8,2-1.9,2h-0.1c-0.5,0-0.9-0.1-1.3-0.4c-0.4,0.1-0.6,0.5-0.6,0.9c0,0.6,0.5,0.7,0.9,0.7h1.7
		c1,0,1.8,0.5,1.8,1.5s-1,2-2.4,2c-1.6,0-2.3-1-2.3-1.8c0-0.5,0.3-1,0.8-1.3c-0.5-0.1-0.9-0.6-0.9-1.1
		C399.3,438.8,399.6,438.3,400,438.1z M401.7,443c1.1,0,1.9-0.6,1.9-1.5c0-0.6-0.3-1.1-1.2-1.1h-1.5c-0.5,0.1-0.9,0.6-1,1.2
		C399.9,442.3,400.6,443,401.7,443z M403.1,436.9c0-0.8-0.6-1.5-1.3-1.5h-0.2c-0.8,0-1.5,0.7-1.5,1.5c0,0.8,0.6,1.5,1.4,1.5h0.1
		C402.4,438.4,403.1,437.8,403.1,436.9L403.1,436.9z"/>
	<path class="st1" d="M407.8,434.8c1.2,0,2.1,0.9,2.2,2.1l0,0.1c0,0.2,0,0.5-0.2,0.5h-3.8c0,1,0.8,1.9,1.9,1.9c0.5,0,1-0.2,1.4-0.4
		c0.1-0.1,0.2-0.1,0.2,0l0.1,0.2l-0.1,0.2c-0.5,0.4-1.1,0.6-1.7,0.6c-1.4-0.1-2.4-1.3-2.3-2.7C405.5,435.9,406.5,434.9,407.8,434.8z
		 M409.4,437.1c0.1-0.9-0.6-1.7-1.5-1.7l-0.2,0c-1,0-1.8,0.8-1.8,1.7v0H409.4z"/>
	<path class="st1" d="M411.8,435.1l0.2-0.2h0.1l0.2,0.1l0,0.5c0.4-0.5,0.9-0.8,1.5-0.8c0.3,0,0.5,0,0.8,0.1c0.1,0,0.2,0.1,0.1,0.2
		l-0.1,0.2l-0.2,0.1l0,0c-0.2-0.1-0.4-0.1-0.6-0.1c-0.6,0-1.1,0.3-1.4,0.8v3.4l-0.1,0.2h0H412l-0.1-0.1v0L411.8,435.1z"/>
	<path class="st1" d="M334.1,453.9l3.7-8.4l0.1-0.1h0l0.2,0.1l3.7,8.4c0,0.1,0,0.1-0.1,0.1h-0.3l-0.2-0.1l-1-2.3h-4.6l-1,2.3
		l-0.2,0.1h-0.3C334.1,454,334,454,334.1,453.9L334.1,453.9z M340,451.2l-2.1-4.8l-2.1,4.8H340z"/>
	<path class="st1" d="M345.2,449.1c0.5,0,1.1,0.2,1.5,0.5v-3.8l0.1-0.2h0h0.2l0.1,0.2v8.1l-0.1,0.2h0H347l-0.2-0.1l0,0l0-0.4
		c-0.4,0.4-1,0.7-1.7,0.7c-1.3-0.1-2.3-1.2-2.3-2.5l0-0.1c-0.1-1.3,0.9-2.4,2.3-2.5L345.2,449.1z M345.1,453.7
		c0.6,0,1.2-0.3,1.6-0.8v-2.7c-0.4-0.3-0.9-0.5-1.4-0.5c-1.1,0.1-2,1-1.9,2.1C343.4,452.7,344.2,453.5,345.1,453.7z"/>
	<path class="st1" d="M349.5,449.4l0.2-0.2h0.1l0.1,0.1l0.1,0.5c0.4-0.5,1-0.8,1.7-0.8c0.7,0,1.3,0.3,1.6,0.9
		c0.4-0.5,1.1-0.9,1.8-0.9c1.3,0,1.9,0.9,1.9,2.2v2.6l-0.2,0.2h-0.2l-0.1-0.2v0v-2.6c0-1.1-0.5-1.7-1.4-1.7c-0.6,0-1.2,0.3-1.6,0.8
		c0.1,0.3,0.1,0.6,0.1,0.9v2.6l-0.2,0.2h-0.2l-0.1-0.1l0,0v-2.6c0-1.1-0.5-1.7-1.4-1.7c-0.6,0-1.2,0.3-1.6,0.8v3.4l-0.1,0.2h0h-0.2
		l-0.1-0.1l0,0L349.5,449.4z"/>
	<path class="st1" d="M359,446.5c0-0.2,0.1-0.4,0.4-0.5c0.2,0,0.4,0.1,0.5,0.4v0.1c0,0.2-0.2,0.4-0.5,0.4
		C359.2,446.8,359,446.7,359,446.5z M359.2,449.4l0.2-0.2h0.2l0.2,0.2v4.5l-0.1,0.2h0h-0.2c-0.1,0-0.1-0.1-0.1-0.2V449.4z"/>
	<path class="st1" d="M362,449.4l0.2-0.2h0h0.1l0.1,0.1l0,0l0.1,0.5c0.5-0.5,1.1-0.7,1.8-0.8c1.3,0,1.9,0.9,1.9,2.2v2.6L366,454
		h-0.2l-0.2-0.2v-2.6c0-1.1-0.5-1.7-1.4-1.7c-0.7,0-1.3,0.3-1.7,0.8v3.4l-0.1,0.2h0h-0.2l-0.1-0.2L362,449.4z"/>
	<path class="st1" d="M368.3,446.5c0-0.2,0.2-0.4,0.4-0.4c0.2,0,0.4,0.2,0.4,0.4c0,0.2-0.2,0.4-0.4,0.4
		C368.4,446.9,368.3,446.7,368.3,446.5z M368.4,449.4l0.2-0.2h0.2l0.2,0.2v4.5l-0.1,0.2h0h-0.2c-0.1,0-0.1-0.1-0.1-0.2V449.4z"/>
	<path class="st1" d="M371,453.4l0.1-0.2l0.2,0l0,0c0.4,0.3,0.8,0.5,1.3,0.5c0.7,0,1.2-0.4,1.2-0.9s-0.5-0.8-1.3-1.1
		s-1.5-0.7-1.5-1.4c0-0.5,0.5-1.2,1.6-1.2c0.5,0,1,0.1,1.4,0.4l0,0.2l-0.1,0.1l-0.2,0.1l0,0c-0.3-0.2-0.7-0.3-1.1-0.3
		c-0.8,0-1,0.5-1,0.8c0,0.5,0.4,0.7,1.1,1c0.9,0.3,1.7,0.6,1.7,1.5c-0.1,0.8-0.9,1.4-1.7,1.3c-0.6,0-1.1-0.2-1.6-0.5L371,453.4z"/>
	<path class="st1" d="M376.4,449.7h-0.6c-0.1,0-0.1-0.1-0.1-0.1v-0.2l0.1-0.1h0.6v-1.3l0.1-0.2l0,0h0.2l0.2,0.2v1.3h1.7l0.2,0.1v0
		v0.2l-0.1,0.2l0,0h-1.7v3.1c0,0.6,0.1,0.9,0.6,0.9c0.4,0,0.8-0.1,1.1-0.3c0.1-0.1,0.2,0,0.2,0.1l0.1,0.1l0,0.2l0,0
		c-0.4,0.3-0.9,0.4-1.4,0.4c-1,0-1.1-0.6-1.1-1.4V449.7z"/>
	<path class="st1" d="M380.6,449.4l0.2-0.2h0.1l0.1,0.1l0,0.5c0.4-0.5,0.9-0.8,1.5-0.8c0.3,0,0.5,0,0.8,0.1c0.1,0,0.2,0.1,0.1,0.2
		l-0.1,0.2l-0.2,0.1c-0.2-0.1-0.4-0.1-0.6-0.1c-0.6,0-1.1,0.3-1.4,0.8v3.4L381,454h0h-0.2c-0.1,0-0.1-0.1-0.1-0.2V449.4z"/>
	<path class="st1" d="M386.6,450.9c0.4,0,0.8,0.1,1.2,0.2c0-1.1-0.1-1.6-1-1.6c-0.5,0-1,0.1-1.4,0.3c-0.1,0-0.1,0-0.2-0.1l-0.1-0.1
		c0-0.1,0-0.2,0.1-0.2c0.5-0.3,1.1-0.4,1.6-0.4c1.5,0,1.5,0.9,1.5,2.1v2.7l-0.2,0.2H388l-0.2-0.1l0-0.4c-0.5,0.4-1,0.7-1.7,0.7
		c-0.8,0-1.5-0.6-1.6-1.4l0-0.2C384.6,451.6,385.3,450.9,386.6,450.9z M386.2,453.7c0.6,0,1.2-0.3,1.6-0.8v-1.3
		c-0.4-0.2-0.8-0.2-1.2-0.2c-0.9,0-1.5,0.5-1.5,1.2C385.1,453.1,385.5,453.6,386.2,453.7L386.2,453.7z"/>
	<path class="st1" d="M390.8,449.7h-0.6c-0.1,0-0.1-0.1-0.1-0.1v-0.2l0.1-0.1h0.6v-1.3l0.1-0.2l0,0h0.2l0.2,0.2v1.3h1.7l0.2,0.1v0
		v0.2l-0.1,0.2l0,0h-1.7v3.1c0,0.6,0.1,0.9,0.6,0.9c0.4,0,0.8-0.1,1.1-0.3c0.1-0.1,0.2,0,0.2,0.1l0.1,0.1l0,0.2l0,0
		c-0.4,0.3-0.9,0.4-1.4,0.4c-1,0-1.1-0.6-1.1-1.4L390.8,449.7z"/>
	<path class="st1" d="M397,449.1c1.4-0.1,2.6,1,2.6,2.4c0.1,1.4-1,2.6-2.4,2.6c-1.4,0.1-2.6-1-2.6-2.4l0-0.1
		C394.6,450.3,395.7,449.1,397,449.1z M397,453.7c1.1,0.1,2.1-0.8,2.2-1.9c0.1-1.1-0.8-2.1-1.9-2.2c-1.1-0.1-2.1,0.8-2.2,1.9l0,0.1
		C395.1,452.7,395.9,453.6,397,453.7L397,453.7z"/>
	<path class="st1" d="M401.4,449.4l0.2-0.2h0.1l0.1,0.1v0l0.1,0.5c0.4-0.5,0.9-0.8,1.5-0.8c0.3,0,0.5,0,0.8,0.1
		c0.1,0,0.2,0.1,0.1,0.2l-0.1,0.2l-0.2,0.1l0,0c-0.2-0.1-0.4-0.1-0.6-0.1c-0.6,0-1.1,0.3-1.4,0.8v3.4c0,0.1,0,0.2-0.2,0.2h-0.2
		c-0.1,0-0.1-0.1-0.1-0.2L401.4,449.4z"/>
	<path class="st0" d="M49.2,394l-3.7-5.9v-22.8c0-1.9-1.6-3.5-3.5-3.5H7.3c-1.9,0-3.5,1.6-3.5,3.5v22.8L0.2,394
		c-0.1,0.2-0.2,0.4-0.2,0.6v0.8c0,2.3,1.9,4.2,4.2,4.2h40.9c2.3,0,4.2-1.9,4.2-4.2v-0.8C49.4,394.4,49.3,394.1,49.2,394z M6.2,365.3
		c0-0.6,0.5-1.2,1.2-1.2h15.3l0.1,0.8h3.9l0.1-0.8H42c0.6,0,1.2,0.5,1.2,1.2v22.4h-37V365.3z M5.9,389.2h37.6l3.1,5H30.8l-0.3-1.9
		H18.9l-0.3,1.9H2.8L5.9,389.2z M47.1,395.3c0,1.1-0.9,1.9-1.9,1.9H4.2c-1.1,0-1.9-0.9-1.9-1.9V395h44.7V395.3z"/>
	<path class="st0" d="M8.1,386.1h33.1V366H8.1V386.1z M8.9,366.8h31.6v18.5H8.9L8.9,366.8z"/>
	<path class="st1" d="M25.2,417.3l0.1-0.2h0h3c1.4,0,2.6,1.1,2.7,2.5l0,0c0,1.2-0.8,2.2-2,2.5l1.7,3.1c0.1,0.1,0,0.2-0.1,0.2h-0.4
		l-0.2-0.1l-1.7-3.2c-0.2,0-0.3,0-0.5,0h-2.2v3.1c0,0.1-0.1,0.2-0.2,0.2h-0.2l-0.2-0.2l0,0V417.3z M28.3,421.8
		c1.2,0,2.1-0.9,2.1-2.1l0,0c0-1.1-1-2-2.1-2h0h-2.5v4.1H28.3z"/>
	<path class="st1" d="M34.8,420.6c1.2,0,2.1,0.9,2.2,2.1l0,0.1c0,0.2,0,0.5-0.2,0.5H33c0,1,0.8,1.9,1.9,1.9c0.5,0,1-0.2,1.4-0.4
		c0.1-0.1,0.2-0.1,0.2,0l0.1,0.2l-0.1,0.2c-0.5,0.4-1.1,0.6-1.7,0.6c-1.4-0.1-2.4-1.3-2.3-2.7C32.6,421.7,33.6,420.7,34.8,420.6
		L34.8,420.6z M36.5,422.8c0.1-0.9-0.6-1.7-1.5-1.7l-0.2,0c-1,0-1.8,0.8-1.8,1.7L36.5,422.8z"/>
	<path class="st1" d="M38.9,420.9l0.1-0.1h0.1l0.1,0.1l0.1,0.5c0.4-0.5,1-0.8,1.7-0.8c0.7-0.1,1.3,0.3,1.6,0.9
		c0.4-0.5,1.1-0.9,1.8-0.9c1.3,0,1.9,0.9,1.9,2.2v2.6l-0.2,0.2h-0.2l-0.1-0.1l0,0v-2.6c0-1.1-0.5-1.7-1.4-1.7
		c-0.6,0-1.2,0.3-1.6,0.8c0.1,0.3,0.1,0.6,0.1,0.9v2.6l-0.2,0.2h0h-0.2l-0.1-0.1l0,0v-2.6c0-1.1-0.5-1.7-1.4-1.7
		c-0.6,0-1.2,0.3-1.6,0.8v3.4l-0.1,0.2h0H39l-0.1-0.2L38.9,420.9z"/>
	<path class="st1" d="M50.6,420.6c1.4-0.1,2.6,1,2.6,2.4c0.1,1.4-1,2.6-2.4,2.6c-1.4,0.1-2.6-1-2.6-2.4l0-0.1
		C48.1,421.7,49.2,420.6,50.6,420.6z M50.6,425.2c1.1,0.1,2.1-0.8,2.2-1.9c0.1-1.1-0.8-2.1-1.9-2.2c-1.1-0.1-2.1,0.8-2.2,1.9l0,0.1
		C48.6,424.2,49.4,425.1,50.6,425.2L50.6,425.2z"/>
	<path class="st1" d="M55.1,421.2h-0.6c-0.1,0-0.1-0.1-0.1-0.1v-0.2l0.1-0.1h0.6v-1.3l0.1-0.2l0,0h0.2l0.2,0.2v1.3h1.7l0.2,0.1v0
		v0.2l-0.1,0.2l0,0h-1.7v3.1c0,0.6,0.1,0.9,0.6,0.9c0.4,0,0.8-0.1,1.1-0.3c0.1-0.1,0.1,0,0.2,0.1l0.1,0.1l0,0.2l0,0
		c-0.4,0.3-0.9,0.4-1.4,0.4c-1,0-1.1-0.6-1.1-1.4L55.1,421.2z"/>
	<path class="st1" d="M61.4,420.6c1.2,0,2.1,0.9,2.2,2.1l0,0.1c0,0.2,0,0.5-0.2,0.5h-3.8c0,1,0.8,1.9,1.9,1.9c0.5,0,1-0.2,1.4-0.4
		c0.1-0.1,0.2-0.1,0.2,0l0.1,0.2l-0.1,0.2c-0.5,0.4-1.1,0.6-1.7,0.6c-1.4-0.1-2.4-1.3-2.3-2.7C59.1,421.7,60.1,420.7,61.4,420.6z
		 M63,422.8c0.1-0.9-0.6-1.7-1.5-1.7l-0.2,0c-1,0-1.8,0.8-1.8,1.7v0H63z"/>
	<path class="st1" d="M14.1,431.5l0.2-0.2h0.3l0.2,0.2v7.7h3.8c0.1,0,0.2,0.1,0.2,0.2v0.2l-0.2,0.1h-4.3l-0.2-0.2L14.1,431.5z"/>
	<path class="st1" d="M21.8,436.7c0.4,0,0.8,0.1,1.2,0.2c0-1.1-0.1-1.6-1.1-1.6c-0.5,0-1,0.1-1.4,0.3l-0.2-0.1l0,0l-0.1-0.1l0.1-0.2
		l0,0c0.5-0.3,1.1-0.4,1.6-0.4c1.5,0,1.5,0.9,1.5,2.1v2.7l-0.1,0.2h0h-0.1l-0.1-0.1l0-0.4c-0.5,0.4-1.1,0.7-1.7,0.7
		c-0.8,0-1.5-0.6-1.6-1.4l0-0.2C19.7,437.4,20.5,436.7,21.8,436.7z M21.4,439.4c0.6,0,1.2-0.3,1.6-0.8v-1.3
		c-0.4-0.2-0.8-0.2-1.2-0.2c-0.9,0-1.5,0.5-1.5,1.2C20.2,438.9,20.7,439.4,21.4,439.4L21.4,439.4L21.4,439.4z"/>
	<path class="st1" d="M26.3,443.3l-0.2,0.2h-0.2l-0.2-0.1l0,0v-8.1l0.2-0.2h0H26l0.1,0.1l0,0v0.3c0.4-0.4,1-0.6,1.6-0.6
		c1.3,0,2.4,1.1,2.3,2.4l0,0.1c0.1,1.3-1,2.5-2.3,2.5l-0.1,0c-0.5,0-1-0.2-1.4-0.5L26.3,443.3z M27.6,439.4c1.1,0,1.9-0.8,2-1.9
		l0-0.1c0.1-1-0.7-1.9-1.7-2l-0.1,0c-0.6,0-1.1,0.2-1.5,0.7v2.8C26.6,439.2,27.1,439.4,27.6,439.4L27.6,439.4z"/>
	<path class="st1" d="M32.3,435.4h-0.6c-0.1,0-0.1-0.1-0.1-0.1v-0.2l0.1-0.1h0.6v-1.3l0.1-0.2l0,0h0.2l0.2,0.2v1.3h1.7l0.2,0.1l0,0
		v0.2l-0.1,0.1h0h-1.7v3.1c0,0.6,0.1,0.9,0.6,0.9c0.4,0,0.8-0.1,1.1-0.4l0.2,0l0,0l0.1,0.1l0,0.2l0,0c-0.4,0.3-0.9,0.4-1.4,0.4
		c-1,0-1.1-0.6-1.1-1.4L32.3,435.4z"/>
	<path class="st1" d="M38.5,434.8c1.4-0.1,2.6,1,2.6,2.4c0.1,1.4-1,2.6-2.4,2.6c-1.4,0.1-2.6-1-2.6-2.4l0-0.1
		C36.1,436,37.1,434.9,38.5,434.8z M38.5,439.4c1.1,0.1,2.1-0.8,2.2-1.9c0.1-1.1-0.8-2.1-1.9-2.2c-1.1-0.1-2.1,0.8-2.2,1.9l0,0.1
		C36.6,438.4,37.4,439.3,38.5,439.4L38.5,439.4z"/>
	<path class="st1" d="M43.4,443.3l-0.2,0.2H43l-0.2-0.1l0,0v-8.1L43,435h0h0.1l0.1,0.1l0,0v0.3c0.4-0.4,1-0.6,1.6-0.6
		c1.3,0,2.4,1.1,2.4,2.4l0,0.1c0.1,1.3-1,2.5-2.3,2.5l-0.1,0c-0.5,0-1-0.2-1.4-0.5L43.4,443.3z M44.7,439.4c1.1,0,1.9-0.8,2-1.9
		l0-0.1c0.1-1-0.7-1.9-1.7-2l-0.1,0c-0.6,0-1.1,0.2-1.5,0.7v2.8C43.7,439.2,44.2,439.4,44.7,439.4L44.7,439.4z"/>
	<path class="st1" d="M52.5,431.5l0.2-0.2h0.3l0.2,0.2v5.1c0,1.4,1.2,2.6,2.6,2.6c1.4,0,2.6-1.2,2.6-2.6v0v-5.1c0-0.1,0-0.2,0.2-0.2
		h0.2l0.2,0.2v5.2c0.1,1.7-1.3,3.2-3,3.3c-1.7,0.1-3.2-1.3-3.3-3c0-0.1,0-0.2,0-0.3V431.5z"/>
	<path class="st1" d="M60.9,439.2L61,439l0.2,0l0,0c0.4,0.3,0.8,0.5,1.3,0.5c0.7,0,1.2-0.4,1.2-0.9s-0.5-0.8-1.3-1.1
		c-0.8-0.3-1.5-0.7-1.5-1.4c0-0.5,0.5-1.2,1.6-1.2c0.5,0,1,0.1,1.4,0.4l0,0.2l-0.1,0.1l-0.2,0.1l0,0c-0.3-0.2-0.7-0.3-1.1-0.3
		c-0.8,0-1,0.5-1,0.8c0,0.5,0.4,0.7,1.1,1c0.9,0.3,1.7,0.6,1.7,1.5c-0.1,0.8-0.9,1.4-1.7,1.3c-0.6,0-1.1-0.2-1.6-0.5L60.9,439.2z"/>
	<path class="st1" d="M68.1,434.8c1.2,0,2.1,0.9,2.2,2.1l0,0.1c0,0.2,0,0.5-0.2,0.5h-3.8c0,1,0.8,1.9,1.9,1.9c0.5,0,1-0.2,1.4-0.4
		c0.1-0.1,0.2-0.1,0.2,0l0.1,0.2l-0.1,0.2c-0.5,0.4-1.1,0.6-1.7,0.6c-1.4-0.1-2.4-1.3-2.3-2.7C65.9,435.9,66.8,434.9,68.1,434.8z
		 M69.7,437.1c0.1-0.9-0.6-1.7-1.5-1.7l-0.2,0c-1,0-1.8,0.8-1.8,1.7v0H69.7z"/>
	<path class="st1" d="M72.1,435.1l0.2-0.2h0.1l0.1,0.1l0,0.5c0.4-0.5,0.9-0.8,1.5-0.8c0.3,0,0.5,0,0.8,0.1c0.1,0,0.2,0.1,0.1,0.2
		l-0.1,0.2l-0.2,0.1l0,0c-0.2-0.1-0.4-0.1-0.6-0.1c-0.6,0-1.1,0.3-1.4,0.8v3.4l-0.1,0.2h0h-0.2l-0.1-0.1l0,0L72.1,435.1z"/>
	<path class="st1" d="M190.6,238.4l0.2-0.2h0.3l0.2,0.2v8.1c0,0.1-0.1,0.2-0.2,0.2h0h-0.2l-0.2-0.2V238.4z"/>
	<path class="st1" d="M193.7,242l0.2-0.2h0h0.1l0.1,0.1l0,0l0.1,0.5c0.5-0.5,1.1-0.7,1.8-0.8c1.3,0,1.9,0.9,1.9,2.2v2.6l-0.2,0.2
		h-0.2l-0.2-0.2v-2.6c0-1.1-0.5-1.7-1.4-1.7c-0.7,0-1.3,0.3-1.7,0.8v3.4c0,0.1,0,0.2-0.1,0.2h-0.2l-0.1-0.2V242z"/>
	<path class="st1" d="M200.3,242.3h-0.6c-0.1,0-0.1-0.1-0.1-0.1V242l0.1-0.1h0.6v-1.3l0.1-0.2l0,0h0.2l0.2,0.2v1.3h1.6l0.2,0.1v0
		v0.2l-0.1,0.2h0h-1.7v3.1c0,0.6,0.1,0.9,0.6,0.9c0.4,0,0.8-0.1,1.1-0.3c0.1-0.1,0.2,0,0.2,0.1l0.1,0.1l0,0.2l0,0
		c-0.4,0.3-0.9,0.4-1.4,0.4c-1,0-1.1-0.6-1.1-1.4L200.3,242.3z"/>
	<path class="st1" d="M206.6,241.7c1.2,0,2.1,0.9,2.2,2.1l0,0.1c0,0.2,0,0.5-0.2,0.5h-3.8c0,1,0.8,1.9,1.9,1.9c0.5,0,1-0.2,1.4-0.4
		c0.1-0.1,0.1-0.1,0.2,0l0.1,0.2l0,0.2c-0.5,0.4-1.1,0.6-1.7,0.6c-1.4-0.1-2.4-1.3-2.3-2.7C204.4,242.8,205.3,241.8,206.6,241.7
		L206.6,241.7z M208.2,244c0.1-0.9-0.6-1.7-1.5-1.7l-0.2,0c-1,0-1.8,0.8-1.8,1.7l0,0H208.2z"/>
	<path class="st1" d="M210.6,242l0.2-0.2h0.1l0.1,0.1v0l0.1,0.5c0.4-0.5,0.9-0.8,1.5-0.8c0.3,0,0.5,0,0.8,0.1c0.1,0,0.2,0.1,0.1,0.2
		v0l-0.1,0.2l-0.2,0.1l0,0c-0.2-0.1-0.4-0.1-0.6-0.1c-0.6,0-1.1,0.3-1.4,0.8v3.4l-0.1,0.2h0h-0.3l-0.1-0.1l0,0L210.6,242z"/>
	<path class="st1" d="M215,242l0.2-0.2h0h0.1l0.1,0.1l0,0l0.1,0.5c0.5-0.5,1.1-0.7,1.8-0.8c1.3,0,1.9,0.9,1.9,2.2v2.6l-0.2,0.2h-0.2
		l-0.2-0.2v-2.6c0-1.1-0.5-1.7-1.4-1.7c-0.7,0-1.3,0.3-1.7,0.8v3.4c0,0.1,0,0.2-0.1,0.2h-0.2l-0.1-0.2V242z"/>
	<path class="st1" d="M223.4,241.7c1.2,0,2.1,0.9,2.2,2.1l0,0.1c0,0.2,0,0.5-0.2,0.5h-3.8c0,1,0.8,1.9,1.9,1.9c0.5,0,1-0.2,1.4-0.4
		c0.1-0.1,0.2-0.1,0.2,0l0.1,0.2l0,0.2c-0.5,0.4-1.1,0.6-1.7,0.6c-1.4-0.1-2.4-1.3-2.3-2.7C221.2,242.8,222.2,241.8,223.4,241.7z
		 M225.1,244c0.1-0.9-0.6-1.7-1.5-1.7l-0.2,0c-1,0-1.8,0.8-1.8,1.7v0H225.1z"/>
	<path class="st1" d="M227.7,242.3h-0.6c-0.1,0-0.2-0.1-0.2-0.1V242l0.2-0.1h0.6v-1.3l0.1-0.2l0,0h0.2l0.2,0.2v1.3h1.7l0.2,0.1v0
		v0.2l-0.1,0.2h0h-1.7v3.1c0,0.6,0.1,0.9,0.6,0.9c0.4,0,0.8-0.1,1.1-0.3c0.1-0.1,0.2,0,0.2,0.1l0.1,0.1l0,0.2l0,0
		c-0.4,0.3-0.9,0.4-1.4,0.4c-1,0-1.1-0.6-1.1-1.4L227.7,242.3z"/>
	<path class="st0" d="M216.7,360.3h-33c-2.4,0-4.3,1.9-4.3,4.3v23.3c0,2.4,1.9,4.3,4.3,4.3h11.1v3.6H190c-0.6,0-1.1,0.5-1.1,1.1
		s0.5,1.1,1.1,1.1h20.4c0.6,0,1.1-0.5,1.1-1.1s-0.5-1.1-1.1-1.1h-4.8v-3.6h11.1c2.4,0,4.3-1.9,4.3-4.3v-23.3
		C221,362.2,219.1,360.3,216.7,360.3z M203.5,395.7H197v-3.5h6.5V395.7z M218.9,387.8c0,1.2-1,2.2-2.2,2.2h-33c-1.2,0-2.2-1-2.2-2.2
		v-23.3c0-1.2,1-2.2,2.2-2.2h32.9c1.2,0,2.2,1,2.2,2.2L218.9,387.8z"/>
	<path class="st0" d="M232.2,383.3c0.7,0,1.3,0.6,1.3,1.3c0,0.7-0.6,1.4-1.3,1.4c-0.7,0-1.4-0.6-1.4-1.4
		C230.9,383.9,231.5,383.3,232.2,383.3z"/>
	<path class="st0" d="M235.5,365.7H229v5.4h6.5V365.7z M234.4,370.1h-4.3v-3.2h4.3V370.1z"/>
	<path class="st0" d="M232.2,377.4c-1.2,0-2.2,1-2.2,2.2c0,1.2,1,2.2,2.2,2.2c1.2,0,2.2-1,2.2-2.2
		C234.4,378.3,233.4,377.4,232.2,377.4z M232.2,380.6c-0.6,0-1.1-0.5-1.1-1.1c0-0.6,0.5-1.1,1.1-1.1c0.6,0,1.1,0.5,1.1,1.1
		C233.3,380.1,232.8,380.6,232.2,380.6z"/>
	<path class="st0" d="M236.5,360.1h-8.6c-2.4,0-4.3,1.9-4.3,4.3v29.2c0,2.4,1.9,4.3,4.3,4.3h8.6c2.4,0,4.3-1.9,4.3-4.3v-29.2
		C240.9,362,238.9,360.1,236.5,360.1z M227.9,362.3h8.6c1.2,0,2.2,1,2.2,2.2v26.5h-13v-26.5C225.8,363.2,226.7,362.3,227.9,362.3z
		 M236.5,395.7h-8.6c-1.2,0-2.2-1-2.2-2.2V392h13v1.6C238.7,394.8,237.7,395.7,236.5,395.7L236.5,395.7z"/>
	<path class="st0" d="M184,387.4h32.4v-22.7H184V387.4z M185.1,365.8h30.2v20.5h-30.2V365.8z"/>
	<path class="st1" d="M149.6,417c1.1,0,2.1,0.4,2.9,1.1l0,0.2l0,0l-0.2,0.2h-0.2c-1.6-1.4-3.9-1.2-5.3,0.4c-1.4,1.6-1.2,3.9,0.4,5.3
		c0.7,0.6,1.5,0.9,2.4,0.9c0.9,0,1.8-0.4,2.5-1h0.2l0.2,0.2l0,0.2l0,0c-0.8,0.8-1.8,1.2-2.9,1.2c-2.4,0-4.3-1.9-4.3-4.3
		S147.2,417,149.6,417L149.6,417z"/>
	<path class="st1" d="M156.5,420.6c1.4-0.1,2.6,1,2.6,2.4s-1,2.6-2.4,2.6c-1.4,0.1-2.6-1-2.6-2.4l0-0.1
		C154.1,421.7,155.1,420.6,156.5,420.6z M156.5,425.2c1.1,0.1,2.1-0.8,2.2-1.9c0.1-1.1-0.8-2.1-1.9-2.2c-1.1-0.1-2.1,0.8-2.2,1.9
		l0,0.1C154.5,424.2,155.4,425.1,156.5,425.2L156.5,425.2z"/>
	<path class="st1" d="M160.8,420.9l0.1-0.2h0h0.1l0.1,0.1l0,0.5c0.4-0.5,0.9-0.8,1.5-0.8c0.3,0,0.5,0,0.8,0.1c0.1,0,0.2,0.1,0.1,0.2
		l-0.1,0.2l-0.2,0.1l0,0c-0.2-0.1-0.4-0.1-0.6-0.1c-0.6,0-1.1,0.3-1.4,0.8v3.4l-0.1,0.2h0H161c-0.1,0-0.1-0.1-0.1-0.2L160.8,420.9z"
		/>
	<path class="st1" d="M165.8,429l-0.2,0.2h-0.2l-0.2-0.1v0v-8.1l0.2-0.2h0h0.1l0.1,0.1l0,0v0.3c0.4-0.4,1-0.6,1.6-0.6
		c1.3,0,2.4,1.1,2.3,2.5l0,0.1c0.1,1.3-1,2.5-2.3,2.5l-0.1,0c-0.5,0-1-0.2-1.4-0.5L165.8,429z M167.1,425.2c1.1,0,1.9-0.8,2-1.9
		l0-0.1c0.1-1-0.7-1.9-1.7-2l-0.1,0c-0.6,0-1.1,0.2-1.5,0.7v2.8C166.1,425,166.6,425.1,167.1,425.2L167.1,425.2z"/>
	<path class="st1" d="M173.6,420.6c1.4-0.1,2.6,1,2.6,2.4c0.1,1.4-1,2.6-2.4,2.6c-1.4,0.1-2.6-1-2.6-2.4l0-0.1
		C171.2,421.7,172.2,420.6,173.6,420.6z M173.6,425.2c1.1,0.1,2.1-0.8,2.2-1.9c0.1-1.1-0.8-2.1-1.9-2.2c-1.1-0.1-2.1,0.8-2.2,1.9
		l0,0.1C171.6,424.2,172.5,425.1,173.6,425.2L173.6,425.2z"/>
	<path class="st1" d="M177.9,420.9l0.1-0.2h0h0.1l0.1,0.1l0,0.5c0.4-0.5,0.9-0.8,1.5-0.8c0.3,0,0.5,0,0.8,0.1c0.1,0,0.2,0.1,0.1,0.2
		l-0.1,0.2l-0.2,0.1c-0.2-0.1-0.4-0.1-0.6-0.1c-0.6,0-1.1,0.3-1.4,0.8v3.4l-0.1,0.2h0h-0.2c-0.1,0-0.1-0.1-0.1-0.2V420.9z"/>
	<path class="st1" d="M183.9,422.4c0.4,0,0.8,0.1,1.2,0.2c0-1.1-0.1-1.6-1.1-1.6c-0.5,0-1,0.1-1.4,0.3c-0.1,0-0.1,0-0.2-0.1
		l-0.1-0.1c0-0.1,0-0.2,0.1-0.2c0.5-0.3,1.1-0.4,1.6-0.4c1.5,0,1.5,0.9,1.5,2.1v2.7l-0.1,0.2h0h-0.1l-0.1-0.1l0-0.4
		c-0.5,0.4-1.1,0.7-1.7,0.7c-0.8,0-1.5-0.6-1.6-1.4l0-0.2C181.9,423.1,182.7,422.4,183.9,422.4z M183.6,425.2c0.6,0,1.2-0.3,1.6-0.8
		v-1.3c-0.4-0.2-0.8-0.2-1.2-0.2c-0.9,0-1.5,0.5-1.5,1.2C182.4,424.6,182.9,425.1,183.6,425.2L183.6,425.2z"/>
	<path class="st1" d="M188.1,421.2h-0.6c-0.1,0-0.1-0.1-0.1-0.1v-0.2l0.1-0.1h0.6v-1.3l0.1-0.2l0,0h0.2l0.2,0.2v1.3h1.7l0.1,0.1v0
		v0.2l-0.1,0.1h0h-1.7v3.1c0,0.6,0.1,0.9,0.6,0.9c0.4,0,0.8-0.1,1.1-0.3l0.2,0l0,0l0.1,0.1l0,0.2l0,0c-0.4,0.3-0.9,0.4-1.4,0.4
		c-1,0-1.1-0.6-1.1-1.4L188.1,421.2z"/>
	<path class="st1" d="M194.4,420.6c1.2,0,2.1,0.9,2.2,2.1l0,0.1c0,0.2,0,0.5-0.2,0.5h-3.8c0,1,0.8,1.9,1.9,1.9c0.5,0,1-0.2,1.4-0.4
		c0.1-0.1,0.2-0.1,0.2,0l0.1,0.2l-0.1,0.2c-0.5,0.4-1.1,0.6-1.7,0.6c-1.4-0.1-2.4-1.3-2.3-2.7C192.1,421.7,193.1,420.7,194.4,420.6z
		 M196,422.8c0.1-0.9-0.6-1.7-1.5-1.7l-0.2,0c-1,0-1.8,0.8-1.8,1.7v0H196z"/>
	<path class="st1" d="M201.9,417.3l0.1-0.2h2.5c2.3,0,4.2,1.9,4.2,4.2c0,2.3-1.9,4.2-4.2,4.2H202l-0.1-0.2V417.3z M204.5,425
		c2,0.1,3.8-1.5,3.9-3.5s-1.5-3.8-3.5-3.9c-0.1,0-0.2,0-0.3,0h-2v7.4H204.5z"/>
	<path class="st1" d="M212.7,420.6c1.2,0,2.1,0.9,2.2,2l0,0.2c0,0.2,0,0.5-0.2,0.5h-3.8c0,1,0.8,1.9,1.9,1.9c0.5,0,1-0.2,1.4-0.4
		c0.1-0.1,0.2-0.1,0.2,0l0.1,0.2l0,0.2c-0.5,0.4-1.1,0.6-1.7,0.6c-1.4-0.1-2.4-1.3-2.3-2.7C210.5,421.7,211.5,420.7,212.7,420.6z
		 M214.4,422.8c0.1-0.9-0.6-1.7-1.5-1.7l-0.2,0c-1,0-1.8,0.8-1.8,1.7l0,0H214.4z"/>
	<path class="st1" d="M216.5,424.9l0.1-0.2l0.2,0l0,0c0.4,0.3,0.8,0.5,1.3,0.5c0.7,0,1.2-0.4,1.2-0.9s-0.5-0.8-1.4-1.1
		c-0.8-0.3-1.5-0.7-1.5-1.4c0.1-0.8,0.7-1.3,1.5-1.3l0.1,0c0.5,0,1,0.1,1.4,0.4l0.1,0.2l-0.1,0.1l-0.2,0.1l0,0
		c-0.3-0.2-0.7-0.3-1.1-0.3c-0.8,0-1,0.5-1,0.8c0,0.5,0.4,0.7,1.1,1c0.9,0.3,1.7,0.6,1.7,1.5c-0.1,0.8-0.9,1.4-1.7,1.3
		c-0.6,0-1.1-0.2-1.6-0.5L216.5,424.9z"/>
	<path class="st1" d="M221.7,417.3l0.2-0.2h0.2l0.2,0.2v5.4l2.6-1.9l0.2,0h0.4c0.1,0,0.1,0.2,0,0.2l-2.6,1.9l2.9,2.5l0,0.2l-0.1,0
		h-0.4c-0.1,0-0.2,0-0.2-0.1l-2.8-2.4v2.3l-0.1,0.2h0h-0.2l-0.1-0.2L221.7,417.3z"/>
	<path class="st1" d="M227.5,421.2H227c-0.1,0-0.1-0.1-0.1-0.1v-0.2l0.1-0.1h0.6v-1.3l0.2-0.2l0,0h0.2l0.2,0.2v1.3h1.7l0.2,0.1v0
		v0.2l-0.1,0.2l0,0h-1.7v3.1c0,0.6,0.1,0.9,0.6,0.9c0.4,0,0.8-0.1,1.1-0.3c0.1-0.1,0.1,0,0.2,0.1l0.1,0.1l0,0.2l0,0
		c-0.4,0.3-0.9,0.4-1.4,0.4c-1,0-1.1-0.6-1.1-1.4L227.5,421.2z"/>
	<path class="st1" d="M233.8,420.6c1.4-0.1,2.6,1,2.6,2.4s-1,2.6-2.4,2.6c-1.4,0.1-2.6-1-2.6-2.4l0-0.1
		C231.4,421.7,232.5,420.6,233.8,420.6L233.8,420.6z M233.8,425.2c1.1,0.1,2.1-0.8,2.2-1.9c0.1-1.1-0.8-2.1-1.9-2.2
		c-1.1-0.1-2.1,0.8-2.2,1.9l0,0.1C231.9,424.2,232.7,425.1,233.8,425.2L233.8,425.2z"/>
	<path class="st1" d="M238.7,429l-0.2,0.2h0h-0.2l-0.2-0.2v-8.1c0-0.1,0.1-0.2,0.2-0.2h0.2l0.1,0.1l0,0v0.3c0.4-0.4,1-0.6,1.6-0.6
		c1.3,0,2.4,1.1,2.3,2.4l0,0.1c0.1,1.3-1,2.5-2.3,2.5l-0.1,0c-0.5,0-1-0.2-1.4-0.5L238.7,429z M240.1,425.2c1.1,0,1.9-0.8,2-1.9
		l0-0.1c0.1-1-0.7-1.9-1.7-2l-0.1,0c-0.6,0-1.1,0.2-1.5,0.7v2.8C239.1,425,239.6,425.2,240.1,425.2L240.1,425.2z"/>
	<path class="st1" d="M247.9,417.3l0.2-0.2h0.2l0.2,0.1v0v5.1c0,1.4,1.2,2.6,2.6,2.6c1.4,0,2.6-1.2,2.6-2.6v-5.1
		c0-0.1,0.1-0.2,0.2-0.2h0.2l0.2,0.2v5.2c0.1,1.7-1.3,3.2-3,3.3c-1.7,0.1-3.2-1.3-3.3-3c0-0.1,0-0.2,0-0.3L247.9,417.3z"/>
	<path class="st1" d="M256.2,424.9l0.1-0.2l0.2,0l0,0c0.4,0.3,0.8,0.5,1.3,0.5c0.7,0,1.2-0.4,1.2-0.9s-0.5-0.8-1.4-1.1
		c-0.8-0.3-1.5-0.7-1.5-1.4c0.1-0.8,0.8-1.3,1.5-1.3l0,0c0.5,0,1,0.1,1.4,0.4l0.1,0.2l-0.1,0.1l-0.2,0.1l0,0
		c-0.3-0.2-0.7-0.3-1.1-0.3c-0.8,0-1,0.5-1,0.8c0,0.5,0.4,0.7,1.1,1c0.9,0.3,1.7,0.6,1.7,1.5c-0.1,0.8-0.9,1.4-1.7,1.3
		c-0.6,0-1.1-0.2-1.6-0.5L256.2,424.9z"/>
	<path class="st1" d="M263.4,420.6c1.2,0,2.1,0.9,2.2,2l0,0.2c0,0.2,0,0.5-0.2,0.5h-3.8c0,1,0.8,1.9,1.9,1.9c0.5,0,1-0.2,1.4-0.4
		c0.1-0.1,0.2-0.1,0.2,0l0.1,0.2l0,0.2c-0.5,0.4-1.1,0.6-1.7,0.6c-1.4-0.1-2.4-1.3-2.3-2.7C261.2,421.7,262.2,420.7,263.4,420.6z
		 M265,422.8c0.1-0.9-0.6-1.7-1.5-1.7l-0.2,0c-1,0-1.8,0.8-1.8,1.7l0,0H265z"/>
	<path class="st1" d="M267.5,420.9l0.2-0.2h0.1l0.1,0.1v0l0.1,0.5c0.4-0.5,0.9-0.8,1.5-0.8c0.3,0,0.5,0,0.8,0.1
		c0.1,0,0.2,0.1,0.1,0.2l-0.1,0.2l-0.2,0.1l0,0c-0.2-0.1-0.4-0.1-0.6-0.1c-0.6,0-1.1,0.3-1.4,0.8v3.4c0,0.1,0,0.2-0.2,0.2h-0.2
		c-0.1,0-0.1-0.1-0.1-0.2L267.5,420.9z"/>
	<path class="st1" d="M271.6,424.9l0.1-0.2l0.2,0l0,0c0.4,0.3,0.8,0.5,1.3,0.5c0.7,0,1.1-0.4,1.1-0.9s-0.5-0.8-1.3-1.1
		c-0.8-0.3-1.5-0.7-1.5-1.4c0.1-0.8,0.8-1.3,1.5-1.3l0,0c0.5,0,1,0.1,1.4,0.4l0,0.2l-0.1,0.1l-0.2,0.1l0,0c-0.3-0.2-0.7-0.3-1.1-0.3
		c-0.8,0-1,0.5-1,0.8c0,0.5,0.4,0.7,1.1,1c0.9,0.3,1.7,0.6,1.7,1.5c-0.1,0.8-0.9,1.4-1.7,1.3c-0.6,0-1.1-0.2-1.6-0.5L271.6,424.9z"
		/>
	<path class="st0" d="M234.6,0h-48.8c-1.6,0-2.9,1.3-2.9,2.9v66c0,1.6,1.3,2.9,2.9,2.9h3.6v4.5c0,0.4,0.3,0.8,0.8,0.8h11.8
		c0.4,0,0.8-0.3,0.8-0.8v-4.5h15v4.5c0,0.4,0.3,0.8,0.8,0.8h11.9c0.4,0,0.8-0.3,0.8-0.8v-4.5h3.6c1.6,0,2.9-1.3,2.9-2.9v-66
		C237.5,1.3,236.2,0,234.6,0z M201.1,75.6h-10.3v-3.8h10.3V75.6z M229.4,75.6h-10.3v-3.8h10.3V75.6z"/>
	<rect x="185.6" y="26.1" class="st2" width="49.1" height="19.7"/>
	<rect x="185.6" y="26.1" class="st3" width="49.1" height="19.7"/>
	<polygon class="st2" points="185.7,2.8 234.6,2.8 234.7,2.9 234.7,23 185.6,23 185.6,2.9 	"/>
	<polygon class="st4" points="185.7,2.8 234.6,2.8 234.7,2.9 234.7,23 185.6,23 185.6,2.9 	"/>
	<polygon class="st2" points="234.6,69.1 185.7,69.1 185.6,68.9 185.6,48.8 234.8,48.8 234.8,68.9 234.6,69.1 	"/>
	<polygon class="st5" points="234.6,69.1 185.7,69.1 185.6,68.9 185.6,48.8 234.8,48.8 234.8,68.9 234.6,69.1 	"/>
	<path class="st0" d="M196,31.6c-2.4,0-4.3,1.9-4.3,4.3c0,2.4,1.9,4.3,4.3,4.3c2.4,0,4.3-1.9,4.3-4.3v0
		C200.3,33.6,198.4,31.6,196,31.6z M196,38.7c-1.5,0-2.8-1.2-2.8-2.8c0-1.5,1.2-2.8,2.8-2.8c1.5,0,2.8,1.2,2.8,2.8v0
		C198.8,37.5,197.5,38.7,196,38.7z"/>
	<path class="st0" d="M196,17.5c2.4,0,4.3-1.9,4.3-4.3c0-2.4-1.9-4.3-4.3-4.3c-2.4,0-4.3,1.9-4.3,4.3v0
		C191.7,15.6,193.6,17.5,196,17.5z M196,10.4c1.5,0,2.8,1.2,2.8,2.8c0,1.5-1.2,2.8-2.8,2.8c-1.5,0-2.8-1.2-2.8-2.8v0
		C193.2,11.7,194.5,10.4,196,10.4z"/>
	<path class="st0" d="M196,54.4c-2.4,0-4.3,1.9-4.3,4.3c0,2.4,1.9,4.3,4.3,4.3c2.4,0,4.3-1.9,4.3-4.3v0
		C200.3,56.3,198.4,54.4,196,54.4z M196,61.5c-1.5,0-2.8-1.2-2.8-2.8c0-1.5,1.2-2.8,2.8-2.8c1.5,0,2.8,1.2,2.8,2.8v0
		C198.8,60.2,197.5,61.5,196,61.5z"/>
	<path class="st0" d="M226.7,34c1.1,0,2,0.9,2,2s-0.9,2-2,2s-2-0.9-2-2S225.6,34,226.7,34z"/>
	<path class="st0" d="M219.6,34c1.1,0,2,0.9,2,2s-0.9,2-2,2s-2-0.9-2-2S218.5,34,219.6,34z"/>
	<path class="st0" d="M212.5,34c1.1,0,2,0.9,2,2s-0.9,2-2,2c-1.1,0-2-0.9-2-2S211.4,34,212.5,34z"/>
	<path class="st0" d="M226.7,15.1c1.1,0,2-0.9,2-1.9c0-1.1-0.9-2-1.9-2c-1.1,0-2,0.9-2,2v0C224.7,14.3,225.6,15.1,226.7,15.1z"/>
	<path class="st0" d="M219.6,15.1c1.1,0,2-0.9,2-2s-0.9-2-2-2s-2,0.9-2,2v0C217.6,14.3,218.5,15.1,219.6,15.1z"/>
	<path class="st0" d="M212.5,15.1c1.1,0,2-0.9,2-2s-0.9-2-2-2c-1.1,0-2,0.9-2,2v0C210.6,14.3,211.4,15.1,212.5,15.1z"/>
	<path class="st0" d="M226.7,56.7c-1.1,0-2,0.9-2,2s0.9,2,2,2s2-0.9,2-2v0C228.6,57.6,227.8,56.7,226.7,56.7L226.7,56.7z"/>
	<path class="st0" d="M219.6,56.7c-1.1,0-2,0.9-2,2s0.9,2,2,2s2-0.9,2-2v0C221.6,57.6,220.7,56.7,219.6,56.7L219.6,56.7z"/>
	<path class="st0" d="M212.5,56.7c-1.1,0-2,0.9-2,2c0,1.1,0.9,2,1.9,2c1.1,0,2-0.9,2-1.9v0C214.5,57.6,213.6,56.7,212.5,56.7z"/>
	<path class="st1" d="M190.6,94.1c1.1,0,2.1,0.4,2.9,1.1l0,0.2l0,0l-0.2,0.2h-0.2c-0.7-0.6-1.6-1-2.5-1c-2.1,0-3.7,1.7-3.7,3.8
		c0,2.1,1.7,3.7,3.8,3.7c0.9,0,1.8-0.3,2.4-0.9h0.2l0.2,0.2l0,0.2l0,0c-0.8,0.8-1.8,1.2-2.9,1.2c-2.4,0-4.3-1.9-4.3-4.3
		S188.2,94.2,190.6,94.1L190.6,94.1z"/>
	<path class="st1" d="M194.5,98c-0.1-0.1,0-0.2,0.1-0.2h0.3l0.1,0.1l2.1,4.1l1.9-4.1l0.2-0.1h0.3c0.1,0,0.1,0.1,0.1,0.2l-3.8,8.1
		l-0.2,0.1h-0.3c-0.1,0-0.1-0.1-0.1-0.2l1.6-3.5L194.5,98z"/>
	<path class="st1" d="M201,94.4l0.2-0.2h0.2l0.2,0.2v3.8c0.4-0.3,1-0.5,1.5-0.5c1.4,0.1,2.4,1.3,2.3,2.7c-0.1,1.2-1,2.2-2.2,2.3
		c-0.6,0-1.2-0.3-1.7-0.7l0,0.4l-0.1,0.2l0,0h-0.1l-0.2-0.2L201,94.4z M203.1,102.3c1.1-0.2,1.9-1.2,1.7-2.3c-0.1-1-0.9-1.7-1.9-1.8
		c-0.5,0-1,0.2-1.4,0.5v2.7C201.9,102,202.5,102.3,203.1,102.3L203.1,102.3z"/>
	<path class="st1" d="M209.3,97.7c1.2,0,2.1,0.9,2.2,2l0,0.2c0,0.2,0,0.5-0.2,0.5h-3.8c0,1,0.8,1.9,1.9,1.9c0.5,0,1-0.2,1.4-0.4
		c0.1-0.1,0.2-0.1,0.2,0l0.1,0.2l0,0.2c-0.5,0.4-1.1,0.6-1.7,0.6c-1.4-0.1-2.4-1.3-2.3-2.7C207.1,98.8,208.1,97.8,209.3,97.7z
		 M211,100c0.1-0.9-0.6-1.7-1.5-1.7l-0.2,0c-1,0-1.8,0.8-1.8,1.7l0,0H211z"/>
	<path class="st1" d="M213.4,98l0.2-0.2h0.1l0.1,0.1v0l0.1,0.5c0.4-0.5,0.9-0.8,1.5-0.8c0.3,0,0.5,0,0.8,0.1c0.1,0,0.2,0.1,0.1,0.2
		v0l-0.1,0.2l-0.2,0.1l0,0c-0.2-0.1-0.4-0.1-0.6-0.1c-0.6,0-1.1,0.3-1.4,0.8v3.4c0,0.1,0,0.2-0.2,0.2h-0.2c-0.1,0-0.1-0.1-0.1-0.2
		L213.4,98z"/>
	<path class="st1" d="M216.6,102.5l3.7-8.4l0.1-0.1h0l0.2,0.1l3.7,8.4c0,0.1,0,0.1-0.1,0.1h-0.3l-0.2-0.1l-1-2.2h-4.6l-1,2.2
		l-0.2,0.1h-0.3C216.6,102.6,216.5,102.6,216.6,102.5z M222.5,99.9l-2.1-4.8l-2.1,4.8H222.5z"/>
	<path class="st1" d="M225.8,98l0.2-0.2h0.1l0.1,0.1l0,0.5c0.4-0.5,0.9-0.8,1.5-0.8c0.3,0,0.5,0,0.8,0.1c0.1,0,0.2,0.1,0.1,0.2
		l-0.1,0.2l-0.2,0.1l0,0c-0.2-0.1-0.4-0.1-0.6-0.1c-0.6,0-1.1,0.3-1.4,0.8v3.4l-0.1,0.2h0h-0.2l-0.1-0.2V98z"/>
	<path class="st1" d="M230.1,94.4l0.2-0.2h0.2l0.2,0.2v5.3l2.6-1.9l0.2-0.1h0.3c0.1,0,0.1,0.2,0,0.2l-2.6,1.9l2.9,2.5l0,0.2l-0.1,0
		h-0.4c-0.1,0-0.2,0-0.2-0.1l-2.8-2.4v2.3l-0.1,0.2h0h-0.2l-0.1-0.1l0,0L230.1,94.4z"/>
	<polygon class="st1" points="164.7,108.7 164.8,108.5 164.9,108.5 169.7,108.5 169.8,108.7 169.8,108.9 169.7,109 169.7,109 
		165.3,109 165.3,112.3 169.1,112.3 169.2,112.5 169.2,112.7 169.1,112.8 165.3,112.8 165.3,116.4 169.7,116.4 169.8,116.5 
		169.8,116.7 169.7,116.9 164.9,116.9 164.7,116.7 164.7,116.7 	"/>
	<path class="st1" d="M171.9,112.3c0-0.1,0.1-0.2,0.2-0.2v0h0.1l0.1,0.1l0,0.5c0.5-0.5,1.1-0.7,1.8-0.8c1.3,0,1.9,0.9,1.9,2.2v2.6
		l-0.2,0.2h-0.2l-0.2-0.2v-2.6c0-1.1-0.5-1.7-1.4-1.7c-0.7,0-1.3,0.3-1.7,0.8v3.4l-0.1,0.2h0H172l-0.1-0.1l0,0V112.3z"/>
	<path class="st1" d="M180.3,112c0.5,0,1.1,0.2,1.5,0.5v-3.8l0.1-0.2h0h0.2l0.1,0.2v8.1l-0.2,0.2H182l-0.2-0.1l0,0l0-0.4
		c-0.4,0.4-1,0.7-1.7,0.7c-1.3-0.1-2.3-1.2-2.3-2.5l0-0.1c-0.1-1.3,0.9-2.4,2.3-2.5L180.3,112z M180.2,116.5c0.6,0,1.2-0.3,1.6-0.8
		V113c-0.4-0.3-0.9-0.5-1.4-0.5c-1.1,0.1-2,1-1.9,2.1C178.5,115.6,179.2,116.4,180.2,116.5z"/>
	<path class="st1" d="M185.1,120.3l-0.2,0.1h-0.2l-0.2-0.1v-8.1l0.2-0.2l0,0h0.1l0.1,0.1l0,0v0.3c0.4-0.4,1-0.6,1.6-0.6
		c1.3,0,2.4,1.1,2.3,2.4l0,0.1c0.1,1.3-1,2.5-2.3,2.5l-0.1,0c-0.5,0-1-0.2-1.4-0.5L185.1,120.3z M186.5,116.5c1.1,0,1.9-0.8,2-1.9
		l0-0.1c0.1-1-0.7-1.9-1.7-2l-0.1,0c-0.6,0-1.1,0.2-1.5,0.7v2.8C185.5,116.3,186,116.5,186.5,116.5z"/>
	<path class="st1" d="M193,112c1.4-0.1,2.6,1,2.6,2.4s-1,2.6-2.4,2.6c-1.4,0.1-2.6-1-2.6-2.4l0-0.1C190.5,113.1,191.6,112,193,112z
		 M193,116.5c1.1,0.1,2.1-0.8,2.2-1.9s-0.8-2.1-1.9-2.2c-1.1-0.1-2.1,0.8-2.2,1.9l0,0.1C191,115.6,191.8,116.5,193,116.5L193,116.5z
		"/>
	<path class="st1" d="M197.2,109.3c0-0.2,0.1-0.4,0.4-0.5c0.2,0,0.4,0.1,0.5,0.4v0.1c0,0.2-0.2,0.4-0.5,0.4
		C197.3,109.7,197.2,109.5,197.2,109.3z M197.3,112.3l0.1-0.2h0h0.2l0.2,0.2v4.5l-0.1,0.2h0h-0.2l-0.1-0.2V112.3z"/>
	<path class="st1" d="M200.2,112.3l0.2-0.2l0,0h0.1l0.1,0.1v0l0,0.5c0.5-0.5,1.1-0.7,1.8-0.8c1.3,0,1.9,0.9,1.9,2.2v2.6l-0.2,0.2
		H204l-0.2-0.2v-2.6c0-1.1-0.5-1.7-1.4-1.7c-0.7,0-1.3,0.3-1.7,0.8v3.4l-0.1,0.2h0h-0.2l-0.1-0.2L200.2,112.3z"/>
	<path class="st1" d="M206.8,112.6h-0.5c-0.1,0-0.1-0.1-0.1-0.1v-0.2l0.1-0.1h0.6v-1.3l0.1-0.2h0h0.2l0.2,0.2v1.3h1.7l0.2,0.1l0,0
		v0.2l-0.1,0.2h0h-1.7v3.1c0,0.6,0.1,0.9,0.6,0.9c0.4,0,0.8-0.1,1.1-0.3l0.2,0l0,0l0.1,0.1l0,0.2l0,0c-0.4,0.3-0.9,0.4-1.4,0.4
		c-1,0-1.1-0.6-1.1-1.4L206.8,112.6z"/>
	<path class="st1" d="M214.4,108.7l0.1-0.2h0h2.6c1.5,0,2.7,1.2,2.7,2.7c0,1.5-1.2,2.7-2.7,2.7H215v2.8c0,0.1-0.1,0.2-0.2,0.2h-0.2
		l-0.2-0.1l0,0L214.4,108.7z M217.2,113.4c1.2,0,2.2-1,2.2-2.2c0-1.2-1-2.1-2.2-2.1H215v4.3H217.2z"/>
	<path class="st1" d="M221.5,112.3l0.2-0.2h0.1l0.1,0.1v0l0.1,0.5c0.4-0.5,0.9-0.8,1.5-0.8c0.3,0,0.5,0,0.8,0.1
		c0.1,0,0.2,0.1,0.1,0.2l0,0l-0.1,0.2l-0.2,0.1l0,0c-0.2-0.1-0.4-0.1-0.6-0.1c-0.6,0-1.1,0.3-1.4,0.8v3.4c0,0.1,0,0.2-0.2,0.2h-0.2
		l-0.1-0.2L221.5,112.3z"/>
	<path class="st1" d="M225.7,109.3c0-0.2,0.1-0.4,0.4-0.5c0.2,0,0.4,0.1,0.5,0.4v0.1c0,0.2-0.2,0.4-0.5,0.4
		C225.8,109.7,225.7,109.5,225.7,109.3z M225.8,112.3l0.2-0.2h0.2l0.2,0.2v4.5l-0.1,0.2h0H226l-0.1-0.1l0,0V112.3z"/>
	<path class="st1" d="M227.9,112.3c-0.1-0.1,0-0.2,0.1-0.2h0.3l0.2,0.1l1.7,4l1.8-4l0.2-0.1h0.3c0.1,0,0.1,0.1,0.1,0.2l-2.1,4.6
		l-0.1,0.1h0c-0.1,0-0.1,0-0.1-0.1L227.9,112.3z"/>
	<path class="st1" d="M233.9,109.3c0-0.2,0.2-0.4,0.4-0.4s0.4,0.2,0.4,0.4v0c0,0.2-0.2,0.4-0.4,0.4
		C234.1,109.7,233.9,109.6,233.9,109.3z M234,112.3l0.2-0.2h0.2l0.2,0.2v4.5l-0.1,0.2h0h-0.2l-0.1-0.2V112.3z"/>
	<polygon class="st1" points="236.9,108.7 237,108.5 237.2,108.5 237.4,108.7 237.4,116.7 237.3,116.9 237.2,116.9 237,116.9 
		236.9,116.7 236.9,116.7 	"/>
	<path class="st1" d="M241.7,112c1.2,0,2.1,0.9,2.2,2.1l0,0.1c0,0.2,0,0.5-0.2,0.5h-3.8c0,1,0.8,1.9,1.9,1.9c0.5,0,1-0.2,1.4-0.4
		c0.1-0.1,0.2-0.1,0.2,0l0.1,0.2l0,0.2c-0.5,0.4-1.1,0.6-1.7,0.6c-1.4-0.1-2.4-1.3-2.3-2.7C239.5,113.1,240.5,112.1,241.7,112z
		 M243.4,114.2c0.1-0.9-0.6-1.7-1.5-1.7l-0.2,0c-1,0-1.8,0.8-1.8,1.7v0H243.4z"/>
	<path class="st1" d="M246.1,115.2c-0.2-0.4-0.4-0.8-0.4-1.2c0-1.1,0.8-2,1.9-2l0.2,0h1.9l0.2,0.1v0v0.1l-0.1,0.2l-0.9,0.1
		c0.5,0.3,0.8,0.9,0.8,1.5c0,1.1-0.8,2-1.9,2h-0.1c-0.5,0-0.9-0.1-1.3-0.4c-0.4,0.1-0.6,0.5-0.6,0.9c0,0.6,0.5,0.7,0.9,0.7h1.7
		c1,0,1.8,0.5,1.8,1.5c0,1-1,2-2.4,2c-1.6,0-2.3-1-2.3-1.8c0-0.5,0.3-1,0.8-1.3c-0.5-0.1-0.9-0.6-0.9-1.1
		C245.3,115.9,245.6,115.4,246.1,115.2z M247.8,120.1c1.1,0,1.9-0.6,1.9-1.5c0-0.6-0.3-1.1-1.2-1.1H247c-0.5,0.1-0.9,0.6-1,1.2
		C246,119.4,246.6,120.1,247.8,120.1z M249.2,114c0.1-0.8-0.5-1.5-1.3-1.5l-0.2,0c-0.8,0-1.5,0.7-1.5,1.5l0,0c0,0.8,0.7,1.5,1.5,1.5
		C248.5,115.5,249.2,114.8,249.2,114z"/>
	<path class="st1" d="M253.8,112c1.2,0,2.1,0.9,2.2,2.1l0,0.1c0,0.2,0,0.5-0.2,0.5H252c0,1,0.8,1.9,1.9,1.9c0.5,0,1-0.2,1.4-0.4
		c0.1-0.1,0.2-0.1,0.2,0l0.1,0.2l-0.1,0.2c-0.5,0.4-1.1,0.6-1.7,0.6c-1.4-0.1-2.4-1.3-2.3-2.7C251.6,113.1,252.6,112.1,253.8,112
		L253.8,112z M255.5,114.2c0.1-0.9-0.6-1.7-1.5-1.8l-0.2,0c-1,0-1.8,0.8-1.8,1.7v0H255.5z"/>
	<path class="st1" d="M173.3,122.7l0.1-0.1h0.1l0.1,0.1l2.5,7.4l2.5-7.4l0.1-0.1h0.1l0.1,0.1l1.7,8.3c0,0.1,0,0.2-0.1,0.2h-0.3
		l-0.1-0.1l-1.4-7l-2.5,7.2l-0.2,0.1h0c-0.1,0-0.1,0-0.2-0.1l-2.4-7.2l-1.4,7l-0.1,0.1h-0.3c-0.1,0-0.2,0-0.1-0.2L173.3,122.7z"/>
	<path class="st1" d="M184.2,128c0.4,0,0.8,0.1,1.2,0.2c0-1.1-0.1-1.6-1.1-1.6c-0.5,0-1,0.1-1.4,0.3l-0.2-0.1l0,0l-0.1-0.1l0.1-0.2
		l0,0c0.5-0.3,1.1-0.4,1.6-0.4c1.5,0,1.5,0.9,1.5,2.1v2.7l-0.1,0.2h0h-0.1l-0.1-0.1l0-0.4c-0.5,0.4-1,0.7-1.7,0.7
		c-0.8,0-1.5-0.6-1.6-1.4l0-0.2C182.2,128.7,182.9,128,184.2,128z M183.8,130.8c0.6,0,1.2-0.3,1.6-0.8v-1.3
		c-0.4-0.2-0.8-0.2-1.2-0.2c-0.9,0-1.5,0.5-1.5,1.2C182.7,130.3,183.1,130.8,183.8,130.8L183.8,130.8z"/>
	<path class="st1" d="M188.2,126.5l0.2-0.2l0,0h0.1l0.1,0.1l0,0l0,0.5c0.5-0.5,1.1-0.7,1.8-0.8c1.3,0,1.9,0.9,1.9,2.2v2.6l-0.2,0.2
		H192l-0.2-0.2v-2.6c0-1.1-0.5-1.7-1.4-1.7c-0.7,0-1.3,0.3-1.7,0.8v3.4l-0.1,0.2h0h-0.2l-0.1-0.2V126.5z"/>
	<path class="st1" d="M196.2,128c0.4,0,0.8,0.1,1.2,0.2c0-1.1-0.1-1.6-1.1-1.6c-0.5,0-1,0.1-1.4,0.3c-0.1,0-0.1,0-0.2-0.1l-0.1-0.1
		c0-0.1,0-0.2,0.1-0.2c0.5-0.3,1.1-0.4,1.6-0.4c1.5,0,1.5,0.9,1.5,2.1v2.7l-0.2,0.2h-0.1l-0.1-0.1l0-0.4c-0.5,0.4-1.1,0.7-1.7,0.7
		c-0.8,0-1.5-0.6-1.6-1.4l0-0.2C194.3,128.7,195,128,196.2,128z M195.8,130.8c0.6,0,1.2-0.3,1.6-0.8v-1.3c-0.4-0.2-0.8-0.2-1.2-0.2
		c-0.9,0-1.5,0.5-1.5,1.2C194.7,130.3,195.2,130.8,195.8,130.8L195.8,130.8z"/>
	<path class="st1" d="M200.5,129.5c-0.2-0.4-0.4-0.8-0.4-1.2c0-1.1,0.8-2,1.9-2l0.2,0h2l0.2,0.1v0v0.1l-0.1,0.2l-0.9,0.1
		c0.5,0.3,0.8,0.9,0.8,1.5c0,1.1-0.8,2-1.9,2h-0.1c-0.5,0-0.9-0.1-1.3-0.4c-0.4,0.1-0.6,0.5-0.6,0.9c0,0.6,0.5,0.7,0.9,0.7h1.7
		c1,0,1.8,0.5,1.8,1.5c0,1-1,2-2.4,2c-1.6,0-2.3-1-2.3-1.8c0-0.5,0.3-1,0.8-1.3c-0.5-0.1-0.9-0.6-0.9-1.1
		C199.8,130.2,200.1,129.7,200.5,129.5z M202.2,134.4c1.1,0,1.9-0.6,1.9-1.5c0-0.6-0.3-1.1-1.2-1.1h-1.5c-0.5,0.1-0.9,0.6-1,1.2
		C200.4,133.7,201.1,134.4,202.2,134.4z M203.6,128.3c0.1-0.8-0.5-1.5-1.3-1.5l-0.2,0c-0.8,0-1.5,0.7-1.5,1.5l0,0
		c0,0.8,0.6,1.5,1.4,1.5h0.1C202.9,129.8,203.6,129.1,203.6,128.3L203.6,128.3z"/>
	<path class="st1" d="M208.2,126.2c1.2,0,2.1,0.9,2.2,2.1l0,0.1c0,0.2,0,0.5-0.2,0.5h-3.8c0,1,0.8,1.9,1.9,1.9c0.5,0,1-0.2,1.4-0.4
		c0.1-0.1,0.2-0.1,0.2,0l0.1,0.2l-0.1,0.2c-0.5,0.4-1.1,0.6-1.7,0.6c-1.4-0.1-2.4-1.3-2.3-2.7C206,127.3,207,126.3,208.2,126.2z
		 M209.9,128.5c0.1-0.9-0.6-1.7-1.5-1.8l-0.2,0c-1,0-1.8,0.8-1.8,1.7l0,0H209.9z"/>
	<path class="st1" d="M212.3,126.5l0.1-0.2h0h0.1l0.1,0.1l0,0.5c0.4-0.5,0.9-0.8,1.5-0.8c0.3,0,0.5,0,0.8,0.1c0.1,0,0.2,0.1,0.1,0.2
		l-0.1,0.2l-0.2,0.1l0,0c-0.2-0.1-0.4-0.1-0.6-0.1c-0.6,0-1.1,0.3-1.4,0.8v3.4l-0.1,0.2h0h-0.2l-0.1-0.2L212.3,126.5z"/>
	<path class="st1" d="M219.6,130l0.1-0.1c0.1-0.1,0.2-0.1,0.3,0c0.6,0.6,1.4,0.9,2.3,0.9c1,0.1,1.9-0.6,2-1.6c0-1.1-0.9-1.5-2.3-2
		c-1.5-0.5-2.3-1-2.3-2.4c0-0.9,0.8-2.1,2.6-2.1c0.7,0,1.4,0.2,2.1,0.6l0.1,0.2l0,0l-0.1,0.2l-0.2,0.1l0,0c-0.5-0.3-1.1-0.5-1.8-0.6
		c-1.5,0-2,0.9-2,1.6c0,1,0.8,1.5,2,1.9c1.6,0.6,2.7,1.1,2.7,2.5c0,1.2-1.2,2.1-2.6,2.1c-0.9,0-1.8-0.4-2.5-1
		C219.6,130.2,219.5,130.2,219.6,130z"/>
	<path class="st1" d="M225.9,131l3.7-8.4l0.1-0.1l0.2,0.1l3.7,8.4c0,0.1,0,0.1-0.1,0.1h-0.3L233,131l-1-2.2h-4.6l-0.9,2.2l-0.2,0.1
		H226C225.9,131.1,225.9,131.1,225.9,131z M231.9,128.4l-2.1-4.8l-2.1,4.8H231.9z"/>
	<path class="st1" d="M234.2,131l3.7-8.4l0.1-0.1h0l0.2,0.1l3.7,8.4c0,0.1,0,0.1-0.1,0.1h-0.3l-0.2-0.1l-1-2.2h-4.6l-1,2.2l-0.2,0.1
		h-0.3C234.2,131.1,234.2,131.1,234.2,131z M240.2,128.4l-2-4.8l-2.1,4.8H240.2z"/>
	<path class="st1" d="M243.2,130l0.1-0.1c0.1-0.1,0.2-0.1,0.3,0c0.6,0.6,1.4,0.9,2.3,0.9c1,0.1,1.9-0.6,2-1.6c0-1.1-0.9-1.5-2.3-2
		s-2.3-1-2.3-2.4c0-0.9,0.8-2.1,2.6-2.1c0.7,0,1.4,0.2,2.1,0.6l0,0.3l0,0l-0.1,0.2l-0.2,0.1l0,0c-0.5-0.3-1.1-0.5-1.8-0.6
		c-1.5,0-2,0.9-2,1.6c0,1,0.8,1.5,2,1.9c1.6,0.6,2.7,1.1,2.7,2.5c0,1.2-1.2,2.1-2.6,2.1c-0.9,0-1.8-0.4-2.5-1L243.2,130L243.2,130z"
		/>
	<path class="st1" d="M257.8,35v1.9c0,1.9-1,3.1-3.1,3.1c-0.8,0-1.5,0-2.2-0.1v-8c0.6,0,1.4-0.1,2.3-0.1
		C256.7,31.8,257.8,33,257.8,35z M253.9,33.1v5.5c0.3,0,0.5,0,0.8,0.1c0.8,0.1,1.6-0.5,1.7-1.4c0-0.1,0-0.2,0-0.3v-2
		c0-1.3-0.6-1.9-1.7-1.9C254.4,33.1,254.1,33.1,253.9,33.1z"/>
	<path class="st1" d="M264.9,39.8h-1.5l-0.4-1.6h-2.5l-0.4,1.6h-1.5l2.3-7.9h1.7L264.9,39.8z M260.7,36.9h1.9l-0.9-3.8L260.7,36.9z"
		/>
	<polygon class="st1" points="270.6,33.3 268.5,33.3 268.5,39.8 267,39.8 267,33.3 264.8,33.3 264.8,31.9 270.6,31.9 	"/>
	<path class="st1" d="M276.9,39.8h-1.5l-0.4-1.6h-2.5l-0.4,1.6h-1.5l2.3-7.9h1.7L276.9,39.8z M272.8,36.9h1.9l-0.9-3.8L272.8,36.9z"
		/>
	<path class="st1" d="M283,33.8V34c0,0.8-0.4,1.5-1.2,1.7c0.9,0.1,1.5,0.9,1.5,1.8v0.2c0,1.3-0.8,2.3-2.9,2.3c-0.7,0-1.2,0-2.3-0.1
		v-8.1c0.6,0,1.5-0.1,2.3-0.1C282.1,31.8,283,32.6,283,33.8z M279.6,33.1v2.2h0.9c0.8,0,1.2-0.4,1.2-1V34c0-0.6-0.4-0.9-1.4-0.9
		C280,33,279.8,33,279.6,33.1L279.6,33.1z M279.6,36.4v2.3c0.3,0,0.6,0,0.9,0c1,0,1.5-0.4,1.5-1.1v-0.2c0-0.6-0.4-1-1.4-1
		L279.6,36.4z"/>
	<path class="st1" d="M290.4,39.8h-1.5l-0.4-1.6H286l-0.4,1.6h-1.5l2.3-7.9h1.7L290.4,39.8z M286.3,36.9h1.9l-0.9-3.8L286.3,36.9z"
		/>
	<path class="st1" d="M295.4,32v1.3c-0.6-0.1-1.2-0.2-1.8-0.2c-0.8,0-1,0.3-1,0.8v0.3c0,0.4,0.1,0.6,0.8,0.8l1.1,0.4
		c1,0.2,1.6,1.1,1.5,2.1v0.2c0,1.4-0.8,2.3-2.7,2.3c-0.6,0-1.2-0.1-1.9-0.2v-1.3c0.6,0.1,1.2,0.2,1.8,0.3c1,0,1.3-0.3,1.3-0.9v-0.3
		c0-0.4-0.2-0.6-0.6-0.8l-1.2-0.4c-1-0.2-1.7-1.1-1.6-2.1V34c0-1.4,0.8-2.3,2.4-2.3C294.1,31.8,294.8,31.9,295.4,32z"/>
	<polygon class="st1" points="301.8,33.3 298.8,33.3 298.8,35.2 301.5,35.2 301.5,36.5 298.8,36.5 298.8,38.5 301.7,38.5 
		301.7,39.8 297.4,39.8 297.4,31.9 301.8,31.9 	"/>
	<path class="st1" d="M309.7,31.9v1.2c-0.4-0.1-0.9-0.1-1.3-0.1c-0.8,0-1.1,0.3-1.1,0.9v0.2c0,0.6,0.4,1.1,1.2,1.1h1v-0.7h1.3v0.8
		h0.8v1.2h-0.8v3.2c-0.8,0.2-1.5,0.3-2.3,0.3c-2.1,0-2.8-0.8-2.8-2.1v-0.3c0-0.9,0.6-1.6,1.4-1.8c-0.7-0.3-1.2-0.9-1.1-1.7v-0.3
		c0-1.1,0.8-2,2.3-2C308.7,31.8,309.2,31.8,309.7,31.9z M308.4,36.4c-1,0-1.4,0.4-1.4,1.1v0.3c0,0.6,0.4,1,1.4,1c0.3,0,0.7,0,1-0.1
		v-2.2L308.4,36.4z"/>
	<path class="st1" d="M320.3,34v0.3c0,0.9-0.5,1.7-1.3,2l1.9,3.5h-1.6l-1.7-3.2c-0.3,0-0.6,0-0.9,0v3.2h-1.4v-8
		c0.7,0,1.6-0.1,2.2-0.1C319.5,31.8,320.3,32.7,320.3,34z M316.7,33.1v2.3c0.2,0,0.5,0,0.8,0.1c1,0,1.4-0.4,1.4-1.1V34
		c0-0.7-0.4-1-1.4-1C317.3,33,316.9,33.1,316.7,33.1z"/>
	<polygon class="st1" points="326.5,33.3 323.5,33.3 323.5,35.2 326.3,35.2 326.3,36.5 323.5,36.5 323.5,38.5 326.5,38.5 
		326.5,39.8 322.1,39.8 322.1,31.9 326.5,31.9 	"/>
	<path class="st1" d="M333.2,34.1v0.3c0,1.5-0.9,2.5-2.7,2.5c-0.3,0-0.6,0-0.9-0.1v3.1h-1.4v-7.9c0.6,0,1.4-0.1,2.2-0.1
		C332.3,31.8,333.2,32.7,333.2,34.1z M329.6,33.1v2.4c0.3,0,0.5,0.1,0.8,0.1c0.9,0,1.4-0.4,1.4-1.2v-0.2c0-0.7-0.4-1.1-1.4-1.1
		C330,33,329.8,33,329.6,33.1z"/>
	<path class="st1" d="M340,34.4v2.9c0,1.6-0.8,2.6-2.7,2.6c-1.9,0-2.7-1-2.7-2.6v-2.9c0-1.7,0.8-2.7,2.7-2.7
		C339.2,31.8,340,32.8,340,34.4z M336,34.3v3c0.1,0.7,0.7,1.2,1.4,1.2c0.6,0,1.1-0.5,1.2-1.2v-3c0.1-0.6-0.4-1.2-1-1.3
		c-0.1,0-0.2,0-0.3,0c-0.6-0.1-1.2,0.3-1.3,0.9C336,34.1,336,34.2,336,34.3z"/>
	<path class="st1" d="M346.8,34v0.3c0,0.9-0.5,1.7-1.3,2l2,3.5h-1.6l-1.7-3.2c-0.3,0-0.6,0-0.9,0v3.2h-1.4v-8c0.7,0,1.6-0.1,2.2-0.1
		C346,31.8,346.8,32.7,346.8,34z M343.2,33.1v2.3c0.2,0,0.5,0,0.8,0.1c1,0,1.4-0.4,1.4-1.1V34c0-0.7-0.4-1-1.4-1
		C343.8,33,343.4,33.1,343.2,33.1z"/>
	<polygon class="st1" points="353.7,33.3 351.5,33.3 351.5,39.8 350.1,39.8 350.1,33.3 347.9,33.3 347.9,31.9 353.7,31.9 	"/>
	<rect x="355.1" y="31.9" class="st1" width="1.4" height="7.9"/>
	<polygon class="st1" points="359.8,34.2 359.8,39.8 358.4,39.8 358.4,31.9 360.3,31.9 362.3,37.5 362.3,31.9 363.8,31.9 
		363.8,39.8 361.8,39.8 	"/>
	<path class="st1" d="M370.3,32v1.3c-0.7-0.1-1.4-0.2-2.1-0.3c-0.9,0-1.3,0.3-1.3,1.2v3.2c0,0.9,0.3,1.2,1.2,1.2
		c0.4,0,0.8,0,1.1-0.1v-2.1h-1.2v-1.3h2.6v4.3c-0.8,0.3-1.7,0.4-2.5,0.5c-1.9,0-2.6-0.8-2.6-2.5v-3.1c0-1.7,0.8-2.5,2.6-2.5
		C368.9,31.8,369.6,31.9,370.3,32z"/>
	<polygon class="st1" points="259.9,63 258.1,63 256.8,56.7 255.4,63 253.7,63 252,55.2 253.5,55.2 254.6,61.6 255.9,55.2 
		257.6,55.2 258.9,61.6 260,55.2 261.5,55.2 	"/>
	<polygon class="st1" points="267.3,56.5 264.3,56.5 264.3,58.4 267,58.4 267,59.7 264.3,59.7 264.3,61.7 267.3,61.7 267.3,63 
		262.9,63 262.9,55.2 267.3,55.2 	"/>
	<path class="st1" d="M273.9,57v0.2c0,0.8-0.4,1.5-1.2,1.7c0.9,0.1,1.5,0.9,1.5,1.8V61c0,1.3-0.9,2.3-2.9,2.3c-0.7,0-1.2,0-2.3-0.1
		v-8.1c0.6,0,1.5-0.1,2.3-0.1C273,55,273.9,55.9,273.9,57z M270.4,56.3v2.2h0.9c0.8,0,1.2-0.4,1.2-1v-0.2c0-0.6-0.4-0.9-1.4-0.9
		C270.9,56.3,270.7,56.3,270.4,56.3L270.4,56.3z M270.4,59.7v2.3c0.3,0,0.6,0,0.9,0c1,0,1.5-0.4,1.5-1.1v-0.2c0-0.6-0.4-1-1.4-1
		L270.4,59.7z"/>
	<path class="st1" d="M282.1,55.2v1.3c-0.6-0.1-1.2-0.2-1.8-0.2c-0.8,0-1,0.3-1,0.8v0.3c0,0.4,0.1,0.6,0.8,0.8l1.1,0.4
		c1,0.2,1.7,1.2,1.5,2.2V61c0,1.4-0.8,2.3-2.7,2.3c-0.6,0-1.2-0.1-1.9-0.2v-1.3c0.6,0.1,1.2,0.2,1.8,0.3c1,0,1.3-0.3,1.3-0.9v-0.3
		c0-0.4-0.2-0.6-0.6-0.8l-1.2-0.4c-1-0.2-1.7-1.1-1.6-2.1v-0.1c0-1.4,0.8-2.3,2.4-2.3C280.9,55.1,281.5,55.1,282.1,55.2z"/>
	<polygon class="st1" points="288.5,56.5 285.6,56.5 285.6,58.4 288.3,58.4 288.3,59.7 285.6,59.7 285.6,61.7 288.5,61.7 288.5,63 
		284.1,63 284.1,55.2 288.5,55.2 	"/>
	<path class="st1" d="M295.3,57.2v0.3c0,0.9-0.5,1.7-1.3,2l1.9,3.5h-1.6l-1.7-3.2c-0.3,0-0.6,0-0.9,0v3.2h-1.4v-8
		c0.7,0,1.6-0.1,2.2-0.1C294.4,55,295.3,55.9,295.3,57.2z M291.7,56.3v2.3c0.2,0,0.5,0,0.8,0.1c1,0,1.4-0.4,1.4-1.1v-0.2
		c0-0.7-0.4-1-1.4-1L291.7,56.3z"/>
	<polygon class="st1" points="300.3,63 298.5,63 296.3,55.2 297.8,55.2 299.3,61.8 301,55.2 302.5,55.2 	"/>
	<polygon class="st1" points="308.2,56.5 305.3,56.5 305.3,58.4 308,58.4 308,59.7 305.3,59.7 305.3,61.7 308.2,61.7 308.2,63 
		303.8,63 303.8,55.2 308.2,55.2 	"/>
	<path class="st1" d="M314.9,57.2v0.3c0,0.9-0.5,1.7-1.3,2l1.9,3.5H314l-1.7-3.2c-0.3,0-0.6,0-0.9,0v3.2h-1.4v-8
		c0.7,0,1.6-0.1,2.2-0.1C314.1,55,314.9,55.9,314.9,57.2L314.9,57.2z M311.3,56.3v2.3c0.2,0,0.5,0,0.8,0.1c1,0,1.4-0.4,1.4-1.1v-0.2
		c0-0.7-0.4-1-1.4-1L311.3,56.3z"/>
	<polygon class="st1" points="257.9,10.8 256.6,15.4 255.1,15.4 253.8,10.8 253.8,16.3 252.4,16.3 252.5,8.4 254.3,8.4 255.9,14 
		257.4,8.4 259.2,8.4 259.3,16.3 257.9,16.3 	"/>
	<path class="st1" d="M266.8,16.3h-1.5l-0.4-1.6h-2.5l-0.4,1.6h-1.5l2.3-7.9h1.7L266.8,16.3z M262.6,13.4h1.9l-1-3.8L262.6,13.4z"/>
	<polygon class="st1" points="269.4,10.7 269.4,16.3 268,16.3 268,8.4 269.9,8.4 272,14 272,8.4 273.4,8.4 273.4,16.3 271.4,16.3 	
		"/>
	<path class="st1" d="M280.9,16.3h-1.5l-0.4-1.6h-2.5l-0.4,1.6h-1.5l2.3-7.9h1.7L280.9,16.3z M276.8,13.4h1.9l-1-3.8L276.8,13.4z"/>
	<path class="st1" d="M286.6,8.5v1.3c-0.7-0.1-1.4-0.2-2.1-0.2c-0.9,0-1.3,0.3-1.3,1.2v3.2c0,0.9,0.3,1.2,1.2,1.2
		c0.4,0,0.8,0,1.1-0.1v-2.1h-1.2v-1.3h2.6V16c-0.8,0.3-1.7,0.4-2.5,0.5c-1.9,0-2.6-0.8-2.6-2.5v-3.1c0-1.7,0.8-2.5,2.6-2.5
		C285.2,8.3,285.9,8.4,286.6,8.5z"/>
	<polygon class="st1" points="293.1,9.8 290.2,9.8 290.2,11.6 292.9,11.6 292.9,13 290.2,13 290.2,15 293.1,15 293.1,16.3 
		288.8,16.3 288.8,8.4 293.1,8.4 	"/>
	<polygon class="st1" points="300.3,10.8 299,15.4 297.5,15.4 296.3,10.8 296.2,16.3 294.8,16.3 294.8,8.4 296.7,8.4 298.2,14 
		299.8,8.4 301.6,8.4 301.7,16.3 300.3,16.3 	"/>
	<polygon class="st1" points="307.9,9.8 304.9,9.8 304.9,11.6 307.6,11.6 307.6,13 304.9,13 304.9,15 307.9,15 307.9,16.3 
		303.5,16.3 303.5,8.4 307.9,8.4 	"/>
	<polygon class="st1" points="311,10.7 311,16.3 309.6,16.3 309.6,8.4 311.5,8.4 313.5,14 313.5,8.4 314.9,8.4 314.9,16.3 313,16.3 
			"/>
	<polygon class="st1" points="322.1,9.8 319.9,9.8 319.9,16.3 318.5,16.3 318.5,9.8 316.3,9.8 316.3,8.4 322.1,8.4 	"/>
	<polygon class="st1" points="330.4,9.8 327.5,9.8 327.5,11.6 330.2,11.6 330.2,13 327.5,13 327.5,15 330.4,15 330.4,16.3 326,16.3 
		326,8.4 330.4,8.4 	"/>
	<polygon class="st1" points="333.5,10.7 333.5,16.3 332.1,16.3 332.1,8.4 334.1,8.4 336.1,14 336.1,8.4 337.5,8.4 337.5,16.3 
		335.6,16.3 	"/>
	<path class="st1" d="M344.1,8.5v1.3c-0.7-0.1-1.4-0.2-2.1-0.2c-0.9,0-1.3,0.3-1.3,1.2v3.2c0,0.9,0.3,1.2,1.2,1.2
		c0.4,0,0.8,0,1.1-0.1v-2.1h-1.2v-1.3h2.6V16c-0.8,0.3-1.7,0.4-2.5,0.5c-1.9,0-2.6-0.8-2.6-2.5v-3.1c0-1.7,0.8-2.5,2.7-2.5
		C342.6,8.3,343.4,8.4,344.1,8.5z"/>
	<rect x="346.2" y="8.4" class="st1" width="1.4" height="7.9"/>
	<polygon class="st1" points="350.8,10.7 350.8,16.3 349.4,16.3 349.4,8.4 351.4,8.4 353.4,14 353.4,8.4 354.8,8.4 354.8,16.3 
		352.9,16.3 	"/>
	<polygon class="st1" points="361,9.8 358.1,9.8 358.1,11.6 360.8,11.6 360.8,13 358,13 358,15 361,15 361,16.3 356.6,16.3 
		356.6,8.4 361,8.4 	"/>
	<line class="st6" x1="327.4" y1="354.4" x2="254.3" y2="233.4"/>
	<polygon class="st0" points="254.8,234.2 253,236.6 252,229.5 257.8,233.7 	"/>
	<line class="st6" x1="70.9" y1="354.4" x2="165.3" y2="233.1"/>
	<polygon class="st0" points="164.7,233.8 161.8,233 168,229.5 166.2,236.4 	"/>
	<line class="st6" x1="210.2" y1="354.4" x2="210.2" y2="263.3"/>
	<polygon class="st0" points="210.2,264.2 207.4,265.4 210.2,258.8 212.9,265.4 	"/>
	<line class="st6" x1="210.2" y1="145.2" x2="210.2" y2="174.4"/>
	<polygon class="st0" points="210.2,173.5 212.9,172.3 210.2,178.9 207.4,172.3 	"/>
	<path class="st0" d="M72.8,397.8c-0.8,0-1.7,0-2.7,0c-3.9,0.1-7.7-0.2-11.5-0.9v-4c0-0.4-0.3-0.7-0.7-0.7c-0.4,0-0.7,0.3-0.7,0.7
		v3.7c-2.3-0.6-3.1-1.3-3.1-1.7c0-6.3,4.2-8.7,10.5-10.4h0.1c0.3,1.2,1.1,2.2,2.2,2.8c2,1.1,4.4,1.1,6.5,0c1.1-0.6,1.9-1.6,2.2-2.8
		h0.1l0.6,0.2c0.6-0.6,1.3-1.1,2-1.6c-0.7-0.2-1.4-0.4-2.1-0.6h-0.1c-1.1-0.2-1.5-0.5-1.6-1c2.4-2,4.8-5.3,4.8-9.1
		c0-7.2-3.4-11.5-9.1-11.5s-9.1,4.3-9.1,11.5c0,3.7,2.4,7,4.8,9.1c-0.2,0.6-0.5,0.8-1.6,1H64c-6,1.6-12.1,4.4-12.1,12.4
		c0,2.3,3.1,5,18.1,5c1.3,0,2.4,0,3.5-0.1C73.3,399.2,73,398.5,72.8,397.8z M63.1,372.3c0-2.8,0.7-9.4,7-9.4c6.4,0,7,6.6,7,9.4
		c0,3.2-2.3,6.1-4.5,7.8c-0.3,0.2-0.5,0.6-0.4,1c0.3,1.5,0.8,2.3,1.9,2.8c-0.2,0.8-0.8,1.6-1.5,2c-1.6,0.8-3.5,0.8-5.1,0
		c-0.8-0.4-1.3-1.2-1.6-2c1.1-0.5,1.7-1.4,1.9-2.8c0.1-0.4-0.1-0.8-0.4-1C65.4,378.5,63.1,375.5,63.1,372.3z"/>
	<path class="st0" d="M85.1,405.5c-6.4,0-11.5-5.1-11.5-11.5c0-6.4,5.1-11.5,11.5-11.5c6.4,0,11.5,5.1,11.5,11.5v0
		C96.6,400.3,91.4,405.5,85.1,405.5z M85.1,384.6c-5.2,0-9.4,4.2-9.4,9.4s4.2,9.4,9.4,9.4s9.4-4.2,9.4-9.4
		C94.5,388.8,90.3,384.6,85.1,384.6z"/>
	<path class="st0" d="M84.6,396.3c0.2,0,0.3,0.1,0.3,0.3c0,0.2-0.1,0.3-0.3,0.3s-0.3-0.1-0.3-0.3C84.3,396.5,84.4,396.3,84.6,396.3z
		"/>
	<path class="st0" d="M90.8,393.3l-1.6-1.4v-3.4c0-0.2-0.1-0.3-0.3-0.3h-2c-0.2,0-0.3,0.1-0.3,0.3v1.1l-1.4-1.2
		c-0.1-0.1-0.3-0.1-0.4,0l-5.5,4.9c-0.1,0.1-0.1,0.4,0,0.5l0,0l0.1,0.2c0.1,0.1,0.4,0.1,0.5,0l0,0l0.4-0.3v5h-0.5
		c-0.2,0-0.4,0.2-0.4,0.4v0.2c0,0.2,0.2,0.4,0.4,0.4h10.4c0.2,0,0.4-0.2,0.4-0.4v-0.2c0-0.2-0.2-0.4-0.4-0.4h-0.5v-4.9l0.4,0.3
		c0.2,0.1,0.4,0.1,0.5,0l0.1-0.2C91,393.7,91,393.5,90.8,393.3z M87.6,389.3h0.6v1.8l-0.6-0.6V389.3z M86.1,398.7H84v-3.8h2.1
		L86.1,398.7z M86.9,398.7v-4.3c0-0.2-0.1-0.3-0.3-0.3h-3c-0.2,0-0.3,0.1-0.3,0.3v4.3h-1.9v-5.8l3.4-3.1l0.3-0.3l0.3,0.2l3.5,3.1
		v5.8H86.9z"/>
	<path class="st0" d="M398,397.9c-0.8,0-1.7,0-2.7,0c-3.9,0.1-7.7-0.2-11.5-0.9v-4c0-0.4-0.3-0.7-0.7-0.7c-0.4,0-0.7,0.3-0.7,0.7v0
		v3.7c-2.3-0.6-3.1-1.3-3.1-1.7c0-6.3,4.2-8.7,10.5-10.4h0.1c0.3,1.2,1.1,2.2,2.2,2.8c2,1.1,4.4,1.1,6.5,0c1.1-0.6,1.9-1.6,2.2-2.8
		h0.1l0.6,0.2c0.6-0.6,1.3-1.1,2-1.6c-0.7-0.2-1.4-0.4-2.1-0.6h-0.1c-1.1-0.2-1.5-0.5-1.6-1c2.4-2,4.8-5.4,4.8-9.1
		c0-7.2-3.4-11.5-9.1-11.5c-5.7,0-9.1,4.3-9.1,11.5c0,3.7,2.4,7,4.8,9.1c-0.2,0.6-0.5,0.8-1.7,1h-0.1c-6,1.6-12.1,4.4-12.1,12.4
		c0,2.3,3.1,5,18.1,5c1.3,0,2.4,0,3.5-0.1C398.5,399.3,398.2,398.6,398,397.9z M388.2,372.5c0-2.8,0.7-9.4,7-9.4s7.1,6.6,7.1,9.4
		c0,3.2-2.3,6.2-4.5,7.8c-0.3,0.2-0.5,0.6-0.4,1c0.3,1.5,0.8,2.3,1.9,2.9c-0.2,0.8-0.8,1.6-1.6,2c-1.6,0.8-3.5,0.8-5.1,0
		c-0.8-0.4-1.3-1.1-1.6-2c1.1-0.5,1.7-1.4,1.9-2.9c0.1-0.4-0.1-0.8-0.4-1C390.6,378.6,388.3,375.7,388.2,372.5L388.2,372.5z"/>
	<path class="st0" d="M410.3,405.6c-6.4,0-11.5-5.2-11.5-11.5c0-6.4,5.2-11.5,11.5-11.5c6.4,0,11.5,5.2,11.5,11.5
		C421.8,400.5,416.6,405.6,410.3,405.6z M410.3,384.7c-5.2,0-9.4,4.2-9.4,9.4s4.2,9.4,9.4,9.4s9.4-4.2,9.4-9.4
		C419.7,388.9,415.5,384.7,410.3,384.7z"/>
	<path class="st0" d="M413.7,393.3h-0.3v-1.2c0.2-1.7-1.1-3.2-2.8-3.4s-3.2,1.1-3.4,2.8c0,0.2,0,0.4,0,0.6v1.2h-0.3
		c-0.6,0-1.1,0.5-1.1,1.1v4c0,0.6,0.5,1.1,1.1,1.1h6.8c0.6,0,1.1-0.5,1.1-1.1v-4C414.7,393.8,414.3,393.3,413.7,393.3z M408.1,392.1
		c-0.2-1.2,0.7-2.3,1.8-2.5c1.2-0.2,2.3,0.7,2.5,1.8c0,0.2,0,0.4,0,0.6v1.2h-4.3V392.1z M413.8,398.4l-0.1,0.2h-6.8l-0.2-0.2v-4
		l0.2-0.2h6.8l0.1,0.2V398.4z"/>
	<path class="st0" d="M410.3,395c-0.5,0-0.9,0.4-0.9,0.9c0,0.4,0.2,0.8,0.6,0.9v0.8c0,0.2,0.1,0.3,0.3,0.3s0.3-0.1,0.3-0.3v-0.8
		c0.5-0.2,0.7-0.7,0.6-1.2C411.1,395.3,410.7,395,410.3,395z"/>
	<path class="st0" d="M228.2,203.9c0.2-0.9,0.3-1.8,0.3-2.6c-0.1-6.4-5.3-11.5-11.7-11.4c-4.2,0-8.1,2.2-10.2,5.9
		c-0.6-0.1-1.3-0.2-1.9-0.2c-5.3,0-10,3.4-11.6,8.4c-6.5,0.4-11.5,6-11.1,12.6c0.4,6.3,5.6,11.2,11.9,11.2h33.3
		c6.6,0.1,12-5.1,12.1-11.6C239.4,209.6,234.5,204.3,228.2,203.9z M227.2,224.9h-33.3c-5.1,0.2-9.3-3.8-9.5-8.9
		c-0.2-5.1,3.8-9.3,8.9-9.5c0.2,0,0.3,0,0.5,0c1.3,0,2.6,0.3,3.8,0.8c0.1,0,0.2,0.1,0.3,0.1c0.5,0,0.9-0.4,0.9-0.9
		c0-0.4-0.2-0.7-0.5-0.8c-0.8-0.4-1.7-0.6-2.6-0.8c1.2-4,4.9-6.7,9.1-6.7h0.2c2.3,0,4.6,0.9,6.4,2.4c0.2,0.1,0.4,0.2,0.6,0.2
		c0.3,0,0.5-0.1,0.7-0.3c0.3-0.4,0.3-0.9-0.1-1.3l0,0c-1.1-0.9-2.3-1.6-3.6-2.1c1.6-2.9,4.6-4.6,7.9-4.6c4.9-0.1,8.9,3.8,9,8.7
		c0,1.2-0.3,2.4-0.8,3.4c0,0.1-0.1,0.2-0.1,0.3c-1.3,0.3-2.5,0.7-3.6,1.4c-0.4,0.3-0.6,0.8-0.3,1.2c0.2,0.3,0.5,0.4,0.8,0.4
		c0.2,0,0.3,0,0.5-0.1c1.3-0.8,2.8-1.2,4.3-1.4h0.5c5.1-0.2,9.3,3.7,9.6,8.8c0.2,5.1-3.7,9.3-8.8,9.6
		C227.6,224.9,227.4,224.9,227.2,224.9L227.2,224.9z"/>
</g>
</svg>
