<svg xmlns="http://www.w3.org/2000/svg" viewBox="0 0 103.15 62"><defs><style>.cls-1{fill:#666;}</style></defs><title>aim_conjur</title><g id="Layer_2" data-name="Layer 2"><g id="Layer_1-2" data-name="Layer 1"><path class="cls-1" d="M64.42,42.63c-.73,0-1.46-.05-2.15-.14l-.32,0a22.63,22.63,0,0,1-2.64-.52,23.27,23.27,0,0,1-9.93-5.58l.89-5.16,5-1a14.85,14.85,0,0,0,5.24,3.25l.24.06a13.53,13.53,0,0,0,1.83.45c-.08-.76-.16-1.52-.2-2.29-.27-.07-.54-.12-.8-.2l-.32-.08c-3.57-1.21-6.33-4.21-9.68-9,3.35-4.76,6.11-7.77,9.68-9l.32-.08A11.12,11.12,0,0,1,63.05,13c.32-.05.67-.05,1-.08s.67-.08,1-.08q.79,0,1.5.09h0c.39,0,.75.12,1.11.19l.55.13.17,0a9.48,9.48,0,0,1,2.28,1l0,0c.22.14.44.29.65.45l.27.22.36.32c.18.18.36.35.51.54l0,0a9.66,9.66,0,0,1,2,5.2c0,.42.07.86.07,1.32,0,.08,0,.16,0,.24.75-.33,1.46-.68,2.16-1.06,0-.12,0-.23,0-.35a11.49,11.49,0,0,0-2.19-6.31l5.2-.72,1.07-5a18.56,18.56,0,0,1,4,8.61,3.64,3.64,0,0,1,1.2.68c.41.35.84.68,1.27,1C85.92,5.28,73.57,0,65.1,0c-.84,0-1.65.05-2.45.12l-.41,0c-.76.08-1.5.19-2.22.33h0C52.45,2,47.43,6.8,43.76,11.36,40.09,6.8,35.06,2,27.51.5h-.05C26.76.36,26,.25,25.3.17l-.44,0C24.07.05,23.27,0,22.43,0,13.41,0,0,6,0,22.43S13.41,44.85,22.43,44.85c.84,0,1.65-.05,2.44-.12l.44,0c.74-.08,1.46-.19,2.16-.33h.05c7.55-1.52,12.58-6.3,16.25-10.86,3.66,4.56,8.69,9.34,16.26,10.86h0c.72.14,1.46.25,2.22.33l.41,0c.79.07,1.6.12,2.45.12h.1c0-.1-.09-.18-.13-.28C64.83,43.95,64.64,43.28,64.42,42.63ZM59.31,2.91A22.58,22.58,0,0,1,62,2.4l.32,0a23.17,23.17,0,0,1,2.83-.18A21.39,21.39,0,0,1,80.28,8.61l-1.07,5L74,14.29l-.39-.4a11.43,11.43,0,0,0-8.56-3.22h0c-.41,0-.77.06-1.16.09s-.85,0-1.24.1a13.2,13.2,0,0,0-2,.48l-.24.06a13.38,13.38,0,0,0-3,1.48l.8-4.33L53,5.69A21.82,21.82,0,0,1,59.31,2.91ZM42.37,13.12l-5.09,7.36-.42-.56L36,18.82c-.31-.41-.63-.8-.94-1.17s-.54-.65-.81-1-.62-.68-.93-1-.54-.56-.81-.82-.63-.56-1-.83-.55-.47-.83-.67-.67-.44-1-.65-.57-.37-.87-.52-.73-.33-1.09-.48l-.14-.06-.87-4.71,5.06-2.72A29.72,29.72,0,0,1,42.37,13.12ZM36,22.43C31.53,28.78,28.11,32,22.43,32c-.51,0-1,0-1.44-.09l-.17,0c-.32,0-.62-.1-.92-.16A9.44,9.44,0,0,1,16,30l0,0a7.68,7.68,0,0,1-.58-.52l-.34-.36-.2-.23A9.43,9.43,0,0,1,13,24.36h0c0-.21-.05-.4-.07-.6,0-.42-.07-.86-.07-1.33s0-.9.07-1.33c0-.19,0-.39.07-.6h0A9.43,9.43,0,0,1,14.87,16l.2-.23.35-.36c.19-.18.38-.36.58-.51l0,0a9.45,9.45,0,0,1,3.86-1.71c.3-.06.6-.12.92-.16l.17,0c.46,0,.93-.08,1.44-.09C28.11,12.85,31.53,16.07,36,22.43ZM22.43,2.18a23.16,23.16,0,0,1,2.82.18l.34,0a22.62,22.62,0,0,1,2.6.51A21.42,21.42,0,0,1,31,3.85L26,6.56l.88,4.78c-.4-.13-.82-.2-1.24-.3s-.57-.15-.87-.2a15.62,15.62,0,0,0-2.12-.16l-.22,0h-.06a13.21,13.21,0,0,0-6.14,1.49L16,12.3c-.22.12-.43.24-.64.38s-.47.33-.7.51l-.14.1a9.71,9.71,0,0,0-1.78,1.91L6.87,16.47,4.8,11.93C8.81,5,16.62,2.18,22.43,2.18ZM2.18,22.43a21.1,21.1,0,0,1,2.18-9.71L6.45,17.3l5.73-1.23a11.87,11.87,0,0,0-1.42,4.71v.08c0,.5-.07,1-.07,1.56s0,1.06.07,1.56v.08a10.62,10.62,0,0,0,3.75,7.49l.15.11c.21.17.42.33.65.48l.84,5-4.87,2.4C6.26,36.45,2.18,31,2.18,22.43Zm26,19.52a22.62,22.62,0,0,1-2.6.51l-.34,0a23.16,23.16,0,0,1-2.82.18A22.1,22.1,0,0,1,12,39.94l4.92-2.43-.82-4.87.1.06a13.21,13.21,0,0,0,6.15,1.49h.06l.22,0A15.62,15.62,0,0,0,24.76,34c.3,0,.58-.13.87-.2s.87-.18,1.28-.32.6-.24.89-.37.74-.3,1.09-.48.58-.35.87-.52.67-.41,1-.65.56-.44.83-.67.57-.46.85-.73l5,1.19.42,5.31A23.17,23.17,0,0,1,28.19,41.94Zm14.7-10.86a42.51,42.51,0,0,1-4.31,4.86l-.42-5.27-5.09-1.2.29-.32c.31-.32.62-.65.93-1s.54-.63.81-1,.63-.77.94-1.17l.82-1.09.45-.6L38.22,23l.43-.62h0l2.42-3.5,0,0,2.91-4.2.69-.9a34.87,34.87,0,0,1,7.69-7.64L57.5,8.93l-.83,4.49c-2.53,1.88-4.82,4.68-7.36,8.37v0h0l-.1.14-.33.48h0Zm2.23.61,5.1-7.37a41.32,41.32,0,0,0,4.35,5.28l-4.92,1-.89,5.17A41.12,41.12,0,0,1,45.12,31.69Z"/><path class="cls-1" d="M91.37,46.67a21.13,21.13,0,0,1-2,2.7,10.21,10.21,0,0,1-.92,1.07,27,27,0,0,1-4.72,4.15,28.66,28.66,0,0,1-4.51-3.89.6.6,0,0,0-.8-.06.56.56,0,0,0-.06.78,27.59,27.59,0,0,0,5.06,4.27.45.45,0,0,0,.31.12.48.48,0,0,0,.34-.12A28.1,28.1,0,0,0,90,50.44c.31-.35.58-.7.86-1.07a33.25,33.25,0,0,0,3.65-6,33.12,33.12,0,0,0,2.82-11,.55.55,0,0,0-.52-.61.57.57,0,0,0-.61.49,32.29,32.29,0,0,1-3,11.07A30.28,30.28,0,0,1,91.37,46.67Z"/><path class="cls-1" d="M83.74,48.61A3.38,3.38,0,0,0,86,47.74a2.83,2.83,0,0,0-.25-4.33,3.09,3.09,0,0,0-1.85-.67l-.14,0-.13,0a3.16,3.16,0,0,0-1.83.67,2.79,2.79,0,0,0-1.13,2.27,3,3,0,0,0,.86,2.06A3.38,3.38,0,0,0,83.74,48.61Z"/><path class="cls-1" d="M81.88,37.76,82,38.91a1.73,1.73,0,1,0,3.45,0l.86-7.12a3,3,0,0,0-.18-1,2.65,2.65,0,0,0-1.78-1.69,2.4,2.4,0,0,0-.63-.09,2.69,2.69,0,0,0-2.59,2.79l.36,3Z"/><path class="cls-1" d="M101.69,27.23a34.77,34.77,0,0,1-14.18-5.15,26.49,26.49,0,0,1-2.24-1.66c-.15-.12-.31-.24-.46-.36a1.72,1.72,0,0,0-2.25,0,27.4,27.4,0,0,1-5.8,3.81c-.75.37-1.53.72-2.34,1a39.33,39.33,0,0,1-8.74,2.32,1.72,1.72,0,0,0-1.46,1.7c0,1,0,2,.1,3,0,.75.13,1.48.22,2.2a40.07,40.07,0,0,0,1.24,6.35c.21.74.47,1.43.72,2.13.14.4.26.83.41,1.22s.27.58.4.89a35.26,35.26,0,0,0,12,14.95c.92.65,1.72,1.14,2.34,1.49s1.18.63,1.29.68a1.72,1.72,0,0,0,1.43,0,34.35,34.35,0,0,0,16-18c.42-1.06.8-2.18,1.14-3.35a41.71,41.71,0,0,0,1.56-11.56A1.72,1.72,0,0,0,101.69,27.23Zm-2.22,6.21c0,.31-.08.61-.12.92-.09.67-.19,1.33-.31,2-.06.33-.13.66-.2,1-.13.6-.28,1.19-.43,1.77-.08.29-.15.58-.24.86-.2.68-.43,1.34-.66,2l-.07.2-.08.22c-.29.76-.61,1.49-.94,2.19-.1.22-.21.42-.32.63q-.32.65-.66,1.26l-.08.15-.41.71c-.11.19-.22.39-.33.57l0,0q-.64,1-1.31,1.93h0l-.32.41c-.25.33-.5.64-.75,1l-.61.73c-.26.29-.51.57-.77.85l-.61.63c-.26.26-.51.5-.77.75l-.58.54-.76.65-.53.44-.73.56-.47.35-.7.49-.37.25-.66.41h0l-.25.16-.72.41,0,0L83,57.94l-.25-.16-.66-.42-.37-.26-.38-.26L81,56.63l-.47-.35-.73-.56-.53-.44-.76-.66-.57-.53-.78-.75-.6-.63c-.26-.27-.51-.55-.77-.85l-.61-.73c-.25-.31-.51-.63-.76-1-.11-.14-.21-.26-.32-.4h0q-.67-.91-1.31-1.93v0c-.11-.18-.22-.38-.33-.57L72,46.55l-.08-.14q-.34-.61-.66-1.25c-.11-.21-.22-.42-.32-.64s-.11-.27-.17-.4c-.27-.58-.53-1.17-.77-1.79l-.08-.22v0l-.06-.18c-.24-.64-.46-1.29-.66-2-.08-.28-.16-.57-.24-.85-.16-.58-.3-1.17-.43-1.77-.07-.32-.14-.65-.2-1-.12-.64-.22-1.29-.31-2L68,33.89c0-.15,0-.3-.06-.45-.06-.56-.09-1.16-.13-1.74s-.08-.86-.1-1.32a42.74,42.74,0,0,0,4.63-1.13l.46-.13c1-.31,2-.66,2.89-1h0A35.08,35.08,0,0,0,79,26.52c.3-.16.62-.29.91-.46a30.19,30.19,0,0,0,3.75-2.48c.5.39,1,.75,1.54,1.11s1.35.88,2.05,1.28l.15.09c.29.17.62.3.92.46a35.12,35.12,0,0,0,3.31,1.55c.95.38,1.92.73,2.93,1a43.58,43.58,0,0,0,5.1,1.26C99.65,31.44,99.57,32.45,99.46,33.44Z"/></g></g></svg>