<svg xmlns="http://www.w3.org/2000/svg" viewBox="0 0 90 63.36"><defs><style>.cls-1{fill:#616161;}.cls-2{fill:none;}</style></defs><title>Automatic Credential Rotation</title><g id="Layer_2" data-name="Layer 2"><g id="Layer_1-2" data-name="Layer 1"><path class="cls-1" d="M78.67,10.33H46.12v2.05h32A3.5,3.5,0,0,1,78.67,10.33Z"/><path class="cls-1" d="M80.17,32.32l-.19,0a1.38,1.38,0,0,0-.17.08,7,7,0,0,1-.86.34V61.3H2.06V12.38H34.89V10.33H0v53H81V31.83A1.83,1.83,0,0,1,80.17,32.32Z"/><path class="cls-1" d="M79.17,27.37a1.82,1.82,0,0,1,1.84-.5v-11a2,2,0,0,1-1,.29,1.91,1.91,0,0,1-1-.28V27.61Z"/><path class="cls-1" d="M36,56.05H7.68V23.79H36ZM10.15,53.59H33.57V26.26H10.15Z"/><path class="cls-1" d="M41.9,48.18a1,1,0,1,0,0,2H59.81a1,1,0,0,0,0-2Z"/><path class="cls-1" d="M73.23,42.14H41.9a1,1,0,1,0,0,2H73.26Z"/><path class="cls-1" d="M73.23,36.11H41.9a1,1,0,1,0,0,2H73.26Z"/><path class="cls-1" d="M56.75,30.08H41.9a1,1,0,1,0,0,2H57.54A2,2,0,0,1,56.75,30.08Z"/><path class="cls-1" d="M59.71,32.07h4.64a6.63,6.63,0,0,1-2.14-2H60.5A2,2,0,0,1,59.71,32.07Z"/><path class="cls-1" d="M34.89.46V17.24H46.12V.46ZM43,15.12H38.06v-4.9H43Z"/><path class="cls-1" d="M21.85,53.87h-2.2c.81,0,1.62.09,2.45.06.59,0,1.17,0,1.75,0l-.1-.08C23.16,53.86,22.53,53.87,21.85,53.87Z"/><path class="cls-1" d="M87.43,18.78a.85.85,0,0,0-.85.85c0,5.21-5.71,7.06-10.6,7.06a11.67,11.67,0,0,1-7.92-2.9L72,19.7a.85.85,0,0,0,.17-.93.84.84,0,0,0-.78-.52H57.21a.86.86,0,0,0-.86.86V33.93a.85.85,0,0,0,.86.86.84.84,0,0,0,.62-.27l3.82-4a15.45,15.45,0,0,0,10.67,4.28c9.25,0,16-6.38,16-15.16A.85.85,0,0,0,87.43,18.78Zm-5,10.65a14.93,14.93,0,0,1-10.11,3.65A13.82,13.82,0,0,1,62.26,28.7a.88.88,0,0,0-.62-.27.85.85,0,0,0-.62.27l-3,3.1V20H69.35l-3.11,3.26a.86.86,0,0,0,0,1.17,13.19,13.19,0,0,0,9.75,4c3.88,0,7-.93,9.2-2.57A12.28,12.28,0,0,1,82.43,29.43Z"/><path class="cls-1" d="M89.46.06a.84.84,0,0,0-.93.21l-3.83,4A15.45,15.45,0,0,0,74,0c-9.25,0-16,6.37-16,15.16a.86.86,0,0,0,.86.85.85.85,0,0,0,.85-.85c0-5.21,5.72-7.06,10.61-7.06A11.66,11.66,0,0,1,78.29,11l-3.9,4.09a.87.87,0,0,0-.17.93.86.86,0,0,0,.79.52H89.14a.85.85,0,0,0,.86-.86V.86A.86.86,0,0,0,89.46.06ZM88.29,14.83H77l3.11-3.26a.86.86,0,0,0,0-1.17,13.18,13.18,0,0,0-9.74-4c-3.89,0-7.06.93-9.21,2.56a12.37,12.37,0,0,1,2.75-3.59A14.93,14.93,0,0,1,74,1.71,13.86,13.86,0,0,1,84.1,6.09a.84.84,0,0,0,1.23,0l3-3.1Z"/><path class="cls-2" d="M27.6,50.45a.42.42,0,0,1,.43.42v3.05h3.54c-.16-3.56-2.66-8.64-6.36-9.64l-.06,0A2.78,2.78,0,0,1,23.82,46a4.09,4.09,0,0,1-3.92,0,3,3,0,0,1-.84-.73,2.57,2.57,0,0,1-.49-1l-.06,0-.35.09h0c-3.5,1-5.85,6.1-6,9.55h3.22V50.86a.42.42,0,1,1,.84,0v3.06h11V50.87A.42.42,0,0,1,27.6,50.45Z"/><path class="cls-2" d="M21.86,31.22c-3.86,0-4.27,4-4.27,5.69a5.84,5.84,0,0,0,1.75,3.85,9,9,0,0,0,1,.89.46.46,0,0,1,.12.12.65.65,0,0,1,.13.5A2.09,2.09,0,0,1,19.39,44a1.83,1.83,0,0,0,.38.75,2,2,0,0,0,.55.44,3.22,3.22,0,0,0,3.07,0,1.92,1.92,0,0,0,.94-1.2,1.84,1.84,0,0,1-.78-.64,3,3,0,0,1-.4-1.09.63.63,0,0,1,.24-.62,6.51,6.51,0,0,0,2.74-4.75,7.18,7.18,0,0,0-1.23-4.34A3.69,3.69,0,0,0,21.86,31.22Z"/><path class="cls-1" d="M23.39,41.65a.63.63,0,0,0-.24.62,3,3,0,0,0,.4,1.09,2.89,2.89,0,0,1-.39-1.09.63.63,0,0,1,.24-.61,6.51,6.51,0,0,0,2.74-4.75,7.23,7.23,0,0,0-1.24-4.35,7.18,7.18,0,0,1,1.23,4.34A6.51,6.51,0,0,1,23.39,41.65Z"/><path class="cls-1" d="M23.39,45.2a3.22,3.22,0,0,1-3.07,0,2,2,0,0,1-.55-.44,2.05,2.05,0,0,0,.56.45,3.22,3.22,0,0,0,3.07,0,2,2,0,0,0,.94-1.2h0A1.92,1.92,0,0,1,23.39,45.2Z"/><path class="cls-1" d="M19.34,40.76a8.22,8.22,0,0,0,1,.9.57.57,0,0,1,.11.11.46.46,0,0,0-.12-.12A9,9,0,0,1,19.34,40.76Z"/><path class="cls-1" d="M21.86,30a5.08,5.08,0,0,1,3.7,1.42,5.06,5.06,0,0,0-3.71-1.43c-3.47,0-5.54,2.6-5.54,7a6.94,6.94,0,0,0,1.85,4.44,7,7,0,0,1-1.84-4.43C16.32,32.55,18.39,30,21.86,30Z"/><path class="cls-1" d="M25.49,43h0c.46.12.92.27,1.38.44l.06,0c-.48-.16-1-.3-1.45-.43h0a1.82,1.82,0,0,1-.82-.31A1.7,1.7,0,0,0,25.49,43Z"/><path class="cls-1" d="M18.58,44.26h0a2.57,2.57,0,0,0,.49,1A2.48,2.48,0,0,1,18.58,44.26Z"/><path class="cls-1" d="M18.15,44.37a6.27,6.27,0,0,0-.61-.53,1.89,1.89,0,0,0-.76-.35c-3,1.15-5.74,6.41-5.9,10.43h1.26C12.3,50.47,14.65,45.41,18.15,44.37Z"/><path class="cls-1" d="M15.78,50.44a.42.42,0,0,0-.42.42v3.06h.84V50.86A.42.42,0,0,0,15.78,50.44Z"/><path class="cls-1" d="M18.24,43c.69-.14.89-.28,1-.63h0c-.11.35-.31.49-1,.63h0c-.35.09-.69.2-1,.32.35-.11.7-.22,1.05-.31Z"/><path class="cls-1" d="M25.56,44.37l-.35-.1-.07,0a2.75,2.75,0,0,1-1.33,1.69,4.07,4.07,0,0,1-3.91,0,3,3,0,0,1-.84-.72,3,3,0,0,0,.84.73,4.09,4.09,0,0,0,3.92,0,2.78,2.78,0,0,0,1.33-1.69l.06,0c3.7,1,6.2,6.08,6.36,9.64h1.27c-.16-4-2.9-9.28-5.93-10.43a1.85,1.85,0,0,0-.74.34A7.84,7.84,0,0,0,25.56,44.37Z"/><path class="cls-1" d="M16.75,43.48h0l.37-.13Z"/><path class="cls-1" d="M18.51,44.28l.06,0h0l-.07,0-.35.1h0Z"/><path class="cls-1" d="M28,50.87a.43.43,0,0,0-.85,0v3.05H28Z"/><path class="cls-1" d="M24.33,44h0a1.84,1.84,0,0,1-.78-.64A1.84,1.84,0,0,0,24.33,44Z"/><path class="cls-1" d="M20.57,42.27a.65.65,0,0,0-.13-.5.63.63,0,0,1,.12.5A2.09,2.09,0,0,1,19.38,44a1.89,1.89,0,0,0,.39.76,1.83,1.83,0,0,1-.38-.75A2.09,2.09,0,0,0,20.57,42.27Z"/><path class="cls-1" d="M19.34,40.76a5.84,5.84,0,0,1-1.75-3.85c0-1.71.41-5.69,4.27-5.69a3.69,3.69,0,0,1,3,1.34,3.7,3.7,0,0,0-3-1.35c-3.85,0-4.27,4-4.27,5.69A5.86,5.86,0,0,0,19.34,40.76Z"/><path class="cls-1" d="M24.48,42.4a.72.72,0,0,0,.18.32.78.78,0,0,1-.17-.31,7.65,7.65,0,0,0,1.07-11,7.66,7.66,0,0,1-1.08,11Z"/><path class="cls-1" d="M18.16,41.34a8.9,8.9,0,0,0,1.07,1.06h0A8.9,8.9,0,0,1,18.16,41.34Z"/><path class="cls-1" d="M18.15,44.37l.35-.1.07,0h0a2.48,2.48,0,0,0,.48,1,3,3,0,0,0,.84.72,4.07,4.07,0,0,0,3.91,0,2.75,2.75,0,0,0,1.33-1.69l.07,0,.35.1a7.84,7.84,0,0,1,.61-.54,1.85,1.85,0,0,1,.74-.34c-.46-.17-.92-.32-1.38-.44h0a1.7,1.7,0,0,1-.83-.32.72.72,0,0,1-.18-.32,7.66,7.66,0,0,0,1.08-11A5.08,5.08,0,0,0,21.86,30c-3.47,0-5.54,2.6-5.54,7a7,7,0,0,0,1.84,4.43,8.9,8.9,0,0,0,1.07,1.06h0c-.11.35-.31.49-1,.63h0c-.35.09-.7.2-1.05.31l-.37.13a1.89,1.89,0,0,1,.76.35A6.27,6.27,0,0,1,18.15,44.37Zm-.57-7.47c0-1.71.42-5.69,4.27-5.69a3.7,3.7,0,0,1,3,1.35,7.23,7.23,0,0,1,1.24,4.35,6.51,6.51,0,0,1-2.74,4.75.63.63,0,0,0-.24.61,2.89,2.89,0,0,0,.39,1.09,1.84,1.84,0,0,0,.78.64h0a2,2,0,0,1-.94,1.2,3.22,3.22,0,0,1-3.07,0,2.05,2.05,0,0,1-.56-.45,1.89,1.89,0,0,1-.39-.76,2.09,2.09,0,0,0,1.18-1.73.63.63,0,0,0-.12-.5.57.57,0,0,0-.11-.11,8.22,8.22,0,0,1-1-.9A5.86,5.86,0,0,1,17.58,36.9Z"/></g></g></svg>