<svg xmlns="http://www.w3.org/2000/svg" viewBox="0 0 81 84.61"><defs><style>.cls-1{fill:#616161;}</style></defs><title>Centralized Secure Storage</title><g id="Layer_2" data-name="Layer 2"><g id="Layer_1-2" data-name="Layer 1"><path class="cls-1" d="M17.09,46.83c-7.33,0-14.26-6.35-14.26-13S9.66,21,16.9,20.92c1.84,0,3.63,1.3,5.31,2a1.23,1.23,0,0,0,.49.1,1.29,1.29,0,0,0,1.17-.72,1.15,1.15,0,0,0-.67-1.54c-1.2-.47-3.41-1.77-4.68-2,1.6-5.11,7.8-8.75,13.75-8.75h.33c3.29,0,6.47,2.08,9,4.06a1.31,1.31,0,0,0,.82.28,1.3,1.3,0,0,0,1-.42,1.11,1.11,0,0,0-.15-1.65,25.12,25.12,0,0,0-6-3.69c2.19-3.69,7.44-6,12.13-6C56.34,2.56,63,8.65,63,15a6.66,6.66,0,0,1-1,3.53c-.05.12-1.06.25-1.08.37-1.78.34-3.49,1.92-5.06,2.79a1.13,1.13,0,0,0-.44,1.61,1.29,1.29,0,0,0,1.09.57,1.36,1.36,0,0,0,.65-.16c1.84-1,3.93-2.59,6.07-2.73l1.69,0c7.33,0,13.29,6.28,13.29,12.9s-6.93,13-14.26,13v2.56c9.43,0,17.09-7,17.09-15.52,0-8.12-6.89-14.8-15.63-15.47A13.77,13.77,0,0,0,65.81,15C65.81,6.71,58.43,0,49.36,0A16.81,16.81,0,0,0,35,7.65a19.07,19.07,0,0,0-2.73-.2C24.77,7.45,18.14,12,16,18.38,7.06,18.91,0,25.66,0,33.87c0,8.56,7.66,15.52,17.09,15.52Z"/><path class="cls-1" d="M40.84,32.51c-10.62,0-21.36,2.5-21.36,7.26V48.7l.55-.46a3,3,0,0,1,2-.78V43.41C25.86,45.8,33.38,47,40.84,47s15-1.23,18.79-3.62v7.12c-1.72,2-8.55,4.19-18.79,4.19-1.09,0-2.14,0-3.15-.08a3,3,0,0,1,.58,1.73c.86,0,1.71.06,2.57.06,7.4,0,15.14-1.28,18.79-3.7V54.8c-1.72,2-8.55,4.19-18.79,4.19-.92,0-1.8,0-2.65-.05,0,.58-.09,1.14-.15,1.7.93,0,1.87.06,2.8.06,7.4,0,15.14-1.28,18.79-3.7v7.2c-1.72,2-8.55,4.18-18.79,4.18q-2.39,0-4.5-.15c-.2.57-.41,1.12-.64,1.66,1.7.13,3.42.2,5.14.2,7.4,0,15.14-1.27,18.79-3.69v2.07c-1.72,2-8.55,4.18-18.79,4.18a61.07,61.07,0,0,1-6.3-.3c-.3.56-.6,1.1-.92,1.61a65.92,65.92,0,0,0,7.22.4c7.4,0,15.14-1.28,18.79-3.69v6.68c0,.53-1,1.83-5,3a50.3,50.3,0,0,1-13.82,1.7A51.32,51.32,0,0,1,28,80.62a27.14,27.14,0,0,1-2.49,1.94,51.4,51.4,0,0,0,15.31,2c10.61,0,21.35-2.49,21.35-7.26V39.77C62.19,35,51.45,32.51,40.84,32.51ZM54.66,42.77a50.3,50.3,0,0,1-13.82,1.7c-12.16,0-18.79-3.1-18.79-4.7,0-.53,1-1.83,5-3a50.71,50.71,0,0,1,13.83-1.7c12.15,0,18.79,3.11,18.79,4.7C59.63,40.3,58.59,41.6,54.66,42.77Z"/><path class="cls-1" d="M22.05,82.48a1.32,1.32,0,0,1-.56-.13c-.57-.28-14-7-14-25.92A1.28,1.28,0,0,1,8.6,55.16,23.66,23.66,0,0,0,21.18,49.5a1.28,1.28,0,0,1,1.73,0,23.66,23.66,0,0,0,12.58,5.66,1.29,1.29,0,0,1,1.08,1.27c0,18.92-13.39,25.64-14,25.92A1.39,1.39,0,0,1,22.05,82.48Zm-12-25c.43,14.58,9.54,20.84,12,22.24,2.4-1.4,11.51-7.66,11.94-22.24a26.26,26.26,0,0,1-11.94-5.35A26.35,26.35,0,0,1,10.1,57.5Z"/><path class="cls-1" d="M54.2,49.74a.84.84,0,0,1-.82-.64.85.85,0,0,1,.62-1,17,17,0,0,0,3.24-1.13A.85.85,0,1,1,58,48.46a18.34,18.34,0,0,1-3.59,1.26Z"/><path class="cls-1" d="M54.2,63.41a.85.85,0,0,1-.2-1.68,16.29,16.29,0,0,0,3.24-1.14A.86.86,0,1,1,58,62.13a18.38,18.38,0,0,1-3.59,1.25Z"/><path class="cls-1" d="M54.2,77.07a.83.83,0,0,1-.82-.64.85.85,0,0,1,.62-1,17,17,0,0,0,3.24-1.13A.85.85,0,1,1,58,75.79a18.34,18.34,0,0,1-3.59,1.26A.75.75,0,0,1,54.2,77.07Z"/></g></g></svg>