<svg xmlns="http://www.w3.org/2000/svg" xmlns:xlink="http://www.w3.org/1999/xlink" version="1.1" x="0px" y="0px" viewBox="0 0 100 125" enable-background="new 0 0 100 100" xml:space="preserve"><path fill="#000000" d="M97.327,10H2.673C1.197,10,0,11.197,0,12.673V25v62.327C0,88.803,1.197,90,2.673,90h94.653  c1.476,0,2.673-1.197,2.673-2.673V25V12.673C100,11.197,98.803,10,97.327,10z M95,85H5V30h90V85z M5,25V15h90v10H5z"/><circle fill="#000000" cx="10" cy="20" r="2"/><circle fill="#000000" cx="17.5" cy="20" r="2"/><circle fill="#000000" cx="25" cy="20" r="2"/><path fill="#000000" d="M32.116,73.384c-0.764,0.764-2.004,0.764-2.768,0L15.61,59.645c-0.909-0.909-0.909-2.382,0-3.29  l13.739-13.739c0.764-0.764,2.004-0.764,2.768,0l0.643,0.643c0.833,0.833,0.833,2.184,0,3.018L21.143,57.893  c-0.059,0.059-0.059,0.155,0,0.214l11.741,11.741c0.764,0.764,0.764,2.004,0,2.768L32.116,73.384z"/><path fill="#000000" d="M68.019,73.384c0.764,0.764,2.004,0.764,2.768,0l13.739-13.739c0.909-0.909,0.909-2.382,0-3.29  L70.787,42.616c-0.764-0.764-2.004-0.764-2.768,0l-0.643,0.643c-0.833,0.833-0.833,2.184,0,3.018l11.616,11.616  c0.059,0.059,0.059,0.155,0,0.214L67.251,69.848c-0.764,0.764-0.764,2.004,0,2.768L68.019,73.384z"/><path fill="#000000" d="M61.388,41.954c-0.137-0.501-0.467-0.927-0.917-1.184l-0.943-0.539c-0.938-0.536-2.134-0.21-2.67,0.728  L38.8,72.56c-0.258,0.451-0.325,0.985-0.189,1.486c0.137,0.501,0.467,0.927,0.917,1.184l0.943,0.539  c0.938,0.536,2.134,0.21,2.67-0.728L61.2,43.44C61.457,42.989,61.525,42.454,61.388,41.954z"/><text x="0" y="115" fill="#000000" font-size="5px" font-weight="bold" font-family="'Helvetica Neue', Helvetica, Arial-Unicode, Arial, Sans-serif">Created by Darren Barone</text><text x="0" y="120" fill="#000000" font-size="5px" font-weight="bold" font-family="'Helvetica Neue', Helvetica, Arial-Unicode, Arial, Sans-serif">from the Noun Project</text></svg>