<svg xmlns="http://www.w3.org/2000/svg" viewBox="0 0 68.61 74.7"><defs><style>.cls-1{fill:#616161;}</style></defs><title>Detailed Audit Reporting</title><g id="Layer_2" data-name="Layer 2"><g id="Layer_1-2" data-name="Layer 1"><path class="cls-1" d="M63.25,57.14V42.35H60.57v1.18H60V56.47H8.58V22.35a1.69,1.69,0,0,1,1.6-1.76H31.41l.21,1.17H34.3v-4.7H10.18a5.07,5.07,0,0,0-4.82,5.29V57.14l-5.12,9a1.87,1.87,0,0,0-.24.93v1.18A6.21,6.21,0,0,0,5.9,74.7H62.71a6.21,6.21,0,0,0,5.9-6.47V67.05a1.88,1.88,0,0,0-.25-.93ZM8.19,58.82H60.41l4.36,7.65h-22l-.45-2.95H26.26l-.44,2.95h-22Zm57.2,9.41a2.82,2.82,0,0,1-2.68,2.94H5.9a2.82,2.82,0,0,1-2.68-2.94v-.59H65.39Z"/><path class="cls-1" d="M46.05,13.53H42.83a1.18,1.18,0,0,0,0,2.35h3.22a1.18,1.18,0,0,0,0-2.35Z"/><path class="cls-1" d="M42.83,7.65h3.22a1.13,1.13,0,0,0,1.07-1.18,1.13,1.13,0,0,0-1.07-1.18H42.83a1.13,1.13,0,0,0-1.07,1.18A1.13,1.13,0,0,0,42.83,7.65Z"/><path class="cls-1" d="M46.05,21.76H42.83a1.19,1.19,0,0,0,0,2.36h3.22a1.19,1.19,0,0,0,0-2.36Z"/><path class="cls-1" d="M67,0H38.06a1.69,1.69,0,0,0-1.61,1.76V27.64a1.69,1.69,0,0,0,1.61,1.77H51.45v2.35h-1.6v3.53H46.63v5.88H58.42V35.29H55.21V31.76H53.6V29.41H67a1.69,1.69,0,0,0,1.61-1.77V1.76A1.69,1.69,0,0,0,67,0ZM39.66,10.59H62.71v8.23H39.66Zm24.12,0h1.61v8.23H63.78Zm1.61-1.18H63.78V3.53h1.61ZM62.71,3.53V9.41H39.66V3.53ZM39.66,20H62.71v5.88H39.66Zm24.12,5.88V20h1.61v5.88Z"/><path class="cls-1" d="M36.45,38.23A1.69,1.69,0,0,0,38.06,40h7.5V36.47h-7.5A1.69,1.69,0,0,0,36.45,38.23Z"/><path class="cls-1" d="M67,36.47H59.49V40H67a1.77,1.77,0,0,0,0-3.53Z"/><polygon class="cls-1" points="34.3 24.7 34.3 23.53 11.26 23.53 11.26 54.11 57.35 54.11 57.35 43.53 56.28 43.53 56.28 52.94 12.33 52.94 12.33 24.7 34.3 24.7"/><path class="cls-1" d="M23,34.9a.71.71,0,0,0-1.08,0l-3.65,4-1-1.09a.71.71,0,0,0-1.08,0,.9.9,0,0,0,0,1.19l1.54,1.69a.71.71,0,0,0,1.08,0L23,36.09A.9.9,0,0,0,23,34.9Z"/><path class="cls-1" d="M21,42.19H15v-6H21Zm-5.38-.61H20.4v-4.8H15.58Z"/><path class="cls-1" d="M23,43.53a.71.71,0,0,0-1.08,0l-3.65,4-1-1.1a.71.71,0,0,0-1.08,0,.9.9,0,0,0,0,1.19l1.54,1.69a.71.71,0,0,0,1.08,0L23,44.72A.9.9,0,0,0,23,43.53Z"/><path class="cls-1" d="M21,50.83H15v-6H21Zm-5.38-.62H20.4V45.42H15.58Z"/><path class="cls-1" d="M23,26.27a.71.71,0,0,0-1.08,0l-3.65,4-1-1.09a.71.71,0,0,0-1.08,0,.9.9,0,0,0,0,1.19l1.54,1.69a.73.73,0,0,0,1.08,0L23,27.46A.9.9,0,0,0,23,26.27Z"/><path class="cls-1" d="M21,33.56H15v-6H21ZM15.58,33H20.4v-4.8H15.58Z"/><path class="cls-1" d="M25.71,48.83a.54.54,0,0,0-.52.57.55.55,0,0,0,.52.57H35a.55.55,0,0,0,.52-.57.54.54,0,0,0-.52-.57Z"/><path class="cls-1" d="M42,45.42H25.71a.55.55,0,0,0-.52.57.54.54,0,0,0,.52.57H42Z"/><path class="cls-1" d="M25.71,31.5a.54.54,0,0,0-.52.57.55.55,0,0,0,.52.57h5.4a.55.55,0,0,0,.52-.57.54.54,0,0,0-.52-.57Z"/><path class="cls-1" d="M34.3,28.09H25.71a.57.57,0,0,0,0,1.14H34.3Z"/><path class="cls-1" d="M25.71,40.43a.57.57,0,0,0,0,1.13h5.4a.57.57,0,0,0,0-1.13Z"/><path class="cls-1" d="M34.3,37H25.71a.57.57,0,0,0,0,1.13H34.3Z"/></g></g></svg>