<svg xmlns="http://www.w3.org/2000/svg" viewBox="0 0 77 71.59"><defs><style>.cls-1{fill:#616161;}</style></defs><title>End-to-End Automation</title><g id="Layer_2" data-name="Layer 2"><g id="Layer_1-2" data-name="Layer 1"><path class="cls-1" d="M38.39,47.45A11.66,11.66,0,1,1,50,35.8,11.67,11.67,0,0,1,38.39,47.45Zm0-21.81A10.16,10.16,0,1,0,48.54,35.8,10.17,10.17,0,0,0,38.39,25.64Z"/><path class="cls-1" d="M41.74,59.86H35a1.13,1.13,0,0,1-1.12-1l-.57-4.58a19.54,19.54,0,0,1-4.46-1.85l-3.64,2.83a1.13,1.13,0,0,1-1.49-.09L19,50.44A1.13,1.13,0,0,1,18.91,49l2.83-3.65a19.36,19.36,0,0,1-1.85-4.46l-4.58-.57a1.12,1.12,0,0,1-1-1.12V32.44a1.12,1.12,0,0,1,1-1.12l4.58-.57a19.36,19.36,0,0,1,1.85-4.46l-2.83-3.65A1.13,1.13,0,0,1,19,21.15l4.75-4.74a1.13,1.13,0,0,1,1.49-.09l3.64,2.83a19.54,19.54,0,0,1,4.46-1.85l.57-4.58a1.13,1.13,0,0,1,1.12-1h6.71a1.13,1.13,0,0,1,1.12,1l.57,4.58a19.36,19.36,0,0,1,4.46,1.85l3.65-2.83a1.13,1.13,0,0,1,1.49.09l4.74,4.74a1.12,1.12,0,0,1,.1,1.49L55,26.29a18.51,18.51,0,0,1,1.85,4.46l4.58.57a1.13,1.13,0,0,1,1,1.12v6.71a1.13,1.13,0,0,1-1,1.12l-4.58.57A18.51,18.51,0,0,1,55,45.3L57.87,49a1.12,1.12,0,0,1-.1,1.49L53,55.18a1.13,1.13,0,0,1-1.49.09l-3.65-2.83a19.36,19.36,0,0,1-4.46,1.85l-.57,4.58A1.13,1.13,0,0,1,41.74,59.86ZM36,57.6h4.72l.54-4.36a1.14,1.14,0,0,1,.87-1,16.77,16.77,0,0,0,5.21-2.16,1.15,1.15,0,0,1,1.3.06l3.47,2.7,3.33-3.34-2.7-3.47a1.13,1.13,0,0,1-.06-1.29,17,17,0,0,0,2.17-5.21,1.12,1.12,0,0,1,.95-.87l4.36-.54V33.43l-4.36-.54a1.12,1.12,0,0,1-.95-.87,17,17,0,0,0-2.17-5.21,1.13,1.13,0,0,1,.06-1.29l2.7-3.47-3.33-3.34-3.47,2.7a1.15,1.15,0,0,1-1.3.06,16.77,16.77,0,0,0-5.21-2.16,1.14,1.14,0,0,1-.87-1L40.75,14H36l-.55,4.36a1.13,1.13,0,0,1-.87,1,16.77,16.77,0,0,0-5.21,2.16,1.13,1.13,0,0,1-1.29-.06l-3.47-2.7L21.3,22.05,24,25.52a1.11,1.11,0,0,1,.06,1.29A16.77,16.77,0,0,0,21.9,32a1.14,1.14,0,0,1-1,.87l-4.36.54v4.73l4.36.54a1.14,1.14,0,0,1,1,.87,16.77,16.77,0,0,0,2.16,5.21A1.11,1.11,0,0,1,24,46.07l-2.7,3.47,3.34,3.34,3.47-2.7a1.13,1.13,0,0,1,1.29-.06,16.77,16.77,0,0,0,5.21,2.16,1.13,1.13,0,0,1,.87,1Z"/><path class="cls-1" d="M38.39,43.69a7.9,7.9,0,1,1,7.89-7.89A7.9,7.9,0,0,1,38.39,43.69Zm0-13.53A5.64,5.64,0,1,0,44,35.8,5.65,5.65,0,0,0,38.39,30.16Z"/><path class="cls-1" d="M74.18,35.8H71.65A33.3,33.3,0,0,0,38.39,2.53V0A35.84,35.84,0,0,1,74.18,35.8Z"/><path class="cls-1" d="M38.39,71.59V69.06c1.07,0,2.17,0,3.24-.15l.24,2.51C40.72,71.53,39.55,71.59,38.39,71.59Zm5.21-.38-.36-2.5a30.79,30.79,0,0,0,3.18-.62L47,70.54C45.91,70.82,44.76,71,43.6,71.21Zm5.12-1.13L48,67.66c1-.32,2.07-.68,3.06-1.09l1,2.34C50.94,69.35,49.83,69.74,48.72,70.08Zm4.89-1.88-1.08-2.28a31.57,31.57,0,0,0,2.87-1.53l1.29,2.17A33.68,33.68,0,0,1,53.61,68.2Zm4.56-2.57-1.4-2.1c.9-.6,1.78-1.25,2.61-1.93l1.6,2C60.08,64.3,59.13,65,58.17,65.63Zm4.14-3.2-1.69-1.88c.8-.72,1.57-1.49,2.3-2.29L64.79,60C64,60.83,63.17,61.65,62.31,62.43Zm3.62-3.78L64,57c.69-.83,1.34-1.7,1.95-2.59L68,55.87A33.73,33.73,0,0,1,65.93,58.65Zm3-4.25-2.15-1.32c.56-.92,1.08-1.88,1.54-2.84l2.28,1.09A33.8,33.8,0,0,1,69,54.4Z"/><path class="cls-1" d="M8.41,21.35,6.13,20.26c.5-1,1.07-2.07,1.67-3.07L10,18.51C9.4,19.43,8.87,20.39,8.41,21.35Zm2.42-4.21L8.74,15.72c.66-1,1.36-1.89,2.1-2.78l1.94,1.61C12.1,15.38,11.44,16.25,10.83,17.14Zm3-3.81L12,11.62a33.71,33.71,0,0,1,2.48-2.45L16.16,11C15.36,11.76,14.58,12.53,13.85,13.33ZM17.39,10l-1.6-2C16.7,7.3,17.64,6.6,18.6,6L20,8.06C19.11,8.66,18.23,9.31,17.39,10Zm4-2.79L20.08,5a33.85,33.85,0,0,1,3.09-1.64l1.07,2.29A31.31,31.31,0,0,0,21.38,7.2ZM25.73,5l-1-2.34c1.07-.44,2.18-.83,3.29-1.17l.73,2.42C27.75,4.25,26.72,4.61,25.73,5ZM30.35,3.5l-.61-2.45C30.86.77,32,.55,33.17.38l.36,2.5A30.79,30.79,0,0,0,30.35,3.5Zm4.8-.82L34.9.17C36.06.06,37.23,0,38.39,0V2.53C37.31,2.53,36.22,2.58,35.15,2.68Z"/><path class="cls-1" d="M38.39,71.59A35.84,35.84,0,0,1,2.59,35.8H5.12A33.3,33.3,0,0,0,38.39,69.06Z"/><polygon class="cls-1" points="0 36.17 3.98 30.93 7.96 36.17 0 36.17"/><polygon class="cls-1" points="69.04 34.47 73.02 39.71 77 34.47 69.04 34.47"/></g></g></svg>