<svg xmlns="http://www.w3.org/2000/svg" viewBox="0 0 69.08 69"><defs><style>.cls-1{fill:#666;}</style></defs><title>endpoint_privilege_manager</title><g id="Layer_2" data-name="Layer 2"><g id="Layer_1-2" data-name="Layer 1"><path class="cls-1" d="M63.61,52.9V32.24a35.69,35.69,0,0,1-3.23,3.63V52.29H8.62V21a1.62,1.62,0,0,1,1.62-1.62H31.59s-.42-1.72-.69-3.23H10.24A4.86,4.86,0,0,0,5.39,21V52.9L.25,61.14A1.62,1.62,0,0,0,0,62v1.08A5.94,5.94,0,0,0,5.93,69H63.07A5.94,5.94,0,0,0,69,63.07V62a1.62,1.62,0,0,0-.25-.86ZM8.24,54.45H60.76l4.38,7H43l-.45-2.7H26.41L26,61.45H3.86Zm57.52,8.62a2.7,2.7,0,0,1-2.7,2.7H5.93a2.7,2.7,0,0,1-2.7-2.7v-.54H65.77Z"/><path class="cls-1" d="M47.08,34l-.5-.41Z"/><path class="cls-1" d="M46.59,33.55l-.72-.62Z"/><path class="cls-1" d="M45.87,32.94l-.54-.5Z"/><path class="cls-1" d="M45.33,32.43l-.73-.71Z"/><path class="cls-1" d="M49.22,35.53l-.35-.24Z"/><path class="cls-1" d="M48.87,35.29l-.66-.46Z"/><path class="cls-1" d="M47.77,34.5,47.08,34Z"/><path class="cls-1" d="M49.84,35.92l-.62-.39Z"/><path class="cls-1" d="M48.21,34.83l-.44-.33Z"/><path class="cls-1" d="M39.77,25.34c-.24-.42-.47-.86-.69-1.31C39.3,24.47,39.53,24.92,39.77,25.34Z"/><path class="cls-1" d="M44,31.13c-.24-.26-.49-.52-.73-.8C43.54,30.61,43.79,30.87,44,31.13Z"/><path class="cls-1" d="M39.08,24c-.1-.2-.21-.4-.3-.6C38.87,23.63,39,23.82,39.08,24Z"/><path class="cls-1" d="M38.77,23.42c-.31-.66-.61-1.35-.89-2.06C38.16,22.08,38.46,22.76,38.77,23.42Z"/><path class="cls-1" d="M40.16,26l-.39-.67Z"/><path class="cls-1" d="M40.47,26.54h0L40.16,26C40.27,26.19,40.37,26.37,40.47,26.54Z"/><path class="cls-1" d="M42.72,29.65q-.36-.44-.71-.9C42.25,29.05,42.48,29.35,42.72,29.65Z"/><path class="cls-1" d="M43.3,30.33l-.58-.69Z"/><path class="cls-1" d="M41.71,28.36l.3.38-.29-.39Z"/><path class="cls-1" d="M57.48,31.13l-.57.6Z"/><path class="cls-1" d="M37.89,21.36c0-.13-.09-.27-.14-.4C37.8,21.09,37.84,21.23,37.89,21.36Z"/><path class="cls-1" d="M56.91,31.73l-.72.7Z"/><path class="cls-1" d="M56.18,32.43l-.55.51Z"/><path class="cls-1" d="M58.21,30.33c-.24.28-.48.54-.73.8C57.72,30.87,58,30.61,58.21,30.33Z"/><path class="cls-1" d="M61,26.54c.11-.17.21-.36.31-.54l-.33.52Z"/><path class="cls-1" d="M58.79,29.64l-.58.69Z"/><path class="cls-1" d="M59.8,28.36h0l-.29.4Z"/><path class="cls-1" d="M55.64,32.94l-.71.61Z"/><path class="cls-1" d="M59.5,28.75q-.35.46-.71.9C59,29.35,59.26,29.06,59.5,28.75Z"/><path class="cls-1" d="M53.74,34.5l-.44.33Z"/><path class="cls-1" d="M51.67,35.92l-.24.15Z"/><path class="cls-1" d="M52.29,35.53l-.62.39Z"/><path class="cls-1" d="M51.43,36.07l-.68.39Z"/><path class="cls-1" d="M50.75,36.46l-.68-.39Z"/><path class="cls-1" d="M52.64,35.29l-.35.24Z"/><path class="cls-1" d="M50.08,36.07l-.24-.15Z"/><path class="cls-1" d="M54.43,34l-.69.53Z"/><path class="cls-1" d="M53.3,34.83l-.66.46Z"/><path class="cls-1" d="M54.93,33.55l-.5.42Z"/><path class="cls-1" d="M44.6,31.73,44,31.13Z"/><path class="cls-1" d="M64.38,19.1c-.19.64-.4,1.26-.62,1.86C64,20.36,64.19,19.74,64.38,19.1Z"/><path class="cls-1" d="M62.73,23.42c-.1.2-.2.39-.3.59C62.53,23.82,62.64,23.63,62.73,23.42Z"/><path class="cls-1" d="M63.76,21c0,.13-.09.27-.14.4C63.67,21.23,63.71,21.09,63.76,21Z"/><path class="cls-1" d="M63.62,21.36c-.28.72-.57,1.4-.89,2.06C63,22.76,63.34,22.08,63.62,21.36Z"/><path class="cls-1" d="M64.61,18.29c-.07.27-.14.54-.22.81C64.46,18.84,64.53,18.56,64.61,18.29Z"/><path class="cls-1" d="M65,16.63c-.12.57-.26,1.12-.41,1.66C64.75,17.75,64.89,17.2,65,16.63Z"/><path class="cls-1" d="M65.5,13.86c-.08.63-.18,1.25-.29,1.85C65.32,15.11,65.41,14.49,65.5,13.86Z"/><path class="cls-1" d="M65.2,15.71c-.06.31-.12.62-.19.92C65.08,16.33,65.14,16,65.2,15.71Z"/><path class="cls-1" d="M61.35,26l.39-.66Z"/><path class="cls-1" d="M65.61,13c0,.29-.08.58-.12.86C65.53,13.57,65.58,13.29,65.61,13Z"/><path class="cls-1" d="M37.75,21c-.22-.6-.43-1.22-.62-1.86C37.32,19.74,37.53,20.36,37.75,21Z"/><path class="cls-1" d="M62.43,24c-.23.45-.46.9-.7,1.32C62,24.91,62.21,24.47,62.43,24Z"/><path class="cls-1" d="M35.68,10.11a41.23,41.23,0,0,0,4.8-1.19A41,41,0,0,1,35.68,10.11Z"/><path class="cls-1" d="M35.9,13c-.1-.93-.18-1.89-.21-2.88C35.72,11.11,35.79,12.06,35.9,13Z"/><path class="cls-1" d="M36.31,15.71c-.11-.6-.21-1.22-.29-1.85C36.1,14.49,36.19,15.11,36.31,15.71Z"/><path class="cls-1" d="M36,13.86c0-.29-.08-.57-.12-.87C35.93,13.29,36,13.57,36,13.86Z"/><path class="cls-1" d="M37.12,19.1c-.08-.26-.15-.54-.22-.81C37,18.56,37,18.84,37.12,19.1Z"/><path class="cls-1" d="M36.49,16.63c-.07-.3-.13-.61-.19-.92C36.36,16,36.43,16.32,36.49,16.63Z"/><path class="cls-1" d="M36.9,18.3q-.22-.81-.41-1.67C36.62,17.2,36.75,17.75,36.9,18.3Z"/><path class="cls-1" d="M61,8.92a41.23,41.23,0,0,0,4.8,1.19A41.05,41.05,0,0,1,61,8.92Z"/><path class="cls-1" d="M55.15,6.48a32.4,32.4,0,0,0,3.12,1.46A33,33,0,0,1,55.15,6.48Z"/><path class="cls-1" d="M50.75,3.71A28.91,28.91,0,0,0,54.28,6,28.37,28.37,0,0,1,50.75,3.71Z"/><path class="cls-1" d="M47.22,6a29,29,0,0,0,3.53-2.34A28.48,28.48,0,0,1,47.22,6Z"/><path class="cls-1" d="M43.24,7.94a32.32,32.32,0,0,0,3.12-1.46A33.08,33.08,0,0,1,43.24,7.94Z"/><path class="cls-1" d="M54.28,6c.28.16.58.28.86.43C54.86,6.33,54.56,6.2,54.28,6Z"/><path class="cls-1" d="M65.82,10.11c0,1-.11,2-.21,2.88C65.71,12.06,65.79,11.11,65.82,10.11Z"/><path class="cls-1" d="M46.36,6.48c.28-.15.58-.27.86-.43C47,6.2,46.65,6.33,46.36,6.48Z"/><path class="cls-1" d="M67.71,7.15C61.2,6.16,55.85,3.89,51.81.39a1.62,1.62,0,0,0-2.12,0c-4,3.5-9.39,5.77-15.89,6.75a1.62,1.62,0,0,0-1.38,1.6c0,22.64,16.93,30.67,17.65,31a1.62,1.62,0,0,0,1.35,0c.72-.33,17.65-8.36,17.65-31A1.62,1.62,0,0,0,67.71,7.15ZM61,26.54h0q-.6,1-1.23,1.82h0l-.3.38c-.24.31-.47.61-.71.9l-.58.69c-.24.28-.48.54-.73.8l-.57.6-.72.7-.55.51-.71.61-.5.42-.69.53-.44.33-.66.46-.35.24-.62.39-.24.15-.68.39-.68-.39-.24-.15-.62-.39-.35-.24-.66-.46-.44-.33L47.08,34l-.5-.41-.72-.62-.54-.5-.73-.71L44,31.13c-.24-.26-.48-.52-.73-.8l-.58-.69c-.24-.29-.48-.59-.71-.9l-.3-.38h0q-.63-.86-1.23-1.82h0c-.11-.17-.21-.36-.31-.53l-.39-.67c-.24-.42-.47-.86-.69-1.31-.1-.2-.21-.4-.3-.6-.31-.66-.61-1.35-.89-2.06-.05-.13-.09-.27-.14-.4-.22-.6-.43-1.22-.62-1.86-.08-.26-.15-.54-.22-.81-.15-.54-.29-1.1-.41-1.67-.07-.3-.13-.61-.19-.92-.11-.6-.21-1.22-.29-1.85,0-.29-.08-.57-.12-.87-.1-.93-.18-1.89-.21-2.88a41,41,0,0,0,4.8-1.19c.95-.29,1.86-.62,2.76-1a33.08,33.08,0,0,0,3.12-1.46c.28-.15.59-.27.86-.43a28.48,28.48,0,0,0,3.53-2.34A28.37,28.37,0,0,0,54.28,6c.28.16.58.28.86.43a33,33,0,0,0,3.12,1.46c.89.36,1.81.69,2.76,1a41.05,41.05,0,0,0,4.8,1.19c0,1-.11,2-.21,2.88,0,.29-.08.58-.12.86-.08.63-.18,1.25-.29,1.85-.06.31-.12.62-.19.92-.12.57-.26,1.12-.41,1.66-.07.27-.14.54-.22.81-.19.64-.4,1.26-.62,1.86,0,.13-.09.27-.14.4-.28.72-.57,1.4-.89,2.06-.1.2-.2.39-.3.59-.23.45-.46.9-.7,1.32l-.39.66C61.24,26.18,61.14,26.37,61,26.54Z"/><path class="cls-1" d="M63.59,12.08a31.19,31.19,0,0,1-2.66,10.31,28.69,28.69,0,0,1-1.67,3.06A29.11,29.11,0,0,1,57.5,28c-.26.36-.52.68-.81,1a26.44,26.44,0,0,1-5.57,5,.45.45,0,0,1-.32.11.43.43,0,0,1-.29-.11,26,26,0,0,1-4.76-4,.53.53,0,0,1,.06-.74.56.56,0,0,1,.75.05,27,27,0,0,0,4.24,3.67A25.37,25.37,0,0,0,55.25,29a9.62,9.62,0,0,0,.87-1A20,20,0,0,0,58,25.45a28.55,28.55,0,0,0,1.73-3.06A30.39,30.39,0,0,0,62.52,12a.54.54,0,0,1,.58-.46A.51.51,0,0,1,63.59,12.08Z"/><path class="cls-1" d="M53.75,24.52a2.7,2.7,0,0,1-.84,1.94,3.12,3.12,0,0,1-4.22,0,2.79,2.79,0,0,1-.81-1.94A2.62,2.62,0,0,1,49,22.39a3,3,0,0,1,1.85-.66,2.93,2.93,0,0,1,1.88.66A2.7,2.7,0,0,1,53.75,24.52Z"/><path class="cls-1" d="M52.44,18.15a1.63,1.63,0,1,1-3.25,0l-.81-6.71a2.44,2.44,0,1,1,4.87,0Z"/><path class="cls-1" d="M11.32,50.13H57.68V38.25c-.37.3-.73.57-1.08.82v10H12.4V23.18H32.81c-.14-.36-.27-.71-.4-1.08H11.32Z"/></g></g></svg>