<svg xmlns="http://www.w3.org/2000/svg" viewBox="0 0 73.17 72"><defs><style>.cls-1{fill:#666;}</style></defs><title>Enterprise Password Vault</title><g id="Layer_2" data-name="Layer 2"><g id="Layer_1-2" data-name="Layer 1"><path class="cls-1" d="M40.29,36.21a10.4,10.4,0,0,0-.35-12l.36-.36a1.48,1.48,0,1,0-2.09-2.11l-.36.36a10.38,10.38,0,0,0-13.08.39l-.39-.34a1.49,1.49,0,0,0-2,2.23l.39.34a10.4,10.4,0,0,0,.35,12l-.36.36a1.49,1.49,0,0,0,1.05,2.54,1.47,1.47,0,0,0,1-.43l.36-.35A10.39,10.39,0,0,0,31.08,41h.47a10.43,10.43,0,0,0,6.78-2.52l.38.34a1.46,1.46,0,0,0,1,.37,1.49,1.49,0,0,0,1-2.6ZM39,30.82a7.53,7.53,0,0,1-1,3.4l-3.49-3.08a2.93,2.93,0,0,0,.08-.67,3.12,3.12,0,0,0-.13-.81l3.31-3.28A7.5,7.5,0,0,1,39,30.82ZM31.54,23h.34a7.41,7.41,0,0,1,3.83,1.27L32.4,27.54a3.16,3.16,0,0,0-.87-.13,2.83,2.83,0,0,0-1,.19L27,24.52A7.45,7.45,0,0,1,31.54,23Zm-7.48,7.17a7.52,7.52,0,0,1,1-3.4l3.5,3.08a2.93,2.93,0,0,0-.08.67,3.12,3.12,0,0,0,.13.81l-3.31,3.28A7.5,7.5,0,0,1,24.06,30.15ZM31.21,38a7.41,7.41,0,0,1-3.83-1.27l3.31-3.28a3.16,3.16,0,0,0,.87.13,2.83,2.83,0,0,0,1-.19l3.49,3.08A7.52,7.52,0,0,1,31.21,38Z"/><path class="cls-1" d="M54.9,11A3.88,3.88,0,0,0,51,7.13H12.46c-2,0-4.27,1.64-4.27,3.83V49.8a4.38,4.38,0,0,0,4.27,4h17V53H12.46A3.49,3.49,0,0,1,9.08,49.8V11C9.08,9.3,10.9,8,12.46,8H51A3,3,0,0,1,54,11l0,35.4h.93Z"/><path class="cls-1" d="M43.41,59.83l-.22.32a.22.22,0,0,1-.29.07l-.84-.59,0,.62v.38a.23.23,0,0,1-.22.22H41.5a.23.23,0,0,1-.23-.22v-.38l0-.63-.84.58a.22.22,0,0,1-.3-.05l-.2-.32a.22.22,0,0,1,.06-.31l1-.58-1-.58A.25.25,0,0,1,40,58l.22-.31a.22.22,0,0,1,.29,0l.84.58,0-.72v-.3A.23.23,0,0,1,41.5,57h.37a.23.23,0,0,1,.22.22v.3l0,.72.84-.59a.23.23,0,0,1,.3.06l.2.31a.22.22,0,0,1-.06.32l-1,.58,1,.59A.21.21,0,0,1,43.41,59.83Z"/><path class="cls-1" d="M48.66,59.83l-.22.32a.22.22,0,0,1-.29.07l-.83-.59v1a.22.22,0,0,1-.22.22h-.37a.22.22,0,0,1-.22-.22v-1l-.84.58a.22.22,0,0,1-.3-.05l-.2-.32a.22.22,0,0,1,.06-.31l1-.58-1-.58A.25.25,0,0,1,45.2,58l.22-.31a.22.22,0,0,1,.29,0l.84.58,0-.72v-.3a.22.22,0,0,1,.22-.22h.37a.22.22,0,0,1,.22.22v1l.83-.59a.24.24,0,0,1,.31.06l.19.31a.22.22,0,0,1,0,.32l-1,.58,1,.59A.21.21,0,0,1,48.66,59.83Z"/><path class="cls-1" d="M61,58c.1-.13.14-.21.23-.31a.21.21,0,0,1,.29,0l.83.58,0-1A.22.22,0,0,1,62.5,57h.37a.22.22,0,0,1,.22.22l0,1,.84-.59a.23.23,0,0,1,.3.06l.19.31a.22.22,0,0,1-.05.32l-1,.58,1,.59a.23.23,0,0,1,.07.3l-.22.32a.22.22,0,0,1-.29.07l-.84-.59,0,1a.22.22,0,0,1-.22.22H62.5a.22.22,0,0,1-.22-.22l0-1-.83.58a.23.23,0,0,1-.31-.05L61,59.83a.22.22,0,0,1,.05-.31l1-.58-1-.58A.26.26,0,0,1,61,58Z"/><path class="cls-1" d="M55.7,58c.1-.13.14-.21.23-.31a.21.21,0,0,1,.29,0l.83.58,0-1a.22.22,0,0,1,.22-.22h.37a.22.22,0,0,1,.22.22l0,1,.84-.59a.23.23,0,0,1,.3.06l.2.31a.23.23,0,0,1-.06.32l-1,.58,1,.59a.22.22,0,0,1,.07.3l-.22.32a.22.22,0,0,1-.29.07l-.84-.59,0,1a.22.22,0,0,1-.22.22h-.37a.22.22,0,0,1-.22-.22l0-1-.83.58a.23.23,0,0,1-.31-.05l-.19-.32a.22.22,0,0,1,.05-.31l1-.58-1-.58A.26.26,0,0,1,55.7,58Z"/><path class="cls-1" d="M53.41,57.67a.23.23,0,0,1,.3.06l.2.31a.23.23,0,0,1-.06.32l-1,.58,1,.59a.22.22,0,0,1,.07.3l-.22.32a.22.22,0,0,1-.29.07l-.84-.59,0,1a.22.22,0,0,1-.22.22H52a.22.22,0,0,1-.22-.22l0-1L51,60.2a.23.23,0,0,1-.31-.05l-.19-.32a.22.22,0,0,1,.05-.31l1-.58-.3-.18-.67-.4a.24.24,0,0,1-.06-.32c.08-.13.14-.2.22-.31a.22.22,0,0,1,.29,0l.7.49.13.09V58l0-.77A.22.22,0,0,1,52,57h.37a.22.22,0,0,1,.22.22l0,1Z"/><path class="cls-1" d="M70.41,59.78a3,3,0,0,1,.16.9,3.33,3.33,0,0,1-3.47,3.16H38.47V61.23L31.2,66.62,38.47,72V69.4H67.05v0l.44,0a5.45,5.45,0,0,0,5.68-5.18A5.11,5.11,0,0,0,70.41,59.78Z"/><path class="cls-1" d="M34,58.12a2.7,2.7,0,0,1-.16-.9,3.32,3.32,0,0,1,3.46-3.16H65.9v2.61l7.27-5.39L65.9,45.9v2.61H37.31v0l-.43,0a5.44,5.44,0,0,0-5.68,5.17A5.09,5.09,0,0,0,34,58.12Z"/><path class="cls-1" d="M57.16,0H5.93A4.88,4.88,0,0,0,1.06,4.87v6H0v8.33H1.06V41.73H0v8.33H1.06v6A4.87,4.87,0,0,0,5.93,61H32.15a5.34,5.34,0,0,1-2.39-2.65H5.93A2.22,2.22,0,0,1,3.72,56.1V4.87A2.21,2.21,0,0,1,5.93,2.66H57.16a2.21,2.21,0,0,1,2.21,2.21V46.36H62V4.87A4.88,4.88,0,0,0,57.16,0Z"/></g></g></svg>