<?xml version="1.0" encoding="UTF-8"?><svg xmlns="http://www.w3.org/2000/svg" viewBox="0 0 64.05 73.91"><defs><style>.cls-1{fill:#58595b;}</style></defs><title>Asset 29</title><g id="Layer_2" data-name="Layer 2"><g id="Layer_1-2" data-name="Layer 1"><path class="cls-1" d="M60.47,56.42,55.55,40.55a5.62,5.62,0,0,0-3.72-3.88L41.06,33.26a1.14,1.14,0,0,0-1,.13L32,38.64l-8.08-5.25a1.14,1.14,0,0,0-1-.13L12.22,36.67a5.61,5.61,0,0,0-3.71,3.84L3.57,56.42a1.12,1.12,0,0,0,1.08,1.45H59.4a1.16,1.16,0,0,0,.91-.45A1.12,1.12,0,0,0,60.47,56.42Zm-19-16.62L44,43.06,33.36,54.52l7.79-18.87,3.75,1.18-3.34,2.33a.46.46,0,0,0-.19.3A.42.42,0,0,0,41.46,39.8Zm-19.1-.64-3.3-2.3,3.84-1.21,7.89,19.13L20,43.06l2.51-3.26a.44.44,0,0,0-.1-.64Zm11.57,9.29L33,44.26l1.28-1.55-1.53-1.86L38.65,37Zm-2.87-4.19-.94,4.19L25.4,37l5.91,3.83-1.53,1.86Zm-20.4-3.11a3.38,3.38,0,0,1,2.23-2.34L18,37.2l3.48,2.43L19,42.81a.45.45,0,0,0,0,.58L30.35,55.63H12.73v-7a.45.45,0,0,0-.45-.45.45.45,0,0,0-.45.45v7H6.17ZM52.22,55.63v-7a.45.45,0,1,0-.9,0v7H33.56L44.88,43.39a.44.44,0,0,0,0-.58l-2.45-3.18L46,37.17l5.18,1.64a3.42,3.42,0,0,1,2.25,2.37l4.48,14.45Z"/><path class="cls-1" d="M20.21,23.79a5,5,0,0,0,.83.77,17.72,17.72,0,0,0,4,6.71,9,9,0,0,0,7,3.29h.09a9,9,0,0,0,7-3.29,17.63,17.63,0,0,0,4-6.71,4.64,4.64,0,0,0,.83-.78,7.93,7.93,0,0,0,1.4-2.69,9.74,9.74,0,0,0,.47-2.89c0-.22,0-.43,0-.66v0h0a4.38,4.38,0,0,0-1-2.45,3.46,3.46,0,0,0-.52-.49,1.57,1.57,0,0,0,0-.23C44.9,10.42,44,3.11,35.9.6A12.5,12.5,0,0,0,32.14,0a11,11,0,0,0-7.91,3.36,4.86,4.86,0,0,0-3.53,2c-.93,1.22-2.24,4-.95,9.32a3.23,3.23,0,0,0-.37.37,4.38,4.38,0,0,0-1,2.44h0c0,.23,0,.45,0,.7A10.07,10.07,0,0,0,19.16,22,7.26,7.26,0,0,0,20.21,23.79ZM22.49,6.71a2.54,2.54,0,0,1,2.16-1.1,1.17,1.17,0,0,0,1-.43,8.65,8.65,0,0,1,6.52-2.94,10.33,10.33,0,0,1,3.09.5c6.56,2.05,7.33,8,6.76,11.2-.06.31-.13.62-.19.91a1,1,0,0,0,0,.3c-2.24.32-6.9-2-9.75-6.39a3.62,3.62,0,0,0-2.87-1.9c-2.39-.12-4.53,2.51-4.65,2.66a20.77,20.77,0,0,0-2.44,5.13C20.8,9.92,21.78,7.65,22.49,6.71ZM20.6,17.77v0A2.38,2.38,0,0,1,21,16.67c0,.23.08.44.11.62.15,1,.2,1.23.62,1.23h0c.41,0,.47-.34.56-.87a19.92,19.92,0,0,1,3-7.61s2-2.38,3.88-2.29a2.85,2.85,0,0,1,2.16,1.5c3,4.65,8.14,7.31,10.86,6.75l-.32,1.47a.46.46,0,0,0,.35.54.45.45,0,0,0,.53-.35l.25-1.17,0,0a2.26,2.26,0,0,1,.47,1.22v0h0c0,.14,0,.29,0,.44a7.52,7.52,0,0,1-.37,2.21,5.8,5.8,0,0,1-1,1.93,2,2,0,0,1-.59.49,1.15,1.15,0,0,0-.57.72,15.07,15.07,0,0,1-3.58,6.2,6.7,6.7,0,0,1-5.31,2.56H32a6.7,6.7,0,0,1-5.31-2.56,15.07,15.07,0,0,1-3.58-6.2,1.15,1.15,0,0,0-.57-.72,2,2,0,0,1-.59-.49,4.93,4.93,0,0,1-.71-1.19,7.92,7.92,0,0,1-.64-2.95C20.58,18,20.59,17.9,20.6,17.77Z"/><path class="cls-1" d="M28.23,27.52a8.28,8.28,0,0,0,3.76.95,8.72,8.72,0,0,0,3.82-.95.45.45,0,1,0-.39-.81,7.2,7.2,0,0,1-6.78,0,.45.45,0,0,0-.61.19A.46.46,0,0,0,28.23,27.52Z"/><ellipse class="cls-1" cx="26.64" cy="18.63" rx="1.35" ry="1.8"/><ellipse class="cls-1" cx="37.41" cy="18.63" rx="1.35" ry="1.8"/><path class="cls-1" d="M31.05,24.39l.24,0a1,1,0,0,0,.59-.18.45.45,0,0,0,.11-.62.43.43,0,0,0-.62-.11.2.2,0,0,1-.13,0,.44.44,0,0,1-.28-.2,1.48,1.48,0,0,1-.09-.91,7,7,0,0,1,.65-2.24.45.45,0,1,0-.81-.39A7.88,7.88,0,0,0,30,22.29a2.32,2.32,0,0,0,.22,1.48A1.39,1.39,0,0,0,31.05,24.39Z"/><path class="cls-1" d="M7.45,73.91a.37.37,0,0,1-.17,0L4.75,72.54,2.22,73.86a.36.36,0,0,1-.4,0,.36.36,0,0,1-.14-.36l.48-2.79-2.05-2A.36.36,0,0,1,0,68.32a.37.37,0,0,1,.3-.26l2.83-.41,1.26-2.54a.39.39,0,0,1,.68,0l1.26,2.54,2.83.41a.37.37,0,0,1,.3.26.36.36,0,0,1-.09.38l-2.05,2,.48,2.74a.41.41,0,0,1,0,.11.38.38,0,0,1-.37.38Zm-2.7-2.16a.33.33,0,0,1,.17,0l2,1.06-.39-2.24a.37.37,0,0,1,.11-.33l1.63-1.59-2.26-.32a.38.38,0,0,1-.28-.21l-1-2-1,2a.38.38,0,0,1-.28.21l-2.26.32,1.63,1.59a.37.37,0,0,1,.11.33l-.39,2.24,2-1.06A.33.33,0,0,1,4.75,71.75Z"/><path class="cls-1" d="M21.09,73.91a.34.34,0,0,1-.17,0l-2.53-1.32-2.53,1.32a.36.36,0,0,1-.4,0,.38.38,0,0,1-.15-.36l.49-2.79-2.05-2a.36.36,0,0,1-.09-.38.37.37,0,0,1,.3-.26l2.83-.41,1.26-2.54a.38.38,0,0,1,.34-.2.37.37,0,0,1,.33.2L20,67.65l2.83.41a.37.37,0,0,1,.2.64l-2,2,.47,2.74a.43.43,0,0,1,0,.11.38.38,0,0,1-.38.38Zm-2.7-2.16a.33.33,0,0,1,.17,0l2,1.06-.38-2.24a.34.34,0,0,1,.1-.33L22,68.69l-2.26-.32a.4.4,0,0,1-.29-.21l-1-2-1,2a.38.38,0,0,1-.28.21l-2.27.32,1.64,1.59a.37.37,0,0,1,.11.33l-.39,2.24,2-1.06A.39.39,0,0,1,18.39,71.75Z"/><path class="cls-1" d="M34.73,73.91a.34.34,0,0,1-.17,0L32,72.54l-2.53,1.32a.35.35,0,0,1-.39,0,.36.36,0,0,1-.15-.36l.48-2.79-2-2a.39.39,0,0,1-.1-.38.38.38,0,0,1,.31-.26l2.82-.41,1.27-2.54a.37.37,0,0,1,.33-.2.38.38,0,0,1,.34.2l1.26,2.54,2.83.41a.39.39,0,0,1,.31.26.39.39,0,0,1-.1.38l-2,2,.47,2.74a.43.43,0,0,1,0,.11.38.38,0,0,1-.38.38ZM32,71.75a.39.39,0,0,1,.18,0l2,1.06-.39-2.24a.37.37,0,0,1,.11-.33l1.64-1.59-2.27-.32a.4.4,0,0,1-.28-.21l-1-2-1,2a.4.4,0,0,1-.28.21l-2.27.32,1.64,1.59a.37.37,0,0,1,.11.33l-.39,2.24,2-1.06A.38.38,0,0,1,32,71.75Z"/><path class="cls-1" d="M48.37,73.91a.41.41,0,0,1-.18,0l-2.53-1.32-2.53,1.32a.37.37,0,0,1-.54-.39l.48-2.79-2-2a.37.37,0,0,1,.2-.64l2.83-.41,1.27-2.54a.37.37,0,0,1,.33-.2.4.4,0,0,1,.34.2l1.26,2.54,2.83.41a.37.37,0,0,1,.3.26.36.36,0,0,1-.09.38l-2,2,.48,2.74a.41.41,0,0,1,0,.11.37.37,0,0,1-.37.38Zm-2.71-2.16a.39.39,0,0,1,.18,0l2,1.06-.39-2.24a.37.37,0,0,1,.11-.33l1.64-1.59L47,68.37a.38.38,0,0,1-.28-.21l-1-2-1,2a.4.4,0,0,1-.29.21l-2.26.32,1.63,1.59a.34.34,0,0,1,.11.33l-.38,2.24,2-1.06A.33.33,0,0,1,45.66,71.75Z"/><path class="cls-1" d="M62,73.91a.34.34,0,0,1-.17,0L59.3,72.54l-2.53,1.32a.36.36,0,0,1-.4,0,.36.36,0,0,1-.14-.36l.48-2.79-2.05-2a.36.36,0,0,1-.09-.38.37.37,0,0,1,.3-.26l2.83-.41L59,65.11a.4.4,0,0,1,.34-.2.37.37,0,0,1,.33.2l1.27,2.54,2.83.41a.37.37,0,0,1,.2.64l-2,2,.48,2.74a.41.41,0,0,1,0,.11.38.38,0,0,1-.37.38Zm-2.7-2.16a.33.33,0,0,1,.17,0l2,1.06-.38-2.24a.37.37,0,0,1,.11-.33l1.63-1.59-2.26-.32a.38.38,0,0,1-.28-.21l-1-2-1,2a.38.38,0,0,1-.28.21l-2.26.32,1.63,1.59a.37.37,0,0,1,.11.33l-.39,2.24,2-1.06A.33.33,0,0,1,59.3,71.75Z"/></g></g></svg>