<svg xmlns="http://www.w3.org/2000/svg" viewBox="0 0 78.13 69"><defs><style>.cls-1{fill:#666;}</style></defs><title>privileged_threat_analytics</title><g id="Layer_2" data-name="Layer 2"><g id="Layer_1-2" data-name="Layer 1"><path class="cls-1" d="M58.7,52.11a2.86,2.86,0,0,1,1.78-.63,2.83,2.83,0,0,1,1.81.63A2.57,2.57,0,0,1,62.52,56a3,3,0,0,1-4.07,0,2.7,2.7,0,0,1-.78-1.87A2.53,2.53,0,0,1,58.7,52.11Zm6.08,6.39a9.3,9.3,0,0,0,.84-1,19.27,19.27,0,0,0,1.81-2.46,27.56,27.56,0,0,0,1.67-3A29.33,29.33,0,0,0,71.8,42a.52.52,0,0,1,.56-.45.5.5,0,0,1,.47.55,30.1,30.1,0,0,1-2.56,10,27.68,27.68,0,0,1-1.62,3,28.09,28.09,0,0,1-1.7,2.46c-.25.34-.5.66-.78,1a25.52,25.52,0,0,1-5.38,4.78.43.43,0,0,1-.31.11.41.41,0,0,1-.28-.11,25.08,25.08,0,0,1-4.6-3.88.51.51,0,0,1,.06-.71.54.54,0,0,1,.72.05,26,26,0,0,0,4.1,3.54A24.49,24.49,0,0,0,64.77,58.5Z"/><polygon class="cls-1" points="52.02 58.22 52.02 58.22 52 58.24 52 58.24 52.02 58.22"/><rect class="cls-1" x="13.96" y="35.52" width="6.39" height="8.9"/><rect class="cls-1" x="23.36" y="27.46" width="6.67" height="16.96"/><rect class="cls-1" x="33.04" y="31.07" width="6.39" height="13.06"/><path class="cls-1" d="M49,34.48V19.68H42.58V36.15a3.28,3.28,0,0,1,1.24-.47A35.75,35.75,0,0,0,49,34.48Z"/><path class="cls-1" d="M32.35,58.27a27.06,27.06,0,0,1-5.66-.61L25,63.81a32.25,32.25,0,0,0,22.84-3.06,33.62,33.62,0,0,1-3.29-5.53A25.74,25.74,0,0,1,32.35,58.27Z"/><path class="cls-1" d="M7.66,40.3,1.45,41.88A32.34,32.34,0,0,0,21.9,63l1.73-6.19A26.06,26.06,0,0,1,7.66,40.3Z"/><path class="cls-1" d="M6.41,32.3A26,26,0,0,1,30.74,6.41V0A32.32,32.32,0,0,0,0,32.3a31.12,31.12,0,0,0,.67,6.49l6.21-1.62A25.64,25.64,0,0,1,6.41,32.3Z"/><path class="cls-1" d="M62.6,29.56a22.32,22.32,0,0,0,2.05,1.5A32.32,32.32,0,0,0,33.94,0V6.41A26,26,0,0,1,58.16,29.65l.12-.08A3.32,3.32,0,0,1,62.6,29.56Z"/><rect class="cls-1" x="52" y="58.24"/><polygon class="cls-1" points="52 58.24 52 58.24 52 58.24 52 58.24"/><path class="cls-1" d="M56.39,58.73a.54.54,0,0,0-.72-.05.51.51,0,0,0-.06.71,25.08,25.08,0,0,0,4.6,3.88.41.41,0,0,0,.28.11.43.43,0,0,0,.31-.11,25.52,25.52,0,0,0,5.38-4.78c.28-.32.53-.63.78-1a28.09,28.09,0,0,0,1.7-2.46,27.68,27.68,0,0,0,1.62-3,30.1,30.1,0,0,0,2.56-10,.5.5,0,0,0-.47-.55.52.52,0,0,0-.56.45,29.33,29.33,0,0,1-2.7,10.06,27.56,27.56,0,0,1-1.67,3,19.27,19.27,0,0,1-1.81,2.46,9.3,9.3,0,0,1-.84,1,24.49,24.49,0,0,1-4.29,3.78A26,26,0,0,1,56.39,58.73Z"/><path class="cls-1" d="M60.48,56.83a3.07,3.07,0,0,0,2-.79,2.57,2.57,0,0,0-.22-3.93,2.83,2.83,0,0,0-1.81-.63,2.86,2.86,0,0,0-1.78.63,2.53,2.53,0,0,0-1,2.06A2.7,2.7,0,0,0,58.45,56,3.07,3.07,0,0,0,60.48,56.83Z"/><path class="cls-1" d="M76.8,37.4a32.27,32.27,0,0,1-12.14-4.18,24.14,24.14,0,0,1-3.2-2.33,1.56,1.56,0,0,0-2,0c-.35.31-.77.55-1.15.84a27.73,27.73,0,0,1-9.3,4.6,38.26,38.26,0,0,1-4.89,1.08,1.56,1.56,0,0,0-1.33,1.54,39.75,39.75,0,0,0,.41,5.47A34.16,34.16,0,0,0,46,54.33a32,32,0,0,0,3.27,5.52,30.16,30.16,0,0,0,10.49,9,1.56,1.56,0,0,0,1.3,0c.7-.32,17-8.07,17-29.92A1.56,1.56,0,0,0,76.8,37.4Zm-2,5.64c0,.28-.07.56-.11.83-.08.61-.17,1.21-.28,1.78q-.09.45-.18.89c-.12.55-.25,1.08-.39,1.6-.07.26-.14.53-.21.78-.19.62-.39,1.21-.6,1.79,0,.13-.09.26-.14.39-.27.69-.55,1.35-.86,2-.09.2-.19.38-.29.57-.22.44-.44.87-.67,1.28l-.38.64c-.1.17-.2.35-.3.52h0q-.58.93-1.19,1.76h0l-.29.37q-.34.45-.68.87l-.56.66-.7.77-.55.58-.7.68-.53.49-.69.59-.48.4-.67.51-.42.32-.64.44-.34.23-.6.38-.23.14-.65.37-.65-.37-.23-.14-.6-.38-.34-.23L58,64.12l-.42-.32-.67-.51-.48-.4-.69-.6-.52-.48-.71-.68-.55-.57-.7-.77-.56-.66q-.35-.42-.69-.87h0l-.13-.16-.16-.21h0q-.61-.83-1.19-1.76h0c-.1-.16-.2-.35-.3-.52L49.83,55c-.23-.41-.45-.83-.67-1.27-.1-.19-.2-.38-.29-.58s-.17-.41-.26-.6c-.2-.45-.41-.9-.6-1.39,0-.13-.09-.26-.14-.39-.21-.58-.42-1.18-.6-1.79-.08-.25-.14-.52-.21-.78q-.21-.79-.4-1.61-.1-.44-.18-.89c-.08-.4-.14-.83-.2-1.25,0-.18-.06-.35-.08-.54s-.08-.55-.11-.84c-.1-.9-.17-1.82-.21-2.78C47,40.06,48,39.77,49,39.5c.51-.14,1.06-.23,1.56-.39.92-.28,1.8-.6,2.66-.95a31.18,31.18,0,0,0,3-1.41c.27-.14.56-.26.83-.42s.67-.46,1-.68a26.33,26.33,0,0,0,2.38-1.58,27.88,27.88,0,0,0,3.41,2.25c.17.1.36.18.55.27l.29.14a31.28,31.28,0,0,0,3,1.41c.86.34,1.74.66,2.66.95A39.8,39.8,0,0,0,75,40.26C74.95,41.22,74.87,42.14,74.78,43Z"/><path class="cls-1" d="M60.49,39a2.45,2.45,0,0,0-2.35,2.53L58.92,48a1.69,1.69,0,0,0,.82,1.46,1.45,1.45,0,0,0,.75.23A1.63,1.63,0,0,0,62.06,48l.51-4.23.27-2.25A2.45,2.45,0,0,0,60.49,39Z"/></g></g></svg>