<svg xmlns="http://www.w3.org/2000/svg" viewBox="0 0 136.06 121.89"><defs><style>.cls-1{fill:none;}.cls-2{fill:#010101;}</style></defs><path class="cls-1" d="M92.42,20.32l-.52-.4q-.74-.56-1.5-1.09l-.22-.15c-.58-.39-1.17-.77-1.77-1.13l-.53-.31q-.67-.39-1.35-.75l-.59-.31q-.78-.4-1.57-.76L84,15.25c-.64-.28-1.29-.55-1.94-.8l-.55-.2q-.74-.27-1.48-.51l-.64-.2q-.81-.25-1.63-.46L77.36,13c-.61-.15-1.23-.28-1.85-.4a29.87,29.87,0,0,1,3,3h0q.65.73,1.3,1.53l.07.09c.83,1,1.63,2.14,2.41,3.32l.17.25q.55.85,1.08,1.74l.14.24q.5.85,1,1.73l.11.21c.33.61.64,1.24,1,1.88l.19.4c.3.64.6,1.29.89,2l.09.21c.15.36.3.71.44,1.07.74-.13,1.48-.27,2.2-.42l.76-.15q1.75-.37,3.42-.81l.89-.24c.82-.22,1.62-.45,2.41-.69l1.13-.36,1-.35L99,26.86l-.38-.47q-.51-.63-1-1.23l-.41-.46c-.46-.51-.94-1-1.42-1.48l-.06-.06c-.51-.5-1-1-1.57-1.45l-.47-.4Q93,20.8,92.42,20.32Z"/><path class="cls-1" d="M37.89,27.5l1.07.34c.8.24,1.61.47,2.44.7l.85.23q1.67.43,3.42.81l.72.14c.73.15,1.47.29,2.22.42.14-.36.29-.71.44-1.06l.09-.22c.28-.66.58-1.3.88-1.94l.2-.41c.31-.63.62-1.25.94-1.86l.13-.24q.46-.85.94-1.66l.17-.28q.51-.86,1-1.68l.23-.35c.36-.55.73-1.09,1.11-1.61l.06-.08c.37-.5.74-1,1.11-1.45l.22-.28q.57-.7,1.15-1.35l.22-.24c.38-.42.77-.83,1.16-1.22l.06-.07c.4-.4.8-.77,1.21-1.12l.24-.21.23-.2c-.6.12-1.2.24-1.79.39l-.32.09q-.87.22-1.72.48l-.63.2q-.74.24-1.47.51l-.56.21c-.65.25-1.3.52-1.94.8l-.24.11q-.84.38-1.67.81l-.57.3q-.69.37-1.36.76l-.52.3c-.6.36-1.2.74-1.78,1.14l-.12.09c-.54.37-1.07.76-1.59,1.15l-.49.39q-.62.49-1.22,1l-.46.39c-.53.47-1.06.95-1.57,1.45l0,0c-.5.49-1,1-1.45,1.51l-.42.47q-.53.6-1,1.22l-.4.49-.2.27Z"/><path class="cls-1" d="M44.53,50c0-.26,0-.51,0-.77s0-.63,0-.95c0-.5.06-1,.1-1.51,0-.29,0-.58.07-.86.06-.6.13-1.2.21-1.8,0-.19,0-.38.07-.57q.16-1.17.38-2.34c0-.21.09-.42.13-.63.11-.57.23-1.14.35-1.7.07-.29.14-.59.21-.88.12-.48.24-1,.37-1.45.09-.31.18-.63.27-.94q.2-.7.42-1.39c.1-.32.2-.63.31-.94.05-.16.1-.33.16-.49h0l-1.51-.31-1.28-.26c-1-.21-1.91-.44-2.85-.67l-.72-.17q-1.73-.45-3.38-1l-1-.32c-.58-.19-1.18-.37-1.74-.57A39.17,39.17,0,0,0,28.59,50H44.53Z"/><path class="cls-1" d="M60.71,90l-.64-.53-.17-.14q-.4-.35-.79-.73l-.24-.24-.56-.56-.29-.3-.54-.58-.27-.29c-.26-.29-.51-.59-.77-.89l-.12-.14-.66-.82-.27-.35-.51-.68-.27-.37-.55-.79-.2-.29q-.36-.54-.72-1.1l-.18-.3-.53-.87-.24-.4-.48-.83-.22-.39q-.31-.57-.62-1.16l0-.07q-.32-.63-.63-1.27L50,75.53l-.44-.94-.2-.44-.43-1-.15-.35q-.28-.68-.54-1.37v0c-.75.14-1.5.28-2.23.44l-.79.16q-1.79.39-3.5.85l-.83.23c-.86.24-1.7.48-2.53.74l-1.1.36-1.12.39.25.34.44.57q.49.63,1,1.24l.44.52c.46.53.94,1.05,1.43,1.56l.07.07c.51.53,1,1,1.58,1.52l.5.44q.59.52,1.2,1l.56.45q.67.53,1.36,1l.4.29q.89.62,1.81,1.19l.48.29q.7.42,1.42.82l.64.34q.69.36,1.4.7l.58.27c.66.3,1.32.58,2,.84l.3.11q.87.33,1.76.62l.68.21q.73.23,1.48.42l.7.18q.9.22,1.81.4l.34.07h0Z"/><path class="cls-1" d="M88.63,68.78h0c.56.11,1.1.23,1.65.34l1.26.26q1.57.35,3.08.74l.59.15q1.79.48,3.49,1l1,.33c.6.2,1.2.39,1.78.6a39.24,39.24,0,0,0,6-19.59h-16A56.9,56.9,0,0,1,88.63,68.78Z"/><path class="cls-1" d="M36.34,71.65l1-.33q1.69-.54,3.47-1l.57-.14q1.51-.39,3.07-.74l1.28-.27c.54-.11,1.07-.23,1.61-.34h0l-.14-.47L47,67.52q-.21-.7-.4-1.4c-.08-.28-.15-.55-.22-.83-.12-.48-.24-1-.35-1.45-.06-.25-.12-.51-.18-.76-.13-.61-.25-1.21-.36-1.82,0-.13-.05-.26-.08-.39q-.19-1.11-.34-2.22c0-.21,0-.42-.07-.63-.07-.53-.13-1.07-.18-1.61,0-.27,0-.55-.07-.82,0-.48-.07-1-.1-1.44q0-.43,0-.87c0-.2,0-.41,0-.61H28.59a39.25,39.25,0,0,0,6,19.59C35.15,72,35.75,71.85,36.34,71.65Z"/><path class="cls-1" d="M98.76,74.18l-1.1-.36c-.83-.26-1.69-.51-2.55-.75l-.82-.23q-1.72-.45-3.52-.85l-.86-.17c-.72-.15-1.45-.29-2.19-.43l0,0q-.26.69-.54,1.36l-.15.35-.43,1-.19.43-.45,1-.17.37q-.31.65-.64,1.29l0,0q-.31.61-.64,1.2l-.2.35-.51.89-.21.36L83,81l-.13.22q-.36.58-.74,1.13l-.16.23-.6.85-.24.33-.56.75-.22.29q-.77,1-1.57,1.89l-.24.27-.57.61-.27.28-.6.59-.21.21-.8.73-.2.17-.61.5-.11.09.12,0,.47-.1q.85-.17,1.7-.37l.7-.18q.76-.2,1.51-.43l.64-.2c.68-.22,1.35-.45,2-.71l.05,0c.68-.26,1.35-.55,2-.85l.59-.28q.71-.34,1.4-.7l.63-.33q.75-.41,1.47-.85l.43-.25q.92-.57,1.81-1.2l.42-.31q.68-.49,1.34-1l.56-.45q.61-.5,1.21-1l.49-.43c.54-.5,1.07-1,1.58-1.53l.1-.11q.72-.74,1.4-1.52l.44-.52q.51-.61,1-1.24l.44-.57.24-.34Z"/><path class="cls-1" d="M99.1,30l-.95.31q-1.66.51-3.4,1l-.75.18c-.93.23-1.87.46-2.83.67l-1.32.27-1.5.31h0c.06.16.11.33.16.5s.2.61.3.92q.22.71.43,1.42c.09.3.18.61.26.91.13.49.26,1,.38,1.48.07.28.14.57.21.85.13.57.25,1.15.36,1.73,0,.2.09.41.12.61q.21,1.17.38,2.34c0,.19,0,.38.07.57.08.6.15,1.19.21,1.79,0,.29,0,.58.07.86,0,.5.08,1,.1,1.51,0,.31,0,.63,0,.94s0,.51,0,.77h16a39.17,39.17,0,0,0-6.6-20.51C100.3,29.65,99.7,29.84,99.1,30Z"/><path class="cls-2" d="M103.48,28.49h0l-1-1.44-.6-.85h0c-.3-.41-.59-.82-.91-1.21s-.55-.64-.82-1-.54-.66-.83-1-.71-.74-1.07-1.11-.45-.48-.69-.71c-.42-.42-.87-.81-1.31-1.21l-.54-.5c-.58-.5-1.17-1-1.78-1.45l-.16-.13a42.19,42.19,0,0,0-25.4-8.79h-.49c-.45,0-.89,0-1.34,0s-.78,0-1.17,0-.83.08-1.25.12-.85.07-1.28.12-.74.12-1.11.17-.92.13-1.38.21-.67.15-1,.22c-.49.1-1,.2-1.46.32l-.87.24c-.51.14-1,.27-1.54.43l-.78.27c-.53.18-1.06.35-1.59.55l-.68.28c-.54.22-1.09.43-1.62.67l-.56.27c-.56.26-1.13.53-1.68.81l-.53.3c-.55.3-1.11.6-1.65.92l-.46.3c-.55.34-1.1.68-1.64,1l-.47.34c-.52.37-1,.74-1.55,1.13l-.44.36c-.5.4-1,.8-1.49,1.22l-.51.48c-.45.4-.9.81-1.33,1.23-.19.19-.37.39-.55.58-.4.41-.81.82-1.2,1.25-.21.23-.4.47-.6.7-.35.41-.71.81-1,1.23s-.61.8-.91,1.2h0l-.6.85-1,1.44h0A42.13,42.13,0,0,0,32,73.22h0l.94,1.41.6.9h0A42.08,42.08,0,0,0,67.18,93.45v6.74h-8v5H30v2.7H59.18v4h19.7v-4H106v-2.7H78.88v-5h-9V93.42a42.08,42.08,0,0,0,32.64-17.89h0l.6-.9.94-1.41h0a42.13,42.13,0,0,0-.57-44.73Zm-27.3,76.7v4H61.88v-6.3h14.3ZM107.47,50h-16c0-.26,0-.51,0-.77s0-.63,0-.94c0-.5-.06-1-.1-1.51,0-.29,0-.58-.07-.86-.06-.6-.13-1.19-.21-1.79,0-.19,0-.38-.07-.57q-.16-1.17-.38-2.34c0-.2-.08-.41-.12-.61-.11-.58-.23-1.15-.36-1.73-.06-.29-.14-.57-.21-.85-.12-.49-.24-1-.38-1.48-.08-.3-.17-.61-.26-.91q-.2-.71-.43-1.42c-.1-.31-.2-.61-.3-.92s-.1-.33-.16-.5h0l1.5-.31,1.32-.27c1-.21,1.9-.43,2.83-.67l.75-.18q1.74-.45,3.4-1L99.1,30c.59-.19,1.2-.38,1.78-.58A39.17,39.17,0,0,1,107.47,50ZM85.63,33.21l.25.71c.1.3.2.59.29.89s.27.88.4,1.32.17.59.26.88c.13.45.24.91.35,1.37.07.28.14.56.21.85.12.5.22,1,.32,1.51,0,.24.1.48.15.71q.2,1.09.36,2.18c0,.3.07.59.11.89s.11.89.16,1.33.06.71.09,1.06.06.78.09,1.18,0,.73,0,1.09,0,.52,0,.79H80.37v2.7h8.35a54.24,54.24,0,0,1-2.8,15.68c-3-.47-6-.83-9-1.06V70c2.75.21,5.47.52,8.12.93l-.18.47-.32.78q-.28.67-.58,1.33l-.35.76c-.21.44-.42.87-.63,1.3l-.34.67c-.26.5-.53,1-.8,1.47l-.21.39q-.52.9-1.05,1.74l-.3.46c-.26.4-.52.79-.78,1.17L79,82c-.23.32-.46.63-.7.94l-.45.57-.69.83-.45.52c-.24.27-.48.53-.72.78l-.41.43c-.31.31-.62.61-.93.89l-.2.19c-.37.33-.73.63-1.09.92l-.37.27c-.24.18-.48.36-.72.51l-.42.26-.64.38-.41.21-.62.27-.38.15-.16,0V82.42L68,83.68,67,82.86v7.5a6.84,6.84,0,0,1-.92-.26L65.8,90c-.26-.1-.52-.21-.79-.35l-.4-.22c-.22-.12-.44-.25-.67-.39l-.45-.3-.65-.46-.48-.38-.65-.55-.49-.44-.66-.64-.48-.49L59.4,85l-.46-.52c-.25-.29-.5-.6-.75-.91l-.4-.49c-.38-.48-.75-1-1.12-1.5l-.07-.11q-.52-.74-1-1.54l-.37-.6c-.24-.38-.47-.76-.7-1.16l-.42-.74c-.21-.37-.42-.75-.62-1.14L53,75.52q-.29-.58-.57-1.17l-.4-.87q-.27-.6-.53-1.23l-.37-.9L51,70.94l1.83-.28,1.52-.21c1.08-.13,2.18-.24,3.28-.35L58.69,70l.5,0h0V67.28h0l-1.13.08-1.67.17c-.89.09-1.79.18-2.67.29l-1.78.25c-.63.09-1.26.17-1.88.27l-.22-.66-.26-.83c-.13-.44-.26-.89-.38-1.33-.07-.26-.14-.51-.21-.77-.14-.52-.26-1-.38-1.57,0-.18-.09-.36-.13-.55q-.23-1.06-.42-2.13c0-.15,0-.29-.07-.44-.1-.56-.18-1.13-.26-1.7,0-.25-.06-.5-.09-.75-.06-.47-.11-.93-.15-1.4,0-.28,0-.56-.07-.83q-.05-.67-.09-1.33,0-.43,0-.85c0-.18,0-.35,0-.53h8.08V50H47.24c0-.3,0-.6,0-.91s0-.61,0-.92c0-.47.07-.94.11-1.41,0-.28,0-.56.07-.84.06-.56.13-1.12.2-1.68,0-.18,0-.37.07-.55q.16-1.11.37-2.22c0-.2.09-.41.13-.61.11-.54.22-1.07.34-1.61.06-.28.14-.55.2-.83.11-.46.23-.92.36-1.38.08-.3.17-.59.26-.89s.26-.88.4-1.31.2-.6.3-.9l.25-.7.49.07h0a8.51,8.51,0,0,1,.53-2.63v0h0l.15-.37.34-.79c.19-.42.37-.84.57-1.25l.37-.77q.3-.6.6-1.18l.39-.74c.21-.39.43-.76.64-1.14l.39-.67c.23-.39.47-.76.71-1.13l.36-.57c.3-.46.61-.9.92-1.34l.21-.3q.52-.72,1.05-1.38l.49-.59.62-.74.57-.62.54-.58.6-.6.49-.47.63-.56.44-.37.65-.51.39-.28c.22-.16.45-.31.66-.45l.33-.19c.23-.14.46-.27.69-.39l.16-.07a8.16,8.16,0,0,1,1.28-.49L67,12V25h2.7V12.16l.13,0,.33.13c.21.08.42.18.64.28l.37.2.65.38.38.24c.24.16.48.33.72.51l.34.25c.34.26.68.55,1,.85l0,0c.36.32.73.67,1.09,1l.36.37c.25.26.5.52.75.8l.42.48.69.82.43.54.69.91.41.55c.26.36.52.74.78,1.13l.3.44q.52.8,1,1.66l.27.46c.25.43.5.86.74,1.31l.36.69c.2.39.41.79.6,1.19l.37.77c.17.37.34.75.51,1.13h0a8.53,8.53,0,0,1,.57,1.23v0c.06.16.12.31.17.48s0,.13,0,.19a8.53,8.53,0,0,1,.31,2M94.1,21.71c.53.47,1.06.95,1.57,1.45l.06.06c.49.48,1,1,1.42,1.48l.41.46q.54.6,1,1.23l.38.47.21.28-1,.35-1.13.36c-.79.24-1.59.47-2.41.69l-.89.24q-1.68.43-3.42.81l-.76.15c-.72.15-1.46.29-2.2.42-.14-.36-.29-.72-.44-1.07l-.09-.21c-.28-.66-.58-1.31-.89-2l-.19-.4c-.31-.64-.62-1.26-1-1.88l-.11-.21q-.48-.88-1-1.73l-.14-.24q-.53-.89-1.08-1.74l-.17-.25c-.78-1.18-1.58-2.29-2.41-3.32l-.07-.09q-.64-.8-1.3-1.53h0a29.87,29.87,0,0,0-3-3c.62.12,1.24.25,1.85.4l.42.11q.82.21,1.63.46l.64.2q.75.24,1.48.51l.55.2c.65.25,1.3.51,1.94.8l.33.16q.8.36,1.57.76l.59.31q.68.36,1.35.75l.53.31c.6.36,1.19.74,1.77,1.13l.22.15q.76.53,1.5,1.09l.52.4q.61.48,1.21,1ZM37.46,26.39q.51-.62,1-1.22l.42-.47c.47-.52,1-1,1.45-1.51l0,0c.51-.5,1-1,1.57-1.45l.46-.39q.6-.51,1.22-1l.49-.39c.52-.4,1.05-.78,1.59-1.15l.12-.09c.58-.4,1.18-.77,1.78-1.14l.52-.3q.68-.39,1.36-.76l.57-.3q.82-.42,1.67-.81l.24-.11c.64-.29,1.29-.55,1.94-.8l.56-.21q.73-.27,1.47-.51l.63-.2q.85-.26,1.72-.48l.32-.09c.59-.15,1.19-.27,1.79-.39l-.23.2L60,13c-.4.36-.81.73-1.21,1.12l-.06.07c-.39.39-.77.79-1.16,1.22l-.22.24q-.58.65-1.15,1.35l-.22.28c-.37.47-.74,1-1.11,1.45l-.06.08c-.38.52-.75,1.06-1.11,1.61l-.23.35q-.53.82-1,1.68l-.17.28q-.48.82-.94,1.66l-.13.24c-.32.61-.64,1.23-.94,1.86l-.2.41c-.3.64-.6,1.28-.88,1.94l-.09.22c-.15.35-.3.7-.44,1.06-.75-.14-1.49-.27-2.22-.42l-.72-.14q-1.74-.37-3.42-.81l-.85-.23c-.83-.22-1.64-.45-2.44-.7l-1.07-.34-1-.35.2-.27Zm-2.27,3.06c.57.2,1.16.38,1.74.57l1,.32q1.65.51,3.38,1l.72.17c.93.24,1.88.46,2.85.67l1.28.26,1.51.31h0c-.06.16-.1.33-.16.49-.11.31-.21.63-.31.94s-.29.92-.42,1.39c-.09.31-.18.63-.27.94-.13.48-.25,1-.37,1.45-.07.29-.15.58-.21.88-.13.57-.24,1.13-.35,1.7,0,.21-.09.42-.13.63q-.21,1.17-.38,2.34c0,.19,0,.38-.07.57-.08.6-.15,1.2-.21,1.8,0,.29,0,.58-.07.86,0,.5-.08,1-.1,1.51,0,.32,0,.63,0,.95s0,.51,0,.77H28.59A39.17,39.17,0,0,1,35.18,29.45Zm-6.6,23.21H44.54c0,.2,0,.41,0,.61s0,.58,0,.87c0,.48.06,1,.1,1.44,0,.27,0,.55.07.82.05.54.11,1.07.18,1.61,0,.21,0,.42.07.63q.15,1.11.34,2.22c0,.13.05.26.08.39.11.61.23,1.22.36,1.82.06.25.12.51.18.76.11.49.23,1,.35,1.45.07.28.15.55.22.83q.19.7.4,1.4l.25.81.14.47h0c-.55.1-1.08.22-1.61.34l-1.28.27q-1.56.35-3.07.74l-.57.14q-1.78.48-3.47,1l-1,.33c-.59.2-1.19.39-1.76.6A39.25,39.25,0,0,1,28.59,52.66ZM60.42,90q-.91-.18-1.81-.4l-.7-.18q-.74-.2-1.48-.42l-.68-.21q-.89-.29-1.76-.62l-.3-.11c-.67-.26-1.33-.55-2-.84L51.14,87q-.71-.34-1.4-.7l-.64-.34q-.72-.39-1.42-.82l-.48-.29q-.92-.57-1.81-1.19l-.4-.29q-.69-.5-1.36-1l-.56-.45q-.61-.5-1.2-1l-.5-.44c-.54-.49-1.07-1-1.58-1.52l-.07-.07c-.49-.5-1-1-1.43-1.56l-.44-.52q-.51-.61-1-1.24l-.44-.57-.25-.34,1.12-.39,1.1-.36c.83-.26,1.67-.5,2.53-.74l.83-.23q1.71-.45,3.5-.85l.79-.16c.73-.15,1.48-.3,2.23-.44v0q.26.69.54,1.37l.15.35.43,1,.2.44.44.94.18.38q.31.64.63,1.27l0,.07q.3.59.62,1.16l.22.39.48.83.24.4.53.87.18.3q.35.56.72,1.1l.2.29.55.79.27.37.51.68.27.35.66.82.12.14c.25.31.51.6.77.89l.27.29.54.58.29.3.56.56.24.24q.4.38.79.73l.17.14.64.53.1.09h0ZM99.21,75.49q-.49.63-1,1.24l-.44.52q-.68.78-1.4,1.52l-.1.11c-.51.53-1,1-1.58,1.53l-.49.43q-.59.53-1.21,1l-.56.45q-.66.52-1.34,1l-.42.31q-.89.62-1.81,1.2l-.43.25q-.73.44-1.47.85l-.63.33q-.69.36-1.4.7l-.59.28c-.66.3-1.33.59-2,.85l-.05,0c-.66.26-1.33.49-2,.71l-.64.2q-.75.23-1.51.43l-.7.18q-.84.21-1.7.37l-.47.1-.12,0,.11-.09.61-.5.2-.17.8-.73.21-.21.6-.59.27-.28.57-.61.24-.27q.79-.89,1.57-1.89l.22-.29.56-.75.24-.33.6-.85.16-.23q.37-.55.74-1.13L83,81l.58-1,.21-.36.51-.89.2-.35q.33-.59.64-1.2l0,0q.33-.63.64-1.29l.17-.37.45-1,.19-.43.43-1,.15-.35q.28-.68.54-1.36l0,0c.74.14,1.47.28,2.19.43l.86.17q1.8.39,3.52.85l.82.23c.87.24,1.72.49,2.55.75l1.1.36,1.13.4-.24.34Zm2.28-3.24c-.58-.21-1.19-.4-1.78-.6l-1-.33q-1.7-.54-3.49-1l-.59-.15q-1.51-.39-3.08-.74l-1.26-.26c-.55-.11-1.09-.24-1.65-.34h0a56.9,56.9,0,0,0,2.8-16.12h16A39.24,39.24,0,0,1,101.48,72.25Z"/><path class="cls-2" d="M71.72,62.94v-.58l2-1.28v-5.5h-2V55l2-1.28V48.59h2.94a5.43,5.43,0,0,0,5.42-5.42V34.6a5.41,5.41,0,0,0-.08-.89h0a5.4,5.4,0,0,0-1.18-2.58h0a5.41,5.41,0,0,0-4.15-1.94H59.4a5.41,5.41,0,0,0-4.15,1.94h0a5.4,5.4,0,0,0-1.18,2.57h0a5.41,5.41,0,0,0-.08.89v8.57a5.43,5.43,0,0,0,5.42,5.42h2.94V67.06h0v2.71h0v6.54L67,79.88,68,80.7l1.63-1.25,4.07-3.13v-6h-2v-.58h0l2-1.27V62.94ZM69,68.23V73h2v2L69.66,76,68,77.3,67,76.47,65,75V69.69h0V67h0V45.89H59.4a2.73,2.73,0,0,1-2.72-2.72V34.6a2.71,2.71,0,0,1,.07-.6h0a2.72,2.72,0,0,1,2.65-2.12H76.66A2.72,2.72,0,0,1,79.31,34h0a2.7,2.7,0,0,1,.07.6v8.57a2.73,2.73,0,0,1-2.72,2.72H71v6.35l-.65.42-.71.45-.64.41v4.77h2V59.6l-1.37.87-.64.41v4.77h2V67l0,0-1.32.84Z"/><path class="cls-2" d="M69.66,43.39h2.5a3.72,3.72,0,0,0,3.72-3.72v-.87a3.72,3.72,0,0,0-3.72-3.72H63.9a3.72,3.72,0,0,0-3.72,3.72v.87a3.72,3.72,0,0,0,3.72,3.72h5.76Zm-6.78-4.59a1,1,0,0,1,1-1h8.27a1,1,0,0,1,1,1v.87a1,1,0,0,1-1,1H63.9a1,1,0,0,1-1-1Z"/></svg>