<svg xmlns="http://www.w3.org/2000/svg" viewBox="0 0 136.06 121.89"><defs><style>.cls-1{fill:none;}.cls-2{fill:#010101;}</style></defs><path class="cls-1" d="M33.8,56.21c0-.23,0-.45,0-.68s0-.59,0-.88c0-.48.06-1,.1-1.44,0-.27,0-.53.07-.8.05-.57.12-1.14.2-1.71,0-.17,0-.34.06-.51q.15-1.11.36-2.21c0-.18.07-.36.11-.54.11-.55.22-1.11.34-1.66.06-.26.12-.52.19-.78.11-.47.23-.95.36-1.42.08-.28.15-.56.23-.83q.2-.69.42-1.37l.27-.83.14-.43h0l-1.33-.27-1.24-.25c-.89-.2-1.77-.4-2.63-.62l-.71-.17q-1.62-.42-3.17-.91l-.9-.29c-.54-.17-1.08-.34-1.61-.53a36.83,36.83,0,0,0-6.17,19.16H33.8Z"/><path class="cls-1" d="M48.44,93.57l-.2-.17c-.38-.34-.76-.7-1.14-1.07l-.24-.25c-.38-.39-.76-.79-1.13-1.21l0,0c-.38-.43-.76-.89-1.14-1.36l-.23-.29c-.37-.47-.73-1-1.09-1.46l-.15-.21q-.5-.71-1-1.46l-.17-.26q-.51-.81-1-1.66l-.19-.34c-.33-.58-.65-1.16-1-1.77l0,0c-.31-.61-.62-1.23-.91-1.87l-.18-.39q-.43-.94-.83-1.91l-.11-.28c-.13-.32-.26-.63-.38-1l-2,.39-.81.17q-1.67.37-3.26.79l-.8.23c-.8.22-1.58.45-2.35.69l-1,.34-1,.34.2.28.38.49q.47.61,1,1.19l.4.48c.43.49.86,1,1.31,1.43l.09.1c.48.49,1,1,1.49,1.43l.44.4q.56.5,1.15,1l.5.41q.67.53,1.36,1l.28.21q.83.58,1.69,1.12l.49.3q.64.39,1.3.75l.59.32q.69.37,1.41.7l.44.21q.92.42,1.86.79l.5.19q.71.27,1.44.51l.66.21q.71.22,1.44.41l.56.15q.93.23,1.87.41Z"/><path class="cls-1" d="M84.93,79.18l-.25-.08v2c.22-.27.45-.54.66-.82l.38-.5.2-.28Z"/><path class="cls-1" d="M71.41,83.45l-.17.29-.22.39q-.48.83-1,1.63l-.19.3q-.46.71-.94,1.39l-.19.27q-.53.74-1.07,1.43l-.25.32c-.37.46-.74.91-1.12,1.34v0c-.38.43-.77.84-1.15,1.23l-.25.25c-.38.38-.76.74-1.14,1.08l-.18.15L63,94c.65-.12,1.3-.27,1.95-.43l.59-.16q.72-.19,1.43-.41l.64-.2q.76-.25,1.52-.54l.42-.16q.94-.37,1.86-.79l.49-.23q.69-.33,1.36-.68l.6-.32q.66-.36,1.31-.76l.47-.28q.86-.54,1.69-1.12l.34-.25q.66-.48,1.31-1l.51-.41q.58-.47,1.14-1l.45-.4c.51-.46,1-.94,1.48-1.43l0-.05Z"/><path class="cls-1" d="M26.11,76.67l1-.33q1.59-.5,3.24-1l.55-.14q1.41-.37,2.88-.7L35,74.3,36.41,74h0l-.12-.4-.22-.72q-.2-.68-.39-1.36l-.2-.75c-.12-.47-.23-.93-.34-1.4-.05-.23-.11-.46-.16-.69q-.19-.87-.35-1.75c0-.11,0-.22-.06-.33q-.18-1-.32-2.1c0-.19,0-.39-.07-.58-.06-.51-.12-1-.17-1.53,0-.25,0-.51-.06-.76q-.05-.68-.09-1.37,0-.4,0-.8c0-.18,0-.36,0-.54H18.93a36.92,36.92,0,0,0,5.6,18.29C25,77,25.58,76.84,26.11,76.67Z"/><path class="cls-1" d="M27.67,35.06l1,.31c.75.23,1.52.45,2.29.65l.79.22q1.57.4,3.2.76l.67.13c.67.14,1.35.27,2,.39.06-.15.13-.29.19-.44q.32-.79.67-1.55l.37-.81c.27-.57.55-1.14.84-1.69l.28-.56q.58-1.1,1.21-2.14l.24-.39c.34-.55.68-1.1,1-1.62l.44-.64c.29-.43.59-.84.89-1.25l.5-.65c.3-.38.6-.76.91-1.12l.49-.58c.34-.39.69-.76,1-1.12l.38-.4c.47-.47.95-.92,1.42-1.33h0c-1.19.25-2.37.53-3.52.89l-.07,0q-1,.3-1.92.66l-.21.08A37.27,37.27,0,0,0,39,24.61l-.24.13q-.8.42-1.58.88l-.31.18a37.28,37.28,0,0,0-3.38,2.3l-.37.29q-.63.5-1.24,1l-.37.32c-.51.45-1,.9-1.49,1.38l0,0c-.46.45-.91.92-1.35,1.4l-.37.42q-.52.59-1,1.19l-.32.39-.16.21Z"/><path class="cls-1" d="M75.29,53.33c0-.3,0-.61-.08-.91,0-.46-.11-.91-.16-1.37,0-.24-.06-.48-.09-.72q-.15-1-.34-2.06c0-.2-.08-.4-.12-.6-.1-.5-.2-1-.31-1.48-.06-.26-.13-.52-.19-.78-.11-.43-.21-.86-.33-1.29-.08-.28-.16-.55-.24-.83s-.24-.82-.38-1.23l-.28-.84-.22-.63c-.54.08-1.09.15-1.63.23L69.38,41c-.79.1-1.6.18-2.4.26l-1.46.15c-.89.08-1.78.13-2.68.19l-1.24.08q-2,.1-4,.13h0V56.21H75.45c0-.25,0-.5,0-.74s0-.64,0-1S75.33,53.72,75.29,53.33Z"/><path class="cls-1" d="M63,72.44c.89.06,1.79.11,2.67.19l.7.07V68.75h7.81v-.06c0-.17.08-.33.12-.5q.22-1,.4-2c0-.13,0-.26.06-.39.09-.54.17-1.07.25-1.61,0-.23.06-.46.08-.68.05-.44.1-.89.15-1.33,0-.25,0-.51.07-.76q.05-.64.09-1.27c0-.26,0-.52,0-.77s0-.31,0-.46H57.63v13.3q2,0,4,.13Z"/><path class="cls-1" d="M45,72.77l1.61-.16c.92-.08,1.86-.14,2.79-.19l1.35-.09q2.09-.1,4.19-.12h0V58.91H36.52c0,.15,0,.31,0,.46s0,.52,0,.78q0,.63.09,1.26c0,.26,0,.52.07.78,0,.43.09.87.14,1.3,0,.24.06.48.09.72.07.52.15,1,.24,1.55,0,.15,0,.3.07.45q.18,1,.39,2c0,.18.09.37.13.55.11.48.22,1,.35,1.43.06.25.13.49.2.73.11.42.23.83.36,1.24l.24.78.2.59c.56-.09,1.12-.16,1.68-.24L42.53,73C43.34,72.94,44.17,72.85,45,72.77Z"/><path class="cls-1" d="M70.6,35.82l-.34-.71c-.19-.38-.38-.75-.57-1.12l-.34-.65c-.22-.41-.45-.81-.68-1.2l-.27-.46q-.47-.79-1-1.54l-.29-.42c-.24-.35-.48-.7-.72-1l-.39-.53-.64-.84L65,26.8,64.37,26l-.4-.46c-.24-.26-.47-.51-.71-.76l-.32-.33c-.34-.34-.68-.66-1-1l-.23-.2c-.26-.23-.52-.44-.77-.64l-.36-.27L59.93,22l-.37-.24-.6-.35-.35-.19c-.21-.11-.42-.2-.63-.28l-.27-.11-.07,0V39.12l2.1,0,1.14,0q2-.09,3.95-.25l.6-.06q1.66-.15,3.29-.34L70,38.22,71.56,38l-.11-.28L71.13,37Q70.87,36.4,70.6,35.82Z"/><path class="cls-1" d="M64.74,22.49c.23.23.46.48.69.72s.49.51.73.79.44.51.65.77.5.61.75.92l.61.8c.26.35.52.72.78,1.09l.54.78c.31.47.62,1,.92,1.44l.35.56q.61,1,1.19,2.11l.32.63c.28.54.55,1.08.81,1.63.13.28.26.56.38.85.23.5.44,1,.66,1.52.06.15.13.3.2.45l2-.38L77,37q1.64-.35,3.21-.76L81,36c.78-.21,1.55-.43,2.31-.66l1-.32.91-.31-.16-.21-.33-.41q-.49-.6-1-1.18l-.39-.44q-.63-.68-1.28-1.34L82,31.07c-.47-.47-1-.91-1.46-1.35l-.44-.38q-.56-.48-1.14-.93L78.48,28c-.5-.38-1-.75-1.52-1.1l-.09-.06c-.54-.37-1.09-.71-1.65-1.05l-.53-.31q-.62-.36-1.25-.7l-.55-.29c-.58-.3-1.16-.58-1.75-.85L71,23.61c-.55-.24-1.1-.47-1.65-.68l-.6-.22-1.34-.46-.58-.19c-.62-.19-1.25-.37-1.88-.52l-.29-.07c-.42-.1-.84-.19-1.27-.27.23.2.46.43.69.64S64.51,22.26,64.74,22.49Z"/><path class="cls-1" d="M85.29,37.6l-.86.28q-1.57.48-3.21.92l-.62.15q-1.36.34-2.75.65l-1.17.24-1.39.29h0l.13.42c.09.28.19.57.28.85q.21.67.4,1.34c.08.29.16.57.24.86.12.46.24.92.35,1.39.07.27.13.54.19.81.12.54.23,1.08.34,1.62,0,.19.08.38.12.58q.2,1.1.35,2.2c0,.18,0,.36.07.55.07.56.14,1.12.19,1.68,0,.27,0,.54.07.81,0,.48.07,1,.1,1.43,0,.29,0,.59,0,.88s0,.45,0,.68H93.11a36.82,36.82,0,0,0-6.17-19.16C86.4,37.24,85.84,37.42,85.29,37.6Z"/><path class="cls-1" d="M41,78.45l.37.8q.27.56.54,1.11l.38.75c.19.37.39.73.59,1.09l.37.67c.23.39.45.76.69,1.13l.32.52c.34.53.69,1,1,1.54v0c.35.49.69,1,1,1.41l.35.43c.24.3.48.6.73.88l.41.46.67.73.43.44.65.62.43.39.64.54.41.33c.22.17.44.32.66.47l.37.26c.25.16.5.3.74.43l.26.14a8.89,8.89,0,0,0,1,.42l.2.06a6.37,6.37,0,0,0,.62.18V74.92L52.47,75l-1.13,0q-2.07.09-4.11.26l-1,.1c-1,.1-2.07.2-3.1.33l-1.43.2-1.65.25.13.33.34.82C40.71,77.68,40.88,78.07,41,78.45Z"/><path class="cls-1" d="M78.13,59.45q0,.4,0,.8,0,.68-.09,1.36c0,.25,0,.51-.06.76,0,.51-.11,1-.17,1.52,0,.19,0,.39-.07.58q-.14,1-.32,2.09c0,.12,0,.23-.07.35-.11.58-.22,1.16-.34,1.73l0,.1h7.73v5.87H89a36.91,36.91,0,0,0,4.14-15.7h-15C78.15,59.09,78.13,59.27,78.13,59.45Z"/><path class="cls-1" d="M36.51,56.21H54.93V41.85h0q-2.07,0-4.12-.12l-1.34-.08c-.91-.05-1.83-.11-2.73-.18l-1.57-.16c-.81-.08-1.63-.16-2.43-.26l-1.65-.23c-.56-.08-1.13-.15-1.68-.23l-.22.62-.29.86c-.13.4-.25.81-.37,1.21s-.17.57-.25.85-.22.85-.33,1.28c-.07.26-.13.53-.2.79-.11.5-.22,1-.32,1.5,0,.19-.08.39-.12.58q-.19,1-.34,2.08c0,.18,0,.36-.07.54-.07.52-.13,1-.19,1.56,0,.26,0,.52-.07.78,0,.44-.07.88-.1,1.33,0,.28,0,.57,0,.85S36.51,55.94,36.51,56.21Z"/><path class="cls-1" d="M47.69,25.91l-.57.68-.46.56c-.3.37-.59.76-.88,1.16l-.27.38c-.3.41-.59.84-.88,1.28l-.34.54c-.22.35-.44.69-.66,1.05l-.37.64c-.2.35-.4.7-.6,1.06l-.37.69q-.28.54-.56,1.1l-.35.73c-.18.39-.36.78-.54,1.18l-.32.73L40.4,38l1.62.24,1.35.18c1,.12,2,.22,3.07.32l.94.09q2,.16,4,.25l1.09,0,2.43,0V20.6l-.31.09a9,9,0,0,0-2.07.95l-.22.13c-.21.13-.43.29-.64.44l-.35.25-.61.48-.41.34-.59.52-.46.44-.56.56-.5.54Z"/><path class="cls-1" d="M64.6,88.63l.67-.81.4-.51c.23-.29.45-.6.67-.9l.37-.52c.26-.37.51-.75.76-1.13l.26-.39c.19-.29.37-.6.55-.91H66.36v-8l-.82-.09L65,75.28q-2-.17-4-.26l-1.17,0-2.15,0V94.08l.1,0,.34-.14c.2-.08.39-.16.6-.26l.38-.2.6-.35.39-.25.65-.47.36-.27c.29-.23.58-.48.88-.74l.16-.13c.35-.31.69-.65,1-1l.33-.35c.24-.26.49-.52.73-.79Z"/><path class="cls-2" d="M99.37,87.51l4,0h10a6.44,6.44,0,0,0,0-12.89H92A39.78,39.78,0,0,0,89.54,36.1h0l-1-1.44-.6-.85h0q-.7-.94-1.45-1.84A39.86,39.86,0,0,0,56,17.75h-.07A39.88,39.88,0,0,0,24.1,33.82h0l-.6.85-1,1.44h0A39.69,39.69,0,0,0,22,78.16l-.06,0,.94,1.41.6.9h0a39.76,39.76,0,0,0,65.06,0h0l.6-.9.94-1.41-.06,0c.17-.28.36-.56.52-.85h22.84a3.74,3.74,0,0,1,0,7.49h-10l-4,0a6.45,6.45,0,0,0-6.44,6.44v13.94H18.57v2.7H119.42v-2.7H95.63V91.25A3.74,3.74,0,0,1,99.37,87.51ZM89,74.61H84.68V68.75H76.94l0-.1c.12-.58.24-1.15.34-1.73,0-.12,0-.23.07-.35q.18-1,.32-2.09c0-.19,0-.39.07-.58.06-.51.12-1,.17-1.52,0-.25,0-.51.06-.76q.05-.68.09-1.36,0-.4,0-.8c0-.18,0-.35,0-.53h15A36.91,36.91,0,0,1,89,74.61ZM63.15,90.23c-.35.35-.7.69-1,1l-.16.13c-.29.26-.59.51-.88.74l-.36.27-.65.47-.39.25-.6.35-.38.2c-.2.1-.4.18-.6.26l-.34.14-.1,0V74.93l2.15,0L61,75q2,.09,4,.26l.55.06.82.09v8h1.93c-.18.3-.36.62-.55.91l-.26.39c-.25.39-.5.77-.76,1.13l-.37.52c-.22.31-.45.61-.67.9l-.4.51-.67.81-.39.46c-.24.27-.49.54-.73.79Zm1.47-68.76.29.07c.63.16,1.26.33,1.88.52l.58.19,1.34.46.6.22c.56.21,1.11.44,1.65.68l.17.07c.59.27,1.18.55,1.75.85l.55.29q.63.34,1.25.7l.53.31c.56.34,1.11.69,1.65,1.05l.09.06c.52.35,1,.72,1.52,1.1l.48.37q.58.45,1.14.93l.44.38c.5.44,1,.89,1.46,1.35l.11.12q.66.65,1.28,1.34l.39.44q.51.58,1,1.18l.33.41.16.21-.91.31-1,.32c-.76.23-1.53.45-2.31.66l-.8.22q-1.57.4-3.21.76l-.73.15-2,.38c-.06-.15-.13-.3-.2-.45-.21-.51-.43-1-.66-1.52-.13-.28-.25-.57-.38-.85-.26-.55-.53-1.09-.81-1.63l-.32-.63q-.58-1.08-1.19-2.11l-.35-.56c-.3-.49-.61-1-.92-1.44L69,27.58c-.26-.37-.52-.74-.78-1.09l-.61-.8c-.25-.32-.5-.62-.75-.92s-.43-.52-.65-.77-.49-.53-.73-.79-.46-.49-.69-.72-.47-.44-.7-.65-.46-.44-.69-.64C63.78,21.29,64.2,21.37,64.62,21.47ZM72.8,80.75H69.06v-5h0V73h0V71.45H82v3.17H74.77v2.7H82v1h0v2.47H72.8ZM39.13,73.52l-.2-.59-.24-.78c-.13-.41-.24-.83-.36-1.24-.07-.24-.14-.49-.2-.73-.12-.48-.24-1-.35-1.43,0-.18-.09-.37-.13-.55q-.22-1-.39-2c0-.15,0-.3-.07-.45-.09-.52-.17-1-.24-1.55,0-.24-.06-.48-.09-.72-.05-.43-.1-.87-.14-1.3,0-.26,0-.52-.07-.78q-.05-.63-.09-1.26c0-.26,0-.52,0-.78s0-.31,0-.46H54.93V72.2h0q-2.11,0-4.19.12l-1.35.09c-.93.06-1.87.11-2.79.19L45,72.77c-.82.08-1.65.17-2.47.27l-1.72.24C40.25,73.36,39.68,73.43,39.13,73.52ZM57.63,58.91h17.8c0,.15,0,.31,0,.46s0,.52,0,.77q0,.64-.09,1.27c0,.25,0,.51-.07.76,0,.44-.09.89-.15,1.33,0,.23-.05.46-.08.68-.07.54-.16,1.07-.25,1.61,0,.13,0,.26-.06.39q-.18,1-.4,2c0,.17-.08.33-.12.5v.06H66.36v3.94l-.7-.07c-.89-.08-1.78-.13-2.67-.19l-1.31-.09q-2-.1-4-.13ZM71.56,38,70,38.22l-1.25.17q-1.63.2-3.29.34l-.6.06q-2,.16-3.95.25l-1.14,0-2.1,0V20.77l.07,0,.27.11c.21.08.42.17.63.28l.35.19.6.35.37.24.63.45.36.27c.26.2.51.42.77.64l.23.2c.33.3.67.62,1,1l.32.33c.24.25.47.5.71.76l.4.46.64.76.41.51.64.84.39.53c.24.34.48.69.72,1l.29.42q.49.75,1,1.54l.27.46c.23.39.45.79.68,1.2l.34.65c.19.37.38.74.57,1.12l.34.71q.27.58.53,1.17l.31.72Zm3.89,18.22H57.63V41.85h0q2,0,4-.13l1.24-.08c.9-.05,1.79-.11,2.68-.19L67,41.29c.8-.08,1.6-.16,2.4-.26l1.53-.21c.54-.08,1.1-.14,1.63-.23l.22.63.28.84c.13.41.25.82.38,1.23s.16.55.24.83c.12.43.23.86.33,1.29.06.26.13.52.19.78.11.49.21,1,.31,1.48,0,.2.09.4.12.6q.19,1,.34,2.06c0,.24.06.48.09.72.06.46.12.91.16,1.37,0,.3.05.61.08.91s.07.79.09,1.19,0,.64,0,1S75.44,56,75.45,56.21Zm-26.16-32,.46-.44.59-.52.41-.34.61-.48.35-.25c.21-.15.43-.3.64-.44l.22-.13a9,9,0,0,1,2.07-.95l.31-.09V39.13l-2.43,0-1.09,0q-2-.09-4-.25l-.94-.09c-1-.09-2.05-.19-3.07-.32L42,38.22,40.4,38l.12-.29.32-.73c.18-.4.35-.79.54-1.18l.35-.73q.28-.56.56-1.1l.37-.69c.2-.36.4-.71.6-1.06l.37-.64c.22-.36.44-.71.66-1.05l.34-.54c.29-.44.58-.86.88-1.28l.27-.38c.29-.4.59-.79.88-1.16l.46-.56.57-.68.53-.58.5-.54Zm-12.61,29c0-.26,0-.52.07-.78.05-.52.12-1,.19-1.56,0-.18,0-.36.07-.54q.15-1,.34-2.08c0-.19.08-.39.12-.58.1-.5.2-1,.32-1.5.06-.26.13-.53.2-.79.11-.43.21-.85.33-1.28s.16-.57.25-.85.24-.81.37-1.21l.29-.86.22-.62c.56.09,1.12.15,1.68.23l1.65.23c.8.1,1.62.18,2.43.26l1.57.16c.9.08,1.82.13,2.73.18l1.34.08q2,.1,4.12.12h0V56.21H36.51c0-.27,0-.54,0-.82s0-.57,0-.85C36.6,54.11,36.63,53.66,36.67,53.22Zm3.4,22.9,1.65-.25,1.43-.2c1-.13,2.06-.23,3.1-.33l1-.1q2-.17,4.11-.26l1.13,0,2.47-.05V94.26a6.37,6.37,0,0,1-.62-.18l-.2-.06a8.89,8.89,0,0,1-1-.42l-.26-.14c-.24-.13-.49-.27-.74-.43l-.37-.26c-.22-.15-.44-.3-.66-.47L50.72,92l-.64-.54L49.64,91,49,90.41,48.57,90l-.67-.73-.41-.46c-.24-.28-.49-.58-.73-.88l-.35-.43c-.35-.45-.7-.92-1-1.41v0c-.35-.49-.69-1-1-1.54L44,84c-.23-.37-.46-.74-.69-1.13l-.37-.67c-.2-.36-.4-.72-.59-1.09L42,80.36q-.28-.55-.54-1.11l-.37-.8c-.17-.38-.34-.77-.51-1.17l-.34-.82Zm53-19.91H78.16c0-.23,0-.45,0-.68s0-.59,0-.88c0-.48-.06-1-.1-1.43,0-.27,0-.54-.07-.81-.05-.56-.12-1.12-.19-1.68,0-.18,0-.36-.07-.55q-.15-1.1-.35-2.2c0-.19-.08-.38-.12-.58-.1-.54-.21-1.08-.34-1.62-.06-.27-.13-.54-.19-.81-.11-.46-.23-.93-.35-1.39-.08-.29-.16-.57-.24-.86q-.19-.67-.4-1.34c-.09-.28-.18-.57-.28-.85l-.13-.42h0l1.39-.29,1.17-.24q1.4-.3,2.75-.65l.62-.15q1.64-.43,3.21-.92l.86-.28c.55-.18,1.11-.35,1.65-.54A36.82,36.82,0,0,1,93.11,56.21ZM27.25,34.15q.5-.61,1-1.19l.37-.42c.44-.48.88-.95,1.35-1.4l0,0c.48-.47,1-.93,1.49-1.38l.37-.32q.61-.52,1.24-1l.37-.29a37.28,37.28,0,0,1,3.38-2.3l.31-.18q.78-.46,1.58-.88l.24-.13a37.27,37.27,0,0,1,3.85-1.72l.21-.08q1-.36,1.92-.66l.07,0c1.15-.36,2.33-.65,3.52-.89h0c-.48.41-1,.85-1.42,1.33l-.38.4c-.35.36-.69.73-1,1.12l-.49.58c-.3.36-.61.73-.91,1.12l-.5.65c-.3.4-.6.82-.89,1.25l-.44.64c-.35.53-.69,1.07-1,1.62l-.24.39q-.62,1-1.21,2.14l-.28.56c-.29.56-.57,1.12-.84,1.69l-.37.81q-.35.77-.67,1.55c-.06.15-.13.29-.19.44-.69-.13-1.37-.25-2-.39L35,37q-1.63-.35-3.2-.76L31,36c-.78-.21-1.54-.43-2.29-.65l-1-.31-.9-.31.16-.21Zm-2.15,2.9c.52.18,1.07.35,1.61.53l.9.29q1.55.48,3.17.91l.71.17c.87.22,1.74.43,2.63.62l1.24.25,1.33.27h0l-.14.43-.27.83q-.22.68-.42,1.37c-.08.28-.16.55-.23.83-.13.47-.25.95-.36,1.42-.06.26-.13.52-.19.78-.13.55-.24,1.11-.34,1.66,0,.18-.08.36-.11.54q-.2,1.1-.36,2.21c0,.17,0,.34-.06.51-.07.57-.14,1.14-.2,1.71,0,.27,0,.53-.07.8,0,.48-.07,1-.1,1.44,0,.29,0,.59,0,.88s0,.45,0,.68H18.93A36.83,36.83,0,0,1,25.1,37.06ZM18.93,58.91H33.81c0,.18,0,.36,0,.54s0,.53,0,.8q0,.68.09,1.37c0,.25,0,.51.06.76,0,.51.11,1,.17,1.53,0,.19,0,.39.07.58q.14,1.05.32,2.1c0,.11,0,.22.06.33q.16.88.35,1.75c0,.23.11.46.16.69.11.47.22.94.34,1.4l.2.75q.19.68.39,1.36l.22.72.12.4h0L35,74.3l-1.2.25q-1.47.33-2.88.7l-.55.14q-1.66.45-3.24,1l-1,.33c-.53.18-1.07.35-1.58.53A36.92,36.92,0,0,1,18.93,58.91ZM46.5,93.43q-.72-.19-1.44-.41l-.66-.21q-.72-.24-1.44-.51l-.5-.19q-.94-.37-1.86-.79l-.44-.21q-.71-.34-1.41-.7l-.59-.32q-.66-.36-1.3-.75l-.49-.3q-.86-.54-1.69-1.12l-.28-.21q-.69-.5-1.36-1l-.5-.41q-.58-.48-1.15-1l-.44-.4c-.51-.46-1-.94-1.49-1.43l-.09-.1c-.45-.46-.88-.94-1.31-1.43l-.4-.48q-.49-.59-1-1.19l-.38-.49-.2-.28,1-.34,1-.34c.77-.24,1.55-.47,2.35-.69l.8-.23q1.6-.42,3.26-.79l.81-.17,2-.39c.12.32.25.63.38,1l.11.28q.4,1,.83,1.91l.18.39c.3.63.6,1.26.91,1.87l0,0c.31.6.63,1.19,1,1.77l.19.34q.49.85,1,1.66l.17.26q.48.75,1,1.46l.15.21c.36.5.72,1,1.09,1.46l.23.29c.38.47.75.93,1.14,1.36l0,0c.37.42.75.82,1.13,1.21l.24.25c.38.38.76.74,1.14,1.07l.2.17.5.42q-.94-.18-1.87-.41Zm34.57-8.5-.45.4q-.56.5-1.14,1l-.51.41q-.64.51-1.31,1l-.34.25q-.83.58-1.69,1.12l-.47.28q-.65.39-1.31.76l-.6.32q-.67.35-1.36.68l-.49.23q-.92.42-1.86.79l-.42.16q-.75.28-1.52.54L67,93q-.71.22-1.43.41l-.59.16c-.64.16-1.29.3-1.95.43l.54-.46.18-.15c.38-.34.76-.7,1.14-1.08l.25-.25c.39-.39.77-.8,1.15-1.23v0c.38-.43.75-.88,1.12-1.34l.25-.32q.54-.69,1.07-1.43l.19-.27q.47-.68.94-1.39l.19-.3q.5-.8,1-1.63l.22-.39.17-.29h11.2l0,.05C82.08,84,81.58,84.47,81.08,84.93Zm4.26-4.64c-.22.28-.44.55-.66.82v-2l.25.08,1,.35-.2.28Z"/></svg>