<svg xmlns="http://www.w3.org/2000/svg" viewBox="0 0 136.06 121.89"><defs><style>.cls-1{fill:none;}.cls-2{fill:#010101;}</style></defs><path class="cls-1" d="M73.88,90.19v.06H84.14a5.35,5.35,0,0,0,5.34-5.34V13.23a5.35,5.35,0,0,0-5.34-5.34H52.22a5.35,5.35,0,0,0-5.34,5.34v3.6H89.3v2.7H46.88v60.3H89.3v2.7H46.88V84.9a5.35,5.35,0,0,0,5.34,5.34h10v-.06ZM68.29,13.71h-5.8V11h5.8Zm5.33,0H71.06V11h2.55Z"/><rect class="cls-1" x="64.88" y="92.95" width="6.3" height="4.24"/><rect class="cls-2" x="62.49" y="11.01" width="5.8" height="2.7"/><rect class="cls-2" x="71.06" y="11.01" width="2.55" height="2.7"/><rect class="cls-2" x="96.68" y="34.01" width="2.7" height="2.7"/><rect class="cls-2" x="96.68" y="40.04" width="2.7" height="28"/><rect class="cls-2" x="96.68" y="71.01" width="2.7" height="2.7"/><rect class="cls-2" x="36.68" y="34.01" width="2.7" height="2.7"/><rect class="cls-2" x="36.68" y="40.04" width="2.7" height="28"/><rect class="cls-2" x="36.68" y="71.01" width="2.7" height="2.7"/><rect class="cls-2" x="104.68" y="40.69" width="2.7" height="2.7"/><rect class="cls-2" x="104.68" y="47.03" width="2.7" height="13.89"/><rect class="cls-2" x="104.68" y="64.33" width="2.7" height="2.7"/><rect class="cls-2" x="28.68" y="40.69" width="2.7" height="2.7"/><rect class="cls-2" x="28.68" y="47.03" width="2.7" height="13.89"/><rect class="cls-2" x="28.68" y="64.33" width="2.7" height="2.7"/><path class="cls-2" d="M73.88,99.89V92.95H84.14a8.05,8.05,0,0,0,8-8V13.23a8.05,8.05,0,0,0-8-8H52.22a8.05,8.05,0,0,0-8,8V84.9a8.05,8.05,0,0,0,8,8h10v6.94h4.5v5.3h-37v2.7H69.39v-2.7h0v-5.3ZM52.22,90.25a5.35,5.35,0,0,1-5.34-5.34V82.53H90.3v-2.7H46.88V19.53H89.3v-2.7H46.88v-3.6a5.35,5.35,0,0,1,5.34-5.34H84.14a5.35,5.35,0,0,1,5.34,5.34V84.9a5.35,5.35,0,0,1-5.34,5.34H73.88v-.06H62.18v.06Zm12.66,6.94V92.95h6.3v4.24Z"/></svg>