<svg xmlns="http://www.w3.org/2000/svg" viewBox="0 0 136.06 121.89"><defs><style>.cls-1{fill:none;}.cls-2{fill:#010101;}</style></defs><polygon class="cls-1" points="105.31 95.19 112.61 95.19 112.61 41.17 33.46 41.17 33.46 48.47 105.31 48.47 105.31 95.19"/><polygon class="cls-2" points="22.11 105.34 20.76 105.34 20.76 107.89 105.31 107.89 105.31 105.34 103.96 105.34 22.11 105.34"/><path class="cls-2" d="M23.46,102.34V51.17h79.15v51.17h2.7V97.89h10V38.47H30.76v10h-10v53.87h2.7Zm10-61.17h79.15v54h-7.3V48.47H33.46Z"/><path class="cls-2" d="M74.6,69.3c.19-.22.2-.23.62-.23a1.22,1.22,0,0,1,1.06.42,3.6,3.6,0,0,0,2.67,1.06,4.15,4.15,0,0,0,2-.5v6.62H97.18V56.12H81v4.7a6.33,6.33,0,0,0-.78.52,1.72,1.72,0,0,1-1.25.51,1,1,0,0,1-.87-.37,3.82,3.82,0,0,0-2.86-1.1,3.1,3.1,0,0,0-2.64,1.14c-.21.23-.3.34-1.09.34v2.7A3.57,3.57,0,0,0,74.6,63.3c.19-.22.2-.23.62-.23a1.22,1.22,0,0,1,1.06.42,3.6,3.6,0,0,0,2.67,1.06,4.15,4.15,0,0,0,2-.5v2.76a6.33,6.33,0,0,0-.78.52,1.72,1.72,0,0,1-1.25.51,1,1,0,0,1-.87-.37,3.82,3.82,0,0,0-2.86-1.1,3.1,3.1,0,0,0-2.64,1.14c-.21.23-.3.34-1.09.34v2.7A3.57,3.57,0,0,0,74.6,69.3Zm9.07-10.48h10.8V74H83.67V69.66a4.2,4.2,0,0,0,2.73.89,4.72,4.72,0,0,0,4.24-2.65l-2.45-1.13a2,2,0,0,1-1.78,1.07,1.68,1.68,0,0,1-1.31-.52,4.14,4.14,0,0,0-1.41-.8V63.66a4.2,4.2,0,0,0,2.73.89,4.72,4.72,0,0,0,4.24-2.65l-2.45-1.13a2,2,0,0,1-1.78,1.07,1.68,1.68,0,0,1-1.31-.52,4.14,4.14,0,0,0-1.41-.8Z"/><polygon class="cls-2" points="61.33 102.34 64.03 102.34 64.03 97.89 64.03 95.19 64.03 57.27 61.33 57.27 61.33 95.19 61.33 97.89 61.33 102.34"/><polygon class="cls-2" points="33.46 65.18 45.83 65.18 45.83 62.48 33.46 62.48 30.76 62.48 29.49 62.48 29.49 65.18 30.76 65.18 33.46 65.18"/><polygon class="cls-2" points="33.46 73.06 55.34 73.06 55.34 70.36 33.46 70.36 30.76 70.36 29.49 70.36 29.49 73.06 30.76 73.06 33.46 73.06"/><polygon class="cls-2" points="33.46 80.93 55.34 80.93 55.34 78.23 33.46 78.23 30.76 78.23 29.49 78.23 29.49 80.93 30.76 80.93 33.46 80.93"/><polygon class="cls-2" points="33.46 88.81 55.34 88.81 55.34 86.11 33.46 86.11 30.76 86.11 29.49 86.11 29.49 88.81 30.76 88.81 33.46 88.81"/><rect class="cls-2" x="70.49" y="86.11" width="25.86" height="2.7"/><polygon class="cls-2" points="96.34 96.68 96.34 95.19 96.34 93.98 70.49 93.98 70.49 95.19 70.49 96.68 96.34 96.68"/></svg>