<svg xmlns="http://www.w3.org/2000/svg" viewBox="0 0 136.06 121.89"><defs><style>.cls-1{fill:none;}.cls-2{fill:#010101;}</style></defs><polygon class="cls-1" points="107.95 50.91 102.46 46.45 102.46 55.87 107.95 50.91"/><polygon class="cls-1" points="33.61 46.36 28.11 50.9 33.61 55.94 33.61 46.36"/><polygon class="cls-1" points="67.7 18.21 56.24 27.67 79.34 27.67 67.7 18.21"/><polygon class="cls-2" points="32.54 102.42 36.81 102.42 67.72 77.12 99.16 102.42 103.47 102.42 67.71 73.64 32.54 102.42"/><path class="cls-2" d="M28.46,54.89,54.2,78.45l1.82-2L36.52,58.6h-.21V30.37H99.76V58.6h-.33L80.08,76.07l1.81,2,25.72-23.22v47.56h2.7V50.09l.37-.45-.37-.3v-.56l-.33.3L102.46,43V27.67H83.62L67.68,14.72,52,27.67H33.61V42.86l-7.51,6.2-.34-.31v.59l-.37.31.37.45v52.31h2.7Zm79.49-4-5.49,5V46.45ZM67.7,18.21l11.64,9.46H56.24ZM33.61,46.36v9.58l-5.5-5Z"/><polygon class="cls-2" points="28.88 105.42 25.76 105.42 25.76 107.89 25.85 107.89 110.27 107.89 110.31 107.89 110.31 105.42 107.19 105.42 28.88 105.42"/><rect class="cls-2" x="43.82" y="46.46" width="26.19" height="2.7"/><rect class="cls-2" x="43.82" y="38.46" width="14.19" height="2.7"/><rect class="cls-2" x="43.82" y="54.46" width="26.19" height="2.7"/><polygon class="cls-2" points="83.84 47.22 83.84 49.83 85.14 49.83 86.54 49.83 86.54 47.22 85.14 47.22 83.84 47.22"/><path class="cls-2" d="M91.38,40.3A6.19,6.19,0,0,0,79,40.3v.87H76V56.61H94.36V41.17h-3Zm.29,13.61h-13v-10h13Zm-10-12.74V40.3a3.49,3.49,0,0,1,7,0v.87Z"/></svg>