<svg xmlns="http://www.w3.org/2000/svg" viewBox="0 0 136.06 121.89"><defs><style>.cls-1{fill:none;}.cls-2{fill:#010101;}</style></defs><path class="cls-1" d="M68,21.8A20.23,20.23,0,0,0,47.83,42v6.7h4V42.25a16.24,16.24,0,0,1,32.47,0V48.7h4V42A20.23,20.23,0,0,0,68,21.8Z"/><path class="cls-1" d="M68,28.71A13.55,13.55,0,0,0,54.5,42.25V48.7H81.57V42.25A13.55,13.55,0,0,0,68,28.71Z"/><polygon class="cls-2" points="97.57 105.09 97.57 105.19 38.49 105.19 38.49 105.09 37.14 105.09 35.79 105.09 35.79 107.89 100.27 107.89 100.27 105.09 98.92 105.09 97.57 105.09"/><path class="cls-2" d="M68,19.1A22.93,22.93,0,0,0,45.13,42v6.7H35.79v53.39h2.7V92.85H97.57v9.24h2.7V48.7H90.94V42A22.93,22.93,0,0,0,68,19.1ZM81.57,48.7H54.5V42.25a13.54,13.54,0,0,1,27.07,0ZM38.49,90.15V51.4H97.57V90.15ZM84.27,48.7V42.25a16.24,16.24,0,0,0-32.47,0V48.7h-4V42a20.21,20.21,0,0,1,40.41,0v6.7Z"/><path class="cls-2" d="M68,60.42A7,7,0,0,0,63.52,72.7v9h9v-9A7,7,0,0,0,68,60.42Zm2.4,10.5-.59.4V79H66.22V71.32l-.59-.4a4.27,4.27,0,1,1,4.8,0Z"/></svg>