<svg xmlns="http://www.w3.org/2000/svg" viewBox="0 0 136.06 121.89"><defs><style>.cls-1{fill:none;}.cls-2{fill:#010101;}</style></defs><path class="cls-1" d="M45.83,95.45a18.4,18.4,0,0,1,.51-4.2h-18v11.24H47A20.78,20.78,0,0,1,45.83,95.45Z"/><path class="cls-1" d="M91.29,91.25H87.73a24.69,24.69,0,0,1,0,4.84,28.86,28.86,0,0,1-1.42,6.39h5Z"/><path class="cls-1" d="M107.7,74.34H77.58v5.51l.18-.24.29-.38c.47-.67,1-1.48,1.64-2.21a2.39,2.39,0,0,1,4.06.58,49.42,49.42,0,0,1,3.61,11H107.7Z"/><path class="cls-1" d="M53,79.73a2.29,2.29,0,0,1,2,.89c.5.67.92,1.34,1.32,2l.21.32c.45.67.87,1.31,1.3,1.88a26.34,26.34,0,0,1,2.07-10.48H44.77V88.55h2.38a40,40,0,0,1,4-7.77A2.25,2.25,0,0,1,53,79.73Z"/><rect class="cls-1" x="93.99" y="91.25" width="13.71" height="11.24"/><polygon class="cls-1" points="61.18 54.73 74.88 54.73 74.88 40.51 44.77 40.51 44.77 54.73 58.48 54.73 61.18 54.73"/><path class="cls-1" d="M91.29,71.64V57.43H61.18V71.64h0a21.92,21.92,0,0,1,6.1-7,2.44,2.44,0,0,1,2.34-.19l.14.07A2.32,2.32,0,0,1,71,66.6a19.8,19.8,0,0,0,.55,5H91.29Z"/><polygon class="cls-1" points="77.58 40.51 77.58 54.73 91.29 54.73 93.99 54.73 107.7 54.73 107.7 40.51 77.58 40.51"/><rect class="cls-1" x="93.99" y="57.43" width="13.71" height="14.21"/><path class="cls-1" d="M74.88,78.53V74.34H72.48A22.15,22.15,0,0,0,74.88,78.53Z"/><rect class="cls-1" x="28.37" y="40.51" width="13.71" height="14.21"/><polygon class="cls-1" points="44.77 71.64 58.48 71.64 58.48 57.43 44.77 57.43 42.07 57.43 28.37 57.43 28.37 71.64 42.07 71.64 44.77 71.64"/><rect class="cls-1" x="28.37" y="74.34" width="13.71" height="14.21"/><rect class="cls-1" x="93.99" y="23.43" width="13.71" height="14.21"/><rect class="cls-1" x="61.18" y="23.43" width="30.11" height="14.21"/><rect class="cls-1" x="28.37" y="23.43" width="30.11" height="14.21"/><path class="cls-2" d="M110.4,88.55V20.73H25.67v81.76h2.7V91.25h18a18.4,18.4,0,0,0-.51,4.2,20.78,20.78,0,0,0,1.18,7,18.35,18.35,0,0,0,1.38,3v0H25.67v2.68H50.31c.09.11.17.22.26.32A19.88,19.88,0,0,0,65,117a20.43,20.43,0,0,0,2.16.11A19.13,19.13,0,0,0,80.29,112a21.43,21.43,0,0,0,3.21-3.83H110.4v-2.68H85v0a25.83,25.83,0,0,0,1.24-3,28.86,28.86,0,0,0,1.42-6.39,24.69,24.69,0,0,0,0-4.84h3.55v11.24H94V91.25H107.7v11.24h2.7V88.55Zm-2.7-16.91H94V57.43H107.7ZM85,95.81a25.84,25.84,0,0,1-1.61,6.68,22.35,22.35,0,0,1-1.4,3v0a19.9,19.9,0,0,1-1.86,2.68,18.23,18.23,0,0,1-1.7,1.85,16.55,16.55,0,0,1-13.19,4.35,17.14,17.14,0,0,1-11.53-6.2c-.34-.41-.68-.83-1-1.28l-.11-.14a15.23,15.23,0,0,1-1-1.25l0,0a15.41,15.41,0,0,1-1.67-3,17.73,17.73,0,0,1-1.4-7,16.21,16.21,0,0,1,.6-4.2,22,22,0,0,1,.91-2.7,38.79,38.79,0,0,1,3.12-5.84c.29.42.57.87.87,1.37l.24.36a17.36,17.36,0,0,0,3.41,4.12,8.57,8.57,0,0,0,.8.57l.25.16,2.38,1.38-.28-2.11-.08-.61a23.88,23.88,0,0,1,2.09-13.6,22.08,22.08,0,0,1,1.54-2.7,18.85,18.85,0,0,1,3.95-4.34,22.42,22.42,0,0,0,.48,4.34,20.13,20.13,0,0,0,.77,2.7A29.88,29.88,0,0,0,74.88,83l.15.18,1.63,2,.92-1,.14-.16c.77-.86,1.47-1.79,2.21-2.77l.31-.42c.4-.57.8-1.15,1.23-1.69a46.6,46.6,0,0,1,3.16,9.44c.18.89.32,1.79.41,2.7A22.41,22.41,0,0,1,85,95.81ZM74.88,78.53a22.15,22.15,0,0,1-2.41-4.19h2.41Zm-3.31-6.9a19.8,19.8,0,0,1-.55-5,2.32,2.32,0,0,0-1.22-2.05l-.14-.07a2.44,2.44,0,0,0-2.34.19,21.92,21.92,0,0,0-6.1,7h0V57.43H91.29V71.64H71.58ZM44.77,40.51H74.88V54.73H44.77ZM94,54.73H77.58V40.51H107.7V54.73Zm0-31.3H107.7V37.64H94Zm-32.81,0H91.29V37.64H61.18Zm-32.81,0H58.48V37.64H28.37Zm0,17.09H42.07V54.73H28.37Zm0,16.91H58.48V71.64H28.37Zm0,31.13V74.34H42.07V88.55Zm16.41,0V74.34H59.89a26.34,26.34,0,0,0-2.07,10.48c-.44-.57-.86-1.21-1.3-1.88l-.21-.32c-.4-.65-.82-1.32-1.32-2a2.29,2.29,0,0,0-2-.89,2.25,2.25,0,0,0-1.83,1.06,40,40,0,0,0-4,7.77Zm49.22,0H87.37a49.42,49.42,0,0,0-3.61-11A2.39,2.39,0,0,0,79.69,77c-.61.73-1.17,1.54-1.64,2.21l-.29.38-.18.24V74.34H107.7V88.55Z"/></svg>