<svg xmlns="http://www.w3.org/2000/svg" viewBox="0 0 136.06 121.89"><defs><style>.cls-1{fill:none;}.cls-2{fill:#010101;}</style></defs><path class="cls-1" d="M104.14,44.63V32.42c-6,4.53-20.94,6.93-35.21,6.93s-29-2.37-35.09-6.85V44.63"/><path class="cls-2" d="M104.14,52V63.63h0c0,3.62-13.4,8.67-35.21,8.67s-35.21-5-35.21-8.67h.12V52h-2.7V63.63H31C31,71,50.55,75,68.93,75s37.91-4,37.91-11.36V52h-2.7Z"/><path class="cls-2" d="M104.14,71V82.63h0c0,3.62-13.4,8.67-35.21,8.67s-35.21-5-35.21-8.67h.12V71h-2.7V82.63H31c0,7.23,18.76,11.2,36.8,11.36v6.2h-8v5H30.65v2.7H59.82v4h19.7v-4h27.17v-2.7H79.52v-5h-9V94c17.9-.22,36.32-4.18,36.32-11.35V71h-2.7Zm-27.32,34.2v4H62.52v-6.3h14.3Z"/><path class="cls-2" d="M68.93,16.63C50.55,16.63,31,20.61,31,28a4.12,4.12,0,0,0,.12.94v15.7H31C31,52,50.55,56,68.93,56s37.91-4,37.91-11.36V28C106.84,20.61,87.31,16.63,68.93,16.63Zm35.21,28c0,3.62-13.4,8.67-35.21,8.67s-35.21-5-35.21-8.67h.12V32.51c6.05,4.47,20.91,6.85,35.09,6.85s29.24-2.4,35.21-6.93V44.63ZM68.93,19.33c21.82,0,35.21,5,35.21,8.67s-13.4,8.67-35.21,8.67c-20.65,0-33.75-4.52-35.09-8.07V28h-.12C33.72,24.38,47.11,19.33,68.93,19.33Z"/></svg>