<svg xmlns="http://www.w3.org/2000/svg" viewBox="0 0 136.06 121.89"><defs><style>.cls-1{fill:#010101;}</style></defs><path class="cls-1" d="M107.11,94.89V34.76h-.91L88.08,21.43H48.63L30.5,34.76h-.66V94.89H67.63v5.3h-8v5H30.46v2.7H59.63v4h19.7v-4h27.17v-2.7H79.33v-5h-9v-5.3Zm-30.49,10.3v4H62.33v-6.3h14.3ZM32.54,75.89v-.43H46.61v-2.7H32.54V56.46H46.61v-2.7H32.54V37.46h71.87v16.3H90.34v2.7h14.07v16.3H90.34v2.7h14.07V92.19H32.54Zm2.52-41.12L49.52,24.13H87.19l14.46,10.63Z"/><path class="cls-1" d="M67.66,82.07a2.51,2.51,0,0,0,1.64,0,21.37,21.37,0,0,0,9.57-6.18l.36-.43c.24-.3.47-.61.69-.92l.28-.43q.3-.46.57-.92l.24-.43c2.77-5.17,2.78-11.14,2.69-15.87v-.6h0c0-.26,0-.5,0-.75s0-.29,0-.43c0-.31,0-.62,0-.92,0-.14,0-.28,0-.42h0a2.51,2.51,0,0,0-2.51-2.5c-4.57,0-8-1.3-10.91-4.09a2.49,2.49,0,0,0-3.5,0c-2.87,2.79-6.34,4.09-10.91,4.09a2.51,2.51,0,0,0-2.51,2.5h0c0,.14,0,.28,0,.42,0,.3,0,.61,0,.92,0,.14,0,.28,0,.43s0,.5,0,.75v.6c-.09,4.73-.08,10.7,2.69,15.87l.24.43q.27.47.57.92l.28.43c.22.31.44.62.69.92l.36.43A21.37,21.37,0,0,0,67.66,82.07Zm-7.18-7.53-.37-.43c-.26-.3-.51-.61-.73-.92l-.29-.43C55.87,68,55.87,62.09,56,56.89v-.54c0-.27,0-.54,0-.8s0-.29,0-.43c0-.31,0-.62,0-.92,0-.08,0-.15,0-.23a23.33,23.33,0,0,0,2.78-.2,16.47,16.47,0,0,0,9.69-4.53,16.46,16.46,0,0,0,9.69,4.53,23.34,23.34,0,0,0,2.78.2c0,.08,0,.15,0,.23,0,.3,0,.61,0,.92,0,.14,0,.28,0,.43s0,.53,0,.81v.54c.1,5.2.09,11.12-3.11,15.87l-.29.43c-.23.31-.47.62-.73.92l-.37.43c-.29.32-.61.62-.94.92l-.48.43a20.61,20.61,0,0,1-6.58,3.61,20.6,20.6,0,0,1-6.58-3.61l-.48-.43C61.08,75.16,60.77,74.86,60.48,74.54Z"/><polygon class="cls-1" points="74.67 59.36 67.9 65.7 64.39 62.18 62.48 64.08 67.83 69.46 76.52 61.33 74.67 59.36"/></svg>