<svg xmlns="http://www.w3.org/2000/svg" viewBox="0 0 136.06 121.89"><defs><style>.cls-1{fill:#010101;}</style></defs><path class="cls-1" d="M87.63,21H48.18L30.05,34.35H29.4V94.48H67.18v5.3h-8v5H30v2.7H59.18v4h19.7v-4H106v-2.7H78.88v-5h-9v-5.3h36.79V34.35h-.91ZM76.18,104.78v4H61.88v-6.3h14.3ZM89.9,53.35v2.7H104v16.3H89.9v2.7H104V91.78H32.09V75.05H46.17v-2.7H32.09V56.05H46.17v-2.7H32.09V37.05H104v16.3Zm-55.29-19L49.07,23.72H86.74L101.2,34.35Z"/><path class="cls-1" d="M81.93,49v7.7a.81.81,0,0,1-.79.79H78V55H75V52.94a7.4,7.4,0,0,0-14.81,0V55h-3v2.48H54a.81.81,0,0,1-.79-.79V49h-2.7v7.7A3.5,3.5,0,0,0,54,60.21h3.15v2.25H48.38v2.7h8.74v2.32H54A3.5,3.5,0,0,0,50.48,71v7.7h2.7V71a.81.81,0,0,1,.79-.79h3.4a10.33,10.33,0,0,0,.75,2.18c.07.14.13.29.21.43a10.45,10.45,0,0,0,.55.92c.1.15.21.28.31.43a10.52,10.52,0,0,0,.77.92l.42.43a10.38,10.38,0,0,0,14.37,0l.42-.43a10.5,10.5,0,0,0,.77-.92c.1-.14.21-.28.31-.43a10.46,10.46,0,0,0,.55-.92c.07-.14.14-.28.21-.43a10.33,10.33,0,0,0,.75-2.18h3.4a.81.81,0,0,1,.79.79v7.7h2.7V71a3.5,3.5,0,0,0-3.49-3.49H78V65.16h9.2v-2.7H78V60.21h3.15a3.5,3.5,0,0,0,3.49-3.49V49ZM62.85,53.35v-.42a4.71,4.71,0,1,1,9.41,0v1.68H62.85V53.35Zm12.44,11.8v2.78a7.68,7.68,0,0,1-1.39,4.42c-.1.15-.21.29-.32.43a7.8,7.8,0,0,1-.89.92q-.25.22-.52.43a7.43,7.43,0,0,1-2.93,1.35l-.33.06v-15H66.2v15l-.34-.06a7.43,7.43,0,0,1-2.93-1.35q-.27-.2-.52-.43a7.79,7.79,0,0,1-.89-.92c-.11-.14-.22-.28-.32-.43a7.68,7.68,0,0,1-1.39-4.42V57.73H75.29v7.43Z"/></svg>