<svg xmlns="http://www.w3.org/2000/svg" viewBox="0 0 136.06 121.89"><defs><style>.cls-1{fill:#010101;}</style></defs><path class="cls-1" d="M114.34,69.31H98.28l-6.92,9.1h-.59v15H105v6.68h-4.85v4.79H73.6v-4.79H69.34V93.4H83.08v-15H82.4l-6.92-9.1H59.43l-6.92,9.1h-.59v15H66.64v6.68H61.8v4.79H35.27v-4.79H31V93.4H45.28v-15H44.6l-6.92-9.1H21.63l-6.92,9.1h-.59v15H28.31v6.68H23.46v4.79H15v2.7h8.42v4.31h11.8v-4.31H61.8v4.31H73.6v-4.31h26.53v4.31h11.8v-4.31h8.27v-2.7h-8.27v-4.79h-4.26V93.4h14.26v-15h-.68ZM54.63,81.11H80.38v9.6H54.63Zm1.28-2.7L60.77,72H74.15L79,78.41Zm-39.08,2.7H42.58v9.6H16.83Zm1.28-2.7L23,72H36.35l4.87,6.4Zm14.46,29.17v1.61h-6.4v-6.41h6.4v4.79Zm38.33,0v1.61H64.5v-6.41h6.4v4.79Zm38.33-2.7v4.31h-6.4v-6.41h6.4ZM93.48,81.11h25.75v9.6H93.48Zm1.28-2.7L99.62,72H113l4.86,6.4Z"/></svg>