<svg xmlns="http://www.w3.org/2000/svg" viewBox="0 0 136.06 121.89"><defs><style>.cls-1{fill:none;}.cls-2{fill:#fff;}.cls-3{fill:#010101;}</style></defs><path class="cls-1" d="M39.86,44.88a15.87,15.87,0,0,0-.07,2.58,6.15,6.15,0,0,0,1.09,2.7h1.92a35.89,35.89,0,0,1-.68-5.29Z"/><path class="cls-1" d="M73.43,76.58c.07-.32.11-.55.14-.68V68.77a16,16,0,0,1-10.15,4.12,15.48,15.48,0,0,1-9.15-3.33v7l9.57,7.7Z"/><path class="cls-1" d="M84.71,44.89a35.88,35.88,0,0,1-.68,5.3l2.42,0a6.15,6.15,0,0,0,1.09-2.7,16.1,16.1,0,0,0-.07-2.58Z"/><polygon class="cls-2" points="30.27 107.02 30.27 107.02 30.27 107.02 30.27 107.02"/><path class="cls-3" d="M30.27,108.37h22.8v7.52h21.7v-7.52H89.18l-.06,2.3,4.62,4.87,10.7-2.63,1.35-13.47-2.17-6-3.85-1V89.55c3.51-1.71,6-5.83,6-10.63,0-6.33-4.31-11.48-9.6-11.48s-9.6,5.15-9.6,11.48a13.64,13.64,0,0,0,.13,1.78L76.27,74.45v-8.3A34.37,34.37,0,0,0,83.42,52.7v.19l4.35,0,.4-.48a9.4,9.4,0,0,0,2.07-4.73A20.25,20.25,0,0,0,90,43.29l-.2-1.11H88.06A28.61,28.61,0,0,0,88.77,36c0-15.62-13.16-25.29-25.35-25.29S38.07,20.36,38.07,36a28.55,28.55,0,0,0,.65,6l.05.23H37.56l-.2,1.11a20.19,20.19,0,0,0-.26,4.35,9.4,9.4,0,0,0,2.07,4.73l.4.48,3.91,0a33.68,33.68,0,0,0,8.1,14.33v7.2l0,0L33.68,85.07,30.56,101.4l1.33.25,1.33.25,2.9-15.14,14.82-8.88c.16.73.38,1.65.64,2.68a42.62,42.62,0,0,0,2.7,7.74c.16.31.31.62.48.9a32.93,32.93,0,0,0,4.3,6q.5.55,1,1H53.07v9.48H30.27V107h0ZM63.6,98.89l.42.21.31-.21h7.74v4.3H55.77v-4.3Zm8.47,7v7.3H55.77v-7.3Zm17.2-27c0-4.84,3.1-8.77,6.9-8.77s6.9,3.94,6.9,8.77a9.47,9.47,0,0,1-3.3,7.47,6.34,6.34,0,0,1-1.35.81,5.65,5.65,0,0,1-1.35.41,5.14,5.14,0,0,1-2.55-.18h0a6,6,0,0,1-1.33-.62L93,86.67a7,7,0,0,1-1.14-1,8,8,0,0,1-.65-.77,9.2,9.2,0,0,1-1.25-2.32A10.72,10.72,0,0,1,89.27,78.91Zm12.29,16.74L103,99.77l-1.1,11-7.33,1.8L93,110.89l-1.2-1.27,0-1.25,0-1.35,0-1.35.13-5.42,1.1-.24,1.27-.28.08,0,.52-.11.72-.17,1.31-.31h0l1.35-.32.61-.14.74-3,.13-.5Zm-4.49-.28-.26,1-.32.07-1.32.29-.65.15V90.21c.21,0,.41.09.62.11a7.62,7.62,0,0,0,1.93,0Zm-33.65-82C74.31,13.39,86.07,22,86.07,36a25.78,25.78,0,0,1-.53,5.16h-.48c-.16-.48-.3-1-.46-1.64l-.08-.31a22.82,22.82,0,0,0-3.61-8.13c-.33-.46-.69-.92-1.08-1.39a21.44,21.44,0,0,0-3.31-3.1,35,35,0,0,0-8.95-4.84l-1.22-.42-.47,1.21c0,.07-2.65,6.71-7,10.51a25.33,25.33,0,0,1-7,4l-.51.2a58.28,58.28,0,0,1-6.27,2l-1.42.36-1.38.31-1.13.24A25.4,25.4,0,0,1,40.77,36C40.77,22,52.53,13.39,63.42,13.39ZM44.81,42a61.18,61.18,0,0,0,7.65-2.39L59.54,39l-.23-2.69-.46,0a18.9,18.9,0,0,0,1.74-1.32c3.73-3.23,6.23-8.07,7.26-10.33,2.18.9,6.92,3.16,9.9,6.68a19.44,19.44,0,0,1,4.1,8.28A27,27,0,0,1,82.07,43a33.88,33.88,0,0,1-5.8,18.72,26.48,26.48,0,0,1-2.7,3.33c-3,3.16-6.58,5.1-10.15,5.1-3.19,0-6.35-1.55-9.15-4.12a24.35,24.35,0,0,1-2.7-3A33.64,33.64,0,0,1,44.77,43C44.77,42.7,44.8,42.38,44.81,42Zm42.73,5.43a6.15,6.15,0,0,1-1.09,2.7l-2.42,0a35.88,35.88,0,0,0,.68-5.3h2.76A16.1,16.1,0,0,1,87.55,47.47Zm-46.66,2.7a6.15,6.15,0,0,1-1.09-2.7,15.87,15.87,0,0,1,.07-2.58h2.26a35.89,35.89,0,0,0,.68,5.29ZM54.27,69.56a15.48,15.48,0,0,0,9.15,3.33,16,16,0,0,0,10.15-4.12v7.12c0,.13-.07.36-.14.68l-9.59,7.71-9.57-7.7Zm2.82,18.31a34.78,34.78,0,0,1-2.82-7.66l-.05-.2.05,0,9.57,7.7,8.54-6.87a32.71,32.71,0,0,1-2.64,7,36.85,36.85,0,0,1-5.24,7.32c-.26.27-.5.51-.69.69-.24-.17-.54-.4-.88-.69A26.76,26.76,0,0,1,57.09,87.87Zm11,7.32a46,46,0,0,0,4-6A23.59,23.59,0,0,0,73.57,86a59.61,59.61,0,0,0,2.3-7.91l.4-.32.12-.09,11.4,6.83a10.69,10.69,0,0,0,4,4.64v8.4l-2.4.54-.18,7.61H74.77V96.19H67.25C67.52,95.89,67.8,95.56,68.09,95.19Z"/><rect class="cls-3" x="70.07" y="43.04" width="2.7" height="5"/><rect class="cls-3" x="70.07" y="34.02" width="2.7" height="8.04" transform="translate(27.42 105.95) rotate(-85.1)"/><rect class="cls-3" x="54.07" y="43.04" width="2.7" height="5"/></svg>