<svg xmlns="http://www.w3.org/2000/svg" viewBox="0 0 136.06 121.89"><defs><style>.cls-1{fill:none;}.cls-2{fill:#010101;}.cls-3{fill:#fff;}</style></defs><path class="cls-1" d="M69.17,45.89l-.54.72a39,39,0,0,1-.72,4.2h1.52a5.74,5.74,0,0,0,1-2.52,14.81,14.81,0,0,0-.06-2.4Z"/><path class="cls-1" d="M49,84.21c4.61,0,7.5-3.13,9.07-5.62V68.51a14.83,14.83,0,0,1-9.62,4.09,14.25,14.25,0,0,1-8.67-3.3v9.1C41.31,80.91,44.22,84.21,49,84.21Z"/><path class="cls-1" d="M27.59,45.89H27a15.06,15.06,0,0,0-.06,2.4,5.79,5.79,0,0,0,1,2.52h1a39,39,0,0,1-.7-4.08Z"/><rect class="cls-2" x="54.73" y="44.06" width="2.7" height="4.77"/><rect class="cls-2" x="51.78" y="35.51" width="9.54" height="2.7"/><rect class="cls-2" x="39.46" y="44.06" width="2.7" height="4.77"/><rect class="cls-2" x="35.57" y="35.51" width="9.54" height="2.7"/><polygon class="cls-2" points="72.86 106.54 72.86 105.19 16.55 105.19 16.55 106.54 16.55 107.89 72.86 107.89 72.86 106.54"/><path class="cls-2" d="M42.51,57.5a3.82,3.82,0,0,0,0,2.7,6.48,6.48,0,0,0,11.86,0,3.82,3.82,0,0,0,0-2.7,6.48,6.48,0,0,0-11.86,0Zm5.93-1.18a4.38,4.38,0,0,1,2.78,1.18,1.65,1.65,0,0,1,0,2.7,3.87,3.87,0,0,1-5.56,0,1.65,1.65,0,0,1,0-2.7A4.38,4.38,0,0,1,48.45,56.32Z"/><polygon class="cls-3" points="72.05 100.82 72.05 100.82 72.05 100.82 72.05 100.82"/><path class="cls-2" d="M108.58,6.24l-38,12.94L81.5,51.29l17.65-6L102,54.44l-3.64,2.05-3.2,7.38.87.38-.36.49-8.82,12L72.76,75.63l-12-1V65.73a35.09,35.09,0,0,0,6.42-12.21l3.56,0,.4-.48a9,9,0,0,0,2-4.55,19.33,19.33,0,0,0-.25-4.17l-.2-1.11H70.79c.1-1.74.56-13.59-5.5-21-5.92-7.24-12.43-8.76-16.84-8.76a21.28,21.28,0,0,0-17.72,8.81c-5.34,7.23-4.95,19.26-4.86,20.94H24.68l-.2,1.11a19.36,19.36,0,0,0-.25,4.17,9,9,0,0,0,2,4.55l.4.48,3.09,0a34.28,34.28,0,0,0,7.38,13.3v7.61L22.14,84.61,17.22,101l2.59.77.35-1.17L24.45,86.3l12.09-8.24c.15.32.34.67.54,1a18.27,18.27,0,0,0,2.7,3.72,14,14,0,0,0,2.9,2.34q.48.29,1,.54A12,12,0,0,0,49,86.91H49a12.57,12.57,0,0,0,9.61-4.57,19.32,19.32,0,0,0,3.08-4.89l6.16.5,20.23,1.64L97,67.45l5.23,6.8-1.16,2.35L94.5,90l-9.67.18-12.44.23L70.72,100.6l1.33.22h0l1.33.22.25-1.54L74.69,93l6.83-.13,14.68-.27,8.65-17.59-.44-.22,3.38-1.53,1.8,5.85,2.58-.79-1.9-6.18,2.18-1-.36-.8,4.34.47L113,50.53l-6.13,3.36-1.13-1.59-1.39.78-2.67-8.67,17.8-6.06ZM111,54.72l2.18,13.09-4.41-.48-1-.11-.3-3.09.23-.21,3.85-3.48-3.09-4.34ZM96.38,64.41h0ZM104,72.07l-5.24-6.82-.06-.07.63-.86-1.08-.79.19-.43,2-4.7,2.33-1.32,1.23-.7,1-.54.4.56,0,.06L107,58.61l1,1.44-.81.74-.22.2-.16-.12-1-.78L104.27,59l-.16-.12-.55.73-.26.35L102.49,61l2,1.48.23.76.42,4.28.21,2.13,1.4.15,1.8.19-1.53.69ZM48.45,16.13c5.49,0,10.59,2.69,14.75,7.77a18.58,18.58,0,0,1,2.93,5.27,37.72,37.72,0,0,1,2,13.64l-.29.38-.14.18,0-.18c0-.41-.09-.85-.15-1.3a33.67,33.67,0,0,0-2.09-8.76,22.44,22.44,0,0,0-3.27-5.68C61,26.13,59.58,25.3,58,25.92a36.54,36.54,0,0,1-9.57,1.65,36.54,36.54,0,0,1-9.57-1.65c-1.36-.55-2.73-.06-4.08,1.43a20.71,20.71,0,0,0-3.34,5.8,35.53,35.53,0,0,0-2.09,8.91c0,.39-.09.76-.13,1.12,0,.13,0,.27,0,.4l-.33-.4-.33-.41a47.43,47.43,0,0,1,.66-9.28,23.31,23.31,0,0,1,3.69-9.66A18.67,18.67,0,0,1,48.45,16.13Zm-16.77,31c0-.08.23-8,2.28-12.94,2.14-5.12,3.72-5.84,3.92-5.77a38.68,38.68,0,0,0,10.57,1.85A38.67,38.67,0,0,0,59,28.43c.22-.09,1.69.61,3.93,5.78C65,39,65.22,47.05,65.22,47.13l.07,3a35.45,35.45,0,0,1-4.52,11.05,26.76,26.76,0,0,1-2.7,3.58c-2.87,3.19-6.23,5.14-9.62,5.14-3,0-6-1.56-8.67-4.15a24.29,24.29,0,0,1-2.7-3.17A34.72,34.72,0,0,1,31.6,50.07Zm38.77,1.15a5.74,5.74,0,0,1-1,2.52H67.9a39,39,0,0,0,.72-4.2l.54-.72h1.21A14.81,14.81,0,0,1,70.44,48.29ZM27.94,50.8a5.79,5.79,0,0,1-1-2.52,15.06,15.06,0,0,1,.06-2.4h.61l.69.84a39,39,0,0,0,.7,4.08ZM48.45,72.6a14.83,14.83,0,0,0,9.62-4.09V78.58c-1.57,2.49-4.46,5.62-9.07,5.62-4.78,0-7.69-3.3-9.21-5.81V69.3A14.25,14.25,0,0,0,48.45,72.6ZM83.19,47.86,74,20.87l32.9-11.2,9.19,27-15.17,5.17-2.56.87Z"/><polygon class="cls-3" points="96.38 64.41 96.38 64.41 96.38 64.41 96.38 64.41"/><polygon class="cls-2" points="103.82 32.6 97.07 29.32 96.67 29.13 96.88 28.7 100.14 21.98 97.71 20.8 95.71 24.91 94.24 27.95 93.75 27.71 87.09 24.48 85.91 26.91 93.06 30.38 89.59 37.53 92.02 38.71 95.15 32.26 95.49 31.56 98.16 32.85 102.64 35.03 103.82 32.6"/></svg>