<svg version="1.1" id="Layer_1" xmlns="http://www.w3.org/2000/svg" xlink="http://www.w3.org/1999/xlink" x="0px" y="0px" viewBox="0 0 1055.5 212.95" style="enable-background:new 0 0 1055.5 212.95;" xml:space="preserve">

    <style type="text/css">
        .st0{fill:#AE0055;}
        .st1{fill:#999999;}
        .st2{fill:none;stroke:#D1D2D4;stroke-width:4;stroke-miterlimit:10;}
    </style>

    <path class="st0" d="M805.72,65.38h14.47c0,15.68,0,31.37,0,47.05c-4.82,0.01-9.65,0.01-14.47,0
        C805.72,96.74,805.73,81.06,805.72,65.38z"></path>

    <path class="st0" d="M825.69,65.38h43.96v8.92c-5.01,0-10.01,0-15.02,0c-0.01,12.53,0.01,25.07,0,37.6
        c-4.64,0.01-9.28,0.01-13.92,0c-0.01-12.53,0.01-25.07,0-37.6c-5.01-0.01-10.01,0-15.01-0.01
        C825.69,71.32,825.68,68.35,825.69,65.38z"></path>

    <path class="st1" d="M621.62,67.27c5.15-2.02,10.91-1.95,16.3-0.99c3.68,0.67,7.24,2.18,10.05,4.57c2,1.76,3.49,4.04,4.18,6.55
        c-3.99,0.7-7.94,1.6-11.95,2.18c-1.54,0.37-2.3-1.25-3.38-1.94c-2.08-1.95-5.31-1.89-7.93-1.16c-1.05,0.42-2.22,0.91-2.78,1.91
        c-0.55,0.98,0.21,2.12,1.01,2.74c3.82,2.38,8.6,2.34,12.67,4.17c5.09,2,9.85,6.26,10.17,11.79c-0.02,3.77-1.21,7.64-3.95,10.44
        c-3.48,3.55-8.55,5.1-13.46,5.77h-7.7c-3.99-0.53-8.06-1.47-11.44-3.68c-3.17-1.98-5.71-4.9-6.97-8.32v-0.74
        c4.36-0.92,8.65-2.15,13.05-2.85c2.01,2.29,4.49,4.55,7.72,5c2.59,0.2,5.57-0.08,7.49-1.97c1.06-0.85,0.67-2.42-0.11-3.32
        c-1.6-1.66-3.9-2.51-6.16-3.03c-4.63-1.03-9.32-2.6-12.89-5.73c-1.79-1.69-3.4-3.8-3.69-6.25c-0.38-3.42,0.35-7.05,2.47-9.88
        C616.06,70.08,618.76,68.37,621.62,67.27z"></path>

    <path class="st1" d="M665.23,79.53c2.81-1.43,6.02-1.84,9.17-1.89c3.69,0,7.54,0.29,10.81,2.08c3.58,1.8,5.92,5.3,6.85,8.99
        c0.98,2.92,0.66,6.02,0.53,9.03c-8.17,0.01-16.35-0.01-24.52,0c-0.01,1.93-0.15,4.05,1.12,5.68c1.21,1.62,3.53,1.86,5.44,1.53
        c2.44-0.57,3.73-2.83,4.8-4.8c3.91,0.73,7.8,1.58,11.71,2.36c-1.16,2.26-2.72,4.34-4.68,6.03c-2.9,2.64-6.76,4.12-10.67,4.76
        h-5.12c-3.41-0.55-6.89-1.3-9.8-3.16c-5.98-3.9-8.25-11.8-5.96-18.24C656.72,86.84,660.12,82.01,665.23,79.53z M670.7,86.87
        c-1.31,1.09-1.54,2.83-1.73,4.39c3.47,0.02,6.93,0.01,10.4,0.01c0.02-0.83,0.07-1.67,0.03-2.5c-0.17-1.47-1.46-2.7-2.98-2.93
        C674.53,85.51,672.16,85.44,670.7,86.87z"></path>

    <path class="st1" d="M709.27,78.44c4.06-1.01,8.45-1.17,12.51-0.06c2.56,0.75,4.85,2.28,6.43,4.34c1.77,2.13,2.64,4.8,3.06,7.46
        c-3.99,0.61-7.99,1.17-12,1.63c-0.42-1.32-0.42-2.95-1.56-3.95c-1.16-1.19-3.12-1.41-4.62-0.75c-1.99,1.21-2.73,3.5-3.35,5.55
        c-0.74,2.96-1.3,6.11-0.35,9.1c0.26,1,1.06,1.81,2,2.29c1.62,0.57,3.69,0.35,4.87-0.95c1.19-1.09,1.81-2.56,2.51-3.95
        c3.51,0.79,7.01,1.63,10.5,2.49c-0.91,2.98-2.6,5.77-5.11,7.77c-2.58,2.24-6,3.31-9.36,3.91h-5.13
        c-3.56-0.58-7.24-1.65-9.86-4.14c-2.74-2.44-4.14-5.93-4.64-9.41c-0.62-5.86,1.75-11.71,5.6-16.19
        C703,81.13,705.94,79.19,709.27,78.44z"></path>

    <path class="st1" d="M796.02,78.68c1.92-1.15,4.27-1.04,6.45-1.08c-0.5,3.98-1.36,7.9-1.92,11.87c-2.54,0.05-5.34-0.06-7.5,1.42
        c-3.22,1.99-4.15,5.79-4.45,9.2c-0.57,4.06-1.24,8.1-1.78,12.16c-4.9,0.01-9.79,0.02-14.69,0c2.11-11.09,4.37-22.16,6.63-33.23
        c3.99,0,7.99,0,11.99,0.01c-0.2,2.36-0.65,4.69-0.96,7.04C791.18,83.17,792.94,80.17,796.02,78.68z"></path>
        
    <path class="st1" d="M758.57,78.72c4.37-0.09,8.74-0.06,13.11-0.04c-1.91,11.14-4.09,22.24-5.95,33.38
        c-4.07-0.04-8.14,0.17-12.21,0.2c0.08-1.35,0.16-2.69,0.2-4.04c-1.62,2.52-4.26,4.39-7.27,5.08h-6.95
        c-1.65-0.47-3.31-1.22-4.29-2.64c-2.3-2.78-2.03-6.58-1.56-9.87c1.32-7.32,2.78-14.62,4.14-21.94c4.47-0.02,8.93-0.03,13.4,0.01
        c-1.33,5.62-2.78,11.23-3.53,16.96c-0.22,2.26-0.54,4.57,0.01,6.82c0.03,1.23,1.41,1.96,2.57,2c1.14,0.03,2.18-0.69,2.82-1.54
        c1.56-1.88,1.89-4.34,2.41-6.61C756.45,90.55,757.62,84.65,758.57,78.72z"></path>
		
    <polyline class="st2" points="1042.65,92.87 957.65,92.87 869.65,160.94 38.65,142.94"></polyline>

</svg>