<svg version="1.1" id="Layer_1" xmlns="http://www.w3.org/2000/svg" xlink="http://www.w3.org/1999/xlink" x="0px" y="0px" viewBox="0 0 263.20999 47.940003" style="enable-background:new 0 0 263.20999 47.940003;" xml:space="preserve">

    <style
   type="text/css"
   id="style73">
        .st0{fill:#AE0055;}
        .st1{fill:#999999;}
        .st2{fill:none;stroke:#D1D2D4;stroke-width:4;stroke-miterlimit:10;}
    </style>

    <path class="st0" d="m 199.27999,0 h 14.47 c 0,15.680001 0,31.370001 0,47.050001 -4.82,0.01 -9.65,0.01 -14.47,0 0,-15.69 0.01,-31.37 0,-47.050001 z"/>

    <path class="st0" d="m 219.24999,0 h 43.96 v 8.92 c -5.01,0 -10.01,0 -15.02,0 -0.01,12.530001 0.01,25.070001 0,37.600001 -4.64,0.01 -9.28,0.01 -13.92,0 -0.01,-12.53 0.01,-25.07 0,-37.600001 -5.01,-0.01 -10.01,0 -15.01,-0.01 -0.01,-2.97 -0.02,-5.94 -0.01,-8.91 z" />

    <path class="st1" d="m 15.180001,1.89 c 5.15,-2.02 10.91,-1.95 16.3,-0.99 3.68,0.67 7.24,2.18 10.050002,4.57 2,1.76 3.49,4.04 4.18,6.550001 -3.99,0.7 -7.940002,1.6 -11.950002,2.18 -1.54,0.37 -2.3,-1.25 -3.38,-1.94 -2.08,-1.95 -5.31,-1.89 -7.93,-1.16 -1.05,0.42 -2.22,0.91 -2.78,1.91 -0.55,0.98 0.21,2.12 1.01,2.74 3.82,2.38 8.6,2.34 12.67,4.17 5.09,2 9.850002,6.26 10.170002,11.79 -0.02,3.77 -1.21,7.64 -3.950002,10.44 -3.48,3.55 -8.55,5.1 -13.46,5.77 h -7.7 c -3.99,-0.53 -8.06,-1.47 -11.440001,-3.68 -3.17,-1.98 -5.71,-4.9 -6.97,-8.32 v -0.74 c 4.36,-0.92 8.65,-2.15 13.050001,-2.85 2.01,2.29 4.49,4.55 7.72,5 2.59,0.2 5.57,-0.08 7.49,-1.97 1.06,-0.85 0.67,-2.42 -0.11,-3.32 -1.6,-1.66 -3.9,-2.51 -6.16,-3.03 -4.63,-1.03 -9.32,-2.6 -12.890001,-5.73 -1.79,-1.69 -3.4,-3.8 -3.69,-6.25 C 5.03,13.610001 5.76,9.98 7.88,7.15 9.62,4.7 12.320001,2.99 15.180001,1.89 Z" />

    <path class="st1" d="m 58.790003,14.150001 c 2.81,-1.43 6.02,-1.84 9.17,-1.89 3.69,0 7.54,0.29 10.81,2.08 3.58,1.8 5.92,5.3 6.85,8.99 0.98,2.92 0.66,6.02 0.53,9.03 -8.17,0.01 -16.35,-0.01 -24.52,0 -0.01,1.93 -0.15,4.05 1.12,5.68 1.21,1.62 3.53,1.86 5.44,1.53 2.44,-0.57 3.73,-2.83 4.8,-4.8 3.91,0.73 7.8,1.58 11.71,2.36 -1.16,2.26 -2.72,4.34 -4.68,6.03 -2.9,2.64 -6.76,4.12 -10.67,4.76 h -5.12 c -3.41,-0.55 -6.89,-1.3 -9.8,-3.16 -5.98,-3.9 -8.25,-11.8 -5.96,-18.24 1.81,-5.06 5.21,-9.89 10.32,-12.37 z m 5.47,7.34 c -1.31,1.09 -1.54,2.83 -1.73,4.39 3.47,0.02 6.93,0.01 10.4,0.01 0.02,-0.83 0.07,-1.67 0.03,-2.5 -0.17,-1.47 -1.46,-2.7 -2.98,-2.93 -1.89,-0.33 -4.26,-0.4 -5.72,1.03 z" />

    <path class="st1" d="m 102.82999,13.060001 c 4.06,-1.01 8.45,-1.17 12.51,-0.06 2.56,0.75 4.85,2.28 6.43,4.34 1.77,2.13 2.64,4.8 3.06,7.46 -3.99,0.61 -7.99,1.17 -12,1.63 -0.42,-1.32 -0.42,-2.95 -1.56,-3.95 -1.16,-1.19 -3.12,-1.41 -4.62,-0.75 -1.99,1.21 -2.73,3.5 -3.35,5.55 -0.74,2.96 -1.3,6.11 -0.35,9.1 0.26,1 1.06,1.81 2,2.29 1.62,0.57 3.69,0.35 4.87,-0.95 1.19,-1.09 1.81,-2.56 2.51,-3.95 3.51,0.79 7.01,1.63 10.5,2.49 -0.91,2.98 -2.6,5.77 -5.11,7.77 -2.58,2.24 -6,3.31 -9.36,3.91 h -5.13 c -3.559987,-0.58 -7.239987,-1.65 -9.859987,-4.14 -2.74,-2.44 -4.14,-5.93 -4.64,-9.41 -0.62,-5.86 1.75,-11.71 5.6,-16.19 2.23,-2.45 5.17,-4.39 8.499987,-5.14 z" />

    <path class="st1" d="m 189.57999,13.300001 c 1.92,-1.15 4.27,-1.04 6.45,-1.08 -0.5,3.98 -1.36,7.9 -1.92,11.87 -2.54,0.05 -5.34,-0.06 -7.5,1.42 -3.22,1.99 -4.15,5.79 -4.45,9.2 -0.57,4.06 -1.24,8.1 -1.78,12.16 -4.9,0.01 -9.79,0.02 -14.69,0 2.11,-11.09 4.37,-22.16 6.63,-33.23 3.99,0 7.99,0 11.99,0.01 -0.2,2.36 -0.65,4.69 -0.96,7.04 1.39,-2.9 3.15,-5.9 6.23,-7.39 z" />
        
    <path class="st1" d="m 152.12999,13.340001 c 4.37,-0.09 8.74,-0.06 13.11,-0.04 -1.91,11.14 -4.09,22.24 -5.95,33.38 -4.07,-0.04 -8.14,0.17 -12.21,0.2 0.08,-1.35 0.16,-2.69 0.2,-4.04 -1.62,2.52 -4.26,4.39 -7.27,5.08 h -6.95 c -1.65,-0.47 -3.31,-1.22 -4.29,-2.64 -2.3,-2.78 -2.03,-6.58 -1.56,-9.87 1.32,-7.32 2.78,-14.62 4.14,-21.94 4.47,-0.02 8.93,-0.03 13.4,0.01 -1.33,5.62 -2.78,11.23 -3.53,16.96 -0.22,2.26 -0.54,4.57 0.01,6.82 0.03,1.23 1.41,1.96 2.57,2 1.14,0.03 2.18,-0.69 2.82,-1.54 1.56,-1.88 1.89,-4.34 2.41,-6.61 0.98,-5.94 2.15,-11.84 3.1,-17.77 z" />
		
    

</svg>