<?xml version="1.0" encoding="UTF-8" standalone="no"?>
<svg
   xmlns:dc="http://purl.org/dc/elements/1.1/"
   xmlns:cc="http://creativecommons.org/ns#"
   xmlns:rdf="http://www.w3.org/1999/02/22-rdf-syntax-ns#"
   xmlns:svg="http://www.w3.org/2000/svg"
   xmlns="http://www.w3.org/2000/svg"
   id="svg276375"
   version="1.1"
   viewBox="0 0 30.367756 18.254"
   height="18.254mm"
   width="30.367756mm">
  <defs
     id="defs276369" />
  <metadata
     id="metadata276372">
    <rdf:RDF>
      <cc:Work
         rdf:about="">
        <dc:format>image/svg+xml</dc:format>
        <dc:type
           rdf:resource="http://purl.org/dc/dcmitype/StillImage" />
        <dc:title></dc:title>
      </cc:Work>
    </rdf:RDF>
  </metadata>
  <g
     transform="translate(38.996378,-139.70633)"
     id="layer1">
    <g
       style="fill:#58595b;fill-opacity:1;stroke-width:0.89801872"
       transform="matrix(0.29463008,0,0,0.29463008,-38.996378,139.70633)"
       id="Layer_2-0-8"
       data-name="Layer 2">
      <g
         style="fill:#58595b;fill-opacity:1;stroke-width:0.89801872"
         id="Layer_1-2-8-3"
         data-name="Layer 1">
        <path
           style="fill:#58595b;fill-opacity:1;stroke-width:0.89801872"
           class="cls-1"
           d="m 64.42,42.63 c -0.73,0 -1.46,-0.05 -2.15,-0.14 h -0.32 a 22.63,22.63 0 0 1 -2.64,-0.52 23.27,23.27 0 0 1 -9.93,-5.58 l 0.89,-5.16 5,-1 a 14.85,14.85 0 0 0 5.24,3.25 l 0.24,0.06 a 13.53,13.53 0 0 0 1.83,0.45 c -0.08,-0.76 -0.16,-1.52 -0.2,-2.29 -0.27,-0.07 -0.54,-0.12 -0.8,-0.2 l -0.32,-0.08 c -3.57,-1.21 -6.33,-4.21 -9.68,-9 3.35,-4.76 6.11,-7.77 9.68,-9 l 0.32,-0.08 A 11.12,11.12 0 0 1 63.05,13 c 0.32,-0.05 0.67,-0.05 1,-0.08 0.33,-0.03 0.67,-0.08 1,-0.08 q 0.79,0 1.5,0.09 v 0 c 0.39,0 0.75,0.12 1.11,0.19 l 0.55,0.13 h 0.17 a 9.48,9.48 0 0 1 2.28,1 v 0 c 0.22,0.14 0.44,0.29 0.65,0.45 l 0.27,0.22 0.36,0.32 c 0.18,0.18 0.36,0.35 0.51,0.54 v 0 a 9.66,9.66 0 0 1 2,5.2 c 0,0.42 0.07,0.86 0.07,1.32 0,0.08 0,0.16 0,0.24 0.75,-0.33 1.46,-0.68 2.16,-1.06 0,-0.12 0,-0.23 0,-0.35 a 11.49,11.49 0 0 0 -2.19,-6.31 l 5.2,-0.72 1.07,-5 a 18.56,18.56 0 0 1 4,8.61 3.64,3.64 0 0 1 1.2,0.68 c 0.41,0.35 0.84,0.68 1.27,1 C 85.92,5.28 73.57,0 65.1,0 64.26,0 63.45,0.05 62.65,0.12 h -0.41 c -0.76,0.08 -1.5,0.19 -2.22,0.33 v 0 C 52.45,2 47.43,6.8 43.76,11.36 40.09,6.8 35.06,2 27.51,0.5 H 27.46 C 26.76,0.36 26,0.25 25.3,0.17 H 24.86 C 24.07,0.05 23.27,0 22.43,0 13.41,0 0,6 0,22.43 c 0,16.43 13.41,22.42 22.43,22.42 0.84,0 1.65,-0.05 2.44,-0.12 h 0.44 c 0.74,-0.08 1.46,-0.19 2.16,-0.33 h 0.05 c 7.55,-1.52 12.58,-6.3 16.25,-10.86 3.66,4.56 8.69,9.34 16.26,10.86 v 0 c 0.72,0.14 1.46,0.25 2.22,0.33 h 0.41 c 0.79,0.07 1.6,0.12 2.45,0.12 h 0.1 c 0,-0.1 -0.09,-0.18 -0.13,-0.28 -0.25,-0.62 -0.44,-1.29 -0.66,-1.94 z M 59.31,2.91 A 22.58,22.58 0 0 1 62,2.4 h 0.32 a 23.17,23.17 0 0 1 2.83,-0.18 21.39,21.39 0 0 1 15.13,6.39 l -1.07,5 -5.21,0.68 -0.39,-0.4 a 11.43,11.43 0 0 0 -8.56,-3.22 v 0 c -0.41,0 -0.77,0.06 -1.16,0.09 -0.39,0.03 -0.85,0 -1.24,0.1 a 13.2,13.2 0 0 0 -2,0.48 l -0.24,0.06 a 13.38,13.38 0 0 0 -3,1.48 L 58.21,8.55 53,5.69 A 21.82,21.82 0 0 1 59.31,2.91 Z M 42.37,13.12 37.28,20.48 36.86,19.92 36,18.82 c -0.31,-0.41 -0.63,-0.8 -0.94,-1.17 -0.31,-0.37 -0.54,-0.65 -0.81,-1 -0.27,-0.35 -0.62,-0.68 -0.93,-1 -0.31,-0.32 -0.54,-0.56 -0.81,-0.82 -0.27,-0.26 -0.63,-0.56 -1,-0.83 -0.37,-0.27 -0.55,-0.47 -0.83,-0.67 -0.28,-0.2 -0.67,-0.44 -1,-0.65 -0.33,-0.21 -0.57,-0.37 -0.87,-0.52 -0.3,-0.15 -0.73,-0.33 -1.09,-0.48 L 27.58,11.62 26.71,6.91 31.77,4.19 a 29.72,29.72 0 0 1 10.6,8.93 z M 36,22.43 C 31.53,28.78 28.11,32 22.43,32 c -0.51,0 -1,0 -1.44,-0.09 h -0.17 c -0.32,0 -0.62,-0.1 -0.92,-0.16 A 9.44,9.44 0 0 1 16,30 v 0 a 7.68,7.68 0 0 1 -0.58,-0.52 l -0.34,-0.36 -0.2,-0.23 A 9.43,9.43 0 0 1 13,24.36 v 0 c 0,-0.21 -0.05,-0.4 -0.07,-0.6 0,-0.42 -0.07,-0.86 -0.07,-1.33 0,-0.47 0,-0.9 0.07,-1.33 0,-0.19 0,-0.39 0.07,-0.6 v 0 A 9.43,9.43 0 0 1 14.87,16 l 0.2,-0.23 0.35,-0.36 C 15.61,15.23 15.8,15.05 16,14.9 v 0 a 9.45,9.45 0 0 1 3.86,-1.71 c 0.3,-0.06 0.6,-0.12 0.92,-0.16 h 0.17 c 0.46,0 0.93,-0.08 1.44,-0.09 5.72,-0.09 9.14,3.13 13.61,9.49 z M 22.43,2.18 a 23.16,23.16 0 0 1 2.82,0.18 h 0.34 a 22.62,22.62 0 0 1 2.6,0.51 21.42,21.42 0 0 1 2.81,0.98 l -5,2.71 0.88,4.78 c -0.4,-0.13 -0.82,-0.2 -1.24,-0.3 -0.42,-0.1 -0.57,-0.15 -0.87,-0.2 a 15.62,15.62 0 0 0 -2.12,-0.16 h -0.22 -0.06 a 13.21,13.21 0 0 0 -6.14,1.49 L 16,12.3 c -0.22,0.12 -0.43,0.24 -0.64,0.38 -0.21,0.14 -0.47,0.33 -0.7,0.51 l -0.14,0.1 A 9.71,9.71 0 0 0 12.74,15.2 L 6.87,16.47 4.8,11.93 C 8.81,5 16.62,2.18 22.43,2.18 Z M 2.18,22.43 a 21.1,21.1 0 0 1 2.18,-9.71 l 2.09,4.58 5.73,-1.23 a 11.87,11.87 0 0 0 -1.42,4.71 v 0.08 c 0,0.5 -0.07,1 -0.07,1.56 0,0.56 0,1.06 0.07,1.56 v 0.08 a 10.62,10.62 0 0 0 3.75,7.49 l 0.15,0.11 c 0.21,0.17 0.42,0.33 0.65,0.48 l 0.84,5 -4.87,2.4 C 6.26,36.45 2.18,31 2.18,22.43 Z m 26,19.52 a 22.62,22.62 0 0 1 -2.6,0.51 H 25.24 A 23.16,23.16 0 0 1 22.42,42.64 22.1,22.1 0 0 1 12,39.94 l 4.92,-2.43 -0.82,-4.87 0.1,0.06 a 13.21,13.21 0 0 0 6.15,1.49 h 0.06 0.22 A 15.62,15.62 0 0 0 24.76,34 c 0.3,0 0.58,-0.13 0.87,-0.2 0.29,-0.07 0.87,-0.18 1.28,-0.32 0.41,-0.14 0.6,-0.24 0.89,-0.37 0.29,-0.13 0.74,-0.3 1.09,-0.48 0.35,-0.18 0.58,-0.35 0.87,-0.52 0.29,-0.17 0.67,-0.41 1,-0.65 0.33,-0.24 0.56,-0.44 0.83,-0.67 0.27,-0.23 0.57,-0.46 0.85,-0.73 l 5,1.19 0.42,5.31 a 23.17,23.17 0 0 1 -9.67,5.38 z m 14.7,-10.86 a 42.51,42.51 0 0 1 -4.31,4.86 l -0.42,-5.27 -5.09,-1.2 0.29,-0.32 c 0.31,-0.32 0.62,-0.65 0.93,-1 0.31,-0.35 0.54,-0.63 0.81,-1 0.27,-0.37 0.63,-0.77 0.94,-1.17 l 0.82,-1.09 0.45,-0.6 0.92,-1.3 0.43,-0.62 v 0 l 2.42,-3.5 v 0 l 2.91,-4.2 0.69,-0.9 a 34.87,34.87 0 0 1 7.69,-7.64 l 5.14,2.79 -0.83,4.49 c -2.53,1.88 -4.82,4.68 -7.36,8.37 v 0 0 l -0.1,0.14 -0.33,0.48 v 0 z m 2.23,0.61 5.1,-7.37 a 41.32,41.32 0 0 0 4.35,5.28 l -4.92,1 -0.89,5.17 a 41.12,41.12 0 0 1 -3.63,-4.09 z"
           id="path4549-7" />
        <path
           style="fill:#58595b;fill-opacity:1;stroke-width:0.89801872"
           class="cls-1"
           d="m 91.37,46.67 a 21.13,21.13 0 0 1 -2,2.7 10.21,10.21 0 0 1 -0.92,1.07 27,27 0 0 1 -4.72,4.15 28.66,28.66 0 0 1 -4.51,-3.89 0.6,0.6 0 0 0 -0.8,-0.06 0.56,0.56 0 0 0 -0.06,0.78 27.59,27.59 0 0 0 5.06,4.27 0.45,0.45 0 0 0 0.31,0.12 0.48,0.48 0 0 0 0.34,-0.12 28.1,28.1 0 0 0 5.93,-5.25 c 0.31,-0.35 0.58,-0.7 0.86,-1.07 a 33.25,33.25 0 0 0 3.65,-6 33.12,33.12 0 0 0 2.82,-11 0.55,0.55 0 0 0 -0.52,-0.61 0.57,0.57 0 0 0 -0.61,0.49 32.29,32.29 0 0 1 -3,11.07 30.28,30.28 0 0 1 -1.83,3.35 z"
           id="path4551-8" />
        <path
           style="fill:#58595b;fill-opacity:1;stroke-width:0.89801872"
           class="cls-1"
           d="M 83.74,48.61 A 3.38,3.38 0 0 0 86,47.74 2.83,2.83 0 0 0 85.75,43.41 3.09,3.09 0 0 0 83.9,42.74 h -0.14 -0.13 a 3.16,3.16 0 0 0 -1.83,0.67 2.79,2.79 0 0 0 -1.13,2.27 3,3 0 0 0 0.86,2.06 3.38,3.38 0 0 0 2.21,0.87 z"
           id="path4553-2" />
        <path
           style="fill:#58595b;fill-opacity:1;stroke-width:0.89801872"
           class="cls-1"
           d="M 81.88,37.76 82,38.91 a 1.73,1.73 0 1 0 3.45,0 l 0.86,-7.12 a 3,3 0 0 0 -0.18,-1 2.65,2.65 0 0 0 -1.78,-1.69 2.4,2.4 0 0 0 -0.63,-0.09 2.69,2.69 0 0 0 -2.59,2.79 l 0.36,3 z"
           id="path4555-1" />
        <path
           style="fill:#58595b;fill-opacity:1;stroke-width:0.89801872"
           class="cls-1"
           d="M 101.69,27.23 A 34.77,34.77 0 0 1 87.51,22.08 26.49,26.49 0 0 1 85.27,20.42 C 85.12,20.3 84.96,20.18 84.81,20.06 a 1.72,1.72 0 0 0 -2.25,0 27.4,27.4 0 0 1 -5.8,3.81 c -0.75,0.37 -1.53,0.72 -2.34,1 a 39.33,39.33 0 0 1 -8.74,2.32 1.72,1.72 0 0 0 -1.46,1.7 c 0,1 0,2 0.1,3 0,0.75 0.13,1.48 0.22,2.2 a 40.07,40.07 0 0 0 1.24,6.35 c 0.21,0.74 0.47,1.43 0.72,2.13 0.14,0.4 0.26,0.83 0.41,1.22 0.15,0.39 0.27,0.58 0.4,0.89 a 35.26,35.26 0 0 0 12,14.95 c 0.92,0.65 1.72,1.14 2.34,1.49 0.62,0.35 1.18,0.63 1.29,0.68 a 1.72,1.72 0 0 0 1.43,0 34.35,34.35 0 0 0 16,-18 c 0.42,-1.06 0.8,-2.18 1.14,-3.35 a 41.71,41.71 0 0 0 1.56,-11.56 1.72,1.72 0 0 0 -1.38,-1.66 z m -2.22,6.21 c 0,0.31 -0.08,0.61 -0.12,0.92 -0.09,0.67 -0.19,1.33 -0.31,2 -0.06,0.33 -0.13,0.66 -0.2,1 -0.13,0.6 -0.28,1.19 -0.43,1.77 -0.08,0.29 -0.15,0.58 -0.24,0.86 -0.2,0.68 -0.43,1.34 -0.66,2 l -0.07,0.2 -0.08,0.22 c -0.29,0.76 -0.61,1.49 -0.94,2.19 -0.1,0.22 -0.21,0.42 -0.32,0.63 q -0.32,0.65 -0.66,1.26 l -0.08,0.15 -0.41,0.71 c -0.11,0.19 -0.22,0.39 -0.33,0.57 v 0 q -0.64,1 -1.31,1.93 v 0 l -0.32,0.41 c -0.25,0.33 -0.5,0.64 -0.75,1 l -0.61,0.73 c -0.26,0.29 -0.51,0.57 -0.77,0.85 l -0.61,0.63 c -0.26,0.26 -0.51,0.5 -0.77,0.75 l -0.58,0.54 -0.76,0.65 -0.53,0.44 -0.73,0.56 -0.47,0.35 -0.7,0.49 -0.37,0.25 -0.66,0.41 v 0 l -0.25,0.16 -0.72,0.41 v 0 L 83,57.94 82.75,57.78 82.09,57.36 81.72,57.1 81.34,56.84 81,56.63 80.53,56.28 79.8,55.72 79.27,55.28 78.51,54.62 77.94,54.09 77.16,53.34 76.56,52.71 C 76.3,52.44 76.05,52.16 75.79,51.86 l -0.61,-0.73 c -0.25,-0.31 -0.51,-0.63 -0.76,-1 -0.11,-0.14 -0.21,-0.26 -0.32,-0.4 v 0 Q 73.43,48.82 72.79,47.8 v 0 C 72.68,47.62 72.57,47.42 72.46,47.23 L 72,46.55 71.92,46.41 Q 71.58,45.8 71.26,45.16 C 71.15,44.95 71.04,44.74 70.94,44.52 70.84,44.3 70.83,44.25 70.77,44.12 70.5,43.54 70.24,42.95 70,42.33 l -0.08,-0.22 v 0 l -0.06,-0.18 c -0.24,-0.64 -0.46,-1.29 -0.66,-2 -0.08,-0.28 -0.16,-0.57 -0.24,-0.85 -0.16,-0.58 -0.3,-1.17 -0.43,-1.77 -0.07,-0.32 -0.14,-0.65 -0.2,-1 -0.12,-0.64 -0.22,-1.29 -0.31,-2 L 68,33.89 c 0,-0.15 0,-0.3 -0.06,-0.45 -0.06,-0.56 -0.09,-1.16 -0.13,-1.74 -0.04,-0.58 -0.08,-0.86 -0.1,-1.32 a 42.74,42.74 0 0 0 4.63,-1.13 l 0.46,-0.13 c 1,-0.31 2,-0.66 2.89,-1 v 0 A 35.08,35.08 0 0 0 79,26.52 c 0.3,-0.16 0.62,-0.29 0.91,-0.46 a 30.19,30.19 0 0 0 3.75,-2.48 c 0.5,0.39 1,0.75 1.54,1.11 0.54,0.36 1.35,0.88 2.05,1.28 l 0.15,0.09 c 0.29,0.17 0.62,0.3 0.92,0.46 a 35.12,35.12 0 0 0 3.31,1.55 c 0.95,0.38 1.92,0.73 2.93,1 a 43.58,43.58 0 0 0 5.1,1.26 c -0.01,1.11 -0.09,2.12 -0.2,3.11 z"
           id="path4557-0" />
      </g>
    </g>
  </g>
</svg>
