<?xml version="1.0" encoding="UTF-8" standalone="no"?>
<!-- Created with Inkscape (http://www.inkscape.org/) -->

<svg
   xmlns:dc="http://purl.org/dc/elements/1.1/"
   xmlns:cc="http://creativecommons.org/ns#"
   xmlns:rdf="http://www.w3.org/1999/02/22-rdf-syntax-ns#"
   xmlns:svg="http://www.w3.org/2000/svg"
   xmlns="http://www.w3.org/2000/svg"
   xmlns:sodipodi="http://sodipodi.sourceforge.net/DTD/sodipodi-0.dtd"
   xmlns:inkscape="http://www.inkscape.org/namespaces/inkscape"
   width="19.940508mm"
   height="18.454mm"
   viewBox="0 0 19.940508 18.454"
   version="1.1"
   id="svg301880"
   inkscape:version="0.92.3 (2405546, 2018-03-11)"
   sodipodi:docname="discovery_engine.svg">
  <defs
     id="defs301874" />
  <sodipodi:namedview
     id="base"
     pagecolor="#ffffff"
     bordercolor="#666666"
     borderopacity="1.0"
     inkscape:pageopacity="0.0"
     inkscape:pageshadow="2"
     inkscape:zoom="0.35"
     inkscape:cx="37.682852"
     inkscape:cy="34.873688"
     inkscape:document-units="mm"
     inkscape:current-layer="layer1"
     showgrid="false"
     fit-margin-top="0"
     fit-margin-left="0"
     fit-margin-right="0"
     fit-margin-bottom="0"
     inkscape:window-width="1887"
     inkscape:window-height="2105"
     inkscape:window-x="67"
     inkscape:window-y="27"
     inkscape:window-maximized="0" />
  <metadata
     id="metadata301877">
    <rdf:RDF>
      <cc:Work
         rdf:about="">
        <dc:format>image/svg+xml</dc:format>
        <dc:type
           rdf:resource="http://purl.org/dc/dcmitype/StillImage" />
        <dc:title></dc:title>
      </cc:Work>
    </rdf:RDF>
  </metadata>
  <g
     inkscape:label="Layer 1"
     inkscape:groupmode="layer"
     id="layer1"
     transform="translate(33.782755,-139.60633)">
    <g
       data-name="Layer 2"
       id="Layer_2-45-8"
       transform="matrix(0.25969603,0,0,0.25969603,-33.797289,139.60633)"
       style="stroke-width:1.01881933">
      <g
         data-name="Layer 1"
         id="Layer_1-2-25-6"
         style="stroke-width:1.01881933">
        <path
           id="path3416-2"
           d="M 47.72,0 C 33.26,0 18.62,3.4 18.62,9.89 v 13.29 a 20.43,20.43 0 0 1 3.49,-0.85 v -7.48 c 5.2,3.25 15.45,4.94 25.61,4.94 10.16,0 20.41,-1.69 25.61,-4.94 v 9.71 c -2.34,2.69 -11.65,5.7 -25.61,5.7 q -3.67,0 -6.9,-0.26 a 19.37,19.37 0 0 1 1.57,2.43 c 1.77,0.1 3.56,0.16 5.33,0.16 10.09,0 20.64,-1.74 25.61,-5 v 2.82 c -2.34,2.69 -11.65,5.7 -25.61,5.7 -1.31,0 -2.58,0 -3.81,-0.07 a 20,20 0 0 1 0.58,2.34 c 1.07,0 2.16,0.06 3.23,0.06 10.1,0 20.65,-1.74 25.61,-5 v 9.81 c -2.34,2.7 -11.65,5.71 -25.61,5.71 -1.43,0 -2.81,0 -4.15,-0.1 a 20.08,20.08 0 0 1 -1,2.27 c 1.71,0.1 3.44,0.15 5.16,0.15 10.09,0 20.64,-1.74 25.61,-5 V 49 C 71,51.7 61.68,54.7 47.72,54.7 q -3.94,0 -7.37,-0.29 a 20.19,20.19 0 0 1 -2,2.12 88.36,88.36 0 0 0 9.39,0.5 c 10.1,0 20.65,-1.74 25.61,-5 v 9.11 c 0,0.71 -1.42,2.49 -6.77,4.08 a 68.6,68.6 0 0 1 -18.84,2.32 c -15.66,0 -24.58,-3.78 -25.52,-6 a 19.47,19.47 0 0 1 -3.58,-0.86 v 0.49 c 0,6.49 14.64,9.89 29.1,9.89 14.46,0 29.1,-3.4 29.1,-9.89 V 9.89 C 76.82,3.4 62.18,0 47.72,0 Z m 18.84,14 a 69,69 0 0 1 -18.84,2.3 c -16.57,0 -25.61,-4.23 -25.61,-6.41 0,-0.71 1.42,-2.49 6.77,-4.08 A 68.6,68.6 0 0 1 47.72,3.49 c 16.57,0 25.61,4.23 25.61,6.4 0,0.72 -1.42,2.5 -6.77,4.11 z"
           class="cls-1"
           inkscape:connector-curvature="0"
           style="fill:#666666;stroke-width:1.01881933" />
        <path
           id="path3418-4"
           d="M 25,59.36 A 17.46,17.46 0 1 1 42.48,41.9 17.47,17.47 0 0 1 25,59.36 Z m 0,-31.43 a 14,14 0 1 0 14,14 14,14 0 0 0 -14,-14 z"
           class="cls-1"
           inkscape:connector-curvature="0"
           style="fill:#666666;stroke-width:1.01881933" />
        <path
           id="path3420-7"
           d="M 14.31,42.48 A 0.58,0.58 0 0 1 13.73,41.9 11.3,11.3 0 0 1 25,30.61 0.58,0.58 0 1 1 25,31.77 10.14,10.14 0 0 0 14.89,41.9 0.58,0.58 0 0 1 14.31,42.48 Z"
           class="cls-1"
           inkscape:connector-curvature="0"
           style="fill:#666666;stroke-width:1.01881933" />
        <path
           id="path3422-9"
           d="M 2.33,66.93 A 2.34,2.34 0 0 1 0.68,63 L 11.74,51.89 A 2.33,2.33 0 1 1 15,55.19 L 4,66.24 a 2.3,2.3 0 0 1 -1.67,0.69 z"
           class="cls-1"
           inkscape:connector-curvature="0"
           style="fill:#666666;stroke-width:1.01881933" />
        <path
           id="path3424-3"
           d="m 65.94,23.48 a 1.16,1.16 0 0 1 -0.28,-2.29 23,23 0 0 0 4.42,-1.54 1.16,1.16 0 1 1 1,2.08 25,25 0 0 1 -4.89,1.72 1.33,1.33 0 0 1 -0.25,0.03 z"
           class="cls-1"
           inkscape:connector-curvature="0"
           style="fill:#666666;stroke-width:1.01881933" />
        <path
           id="path3426-9"
           d="m 65.94,42.1 a 1.16,1.16 0 0 1 -0.28,-2.29 22.29,22.29 0 0 0 4.42,-1.54 1.17,1.17 0 1 1 1,2.09 25.07,25.07 0 0 1 -4.89,1.71 1.33,1.33 0 0 1 -0.25,0.03 z"
           class="cls-1"
           inkscape:connector-curvature="0"
           style="fill:#666666;stroke-width:1.01881933" />
        <path
           id="path3428-2"
           d="m 65.94,60.73 a 1.17,1.17 0 0 1 -0.28,-2.3 22.29,22.29 0 0 0 4.42,-1.54 1.17,1.17 0 1 1 1,2.09 24.42,24.42 0 0 1 -4.89,1.71 0.9,0.9 0 0 1 -0.25,0.04 z"
           class="cls-1"
           inkscape:connector-curvature="0"
           style="fill:#666666;stroke-width:1.01881933" />
      </g>
    </g>
  </g>
</svg>
