<?xml version="1.0" encoding="UTF-8" standalone="no"?>
<!-- Created with Inkscape (http://www.inkscape.org/) -->

<svg
   xmlns:dc="http://purl.org/dc/elements/1.1/"
   xmlns:cc="http://creativecommons.org/ns#"
   xmlns:rdf="http://www.w3.org/1999/02/22-rdf-syntax-ns#"
   xmlns:svg="http://www.w3.org/2000/svg"
   xmlns="http://www.w3.org/2000/svg"
   xmlns:sodipodi="http://sodipodi.sourceforge.net/DTD/sodipodi-0.dtd"
   xmlns:inkscape="http://www.inkscape.org/namespaces/inkscape"
   width="18.238436mm"
   height="18.454mm"
   viewBox="0 0 18.238436 18.454"
   version="1.1"
   id="svg315693"
   inkscape:version="0.92.3 (2405546, 2018-03-11)"
   sodipodi:docname="extensive_integrations_library.svg">
  <defs
     id="defs315687" />
  <sodipodi:namedview
     id="base"
     pagecolor="#ffffff"
     bordercolor="#666666"
     borderopacity="1.0"
     inkscape:pageopacity="0.0"
     inkscape:pageshadow="2"
     inkscape:zoom="0.35"
     inkscape:cx="-1126.9622"
     inkscape:cy="514.87369"
     inkscape:document-units="mm"
     inkscape:current-layer="layer1"
     showgrid="false"
     fit-margin-top="0"
     fit-margin-left="0"
     fit-margin-right="0"
     fit-margin-bottom="0"
     inkscape:window-width="1887"
     inkscape:window-height="2105"
     inkscape:window-x="67"
     inkscape:window-y="27"
     inkscape:window-maximized="0" />
  <metadata
     id="metadata315690">
    <rdf:RDF>
      <cc:Work
         rdf:about="">
        <dc:format>image/svg+xml</dc:format>
        <dc:type
           rdf:resource="http://purl.org/dc/dcmitype/StillImage" />
        <dc:title></dc:title>
      </cc:Work>
    </rdf:RDF>
  </metadata>
  <g
     inkscape:label="Layer 1"
     inkscape:groupmode="layer"
     id="layer1"
     transform="translate(-274.36292,-266.60633)">
    <g
       data-name="Layer 2"
       id="Layer_2-26-1"
       transform="matrix(0.21133761,0,0,0.21133761,274.36292,266.60633)"
       style="stroke-width:1.25194621">
      <g
         data-name="Layer 1"
         id="Layer_1-2-64-5"
         style="stroke-width:1.25194621">
        <path
           id="path5022-4"
           d="M 23.23,46.46 0,23.23 23.23,0 29.32,6.09 a 6,6 0 0 1 0.42,-0.46 7.8418142,7.8418142 0 0 1 11.09,11.09 6,6 0 0 1 -0.46,0.42 L 46.46,23.23 37.89,31.8 37,30.14 a 5,5 0 0 0 -0.93,-1.28 5.13,5.13 0 1 0 -6,8.18 l 1.66,0.85 z M 3.84,23.23 23.23,42.62 27.39,38.45 A 5.89,5.89 0 0 1 26.94,38.03 7.84,7.84 0 0 1 38,26.94 5.89,5.89 0 0 1 38.42,27.39 L 42.59,23.23 36,16.59 37.66,15.73 A 5.05,5.05 0 0 0 38.94,14.8 5.13,5.13 0 0 0 31.69,7.55 5.05,5.05 0 0 0 30.76,8.83 L 29.9,10.49 23.23,3.84 Z"
           class="cls-1"
           inkscape:connector-curvature="0"
           style="fill:#616161;stroke-width:1.25194621" />
        <path
           id="path5024-9"
           d="M 69.88,65.65 A 7.84,7.84 0 0 1 62,57.81 c 0,-0.21 0,-0.41 0,-0.62 H 53.45 V 45.08 l 1.78,0.56 a 4.85,4.85 0 0 0 1.56,0.25 5.13,5.13 0 1 0 -1.56,-10 l -1.78,0.57 V 24.34 H 86.3 v 32.85 h -8.6 c 0,0.21 0,0.41 0,0.62 a 7.85,7.85 0 0 1 -7.82,7.84 z M 56.17,54.47 h 9.4 L 65,56.25 a 5.12,5.12 0 1 0 9.76,0 l -0.57,-1.78 h 9.4 V 27.06 H 56.17 V 33 c 0.21,0 0.41,0 0.62,0 a 7.85,7.85 0 0 1 0,15.69 c -0.21,0 -0.41,0 -0.62,0 z"
           class="cls-1"
           inkscape:connector-curvature="0"
           style="fill:#616161;stroke-width:1.25194621" />
        <path
           id="path5026-2"
           d="M 86.3,87.32 H 53.45 v -8.61 c -0.2,0 -0.41,0 -0.62,0 a 7.85,7.85 0 0 1 0,-15.69 c 0.21,0 0.42,0 0.62,0 V 54.47 H 65.57 L 65,56.24 a 5.26,5.26 0 0 0 -0.25,1.57 5.13,5.13 0 0 0 10.25,0 5.25,5.25 0 0 0 -0.24,-1.57 L 74.19,54.47 H 86.3 Z M 56.17,84.6 H 83.59 V 57.19 H 77.7 c 0,0.2 0,0.41 0,0.62 a 7.84,7.84 0 0 1 -15.68,0 c 0,-0.21 0,-0.42 0,-0.62 h -5.85 v 9.39 L 54.4,66 a 5,5 0 0 0 -1.57,-0.25 5.13,5.13 0 0 0 0,10.25 5.25,5.25 0 0 0 1.57,-0.24 l 1.77,-0.57 z"
           class="cls-1"
           inkscape:connector-curvature="0"
           style="fill:#616161;stroke-width:1.25194621" />
        <path
           id="path5028-5"
           d="M 56.17,87.32 H 23.32 V 54.47 h 8.61 c 0,-0.21 0,-0.41 0,-0.62 a 7.85,7.85 0 0 1 15.69,0 c 0,0.21 0,0.41 0,0.62 h 8.61 V 66.58 L 54.4,66 a 5,5 0 0 0 -1.57,-0.25 5.13,5.13 0 0 0 0,10.25 5.25,5.25 0 0 0 1.57,-0.24 l 1.77,-0.57 z M 26,84.6 h 27.45 v -5.89 c -0.2,0 -0.41,0 -0.62,0 a 7.85,7.85 0 0 1 0,-15.69 c 0.21,0 0.42,0 0.62,0 v -5.83 h -9.4 l 0.57,-1.78 a 4.85,4.85 0 0 0 0.25,-1.56 5.13,5.13 0 1 0 -10,1.56 l 0.57,1.78 H 26 Z"
           class="cls-1"
           inkscape:connector-curvature="0"
           style="fill:#616161;stroke-width:1.25194621" />
      </g>
    </g>
  </g>
</svg>
