<?xml version="1.0" encoding="UTF-8" standalone="no"?>
<svg
   xmlns:dc="http://purl.org/dc/elements/1.1/"
   xmlns:cc="http://creativecommons.org/ns#"
   xmlns:rdf="http://www.w3.org/1999/02/22-rdf-syntax-ns#"
   xmlns:svg="http://www.w3.org/2000/svg"
   xmlns="http://www.w3.org/2000/svg"
   id="svg215177"
   version="1.1"
   viewBox="0 0 18.454 18.454"
   height="18.454mm"
   width="18.454mm">
  <defs
     id="defs215171" />
  <metadata
     id="metadata215174">
    <rdf:RDF>
      <cc:Work
         rdf:about="">
        <dc:format>image/svg+xml</dc:format>
        <dc:type
           rdf:resource="http://purl.org/dc/dcmitype/StillImage" />
        <dc:title></dc:title>
      </cc:Work>
    </rdf:RDF>
  </metadata>
  <g
     transform="translate(33.0395,-139.60633)"
     id="layer1">
    <g
       style="stroke-width:1.00362158"
       transform="matrix(0.26362857,0,0,0.26362857,-33.0395,139.60633)"
       id="Layer_2-57-4"
       data-name="Layer 2">
      <g
         style="stroke-width:1.00362158"
         id="Layer_3-4-3"
         data-name="Layer 3">
        <path
           style="fill:#616161;stroke-width:1.00362158"
           class="cls-1"
           d="M 64.53,53.67 V 41.56 H 61.25 V 53.05 H 8.75 V 21.33 a 1.64,1.64 0 0 1 1.64,-1.64 h 21.66 l 0.22,1.09 h 3.85 a 6,6 0 0 1 2.54,-4.37 H 10.39 A 4.92,4.92 0 0 0 5.47,21.33 V 53.67 L 0.25,62 A 1.66,1.66 0 0 0 0,62.87 V 64 a 6,6 0 0 0 6,6 h 58 a 6,6 0 0 0 6,-6 V 62.89 A 1.66,1.66 0 0 0 69.75,62.02 Z M 8.36,55.23 h 53.28 l 4.44,7.11 H 43.66 L 43.2,59.61 H 26.8 l -0.46,2.73 H 3.92 Z M 66.72,64 A 2.74,2.74 0 0 1 64,66.72 H 6 A 2.74,2.74 0 0 1 3.28,64 v -0.54 h 63.44 z"
           id="path5819-1" />
        <path
           style="fill:#616161;stroke-width:1.00362158"
           class="cls-1"
           d="M 66.17,17.5 H 65.08 V 12 C 65.08,5.37 60.17,0 54.14,0 48.11,0 43.2,5.4 43.2,12 v 5.5 h -1.09 a 3.84,3.84 0 0 0 -3.83,3.83 v 14.22 a 3.84,3.84 0 0 0 3.83,3.83 H 66.17 A 3.84,3.84 0 0 0 70,35.55 V 21.33 A 3.84,3.84 0 0 0 66.17,17.5 Z M 46.48,12 c 0,-4.82 3.44,-8.75 7.66,-8.75 4.22,0 7.66,3.96 7.66,8.75 v 5.5 H 46.48 Z m 20.24,23.55 a 0.55,0.55 0 0 1 -0.55,0.54 H 42.11 A 0.55,0.55 0 0 1 41.56,35.55 V 21.33 a 0.55,0.55 0 0 1 0.55,-0.55 h 24.06 a 0.55,0.55 0 0 1 0.55,0.55 z"
           id="path5821-4" />
        <path
           style="fill:#616161;stroke-width:1.00362158"
           class="cls-1"
           d="m 54.14,23.52 a 3.28,3.28 0 0 0 -1.09,6.37 v 2.92 a 1.09,1.09 0 1 0 2.18,0 v -2.92 a 3.28,3.28 0 0 0 -1.09,-6.37 z"
           id="path5823-6" />
        <polygon
           style="fill:#616161;stroke-width:1.00362158"
           class="cls-1"
           points="57.42,41.56 57.42,49.77 12.58,49.77 12.58,23.52 36.09,23.52 36.09,22.42 11.48,22.42 11.48,50.86 58.52,50.86 58.52,41.56 "
           id="polygon5825-9" />
      </g>
    </g>
  </g>
</svg>
