<?xml version="1.0" encoding="UTF-8" standalone="no"?>
<svg
   xmlns:dc="http://purl.org/dc/elements/1.1/"
   xmlns:cc="http://creativecommons.org/ns#"
   xmlns:rdf="http://www.w3.org/1999/02/22-rdf-syntax-ns#"
   xmlns:svg="http://www.w3.org/2000/svg"
   xmlns="http://www.w3.org/2000/svg"
   width="16.957441mm"
   height="18.454mm"
   viewBox="0 0 16.957441 18.454"
   version="1.1"
   id="svg238967">
  <defs
     id="defs238961" />
  <metadata
     id="metadata238964">
    <rdf:RDF>
      <cc:Work
         rdf:about="">
        <dc:format>image/svg+xml</dc:format>
        <dc:type
           rdf:resource="http://purl.org/dc/dcmitype/StillImage" />
        <dc:title></dc:title>
      </cc:Work>
    </rdf:RDF>
  </metadata>
  <g
     id="layer1"
     transform="translate(32.291221,-139.60633)">
    <g
       data-name="Layer 2"
       id="Layer_2-6"
       transform="matrix(0.2470415,0,0,0.2470415,-32.289979,139.60633)"
       style="stroke:#58595b;stroke-width:0;stroke-miterlimit:4;stroke-dasharray:none;stroke-opacity:1">
      <g
         data-name="Layer 1"
         id="Layer_1-2-39"
         style="stroke:#58595b;stroke-width:0;stroke-miterlimit:4;stroke-dasharray:none;stroke-opacity:1">
        <path
           id="path8746"
           d="M 63.25,57.14 V 42.35 h -2.68 v 1.18 H 60 V 56.47 H 8.58 V 22.35 a 1.69,1.69 0 0 1 1.6,-1.76 h 21.23 l 0.21,1.17 h 2.68 v -4.7 H 10.18 a 5.07,5.07 0 0 0 -4.82,5.29 v 34.79 l -5.12,9 A 1.87,1.87 0 0 0 0,67.07 v 1.18 a 6.21,6.21 0 0 0 5.9,6.45 h 56.81 a 6.21,6.21 0 0 0 5.9,-6.47 V 67.05 A 1.88,1.88 0 0 0 68.36,66.12 Z M 8.19,58.82 h 52.22 l 4.36,7.65 h -22 L 42.32,63.52 H 26.26 l -0.44,2.95 h -22 z m 57.2,9.41 a 2.82,2.82 0 0 1 -2.68,2.94 H 5.9 A 2.82,2.82 0 0 1 3.22,68.23 v -0.59 h 62.17 z"
           class="cls-1"
           style="fill:#616161;stroke:#58595b;stroke-width:0;stroke-miterlimit:4;stroke-dasharray:none;stroke-opacity:1" />
        <path
           id="path8748"
           d="m 46.05,13.53 h -3.22 a 1.18,1.18 0 0 0 0,2.35 h 3.22 a 1.18,1.18 0 0 0 0,-2.35 z"
           class="cls-1"
           style="fill:#616161;stroke:#58595b;stroke-width:0;stroke-miterlimit:4;stroke-dasharray:none;stroke-opacity:1" />
        <path
           id="path8750"
           d="m 42.83,7.65 h 3.22 A 1.13,1.13 0 0 0 47.12,6.47 1.13,1.13 0 0 0 46.05,5.29 h -3.22 a 1.13,1.13 0 0 0 -1.07,1.18 1.13,1.13 0 0 0 1.07,1.18 z"
           class="cls-1"
           style="fill:#616161;stroke:#58595b;stroke-width:0;stroke-miterlimit:4;stroke-dasharray:none;stroke-opacity:1" />
        <path
           id="path8752"
           d="m 46.05,21.76 h -3.22 a 1.19,1.19 0 0 0 0,2.36 h 3.22 a 1.19,1.19 0 0 0 0,-2.36 z"
           class="cls-1"
           style="fill:#616161;stroke:#58595b;stroke-width:0;stroke-miterlimit:4;stroke-dasharray:none;stroke-opacity:1" />
        <path
           id="path8754"
           d="M 67,0 H 38.06 a 1.69,1.69 0 0 0 -1.61,1.76 v 25.88 a 1.69,1.69 0 0 0 1.61,1.77 h 13.39 v 2.35 h -1.6 v 3.53 h -3.22 v 5.88 H 58.42 V 35.29 H 55.21 V 31.76 H 53.6 V 29.41 H 67 a 1.69,1.69 0 0 0 1.61,-1.77 V 1.76 A 1.69,1.69 0 0 0 67,0 Z M 39.66,10.59 h 23.05 v 8.23 H 39.66 Z m 24.12,0 h 1.61 v 8.23 H 63.78 Z M 65.39,9.41 H 63.78 V 3.53 h 1.61 z M 62.71,3.53 V 9.41 H 39.66 V 3.53 Z M 39.66,20 h 23.05 v 5.88 H 39.66 Z m 24.12,5.88 V 20 h 1.61 v 5.88 z"
           class="cls-1"
           style="fill:#616161;stroke:#58595b;stroke-width:0;stroke-miterlimit:4;stroke-dasharray:none;stroke-opacity:1" />
        <path
           id="path8756"
           d="M 36.45,38.23 A 1.69,1.69 0 0 0 38.06,40 h 7.5 v -3.53 h -7.5 a 1.69,1.69 0 0 0 -1.61,1.76 z"
           class="cls-1"
           style="fill:#616161;stroke:#58595b;stroke-width:0;stroke-miterlimit:4;stroke-dasharray:none;stroke-opacity:1" />
        <path
           id="path8758"
           d="M 67,36.47 H 59.49 V 40 H 67 a 1.77,1.77 0 0 0 0,-3.53 z"
           class="cls-1"
           style="fill:#616161;stroke:#58595b;stroke-width:0;stroke-miterlimit:4;stroke-dasharray:none;stroke-opacity:1" />
        <polygon
           id="polygon8760"
           points="34.3,24.7 34.3,23.53 11.26,23.53 11.26,54.11 57.35,54.11 57.35,43.53 56.28,43.53 56.28,52.94 12.33,52.94 12.33,24.7 "
           class="cls-1"
           style="fill:#616161;stroke:#58595b;stroke-width:0;stroke-miterlimit:4;stroke-dasharray:none;stroke-opacity:1" />
        <path
           id="path8762"
           d="m 23,34.9 a 0.71,0.71 0 0 0 -1.08,0 l -3.65,4 -1,-1.09 a 0.71,0.71 0 0 0 -1.08,0 0.9,0.9 0 0 0 0,1.19 l 1.54,1.69 a 0.71,0.71 0 0 0 1.08,0 L 23,36.09 a 0.9,0.9 0 0 0 0,-1.19 z"
           class="cls-1"
           style="fill:#616161;stroke:#58595b;stroke-width:0;stroke-miterlimit:4;stroke-dasharray:none;stroke-opacity:1" />
        <path
           id="path8764"
           d="m 21,42.19 h -6 v -6 h 6 z m -5.38,-0.61 h 4.78 v -4.8 h -4.82 z"
           class="cls-1"
           style="fill:#616161;stroke:#58595b;stroke-width:0;stroke-miterlimit:4;stroke-dasharray:none;stroke-opacity:1" />
        <path
           id="path8766"
           d="m 23,43.53 a 0.71,0.71 0 0 0 -1.08,0 l -3.65,4 -1,-1.1 a 0.71,0.71 0 0 0 -1.08,0 0.9,0.9 0 0 0 0,1.19 l 1.54,1.69 a 0.71,0.71 0 0 0 1.08,0 L 23,44.72 a 0.9,0.9 0 0 0 0,-1.19 z"
           class="cls-1"
           style="fill:#616161;stroke:#58595b;stroke-width:0;stroke-miterlimit:4;stroke-dasharray:none;stroke-opacity:1" />
        <path
           id="path8768"
           d="m 21,50.83 h -6 v -6 h 6 z m -5.38,-0.62 h 4.78 v -4.79 h -4.82 z"
           class="cls-1"
           style="fill:#616161;stroke:#58595b;stroke-width:0;stroke-miterlimit:4;stroke-dasharray:none;stroke-opacity:1" />
        <path
           id="path8770"
           d="m 23,26.27 a 0.71,0.71 0 0 0 -1.08,0 l -3.65,4 -1,-1.09 a 0.71,0.71 0 0 0 -1.08,0 0.9,0.9 0 0 0 0,1.19 l 1.54,1.69 a 0.73,0.73 0 0 0 1.08,0 L 23,27.46 a 0.9,0.9 0 0 0 0,-1.19 z"
           class="cls-1"
           style="fill:#616161;stroke:#58595b;stroke-width:0;stroke-miterlimit:4;stroke-dasharray:none;stroke-opacity:1" />
        <path
           id="path8772"
           d="m 21,33.56 h -6 v -6 h 6 z M 15.58,33 h 4.82 v -4.8 h -4.82 z"
           class="cls-1"
           style="fill:#616161;stroke:#58595b;stroke-width:0;stroke-miterlimit:4;stroke-dasharray:none;stroke-opacity:1" />
        <path
           id="path8774"
           d="m 25.71,48.83 a 0.54,0.54 0 0 0 -0.52,0.57 0.55,0.55 0 0 0 0.52,0.57 H 35 A 0.55,0.55 0 0 0 35.52,49.4 0.54,0.54 0 0 0 35,48.83 Z"
           class="cls-1"
           style="fill:#616161;stroke:#58595b;stroke-width:0;stroke-miterlimit:4;stroke-dasharray:none;stroke-opacity:1" />
        <path
           id="path8776"
           d="M 42,45.42 H 25.71 a 0.55,0.55 0 0 0 -0.52,0.57 0.54,0.54 0 0 0 0.52,0.57 H 42 Z"
           class="cls-1"
           style="fill:#616161;stroke:#58595b;stroke-width:0;stroke-miterlimit:4;stroke-dasharray:none;stroke-opacity:1" />
        <path
           id="path8778"
           d="m 25.71,31.5 a 0.54,0.54 0 0 0 -0.52,0.57 0.55,0.55 0 0 0 0.52,0.57 h 5.4 a 0.55,0.55 0 0 0 0.52,-0.57 0.54,0.54 0 0 0 -0.52,-0.57 z"
           class="cls-1"
           style="fill:#616161;stroke:#58595b;stroke-width:0;stroke-miterlimit:4;stroke-dasharray:none;stroke-opacity:1" />
        <path
           id="path8780"
           d="m 34.3,28.09 h -8.59 a 0.57,0.57 0 0 0 0,1.14 h 8.59 z"
           class="cls-1"
           style="fill:#616161;stroke:#58595b;stroke-width:0;stroke-miterlimit:4;stroke-dasharray:none;stroke-opacity:1" />
        <path
           id="path8782"
           d="m 25.71,40.43 a 0.57,0.57 0 0 0 0,1.13 h 5.4 a 0.57,0.57 0 0 0 0,-1.13 z"
           class="cls-1"
           style="fill:#616161;stroke:#58595b;stroke-width:0;stroke-miterlimit:4;stroke-dasharray:none;stroke-opacity:1" />
        <path
           id="path8784"
           d="m 34.3,37 h -8.59 a 0.57,0.57 0 0 0 0,1.13 h 8.59 z"
           class="cls-1"
           style="fill:#616161;stroke:#58595b;stroke-width:0;stroke-miterlimit:4;stroke-dasharray:none;stroke-opacity:1" />
      </g>
    </g>
  </g>
</svg>
