<?xml version="1.0" encoding="UTF-8" standalone="no"?>
<svg
   xmlns:dc="http://purl.org/dc/elements/1.1/"
   xmlns:cc="http://creativecommons.org/ns#"
   xmlns:rdf="http://www.w3.org/1999/02/22-rdf-syntax-ns#"
   xmlns:svg="http://www.w3.org/2000/svg"
   xmlns="http://www.w3.org/2000/svg"
   id="svg13412"
   version="1.1"
   viewBox="0 0 16.450796 18.453999"
   height="18.453999mm"
   width="16.450796mm">
  <defs
     id="defs13406" />
  <metadata
     id="metadata13409">
    <rdf:RDF>
      <cc:Work
         rdf:about="">
        <dc:format>image/svg+xml</dc:format>
        <dc:type
           rdf:resource="http://purl.org/dc/dcmitype/StillImage" />
        <dc:title></dc:title>
      </cc:Work>
    </rdf:RDF>
  </metadata>
  <g
     transform="translate(32.037898,-139.60633)"
     id="layer1">
    <g
       style="stroke-width:0.80899072"
       transform="matrix(0.3270536,0,0,0.3270536,-32.037898,139.58998)"
       id="Layer_2-879-3">
      <g
         style="stroke-width:0.80899072"
         id="Layer_1-2-033-7">
        <path
           style="fill:#666666;stroke-width:0.80899072"
           class="st0"
           d="M 49.8,5.6 C 49.5,5.4 49,5.3 48.6,5.4 47.1,5.8 45.5,6 43.9,6 37.5,6 30.5,2.8 25.8,0.2 25.4,0 24.9,0 24.5,0.2 19.8,2.8 12.8,6 6.4,6 4.8,6 3.2,5.8 1.7,5.3 1,5.1 0.3,5.5 0.1,6.2 0,6.3 0,6.5 0,6.6 v 22.1 c 0,12.5 8.6,22.1 24.7,27.7 0.3,0.1 0.6,0.1 0.9,0 C 41.8,50.8 50.3,41.2 50.3,28.7 V 6.6 c 0,-0.4 -0.2,-0.8 -0.5,-1 z m -5.9,3 c 1,0 2,-0.1 3,-0.2 l -1.6,1.9 c -0.4,0 -0.9,0 -1.3,0 C 37.3,10.3 30.4,7.4 25.7,5 V 3 c 4.9,2.7 11.7,5.6 18.2,5.6 z M 24.7,36.7 V 50.8 C 11.8,45.9 5.3,38.5 5.3,28.7 V 11.3 h 1.1 c 6.7,0 13.5,-2.8 18.3,-5.2 v 13.6 h 0.9 V 6.1 c 4.8,2.5 11.7,5.2 18.3,5.2 H 45 v 17.4 c 0,9.8 -6.5,17.2 -19.4,22.1 V 36.7 Z m 0,-33.6 v 2 C 20,7.5 13.1,10.4 6.4,10.4 c -0.4,0 -0.9,0 -1.3,0 l -1.6,-2 c 1,0.1 2,0.2 3,0.2 6.4,0 13.3,-2.9 18.2,-5.5 z M 2.7,28.7 V 8.9 L 4.4,11 v 17.7 c 0,10.3 6.8,18 20.3,23 v 1.9 C 10.1,48.3 2.7,39.9 2.7,28.7 Z m 23,24.9 V 51.7 C 39.1,46.7 46,39 46,28.7 V 11 L 47.8,8.9 V 28.7 C 47.7,39.9 40.3,48.3 25.7,53.6 Z"
           id="path16056-1" />
        <path
           style="fill:#666666;stroke-width:0.80899072"
           class="st0"
           d="m 32.1,21.4 c -3.3,0 -5.3,1.9 -6.9,3.9 -1.6,-2 -3.6,-3.9 -6.9,-3.9 -3.7,-0.1 -6.8,2.8 -6.9,6.5 0,0.1 0,0.3 0,0.4 -0.1,3.7 2.8,6.8 6.5,6.9 0.1,0 0.3,0 0.4,0 3.3,0 5.3,-1.8 6.9,-3.9 1.6,2 3.6,3.9 6.9,3.9 3.7,0.1 6.8,-2.8 6.9,-6.5 0,-0.1 0,-0.3 0,-0.4 0.1,-3.7 -2.8,-6.8 -6.5,-6.9 -0.2,0 -0.3,0 -0.4,0 z M 18.3,31.7 c -1.8,0.1 -3.3,-1.2 -3.4,-3 0,-0.1 0,-0.3 0,-0.4 -0.1,-1.8 1.2,-3.3 3,-3.4 0.1,0 0.3,0 0.4,0 2.1,0 3.3,1.3 4.8,3.4 -1.5,2.1 -2.7,3.4 -4.8,3.4 z m 13.7,0 c -2.1,0 -3.3,-1.3 -4.8,-3.4 1.5,-2.1 2.7,-3.4 4.8,-3.4 1.8,-0.1 3.3,1.2 3.4,3 0,0.1 0,0.3 0,0.4 0.1,1.8 -1.2,3.3 -3,3.4 -0.1,0 -0.3,0 -0.4,0 z"
           id="path16058-2" />
      </g>
    </g>
  </g>
</svg>
