<?xml version="1.0" encoding="utf-8"?>
<!-- Generator: Adobe Illustrator 23.0.3, SVG Export Plug-In . SVG Version: 6.00 Build 0)  -->
<svg version="1.1"
	 id="svg20370" inkscape:version="0.92.3 (2405546, 2018-03-11)" sodipodi:docname="defender.svg" xmlns:cc="http://creativecommons.org/ns#" xmlns:dc="http://purl.org/dc/elements/1.1/" xmlns:inkscape="http://www.inkscape.org/namespaces/inkscape" xmlns:rdf="http://www.w3.org/1999/02/22-rdf-syntax-ns#" xmlns:sodipodi="http://sodipodi.sourceforge.net/DTD/sodipodi-0.dtd" xmlns:svg="http://www.w3.org/2000/svg"
	 xmlns="http://www.w3.org/2000/svg" xmlns:xlink="http://www.w3.org/1999/xlink" x="0px" y="0px" viewBox="0 0 48.5 52.3"
	 style="enable-background:new 0 0 48.5 52.3;" xml:space="preserve">
<style type="text/css">
	.st0{fill:#CFD1D2;}
	.st1{fill:none;}
	.st2{fill:#58595B;stroke:#58595B;stroke-width:0.25;}
	.st3{fill:#D0D2D3;}
	.st4{fill:#58595B;}
	.st5{fill:#E98023;}
	.st6{fill:#C66928;}
	.st7{fill:#FFFFFF;}
</style>
<sodipodi:namedview  bordercolor="#666666" borderopacity="1.0" fit-margin-bottom="0" fit-margin-left="0" fit-margin-right="0" fit-margin-top="0" id="base" inkscape:current-layer="layer1" inkscape:cx="5.4510341" inkscape:cy="-272.27751" inkscape:document-units="mm" inkscape:pageopacity="0.0" inkscape:pageshadow="2" inkscape:window-height="2105" inkscape:window-maximized="0" inkscape:window-width="1887" inkscape:window-x="67" inkscape:window-y="27" inkscape:zoom="2.8" pagecolor="#ffffff" showgrid="false">
	</sodipodi:namedview>
<g id="layer1" transform="translate(32.371987,-139.60633)" inkscape:groupmode="layer" inkscape:label="Layer 1">
	<g id="Layer_2-84-4" transform="matrix(0.14590449,0,0,0.14590449,-32.371987,139.60633)">
		<g id="Layer_1-2-50-3">
			<path id="path3071-3-7" inkscape:connector-curvature="0" class="st0" d="M274.5,101c-1.9,130.6-56.5,184.3-108.2,223.9
				C114.7,285.3,60,231.6,58.1,101c11.9-3.5,24-6.4,36.2-8.6v-4.8C81.1,90,68,93.1,55.1,97c-1,0.3-1.7,1.2-1.7,2.3
				c1.4,135.3,58.3,189.9,111.5,230.5c0.8,0.6,2,0.6,2.8,0c53.2-40.7,110.1-95.3,111.5-230.6c0-1-0.7-2-1.7-2.3
				c-12.9-3.8-26-7-39.3-9.4v4.8C250.5,94.6,262.5,97.5,274.5,101z"/>
			<g>
				<path class="st1" d="M238.4,123.5l-71.2,41.2l-72.8-41.9V78.1c-17.1,3-33.9,7.2-50.4,12.6c-0.9,145.5,59.2,205,122.3,252.1
					c63-47,123.1-106.5,122.3-252.1c-16.4-5.4-33.2-9.5-50.2-12.6V123.5z"/>
				<polygon class="st1" points="231.2,119.6 231.2,44.6 166.3,7.1 101.4,44.7 101.4,118.9 167.1,156.7 				"/>
				<path class="st2" d="M297.6,78.7c-19.3-6.5-39.1-11.5-59.2-15V40.5l-69.7-40L167.9,0h-3.3L96,39.7l-1.6,2.8v21.1
					c-20.2,3.5-40.1,8.6-59.5,15.2c-2.8,1-4.7,3.6-4.8,6.6c-2.4,158.7,63.6,221.1,131.6,271.3c1.3,1.2,3,1.8,4.8,1.8s3.6-0.7,4.9-2
					c67.7-49.9,133.4-112.2,131.4-269.9c0-0.4,0-0.8,0-1.2C302.8,82.3,300.7,79.6,297.6,78.7z M101.4,44.7l64.9-37.6l64.9,37.5v75
					l-64.1,37.1l-65.7-37.8V44.7z M166.3,342.8C103.2,295.7,43.1,236.2,44,90.7c16.5-5.4,33.3-9.6,50.4-12.6v44.7l72.8,41.9
					l71.2-41.2V78.1c17,3.1,33.8,7.3,50.2,12.6C289.4,236.3,229.3,295.8,166.3,342.8z"/>
			</g>
			<polygon id="polygon3075-5" class="st3" points="165.7,51.2 165.7,18.2 111.2,49.7 139.9,66.2 			"/>
			<polygon id="polygon3079-9" class="st3" points="110.6,50.7 110.7,113.6 139.3,97 139.3,67.2 			"/>
			<polygon id="polygon3083-2" class="st3" points="192.7,98.1 193.9,97.4 193.9,66.2 193.3,66.5 192.7,66.2 192.7,96.7 166.9,81.8 
				166.9,51.2 165.7,51.2 165.7,81.8 139.3,97 139.9,98.1 166.3,82.7 			"/>
			<polygon id="polygon3087-7" class="st3" points="221.9,50 166.9,18.2 166.9,51.2 193.3,66.5 			"/>
			<polygon id="polygon3091-5" class="st3" points="222,81.2 166.9,113 166.9,146 222,114.2 			"/>
			<polygon id="polygon3095-1" class="st3" points="165.7,112.9 139.9,98.1 111.3,114.6 165.7,145.9 			"/>
			<g>
				<polygon class="st1" points="164.4,80.9 164.4,53.6 140.8,67.2 140.8,67.2 140.8,94.3 				"/>
				<polygon class="st1" points="193.3,64.9 219,50 168.2,20.6 168.2,50.5 168.3,50.5 				"/>
				<polygon class="st1" points="191.4,67.1 168.4,53.8 168.4,80.9 191.4,94.2 				"/>
				<polygon class="st1" points="137.8,96.2 137.8,68 112.1,53.2 112.1,111.1 				"/>
				<polygon class="st1" points="114.1,114.6 164.4,143.5 164.4,113.8 139.9,99.6 				"/>
				<polygon class="st1" points="194.7,98.6 193.5,99.3 193.4,99.3 168.4,113.8 168.4,143.5 220.6,113.4 220.6,83.6 194.7,98.6 				
					"/>
				<polygon class="st1" points="164.2,50.4 164.2,20.7 114,49.7 139.8,64.6 				"/>
				<polygon class="st1" points="166.4,84.4 142.6,98.1 166.3,111.7 190,98.1 				"/>
				<path class="st4" d="M222.6,80c-0.4-0.3-1-0.3-1.4,0l-25.8,14.9v-28l27.2-15.8c0.2-0.1,0.4-0.3,0.5-0.5c0.4-0.6,0.2-1.5-0.5-1.9
					l-55-31.7c-0.2-0.1-0.5-0.2-0.7-0.2c-0.2,0-0.3,0.1-0.5,0.2c-0.4-0.3-1-0.3-1.4,0l-54.4,31.6c-0.2,0.1-0.4,0.3-0.5,0.5
					c-0.1,0.1,0,0.3-0.1,0.4c0,0,0,0,0,0c-0.4,0.2-0.7,0.7-0.7,1.2v62.9c0,0.4,0.2,0.8,0.5,1c0,0.5,0.3,0.9,0.7,1.2l54.5,31.4
					c0.2,0.1,0.4,0.2,0.7,0.2c0.3,0,0.4-0.1,0.6-0.2c0.2,0.1,0.3,0.2,0.6,0.2c0.3,0,0.5-0.1,0.7-0.2l55-31.8
					c0.4-0.2,0.7-0.7,0.7-1.2v-33C223.3,80.7,223,80.2,222.6,80z M137.8,68v28.2l-25.7,14.9V53.2L137.8,68z M140.8,67.2l23.6-13.6
					v27.3l-23.6,13.4L140.8,67.2C140.8,67.2,140.8,67.2,140.8,67.2z M168.4,53.8l23,13.3v27.1l-23-13.3V53.8z M168.2,20.6L219,50
					l-25.7,14.9l-25-14.4h-0.1V20.6z M164.2,20.7v29.7l-24.4,14.2L114,49.7L164.2,20.7z M164.4,143.5l-50.3-28.9l25.8-15l24.5,14.2
					V143.5z M166.3,111.7l-23.7-13.7l23.8-13.7L190,98.1L166.3,111.7z M220.6,113.4l-52.2,30.1v-29.7l25-14.5c0,0,0.1,0,0.1,0
					l1.2-0.7c0,0,0,0,0,0l25.9-15V113.4z"/>
			</g>
			<path id="path3099-3" inkscape:connector-curvature="0" class="st4" d="M149.7,189.9l10.6,1.5l-7.2,7l-0.5,0.5l1.8,10.5l-8.8-4.6
				l-0.7-0.3l-9.4,5c0.7-3.7,1.7-9.8,1.7-9.8V199l-7.7-7.5l9.8-1.4h0.7l4.7-9.6c0.8,1.6,2.2,4.4,4.4,8.9L149.7,189.9z"/>
			<path id="path3101-3" inkscape:connector-curvature="0" class="st4" d="M192.3,189.9l10.5,1.5l-7.1,7l-0.5,0.5l1.8,10.5l-8.8-4.6
				l-0.7-0.3l-9.4,5c0.6-3.7,1.7-9.8,1.7-9.8V199l-7.6-7.5l9.8-1.4h0.7l4.7-9.6l4.4,8.9L192.3,189.9z"/>
			<polygon id="polygon3103-8" class="st5" points="332.6,216.1 292.3,216.1 306.7,232.8 25.9,232.8 40.3,216.1 0,216.1 9.2,242.1 
				0,268 25.9,268 25.9,284.6 306.7,284.6 306.7,268 332.6,268 323.4,242.1 			"/>
			<polygon id="polygon3105-5" class="st6" points="306.7,232.8 292.3,216.1 292.3,232.8 			"/>
			<polygon id="polygon3107-1" class="st6" points="25.9,232.8 40.3,216.1 40.3,232.8 			"/>
			<path id="path3109-0" inkscape:connector-curvature="0" class="st7" d="M59.8,247.3c0-0.4,0.3-0.7,0.7-0.7l0,0h8.7
				c7.1,0,12.9,5.8,12.9,12.9c0,7.1-5.8,12.9-12.9,12.9l0,0h-8.7c-0.4,0-0.7-0.3-0.7-0.7l0,0C59.8,271.7,59.8,247.3,59.8,247.3z
				 M68.7,267.9c4.6-0.7,7.9-5,7.2-9.6c-0.5-3.7-3.5-6.7-7.2-7.2h-4.2v16.8H68.7z"/>
			<path id="path3111-8" inkscape:connector-curvature="0" class="st7" d="M90.3,247.3c0-0.4,0.3-0.7,0.7-0.7h15
				c0.4,0,0.7,0.3,0.7,0.7v3c0,0.4-0.3,0.7-0.7,0.7H95.1v6h9.1c0.4,0,0.7,0.3,0.7,0.7v3c0,0.4-0.3,0.7-0.7,0.7h-9.1v6.4H106
				c0.4,0,0.7,0.3,0.7,0.7v3c0,0.4-0.3,0.7-0.7,0.7H91c-0.4,0-0.7-0.3-0.7-0.7V247.3z"/>
			<path id="path3113-7" inkscape:connector-curvature="0" class="st7" d="M115.3,247.3c0-0.4,0.3-0.7,0.7-0.7h15
				c0.4,0,0.7,0.3,0.7,0.7v3c0,0.4-0.3,0.7-0.7,0.7l0,0h-10.9v6.9h9.1c0.4,0,0.7,0.3,0.7,0.7v3c0,0.4-0.3,0.7-0.7,0.7h-9.1v9.3
				c0,0.4-0.3,0.7-0.7,0.7H116c-0.4,0-0.7-0.3-0.7-0.7V247.3z"/>
			<path id="path3115-6" inkscape:connector-curvature="0" class="st7" d="M139.4,247.3c0-0.4,0.3-0.7,0.7-0.7h15
				c0.4,0,0.7,0.3,0.7,0.7v3c0,0.4-0.3,0.7-0.7,0.7h-10.9v6h9.1c0.4,0,0.7,0.3,0.7,0.7v3c0,0.4-0.3,0.7-0.7,0.7h-9.1v6.4h10.9
				c0.4,0,0.7,0.3,0.7,0.7v3c0,0.4-0.3,0.7-0.7,0.7h-15c-0.4,0-0.7-0.3-0.7-0.7l0,0V247.3z"/>
			<path id="path3117-3" inkscape:connector-curvature="0" class="st7" d="M164.4,246.9c0-0.4,0.3-0.7,0.7-0.7h0.9l15.4,16.3l0,0
				v-15.2c0-0.4,0.3-0.7,0.7-0.7h3.4c0.4,0,0.7,0.3,0.7,0.7v24.8c0,0.4-0.3,0.7-0.7,0.7l0,0h-0.9l-15.4-17l0,0v15.8
				c0,0.4-0.3,0.7-0.7,0.7H165c-0.4,0-0.7-0.3-0.7-0.7L164.4,246.9z"/>
			<path id="path3119-5" inkscape:connector-curvature="0" class="st7" d="M196.2,247.3c0-0.4,0.3-0.7,0.7-0.7l0,0h8.8
				c7.1,0,12.9,5.8,12.9,12.9c0,7.1-5.8,12.9-12.9,12.9l0,0h-8.8c-0.4,0-0.7-0.3-0.7-0.7l0,0V247.3z M205.1,267.9
				c4.6-0.7,7.9-5,7.2-9.6c-0.5-3.7-3.5-6.7-7.2-7.2h-4.2v16.8H205.1z"/>
			<path id="path3121-0" inkscape:connector-curvature="0" class="st7" d="M226.8,247.3c0-0.4,0.3-0.7,0.7-0.7h14.9
				c0.4,0,0.7,0.3,0.7,0.7v3c0,0.4-0.3,0.7-0.7,0.7l0,0h-10.9v6h9.1c0.4,0,0.7,0.3,0.7,0.7v3c0,0.4-0.3,0.7-0.7,0.7h-9.1v6.4h10.9
				c0.4,0,0.7,0.3,0.7,0.7v3c0,0.4-0.3,0.7-0.7,0.7l0,0h-15c-0.4,0-0.7-0.3-0.7-0.7L226.8,247.3z"/>
			<path id="path3123-8" inkscape:connector-curvature="0" class="st7" d="M251.7,247.3c0-0.4,0.3-0.7,0.6-0.7h10.5
				c4.4,0,8,3.5,8.1,7.9l0,0c-0.1,3.4-2.3,6.3-5.5,7.4l5,9.4c0.2,0.3,0.1,0.7-0.2,0.9c-0.1,0.1-0.3,0.1-0.4,0.1H266
				c-0.2,0-0.5-0.1-0.6-0.3l-4.9-9.8h-4.1v9.4c0,0.4-0.3,0.7-0.7,0.7h-3.5c-0.4,0-0.7-0.3-0.7-0.7l0,0L251.7,247.3z M262.5,258.4
				c2-0.1,3.7-1.7,3.7-3.8c0-2-1.7-3.6-3.7-3.6h-6v7.3h6V258.4z"/>
		</g>
	</g>
</g>
</svg>
