<?xml version="1.0" encoding="utf-8"?>
<!-- Generator: Adobe Illustrator 23.0.3, SVG Export Plug-In . SVG Version: 6.00 Build 0)  -->
<svg version="1.1"
	 id="svg34345" xmlns:cc="http://creativecommons.org/ns#" xmlns:dc="http://purl.org/dc/elements/1.1/" xmlns:rdf="http://www.w3.org/1999/02/22-rdf-syntax-ns#" xmlns:svg="http://www.w3.org/2000/svg"
	 xmlns="http://www.w3.org/2000/svg" xmlns:xlink="http://www.w3.org/1999/xlink" x="0px" y="0px" viewBox="0 0 48.5 52.3"
	 style="enable-background:new 0 0 48.5 52.3;" xml:space="preserve">
<style type="text/css">
	.st0{fill:#CFD1D2;}
	.st1{fill:none;}
	.st2{fill:#58595B;stroke:#58595B;stroke-width:0.25;}
	.st3{fill:#D0D2D3;}
	.st4{fill:#58595B;}
	.st5{fill:#6AAE45;}
	.st6{fill:#55893E;}
	.st7{fill:#FFFFFF;}
</style>
<g id="layer1" transform="translate(32.371987,-139.60633)">
	<g id="Layer_2-48-1" transform="matrix(0.14590449,0,0,0.14590449,-32.371987,139.60633)">
		<g id="Layer_1-2-88-2">
			<path id="path6094-6" class="st0" d="M274.5,101c-1.9,130.6-56.5,184.3-108.2,223.9C114.7,285.3,60,231.6,58.1,101
				c11.9-3.5,24-6.4,36.2-8.6v-4.8C81.1,90,68,93.1,55.1,97c-1,0.3-1.7,1.2-1.7,2.3c1.4,135.3,58.3,189.9,111.5,230.5
				c0.8,0.6,2,0.6,2.8,0c53.2-40.7,110.1-95.3,111.5-230.6c0-1-0.7-2-1.7-2.3c-12.9-3.8-26-7-39.3-9.4v4.8
				C250.5,94.6,262.5,97.5,274.5,101z"/>
			<g>
				<path class="st1" d="M238.4,123.5l-71.2,41.2l-72.8-41.9V78.1c-17.1,3-33.9,7.2-50.4,12.6c-0.9,145.5,59.2,205,122.3,252.1
					c63-47,123.1-106.5,122.3-252.1c-16.4-5.4-33.2-9.5-50.2-12.6V123.5z"/>
				<polygon class="st1" points="231.2,119.6 231.2,44.6 166.3,7.1 101.4,44.7 101.4,118.9 167.1,156.7 				"/>
				<path class="st2" d="M297.6,78.7c-19.3-6.5-39.1-11.5-59.2-15V40.5l-69.7-40L167.9,0h-3.3L96,39.7l-1.6,2.8v21.1
					c-20.2,3.5-40.1,8.6-59.5,15.2c-2.8,1-4.7,3.6-4.8,6.6c-2.4,158.7,63.6,221.1,131.6,271.3c1.3,1.2,3,1.8,4.8,1.8s3.6-0.7,4.9-2
					c67.7-49.9,133.4-112.2,131.4-269.9c0-0.4,0-0.8,0-1.2C302.8,82.3,300.7,79.6,297.6,78.7z M101.4,44.7l64.9-37.6l64.9,37.5v75
					l-64.1,37.1l-65.7-37.8V44.7z M166.3,342.8C103.2,295.7,43.1,236.2,44,90.7c16.5-5.4,33.3-9.6,50.4-12.6v44.7l72.8,41.9
					l71.2-41.2V78.1c17,3.1,33.8,7.3,50.2,12.6C289.4,236.3,229.3,295.8,166.3,342.8z"/>
			</g>
			<polygon id="polygon6098-1" class="st3" points="111.2,49.7 139.9,66.2 165.7,51.2 165.7,18.2 			"/>
			<path id="path6100-0" class="st4" d="M139.9,67.6c-0.3,0-0.5-0.1-0.7-0.2L110.6,51c-0.7-0.4-0.9-1.3-0.5-1.9
				c0.1-0.2,0.3-0.4,0.5-0.5L165,17c0.4-0.3,1-0.3,1.4,0c0.4,0.2,0.7,0.7,0.7,1.2v33c0,0.5-0.3,1-0.7,1.2l-25.8,14.9
				C140.4,67.5,140.1,67.6,139.9,67.6z M114,49.7l25.8,14.9l24.4-14.2V20.7L114,49.7z"/>
			<polygon id="polygon6102-4" class="st3" points="139.3,97 139.3,67.2 110.6,50.7 110.7,113.6 			"/>
			<path id="path6104-2" class="st4" d="M110.7,115c-0.3,0-0.5-0.1-0.7-0.2c-0.4-0.2-0.7-0.7-0.7-1.2V50.7c0-0.5,0.3-1,0.7-1.2
				c0.4-0.3,1-0.3,1.4,0L140.1,66c0.4,0.3,0.7,0.7,0.7,1.2V97c0,0.5-0.3,1-0.7,1.2l-28.7,16.6C111.2,114.9,111,115,110.7,115z
				 M112.1,53.2v57.9l25.7-14.9V68L112.1,53.2z"/>
			<polygon id="polygon6106-7" class="st3" points="165.7,51.2 165.7,81.8 139.3,97 139.9,98.1 166.3,82.7 192.7,98.1 193.9,97.4 
				193.9,66.2 193.3,66.5 192.7,66.2 192.7,96.7 166.9,81.8 166.9,51.2 			"/>
			<path id="path6108-4" class="st4" d="M192.8,99.5c-0.2,0-0.5-0.1-0.7-0.2l-25.7-14.9l-25.8,14.8c-0.3,0.2-0.7,0.2-1.1,0
				c-0.4-0.1-0.7-0.3-0.9-0.7l-0.6-1c-0.4-0.7-0.2-1.5,0.5-1.9l25.9-14.7V51.2c0-0.8,0.6-1.4,1.4-1.4h1.2c0.8,0,1.4,0.6,1.4,1.4
				v29.7l23,13.3v-28c0-0.5,0.3-1,0.7-1.2s0.9-0.2,1.3,0c0.4-0.2,0.9-0.2,1.3,0c0.4,0.2,0.7,0.7,0.7,1.2v31.2c0,0.5-0.3,1-0.7,1.2
				l-1.2,0.7C193.3,99.4,193,99.5,192.8,99.5z"/>
			<polygon id="polygon6110-0" class="st3" points="166.9,51.2 193.3,66.5 221.9,50 166.9,18.2 			"/>
			<path id="path6112-3" class="st4" d="M193.3,68c-0.3,0-0.5-0.1-0.7-0.2l-26.4-15.3c-0.4-0.3-0.7-0.7-0.7-1.2V18.2
				c0-0.8,0.6-1.4,1.4-1.4c0.2,0,0.5,0.1,0.7,0.2l55,31.7c0.7,0.4,0.9,1.3,0.5,1.9c-0.1,0.2-0.3,0.4-0.5,0.5L194,67.7
				C193.8,67.9,193.6,68,193.3,68z M168.3,50.5l25,14.4L219,50l-50.8-29.4v29.9H168.3z"/>
			<polygon id="polygon6114-2" class="st3" points="166.9,146 222,114.2 222,81.2 166.9,113 			"/>
			<path id="path6116-8" class="st4" d="M166.9,147.4c-0.3,0-0.5-0.1-0.7-0.2c-0.4-0.2-0.7-0.7-0.7-1.2v-33c0-0.5,0.3-1,0.7-1.2
				l55-31.8c0.4-0.3,1-0.3,1.4,0c0.4,0.2,0.7,0.7,0.7,1.2v33c0,0.5-0.3,1-0.7,1.2l-55,31.8C167.4,147.3,167.2,147.4,166.9,147.4z
				 M168.4,113.8v29.7l52.2-30.1V83.6L168.4,113.8z"/>
			<polygon id="polygon6118-0" class="st3" points="111.3,114.6 165.7,145.9 165.7,112.9 139.9,98.1 			"/>
			<path id="path6120-3" class="st4" d="M165.7,147.4c-0.3,0-0.5-0.1-0.7-0.2l-54.5-31.4c-0.4-0.3-0.7-0.7-0.7-1.2s0.3-1,0.7-1.2
				l28.6-16.5c0.4-0.3,1-0.3,1.4,0l25.9,14.9c0.4,0.3,0.7,0.7,0.7,1.2v33c0,0.5-0.3,1-0.7,1.2C166.2,147.3,166,147.4,165.7,147.4z
				 M114.1,114.6l50.3,28.9v-29.7l-24.5-14.2L114.1,114.6z"/>
			<path id="path6122-7" class="st4" d="M128.5,192.4l10.5,1.5l-7.1,6.9l-0.5,0.5l1.8,10.5l-8.8-4.6l-0.7-0.4l-9.4,5
				c0.6-3.7,1.7-9.8,1.7-9.8v-0.7l-7.6-7.5l9.8-1.4h0.7l4.7-9.6c0.8,1.7,2.2,4.4,4.4,8.9L128.5,192.4z"/>
			<path id="path6124-0" class="st4" d="M171,192.4l10.6,1.5c-1.4,1.3-3.5,3.4-7.1,6.9l-0.5,0.5l1.8,10.5l-8.8-4.6l-0.7-0.4l-9.4,5
				c0.7-3.7,1.7-9.8,1.7-9.8v-0.7l-7.7-7.5l9.8-1.4h0.7l4.7-9.6l4.4,8.9L171,192.4z"/>
			<path id="path6126-0" class="st4" d="M213.6,192.4l10.6,1.5l-7.1,6.9l-0.5,0.5l1.8,10.5l-8.8-4.6l-0.6-0.4l-9.5,5
				c0.7-3.7,1.7-9.8,1.7-9.8v-0.7l-7.7-7.5l9.8-1.4h0.7l4.7-9.6l4.4,8.9L213.6,192.4z"/>
			<polygon id="polygon6128-3" class="st5" points="9.2,242.1 0,268 25.9,268 25.9,284.6 306.7,284.6 306.7,268 332.6,268 
				323.4,242.1 332.6,216.1 292.3,216.1 306.7,232.8 25.9,232.8 40.3,216.1 0,216.1 			"/>
			<polygon id="polygon6130-4" class="st6" points="292.3,216.1 292.3,232.8 306.7,232.8 			"/>
			<polygon id="polygon6132-9" class="st6" points="40.3,216.1 40.3,232.8 25.9,232.8 			"/>
			<path id="path6134-2" class="st7" d="M90.9,268.8l1.3-2.3c0.2-0.4,0.8-0.5,1.2-0.3c0,0,0.1,0,0.1,0.1c1.7,1.2,3.6,2,5.7,2.3
				c1.7,0.2,3.2-1.1,3.4-2.8c0,0,0,0,0-0.1c0-1.9-1.6-3.2-4.7-4.4c-3.1-1.2-7.1-3.6-7.1-8c0-3.3,2.4-7.1,8.3-7.1
				c2.6,0.1,5.2,0.9,7.4,2.5c0.4,0.3,0.5,0.8,0.2,1.2l-1.4,2.1c-0.2,0.5-0.8,0.7-1.3,0.5c-1.5-1.1-3.3-1.8-5.1-2
				c-1.5-0.2-3,0.8-3.2,2.4c0,0.1,0,0.1,0,0.2c0,1.8,1.4,2.8,4.4,4.1c3.6,1.4,7.8,3.6,7.8,8.3c-0.2,4.3-3.9,7.6-8.2,7.3
				c-0.1,0-0.2,0-0.3,0c-3,0.1-5.9-0.9-8.1-2.8C90.7,269.6,90.5,269.3,90.9,268.8z"/>
			<path id="path6136-7" class="st7" d="M115.7,247.3c0-0.4,0.3-0.7,0.7-0.7h15c0.4,0,0.7,0.3,0.7,0.7v3c0,0.4-0.3,0.7-0.7,0.7l0,0
				h-10.9v6h9.1c0.4,0,0.7,0.3,0.7,0.7v3c0,0.4-0.3,0.7-0.7,0.7h-9.1v6.4h10.9c0.4,0,0.7,0.3,0.7,0.7v3c0,0.4-0.3,0.7-0.7,0.7h-15
				c-0.4,0-0.7-0.3-0.7-0.7V247.3z"/>
			<path id="path6138-4" class="st7" d="M140.7,246.9c0-0.4,0.3-0.7,0.7-0.7h0.9l15.3,16.3l0,0v-15.2c0-0.4,0.3-0.7,0.7-0.7h3.4
				c0.4,0,0.7,0.3,0.7,0.7v24.8c0,0.4-0.3,0.7-0.7,0.7l0,0h-0.9l-15.4-17l0,0v15.8c0,0.4-0.3,0.7-0.7,0.7h-3.3
				c-0.4,0-0.7-0.3-0.7-0.7V246.9z"/>
			<path id="path6140-2" class="st7" d="M175.9,251h-5.7c-0.4,0-0.7-0.3-0.7-0.7c0,0,0,0,0-0.1v-3c0-0.4,0.3-0.7,0.7-0.7h16.1
				c0.4,0,0.7,0.3,0.7,0.7v3c0,0.4-0.3,0.7-0.7,0.7l0,0h-5.7v20.7c0,0.4-0.3,0.7-0.7,0.7h-3.3c-0.4,0-0.7-0.3-0.7-0.7L175.9,251z"/>
			<path id="path6142-5" class="st7" d="M194.3,247.3c0-0.4,0.3-0.7,0.7-0.7h10.5c4.4,0,8,3.5,8,7.9l0,0c-0.1,3.4-2.3,6.3-5.4,7.4
				l5,9.4c0.2,0.3,0.1,0.8-0.2,1c-0.1,0.1-0.3,0.1-0.4,0.1h-3.9c-0.3,0-0.5-0.1-0.6-0.3l-4.9-9.8H199v9.4c0,0.4-0.3,0.7-0.7,0.7
				h-3.4c-0.4,0-0.7-0.3-0.7-0.7L194.3,247.3L194.3,247.3z M205.1,258.4c2-0.1,3.6-1.7,3.6-3.8c0-2-1.6-3.6-3.6-3.6h-6v7.3h6V258.4z
				"/>
			<path id="path6144-2" class="st7" d="M227,260l-8.5-12.3c-0.2-0.3-0.2-0.7,0.2-0.9c0.1-0.1,0.3-0.1,0.4-0.1h3.7
				c0.2,0,0.5,0.1,0.6,0.3l5.9,8.5l5.9-8.5c0.1-0.2,0.4-0.3,0.6-0.3h3.8c0.4,0,0.7,0.3,0.7,0.6c0,0.2,0,0.3-0.1,0.4l-8.5,12.3v11.8
				c0,0.4-0.3,0.7-0.7,0.7h-3.4c-0.4,0-0.7-0.3-0.7-0.7L227,260z"/>
		</g>
	</g>
</g>
</svg>
