<?xml version="1.0" encoding="iso-8859-1"?>
<!-- Generator: Adobe Illustrator 23.0.3, SVG Export Plug-In . SVG Version: 6.00 Build 0)  -->
<svg version="1.1"
	 id="svg20370" inkscape:version="0.92.3 (2405546, 2018-03-11)" sodipodi:docname="defender.svg" xmlns:cc="http://creativecommons.org/ns#" xmlns:dc="http://purl.org/dc/elements/1.1/" xmlns:inkscape="http://www.inkscape.org/namespaces/inkscape" xmlns:rdf="http://www.w3.org/1999/02/22-rdf-syntax-ns#" xmlns:sodipodi="http://sodipodi.sourceforge.net/DTD/sodipodi-0.dtd" xmlns:svg="http://www.w3.org/2000/svg"
	 xmlns="http://www.w3.org/2000/svg" xmlns:xlink="http://www.w3.org/1999/xlink" x="0px" y="0px" viewBox="0 0 48.5 52.3"
	 style="enable-background:new 0 0 48.5 52.3;" xml:space="preserve">
<style type="text/css">
	.st0{fill:#666666;}
	.st1{fill:#CFD1D2;}
	.st2{fill:#D0D2D3;}
	.st3{fill:#E98023;}
	.st4{fill:#C66928;}
	.st5{fill:#FFFFFF;}
</style>
<sodipodi:namedview  bordercolor="#666666" borderopacity="1.0" fit-margin-bottom="0" fit-margin-left="0" fit-margin-right="0" fit-margin-top="0" id="base" inkscape:current-layer="layer1" inkscape:cx="5.4510341" inkscape:cy="-272.27751" inkscape:document-units="mm" inkscape:pageopacity="0.0" inkscape:pageshadow="2" inkscape:window-height="2105" inkscape:window-maximized="0" inkscape:window-width="1887" inkscape:window-x="67" inkscape:window-y="27" inkscape:zoom="2.8" pagecolor="#ffffff" showgrid="false">
	</sodipodi:namedview>
<g id="layer1" transform="translate(32.371987,-139.60633)" inkscape:groupmode="layer" inkscape:label="Layer 1">
	<g id="Layer_2-84-4" transform="matrix(0.14590449,0,0,0.14590449,-32.371987,139.60633)">
		<g id="Layer_1-2-50-3">
			<path id="path3069-9" inkscape:connector-curvature="0" class="st0" d="M297.6,78.7c-19.4-6.5-39.3-11.6-59.5-15.1V78
				c17.1,3.1,34,7.3,50.5,12.7c0.8,145.6-59.3,205.1-122.3,252.1l0,0C103.2,295.7,43.1,236.2,44,90.7c16.5-5.4,33.3-9.6,50.4-12.6
				V63.6c-20.2,3.5-40.1,8.6-59.5,15.2c-2.8,1-4.7,3.6-4.8,6.6c-2.4,158.7,63.6,221.1,131.6,271.3c1.3,1.2,3,1.8,4.8,1.8l0,0
				c1.8,0,3.6-0.7,4.9-2c67.7-49.9,133.4-112.2,131.4-269.9c0-0.4,0-0.8,0-1.2C302.8,82.3,300.7,79.6,297.6,78.7z"/>
			<path id="path3071-3-7" inkscape:connector-curvature="0" class="st1" d="M274.5,101c-1.9,130.6-56.5,184.3-108.2,223.9
				C114.7,285.3,60,231.6,58.1,101c11.9-3.5,24-6.4,36.2-8.6v-4.8C81.1,90,68,93.1,55.1,97c-1,0.3-1.7,1.2-1.7,2.3
				c1.4,135.3,58.3,189.9,111.5,230.5c0.8,0.6,2,0.6,2.8,0c53.2-40.7,110.1-95.3,111.5-230.6c0-1-0.7-2-1.7-2.3
				c-12.9-3.8-26-7-39.3-9.4v4.8C250.5,94.6,262.5,97.5,274.5,101z"/>
			<path id="path3073-6-2" inkscape:connector-curvature="0" class="st0" d="M168.7,0.5L167.9,0h-3.3L96,39.7l-1.6,2.8v80.3
				l72.8,41.9l71.2-41.2v-83L168.7,0.5z M167.1,156.7l-65.7-37.8V44.7l64.9-37.6l64.9,37.5v75L167.1,156.7z"/>
			<polygon id="polygon3075-5" class="st2" points="165.7,51.2 165.7,18.2 111.2,49.7 139.9,66.2 			"/>
			<path id="path3077-1-8" inkscape:connector-curvature="0" class="st0" d="M139.9,67.6c-0.3,0-0.5-0.1-0.7-0.2L110.6,51
				c-0.7-0.4-0.9-1.3-0.5-1.9c0.1-0.2,0.3-0.4,0.5-0.5L165,17c0.4-0.3,1-0.3,1.4,0c0.4,0.2,0.7,0.7,0.7,1.2v33c0,0.5-0.3,1-0.7,1.2
				l-25.8,14.9C140.4,67.5,140.1,67.6,139.9,67.6z M114,49.7l25.8,14.9l24.4-14.2V20.7L114,49.7z"/>
			<polygon id="polygon3079-9" class="st2" points="110.6,50.7 110.7,113.6 139.3,97 139.3,67.2 			"/>
			<path id="path3081-06-0" inkscape:connector-curvature="0" class="st0" d="M110.7,115c-0.3,0-0.5-0.1-0.7-0.2
				c-0.4-0.2-0.7-0.7-0.7-1.2V50.7c0-0.5,0.3-1,0.7-1.2c0.4-0.3,1-0.3,1.4,0L140.1,66c0.5,0.3,0.7,0.7,0.7,1.2V97
				c0,0.5-0.3,1-0.7,1.2l-28.7,16.6C111.2,114.9,111,115,110.7,115z M112.1,53.2v57.9l25.7-14.9V68L112.1,53.2z"/>
			<polygon id="polygon3083-2" class="st2" points="192.7,98.1 193.9,97.4 193.9,66.2 193.3,66.5 192.7,66.2 192.7,96.7 166.9,81.8 
				166.9,51.2 165.7,51.2 165.7,81.8 139.3,97 139.9,98.1 166.3,82.7 			"/>
			<path id="path3085-4" inkscape:connector-curvature="0" class="st0" d="M192.8,99.5c-0.2,0-0.5-0.1-0.7-0.2l-25.7-14.9
				l-25.8,14.8c-0.3,0.2-0.7,0.2-1.1,0c-0.4-0.1-0.7-0.3-0.9-0.7l-0.6-1c-0.4-0.7-0.2-1.5,0.5-1.9l25.9-14.7V51.2
				c0-0.8,0.6-1.4,1.4-1.4h1.2c0.8,0,1.4,0.6,1.4,1.4v29.7l23,13.3V66.2c0-0.5,0.3-1,0.7-1.2c0.4-0.2,0.9-0.2,1.3,0
				c0.4-0.2,0.9-0.2,1.3,0c0.4,0.2,0.7,0.7,0.7,1.2v31.2c0,0.5-0.3,1-0.7,1.2l-1.2,0.7C193.3,99.4,193,99.5,192.8,99.5z"/>
			<polygon id="polygon3087-7" class="st2" points="221.9,50 166.9,18.2 166.9,51.2 193.3,66.5 			"/>
			<path id="path3089-6" inkscape:connector-curvature="0" class="st0" d="M193.3,68c-0.3,0-0.5-0.1-0.7-0.2l-26.4-15.3
				c-0.4-0.3-0.7-0.7-0.7-1.2V18.2c0-0.8,0.6-1.4,1.4-1.4c0.2,0,0.5,0.1,0.7,0.2l55,31.7c0.7,0.4,0.9,1.3,0.5,1.9
				c-0.1,0.2-0.3,0.4-0.5,0.5L194,67.7C193.8,67.9,193.6,68,193.3,68z M168.3,50.5l25,14.4l25.7-14.9l-50.8-29.4V50.5z"/>
			<polygon id="polygon3091-5" class="st2" points="222,81.2 166.9,113 166.9,146 222,114.2 			"/>
			<path id="path3093-7" inkscape:connector-curvature="0" class="st0" d="M166.9,147.4c-0.3,0-0.5-0.1-0.7-0.2
				c-0.4-0.2-0.7-0.7-0.7-1.2v-33c0-0.5,0.3-1,0.7-1.2l55-31.8c0.4-0.3,1-0.3,1.4,0c0.4,0.2,0.7,0.7,0.7,1.2v33c0,0.5-0.3,1-0.7,1.2
				l-55,31.8C167.4,147.3,167.2,147.4,166.9,147.4z M168.4,113.8v29.7l52.2-30.1V83.6L168.4,113.8z"/>
			<polygon id="polygon3095-1" class="st2" points="165.7,112.9 139.9,98.1 111.3,114.6 165.7,145.9 			"/>
			<path id="path3097-3" inkscape:connector-curvature="0" class="st0" d="M165.7,147.4c-0.3,0-0.5-0.1-0.7-0.2l-54.5-31.4
				c-0.4-0.3-0.7-0.7-0.7-1.2c0-0.5,0.3-1,0.7-1.2l28.6-16.5c0.4-0.3,1-0.3,1.4,0l25.9,14.9c0.4,0.3,0.7,0.7,0.7,1.2v33
				c0,0.5-0.3,1-0.7,1.2C166.2,147.3,166,147.4,165.7,147.4z M114.1,114.6l50.3,28.9v-29.7l-24.5-14.2L114.1,114.6z"/>
			<path id="path3099-3" inkscape:connector-curvature="0" class="st0" d="M149.7,189.9l10.6,1.5l-7.2,7l-0.5,0.5l1.8,10.5l-8.8-4.6
				l-0.7-0.3l-9.4,5c0.7-3.7,1.7-9.8,1.7-9.8V199l-7.7-7.5l9.8-1.4h0.7l4.7-9.6c0.8,1.6,2.2,4.4,4.4,8.9L149.7,189.9z"/>
			<path id="path3101-3" inkscape:connector-curvature="0" class="st0" d="M192.3,189.9l10.5,1.5l-7.1,7l-0.5,0.5l1.8,10.5l-8.8-4.6
				l-0.7-0.3l-9.4,5c0.6-3.7,1.7-9.8,1.7-9.8V199l-7.6-7.5l9.8-1.4h0.7l4.7-9.6l4.4,8.9L192.3,189.9z"/>
			<polygon id="polygon3103-8" class="st3" points="332.6,216.1 292.3,216.1 306.7,232.8 25.9,232.8 40.3,216.1 0,216.1 9.2,242.1 
				0,268 25.9,268 25.9,284.6 306.7,284.6 306.7,268 332.6,268 323.4,242.1 			"/>
			<polygon id="polygon3105-5" class="st4" points="306.7,232.8 292.3,216.1 292.3,232.8 			"/>
			<polygon id="polygon3107-1" class="st4" points="25.9,232.8 40.3,216.1 40.3,232.8 			"/>
			<path id="path3109-0" inkscape:connector-curvature="0" class="st5" d="M59.8,247.3c0-0.4,0.3-0.7,0.7-0.7c0,0,0,0,0,0h8.7
				c7.1,0,12.9,5.8,12.9,12.9c0,7.1-5.8,12.9-12.9,12.9c0,0,0,0,0,0h-8.7c-0.4,0-0.7-0.3-0.7-0.7c0,0,0,0,0,0V247.3z M68.7,267.9
				c4.6-0.7,7.9-5,7.2-9.6c-0.5-3.7-3.5-6.7-7.2-7.2h-4.2v16.8H68.7z"/>
			<path id="path3111-8" inkscape:connector-curvature="0" class="st5" d="M90.3,247.3c0-0.4,0.3-0.7,0.7-0.7h15
				c0.4,0,0.7,0.3,0.7,0.7v3c0,0.4-0.3,0.7-0.7,0.7H95.1v6h9.1c0.4,0,0.7,0.3,0.7,0.7v3c0,0.4-0.3,0.7-0.7,0.7h-9.1v6.4H106
				c0.4,0,0.7,0.3,0.7,0.7v3c0,0.4-0.3,0.7-0.7,0.7H91c-0.4,0-0.7-0.3-0.7-0.7L90.3,247.3z"/>
			<path id="path3113-7" inkscape:connector-curvature="0" class="st5" d="M115.3,247.3c0-0.4,0.3-0.7,0.7-0.7h15
				c0.4,0,0.7,0.3,0.7,0.7v3c0,0.4-0.3,0.7-0.7,0.7c0,0,0,0,0,0h-10.9v6.9h9.1c0.4,0,0.7,0.3,0.7,0.7v3c0,0.4-0.3,0.7-0.7,0.7h-9.1
				v9.3c0,0.4-0.3,0.7-0.7,0.7H116c-0.4,0-0.7-0.3-0.7-0.7V247.3z"/>
			<path id="path3115-6" inkscape:connector-curvature="0" class="st5" d="M139.4,247.3c0-0.4,0.3-0.7,0.7-0.7h15
				c0.4,0,0.7,0.3,0.7,0.7v3c0,0.4-0.3,0.7-0.7,0.7h-10.9v6h9.1c0.4,0,0.7,0.3,0.7,0.7v3c0,0.4-0.3,0.7-0.7,0.7h-9.1v6.4h10.9
				c0.4,0,0.7,0.3,0.7,0.7v3c0,0.4-0.3,0.7-0.7,0.7h-15c-0.4,0-0.7-0.3-0.7-0.7c0,0,0,0,0,0V247.3z"/>
			<path id="path3117-3" inkscape:connector-curvature="0" class="st5" d="M164.4,246.9c0-0.4,0.3-0.7,0.7-0.7h0.9l15.4,16.3l0,0
				v-15.2c0-0.4,0.3-0.7,0.7-0.7h3.4c0.4,0,0.7,0.3,0.7,0.7v24.8c0,0.4-0.3,0.7-0.7,0.7c0,0,0,0,0,0h-0.9l-15.4-17l0,0v15.8
				c0,0.4-0.3,0.7-0.7,0.7h-3.5c-0.4,0-0.7-0.3-0.7-0.7L164.4,246.9z"/>
			<path id="path3119-5" inkscape:connector-curvature="0" class="st5" d="M196.2,247.3c0-0.4,0.3-0.7,0.7-0.7c0,0,0,0,0,0h8.8
				c7.1,0,12.9,5.8,12.9,12.9c0,7.1-5.8,12.9-12.9,12.9c0,0,0,0,0,0h-8.8c-0.4,0-0.7-0.3-0.7-0.7c0,0,0,0,0,0V247.3z M205.1,267.9
				c4.6-0.7,7.9-5,7.2-9.6c-0.5-3.7-3.5-6.7-7.2-7.2h-4.2v16.8H205.1z"/>
			<path id="path3121-0" inkscape:connector-curvature="0" class="st5" d="M226.8,247.3c0-0.4,0.3-0.7,0.7-0.7h14.9
				c0.4,0,0.7,0.3,0.7,0.7v3c0,0.4-0.3,0.7-0.7,0.7c0,0,0,0,0,0h-10.9v6h9.1c0.4,0,0.7,0.3,0.7,0.7v3c0,0.4-0.3,0.7-0.7,0.7h-9.1
				v6.4h10.9c0.4,0,0.7,0.3,0.7,0.7v3c0,0.4-0.3,0.7-0.7,0.7c0,0,0,0,0,0h-15c-0.4,0-0.7-0.3-0.7-0.7L226.8,247.3z"/>
			<path id="path3123-8" inkscape:connector-curvature="0" class="st5" d="M251.7,247.3c0-0.4,0.3-0.7,0.6-0.7h10.5
				c4.4,0,8,3.5,8.1,7.9c0,0,0,0,0,0c-0.1,3.4-2.3,6.3-5.5,7.4l5,9.4c0.2,0.3,0.1,0.7-0.2,0.9c-0.1,0.1-0.3,0.1-0.4,0.1H266
				c-0.2,0-0.5-0.1-0.6-0.3l-4.9-9.8h-4.1v9.4c0,0.4-0.3,0.7-0.7,0.7h-3.5c-0.4,0-0.7-0.3-0.7-0.7c0,0,0,0,0,0L251.7,247.3z
				 M262.5,258.4c2-0.1,3.7-1.7,3.7-3.8c0-2-1.7-3.6-3.7-3.6h-6v7.3H262.5z"/>
		</g>
	</g>
</g>
</svg>
