<?xml version="1.0" encoding="UTF-8" standalone="no"?>
<svg
   xmlns:dc="http://purl.org/dc/elements/1.1/"
   xmlns:cc="http://creativecommons.org/ns#"
   xmlns:rdf="http://www.w3.org/1999/02/22-rdf-syntax-ns#"
   xmlns:svg="http://www.w3.org/2000/svg"
   xmlns="http://www.w3.org/2000/svg"
   id="svg27379"
   version="1.1"
   viewBox="0 0 17.118975 18.454"
   height="18.454mm"
   width="17.118975mm">
  <defs
     id="defs27373" />
  <metadata
     id="metadata27376">
    <rdf:RDF>
      <cc:Work
         rdf:about="">
        <dc:format>image/svg+xml</dc:format>
        <dc:type
           rdf:resource="http://purl.org/dc/dcmitype/StillImage" />
        <dc:title></dc:title>
      </cc:Work>
    </rdf:RDF>
  </metadata>
  <g
     transform="translate(131.02377,-156.99324)"
     id="layer1">
    <g
       style="stroke-width:1.81340086"
       transform="matrix(0.14590449,0,0,0.14590449,-131.02377,156.99324)"
       id="Layer_2-03-4"
       data-name="Layer 2">
      <g
         style="stroke-width:1.81340086"
         id="Layer_1-2-09-4"
         data-name="Layer 1">
        <path
           style="fill:#666666;stroke-width:1.81340086"
           class="cls-1"
           d="M 105,27.76 A 141.73,141.73 0 0 0 84,22.44 v 5.08 A 135.37,135.37 0 0 1 101.81,32 c 0.29,51.38 -20.91,72.36 -43.15,88.93 v 0 C 36.42,104.32 15.22,83.34 15.51,32 a 133.59,133.59 0 0 1 17.78,-4.45 v -5.11 a 140.56,140.56 0 0 0 -21,5.37 2.48,2.48 0 0 0 -1.68,2.32 c -0.84,56 22.44,78 46.42,95.71 a 2.52,2.52 0 0 0 1.68,0.64 v 0 a 2.51,2.51 0 0 0 1.74,-0.7 C 84.34,108.16 107.51,86.2 106.8,30.57 a 2.73,2.73 0 0 0 0,-0.41 2.48,2.48 0 0 0 -1.8,-2.4 z"
           id="path6212-3" />
        <path
           style="fill:#cfd1d2;stroke-width:1.81340086"
           class="cls-2"
           d="m 96.82,35.63 c -0.66,46.09 -19.94,65 -38.16,79 -18.21,-14 -37.49,-32.93 -38.15,-79 a 131.25,131.25 0 0 1 12.78,-3.05 v -1.7 a 132.55,132.55 0 0 0 -13.86,3.34 0.84,0.84 0 0 0 -0.59,0.8 c 0.51,47.72 20.57,67 39.32,81.33 a 0.84,0.84 0 0 0 1,0 C 77.92,102 98,82.74 98.49,35 A 0.85,0.85 0 0 0 97.9,34.19 134.89,134.89 0 0 0 84.05,30.86 v 1.69 a 131.09,131.09 0 0 1 12.77,3.08 z"
           id="path6214-8" />
        <path
           style="fill:#666666;stroke-width:1.81340086"
           class="cls-1"
           d="M 59.53,0.17 59.24,0 H 58.07 L 33.85,14 33.27,15 V 43.33 L 58.94,58.12 84.06,43.6 V 14.31 Z M 58.94,55.27 35.77,41.92 V 15.76 L 58.66,2.51 81.57,15.73 v 26.45 z"
           id="path6216-6" />
        <polygon
           style="fill:#d0d2d3;stroke-width:1.81340086"
           class="cls-3"
           points="39.23,17.54 49.34,23.35 58.45,18.07 58.45,6.43 "
           id="polygon6218-0" />
        <path
           style="fill:#666666;stroke-width:1.81340086"
           class="cls-1"
           d="M 49.34,23.85 A 0.47,0.47 0 0 1 49.09,23.78 L 39,18 a 0.5,0.5 0 0 1 0,-0.87 L 58.2,6 a 0.5,0.5 0 0 1 0.5,0 0.47,0.47 0 0 1 0.25,0.43 v 11.64 a 0.5,0.5 0 0 1 -0.25,0.44 l -9.11,5.27 a 0.45,0.45 0 0 1 -0.25,0.07 z m -9.11,-6.32 9.11,5.24 8.61,-5 V 7.29 Z"
           id="path6220-8" />
        <polygon
           style="fill:#d0d2d3;stroke-width:1.81340086"
           class="cls-3"
           points="49.13,34.23 49.13,23.71 39.03,17.89 39.06,40.07 "
           id="polygon6222-9" />
        <path
           style="fill:#666666;stroke-width:1.81340086"
           class="cls-1"
           d="M 39.06,40.57 A 0.43,0.43 0 0 1 38.81,40.5 0.48,0.48 0 0 1 38.56,40.07 V 17.89 a 0.48,0.48 0 0 1 0.25,-0.43 0.5,0.5 0 0 1 0.5,0 l 10.1,5.81 a 0.5,0.5 0 0 1 0.25,0.44 v 10.52 a 0.5,0.5 0 0 1 -0.24,0.43 L 39.31,40.5 a 0.47,0.47 0 0 1 -0.25,0.07 z M 39.53,18.76 V 39.2 L 48.6,33.94 V 24 Z"
           id="path6224-2" />
        <polygon
           style="fill:#d0d2d3;stroke-width:1.81340086"
           class="cls-3"
           points="49.13,34.23 49.34,34.59 58.66,29.19 67.98,34.59 68.4,34.35 68.4,23.34 68.2,23.46 67.99,23.34 67.99,34.12 58.87,28.84 58.87,18.07 58.45,18.07 58.45,28.84 "
           id="polygon6226-2" />
        <path
           style="fill:#666666;stroke-width:1.81340086"
           class="cls-1"
           d="M 68,35.09 A 0.57,0.57 0 0 1 67.75,35.03 L 58.68,29.77 49.59,35 a 0.46,0.46 0 0 1 -0.38,0 0.47,0.47 0 0 1 -0.3,-0.23 L 48.7,34.41 a 0.5,0.5 0 0 1 0.18,-0.68 L 58,28.55 V 18.07 a 0.5,0.5 0 0 1 0.5,-0.5 h 0.42 a 0.51,0.51 0 0 1 0.5,0.5 v 10.48 l 8.12,4.7 v -9.91 a 0.48,0.48 0 0 1 0.25,-0.43 0.53,0.53 0 0 1 0.46,0 0.51,0.51 0 0 1 0.45,0 0.48,0.48 0 0 1 0.25,0.43 v 11 a 0.48,0.48 0 0 1 -0.25,0.43 l -0.42,0.25 A 0.51,0.51 0 0 1 68,35.09 Z"
           id="path6228-3" />
        <polygon
           style="fill:#d0d2d3;stroke-width:1.81340086"
           class="cls-3"
           points="58.87,18.07 68.19,23.46 78.28,17.63 58.87,6.43 "
           id="polygon6230-1" />
        <path
           style="fill:#666666;stroke-width:1.81340086"
           class="cls-1"
           d="M 68.2,24 A 0.43,0.43 0 0 1 67.95,23.93 L 58.62,18.55 A 0.5,0.5 0 0 1 58.37,18.11 V 6.43 A 0.5,0.5 0 0 1 59.12,6 l 19.41,11.2 a 0.5,0.5 0 0 1 0,0.87 L 68.45,23.89 A 0.47,0.47 0 0 1 68.2,24 Z M 59.37,17.83 68.2,22.92 77.28,17.67 59.37,7.29 Z"
           id="path6232-8" />
        <polygon
           style="fill:#d0d2d3;stroke-width:1.81340086"
           class="cls-3"
           points="58.89,51.5 78.3,40.28 78.3,28.63 58.89,39.85 "
           id="polygon6234-3" />
        <path
           style="fill:#666666;stroke-width:1.81340086"
           class="cls-1"
           d="M 58.89,52 A 0.43,0.43 0 0 1 58.64,51.93 0.48,0.48 0 0 1 58.39,51.5 V 39.85 a 0.5,0.5 0 0 1 0.25,-0.44 L 78.05,28.2 a 0.5,0.5 0 0 1 0.5,0 0.48,0.48 0 0 1 0.25,0.43 v 11.65 a 0.5,0.5 0 0 1 -0.25,0.44 L 59.14,51.93 A 0.47,0.47 0 0 1 58.89,52 Z m 0.5,-11.86 V 50.63 L 77.8,40 V 29.5 Z"
           id="path6236-4" />
        <polygon
           style="fill:#d0d2d3;stroke-width:1.81340086"
           class="cls-3"
           points="39.26,40.43 58.47,51.48 58.47,39.84 49.34,34.59 "
           id="polygon6238-2" />
        <path
           style="fill:#666666;stroke-width:1.81340086"
           class="cls-1"
           d="M 58.47,52 A 0.45,0.45 0 0 1 58.22,51.93 L 39,40.86 A 0.5,0.5 0 0 1 38.75,40.43 0.52,0.52 0 0 1 39,40 l 10.08,-5.83 a 0.5,0.5 0 0 1 0.5,0 l 9.13,5.25 a 0.5,0.5 0 0 1 0.25,0.43 V 51.48 A 0.48,0.48 0 0 1 58.71,51.91 0.45,0.45 0 0 1 58.47,52 Z M 40.26,40.43 58,50.62 V 40.13 l -8.63,-5 z"
           id="path6240-2" />
        <path
           style="fill:#666666;stroke-width:1.81340086"
           class="cls-1"
           d="M 60.33,67 64.06,67.54 61.55,70 61.36,70.19 62,73.9 58.89,72.26 58.66,72.14 55.33,73.9 c 0.23,-1.31 0.59,-3.46 0.59,-3.46 V 70.19 L 53.22,67.56 56.69,67.05 57,67 l 1.66,-3.38 1.56,3.14 z"
           id="path6242-4" />
        <polygon
           style="fill:#ffcc02;stroke-width:1.81340086"
           class="cls-4"
           points="108.2,100.39 108.2,94.53 117.33,94.53 114.1,85.41 117.33,76.24 103.11,76.24 108.2,82.11 9.12,82.11 14.21,76.24 0,76.24 3.23,85.41 0,94.53 9.12,94.53 9.12,100.39 "
           id="polygon6244-5" />
        <polygon
           style="fill:#cda52c;stroke-width:1.81340086"
           class="cls-5"
           points="103.11,76.24 103.11,82.11 108.2,82.11 "
           id="polygon6246-1" />
        <polygon
           style="fill:#cda52c;stroke-width:1.81340086"
           class="cls-5"
           points="14.21,76.24 14.21,82.11 9.12,82.11 "
           id="polygon6248-7" />
        <path
           style="fill:#ffffff;stroke-width:1.81340086"
           class="cls-6"
           d="m 30.29,88.56 h -2 A 0.24,0.24 0 0 1 28.05,88.32 V 87.25 A 0.25,0.25 0 0 1 28.3,87 H 34 a 0.25,0.25 0 0 1 0.25,0.25 v 1.07 A 0.24,0.24 0 0 1 34,88.56 h -2 v 7.3 a 0.25,0.25 0 0 1 -0.25,0.24 h -1.21 a 0.25,0.25 0 0 1 -0.25,-0.24 z"
           id="path6250-5" />
        <path
           style="fill:#ffffff;stroke-width:1.81340086"
           class="cls-6"
           d="M 36.75,87.25 A 0.25,0.25 0 0 1 37,87 h 3.72 a 2.81,2.81 0 0 1 2.83,2.8 2.86,2.86 0 0 1 -1.92,2.62 l 1.78,3.31 a 0.24,0.24 0 0 1 -0.22,0.37 h -1.37 a 0.21,0.21 0 0 1 -0.2,-0.11 l -1.73,-3.45 h -1.45 v 3.32 A 0.24,0.24 0 0 1 38.2,96.1 H 37 a 0.25,0.25 0 0 1 -0.25,-0.24 z m 3.83,3.9 a 1.33,1.33 0 0 0 1.28,-1.33 1.29,1.29 0 0 0 -1.28,-1.26 h -2.12 v 2.59 z"
           id="path6252-7" />
        <path
           style="fill:#ffffff;stroke-width:1.81340086"
           class="cls-6"
           d="M 46.45,87.25 A 0.26,0.26 0 0 1 46.7,87 h 1.23 a 0.25,0.25 0 0 1 0.25,0.25 v 5.32 a 1.89,1.89 0 1 0 3.78,0 V 87.25 A 0.25,0.25 0 0 1 52.21,87 h 1.24 a 0.25,0.25 0 0 1 0.24,0.25 v 5.41 a 3.62,3.62 0 0 1 -7.24,0 z"
           id="path6254-1" />
        <path
           style="fill:#ffffff;stroke-width:1.81340086"
           class="cls-6"
           d="M 56.56,94.83 57,94 a 0.3,0.3 0 0 1 0.44,-0.09 4.32,4.32 0 0 0 2,0.81 1.08,1.08 0 0 0 1.18,-1 c 0,-0.67 -0.56,-1.12 -1.65,-1.56 -1.09,-0.44 -2.44,-1.28 -2.44,-2.81 0,-1.16 0.85,-2.5 2.92,-2.5 a 4.6,4.6 0 0 1 2.6,0.87 0.33,0.33 0 0 1 0.08,0.43 l -0.5,0.74 a 0.34,0.34 0 0 1 -0.45,0.16 4.17,4.17 0 0 0 -1.81,-0.72 1,1 0 0 0 -1.14,0.91 c 0,0.62 0.48,1 1.53,1.46 1.26,0.51 2.72,1.26 2.72,2.94 a 2.74,2.74 0 0 1 -3,2.57 4.17,4.17 0 0 1 -2.86,-1 C 56.51,95.1 56.45,95 56.56,94.83 Z"
           id="path6256-6" />
        <path
           style="fill:#ffffff;stroke-width:1.81340086"
           class="cls-6"
           d="m 66.54,88.56 h -2 A 0.24,0.24 0 0 1 64.29,88.32 V 87.25 A 0.25,0.25 0 0 1 64.54,87 h 5.68 a 0.25,0.25 0 0 1 0.24,0.25 v 1.07 a 0.24,0.24 0 0 1 -0.24,0.24 h -2 v 7.3 a 0.25,0.25 0 0 1 -0.25,0.24 h -1.19 a 0.24,0.24 0 0 1 -0.24,-0.24 z"
           id="path6258-9" />
        <path
           style="fill:#ffffff;stroke-width:1.81340086"
           class="cls-6"
           d="M 73,87.25 A 0.25,0.25 0 0 1 73.24,87 h 5.29 a 0.25,0.25 0 0 1 0.25,0.25 v 1.07 a 0.24,0.24 0 0 1 -0.25,0.24 h -3.84 v 2.13 h 3.21 a 0.25,0.25 0 0 1 0.24,0.25 V 92 a 0.25,0.25 0 0 1 -0.24,0.25 h -3.21 v 2.27 h 3.84 a 0.25,0.25 0 0 1 0.25,0.25 v 1.07 a 0.24,0.24 0 0 1 -0.25,0.24 H 73.24 A 0.24,0.24 0 0 1 73,95.84 Z"
           id="path6260-8" />
        <path
           style="fill:#ffffff;stroke-width:1.81340086"
           class="cls-6"
           d="M 81.81,87.25 A 0.25,0.25 0 0 1 82.06,87 h 5.29 a 0.25,0.25 0 0 1 0.25,0.25 v 1.07 a 0.25,0.25 0 0 1 -0.25,0.24 H 83.5 v 2.13 h 3.21 a 0.26,0.26 0 0 1 0.25,0.25 V 92 a 0.25,0.25 0 0 1 -0.25,0.25 H 83.5 v 2.27 h 3.85 a 0.25,0.25 0 0 1 0.25,0.25 v 1.07 a 0.25,0.25 0 0 1 -0.25,0.24 h -5.29 a 0.24,0.24 0 0 1 -0.25,-0.24 z"
           id="path6262-1" />
      </g>
    </g>
  </g>
</svg>
