<?xml version="1.0" encoding="UTF-8" standalone="no"?>
<svg
   xmlns:dc="http://purl.org/dc/elements/1.1/"
   xmlns:cc="http://creativecommons.org/ns#"
   xmlns:rdf="http://www.w3.org/1999/02/22-rdf-syntax-ns#"
   xmlns:svg="http://www.w3.org/2000/svg"
   xmlns="http://www.w3.org/2000/svg"
   id="svg41297"
   version="1.1"
   viewBox="0 0 17.118975 18.454"
   height="18.454mm"
   width="17.118975mm">
  <defs
     id="defs41291" />
  <metadata
     id="metadata41294">
    <rdf:RDF>
      <cc:Work
         rdf:about="">
        <dc:format>image/svg+xml</dc:format>
        <dc:type
           rdf:resource="http://purl.org/dc/dcmitype/StillImage" />
        <dc:title></dc:title>
      </cc:Work>
    </rdf:RDF>
  </metadata>
  <g
     transform="translate(32.371987,-139.60633)"
     id="layer1">
    <g
       style="stroke-width:1.81340086"
       transform="matrix(0.14590449,0,0,0.14590449,-32.371987,139.60633)"
       id="Layer_2-610-0"
       data-name="Layer 2">
      <g
         style="stroke-width:1.81340086"
         id="Layer_1-2-61-4"
         data-name="Layer 1">
        <path
           style="fill:#666666;stroke-width:1.81340086"
           class="cls-1"
           d="M 105,27.76 A 141.73,141.73 0 0 0 84,22.44 v 5.08 A 135.37,135.37 0 0 1 101.81,32 c 0.29,51.38 -20.91,72.36 -43.15,88.93 v 0 C 36.42,104.32 15.22,83.34 15.51,32 a 133.59,133.59 0 0 1 17.78,-4.45 v -5.11 a 140.56,140.56 0 0 0 -21,5.37 2.48,2.48 0 0 0 -1.68,2.32 c -0.84,56 22.44,78 46.42,95.71 a 2.52,2.52 0 0 0 1.68,0.64 v 0 a 2.51,2.51 0 0 0 1.74,-0.7 C 84.34,108.16 107.51,86.2 106.8,30.57 a 2.73,2.73 0 0 0 0,-0.41 2.48,2.48 0 0 0 -1.8,-2.4 z"
           id="path5147-1" />
        <path
           style="fill:#cfd1d2;stroke-width:1.81340086"
           class="cls-2"
           d="m 96.82,35.63 c -0.66,46.09 -19.94,65 -38.16,79 -18.21,-14 -37.49,-32.93 -38.15,-79 a 131.25,131.25 0 0 1 12.78,-3.05 v -1.7 a 132.55,132.55 0 0 0 -13.86,3.34 0.84,0.84 0 0 0 -0.59,0.8 c 0.51,47.72 20.57,67 39.32,81.33 a 0.84,0.84 0 0 0 1,0 C 77.92,102 98,82.74 98.49,35 A 0.85,0.85 0 0 0 97.9,34.19 134.89,134.89 0 0 0 84.05,30.86 v 1.69 a 131.09,131.09 0 0 1 12.77,3.08 z"
           id="path5149-1" />
        <path
           style="fill:#666666;stroke-width:1.81340086"
           class="cls-1"
           d="M 59.53,0.17 59.24,0 H 58.07 L 33.85,14 33.27,15 V 43.33 L 58.94,58.12 84.06,43.6 V 14.31 Z M 58.94,55.27 35.77,41.92 V 15.76 L 58.66,2.51 81.57,15.73 v 26.45 z"
           id="path5151-3" />
        <polygon
           style="fill:#d0d2d3;stroke-width:1.81340086"
           class="cls-3"
           points="39.23,17.54 49.34,23.35 58.45,18.07 58.45,6.43 "
           id="polygon5153-5" />
        <path
           style="fill:#666666;stroke-width:1.81340086"
           class="cls-1"
           d="M 49.34,23.85 A 0.47,0.47 0 0 1 49.09,23.78 L 39,18 a 0.5,0.5 0 0 1 0,-0.87 L 58.2,6 a 0.5,0.5 0 0 1 0.5,0 0.47,0.47 0 0 1 0.25,0.43 v 11.64 a 0.5,0.5 0 0 1 -0.25,0.44 l -9.11,5.27 a 0.45,0.45 0 0 1 -0.25,0.07 z m -9.11,-6.32 9.11,5.24 8.61,-5 V 7.29 Z"
           id="path5155-9" />
        <polygon
           style="fill:#d0d2d3;stroke-width:1.81340086"
           class="cls-3"
           points="49.13,34.23 49.13,23.71 39.03,17.89 39.06,40.07 "
           id="polygon5157-3" />
        <path
           style="fill:#666666;stroke-width:1.81340086"
           class="cls-1"
           d="M 39.06,40.57 A 0.45,0.45 0 0 1 38.81,40.5 0.48,0.48 0 0 1 38.56,40.07 V 17.89 a 0.48,0.48 0 0 1 0.25,-0.43 0.5,0.5 0 0 1 0.5,0 l 10.1,5.81 a 0.51,0.51 0 0 1 0.26,0.44 v 10.52 a 0.5,0.5 0 0 1 -0.25,0.43 L 39.31,40.5 a 0.47,0.47 0 0 1 -0.25,0.07 z M 39.53,18.76 V 39.2 l 9.08,-5.26 V 24 Z"
           id="path5159-4" />
        <polygon
           style="fill:#d0d2d3;stroke-width:1.81340086"
           class="cls-3"
           points="58.87,28.84 58.87,18.07 58.45,18.07 58.45,28.84 49.13,34.23 49.34,34.59 58.66,29.19 67.98,34.59 68.4,34.35 68.4,23.34 68.2,23.46 67.99,23.34 67.99,34.12 "
           id="polygon5161-1" />
        <path
           style="fill:#666666;stroke-width:1.81340086"
           class="cls-1"
           d="M 68,35.09 A 0.57,0.57 0 0 1 67.75,35.03 L 58.68,29.77 49.59,35 a 0.46,0.46 0 0 1 -0.38,0 0.47,0.47 0 0 1 -0.3,-0.23 L 48.7,34.41 a 0.5,0.5 0 0 1 0.18,-0.68 L 58,28.55 V 18.07 a 0.51,0.51 0 0 1 0.5,-0.5 h 0.42 a 0.51,0.51 0 0 1 0.5,0.5 v 10.48 l 8.12,4.7 v -9.91 a 0.48,0.48 0 0 1 0.25,-0.43 0.53,0.53 0 0 1 0.46,0 0.51,0.51 0 0 1 0.45,0 0.48,0.48 0 0 1 0.25,0.43 v 11 a 0.48,0.48 0 0 1 -0.25,0.43 l -0.42,0.25 A 0.51,0.51 0 0 1 68,35.09 Z"
           id="path5163-5" />
        <polygon
           style="fill:#d0d2d3;stroke-width:1.81340086"
           class="cls-3"
           points="58.87,18.07 68.19,23.46 78.28,17.63 58.87,6.43 "
           id="polygon5165-0" />
        <path
           style="fill:#666666;stroke-width:1.81340086"
           class="cls-1"
           d="M 68.2,24 A 0.43,0.43 0 0 1 67.95,23.93 L 58.62,18.55 A 0.5,0.5 0 0 1 58.37,18.11 V 6.43 A 0.5,0.5 0 0 1 59.12,6 l 19.41,11.2 a 0.5,0.5 0 0 1 0,0.87 L 68.45,23.89 A 0.47,0.47 0 0 1 68.2,24 Z M 59.37,17.83 68.2,22.92 77.28,17.67 59.37,7.29 Z"
           id="path5167-8" />
        <polygon
           style="fill:#d0d2d3;stroke-width:1.81340086"
           class="cls-3"
           points="58.89,51.5 78.3,40.28 78.3,28.63 58.89,39.85 "
           id="polygon5169-3" />
        <path
           style="fill:#666666;stroke-width:1.81340086"
           class="cls-1"
           d="M 58.89,52 A 0.43,0.43 0 0 1 58.64,51.93 0.48,0.48 0 0 1 58.39,51.5 V 39.85 a 0.5,0.5 0 0 1 0.25,-0.44 L 78.05,28.2 a 0.5,0.5 0 0 1 0.5,0 0.48,0.48 0 0 1 0.25,0.43 v 11.65 a 0.5,0.5 0 0 1 -0.25,0.44 L 59.14,51.93 A 0.47,0.47 0 0 1 58.89,52 Z m 0.5,-11.86 V 50.63 L 77.8,40 V 29.5 Z"
           id="path5171-5" />
        <polygon
           style="fill:#d0d2d3;stroke-width:1.81340086"
           class="cls-3"
           points="39.26,40.43 58.47,51.48 58.47,39.84 49.34,34.59 "
           id="polygon5173-6" />
        <path
           style="fill:#666666;stroke-width:1.81340086"
           class="cls-1"
           d="M 58.47,52 A 0.47,0.47 0 0 1 58.22,51.93 L 39,40.86 A 0.5,0.5 0 0 1 38.75,40.43 0.52,0.52 0 0 1 39,40 l 10.08,-5.83 a 0.5,0.5 0 0 1 0.5,0 l 9.13,5.25 a 0.5,0.5 0 0 1 0.25,0.43 V 51.48 A 0.48,0.48 0 0 1 58.71,51.91 0.45,0.45 0 0 1 58.47,52 Z M 40.26,40.43 58,50.62 V 40.13 l -8.63,-5 z"
           id="path5175-5" />
        <path
           style="fill:#666666;stroke-width:1.81340086"
           class="cls-1"
           d="m 37.81,67.88 3.73,0.54 c -0.48,0.46 -1.25,1.21 -2.51,2.45 l -0.19,0.18 0.64,3.71 -3.11,-1.63 -0.23,-0.13 -3.33,1.75 c 0.23,-1.31 0.59,-3.46 0.59,-3.46 l 0.05,-0.25 -2.7,-2.63 3.47,-0.5 h 0.26 l 1.66,-3.38 1.56,3.15 z"
           id="path5177-9" />
        <path
           style="fill:#666666;stroke-width:1.81340086"
           class="cls-1"
           d="m 52.82,67.88 3.73,0.54 -2.55,2.45 -0.19,0.18 0.64,3.71 -3.1,-1.63 -0.19,-0.13 -3.34,1.75 c 0.23,-1.31 0.6,-3.46 0.6,-3.46 v -0.25 l -2.7,-2.63 3.47,-0.5 h 0.26 l 1.67,-3.38 1.55,3.15 z"
           id="path5179-9" />
        <path
           style="fill:#666666;stroke-width:1.81340086"
           class="cls-1"
           d="m 67.84,67.88 3.72,0.54 -2.51,2.45 -0.18,0.18 0.63,3.71 -3.1,-1.63 -0.23,-0.13 -3.33,1.75 c 0.22,-1.31 0.59,-3.46 0.59,-3.46 v -0.25 l -2.69,-2.63 3.47,-0.5 h 0.25 l 1.67,-3.38 c 0.29,0.59 0.77,1.55 1.55,3.15 z"
           id="path5181-0" />
        <path
           style="fill:#666666;stroke-width:1.81340086"
           class="cls-1"
           d="m 82.85,67.88 3.73,0.54 c -0.48,0.46 -1.25,1.21 -2.51,2.45 l -0.19,0.18 0.64,3.71 -3.11,-1.63 -0.23,-0.13 -3.33,1.75 c 0.23,-1.31 0.59,-3.46 0.59,-3.46 v -0.25 l -2.7,-2.63 3.47,-0.5 h 0.26 l 1.66,-3.38 1.56,3.15 z"
           id="path5183-7" />
        <polygon
           style="fill:#4d8fcc;stroke-width:1.81340086"
           class="cls-4"
           points="3.23,85.41 0,94.53 9.12,94.53 9.12,100.39 108.2,100.39 108.2,94.53 117.33,94.53 114.1,85.41 117.33,76.24 103.11,76.24 108.2,82.11 9.12,82.11 14.21,76.24 0,76.24 "
           id="polygon5185-6" />
        <polygon
           style="fill:#2f73b0;stroke-width:1.81340086"
           class="cls-5"
           points="108.2,82.11 103.11,76.24 103.11,82.11 "
           id="polygon5187-3" />
        <polygon
           style="fill:#2f73b0;stroke-width:1.81340086"
           class="cls-5"
           points="9.12,82.11 14.21,76.24 14.21,82.11 "
           id="polygon5189-7" />
        <path
           style="fill:#ffffff;stroke-width:1.81340086"
           class="cls-6"
           d="m 25.14,86.87 a 5,5 0 0 1 3.18,1.21 0.27,0.27 0 0 1 0,0.37 l -0.81,0.84 a 0.22,0.22 0 0 1 -0.33,0 3,3 0 1 0 -2,5.24 3.93,3.93 0 0 0 1.54,-0.33 v -1.1 h -1 a 0.23,0.23 0 0 1 -0.24,-0.23 v -1 a 0.24,0.24 0 0 1 0.24,-0.25 h 2.5 a 0.24,0.24 0 0 1 0.23,0.25 v 3.33 a 0.23,0.23 0 0 1 -0.1,0.2 6.55,6.55 0 0 1 -3.23,0.85 4.68,4.68 0 0 1 0,-9.35 z"
           id="path5191-6" />
        <path
           style="fill:#ffffff;stroke-width:1.81340086"
           class="cls-6"
           d="M 31.42,87.25 A 0.26,0.26 0 0 1 31.67,87 h 1.24 a 0.25,0.25 0 0 1 0.24,0.25 v 5.32 a 1.9,1.9 0 1 0 3.79,0 V 87.25 A 0.25,0.25 0 0 1 37.18,87 h 1.24 a 0.26,0.26 0 0 1 0.25,0.25 v 5.41 a 3.63,3.63 0 0 1 -7.25,0 z"
           id="path5193-1" />
        <path
           style="fill:#ffffff;stroke-width:1.81340086"
           class="cls-6"
           d="m 40.76,95.76 4,-8.74 a 0.23,0.23 0 0 1 0.22,-0.15 h 0.13 a 0.22,0.22 0 0 1 0.22,0.15 l 4,8.74 A 0.23,0.23 0 0 1 49.11,96.1 H 48 A 0.37,0.37 0 0 1 47.63,95.84 L 47,94.44 h -3.88 l -0.63,1.4 A 0.4,0.4 0 0 1 42.11,96.1 H 41 A 0.23,0.23 0 0 1 40.76,95.76 Z M 46.37,93 45.07,90.15 v 0 L 43.76,93 Z"
           id="path5195-5" />
        <path
           style="fill:#ffffff;stroke-width:1.81340086"
           class="cls-6"
           d="M 51.73,87.25 A 0.25,0.25 0 0 1 52,87 h 3.71 a 2.82,2.82 0 0 1 2.84,2.8 2.86,2.86 0 0 1 -1.93,2.62 l 1.79,3.3 A 0.25,0.25 0 0 1 58.18,96.1 H 56.8 a 0.22,0.22 0 0 1 -0.21,-0.12 l -1.73,-3.44 h -1.44 v 3.32 A 0.26,0.26 0 0 1 53.17,96.1 H 52 a 0.25,0.25 0 0 1 -0.25,-0.24 z m 3.82,3.9 a 1.33,1.33 0 0 0 1.29,-1.33 1.29,1.29 0 0 0 -1.29,-1.26 h -2.12 v 2.59 z"
           id="path5197-0" />
        <path
           style="fill:#ffffff;stroke-width:1.81340086"
           class="cls-6"
           d="M 61.56,87.25 A 0.24,0.24 0 0 1 61.79,87 h 3.08 a 4.55,4.55 0 1 1 0,9.1 h -3.08 a 0.24,0.24 0 0 1 -0.23,-0.24 z m 3.16,7.27 a 3,3 0 0 0 0,-6 h -1.49 v 6 z"
           id="path5199-6" />
        <path
           style="fill:#ffffff;stroke-width:1.81340086"
           class="cls-6"
           d="M 72.32,87.25 A 0.26,0.26 0 0 1 72.57,87 h 1.21 a 0.25,0.25 0 0 1 0.24,0.25 v 8.61 a 0.25,0.25 0 0 1 -0.24,0.24 h -1.21 a 0.26,0.26 0 0 1 -0.25,-0.24 z"
           id="path5201-5" />
        <path
           style="fill:#ffffff;stroke-width:1.81340086"
           class="cls-6"
           d="m 76.38,95.76 4,-8.74 a 0.23,0.23 0 0 1 0.22,-0.15 h 0.13 A 0.22,0.22 0 0 1 81,87 l 4,8.74 a 0.24,0.24 0 0 1 -0.23,0.34 h -1.13 a 0.37,0.37 0 0 1 -0.37,-0.26 l -0.64,-1.4 h -3.89 l -0.63,1.4 a 0.4,0.4 0 0 1 -0.38,0.26 H 76.6 A 0.23,0.23 0 0 1 76.38,95.76 Z M 82,93 80.7,90.15 v 0 L 79.38,93 Z"
           id="path5203-0" />
        <path
           style="fill:#ffffff;stroke-width:1.81340086"
           class="cls-6"
           d="m 87.35,87.11 a 0.25,0.25 0 0 1 0.25,-0.24 h 0.32 l 5.41,5.75 v 0 -5.37 A 0.25,0.25 0 0 1 93.58,87 h 1.19 a 0.25,0.25 0 0 1 0.25,0.25 V 96 a 0.24,0.24 0 0 1 -0.25,0.23 h -0.31 l -5.43,-6 v 0 5.59 a 0.25,0.25 0 0 1 -0.25,0.24 H 87.6 a 0.26,0.26 0 0 1 -0.25,-0.24 z"
           id="path5205-8" />
      </g>
    </g>
  </g>
</svg>
