<?xml version="1.0" encoding="UTF-8" standalone="no"?>
<svg
   xmlns:dc="http://purl.org/dc/elements/1.1/"
   xmlns:cc="http://creativecommons.org/ns#"
   xmlns:rdf="http://www.w3.org/1999/02/22-rdf-syntax-ns#"
   xmlns:svg="http://www.w3.org/2000/svg"
   xmlns="http://www.w3.org/2000/svg"
   id="svg72599"
   version="1.1"
   viewBox="0 0 23.003063 18.454"
   height="18.454mm"
   width="23.003063mm">
  <defs
     id="defs72593" />
  <metadata
     id="metadata72596">
    <rdf:RDF>
      <cc:Work
         rdf:about="">
        <dc:format>image/svg+xml</dc:format>
        <dc:type
           rdf:resource="http://purl.org/dc/dcmitype/StillImage" />
        <dc:title></dc:title>
      </cc:Work>
    </rdf:RDF>
  </metadata>
  <g
     transform="translate(689.59082,-42.844429)"
     id="layer1">
    <g
       style="stroke-width:0.82642525"
       transform="matrix(0.32015398,0,0,0.32015398,-689.59082,42.844753)"
       id="Layer_2-15-8"
       data-name="Layer 2">
      <g
         style="stroke-width:0.82642525"
         id="Layer_1-2-54-7"
         data-name="Layer 1">
        <path
           style="fill:#666666;stroke-width:0.82642525"
           class="cls-1"
           d="M 71.85,32.33 A 15,15 0 0 0 58,17.57 14.06,14.06 0 0 0 58.4,14.27 14.45,14.45 0 0 0 43.78,0 14.67,14.67 0 0 0 31.05,7.3 16.33,16.33 0 0 0 28.63,7.11 15.2,15.2 0 0 0 14.15,17.54 15,15 0 0 0 0,32.33 14.83,14.83 0 0 0 10.59,46.39 c 0,-0.35 -0.05,-0.69 -0.05,-1.06 A 16.6,16.6 0 0 1 10.72,42.93 11.48,11.48 0 0 1 3.37,32.33 11.63,11.63 0 0 1 15,20.89 a 12,12 0 0 1 4.71,0.95 1.12,1.12 0 1 0 0.87,-2.06 14.13,14.13 0 0 0 -3.28,-1 11.79,11.79 0 0 1 11.34,-8.35 h 0.29 a 12.51,12.51 0 0 1 8,3 1.11,1.11 0 0 0 0.72,0.27 1.12,1.12 0 0 0 0.73,-2 14.9,14.9 0 0 0 -4.45,-2.6 11.29,11.29 0 0 1 9.9,-5.76 11.08,11.08 0 0 1 11.17,10.93 10.56,10.56 0 0 1 -0.91,4.29 1.61,1.61 0 0 0 -0.1,0.36 14.31,14.31 0 0 0 -4.49,1.74 1.12,1.12 0 0 0 0.58,2.08 1.1,1.1 0 0 0 0.57,-0.16 12.25,12.25 0 0 1 5.39,-1.68 h 0.64 a 11.59,11.59 0 0 1 11.8,11.37 11.56,11.56 0 0 1 -8.82,11.09 17.86,17.86 0 0 1 0.11,2 c 0,0.53 0,1 -0.07,1.52 A 14.93,14.93 0 0 0 71.85,32.33 Z"
           id="path3190-9" />
        <path
           style="fill:#666666;stroke-width:0.82642525"
           class="cls-1"
           d="m 46,33 a 13.25,13.25 0 0 0 -6.65,1.76 23.34,23.34 0 0 0 -4.14,3.51 C 34.97,38 34.73,37.74 34.48,37.48 A 16,16 0 0 0 31.94,35.31 13.37,13.37 0 0 0 24.34,33 C 19.4,33 12,36.3 12,45.33 c 0,9.03 7.4,12.31 12.43,12.31 a 13.26,13.26 0 0 0 7.45,-2.29 17,17 0 0 0 2.57,-2.18 c 0.24,-0.25 0.48,-0.51 0.71,-0.77 A 14,14 0 0 0 46,57.64 c 4.95,0 12.31,-3.27 12.31,-12.31 C 58.31,36.29 50.91,33 46,33 Z m 0,5.41 a 7.89,7.89 0 0 0 -5.72,2.32 L 40,39.2 38.75,39 A 12.85,12.85 0 0 1 40.81,37.36 10.24,10.24 0 0 1 46,36 a 9.71,9.71 0 0 1 7.44,3.49 l -0.29,1.33 -1.52,0.21 A 6.88,6.88 0 0 0 46,38.43 Z m 0,10.81 c -2.13,0 -3.57,-1 -5.7,-3.9 2.16,-3 3.6,-3.91 5.71,-3.91 a 3.58,3.58 0 0 1 3.91,3.9 C 49.87,48.68 47.4,49.22 46,49.24 Z m 0,-9.31 z M 32.32,39.57 c 0.33,0.34 0.66,0.71 1,1.08 L 33.48,40.83 32,43 a 14.32,14.32 0 0 0 -3,-3.08 l 0.2,-1.44 1.5,-0.26 a 13.55,13.55 0 0 1 1.59,1.37 z m -7.95,9.65 a 3.58,3.58 0 0 1 -3.9,-3.91 c 0,-3.34 2.45,-3.88 3.91,-3.9 2.11,0 3.55,1 5.7,3.91 -2.17,2.95 -3.62,3.92 -5.74,3.92 z m 5.87,-11.43 c 0,0 0.05,0 0.07,0 l -1.43,0.25 -0.21,1.55 a 7.7,7.7 0 0 0 -4.3,-1.23 v 0 a 6.75,6.75 0 0 0 -6.13,3.51 l -1.73,0.37 -0.54,-1.19 a 9.37,9.37 0 0 1 8.37,-5.05 10.37,10.37 0 0 1 5.87,1.81 z m -11.3,7.53 z m -3.9,0 a 9.72,9.72 0 0 1 0.71,-3.7 l 0.5,1.1 1.75,-0.36 a 7.75,7.75 0 0 0 -0.56,3 6.42,6.42 0 0 0 3.49,6.11 l 0.23,1.32 -1.45,0.71 A 8.68,8.68 0 0 1 15,45.33 Z m 15.16,7.55 a 10.43,10.43 0 0 1 -5.86,1.77 10.2,10.2 0 0 1 -4.19,-1 L 21.57,53 21.34,51.65 a 7.71,7.71 0 0 0 3,0.62 8.1,8.1 0 0 0 6.17,-2.78 l 1.49,0.31 0.12,1.48 a 14.91,14.91 0 0 1 -1.92,1.59 z m 6.39,-7.57 -2.21,3.37 v 0 l -1.18,1.41 c -0.25,0.29 -0.51,0.57 -0.77,0.85 l -0.11,-1.42 -1.51,-0.36 a 26.21,26.21 0 0 0 2.11,-2.67 l 0.76,-1.12 v 0 l 2.62,-3.92 c 0.43,-0.48 1.21,-1.3 2.08,-2.12 l 1.24,0.19 0.28,1.56 a 23,23 0 0 0 -2.5,3.07 l -0.82,1.16 z m 1.29,5.61 c -0.34,-0.36 -0.67,-0.72 -1,-1.08 l 1.41,-2.07 c 0.4,0.52 0.8,1 1.2,1.42 l -1.39,0.28 z m 8,5.23 z m 0,0 z m 0,0 z m 0,0 z m 0,0 z m -7.75,-4.9 0.25,-1.47 1.38,-0.27 a 8.12,8.12 0 0 0 6.24,2.74 7.83,7.83 0 0 0 3.86,-1.07 l -0.17,1.44 1.47,0.52 A 10.19,10.19 0 0 1 46,54.64 10.58,10.58 0 0 1 38.2,51.24 Z m 13.32,1.64 -1.46,-0.52 0.18,-1.46 A 6.42,6.42 0 0 0 52.8,45.33 7.18,7.18 0 0 0 51.72,41.39 L 53.35,41.17 53.68,40 a 9.21,9.21 0 0 1 1.59,5.38 8.68,8.68 0 0 1 -3.75,7.5 z m 5.25,-7.52 z"
           id="path3192-0" />
      </g>
    </g>
  </g>
</svg>
