<?xml version="1.0" encoding="UTF-8" standalone="no"?>
<svg
   xmlns:dc="http://purl.org/dc/elements/1.1/"
   xmlns:cc="http://creativecommons.org/ns#"
   xmlns:rdf="http://www.w3.org/1999/02/22-rdf-syntax-ns#"
   xmlns:svg="http://www.w3.org/2000/svg"
   xmlns="http://www.w3.org/2000/svg"
   id="svg176233"
   version="1.1"
   viewBox="0 0 18.598684 18.454"
   height="18.454mm"
   width="18.598684mm">
  <defs
     id="defs176227" />
  <metadata
     id="metadata176230">
    <rdf:RDF>
      <cc:Work
         rdf:about="">
        <dc:format>image/svg+xml</dc:format>
        <dc:type
           rdf:resource="http://purl.org/dc/dcmitype/StillImage" />
        <dc:title></dc:title>
      </cc:Work>
    </rdf:RDF>
  </metadata>
  <g
     transform="translate(-329.36732,-38.308714)"
     id="layer1">
    <g
       style="stroke-width:1.01985598"
       transform="matrix(0.25943205,0,0,0.25943205,329.36732,38.308893)"
       id="Layer_2-7-6"
       data-name="Layer 2">
      <g
         style="stroke-width:1.01985598"
         id="Layer_1-2-0-8"
         data-name="Layer 1">
        <path
           style="fill:#666666;stroke-width:1.01985598"
           class="cls-1"
           d="M 57.86,17.53 A 13.9,13.9 0 0 0 58.25,14.24 14.42,14.42 0 0 0 43.69,0 14.64,14.64 0 0 0 31,7.29 15.25,15.25 0 0 0 14.12,17.51 15,15 0 0 0 0,32.26 15,15 0 0 0 15.12,47.05 h 0.47 C 15.36,45.96 15.16,44.85 15,43.68 A 11.6,11.6 0 0 1 3.36,32.26 11.61,11.61 0 0 1 15,20.84 a 12.19,12.19 0 0 1 4.7,1 1.1226976,1.1226976 0 0 0 0.87,-2.07 14.61,14.61 0 0 0 -3.28,-0.94 11.75,11.75 0 0 1 11.31,-8.33 h 0.29 a 12.45,12.45 0 0 1 7.95,2.95 1.09,1.09 0 0 0 0.72,0.27 1.15,1.15 0 0 0 0.86,-0.4 1.12,1.12 0 0 0 -0.13,-1.58 15,15 0 0 0 -4.44,-2.59 11.25,11.25 0 0 1 9.88,-5.75 11.06,11.06 0 0 1 11.2,10.88 10.7,10.7 0 0 1 -0.9,4.28 2.47,2.47 0 0 0 -0.11,0.36 14.17,14.17 0 0 0 -4.47,1.73 1.12,1.12 0 0 0 0.55,2.04 1.16,1.16 0 0 0 0.57,-0.15 12.08,12.08 0 0 1 5.38,-1.68 h 0.64 A 11.56,11.56 0 0 1 68.33,32.21 11.64,11.64 0 0 1 56.69,43.68 c -0.16,1.17 -0.36,2.28 -0.59,3.37 h 0.47 A 15,15 0 0 0 71.69,32.26 14.93,14.93 0 0 0 57.86,17.53 Z"
           id="path2721-3" />
        <path
           style="fill:#666666;stroke-width:1.01985598"
           class="cls-1"
           d="M 35.85,71.13 A 1.71,1.71 0 0 1 35.11,70.96 C 34.36,70.6 16.8,61.78 16.8,36.96 a 1.68,1.68 0 0 1 1.42,-1.66 c 6.75,-1.08 12.3,-3.58 16.49,-7.42 a 1.68,1.68 0 0 1 2.27,0 c 4.2,3.84 9.74,6.34 16.49,7.42 a 1.68,1.68 0 0 1 1.42,1.7 c 0,24.81 -17.56,33.63 -18.31,34 a 1.7,1.7 0 0 1 -0.73,0.13 z M 20.18,38.37 C 20.75,57.49 32.69,65.7 35.85,67.54 39,65.7 51,57.49 51.51,38.37 a 34.36,34.36 0 0 1 -15.66,-7 34.45,34.45 0 0 1 -15.67,7 z"
           id="path2723-8" />
        <rect
           style="fill:#666666;stroke-width:1.01985598"
           class="cls-1"
           x="20.450001"
           y="45.720001"
           width="30.799999"
           height="2.24"
           transform="rotate(-45.59,35.847129,46.84218)"
           id="rect2725-3" />
        <path
           style="fill:#666666;stroke-width:1.01985598"
           class="cls-1"
           d="m 35.85,64.77 a 0.64,0.64 0 0 1 -0.33,-0.1 28.84,28.84 0 0 1 -4.92,-4.43 0.56,0.56 0 0 1 0,-0.79 0.58,0.58 0 0 1 0.8,0 28,28 0 0 0 4.41,4 C 39.37,61 46.88,54 48,40.55 a 0.55,0.55 0 0 1 0.6,-0.51 0.56,0.56 0 0 1 0.52,0.6 c -1.22,14.33 -9.48,21.58 -13,24 a 0.63,0.63 0 0 1 -0.27,0.13 z"
           id="path2727-3" />
      </g>
    </g>
  </g>
</svg>
