<?xml version="1.0" encoding="UTF-8" standalone="no"?>
<svg
   xmlns:dc="http://purl.org/dc/elements/1.1/"
   xmlns:cc="http://creativecommons.org/ns#"
   xmlns:rdf="http://www.w3.org/1999/02/22-rdf-syntax-ns#"
   xmlns:svg="http://www.w3.org/2000/svg"
   xmlns="http://www.w3.org/2000/svg"
   id="svg183116"
   version="1.1"
   viewBox="0 0 17.691301 18.454"
   height="18.454mm"
   width="17.691301mm">
  <defs
     id="defs183110" />
  <metadata
     id="metadata183113">
    <rdf:RDF>
      <cc:Work
         rdf:about="">
        <dc:format>image/svg+xml</dc:format>
        <dc:type
           rdf:resource="http://purl.org/dc/dcmitype/StillImage" />
        <dc:title></dc:title>
      </cc:Work>
    </rdf:RDF>
  </metadata>
  <g
     transform="translate(-393.32102,-50.403952)"
     id="layer1">
    <g
       style="fill:#58595b;fill-opacity:1;stroke:#58595b;stroke-width:0.92662954;stroke-miterlimit:4;stroke-dasharray:none;stroke-opacity:1"
       transform="matrix(0.21583542,0,0,0.21583653,393.42102,50.5044)"
       id="Layer_2-49"
       data-name="Layer 2">
      <g
         style="fill:#58595b;fill-opacity:1;stroke:#58595b;stroke-width:0.92662954;stroke-miterlimit:4;stroke-dasharray:none;stroke-opacity:1"
         id="Layer_1-2-81"
         data-name="Layer 1">
        <path
           style="fill:#58595b;fill-opacity:1;stroke:#58595b;stroke-width:0.92662954;stroke-miterlimit:4;stroke-dasharray:none;stroke-opacity:1"
           class="cls-1"
           d="m 17.09,46.83 c -7.33,0 -14.26,-6.35 -14.26,-13 0,-6.65 6.83,-12.83 14.07,-12.91 1.84,0 3.63,1.3 5.31,2 a 1.23,1.23 0 0 0 0.49,0.1 1.29,1.29 0 0 0 1.17,-0.72 1.15,1.15 0 0 0 -0.67,-1.54 c -1.2,-0.47 -3.41,-1.77 -4.68,-2 1.6,-5.11 7.8,-8.75 13.75,-8.75 h 0.33 c 3.29,0 6.47,2.08 9,4.06 a 1.31,1.31 0 0 0 0.82,0.28 1.3,1.3 0 0 0 1,-0.42 1.11,1.11 0 0 0 -0.15,-1.65 25.12,25.12 0 0 0 -6,-3.69 c 2.19,-3.69 7.44,-6 12.13,-6 C 56.34,2.56 63,8.65 63,15 a 6.66,6.66 0 0 1 -1,3.53 c -0.05,0.12 -1.06,0.25 -1.08,0.37 -1.78,0.34 -3.49,1.92 -5.06,2.79 a 1.13,1.13 0 0 0 -0.44,1.61 1.29,1.29 0 0 0 1.09,0.57 1.36,1.36 0 0 0 0.65,-0.16 c 1.84,-1 3.93,-2.59 6.07,-2.73 h 1.69 c 7.33,0 13.29,6.28 13.29,12.9 0,6.62 -6.93,13 -14.26,13 v 2.56 c 9.43,0 17.09,-7 17.09,-15.52 0,-8.12 -6.89,-14.8 -15.63,-15.47 A 13.77,13.77 0 0 0 65.81,15 C 65.81,6.71 58.43,0 49.36,0 A 16.81,16.81 0 0 0 35,7.65 19.07,19.07 0 0 0 32.27,7.45 C 24.77,7.45 18.14,12 16,18.38 7.06,18.91 0,25.66 0,33.87 0,42.43 7.66,49.39 17.09,49.39 Z"
           id="path8619" />
        <path
           style="fill:#58595b;fill-opacity:1;stroke:#58595b;stroke-width:0.92662954;stroke-miterlimit:4;stroke-dasharray:none;stroke-opacity:1"
           class="cls-1"
           d="m 40.84,32.51 c -10.62,0 -21.36,2.5 -21.36,7.26 v 8.93 l 0.55,-0.46 a 3,3 0 0 1 2,-0.78 V 43.41 C 25.86,45.8 33.38,47 40.84,47 c 7.46,0 15,-1.23 18.79,-3.62 v 7.12 c -1.72,2 -8.55,4.19 -18.79,4.19 -1.09,0 -2.14,0 -3.15,-0.08 a 3,3 0 0 1 0.58,1.73 c 0.86,0 1.71,0.06 2.57,0.06 7.4,0 15.14,-1.28 18.79,-3.7 v 2.1 c -1.72,2 -8.55,4.19 -18.79,4.19 -0.92,0 -1.8,0 -2.65,-0.05 0,0.58 -0.09,1.14 -0.15,1.7 0.93,0 1.87,0.06 2.8,0.06 7.4,0 15.14,-1.28 18.79,-3.7 v 7.2 c -1.72,2 -8.55,4.18 -18.79,4.18 q -2.39,0 -4.5,-0.15 c -0.2,0.57 -0.41,1.12 -0.64,1.66 1.7,0.13 3.42,0.2 5.14,0.2 7.4,0 15.14,-1.27 18.79,-3.69 v 2.07 c -1.72,2 -8.55,4.18 -18.79,4.18 a 61.07,61.07 0 0 1 -6.3,-0.3 c -0.3,0.56 -0.6,1.1 -0.92,1.61 a 65.92,65.92 0 0 0 7.22,0.4 c 7.4,0 15.14,-1.28 18.79,-3.69 v 6.68 c 0,0.53 -1,1.83 -5,3 A 50.3,50.3 0 0 1 40.81,82.05 51.32,51.32 0 0 1 28,80.62 a 27.14,27.14 0 0 1 -2.49,1.94 51.4,51.4 0 0 0 15.31,2 c 10.61,0 21.35,-2.49 21.35,-7.26 V 39.77 C 62.19,35 51.45,32.51 40.84,32.51 Z m 13.82,10.26 a 50.3,50.3 0 0 1 -13.82,1.7 c -12.16,0 -18.79,-3.1 -18.79,-4.7 0,-0.53 1,-1.83 5,-3 a 50.71,50.71 0 0 1 13.83,-1.7 c 12.15,0 18.79,3.11 18.79,4.7 -0.04,0.53 -1.08,1.83 -5.01,3 z"
           id="path8621" />
        <path
           style="fill:#58595b;fill-opacity:1;stroke:#58595b;stroke-width:0.92662954;stroke-miterlimit:4;stroke-dasharray:none;stroke-opacity:1"
           class="cls-1"
           d="m 22.05,82.48 a 1.32,1.32 0 0 1 -0.56,-0.13 c -0.57,-0.28 -14,-7 -14,-25.92 a 1.28,1.28 0 0 1 1.11,-1.27 23.66,23.66 0 0 0 12.58,-5.66 1.28,1.28 0 0 1 1.73,0 23.66,23.66 0 0 0 12.58,5.66 1.29,1.29 0 0 1 1.08,1.27 c 0,18.92 -13.39,25.64 -14,25.92 a 1.39,1.39 0 0 1 -0.52,0.13 z m -12,-25 c 0.43,14.58 9.54,20.84 12,22.24 2.4,-1.4 11.51,-7.66 11.94,-22.24 A 26.26,26.26 0 0 1 22.05,52.13 26.35,26.35 0 0 1 10.1,57.5 Z"
           id="path8623" />
        <path
           style="fill:#58595b;fill-opacity:1;stroke:#58595b;stroke-width:0.92662954;stroke-miterlimit:4;stroke-dasharray:none;stroke-opacity:1"
           class="cls-1"
           d="M 54.2,49.74 A 0.84,0.84 0 0 1 53.38,49.1 0.85,0.85 0 0 1 54,48.1 17,17 0 0 0 57.24,46.97 0.85,0.85 0 1 1 58,48.46 18.34,18.34 0 0 1 54.41,49.72 Z"
           id="path8625" />
        <path
           style="fill:#58595b;fill-opacity:1;stroke:#58595b;stroke-width:0.92662954;stroke-miterlimit:4;stroke-dasharray:none;stroke-opacity:1"
           class="cls-1"
           d="M 54.2,63.41 A 0.85,0.85 0 0 1 54,61.73 16.29,16.29 0 0 0 57.24,60.59 0.86,0.86 0 1 1 58,62.13 18.38,18.38 0 0 1 54.41,63.38 Z"
           id="path8627" />
        <path
           style="fill:#58595b;fill-opacity:1;stroke:#58595b;stroke-width:0.92662954;stroke-miterlimit:4;stroke-dasharray:none;stroke-opacity:1"
           class="cls-1"
           d="m 54.2,77.07 a 0.83,0.83 0 0 1 -0.82,-0.64 0.85,0.85 0 0 1 0.62,-1 17,17 0 0 0 3.24,-1.13 0.85,0.85 0 1 1 0.76,1.49 18.34,18.34 0 0 1 -3.59,1.26 0.75,0.75 0 0 1 -0.21,0.02 z"
           id="path8629" />
      </g>
    </g>
  </g>
</svg>
