<?xml version="1.0" encoding="UTF-8" standalone="no"?>
<svg
   xmlns:dc="http://purl.org/dc/elements/1.1/"
   xmlns:cc="http://creativecommons.org/ns#"
   xmlns:rdf="http://www.w3.org/1999/02/22-rdf-syntax-ns#"
   xmlns:svg="http://www.w3.org/2000/svg"
   xmlns="http://www.w3.org/2000/svg"
   id="svg59404"
   version="1.1"
   viewBox="0 0 27.965092 18.454041"
   height="18.454041mm"
   width="27.965092mm">
  <defs
     id="defs59398" />
  <metadata
     id="metadata59401">
    <rdf:RDF>
      <cc:Work
         rdf:about="">
        <dc:format>image/svg+xml</dc:format>
        <dc:type
           rdf:resource="http://purl.org/dc/dcmitype/StillImage" />
        <dc:title></dc:title>
      </cc:Work>
    </rdf:RDF>
  </metadata>
  <g
     transform="translate(649.7385,-373.95155)"
     id="layer1">
    <path
       style="fill:#616161;stroke-width:0.26458332"
       class="cls-2"
       d="m -627.02936,380.83149 a 5.4253463,5.4253463 0 0 0 0.15387,-1.28948 5.6597976,5.6597976 0 0 0 -5.71475,-5.59019 5.7440536,5.7440536 0 0 0 -4.98942,2.85003 5.8026662,5.8026662 0 0 0 -0.94513,-0.0732 5.9565249,5.9565249 0 0 0 -5.67078,4.08459 5.7990031,5.7990031 0 0 0 0.39563,11.59067 h 16.27238 a 5.7990031,5.7990031 0 0 0 0.4982,-11.57235 z m -0.4982,10.25723 h -16.26505 a 4.4838787,4.4838787 0 1 1 -0.0659,-8.96409 4.7183297,4.7183297 0 0 1 1.83164,0.36633 0.42860603,0.42860603 0 0 0 0.17219,0.0367 0.43959595,0.43959595 0 0 0 0.17216,-0.84623 5.6671242,5.6671242 0 0 0 -1.2858,-0.36632 4.6157573,4.6157573 0 0 1 4.4509,-3.27498 h 0.11353 a 4.872188,4.872188 0 0 1 3.11747,1.15759 0.43226932,0.43226932 0 0 0 0.28208,0.1026 0.44325924,0.44325924 0 0 0 0.33701,-0.15387 0.43593263,0.43593263 0 0 0 -0.0512,-0.61908 5.7074205,5.7074205 0 0 0 -1.74007,-1.01474 4.3959595,4.3959595 0 0 1 3.87577,-2.26026 4.3410098,4.3410098 0 0 1 4.39596,4.27142 4.1285385,4.1285385 0 0 1 -0.36633,1.67779 0.69602689,0.69602689 0 0 0 -0.0403,0.14285 5.652471,5.652471 0 0 0 -1.75838,0.67772 0.44325924,0.44325924 0 0 0 -0.1502,0.60445 0.43959595,0.43959595 0 0 0 0.36633,0.21246 0.41395285,0.41395285 0 0 0 0.22346,-0.0623 4.7329831,4.7329831 0 0 1 2.11373,-0.65573 h 0.2491 a 4.4875418,4.4875418 0 1 1 0.022,8.96776 z"
       id="path3746-1-1" />
  </g>
</svg>
