<?xml version="1.0" encoding="UTF-8" standalone="no"?>
<svg
   xmlns:dc="http://purl.org/dc/elements/1.1/"
   xmlns:cc="http://creativecommons.org/ns#"
   xmlns:rdf="http://www.w3.org/1999/02/22-rdf-syntax-ns#"
   xmlns:svg="http://www.w3.org/2000/svg"
   xmlns="http://www.w3.org/2000/svg"
   id="svg87247"
   version="1.1"
   viewBox="0 0 18.752018 18.454"
   height="18.454mm"
   width="18.752018mm">
  <defs
     id="defs87241" />
  <metadata
     id="metadata87244">
    <rdf:RDF>
      <cc:Work
         rdf:about="">
        <dc:format>image/svg+xml</dc:format>
        <dc:type
           rdf:resource="http://purl.org/dc/dcmitype/StillImage" />
        <dc:title></dc:title>
      </cc:Work>
    </rdf:RDF>
  </metadata>
  <g
     transform="translate(353.33434,-289.28491)"
     id="layer1">
    <g
       style="stroke-width:1.01180387"
       transform="matrix(0.26149665,0,0,0.26149665,-353.33434,289.28509)"
       id="Layer_2-618-3"
       data-name="Layer 2">
      <g
         style="stroke-width:1.01180387"
         id="Layer_1-2-79-8"
         data-name="Layer 1">
        <path
           style="fill:#666666;stroke-width:1.01180387"
           class="cls-1"
           d="M 57.86,17.53 A 13.9,13.9 0 0 0 58.25,14.24 14.42,14.42 0 0 0 43.69,0 14.64,14.64 0 0 0 31,7.29 15.25,15.25 0 0 0 14.12,17.51 15,15 0 0 0 0,32.26 14.92,14.92 0 0 0 13.08,46.91 22.83,22.83 0 0 1 13.75,43.6 11.56,11.56 0 0 1 3.36,32.26 11.61,11.61 0 0 1 15,20.84 a 12.19,12.19 0 0 1 4.7,1 1.1226976,1.1226976 0 0 0 0.87,-2.07 14.61,14.61 0 0 0 -3.28,-0.94 11.75,11.75 0 0 1 11.31,-8.33 h 0.29 a 12.45,12.45 0 0 1 7.95,2.95 1.09,1.09 0 0 0 0.72,0.27 1.15,1.15 0 0 0 0.86,-0.4 1.12,1.12 0 0 0 -0.13,-1.58 15,15 0 0 0 -4.44,-2.59 11.25,11.25 0 0 1 9.88,-5.75 11.06,11.06 0 0 1 11.2,10.88 10.54,10.54 0 0 1 -0.9,4.28 2.47,2.47 0 0 0 -0.11,0.36 14.17,14.17 0 0 0 -4.47,1.73 1.12,1.12 0 0 0 0.55,2.04 1.16,1.16 0 0 0 0.57,-0.15 12.08,12.08 0 0 1 5.38,-1.68 h 0.64 A 11.56,11.56 0 0 1 68.33,32.21 11.62,11.62 0 0 1 57.94,43.6 22.56,22.56 0 0 1 58.61,46.91 14.75,14.75 0 0 0 57.86,17.53 Z"
           id="path2850-0" />
        <path
           style="fill:#666666;stroke-width:1.01180387"
           class="cls-1"
           d="M 35.85,70.57 A 20.73,20.73 0 1 1 56.57,49.85 20.75,20.75 0 0 1 35.85,70.57 Z m 0,-38.08 A 17.36,17.36 0 1 0 53.21,49.85 17.38,17.38 0 0 0 35.85,32.49 Z"
           id="path2852-4" />
        <path
           style="fill:#666666;stroke-width:1.01180387"
           class="cls-1"
           d="M 54.26,51 H 17.43 a 1.12,1.12 0 1 1 0,-2.24 h 36.83 a 1.12,1.12 0 1 1 0,2.24 z"
           id="path2854-7" />
        <path
           style="fill:#666666;stroke-width:1.01180387"
           class="cls-1"
           d="M 35.85,41.53 A 54.73,54.73 0 0 1 25.65,40.7 c -3.39,-0.68 -5,-1.67 -5,-3 a 0.56,0.56 0 0 1 1.12,0 c 0,1.33 5.67,2.74 14.12,2.74 C 44.34,40.44 50,39 50,37.67 a 0.56,0.56 0 0 1 1.12,0 c -0.04,3.68 -12.73,3.86 -15.27,3.86 z"
           id="path2856-6" />
        <path
           style="fill:#666666;stroke-width:1.01180387"
           class="cls-1"
           d="m 50.52,62.45 a 0.56,0.56 0 0 1 -0.56,-0.56 c 0,-0.51 -1.08,-1.32 -4.14,-1.93 a 54.06,54.06 0 0 0 -10,-0.81 c -8.45,0 -14.12,1.42 -14.12,2.74 a 0.56,0.56 0 0 1 -1.12,0 C 20.61,58.21 33.3,58 35.85,58 c 2.55,0 15.23,0.18 15.23,3.86 a 0.56,0.56 0 0 1 -0.56,0.59 z"
           id="path2858-8" />
        <path
           style="fill:#666666;stroke-width:1.01180387"
           class="cls-1"
           d="M 35.76,69.39 A 1.12,1.12 0 0 1 34.64,68.27 V 31.43 a 1.12,1.12 0 0 1 2.24,0 v 36.84 a 1.12,1.12 0 0 1 -1.12,1.12 z"
           id="path2860-9" />
        <path
           style="fill:#666666;stroke-width:1.01180387"
           class="cls-1"
           d="m 35.85,68.83 a 0.56,0.56 0 0 1 0,-1.12 c 4,0 6.46,-3 7.79,-5.46 a 26.94,26.94 0 0 0 2.7,-12.4 c 0,-8.6 -3.29,-17.86 -10.49,-17.86 a 0.56,0.56 0 0 1 0,-1.12 c 8,0 11.61,9.84 11.61,19 0,9.16 -3.64,18.96 -11.61,18.96 z"
           id="path2862-2-0" />
        <path
           style="fill:#666666;stroke-width:1.01180387"
           class="cls-1"
           d="m 35.85,68.83 c -8,0 -11.62,-9.84 -11.62,-19 A 28.12,28.12 0 0 1 27.06,36.9 c 2.11,-4 5.15,-6.05 8.79,-6.05 a 0.56,0.56 0 0 1 0,1.12 c -7.21,0 -10.5,9.26 -10.5,17.86 0,8.6 3.29,17.86 10.5,17.86 a 0.56,0.56 0 1 1 0,1.12 z"
           id="path2864-0-6" />
      </g>
    </g>
  </g>
</svg>
