<?xml version="1.0" encoding="UTF-8" standalone="no"?>
<svg
   xmlns:dc="http://purl.org/dc/elements/1.1/"
   xmlns:cc="http://creativecommons.org/ns#"
   xmlns:rdf="http://www.w3.org/1999/02/22-rdf-syntax-ns#"
   xmlns:svg="http://www.w3.org/2000/svg"
   xmlns="http://www.w3.org/2000/svg"
   width="18.271214mm"
   height="18.254mm"
   viewBox="0 0 18.271214 18.254"
   version="1.1"
   id="svg242725">
  <defs
     id="defs242719" />
  <metadata
     id="metadata242722">
    <rdf:RDF>
      <cc:Work
         rdf:about="">
        <dc:format>image/svg+xml</dc:format>
        <dc:type
           rdf:resource="http://purl.org/dc/dcmitype/StillImage" />
        <dc:title></dc:title>
      </cc:Work>
    </rdf:RDF>
  </metadata>
  <g
     id="layer1"
     transform="translate(32.948107,-139.70634)">
    <g
       data-name="Layer 2"
       id="Layer_2-8-7"
       transform="matrix(0.26453183,0,0,0.26453183,-32.948107,139.70764)"
       style="fill:#58595b;fill-opacity:1;stroke-width:1.00019467">
      <g
         data-name="Layer 1"
         id="Layer_1-2-6-1"
         style="fill:#58595b;fill-opacity:1;stroke-width:1.00019467">
        <path
           id="path4316-2"
           d="M 63.61,52.9 V 32.24 a 35.69,35.69 0 0 1 -3.23,3.63 V 52.29 H 8.62 V 21 a 1.62,1.62 0 0 1 1.62,-1.62 h 21.35 c 0,0 -0.42,-1.72 -0.69,-3.23 H 10.24 A 4.86,4.86 0 0 0 5.39,21 V 52.9 L 0.25,61.14 A 1.62,1.62 0 0 0 0,62 v 1.08 A 5.94,5.94 0 0 0 5.93,69 H 63.07 A 5.94,5.94 0 0 0 69,63.07 V 62 A 1.62,1.62 0 0 0 68.75,61.14 Z M 8.24,54.45 h 52.52 l 4.38,7 H 43 l -0.45,-2.7 H 26.41 L 26,61.45 H 3.86 Z m 57.52,8.62 a 2.7,2.7 0 0 1 -2.7,2.7 H 5.93 a 2.7,2.7 0 0 1 -2.7,-2.7 v -0.54 h 62.54 z"
           class="cls-1"
           style="fill:#58595b;fill-opacity:1;stroke-width:1.00019467" />
        <path
           id="path4318-2"
           d="m 47.08,34 -0.5,-0.41 z"
           class="cls-1"
           style="fill:#58595b;fill-opacity:1;stroke-width:1.00019467" />
        <path
           id="path4320-1"
           d="M 46.59,33.55 45.87,32.93 Z"
           class="cls-1"
           style="fill:#58595b;fill-opacity:1;stroke-width:1.00019467" />
        <path
           id="path4322-5"
           d="m 45.87,32.94 -0.54,-0.5 z"
           class="cls-1"
           style="fill:#58595b;fill-opacity:1;stroke-width:1.00019467" />
        <path
           id="path4324-0"
           d="M 45.33,32.43 44.6,31.72 Z"
           class="cls-1"
           style="fill:#58595b;fill-opacity:1;stroke-width:1.00019467" />
        <path
           id="path4326-9"
           d="M 49.22,35.53 48.87,35.29 Z"
           class="cls-1"
           style="fill:#58595b;fill-opacity:1;stroke-width:1.00019467" />
        <path
           id="path4328-0"
           d="M 48.87,35.29 48.21,34.83 Z"
           class="cls-1"
           style="fill:#58595b;fill-opacity:1;stroke-width:1.00019467" />
        <path
           id="path4330-4"
           d="M 47.77,34.5 47.08,34 Z"
           class="cls-1"
           style="fill:#58595b;fill-opacity:1;stroke-width:1.00019467" />
        <path
           id="path4332-0"
           d="M 49.84,35.92 49.22,35.53 Z"
           class="cls-1"
           style="fill:#58595b;fill-opacity:1;stroke-width:1.00019467" />
        <path
           id="path4334-1"
           d="M 48.21,34.83 47.77,34.5 Z"
           class="cls-1"
           style="fill:#58595b;fill-opacity:1;stroke-width:1.00019467" />
        <path
           id="path4336-3"
           d="m 39.77,25.34 c -0.24,-0.42 -0.47,-0.86 -0.69,-1.31 0.22,0.44 0.45,0.89 0.69,1.31 z"
           class="cls-1"
           style="fill:#58595b;fill-opacity:1;stroke-width:1.00019467" />
        <path
           id="path4338-7"
           d="m 44,31.13 c -0.24,-0.26 -0.49,-0.52 -0.73,-0.8 0.27,0.28 0.52,0.54 0.73,0.8 z"
           class="cls-1"
           style="fill:#58595b;fill-opacity:1;stroke-width:1.00019467" />
        <path
           id="path4340-4"
           d="m 39.08,24 c -0.1,-0.2 -0.21,-0.4 -0.3,-0.6 0.09,0.23 0.22,0.42 0.3,0.6 z"
           class="cls-1"
           style="fill:#58595b;fill-opacity:1;stroke-width:1.00019467" />
        <path
           id="path4342-1"
           d="m 38.77,23.42 c -0.31,-0.66 -0.61,-1.35 -0.89,-2.06 0.28,0.72 0.58,1.4 0.89,2.06 z"
           class="cls-1"
           style="fill:#58595b;fill-opacity:1;stroke-width:1.00019467" />
        <path
           id="path4344-1"
           d="M 40.16,26 39.77,25.33 Z"
           class="cls-1"
           style="fill:#58595b;fill-opacity:1;stroke-width:1.00019467" />
        <path
           id="path4346-3"
           d="m 40.47,26.54 v 0 L 40.16,26 c 0.11,0.19 0.21,0.37 0.31,0.54 z"
           class="cls-1"
           style="fill:#58595b;fill-opacity:1;stroke-width:1.00019467" />
        <path
           id="path4348-0"
           d="m 42.72,29.65 q -0.36,-0.44 -0.71,-0.9 c 0.24,0.3 0.47,0.6 0.71,0.9 z"
           class="cls-1"
           style="fill:#58595b;fill-opacity:1;stroke-width:1.00019467" />
        <path
           id="path4350-3"
           d="M 43.3,30.33 42.72,29.64 Z"
           class="cls-1"
           style="fill:#58595b;fill-opacity:1;stroke-width:1.00019467" />
        <path
           id="path4352-2"
           d="m 41.71,28.36 0.3,0.38 -0.29,-0.39 z"
           class="cls-1"
           style="fill:#58595b;fill-opacity:1;stroke-width:1.00019467" />
        <path
           id="path4354-1"
           d="m 57.48,31.13 -0.57,0.6 z"
           class="cls-1"
           style="fill:#58595b;fill-opacity:1;stroke-width:1.00019467" />
        <path
           id="path4356-7"
           d="m 37.89,21.36 c 0,-0.13 -0.09,-0.27 -0.14,-0.4 0.05,0.13 0.09,0.27 0.14,0.4 z"
           class="cls-1"
           style="fill:#58595b;fill-opacity:1;stroke-width:1.00019467" />
        <path
           id="path4358-5"
           d="m 56.91,31.73 -0.72,0.7 z"
           class="cls-1"
           style="fill:#58595b;fill-opacity:1;stroke-width:1.00019467" />
        <path
           id="path4360-6"
           d="m 56.18,32.43 -0.55,0.51 z"
           class="cls-1"
           style="fill:#58595b;fill-opacity:1;stroke-width:1.00019467" />
        <path
           id="path4362-5"
           d="m 58.21,30.33 c -0.24,0.28 -0.48,0.54 -0.73,0.8 0.24,-0.26 0.52,-0.52 0.73,-0.8 z"
           class="cls-1"
           style="fill:#58595b;fill-opacity:1;stroke-width:1.00019467" />
        <path
           id="path4364-4"
           d="m 61,26.54 c 0.11,-0.17 0.21,-0.36 0.31,-0.54 l -0.33,0.52 z"
           class="cls-1"
           style="fill:#58595b;fill-opacity:1;stroke-width:1.00019467" />
        <path
           id="path4366-2"
           d="m 58.79,29.64 -0.58,0.69 z"
           class="cls-1"
           style="fill:#58595b;fill-opacity:1;stroke-width:1.00019467" />
        <path
           id="path4368-2"
           d="m 59.8,28.36 v 0 l -0.29,0.4 z"
           class="cls-1"
           style="fill:#58595b;fill-opacity:1;stroke-width:1.00019467" />
        <path
           id="path4370-1"
           d="m 55.64,32.94 -0.71,0.61 z"
           class="cls-1"
           style="fill:#58595b;fill-opacity:1;stroke-width:1.00019467" />
        <path
           id="path4372-7"
           d="m 59.5,28.75 q -0.35,0.46 -0.71,0.9 c 0.21,-0.3 0.47,-0.59 0.71,-0.9 z"
           class="cls-1"
           style="fill:#58595b;fill-opacity:1;stroke-width:1.00019467" />
        <path
           id="path4374-2"
           d="M 53.74,34.5 53.3,34.83 Z"
           class="cls-1"
           style="fill:#58595b;fill-opacity:1;stroke-width:1.00019467" />
        <path
           id="path4376-4"
           d="m 51.67,35.92 -0.24,0.15 z"
           class="cls-1"
           style="fill:#58595b;fill-opacity:1;stroke-width:1.00019467" />
        <path
           id="path4378-1"
           d="m 52.29,35.53 -0.62,0.39 z"
           class="cls-1"
           style="fill:#58595b;fill-opacity:1;stroke-width:1.00019467" />
        <path
           id="path4380-6"
           d="m 51.43,36.07 -0.68,0.39 z"
           class="cls-1"
           style="fill:#58595b;fill-opacity:1;stroke-width:1.00019467" />
        <path
           id="path4382-5"
           d="M 50.75,36.46 50.07,36.07 Z"
           class="cls-1"
           style="fill:#58595b;fill-opacity:1;stroke-width:1.00019467" />
        <path
           id="path4384-7"
           d="m 52.64,35.29 -0.35,0.24 z"
           class="cls-1"
           style="fill:#58595b;fill-opacity:1;stroke-width:1.00019467" />
        <path
           id="path4386-8"
           d="M 50.08,36.07 49.84,35.92 Z"
           class="cls-1"
           style="fill:#58595b;fill-opacity:1;stroke-width:1.00019467" />
        <path
           id="path4388-5"
           d="m 54.43,34 -0.69,0.53 z"
           class="cls-1"
           style="fill:#58595b;fill-opacity:1;stroke-width:1.00019467" />
        <path
           id="path4390-9"
           d="m 53.3,34.83 -0.66,0.46 z"
           class="cls-1"
           style="fill:#58595b;fill-opacity:1;stroke-width:1.00019467" />
        <path
           id="path4392-2"
           d="m 54.93,33.55 -0.5,0.42 z"
           class="cls-1"
           style="fill:#58595b;fill-opacity:1;stroke-width:1.00019467" />
        <path
           id="path4394-7"
           d="M 44.6,31.73 44,31.13 Z"
           class="cls-1"
           style="fill:#58595b;fill-opacity:1;stroke-width:1.00019467" />
        <path
           id="path4396-3"
           d="m 64.38,19.1 c -0.19,0.64 -0.4,1.26 -0.62,1.86 0.24,-0.6 0.43,-1.22 0.62,-1.86 z"
           class="cls-1"
           style="fill:#58595b;fill-opacity:1;stroke-width:1.00019467" />
        <path
           id="path4398-6"
           d="m 62.73,23.42 c -0.1,0.2 -0.2,0.39 -0.3,0.59 0.1,-0.19 0.21,-0.38 0.3,-0.59 z"
           class="cls-1"
           style="fill:#58595b;fill-opacity:1;stroke-width:1.00019467" />
        <path
           id="path4400-4"
           d="m 63.76,21 c 0,0.13 -0.09,0.27 -0.14,0.4 0.05,-0.17 0.09,-0.31 0.14,-0.4 z"
           class="cls-1"
           style="fill:#58595b;fill-opacity:1;stroke-width:1.00019467" />
        <path
           id="path4402-7"
           d="m 63.62,21.36 c -0.28,0.72 -0.57,1.4 -0.89,2.06 0.27,-0.66 0.61,-1.34 0.89,-2.06 z"
           class="cls-1"
           style="fill:#58595b;fill-opacity:1;stroke-width:1.00019467" />
        <path
           id="path4404-9"
           d="m 64.61,18.29 c -0.07,0.27 -0.14,0.54 -0.22,0.81 0.07,-0.26 0.14,-0.54 0.22,-0.81 z"
           class="cls-1"
           style="fill:#58595b;fill-opacity:1;stroke-width:1.00019467" />
        <path
           id="path4406-7"
           d="m 65,16.63 c -0.12,0.57 -0.26,1.12 -0.41,1.66 0.16,-0.54 0.3,-1.09 0.41,-1.66 z"
           class="cls-1"
           style="fill:#58595b;fill-opacity:1;stroke-width:1.00019467" />
        <path
           id="path4408-2"
           d="m 65.5,13.86 c -0.08,0.63 -0.18,1.25 -0.29,1.85 0.11,-0.6 0.2,-1.22 0.29,-1.85 z"
           class="cls-1"
           style="fill:#58595b;fill-opacity:1;stroke-width:1.00019467" />
        <path
           id="path4410-2"
           d="m 65.2,15.71 c -0.06,0.31 -0.12,0.62 -0.19,0.92 0.07,-0.3 0.13,-0.63 0.19,-0.92 z"
           class="cls-1"
           style="fill:#58595b;fill-opacity:1;stroke-width:1.00019467" />
        <path
           id="path4412-1"
           d="m 61.35,26 0.39,-0.66 z"
           class="cls-1"
           style="fill:#58595b;fill-opacity:1;stroke-width:1.00019467" />
        <path
           id="path4414-6"
           d="m 65.61,13 c 0,0.29 -0.08,0.58 -0.12,0.86 0.04,-0.29 0.09,-0.57 0.12,-0.86 z"
           class="cls-1"
           style="fill:#58595b;fill-opacity:1;stroke-width:1.00019467" />
        <path
           id="path4416-3"
           d="m 37.75,21 c -0.22,-0.6 -0.43,-1.22 -0.62,-1.86 0.19,0.6 0.4,1.22 0.62,1.86 z"
           class="cls-1"
           style="fill:#58595b;fill-opacity:1;stroke-width:1.00019467" />
        <path
           id="path4418-0"
           d="m 62.43,24 c -0.23,0.45 -0.46,0.9 -0.7,1.32 0.27,-0.41 0.48,-0.85 0.7,-1.32 z"
           class="cls-1"
           style="fill:#58595b;fill-opacity:1;stroke-width:1.00019467" />
        <path
           id="path4420-2"
           d="m 35.68,10.11 a 41.23,41.23 0 0 0 4.8,-1.19 41,41 0 0 1 -4.8,1.19 z"
           class="cls-1"
           style="fill:#58595b;fill-opacity:1;stroke-width:1.00019467" />
        <path
           id="path4422-1"
           d="m 35.9,13 c -0.1,-0.93 -0.18,-1.89 -0.21,-2.88 0.03,0.99 0.1,1.94 0.21,2.88 z"
           class="cls-1"
           style="fill:#58595b;fill-opacity:1;stroke-width:1.00019467" />
        <path
           id="path4424-5"
           d="m 36.31,15.71 c -0.11,-0.6 -0.21,-1.22 -0.29,-1.85 0.08,0.63 0.17,1.25 0.29,1.85 z"
           class="cls-1"
           style="fill:#58595b;fill-opacity:1;stroke-width:1.00019467" />
        <path
           id="path4426-6"
           d="m 36,13.86 c 0,-0.29 -0.08,-0.57 -0.12,-0.87 0.05,0.3 0.12,0.58 0.12,0.87 z"
           class="cls-1"
           style="fill:#58595b;fill-opacity:1;stroke-width:1.00019467" />
        <path
           id="path4428-5"
           d="M 37.12,19.1 C 37.04,18.84 36.97,18.56 36.9,18.29 37,18.56 37,18.84 37.12,19.1 Z"
           class="cls-1"
           style="fill:#58595b;fill-opacity:1;stroke-width:1.00019467" />
        <path
           id="path4430-0"
           d="m 36.49,16.63 c -0.07,-0.3 -0.13,-0.61 -0.19,-0.92 0.06,0.29 0.13,0.61 0.19,0.92 z"
           class="cls-1"
           style="fill:#58595b;fill-opacity:1;stroke-width:1.00019467" />
        <path
           id="path4432-0"
           d="m 36.9,18.3 q -0.22,-0.81 -0.41,-1.67 c 0.13,0.57 0.26,1.12 0.41,1.67 z"
           class="cls-1"
           style="fill:#58595b;fill-opacity:1;stroke-width:1.00019467" />
        <path
           id="path4434-3"
           d="M 61,8.92 A 41.23,41.23 0 0 0 65.8,10.11 41.05,41.05 0 0 1 61,8.92 Z"
           class="cls-1"
           style="fill:#58595b;fill-opacity:1;stroke-width:1.00019467" />
        <path
           id="path4436-4"
           d="M 55.15,6.48 A 32.4,32.4 0 0 0 58.27,7.94 33,33 0 0 1 55.15,6.48 Z"
           class="cls-1"
           style="fill:#58595b;fill-opacity:1;stroke-width:1.00019467" />
        <path
           id="path4438-6"
           d="M 50.75,3.71 A 28.91,28.91 0 0 0 54.28,6 28.37,28.37 0 0 1 50.75,3.71 Z"
           class="cls-1"
           style="fill:#58595b;fill-opacity:1;stroke-width:1.00019467" />
        <path
           id="path4440-6"
           d="M 47.22,6 A 29,29 0 0 0 50.75,3.66 28.48,28.48 0 0 1 47.22,6 Z"
           class="cls-1"
           style="fill:#58595b;fill-opacity:1;stroke-width:1.00019467" />
        <path
           id="path4442-0"
           d="M 43.24,7.94 A 32.32,32.32 0 0 0 46.36,6.48 33.08,33.08 0 0 1 43.24,7.94 Z"
           class="cls-1"
           style="fill:#58595b;fill-opacity:1;stroke-width:1.00019467" />
        <path
           id="path4444-2"
           d="m 54.28,6 c 0.28,0.16 0.58,0.28 0.86,0.43 C 54.86,6.33 54.56,6.2 54.28,6 Z"
           class="cls-1"
           style="fill:#58595b;fill-opacity:1;stroke-width:1.00019467" />
        <path
           id="path4446-5"
           d="m 65.82,10.11 c 0,1 -0.11,2 -0.21,2.88 0.1,-0.93 0.18,-1.88 0.21,-2.88 z"
           class="cls-1"
           style="fill:#58595b;fill-opacity:1;stroke-width:1.00019467" />
        <path
           id="path4448-8"
           d="M 46.36,6.48 C 46.64,6.33 46.94,6.21 47.22,6.05 47,6.2 46.65,6.33 46.36,6.48 Z"
           class="cls-1"
           style="fill:#58595b;fill-opacity:1;stroke-width:1.00019467" />
        <path
           id="path4450-9"
           d="M 67.71,7.15 C 61.2,6.16 55.85,3.89 51.81,0.39 a 1.62,1.62 0 0 0 -2.12,0 c -4,3.5 -9.39,5.77 -15.89,6.75 a 1.62,1.62 0 0 0 -1.38,1.6 c 0,22.64 16.93,30.67 17.65,31 a 1.62,1.62 0 0 0 1.35,0 c 0.72,-0.33 17.65,-8.36 17.65,-31 A 1.62,1.62 0 0 0 67.71,7.15 Z M 61,26.54 v 0 q -0.6,1 -1.23,1.82 v 0 l -0.3,0.38 c -0.24,0.31 -0.47,0.61 -0.71,0.9 l -0.58,0.69 c -0.24,0.28 -0.48,0.54 -0.73,0.8 l -0.57,0.6 -0.72,0.7 -0.55,0.51 -0.71,0.61 -0.5,0.42 -0.69,0.53 -0.44,0.33 -0.66,0.46 -0.35,0.24 -0.62,0.39 -0.24,0.15 -0.68,0.39 L 50.04,36.07 49.8,35.92 49.18,35.53 48.83,35.29 48.17,34.83 47.73,34.5 47.08,34 46.58,33.59 45.86,32.97 45.32,32.47 44.59,31.76 44,31.13 c -0.24,-0.26 -0.48,-0.52 -0.73,-0.8 l -0.58,-0.69 c -0.24,-0.29 -0.48,-0.59 -0.71,-0.9 l -0.3,-0.38 v 0 Q 41.05,27.5 40.45,26.54 v 0 c -0.11,-0.17 -0.21,-0.36 -0.31,-0.53 l -0.39,-0.67 c -0.24,-0.42 -0.47,-0.86 -0.69,-1.31 -0.1,-0.2 -0.21,-0.4 -0.3,-0.6 C 38.45,22.77 38.15,22.08 37.87,21.37 37.82,21.24 37.78,21.1 37.73,20.97 37.51,20.37 37.3,19.75 37.11,19.11 37.03,18.85 36.96,18.57 36.89,18.3 36.74,17.76 36.6,17.2 36.48,16.63 36.41,16.33 36.35,16.02 36.29,15.71 36.18,15.11 36.08,14.49 36,13.86 36,13.57 35.92,13.29 35.88,12.99 35.78,12.06 35.7,11.1 35.67,10.11 a 41,41 0 0 0 4.8,-1.19 c 0.95,-0.29 1.86,-0.62 2.76,-1 A 33.08,33.08 0 0 0 46.35,6.46 C 46.63,6.31 46.94,6.19 47.21,6.03 A 28.48,28.48 0 0 0 50.74,3.69 28.37,28.37 0 0 0 54.28,6 c 0.28,0.16 0.58,0.28 0.86,0.43 a 33,33 0 0 0 3.12,1.46 c 0.89,0.36 1.81,0.69 2.76,1 a 41.05,41.05 0 0 0 4.8,1.19 c 0,1 -0.11,2 -0.21,2.88 0,0.29 -0.08,0.58 -0.12,0.86 -0.08,0.63 -0.18,1.25 -0.29,1.85 -0.06,0.31 -0.12,0.62 -0.19,0.92 -0.12,0.57 -0.26,1.12 -0.41,1.66 -0.07,0.27 -0.14,0.54 -0.22,0.81 -0.19,0.64 -0.4,1.26 -0.62,1.86 0,0.13 -0.09,0.27 -0.14,0.4 -0.28,0.72 -0.57,1.4 -0.89,2.06 -0.1,0.2 -0.2,0.39 -0.3,0.59 -0.23,0.45 -0.46,0.9 -0.7,1.32 l -0.39,0.66 c -0.1,0.23 -0.2,0.42 -0.34,0.59 z"
           class="cls-1"
           style="fill:#58595b;fill-opacity:1;stroke-width:1.00019467" />
        <path
           id="path4452-5"
           d="M 63.59,12.08 A 31.19,31.19 0 0 1 60.93,22.39 28.69,28.69 0 0 1 59.26,25.45 29.11,29.11 0 0 1 57.5,28 c -0.26,0.36 -0.52,0.68 -0.81,1 A 26.44,26.44 0 0 1 51.12,34 0.45,0.45 0 0 1 50.8,34.11 0.43,0.43 0 0 1 50.51,34 26,26 0 0 1 45.75,30 0.53,0.53 0 0 1 45.81,29.26 0.56,0.56 0 0 1 46.56,29.31 27,27 0 0 0 50.8,32.98 25.37,25.37 0 0 0 55.25,29 9.62,9.62 0 0 0 56.12,28 20,20 0 0 0 58,25.45 28.55,28.55 0 0 0 59.73,22.39 30.39,30.39 0 0 0 62.52,12 a 0.54,0.54 0 0 1 0.58,-0.46 0.51,0.51 0 0 1 0.49,0.54 z"
           class="cls-1"
           style="fill:#58595b;fill-opacity:1;stroke-width:1.00019467" />
        <path
           id="path4454-0"
           d="m 53.75,24.52 a 2.7,2.7 0 0 1 -0.84,1.94 3.12,3.12 0 0 1 -4.22,0 2.79,2.79 0 0 1 -0.81,-1.94 2.62,2.62 0 0 1 1.12,-2.13 3,3 0 0 1 1.85,-0.66 2.93,2.93 0 0 1 1.88,0.66 2.7,2.7 0 0 1 1.02,2.13 z"
           class="cls-1"
           style="fill:#58595b;fill-opacity:1;stroke-width:1.00019467" />
        <path
           id="path4456-6"
           d="m 52.44,18.15 a 1.63,1.63 0 1 1 -3.25,0 l -0.81,-6.71 a 2.44,2.44 0 1 1 4.87,0 z"
           class="cls-1"
           style="fill:#58595b;fill-opacity:1;stroke-width:1.00019467" />
        <path
           id="path4458-0"
           d="M 11.32,50.13 H 57.68 V 38.25 c -0.37,0.3 -0.73,0.57 -1.08,0.82 v 10 H 12.4 V 23.18 H 32.81 C 32.67,22.82 32.54,22.47 32.41,22.1 H 11.32 Z"
           class="cls-1"
           style="fill:#58595b;fill-opacity:1;stroke-width:1.00019467" />
      </g>
    </g>
  </g>
</svg>
