<?xml version="1.0" encoding="UTF-8" standalone="no"?>
<svg
   xmlns:dc="http://purl.org/dc/elements/1.1/"
   xmlns:cc="http://creativecommons.org/ns#"
   xmlns:rdf="http://www.w3.org/1999/02/22-rdf-syntax-ns#"
   xmlns:svg="http://www.w3.org/2000/svg"
   xmlns="http://www.w3.org/2000/svg"
   id="svg208268"
   version="1.1"
   viewBox="0 0 19.111567 18.454"
   height="18.454mm"
   width="19.111567mm">
  <defs
     id="defs208262" />
  <metadata
     id="metadata208265">
    <rdf:RDF>
      <cc:Work
         rdf:about="">
        <dc:format>image/svg+xml</dc:format>
        <dc:type
           rdf:resource="http://purl.org/dc/dcmitype/StillImage" />
        <dc:title></dc:title>
      </cc:Work>
    </rdf:RDF>
  </metadata>
  <g
     transform="translate(-146.17041,-357.32062)"
     id="layer1">
    <g
       style="stroke-width:1.13065147"
       transform="matrix(0.23400964,0,0,0.23400964,146.17041,357.32062)"
       id="Layer_2-12-1"
       data-name="Layer 2">
      <g
         style="stroke-width:1.13065147"
         id="Layer_1-2-93-0"
         data-name="Layer 1">
        <path
           style="fill:#616161;stroke-width:1.13065147"
           class="cls-1"
           d="M 44.9,40.35 A 11.62,11.62 0 0 0 44.51,27 l 0.4,-0.4 a 1.654645,1.654645 0 1 0 -2.33,-2.35 l -0.4,0.4 A 11.57,11.57 0 0 0 27.6,25.09 L 27.17,24.71 A 1.66,1.66 0 1 0 25,27.22 l 0.43,0.38 a 11.62,11.62 0 0 0 0.39,13.33 l -0.4,0.39 a 1.66,1.66 0 1 0 2.33,2.36 l 0.4,-0.4 a 11.6,11.6 0 0 0 6.5,2.36 h 0.53 a 11.57,11.57 0 0 0 7.55,-2.81 l 0.43,0.38 a 1.66,1.66 0 1 0 2.19,-2.49 z m -1.41,-6 a 8.21,8.21 0 0 1 -1.11,3.78 l -3.89,-3.42 a 3.2,3.2 0 0 0 0.09,-0.75 3.39,3.39 0 0 0 -0.14,-0.91 l 3.68,-3.66 a 8.35,8.35 0 0 1 1.37,4.96 z m -8.34,-8.74 h 0.38 A 8.24,8.24 0 0 1 39.79,27 l -3.68,3.7 a 3.17,3.17 0 0 0 -1,-0.15 3.24,3.24 0 0 0 -1.13,0.21 l -3.9,-3.44 a 8.33,8.33 0 0 1 5.07,-1.71 z m -8.33,8 a 8.24,8.24 0 0 1 1.1,-3.79 l 3.89,3.43 a 3.67,3.67 0 0 0 -0.08,0.75 3.39,3.39 0 0 0 0.14,0.91 l -3.68,3.65 A 8.27,8.27 0 0 1 26.82,33.6 Z m 8,8.73 a 8.21,8.21 0 0 1 -4.26,-1.42 l 3.68,-3.66 a 3.12,3.12 0 0 0 1,0.15 3.28,3.28 0 0 0 1.13,-0.21 l 3.89,3.43 a 8.37,8.37 0 0 1 -5.48,1.7 z"
           id="path2978-8" />
        <path
           style="fill:#616161;stroke-width:1.13065147"
           class="cls-1"
           d="M 61.18,12.22 A 4.32,4.32 0 0 0 56.8,8 H 13.89 C 11.64,8 9.13,9.82 9.13,12.27 V 55.5 A 4.88,4.88 0 0 0 13.89,60 H 32.77 V 59 H 13.89 A 3.89,3.89 0 0 1 10.12,55.49 V 12.22 c 0,-1.85 2,-3.28 3.77,-3.28 H 56.8 a 3.38,3.38 0 0 1 3.39,3.28 v 39.44 h 1 z"
           id="path2980-5" />
        <path
           style="fill:#616161;stroke-width:1.13065147"
           class="cls-1"
           d="M 32.54,65 H 6.61 A 2.48,2.48 0 0 1 4.14,62.53 V 5.43 A 2.48,2.48 0 0 1 6.61,3 H 63.7 a 2.48,2.48 0 0 1 2.47,2.47 v 45.41 a 5.91,5.91 0 0 1 1.44,-0.18 6.08,6.08 0 0 1 1.52,0.19 V 5.43 A 5.44,5.44 0 0 0 63.7,0 H 6.61 A 5.44,5.44 0 0 0 1.18,5.43 v 6.73 H 0 v 9.28 H 1.18 V 46.51 H 0 v 9.28 h 1.18 v 6.73 A 5.44,5.44 0 0 0 6.61,68 h 26 a 6.3,6.3 0 0 1 -0.07,-3 z"
           id="path2982-0" />
        <path
           style="fill:#616161;stroke-width:1.13065147"
           class="cls-1"
           d="m 69.74,78.86 v -1.93 c 4,0 10,-2.65 10,-10 h 1.93 C 81.63,75.7 74.52,78.86 69.74,78.86 Z"
           id="path2984-6" />
        <path
           style="fill:#616161;stroke-width:1.13065147"
           class="cls-1"
           d="m 69.74,78.86 c -5.31,0 -8.71,-3 -10.91,-5.58 -2.32,2.77 -5.63,5.58 -10.92,5.58 v -1.93 c 5.05,0 8.08,-3.09 10.15,-5.78 l 0.77,-1 0.76,1 c 2.07,2.69 5.09,5.78 10.15,5.78 z"
           id="path2986-4" />
        <path
           style="fill:#616161;stroke-width:1.13065147"
           class="cls-1"
           d="M 47.91,78.86 C 43.13,78.86 36,75.7 36,67 c 0,-8.7 7.13,-11.9 11.91,-11.9 5.32,0 8.72,2.95 10.92,5.58 2.2,-2.63 5.6,-5.58 10.91,-5.58 4.78,0 11.89,3.16 11.89,11.88 H 79.7 c 0,-7.3 -6,-10 -10,-10 -5.06,0 -8.08,3.08 -10.15,5.78 l -0.76,1 -0.77,-1 C 56,60.11 53,57 47.91,57 c -4,0 -10,2.65 -10,10 0,7.35 6,10 10,10 z"
           id="path2988-6" />
        <path
           style="fill:#616161;stroke-width:1.13065147"
           class="cls-1"
           d="m 47.83,73.4 c -3,0 -6.43,-1.68 -6.43,-6.42 0,-4.74 3.32,-6.38 6.41,-6.42 4,0 6.21,2.66 8.43,5.87 l 0.39,0.55 -0.39,0.55 C 54,70.74 51.85,73.4 47.83,73.4 Z m 0,-10.92 c -1.34,0 -4.5,0.5 -4.5,4.5 a 4.17,4.17 0 0 0 4.5,4.49 c 2.66,0 4.32,-1.51 6.44,-4.49 -2.12,-2.98 -3.78,-4.5 -6.44,-4.5 z"
           id="path2990-2" />
        <path
           style="fill:#616161;stroke-width:1.13065147"
           class="cls-1"
           d="m 69.81,73.4 v 0 c -4,0 -6.19,-2.66 -8.4,-5.87 L 61,67 61.38,66.45 c 2.23,-3.21 4.4,-5.87 8.42,-5.87 3,0 6.42,1.68 6.42,6.42 0,4.74 -3.32,6.38 -6.43,6.42 z M 63.38,67 c 2.11,3 3.76,4.48 6.42,4.49 1.69,0 4.52,-0.64 4.52,-4.49 A 4.18,4.18 0 0 0 69.83,62.5 C 67.16,62.48 65.51,64 63.38,67 Z"
           id="path2992-5" />
        <polygon
           style="fill:#616161;stroke-width:1.13065147"
           class="cls-1"
           points="63.38,66.98 58.83,73.28 58.22,70.95 61.03,66.98 "
           id="polygon2994-8" />
        <polygon
           style="fill:#616161;stroke-width:1.13065147"
           class="cls-1"
           points="58.83,63.8 56.63,66.98 54.27,66.98 58.83,60.68 "
           id="polygon2996-6" />
      </g>
    </g>
  </g>
</svg>
