<?xml version="1.0" encoding="UTF-8" standalone="no"?>
<svg
   xmlns:dc="http://purl.org/dc/elements/1.1/"
   xmlns:cc="http://creativecommons.org/ns#"
   xmlns:rdf="http://www.w3.org/1999/02/22-rdf-syntax-ns#"
   xmlns:svg="http://www.w3.org/2000/svg"
   xmlns="http://www.w3.org/2000/svg"
   id="svg199987"
   version="1.1"
   viewBox="0 0 23.151031 18.454"
   height="18.454mm"
   width="23.151031mm">
  <defs
     id="defs199981" />
  <metadata
     id="metadata199984">
    <rdf:RDF>
      <cc:Work
         rdf:about="">
        <dc:format>image/svg+xml</dc:format>
        <dc:type
           rdf:resource="http://purl.org/dc/dcmitype/StillImage" />
        <dc:title></dc:title>
      </cc:Work>
    </rdf:RDF>
  </metadata>
  <g
     transform="translate(35.388016,-139.60634)"
     id="layer1">
    <g
       style="stroke-width:1.10857189"
       transform="matrix(0.23867043,0,0,0.23867043,-35.388016,139.60634)"
       id="Layer_2-338-1"
       data-name="Layer 2">
      <g
         style="stroke-width:1.10857189"
         id="Layer_1-2-60-4"
         data-name="Layer 1">
        <rect
           style="fill:#666666;stroke-width:1.10857189"
           x="0"
           class="cls-1"
           y="47.59"
           width="3.1400001"
           height="9.5100002"
           id="rect5985-9" />
        <rect
           style="fill:#666666;stroke-width:1.10857189"
           x="0"
           class="cls-1"
           y="12.42"
           width="3.1400001"
           height="9.5100002"
           id="rect5987-1" />
        <path
           style="fill:#666666;stroke-width:1.10857189"
           class="cls-1"
           d="m 36.92,46.44 h -0.53 a 11.69,11.69 0 1 1 8.39,-3 11.53,11.53 0 0 1 -7.86,3 z m 0,-20.51 a 8.82,8.82 0 0 0 -8.8,8.44 8.82,8.82 0 1 0 17.62,0.78 v 0 a 8.84,8.84 0 0 0 -8.42,-9.21 z"
           id="path5989-0" />
        <path
           style="fill:#666666;stroke-width:1.10857189"
           class="cls-1"
           d="m 28.11,44.92 a 1.44,1.44 0 0 1 -1,-0.43 1.42,1.42 0 0 1 0,-2 L 44.7,25 a 1.42,1.42 0 1 1 2,2 L 29.12,44.5 a 1.42,1.42 0 0 1 -1.01,0.42 z"
           id="path5991-7" />
        <path
           style="fill:#666666;stroke-width:1.10857189"
           class="cls-1"
           d="M 46.21,44.38 A 1.4,1.4 0 0 1 45.27,44.02 L 26.67,27.64 a 1.4242542,1.4242542 0 0 1 1.88,-2.14 l 18.6,16.38 a 1.43,1.43 0 0 1 -0.94,2.5 z"
           id="path5993-5" />
        <circle
           style="fill:#666666;stroke-width:1.10857189"
           r="3.51"
           class="cls-1"
           cx="36.91"
           cy="34.759998"
           id="ellipse5995-8" />
        <path
           style="fill:#666666;stroke-width:1.10857189"
           class="cls-1"
           d="M 7.51,66.54 A 2.55,2.55 0 0 1 5,64 V 5.53 A 2.55,2.55 0 0 1 7.51,3 H 66 a 2.56,2.56 0 0 1 2.55,2.55 v 13.3 h 3 V 5.53 A 5.54,5.54 0 0 0 66,0 H 7.51 A 5.54,5.54 0 0 0 2,5.53 V 64 a 5.54,5.54 0 0 0 5.53,5.53 H 50.8 v -3 z"
           id="path5997-7" />
        <path
           style="fill:#666666;stroke-width:1.10857189"
           class="cls-1"
           d="M 15,60.16 A 3.79,3.79 0 0 1 11.38,56.8 V 12.48 c 0,-1.75 1.95,-3.12 3.62,-3.12 h 43.9 a 3.21,3.21 0 0 1 3.23,3.12 v 6.37 h 1.49 V 12.48 A 4.66,4.66 0 0 0 58.9,7.88 H 15 c -2.41,0 -5.11,2 -5.11,4.6 V 56.8 A 5.26,5.26 0 0 0 15,61.65 h 35.8 v -1.49 z"
           id="path5999-0" />
        <path
           style="fill:#666666;stroke-width:1.10857189"
           class="cls-1"
           d="M 89.64,39.23 H 73 a 0.44,0.44 0 1 0 0,0.88 h 16.64 a 0.44,0.44 0 1 0 0,-0.88 z"
           id="path6001-4" />
        <path
           style="fill:#666666;stroke-width:1.10857189"
           class="cls-1"
           d="M 90.08,48.42 A 0.43,0.43 0 0 0 89.64,47.98 H 73 a 0.44,0.44 0 1 0 0,0.87 h 16.64 a 0.43,0.43 0 0 0 0.44,-0.43 z"
           id="path6003-8" />
        <path
           style="fill:#666666;stroke-width:1.10857189"
           class="cls-1"
           d="m 73,42.73 h 7.9 A 0.44,0.44 0 0 0 81.33,42.29 0.43,0.43 0 0 0 80.9,41.86 H 73 a 0.44,0.44 0 0 0 -0.44,0.43 0.44,0.44 0 0 0 0.44,0.44 z"
           id="path6005-0" />
        <path
           style="fill:#666666;stroke-width:1.10857189"
           class="cls-1"
           d="m 73,51.48 h 7.9 a 0.44,0.44 0 0 0 0,-0.88 H 73 a 0.44,0.44 0 0 0 0,0.88 z"
           id="path6007-4" />
        <path
           style="fill:#666666;stroke-width:1.10857189"
           class="cls-1"
           d="m 73,60.23 h 7.9 a 0.44,0.44 0 0 0 0,-0.88 H 73 a 0.44,0.44 0 0 0 0,0.88 z"
           id="path6009-2" />
        <path
           style="fill:#666666;stroke-width:1.10857189"
           class="cls-1"
           d="m 73,68.1 a 0.45,0.45 0 0 0 0,0.9 h 7.9 a 0.44,0.44 0 0 0 0,-0.88 z"
           id="path6011-9" />
        <path
           style="fill:#666666;stroke-width:1.10857189"
           class="cls-1"
           d="M 97,34.21 A 1.34,1.34 0 0 0 96.62,33.28 L 85,21.68 A 1.28,1.28 0 0 0 84.07,21.3 H 55.44 a 1.31,1.31 0 0 0 -1.31,1.31 V 76 a 1.32,1.32 0 0 0 1.31,1.32 H 95.69 A 1.32,1.32 0 0 0 97,76 Z M 94.38,74.66 H 56.76 V 23.92 h 26.45 v 10.29 a 0.87,0.87 0 0 0 0.87,0.88 h 10.3 z M 85,25.34 l 8,8 h -8 z"
           id="path6013-6" />
        <path
           style="fill:#666666;stroke-width:1.10857189"
           class="cls-1"
           d="M 89.13,56.73 H 73 a 0.44,0.44 0 1 0 0,0.87 h 15.6 z"
           id="path6015-1" />
        <path
           style="fill:#666666;stroke-width:1.10857189"
           class="cls-1"
           d="M 86.8,65.48 H 73 a 0.44,0.44 0 1 0 0,0.87 h 13.81 z"
           id="path6017-0" />
        <path
           style="fill:#666666;stroke-width:1.10857189"
           class="cls-1"
           d="m 68.82,45.14 a 0.86,0.86 0 0 0 -1.24,0 L 63.42,49.3 62.28,48.16 A 0.89106678,0.89106678 0 0 0 61,49.4 l 1.76,1.76 a 0.89,0.89 0 0 0 0.62,0.25 0.9,0.9 0 0 0 0.62,-0.25 l 4.78,-4.79 a 0.87,0.87 0 0 0 0.04,-1.23 z"
           id="path6019-4" />
        <path
           style="fill:#666666;stroke-width:1.10857189"
           class="cls-1"
           d="m 66.49,52.74 h -6.81 v -6.3 h 6.81 z m -6.14,-0.68 h 5.46 v -5 h -5.46 z"
           id="path6021-2" />
        <path
           style="fill:#666666;stroke-width:1.10857189"
           class="cls-1"
           d="m 68.82,54.11 a 0.88,0.88 0 0 0 -1.24,0 l -4.16,4.17 -1.14,-1.14 A 0.88759507,0.88759507 0 1 0 61,58.37 l 1.76,1.76 a 0.85,0.85 0 0 0 0.62,0.26 0.87,0.87 0 0 0 0.62,-0.26 l 4.78,-4.78 a 0.88,0.88 0 0 0 0.04,-1.24 z"
           id="path6023-2" />
        <path
           style="fill:#666666;stroke-width:1.10857189"
           class="cls-1"
           d="m 66.49,61.72 h -6.81 v -6.31 h 6.81 z M 60.35,61 h 5.46 v -4.91 h -5.46 z"
           id="path6025-2" />
        <path
           style="fill:#666666;stroke-width:1.10857189"
           class="cls-1"
           d="m 68.82,63.09 a 0.88,0.88 0 0 0 -1.24,0 l -4.16,4.16 -1.14,-1.14 A 0.89106678,0.89106678 0 1 0 61,67.35 l 1.76,1.76 a 0.9,0.9 0 0 0 0.62,0.26 0.91,0.91 0 0 0 0.62,-0.26 l 4.78,-4.78 a 0.88,0.88 0 0 0 0.04,-1.24 z"
           id="path6027-0" />
        <path
           style="fill:#666666;stroke-width:1.10857189"
           class="cls-1"
           d="m 66.49,70.69 h -6.81 v -6.3 h 6.81 z M 60.35,70 h 5.46 v -5 h -5.46 z"
           id="path6029-5" />
        <path
           style="fill:#666666;stroke-width:1.10857189"
           class="cls-1"
           d="m 68.82,36.16 a 0.88,0.88 0 0 0 -1.24,0 l -4.16,4.16 -1.14,-1.14 A 0.89106678,0.89106678 0 1 0 61,40.42 l 1.76,1.76 a 0.9,0.9 0 0 0 0.62,0.26 0.91,0.91 0 0 0 0.62,-0.26 l 4.78,-4.78 a 0.88,0.88 0 0 0 0.04,-1.24 z"
           id="path6031-5" />
        <path
           style="fill:#666666;stroke-width:1.10857189"
           class="cls-1"
           d="m 66.49,43.76 h -6.81 v -6.3 h 6.81 z m -6.14,-0.67 h 5.46 v -5 h -5.46 z"
           id="path6033-2" />
        <path
           style="fill:#666666;stroke-width:1.10857189"
           class="cls-1"
           d="m 60,31.89 2,-4.18 a 0.11,0.11 0 0 1 0.11,-0.07 h 0.06 a 0.1,0.1 0 0 1 0.1,0.07 l 1.92,4.18 a 0.12,0.12 0 0 1 -0.11,0.17 H 63.5 a 0.18,0.18 0 0 1 -0.18,-0.13 l -0.3,-0.67 h -1.86 l -0.31,0.67 a 0.19,0.19 0 0 1 -0.18,0.13 H 60.13 A 0.11,0.11 0 0 1 60,31.89 Z m 2.68,-1.32 -0.62,-1.37 v 0 l -0.61,1.37 z"
           id="path6035-9" />
        <path
           style="fill:#666666;stroke-width:1.10857189"
           class="cls-1"
           d="M 64.9,27.82 A 0.13,0.13 0 0 1 65,27.7 h 0.59 a 0.12,0.12 0 0 1 0.12,0.12 v 2.54 a 0.91,0.91 0 1 0 1.81,0 v -2.54 a 0.12,0.12 0 0 1 0.12,-0.12 h 0.59 a 0.13,0.13 0 0 1 0.12,0.12 v 2.59 a 1.74,1.74 0 0 1 -3.47,0 z"
           id="path6037-0" />
        <path
           style="fill:#666666;stroke-width:1.10857189"
           class="cls-1"
           d="m 69.75,27.82 a 0.12,0.12 0 0 1 0.11,-0.12 h 1.47 a 2.18,2.18 0 1 1 0,4.36 h -1.47 a 0.12,0.12 0 0 1 -0.11,-0.12 z m 1.51,3.48 a 1.43,1.43 0 0 0 0,-2.85 h -0.71 v 2.85 z"
           id="path6039-2" />
        <path
           style="fill:#666666;stroke-width:1.10857189"
           class="cls-1"
           d="m 74.65,27.82 a 0.13,0.13 0 0 1 0.12,-0.12 h 0.58 a 0.13,0.13 0 0 1 0.12,0.12 v 4.12 a 0.13,0.13 0 0 1 -0.12,0.12 h -0.58 a 0.13,0.13 0 0 1 -0.12,-0.12 z"
           id="path6041-8" />
        <path
           style="fill:#666666;stroke-width:1.10857189"
           class="cls-1"
           d="m 77.49,28.45 h -0.95 a 0.12,0.12 0 0 1 -0.12,-0.12 v -0.51 a 0.12,0.12 0 0 1 0.12,-0.12 h 2.72 a 0.12,0.12 0 0 1 0.12,0.12 v 0.51 a 0.12,0.12 0 0 1 -0.12,0.12 h -1 v 3.49 a 0.13,0.13 0 0 1 -0.12,0.12 h -0.58 a 0.13,0.13 0 0 1 -0.12,-0.12 z"
           id="path6043-3" />
      </g>
    </g>
  </g>
</svg>
