<?xml version="1.0" encoding="UTF-8" standalone="no"?>
<svg
   xmlns:dc="http://purl.org/dc/elements/1.1/"
   xmlns:cc="http://creativecommons.org/ns#"
   xmlns:rdf="http://www.w3.org/1999/02/22-rdf-syntax-ns#"
   xmlns:svg="http://www.w3.org/2000/svg"
   xmlns="http://www.w3.org/2000/svg"
   id="svg188914"
   version="1.1"
   viewBox="0 0 16.7297 18.454"
   height="18.454mm"
   width="16.7297mm">
  <defs
     id="defs188908" />
  <metadata
     id="metadata188911">
    <rdf:RDF>
      <cc:Work
         rdf:about="">
        <dc:format>image/svg+xml</dc:format>
        <dc:type
           rdf:resource="http://purl.org/dc/dcmitype/StillImage" />
        <dc:title></dc:title>
      </cc:Work>
    </rdf:RDF>
  </metadata>
  <g
     transform="translate(747.68627,-382.26705)"
     id="layer1">
    <g
       style="stroke-width:1.2129575"
       transform="matrix(0.21813074,0,0,0.21813074,-747.68284,382.26719)"
       id="Layer_2-19-2"
       data-name="Layer 2">
      <g
         style="stroke-width:1.2129575"
         id="Layer_1-2-47-5"
         data-name="Layer 1">
        <path
           style="fill:#666666;stroke-width:1.2129575"
           class="cls-1"
           d="m 64.31,55.13 a 6.09,6.09 0 0 0 -4,-4.2 l -12.39,-3.6 a 1.32,1.32 0 0 0 -1.09,0.16 L 38.34,53 29.89,47.51 A 1.31,1.31 0 0 0 28.8,47.35 l -12.42,3.59 a 6.11,6.11 0 0 0 -4,4.25 L 9.29,68.43 a 1.32,1.32 0 0 0 1.1,1.6 l 6.15,0.92 c 0.46,1.05 2.46,1.63 7.09,2.1 3.94,0.39 9.16,0.61 14.71,0.61 5.55,0 10.78,-0.22 14.71,-0.61 4.67,-0.47 6.6,-1 7.09,-2.1 L 66.29,70 a 1.3,1.3 0 0 0 0.9,-0.56 1.33,1.33 0 0 0 0.2,-1 z m -16.17,-0.64 2.54,3.33 -11.28,12.24 8.2,-19.94 0.13,-0.08 3.94,1.14 -3.39,2.37 a 0.66,0.66 0 0 0 -0.14,0.94 z M 28.26,53.55 24.92,51.21 29,50 l 0.12,0.08 8.22,20 -0.06,0.08 -11.42,-12.34 2.55,-3.33 a 0.63,0.63 0 0 0 0.12,-0.5 0.61,0.61 0 0 0 -0.27,-0.44 z m 12.2,10.45 -1.29,-5.73 1.54,-1.87 -1,-1.19 5.92,-3.85 z m -3,-5.73 L 36.23,64 31,51.38 l 6,3.85 -1,1.19 z M 19,69.64 V 62 a 1.32,1.32 0 1 0 -2.64,0 v 6.23 l -4.21,-0.62 2.72,-11.79 a 3.44,3.44 0 0 1 2.24,-2.37 l 6.14,-1.78 3.65,2.55 -2.47,3.21 a 0.66,0.66 0 0 0 0,0.85 L 36.21,71 C 27,70.91 20.77,70.22 19,69.64 Z M 60.24,68.25 V 62 a 1.32,1.32 0 1 0 -2.64,0 v 7.62 c -1.74,0.58 -8,1.28 -17.31,1.36 L 52,58.3 a 0.65,0.65 0 0 0 0,-0.85 l -2.46,-3.21 3.68,-2.58 6.21,1.8 a 3.42,3.42 0 0 1 2.25,2.32 l 2.74,11.85 z"
           id="path3025-4" />
        <path
           style="fill:#666666;stroke-width:1.2129575"
           class="cls-1"
           d="M 76.68,7.89 A 2,2 0 0 0 75.2,6 114.76,114.76 0 0 0 38.34,0 114.74,114.74 0 0 0 1.34,6 2,2 0 0 0 0,7.86 C -0.3,29 3.71,44.1 10.06,55.6 l 0.21,-0.89 a 8.47,8.47 0 0 1 2,-3.6 C 7.1,40.7 3.87,27.37 4,9.32 A 111.15,111.15 0 0 1 38.34,4 111,111 0 0 1 72.7,9.32 c 0.1,18 -3.13,31.37 -8.28,41.77 a 8.36,8.36 0 0 1 2,3.47 v 0.09 l 0.22,0.94 c 6.3,-11.44 10.3,-26.4 10,-47.38 0.03,-0.1 0.04,-0.21 0.04,-0.32 z"
           id="path3027-4" />
        <path
           style="fill:#666666;stroke-width:1.2129575"
           class="cls-1"
           d="M 38.33,80.14 Q 35.47,78 32.66,75.72 c -2.32,-0.06 -4.51,-0.17 -6.49,-0.31 3.5,3.13 7.15,6 10.82,8.68 a 2,2 0 0 0 1.34,0.51 v 0 A 2,2 0 0 0 39.74,84 c 3.65,-2.69 7.28,-5.52 10.76,-8.63 -2,0.14 -4.17,0.25 -6.49,0.31 -1.87,1.57 -3.77,3.04 -5.68,4.46 z"
           id="path3029-9" />
        <path
           style="fill:#cccccc;stroke-width:1.2129575"
           class="cls-2"
           d="M 8,12.24 A 107.57,107.57 0 0 1 38.34,7.93 107.45,107.45 0 0 1 68.72,12.24 C 68.5,28 65.53,39.77 61.08,49 a 8.36,8.36 0 0 1 1.22,0.54 c 4.56,-9.43 7.58,-21.52 7.75,-37.75 A 0.68,0.68 0 0 0 69.58,11.15 108.76,108.76 0 0 0 38.34,6.65 108.83,108.83 0 0 0 7.09,11.12 0.65,0.65 0 0 0 6.62,11.76 C 6.79,28 9.81,40.07 14.36,49.5 A 7.91,7.91 0 0 1 15.59,49 C 11.14,39.77 8.17,28 8,12.24 Z"
           id="path3031-9" />
        <path
           style="fill:#666666;stroke-width:1.2129575"
           class="cls-1"
           d="m 26.54,37.94 a 4.27,4.27 0 0 0 0.83,0.77 17.56,17.56 0 0 0 4,6.71 9,9 0 0 0 7,3.29 h 0.08 a 9,9 0 0 0 7,-3.29 17.55,17.55 0 0 0 4,-6.71 4.57,4.57 0 0 0 0.83,-0.77 7.93,7.93 0 0 0 1.4,-2.69 9.74,9.74 0 0 0 0.32,-2.89 c 0,-0.22 0,-0.43 0,-0.66 v 0 0 a 4.38,4.38 0 0 0 -1,-2.45 3.52,3.52 0 0 0 -0.52,-0.5 c 0,-0.07 0,-0.15 0,-0.22 0.71,-3.92 -0.24,-11.22 -8.29,-13.73 a 12.49,12.49 0 0 0 -3.75,-0.6 11,11 0 0 0 -7.9,3.37 4.8,4.8 0 0 0 -3.53,2 c -0.93,1.22 -2.24,4 -1,9.32 a 3.24,3.24 0 0 0 -0.38,0.36 4.41,4.41 0 0 0 -1,2.44 v 0 a 5,5 0 0 0 0,0.69 10.07,10.07 0 0 0 0.82,3.83 6.73,6.73 0 0 0 1.09,1.73 z m 2.27,-17.06 a 2.56,2.56 0 0 1 2.19,-1.1 1.15,1.15 0 0 0 1,-0.43 8.66,8.66 0 0 1 6.52,-2.93 10.3,10.3 0 0 1 3.08,0.49 c 6.56,2.05 7.33,8 6.76,11.19 -0.06,0.32 -0.13,0.62 -0.19,0.92 a 1,1 0 0 0 0,0.29 c -2.24,0.33 -6.9,-2 -9.74,-6.38 A 3.62,3.62 0 0 0 35.47,21 c -2.39,-0.12 -4.53,2.51 -4.64,2.65 a 20.66,20.66 0 0 0 -2.45,5.13 c -1.26,-4.69 -0.28,-6.96 0.43,-7.9 z m -1.89,11.05 v 0 a 2.3,2.3 0 0 1 0.36,-1.08 c 0,0.23 0.07,0.44 0.1,0.62 0.16,1 0.2,1.23 0.62,1.23 v 0 c 0.4,0 0.46,-0.34 0.56,-0.87 a 19.88,19.88 0 0 1 3,-7.6 c 0,0 2,-2.38 3.88,-2.29 a 2.83,2.83 0 0 1 2.16,1.5 c 3,4.64 8.13,7.3 10.85,6.74 l -0.32,1.48 a 0.45,0.45 0 1 0 0.88,0.18 l 0.25,-1.17 v 0 a 2.21,2.21 0 0 1 0.46,1.22 v 0 0 c 0,0.14 0,0.29 0,0.44 a 7.52,7.52 0 0 1 -0.37,2.21 5.64,5.64 0 0 1 -1,1.92 1.9,1.9 0 0 1 -0.59,0.5 1.15,1.15 0 0 0 -0.57,0.71 15.07,15.07 0 0 1 -3.58,6.2 6.71,6.71 0 0 1 -5.31,2.57 v 0 A 6.71,6.71 0 0 1 33,43.9 15.07,15.07 0 0 1 29.42,37.7 1.15,1.15 0 0 0 28.85,36.99 2,2 0 0 1 28.26,36.5 a 4.93,4.93 0 0 1 -0.71,-1.19 8.12,8.12 0 0 1 -0.64,-3 c -0.01,-0.1 0,-0.25 0.01,-0.38 z"
           id="path3033-3" />
        <path
           style="fill:#666666;stroke-width:1.2129575"
           class="cls-1"
           d="m 34.55,41.67 a 8.24,8.24 0 0 0 3.75,0.95 8.65,8.65 0 0 0 3.82,-0.95 0.44,0.44 0 0 0 0.21,-0.6 0.45,0.45 0 0 0 -0.6,-0.2 7.18,7.18 0 0 1 -6.77,0 0.46,0.46 0 0 0 -0.61,0.2 0.45,0.45 0 0 0 0.2,0.6 z"
           id="path3035-6" />
        <ellipse
           style="fill:#666666;stroke-width:1.2129575"
           class="cls-1"
           cx="32.959999"
           cy="32.790001"
           rx="1.35"
           ry="1.79"
           id="ellipse3037-0" />
        <ellipse
           style="fill:#666666;stroke-width:1.2129575"
           class="cls-1"
           cx="43.720001"
           cy="32.790001"
           rx="1.35"
           ry="1.79"
           id="ellipse3039-5" />
        <path
           style="fill:#666666;stroke-width:1.2129575"
           class="cls-1"
           d="m 37.36,38.54 h 0.25 a 1,1 0 0 0 0.58,-0.18 0.44,0.44 0 0 0 0.12,-0.62 0.45,0.45 0 0 0 -0.63,-0.12 c 0,0 -0.09,0 -0.13,0 a 0.5,0.5 0 0 1 -0.27,-0.2 1.56,1.56 0 0 1 -0.1,-0.91 7,7 0 0 1 0.65,-2.24 0.45,0.45 0 1 0 -0.8,-0.39 7.63,7.63 0 0 0 -0.74,2.52 2.32,2.32 0 0 0 0.22,1.48 1.3,1.3 0 0 0 0.85,0.66 z"
           id="path3041-0" />
      </g>
    </g>
  </g>
</svg>
