<?xml version="1.0" encoding="UTF-8" standalone="no"?>
<svg
   xmlns:dc="http://purl.org/dc/elements/1.1/"
   xmlns:cc="http://creativecommons.org/ns#"
   xmlns:rdf="http://www.w3.org/1999/02/22-rdf-syntax-ns#"
   xmlns:svg="http://www.w3.org/2000/svg"
   xmlns="http://www.w3.org/2000/svg"
   id="svg211040"
   version="1.1"
   viewBox="0 0 18.309071 18.454"
   height="18.454mm"
   width="18.309071mm">
  <defs
     id="defs211034" />
  <metadata
     id="metadata211037">
    <rdf:RDF>
      <cc:Work
         rdf:about="">
        <dc:format>image/svg+xml</dc:format>
        <dc:type
           rdf:resource="http://purl.org/dc/dcmitype/StillImage" />
        <dc:title></dc:title>
      </cc:Work>
    </rdf:RDF>
  </metadata>
  <g
     transform="translate(582.9224,-118.43967)"
     id="layer1">
    <g
       style="stroke-width:1.04653716"
       transform="matrix(0.25281789,0,0,0.25281789,-582.92391,118.43815)"
       id="Layer_2-95-7"
       data-name="Layer 2">
      <g
         style="stroke-width:1.04653716"
         id="Layer_1-2-04-4"
         data-name="Layer 1">
        <path
           style="fill:#616161;stroke-width:1.04653716"
           class="cls-1"
           d="m 15.28,47 a 0.56,0.56 0 0 0 0.57,0.56 9.07,9.07 0 0 1 9,9.06 0.57,0.57 0 1 0 1.13,0 A 10.2,10.2 0 0 0 15.85,46.4 0.57,0.57 0 0 0 15.28,47 Z"
           id="path5051-9" />
        <path
           style="fill:#616161;stroke-width:1.04653716"
           class="cls-1"
           d="M 57.16,25.47 A 0.57,0.57 0 0 0 56.59,24.9 9.07,9.07 0 0 1 47.53,15.84 0.56,0.56 0 0 0 46.97,15.28 0.57,0.57 0 0 0 46.4,15.84 10.2,10.2 0 0 0 56.59,26 0.57,0.57 0 0 0 57.16,25.47 Z"
           id="path5053-9" />
        <path
           style="fill:#616161;stroke-width:1.04653716"
           class="cls-1"
           d="m 38.12,27.91 6.28,-6.28 a 1.7,1.7 0 0 0 0.41,-1.75 12.63,12.63 0 0 1 -0.67,-4 A 12.46,12.46 0 0 1 56.59,3.4 13.05,13.05 0 0 1 59.17,3.66 L 52.82,10 a 4,4 0 0 0 0,5.6 l 4,4 a 4,4 0 0 0 5.61,0 l 6.34,-6.34 a 12.25,12.25 0 0 1 0.23,2.58 12.46,12.46 0 0 1 -12.41,12.45 12.3,12.3 0 0 1 -4,-0.67 1.69,1.69 0 0 0 -1.75,0.41 l -6.29,6.29 0.71,0.7 2.58,0.81 4.68,-4.68 A 15.85,15.85 0 0 0 71.07,9.42 1.7,1.7 0 0 0 69.83,8.42 1.72,1.72 0 0 0 68.32,8.89 L 60,17.21 a 0.54,0.54 0 0 1 -0.4,0.17 0.57,0.57 0 0 1 -0.4,-0.17 l -4,-4 a 0.57,0.57 0 0 1 0,-0.8 l 8.3,-8.3 A 1.69,1.69 0 0 0 63,1.36 15.85,15.85 0 0 0 40.74,15.84 16.27,16.27 0 0 0 41.28,20 l -5.56,5.56 z"
           id="path5055-4" />
        <path
           style="fill:#616161;stroke-width:1.04653716"
           class="cls-1"
           d="m 34.45,45.79 -0.7,-0.7 -5.75,5.72 a 1.69,1.69 0 0 0 -0.41,1.75 12.3,12.3 0 0 1 0.67,4 A 12.46,12.46 0 0 1 15.85,69 12.28,12.28 0 0 1 13.27,68.73 l 6.34,-6.34 a 4,4 0 0 0 0,-5.61 l -4,-4 a 4,4 0 0 0 -5.6,0 L 3.66,59.17 A 13.05,13.05 0 0 1 3.4,56.59 12.46,12.46 0 0 1 15.85,44.14 a 12.62,12.62 0 0 1 4,0.67 1.7,1.7 0 0 0 1.75,-0.41 l 5.72,-5.72 -2.32,-2.4 -5,5 A 16.25,16.25 0 0 0 15.9,40.74 15.85,15.85 0 0 0 1.36,63 1.69,1.69 0 0 0 4.11,63.51 l 8.3,-8.3 a 0.58,0.58 0 0 1 0.8,0 l 4,4 a 0.57,0.57 0 0 1 0.17,0.4 0.54,0.54 0 0 1 -0.17,0.4 l -8.3,8.3 a 1.72,1.72 0 0 0 -0.47,1.51 1.7,1.7 0 0 0 1,1.24 15.66,15.66 0 0 0 6.43,1.36 15.84,15.84 0 0 0 15.3,-19.94 l 4.11,-4.11 z"
           id="path5057-5" />
        <path
           style="fill:#616161;stroke-width:1.04653716"
           class="cls-1"
           d="m 53,40 a 1.57,1.57 0 0 0 -0.7,-0.42 l -8.74,-2.73 a 1.58,1.58 0 0 0 -0.53,-0.07 l -15,-15 a 1.5,1.5 0 0 0 0,-0.3 l -1.36,-11 A 1.66,1.66 0 0 0 25.81,9.21 L 10.53,0.78 a 1.7,1.7 0 0 0 -2,0.28 l -8,8 a 1.7,1.7 0 0 0 -0.29,2 L 8.7,26.38 a 1.73,1.73 0 0 0 1.28,0.86 L 21,28.6 h 0.29 l 15,15 a 2,2 0 0 0 0.07,0.53 l 2.64,8.7 a 1.8,1.8 0 0 0 0.42,0.7 l 16.7,16.67 a 9.55,9.55 0 0 0 13.51,0 9.57,9.57 0 0 0 0,-13.52 z m 14.23,19.08 a 6.17,6.17 0 0 1 1.63,5.8 L 49.15,44.62 51,42.81 Z m 0,8.72 A 6.29,6.29 0 0 1 65.56,69 2.63,2.63 0 0 1 65.19,68.71 L 45.41,48.36 48.35,45.42 68.13,65.75 a 2.48,2.48 0 0 1 0.29,0.37 5.86,5.86 0 0 1 -1.19,1.68 z M 23.55,13 l 1,8.14 -4,4 -8.14,-1 z M 3.8,10.57 10,4.37 23.22,11.71 11.15,23.79 Z m 33.68,31.05 -14.3,-14.31 3.56,-3.57 14.31,14.31 z m 6,-1.21 6.3,2 -8,8 -2,-6.3 z m 15,27.39 -16.24,-16.28 2.37,-2.36 19.71,20.27 a 6.3,6.3 0 0 1 -1.44,0.17 6.13,6.13 0 0 1 -4.36,-1.8 z"
           id="path5059-9" />
      </g>
    </g>
  </g>
</svg>
