<?xml version="1.0" encoding="UTF-8" standalone="no"?>
<!-- Created with Inkscape (http://www.inkscape.org/) -->

<svg
   xmlns:dc="http://purl.org/dc/elements/1.1/"
   xmlns:cc="http://creativecommons.org/ns#"
   xmlns:rdf="http://www.w3.org/1999/02/22-rdf-syntax-ns#"
   xmlns:svg="http://www.w3.org/2000/svg"
   xmlns="http://www.w3.org/2000/svg"
   xmlns:sodipodi="http://sodipodi.sourceforge.net/DTD/sodipodi-0.dtd"
   xmlns:inkscape="http://www.inkscape.org/namespaces/inkscape"
   width="17.684715mm"
   height="18.454mm"
   viewBox="0 0 17.684715 18.454"
   version="1.1"
   id="svg238631"
   inkscape:version="0.92.3 (2405546, 2018-03-11)"
   sodipodi:docname="icon_lightbulb.svg">
  <defs
     id="defs238625" />
  <sodipodi:namedview
     id="base"
     pagecolor="#ffffff"
     bordercolor="#666666"
     borderopacity="1.0"
     inkscape:pageopacity="0.0"
     inkscape:pageshadow="2"
     inkscape:zoom="0.35"
     inkscape:cx="77.705647"
     inkscape:cy="354.8737"
     inkscape:document-units="mm"
     inkscape:current-layer="layer1"
     showgrid="false"
     fit-margin-top="0"
     fit-margin-left="0"
     fit-margin-right="0"
     fit-margin-bottom="0"
     inkscape:window-width="1887"
     inkscape:window-height="2105"
     inkscape:window-x="67"
     inkscape:window-y="27"
     inkscape:window-maximized="0" />
  <metadata
     id="metadata238628">
    <rdf:RDF>
      <cc:Work
         rdf:about="">
        <dc:format>image/svg+xml</dc:format>
        <dc:type
           rdf:resource="http://purl.org/dc/dcmitype/StillImage" />
        <dc:title></dc:title>
      </cc:Work>
    </rdf:RDF>
  </metadata>
  <g
     inkscape:label="Layer 1"
     inkscape:groupmode="layer"
     id="layer1"
     transform="translate(44.372119,-224.273)">
    <g
       data-name="Layer 2"
       id="Layer_2-22"
       transform="matrix(0.29474525,0,0,0.29474525,-44.372119,224.273)"
       style="fill:#58595b;fill-opacity:1;stroke-width:0.89766783">
      <g
         data-name="Layer 1"
         id="Layer_1-2-92"
         style="fill:#58595b;fill-opacity:1;stroke-width:0.89766783">
        <path
           id="path9998"
           d="m 46.5,39.68 a 19.05,19.05 0 1 0 -32.63,0 l 4.64,6.63 c 1.61,2.29 2.35,3.33 2.35,6 v 5.84 c 0,2.93 4.69,4.46 9.32,4.46 4.63,0 9.33,-1.53 9.33,-4.46 v -5.78 c 0,-2.72 0.73,-3.76 2.34,-6 l 4.6,-6.57 z m -18.83,8.25 a 0.42,0.42 0 0 0 0.41,0.4 v 0 a 0.41,0.41 0 0 0 0.41,-0.41 c 0,-1.09 0,-2.08 -0.09,-3 0.57,0 1.16,-0.08 1.78,-0.08 0.62,0 1.22,0 1.78,0.08 0,0.93 -0.07,1.92 -0.08,3 a 0.41,0.41 0 0 0 0.4,0.41 v 0 a 0.4,0.4 0 0 0 0.41,-0.4 c 0,-1.06 0,-2 0.08,-2.92 3.11,0.43 5.12,1.59 5.12,2.66 0,1.07 -3,2.43 -7.71,2.43 -4.71,0 -7.7,-1.44 -7.7,-2.43 0,-0.99 2,-2.23 5.11,-2.66 0.04,0.9 0.07,1.86 0.08,2.92 z M 28.36,44.1 A 65.37,65.37 0 0 0 26.54,32.47 l -0.09,-0.4 a 0.88,0.88 0 0 0 0.69,0.34 c 0.65,0 0.92,-0.62 1.14,-1.12 0.09,-0.22 0.27,-0.63 0.38,-0.63 0.11,0 0.29,0.41 0.39,0.63 0.22,0.5 0.49,1.12 1.13,1.12 0.64,0 0.92,-0.62 1.13,-1.12 0.1,-0.22 0.28,-0.63 0.39,-0.63 0.11,0 0.29,0.41 0.39,0.63 0.21,0.5 0.48,1.12 1.13,1.12 a 0.9,0.9 0 0 0 0.7,-0.34 l -0.09,0.4 A 64.47,64.47 0 0 0 32,44.1 c -0.59,-0.05 -1.2,-0.08 -1.83,-0.08 -0.63,0 -1.17,0.03 -1.81,0.08 z m 8.13,7.39 c -1.91,1.75 -6.13,2.88 -9.61,2.56 a 5.73,5.73 0 0 1 -3.59,-1.32 v -0.36 a 12.89,12.89 0 0 0 -0.14,-2 16,16 0 0 0 7,1.31 15.94,15.94 0 0 0 7,-1.31 v 0.25 a 3.71,3.71 0 0 1 -0.66,0.87 z m -13.2,3.22 a 8.78,8.78 0 0 0 3.45,1 c 0.44,0 0.88,0.06 1.33,0.06 a 15.93,15.93 0 0 0 9,-2.62 v 0.94 a 3.17,3.17 0 0 1 -0.56,0.62 c -1.9,1.66 -6.11,2.62 -9.59,2.16 a 5.9,5.9 0 0 1 -3.63,-1.49 z m 6.89,5.53 c -4.52,0 -6.89,-1.51 -6.89,-2 v -0.85 a 9.18,9.18 0 0 0 3.42,1.08 14.76,14.76 0 0 0 2,0.13 15.2,15.2 0 0 0 8.35,-2.29 v 1.93 c 0.01,0.49 -2.35,2 -6.88,2 z m 9.68,-15.32 c -0.51,0.73 -1,1.37 -1.34,2 -0.61,-1.31 -2.8,-2.34 -5.71,-2.73 A 65.67,65.67 0 0 1 34.62,32.64 L 35,31.16 a 0.64,0.64 0 0 0 -0.44,-0.76 0.66,0.66 0 0 0 -0.81,0.35 l -0.09,0.22 c -0.1,0.22 -0.28,0.63 -0.39,0.63 -0.11,0 -0.29,-0.41 -0.39,-0.63 -0.22,-0.5 -0.48,-1.12 -1.13,-1.12 -0.65,0 -0.92,0.62 -1.13,1.12 -0.1,0.22 -0.28,0.63 -0.39,0.63 -0.11,0 -0.29,-0.41 -0.39,-0.63 -0.21,-0.5 -0.48,-1.12 -1.13,-1.12 -0.65,0 -0.91,0.62 -1.13,1.12 -0.09,0.22 -0.27,0.63 -0.39,0.63 -0.12,0 -0.29,-0.41 -0.38,-0.63 a 1.47,1.47 0 0 0 -0.1,-0.22 0.65,0.65 0 0 0 -0.81,-0.35 0.64,0.64 0 0 0 -0.43,0.76 l 0.33,1.49 a 64.52,64.52 0 0 1 1.8,11.54 c -2.9,0.4 -5.09,1.42 -5.71,2.73 -0.38,-0.63 -0.83,-1.27 -1.34,-2 L 15.98,38.39 A 16.63,16.63 0 0 1 30.21,13.21 16.63,16.63 0 0 1 44.44,38.39 Z"
           class="cls-1"
           inkscape:connector-curvature="0"
           style="fill:#58595b;fill-opacity:1;stroke-width:0.89766783" />
        <path
           id="path10000"
           d="M 30.18,15.64 A 14.21,14.21 0 0 0 16,29.83 a 0.41,0.41 0 0 0 0.41,0.41 0.4,0.4 0 0 0 0.4,-0.41 13.4,13.4 0 0 1 13.37,-13.38 0.41,0.41 0 1 0 0,-0.81 z"
           class="cls-1"
           inkscape:connector-curvature="0"
           style="fill:#58595b;fill-opacity:1;stroke-width:0.89766783" />
        <polygon
           id="polygon10002"
           points="28.78,0 30,8.92 31.22,0 "
           class="cls-1"
           style="fill:#58595b;fill-opacity:1;stroke-width:0.89766783" />
        <polygon
           id="polygon10004"
           points="7.93,9.65 15.09,15.09 9.65,7.93 "
           class="cls-1"
           style="fill:#58595b;fill-opacity:1;stroke-width:0.89766783" />
        <polygon
           id="polygon10006"
           points="52.07,50.35 44.91,44.91 50.35,52.07 "
           class="cls-1"
           style="fill:#58595b;fill-opacity:1;stroke-width:0.89766783" />
        <polygon
           id="polygon10008"
           points="0,31.22 8.92,30 0,28.78 "
           class="cls-1"
           style="fill:#58595b;fill-opacity:1;stroke-width:0.89766783" />
        <polygon
           id="polygon10010"
           points="60,31.22 60,28.78 51.08,30 "
           class="cls-1"
           style="fill:#58595b;fill-opacity:1;stroke-width:0.89766783" />
        <polygon
           id="polygon10012"
           points="15.09,44.91 7.93,50.35 9.65,52.07 "
           class="cls-1"
           style="fill:#58595b;fill-opacity:1;stroke-width:0.89766783" />
        <polygon
           id="polygon10014"
           points="44.91,15.09 52.07,9.65 50.35,7.93 "
           class="cls-1"
           style="fill:#58595b;fill-opacity:1;stroke-width:0.89766783" />
      </g>
    </g>
  </g>
</svg>
