<svg xmlns="http://www.w3.org/2000/svg" viewBox="0 0 71.69 70.57"><defs><style>.cls-1{fill:#666;}</style></defs><title>Secure API Access Keys and Secrets</title><g id="Layer_2" data-name="Layer 2"><g id="Layer_1-2" data-name="Layer 1"><path class="cls-1" d="M57.86,17.53a13.9,13.9,0,0,0,.39-3.29A14.42,14.42,0,0,0,43.69,0,14.64,14.64,0,0,0,31,7.29,15.25,15.25,0,0,0,14.12,17.51,15,15,0,0,0,0,32.26,15,15,0,0,0,15.12,47.05h5a8.57,8.57,0,0,1,2.33-1V43.69H15.12A11.62,11.62,0,0,1,3.36,32.26,11.61,11.61,0,0,1,15,20.84a12.19,12.19,0,0,1,4.7,1,1.12,1.12,0,0,0,.87-2.07,14.61,14.61,0,0,0-3.28-.94,11.75,11.75,0,0,1,11.31-8.33h.29a12.45,12.45,0,0,1,7.95,2.95,1.09,1.09,0,0,0,.72.27,1.15,1.15,0,0,0,.86-.4,1.12,1.12,0,0,0-.13-1.58,15,15,0,0,0-4.44-2.59,11.25,11.25,0,0,1,9.88-5.75,11.06,11.06,0,0,1,11.2,10.88,10.54,10.54,0,0,1-.9,4.28,2.47,2.47,0,0,0-.11.36,14.17,14.17,0,0,0-4.47,1.73A1.12,1.12,0,0,0,50,22.69a1.16,1.16,0,0,0,.57-.15,12.08,12.08,0,0,1,5.38-1.68l.64,0A11.56,11.56,0,0,1,68.33,32.21,11.66,11.66,0,0,1,56.57,43.69H49.29V46a5.24,5.24,0,0,1,2.5,1h4.78A15,15,0,0,0,71.69,32.26,14.93,14.93,0,0,0,57.86,17.53Z"/><path class="cls-1" d="M52.09,66.65a3.92,3.92,0,0,1-3.92,3.92H23.52a3.92,3.92,0,0,1-3.92-3.92V52.09a3.92,3.92,0,0,1,3.92-3.92H48.17a3.92,3.92,0,0,1,3.92,3.92ZM48.73,52.09a.56.56,0,0,0-.56-.56H23.52a.56.56,0,0,0-.56.56V66.65a.56.56,0,0,0,.56.56H48.17a.56.56,0,0,0,.56-.56Z"/><path class="cls-1" d="M47.05,49.85H43.69V42c0-4.94-3.52-9-7.84-9S28,37.07,28,42v7.84H24.64V42c0-6.8,5-12.33,11.21-12.33S47.05,35.21,47.05,42Z"/><circle class="cls-1" cx="35.93" cy="57.69" r="3.36"/><path class="cls-1" d="M35.85,65a1.12,1.12,0,0,1-1.12-1.12v-5a1.12,1.12,0,1,1,2.24,0v5A1.12,1.12,0,0,1,35.85,65Z"/></g></g></svg>
