<svg xmlns="http://www.w3.org/2000/svg" viewBox="0 0 71.69 70.57"><defs><style>.cls-1{fill:#666;}</style></defs><title>Secure the Organization&amp;apos;s Cloud Infrastructure</title><g id="Layer_2" data-name="Layer 2"><g id="Layer_1-2" data-name="Layer 1"><path class="cls-1" d="M57.86,17.53a13.9,13.9,0,0,0,.39-3.29A14.42,14.42,0,0,0,43.69,0,14.64,14.64,0,0,0,31,7.29,15.25,15.25,0,0,0,14.12,17.51,15,15,0,0,0,0,32.26,14.92,14.92,0,0,0,13.08,46.91a22.83,22.83,0,0,1,.67-3.31A11.56,11.56,0,0,1,3.36,32.26,11.61,11.61,0,0,1,15,20.84a12.19,12.19,0,0,1,4.7,1,1.12,1.12,0,0,0,.87-2.07,14.61,14.61,0,0,0-3.28-.94,11.75,11.75,0,0,1,11.31-8.33h.29a12.45,12.45,0,0,1,7.95,2.95,1.09,1.09,0,0,0,.72.27,1.15,1.15,0,0,0,.86-.4,1.12,1.12,0,0,0-.13-1.58,15,15,0,0,0-4.44-2.59,11.25,11.25,0,0,1,9.88-5.75,11.06,11.06,0,0,1,11.2,10.88,10.54,10.54,0,0,1-.9,4.28,2.47,2.47,0,0,0-.11.36,14.17,14.17,0,0,0-4.47,1.73A1.12,1.12,0,0,0,50,22.69a1.16,1.16,0,0,0,.57-.15,12.08,12.08,0,0,1,5.38-1.68l.64,0A11.56,11.56,0,0,1,68.33,32.21,11.62,11.62,0,0,1,57.94,43.6a22.56,22.56,0,0,1,.67,3.31,14.75,14.75,0,0,0-.75-29.38Z"/><path class="cls-1" d="M35.85,70.57A20.73,20.73,0,1,1,56.57,49.85,20.75,20.75,0,0,1,35.85,70.57Zm0-38.08A17.36,17.36,0,1,0,53.21,49.85,17.38,17.38,0,0,0,35.85,32.49Z"/><path class="cls-1" d="M54.26,51H17.43a1.12,1.12,0,1,1,0-2.24H54.26a1.12,1.12,0,1,1,0,2.24Z"/><path class="cls-1" d="M35.85,41.53a54.73,54.73,0,0,1-10.2-.83c-3.39-.68-5-1.67-5-3a.56.56,0,0,1,1.12,0c0,1.33,5.67,2.74,14.12,2.74S50,39,50,37.67a.56.56,0,0,1,1.12,0C51.08,41.35,38.39,41.53,35.85,41.53Z"/><path class="cls-1" d="M50.52,62.45a.56.56,0,0,1-.56-.56c0-.51-1.08-1.32-4.14-1.93a54.06,54.06,0,0,0-10-.81c-8.45,0-14.12,1.42-14.12,2.74a.56.56,0,0,1-1.12,0C20.61,58.21,33.3,58,35.85,58s15.23.18,15.23,3.86A.56.56,0,0,1,50.52,62.45Z"/><path class="cls-1" d="M35.76,69.39a1.12,1.12,0,0,1-1.12-1.12V31.43a1.12,1.12,0,0,1,2.24,0V68.27A1.12,1.12,0,0,1,35.76,69.39Z"/><path class="cls-1" d="M35.85,68.83a.56.56,0,0,1,0-1.12c4,0,6.46-3,7.79-5.46a26.94,26.94,0,0,0,2.7-12.4c0-8.6-3.29-17.86-10.49-17.86a.56.56,0,0,1,0-1.12c8,0,11.61,9.84,11.61,19S43.82,68.83,35.85,68.83Z"/><path class="cls-1" d="M35.85,68.83c-8,0-11.62-9.84-11.62-19a28.12,28.12,0,0,1,2.83-12.93c2.11-4,5.15-6.05,8.79-6.05a.56.56,0,0,1,0,1.12c-7.21,0-10.5,9.26-10.5,17.86s3.29,17.86,10.5,17.86a.56.56,0,1,1,0,1.12Z"/></g></g></svg>
