<svg xmlns="http://www.w3.org/2000/svg" viewBox="0 0 75.6 72.94"><defs><style>.cls-1{fill:#616161;}</style></defs><title>Comprehensive Secrets Management</title><g id="Layer_2" data-name="Layer 2"><g id="Layer_1-2" data-name="Layer 1"><path class="cls-1" d="M16.5,72.94c-.43,0-.85,0-1.23-.07a4.58,4.58,0,0,0-.67-.05h-.22l-.23,0L2.5,70.34,0,61.18,30.81,29.84c-3.93-8.61-2.43-16.41,4.45-23.21A23.18,23.18,0,0,1,52.63,0,24.23,24.23,0,0,1,70,8.73a23.61,23.61,0,0,1-1.33,31.94c-6,5.86-14.49,7.72-22.87,5.07L42.2,49.38l-5.88-.1,0,5.48-5.48-.1,0,5.48L24.06,60l0,6.85L20,66.79v2.08a3.82,3.82,0,0,1-1.24,3.32A3.09,3.09,0,0,1,16.5,72.94Zm-1.84-3.48c.28,0,.59,0,.91.06s.74.06,1,.06l0,0c0-.07,0-.51,0-.65l0-5.53,4.11.08,0-6.85,6.85.12,0-5.47,5.48.09,0-5.47,7.89.14,4.1-4.13,1,.36c7.46,2.7,15.09,1.21,20.41-4a20.24,20.24,0,0,0,1.1-27.38,20.68,20.68,0,0,0-15-7.5A19.54,19.54,0,0,0,37.62,9c-6.18,6.11-7.23,12.59-3.28,20.4l.54,1.07L3.75,62.16,5.2,67.47Z"/><path class="cls-1" d="M58,23.15h-.11a5.83,5.83,0,0,1-5.68-5.75h0a5.52,5.52,0,0,1,5.65-5.58,5.82,5.82,0,0,1,5.68,5.75A5.51,5.51,0,0,1,58,23.15Zm-4.59-5.76A4.6,4.6,0,0,0,57.94,22a4.39,4.39,0,0,0,3.15-1.25,4.3,4.3,0,0,0,1.28-3.12A4.61,4.61,0,0,0,57.86,13a4.32,4.32,0,0,0-4.42,4.37Z"/><rect class="cls-1" x="4.5" y="48.25" width="38.82" height="1.2" transform="translate(-27.54 31.21) rotate(-45)"/></g></g></svg>
