<svg xmlns="http://www.w3.org/2000/svg" viewBox="0 0 55 55"><defs><style>.cls-1{fill:#58595b;}</style></defs><title>Countries</title><g id="Layer_2" data-name="Layer 2"><g id="Layer_1-2" data-name="Layer 1"><path class="cls-1" d="M29.82,6.84a4.27,4.27,0,0,0,.81-.1,3,3,0,0,1,.45-.06l.25,0,.11-.22c.13-.26.2-.29.32-.3l.27,0,.09-.24a1.56,1.56,0,0,0,.08-.75,1.62,1.62,0,0,0,0-.21V4.49h-.42c-.37,0-.68,0-1,0a8.59,8.59,0,0,1-1.13,0,.9.9,0,0,0-.7-.37,1,1,0,0,0-.92,1,1,1,0,0,0,.64,1A1.1,1.1,0,0,0,29.82,6.84ZM29,5.05a.53.53,0,0,1,.13.15l.11.16.2,0a7.22,7.22,0,0,0,1.47,0l.48,0a1.28,1.28,0,0,0-.55.49l-.31.05a4.22,4.22,0,0,1-.66.08c-.33,0-.35-.1-.37-.22l-.06-.3-.3,0c-.17,0-.18-.09-.18-.12A.57.57,0,0,1,29,5.05Z"/><path class="cls-1" d="M9.34,13.26a.66.66,0,0,0-.58.27.57.57,0,0,0,0,.55l.06.15.13.07a.91.91,0,0,0,.4.1.73.73,0,0,0,.77-.58l.05-.29-.26-.15A1.25,1.25,0,0,0,9.34,13.26Z"/><path class="cls-1" d="M27.5,0A27.5,27.5,0,1,0,55,27.5,27.54,27.54,0,0,0,27.5,0ZM47.81,24.58a1.25,1.25,0,0,0-.49-1,1.34,1.34,0,0,1-.32-.39,1.19,1.19,0,0,1-.08-.16c-.16-.36-.42-1-1-1a.78.78,0,0,0-.41.12l-.2.11,0,.23a.51.51,0,0,0,.14.4.31.31,0,0,0,.12.1c.12.35.27.72.43,1.1s.29.7.42,1.06a4,4,0,0,0,.83,1.56,1.07,1.07,0,0,0,.09.27,1.23,1.23,0,0,0,0,.13v.13l.07.11a2.79,2.79,0,0,0,.83.82l.23.17.1.09a1.1,1.1,0,0,0,.85.41h0a2.1,2.1,0,0,0,.85-.23l.34-.14a1.41,1.41,0,0,0-.18.5,4.9,4.9,0,0,0-.72,1.33l-.06.13-.41.37c-.17.16-.35.32-.54.47s-.38.27-.59.41a3.3,3.3,0,0,0-.85.66A8.46,8.46,0,0,0,46.53,34a1.46,1.46,0,0,0,.25,1.2,2.29,2.29,0,0,1,.14.27s0,0,0,.08a1,1,0,0,0,.12.45v.2c0,.61,0,.75-.34.92a3.81,3.81,0,0,0-.58.41l-.11.09-.19.14c-.41.3-.93.68-.84,1.18a1.11,1.11,0,0,0,.08.3c.08.23.09.32,0,.44s0,0-.17.11L44.6,40l-.18.11,0,.22a3.07,3.07,0,0,0,0,.38,2,2,0,0,1,0,.23l-.31.37a3.52,3.52,0,0,1-1.2,1.11l-.17.08,0,.18s0,.08,0,.12l-.31,0a9.8,9.8,0,0,1-1.52.16c-.51,0-.83-.09-1-.27,0-.39-.1-1.06-.55-1.25a6.66,6.66,0,0,1-.22-1.13c0-.29-.08-.59-.14-.86a3.81,3.81,0,0,0-.27-1.38,3.31,3.31,0,0,0-.21-.46,1.38,1.38,0,0,1-.19-.42,1.68,1.68,0,0,1,.37-1.09,2.41,2.41,0,0,0,.46-1.94,2.46,2.46,0,0,0-.4-.77A2.08,2.08,0,0,0,38,32a2.63,2.63,0,0,1-.4-.51.41.41,0,0,0,0-.09A1.76,1.76,0,0,0,38,30.29v-.13l-.07-.11a1.34,1.34,0,0,1-.11-.21l-.11-.24-.12-.22h-.26c-.7,0-.84-.15-.88-.27l-.1-.24-.25,0a1.7,1.7,0,0,0-.33,0l-.16-.15-.27.15a4.3,4.3,0,0,1-1.59.35h0a1.72,1.72,0,0,0-1.42,0A1.18,1.18,0,0,1,31.6,29l0-.05a1.23,1.23,0,0,0-.45-.59,2.41,2.41,0,0,0-.6-.91,1.4,1.4,0,0,1-.42-.63l0-.14L30,26.57l-.14-.1c-.22-.17-.25-.19-.21-.44a4.28,4.28,0,0,1,.13-.46,2.32,2.32,0,0,0,.13-1.05c0-.13,0-.26,0-.39s0-.26,0-.38a1.26,1.26,0,0,0-.08-.3,2.4,2.4,0,0,1,.23-.21,1.25,1.25,0,0,0,.52-.76,4.33,4.33,0,0,1,1-.7l.12-.06.07-.12a1,1,0,0,1,.14-.11,1.28,1.28,0,0,0,.33-.3l.09-.11v-.62l.28-.2a2.27,2.27,0,0,0,.84-.8.56.56,0,0,1,.24.14l.18.16.23-.08a9.45,9.45,0,0,1,1.25-.23,9.15,9.15,0,0,0,1.67-.33,1.46,1.46,0,0,0,1,0l.27,0,.23,0v.33a3,3,0,0,1,0,.53l0,.31.29.14a12.19,12.19,0,0,0,1.2.49,1.06,1.06,0,0,0,.89.58A.87.87,0,0,0,41,21.5l.16-.06.07-.14a1.28,1.28,0,0,0,.1-.34c.37-.16.79,0,1.26.24a3.29,3.29,0,0,0,1.56.41,1.66,1.66,0,0,0,.44-.11l.16-.05a.79.79,0,0,1,.28.06,1.56,1.56,0,0,0,.89,0l.22-.07.06-.23a4.87,4.87,0,0,1,.18-.47,3,3,0,0,0,.3-1l.06-.06-.05,0a2.48,2.48,0,0,0,0-.38L46.64,19h-.36a1.35,1.35,0,0,0-.58.15l0,0A3.51,3.51,0,0,0,44.38,19h-.22l-.1-.11c-.07-.08-.14-.15-.19-.22,0-.27,0-.46.05-.71H44a.85.85,0,0,0,.77-.22l0,0a3.88,3.88,0,0,1,.92-.07,5.48,5.48,0,0,1,.85.05,1,1,0,0,1,.19.15,1.3,1.3,0,0,0,.58.33,1.43,1.43,0,0,0,.82-.1.67.67,0,0,1,.19-.06l.45-.06-.06-.3a.56.56,0,0,0,.1-.43l0-.16-.31-.25a3.21,3.21,0,0,1-.83-.86.62.62,0,0,0,.11-.79l-.4-.66-.32.64h-.23a1.55,1.55,0,0,0-.55.09l-.2.09,0,.08-.39,0c-.08,0-.1,0-.1,0L45.47,15l-.35.07a1.43,1.43,0,0,0-1,.81l-.17.27-.13.14a.86.86,0,0,0-.29.61.71.71,0,0,0,.09.34h0a1,1,0,0,0-.34-.06,2,2,0,0,0-1,.39l-.25.17.07.29,0,.2a3,3,0,0,0-.63-.89,1.44,1.44,0,0,0-.35-.95A1.13,1.13,0,0,0,40.07,16l-.37.06v.37a1.8,1.8,0,0,0,.32,1l-.1.09a1.79,1.79,0,0,0-.19-.32,1.62,1.62,0,0,0-.24-.93,1.2,1.2,0,0,0-1.85-.41,1.33,1.33,0,0,1-.24.12,1.61,1.61,0,0,0-1,0l-.27.05-.28.05-.07.28c-.06.3-.3.43-.72.64l-.22.11-.26.14,0,.29a.72.72,0,0,1-.16.56,1.08,1.08,0,0,1-1,.26h-.1a.66.66,0,0,0-.3.07,4.79,4.79,0,0,1-.68-.34,5.87,5.87,0,0,1,0-.62,4.49,4.49,0,0,0,0-1,3.89,3.89,0,0,1,1.14,0,6.28,6.28,0,0,0,1,0l.23,0,.11-.21a1.61,1.61,0,0,0,.13-.5,1.12,1.12,0,0,1,.06-.26l.1-.17-.06-.18a1.79,1.79,0,0,0-.53-.8l.37-.11a2.37,2.37,0,0,0,.77-.45,1.12,1.12,0,0,1,.58-.32l.25,0,.09-.24c.07-.18.24-.3.51-.47a4.68,4.68,0,0,0,.4-.27.91.91,0,0,0,.77-.29,1.26,1.26,0,0,0,.13-1.07,1.67,1.67,0,0,1-.05-.43c.16-.1.31-.2.43-.16s.4.49.54.82a1.82,1.82,0,0,0,.13.28l.12.26h1.11A2.36,2.36,0,0,0,42,11.56l.17-.11,0-.2a2.64,2.64,0,0,0,0-.29.45.45,0,0,0,0-.12.9.9,0,0,0,1-.2.81.81,0,0,0,.19-.67.63.63,0,0,0-.1-.27,2.2,2.2,0,0,1,.58,0l.35.07.09-.22h.24l0-.23a25.1,25.1,0,0,1,6.08,8.86,1,1,0,0,0-.11.41,1.08,1.08,0,0,0,.3.83,1,1,0,0,0,.35.24,24.55,24.55,0,0,1,.77,2.86c0-.06-.09-.12-.13-.19a1.34,1.34,0,0,0-1.34-.75l-.37.05V22a1,1,0,0,0,.43.83l.05.05a.73.73,0,0,0,.11.63l0,.05a.7.7,0,0,0,.49.21s0,0,.06,0a.53.53,0,0,1,.09.11,1,1,0,0,0,.79.48h.07c.07.56.12,1.13.16,1.71a3.86,3.86,0,0,0-1.58.87,4,4,0,0,0-1,.17,1.5,1.5,0,0,1-.9.09c0-.13,0-.26,0-.39a2.89,2.89,0,0,0-.33-1.5l0-.05c-.12-.13-.25-.24-.38-.36A3.14,3.14,0,0,1,47.81,24.58ZM48,26.25l0,0a2.34,2.34,0,0,1-.51-.8l.15.13.28.26A1.19,1.19,0,0,1,48,26.25Zm-5-8.13.08,0c0,.18,0,.35-.06.61v.15l.08.13a4.45,4.45,0,0,0,.37.45l.2.21.12.14h.18l.42,0a6,6,0,0,1,.63.05v.45l.26.11a.85.85,0,0,0,.35.08h0c0,.09-.08.17-.11.25l-.19-.05a2,2,0,0,0-.53-.09,1.2,1.2,0,0,0-.47.11,1,1,0,0,1-.18.05h-.06A2.78,2.78,0,0,1,43,20.42,3.15,3.15,0,0,0,41.68,20a1.69,1.69,0,0,0-.94.28l-.14.09,0,.13h0l-.06-.22-.31-.11c-.28-.1-.6-.22-.92-.36,0-.11,0-.21,0-.33s0-.29,0-.51v-.1l0-.1a.92.92,0,0,0-.77-.48l.09-.17a2.66,2.66,0,0,0,.19-.46l0-.09.26.17s.09.14.13.22a1,1,0,0,0,1,.73l.19,0h.13l.09-.09a.89.89,0,0,0,.31-.62l0,0a2,2,0,0,1,.6,1.25l0,.4h.4a1,1,0,0,0,.78-.38A1.57,1.57,0,0,0,43,18.12Zm-4.31-1.21a.58.58,0,0,0-.31-.08A.79.79,0,0,0,38,17s0,0,0,0l-.42,0,0,.42a1,1,0,0,0,.27.82l-.14.11a.38.38,0,0,1-.17,0,.44.44,0,0,1-.24-.05l-.2-.13-.21.1a6.68,6.68,0,0,1-1.54.33,1.6,1.6,0,0,0,.28-.8,2,2,0,0,0,1-.92h0a1.32,1.32,0,0,1,.31-.05.52.52,0,0,1,.24.07l.11.05h.13a1.48,1.48,0,0,0,.68-.27.89.89,0,0,1,.36-.15h0a.59.59,0,0,1,.31.27.61.61,0,0,1,.1.26Zm6.92-.29a1.1,1.1,0,0,0,.31,0,1.91,1.91,0,0,0,.88-.28l.16-.09a3.29,3.29,0,0,0,.84,1,.5.5,0,0,1-.24,0,.68.68,0,0,1-.18-.14,1.47,1.47,0,0,0-.46-.3,4.58,4.58,0,0,0-1.15-.11,5.32,5.32,0,0,0-1.15.1l-.13.05h0l0,0a2.81,2.81,0,0,0,.2-.24,3,3,0,0,0,.21-.33,2,2,0,0,1,.21-.3.54.54,0,0,0,.15.09v0a.28.28,0,0,1,0,.08v.33Zm-11.4-6.53.07,0,0,0c0,.06,0,.11-.08.16l-.11.25.17.2a3.84,3.84,0,0,0,.35.35c.27.24.4.38.43.66l0,.29.28.09a.23.23,0,0,1,.18.22.38.38,0,0,1-.11.31h-.27a5.51,5.51,0,0,0-.7.06.53.53,0,0,0-.09-.35l0,0a.5.5,0,0,0,0-.13h0l.41-.14-.09-.26.33-.13-.44-.46A.87.87,0,0,0,34,11a1.91,1.91,0,0,0-.15-.21,1.21,1.21,0,0,0,0-.33l0-.14-.1-.1L33.63,10a.5.5,0,0,1,.16-.11l0,0Zm3.49-2a3.53,3.53,0,0,0,1.66-1.6l0-.09v-.1a1,1,0,0,1,.19-.61c.62.34,1.22.71,1.8,1.1L41.14,7c-.45.3-1.07.7-.92,1.57l0,.13.09.09.12.13.12.12a4.68,4.68,0,0,1-.48.82A.84.84,0,0,1,40,9.59l-.12-.24h-.26a.8.8,0,0,1-.35-.13.41.41,0,0,0-.11-.07L38.9,9l-.21.11a1.86,1.86,0,0,0-.31.21,1.07,1.07,0,0,1-.22.14A.71.71,0,0,0,38,9.35a1,1,0,0,0-.34-.09c0-.07,0-.14,0-.21A5,5,0,0,0,37.67,8.1Zm3.83.67v.14l-.06-.15a1.93,1.93,0,0,0-.39-.5c0-.2.15-.32.52-.57A2.2,2.2,0,0,0,41.5,8.77Zm0,.35L41.52,9v.13l.34,0,.11.09a2,2,0,0,0,.26.19,1.16,1.16,0,0,0,0,.18.57.57,0,0,0,.08.31h-.17c-.68,0-.73.72-.75,1a2.2,2.2,0,0,1-.62.06h-.57l-.07-.18.22.06.17-.19A4.85,4.85,0,0,0,41.45,9.12Zm1.11-1.46q.57.44,1.11.9a2.74,2.74,0,0,0-.5.07,1.88,1.88,0,0,1-.37.06h0a.59.59,0,0,1-.22-.14,1.75,1.75,0,0,0-.2-.16A1.08,1.08,0,0,1,42.56,7.66Zm-14.63-5a4.6,4.6,0,0,1-2.15.43H25.7l-.07,0a.83.83,0,0,0-.5.47l-.21.06a2.08,2.08,0,0,0-.59.22,1.39,1.39,0,0,0-.39.37.61.61,0,0,0-.07.1.85.85,0,0,0-.25,0h0A1.4,1.4,0,0,0,22.49,5a1.26,1.26,0,0,1-.42.41l-.15.08-.06.16c0,.12-.09.24-.14.36a4.55,4.55,0,0,0-.3.86l-.1.07h-.1a2.26,2.26,0,0,0-1.34-.86L19.65,6a5.05,5.05,0,0,0-.11-.56,2.68,2.68,0,0,1-.08-.77V4.55l-.08-.12A1.86,1.86,0,0,0,19,4.07,24.89,24.89,0,0,1,27.5,2.58h.28ZM15.87,10.23a1.47,1.47,0,0,0,.66.15h0v.1c-.11.18-.22.22-.5.29l-.19,0a1.33,1.33,0,0,0-.43.22.88.88,0,0,1-.2.12,2.21,2.21,0,0,1-.79,0,2.94,2.94,0,0,0-1-.06,1.91,1.91,0,0,0-.86.45,1.15,1.15,0,0,1-.45.25l0,.86h.08a4.19,4.19,0,0,0,1.15-.21l.09,0-.06.1-.09.2.07.19a.73.73,0,0,1,0,.31,2,2,0,0,0-1,.42,1,1,0,0,1-.7.28h0l-.35,0-.09.34a.88.88,0,0,0,0,.32,2.87,2.87,0,0,1-.43.25,2.29,2.29,0,0,0-1.11,1H9.62l-.51,0,.13.49c.24.9-.76,1.3-1.2,1.43l-.2.06-.08.2a1.33,1.33,0,0,1-.26.45l-.13.17v.13a1.51,1.51,0,0,0,0,.3.55.55,0,0,0-.08-.15l0-.33-.56.07a1,1,0,0,1-.55-.1,2,2,0,0,0-.69-.15,1.39,1.39,0,0,0-.4.06L5,18.5a.69.69,0,0,0-.17.17,4.71,4.71,0,0,0-.62-.07,24.68,24.68,0,0,1,1.9-3.9l.1,0c.71-.16.66-.87.65-1.13h0L7,13.42l.21-.07v0a1.46,1.46,0,0,0,.19.85l1,1.53L8.13,14s0-.08.17-.22a1.06,1.06,0,0,0,.41-1l-.08-.36H8.27A.45.45,0,0,1,8,12.32l-.19-.09c.38-.49.77-1,1.19-1.42a.77.77,0,0,0,.4-.42l.21-.23.16-.08,0-.05a25.15,25.15,0,0,1,2.8-2.46,1,1,0,0,0,.4.35l.1,0h.12a1.16,1.16,0,0,0,1.07-.72c.27.18.38.52.54,1.07a5.08,5.08,0,0,0,.15.52l0,.1L15,9l.26.22a.94.94,0,0,1,.34.37l0,.1a.31.31,0,0,1,0,.08l-.05.3Zm-.48,2.27h-.07l-.36.05-.07.26c-.05.17-.35.27-.59.2h0a1.5,1.5,0,0,0,0-.22l.08-.07a1.21,1.21,0,0,0,.51-.68,1.63,1.63,0,0,0,.63-.06l.1,0A3.33,3.33,0,0,0,15.39,12.5Zm1.28-.72a.82.82,0,0,0,.22.57l.18.18.22,0,0,.16-.35,0a1.71,1.71,0,0,0-.66-.3A1.53,1.53,0,0,1,16.67,11.78ZM8.41,20.62a.52.52,0,0,0,.29.27.7.7,0,0,0,.08.46l-.25-.08-.43-.15.16-.22A1.1,1.1,0,0,0,8.41,20.62ZM12,23.8l.19,0a1.76,1.76,0,0,0,.4.06h0a.75.75,0,0,0,.23,0l.14,0,.13,0a.46.46,0,0,0,.15.16.37.37,0,0,0,.05.11l0,.19.24.08h0v.15l0,0-.46.47.55.21a.71.71,0,0,0-.17.36l-.08,0-.32-.08-.15.07a.81.81,0,0,1-.17.07l-.11-.06c-.09,0-.19-.1-.33-.15a1.1,1.1,0,0,0-.36-.07h-.07l-.05-.06a.69.69,0,0,0-.57-.31h0a.6.6,0,0,0-.27.07l-.05-.29h-.37a1.36,1.36,0,0,0-.87.42,1.6,1.6,0,0,1-.3.23,1.19,1.19,0,0,0-.68.14.67.67,0,0,0-.38-.17l-.26,0c-.38,0-1-.08-1-.22A1.06,1.06,0,0,1,7.17,25a1.58,1.58,0,0,0,.11-1.22l-.09-.2-.16,0,0,0a1,1,0,0,0-.37-.34A1.7,1.7,0,0,0,6,23a1.21,1.21,0,0,1-.3,0c0-.11,0-.18.12-.35A1.51,1.51,0,0,0,6,21.78V21.6l-.13-.12a1.22,1.22,0,0,0-.81-.31,1.27,1.27,0,0,0-1.15.76,1.09,1.09,0,0,0-.19.1l-.1,0A.56.56,0,0,1,3.21,22a24,24,0,0,1,.71-2.51H4a3.71,3.71,0,0,1,.94.13l.12,0,.12,0a.71.71,0,0,0,.36-.31,1,1,0,0,1,.42.09,2,2,0,0,0,.68.16,3.41,3.41,0,0,0,1,1.42,1.56,1.56,0,0,0-.52-.11.86.86,0,0,0-.85.66l-.1.3.27.18a3.2,3.2,0,0,0,1.11.4l.48.13v1h.43a.41.41,0,0,1,.18,0,1.4,1.4,0,0,0,.46.11l.4,0,0-.16a.42.42,0,0,0,.06.08l.12.1h.66a3.51,3.51,0,0,0,.53.1l.2,0,.2,0,.15-.14h0l-.1.33Zm5.21,6.68a1.61,1.61,0,0,0,.68-.06l.23-.05c.19.12.38.22.57.32a6.37,6.37,0,0,1,.89.54l.16.12.19,0c.22,0,.34,0,.65.2a4.37,4.37,0,0,0,.49.26,3.73,3.73,0,0,1,.46.29,4.87,4.87,0,0,0,.68.4l0,0,0,.09c0,.1-.08.2-.11.29-.13.38-.17.42-.29.43l-.31,0-.07.31a.83.83,0,0,0,0,.15.84.84,0,0,0-.05.17l-.34.12-.31.1,0,.33a4.8,4.8,0,0,1,0,.66s0,.1,0,.15a4.9,4.9,0,0,0-.67,1.51,3.58,3.58,0,0,1-.11.35c-.3.07-.58.16-.84.24a7.55,7.55,0,0,1-.9.25l-.15,0-.1.11a2.29,2.29,0,0,1-.32.28,2.45,2.45,0,0,0-.53.5l-.13.17.07.21a1.25,1.25,0,0,1,0,.59,1,1,0,0,0-.65.64l-.19-.05-.17.17a3.18,3.18,0,0,0-.48.63l-.09.15-.43.09a1.77,1.77,0,0,1-.82,0l-.4-.08-.1.4a.87.87,0,0,0,.29.81,2.82,2.82,0,0,1-1.51.52h-.15l-.11.1a.51.51,0,0,0-.17.48.92.92,0,0,0-.73.5l0,.1a.73.73,0,0,0,0,.38c-.12.2-.27.4-.41.6a6.24,6.24,0,0,0-.46.68c-.47-.44-.92-.89-1.36-1.36a4,4,0,0,0,.06-.47l0-.22-.16-.14C9.06,43.5,9,43.35,9,43a5.45,5.45,0,0,0,.31-.58,3.42,3.42,0,0,1,.33-.58l.11-.11v-.16a3,3,0,0,0-.09-.87,2.63,2.63,0,0,1-.06-.39,3.17,3.17,0,0,0,.74-1.9,1.29,1.29,0,0,0,.07-.63c0-.13,0-.28,0-.39s.05-.26.07-.39c.14-.73.28-1.5-.56-2l-.17-.07-.15,0-.14,0h0a1.29,1.29,0,0,1-.22-.55c0-.15-.08-.3-.14-.47a2.42,2.42,0,0,0-.47-.68,1.73,1.73,0,0,1-.33-.42,2.21,2.21,0,0,1-.09-.35A2.48,2.48,0,0,0,8,31.83L8,31.7l-.06,0v0a1.68,1.68,0,0,0-.1-.29,2,2,0,0,0-.19-.31.86.86,0,0,1-.19-.38l.1-.13a1.35,1.35,0,0,0,.32-.61,2,2,0,0,0,0-.54s0-.07,0-.11l0,0a5.35,5.35,0,0,0,.85-1.11,1.36,1.36,0,0,0,0-1.48l.15-.1c.22-.14.37-.22.5-.19l.12,0,.12,0a1.64,1.64,0,0,0,.54-.32l0,.13.35.14a.69.69,0,0,0,.24.05.75.75,0,0,0,.59-.35,1,1,0,0,0,.24.19.88.88,0,0,0,.37.09l.14,0,.24.11a1,1,0,0,0,.91.07h0c.46.13.74.22.9.5l.12.21.23,0,.07,0c.06.06.13.12.18.18a1.35,1.35,0,0,1,.17.17l.09.14.17,0a2.61,2.61,0,0,1,1,.52,3.58,3.58,0,0,0,.95.55l.16.19a.81.81,0,0,1,.16.2h0a1.57,1.57,0,0,0-.47.7l-.13.48ZM13.93,25l-.07.13a.13.13,0,0,1-.07-.09.21.21,0,0,1,0-.16l.1.06v0Zm0-.82,0-.05v0Zm-.5-.68s0,0,0,0l-.09.08a.48.48,0,0,1,.08-.16h0Zm.34,2.21a.33.33,0,0,1,.26-.18l.06.34a2.08,2.08,0,0,0-.32-.12Zm.5.25-.17-.09v-.35a.31.31,0,0,1,.31.28A.2.2,0,0,1,14.22,26Zm-8-.59-.1-.07L6,25.2A1.61,1.61,0,0,1,5.9,25a1.24,1.24,0,0,0-.72-.76l-.13,0H5l-.13,0,0,0L4.7,24l0-.17-.17-.15A2.37,2.37,0,0,0,3,23.17L3,22.84a1.41,1.41,0,0,0,.72.1,1.42,1.42,0,0,0,.42-.16l.06-.05.43,0,0-.42A.39.39,0,0,1,5.12,22l-.1.18a1.27,1.27,0,0,0-.17,1.14l.06.11a1.15,1.15,0,0,0,1,.42,1.11,1.11,0,0,1,.31.05s0,.05.08.09a1.28,1.28,0,0,0,.2.22,1.28,1.28,0,0,1-.13.47,1.43,1.43,0,0,0-.13.56S6.25,25.34,6.25,25.37Zm3.47-2.08v.07s0,0,0,0ZM13.26,7.08h0L13.42,7A.23.23,0,0,1,13.26,7.08ZM2.83,24a1.81,1.81,0,0,1,1,.25,1.15,1.15,0,0,0,.37.51l.12.12.22.27L4.81,25l.15,0a.75.75,0,0,1,.16.27,2.47,2.47,0,0,0,.21.38,1.4,1.4,0,0,0,.31.28,1.36,1.36,0,0,1,.25.2,2.34,2.34,0,0,0,1.54.88A1.36,1.36,0,0,0,7.87,27c.27.24.24.44.08.75-.06.1-.4.6-.53.76a.52.52,0,0,0-.37.25,1.15,1.15,0,0,0-.07.74,1.38,1.38,0,0,1,0,.28.59.59,0,0,1-.14.23,1.11,1.11,0,0,0-.28.55,1.4,1.4,0,0,0,.33,1,1.2,1.2,0,0,1,.13.21.81.81,0,0,1,0,.11.94.94,0,0,0,.2.42,1.76,1.76,0,0,1,.07.27,2.23,2.23,0,0,0,.15.56,2.65,2.65,0,0,0,.47.64,1.63,1.63,0,0,1,.31.41,2.47,2.47,0,0,1,.11.36,1.83,1.83,0,0,0,.55,1.05l.08.08.11,0,.08,0a1.24,1.24,0,0,0,.39.07c.19.15.19.35.06,1,0,.13-.05.26-.08.41a2.81,2.81,0,0,0,0,.58v0h-.1l0,.38a2.5,2.5,0,0,1-.67,1.69L8.72,40v.14a3.51,3.51,0,0,0,.09.67,2.94,2.94,0,0,1,.08.53,3.86,3.86,0,0,0-.37.65,2.63,2.63,0,0,1-.29.53l-.08.1v.12a3,3,0,0,0,0,.42A24.77,24.77,0,0,1,2.83,24Zm46,13.87c.22-.38.37-.42.57-.4l.16,0,.12-.08h0l.16-.14a.54.54,0,0,0,.16-.41,1.29,1.29,0,0,0,.24-.39l.05.11,0,.09a2.13,2.13,0,0,0-.14.35,1.58,1.58,0,0,1-.23.47l-.1.11v.15a1.69,1.69,0,0,1-.31.75,2.26,2.26,0,0,0-.4,1.09c-.08.12-.15.24-.22.37a1.71,1.71,0,0,1-.21.35,1.34,1.34,0,0,0-.06-.12,1.8,1.8,0,0,0-.22-.37,4.27,4.27,0,0,1,.16-.64A3.64,3.64,0,0,0,48.81,37.89Zm-.1,2.48h0v.19h0ZM50.94,36a.82.82,0,0,0-.69-.44h-.06a.83.83,0,0,0-.7.61,1,1,0,0,1-.09.16l-.21.09,0,.22v0a1.66,1.66,0,0,0-1.15,1l-.08.15,0,.16a2.3,2.3,0,0,1-.15,1,3.75,3.75,0,0,0-.2,1.05v.21l.17.13a.85.85,0,0,1,.13.22,1.19,1.19,0,0,0,.44.56,24.88,24.88,0,0,1-34.41,7.25,1.09,1.09,0,0,0,.05-.17l.06-.36-.34-.12a1.89,1.89,0,0,0-.64-.12l-.22,0c-.42-.31-.84-.63-1.24-1l.12-.13-.24-.29a1,1,0,0,0-.15-.14c.1-.17.24-.35.37-.54a6.7,6.7,0,0,0,.53-.78l0-.07v-.08a.73.73,0,0,0,0-.3l.1,0a1.18,1.18,0,0,0,.56-.26l.12-.11,0-.16v-.08A2.89,2.89,0,0,0,15,42.65l.11-.16,0-.18a1.19,1.19,0,0,0-.08-.2l.34-.07a5.1,5.1,0,0,1,.54-.11l.18,0,.11-.15.23-.34c.08-.13.15-.24.23-.35a.7.7,0,0,0,.37-.14l.33,0v-.37c0-.07,0-.1.23-.17l.11,0,.08-.08A1.46,1.46,0,0,0,18,39l.23-.19a2.79,2.79,0,0,0,.34-.28,9,9,0,0,0,.87-.25,7.4,7.4,0,0,1,1-.26l.24,0,.09-.24c.07-.2.14-.41.2-.61a3.9,3.9,0,0,1,.59-1.33l.1-.11v-.14a2.28,2.28,0,0,1,0-.27c0-.15,0-.29,0-.45l.31-.11.25-.1,0-.28a.71.71,0,0,1,0-.2,1.39,1.39,0,0,0,.73-.94,1.75,1.75,0,0,1,.13-.33l.08-.14,0-.16a1.48,1.48,0,0,0-.15-.41A1,1,0,0,1,23,32l-.07-.19-.19-.06a3.53,3.53,0,0,1-.67-.39,4.19,4.19,0,0,0-.58-.34L21,30.77A1.68,1.68,0,0,0,20,30.44a7.48,7.48,0,0,0-.86-.51c-.22-.12-.44-.23-.64-.36l-.11-.07h-.1l0,0,0-.18a1.45,1.45,0,0,0-.43-.83,1.3,1.3,0,0,1-.16-.21l-.1-.16-.18,0a2.33,2.33,0,0,1-.8-.45A3.64,3.64,0,0,0,15.46,27a1.53,1.53,0,0,0-.18-.18.81.81,0,0,1-.16-.17L15,26.44h-.21l0,0a1.8,1.8,0,0,0-.27-.28.85.85,0,0,0,.1-.48.49.49,0,0,0-.08-.24l.07-.13a.65.65,0,0,0,0-.51s0-.07,0-.11h0a.62.62,0,0,0,.15-.48l-.06-.38-.34,0a.77.77,0,0,0-.14-.25.56.56,0,0,0-.15-.1.59.59,0,0,0-.25-.27v-.06L13.55,23l-.19-.09L13,22.51l0,.36a.27.27,0,0,0-.12.06,1.77,1.77,0,0,0-.63-.15.86.86,0,0,0-.24,0l-.11-.11a1.24,1.24,0,0,0-.53-.31.61.61,0,0,0-.06-.46.72.72,0,0,0-.61-.31,1.11,1.11,0,0,0-.57-.4l-.18-.18a1.17,1.17,0,0,1-.17-.26,1.88,1.88,0,0,0-.21-.31.92.92,0,0,0,0-.16v-.44l-.39,0a.85.85,0,0,0-.23,0l0,0v.05l-.2.07-.2.07a3.16,3.16,0,0,0-.14-.55,2.68,2.68,0,0,1-.12-.53,1.88,1.88,0,0,0,.26-.42,2.13,2.13,0,0,0,1.66-1.86l.12-.05.19-.1,0-.2c.08-.36.34-.52.79-.77a3.26,3.26,0,0,0,.77-.52.53.53,0,0,0,.14-.32,2.17,2.17,0,0,0,.76-.39,1.06,1.06,0,0,1,.68-.27h.1l.09,0L14,13.9a.68.68,0,0,0,.54.23A1.9,1.9,0,0,0,15,14a1.51,1.51,0,0,1,.31-.06h.34l.08-.33,0-.09a1.37,1.37,0,0,0,.1-.38.93.93,0,0,1,.7.27l.19.17.24-.09a1,1,0,0,1,.47,0,1.39,1.39,0,0,0,.5,0l.64-.14-.38-.54a1,1,0,0,1-.07-.3c-.05-.26-.13-.75-.56-.89l.16-.22-.28-.26a1.06,1.06,0,0,0-.27-.18l.08-.11a1.34,1.34,0,0,0-.09-1.14l-.09-.13-.16,0-.13,0a.09.09,0,0,0,0,0V9.31l-.13-.13A.66.66,0,0,0,16.3,9a2.15,2.15,0,0,0-.46-.45l-.13-.11c0-.12-.07-.25-.11-.37a2.11,2.11,0,0,0-1.23-1.71l.14,0V6.25a24.84,24.84,0,0,1,3.6-1.83,4.07,4.07,0,0,0,.34.3l.16.12a3.28,3.28,0,0,0,.1.82,3.22,3.22,0,0,1,.11.69v.26l.24.11a5,5,0,0,0,.54.21c.51.18.83.3.93.61l.09.3h1l.12-.11a1.18,1.18,0,0,1,.27-.2l.16-.11,0-.19a3.32,3.32,0,0,1,.28-.84c0-.09.07-.18.1-.26a2.38,2.38,0,0,0,.57-.58c.19-.26.27-.36.44-.37l.05,0a.94.94,0,0,0,.41,0,1,1,0,0,0,.54-.42,1.31,1.31,0,0,1,.14-.16,1.09,1.09,0,0,1,.36-.12,1.83,1.83,0,0,0,.58-.22l.09-.07.05-.1.05-.1V4a6.18,6.18,0,0,0,2.55-.58l.63-.24.14,0L29.3,3a.44.44,0,0,0,.09-.27h.15l0-.06A24.71,24.71,0,0,1,38.8,5.3a1.77,1.77,0,0,0-.29.94A3.42,3.42,0,0,1,37,7.49l-.31.16.09.33a3.71,3.71,0,0,1,0,1,5.13,5.13,0,0,0,0,.53V9.6l0,.08a.7.7,0,0,0,.68.42h.06l.09.1a1.79,1.79,0,0,0,0,1,2.45,2.45,0,0,1,0,.35h-.2l-.21,0-.15.15a1.79,1.79,0,0,1-.4.29l-.38.27a1.12,1.12,0,0,0-.52-.8,1.87,1.87,0,0,0-.66-1l-.07-.06a1.35,1.35,0,0,0,.11-.72l0-.19L35,9.38a.54.54,0,0,0-.3-.1v0l-.09-.19-.21,0a1.52,1.52,0,0,0-1.61.69l-.09.14,0,.17a1.18,1.18,0,0,0,.21.48,1.48,1.48,0,0,0-.64.27,1.35,1.35,0,0,1-.29.15l-.45,0v.45a1.4,1.4,0,0,1-.1.65l-.25.39.41.21s0,0,0,.06a1,1,0,0,0,.17.18l.11.1h.2a2.1,2.1,0,0,0,.85-.19,1.86,1.86,0,0,1,.31-.1.66.66,0,0,0-.34.53v.14l.07.12a.72.72,0,0,0,.46.31.76.76,0,0,0-.17.31l-.07.26.21.18.26.21a1.73,1.73,0,0,1,.54.54c0,.12-.05.23-.07.34v0l-.52,0c-.23,0-.47,0-.71,0a2.2,2.2,0,0,0-1.2.29l-.26.17.07.29a3,3,0,0,1,0,1.11,9.17,9.17,0,0,0,0,1v.22l.19.12a7,7,0,0,0,.79.44,2.1,2.1,0,0,1-.48.39,3.92,3.92,0,0,0-.55.41l-.12.13v.66l-.05,0a1.81,1.81,0,0,0-.31.27,5.87,5.87,0,0,0-1.26.94l-.17.17.05.21a1.49,1.49,0,0,1-.22.21,1.4,1.4,0,0,0-.52.7.8.8,0,0,0,0,.46.26.26,0,0,1,0,.1c0,.1,0,.2,0,.3a3,3,0,0,0,0,.5,1.41,1.41,0,0,1-.11.68c0,.16-.1.34-.14.55a1.16,1.16,0,0,0,.55,1.29h0a2.34,2.34,0,0,0,.59.86,1.46,1.46,0,0,1,.44.7l0,.28.28.07a.89.89,0,0,1,.11.2,1.67,1.67,0,0,0,.11.23l.05.06.06.05a2.1,2.1,0,0,0,1.4.42h.14l.11-.09a1,1,0,0,1,.73.09l.11.06.28,0a5.46,5.46,0,0,0,1.73-.36.67.67,0,0,0,.25,0,1.64,1.64,0,0,0,1.24.52l.1.2a1,1,0,0,1-.19.48,2,2,0,0,0-.19.35l-.07.15.06.16a3.14,3.14,0,0,0,.63,1c.33.36.51.58.47,1l0,.16.1.14a1.87,1.87,0,0,1,.34.59,1.58,1.58,0,0,1-.36,1.29,2.41,2.41,0,0,0-.47,1.66,2.09,2.09,0,0,0,.27.7c.06.12.12.23.16.33a3,3,0,0,1,.22,1.14v.05l0,0c0,.24.09.53.13.83a4.3,4.3,0,0,0,.42,1.63l.15.2h.12a2.9,2.9,0,0,1,.08.59v.08L39,43c.25.55.85.83,1.77.83a10.71,10.71,0,0,0,1.65-.17l.55-.08.28,0,.13-.42,0,0a4.59,4.59,0,0,0,1.33-1.26c.13-.15.25-.31.38-.45l.09-.11,0-.14a3.84,3.84,0,0,0,0-.42v-.1l.06,0a1.17,1.17,0,0,0,.52-.42A1.29,1.29,0,0,0,45.88,39l0-.11a3.28,3.28,0,0,1,.48-.4l.22-.16.12-.1a3.24,3.24,0,0,1,.43-.31c.82-.42.81-1,.81-1.69v-.55l-.13-.11v-.05a1.43,1.43,0,0,0-.07-.35c-.06-.14-.14-.27-.2-.38s-.21-.35-.16-.55A8.85,8.85,0,0,1,48,32.89a3.53,3.53,0,0,1,.62-.46c.23-.15.46-.3.67-.46s.4-.34.58-.51.31-.28.46-.4l.08-.07.14-.33a4,4,0,0,1,.65-1.18l.11-.11v-.16a.81.81,0,0,1,.29-.53,2.2,2.2,0,0,0,.2-.23l.31-.39-.44-.24a1.54,1.54,0,0,0-.43-.17A2.86,2.86,0,0,1,52.41,27c0,.18,0,.36,0,.54A24.71,24.71,0,0,1,50.94,36ZM32.86,11.88l-.2.07a1.6,1.6,0,0,1-.33.11,1.91,1.91,0,0,0,.06-.37l.34-.19.1-.06a2.64,2.64,0,0,0,0,.29C32.85,11.79,32.86,11.84,32.86,11.88Z"/></g></g></svg>
