<svg xmlns="http://www.w3.org/2000/svg" viewBox="0 0 30.24 45.68"><defs><style>.cls-1{fill:#58595b;}</style></defs><title>Energy</title><g id="Layer_2" data-name="Layer 2"><g id="Layer_1-2" data-name="Layer 1"><path class="cls-1" d="M1.31,45.68a1.35,1.35,0,0,1-.74-.23,1.46,1.46,0,0,1-.41-1.87L7.82,24.05h-6a1.8,1.8,0,0,1-1.54-.79,1.81,1.81,0,0,1-.07-1.75l9.3-20A2.75,2.75,0,0,1,11.86,0H28.43A1.76,1.76,0,0,1,30,.8,1.76,1.76,0,0,1,30,2.54L22.84,18h5.74a1.55,1.55,0,0,1,1.56.95,1.57,1.57,0,0,1-.53,1.77L2.45,45.18A1.74,1.74,0,0,1,1.31,45.68ZM2.82,21.62H9.6a1.22,1.22,0,0,1,1.14,1.66L4,40.53,26.3,20.45H20.94a1.23,1.23,0,0,1-1-.56,1.25,1.25,0,0,1-.08-1.17L27.41,2.43H11.86a.48.48,0,0,0-.17.13Z"/></g></g></svg>
