<svg xmlns="http://www.w3.org/2000/svg" viewBox="0 0 75.91 60"><defs><style>.cls-1{fill:#666;}</style></defs><title>Enterprise Class Integration API</title><g id="Layer_2" data-name="Layer 2"><g id="Layer_1-2" data-name="Layer 1"><path class="cls-1" d="M4.94,36.56c0-2.64-2.65-4.06-4.06-4.29A1.13,1.13,0,0,1,0,31.21V28.85a1.06,1.06,0,0,1,.82-.94c1-.12,4.12-1.71,4.12-4.3V15.13C4.94,3.3,13.36.12,19.43,0a1,1,0,0,1,1.18,1l.11,2.41A1,1,0,0,1,20,4.48C14.83,5.36,10.6,9,10.6,15.13v7C10.6,27.62,7,29.5,5.83,30v.18c1.64.7,4.77,2.35,4.77,7.71v7.06c0,6.19,4.23,9.72,9.36,10.6a1,1,0,0,1,.76,1.06L20.61,59a1.09,1.09,0,0,1-1.18,1c-6.07-.12-14.49-3.24-14.49-15.08Z"/><path class="cls-1" d="M65.31,37.86c0-5.36,3.13-7,4.78-7.71V30c-1.12-.47-4.78-2.35-4.78-7.83v-7C65.31,9,61.08,5.36,56,4.48a1,1,0,0,1-.76-1.06L55.31,1a1,1,0,0,1,1.17-1C62.55.12,71,3.3,71,15.13v8.48c0,2.59,3.18,4.18,4.12,4.3a1.06,1.06,0,0,1,.82.94v2.36A1.13,1.13,0,0,1,75,32.27C73.62,32.5,71,33.92,71,36.56v8.36c0,11.84-8.42,15-14.49,15.08a1.08,1.08,0,0,1-1.17-1l-.12-2.41A1,1,0,0,1,56,55.52c5.13-.88,9.36-4.41,9.36-10.6Z"/><path class="cls-1" d="M24.45,25.91A4.09,4.09,0,1,1,20.39,30,4.1,4.1,0,0,1,24.45,25.91Z"/><path class="cls-1" d="M37.93,25.91A4.09,4.09,0,1,1,33.87,30,4.1,4.1,0,0,1,37.93,25.91Z"/><path class="cls-1" d="M51.41,25.91A4.09,4.09,0,1,1,47.34,30,4.1,4.1,0,0,1,51.41,25.91Z"/></g></g></svg>
