<svg xmlns="http://www.w3.org/2000/svg" viewBox="0 0 562.4 605.52"><defs><style>.cls-1{fill:#616161;}.cls-2{fill:#414042;}.cls-3,.cls-4,.cls-5{fill:#fff;}.cls-3{stroke:#6aa845;}.cls-3,.cls-4,.cls-5,.cls-7{stroke-miterlimit:10;stroke-width:2px;}.cls-4{stroke:#4d8fcc;}.cls-5{stroke:#ffb71b;}.cls-6{fill:#c6dbef;}.cls-7{fill:none;stroke:#616161;}</style></defs><title>Asset 47</title><g id="Layer_2" data-name="Layer 2"><g id="Layer_1-2" data-name="Layer 1"><path class="cls-1" d="M498.83,525.29l-4.91-7.86V487a4.62,4.62,0,0,0-4.62-4.63H443a4.63,4.63,0,0,0-4.63,4.63v30.41l-4.91,7.86a1.53,1.53,0,0,0-.23.81v1a5.67,5.67,0,0,0,5.66,5.66h54.51a5.67,5.67,0,0,0,5.66-5.66v-1A1.45,1.45,0,0,0,498.83,525.29ZM441.47,487a1.55,1.55,0,0,1,1.54-1.55h20.37l.2,1h5.14l.21-1H489.3a1.55,1.55,0,0,1,1.54,1.55v29.83H441.47Zm-.37,31.88h50.11l4.17,6.69H474.3l-.43-2.57H458.44l-.43,2.57H436.92ZM496,527.13a2.57,2.57,0,0,1-2.57,2.57H438.9a2.58,2.58,0,0,1-2.58-2.57v-.51H496Z"/><path class="cls-1" d="M444,514.79h44.23V488.05H444Zm1-25.72h42.17v24.69H445.07Z"/><path class="cls-2" d="M434.88,556a5.45,5.45,0,0,1,3.89,1.49.19.19,0,0,1,0,.28l-.26.28c-.09.09-.17.08-.27,0a5,5,0,1,0-3.38,8.77,5.07,5.07,0,0,0,3.38-1.34.2.2,0,0,1,.26,0l.27.27a.18.18,0,0,1,0,.27,5.52,5.52,0,0,1-3.91,1.55,5.76,5.76,0,1,1,0-11.52Z"/><path class="cls-2" d="M440,561.22c-.07-.13-.05-.26.09-.26h.35a.25.25,0,0,1,.21.14l2.74,5.41h0l2.5-5.41a.25.25,0,0,1,.2-.14h.36c.14,0,.16.13.09.26l-5,10.82a.22.22,0,0,1-.21.12H441c-.13,0-.18-.08-.11-.22L443,567.3Z"/><path class="cls-2" d="M448.69,556.37a.21.21,0,0,1,.21-.21h.27a.21.21,0,0,1,.21.21v5.07a3.31,3.31,0,0,1,2-.64,3.38,3.38,0,0,1,.19,6.72,3.08,3.08,0,0,1-2.22-.94l-.05.57a.2.2,0,0,1-.22.21h-.16a.21.21,0,0,1-.21-.21Zm2.8,10.51a2.71,2.71,0,0,0-.21-5.39,3,3,0,0,0-1.89.67v3.59A2.56,2.56,0,0,0,451.49,566.88Z"/><path class="cls-2" d="M459.79,560.8a2.82,2.82,0,0,1,2.9,2.93c0,.25,0,.62-.24.62h-5.1a2.52,2.52,0,0,0,2.49,2.53,3.37,3.37,0,0,0,1.89-.59c.14-.1.21-.11.29,0l.16.22c.05.07,0,.16-.07.26a3.85,3.85,0,0,1-2.32.75,3.37,3.37,0,0,1,0-6.72Zm2.2,3a2.16,2.16,0,0,0-2.2-2.34,2.38,2.38,0,0,0-2.43,2.34Z"/><path class="cls-2" d="M465.22,561.17a.21.21,0,0,1,.21-.21h.19a.19.19,0,0,1,.19.17l.06.66a2.47,2.47,0,0,1,2-1,2.64,2.64,0,0,1,1,.19c.14,0,.22.16.17.29l-.12.32a.18.18,0,0,1-.26.08,2.08,2.08,0,0,0-.83-.19,2.28,2.28,0,0,0-1.91,1.1v4.56a.19.19,0,0,1-.21.21h-.32c-.11,0-.17-.09-.17-.21Z"/><path class="cls-2" d="M473.22,563.23a5.48,5.48,0,0,1,1.62.29c0-1.41-.15-2.11-1.41-2.11a4.63,4.63,0,0,0-1.92.43.17.17,0,0,1-.24-.13l-.09-.19c0-.14,0-.21.1-.24a4.69,4.69,0,0,1,2.19-.48c2,0,2,1.17,2,2.8v3.55a.21.21,0,0,1-.21.21h-.19c-.11,0-.16-.06-.19-.17l-.07-.58a3.37,3.37,0,0,1-2.22.91,2,2,0,0,1-2.1-2.13C470.53,564.16,471.54,563.23,473.22,563.23Zm-.51,3.67a2.94,2.94,0,0,0,2.13-1v-1.76a4.33,4.33,0,0,0-1.62-.33c-1.22,0-2,.62-2,1.57A1.46,1.46,0,0,0,472.71,566.9Z"/><path class="cls-2" d="M478.51,561.17a.21.21,0,0,1,.21-.21h.19a.18.18,0,0,1,.19.17l.07.66a2.47,2.47,0,0,1,2-1,2.63,2.63,0,0,1,1,.19c.15,0,.23.16.18.29l-.13.32c0,.11-.14.13-.26.08a2.08,2.08,0,0,0-.83-.19,2.25,2.25,0,0,0-1.9,1.1v4.56a.19.19,0,0,1-.21.21h-.32a.19.19,0,0,1-.18-.21Z"/><path class="cls-2" d="M484.34,556.37a.2.2,0,0,1,.2-.21h.28a.2.2,0,0,1,.2.21v7.17l3.41-2.49a.48.48,0,0,1,.26-.09h.46c.16,0,.18.21.05.29l-3.44,2.53,3.86,3.31a.15.15,0,0,1-.08.27H489a.45.45,0,0,1-.32-.13l-3.7-3.18v3.1c0,.13-.06.21-.2.21h-.31c-.11,0-.17-.09-.17-.21Z"/><path class="cls-2" d="M496.42,556.37a.2.2,0,0,1,.2-.21H503a.21.21,0,0,1,.21.21v.27a.2.2,0,0,1-.21.2h-5.86v4.42h5.08a.22.22,0,0,1,.21.21v.27a.21.21,0,0,1-.21.21h-5.08v4.74H503a.21.21,0,0,1,.21.21v.25a.21.21,0,0,1-.21.21h-6.42a.2.2,0,0,1-.2-.21Z"/><path class="cls-2" d="M506,561.17a.22.22,0,0,1,.23-.21h.16a.18.18,0,0,1,.19.16l.06.69a3.4,3.4,0,0,1,2.37-1c1.8,0,2.58,1.14,2.58,2.93v3.42a.21.21,0,0,1-.21.21H511a.2.2,0,0,1-.2-.21v-3.42c0-1.47-.69-2.24-1.91-2.24a3.28,3.28,0,0,0-2.29,1.1v4.56a.19.19,0,0,1-.21.21h-.3a.19.19,0,0,1-.18-.21Z"/><path class="cls-2" d="M517.2,560.8a3.22,3.22,0,0,1,2,.64v-5.07a.2.2,0,0,1,.21-.21h.29a.21.21,0,0,1,.19.21v10.78a.21.21,0,0,1-.21.21h-.16a.2.2,0,0,1-.22-.21l0-.56a3.1,3.1,0,0,1-2.21.93,3.15,3.15,0,0,1-3-3.36A3.19,3.19,0,0,1,517.2,560.8Zm-.14,6.08a2.55,2.55,0,0,0,2.11-1.13v-3.59a3,3,0,0,0-1.9-.67,2.71,2.71,0,0,0-.21,5.39Z"/><path class="cls-2" d="M523.62,572a.21.21,0,0,1-.21.2h-.27a.2.2,0,0,1-.21-.2V561.17a.21.21,0,0,1,.22-.21h.18a.17.17,0,0,1,.19.16l.05.45a3.24,3.24,0,0,1,2.1-.77,3.18,3.18,0,0,1,3.09,3.36,3.22,3.22,0,0,1-3.24,3.36,2.89,2.89,0,0,1-1.9-.65Zm1.82-5.11a2.58,2.58,0,0,0,2.61-2.71,2.5,2.5,0,0,0-2.43-2.68,2.57,2.57,0,0,0-2,.89v3.75A2.54,2.54,0,0,0,525.44,566.85Z"/><path class="cls-2" d="M534.1,560.8a3.36,3.36,0,1,1-3.22,3.34A3.28,3.28,0,0,1,534.1,560.8Zm0,6.07a2.71,2.71,0,1,0-2.53-2.73A2.6,2.6,0,0,0,534.1,566.87Z"/><path class="cls-2" d="M539.71,557.29a.55.55,0,1,1,1.09,0,.55.55,0,0,1-1.09,0Zm.19,3.88a.21.21,0,0,1,.21-.21h.29a.21.21,0,0,1,.21.21v6a.19.19,0,0,1-.21.21h-.32a.19.19,0,0,1-.18-.21Z"/><path class="cls-2" d="M543.68,561.17a.21.21,0,0,1,.22-.21h.16a.18.18,0,0,1,.2.16l.06.69a3.4,3.4,0,0,1,2.37-1c1.79,0,2.58,1.14,2.58,2.93v3.42a.21.21,0,0,1-.21.21h-.29a.21.21,0,0,1-.21-.21v-3.42c0-1.47-.69-2.24-1.9-2.24a3.28,3.28,0,0,0-2.29,1.1v4.56a.19.19,0,0,1-.21.21h-.3c-.12,0-.18-.09-.18-.21Z"/><path class="cls-2" d="M552.51,561.58h-.75c-.16,0-.19-.08-.19-.2v-.26c0-.11.08-.16.19-.16h.75v-1.75a.2.2,0,0,1,.21-.2l.27,0a.22.22,0,0,1,.21.21V561h2.23a.2.2,0,0,1,.2.21v.21a.19.19,0,0,1-.2.2H553.2v4.09c0,.75.08,1.16.83,1.16a3.42,3.42,0,0,0,1.46-.43.16.16,0,0,1,.26.07l.11.19a.18.18,0,0,1-.05.27,3.22,3.22,0,0,1-1.86.59c-1.33,0-1.44-.78-1.44-1.81Z"/><path class="cls-2" d="M433.1,575.37a.21.21,0,0,1,.21-.21h3.45a3.61,3.61,0,0,1,0,7.22h-2.91v3.77c0,.12-.1.21-.26.21h-.29a.21.21,0,0,1-.21-.21Zm3.62,6.27a2.92,2.92,0,0,0,2.9-2.91,2.88,2.88,0,0,0-2.91-2.82h-2.85v5.73Z"/><path class="cls-2" d="M442.45,580.17a.21.21,0,0,1,.21-.21h.19a.18.18,0,0,1,.19.17l.07.66a2.47,2.47,0,0,1,2-1,2.63,2.63,0,0,1,1,.19c.14,0,.22.16.17.29l-.12.32a.18.18,0,0,1-.26.08,2.08,2.08,0,0,0-.83-.19,2.28,2.28,0,0,0-1.91,1.1v4.56c0,.13-.06.21-.2.21h-.32c-.12,0-.18-.09-.18-.21Z"/><path class="cls-2" d="M448.08,576.29a.55.55,0,1,1,1.09,0,.55.55,0,0,1-1.09,0Zm.19,3.88a.21.21,0,0,1,.21-.21h.29a.21.21,0,0,1,.21.21v6a.19.19,0,0,1-.21.21h-.32a.19.19,0,0,1-.18-.21Z"/><path class="cls-2" d="M451.1,580.2c-.06-.13,0-.24.1-.24h.35a.21.21,0,0,1,.21.14l2.32,5.28h0l2.33-5.28a.21.21,0,0,1,.21-.14H457c.14,0,.16.11.09.24l-2.78,6.18a.23.23,0,0,1-.2.14h-.06c-.1,0-.14,0-.19-.14Z"/><path class="cls-2" d="M459,576.29a.56.56,0,0,1,.55-.56.56.56,0,0,1,.54.56.54.54,0,0,1-.54.53A.54.54,0,0,1,459,576.29Zm.2,3.88a.21.21,0,0,1,.21-.21h.28a.21.21,0,0,1,.21.21v6a.19.19,0,0,1-.21.21h-.32c-.11,0-.17-.09-.17-.21Z"/><path class="cls-2" d="M463,575.37a.21.21,0,0,1,.21-.21h.29a.21.21,0,0,1,.21.21v10.78a.19.19,0,0,1-.21.21h-.32a.19.19,0,0,1-.18-.21Z"/><path class="cls-2" d="M469.46,579.8a2.81,2.81,0,0,1,2.89,2.93c0,.25,0,.62-.24.62H467a2.53,2.53,0,0,0,2.5,2.53,3.43,3.43,0,0,0,1.89-.59c.14-.1.2-.11.28,0l.16.22c.05.07,0,.16-.06.26a3.88,3.88,0,0,1-2.32.75,3.37,3.37,0,0,1,0-6.72Zm2.19,3a2.15,2.15,0,0,0-2.19-2.34,2.38,2.38,0,0,0-2.44,2.34Z"/><path class="cls-2" d="M475.28,584.1a2.73,2.73,0,0,1-.5-1.6,2.63,2.63,0,0,1,2.81-2.7h2.62a.2.2,0,0,1,.21.21v.17a.2.2,0,0,1-.15.2l-1.15.08a2.16,2.16,0,0,1,1,2,2.58,2.58,0,0,1-2.65,2.66,2.48,2.48,0,0,1-1.75-.57,1.3,1.3,0,0,0-.81,1.15c0,.75.64.93,1.26.93h2.32c1.38,0,2.37.62,2.37,2s-1.31,2.61-3.26,2.61c-2.18,0-3.12-1.28-3.12-2.37a2,2,0,0,1,1-1.68,1.58,1.58,0,0,1-1.24-1.45A2,2,0,0,1,475.28,584.1Zm2.29,6.57c1.44,0,2.54-.85,2.54-1.94,0-.74-.44-1.41-1.63-1.41h-2a1.75,1.75,0,0,0-1.3,1.55C475.17,589.76,476,590.67,477.57,590.67Zm1.87-8.18a1.9,1.9,0,0,0-2-2,2,2,0,0,0-2,2,2,2,0,1,0,4,0Z"/><path class="cls-2" d="M485.6,579.8a2.82,2.82,0,0,1,2.9,2.93c0,.25,0,.62-.24.62h-5.11a2.53,2.53,0,0,0,2.5,2.53,3.4,3.4,0,0,0,1.89-.59c.14-.1.21-.11.29,0l.16.22c0,.07,0,.16-.07.26a3.85,3.85,0,0,1-2.32.75,3.37,3.37,0,0,1,0-6.72Zm2.19,3a2.15,2.15,0,0,0-2.19-2.34,2.38,2.38,0,0,0-2.43,2.34Z"/><path class="cls-2" d="M497,575.11a.16.16,0,0,1,.15-.11h.17a.15.15,0,0,1,.16.11l3.3,9.83h0l3.32-9.83a.15.15,0,0,1,.16-.11h.17a.16.16,0,0,1,.15.11l2.27,11c0,.16,0,.21-.18.21h-.38a.19.19,0,0,1-.19-.17l-1.81-9.38h0L501,586.39a.2.2,0,0,1-.22.13h-.06c-.08,0-.18,0-.21-.13l-3.24-9.58h0l-1.81,9.38a.19.19,0,0,1-.19.17h-.38c-.15,0-.21-.05-.18-.21Z"/><path class="cls-2" d="M511.63,582.23a5.41,5.41,0,0,1,1.62.29c0-1.41-.14-2.11-1.41-2.11a4.69,4.69,0,0,0-1.92.43.17.17,0,0,1-.24-.13l-.08-.19a.17.17,0,0,1,.1-.24,4.65,4.65,0,0,1,2.19-.48c2,0,2,1.17,2,2.8v3.55a.21.21,0,0,1-.21.21h-.19c-.11,0-.16-.06-.19-.17l-.06-.58a3.38,3.38,0,0,1-2.23.91,2,2,0,0,1-2.1-2.13C508.94,583.16,510,582.23,511.63,582.23Zm-.51,3.67a2.9,2.9,0,0,0,2.13-1v-1.76a4.33,4.33,0,0,0-1.62-.33c-1.21,0-2,.62-2,1.57A1.45,1.45,0,0,0,511.12,585.9Z"/><path class="cls-2" d="M516.93,580.17a.21.21,0,0,1,.22-.21h.16a.18.18,0,0,1,.2.16l.06.69a3.4,3.4,0,0,1,2.37-1c1.79,0,2.58,1.14,2.58,2.93v3.42a.21.21,0,0,1-.21.21H522a.21.21,0,0,1-.21-.21v-3.42c0-1.47-.69-2.24-1.9-2.24a3.26,3.26,0,0,0-2.29,1.1v4.56a.19.19,0,0,1-.21.21h-.31c-.11,0-.17-.09-.17-.21Z"/><path class="cls-2" d="M527.67,582.23a5.32,5.32,0,0,1,1.61.29c0-1.41-.14-2.11-1.41-2.11a4.74,4.74,0,0,0-1.92.43c-.12,0-.2,0-.24-.13l-.08-.19c0-.14,0-.21.1-.24a4.65,4.65,0,0,1,2.19-.48c2,0,2,1.17,2,2.8v3.55a.2.2,0,0,1-.2.21h-.2c-.11,0-.16-.06-.19-.17l-.06-.58a3.38,3.38,0,0,1-2.23.91,2,2,0,0,1-2.09-2.13C525,583.16,526,582.23,527.67,582.23Zm-.52,3.67a2.9,2.9,0,0,0,2.13-1v-1.76a4.32,4.32,0,0,0-1.61-.33c-1.22,0-2,.62-2,1.57A1.45,1.45,0,0,0,527.15,585.9Z"/><path class="cls-2" d="M533.36,584.1a2.73,2.73,0,0,1-.5-1.6,2.63,2.63,0,0,1,2.81-2.7h2.62a.2.2,0,0,1,.21.21v.17a.2.2,0,0,1-.15.2l-1.15.08a2.16,2.16,0,0,1,1,2,2.58,2.58,0,0,1-2.65,2.66,2.48,2.48,0,0,1-1.75-.57,1.3,1.3,0,0,0-.81,1.15c0,.75.64.93,1.26.93h2.32c1.38,0,2.37.62,2.37,2s-1.31,2.61-3.26,2.61c-2.18,0-3.13-1.28-3.13-2.37a2,2,0,0,1,1-1.68,1.59,1.59,0,0,1-1.25-1.45A2,2,0,0,1,533.36,584.1Zm2.29,6.57c1.44,0,2.54-.85,2.54-1.94,0-.74-.44-1.41-1.63-1.41h-2a1.74,1.74,0,0,0-1.29,1.55C533.25,589.76,534.1,590.67,535.65,590.67Zm1.87-8.18a1.9,1.9,0,0,0-2-2,2,2,0,0,0-2,2,1.92,1.92,0,0,0,2,2A1.94,1.94,0,0,0,537.52,582.49Z"/><path class="cls-2" d="M543.68,579.8a2.82,2.82,0,0,1,2.9,2.93c0,.25,0,.62-.24.62h-5.11a2.53,2.53,0,0,0,2.5,2.53,3.4,3.4,0,0,0,1.89-.59c.14-.1.21-.11.29,0l.16.22c0,.07,0,.16-.07.26a3.88,3.88,0,0,1-2.32.75,3.37,3.37,0,0,1,0-6.72Zm2.19,3a2.15,2.15,0,0,0-2.19-2.34,2.38,2.38,0,0,0-2.43,2.34Z"/><path class="cls-2" d="M549.1,580.17a.21.21,0,0,1,.21-.21h.19a.19.19,0,0,1,.2.17l.06.66a2.47,2.47,0,0,1,2-1,2.58,2.58,0,0,1,1,.19c.15,0,.23.16.18.29l-.13.32a.17.17,0,0,1-.25.08,2.09,2.09,0,0,0-.84-.19,2.25,2.25,0,0,0-1.9,1.1v4.56a.19.19,0,0,1-.21.21h-.32a.19.19,0,0,1-.18-.21Z"/><path class="cls-2" d="M445.41,605.17,450.34,594a.22.22,0,0,1,.19-.11h.05a.2.2,0,0,1,.21.11l4.88,11.14c0,.1,0,.19-.15.19h-.41a.29.29,0,0,1-.23-.14l-1.29-3h-6.12l-1.28,3a.26.26,0,0,1-.22.14h-.45C445.41,605.36,445.36,605.3,445.41,605.17Zm7.91-3.52-2.74-6.45h0l-2.79,6.45Z"/><path class="cls-2" d="M460.31,598.8a3.21,3.21,0,0,1,2,.64v-5.07a.2.2,0,0,1,.21-.21h.29a.2.2,0,0,1,.19.21v10.78a.2.2,0,0,1-.2.21h-.16a.21.21,0,0,1-.23-.21l-.05-.56a3.08,3.08,0,0,1-2.21.93,3.15,3.15,0,0,1-3-3.36A3.19,3.19,0,0,1,460.31,598.8Zm-.15,6.08a2.55,2.55,0,0,0,2.11-1.13v-3.59a3,3,0,0,0-1.9-.67,2.71,2.71,0,0,0-.21,5.39Z"/><path class="cls-2" d="M466,599.17a.21.21,0,0,1,.21-.21h.19a.18.18,0,0,1,.18.16l.08.69a2.78,2.78,0,0,1,2.21-1A2.24,2.24,0,0,1,471,600a3.21,3.21,0,0,1,2.4-1.17c1.74,0,2.49,1.14,2.49,2.93v3.42a.21.21,0,0,1-.21.21h-.32a.19.19,0,0,1-.17-.21v-3.42c0-1.47-.64-2.24-1.84-2.24a2.71,2.71,0,0,0-2.11,1.09,4.42,4.42,0,0,1,.14,1.15v3.42a.21.21,0,0,1-.21.21h-.3a.19.19,0,0,1-.19-.21v-3.42c0-1.47-.66-2.24-1.86-2.24a2.57,2.57,0,0,0-2.08,1.1v4.56a.19.19,0,0,1-.21.21h-.32a.19.19,0,0,1-.18-.21Z"/><path class="cls-2" d="M478.69,595.29a.55.55,0,1,1,1.09,0,.55.55,0,0,1-1.09,0Zm.19,3.88a.21.21,0,0,1,.21-.21h.29a.21.21,0,0,1,.21.21v6a.19.19,0,0,1-.21.21h-.32c-.12,0-.18-.09-.18-.21Z"/><path class="cls-2" d="M482.66,599.17a.21.21,0,0,1,.22-.21H483a.17.17,0,0,1,.19.16l.07.69a3.4,3.4,0,0,1,2.37-1c1.79,0,2.57,1.14,2.57,2.93v3.42a.21.21,0,0,1-.21.21h-.28a.21.21,0,0,1-.21-.21v-3.42c0-1.47-.69-2.24-1.91-2.24a3.25,3.25,0,0,0-2.28,1.1v4.56a.19.19,0,0,1-.21.21h-.31c-.11,0-.17-.09-.17-.21Z"/><path class="cls-2" d="M491,595.29a.56.56,0,0,1,.55-.56.56.56,0,0,1,.54.56.54.54,0,0,1-.54.53A.54.54,0,0,1,491,595.29Zm.2,3.88a.21.21,0,0,1,.21-.21h.28a.21.21,0,0,1,.21.21v6a.19.19,0,0,1-.21.21h-.32c-.11,0-.17-.09-.17-.21Z"/><path class="cls-2" d="M494.62,604.58l.16-.26a.19.19,0,0,1,.29,0,2.83,2.83,0,0,0,1.71.63c.92,0,1.54-.51,1.54-1.14s-.72-1-1.79-1.44-2-.89-2-1.89c0-.7.62-1.66,2.1-1.66a3.37,3.37,0,0,1,1.81.51.23.23,0,0,1,.06.31l-.1.17a.21.21,0,0,1-.3.08,3.05,3.05,0,0,0-1.47-.45c-1,0-1.38.6-1.38,1,0,.64.58.94,1.52,1.28,1.2.45,2.26.85,2.26,2a2.07,2.07,0,0,1-2.28,1.77,3.27,3.27,0,0,1-2.09-.72A.18.18,0,0,1,494.62,604.58Z"/><path class="cls-2" d="M501.82,599.58h-.75c-.16,0-.19-.08-.19-.2v-.26c0-.11.08-.16.19-.16h.75v-1.75a.2.2,0,0,1,.21-.2l.27,0a.21.21,0,0,1,.21.21V599h2.23a.2.2,0,0,1,.21.21v.21a.19.19,0,0,1-.21.2h-2.23v4.09c0,.75.08,1.16.84,1.16a3.37,3.37,0,0,0,1.45-.43c.15-.08.21,0,.26.07l.11.19a.18.18,0,0,1-.05.27,3.18,3.18,0,0,1-1.85.59c-1.33,0-1.45-.78-1.45-1.81Z"/><path class="cls-2" d="M507.46,599.17a.21.21,0,0,1,.21-.21h.19a.19.19,0,0,1,.19.17l.06.66a2.47,2.47,0,0,1,2-1,2.64,2.64,0,0,1,1,.19c.14,0,.22.16.17.29l-.13.32c0,.11-.14.13-.25.08a2.08,2.08,0,0,0-.83-.19,2.28,2.28,0,0,0-1.91,1.1v4.56a.19.19,0,0,1-.21.21h-.32c-.11,0-.17-.09-.17-.21Z"/><path class="cls-2" d="M515.46,601.23a5.32,5.32,0,0,1,1.61.29c0-1.41-.14-2.11-1.4-2.11a4.76,4.76,0,0,0-1.93.43c-.12,0-.2,0-.24-.13l-.08-.19c0-.14,0-.21.1-.24a4.65,4.65,0,0,1,2.19-.48c2,0,2,1.17,2,2.8v3.55a.21.21,0,0,1-.21.21h-.19c-.12,0-.17-.06-.2-.17l-.06-.58a3.38,3.38,0,0,1-2.23.91,2,2,0,0,1-2.09-2.13C512.77,602.16,513.78,601.23,515.46,601.23Zm-.52,3.67a2.9,2.9,0,0,0,2.13-1v-1.76a4.27,4.27,0,0,0-1.61-.33c-1.22,0-2,.62-2,1.57A1.45,1.45,0,0,0,514.94,604.9Z"/><path class="cls-2" d="M521,599.58h-.75c-.16,0-.19-.08-.19-.2v-.26c0-.11.08-.16.19-.16H521v-1.75a.2.2,0,0,1,.21-.2l.27,0a.21.21,0,0,1,.21.21V599h2.23a.2.2,0,0,1,.21.21v.21a.19.19,0,0,1-.21.2h-2.23v4.09c0,.75.08,1.16.83,1.16a3.42,3.42,0,0,0,1.46-.43c.15-.08.21,0,.26.07l.11.19a.18.18,0,0,1,0,.27,3.19,3.19,0,0,1-1.86.59c-1.32,0-1.44-.78-1.44-1.81Z"/><path class="cls-2" d="M529.39,598.8a3.36,3.36,0,1,1-3.21,3.34A3.29,3.29,0,0,1,529.39,598.8Zm0,6.07a2.71,2.71,0,1,0-2.53-2.73A2.61,2.61,0,0,0,529.39,604.87Z"/><path class="cls-2" d="M535.2,599.17a.21.21,0,0,1,.21-.21h.19a.18.18,0,0,1,.19.17l.07.66a2.47,2.47,0,0,1,2-1,2.63,2.63,0,0,1,1,.19c.14,0,.22.16.17.29l-.12.32a.18.18,0,0,1-.26.08,2.08,2.08,0,0,0-.83-.19,2.28,2.28,0,0,0-1.91,1.1v4.56c0,.13-.06.21-.2.21h-.32c-.12,0-.18-.09-.18-.21Z"/><path class="cls-1" d="M65.59,525.29l-4.9-7.86V487a4.63,4.63,0,0,0-4.63-4.63H9.77A4.63,4.63,0,0,0,5.14,487v30.41L.23,525.29a1.53,1.53,0,0,0-.23.81v1a5.67,5.67,0,0,0,5.66,5.66H60.17a5.67,5.67,0,0,0,5.66-5.66v-1A1.45,1.45,0,0,0,65.59,525.29ZM8.23,487a1.55,1.55,0,0,1,1.54-1.55H30.14l.2,1h5.15l.2-1H56.06A1.55,1.55,0,0,1,57.6,487v29.83H8.23ZM7.86,518.9H58l4.17,6.69H41.06L40.63,523H25.2l-.43,2.57H3.68Zm54.88,8.23a2.57,2.57,0,0,1-2.57,2.57H5.66a2.57,2.57,0,0,1-2.57-2.57v-.51H62.74Z"/><path class="cls-1" d="M10.8,514.79H55V488.05H10.8Zm1-25.72H54v24.69H11.83Z"/><path class="cls-2" d="M33.6,556.37a.2.2,0,0,1,.2-.21h4a3.47,3.47,0,0,1,3.57,3.42,3.5,3.5,0,0,1-2.64,3.35L41,567.07c.08.13.05.29-.11.29h-.5a.23.23,0,0,1-.22-.14L37.89,563c-.21,0-.39,0-.6,0H34.35v4.11c0,.12-.1.21-.26.21H33.8a.2.2,0,0,1-.2-.21Zm4.14,6a2.8,2.8,0,0,0,2.84-2.79,2.77,2.77,0,0,0-2.85-2.69H34.36v5.48Z"/><path class="cls-2" d="M46.41,560.8a2.82,2.82,0,0,1,2.9,2.93c0,.25,0,.62-.24.62H44a2.52,2.52,0,0,0,2.49,2.53,3.37,3.37,0,0,0,1.89-.59c.14-.1.21-.11.29,0l.16.22c.05.07,0,.16-.07.26a3.85,3.85,0,0,1-2.32.75,3.37,3.37,0,0,1,0-6.72Zm2.2,3a2.16,2.16,0,0,0-2.2-2.34A2.38,2.38,0,0,0,44,563.78Z"/><path class="cls-2" d="M51.84,561.17A.2.2,0,0,1,52,561h.2a.17.17,0,0,1,.17.16l.08.69a2.8,2.8,0,0,1,2.21-1A2.23,2.23,0,0,1,56.8,562a3.23,3.23,0,0,1,2.4-1.17c1.74,0,2.5,1.14,2.5,2.93v3.42a.21.21,0,0,1-.21.21h-.32a.19.19,0,0,1-.18-.21v-3.42c0-1.47-.64-2.24-1.84-2.24A2.73,2.73,0,0,0,57,562.58a4.42,4.42,0,0,1,.14,1.15v3.42a.21.21,0,0,1-.21.21h-.3a.19.19,0,0,1-.19-.21v-3.42c0-1.47-.66-2.24-1.86-2.24a2.57,2.57,0,0,0-2.08,1.1v4.56a.19.19,0,0,1-.21.21H52c-.11,0-.17-.09-.17-.21Z"/><path class="cls-2" d="M67.42,560.8a3.36,3.36,0,1,1-3.22,3.34A3.29,3.29,0,0,1,67.42,560.8Zm0,6.07a2.71,2.71,0,1,0-2.53-2.73A2.6,2.6,0,0,0,67.42,566.87Z"/><path class="cls-2" d="M73.5,561.58h-.75c-.16,0-.19-.08-.19-.2v-.26c0-.11.08-.16.19-.16h.75v-1.75a.2.2,0,0,1,.21-.2l.27,0a.22.22,0,0,1,.21.21V561h2.22a.2.2,0,0,1,.21.21v.21a.19.19,0,0,1-.21.2H74.19v4.09c0,.75.08,1.16.83,1.16a3.42,3.42,0,0,0,1.46-.43c.14-.08.2,0,.25.07l.12.19a.19.19,0,0,1,0,.27,3.22,3.22,0,0,1-1.86.59c-1.33,0-1.44-.78-1.44-1.81Z"/><path class="cls-2" d="M81.82,560.8a2.82,2.82,0,0,1,2.9,2.93c0,.25,0,.62-.24.62H79.37a2.53,2.53,0,0,0,2.5,2.53,3.4,3.4,0,0,0,1.89-.59c.14-.1.21-.11.29,0l.16.22c0,.07,0,.16-.07.26a3.88,3.88,0,0,1-2.32.75,3.37,3.37,0,0,1,0-6.72Zm2.19,3a2.15,2.15,0,0,0-2.19-2.34,2.38,2.38,0,0,0-2.43,2.34Z"/><path class="cls-2" d="M18.81,575.37a.21.21,0,0,1,.21-.21h.35a.21.21,0,0,1,.2.21v10.32h5.1c.19,0,.21.1.21.21v.29c0,.11-.1.17-.21.17H19a.21.21,0,0,1-.21-.21Z"/><path class="cls-2" d="M29,582.23a5.41,5.41,0,0,1,1.62.29c0-1.41-.14-2.11-1.41-2.11a4.74,4.74,0,0,0-1.92.43.17.17,0,0,1-.24-.13l-.08-.19a.17.17,0,0,1,.1-.24,4.65,4.65,0,0,1,2.19-.48c1.95,0,2,1.17,2,2.8v3.55a.2.2,0,0,1-.2.21h-.2c-.11,0-.16-.06-.19-.17l-.06-.58a3.38,3.38,0,0,1-2.23.91,2,2,0,0,1-2.1-2.13C26.28,583.16,27.29,582.23,29,582.23Zm-.51,3.67a2.9,2.9,0,0,0,2.13-1v-1.76a4.33,4.33,0,0,0-1.62-.33c-1.21,0-2,.62-2,1.57A1.45,1.45,0,0,0,28.46,585.9Z"/><path class="cls-2" d="M35,591a.21.21,0,0,1-.21.2h-.27a.2.2,0,0,1-.21-.2V580.17a.21.21,0,0,1,.22-.21h.18a.17.17,0,0,1,.19.16l0,.45a3.24,3.24,0,0,1,2.1-.77,3.18,3.18,0,0,1,3.09,3.36,3.22,3.22,0,0,1-3.24,3.36,2.92,2.92,0,0,1-1.9-.65Zm1.82-5.11a2.58,2.58,0,0,0,2.61-2.71A2.5,2.5,0,0,0,37,580.46a2.57,2.57,0,0,0-2,.89v3.75A2.54,2.54,0,0,0,36.78,585.85Z"/><path class="cls-2" d="M43,580.58h-.75c-.16,0-.19-.08-.19-.2v-.26c0-.11.08-.16.19-.16H43v-1.75a.2.2,0,0,1,.21-.2l.27,0a.21.21,0,0,1,.21.21V580h2.23a.19.19,0,0,1,.2.21v.21a.18.18,0,0,1-.2.2H43.66v4.09c0,.75.08,1.16.83,1.16A3.42,3.42,0,0,0,46,585.4a.16.16,0,0,1,.26.07l.11.19a.18.18,0,0,1,0,.27,3.19,3.19,0,0,1-1.86.59c-1.32,0-1.44-.78-1.44-1.81Z"/><path class="cls-2" d="M51.34,579.8a3.36,3.36,0,1,1-3.22,3.34A3.29,3.29,0,0,1,51.34,579.8Zm0,6.07a2.71,2.71,0,1,0-2.53-2.73A2.6,2.6,0,0,0,51.34,585.87Z"/><path class="cls-2" d="M57.84,591a.21.21,0,0,1-.21.2h-.27a.2.2,0,0,1-.21-.2V580.17a.21.21,0,0,1,.22-.21h.18a.17.17,0,0,1,.19.16l0,.45a3.24,3.24,0,0,1,2.1-.77A3.18,3.18,0,0,1,63,583.16a3.21,3.21,0,0,1-3.23,3.36,2.89,2.89,0,0,1-1.9-.65Zm1.82-5.11a2.58,2.58,0,0,0,2.61-2.71,2.5,2.5,0,0,0-2.43-2.68,2.57,2.57,0,0,0-2,.89v3.75A2.54,2.54,0,0,0,59.66,585.85Z"/><path class="cls-2" d="M70,575.37a.21.21,0,0,1,.21-.21h.34a.21.21,0,0,1,.21.21v6.83a3.44,3.44,0,1,0,6.88,0v-6.85c0-.13.06-.21.22-.21h.32a.21.21,0,0,1,.21.21v6.91a4.2,4.2,0,1,1-8.39,0Z"/><path class="cls-2" d="M81.16,585.58l.16-.26a.19.19,0,0,1,.29,0,2.83,2.83,0,0,0,1.71.63c.92,0,1.54-.51,1.54-1.14s-.72-1-1.79-1.44-2-.89-2-1.89c0-.7.62-1.66,2.1-1.66a3.37,3.37,0,0,1,1.81.51.24.24,0,0,1,.06.31l-.1.17a.21.21,0,0,1-.3.08,3.05,3.05,0,0,0-1.47-.45c-1,0-1.38.6-1.38,1,0,.64.58.94,1.52,1.28,1.2.45,2.26.85,2.26,2a2.07,2.07,0,0,1-2.28,1.77,3.27,3.27,0,0,1-2.09-.72A.18.18,0,0,1,81.16,585.58Z"/><path class="cls-2" d="M90.78,579.8a2.82,2.82,0,0,1,2.9,2.93c0,.25,0,.62-.24.62H88.33a2.53,2.53,0,0,0,2.5,2.53,3.4,3.4,0,0,0,1.89-.59c.14-.1.21-.11.29,0l.16.22c0,.07,0,.16-.07.26a3.88,3.88,0,0,1-2.32.75,3.37,3.37,0,0,1,0-6.72Zm2.19,3a2.15,2.15,0,0,0-2.19-2.34,2.38,2.38,0,0,0-2.43,2.34Z"/><path class="cls-2" d="M96.2,580.17a.21.21,0,0,1,.21-.21h.19a.19.19,0,0,1,.2.17l.06.66a2.47,2.47,0,0,1,2-1,2.58,2.58,0,0,1,1,.19c.15,0,.23.16.18.29l-.13.32a.17.17,0,0,1-.25.08,2.09,2.09,0,0,0-.84-.19,2.25,2.25,0,0,0-1.9,1.1v4.56a.19.19,0,0,1-.21.21h-.32a.19.19,0,0,1-.18-.21Z"/><path class="cls-2" d="M254.19,317.87a.21.21,0,0,1,.21-.21h.35a.21.21,0,0,1,.21.21v10.78a.22.22,0,0,1-.23.21h-.33a.21.21,0,0,1-.21-.21Z"/><path class="cls-2" d="M258.29,322.67a.21.21,0,0,1,.22-.21h.16a.17.17,0,0,1,.19.16l.07.69a3.38,3.38,0,0,1,2.37-1c1.79,0,2.57,1.14,2.57,2.93v3.42a.21.21,0,0,1-.21.21h-.28a.21.21,0,0,1-.21-.21v-3.42c0-1.47-.69-2.24-1.91-2.24a3.31,3.31,0,0,0-2.29,1.1v4.56c0,.13-.06.21-.2.21h-.31c-.11,0-.17-.09-.17-.21Z"/><path class="cls-2" d="M267.12,323.08h-.75c-.16,0-.2-.08-.2-.2v-.26c0-.11.08-.16.2-.16h.75v-1.75a.2.2,0,0,1,.21-.2l.27,0a.22.22,0,0,1,.21.21v1.76H270a.2.2,0,0,1,.21.21v.21a.19.19,0,0,1-.21.2h-2.22v4.09c0,.75.08,1.16.83,1.16a3.42,3.42,0,0,0,1.46-.43c.14-.08.2,0,.25.07l.11.19a.18.18,0,0,1,0,.27,3.22,3.22,0,0,1-1.86.59c-1.33,0-1.44-.78-1.44-1.81Z"/><path class="cls-2" d="M275.44,322.3a2.82,2.82,0,0,1,2.9,2.93c0,.25,0,.62-.24.62H273a2.53,2.53,0,0,0,2.5,2.53,3.4,3.4,0,0,0,1.89-.59c.14-.1.2-.11.28,0l.16.22c.05.07,0,.16-.06.26a3.88,3.88,0,0,1-2.32.75,3.37,3.37,0,0,1,0-6.72Zm2.19,3a2.15,2.15,0,0,0-2.19-2.34,2.38,2.38,0,0,0-2.43,2.34Z"/><path class="cls-2" d="M280.86,322.67a.21.21,0,0,1,.21-.21h.19a.18.18,0,0,1,.19.17l.07.66a2.47,2.47,0,0,1,2-1,2.63,2.63,0,0,1,1,.19.24.24,0,0,1,.18.29l-.13.32a.18.18,0,0,1-.26.08,2.08,2.08,0,0,0-.83-.19,2.23,2.23,0,0,0-1.9,1.1v4.56a.19.19,0,0,1-.21.21H281a.19.19,0,0,1-.18-.21Z"/><path class="cls-2" d="M286.69,322.67a.21.21,0,0,1,.22-.21h.16a.17.17,0,0,1,.19.16l.07.69a3.35,3.35,0,0,1,2.36-1c1.8,0,2.58,1.14,2.58,2.93v3.42a.21.21,0,0,1-.21.21h-.28a.21.21,0,0,1-.21-.21v-3.42c0-1.47-.69-2.24-1.91-2.24a3.31,3.31,0,0,0-2.29,1.1v4.56c0,.13-.06.21-.2.21h-.31c-.11,0-.17-.09-.17-.21Z"/><path class="cls-2" d="M297.93,322.3a2.82,2.82,0,0,1,2.9,2.93c0,.25,0,.62-.24.62h-5.1a2.52,2.52,0,0,0,2.49,2.53,3.37,3.37,0,0,0,1.89-.59c.15-.1.21-.11.29,0l.16.22c.05.07,0,.16-.06.26a3.91,3.91,0,0,1-2.33.75,3.37,3.37,0,0,1,0-6.72Zm2.2,3a2.16,2.16,0,0,0-2.2-2.34,2.38,2.38,0,0,0-2.43,2.34Z"/><path class="cls-2" d="M303.63,323.08h-.75c-.16,0-.2-.08-.2-.2v-.26c0-.11.09-.16.2-.16h.75v-1.75a.2.2,0,0,1,.21-.2l.27,0a.22.22,0,0,1,.21.21v1.76h2.22a.2.2,0,0,1,.21.21v.21a.19.19,0,0,1-.21.2h-2.22v4.09c0,.75.08,1.16.83,1.16a3.42,3.42,0,0,0,1.46-.43c.14-.08.2,0,.25.07l.11.19a.18.18,0,0,1,0,.27,3.22,3.22,0,0,1-1.86.59c-1.33,0-1.44-.78-1.44-1.81Z"/><path class="cls-1" d="M288.94,480.4H245a5.76,5.76,0,0,0-5.76,5.76v31a5.76,5.76,0,0,0,5.76,5.76h14.76v4.74h-6.42a1.44,1.44,0,1,0,0,2.88h27.23a1.44,1.44,0,1,0,0-2.88h-6.41v-4.74h14.76a5.77,5.77,0,0,0,5.76-5.76v-31A5.77,5.77,0,0,0,288.94,480.4ZM271.3,527.56h-8.64v-4.68h8.64Zm20.52-10.44a2.89,2.89,0,0,1-2.88,2.88H245a2.88,2.88,0,0,1-2.88-2.88v-31a2.88,2.88,0,0,1,2.88-2.88h43.92a2.89,2.89,0,0,1,2.88,2.88Z"/><circle class="cls-1" cx="309.64" cy="512.86" r="1.8"/><path class="cls-1" d="M314,487.66h-8.64v7.2H314Zm-1.44,5.76h-5.76V489.1h5.76Z"/><path class="cls-1" d="M309.64,503.14a2.88,2.88,0,1,0,2.88,2.88A2.88,2.88,0,0,0,309.64,503.14Zm0,4.32a1.44,1.44,0,1,1,1.44-1.44A1.45,1.45,0,0,1,309.64,507.46Z"/><path class="cls-1" d="M315.4,480.1H303.88a5.77,5.77,0,0,0-5.76,5.76v38.88a5.77,5.77,0,0,0,5.76,5.76H315.4a5.76,5.76,0,0,0,5.76-5.76V485.86A5.76,5.76,0,0,0,315.4,480.1ZM303.88,483H315.4a2.88,2.88,0,0,1,2.88,2.88v35.28H301V485.86A2.88,2.88,0,0,1,303.88,483Zm11.52,44.64H303.88a2.88,2.88,0,0,1-2.88-2.88v-2.16h17.28v2.16A2.88,2.88,0,0,1,315.4,527.62Z"/><path class="cls-1" d="M245.38,516.58h43.2V486.34h-43.2Zm1.44-28.8h40.32v27.36H246.82Z"/><path class="cls-2" d="M199.43,556a5.45,5.45,0,0,1,3.89,1.49.19.19,0,0,1,0,.28l-.26.28c-.09.09-.17.08-.27,0a5,5,0,1,0-3.38,8.77,5.07,5.07,0,0,0,3.38-1.34.2.2,0,0,1,.26,0l.27.27a.18.18,0,0,1,0,.27,5.52,5.52,0,0,1-3.91,1.55,5.76,5.76,0,1,1,0-11.52Z"/><path class="cls-2" d="M208.65,560.8a3.36,3.36,0,1,1-3.22,3.34A3.29,3.29,0,0,1,208.65,560.8Zm0,6.07a2.71,2.71,0,1,0-2.53-2.73A2.6,2.6,0,0,0,208.65,566.87Z"/><path class="cls-2" d="M214.46,561.17a.2.2,0,0,1,.2-.21h.19a.19.19,0,0,1,.2.17l.06.66a2.47,2.47,0,0,1,2-1,2.58,2.58,0,0,1,1,.19c.15,0,.23.16.18.29l-.13.32a.17.17,0,0,1-.25.08,2.09,2.09,0,0,0-.84-.19,2.27,2.27,0,0,0-1.9,1.1v4.56a.19.19,0,0,1-.21.21h-.32c-.11,0-.17-.09-.17-.21Z"/><path class="cls-2" d="M221,572a.21.21,0,0,1-.21.2h-.27a.2.2,0,0,1-.21-.2V561.17a.21.21,0,0,1,.22-.21h.18a.17.17,0,0,1,.19.16l0,.45a3.24,3.24,0,0,1,2.1-.77,3.18,3.18,0,0,1,3.08,3.36,3.21,3.21,0,0,1-3.23,3.36,2.92,2.92,0,0,1-1.9-.65Zm1.82-5.11a2.57,2.57,0,0,0,2.61-2.71,2.49,2.49,0,0,0-2.43-2.68,2.57,2.57,0,0,0-2,.89v3.75A2.54,2.54,0,0,0,222.79,566.85Z"/><path class="cls-2" d="M231.45,560.8a3.36,3.36,0,1,1-3.22,3.34A3.29,3.29,0,0,1,231.45,560.8Zm0,6.07a2.71,2.71,0,1,0-2.53-2.73A2.6,2.6,0,0,0,231.45,566.87Z"/><path class="cls-2" d="M237.26,561.17a.2.2,0,0,1,.2-.21h.2a.19.19,0,0,1,.19.17l.06.66a2.47,2.47,0,0,1,2-1,2.64,2.64,0,0,1,1,.19c.14,0,.22.16.17.29l-.13.32c0,.11-.14.13-.25.08a2.09,2.09,0,0,0-.84-.19,2.27,2.27,0,0,0-1.9,1.1v4.56a.19.19,0,0,1-.21.21h-.32c-.11,0-.17-.09-.17-.21Z"/><path class="cls-2" d="M245.26,563.23a5.32,5.32,0,0,1,1.61.29c0-1.41-.14-2.11-1.41-2.11a4.74,4.74,0,0,0-1.92.43c-.12,0-.2,0-.24-.13l-.08-.19c0-.14,0-.21.1-.24a4.65,4.65,0,0,1,2.19-.48c2,0,2,1.17,2,2.8v3.55a.2.2,0,0,1-.2.21h-.2c-.11,0-.16-.06-.19-.17l-.06-.58a3.38,3.38,0,0,1-2.23.91,2,2,0,0,1-2.09-2.13C242.57,564.16,243.58,563.23,245.26,563.23Zm-.52,3.67a2.9,2.9,0,0,0,2.13-1v-1.76a4.32,4.32,0,0,0-1.61-.33c-1.22,0-2,.62-2,1.57A1.45,1.45,0,0,0,244.74,566.9Z"/><path class="cls-2" d="M250.82,561.58h-.75c-.16,0-.19-.08-.19-.2v-.26c0-.11.08-.16.19-.16h.75v-1.75a.2.2,0,0,1,.21-.2l.27,0a.21.21,0,0,1,.21.21V561h2.23a.2.2,0,0,1,.2.21v.21a.19.19,0,0,1-.2.2h-2.23v4.09c0,.75.08,1.16.83,1.16a3.42,3.42,0,0,0,1.46-.43.16.16,0,0,1,.26.07l.11.19a.18.18,0,0,1,0,.27,3.19,3.19,0,0,1-1.86.59c-1.33,0-1.44-.78-1.44-1.81Z"/><path class="cls-2" d="M259.14,560.8a2.82,2.82,0,0,1,2.9,2.93c0,.25,0,.62-.24.62h-5.11a2.53,2.53,0,0,0,2.5,2.53,3.37,3.37,0,0,0,1.89-.59c.14-.1.21-.11.29,0l.16.22c.05.07,0,.16-.07.26a3.85,3.85,0,0,1-2.32.75,3.37,3.37,0,0,1,0-6.72Zm2.2,3a2.16,2.16,0,0,0-2.2-2.34,2.38,2.38,0,0,0-2.43,2.34Z"/><path class="cls-2" d="M269.16,556.37a.21.21,0,0,1,.19-.21h3.39a5.6,5.6,0,1,1,0,11.2h-3.39a.21.21,0,0,1-.19-.21Zm3.46,10.3a4.92,4.92,0,1,0,0-9.83h-2.71v9.83Z"/><path class="cls-2" d="M283.66,560.8a2.81,2.81,0,0,1,2.89,2.93c0,.25,0,.62-.24.62h-5.1a2.52,2.52,0,0,0,2.49,2.53,3.37,3.37,0,0,0,1.89-.59c.15-.1.21-.11.29,0l.16.22c0,.07,0,.16-.06.26a3.88,3.88,0,0,1-2.32.75,3.37,3.37,0,0,1,0-6.72Zm2.19,3a2.15,2.15,0,0,0-2.19-2.34,2.38,2.38,0,0,0-2.44,2.34Z"/><path class="cls-2" d="M288.71,566.58l.16-.26a.19.19,0,0,1,.29,0,2.83,2.83,0,0,0,1.71.63c.91,0,1.54-.51,1.54-1.14s-.72-1-1.8-1.44-2-.89-2-1.89a1.85,1.85,0,0,1,2.09-1.66,3.37,3.37,0,0,1,1.81.51.23.23,0,0,1,.07.31l-.1.17a.21.21,0,0,1-.3.08,3.15,3.15,0,0,0-1.48-.45c-1,0-1.37.6-1.37,1,0,.64.57.94,1.52,1.28,1.2.45,2.25.85,2.25,2a2.06,2.06,0,0,1-2.27,1.77,3.3,3.3,0,0,1-2.1-.72A.17.17,0,0,1,288.71,566.58Z"/><path class="cls-2" d="M295.64,556.37a.21.21,0,0,1,.21-.21h.27a.21.21,0,0,1,.21.21v7.17l3.41-2.49A.43.43,0,0,1,300,561h.47c.16,0,.17.21,0,.29l-3.44,2.53,3.86,3.31a.15.15,0,0,1-.08.27h-.49a.45.45,0,0,1-.33-.13l-3.69-3.18v3.1a.19.19,0,0,1-.21.21h-.31c-.11,0-.17-.09-.17-.21Z"/><path class="cls-2" d="M303.4,561.58h-.75c-.16,0-.2-.08-.2-.2v-.26c0-.11.08-.16.2-.16h.75v-1.75a.2.2,0,0,1,.21-.2l.27,0a.22.22,0,0,1,.21.21V561h2.22a.2.2,0,0,1,.21.21v.21a.19.19,0,0,1-.21.2h-2.22v4.09c0,.75.08,1.16.83,1.16a3.42,3.42,0,0,0,1.46-.43c.14-.08.2,0,.25.07l.11.19a.18.18,0,0,1,0,.27,3.22,3.22,0,0,1-1.86.59c-1.33,0-1.44-.78-1.44-1.81Z"/><path class="cls-2" d="M311.77,560.8a3.36,3.36,0,1,1-3.22,3.34A3.28,3.28,0,0,1,311.77,560.8Zm0,6.07a2.71,2.71,0,1,0-2.53-2.73A2.6,2.6,0,0,0,311.77,566.87Z"/><path class="cls-2" d="M318.26,572a.2.2,0,0,1-.21.2h-.27a.21.21,0,0,1-.21-.2V561.17a.22.22,0,0,1,.23-.21H318a.18.18,0,0,1,.2.16l0,.45a3.27,3.27,0,0,1,2.1-.77,3.18,3.18,0,0,1,3.09,3.36,3.21,3.21,0,0,1-3.23,3.36,3,3,0,0,1-1.91-.65Zm1.83-5.11a2.58,2.58,0,0,0,2.61-2.71,2.5,2.5,0,0,0-2.44-2.68,2.57,2.57,0,0,0-2,.89v3.75A2.51,2.51,0,0,0,320.09,566.85Z"/><path class="cls-2" d="M330.47,556.37a.21.21,0,0,1,.21-.21H331a.2.2,0,0,1,.2.21v6.83a3.44,3.44,0,1,0,6.88,0v-6.85c0-.13.07-.21.23-.21h.32a.21.21,0,0,1,.21.21v6.91a4.2,4.2,0,1,1-8.39,0Z"/><path class="cls-2" d="M341.59,566.58l.16-.26a.19.19,0,0,1,.29,0,2.8,2.8,0,0,0,1.71.63c.91,0,1.54-.51,1.54-1.14s-.72-1-1.8-1.44-2-.89-2-1.89a1.86,1.86,0,0,1,2.1-1.66,3.37,3.37,0,0,1,1.81.51.23.23,0,0,1,.07.31l-.1.17a.21.21,0,0,1-.3.08,3.15,3.15,0,0,0-1.48-.45c-1,0-1.37.6-1.37,1,0,.64.57.94,1.52,1.28,1.2.45,2.25.85,2.25,2a2.06,2.06,0,0,1-2.27,1.77,3.3,3.3,0,0,1-2.1-.72A.17.17,0,0,1,341.59,566.58Z"/><path class="cls-2" d="M351.21,560.8a2.81,2.81,0,0,1,2.89,2.93c0,.25,0,.62-.24.62h-5.1a2.52,2.52,0,0,0,2.49,2.53,3.37,3.37,0,0,0,1.89-.59c.15-.1.21-.11.29,0l.16.22c.05.07,0,.16-.06.26a3.88,3.88,0,0,1-2.32.75,3.37,3.37,0,0,1,0-6.72Zm2.19,3a2.15,2.15,0,0,0-2.19-2.34,2.38,2.38,0,0,0-2.44,2.34Z"/><path class="cls-2" d="M356.63,561.17a.21.21,0,0,1,.21-.21H357a.18.18,0,0,1,.19.17l.07.66a2.47,2.47,0,0,1,2-1,2.63,2.63,0,0,1,1,.19c.14,0,.22.16.17.29l-.12.32a.18.18,0,0,1-.26.08,2.08,2.08,0,0,0-.83-.19,2.28,2.28,0,0,0-1.91,1.1v4.56c0,.13-.06.21-.2.21h-.32c-.12,0-.18-.09-.18-.21Z"/><path class="cls-2" d="M362.09,566.58l.16-.26a.18.18,0,0,1,.28,0,2.84,2.84,0,0,0,1.72.63c.91,0,1.53-.51,1.53-1.14s-.72-1-1.79-1.44-2-.89-2-1.89a1.86,1.86,0,0,1,2.1-1.66,3.37,3.37,0,0,1,1.81.51.23.23,0,0,1,.06.31l-.09.17a.22.22,0,0,1-.31.08,3.05,3.05,0,0,0-1.47-.45c-1,0-1.38.6-1.38,1,0,.64.58.94,1.52,1.28,1.2.45,2.26.85,2.26,2a2.06,2.06,0,0,1-2.27,1.77,3.28,3.28,0,0,1-2.1-.72A.17.17,0,0,1,362.09,566.58Z"/><path class="cls-1" d="M312.77,0H247.64a3.92,3.92,0,0,0-3.91,3.92v88a3.92,3.92,0,0,0,3.91,3.92h4.78v6a1,1,0,0,0,1,1h15.73a1,1,0,0,0,1-1v-6h20v6a1,1,0,0,0,1,1H307a1,1,0,0,0,1-1v-6h4.77a3.93,3.93,0,0,0,3.92-3.92v-88A3.93,3.93,0,0,0,312.77,0ZM268.16,100.83H254.49v-5h13.67Zm37.77,0H292.26v-5h13.67Z"/><rect class="cls-3" x="247.44" y="34.79" width="65.53" height="26.26"/><path class="cls-4" d="M247.64,3.72h65.13a.2.2,0,0,1,.2.2V30.73H247.44V3.92A.2.2,0,0,1,247.64,3.72Z"/><path class="cls-5" d="M312.77,92.13H247.64a.2.2,0,0,1-.2-.2V65.12H313V91.93A.2.2,0,0,1,312.77,92.13Z"/><path class="cls-1" d="M261.32,42.17a5.76,5.76,0,1,0,5.76,5.75A5.76,5.76,0,0,0,261.32,42.17Zm0,9.44A3.69,3.69,0,1,1,265,47.92,3.69,3.69,0,0,1,261.32,51.61Z"/><path class="cls-1" d="M261.32,23.35a5.76,5.76,0,1,0-5.75-5.75A5.76,5.76,0,0,0,261.32,23.35Zm0-9.44a3.69,3.69,0,1,1-3.68,3.69A3.69,3.69,0,0,1,261.32,13.91Z"/><path class="cls-1" d="M261.32,72.5a5.76,5.76,0,1,0,5.76,5.75A5.76,5.76,0,0,0,261.32,72.5Zm0,9.44A3.69,3.69,0,1,1,265,78.25,3.69,3.69,0,0,1,261.32,81.94Z"/><circle class="cls-1" cx="302.24" cy="47.92" r="2.61"/><circle class="cls-1" cx="292.8" cy="47.92" r="2.61"/><circle class="cls-1" cx="283.36" cy="47.92" r="2.61"/><path class="cls-1" d="M302.24,20.2a2.61,2.61,0,1,0-2.6-2.6A2.61,2.61,0,0,0,302.24,20.2Z"/><path class="cls-1" d="M292.8,20.2a2.61,2.61,0,1,0-2.61-2.6A2.61,2.61,0,0,0,292.8,20.2Z"/><path class="cls-1" d="M283.36,20.2a2.61,2.61,0,1,0-2.61-2.6A2.61,2.61,0,0,0,283.36,20.2Z"/><path class="cls-1" d="M302.24,75.65a2.61,2.61,0,1,0,2.61,2.6A2.59,2.59,0,0,0,302.24,75.65Z"/><path class="cls-1" d="M292.8,75.65a2.61,2.61,0,1,0,2.61,2.6A2.6,2.6,0,0,0,292.8,75.65Z"/><path class="cls-1" d="M283.36,75.65a2.61,2.61,0,1,0,2.6,2.6A2.6,2.6,0,0,0,283.36,75.65Z"/><path class="cls-2" d="M254.18,125.5a5.47,5.47,0,0,1,3.89,1.49.19.19,0,0,1,0,.28l-.25.28c-.1.09-.18.08-.28,0a5,5,0,0,0-3.37-1.31,5,5,0,1,0,3.37,8.74.2.2,0,0,1,.26,0l.27.27a.18.18,0,0,1,0,.27,5.51,5.51,0,0,1-3.9,1.55,5.76,5.76,0,1,1,0-11.52Z"/><path class="cls-2" d="M259.28,130.72c-.07-.13,0-.26.09-.26h.36a.22.22,0,0,1,.2.14l2.74,5.41h0l2.5-5.41a.25.25,0,0,1,.21-.14h.35c.14,0,.16.13.1.26l-5,10.82a.22.22,0,0,1-.21.12h-.37c-.12,0-.17-.08-.11-.22l2.16-4.64Z"/><path class="cls-2" d="M268,125.87a.21.21,0,0,1,.21-.21h.27a.21.21,0,0,1,.21.21v5.07a3.31,3.31,0,0,1,2-.64,3.38,3.38,0,0,1,.2,6.72,3.09,3.09,0,0,1-2.23-.94l-.05.57a.2.2,0,0,1-.22.21h-.16a.21.21,0,0,1-.21-.21Zm2.8,10.51a2.71,2.71,0,0,0-.21-5.39,3,3,0,0,0-1.88.67v3.59A2.53,2.53,0,0,0,270.78,136.38Z"/><path class="cls-2" d="M279.09,130.3a2.81,2.81,0,0,1,2.89,2.93c0,.25,0,.62-.24.62h-5.1a2.52,2.52,0,0,0,2.49,2.53,3.37,3.37,0,0,0,1.89-.59c.15-.1.21-.11.29,0l.16.22c0,.07,0,.16-.06.26a3.88,3.88,0,0,1-2.32.75,3.37,3.37,0,0,1,0-6.72Zm2.19,3a2.15,2.15,0,0,0-2.19-2.34,2.38,2.38,0,0,0-2.44,2.34Z"/><path class="cls-2" d="M284.51,130.67a.21.21,0,0,1,.21-.21h.19a.18.18,0,0,1,.19.17l.07.66a2.47,2.47,0,0,1,2-1,2.63,2.63,0,0,1,1,.19.24.24,0,0,1,.18.29l-.13.32a.18.18,0,0,1-.26.08,2.08,2.08,0,0,0-.83-.19,2.28,2.28,0,0,0-1.91,1.1v4.56c0,.13-.06.21-.2.21h-.32c-.12,0-.18-.09-.18-.21Z"/><path class="cls-2" d="M288.75,136.67l4.93-11.14a.22.22,0,0,1,.19-.11h.05a.2.2,0,0,1,.21.11L299,136.67c0,.1,0,.19-.14.19h-.42a.26.26,0,0,1-.22-.14l-1.3-2.95h-6.12l-1.28,2.95a.26.26,0,0,1-.22.14h-.45C288.75,136.86,288.7,136.8,288.75,136.67Zm7.91-3.52-2.74-6.45h0l-2.79,6.45Z"/><path class="cls-2" d="M301,130.67a.21.21,0,0,1,.21-.21h.19a.19.19,0,0,1,.19.17l.06.66a2.47,2.47,0,0,1,2-1,2.63,2.63,0,0,1,1,.19c.14,0,.22.16.17.29l-.12.32a.18.18,0,0,1-.26.08,2.08,2.08,0,0,0-.83-.19,2.28,2.28,0,0,0-1.91,1.1v4.56a.19.19,0,0,1-.21.21h-.32c-.11,0-.17-.09-.17-.21Z"/><path class="cls-2" d="M306.78,125.87a.21.21,0,0,1,.21-.21h.27a.21.21,0,0,1,.21.21V133l3.41-2.49a.45.45,0,0,1,.26-.09h.46c.16,0,.18.21,0,.29l-3.44,2.53,3.85,3.31a.15.15,0,0,1-.08.27h-.49a.42.42,0,0,1-.32-.13l-3.7-3.18v3.1a.19.19,0,0,1-.21.21H307a.19.19,0,0,1-.18-.21Z"/><path class="cls-2" d="M219.61,144.87a.2.2,0,0,1,.2-.21h6.42a.21.21,0,0,1,.21.21v.27a.2.2,0,0,1-.21.2h-5.85v4.42h5.07a.22.22,0,0,1,.21.21v.27a.21.21,0,0,1-.21.21h-5.07v4.74h5.85a.21.21,0,0,1,.21.21v.25a.21.21,0,0,1-.21.21h-6.42a.2.2,0,0,1-.2-.21Z"/><path class="cls-2" d="M229.14,149.67a.22.22,0,0,1,.23-.21h.16a.18.18,0,0,1,.19.16l.06.69a3.4,3.4,0,0,1,2.37-1c1.79,0,2.58,1.14,2.58,2.93v3.42a.21.21,0,0,1-.21.21h-.29a.21.21,0,0,1-.21-.21v-3.42c0-1.47-.68-2.24-1.9-2.24a3.28,3.28,0,0,0-2.29,1.1v4.56a.19.19,0,0,1-.21.21h-.3a.19.19,0,0,1-.18-.21Z"/><path class="cls-2" d="M240.39,149.3a3.22,3.22,0,0,1,2,.64v-5.07a.2.2,0,0,1,.21-.21h.29a.21.21,0,0,1,.19.21v10.78a.21.21,0,0,1-.21.21h-.16a.2.2,0,0,1-.22-.21l-.05-.56a3.1,3.1,0,0,1-2.21.93,3.15,3.15,0,0,1-3-3.36A3.19,3.19,0,0,1,240.39,149.3Zm-.14,6.08a2.55,2.55,0,0,0,2.11-1.13v-3.59a3,3,0,0,0-1.9-.67,2.71,2.71,0,0,0-.21,5.39Z"/><path class="cls-2" d="M246.81,160.46a.21.21,0,0,1-.21.2h-.27a.21.21,0,0,1-.21-.2V149.67a.21.21,0,0,1,.22-.21h.18a.17.17,0,0,1,.19.16l0,.45a3.24,3.24,0,0,1,2.1-.77,3.18,3.18,0,0,1,3.09,3.36,3.22,3.22,0,0,1-3.24,3.36,2.92,2.92,0,0,1-1.9-.65Zm1.82-5.11a2.58,2.58,0,0,0,2.61-2.71,2.49,2.49,0,0,0-2.43-2.68,2.57,2.57,0,0,0-2,.89v3.75A2.54,2.54,0,0,0,248.63,155.35Z"/><path class="cls-2" d="M257.29,149.3a3.36,3.36,0,1,1-3.22,3.34A3.29,3.29,0,0,1,257.29,149.3Zm0,6.07a2.71,2.71,0,1,0-2.53-2.73A2.6,2.6,0,0,0,257.29,155.37Z"/><path class="cls-2" d="M262.9,145.79a.55.55,0,1,1,1.09,0,.55.55,0,0,1-1.09,0Zm.2,3.88a.2.2,0,0,1,.2-.21h.29a.21.21,0,0,1,.21.21v6a.19.19,0,0,1-.21.21h-.32c-.11,0-.17-.09-.17-.21Z"/><path class="cls-2" d="M266.87,149.67a.21.21,0,0,1,.22-.21h.16a.18.18,0,0,1,.2.16l.06.69a3.4,3.4,0,0,1,2.37-1c1.79,0,2.58,1.14,2.58,2.93v3.42a.21.21,0,0,1-.21.21H272a.21.21,0,0,1-.21-.21v-3.42c0-1.47-.69-2.24-1.9-2.24a3.26,3.26,0,0,0-2.29,1.1v4.56a.19.19,0,0,1-.21.21h-.3c-.12,0-.18-.09-.18-.21Z"/><path class="cls-2" d="M275.7,150.08H275c-.16,0-.19-.08-.19-.2v-.26c0-.11.08-.16.19-.16h.75v-1.75a.2.2,0,0,1,.21-.2l.27,0a.21.21,0,0,1,.21.21v1.76h2.23a.2.2,0,0,1,.2.21v.21a.19.19,0,0,1-.2.2h-2.23v4.09c0,.75.08,1.16.83,1.16a3.42,3.42,0,0,0,1.46-.43.16.16,0,0,1,.26.07l.11.19a.18.18,0,0,1-.05.27,3.19,3.19,0,0,1-1.86.59c-1.33,0-1.44-.78-1.44-1.81Z"/><path class="cls-2" d="M285.93,144.87a.2.2,0,0,1,.2-.21h3.45a3.61,3.61,0,0,1,0,7.22h-2.91v3.77c0,.12-.1.21-.26.21h-.29a.2.2,0,0,1-.2-.21Zm3.61,6.27a2.92,2.92,0,0,0,2.9-2.91,2.88,2.88,0,0,0-2.91-2.82h-2.85v5.73Z"/><path class="cls-2" d="M295.27,149.67a.21.21,0,0,1,.21-.21h.19a.18.18,0,0,1,.19.17l.07.66a2.47,2.47,0,0,1,2-1,2.63,2.63,0,0,1,1,.19.24.24,0,0,1,.18.29l-.13.32a.18.18,0,0,1-.26.08,2.08,2.08,0,0,0-.83-.19,2.28,2.28,0,0,0-1.91,1.1v4.56c0,.13-.06.21-.2.21h-.32c-.12,0-.18-.09-.18-.21Z"/><path class="cls-2" d="M300.9,145.79a.55.55,0,1,1,1.09,0,.55.55,0,0,1-1.09,0Zm.19,3.88a.21.21,0,0,1,.21-.21h.29a.21.21,0,0,1,.21.21v6a.19.19,0,0,1-.21.21h-.32a.19.19,0,0,1-.18-.21Z"/><path class="cls-2" d="M303.93,149.7c-.07-.13-.05-.24.09-.24h.35a.21.21,0,0,1,.21.14l2.32,5.28h0l2.34-5.28a.2.2,0,0,1,.2-.14h.36c.14,0,.16.11.09.24l-2.78,6.18a.22.22,0,0,1-.2.14h-.06c-.1,0-.14,0-.19-.14Z"/><path class="cls-2" d="M311.85,145.79a.54.54,0,1,1,1.08,0,.54.54,0,0,1-1.08,0Zm.19,3.88a.21.21,0,0,1,.21-.21h.28a.21.21,0,0,1,.21.21v6a.19.19,0,0,1-.21.21h-.32c-.11,0-.17-.09-.17-.21Z"/><path class="cls-2" d="M315.81,144.87a.21.21,0,0,1,.21-.21h.29a.21.21,0,0,1,.21.21v10.78a.19.19,0,0,1-.21.21H316a.19.19,0,0,1-.18-.21Z"/><path class="cls-2" d="M322.28,149.3a2.82,2.82,0,0,1,2.9,2.93c0,.25,0,.62-.24.62h-5.11a2.53,2.53,0,0,0,2.5,2.53,3.4,3.4,0,0,0,1.89-.59c.14-.1.2-.11.28,0l.16.22c0,.07,0,.16-.06.26a3.88,3.88,0,0,1-2.32.75,3.37,3.37,0,0,1,0-6.72Zm2.19,3a2.15,2.15,0,0,0-2.19-2.34,2.38,2.38,0,0,0-2.43,2.34Z"/><path class="cls-2" d="M328.1,153.6a2.82,2.82,0,0,1-.49-1.6,2.62,2.62,0,0,1,2.8-2.7H333a.2.2,0,0,1,.21.21v.17a.2.2,0,0,1-.14.2l-1.16.08a2.16,2.16,0,0,1,1,2,2.58,2.58,0,0,1-2.66,2.66,2.48,2.48,0,0,1-1.75-.57,1.3,1.3,0,0,0-.81,1.15c0,.75.64.93,1.26.93h2.32c1.38,0,2.37.62,2.37,2s-1.31,2.61-3.26,2.61c-2.18,0-3.12-1.28-3.12-2.37a2,2,0,0,1,1-1.68,1.58,1.58,0,0,1-1.24-1.45A2.06,2.06,0,0,1,328.1,153.6Zm2.29,6.57c1.44,0,2.55-.85,2.55-1.94,0-.74-.45-1.41-1.64-1.41h-2a1.75,1.75,0,0,0-1.3,1.55C328,159.26,328.84,160.17,330.39,160.17Zm1.87-8.18a1.9,1.9,0,0,0-2-2.05,2,2,0,0,0-2,2.05,2,2,0,1,0,4,0Z"/><path class="cls-2" d="M338.42,149.3a2.82,2.82,0,0,1,2.9,2.93c0,.25,0,.62-.24.62H336a2.53,2.53,0,0,0,2.5,2.53,3.4,3.4,0,0,0,1.89-.59c.14-.1.21-.11.29,0l.16.22c.05.07,0,.16-.07.26a3.85,3.85,0,0,1-2.32.75,3.37,3.37,0,0,1,0-6.72Zm2.2,3a2.16,2.16,0,0,0-2.2-2.34,2.38,2.38,0,0,0-2.43,2.34Z"/><path class="cls-2" d="M231,163.61a.17.17,0,0,1,.15-.11h.18a.16.16,0,0,1,.16.11l3.29,9.83h0l3.32-9.83a.15.15,0,0,1,.16-.11h.17a.16.16,0,0,1,.15.11l2.27,11c0,.16,0,.21-.17.21h-.39a.19.19,0,0,1-.19-.17l-1.81-9.38h0L235,174.89a.2.2,0,0,1-.22.13h-.06c-.08,0-.18,0-.21-.13l-3.23-9.58h0l-1.81,9.38a.19.19,0,0,1-.19.17h-.38c-.15,0-.21-.05-.18-.21Z"/><path class="cls-2" d="M245.62,170.73a5.32,5.32,0,0,1,1.61.29c0-1.41-.14-2.11-1.41-2.11a4.74,4.74,0,0,0-1.92.43.17.17,0,0,1-.24-.13l-.08-.19a.17.17,0,0,1,.1-.24,4.65,4.65,0,0,1,2.19-.48c1.95,0,2,1.17,2,2.8v3.55a.2.2,0,0,1-.2.21h-.2c-.11,0-.16-.06-.19-.17l-.06-.58A3.38,3.38,0,0,1,245,175a2,2,0,0,1-2.09-2.13C242.93,171.66,243.93,170.73,245.62,170.73Zm-.52,3.67a2.9,2.9,0,0,0,2.13-1v-1.76a4.32,4.32,0,0,0-1.61-.33c-1.22,0-2,.62-2,1.57A1.45,1.45,0,0,0,245.1,174.4Z"/><path class="cls-2" d="M250.91,168.67a.21.21,0,0,1,.22-.21h.16a.18.18,0,0,1,.2.16l.06.69a3.4,3.4,0,0,1,2.37-1c1.79,0,2.58,1.14,2.58,2.93v3.42a.21.21,0,0,1-.21.21H256a.21.21,0,0,1-.21-.21v-3.42c0-1.47-.69-2.24-1.9-2.24a3.26,3.26,0,0,0-2.29,1.1v4.56a.19.19,0,0,1-.21.21h-.3c-.12,0-.18-.09-.18-.21Z"/><path class="cls-2" d="M261.65,170.73a5.32,5.32,0,0,1,1.61.29c0-1.41-.14-2.11-1.41-2.11a4.74,4.74,0,0,0-1.92.43c-.12,0-.2,0-.24-.13l-.08-.19c0-.14,0-.21.1-.24a4.65,4.65,0,0,1,2.19-.48c2,0,2,1.17,2,2.8v3.55a.21.21,0,0,1-.21.21h-.19c-.12,0-.16-.06-.2-.17l-.06-.58a3.38,3.38,0,0,1-2.23.91,2,2,0,0,1-2.09-2.13C259,171.66,260,170.73,261.65,170.73Zm-.52,3.67a2.9,2.9,0,0,0,2.13-1v-1.76a4.22,4.22,0,0,0-1.61-.33c-1.22,0-2,.62-2,1.57A1.45,1.45,0,0,0,261.13,174.4Z"/><path class="cls-2" d="M267.34,172.6a2.82,2.82,0,0,1-.49-1.6,2.62,2.62,0,0,1,2.8-2.7h2.62a.2.2,0,0,1,.21.21v.17a.2.2,0,0,1-.14.2l-1.16.08a2.16,2.16,0,0,1,1,2,2.58,2.58,0,0,1-2.66,2.66,2.48,2.48,0,0,1-1.75-.57,1.3,1.3,0,0,0-.81,1.15c0,.75.64.93,1.26.93h2.32c1.38,0,2.37.62,2.37,2s-1.31,2.61-3.26,2.61c-2.18,0-3.12-1.28-3.12-2.37a2,2,0,0,1,1-1.68,1.58,1.58,0,0,1-1.24-1.45A2.06,2.06,0,0,1,267.34,172.6Zm2.29,6.57c1.44,0,2.55-.85,2.55-1.94,0-.74-.45-1.41-1.64-1.41h-2a1.75,1.75,0,0,0-1.3,1.55C267.23,178.26,268.08,179.17,269.63,179.17ZM271.5,171a1.9,1.9,0,0,0-2-2.05,2,2,0,0,0-2,2.05,1.92,1.92,0,0,0,2,2A1.94,1.94,0,0,0,271.5,171Z"/><path class="cls-2" d="M277.66,168.3a2.82,2.82,0,0,1,2.9,2.93c0,.25,0,.62-.24.62h-5.11a2.53,2.53,0,0,0,2.5,2.53,3.37,3.37,0,0,0,1.89-.59c.14-.1.21-.11.29,0l.16.22c.05.07,0,.16-.07.26a3.85,3.85,0,0,1-2.32.75,3.37,3.37,0,0,1,0-6.72Zm2.2,3a2.16,2.16,0,0,0-2.2-2.34,2.38,2.38,0,0,0-2.43,2.34Z"/><path class="cls-2" d="M283.09,168.67a.2.2,0,0,1,.2-.21h.19a.19.19,0,0,1,.2.17l.06.66a2.47,2.47,0,0,1,2-1,2.58,2.58,0,0,1,1,.19c.15,0,.23.16.18.29l-.13.32a.17.17,0,0,1-.25.08,2.09,2.09,0,0,0-.84-.19,2.27,2.27,0,0,0-1.9,1.1v4.56a.19.19,0,0,1-.21.21h-.32c-.11,0-.17-.09-.17-.21Z"/><path class="cls-2" d="M292.83,173.37l.14-.19c.12-.13.23-.17.36-.06a4.67,4.67,0,0,0,3,1.23A2.5,2.5,0,0,0,299,172.2c0-1.42-1.17-2.06-3.11-2.72s-3.09-1.31-3.09-3.15c0-1.2,1-2.83,3.46-2.83a5.29,5.29,0,0,1,2.75.81.23.23,0,0,1,.07.34.92.92,0,0,0-.13.21.23.23,0,0,1-.35.08,4.7,4.7,0,0,0-2.36-.76c-2,0-2.7,1.22-2.7,2.13,0,1.37,1,2,2.66,2.49,2.19.75,3.58,1.52,3.58,3.37,0,1.6-1.65,2.85-3.49,2.85a5.23,5.23,0,0,1-3.39-1.31C292.78,173.63,292.7,173.55,292.83,173.37Z"/><path class="cls-2" d="M301.23,174.67l4.93-11.14a.22.22,0,0,1,.19-.11h0a.2.2,0,0,1,.21.11l4.88,11.14c0,.1,0,.19-.15.19h-.41a.29.29,0,0,1-.23-.14l-1.29-2.95h-6.12L302,174.72a.26.26,0,0,1-.22.14h-.45C301.23,174.86,301.18,174.8,301.23,174.67Zm7.91-3.52-2.74-6.45h0l-2.79,6.45Z"/><path class="cls-2" d="M312.32,174.67l4.93-11.14a.22.22,0,0,1,.19-.11h.05a.2.2,0,0,1,.21.11l4.88,11.14c0,.1,0,.19-.15.19H322a.26.26,0,0,1-.23-.14l-1.29-2.95h-6.12l-1.28,2.95a.26.26,0,0,1-.22.14h-.45C312.32,174.86,312.27,174.8,312.32,174.67Zm7.9-3.52-2.73-6.45h0l-2.79,6.45Z"/><path class="cls-2" d="M324.33,173.37l.15-.19c.11-.13.22-.17.35-.06a4.67,4.67,0,0,0,3,1.23,2.5,2.5,0,0,0,2.69-2.15c0-1.42-1.17-2.06-3.11-2.72s-3.08-1.31-3.08-3.15c0-1.2,1-2.83,3.45-2.83a5.3,5.3,0,0,1,2.76.81.24.24,0,0,1,.06.34.92.92,0,0,0-.13.21.23.23,0,0,1-.35.08,4.69,4.69,0,0,0-2.35-.76c-2,0-2.71,1.22-2.71,2.13,0,1.37,1,2,2.66,2.49,2.19.75,3.58,1.52,3.58,3.37,0,1.6-1.64,2.85-3.49,2.85a5.23,5.23,0,0,1-3.39-1.31A.22.22,0,0,1,324.33,173.37Z"/><path class="cls-2" d="M343.72,46.64v2.5c0,2.59-1.34,4.11-4.19,4.11-1,0-2,0-2.95-.09V42.48c.82,0,1.92-.08,3.07-.08C342.3,42.4,343.72,43.94,343.72,46.64Zm-5.23-2.53v7.38a9.75,9.75,0,0,0,1.08.07,2.06,2.06,0,0,0,2.23-2.32V46.55c0-1.68-.82-2.47-2.23-2.47C339.21,44.08,338.84,44.08,338.49,44.11Z"/><path class="cls-2" d="M353.22,53.06h-2l-.57-2.19h-3.34l-.56,2.19h-2l3.11-10.48h2.27Zm-5.57-3.82h2.58L349,44.18Z"/><path class="cls-2" d="M360.82,44.34h-2.88v8.72H356V44.34h-2.88V42.58h7.66Z"/><path class="cls-2" d="M369.26,53.06h-2.05l-.56-2.19H363.3l-.56,2.19h-2l3.11-10.48h2.27Zm-5.57-3.82h2.57L365,44.18Z"/><path class="cls-2" d="M377.37,45v.29a2.34,2.34,0,0,1-1.57,2.31,2.31,2.31,0,0,1,2,2.38v.32c0,1.73-1.13,3-3.9,3-.91,0-1.59,0-3-.08V42.46c.8,0,2.05-.08,3-.08C376.18,42.38,377.37,43.51,377.37,45Zm-4.63-.91V47h1.17c1,0,1.54-.53,1.54-1.4V45.3c0-.8-.5-1.25-1.8-1.25C373.37,44.05,373.09,44.05,372.74,44.08Zm0,4.47v3a11,11,0,0,0,1.17.06c1.39,0,1.95-.56,1.95-1.42v-.29c0-.83-.56-1.31-1.87-1.31Z"/><path class="cls-2" d="M387.26,53.06h-2.05l-.56-2.19H381.3l-.56,2.19h-2l3.11-10.48h2.27Zm-5.57-3.82h2.57L383,44.18Z"/><path class="cls-2" d="M393.83,42.64l0,1.74a16.14,16.14,0,0,0-2.35-.27c-1,0-1.38.4-1.38,1.12v.34c0,.58.18.8,1,1.07l1.41.47a2.56,2.56,0,0,1,2,2.86v.31c0,1.92-1,3-3.64,3a14.42,14.42,0,0,1-2.47-.33l0-1.78a11.64,11.64,0,0,0,2.4.35c1.34,0,1.79-.41,1.79-1.15v-.42c0-.56-.22-.84-.85-1.05l-1.55-.52a2.51,2.51,0,0,1-2.08-2.84v-.16c0-1.91,1-3,3.25-3A17,17,0,0,1,393.83,42.64Z"/><path class="cls-2" d="M402.34,44.34h-3.92v2.53H402v1.74h-3.6V51.3h3.92v1.76H396.5V42.58h5.84Z"/><path class="cls-2" d="M412.9,42.54l0,1.6a11.19,11.19,0,0,0-1.76-.15c-1,0-1.41.44-1.41,1.26v.29c0,.86.55,1.41,1.57,1.41h1.28V46h1.79v1h1v1.58h-1v4.29a13.11,13.11,0,0,1-3.12.43c-2.75,0-3.73-1.09-3.73-2.83v-.37a2.53,2.53,0,0,1,1.89-2.46,2.28,2.28,0,0,1-1.52-2.26V45c0-1.49,1.09-2.65,3.06-2.65A14.42,14.42,0,0,1,412.9,42.54Zm-1.69,6c-1.28,0-1.86.55-1.86,1.41v.37c0,.85.59,1.31,1.9,1.31a5.62,5.62,0,0,0,1.3-.16V48.53Z"/><path class="cls-2" d="M427.06,45.33v.38a2.8,2.8,0,0,1-1.77,2.63l2.59,4.72h-2.11l-2.28-4.22a8.72,8.72,0,0,1-1.23,0v4.24h-1.92V42.48c.93,0,2.18-.1,2.93-.1C425.94,42.38,427.06,43.54,427.06,45.33Zm-4.81-1.23v3a8.86,8.86,0,0,0,1,.07c1.31,0,1.85-.58,1.85-1.52v-.26c0-.91-.54-1.38-1.87-1.38C423,44.06,422.57,44.08,422.25,44.1Z"/><path class="cls-2" d="M435.29,44.34h-3.93v2.53H435v1.74h-3.61V51.3h3.93v1.76h-5.85V42.58h5.85Z"/><path class="cls-2" d="M444.31,45.44v.35c0,2-1.2,3.27-3.63,3.27a7.28,7.28,0,0,1-1.2-.11v4.11h-1.92V42.48c.8,0,1.84-.08,2.91-.1C443.11,42.37,444.31,43.57,444.31,45.44Zm-4.85-1.36v3.19a9.24,9.24,0,0,0,1.07.09c1.25,0,1.86-.56,1.86-1.63v-.24c0-.93-.56-1.44-1.92-1.44C440,44.05,439.73,44.06,439.46,44.08Z"/><path class="cls-2" d="M453.32,45.92v3.8c0,2.2-1.07,3.53-3.62,3.53s-3.6-1.33-3.6-3.53v-3.8c0-2.24,1.09-3.54,3.6-3.54S453.32,43.68,453.32,45.92ZM448,45.78v4.06a1.7,1.7,0,0,0,3.39,0V45.79a1.52,1.52,0,0,0-1.7-1.68A1.49,1.49,0,0,0,448,45.78Z"/><path class="cls-2" d="M462.39,45.33v.38a2.8,2.8,0,0,1-1.78,2.63l2.6,4.72H461.1l-2.28-4.22a8.72,8.72,0,0,1-1.23,0v4.24h-1.92V42.48c.93,0,2.18-.1,2.93-.1C461.27,42.38,462.39,43.54,462.39,45.33Zm-4.82-1.23v3a9,9,0,0,0,1,.07c1.32,0,1.86-.58,1.86-1.52v-.26c0-.91-.54-1.38-1.87-1.38C458.34,44.06,457.89,44.08,457.57,44.1Z"/><path class="cls-2" d="M471.59,44.34h-2.88v8.72h-1.9V44.34h-2.89V42.58h7.67Z"/><path class="cls-2" d="M475.4,53.06h-1.92V42.58h1.92Z"/><path class="cls-2" d="M479.67,45.65v7.41h-1.86V42.58h2.61L483.13,50V42.58H485V53.06h-2.55Z"/><path class="cls-2" d="M493.78,42.72l0,1.7a17.7,17.7,0,0,0-2.83-.34c-1.24,0-1.68.45-1.68,1.59v4.25c0,1.14.44,1.6,1.63,1.6a9.19,9.19,0,0,0,1.52-.14V48.56h-1.63V46.83h3.45v5.78a11.53,11.53,0,0,1-3.39.64c-2.59,0-3.5-1.12-3.5-3.34V45.73c0-2.3,1-3.35,3.53-3.35A17.64,17.64,0,0,1,493.78,42.72Z"/><path class="cls-2" d="M346.49,84.06h-2.35l-1.78-8.42-1.78,8.42h-2.35l-2.29-10.48h2l1.52,8.51,1.74-8.51h2.26l1.76,8.5,1.51-8.5h2Z"/><path class="cls-2" d="M356.38,75.34h-3.93v2.53h3.61v1.74h-3.61V82.3h3.93v1.76h-5.85V73.58h5.85Z"/><path class="cls-2" d="M365.18,76v.29a2.34,2.34,0,0,1-1.57,2.31,2.31,2.31,0,0,1,2,2.38v.32c0,1.73-1.14,3-3.9,3-.92,0-1.59,0-3.05-.08V73.46c.8,0,2.05-.08,3-.08C364,73.38,365.18,74.51,365.18,76Zm-4.63-.91V78h1.17c1,0,1.54-.53,1.54-1.4V76.3c0-.8-.5-1.25-1.8-1.25C361.17,75.05,360.9,75.05,360.55,75.08Zm0,4.47v3a11,11,0,0,0,1.17.06c1.39,0,1.95-.56,1.95-1.42v-.29c0-.83-.56-1.31-1.87-1.31Z"/><path class="cls-2" d="M376.18,73.64l0,1.74a16.14,16.14,0,0,0-2.35-.27c-1,0-1.38.4-1.38,1.12v.34c0,.58.18.8,1,1.07l1.41.47A2.56,2.56,0,0,1,376.89,81v.31c0,1.92-1,3-3.65,3a14.42,14.42,0,0,1-2.47-.33l0-1.78a11.64,11.64,0,0,0,2.4.35c1.34,0,1.79-.41,1.79-1.15v-.42c0-.56-.22-.84-.85-1l-1.55-.52a2.51,2.51,0,0,1-2.08-2.84v-.16c0-1.91,1-3,3.25-3A17,17,0,0,1,376.18,73.64Z"/><path class="cls-2" d="M384.69,75.34h-3.92v2.53h3.6v1.74h-3.6V82.3h3.92v1.76h-5.84V73.58h5.84Z"/><path class="cls-2" d="M393.69,76.33v.38a2.8,2.8,0,0,1-1.78,2.63l2.59,4.72h-2.11l-2.27-4.22a8.72,8.72,0,0,1-1.23,0v4.24H387V73.48c.93,0,2.18-.1,2.93-.1C392.57,73.38,393.69,74.54,393.69,76.33Zm-4.82-1.23v3.05a8.86,8.86,0,0,0,1,.07c1.31,0,1.86-.58,1.86-1.52v-.26c0-.91-.55-1.38-1.88-1.38Z"/><path class="cls-2" d="M400.34,84.06H398l-3-10.48h2l2.13,8.78,2.18-8.78h2Z"/><path class="cls-2" d="M410.9,75.34H407v2.53h3.6v1.74H407V82.3h3.92v1.76h-5.84V73.58h5.84Z"/><path class="cls-2" d="M419.89,76.33v.38a2.79,2.79,0,0,1-1.77,2.63l2.59,4.72H418.6l-2.27-4.22a8.84,8.84,0,0,1-1.24,0v4.24h-1.92V73.48c.93,0,2.18-.1,2.93-.1C418.77,73.38,419.89,74.54,419.89,76.33Zm-4.81-1.23v3.05a8.86,8.86,0,0,0,1,.07c1.31,0,1.85-.58,1.85-1.52v-.26c0-.91-.54-1.38-1.87-1.38Z"/><path class="cls-2" d="M343.83,14.43l-1.66,6.15h-2.08l-1.67-6.15-.08,7.3h-1.82l.09-10.49h2.48l2.05,7.45,2.05-7.45h2.45l.1,10.49h-1.81Z"/><path class="cls-2" d="M355.74,21.73h-2.05l-.56-2.2h-3.35l-.56,2.2h-2l3.11-10.49h2.27Zm-5.57-3.83h2.57l-1.28-5.06Z"/><path class="cls-2" d="M359.17,14.32v7.41h-1.85V11.24h2.61l2.7,7.41V11.24h1.84V21.73h-2.54Z"/><path class="cls-2" d="M374.54,21.73h-2.05l-.56-2.2h-3.35l-.56,2.2h-2l3.11-10.49h2.27ZM369,17.9h2.57l-1.28-5.06Z"/><path class="cls-2" d="M382.18,11.39l0,1.69a18.83,18.83,0,0,0-2.83-.33c-1.23,0-1.68.45-1.68,1.58v4.26c0,1.14.45,1.6,1.63,1.6a10.43,10.43,0,0,0,1.52-.14V17.23h-1.63V15.5h3.46v5.78a11.66,11.66,0,0,1-3.4.64c-2.59,0-3.5-1.12-3.5-3.35V14.4c0-2.31,1-3.35,3.53-3.35A17.52,17.52,0,0,1,382.18,11.39Z"/><path class="cls-2" d="M390.84,13h-3.92v2.53h3.6v1.75h-3.6V20h3.92v1.76H385V11.24h5.84Z"/><path class="cls-2" d="M400.36,14.43l-1.67,6.15h-2.08L395,14.43l-.08,7.3H393l.1-10.49h2.48l2.05,7.45,2.05-7.45h2.45l.1,10.49h-1.81Z"/><path class="cls-2" d="M410.47,13h-3.92v2.53h3.6v1.75h-3.6V20h3.92v1.76h-5.84V11.24h5.84Z"/><path class="cls-2" d="M414.6,14.32v7.41h-1.86V11.24h2.61l2.7,7.41V11.24h1.85V21.73h-2.55Z"/><path class="cls-2" d="M429.43,13h-2.88v8.73h-1.9V13h-2.89V11.24h7.67Z"/><path class="cls-2" d="M440.53,13h-3.92v2.53h3.6v1.75h-3.6V20h3.92v1.76h-5.84V11.24h5.84Z"/><path class="cls-2" d="M444.66,14.32v7.41H442.8V11.24h2.61l2.71,7.41V11.24H450V21.73h-2.55Z"/><path class="cls-2" d="M458.77,11.39l0,1.69a18.83,18.83,0,0,0-2.83-.33c-1.23,0-1.68.45-1.68,1.58v4.26c0,1.14.45,1.6,1.63,1.6a10.43,10.43,0,0,0,1.52-.14V17.23h-1.63V15.5h3.46v5.78a11.66,11.66,0,0,1-3.4.64c-2.59,0-3.5-1.12-3.5-3.35V14.4c0-2.31,1-3.35,3.54-3.35A17.52,17.52,0,0,1,458.77,11.39Z"/><path class="cls-2" d="M463.51,21.73h-1.92V11.24h1.92Z"/><path class="cls-2" d="M467.78,14.32v7.41h-1.86V11.24h2.61l2.71,7.41V11.24h1.84V21.73h-2.55Z"/><path class="cls-2" d="M481.35,13h-3.92v2.53H481v1.75h-3.6V20h3.92v1.76h-5.84V11.24h5.84Z"/><line class="cls-6" x1="436.52" y1="472.56" x2="336.02" y2="306.06"/><line class="cls-7" x1="436.52" y1="472.56" x2="339.1" y2="311.17"/><polygon class="cls-1" points="343.73 311.66 339.74 312.23 337.38 315.49 336.02 306.06 343.73 311.66"/><line class="cls-6" x1="94.52" y1="472.56" x2="224.02" y2="306.06"/><line class="cls-7" x1="94.52" y1="472.56" x2="220.35" y2="310.77"/><polygon class="cls-1" points="221.55 315.26 219.59 311.75 215.71 310.72 224.02 306.06 221.55 315.26"/><line class="cls-6" x1="280.21" y1="472.56" x2="280.21" y2="345.06"/><line class="cls-7" x1="280.21" y1="472.56" x2="280.21" y2="351.03"/><polygon class="cls-1" points="283.91 353.84 280.21 352.26 276.51 353.84 280.21 345.06 283.91 353.84"/><line class="cls-6" x1="280.21" y1="193.56" x2="280.21" y2="238.56"/><line class="cls-7" x1="280.21" y1="193.56" x2="280.21" y2="232.59"/><polygon class="cls-1" points="276.51 229.78 280.21 231.35 283.91 229.78 280.21 238.56 276.51 229.78"/><path class="cls-1" d="M97,530.36c-1.12,0-2.3,0-3.55,0a81,81,0,0,1-15.34-1.17V523.9a.93.93,0,1,0-1.86,0v4.91c-3-.79-4.18-1.71-4.18-2.32,0-8.35,5.6-11.58,14-13.86l.15,0a6,6,0,0,0,2.91,3.71,9.07,9.07,0,0,0,8.62,0,6,6,0,0,0,2.91-3.71l.15,0,.77.21a17.61,17.61,0,0,1,2.69-2.09c-.92-.3-1.85-.57-2.77-.83l-.09,0c-1.53-.31-2-.61-2.2-1.38,3.22-2.71,6.41-7.13,6.41-12.08,0-9.58-4.55-15.3-12.18-15.3s-12.18,5.72-12.18,15.3c0,4.95,3.19,9.37,6.41,12.08-.24.77-.67,1.07-2.2,1.38l-.08,0c-8,2.16-16.12,5.81-16.12,16.57,0,3.06,4.19,6.71,24.17,6.71,1.67,0,3.22,0,4.68-.08A17.56,17.56,0,0,1,97,530.36ZM84.07,496.44c0-3.76.91-12.51,9.39-12.51s9.39,8.75,9.39,12.51c0,4.29-3.1,8.2-6,10.43a1.4,1.4,0,0,0-.53,1.36c.36,2,1.08,3.11,2.59,3.8a4.26,4.26,0,0,1-2.06,2.66,7.16,7.16,0,0,1-6.76,0A4.26,4.26,0,0,1,88,512c1.51-.69,2.23-1.82,2.59-3.8a1.4,1.4,0,0,0-.53-1.36C87.18,504.64,84.07,500.73,84.07,496.44Z"/><path class="cls-1" d="M113.45,540.63a15.34,15.34,0,1,1,15.33-15.34A15.36,15.36,0,0,1,113.45,540.63Zm0-27.89A12.55,12.55,0,1,0,126,525.29,12.56,12.56,0,0,0,113.45,512.74Z"/><circle class="cls-1" cx="112.75" cy="528.83" r="0.41"/><path class="cls-1" d="M121.11,524.46l-2.15-1.9v-4.5a.38.38,0,0,0-.38-.38H115.9a.38.38,0,0,0-.38.38v1.48l-1.88-1.66a.37.37,0,0,0-.5,0l-7.36,6.58a.5.5,0,0,0,0,.71l.2.22a.5.5,0,0,0,.71,0l.49-.44v6.62h-.65a.5.5,0,0,0-.5.5v.3a.5.5,0,0,0,.5.5h13.92a.51.51,0,0,0,.5-.5v-.3a.5.5,0,0,0-.5-.5h-.66V525l.5.44a.51.51,0,0,0,.71-.05l.2-.22A.51.51,0,0,0,121.11,524.46ZM116.83,519h.83v2.44l-.83-.74Zm-2,12.63H112v-5.07h2.81Zm1,0v-5.68a.39.39,0,0,0-.39-.39h-4a.4.4,0,0,0-.39.39v5.68h-2.55v-7.78l4.59-4.1h0l.37-.34.37.33h0l4.68,4.13v7.76Z"/><path class="cls-1" d="M530.63,530.54c-1.13,0-2.31,0-3.56,0a80.86,80.86,0,0,1-15.33-1.17v-5.33a.93.93,0,1,0-1.86,0V529c-3-.8-4.19-1.72-4.19-2.32,0-8.35,5.6-11.59,14-13.87l.15,0a6,6,0,0,0,2.91,3.7,9,9,0,0,0,8.61,0,6,6,0,0,0,2.91-3.7l.15,0,.78.22a17.59,17.59,0,0,1,2.68-2.1c-.92-.3-1.84-.57-2.77-.82l-.09,0c-1.53-.31-2-.61-2.19-1.38,3.21-2.71,6.41-7.14,6.41-12.08,0-9.59-4.56-15.31-12.19-15.31s-12.18,5.72-12.18,15.31c0,4.94,3.19,9.37,6.41,12.08-.23.77-.67,1.07-2.2,1.38l-.08,0c-8,2.16-16.12,5.81-16.12,16.57,0,3.05,4.2,6.7,24.17,6.7,1.68,0,3.23,0,4.68-.08A16.51,16.51,0,0,1,530.63,530.54Zm-13-33.92c0-3.77.92-12.52,9.39-12.52s9.4,8.75,9.4,12.52c0,4.29-3.11,8.2-6,10.42a1.38,1.38,0,0,0-.52,1.36c.36,2,1.08,3.11,2.59,3.81a4.22,4.22,0,0,1-2.07,2.65,7.14,7.14,0,0,1-6.75,0,4.19,4.19,0,0,1-2.07-2.65c1.51-.7,2.23-1.82,2.59-3.81a1.4,1.4,0,0,0-.52-1.36C520.79,504.82,517.68,500.91,517.68,496.62Z"/><path class="cls-1" d="M547.06,540.81a15.34,15.34,0,1,1,15.34-15.34A15.36,15.36,0,0,1,547.06,540.81Zm0-27.89a12.55,12.55,0,1,0,12.55,12.55A12.56,12.56,0,0,0,547.06,512.92Z"/><path class="cls-1" d="M551.57,524.44h-.41v-1.63a4.12,4.12,0,1,0-8.2,0v1.63h-.41a1.44,1.44,0,0,0-1.43,1.44v5.33a1.43,1.43,0,0,0,1.43,1.43h9a1.43,1.43,0,0,0,1.43-1.43v-5.33A1.44,1.44,0,0,0,551.57,524.44Zm-7.38-1.63a2.9,2.9,0,1,1,5.74,0v1.63h-5.74Zm7.58,8.4a.2.2,0,0,1-.2.2h-9a.2.2,0,0,1-.2-.2v-5.33a.21.21,0,0,1,.2-.21h9a.21.21,0,0,1,.2.21Z"/><path class="cls-1" d="M547.06,526.7a1.22,1.22,0,0,0-.41,2.38v1.1a.41.41,0,0,0,.82,0v-1.1a1.22,1.22,0,0,0-.41-2.38Z"/><path class="cls-1" d="M304.29,271.87a14.89,14.89,0,0,0,.42-3.53,15.45,15.45,0,0,0-15.6-15.25,15.68,15.68,0,0,0-13.62,7.81,15.85,15.85,0,0,0-2.58-.21,16.26,16.26,0,0,0-15.48,11.15,15.84,15.84,0,0,0,1.08,31.65h44.4a15.83,15.83,0,0,0,1.38-31.62Zm-1.38,28h-44.4a12.24,12.24,0,1,1-.18-24.47,12.79,12.79,0,0,1,5,1,1.25,1.25,0,0,0,.46.09,1.2,1.2,0,0,0,.47-2.3,15,15,0,0,0-3.51-1,12.59,12.59,0,0,1,12.12-8.93h.31a13.35,13.35,0,0,1,8.51,3.15,1.14,1.14,0,0,0,.77.29,1.21,1.21,0,0,0,.92-.42,1.19,1.19,0,0,0-.14-1.69,15.81,15.81,0,0,0-4.75-2.78,12,12,0,0,1,10.58-6.16,11.84,11.84,0,0,1,12,11.65,11.32,11.32,0,0,1-1,4.59,2.38,2.38,0,0,0-.11.38,15.3,15.3,0,0,0-4.79,1.86,1.2,1.2,0,0,0,.61,2.23,1.19,1.19,0,0,0,.62-.17,12.89,12.89,0,0,1,5.76-1.8l.68,0a12.25,12.25,0,1,1,0,24.48Z"/></g></g></svg>