<svg xmlns="http://www.w3.org/2000/svg" viewBox="0 0 86.3 87.32"><defs><style>.cls-1{fill:#616161;}</style></defs><title>Extensive Integrations Library</title><g id="Layer_2" data-name="Layer 2"><g id="Layer_1-2" data-name="Layer 1"><path class="cls-1" d="M23.23,46.46,0,23.23,23.23,0l6.09,6.09a6,6,0,0,1,.42-.46A7.84,7.84,0,0,1,40.83,16.72a6,6,0,0,1-.46.42l6.09,6.09L37.89,31.8,37,30.14a5,5,0,0,0-.93-1.28,5.13,5.13,0,1,0-6,8.18l1.66.85ZM3.84,23.23,23.23,42.62l4.16-4.17a5.89,5.89,0,0,1-.45-.42A7.84,7.84,0,0,1,38,26.94a5.89,5.89,0,0,1,.42.45l4.17-4.16L36,16.59l1.66-.86a5.05,5.05,0,0,0,1.28-.93,5.13,5.13,0,0,0-7.25-7.25,5.05,5.05,0,0,0-.93,1.28l-.86,1.66L23.23,3.84Z"/><path class="cls-1" d="M69.88,65.65A7.84,7.84,0,0,1,62,57.81c0-.21,0-.41,0-.62H53.45V45.08l1.78.56a4.85,4.85,0,0,0,1.56.25,5.13,5.13,0,1,0-1.56-10l-1.78.57V24.34H86.3V57.19H77.7c0,.21,0,.41,0,.62A7.85,7.85,0,0,1,69.88,65.65ZM56.17,54.47h9.4L65,56.25a5.12,5.12,0,1,0,9.76,0l-.57-1.78h9.4V27.06H56.17V33c.21,0,.41,0,.62,0a7.85,7.85,0,0,1,0,15.69c-.21,0-.41,0-.62,0Z"/><path class="cls-1" d="M86.3,87.32H53.45V78.71c-.2,0-.41,0-.62,0a7.85,7.85,0,0,1,0-15.69c.21,0,.42,0,.62,0V54.47H65.57L65,56.24a5.26,5.26,0,0,0-.25,1.57,5.13,5.13,0,0,0,10.25,0,5.25,5.25,0,0,0-.24-1.57l-.57-1.77H86.3ZM56.17,84.6H83.59V57.19H77.7c0,.2,0,.41,0,.62a7.84,7.84,0,0,1-15.68,0c0-.21,0-.42,0-.62H56.17v9.39L54.4,66a5,5,0,0,0-1.57-.25,5.13,5.13,0,0,0,0,10.25,5.25,5.25,0,0,0,1.57-.24l1.77-.57Z"/><path class="cls-1" d="M56.17,87.32H23.32V54.47h8.61c0-.21,0-.41,0-.62a7.85,7.85,0,0,1,15.69,0c0,.21,0,.41,0,.62h8.61V66.58L54.4,66a5,5,0,0,0-1.57-.25,5.13,5.13,0,0,0,0,10.25,5.25,5.25,0,0,0,1.57-.24l1.77-.57ZM26,84.6H53.45V78.71c-.2,0-.41,0-.62,0a7.85,7.85,0,0,1,0-15.69c.21,0,.42,0,.62,0V57.19h-9.4l.57-1.78a4.85,4.85,0,0,0,.25-1.56,5.13,5.13,0,1,0-10,1.56l.57,1.78H26Z"/></g></g></svg>
