<svg xmlns="http://www.w3.org/2000/svg" viewBox="0 0 117.33 126.48"><defs><style>.cls-1{fill:#666;}.cls-2{fill:#cfd1d2;}.cls-3{fill:#d0d2d3;}.cls-4{fill:#4d8fcc;}.cls-5{fill:#2f73b0;}.cls-6{fill:#fff;}</style></defs><title>Guardian</title><g id="Layer_2" data-name="Layer 2"><g id="Layer_1-2" data-name="Layer 1"><path class="cls-1" d="M105,27.76A141.73,141.73,0,0,0,84,22.44v5.08A135.37,135.37,0,0,1,101.81,32c.29,51.38-20.91,72.36-43.15,88.93h0C36.42,104.32,15.22,83.34,15.51,32a133.59,133.59,0,0,1,17.78-4.45V22.44a140.56,140.56,0,0,0-21,5.37,2.48,2.48,0,0,0-1.68,2.32c-.84,56,22.44,78,46.42,95.71a2.52,2.52,0,0,0,1.68.64h0a2.51,2.51,0,0,0,1.74-.7c23.89-17.62,47.06-39.58,46.35-95.21a2.73,2.73,0,0,0,0-.41A2.48,2.48,0,0,0,105,27.76Z"/><path class="cls-2" d="M96.82,35.63c-.66,46.09-19.94,65-38.16,79-18.21-14-37.49-32.93-38.15-79a131.25,131.25,0,0,1,12.78-3.05v-1.7a132.55,132.55,0,0,0-13.86,3.34.84.84,0,0,0-.59.8c.51,47.72,20.57,67,39.32,81.33a.84.84,0,0,0,1,0C77.92,102,98,82.74,98.49,35a.85.85,0,0,0-.59-.81,134.89,134.89,0,0,0-13.85-3.33v1.69A131.09,131.09,0,0,1,96.82,35.63Z"/><path class="cls-1" d="M59.53.17,59.24,0H58.07L33.85,14l-.58,1,0,28.33L58.94,58.12,84.06,43.6l0-29.29Zm-.59,55.1L35.77,41.92l0-26.16L58.66,2.51,81.57,15.73l0,26.45Z"/><polygon class="cls-3" points="58.45 6.43 39.23 17.54 49.34 23.35 58.45 18.07 58.45 6.43"/><path class="cls-1" d="M49.34,23.85a.47.47,0,0,1-.25-.07L39,18a.5.5,0,0,1,0-.87L58.2,6a.5.5,0,0,1,.5,0,.47.47,0,0,1,.25.43V18.07a.5.5,0,0,1-.25.44l-9.11,5.27A.45.45,0,0,1,49.34,23.85Zm-9.11-6.32,9.11,5.24,8.61-5V7.29Z"/><polygon class="cls-3" points="39.06 40.07 49.13 34.23 49.13 23.71 39.03 17.89 39.06 40.07"/><path class="cls-1" d="M39.06,40.57a.45.45,0,0,1-.25-.07.48.48,0,0,1-.25-.43l0-22.18a.48.48,0,0,1,.25-.43.5.5,0,0,1,.5,0l10.1,5.81a.51.51,0,0,1,.26.44V34.23a.5.5,0,0,1-.25.43L39.31,40.5A.47.47,0,0,1,39.06,40.57Zm.47-21.81,0,20.44,9.08-5.26V24Z"/><polygon class="cls-3" points="68.4 34.35 68.4 23.34 68.2 23.46 67.99 23.34 67.99 34.12 58.87 28.84 58.87 18.07 58.45 18.07 58.45 28.84 49.13 34.23 49.34 34.59 58.66 29.19 67.98 34.59 68.4 34.35"/><path class="cls-1" d="M68,35.09a.57.57,0,0,1-.25-.06l-9.07-5.26L49.59,35a.46.46,0,0,1-.38,0,.47.47,0,0,1-.3-.23l-.21-.36a.5.5,0,0,1,.18-.68L58,28.55V18.07a.51.51,0,0,1,.5-.5h.42a.51.51,0,0,1,.5.5V28.55l8.12,4.7V23.34a.48.48,0,0,1,.25-.43.53.53,0,0,1,.46,0,.51.51,0,0,1,.45,0,.48.48,0,0,1,.25.43v11a.48.48,0,0,1-.25.43l-.42.25A.51.51,0,0,1,68,35.09Z"/><polygon class="cls-3" points="58.87 6.43 58.87 18.07 68.19 23.46 78.28 17.63 58.87 6.43"/><path class="cls-1" d="M68.2,24a.43.43,0,0,1-.25-.07l-9.33-5.38a.5.5,0,0,1-.25-.44V6.43A.5.5,0,0,1,59.12,6L78.53,17.2a.5.5,0,0,1,0,.87L68.45,23.89A.47.47,0,0,1,68.2,24Zm-8.83-6.17,8.83,5.09,9.08-5.25L59.37,7.29Z"/><polygon class="cls-3" points="58.89 39.85 58.89 51.5 78.3 40.28 78.3 28.63 58.89 39.85"/><path class="cls-1" d="M58.89,52a.43.43,0,0,1-.25-.07.48.48,0,0,1-.25-.43V39.85a.5.5,0,0,1,.25-.44L78.05,28.2a.5.5,0,0,1,.5,0,.48.48,0,0,1,.25.43V40.28a.5.5,0,0,1-.25.44L59.14,51.93A.47.47,0,0,1,58.89,52Zm.5-11.86V50.63L77.8,40V29.5Z"/><polygon class="cls-3" points="49.34 34.59 39.26 40.43 58.47 51.48 58.47 39.84 49.34 34.59"/><path class="cls-1" d="M58.47,52a.47.47,0,0,1-.25-.07L39,40.86a.5.5,0,0,1-.25-.43A.52.52,0,0,1,39,40l10.08-5.83a.5.5,0,0,1,.5,0l9.13,5.25a.5.5,0,0,1,.25.43V51.48a.48.48,0,0,1-.25.43A.45.45,0,0,1,58.47,52ZM40.26,40.43,58,50.62V40.13l-8.63-5Z"/><path class="cls-1" d="M37.81,67.88l3.73.54c-.48.46-1.25,1.21-2.51,2.45l-.19.18.64,3.71-3.11-1.63L36.14,73l-3.33,1.75c.23-1.31.59-3.46.59-3.46l.05-.25-2.7-2.63,3.47-.5.26,0,1.66-3.38,1.56,3.15Z"/><path class="cls-1" d="M52.82,67.88l3.73.54L54,70.87l-.19.18.64,3.71-3.1-1.63L51.16,73l-3.34,1.75c.23-1.31.6-3.46.6-3.46l0-.25-2.7-2.63,3.47-.5.26,0,1.67-3.38,1.55,3.15Z"/><path class="cls-1" d="M67.84,67.88l3.72.54-2.51,2.45-.18.18.63,3.71-3.1-1.63L66.17,73l-3.33,1.75c.22-1.31.59-3.46.59-3.46l0-.25-2.69-2.63,3.47-.5.25,0,1.67-3.38c.29.59.77,1.55,1.55,3.15Z"/><path class="cls-1" d="M82.85,67.88l3.73.54c-.48.46-1.25,1.21-2.51,2.45l-.19.18.64,3.71-3.11-1.63L81.18,73l-3.33,1.75c.23-1.31.59-3.46.59-3.46l0-.25-2.7-2.63,3.47-.5.26,0,1.66-3.38,1.56,3.15Z"/><polygon class="cls-4" points="114.1 85.41 117.33 76.24 103.11 76.24 108.2 82.11 9.12 82.11 14.21 76.24 0 76.24 3.23 85.41 0 94.53 9.12 94.53 9.12 100.39 108.2 100.39 108.2 94.53 117.33 94.53 114.1 85.41"/><polygon class="cls-5" points="103.11 76.24 103.11 82.11 108.2 82.11 103.11 76.24"/><polygon class="cls-5" points="14.21 76.24 14.21 82.11 9.12 82.11 14.21 76.24"/><path class="cls-6" d="M25.14,86.87a5,5,0,0,1,3.18,1.21.27.27,0,0,1,0,.37l-.81.84a.22.22,0,0,1-.33,0,3,3,0,1,0-2,5.24,3.93,3.93,0,0,0,1.54-.33V93.1h-1a.23.23,0,0,1-.24-.23v-1a.24.24,0,0,1,.24-.25h2.5a.24.24,0,0,1,.23.25v3.33a.23.23,0,0,1-.1.2,6.55,6.55,0,0,1-3.23.85,4.68,4.68,0,0,1,0-9.35Z"/><path class="cls-6" d="M31.42,87.25a.26.26,0,0,1,.25-.25h1.24a.25.25,0,0,1,.24.25v5.32a1.9,1.9,0,1,0,3.79,0V87.25a.25.25,0,0,1,.24-.25h1.24a.26.26,0,0,1,.25.25v5.41a3.63,3.63,0,0,1-7.25,0Z"/><path class="cls-6" d="M40.76,95.76l4-8.74a.23.23,0,0,1,.22-.15h.13a.22.22,0,0,1,.22.15l4,8.74a.23.23,0,0,1-.22.34H48a.37.37,0,0,1-.37-.26L47,94.44H43.12l-.63,1.4a.4.4,0,0,1-.38.26H41A.23.23,0,0,1,40.76,95.76ZM46.37,93l-1.3-2.85h0L43.76,93Z"/><path class="cls-6" d="M51.73,87.25A.25.25,0,0,1,52,87h3.71a2.82,2.82,0,0,1,2.84,2.8,2.86,2.86,0,0,1-1.93,2.62l1.79,3.3a.25.25,0,0,1-.23.38H56.8a.22.22,0,0,1-.21-.12l-1.73-3.44H53.42v3.32a.26.26,0,0,1-.25.24H52a.25.25,0,0,1-.25-.24Zm3.82,3.9a1.33,1.33,0,0,0,1.29-1.33,1.29,1.29,0,0,0-1.29-1.26H53.43v2.59Z"/><path class="cls-6" d="M61.56,87.25a.24.24,0,0,1,.23-.25h3.08a4.55,4.55,0,1,1,0,9.1H61.79a.24.24,0,0,1-.23-.24Zm3.16,7.27a3,3,0,0,0,0-6H63.23v6Z"/><path class="cls-6" d="M72.32,87.25a.26.26,0,0,1,.25-.25h1.21a.25.25,0,0,1,.24.25v8.61a.25.25,0,0,1-.24.24H72.57a.26.26,0,0,1-.25-.24Z"/><path class="cls-6" d="M76.38,95.76l4-8.74a.23.23,0,0,1,.22-.15h.13A.22.22,0,0,1,81,87l4,8.74a.24.24,0,0,1-.23.34H83.64a.37.37,0,0,1-.37-.26l-.64-1.4H78.74l-.63,1.4a.4.4,0,0,1-.38.26H76.6A.23.23,0,0,1,76.38,95.76ZM82,93l-1.3-2.85h0L79.38,93Z"/><path class="cls-6" d="M87.35,87.11a.25.25,0,0,1,.25-.24h.32l5.41,5.75h0V87.25a.25.25,0,0,1,.25-.25h1.19a.25.25,0,0,1,.25.25V96a.24.24,0,0,1-.25.23h-.31l-5.43-6h0v5.59a.25.25,0,0,1-.25.24H87.6a.26.26,0,0,1-.25-.24Z"/></g></g></svg>
