<?xml version="1.0" encoding="UTF-8"?><svg xmlns="http://www.w3.org/2000/svg" viewBox="0 0 57 42.75"><defs><style>.cls-1{fill:#616161;}</style></defs><title>Asset 74</title><g id="Layer_2" data-name="Layer 2"><g id="Layer_1-2" data-name="Layer 1"><path class="cls-1" d="M53,0H4A4,4,0,0,0,0,4V38.74a4,4,0,0,0,4,4H53a4,4,0,0,0,4-4V4A4,4,0,0,0,53,0Zm1.34,4V7A5.78,5.78,0,0,1,50,2.67h3A1.34,1.34,0,0,1,54.33,4Zm0,4.77V34a7.55,7.55,0,0,0-6.11,6.11H8.78A7.55,7.55,0,0,0,2.67,34V8.78A7.55,7.55,0,0,0,8.78,2.67H48.22A7.55,7.55,0,0,0,54.33,8.78ZM4,2.67H7A5.78,5.78,0,0,1,2.67,7V4A1.34,1.34,0,0,1,4,2.67ZM2.67,38.74v-3A5.78,5.78,0,0,1,7,40.08H4A1.34,1.34,0,0,1,2.67,38.74ZM53,40.08H50a5.78,5.78,0,0,1,4.29-4.29v3A1.34,1.34,0,0,1,53,40.08Z"/><path class="cls-1" d="M18.78,26.55,22.13,26,23.3,29.1a.46.46,0,0,0,.38.29h0a.43.43,0,0,0,.38-.22l3.55-6,.51.7a.41.41,0,0,0,.68,0l.51-.7,3.55,6a.43.43,0,0,0,.38.22h0a.46.46,0,0,0,.38-.29L34.87,26l3.35.56a.44.44,0,0,0,.46-.66L35,19.71l1.24-.13a.42.42,0,0,0,.35-.59l-.94-2.09a.43.43,0,0,1,.14-.52L37.68,15a.43.43,0,0,0,0-.69L35.82,13a.43.43,0,0,1-.14-.52l.94-2.09a.42.42,0,0,0-.35-.59L34,9.58a.43.43,0,0,1-.38-.38l-.23-2.28a.43.43,0,0,0-.6-.34l-2.09.93a.4.4,0,0,1-.51-.13L28.84,5.52a.42.42,0,0,0-.68,0L26.81,7.38a.4.4,0,0,1-.51.13l-2.09-.93a.43.43,0,0,0-.6.34L23.38,9.2a.43.43,0,0,1-.38.38l-2.27.23a.42.42,0,0,0-.35.59l.94,2.09a.43.43,0,0,1-.14.52l-1.86,1.34a.43.43,0,0,0,0,.69l1.86,1.34a.43.43,0,0,1,.14.52L20.38,19a.42.42,0,0,0,.35.59l1.24.13-3.65,6.18a.44.44,0,0,0,.46.66Zm14.61-4.08.23-2.28a.43.43,0,0,1,.38-.38h.06l3.37,5.7-2.77-.46a.43.43,0,0,0-.49.28l-1,2.59-3.27-5.54.27-.36a.4.4,0,0,1,.51-.14l2.09.93A.43.43,0,0,0,33.39,22.47Zm-6.33-9.74L28.5,9.8l1.44,2.93,3.24.47-2.34,2.28.55,3.22L28.5,17.18,25.61,18.7l.55-3.22L23.82,13.2Zm-4.12,7.08H23a.43.43,0,0,1,.38.38l.23,2.28a.43.43,0,0,0,.6.34l2.09-.93a.4.4,0,0,1,.51.14l.27.36-3.27,5.54-1-2.59a.43.43,0,0,0-.41-.29h-.08l-2.77.46Z"/><rect class="cls-1" x="16.92" y="32.06" width="23.16" height="1.78"/><rect class="cls-1" x="12.91" y="35.63" width="31.17" height="0.89"/></g></g></svg>