<?xml version="1.0" encoding="UTF-8"?><svg xmlns="http://www.w3.org/2000/svg" viewBox="0 0 60 56.25"><defs><style>.cls-1{fill:#616161;}</style></defs><title>Asset 73</title><g id="Layer_2" data-name="Layer 2"><g id="Layer_1-2" data-name="Layer 1"><path class="cls-1" d="M56.72,0H3.28A3.28,3.28,0,0,0,0,3.28V41.72A3.28,3.28,0,0,0,3.28,45H23.44v8.44h-7.5a1.41,1.41,0,1,0,0,2.81H44.06a1.41,1.41,0,1,0,0-2.81h-7.5V45H56.72A3.28,3.28,0,0,0,60,41.72V3.28A3.28,3.28,0,0,0,56.72,0ZM3.28,2.81H56.72a.47.47,0,0,1,.47.47v34H2.81v-34A.47.47,0,0,1,3.28,2.81ZM34.69,53.44H25.31V45h9.38Zm22-11.25H3.28a.47.47,0,0,1-.47-.47V38.2H57.19v3.52A.47.47,0,0,1,56.72,42.19Z"/><path class="cls-1" d="M32.34,40.08H27.66a.47.47,0,1,0,0,.94h4.68a.47.47,0,0,0,0-.94Z"/><polygon class="cls-1" points="29.94 8.03 24.92 10.93 27.56 12.45 29.94 11.07 29.94 8.03"/><polygon class="cls-1" points="24.87 16.82 27.51 15.3 27.51 12.55 24.86 11.03 24.87 16.82"/><polygon class="cls-1" points="32.55 15.33 32.55 12.45 32.49 12.48 32.44 12.45 32.44 15.27 30.05 13.89 30.05 11.07 29.94 11.07 29.94 13.89 27.51 15.3 27.56 15.39 30 13.98 32.44 15.39 32.55 15.33"/><polygon class="cls-1" points="30.05 8.03 30.05 11.07 32.49 12.48 35.13 10.96 30.05 8.03"/><polygon class="cls-1" points="30.06 16.77 30.06 19.82 35.14 16.88 35.14 13.83 30.06 16.77"/><polygon class="cls-1" points="27.56 15.39 24.93 16.92 29.95 19.81 29.95 16.77 27.56 15.39"/><path class="cls-1" d="M19.53,22v.65a5.27,5.27,0,0,0-.83-.09c-.52,0-.69.16-.69.65v1.5c0,.49.18.65.69.65a4.27,4.27,0,0,0,.83-.11v.67a5,5,0,0,1-.91.11c-1,0-1.35-.42-1.35-1.27V23.19c0-.86.36-1.27,1.35-1.27A7.16,7.16,0,0,1,19.53,22Z"/><path class="cls-1" d="M21.8,24.6V26h-.73V24.6L19.92,22h.82l.7,1.91.7-1.91H23Z"/><path class="cls-1" d="M25.94,22.91V23a.89.89,0,0,1-.59.88.88.88,0,0,1,.75.9v.13c0,.65-.43,1.12-1.48,1.12-.35,0-.61,0-1.16,0V22l1.12,0C25.49,21.92,25.94,22.34,25.94,22.91Zm-1.76-.35v1.09h.45c.39,0,.58-.2.58-.53V23c0-.31-.19-.48-.68-.48Zm0,1.7v1.13l.45,0c.53,0,.74-.21.74-.54v-.11c0-.32-.21-.5-.71-.5Z"/><path class="cls-1" d="M28.92,22.66H27.43v1H28.8v.67H27.43v1h1.49V26H26.7V22h2.22Z"/><path class="cls-1" d="M32.22,23v.14a1.06,1.06,0,0,1-.67,1l1,1.8h-.8l-.87-1.61h-.47V26h-.73V22l1.12,0C31.79,21.92,32.22,22.36,32.22,23Zm-1.83-.47v1.16l.39,0c.5,0,.71-.22.71-.58v-.1c0-.35-.21-.52-.71-.52Z"/><path class="cls-1" d="M36,26h-.78L35,25.14H33.69l-.22.84h-.75l1.19-4h.86Zm-2.12-1.46h1l-.48-1.92Z"/><path class="cls-1" d="M39,23v.14a1.06,1.06,0,0,1-.68,1l1,1.8h-.81l-.86-1.61h-.47V26h-.73V22l1.11,0C38.56,21.92,39,22.36,39,23Zm-1.84-.47v1.16l.4,0c.5,0,.71-.22.71-.58v-.1c0-.35-.21-.52-.72-.52Z"/><path class="cls-1" d="M41.12,23.94l1.58,2h-.89L40.5,24.22V26h-.73V22h.73v1.8L41.79,22h.78Z"/><path class="cls-1" d="M8.34,29.08v.14c0,.77-.46,1.24-1.38,1.24a3,3,0,0,1-.46-.05V32H5.77V28c.3,0,.7,0,1.11,0C7.88,27.91,8.34,28.37,8.34,29.08Zm-1.85-.52v1.21a2.61,2.61,0,0,0,.41,0c.48,0,.71-.21.71-.62V29.1c0-.35-.21-.55-.73-.55Z"/><path class="cls-1" d="M11.57,32h-.78l-.21-.84H9.31L9.09,32H8.34l1.18-4h.87ZM9.45,30.52h1L9.94,28.6Z"/><path class="cls-1" d="M14.61,29v.14a1.06,1.06,0,0,1-.68,1l1,1.8h-.81l-.86-1.61h-.47V32h-.73V28l1.11,0C14.18,27.92,14.61,28.36,14.61,29Zm-1.84-.47v1.16l.4,0c.5,0,.71-.22.71-.58v-.1c0-.35-.21-.52-.72-.52Z"/><path class="cls-1" d="M18,28.66H16.89V32h-.73V28.66H15.07V28H18Z"/><path class="cls-1" d="M19.28,29.16V32h-.7V28h1l1,2.82V28h.7v4h-1Z"/><path class="cls-1" d="M24.32,28.66H22.83v1H24.2v.67H22.83v1h1.49V32H22.1V28h2.22Z"/><path class="cls-1" d="M27.62,29v.14a1.06,1.06,0,0,1-.67,1l1,1.8h-.8l-.87-1.61h-.47V32h-.73V28l1.12,0C27.2,27.92,27.62,28.36,27.62,29Zm-1.83-.47v1.16l.39,0c.5,0,.71-.22.71-.58v-.1c0-.35-.21-.52-.71-.52Z"/><path class="cls-1" d="M30.27,29.16V32h-.7V28h1l1,2.82V28h.7v4h-1Z"/><path class="cls-1" d="M35.31,28.66H33.82v1h1.37v.67H33.82v1h1.49V32H33.09V28h2.22Z"/><path class="cls-1" d="M38.76,28.66h-1.1V32h-.72V28.66h-1.1V28h2.92Z"/><path class="cls-1" d="M43.16,32h-.9l-.67-3.2L40.91,32H40l-.87-4h.77l.58,3.24L41.15,28H42l.67,3.23L43.25,28H44Z"/><path class="cls-1" d="M47.19,29.26v1.45a1.38,1.38,0,0,1-2.75,0V29.26a1.38,1.38,0,0,1,2.75,0Zm-2-.05v1.55a.65.65,0,0,0,1.29,0V29.22a.57.57,0,0,0-.65-.64A.56.56,0,0,0,45.17,29.21Z"/><path class="cls-1" d="M50.52,29v.14a1.06,1.06,0,0,1-.68,1l1,1.8H50l-.87-1.61h-.47V32H48V28l1.12,0C50.09,27.92,50.52,28.36,50.52,29Zm-1.83-.47v1.16l.39,0c.5,0,.71-.22.71-.58v-.1c0-.35-.21-.52-.71-.52Z"/><path class="cls-1" d="M52.65,29.94l1.58,2h-.89L52,30.22V32H51.3V28H52v1.8L53.32,28h.78Z"/></g></g></svg>