<?xml version="1.0" encoding="UTF-8"?><svg xmlns="http://www.w3.org/2000/svg" viewBox="0 0 62.3 62.3"><defs><style>.cls-1{fill:#58595b;}</style></defs><title>Asset 75</title><g id="Layer_2" data-name="Layer 2"><g id="Layer_1-2" data-name="Layer 1"><path class="cls-1" d="M49.28,17.18A26.1,26.1,0,1,1,45.11,13l2.1-2.09a29,29,0,1,0,4.16,4.16Z"/><path class="cls-1" d="M62,6.57,58.33,5.35l.74-.73a1,1,0,1,0-1.39-1.39L56.94,4,55.73.34a.5.5,0,0,0-.4-.34.48.48,0,0,0-.47.22L49.63,8.07a.43.43,0,0,0-.08.31l.24,2.74L28.25,32.66a1,1,0,0,0,.69,1.68,1,1,0,0,0,.7-.29L51.18,12.5l2.73.25H54a.43.43,0,0,0,.27-.08l7.85-5.23A.47.47,0,0,0,62.29,7,.46.46,0,0,0,62,6.57ZM50.54,8.47,55.12,1.6l1.05,3.14L50.7,10.21Zm3.29,3.29-1.75-.16,5.47-5.47,3.15,1Z"/><path class="cls-1" d="M40.22,17.92a19.15,19.15,0,1,0,4.16,4.16L43,23.48a17.22,17.22,0,1,1-4.17-4.16Z"/><path class="cls-1" d="M32.74,25.4a8.66,8.66,0,0,0-3.8-.87,8.86,8.86,0,1,0,8,5L31,35.44a2.93,2.93,0,0,1-2.08.86,3,3,0,0,1-2.08-.86A2.92,2.92,0,0,1,26,33.36a2.89,2.89,0,0,1,.86-2.08Z"/></g></g></svg>