<?xml version="1.0" encoding="UTF-8"?><svg xmlns="http://www.w3.org/2000/svg" viewBox="0 0 54.82 64.97"><defs><style>.cls-1{fill:#58595b;}</style></defs><title>Asset 73</title><g id="Layer_2" data-name="Layer 2"><g id="Layer_1-2" data-name="Layer 1"><path class="cls-1" d="M45,49.87c2.21-2.7,12.48-18.3,9.17-31.17,0,0,0,0,0-.06C52,7.83,42.14,0,30.7,0,14.48,0,5.78,14,5.61,21.64a13.44,13.44,0,0,0,.16,3c.13,1.08.31,2.56,0,3.06a33.69,33.69,0,0,1-2.68,3.42A13.4,13.4,0,0,0,.14,35.52a3.4,3.4,0,0,0,.52,3A3.21,3.21,0,0,0,3.38,39.7l.55,0H4a3.76,3.76,0,0,0,.17,3.5A2.25,2.25,0,0,0,4,43.9a3.9,3.9,0,0,0,1.33,3.16h0c-.23,1.48-.76,4.93,2,6.24,2.37,1.13,4.93,1,7.18.91a21.17,21.17,0,0,1,2.86,0c-.13,1.44,0,8.48,0,9.28a1.52,1.52,0,0,0,3-.06c-.06-3-.12-8.06,0-9a3,3,0,0,0-2.63-3.29,24.24,24.24,0,0,0-3.41,0c-2,.1-4.05.19-5.73-.61-.69-.33-.39-2.29-.27-3a3.7,3.7,0,0,0,.06-1.3A2.37,2.37,0,0,0,7.62,45a1.36,1.36,0,0,1-.53-.73,1.89,1.89,0,0,0,.32-1.45,2.79,2.79,0,0,0-.67-1.36,2.56,2.56,0,0,1,0-.36l.13-.19A3.17,3.17,0,0,0,7.48,39a2.22,2.22,0,0,0-.72-1.67,4,4,0,0,0-3-.65l-.43,0h0c-.12,0-.18,0-.18,0a.68.68,0,0,1,0-.32,13.08,13.08,0,0,1,2.32-3.23A36.92,36.92,0,0,0,8.3,29.38C9.24,28,9,26,8.79,24.27a10.5,10.5,0,0,1-.14-2.34c0-.06,0-.11,0-.17,0-2.93,1.83-7.71,5.75-11.78A22.15,22.15,0,0,1,30.7,3.05c10,0,18.66,6.86,20.49,16.32a.9.9,0,0,0,.06.22C54.18,31.4,44,46.44,42.57,48c-.58.58-1.46,1.45,1.58,15.74A1.52,1.52,0,0,0,45.63,65a1.66,1.66,0,0,0,.32,0,1.52,1.52,0,0,0,1.17-1.81C46,57.8,44.9,51.42,45,49.87Z"/><path class="cls-1" d="M44.22,34.92a2,2,0,0,0,.32-1.64,2,2,0,0,0-1-1.32,1.73,1.73,0,0,1-.77-2.14,1.71,1.71,0,0,1,1.59-1.08,1.54,1.54,0,0,1,.43.06,2.22,2.22,0,0,0,.51.06,2,2,0,0,0,1.13-.35,2,2,0,0,0,.88-1.42,17,17,0,0,0-.09-5,2,2,0,0,0-2-1.7,2.32,2.32,0,0,0-.58.08,1.55,1.55,0,0,1-.48.07,1.71,1.71,0,0,1-.87-3.18,2,2,0,0,0,.58-3,17,17,0,0,0-3.63-3.5,2,2,0,0,0-1.18-.38,1.74,1.74,0,0,0-.45.06,2,2,0,0,0-1.33,1,1.72,1.72,0,0,1-1.51.89,1.67,1.67,0,0,1-.62-.12,1.71,1.71,0,0,1-1-2,2.06,2.06,0,0,0-.28-1.64,2,2,0,0,0-1.42-.88,16.74,16.74,0,0,0-2.24-.15,16.46,16.46,0,0,0-2.8.24,2,2,0,0,0-1.61,2.58,1.72,1.72,0,0,1-1,2.05,1.63,1.63,0,0,1-.68.14,1.72,1.72,0,0,1-1.48-.84,2,2,0,0,0-1.36-1,1.72,1.72,0,0,0-.39,0,2,2,0,0,0-1.24.42,17.17,17.17,0,0,0-3.49,3.63,2,2,0,0,0-.33,1.63,2,2,0,0,0,1,1.33A1.71,1.71,0,0,1,16,21,1.47,1.47,0,0,1,15.6,21a2.22,2.22,0,0,0-.51-.06,2,2,0,0,0-1.14.34,2.08,2.08,0,0,0-.88,1.42,17,17,0,0,0,.09,5,2,2,0,0,0,.93,1.39,2,2,0,0,0,1.07.31,1.9,1.9,0,0,0,.58-.09,2,2,0,0,1,.48-.07,1.71,1.71,0,0,1,.87,3.19,2,2,0,0,0-1,1.36,2.07,2.07,0,0,0,.38,1.63,17.17,17.17,0,0,0,3.63,3.49,2,2,0,0,0,1.18.38,2.3,2.3,0,0,0,.45-.05,2,2,0,0,0,1.33-1,1.72,1.72,0,0,1,1.51-.89,1.88,1.88,0,0,1,.62.11,1.71,1.71,0,0,1,1,2A2,2,0,0,0,28,42a18.42,18.42,0,0,0,2.23.14A17.44,17.44,0,0,0,33,41.9a2,2,0,0,0,1.62-2.58,1.71,1.71,0,0,1,1-2.06,1.8,1.8,0,0,1,.68-.14,1.72,1.72,0,0,1,1.48.84,2,2,0,0,0,1.36,1,2.58,2.58,0,0,0,.39,0,2,2,0,0,0,1.24-.43A17.41,17.41,0,0,0,44.22,34.92Zm-4.74,2a3.74,3.74,0,0,0-3.23-1.85,3.79,3.79,0,0,0-1.49.31,3.75,3.75,0,0,0-2.09,4.5,15.82,15.82,0,0,1-2.47.2,14.38,14.38,0,0,1-2-.13,3.74,3.74,0,0,0-6.91-2.72,15.06,15.06,0,0,1-3.2-3.08,3.74,3.74,0,0,0-1.9-7,3.54,3.54,0,0,0-1.06.16,15.39,15.39,0,0,1-.07-4.44,3.78,3.78,0,0,0,4.41-2.26A3.73,3.73,0,0,0,17.81,16a15.06,15.06,0,0,1,3.08-3.2,3.74,3.74,0,0,0,6.81-3,14.8,14.8,0,0,1,2.47-.21,16,16,0,0,1,2,.13,3.76,3.76,0,0,0,2.25,4.42,3.74,3.74,0,0,0,4.66-1.7,15.1,15.1,0,0,1,3.2,3.09,3.74,3.74,0,0,0,1.9,7,3.88,3.88,0,0,0,1.06-.15,15,15,0,0,1,.08,4.44,3.79,3.79,0,0,0-.94-.12,3.74,3.74,0,0,0-1.78,7A15.1,15.1,0,0,1,39.48,36.94Z"/><path class="cls-1" d="M30.19,18.27a6.6,6.6,0,1,0,6.6,6.6A6.61,6.61,0,0,0,30.19,18.27Zm0,11.17a4.57,4.57,0,1,1,4.57-4.57A4.58,4.58,0,0,1,30.19,29.44Z"/><path class="cls-1" d="M30.19,15.23a9.65,9.65,0,1,0,9.64,9.64A9.65,9.65,0,0,0,30.19,15.23Zm0,18.27a8.63,8.63,0,1,1,8.63-8.63A8.64,8.64,0,0,1,30.19,33.5Z"/></g></g></svg>