<?xml version="1.0" encoding="UTF-8"?><svg xmlns="http://www.w3.org/2000/svg" viewBox="0 0 60.54 63.7"><defs><style>.cls-1{fill:#58595b;}</style></defs><title>Asset 76</title><g id="Layer_2" data-name="Layer 2"><g id="Layer_1-2" data-name="Layer 1"><path class="cls-1" d="M38.32,20.41H19.41a.5.5,0,1,0,0,1H38.32a.5.5,0,1,0,0-1Z"/><path class="cls-1" d="M38.82,30.86a.5.5,0,0,0-.5-.5H19.41a.5.5,0,1,0,0,1H38.32A.49.49,0,0,0,38.82,30.86Z"/><path class="cls-1" d="M58.8,20.74l-2.59-1.49a3.42,3.42,0,0,0-1.74-.47h0a3.49,3.49,0,0,0-3,1.74L37.27,45.09a2.06,2.06,0,0,0-.27,1l.1,5.8a2,2,0,0,0,2,2,2,2,0,0,0,1-.25l5.07-2.82a1.93,1.93,0,0,0,.76-.74L60.08,25.5A3.49,3.49,0,0,0,58.8,20.74Zm-2.94,8.08h0l-5.17-3,1-1.72,5.17,3Zm-5.67-2.13.87.5-11,19-.87-.49ZM43.66,49.35l-2.54,1.41-2.07-1.19,0-2.9ZM41,46.65l11-19,1.72,1-11,19Zm3.45,2h0l-.87-.5,11-19,.87.5ZM58.35,24.51l-1,1.72h0l-5.18-3,1-1.72a1.5,1.5,0,0,1,1.29-.75,1.56,1.56,0,0,1,.75.2l2.59,1.5A1.5,1.5,0,0,1,58.35,24.51Z"/><path class="cls-1" d="M16.47,18.75a1,1,0,0,0-1.41,0l-4.74,4.74L9,22.19a1,1,0,0,0-1.4,0,1,1,0,0,0,0,1.41l2,2a1,1,0,0,0,1.4,0l5.45-5.44A1,1,0,0,0,16.47,18.75Z"/><path class="cls-1" d="M16.47,28.7a1,1,0,0,0-1.41,0l-4.74,4.74L9,32.14a1,1,0,0,0-1.4,1.41l2,2a1,1,0,0,0,1.4,0l5.45-5.44A1,1,0,0,0,16.47,28.7Z"/><path class="cls-1" d="M16.47,38.66a1,1,0,0,0-1.41,0L10.32,43.4,9,42.1a1,1,0,0,0-1.4,0,1,1,0,0,0,0,1.41l2,2a1,1,0,0,0,1.4,0l5.45-5.45A1,1,0,0,0,16.47,38.66Z"/><path class="cls-1" d="M19.41,24.39h9a.51.51,0,0,0,.5-.5.5.5,0,0,0-.5-.5h-9a.5.5,0,0,0-.5.5A.51.51,0,0,0,19.41,24.39Z"/><path class="cls-1" d="M19.41,34.34h9a.5.5,0,1,0,0-1h-9a.5.5,0,1,0,0,1Z"/><path class="cls-1" d="M19.41,44.29h9a.5.5,0,1,0,0-1h-9a.5.5,0,1,0,0,1Z"/><path class="cls-1" d="M19.41,53.25a.51.51,0,0,0-.5.5.5.5,0,0,0,.5.5h9a.5.5,0,0,0,.5-.5.51.51,0,0,0-.5-.5Z"/><path class="cls-1" d="M15.06,48.61l-4.74,4.74L9,52.05a1,1,0,0,0-1.4,0,1,1,0,0,0,0,1.41l2,2a1,1,0,0,0,1.4,0L16.47,50a1,1,0,1,0-1.41-1.41Z"/><path class="cls-1" d="M46.1,52.55l-.31.18v8H3V3H33.08V14.7a1,1,0,0,0,1,1H45.79V26.36l3-5.17V14.7a1.49,1.49,0,0,0-.43-1.06L35.13.44A1.49,1.49,0,0,0,34.08,0H1.49A1.49,1.49,0,0,0,0,1.49V62.21A1.49,1.49,0,0,0,1.49,63.7H47.28a1.48,1.48,0,0,0,1.49-1.49V49.06l-1.15,2A4,4,0,0,1,46.1,52.55ZM35.07,4.6l9.1,9.1h-9.1Z"/><path class="cls-1" d="M37.73,40.31H19.41a.51.51,0,0,0-.5.5.5.5,0,0,0,.5.5H37.16Z"/><path class="cls-1" d="M35.08,50.27H19.41a.5.5,0,1,0,0,1H35.1Z"/></g></g></svg>