<?xml version="1.0" encoding="UTF-8"?><svg xmlns="http://www.w3.org/2000/svg" viewBox="0 0 73.6 69"><defs><style>.cls-1{fill:#616161;}</style></defs><title>Asset 29</title><g id="Layer_2" data-name="Layer 2"><g id="Layer_1-2" data-name="Layer 1"><path class="cls-1" d="M69.58,0H4A4,4,0,0,0,0,4V51.18a4,4,0,0,0,4,4H29.68l-1.3,10.35H19.55a1.73,1.73,0,1,0,0,3.45h34.5a1.73,1.73,0,0,0,0-3.45H45.22L43.92,55.2H69.58a4,4,0,0,0,4-4V4A4,4,0,0,0,69.58,0ZM4,3.45H69.58a.58.58,0,0,1,.57.58V46.57H3.45V4A.58.58,0,0,1,4,3.45ZM42.9,65.55H30.7L32,55.2h9.62Zm26.68-13.8H4a.58.58,0,0,1-.57-.57V47.73h66.7v3.45A.58.58,0,0,1,69.58,51.75Z"/><path class="cls-1" d="M39.67,49.45H33.92a.58.58,0,0,0,0,1.15h5.75a.58.58,0,1,0,0-1.15Z"/><polygon class="cls-1" points="33.06 38.49 44.9 22.25 38.16 22.25 44.9 11.54 33.46 11.54 28.7 25.63 36.18 25.63 33.06 38.49"/><path class="cls-1" d="M20.72,31.71a1.36,1.36,0,0,1-.83-.28l-7.09-5.3A1.41,1.41,0,0,1,12.25,25a1.37,1.37,0,0,1,.55-1.11l7.09-5.3a1.4,1.4,0,0,1,1.95.27,1.38,1.38,0,0,1-.28,1.95L16,25l5.59,4.19a1.39,1.39,0,0,1-.84,2.51Z"/><path class="cls-1" d="M52.87,31.71a1.37,1.37,0,0,1-1.11-.56A1.39,1.39,0,0,1,52,29.2L57.64,25,52,20.82a1.39,1.39,0,0,1,1.68-2.22l7.09,5.3A1.37,1.37,0,0,1,61.35,25a1.41,1.41,0,0,1-.55,1.12l-7.09,5.3A1.39,1.39,0,0,1,52.87,31.71Z"/></g></g></svg>