<svg xmlns="http://www.w3.org/2000/svg" viewBox="0 0 70 70"><defs><style>.cls-1{fill:#616161;}</style></defs><title>Asset 25</title><g id="Layer_2" data-name="Layer 2"><g id="Layer_3" data-name="Layer 3"><path class="cls-1" d="M64.53,53.67V41.56H61.25V53.05H8.75V21.33a1.64,1.64,0,0,1,1.64-1.64H32.05l.22,1.09h3.85a6,6,0,0,1,2.54-4.37H10.39a4.92,4.92,0,0,0-4.92,4.92V53.67L.25,62a1.66,1.66,0,0,0-.25.87V64a6,6,0,0,0,6,6H64a6,6,0,0,0,6-6V62.89a1.66,1.66,0,0,0-.25-.87ZM8.36,55.23H61.64l4.44,7.11H43.66l-.46-2.73H26.8l-.46,2.73H3.92ZM66.72,64A2.74,2.74,0,0,1,64,66.72H6A2.74,2.74,0,0,1,3.28,64v-.54H66.72Z"/><path class="cls-1" d="M66.17,17.5H65.08V12c0-6.63-4.91-12-10.94-12S43.2,5.4,43.2,12V17.5H42.11a3.84,3.84,0,0,0-3.83,3.83V35.55a3.84,3.84,0,0,0,3.83,3.83H66.17A3.84,3.84,0,0,0,70,35.55V21.33A3.84,3.84,0,0,0,66.17,17.5ZM46.48,12c0-4.82,3.44-8.75,7.66-8.75S61.8,7.21,61.8,12V17.5H46.48ZM66.72,35.55a.55.55,0,0,1-.55.54H42.11a.55.55,0,0,1-.55-.54V21.33a.55.55,0,0,1,.55-.55H66.17a.55.55,0,0,1,.55.55Z"/><path class="cls-1" d="M54.14,23.52a3.28,3.28,0,0,0-1.09,6.37v2.92a1.09,1.09,0,1,0,2.18,0V29.89a3.28,3.28,0,0,0-1.09-6.37Z"/><polygon class="cls-1" points="36.09 23.52 36.09 22.42 11.48 22.42 11.48 50.86 58.52 50.86 58.52 41.56 57.42 41.56 57.42 49.77 12.58 49.77 12.58 23.52 36.09 23.52"/></g></g></svg>