<svg xmlns="http://www.w3.org/2000/svg" viewBox="0 0 86.82 82.93"><defs><style>.cls-1{fill:#666;}.cls-2{fill:#ccc;}</style></defs><title>Percentile Decrease</title><g id="Layer_2" data-name="Layer 2"><g id="Layer_1-2" data-name="Layer 1"><path class="cls-1" d="M73.93,4.07a2,2,0,0,1,2,2V45.44H66.5L68,48.16h8.46L82,57H72.83l.75,1.36h9.17V59a3.39,3.39,0,0,1-3.39,3.39H75.81L78,66.47h1.32A7.47,7.47,0,0,0,86.82,59V57.65a2.08,2.08,0,0,0-.31-1.08L80,46.22V6.1A6.11,6.11,0,0,0,73.93,0h-61A6.11,6.11,0,0,0,6.78,6.1V46.22L.31,56.57A2.08,2.08,0,0,0,0,57.65V59a7.47,7.47,0,0,0,7.46,7.46H68.74L66.51,62.4h-59A3.39,3.39,0,0,1,4.07,59v-.68h60.2L63.53,57H54.15l-.57-3.39H33.23L32.67,57H4.86l5.51-8.81H58.69L57.2,45.44H10.85V6.1a2,2,0,0,1,2-2H39.75L40,5.43H46.8l.27-1.36Z"/><polyline class="cls-1" points="26.92 14.13 33.39 26.66 47.28 15.98 78.61 72.01 83.36 69.41 83.06 82.93 71.5 75.91 76.24 73.31 46.42 20.06 32.47 30.79 23.87 14.13"/><path class="cls-1" d="M20.07,36.75V11.64a.68.68,0,1,0-1.35,0V37.43a.67.67,0,0,0,.68.67H67.33a.68.68,0,0,0,0-1.35"/><polygon class="cls-2" points="54.96 41.27 55.71 42.62 14.19 42.62 14.19 7.35 72.52 7.35 72.52 42.62 64.99 42.62 64.25 41.27 71.17 41.27 71.17 8.71 15.55 8.71 15.55 41.27 54.96 41.27"/><circle class="cls-1" cx="25.35" cy="14.13" r="2.69"/></g></g></svg>
