<svg xmlns="http://www.w3.org/2000/svg" viewBox="0 0 42 41.99"><defs><style>.cls-1{fill:#58595b;}</style></defs><title>Telecom</title><g id="Layer_2" data-name="Layer 2"><g id="Layer_1-2" data-name="Layer 1"><g id="path17-6"><path class="cls-1" d="M32.92,42h-.06l-.28,0-.38-.09a10.26,10.26,0,0,1-1.83-.54c-14.06-6-24-16-29.58-29.54A8.54,8.54,0,0,1,.67,4.89,9,9,0,0,1,6.28.28a4.77,4.77,0,0,1,3.25,0c2.39.87,7.83,8.24,8,10.79.13,2.36-1.64,3.55-2.59,4.19-1.36.92-1.58,2-.79,3.73a17.29,17.29,0,0,0,9.2,8.88c1.63.74,2.33.12,2.81-.58a5.64,5.64,0,0,1,3.59-2.69A6.39,6.39,0,0,1,34.6,26l.69.48c1.07.74,2.18,1.51,3.23,2.35l.6.46c1.56,1.19,3.71,2.81,2.55,6.07S36.7,42,32.92,42ZM7.91,2.23A2.86,2.86,0,0,0,7,2.4,6.79,6.79,0,0,0,2.71,5.82a6.35,6.35,0,0,0,.15,5.11C8.2,24,17.75,33.49,31.25,39.27a9.78,9.78,0,0,0,1.43.41l.33.07c2.47,0,5.62-2.5,6.55-5.11.59-1.63-.17-2.3-1.8-3.53l-.64-.5h0c-1-.79-2.06-1.54-3.1-2.26l-.7-.48a4.39,4.39,0,0,0-3.18-1.06A3.5,3.5,0,0,0,28,28.53C26.7,30.47,24.71,31,22.4,29.92a19.7,19.7,0,0,1-10.32-10c-1.24-2.76-.71-4.95,1.58-6.49,1.1-.74,1.66-1.29,1.6-2.21C15.17,9.55,10.31,3,8.76,2.39A2.51,2.51,0,0,0,7.91,2.23Z"/></g></g></g></svg>
