<svg xmlns="http://www.w3.org/2000/svg" viewBox="0 0 71.69 67.93"><defs><style>.cls-1{fill:#666;}</style></defs><title>XaaS-platforms</title><g id="Layer_2" data-name="Layer 2"><g id="Layer_1-2" data-name="Layer 1"><path class="cls-1" d="M59.61,62.46,56,56.74V34.59a3.37,3.37,0,0,0-3.37-3.37H19a3.37,3.37,0,0,0-3.37,3.37V56.74L12,62.46a1.08,1.08,0,0,0-.18.6v.75A4.13,4.13,0,0,0,16,67.93H55.66a4.13,4.13,0,0,0,4.12-4.12v-.75A1.16,1.16,0,0,0,59.61,62.46ZM17.83,34.59A1.12,1.12,0,0,1,19,33.47H33.78l.15.75h3.75l.15-.75H52.66a1.13,1.13,0,0,1,1.13,1.12V56.32h-36Zm-.27,23.23H54.05l3.05,4.87H41.74l-.32-1.88H30.19l-.31,1.88H14.52Zm40,6a1.87,1.87,0,0,1-1.87,1.87H16a1.87,1.87,0,0,1-1.87-1.87v-.38H57.53Z"/><path class="cls-1" d="M19.7,54.82H51.91V35.34H19.7Zm.75-18.73H51.16v18H20.45Z"/><rect class="cls-1" x="20.26" y="40.16" width="31.27" height="0.9"/><circle class="cls-1" cx="48.78" cy="38.3" r="0.83"/><circle class="cls-1" cx="46.47" cy="38.3" r="0.83"/><circle class="cls-1" cx="44.16" cy="38.3" r="0.83"/><path class="cls-1" d="M42,46.75l2.4,4.15.45-1.71,1.38,1a.3.3,0,0,0,.15.05.26.26,0,0,0,.2-.1.24.24,0,0,0-.05-.35l-1.36-1,1.53-.89Z"/><path class="cls-1" d="M71.69,32.26A14.93,14.93,0,0,0,57.86,17.53a13.9,13.9,0,0,0,.39-3.29A14.42,14.42,0,0,0,43.69,0,14.64,14.64,0,0,0,31,7.29,15.25,15.25,0,0,0,14.12,17.51,15,15,0,0,0,0,32.26,14.89,14.89,0,0,0,12,46.72V43.27a11.5,11.5,0,0,1-8.68-11A11.61,11.61,0,0,1,15,20.84a12.19,12.19,0,0,1,4.7,1,1.12,1.12,0,0,0,.87-2.07,14.61,14.61,0,0,0-3.28-.94,11.75,11.75,0,0,1,11.31-8.33h.29a12.45,12.45,0,0,1,7.95,2.95,1.11,1.11,0,0,0,.72.27,1.15,1.15,0,0,0,.86-.4,1.12,1.12,0,0,0-.13-1.58,15,15,0,0,0-4.44-2.59,11.25,11.25,0,0,1,9.88-5.75,11.06,11.06,0,0,1,11.2,10.88,10.54,10.54,0,0,1-.9,4.28,2.47,2.47,0,0,0-.11.36,14.17,14.17,0,0,0-4.47,1.73A1.12,1.12,0,0,0,50,22.69a1.16,1.16,0,0,0,.57-.15,12.08,12.08,0,0,1,5.38-1.68l.64,0A11.56,11.56,0,0,1,68.33,32.21,11.56,11.56,0,0,1,59.5,43.3v3.45A14.89,14.89,0,0,0,71.69,32.26Z"/></g></g></svg>