<svg xmlns="http://www.w3.org/2000/svg" viewBox="0 0 136.06 121.89"><defs><style>.cls-1{fill:none;}.cls-2{fill:#010101;}</style></defs><path class="cls-1" d="M66.22,93.2c10.35,1.43,23.13-1.87,28.15-3.36l-12-11.23A1.35,1.35,0,0,1,82.1,77c4.32-8.3,8.85-18.35,9.72-29.94a30.63,30.63,0,0,0-7.76-23.14c-4.52-4.87-10.4-7.66-16.15-7.66a24.38,24.38,0,0,0-17.7,7.48C45,29.31,42.46,37.38,43,47.08c.69,12.22,5.82,21.85,11,30.67a1.35,1.35,0,0,1-.28,1.7l-4.4,3.83C50.85,85.6,55.75,91.75,66.22,93.2Zm-20-43.64a32.31,32.31,0,0,1,.41-5.15h0v0c.07-.41.13-.81.22-1.21l.16,0c2.22-4.84,13.63-14.9,21-14.9,8.26,0,19.83,11.28,20.44,15.68h0A32.21,32.21,0,0,1,89,49.56c0,14.81-12.42,29.85-21.35,29.85S46.26,64.36,46.26,49.56Z"/><path class="cls-2" d="M67.61,79.41c8.93,0,21.35-15,21.35-29.85A32.21,32.21,0,0,0,88.48,44h0C87.86,39.59,76.29,28.31,68,28.31c-7.36,0-18.76,10.06-21,14.9l-.16,0c-.08.4-.15.81-.22,1.21v0h0a32.31,32.31,0,0,0-.41,5.15C46.26,64.36,58.68,79.41,67.61,79.41ZM68,31c6.83,0,17,10.17,17.74,13.18a1.71,1.71,0,0,1,0,.18s0,.06,0,.08h0a29.47,29.47,0,0,1,.44,5.1c0,13.73-11.8,27.15-18.65,27.15S49,63.29,49,49.56a29.53,29.53,0,0,1,.42-4.95A3.8,3.8,0,0,1,50,43.48C52.4,39.85,61.76,31,68,31Z"/><rect class="cls-2" x="33.45" y="105.19" width="69.15" height="2.7"/><rect class="cls-2" x="74.26" y="49.56" width="2.7" height="5"/><path class="cls-2" d="M75.69,42.21a9,9,0,0,0-4.74.83l.48.87.82,1.49a6.79,6.79,0,0,1,3.28-.49,6,6,0,0,1,3.23,1l1.53-1.86.18-.22A8.51,8.51,0,0,0,75.69,42.21Z"/><path class="cls-2" d="M59.53,42.21a9.59,9.59,0,0,0-4.38,1.38c-.21.13-.34.22-.36.24L56.42,46a6.66,6.66,0,0,1,3.27-1.07,7.18,7.18,0,0,1,3.31.51l.85-1.66.38-.75A9.59,9.59,0,0,0,59.53,42.21Z"/><rect class="cls-2" x="58.26" y="49.56" width="2.7" height="5"/><path class="cls-2" d="M37.78,90.07l-3,10.74a1.35,1.35,0,1,0,2.6.73l2.9-10.35,7-6.12c2,2.91,7.49,9.28,18.55,10.8a43.49,43.49,0,0,0,5.92.38c10.2,0,20.68-3,24.33-4.11l2.9,9.35a1.35,1.35,0,1,0,2.58-.8L98.27,90v0a1.34,1.34,0,0,0-.13-.27l0,0a1.34,1.34,0,0,0-.17-.2l0,0L85,77.33c4.3-8.37,8.67-18.42,9.55-30.07A33.34,33.34,0,0,0,86,22.08c-5-5.42-11.63-8.52-18.13-8.52a27.09,27.09,0,0,0-19.66,8.32C42.47,28,39.72,36.77,40.32,47.23,41,59.61,46,69.31,51.12,78.15L38.2,89.42A1.35,1.35,0,0,0,37.78,90.07Zm16-10.62a1.35,1.35,0,0,0,.28-1.7C48.83,68.93,43.7,59.3,43,47.08c-.55-9.7,1.94-17.78,7.21-23.34a24.38,24.38,0,0,1,17.7-7.48c5.75,0,11.63,2.79,16.15,7.66a30.63,30.63,0,0,1,7.76,23.14C90.95,58.65,86.42,68.7,82.1,77a1.35,1.35,0,0,0,.27,1.61l12,11.23c-5,1.49-17.8,4.79-28.15,3.36S50.85,85.6,49.34,83.29Z"/></svg>