<svg xmlns="http://www.w3.org/2000/svg" viewBox="0 0 136.06 121.89"><defs><style>.cls-1{fill:none;}.cls-2{fill:#010101;}</style></defs><polygon class="cls-1" points="84.33 35.57 97.01 35.57 84.33 22.81 84.33 35.57"/><path class="cls-2" d="M83.54,18.19H34.71v83.48h2.7V20.89h45l0,0h-.82V38.27H98.9v63.4h2.7V36.36Zm.79,17.38V22.81L97,35.57Z"/><polygon class="cls-2" points="37.41 105.15 34.59 105.15 34.59 107.89 100.25 107.89 101.6 107.89 101.6 105.15 98.9 105.15 37.41 105.15"/><rect class="cls-2" x="45.01" y="46.44" width="32.05" height="2.7"/><rect class="cls-2" x="45.01" y="55.27" width="46.05" height="2.7"/><rect class="cls-2" x="45.01" y="64.1" width="46.05" height="2.7"/><rect class="cls-2" x="45.01" y="72.92" width="46.05" height="2.7"/><rect class="cls-2" x="45.01" y="81.75" width="46.05" height="2.7"/></svg>