<svg xmlns="http://www.w3.org/2000/svg" viewBox="0 0 136.06 121.89"><defs><style>.cls-1{fill:#010101;}</style></defs><polygon class="cls-1" points="38.88 101.94 38.88 12.79 97.18 12.79 97.18 101.94 98.53 101.94 99.88 101.94 99.88 10.1 36.18 10.1 36.18 101.94 37.53 101.94 38.88 101.94"/><polygon class="cls-1" points="97.18 104.94 97.18 105.09 38.88 105.09 38.88 104.94 37.53 104.94 36.18 104.94 36.18 107.8 99.88 107.8 99.88 104.94 98.53 104.94 97.18 104.94"/><polygon class="cls-1" points="44.66 29.44 44.66 28.79 44.66 18.8 65.25 18.8 68.03 18.8 68.03 16.09 41.96 16.09 41.96 29.44 43.31 29.44 44.66 29.44"/><polygon class="cls-1" points="68.03 100.44 68.03 100.44 68.03 101.8 94.1 101.8 94.1 88.44 92.75 88.44 91.4 88.44 91.4 89.1 91.4 99.09 70.81 99.09 68.03 99.09 68.03 100.44"/></svg>