<svg xmlns="http://www.w3.org/2000/svg" viewBox="0 0 136.06 121.89"><defs><style>.cls-1{fill:none;}.cls-2{fill:#010101;}</style></defs><polygon class="cls-1" points="107.95 50.91 102.46 46.45 102.46 55.87 107.95 50.91"/><polygon class="cls-1" points="33.61 46.36 28.11 50.9 33.61 55.94 33.61 46.36"/><polygon class="cls-1" points="67.7 18.21 56.24 27.67 79.34 27.67 67.7 18.21"/><polygon class="cls-2" points="32.54 102.42 36.81 102.42 67.72 77.12 99.16 102.42 103.47 102.42 67.71 73.64 32.54 102.42"/><path class="cls-2" d="M28.46,54.89,54.2,78.45l1.82-2L36.52,58.6h-.21V30.37H99.76V58.6h-.33L80.08,76.07l1.81,2,25.72-23.22v47.56h2.7V50.09l.37-.45-.37-.3v-.56l-.33.3L102.46,43V27.67H83.62L67.68,14.72,52,27.67H33.61V42.86l-7.51,6.2-.34-.31v.59l-.37.31.37.45v52.31h2.7Zm79.49-4-5.49,5V46.45ZM67.7,18.21l11.64,9.46H56.24ZM33.61,46.36v9.58l-5.5-5Z"/><polygon class="cls-2" points="28.88 105.42 25.76 105.42 25.76 107.89 25.85 107.89 110.27 107.89 110.31 107.89 110.31 105.42 107.19 105.42 28.88 105.42"/><rect class="cls-2" x="43.82" y="46.46" width="26.19" height="2.7"/><rect class="cls-2" x="43.82" y="38.46" width="14.19" height="2.7"/><rect class="cls-2" x="43.82" y="54.46" width="31.19" height="2.7"/><path class="cls-2" d="M81.89,50.73a8.52,8.52,0,0,1-4.55-8.89l-2.49-1.27a11.19,11.19,0,0,0,19.39,9.86l-2.48-1.26A8.53,8.53,0,0,1,81.89,50.73Z"/><path class="cls-2" d="M85.76,34.63a8.47,8.47,0,0,1,7.31,4.19,8.54,8.54,0,0,1,1.09,5.62l2.49,1.27a11.15,11.15,0,0,0,.23-3.79A11.29,11.29,0,0,0,95.12,37a11.13,11.13,0,0,0-4.29-3.86c-.34-.17-.68-.32-1-.46a11.25,11.25,0,0,0-12.55,3.15l2.5,1.27A8.55,8.55,0,0,1,85.76,34.63Z"/><polygon class="cls-2" points="89.28 39.51 87.58 41.1 84.78 43.72 82.59 41.51 80.67 43.41 80.93 43.67 84.72 47.48 86.02 46.26 90.14 42.4 91.13 41.48 89.28 39.51"/></svg>