<svg xmlns="http://www.w3.org/2000/svg" viewBox="0 0 136.06 121.89"><defs><style>.cls-1{fill:none;}.cls-2{fill:#010101;}.cls-3{fill:#fff;}</style></defs><path class="cls-1" d="M67.87,85.66l9.57-9.24V66.77A16,16,0,0,1,67.3,70.89a15.48,15.48,0,0,1-9.15-3.33v8.71Z"/><path class="cls-1" d="M43.74,42.88a15.87,15.87,0,0,0-.07,2.58,6.18,6.18,0,0,0,1.09,2.7h1.92A35.89,35.89,0,0,1,46,42.89Z"/><path class="cls-1" d="M87.91,48.19l2.42,0a6.15,6.15,0,0,0,1.09-2.7,15.86,15.86,0,0,0-.07-2.58H88.59A35.88,35.88,0,0,1,87.91,48.19Z"/><path class="cls-2" d="M72.82,55.19a11.27,11.27,0,0,0-10,0,10.92,10.92,0,0,0-2.39,1.53l1.06,1.17.75.83a8.16,8.16,0,0,1,1.23-.83,8.63,8.63,0,0,1,8.71,0,8.51,8.51,0,0,1,1.25.83l.75-.83,1.06-1.17A10.89,10.89,0,0,0,72.82,55.19Z"/><path class="cls-2" d="M102.2,36.67,90.87,34.91,89.23,11.14l-17.53.5L55.15,5.83,46.35,28,35,26.2l-.42,2.67,10.73,1.67h0l2.29.36A30.64,30.64,0,0,0,46,40.19H41.43l-.2,1.11A20.19,20.19,0,0,0,41,45.64,9.4,9.4,0,0,0,43,50.38l.4.48,3.91,0a33.68,33.68,0,0,0,8.1,14.33V74L37.71,84.59l-3.13,16.33,1.33.25h0l1.33.25,0-.26,2.85-14.89,15.12-9.05.2.19L58.15,80l9.73,9.39,9.57-9.24,2.7-2.61.35-.34,15.11,9.05L98.43,101l0,.25,2.65-.51L98,84.59,80.15,73.87V64.14A34.37,34.37,0,0,0,87.3,50.7v.19l4.35,0,.4-.48a9.4,9.4,0,0,0,2.07-4.73,20.19,20.19,0,0,0-.26-4.35l-.2-1.11h-5c0-1-.1-2-.21-2.93l13.39,2.09ZM85.95,41a33.88,33.88,0,0,1-5.8,18.72,26.48,26.48,0,0,1-2.7,3.33c-3,3.16-6.58,5.1-10.15,5.1-3.19,0-6.35-1.55-9.15-4.12a24.35,24.35,0,0,1-2.7-3A33.64,33.64,0,0,1,48.65,41a27.75,27.75,0,0,1,1.68-9.72l17.87,2.78,17.42,2.71A27.25,27.25,0,0,1,85.95,41ZM71.27,14.35l15.44-.44.83,12-3.23-.5-1.78-.28-1.94-.3L62.15,22l-.42,2.67,20.86,3.25,1.76.27L86,28.4l1.61.25.11-.69.45,6.52h0l-.19,0-1.4-.22L85,34,68.61,31.44,51.47,28.77l-1.41-.22-1-.15,1.17-2.95.92-2.32-.11.71.25,0,1.5.23,1.58.25,2.6.4.42-2.67L56.8,22,55,21.72l-1.66-.26-1.42-.22,4.77-12ZM44.76,48.17a6.18,6.18,0,0,1-1.09-2.7,15.87,15.87,0,0,1,.07-2.58H46a35.89,35.89,0,0,0,.68,5.29ZM67.3,70.89a16,16,0,0,0,10.15-4.12v9.65l-9.57,9.24-9.73-9.39V67.56A15.48,15.48,0,0,0,67.3,70.89ZM91.42,45.47a6.15,6.15,0,0,1-1.09,2.7l-2.42,0a35.88,35.88,0,0,0,.68-5.3h2.76A15.86,15.86,0,0,1,91.42,45.47Z"/><polygon class="cls-2" points="73.95 41.04 73.95 46.04 76.65 46.04 76.65 42.14 80.24 43.77 81.36 41.31 70.36 36.31 69.24 38.77 74.23 41.04 73.95 41.04"/><polygon class="cls-2" points="57.95 46.04 60.65 46.04 60.65 41.04 60.36 41.04 65.36 38.77 64.24 36.31 53.24 41.31 54.36 43.77 57.95 42.14 57.95 46.04"/><polygon class="cls-3" points="35.91 101.17 35.91 101.17 35.91 101.17 35.91 101.17"/><rect class="cls-2" x="33.86" y="105.19" width="68.03" height="2.7"/><polygon class="cls-2" points="69.15 93.04 66.45 93.04 66.45 93.19 66.45 95.89 66.45 96.04 69.15 96.04 69.15 95.89 69.15 93.19 69.15 93.04"/><polygon class="cls-2" points="66.45 99.04 66.45 101.11 66.45 102.04 69.15 102.04 69.15 101.11 69.15 99.04 66.45 99.04"/><polygon class="cls-2" points="78.8 92.19 78.8 94.89 80.15 94.89 89.8 94.89 89.8 92.19 80.15 92.19 78.8 92.19"/></svg>