<svg xmlns="http://www.w3.org/2000/svg" viewBox="0 0 136.06 121.89"><defs><style>.cls-1{fill:none;}.cls-2{fill:#010101;}</style></defs><path class="cls-1" d="M45.86,15A16.25,16.25,0,0,1,62.1,31.25V48.57h4V31a20.21,20.21,0,0,0-40.41,0v4.05h4V31.25A16.25,16.25,0,0,1,45.86,15Z"/><polygon class="cls-2" points="110.41 105.11 110.41 105.19 51.32 105.19 51.32 105.11 49.97 105.11 48.62 105.11 48.62 107.89 113.11 107.89 113.11 105.11 111.75 105.11 110.41 105.11"/><path class="cls-2" d="M32.33,31.25a13.54,13.54,0,0,1,27.07,0V48.7H48.62v53.4h2.7V92.85h59.08v9.26h2.7V48.7H68.77V31A22.9,22.9,0,1,0,23,31v6.75h9.37Zm19,58.9V51.4h59.08V90.15ZM29.63,35.05h-4V31a20.21,20.21,0,0,1,40.41,0V48.57h-4V31.25a16.24,16.24,0,1,0-32.47,0Z"/><path class="cls-2" d="M80.86,60.42A7,7,0,0,0,76.35,72.7v9h9v-9a7,7,0,0,0-4.51-12.28Zm2.4,10.5-.59.4V79H79.05V71.32l-.59-.4a4.27,4.27,0,1,1,4.8,0Z"/></svg>