<svg xmlns="http://www.w3.org/2000/svg" viewBox="0 0 136.06 121.89"><defs><style>.cls-1{fill:#010101;}</style></defs><path class="cls-1" d="M108.23,78.48a21.73,21.73,0,0,0-21.65,20.2H74.93a7.42,7.42,0,0,0-14.81,0H48.67V92.73h-.73L38.25,81.56H16.42L6.73,92.73h-.6v24.94H48.67v-16.3H60.42a7.43,7.43,0,0,0,14.2,0H86.56a21.7,21.7,0,1,0,21.67-22.89ZM10.31,92.73l7.34-8.47H37l7.34,8.47Zm-1.48,2.7H46V115H8.83Zm104.4,23.07a27.43,27.43,0,0,0,3.35-10,27.44,27.44,0,0,0,10-3.34A19,19,0,0,1,113.23,118.5ZM89.91,105.19a27.44,27.44,0,0,0,10,3.34,27.43,27.43,0,0,0,3.35,10A19,19,0,0,1,89.91,105.19Zm13.31-23.32a27.43,27.43,0,0,0-3.35,10,27.44,27.44,0,0,0-10,3.34A19,19,0,0,1,103.22,81.87Zm10.55,9.58a52.66,52.66,0,0,0-11.09,0c1.16-6.21,3.44-10.28,5.55-10.28S112.61,85.24,113.77,91.46Zm.78,8.73a50.12,50.12,0,0,1-.35,6,50.81,50.81,0,0,1-11.94,0,50.82,50.82,0,0,1,0-11.94,50.81,50.81,0,0,1,11.94,0A50.11,50.11,0,0,1,114.55,100.18ZM99.5,105.73c-5.05-.94-8.68-2.63-9.86-4.36a2.14,2.14,0,0,1-.42-1.19,2.39,2.39,0,0,1,.68-1.51c1.38-1.62,4.86-3.15,9.6-4a52.65,52.65,0,0,0,0,11.09Zm3.18,3.18a52.66,52.66,0,0,0,11.09,0c-1.16,6.21-3.44,10.28-5.55,10.28S103.84,115.13,102.68,108.92ZM117,105.73a52.65,52.65,0,0,0,0-11.09c6.21,1.16,10.27,3.44,10.27,5.55S123.17,104.57,117,105.73Zm-.38-13.9a27.43,27.43,0,0,0-3.35-10,19,19,0,0,1,13.31,13.31A27.44,27.44,0,0,0,116.58,91.83ZM72.25,99.18a4.74,4.74,0,1,1-9.41-.51,4.7,4.7,0,0,1,9.36,0A4.63,4.63,0,0,1,72.25,99.18Z"/></svg>