<svg xmlns="http://www.w3.org/2000/svg" viewBox="0 0 136.06 121.89"><defs><style>.cls-1{fill:none;}.cls-2{fill:#010101;}</style></defs><circle class="cls-1" cx="108.19" cy="83.76" r="3.44"/><rect class="cls-1" x="100.58" y="35.98" width="13.97" height="4.38"/><path class="cls-1" d="M97.5,99.43H118a3.56,3.56,0,0,0,3.56-3.56V32.64A3.56,3.56,0,0,0,118,29.09H97.5a3.56,3.56,0,0,0-3.56,3.56V95.87A3.56,3.56,0,0,0,97.5,99.43Zm10.69-9.52a6.14,6.14,0,1,1,6.14-6.14A6.15,6.15,0,0,1,108.19,89.91Zm8.71-35.2H98.23V52H116.9Zm0-6H98.23V46H116.9Zm-19-15.44h19.37v9.78H97.89Z"/><path class="cls-1" d="M22,79.51H76V35.79H22ZM42.4,39.36h2.53v2.7H42.4Zm-16.82,0H39.4v2.7H28.28v6.11h-2.7Z"/><path class="cls-1" d="M17.89,86.21H80.1a3.36,3.36,0,0,0,3.36-3.36V32.45a3.36,3.36,0,0,0-3.36-3.36H17.89a3.36,3.36,0,0,0-3.36,3.36v50.4A3.36,3.36,0,0,0,17.89,86.21ZM19.3,33.09H78.69V82.21H19.3Z"/><rect class="cls-1" x="41.33" y="88.91" width="15.33" height="10.52"/><path class="cls-2" d="M17.89,88.91H38.63V99.43H32.32v2.7H65.68v-2.7H59.36V88.91H80.1a6.06,6.06,0,0,0,6.06-6.06V32.45a6.06,6.06,0,0,0-6.06-6.06H17.89a6.07,6.07,0,0,0-6.06,6.06v50.4A6.07,6.07,0,0,0,17.89,88.91ZM56.66,99.43H41.33V88.91H56.66Zm-42.13-67a3.36,3.36,0,0,1,3.36-3.36H80.1a3.36,3.36,0,0,1,3.36,3.36v50.4a3.36,3.36,0,0,1-3.36,3.36H17.89a3.36,3.36,0,0,1-3.36-3.36Z"/><path class="cls-2" d="M97.5,102.13H118a6.26,6.26,0,0,0,6.26-6.26V32.64A6.26,6.26,0,0,0,118,26.39H97.5a6.26,6.26,0,0,0-6.25,6.26V95.87A6.26,6.26,0,0,0,97.5,102.13ZM93.95,32.64a3.56,3.56,0,0,1,3.56-3.56H118a3.56,3.56,0,0,1,3.56,3.56V95.87A3.56,3.56,0,0,1,118,99.43H97.5a3.56,3.56,0,0,1-3.56-3.56Z"/><path class="cls-2" d="M78.69,33.09H19.3V82.21H78.69ZM76,79.51H22V35.79H76Z"/><rect class="cls-2" x="12.6" y="105.19" width="110.63" height="2.7"/><path class="cls-2" d="M117.25,33.28H97.89v9.78h19.37Zm-2.7,7.08h-14V36h14Z"/><rect class="cls-2" x="98.23" y="46.01" width="18.67" height="2.7"/><rect class="cls-2" x="98.23" y="52.01" width="18.67" height="2.7"/><path class="cls-2" d="M108.19,77.62a6.14,6.14,0,1,0,6.14,6.14A6.15,6.15,0,0,0,108.19,77.62Zm0,9.58a3.44,3.44,0,1,1,3.44-3.44A3.45,3.45,0,0,1,108.19,87.21Z"/><polygon class="cls-2" points="28.28 42.06 39.4 42.06 39.4 39.36 25.58 39.36 25.58 48.16 28.28 48.16 28.28 42.06"/><rect class="cls-2" x="42.4" y="39.36" width="2.53" height="2.7"/></svg>