<svg xmlns="http://www.w3.org/2000/svg" viewBox="0 0 136.06 121.89"><defs><style>.cls-1{fill:none;}.cls-2{fill:#010101;}</style></defs><rect class="cls-1" x="53.87" y="86.08" width="28.32" height="7.04" rx="1.33" ry="1.33"/><path class="cls-2" d="M56.57,60.59V71.8h-6.3a9.74,9.74,0,0,0-9.73,9.73V98.16a9.74,9.74,0,0,0,9.73,9.73H94.79v-2.7H50.27a7,7,0,0,1-7-7V81.53a7,7,0,0,1,7-7h9V62.07l4.13-2.63V51.85H59.27V46.94l4.13-2.63V36.72H59.27V31.8l4.13-2.63V21.58H59.27V15.39l8.76-6,8.76,6v6.19H72.67v7.59L76.8,31.8v4.91H72.67v7.59l4.13,2.63v4.91H72.67v7.59l4.13,2.63V73.15H77V74.5h8.82a7,7,0,0,1,7,7v20.09h2.7V81.53a9.74,9.74,0,0,0-9.73-9.73h-6.3V60.59L75.37,58V54.55h4.13V45.45l-4.13-2.63V39.42h4.13V30.32l-4.13-2.63V24.28h4.13V14L68,6.17,56.57,14V24.28H60.7v3.41l-4.13,2.63v9.09H60.7v3.41l-4.13,2.63v9.09H60.7V58Z"/><path class="cls-2" d="M55.2,83.38a4,4,0,0,0-4,4v4.39a4,4,0,0,0,4,4H80.86a4,4,0,0,0,4-4V87.41a4,4,0,0,0-4-4Zm27,4v4.39a1.33,1.33,0,0,1-1.33,1.33H55.2a1.33,1.33,0,0,1-1.33-1.33V87.41a1.33,1.33,0,0,1,1.33-1.33H80.86A1.33,1.33,0,0,1,82.19,87.41Z"/></svg>