<svg xmlns="http://www.w3.org/2000/svg" viewBox="0 0 136.06 121.89"><defs><style>.cls-1{fill:#010101;}</style></defs><path class="cls-1" d="M22.42,102.08V37.3h91.23v64.78h2.7V24.28H19.72v77.81h2.7ZM113.65,27V34.6H95V27ZM92.34,34.6H22.42V27H92.34Z"/><polygon class="cls-1" points="113.65 105.08 113.65 105.19 22.42 105.19 22.42 105.08 21.07 105.08 19.72 105.08 19.72 107.89 116.35 107.89 116.35 105.08 115 105.08 113.65 105.08"/><rect class="cls-1" x="108.81" y="29.75" width="2.7" height="2.35"/><rect class="cls-1" x="103.23" y="29.75" width="2.7" height="2.35"/><rect class="cls-1" x="97.65" y="29.75" width="2.7" height="2.35"/><polygon class="cls-1" points="46.36 58.23 51.02 64.65 55.49 48.7 52.89 47.98 49.93 58.54 46.36 53.63 42.8 58.54 39.84 47.98 37.24 48.7 41.7 64.65 46.36 58.23"/><polygon class="cls-1" points="67.28 58.23 71.94 64.65 76.41 48.7 73.81 47.98 70.85 58.54 67.28 53.63 63.72 58.54 60.76 47.98 58.16 48.7 62.63 64.65 67.28 58.23"/><polygon class="cls-1" points="88.21 58.23 92.86 64.65 97.33 48.7 94.73 47.98 91.77 58.54 88.21 53.63 84.64 58.54 81.68 47.98 79.08 48.7 83.55 64.65 88.21 58.23"/><rect class="cls-1" x="35.69" y="75.16" width="61.05" height="2.7"/><rect class="cls-1" x="35.69" y="83.48" width="61.05" height="2.7"/><rect class="cls-1" x="35.69" y="91.8" width="55.64" height="2.7"/></svg>