<?xml version="1.0" encoding="UTF-8" standalone="no"?>
<svg
   xmlns:dc="http://purl.org/dc/elements/1.1/"
   xmlns:cc="http://creativecommons.org/ns#"
   xmlns:rdf="http://www.w3.org/1999/02/22-rdf-syntax-ns#"
   xmlns:svg="http://www.w3.org/2000/svg"
   xmlns="http://www.w3.org/2000/svg"
   id="svg97878"
   version="1.1"
   viewBox="0 0 18.457407 18.454"
   height="18.454mm"
   width="18.457407mm">
  <defs
     id="defs97872" />
  <metadata
     id="metadata97875">
    <rdf:RDF>
      <cc:Work
         rdf:about="">
        <dc:format>image/svg+xml</dc:format>
        <dc:type
           rdf:resource="http://purl.org/dc/dcmitype/StillImage" />
        <dc:title></dc:title>
      </cc:Work>
    </rdf:RDF>
  </metadata>
  <g
     transform="translate(-269.71773,99.274619)"
     id="layer1">
    <g
       style="stroke-width:0.89457947"
       transform="matrix(0.29576281,0,0,0.29576281,269.75036,-99.273359)"
       id="Layer_2-90-3"
       data-name="Layer 2">
      <g
         style="stroke-width:0.89457947"
         id="Layer_1-2-91-5"
         data-name="Layer 1">
        <path
           style="fill:#58595b;stroke-width:0.89457947"
           class="cls-1"
           d="M 49.28,17.18 A 26.1,26.1 0 1 1 45.11,13 l 2.1,-2.09 a 29,29 0 1 0 4.16,4.16 z"
           id="path5313-7" />
        <path
           style="fill:#58595b;stroke-width:0.89457947"
           class="cls-1"
           d="M 62,6.57 58.33,5.35 59.07,4.62 A 1,1 0 1 0 57.68,3.23 L 56.94,4 55.73,0.34 A 0.5,0.5 0 0 0 55.33,0 0.48,0.48 0 0 0 54.86,0.22 l -5.23,7.85 a 0.43,0.43 0 0 0 -0.08,0.31 l 0.24,2.74 -21.54,21.54 a 1,1 0 0 0 0.69,1.68 1,1 0 0 0 0.7,-0.29 L 51.18,12.5 53.91,12.75 H 54 a 0.43,0.43 0 0 0 0.27,-0.08 L 62.12,7.44 A 0.47,0.47 0 0 0 62.29,7 0.46,0.46 0 0 0 62,6.57 Z m -11.46,1.9 4.58,-6.87 1.05,3.14 -5.47,5.47 z m 3.29,3.29 -1.75,-0.16 5.47,-5.47 3.15,1 z"
           id="path5315-0" />
        <path
           style="fill:#58595b;stroke-width:0.89457947"
           class="cls-1"
           d="m 40.22,17.92 a 19.15,19.15 0 1 0 4.16,4.16 L 43,23.48 a 17.22,17.22 0 1 1 -4.17,-4.16 z"
           id="path5317-8" />
        <path
           style="fill:#58595b;stroke-width:0.89457947"
           class="cls-1"
           d="m 32.74,25.4 a 8.66,8.66 0 0 0 -3.8,-0.87 8.86,8.86 0 1 0 8,5 L 31,35.44 A 2.93,2.93 0 0 1 28.92,36.3 3,3 0 0 1 26.84,35.44 2.92,2.92 0 0 1 26,33.36 2.89,2.89 0 0 1 26.86,31.28 Z"
           id="path5319-1" />
      </g>
    </g>
  </g>
</svg>
