<?xml version="1.0" encoding="UTF-8" standalone="no"?>
<svg
   xmlns:dc="http://purl.org/dc/elements/1.1/"
   xmlns:cc="http://creativecommons.org/ns#"
   xmlns:rdf="http://www.w3.org/1999/02/22-rdf-syntax-ns#"
   xmlns:svg="http://www.w3.org/2000/svg"
   xmlns="http://www.w3.org/2000/svg"
   id="svg111102"
   version="1.1"
   viewBox="0 0 18.366602 18.454"
   height="18.454mm"
   width="18.366602mm">
  <defs
     id="defs111096" />
  <metadata
     id="metadata111099">
    <rdf:RDF>
      <cc:Work
         rdf:about="">
        <dc:format>image/svg+xml</dc:format>
        <dc:type
           rdf:resource="http://purl.org/dc/dcmitype/StillImage" />
        <dc:title></dc:title>
      </cc:Work>
    </rdf:RDF>
  </metadata>
  <g
     transform="translate(-203.99527,-69.302762)"
     id="layer1">
    <g
       style="stroke-width:0.9778142"
       transform="matrix(0.27058652,0,0,0.27058652,204.00799,69.302762)"
       id="Layer_2-689-4"
       data-name="Layer 2">
      <g
         style="stroke-width:0.9778142"
         id="Layer_1-2-266-9"
         data-name="Layer 1">
        <path
           style="fill:#666666;stroke-width:0.9778142"
           class="cls-1"
           d="m 61.43,20.78 a 1.6,1.6 0 0 1 -1.6,-1.6 V 9.06 A 0.53,0.53 0 0 0 59.3,8.53 H 30.53 A 1.6,1.6 0 0 1 29.4,8.06 L 24.54,3.2 H 8.15 A 0.53,0.53 0 0 0 7.62,3.73 v 15.45 a 1.6,1.6 0 0 1 -3.2,0 V 3.73 A 3.73,3.73 0 0 1 8.15,0 h 17 a 1.6,1.6 0 0 1 1.13,0.47 l 4.86,4.86 H 59.3 A 3.73,3.73 0 0 1 63,9.06 v 10.12 a 1.6,1.6 0 0 1 -1.57,1.6 z"
           id="path11139-2" />
        <path
           style="fill:#878589;stroke-width:0.9778142"
           class="cls-2"
           d="M 56.11,19.71 H 11.35 a 0.53,0.53 0 0 1 -0.53,-0.53 v -6.39 a 0.53,0.53 0 0 1 0.53,-0.53 h 44.76 a 0.53,0.53 0 0 1 0.53,0.53 v 6.39 a 0.53,0.53 0 0 1 -0.53,0.53 z M 11.88,18.65 H 55.57 V 13.32 H 11.88 Z"
           id="path11141-5" />
        <path
           style="fill:#666666;stroke-width:0.9778142"
           class="cls-1"
           d="m 28.4,49.55 c 0,-0.54 0,-1.07 0.07,-1.6 H 7.84 A 0.53,0.53 0 0 1 7.31,47.5 L 3.2,21.93 a 0.53,0.53 0 0 1 0.53,-0.62 h 60 a 0.53,0.53 0 0 1 0.53,0.62 l -1.87,11.59 a 21,21 0 0 1 2.79,2.79 l 2.23,-13.87 a 3.73,3.73 0 0 0 -3.68,-4.32 h -60 A 3.73,3.73 0 0 0 0,22.44 L 4.16,48 a 3.71,3.71 0 0 0 3.68,3.14 H 28.47 C 28.43,50.62 28.4,50.09 28.4,49.55 Z"
           id="path11143-7" />
        <path
           style="fill:#666666;stroke-width:0.9778142"
           class="cls-1"
           d="M 49.18,30.9 A 18.65,18.65 0 1 0 67.83,49.55 18.67,18.67 0 0 0 49.18,30.9 Z m 0,34.53 A 15.88,15.88 0 1 1 65.06,49.55 15.9,15.9 0 0 1 49.18,65.43 Z"
           id="path11145-4" />
        <path
           style="fill:#666666;stroke-width:0.9778142"
           class="cls-1"
           d="m 58.09,43 a 1.38,1.38 0 0 0 -2,0 L 45.88,53.21 42.21,49.55 a 1.4142136,1.4142136 0 1 0 -2,2 l 5.62,5.62 12.26,-12.26 a 1.38,1.38 0 0 0 0,-1.91 z"
           id="path11147-9" />
      </g>
    </g>
  </g>
</svg>
