<?xml version="1.0" encoding="UTF-8" standalone="no"?>
<svg
   xmlns:dc="http://purl.org/dc/elements/1.1/"
   xmlns:cc="http://creativecommons.org/ns#"
   xmlns:rdf="http://www.w3.org/1999/02/22-rdf-syntax-ns#"
   xmlns:svg="http://www.w3.org/2000/svg"
   xmlns="http://www.w3.org/2000/svg"
   id="svg131776"
   version="1.1"
   viewBox="0 0 24.61109 18.454"
   height="18.454mm"
   width="24.61109mm">
  <defs
     id="defs131770" />
  <metadata
     id="metadata131773">
    <rdf:RDF>
      <cc:Work
         rdf:about="">
        <dc:format>image/svg+xml</dc:format>
        <dc:type
           rdf:resource="http://purl.org/dc/dcmitype/StillImage" />
        <dc:title></dc:title>
      </cc:Work>
    </rdf:RDF>
  </metadata>
  <g
     transform="translate(36.118045,-139.60633)"
     id="layer1">
    <g
       style="stroke-width:0.61278266"
       transform="matrix(0.43177352,0,0,0.43177352,-36.118045,139.60633)"
       id="Layer_2-59-7"
       data-name="Layer 2">
      <g
         style="stroke-width:0.61278266"
         id="Layer_1-2-77-9"
         data-name="Layer 1">
        <path
           style="fill:#616161;stroke-width:0.61278266"
           class="cls-1"
           d="M 53,0 H 4 A 4,4 0 0 0 0,4 v 34.74 a 4,4 0 0 0 4,4 h 49 a 4,4 0 0 0 4,-4 V 4 A 4,4 0 0 0 53,0 Z m 1.34,4 V 7 A 5.78,5.78 0 0 1 50,2.67 h 3 A 1.34,1.34 0 0 1 54.33,4 Z m 0,4.77 V 34 a 7.55,7.55 0 0 0 -6.11,6.11 H 8.78 A 7.55,7.55 0 0 0 2.67,34 V 8.78 A 7.55,7.55 0 0 0 8.78,2.67 h 39.44 a 7.55,7.55 0 0 0 6.11,6.11 z M 4,2.67 H 7 A 5.78,5.78 0 0 1 2.67,7 V 4 A 1.34,1.34 0 0 1 4,2.67 Z M 2.67,38.74 v -3 A 5.78,5.78 0 0 1 7,40.08 H 4 A 1.34,1.34 0 0 1 2.67,38.74 Z M 53,40.08 h -3 a 5.78,5.78 0 0 1 4.29,-4.29 v 3 A 1.34,1.34 0 0 1 53,40.08 Z"
           id="path5371-9" />
        <path
           style="fill:#616161;stroke-width:0.61278266"
           class="cls-1"
           d="M 18.78,26.55 22.13,26 23.3,29.1 a 0.46,0.46 0 0 0 0.38,0.29 v 0 a 0.43,0.43 0 0 0 0.38,-0.22 l 3.55,-6 0.51,0.7 a 0.41,0.41 0 0 0 0.68,0 l 0.51,-0.7 3.55,6 a 0.43,0.43 0 0 0 0.38,0.22 v 0 a 0.46,0.46 0 0 0 0.38,-0.29 l 1.25,-3.1 3.35,0.56 A 0.44,0.44 0 0 0 38.68,25.9 L 35,19.71 36.24,19.58 a 0.42,0.42 0 0 0 0.35,-0.59 L 35.65,16.9 a 0.43,0.43 0 0 1 0.14,-0.52 L 37.68,15 a 0.43,0.43 0 0 0 0,-0.69 L 35.82,13 a 0.43,0.43 0 0 1 -0.14,-0.52 l 0.94,-2.09 A 0.42,0.42 0 0 0 36.27,9.8 L 34,9.58 A 0.43,0.43 0 0 1 33.62,9.2 L 33.39,6.92 A 0.43,0.43 0 0 0 32.79,6.58 L 30.7,7.51 A 0.4,0.4 0 0 1 30.19,7.38 L 28.84,5.52 a 0.42,0.42 0 0 0 -0.68,0 L 26.81,7.38 A 0.4,0.4 0 0 1 26.3,7.51 L 24.21,6.58 a 0.43,0.43 0 0 0 -0.6,0.34 L 23.38,9.2 A 0.43,0.43 0 0 1 23,9.58 l -2.27,0.23 a 0.42,0.42 0 0 0 -0.35,0.59 l 0.94,2.09 a 0.43,0.43 0 0 1 -0.14,0.52 l -1.86,1.34 a 0.43,0.43 0 0 0 0,0.69 l 1.86,1.34 a 0.43,0.43 0 0 1 0.14,0.52 L 20.38,19 a 0.42,0.42 0 0 0 0.35,0.59 l 1.24,0.13 -3.65,6.18 a 0.44,0.44 0 0 0 0.46,0.66 z m 14.61,-4.08 0.23,-2.28 A 0.43,0.43 0 0 1 34,19.81 h 0.06 l 3.37,5.7 -2.77,-0.46 a 0.43,0.43 0 0 0 -0.49,0.28 l -1,2.59 -3.27,-5.54 0.27,-0.36 a 0.4,0.4 0 0 1 0.51,-0.14 l 2.09,0.93 a 0.43,0.43 0 0 0 0.62,-0.34 z m -6.33,-9.74 1.44,-2.93 1.44,2.93 3.24,0.47 -2.34,2.28 0.55,3.22 -2.89,-1.52 -2.89,1.52 0.55,-3.22 -2.34,-2.28 z m -4.12,7.08 H 23 a 0.43,0.43 0 0 1 0.38,0.38 l 0.23,2.28 a 0.43,0.43 0 0 0 0.6,0.34 l 2.09,-0.93 a 0.4,0.4 0 0 1 0.51,0.14 l 0.27,0.36 -3.27,5.54 -1,-2.59 A 0.43,0.43 0 0 0 22.4,25.04 h -0.08 l -2.77,0.46 z"
           id="path5373-3" />
        <rect
           style="fill:#616161;stroke-width:0.61278266"
           class="cls-1"
           x="16.92"
           y="32.060001"
           width="23.16"
           height="1.78"
           id="rect5375-2" />
        <rect
           style="fill:#616161;stroke-width:0.61278266"
           class="cls-1"
           x="12.91"
           y="35.630001"
           width="31.17"
           height="0.88999999"
           id="rect5377-4" />
      </g>
    </g>
  </g>
</svg>
