<?xml version="1.0" encoding="UTF-8" standalone="no"?>
<svg
   xmlns:dc="http://purl.org/dc/elements/1.1/"
   xmlns:cc="http://creativecommons.org/ns#"
   xmlns:rdf="http://www.w3.org/1999/02/22-rdf-syntax-ns#"
   xmlns:svg="http://www.w3.org/2000/svg"
   xmlns="http://www.w3.org/2000/svg"
   id="svg217925"
   version="1.1"
   viewBox="0 0 18.740294 18.454"
   height="18.454mm"
   width="18.740294mm">
  <defs
     id="defs217919" />
  <metadata
     id="metadata217922">
    <rdf:RDF>
      <cc:Work
         rdf:about="">
        <dc:format>image/svg+xml</dc:format>
        <dc:type
           rdf:resource="http://purl.org/dc/dcmitype/StillImage" />
        <dc:title></dc:title>
      </cc:Work>
    </rdf:RDF>
  </metadata>
  <g
     transform="translate(222.54872,-402.67776)"
     id="layer1">
    <g
       style="stroke-width:0.77651721"
       transform="matrix(0.34073079,0,0,0.34073079,-222.54864,402.67776)"
       id="Layer_2-87-9"
       data-name="Layer 2">
      <g
         style="stroke-width:0.77651721"
         id="Layer_1-2-17-4"
         data-name="Layer 1">
        <path
           style="fill:#58595b;stroke-width:0.77651721"
           class="cls-1"
           d="M 54.14,24.06 A 0.85,0.85 0 0 0 55,23.2 V 18.91 A 0.85,0.85 0 0 0 54.14,18.05 H 38.67 a 0.86,0.86 0 0 0 -0.86,0.86 v 3.43 h -1.72 a 0.87,0.87 0 0 0 -0.86,0.86 v 4.3 a 0.87,0.87 0 0 0 0.86,0.86 h 1.72 v 2.58 a 0.86,0.86 0 0 0 -0.86,0.86 v 4.29 a 0.86,0.86 0 0 0 0.86,0.86 v 2.58 H 37 V 36.09 A 0.86,0.86 0 0 0 36.14,35.23 H 35.28 V 31.8 A 0.85,0.85 0 0 0 34.42,30.94 H 18.91 a 0.85,0.85 0 0 0 -0.86,0.86 v 4.29 a 0.85,0.85 0 0 0 0.86,0.86 h 0.86 v 2.58 a 0.86,0.86 0 0 0 -0.86,0.86 v 4.3 A 0.86,0.86 0 0 0 18.05,43.83 H 17.19 V 40.39 A 0.87,0.87 0 0 0 16.33,39.53 H 0.86 A 0.86,0.86 0 0 0 0,40.39 v 4.3 a 0.86,0.86 0 0 0 0.86,0.86 h 0.86 v 2.57 H 0.86 A 0.86,0.86 0 0 0 0,49 v 4.3 a 0.85,0.85 0 0 0 0.86,0.86 h 15.47 a 0.86,0.86 0 0 0 0.86,-0.86 v -3.46 h 0.86 a 0.86,0.86 0 0 0 0.86,-0.86 v 4.3 a 0.85,0.85 0 0 0 0.86,0.86 h 15.46 a 0.85,0.85 0 0 0 0.86,-0.86 v -8.59 a 0.87,0.87 0 0 0 0.86,0.86 h 0.86 v 7.73 a 0.86,0.86 0 0 0 0.86,0.86 H 54.14 A 0.85,0.85 0 0 0 55,53.28 v -8.59 a 0.85,0.85 0 0 0 -0.86,-0.86 h -0.86 v -2.58 h 0.86 A 0.85,0.85 0 0 0 55,40.39 v -4.3 A 0.86,0.86 0 0 0 54.14,35.23 V 32.66 A 0.86,0.86 0 0 0 55,31.8 V 27.5 A 0.86,0.86 0 0 0 54.14,26.64 H 52.42 V 24.06 Z M 15.47,43.83 h -8.6 v -2.58 h 8.6 z m -9,4.29 v -2.57 h 1.26 v 2.57 z M 3,49.84 h 0.86 v 2.58 H 3 Z m 0,-8.59 h 0.86 v 2.58 H 3 Z m 1.72,2.58 V 41.25 H 6 v 2.58 z m 0.86,1.72 v 2.57 H 4.73 V 45.55 Z M 4.72,49.84 H 6 v 2.58 H 4.73 Z m -3,-8.59 h 0.43 v 2.58 H 1.72 Z m 1.72,4.3 h 0.43 v 2.57 H 3.44 Z m -1.72,4.29 h 0.43 v 2.58 H 1.72 Z m 13.75,2.58 h -8.6 v -2.58 h 8.6 z m 1.72,-4.3 h -8.6 v -2.57 h 8.6 z m 3.43,-2.57 h 0.43 v 2.57 h -0.43 z m 0,-4.3 h 0.43 v 2.58 h -0.43 z m 0.43,-8.59 h 0.86 v 2.57 H 21.05 Z M 35.23,37 v 2.58 H 26.64 V 37 Z m -11.6,11.12 v -2.57 h 1.29 v 2.57 z m -0.86,-6.87 v 2.58 h -0.86 v -2.58 z m 0,4.3 v 2.57 h -0.86 v -2.57 z m 0.86,-1.72 v -2.58 h 1.29 v 2.58 z m 2.15,-4.3 H 24.49 V 37 h 1.29 z m -3,-4.3 v -2.57 h 1.29 v 2.57 z M 23.63,37 v 2.58 H 22.77 V 37 Z m -0.86,12.89 v 2.58 h -0.86 v -2.63 z m 0.86,0 h 1.29 v 2.58 h -1.29 z m 2.15,-4.29 h 8.59 v 2.57 h -8.59 z m 8.59,-1.72 h -8.59 v -2.63 h 8.59 z m -0.85,-8.6 h -8.6 v -2.62 h 8.6 z M 19.77,32.66 h 0.43 v 2.57 H 19.77 Z M 21.48,37 h 0.43 v 2.58 h -0.43 z m -0.86,12.89 h 0.43 v 2.58 h -0.43 z m 13.75,2.58 h -8.59 v -2.63 h 8.59 z M 53.28,22.34 h -8.59 v -2.57 h 8.59 z M 42.54,39.53 V 37 h 1.29 v 2.58 z m 10.74,6 v 2.57 h -8.59 v -2.55 h 8.59 z M 39.1,41.25 H 40 v 2.58 h -0.9 z m -0.43,-8.59 h 0.43 v 2.57 h -0.43 z m -0.43,-6 v -2.6 h 0.86 v 2.58 h -0.86 z m 2.58,-4.3 v -2.59 h 0.86 v 2.57 z m 0.86,6 v 2.58 H 40.82 V 28.36 Z M 40,35.23 v -2.57 h 0.86 v 2.57 z M 41.68,37 v 2.58 H 40.82 V 37 Z m 0,8.6 v 2.57 h -0.86 v -2.62 z m 0,4.29 v 2.58 h -0.86 v -2.63 z m 0.86,0 h 1.29 v 2.58 h -1.29 z m 1.29,-1.72 h -1.29 v -2.62 h 1.29 z m -3,-4.29 v -2.63 h 1.29 v 2.58 z m 0.86,-8.6 V 32.66 H 43 v 2.57 z m 0.86,-4.29 v -2.63 h 1.29 v 2.58 z M 40,26.64 v -2.58 h 1.29 v 2.58 z m 2.58,-6.87 h 1.29 v 2.57 h -1.33 z m -3,0 H 40 v 2.57 H 39.57 Z M 37,24.06 h 0.43 v 2.58 H 37 Z m 2.58,4.3 H 40 v 2.58 h -0.43 z m 0,8.59 H 40 v 2.58 h -0.43 z m -1.72,4.3 h 0.43 v 2.58 h -0.43 z m 2.14,4.3 v 2.57 h -0.43 v -2.57 z m -0.43,4.29 H 40 v 2.58 h -0.43 z m 13.75,2.58 h -8.63 v -2.58 h 8.59 z M 51.6,43.83 H 43 v -2.58 h 8.59 z m 1.72,-4.3 H 44.69 V 37 h 8.59 z m -0.86,-4.3 h -8.63 v -2.57 h 8.59 z m 0.86,-4.29 h -8.63 v -2.58 h 8.59 z m -2.58,-4.3 h -8.63 v -2.58 h 8.59 z"
           id="path5083-5" />
        <path
           style="fill:#58595b;stroke-width:0.77651721"
           class="cls-1"
           d="M 7.2,31.61 A 1.29,1.29 0 0 0 8,34 1.31,1.31 0 0 0 8.75,33.76 L 45.6,7.5 l 3,4.19 5.33,-11.69 -12.8,1.21 3,4.18 z"
           id="path5085-1" />
        <path
           style="fill:#58595b;stroke-width:0.77651721"
           class="cls-1"
           d="M 6.2,16.93 A 3.73,3.73 0 0 1 5.39,15.26 l -3.5,0.34 a 6.15,6.15 0 0 0 1.85,3.69 6.54,6.54 0 0 0 3.77,1.56 V 23 h 2 V 20.78 A 6.69,6.69 0 0 0 13.55,19 5.07,5.07 0 0 0 15,15.26 4.53,4.53 0 0 0 13.83,12.05 9,9 0 0 0 9.44,10.05 V 5.29 a 2.51,2.51 0 0 1 1.61,1.94 l 3.4,-0.4 A 4.9,4.9 0 0 0 12.84,3.93 6.09,6.09 0 0 0 9.44,2.62 V 1.43 h -2 v 1.19 a 5.94,5.94 0 0 0 -3.7,1.55 4.48,4.48 0 0 0 -1.32,3.33 4.8,4.8 0 0 0 1.23,3.33 7.56,7.56 0 0 0 3.86,2.05 v 5.06 A 3.44,3.44 0 0 1 6.2,16.93 Z M 9.46,13.4 a 3.46,3.46 0 0 1 1.74,0.9 2,2 0 0 1 0.53,1.4 2.21,2.21 0 0 1 -0.63,1.57 2.79,2.79 0 0 1 -1.64,0.84 z M 6.21,8.55 A 1.87,1.87 0 0 1 5.78,7.36 2,2 0 0 1 6.25,6.08 2.47,2.47 0 0 1 7.51,5.26 V 9.44 A 3,3 0 0 1 6.21,8.55 Z"
           id="path5087-0" />
      </g>
    </g>
  </g>
</svg>
