<?xml version="1.0" encoding="UTF-8" standalone="no"?>
<svg
   xmlns:dc="http://purl.org/dc/elements/1.1/"
   xmlns:cc="http://creativecommons.org/ns#"
   xmlns:rdf="http://www.w3.org/1999/02/22-rdf-syntax-ns#"
   xmlns:svg="http://www.w3.org/2000/svg"
   xmlns="http://www.w3.org/2000/svg"
   id="svg231702"
   version="1.1"
   viewBox="0 0 20.652821 18.455212"
   height="18.455212mm"
   width="20.652821mm">
  <defs
     id="defs231696" />
  <metadata
     id="metadata231699">
    <rdf:RDF>
      <cc:Work
         rdf:about="">
        <dc:format>image/svg+xml</dc:format>
        <dc:type
           rdf:resource="http://purl.org/dc/dcmitype/StillImage" />
        <dc:title></dc:title>
      </cc:Work>
    </rdf:RDF>
  </metadata>
  <g
     transform="translate(822.21927,-129.77835)"
     id="layer1">
    <g
       style="stroke-width:1.20782065"
       transform="matrix(0.21858714,0,0,0.21953081,-822.12383,129.77835)"
       id="Layer_2-5-0"
       data-name="Layer 2">
      <g
         style="stroke-width:1.20782065"
         id="Layer_1-2-94-6"
         data-name="Layer 1">
        <polyline
           style="fill:none;stroke:#cccccc;stroke-width:1.65471423px;stroke-miterlimit:10"
           class="cls-1"
           points="82.46 16.37 46.8 1.78 11.14 16.37"
           id="polyline5254-4" />
        <path
           style="fill:#666666;stroke-width:1.20782065"
           class="cls-2"
           d="m 36.6,35.47 v -3.75 h -4.2 v 3.75 h -1.9 v -8.91 h 1.9 v 3.5 h 4.2 v -3.5 h 1.91 v 8.91 z"
           id="path5256-7" />
        <path
           style="fill:#666666;stroke-width:1.20782065"
           class="cls-2"
           d="M 40.66,35.47 V 26.56 H 47 v 1.67 h -4.4 v 1.87 h 4.31 v 1.67 h -4.35 v 2 H 47 v 1.67 z"
           id="path5258-4" />
        <path
           style="fill:#666666;stroke-width:1.20782065"
           class="cls-2"
           d="m 48.76,35.47 v -8.91 h 1.91 v 7.24 h 3.77 v 1.67 z"
           id="path5260-8" />
        <path
           style="fill:#666666;stroke-width:1.20782065"
           class="cls-2"
           d="m 56.12,35.47 v -8.91 h 4.16 a 2.87,2.87 0 1 1 0,5.73 H 58 v 3.18 z m 5.22,-6 A 1.21,1.21 0 0 0 60,28.23 h -2 v 2.39 h 2 a 1.2,1.2 0 0 0 1.34,-1.19 z"
           id="path5262-5" />
        <path
           style="fill:#666666;stroke-width:1.20782065"
           class="cls-2"
           d="M 25.56,49.82 24,43.7 22.45,49.82 h -2 L 17.91,40.91 H 20 l 1.56,6.44 1.7,-6.44 h 1.48 l 1.68,6.44 1.58,-6.44 h 2.12 l -2.53,8.91 z"
           id="path5264-8" />
        <path
           style="fill:#666666;stroke-width:1.20782065"
           class="cls-2"
           d="M 36.76,49.82 36.2,48.31 h -3.82 l -0.56,1.51 h -2.15 l 3.43,-8.91 h 2.38 l 3.43,8.91 z m -2.47,-7 -1.39,3.82 h 2.78 z"
           id="path5266-2" />
        <path
           style="fill:#666666;stroke-width:1.20782065"
           class="cls-2"
           d="M 46.28,49.82 42,44 v 5.81 h -1.9 v -8.9 h 2 l 4.12,5.6 v -5.6 h 1.9 v 8.91 z"
           id="path5268-6" />
        <path
           style="fill:#666666;stroke-width:1.20782065"
           class="cls-2"
           d="m 52.33,49.82 v -7.24 h -2.6 v -1.67 h 7.1 v 1.67 h -2.59 v 7.24 z"
           id="path5270-0" />
        <path
           style="fill:#666666;stroke-width:1.20782065"
           class="cls-2"
           d="m 58.44,49.82 v -8.91 h 6.3 v 1.67 h -4.4 v 1.87 h 4.31 v 1.67 h -4.31 v 2 h 4.4 v 1.67 z"
           id="path5272-6" />
        <path
           style="fill:#666666;stroke-width:1.20782065"
           class="cls-2"
           d="m 66.63,49.82 v -8.91 h 3.51 c 2.79,0 4.72,1.78 4.72,4.45 0,2.67 -1.93,4.46 -4.71,4.46 z m 6.3,-4.46 a 2.6,2.6 0 0 0 -2.78,-2.78 h -1.63 v 5.57 h 1.62 a 2.67,2.67 0 0 0 2.79,-2.79 z"
           id="path5274-6" />
        <rect
           style="fill:none;stroke:#666666;stroke-width:5.13323784px;stroke-miterlimit:10"
           class="cls-3"
           x="2.1300001"
           y="16.870001"
           width="89.349998"
           height="64.629997"
           rx="4.04"
           ry="4.04"
           id="rect5276-4" />
        <rect
           style="fill:none;stroke:#cccccc;stroke-width:1.65471423px;stroke-miterlimit:10"
           class="cls-1"
           x="16.16"
           y="57.259998"
           width="61.290001"
           height="14.96"
           rx="3.97"
           ry="3.97"
           id="rect5278-6" />
        <circle
           style="fill:#666666;stroke-width:1.20782065"
           class="cls-2"
           cx="46.799999"
           cy="1.78"
           r="1.78"
           id="circle5280-2" />
      </g>
    </g>
  </g>
</svg>
