<?xml version="1.0" encoding="UTF-8" standalone="no"?>
<svg
   xmlns:dc="http://purl.org/dc/elements/1.1/"
   xmlns:cc="http://creativecommons.org/ns#"
   xmlns:rdf="http://www.w3.org/1999/02/22-rdf-syntax-ns#"
   xmlns:svg="http://www.w3.org/2000/svg"
   xmlns="http://www.w3.org/2000/svg"
   id="svg253274"
   version="1.1"
   viewBox="0 0 12.607074 18.454"
   height="18.454mm"
   width="12.607074mm">
  <defs
     id="defs253268" />
  <metadata
     id="metadata253271">
    <rdf:RDF>
      <cc:Work
         rdf:about="">
        <dc:format>image/svg+xml</dc:format>
        <dc:type
           rdf:resource="http://purl.org/dc/dcmitype/StillImage" />
        <dc:title></dc:title>
      </cc:Work>
    </rdf:RDF>
  </metadata>
  <g
     transform="translate(305.66068,-35.284904)"
     id="layer1">
    <g
       style="stroke-width:0.69930977"
       transform="matrix(0.37834925,0,0,0.37834925,-305.66044,35.286796)"
       id="Layer_2-62-0"
       data-name="Layer 2">
      <g
         style="stroke-width:0.69930977"
         id="Layer_1-2-178-2"
         data-name="Layer 1">
        <path
           style="fill:#58595b;stroke-width:0.69930977"
           class="cls-1"
           d="M 32,45.68 H 1.29 A 1.22,1.22 0 0 1 0.07,44.46 v -34 A 1.22,1.22 0 0 1 1.29,9.27 H 32 a 1.22,1.22 0 0 1 1.22,1.22 v 34 A 1.22,1.22 0 0 1 32,45.68 Z M 2.51,43.25 H 30.82 V 11.7 H 2.51 Z"
           id="path5751-2" />
        <path
           style="fill:#58595b;stroke-width:0.69930977"
           class="cls-1"
           d="M 31.33,33.56 H 2 a 0.68,0.68 0 1 1 0,-1.35 h 29.33 a 0.68,0.68 0 1 1 0,1.35 z"
           id="path5753-9" />
        <path
           style="fill:#58595b;stroke-width:0.69930977"
           class="cls-1"
           d="M 31.33,22.75 H 2 a 0.68,0.68 0 0 1 0,-1.36 h 29.33 a 0.68,0.68 0 0 1 0,1.36 z"
           id="path5755-7" />
        <path
           style="fill:#58595b;stroke-width:0.69930977"
           class="cls-1"
           d="M 7.39,48.77 A 1.21,1.21 0 0 1 6.18,47.55 v -3.09 a 1.22,1.22 0 0 1 2.43,0 v 3.09 a 1.21,1.21 0 0 1 -1.22,1.22 z"
           id="path5757-5" />
        <path
           style="fill:#58595b;stroke-width:0.69930977"
           class="cls-1"
           d="m 25.93,48.77 a 1.22,1.22 0 0 1 -1.22,-1.22 v -3.09 a 1.22,1.22 0 0 1 2.43,0 v 3.09 a 1.21,1.21 0 0 1 -1.21,1.22 z"
           id="path5759-6" />
        <path
           style="fill:#58595b;stroke-width:0.69930977"
           class="cls-1"
           d="m 7.39,39.74 a 1.45,1.45 0 1 1 1.45,-1.45 1.45,1.45 0 0 1 -1.45,1.45 z m 0,-1.55 v 0.19 l 0.1,-0.09 a 0.09,0.09 0 0 0 -0.1,-0.1 z"
           id="path5761-4" />
        <path
           style="fill:#58595b;stroke-width:0.69930977"
           class="cls-1"
           d="M 12,39.74 A 1.45,1.45 0 1 1 13.45,38.29 1.45,1.45 0 0 1 12,39.74 Z m 0,-1.55 v 0.19 l 0.1,-0.09 A 0.1,0.1 0 0 0 12,38.19 Z"
           id="path5763-6" />
        <path
           style="fill:#58595b;stroke-width:0.69930977"
           class="cls-1"
           d="M 26.7,39.74 H 19 a 0.68,0.68 0 0 1 0,-1.36 h 7.7 a 0.68,0.68 0 0 1 0,1.36 z"
           id="path5765-3" />
        <path
           style="fill:#58595b;stroke-width:0.69930977"
           class="cls-1"
           d="m 7.39,28.92 a 1.45,1.45 0 1 1 1.45,-1.44 1.45,1.45 0 0 1 -1.45,1.44 z m 0,-1.54 v 0.19 l 0.1,-0.09 a 0.09,0.09 0 0 0 -0.1,-0.1 z"
           id="path5767-7" />
        <path
           style="fill:#58595b;stroke-width:0.69930977"
           class="cls-1"
           d="M 12,28.92 A 1.45,1.45 0 1 1 13.45,27.48 1.45,1.45 0 0 1 12,28.92 Z m 0,-1.54 v 0.19 l 0.1,-0.09 A 0.1,0.1 0 0 0 12,27.38 Z"
           id="path5769-9" />
        <path
           style="fill:#58595b;stroke-width:0.69930977"
           class="cls-1"
           d="M 26.7,28.92 H 19 A 0.68,0.68 0 0 1 18.32,28.25 0.69,0.69 0 0 1 19,27.57 h 7.7 a 0.69,0.69 0 0 1 0.68,0.68 0.68,0.68 0 0 1 -0.68,0.67 z"
           id="path5771-7" />
        <path
           style="fill:#58595b;stroke-width:0.69930977"
           class="cls-1"
           d="m 7.39,18.11 a 1.45,1.45 0 1 1 1.45,-1.45 1.45,1.45 0 0 1 -1.45,1.45 z m 0,-1.54 v 0.19 l 0.1,-0.1 a 0.09,0.09 0 0 0 -0.1,-0.09 z"
           id="path5773-4" />
        <path
           style="fill:#58595b;stroke-width:0.69930977"
           class="cls-1"
           d="M 12,18.11 A 1.45,1.45 0 1 1 13.45,16.66 1.45,1.45 0 0 1 12,18.11 Z m 0,-1.54 v 0.19 l 0.1,-0.1 A 0.1,0.1 0 0 0 12,16.57 Z"
           id="path5775-9" />
        <path
           style="fill:#58595b;stroke-width:0.69930977"
           class="cls-1"
           d="M 26.7,18.11 H 19 a 0.68,0.68 0 1 1 0,-1.35 h 7.7 a 0.68,0.68 0 1 1 0,1.35 z"
           id="path5777-1" />
        <path
           style="fill:#58595b;stroke-width:0.69930977"
           class="cls-1"
           d="M 1.22,11.7 A 1.2,1.2 0 0 1 0.67,11.57 1.21,1.21 0 0 1 0.13,9.94 L 4.76,0.68 A 1.22,1.22 0 0 1 6.94,1.76 L 2.3,11 a 1.2,1.2 0 0 1 -1.08,0.7 z"
           id="path5779-7" />
        <path
           style="fill:#58595b;stroke-width:0.69930977"
           class="cls-1"
           d="M 32.11,11.7 A 1.2,1.2 0 0 1 31,11 L 26.39,1.76 a 1.2119509,1.2119509 0 1 1 2.17,-1.08 l 4.63,9.26 a 1.21,1.21 0 0 1 -0.54,1.63 1.16,1.16 0 0 1 -0.54,0.13 z"
           id="path5781-0" />
        <path
           style="fill:#58595b;stroke-width:0.69930977"
           class="cls-1"
           d="M 27.47,2.43 H 5.85 A 1.22,1.22 0 1 1 5.85,0 h 21.62 a 1.22,1.22 0 1 1 0,2.43 z"
           id="path5783-6" />
      </g>
    </g>
  </g>
</svg>
