<?xml version="1.0" encoding="UTF-8" standalone="no"?>
<svg
   xmlns:dc="http://purl.org/dc/elements/1.1/"
   xmlns:cc="http://creativecommons.org/ns#"
   xmlns:rdf="http://www.w3.org/1999/02/22-rdf-syntax-ns#"
   xmlns:svg="http://www.w3.org/2000/svg"
   xmlns="http://www.w3.org/2000/svg"
   id="svg260189"
   version="1.1"
   viewBox="0 0 16.010099 18.453999"
   height="18.453999mm"
   width="16.010099mm">
  <defs
     id="defs260183" />
  <metadata
     id="metadata260186">
    <rdf:RDF>
      <cc:Work
         rdf:about="">
        <dc:format>image/svg+xml</dc:format>
        <dc:type
           rdf:resource="http://purl.org/dc/dcmitype/StillImage" />
        <dc:title></dc:title>
      </cc:Work>
    </rdf:RDF>
  </metadata>
  <g
     transform="translate(327.77291,-129.77896)"
     id="layer1">
    <g
       style="stroke-width:0.70384413"
       transform="matrix(0.3759118,0,0,0.3759118,-327.77289,129.7718)"
       id="Layer_2-75-0"
       data-name="Layer 2">
      <g
         style="stroke-width:0.70384413"
         id="Layer_1-2-38-8"
         data-name="Layer 1">
        <path
           style="fill:#58595b;stroke-width:0.70384413"
           class="cls-1"
           d="M 41.37,49 H 1.22 A 1.21,1.21 0 0 1 0,47.78 V 26.16 a 1.22,1.22 0 0 1 1.22,-1.22 h 40.15 a 1.22,1.22 0 0 1 1.22,1.22 V 47.78 A 1.22,1.22 0 0 1 41.37,49 Z M 2.43,46.57 H 40.16 V 27.38 H 2.43 Z"
           id="path5880-5" />
        <path
           style="fill:#58595b;stroke-width:0.70384413"
           class="cls-1"
           d="M 13.19,27.38 A 1.22,1.22 0 0 1 12,26.24 L 10.89,8.84 H 7 L 5.9,26.24 A 1.19,1.19 0 0 1 4.62,27.37 1.22,1.22 0 0 1 3.48,26.08 L 4.64,7.55 A 1.21,1.21 0 0 1 5.85,6.41 H 12 a 1.21,1.21 0 0 1 1.21,1.14 l 1.19,18.53 a 1.22,1.22 0 0 1 -1.14,1.29 z"
           id="path5882-3" />
        <path
           style="fill:#58595b;stroke-width:0.70384413"
           class="cls-1"
           d="M 25.54,27.38 A 1.21,1.21 0 0 1 24.33,26.24 L 23.24,8.84 h -3.89 l -1.09,17.4 A 1.2,1.2 0 0 1 17,27.37 1.22,1.22 0 0 1 15.86,26.08 L 17,7.55 a 1.22,1.22 0 0 1 1.22,-1.14 h 6.17 a 1.22,1.22 0 0 1 1.21,1.14 l 1.16,18.53 a 1.22,1.22 0 0 1 -1.14,1.29 z"
           id="path5884-9" />
        <path
           style="fill:#58595b;stroke-width:0.70384413"
           class="cls-1"
           d="m 36.74,27.38 a 1.22,1.22 0 0 1 -1.22,-1.22 v -4.63 a 1.87,1.87 0 1 0 -3.74,0 v 4.63 a 1.22,1.22 0 1 1 -2.43,0 v -4.63 a 4.31,4.31 0 1 1 8.61,0 v 4.63 a 1.22,1.22 0 0 1 -1.22,1.22 z"
           id="path5886-4" />
        <path
           style="fill:#58595b;stroke-width:0.70384413"
           class="cls-1"
           d="M 35.2,49 A 1.21,1.21 0 0 1 34,47.78 v -9.59 h -5.31 v 9.59 a 1.22,1.22 0 1 1 -2.43,0 V 37 a 1.21,1.21 0 0 1 1.21,-1.21 H 35.2 A 1.21,1.21 0 0 1 36.41,37 V 47.78 A 1.21,1.21 0 0 1 35.2,49 Z"
           id="path5888-1" />
        <path
           style="fill:#58595b;stroke-width:0.70384413"
           class="cls-1"
           d="M 12.8,38.42 H 6.62 A 0.67,0.67 0 0 1 6,37.74 v -4.63 a 0.67,0.67 0 0 1 0.67,-0.67 h 6.13 a 0.68,0.68 0 0 1 0.68,0.67 v 4.63 A 0.68,0.68 0 0 1 12.8,38.42 Z M 7.3,37.07 h 4.82 V 33.79 H 7.3 Z"
           id="path5890-5" />
        <path
           style="fill:#58595b;stroke-width:0.70384413"
           class="cls-1"
           d="m 22.07,38.42 h -6.18 a 0.68,0.68 0 0 1 -0.68,-0.68 v -4.63 a 0.68,0.68 0 0 1 0.68,-0.67 h 6.18 a 0.67,0.67 0 0 1 0.67,0.67 v 4.63 a 0.67,0.67 0 0 1 -0.67,0.68 z m -5.51,-1.35 h 4.83 v -3.28 h -4.83 z"
           id="path5892-4" />
        <path
           style="fill:#58595b;stroke-width:0.70384413"
           class="cls-1"
           d="m 30.43,6 a 3.21,3.21 0 0 1 -1,-0.18 4.61,4.61 0 0 1 -1,-0.45 6.9,6.9 0 0 1 -0.89,-0.64 C 27.27,4.5 27,4.26 26.74,4.01 L 26,3.26 25.28,2.56 C 25.04,2.35 24.81,2.15 24.56,1.97 a 3.12,3.12 0 0 0 -1.25,-0.56 2.82,2.82 0 0 0 -1.29,0 3.57,3.57 0 0 0 -1.33,0.59 0.68,0.68 0 1 1 -0.77,-1.08 5.27,5.27 0 0 1 1.74,-0.8 4.38,4.38 0 0 1 1.87,0 4.58,4.58 0 0 1 1.79,0.8 10.46,10.46 0 0 1 0.83,0.69 c 0.26,0.23 0.51,0.48 0.76,0.73 l 0.73,0.73 c 0.24,0.22 0.48,0.45 0.72,0.65 a 6,6 0 0 0 0.72,0.52 4.53,4.53 0 0 0 0.72,0.33 2.58,2.58 0 0 0 0.66,0.1 1.38,1.38 0 0 0 0.6,-0.13 0.6736839,0.6736839 0 0 1 0.55,1.23 A 3,3 0 0 1 30.48,6 Z"
           id="path5894-1" />
        <path
           style="fill:#58595b;stroke-width:0.70384413"
           class="cls-1"
           d="M 36.88,4.44 A 5.34,5.34 0 0 1 36.19,4.39 C 35.96,4.39 35.73,4.3 35.51,4.24 35.29,4.18 35.08,4.1 34.88,4.02 34.68,3.94 34.5,3.86 34.32,3.78 L 33.79,3.53 33.29,3.3 32.8,3.11 a 3.67,3.67 0 0 0 -0.91,-0.19 4.41,4.41 0 0 0 -1,0 4.17,4.17 0 0 0 -0.93,0.2 0.68,0.68 0 0 1 -0.85,-0.43 0.66,0.66 0 0 1 0.43,-0.85 5.82,5.82 0 0 1 1.2,-0.27 6.42,6.42 0 0 1 1.24,0 5.29,5.29 0 0 1 1.22,0.26 l 0.59,0.23 0.54,0.25 0.51,0.24 0.5,0.22 0.5,0.17 a 4.64,4.64 0 0 0 0.51,0.11 2.24,2.24 0 0 0 0.51,0 2.42,2.42 0 0 0 0.47,0 0.67468511,0.67468511 0 1 1 0.28,1.32 3.36,3.36 0 0 1 -0.73,0.07 z"
           id="path5896-5" />
      </g>
    </g>
  </g>
</svg>
