<?xml version="1.0" encoding="UTF-8" standalone="no"?>
<svg
   xmlns:dc="http://purl.org/dc/elements/1.1/"
   xmlns:cc="http://creativecommons.org/ns#"
   xmlns:rdf="http://www.w3.org/1999/02/22-rdf-syntax-ns#"
   xmlns:svg="http://www.w3.org/2000/svg"
   xmlns="http://www.w3.org/2000/svg"
   id="svg282423"
   version="1.1"
   viewBox="0 0 19.113489 18.454"
   height="18.454mm"
   width="19.113489mm">
  <defs
     id="defs282417" />
  <metadata
     id="metadata282420">
    <rdf:RDF>
      <cc:Work
         rdf:about="">
        <dc:format>image/svg+xml</dc:format>
        <dc:type
           rdf:resource="http://purl.org/dc/dcmitype/StillImage" />
        <dc:title></dc:title>
      </cc:Work>
    </rdf:RDF>
  </metadata>
  <g
     transform="translate(962.05674,-291.55276)"
     id="layer1">
    <g
       style="stroke-width:1.04628193"
       transform="matrix(0.25287958,0,0,0.25287958,-962.05674,291.55952)"
       id="Layer_2-23-0"
       data-name="Layer 2">
      <g
         style="stroke-width:1.04628193"
         id="Layer_1-2-75-4"
         data-name="Layer 1">
        <path
           style="fill:#616161;stroke-width:1.04628193"
           class="cls-1"
           d="m 16.5,72.94 c -0.43,0 -0.85,0 -1.23,-0.07 A 4.58,4.58 0 0 0 14.6,72.82 H 14.38 14.15 L 2.5,70.34 0,61.18 30.81,29.84 C 26.88,21.23 28.38,13.43 35.26,6.63 A 23.18,23.18 0 0 1 52.63,0 24.23,24.23 0 0 1 70,8.73 23.61,23.61 0 0 1 68.67,40.67 c -6,5.86 -14.49,7.72 -22.87,5.07 l -3.6,3.64 -5.88,-0.1 v 5.48 l -5.48,-0.1 v 5.48 L 24.06,60 v 6.85 L 20,66.79 v 2.08 a 3.82,3.82 0 0 1 -1.24,3.32 3.09,3.09 0 0 1 -2.26,0.75 z m -1.84,-3.48 c 0.28,0 0.59,0 0.91,0.06 0.32,0.06 0.74,0.06 1,0.06 v 0 c 0,-0.07 0,-0.51 0,-0.65 V 63.4 l 4.11,0.08 v -6.85 l 6.85,0.12 v -5.47 l 5.48,0.09 V 45.9 l 7.89,0.14 4.1,-4.13 1,0.36 c 7.46,2.7 15.09,1.21 20.41,-4 a 20.24,20.24 0 0 0 1.1,-27.38 20.68,20.68 0 0 0 -15,-7.5 A 19.54,19.54 0 0 0 37.62,9 c -6.18,6.11 -7.23,12.59 -3.28,20.4 l 0.54,1.07 -31.13,31.69 1.45,5.31 z"
           id="path2891-8" />
        <path
           style="fill:#616161;stroke-width:1.04628193"
           class="cls-1"
           d="M 58,23.15 H 57.89 A 5.83,5.83 0 0 1 52.21,17.4 v 0 a 5.52,5.52 0 0 1 5.65,-5.58 5.82,5.82 0 0 1 5.68,5.75 A 5.51,5.51 0 0 1 58,23.15 Z M 53.41,17.39 A 4.6,4.6 0 0 0 57.94,22 4.39,4.39 0 0 0 61.09,20.75 4.3,4.3 0 0 0 62.37,17.63 4.61,4.61 0 0 0 57.86,13 4.32,4.32 0 0 0 53.44,17.37 Z"
           id="path2893-7" />
        <rect
           style="fill:#616161;stroke-width:1.04628193"
           class="cls-1"
           x="4.5"
           y="48.25"
           width="38.82"
           height="1.2"
           transform="rotate(-45,23.903803,48.848721)"
           id="rect2895-0" />
      </g>
    </g>
  </g>
</svg>
