<?xml version="1.0" encoding="UTF-8" standalone="no"?>
<svg
   xmlns:dc="http://purl.org/dc/elements/1.1/"
   xmlns:cc="http://creativecommons.org/ns#"
   xmlns:rdf="http://www.w3.org/1999/02/22-rdf-syntax-ns#"
   xmlns:svg="http://www.w3.org/2000/svg"
   xmlns="http://www.w3.org/2000/svg"
   id="svg289303"
   version="1.1"
   viewBox="0 0 18.455246 18.453999"
   height="18.453999mm"
   width="18.455246mm">
  <defs
     id="defs289297" />
  <metadata
     id="metadata289300">
    <rdf:RDF>
      <cc:Work
         rdf:about="">
        <dc:format>image/svg+xml</dc:format>
        <dc:type
           rdf:resource="http://purl.org/dc/dcmitype/StillImage" />
        <dc:title></dc:title>
      </cc:Work>
    </rdf:RDF>
  </metadata>
  <g
     transform="translate(-194.12357,-228.80872)"
     id="layer1">
    <g
       style="stroke-width:0.60224938"
       transform="matrix(0.4393252,0,0,0.4393252,194.12715,228.81106)"
       id="Layer_2-977-5"
       data-name="Layer 2">
      <g
         style="stroke-width:0.60224938"
         id="Layer_1-2-643-4"
         data-name="Layer 1">
        <g
           style="stroke-width:0.60224938"
           id="path17-6-9">
          <path
             style="fill:#58595b;stroke-width:0.60224938"
             class="cls-1"
             d="M 32.92,42 H 32.86 32.58 L 32.2,41.91 a 10.26,10.26 0 0 1 -1.83,-0.54 c -14.06,-6 -24,-16 -29.58,-29.54 A 8.54,8.54 0 0 1 0.67,4.89 9,9 0 0 1 6.28,0.28 a 4.77,4.77 0 0 1 3.25,0 c 2.39,0.87 7.83,8.24 8,10.79 0.13,2.36 -1.64,3.55 -2.59,4.19 -1.36,0.92 -1.58,2 -0.79,3.73 a 17.29,17.29 0 0 0 9.2,8.88 c 1.63,0.74 2.33,0.12 2.81,-0.58 A 5.64,5.64 0 0 1 29.75,24.6 6.39,6.39 0 0 1 34.6,26 l 0.69,0.48 c 1.07,0.74 2.18,1.51 3.23,2.35 l 0.6,0.46 c 1.56,1.19 3.71,2.81 2.55,6.07 C 40.51,38.62 36.7,42 32.92,42 Z M 7.91,2.23 A 2.86,2.86 0 0 0 7,2.4 6.79,6.79 0 0 0 2.71,5.82 6.35,6.35 0 0 0 2.86,10.93 C 8.2,24 17.75,33.49 31.25,39.27 a 9.78,9.78 0 0 0 1.43,0.41 l 0.33,0.07 c 2.47,0 5.62,-2.5 6.55,-5.11 0.59,-1.63 -0.17,-2.3 -1.8,-3.53 l -0.64,-0.5 v 0 c -1,-0.79 -2.06,-1.54 -3.1,-2.26 l -0.7,-0.48 A 4.39,4.39 0 0 0 30.14,26.81 3.5,3.5 0 0 0 28,28.53 c -1.3,1.94 -3.29,2.47 -5.6,1.39 a 19.7,19.7 0 0 1 -10.32,-10 c -1.24,-2.76 -0.71,-4.95 1.58,-6.49 1.1,-0.74 1.66,-1.29 1.6,-2.21 C 15.17,9.55 10.31,3 8.76,2.39 A 2.51,2.51 0 0 0 7.91,2.23 Z"
             id="path6190-8" />
        </g>
      </g>
    </g>
  </g>
</svg>
