<?xml version="1.0" encoding="utf-8"?>
<!-- Generator: Adobe Illustrator 23.0.3, SVG Export Plug-In . SVG Version: 6.00 Build 0)  -->
<svg version="1.1" id="Layer_1" xmlns="http://www.w3.org/2000/svg" xmlns:xlink="http://www.w3.org/1999/xlink" x="0px" y="0px"
	 viewBox="0 0 45.5 42.3" style="enable-background:new 0 0 45.5 42.3;" xml:space="preserve">
<style type="text/css">
	.st0{fill:#58595B;stroke:none;stroke-width:0.75;}
	.st1{fill:#58595B;}
</style>
<path class="st0" d="M11.2,16c0.2,0.2,0.3,0.4,0.5,0.5c0.5,1.6,1.4,3.1,2.6,4.4c1.1,1.4,2.8,2.2,4.6,2.2H19c1.8,0,3.4-0.8,4.6-2.2
	c1.2-1.3,2.1-2.8,2.6-4.4c0.2-0.1,0.4-0.3,0.5-0.5c0.4-0.5,0.7-1.1,0.9-1.8c0.2-0.6,0.3-1.2,0.3-1.9c0-0.1,0-0.3,0-0.4
	c-0.1-0.6-0.3-1.1-0.7-1.6c-0.1-0.1-0.2-0.2-0.3-0.3V9.8c0.5-2.6-0.2-7.4-5.4-9c-0.8-0.3-1.6-0.4-2.5-0.4c-2,0-3.8,0.8-5.2,2.2
	c-0.9,0.1-1.8,0.6-2.3,1.3C10.9,4.7,10,6.5,10.9,10l-0.2,0.2c-0.4,0.5-0.6,1-0.7,1.6c0,0.2,0,0.3,0,0.5c0,0.9,0.2,1.7,0.5,2.5
	C10.7,15.3,10.9,15.7,11.2,16z M12.7,4.8C13,4.3,13.5,4,14.1,4c0.2,0,0.5-0.1,0.6-0.3c1.1-1.2,2.6-1.9,4.3-1.9c0.7,0,1.4,0.1,2,0.3
	c3.2,0.9,5.1,4.1,4.4,7.3c0,0.2-0.1,0.4-0.1,0.6v0.2c-1.5,0.2-4.5-1.3-6.4-4.2c-0.4-0.7-1.1-1.2-1.9-1.2c-1.6-0.1-3,1.6-3,1.7
	c-0.7,1.1-1.3,2.2-1.6,3.4C11.6,6.9,12.2,5.4,12.7,4.8z M11.5,12L11.5,12c0-0.3,0.1-0.5,0.2-0.7c0,0.2,0,0.3,0.1,0.4
	c0.1,0.6,0.1,0.8,0.4,0.8s0.3-0.2,0.4-0.6c0.3-1.8,1-3.5,1.9-5c0,0,1.3-1.6,2.5-1.5c0.6,0.1,1.1,0.4,1.4,1c2,3,5.3,4.8,7.1,4.4
	l-0.2,1c0,0.2,0.1,0.3,0.2,0.3l0,0c0.2,0,0.3-0.1,0.4-0.2l0.2-0.8c0.2,0.2,0.3,0.5,0.3,0.8c0,0.1,0,0.2,0,0.3c0,0.5-0.1,1-0.2,1.5
	s-0.3,0.9-0.6,1.3c-0.1,0.1-0.2,0.2-0.4,0.3c-0.2,0.1-0.3,0.3-0.4,0.5c-0.4,1.5-1.3,2.9-2.3,4.1c-0.8,1.1-2.1,1.7-3.5,1.7h-0.1
	c-1.4,0-2.6-0.6-3.5-1.7c-1.1-1.1-1.9-2.5-2.3-4.1c-0.1-0.2-0.2-0.4-0.4-0.5c-0.1-0.1-0.3-0.2-0.4-0.3c-0.2-0.2-0.3-0.5-0.5-0.8
	c-0.3-0.6-0.4-1.3-0.4-1.9C11.4,12.2,11.4,12.2,11.5,12L11.5,12z"/>
<path class="st1" d="M16.5,18.4c0.8,0.4,1.6,0.6,2.5,0.6s1.7-0.2,2.5-0.6c0.1-0.1,0.2-0.3,0.1-0.4s-0.2-0.2-0.3-0.1
	c-1.4,0.7-3.1,0.7-4.4,0c-0.1-0.1-0.3,0-0.4,0.1C16.2,18.2,16.3,18.4,16.5,18.4L16.5,18.4L16.5,18.4z"/>
<path class="st1" d="M15.6,11.4c0.5,0,0.9,0.5,0.9,1.2s-0.4,1.2-0.9,1.2c-0.5,0-0.9-0.5-0.9-1.2C14.7,12,15.1,11.4,15.6,11.4z"/>
<path class="st1" d="M22,11.4c0.5,0,0.9,0.5,0.9,1.2s-0.4,1.2-0.9,1.2s-0.9-0.5-0.9-1.2C21.1,12,21.5,11.4,22,11.4z"/>
<path class="st1" d="M18.3,16.4h0.2c0.1,0,0.3,0,0.4-0.1s0.2-0.3,0.1-0.4c-0.1-0.1-0.3-0.2-0.4-0.1h-0.1l-0.2-0.1
	c-0.1-0.2-0.1-0.4-0.1-0.6c0.1-0.5,0.2-1,0.4-1.5c0.1-0.1,0-0.3-0.1-0.4s-0.3,0-0.4,0.1l0,0c-0.3,0.5-0.4,1.1-0.5,1.7
	c-0.1,0.3,0,0.7,0.1,1C17.8,16.2,18,16.3,18.3,16.4z"/>
<rect x="15" y="10.3" transform="matrix(0.3896 -0.921 0.921 0.3896 -1.2489 21.068)" class="st1" width="0.5" height="2.4"/>
<rect x="21.1" y="11.3" transform="matrix(0.9211 -0.3892 0.3892 0.9211 -2.7312 9.5976)" class="st1" width="2.4" height="0.5"/>
<path class="st0" d="M27.6,36.9H20l7.4-8c0.1-0.1,0.1-0.3,0-0.4l-1.6-2.1l2.3-1.6l3.4,1.1c0.7,0.2,1.3,0.8,1.5,1.6l0.1,0.2l0.2-0.4
	c0.2-0.4,0.4-0.7,0.8-1c-0.5-0.8-1.2-1.5-2.1-1.8l-7.1-2.3c-0.2-0.1-0.4,0-0.6,0.1L19,25.7l-5.3-3.4c-0.2-0.1-0.4-0.1-0.6-0.1
	L6,24.5c-1.2,0.4-2.1,1.3-2.4,2.5L0.4,37.4c-0.1,0.2,0,0.5,0.1,0.7s0.4,0.3,0.6,0.3h25.8c0.1-0.1,0.1-0.3,0.2-0.4L27.6,36.9z
	 M6.3,36.9v-4.6C6.3,32.1,6.2,32,6,32l0,0c-0.2,0-0.3,0.1-0.3,0.3v4.6H2l2.9-9.5c0.2-0.7,0.8-1.3,1.5-1.5l3.3-1.1l2.3,1.6l-1.6,2.1
	c-0.1,0.1-0.1,0.3,0,0.4l7.4,8H6.3z M11,28.6l1.6-2.1l0.1-0.2l-0.1-0.2l-2.2-1.5l2.5-0.8l5.2,12.5L11,28.6z M18.3,29.4l-0.6,2.7
	l-3.1-7.5l3.9,2.5l-1,1.2L18.3,29.4z M19.4,27.1l3.9-2.5l-3.1,7.5l-0.6-2.7l0.8-1L19.4,27.1z M24.9,23.7l2.5,0.8L25.2,26l-0.1,0.2
	l0.1,0.2l1.6,2.1L19.9,36L24.9,23.7z"/>
<path class="st0" d="M42.8,42H30.3c-0.8,0-1.5-0.4-1.9-1.1c-0.4-0.7-0.4-1.5,0-2.2L34.7,28c0.6-1,2-1.4,3-0.8
	c0.3,0.2,0.6,0.5,0.8,0.8l6.3,10.7c0.4,0.7,0.4,1.5,0,2.2C44.3,41.6,43.6,42,42.8,42z M36.5,28.3c-0.3,0-0.6,0.1-0.8,0.4l-6.3,10.7
	c-0.2,0.2-0.2,0.6,0,0.8c0.2,0.3,0.4,0.4,0.8,0.4h12.5c0.3,0,0.6-0.1,0.8-0.4c0.2-0.2,0.2-0.6,0-0.8l-6.3-10.7
	C37.1,28.4,36.8,28.3,36.5,28.3z"/>
<path class="st1" d="M37.8,38.6c0,0.7-0.6,1.3-1.3,1.3s-1.3-0.6-1.3-1.3s0.6-1.3,1.3-1.3l0,0C37.3,37.2,37.8,37.8,37.8,38.6
	L37.8,38.6z"/>
<path class="st1" d="M37.3,35.8c0.1,0.4-0.1,0.8-0.5,0.9c-0.4,0.1-0.8-0.1-0.9-0.5c0-0.1,0-0.3,0-0.4l-0.4-3.1
	c-0.1-0.6,0.3-1.2,0.9-1.2s1.2,0.3,1.2,0.9c0,0.1,0,0.2,0,0.3L37.3,35.8z"/>
</svg>
