<?xml version="1.0" encoding="utf-8"?>
<!-- Generator: Adobe Illustrator 23.0.3, SVG Export Plug-In . SVG Version: 6.00 Build 0)  -->
<svg version="1.1" id="Layer_1" xmlns="http://www.w3.org/2000/svg" xmlns:xlink="http://www.w3.org/1999/xlink" x="0px" y="0px"
	 viewBox="0 0 45.7 46.9" style="enable-background:new 0 0 45.7 46.9;" xml:space="preserve">
<style type="text/css">
	.st0{fill:#58595B;}
	.st1{fill:#58595B;stroke:none;}
	.st2{fill:none;stroke:none;stroke-width:0.75;}
	.st3{fill:#58595B;stroke:none;stroke-width:0.75;}
</style>
<path class="st0" d="M16.6,22.8c0.8,0.4,1.6,0.6,2.5,0.6s1.7-0.2,2.5-0.6c0.1-0.1,0.2-0.2,0.1-0.4c-0.1-0.1-0.2-0.2-0.4-0.1l0,0
	c-1.4,0.7-3.1,0.7-4.4,0c-0.1-0.1-0.3,0-0.4,0.1C16.3,22.6,16.4,22.7,16.6,22.8z"/>
<path class="st0" d="M15.7,15.8c0.5,0,0.9,0.5,0.9,1.2s-0.4,1.2-0.9,1.2c-0.5,0-0.9-0.5-0.9-1.2S15.2,15.8,15.7,15.8z"/>
<path class="st0" d="M22.1,15.8c0.5,0,0.9,0.5,0.9,1.2s-0.4,1.2-0.9,1.2s-0.9-0.5-0.9-1.2S21.6,15.8,22.1,15.8z"/>
<path class="st0" d="M18.4,20.8h0.2c0.1,0,0.3,0,0.4-0.1s0.2-0.3,0.1-0.4s-0.3-0.2-0.4-0.1h-0.1l-0.2-0.1c-0.1-0.2-0.1-0.4-0.1-0.6
	c0.1-0.5,0.2-1,0.4-1.5c0.1-0.1,0-0.3-0.1-0.4l0,0c-0.1-0.1-0.3,0-0.4,0.1c-0.3,0.5-0.4,1.1-0.5,1.7c-0.1,0.3,0,0.7,0.1,1
	C17.9,20.5,18.1,20.7,18.4,20.8z"/>
<rect x="15.3" y="14.7" transform="matrix(0.3892 -0.9212 0.9212 0.3892 -5.1601 24.0087)" class="st0" width="0.5" height="2.4"/>
<rect x="21.2" y="15.6" transform="matrix(0.9211 -0.3894 0.3894 0.9211 -4.4064 9.9918)" class="st0" width="2.4" height="0.5"/>
<path class="st1" d="M42.9,46.4H30.4c-0.8,0-1.5-0.4-1.9-1.1s-0.4-1.5,0-2.2l6.3-10.7c0.6-1,2-1.4,3-0.8c0.3,0.2,0.6,0.5,0.8,0.8
	l6.3,10.7c0.4,0.7,0.4,1.5,0,2.2C44.4,45.9,43.7,46.4,42.9,46.4z M36.6,32.6c-0.3,0-0.6,0.1-0.8,0.4l-6.3,10.7
	c-0.1,0.2-0.1,0.5,0,0.8s0.4,0.4,0.8,0.4h12.5c0.3,0,0.6-0.1,0.8-0.4c0.1-0.2,0.1-0.5,0-0.8L37.3,33C37.2,32.8,36.9,32.6,36.6,32.6z
	"/>
<path class="st0" d="M37.9,42.9c0,0.7-0.6,1.3-1.3,1.3s-1.3-0.6-1.3-1.3s0.6-1.3,1.3-1.3l0,0C37.4,41.6,37.9,42.2,37.9,42.9z"/>
<path class="st0" d="M37.4,40.1c0.1,0.4-0.1,0.8-0.5,0.9s-0.8-0.1-0.9-0.5c0-0.1,0-0.3,0-0.4L35.6,37c-0.1-0.6,0.3-1.2,0.9-1.2
	c0.6-0.1,1.2,0.3,1.2,0.9c0,0.1,0,0.2,0,0.3L37.4,40.1z"/>
<rect x="15" y="28.7" class="st0" width="0.5" height="8.6"/>
<path class="st0" d="M15.3,35.4L15.3,35.4c0.4,0,0.6,0.3,0.6,0.6s-0.3,0.6-0.6,0.6s-0.6-0.3-0.6-0.6S14.9,35.4,15.3,35.4z"/>
<rect x="22.4" y="28.7" class="st0" width="0.5" height="8.6"/>
<path class="st0" d="M22.7,35.4L22.7,35.4c0.4,0,0.6,0.3,0.6,0.6s-0.3,0.6-0.6,0.6c-0.4,0-0.6-0.3-0.6-0.6S22.3,35.4,22.7,35.4z"/>
<path class="st0" d="M25.6,13.6v0.3c0,0.2-0.1,0.4-0.1,0.6v0.2c-1.1,0.2-3.3-0.8-5-2.5h-0.8c2,2.2,4.6,3.4,6.1,3.1l-0.2,1
	c0,0.2,0.1,0.3,0.2,0.4c0.2,0,0.3-0.1,0.4-0.2l0.2-0.8c0.2,0.2,0.3,0.5,0.3,0.8c0,0.1,0,0.2,0,0.3c0,0.5-0.1,1-0.2,1.5
	s-0.3,0.9-0.6,1.3c-0.1,0.1-0.2,0.2-0.4,0.3c-0.2,0.1-0.3,0.3-0.4,0.5c-0.4,1.5-1.2,2.9-2.3,4.1c-0.8,1.1-2.1,1.7-3.5,1.7h-0.1
	c-1.4,0-2.6-0.6-3.5-1.7c-1.1-1.1-1.9-2.5-2.4-4.1c-0.1-0.2-0.2-0.4-0.4-0.5c-0.1-0.1-0.3-0.2-0.4-0.3c-0.2-0.2-0.3-0.5-0.5-0.8
	c-0.3-0.6-0.4-1.3-0.4-1.9c0-0.1,0-0.2,0-0.3c0-0.3,0.1-0.5,0.2-0.7c0,0.2,0,0.3,0.1,0.4c0.1,0.6,0.1,0.8,0.4,0.8s0.3-0.2,0.4-0.6
	c0.2-1.1,0.5-2.2,0.9-3.2c-0.3,0.1-0.6,0.3-0.8,0.5c-0.1,0.3-0.2,0.5-0.3,0.8c0-0.2-0.1-0.3-0.1-0.5c-1.4,1.1-2.2,2.9-2,4.7
	c0.1,0.2,0.1,0.4,0.2,0.6c0.2,0.4,0.4,0.8,0.7,1.1c0.2,0.2,0.3,0.4,0.5,0.5c0.5,1.6,1.4,3.1,2.6,4.4c1.1,1.4,2.8,2.2,4.6,2.2h0.1
	c1.8,0,3.4-0.8,4.6-2.2c1.2-1.3,2.1-2.8,2.6-4.4c0.2-0.1,0.4-0.3,0.5-0.5c0.4-0.5,0.7-1.1,0.9-1.8c0.1-0.2,0.1-0.5,0.2-0.8
	C27.8,16.2,27,14.6,25.6,13.6z"/>
<g>
	<path class="st2" d="M12.1,26.6c-1.2-2.1-3.9-7.6-1.9-11.4c1.3-2.5,4.3-3.8,8.9-3.8c4.6,0,7.4,1.3,8.7,3.7
		c2.3,3.9-0.5,9.4-1.8,11.6l1.2,0.4c2-4.3,3.9-12.4,1-17.3L28,9.7c-1.8-2.9-4.4-7.4-9.3-7.4h-0.3c-3.5,0-5.6,4-7.1,7
		c-0.4,0.7-0.7,1.4-1,1.9C6.9,16.7,9.1,24.3,10.9,27L12.1,26.6z"/>
	<path class="st2" d="M26.5,15.8c-1-1.9-3.5-2.9-7.3-2.9s-6.5,1-7.5,2.9C9.6,19.7,14,26.4,14,26.4l0.3,0.4l4.8,3.1l5.1-3.2
		C25.6,24.5,28.3,19.1,26.5,15.8z"/>
	<path class="st3" d="M32.1,28.7l-3.5-1.1c2.2-4.8,4.2-13.3,0.9-18.8l-0.1-0.1c-1.8-3.1-4.8-8.2-10.7-8.2h-0.3
		c-4.4,0-6.9,4.8-8.5,7.9c-0.4,0.7-0.7,1.3-1,1.8c-3.6,5.9-1.6,14,0.6,17.4l-3.4,1.1C4.9,29.1,4,30,3.7,31.2L0.5,41.6
		c-0.1,0.2,0,0.5,0.1,0.7c0.1,0.2,0.4,0.3,0.6,0.3H27c0.1-0.1,0.1-0.3,0.2-0.4l0.6-1H6.4v-4.6c0-0.2-0.1-0.3-0.3-0.3
		c-0.2,0-0.3,0.1-0.3,0.3v4.6H2.1L5,31.7c0.2-0.7,0.8-1.3,1.5-1.5l6.6-2.1l1.6,0.9l3.9,2.5h0.9l3.9-2.5l1.4-0.8l2.6,0.6l4.2,1.4
		c0.7,0.2,1.3,0.8,1.5,1.5l0.1,0.2l0.2-0.4c0.2-0.4,0.5-0.7,0.8-1C33.7,29.7,33,29,32.1,28.7z M10.3,11.2c0.3-0.5,0.6-1.2,1-1.9
		c1.5-3,3.6-7,7.1-7h0.3c4.9,0,7.5,4.5,9.3,7.4l0.1,0.1c2.9,4.9,1,13-1,17.3L26,26.7c1.3-2.3,4.1-7.8,1.8-11.6
		c-1.3-2.4-4.1-3.7-8.7-3.7c-4.6,0-7.6,1.3-8.9,3.8c-2,3.8,0.7,9.3,1.9,11.4L10.9,27C9.1,24.3,6.9,16.7,10.3,11.2z M19.1,29.9
		l-4.8-3.1L14,26.4c0,0-4.4-6.7-2.3-10.6c1-1.9,3.7-2.9,7.5-2.9s6.3,1,7.3,2.9c1.7,3.3-1,8.7-2.3,10.9L19.1,29.9z"/>
</g>
</svg>
