<?xml version="1.0" encoding="utf-8"?>
<!-- Generator: Adobe Illustrator 23.0.3, SVG Export Plug-In . SVG Version: 6.00 Build 0)  -->
<!-- <svg version="1.1"
	 id="svg97878" xmlns:cc="http://creativecommons.org/ns#" xmlns:dc="http://purl.org/dc/elements/1.1/" xmlns:rdf="http://www.w3.org/1999/02/22-rdf-syntax-ns#" xmlns:svg="http://www.w3.org/2000/svg"
	 xmlns="http://www.w3.org/2000/svg" xmlns:xlink="http://www.w3.org/1999/xlink" x="0px" y="0px" viewBox="0 0 52.3 52.3"
	 style="enable-background:new 0 0 52.3 52.3;" xml:space="preserve"> -->

<svg width="100%" height="100%" viewBox="-0.5 -0.5 53.3 53.3" xmlns="http://www.w3.org/2000/svg" xmlns:svg="http://www.w3.org/2000/svg" xmlns:se="http://svg-edit.googlecode.com" data-name="Layer 1">

<style type="text/css">
	.st0{fill:#58595B;stroke:none;stroke-width:2;}
	.st1{fill:#58595B;}
</style>
<g id="layer1" transform="translate(-269.71773,99.274619)">
	<g id="Layer_2-90-3" transform="matrix(0.29576281,0,0,0.29576281,269.75036,-99.273359)">
		<g id="Layer_1-2-91-5">
			<path id="path5313-7" class="st0" d="M139.9,48.7c25.4,32,20,78.5-12,103.9s-78.5,20-103.9-12S4,62.1,36,36.7
				c27-21.4,65.2-21.4,92.1,0.1l6-5.9C98.8,2.3,47.1,7.5,18.4,42.7s-23.4,87,11.8,115.7s87,23.4,115.7-11.8
				c24.6-30.2,24.6-73.6,0-103.9L139.9,48.7z"/>
			<path id="path5315-0" class="st1" d="M176,18.6l-10.4-3.5l2.1-2.1c1.3-0.9,1.6-2.6,0.7-3.9c-0.9-1.3-2.6-1.6-3.9-0.7
				c-0.3,0.2-0.5,0.4-0.7,0.7l-2.1,2.2L158.2,1c-0.2-0.5-0.6-0.9-1.1-1s-1,0.2-1.3,0.6L141,22.9c-0.2,0.3-0.3,0.6-0.2,0.9l0.7,7.8
				l-61.2,61c-1.1,1.1-1,2.9,0.1,4c0.5,0.5,1.1,0.7,1.8,0.8c0.7,0,1.5-0.3,2-0.8l61.1-61.1l7.7,0.7h0.3c0.3,0,0.5-0.1,0.8-0.2
				l22.3-14.8c0.4-0.3,0.6-0.8,0.5-1.2C176.8,19.3,176.4,18.8,176,18.6z M143.5,24l13-19.5l3,8.9L144,28.9L143.5,24z M152.8,33.3
				l-5-0.5l15.5-15.5l8.9,2.8L152.8,33.3z"/>
			<path id="path5317-8" class="st1" d="M114.2,50.8C90,33.1,56,38.4,38.4,62.6S26,120.8,50.2,138.5s58.2,12.4,75.9-11.8
				c13.9-19.1,13.9-45,0-64.1l-3.9,4c15.5,22,10.3,52.5-11.7,68s-52.5,10.3-68-11.7S32,70.4,54.1,54.8c16.8-11.9,39.3-11.9,56.2-0.1
				L114.2,50.8z"/>
			<path id="path5319-1" class="st1" d="M93,72c-3.4-1.6-7-2.5-10.8-2.5c-13.9,0-25.1,11.3-25,25.2c0,13.9,11.3,25.1,25.2,25
				c13.9,0,25.1-11.3,25-25.2c0-3.8-0.9-7.5-2.5-10.9l-16.8,16.8c-1.6,1.6-3.7,2.4-5.9,2.4c-2.2,0-4.3-0.9-5.9-2.4
				c-1.5-1.6-2.4-3.7-2.4-5.9c0-2.2,0.9-4.3,2.4-5.9L93,72z"/>
		</g>
	</g>
</g>
</svg>
