<?xml version="1.0" encoding="iso-8859-1"?>
<!-- Generator: Adobe Illustrator 23.0.3, SVG Export Plug-In . SVG Version: 6.00 Build 0)  -->
<!-- <svg version="1.1"
	 id="svg117990" xmlns:cc="http://creativecommons.org/ns#" xmlns:dc="http://purl.org/dc/elements/1.1/" xmlns:rdf="http://www.w3.org/1999/02/22-rdf-syntax-ns#" xmlns:svg="http://www.w3.org/2000/svg"
	 xmlns="http://www.w3.org/2000/svg" xmlns:xlink="http://www.w3.org/1999/xlink" x="0px" y="0px" viewBox="0 0 52.4 52.3"
	 style="enable-background:new 0 0 52.4 52.3;" xml:space="preserve"> -->

<svg width="100%" height="100%" viewBox="-0.5 -0.5 53.4 53.3" xmlns="http://www.w3.org/2000/svg" xmlns:svg="http://www.w3.org/2000/svg" xmlns:se="http://svg-edit.googlecode.com" data-name="Layer 1">

<style type="text/css">
	.st0{fill:#58595B;stroke:none;stroke-width:2;}
</style>
<g id="layer1" transform="translate(-356.6459,-2.0229998)">
	<g id="Layer_2-60-8" transform="matrix(0.37840822,0,0,0.37840822,356.6459,2.0220313)">
		<g id="Layer_1-2-62-5">
			<path id="path2815-8" class="st0" d="M134.8,138.2H3.5c-1.9,0-3.5-1.5-3.5-3.5c0,0,0,0,0,0v-17.5c0-1.9,1.5-3.4,3.4-3.4
				c0,0,0,0,0,0h131.3c1.9,0,3.4,1.5,3.5,3.4v17.5C138.2,136.7,136.7,138.2,134.8,138.2C134.8,138.2,134.8,138.2,134.8,138.2z
				 M6.9,131.4h124.5v-10.6H6.9V131.4z"/>
			<path id="path2817-4" class="st0" d="M119.5,108.8H97.6c-1.4,0-2.5-1.1-2.5-2.5c0,0,0,0,0,0V49.4c0-1.4,1.1-2.5,2.5-2.5h21.9
				c1.4,0,2.5,1.1,2.5,2.5v56.9C122,107.7,120.9,108.8,119.5,108.8C119.5,108.8,119.5,108.8,119.5,108.8z M100.1,103.9h17v-52h-17
				V103.9z"/>
			<path id="path2819-3" class="st0" d="M40.6,108.8H18.8c-1.4,0-2.5-1.1-2.5-2.5c0,0,0,0,0,0V49.4c0-1.4,1.1-2.5,2.5-2.5h0h21.9
				c1.4,0,2.5,1.1,2.5,2.4c0,0,0,0,0,0v56.9C43.2,107.7,42.1,108.8,40.6,108.8C40.7,108.8,40.7,108.8,40.6,108.8z M21.3,103.9h17
				v-52h-17V103.9z"/>
			<path id="path2821-7" class="st0" d="M80.1,108.8H58.2c-1.4,0-2.5-1.1-2.5-2.5c0,0,0,0,0,0V49.4c0-1.4,1.1-2.5,2.5-2.5h0h21.9
				c1.4,0,2.5,1.1,2.5,2.4c0,0,0,0,0,0v56.9C82.6,107.7,81.5,108.8,80.1,108.8C80.1,108.8,80.1,108.8,80.1,108.8z M60.7,103.9h17
				v-52h-17V103.9z"/>
			<path id="path2823-1" class="st0" d="M134.8,41.9H3.5c-1.9,0-3.5-1.5-3.5-3.5c0,0,0,0,0,0V27c0-1.5,0.9-2.8,2.3-3.3L68,0.2
				c0.8-0.3,1.6-0.3,2.3,0l65.7,23.5c1.4,0.5,2.3,1.8,2.3,3.3v11.5c0,1.9-1.5,3.5-3.5,3.5C134.9,41.9,134.8,41.9,134.8,41.9z
				 M6.9,35h124.5v-5.7L69,7.1L6.9,29.4L6.9,35z"/>
			<path id="path2825-3" class="st0" d="M69.1,29.4c-4.7,0-8.5-3.8-8.5-8.5s3.8-8.5,8.5-8.5s8.5,3.8,8.5,8.5S73.8,29.4,69.1,29.4z
				 M69.1,16.3c-2.6,0-4.7,2-4.7,4.6s2,4.7,4.6,4.7c2.6,0,4.7-2,4.7-4.6c0,0,0,0,0-0.1C73.7,18.4,71.6,16.3,69.1,16.3z"/>
		</g>
	</g>
</g>
</svg>
