<?xml version="1.0" encoding="utf-8"?>
<!-- Generator: Adobe Illustrator 23.0.3, SVG Export Plug-In . SVG Version: 6.00 Build 0)  -->
<!-- <svg version="1.1" id="Layer_1" xmlns:se="http://svg-edit.googlecode.com" xmlns:svg="http://www.w3.org/2000/svg"
	 xmlns="http://www.w3.org/2000/svg" xmlns:xlink="http://www.w3.org/1999/xlink" x="0px" y="0px" viewBox="0 0 612 792"
	 style="enable-background:new 0 0 612 792;" xml:space="preserve"> -->

<svg width="100%" height="100%" viewBox="0 30 612 730" xmlns="http://www.w3.org/2000/svg" xmlns:svg="http://www.w3.org/2000/svg" xmlns:se="http://svg-edit.googlecode.com" data-name="Layer 1">	 

<style type="text/css">
	.st0{fill:#58595B;stroke:none;stroke-width:20;}
	.st1{fill:#58595B;}
	.st2{fill:#58595B;}
	.st3{fill:#58595B;}
</style>
<g id="layer1" transform="translate(-175.15865,-417.79681)">
	<g id="Layer_2-77-9" transform="matrix(0.28387395,0,0,0.28387395,175.15994,417.79681)">
		<g id="Layer_1-2-11-9">
			<path id="path5342-7" class="st0" d="M1755.5,2063.7c85.5-104.5,480.4-704.3,352.8-1199.6c0,0,0,0,0-2.7
				C2024.2,446.2,1645.6,145,1204.5,145c-624.2,0-958,538.7-964.8,831.8c-2.7,38,0,77.3,6.8,115.3c5.4,42.1,12.2,99.1,0,118.1
				c-31.2,46.1-66.5,89.6-103.1,131.6c-48.9,48.9-86.8,105.8-114,169.6c-12.2,39.4-4.1,82.8,20.4,115.3
				c25.8,31.2,63.8,48.9,104.5,44.8h21.7h2.7c-20.4,43.4-17.6,93.6,6.8,134.3c-4.1,8.1-5.4,17.6-6.8,27.1
				c-2.7,46.1,16.3,90.9,51.6,122.1l0,0c-9.5,57-29.9,190,77.3,240.2c90.9,43.4,190,38,276.8,35.3c36.6-2.7,73.3-2.7,109.9,0
				c-5.4,55.6,0,325.7,0,356.9c5.4,31.2,36.6,52.9,67.8,47.5c24.4-4.1,43.4-24.4,47.5-48.9c-2.7-115.3-4.1-309.4,0-346
				c6.8-62.4-38-119.4-101.8-126.2c-43.4-2.7-86.8-2.7-131.6,0c-77.3,4.1-156.1,6.8-219.8-23.1c-27.1-12.2-14.9-88.2-10.9-115.3
				c4.1-16.3,4.1-33.9,2.7-50.2c-4.1-19-14.9-35.3-29.9-47.5c-9.5-6.8-17.6-16.3-20.4-28.5c12.2-16.3,16.3-36.6,12.2-55.6
				c-4.1-19-12.2-38-25.8-52.9c0-4.1,0-9.5,0-13.6l5.4-6.8c14.9-21.7,24.4-47.5,23.1-73.3c0-24.4-9.5-47.5-27.1-63.8
				c-33.9-23.1-74.6-32.6-115.3-24.4h-19l0,0c-4.1,0-6.8,0-6.8,0c-1.4-4.1-1.4-8.1,0-12.2c23.1-46.1,52.9-88.2,89.6-124.8
				c39.4-46.1,76-93.6,108.6-143.8c36.6-52.9,27.1-130.3,19-196.8c-5.4-29.9-6.8-59.7-5.4-89.6c0-2.7,0-4.1,0-6.8
				c0-112.6,70.6-297.2,221.2-453.2c162.8-175.1,390.8-271.4,626.9-270c384,0,717.8,263.3,788.4,628.3c0,2.7,1.4,5.4,2.7,8.1
				c112.6,454.6-279.5,1032.7-333.8,1092.4c-21.7,21.7-55.6,55.6,61.1,605.2c5.4,27.1,28.5,47.5,57,48.9c4.1,0,8.1,0,12.2,0
				c31.2-6.8,51.6-38,44.8-69.2l0,0C1793.5,2367.7,1751.4,2123.4,1755.5,2063.7z"/>
			<path id="path5344-8" class="st1" d="M1725.6,1488.4c13.6-17.6,17.6-40.7,12.2-62.4c-5.4-21.7-19-40.7-38-50.2
				c-28.5-16.3-42.1-51.6-29.9-82.8c9.5-24.4,33.9-42.1,61.1-42.1c5.4,0,10.9,1.4,16.3,2.7c6.8,1.4,13.6,2.7,19,2.7
				c14.9,0,31.2-4.1,43.4-13.6c19-12.2,31.2-32.6,33.9-54.3c8.1-63.8,6.8-128.9-4.1-192.7c-5.4-38-38-66.5-77.3-65.1
				c-8.1,0-14.9,1.4-21.7,2.7c-5.4,1.4-12.2,2.7-19,2.7c-36.6,0-65.1-29.9-65.1-66.5c0-23.1,12.2-44.8,32.6-57
				c36.6-20.4,50.2-67.8,29.9-104.5c-2.7-4.1-4.1-6.8-6.8-10.9c-39.4-51.6-86.8-96.3-139.8-134.3c-13.6-9.5-28.5-14.9-44.8-14.9
				c-5.4,0-12.2,1.4-17.6,2.7c-21.7,5.4-40.7,19-51.6,38c-12.2,21.7-33.9,33.9-58.4,33.9c-8.1,0-16.3-1.4-24.4-4.1
				c-29.9-12.2-46.1-44.8-38-77.3c5.4-21.7,1.4-44.8-10.9-62.4c-12.2-19-32.6-31.2-54.3-33.9c-28.5-4.1-57-5.4-85.5-5.4
				c-36.6,0-71.9,2.7-107.2,9.5c-42.1,6.8-70.6,46.1-65.1,86.8c0,4.1,1.4,8.1,2.7,12.2c9.5,32.6-8.1,66.5-38,78.7
				c-8.1,4.1-17.6,5.4-25.8,5.4c-23.1,0-44.8-12.2-57-32.6c-12.2-20.4-31.2-33.9-54.3-39.4c-5.4,0-9.5,0-14.9,0
				c-17.6,0-33.9,5.4-47.5,16.3c-51.6,39.4-96.3,86.8-134.3,139.8c-13.6,17.6-17.6,40.7-12.2,62.4c5.4,21.7,19,40.7,38,51.6
				c31.2,19,42.1,58.4,23.1,89.6c-12.2,19-32.6,31.2-54.3,32.6c-5.4,1.4-10.9,1.4-14.9,0c-6.8-1.4-13.6-2.7-19-2.7
				c-14.9,0-31.2,4.1-43.4,13.6c-19,12.2-31.2,32.6-33.9,54.3c-8.1,63.8-6.8,128.9,4.1,192.7c4.1,21.7,16.3,42.1,35.3,52.9
				c12.2,8.1,27.1,12.2,40.7,12.2c8.1,0,14.9-1.4,21.7-4.1c5.4-1.4,12.2-2.7,19-2.7c36.6,0,66.5,28.5,66.5,65.1
				c0,23.1-12.2,46.1-32.6,57c-20.4,10.9-33.9,29.9-38,52.9c-4.1,21.7,1.4,44.8,14.9,62.4c39.4,51.6,86.8,96.3,139.8,134.3
				c13.6,9.5,28.5,14.9,44.8,14.9c5.4,0,12.2-1.4,17.6-1.4c21.7-5.4,40.7-19,51.6-38c12.2-21.7,33.9-33.9,58.4-33.9
				c8.1,0,16.3,1.4,24.4,4.1c29.9,12.2,46.1,44.8,38,77.3c-12.2,40.7,12.2,82.8,52.9,95c5.4,1.4,10.9,2.7,16.3,2.7
				c28.5,4.1,57,5.4,85.5,5.4c35.3,0,71.9-2.7,107.2-9.5c42.1-6.8,70.6-44.8,65.1-86.8c0-4.1-1.4-8.1-2.7-12.2
				c-9.5-32.6,6.8-66.5,38-78.7c8.1-4.1,17.6-5.4,25.8-5.4c23.1,0,44.8,12.2,57,32.6c10.9,20.4,29.9,33.9,52.9,38
				c5.4,0,9.5,0,14.9,0c17.6,0,33.9-5.4,47.5-16.3C1642.8,1587.4,1687.6,1539.9,1725.6,1488.4z M1542.4,1565.7
				c-25.8-44.8-73.3-70.6-124.8-70.6c-20.4,0-39.4,4.1-57,12.2c-66.5,29.9-100.4,103.1-80.1,173.7c-31.2,5.4-63.8,8.1-95,8.1
				c-25.8,0-51.6-1.4-77.3-5.4c20.4-77.3-25.8-156.1-103.1-175.1c-63.8-16.3-131.6,12.2-162.8,70.6
				c-46.1-32.6-88.2-73.3-123.5-118.1c69.2-39.4,93.6-126.2,54.3-195.4c-25.8-46.1-74.6-74.6-127.6-73.3c-13.6,0-27.1,2.7-40.7,6.8
				c-9.5-57-9.5-114-2.7-171c70.6,17.6,142.5-20.4,169.6-86.8c25.8-66.5-1.4-142.5-63.8-177.8c32.6-46.1,73.3-88.2,118.1-123.5
				c39.4,69.2,127.6,93.6,196.8,54.3c59.7-33.9,86.8-104.5,66.5-169.6c31.2-5.4,63.8-8.1,95-8.1c25.8,0,51.6,1.4,77.3,5.4
				c-17.6,70.6,19,142.5,86.8,169.6c67.8,27.1,145.2-1.4,179.1-65.1c46.1,33.9,88.2,73.3,123.5,119.4
				c-69.2,39.4-93.6,126.2-54.3,195.4c25.8,46.1,74.6,74.6,127.6,73.3c13.6,0,27.1-1.4,40.7-5.4c9.5,57,10.9,114,2.7,171
				c-12.2-2.7-24.4-4.1-36.6-4.1c-80.1,1.4-142.5,66.5-142.5,145.2c1.4,51.6,28.5,97.7,73.3,123.5
				C1629.3,1488.4,1588.6,1530.4,1542.4,1565.7L1542.4,1565.7z"/>
			<path id="path5346-2" class="st2" d="M1185.5,847.9c-139.8,0-253.8,114-253.8,253.8s114,253.8,253.8,253.8s253.8-114,253.8-253.8
				C1439.3,961.9,1325.3,847.9,1185.5,847.9z M1185.5,1278c-97.7,0-176.4-78.7-176.4-176.4s78.7-176.4,176.4-176.4
				s176.4,78.7,176.4,176.4C1360.6,1198,1281.9,1276.7,1185.5,1278z"/>
			<path id="path5348-5" class="st3" d="M1185.5,731.2c-204.9,0-371.8,165.6-371.8,370.5s165.6,371.8,370.5,371.8
				S1556,1307.9,1556,1103c0,0,0,0,0-1.4C1556,896.7,1390.4,731.2,1185.5,731.2z M1185.5,1434.1c-183.2,0-332.5-149.3-332.5-332.5
				s149.3-332.5,332.5-332.5s331.1,149.3,331.1,332.5S1368.7,1432.7,1185.5,1434.1z"/>
		</g>
	</g>
</g>
</svg>
