<?xml version="1.0" encoding="iso-8859-1"?>
<!-- Generator: Adobe Illustrator 23.0.3, SVG Export Plug-In . SVG Version: 6.00 Build 0)  -->
<!-- <svg version="1.1"
	 id="svg124874" xmlns:cc="http://creativecommons.org/ns#" xmlns:dc="http://purl.org/dc/elements/1.1/" xmlns:rdf="http://www.w3.org/1999/02/22-rdf-syntax-ns#" xmlns:svg="http://www.w3.org/2000/svg"
	 xmlns="http://www.w3.org/2000/svg" xmlns:xlink="http://www.w3.org/1999/xlink" x="0px" y="0px" viewBox="0 0 44.1 52.3"
	 style="enable-background:new 0 0 44.1 52.3;" xml:space="preserve"> -->

<svg width="100%" height="100%" viewBox="-0.5 -0.5 45.1 53.3" xmlns="http://www.w3.org/2000/svg" xmlns:svg="http://www.w3.org/2000/svg" xmlns:se="http://svg-edit.googlecode.com" data-name="Layer 1">

<style type="text/css">
	.st0{fill:#58595B;stroke:none;stroke-width:2;}
</style>
<g id="layer1" transform="translate(-175.15865,-417.79681)">
	<g id="Layer_2-77-9" transform="matrix(0.28387395,0,0,0.28387395,175.15994,417.79681)">
		<g id="Layer_1-2-11-9">
			<path id="path5342-7" class="st0" d="M127.6,141.4c6.3-7.7,35.4-51.9,26-88.4c0,0,0,0,0-0.2C147.4,22.2,119.5,0,87,0
				c-46,0-70.6,39.7-71.1,61.3c-0.2,2.8,0,5.7,0.5,8.5c0.4,3.1,0.9,7.3,0,8.7c-2.3,3.4-4.9,6.6-7.6,9.7c-3.6,3.6-6.4,7.8-8.4,12.5
				c-0.9,2.9-0.3,6.1,1.5,8.5c1.9,2.3,4.7,3.6,7.7,3.3h1.6h0.2c-1.5,3.2-1.3,6.9,0.5,9.9c-0.3,0.6-0.4,1.3-0.5,2
				c-0.2,3.4,1.2,6.7,3.8,9l0,0c-0.7,4.2-2.2,14,5.7,17.7c6.7,3.2,14,2.8,20.4,2.6c2.7-0.2,5.4-0.2,8.1,0c-0.4,4.1,0,24,0,26.3
				c0.4,2.3,2.7,3.9,5,3.5c1.8-0.3,3.2-1.8,3.5-3.6c-0.2-8.5-0.3-22.8,0-25.5c0.5-4.6-2.8-8.8-7.5-9.3c-3.2-0.2-6.4-0.2-9.7,0
				c-5.7,0.3-11.5,0.5-16.2-1.7c-2-0.9-1.1-6.5-0.8-8.5c0.3-1.2,0.3-2.5,0.2-3.7c-0.3-1.4-1.1-2.6-2.2-3.5c-0.7-0.5-1.3-1.2-1.5-2.1
				c0.9-1.2,1.2-2.7,0.9-4.1c-0.3-1.4-0.9-2.8-1.9-3.9c0-0.3,0-0.7,0-1l0.4-0.5c1.1-1.6,1.8-3.5,1.7-5.4c0-1.8-0.7-3.5-2-4.7
				c-2.5-1.7-5.5-2.4-8.5-1.8H9.4l0,0c-0.3,0-0.5,0-0.5,0c-0.1-0.3-0.1-0.6,0-0.9c1.7-3.4,3.9-6.5,6.6-9.2c2.9-3.4,5.6-6.9,8-10.6
				c2.7-3.9,2-9.6,1.4-14.5c-0.4-2.2-0.5-4.4-0.4-6.6c0-0.2,0-0.3,0-0.5c0-8.3,5.2-21.9,16.3-33.4C52.8,15.6,69.6,8.5,87,8.6
				c28.3,0,52.9,19.4,58.1,46.3c0,0.2,0.1,0.4,0.2,0.6c8.3,33.5-20.6,76.1-24.6,80.5c-1.6,1.6-4.1,4.1,4.5,44.6
				c0.4,2,2.1,3.5,4.2,3.6c0.3,0,0.6,0,0.9,0c2.3-0.5,3.8-2.8,3.3-5.1c0,0,0,0,0,0C130.4,163.8,127.3,145.8,127.6,141.4z"/>
			<path id="path5344-8" class="st0" d="M125.4,99c1-1.3,1.3-3,0.9-4.6c-0.4-1.6-1.4-3-2.8-3.7c-2.1-1.2-3.1-3.8-2.2-6.1
				c0.7-1.8,2.5-3.1,4.5-3.1c0.4,0,0.8,0.1,1.2,0.2c0.5,0.1,1,0.2,1.4,0.2c1.1,0,2.3-0.3,3.2-1c1.4-0.9,2.3-2.4,2.5-4
				c0.6-4.7,0.5-9.5-0.3-14.2c-0.4-2.8-2.8-4.9-5.7-4.8c-0.6,0-1.1,0.1-1.6,0.2c-0.4,0.1-0.9,0.2-1.4,0.2c-2.7,0-4.8-2.2-4.8-4.9
				c0-1.7,0.9-3.3,2.4-4.2c2.7-1.5,3.7-5,2.2-7.7c-0.2-0.3-0.3-0.5-0.5-0.8c-2.9-3.8-6.4-7.1-10.3-9.9c-1-0.7-2.1-1.1-3.3-1.1
				c-0.4,0-0.9,0.1-1.3,0.2c-1.6,0.4-3,1.4-3.8,2.8c-0.9,1.6-2.5,2.5-4.3,2.5c-0.6,0-1.2-0.1-1.8-0.3c-2.2-0.9-3.4-3.3-2.8-5.7
				c0.4-1.6,0.1-3.3-0.8-4.6c-0.9-1.4-2.4-2.3-4-2.5c-2.1-0.3-4.2-0.4-6.3-0.4c-2.7,0-5.3,0.2-7.9,0.7c-3.1,0.5-5.2,3.4-4.8,6.4
				c0,0.3,0.1,0.6,0.2,0.9c0.7,2.4-0.6,4.9-2.8,5.8c-0.6,0.3-1.3,0.4-1.9,0.4c-1.7,0-3.3-0.9-4.2-2.4C63.4,32,62,31,60.3,30.6
				c-0.4,0-0.7,0-1.1,0c-1.3,0-2.5,0.4-3.5,1.2c-3.8,2.9-7.1,6.4-9.9,10.3c-1,1.3-1.3,3-0.9,4.6c0.4,1.6,1.4,3,2.8,3.8
				c2.3,1.4,3.1,4.3,1.7,6.6c-0.9,1.4-2.4,2.3-4,2.4c-0.4,0.1-0.8,0.1-1.1,0c-0.5-0.1-1-0.2-1.4-0.2c-1.1,0-2.3,0.3-3.2,1
				c-1.4,0.9-2.3,2.4-2.5,4c-0.6,4.7-0.5,9.5,0.3,14.2c0.3,1.6,1.2,3.1,2.6,3.9c0.9,0.6,2,0.9,3,0.9c0.6,0,1.1-0.1,1.6-0.3
				c0.4-0.1,0.9-0.2,1.4-0.2c2.7,0,4.9,2.1,4.9,4.8c0,1.7-0.9,3.4-2.4,4.2c-1.5,0.8-2.5,2.2-2.8,3.9c-0.3,1.6,0.1,3.3,1.1,4.6
				c2.9,3.8,6.4,7.1,10.3,9.9c1,0.7,2.1,1.1,3.3,1.1c0.4,0,0.9-0.1,1.3-0.1c1.6-0.4,3-1.4,3.8-2.8c0.9-1.6,2.5-2.5,4.3-2.5
				c0.6,0,1.2,0.1,1.8,0.3c2.2,0.9,3.4,3.3,2.8,5.7c-0.9,3,0.9,6.1,3.9,7c0.4,0.1,0.8,0.2,1.2,0.2c2.1,0.3,4.2,0.4,6.3,0.4
				c2.6,0,5.3-0.2,7.9-0.7c3.1-0.5,5.2-3.3,4.8-6.4c0-0.3-0.1-0.6-0.2-0.9c-0.7-2.4,0.5-4.9,2.8-5.8c0.6-0.3,1.3-0.4,1.9-0.4
				c1.7,0,3.3,0.9,4.2,2.4c0.8,1.5,2.2,2.5,3.9,2.8c0.4,0,0.7,0,1.1,0c1.3,0,2.5-0.4,3.5-1.2C119.3,106.3,122.6,102.8,125.4,99z
				 M111.9,104.7c-1.9-3.3-5.4-5.2-9.2-5.2c-1.5,0-2.9,0.3-4.2,0.9c-4.9,2.2-7.4,7.6-5.9,12.8c-2.3,0.4-4.7,0.6-7,0.6
				c-1.9,0-3.8-0.1-5.7-0.4c1.5-5.7-1.9-11.5-7.6-12.9c-4.7-1.2-9.7,0.9-12,5.2c-3.4-2.4-6.5-5.4-9.1-8.7c5.1-2.9,6.9-9.3,4-14.4
				c-1.9-3.4-5.5-5.5-9.4-5.4c-1,0-2,0.2-3,0.5c-0.7-4.2-0.7-8.4-0.2-12.6c5.2,1.3,10.5-1.5,12.5-6.4c1.9-4.9-0.1-10.5-4.7-13.1
				c2.4-3.4,5.4-6.5,8.7-9.1c2.9,5.1,9.4,6.9,14.5,4c4.4-2.5,6.4-7.7,4.9-12.5c2.3-0.4,4.7-0.6,7-0.6c1.9,0,3.8,0.1,5.7,0.4
				c-1.3,5.2,1.4,10.5,6.4,12.5c5,2,10.7-0.1,13.2-4.8c3.4,2.5,6.5,5.4,9.1,8.8c-5.1,2.9-6.9,9.3-4,14.4c1.9,3.4,5.5,5.5,9.4,5.4
				c1,0,2-0.1,3-0.4c0.7,4.2,0.8,8.4,0.2,12.6c-0.9-0.2-1.8-0.3-2.7-0.3c-5.9,0.1-10.5,4.9-10.5,10.7c0.1,3.8,2.1,7.2,5.4,9.1
				C118.3,99,115.3,102.1,111.9,104.7L111.9,104.7z"/>
			<path id="path5346-2" class="st0" d="M85.6,51.8c-10.3,0-18.7,8.4-18.7,18.7s8.4,18.7,18.7,18.7s18.7-8.4,18.7-18.7
				C104.3,60.2,95.9,51.8,85.6,51.8z M85.6,83.5c-7.2,0-13-5.8-13-13c0-7.2,5.8-13,13-13c7.2,0,13,5.8,13,13
				C98.5,77.6,92.7,83.4,85.6,83.5z"/>
			<path id="path5348-5" class="st0" d="M85.6,43.2c-15.1,0-27.4,12.2-27.4,27.3s12.2,27.4,27.3,27.4s27.4-12.2,27.4-27.3
				c0,0,0,0,0-0.1C112.9,55.4,100.7,43.2,85.6,43.2z M85.6,95c-13.5,0-24.5-11-24.5-24.5S72.1,46,85.6,46S110,57,110,70.5
				C110,84,99.1,94.9,85.6,95z"/>
		</g>
	</g>
</g>
</svg>
