<?xml version="1.0" encoding="iso-8859-1"?>
<!-- Generator: Adobe Illustrator 23.0.3, SVG Export Plug-In . SVG Version: 6.00 Build 0)  -->
<!-- <svg version="1.1"
	 id="svg131776" xmlns:cc="http://creativecommons.org/ns#" xmlns:dc="http://purl.org/dc/elements/1.1/" xmlns:rdf="http://www.w3.org/1999/02/22-rdf-syntax-ns#" xmlns:svg="http://www.w3.org/2000/svg"
	 xmlns="http://www.w3.org/2000/svg" xmlns:xlink="http://www.w3.org/1999/xlink" x="0px" y="0px" viewBox="0 0 69.8 52.3"
	 style="enable-background:new 0 0 69.8 52.3;" xml:space="preserve"> -->

<svg width="100%" height="100%" viewBox="-0.5 -0.5 70.8 53.3" xmlns="http://www.w3.org/2000/svg" xmlns:svg="http://www.w3.org/2000/svg" xmlns:se="http://svg-edit.googlecode.com" data-name="Layer 1">

<style type="text/css">
	.st0{fill:#58595B;stroke:none;stroke-width:2;}
</style>
<g id="layer1" transform="translate(36.118045,-139.60633)">
	<g id="Layer_2-59-7" transform="matrix(0.43177352,0,0,0.43177352,-36.118045,139.60633)">
		<g id="Layer_1-2-77-9">
			<path id="path5371-9" class="st0" d="M150.2,0H11.3C5.1,0,0,5.1,0,11.3v98.5c0,6.3,5.1,11.3,11.3,11.3h138.9
				c6.3,0,11.3-5.1,11.3-11.3V11.3C161.6,5.1,156.5,0,150.2,0z M154,11.3v8.5c-6.1-1.4-10.9-6.2-12.3-12.3h8.5
				C152.3,7.6,154,9.3,154,11.3L154,11.3z M154,24.9v71.5c-8.8,1.6-15.7,8.5-17.3,17.3H24.9c-1.6-8.8-8.5-15.7-17.3-17.3V24.9
				c8.8-1.6,15.7-8.5,17.3-17.3h111.8C138.3,16.4,145.2,23.3,154,24.9L154,24.9z M11.3,7.6h8.5c-1.4,6.1-6.2,10.9-12.3,12.3v-8.5
				C7.6,9.3,9.3,7.6,11.3,7.6z M7.6,109.8v-8.5c6.1,1.4,10.9,6.2,12.3,12.3h-8.5C9.3,113.6,7.6,111.9,7.6,109.8z M150.2,113.6h-8.5
				c1.4-6,6.1-10.7,12.2-12.2v8.5C153.8,111.9,152.2,113.5,150.2,113.6z"/>
			<path id="path5373-3" class="st0" d="M53.2,75.3l9.5-1.6l3.3,8.8c0.2,0.5,0.6,0.8,1.1,0.8l0,0c0.4,0,0.9-0.2,1.1-0.6l10.1-17
				l1.4,2c0.4,0.5,1.1,0.7,1.6,0.3c0.1-0.1,0.2-0.2,0.3-0.3l1.4-2l10.1,17c0.2,0.4,0.6,0.6,1.1,0.6l0,0c0.5-0.1,0.9-0.4,1.1-0.8
				l3.5-8.8l9.5,1.6c0.7,0.1,1.3-0.3,1.5-1c0.1-0.3,0-0.6-0.2-0.9L99.2,55.9l3.5-0.4c0.7-0.1,1.1-0.6,1.1-1.3c0-0.1,0-0.3-0.1-0.4
				l-2.7-5.9c-0.2-0.5-0.1-1.1,0.4-1.5l5.4-3.9c0.5-0.4,0.7-1.2,0.3-1.7c-0.1-0.1-0.2-0.2-0.3-0.3l-5.3-3.7c-0.5-0.3-0.6-1-0.4-1.5
				l2.7-5.9c0.3-0.6,0-1.3-0.6-1.6c-0.1-0.1-0.3-0.1-0.4-0.1l-6.4-0.6c-0.6-0.1-1-0.5-1.1-1.1l-0.7-6.5c-0.1-0.7-0.7-1.1-1.4-1.1
				c-0.1,0-0.2,0-0.3,0.1L87,21.3c-0.5,0.3-1.1,0.1-1.4-0.4l-3.8-5.3c-0.4-0.5-1.1-0.7-1.7-0.3c-0.1,0.1-0.2,0.2-0.3,0.3L76,20.9
				c-0.3,0.5-0.9,0.6-1.4,0.4l-5.9-2.6c-0.6-0.3-1.3,0-1.6,0.6c0,0.1-0.1,0.2-0.1,0.3l-0.7,6.5c-0.1,0.6-0.5,1-1.1,1.1l-6.4,0.7
				c-0.7,0.1-1.1,0.6-1.1,1.3c0,0.1,0,0.3,0.1,0.4l2.7,5.9c0.2,0.5,0.1,1.1-0.4,1.5l-5.3,3.8c-0.5,0.4-0.7,1.2-0.3,1.7
				c0.1,0.1,0.2,0.2,0.3,0.3l5.3,3.8c0.5,0.3,0.6,1,0.4,1.5l-2.7,6c-0.3,0.6,0,1.3,0.6,1.6c0.1,0.1,0.3,0.1,0.4,0.1l3.5,0.4
				L51.9,73.4c-0.4,0.6-0.2,1.4,0.4,1.7C52.6,75.3,52.9,75.3,53.2,75.3L53.2,75.3z M94.6,63.7l0.7-6.5c0.1-0.6,0.5-1,1.1-1.1h0.2
				l9.6,16.2L98.2,71c-0.6-0.1-1.2,0.2-1.4,0.8L94,79.1l-9.3-15.7l0.8-1c0.3-0.5,0.9-0.6,1.4-0.4l5.9,2.6c0.6,0.3,1.3,0.1,1.6-0.5
				C94.6,64,94.6,63.8,94.6,63.7z M76.7,36.1l4.1-8.3l4.1,8.3l9.2,1.3l-6.6,6.5L89,53l-8.2-4.3L72.6,53l1.6-9.1l-6.6-6.5L76.7,36.1z
				 M65,56.2h0.2c0.6,0.1,1,0.5,1.1,1.1l0.7,6.5c0.1,0.7,0.7,1.1,1.4,1.1c0.1,0,0.2,0,0.3-0.1l5.9-2.6c0.5-0.3,1.1-0.1,1.4,0.4
				l0.8,1l-9.3,15.7l-2.8-7.3C64.5,71.3,64,71,63.5,71h-0.2l-7.9,1.3L65,56.2z"/>
			<rect id="rect5375-2" x="48" y="90.9" class="st0" width="65.7" height="5"/>
			<rect id="rect5377-4" x="36.6" y="101" class="st0" width="88.4" height="2.5"/>
		</g>
	</g>
</g>
</svg>
