<?xml version="1.0" encoding="utf-8"?>
<!-- Generator: Adobe Illustrator 23.0.3, SVG Export Plug-In . SVG Version: 6.00 Build 0)  -->
<!-- <svg version="1.1" id="Layer_1" xmlns:se="http://svg-edit.googlecode.com" xmlns:svg="http://www.w3.org/2000/svg"
	 xmlns="http://www.w3.org/2000/svg" xmlns:xlink="http://www.w3.org/1999/xlink" x="0px" y="0px" viewBox="0 0 612 792"
	 style="enable-background:new 0 0 612 792;" xml:space="preserve"> -->

<svg width="100%" height="100%" viewBox="-1 165 614 463" xmlns="http://www.w3.org/2000/svg" xmlns:svg="http://www.w3.org/2000/svg" xmlns:se="http://svg-edit.googlecode.com" data-name="Layer 1">	 
<style type="text/css">
	.st0{fill:#58595B;stroke:none;stroke-width:20;}
	.st1{fill:#58595B;}
</style>
<g id="layer1" transform="translate(36.118045,-139.60633)">
	<g id="Layer_2-59-7" transform="matrix(0.43177352,0,0,0.43177352,-36.118045,139.60633)">
		<g id="Layer_1-2-77-9">
			<path id="path5371-9" class="st0" d="M1308.3,393.6H107.7c-53.6,0-97.7,44.1-97.7,97.7v851.4c0,54.5,44.1,97.7,97.7,97.7h1200.7
				c54.5,0,97.7-44.1,97.7-97.7V491.3C1406.9,437.7,1362.8,393.6,1308.3,393.6z M1341.2,491.3v73.5
				c-52.7-12.1-94.2-53.6-106.3-106.3h73.5C1326.5,459.3,1341.2,474,1341.2,491.3L1341.2,491.3z M1341.2,608.9v618.1
				c-76.1,13.8-135.7,73.5-149.5,149.5H225.2c-13.8-76.1-73.5-135.7-149.5-149.5V608.9c76.1-13.8,135.7-73.5,149.5-149.5h966.4
				C1205.5,535.4,1265.1,595,1341.2,608.9L1341.2,608.9z M107.7,459.3h73.5c-12.1,52.7-53.6,94.2-106.3,106.3v-73.5
				C75.7,474,90.4,459.3,107.7,459.3z M75.7,1342.7v-73.5c52.7,12.1,94.2,53.6,106.3,106.3h-73.5
				C90.4,1375.6,75.7,1360.9,75.7,1342.7z M1308.3,1375.6h-73.5c12.1-51.9,52.7-92.5,105.5-105.5v73.5
				C1339.5,1360.9,1325.6,1374.7,1308.3,1375.6z"/>
			<path id="path5373-3" class="st1" d="M469.9,1044.5l82.1-13.8l28.5,76.1c1.7,4.3,5.2,6.9,9.5,6.9l0,0c3.5,0,7.8-1.7,9.5-5.2
				l87.3-146.9l12.1,17.3c3.5,4.3,9.5,6.1,13.8,2.6c0.9-0.9,1.7-1.7,2.6-2.6l12.1-17.3l87.3,146.9c1.7,3.5,5.2,5.2,9.5,5.2l0,0
				c4.3-0.9,7.8-3.5,9.5-6.9l30.3-76.1l82.1,13.8c6.1,0.9,11.2-2.6,13-8.6c0.9-2.6,0-5.2-1.7-7.8l-89.9-151.3l30.3-3.5
				c6.1-0.9,9.5-5.2,9.5-11.2c0-0.9,0-2.6-0.9-3.5l-23.3-51c-1.7-4.3-0.9-9.5,3.5-13l46.7-33.7c4.3-3.5,6.1-10.4,2.6-14.7
				c-0.9-0.9-1.7-1.7-2.6-2.6l-45.8-32c-4.3-2.6-5.2-8.6-3.5-13l23.3-51c2.6-5.2,0-11.2-5.2-13.8c-0.9-0.9-2.6-0.9-3.5-0.9
				l-55.3-5.2c-5.2-0.9-8.6-4.3-9.5-9.5l-6.1-56.2c-0.9-6.1-6.1-9.5-12.1-9.5c-0.9,0-1.7,0-2.6,0.9l-51,24.2
				c-4.3,2.6-9.5,0.9-12.1-3.5l-32.8-45.8c-3.5-4.3-9.5-6.1-14.7-2.6c-0.9,0.9-1.7,1.7-2.6,2.6L667,574.3c-2.6,4.3-7.8,5.2-12.1,3.5
				l-51-22.5c-5.2-2.6-11.2,0-13.8,5.2c0,0.9-0.9,1.7-0.9,2.6l-6.1,56.2c-0.9,5.2-4.3,8.6-9.5,9.5l-55.3,6.1
				c-6.1,0.9-9.5,5.2-9.5,11.2c0,0.9,0,2.6,0.9,3.5l23.3,51c1.7,4.3,0.9,9.5-3.5,13l-45.8,32.8c-4.3,3.5-6.1,10.4-2.6,14.7
				c0.9,0.9,1.7,1.7,2.6,2.6l45.8,32.8c4.3,2.6,5.2,8.6,3.5,13l-23.3,51.9c-2.6,5.2,0,11.2,5.2,13.8c0.9,0.9,2.6,0.9,3.5,0.9
				l30.3,3.5l-89.9,148.7c-3.5,5.2-1.7,12.1,3.5,14.7C464.7,1044.5,467.3,1044.5,469.9,1044.5L469.9,1044.5z M827.7,944.3l6.1-56.2
				c0.9-5.2,4.3-8.6,9.5-9.5h1.7l83,140l-69.2-11.2c-5.2-0.9-10.4,1.7-12.1,6.9l-24.2,63.1l-80.4-135.7l6.9-8.6
				c2.6-4.3,7.8-5.2,12.1-3.5l51,22.5c5.2,2.6,11.2,0.9,13.8-4.3C827.7,946.8,827.7,945.1,827.7,944.3z M673,705.7l35.4-71.7
				l35.4,71.7l79.5,11.2l-57.1,56.2l13,78.7l-70.9-37.2l-70.9,37.2l13.8-78.7l-57.1-56.2L673,705.7z M571.9,879.4h1.7
				c5.2,0.9,8.6,4.3,9.5,9.5l6.1,56.2c0.9,6.1,6.1,9.5,12.1,9.5c0.9,0,1.7,0,2.6-0.9l51-22.5c4.3-2.6,9.5-0.9,12.1,3.5l6.9,8.6
				l-80.4,135.7l-24.2-63.1c-1.7-6.1-6.1-8.6-10.4-8.6h-1.7l-68.3,11.2L571.9,879.4z"/>
			<rect id="rect5375-2" x="424.9" y="1179.4" class="st1" width="567.9" height="43.2"/>
			<rect id="rect5377-4" x="326.4" y="1266.7" class="st1" width="764.1" height="21.6"/>
		</g>
	</g>
</g>
</svg>
