<?xml version="1.0" encoding="iso-8859-1"?>
<!-- Generator: Adobe Illustrator 23.0.3, SVG Export Plug-In . SVG Version: 6.00 Build 0)  -->
<svg version="1.1"
	 id="svg145554" xmlns:cc="http://creativecommons.org/ns#" xmlns:dc="http://purl.org/dc/elements/1.1/" xmlns:rdf="http://www.w3.org/1999/02/22-rdf-syntax-ns#" xmlns:svg="http://www.w3.org/2000/svg"
	 xmlns="http://www.w3.org/2000/svg" xmlns:xlink="http://www.w3.org/1999/xlink" x="0px" y="0px" viewBox="0 0 52.3 52.3"
	 style="enable-background:new 0 0 52.3 52.3;" xml:space="preserve">
<style type="text/css">
	.st0{fill:#58595B;stroke:#58595B;stroke-width:0.25;}
</style>
<g id="layer1" transform="translate(-235.70157,-133.55871)">
	<g id="Layer_2-92-2" transform="matrix(0.33552728,0,0,0.33552728,235.70157,133.55871)">
		<g id="Layer_1-2-28-0">
			<path id="path2917-2" class="st0" d="M84.5,19.4c0.8,0,1.5-0.1,2.3-0.3c0.4-0.1,0.8-0.1,1.3-0.2h0.7l0.3-0.6
				c0.4-0.7,0.6-0.8,0.9-0.9h0.8l0.3-0.7c0.2-0.7,0.3-1.4,0.2-2.1c0-0.2,0-0.4,0-0.6v-1.3h-1.2c-1,0-1.9,0-2.8,0
				c-1.1,0.1-2.1,0.1-3.2,0c-0.5-0.6-1.2-1-2-1c-1.5,0.1-2.6,1.4-2.6,2.8c-0.1,1.2,0.7,2.4,1.8,2.8C81.8,18.7,83.1,19.5,84.5,19.4z
				 M82.2,14.3c0.1,0.1,0.3,0.3,0.4,0.4l0.3,0.5h0.6c1.4,0.1,2.8,0.1,4.2,0H89c-0.6,0.3-1.2,0.8-1.6,1.4l-0.9,0.1
				c-0.6,0.1-1.2,0.2-1.9,0.2c-0.9,0-1-0.3-1-0.6l-0.2-0.9h-0.9c-0.5,0-0.5-0.3-0.5-0.3C82.1,14.9,82.1,14.6,82.2,14.3z"/>
			<path id="path2919-9" class="st0" d="M26.5,37.6c-0.6,0-1.3,0.2-1.6,0.8c-0.3,0.5-0.3,1.1,0,1.6l0.2,0.4l0.4,0.2
				c0.4,0.2,0.7,0.3,1.1,0.3c1,0.1,2-0.6,2.2-1.6l0.1-0.8l-0.7-0.4C27.6,37.7,27,37.6,26.5,37.6z"/>
			<path id="path2921-0" class="st0" d="M78,0C34.9,0,0,34.9,0,78s34.9,78,78,78s78-34.9,78-78C155.8,34.9,121,0.1,78,0z
				 M135.5,69.7c0-1.1-0.5-2.2-1.4-2.8c-0.4-0.3-0.7-0.7-0.9-1.1c-0.1-0.1-0.2-0.3-0.2-0.5c-0.5-1-1.2-2.8-2.8-2.8
				c-0.4,0-0.8,0.1-1.2,0.3l-0.6,0.3v0.7c0,0.4,0.1,0.8,0.4,1.1c0.1,0.1,0.2,0.2,0.3,0.3c0.3,1,0.8,2,1.2,3.1c0.5,1.1,0.8,2,1.2,3
				c0.4,1.6,1.2,3.1,2.4,4.4c0.1,0.3,0.1,0.5,0.3,0.8c0,0.1,0,0.2,0,0.4v0.4l0.2,0.3c0.6,0.9,1.4,1.7,2.4,2.3l0.7,0.5l0.3,0.3
				c0.6,0.7,1.5,1.2,2.4,1.2l0,0c0.8,0,1.7-0.3,2.4-0.7l1-0.4c-0.3,0.4-0.4,0.9-0.5,1.4c-0.9,1.1-1.6,2.4-2,3.8l-0.2,0.4l-1.2,1
				c-0.5,0.5-1,0.9-1.5,1.3c-0.5,0.4-1.1,0.8-1.7,1.2c-0.9,0.5-1.7,1.1-2.4,1.9c-0.9,1.5-1.6,3.1-2.1,4.7c-0.3,1.2,0,2.4,0.7,3.4
				c0.1,0.2,0.3,0.5,0.4,0.8c0,0,0,0,0,0.2c0,0.4,0.1,0.9,0.3,1.3v0.6c0,1.7,0,2.1-1,2.6c-0.6,0.3-1.1,0.7-1.6,1.2l-0.3,0.3
				l-0.5,0.4c-1.2,0.9-2.6,1.9-2.4,3.3c0,0.3,0.1,0.6,0.2,0.9c0.2,0.7,0.3,0.9,0,1.2s0,0-0.5,0.3l-0.8,0.6l-0.5,0.3v0.6
				c0,0.4,0,0.7,0,1.1c0,0.2,0,0.4,0,0.7l-0.9,1c-0.9,1.3-2,2.4-3.4,3.1l-0.5,0.2v0.5c0,0,0,0.2,0,0.3h-0.9
				c-1.4,0.3-2.9,0.4-4.3,0.5c-1.4,0-2.4-0.3-2.8-0.8c0-1.1-0.3-3-1.6-3.5c-0.3-1-0.5-2.1-0.6-3.2c0-0.8-0.2-1.7-0.4-2.4
				c0-1.3-0.3-2.7-0.8-3.9c-0.2-0.4-0.4-0.9-0.6-1.3c-0.2-0.4-0.4-0.8-0.5-1.2c0-1.1,0.3-2.2,1-3.1c1.2-1.6,1.7-3.6,1.3-5.5
				c-0.2-0.8-0.6-1.5-1.1-2.2c-0.2-1.5-0.9-3-2.2-3.9c-0.4-0.4-0.8-0.9-1.1-1.4c0-0.1,0-0.2,0-0.3c0.7-0.9,1.1-2,1.1-3.1v-0.4
				l-0.2-0.3c-0.1-0.2-0.2-0.4-0.3-0.6l-0.3-0.7l-0.3-0.6h-0.7c-2,0-2.4-0.4-2.5-0.8l-0.3-0.7h-0.7c-0.3,0-0.6,0-0.9,0l-0.5-0.4
				l-0.8,0.4c-1.4,0.6-3,1-4.5,1l0,0c-1.3-0.6-2.7-0.6-4,0c-0.7,0-1.5-0.2-2.1-0.6v-0.1c-0.2-0.7-0.7-1.3-1.3-1.7
				c-0.4-1-0.9-1.9-1.7-2.6c-0.6-0.5-1-1.1-1.2-1.8v-0.4L85,75.3L84.6,75c-0.6-0.5-0.7-0.5-0.6-1.2c0.1-0.4,0.2-0.9,0.4-1.3
				c0.4-1,0.5-2,0.4-3c0-0.4,0-0.7,0-1.1c0-0.4,0-0.7,0-1.1c0-0.3-0.1-0.6-0.2-0.9c0.2-0.2,0.4-0.4,0.7-0.6c0.7-0.5,1.3-1.3,1.5-2.2
				c0.8-0.8,1.8-1.5,2.8-2l0.3-0.2l0.2-0.3c0.1-0.1,0.3-0.2,0.4-0.3c0.4-0.2,0.7-0.5,0.9-0.9l0.3-0.3V58l0.8-0.6
				c1-0.5,1.8-1.3,2.4-2.3c0.3,0.1,0.5,0.2,0.7,0.4L96,56l0.7-0.2c1.2-0.3,2.3-0.5,3.5-0.7c1.6-0.2,3.2-0.5,4.7-0.9
				c0.9,0.3,1.9,0.3,2.8,0h0.8h0.7v0.9c0,0.5,0,1,0,1.5v0.9l0.8,0.4c1.1,0.5,2.2,1,3.4,1.4c0.5,1,1.4,1.6,2.5,1.6c0.1,0,0.2,0,0.3,0
				l0.5-0.2l0.2-0.4c0.1-0.3,0.2-0.6,0.3-1c1-0.5,2.2,0,3.6,0.7c1.4,0.7,2.9,1.1,4.4,1.2c0.4,0,0.8-0.2,1.2-0.3l0.5-0.1
				c0.3,0,0.5,0.1,0.8,0.2c0.8,0.2,1.7,0.2,2.5,0l0.6-0.2l0.2-0.7c0.1-0.5,0.3-0.9,0.5-1.3c0.4-0.9,0.7-1.8,0.9-2.8l0.2-0.2h-0.1
				c0-0.4,0-0.7,0-1.1l-0.1-0.9h-1c-0.6,0-1.1,0.2-1.6,0.4l0,0c-1.2-0.4-2.5-0.5-3.7-0.4h-0.6l-0.3-0.3c-0.2-0.2-0.4-0.4-0.5-0.6
				c0-0.8,0-1.3,0.1-2h0.2c0.8,0.2,1.6-0.1,2.2-0.6l0,0c0.9-0.2,1.7-0.2,2.6-0.2c0.8,0,1.6,0,2.4,0.1c0.2,0.1,0.4,0.3,0.5,0.4
				c0.5,0.4,1,0.8,1.6,0.9c0.8,0.1,1.6,0,2.3-0.3c0.2-0.1,0.4-0.1,0.5-0.2l1.3-0.2l-0.2-0.9c0.3-0.4,0.4-0.8,0.3-1.2v-0.5l-0.9-0.7
				c-0.9-0.7-1.7-1.5-2.4-2.4c0.6-0.6,0.8-1.5,0.3-2.2l-1.1-1.9l-0.9,1.8h-0.7c-0.5,0-1.1,0.1-1.6,0.3l-0.6,0.3v0.2h-1.1
				c-0.2,0-0.3,0-0.3,0l-0.3-1.2l-1,0.2c-1.3,0.3-2.3,1.1-2.8,2.3l-0.5,0.8l-0.4,0.4c-0.5,0.4-0.8,1.1-0.8,1.7c0,0.3,0.1,0.7,0.3,1
				l0,0c-0.3-0.1-0.6-0.2-1-0.2c-1,0.1-2,0.5-2.8,1.1l-0.7,0.5l0.2,0.8v0.6c-0.4-0.9-1-1.8-1.8-2.5c0-1-0.3-1.9-1-2.7
				c-0.7-0.9-1.9-1.3-3-1.1l-1,0.2v1c0,1,0.3,2,0.9,2.8l-0.3,0.3c-0.1-0.3-0.3-0.6-0.5-0.9c0-0.9-0.2-1.8-0.7-2.6
				c-0.8-1.7-2.8-2.4-4.5-1.6c-0.3,0.1-0.5,0.3-0.7,0.5c-0.2,0.1-0.4,0.2-0.7,0.3c-0.9-0.3-1.9-0.3-2.8,0l-0.8,0.1l-0.8,0.1
				l-0.2,0.8c-0.2,0.9-0.9,1.2-2,1.8l-0.6,0.3L98,48.9v0.8c0.1,0.6-0.1,1.1-0.5,1.6c-0.8,0.7-1.8,1-2.8,0.7h-0.3
				c-0.3,0-0.6,0.1-0.9,0.2c-0.7-0.3-1.3-0.6-1.9-1c0-0.6,0-1.2,0-1.8c0.1-0.9,0.1-1.9,0-2.8c1.1-0.2,2.2-0.2,3.2,0
				c0.9,0.1,1.9,0.1,2.8,0h0.7l0.3-0.6c0.2-0.4,0.3-0.9,0.4-1.4c0-0.3,0.1-0.5,0.2-0.7l0.3-0.5l-0.2-0.5c-0.3-0.9-0.8-1.7-1.5-2.3
				l1-0.3c0.8-0.3,1.5-0.7,2.2-1.3c0.4-0.5,1-0.8,1.6-0.9h0.7l0.3-0.7c0.2-0.5,0.7-0.9,1.4-1.3c0.4-0.2,0.8-0.5,1.1-0.8
				c0.8,0.1,1.6-0.2,2.2-0.8c0.6-0.9,0.7-2,0.4-3c-0.1-0.4-0.1-0.8-0.1-1.2c0.5-0.3,0.9-0.6,1.2-0.5c0.3,0.1,1.1,1.4,1.5,2.3
				c0.1,0.3,0.2,0.5,0.4,0.8l0.3,0.7h3.1c1.3,0.1,2.6-0.3,3.8-1l0.5-0.3v-0.6c0-0.3,0-0.5,0-0.8c0-0.1,0-0.2,0-0.3
				c1,0.4,2.1,0.2,2.8-0.6c0.5-0.5,0.7-1.2,0.5-1.9c0-0.3-0.1-0.5-0.3-0.8c0.5-0.1,1.1-0.1,1.6,0l1,0.2l0.3-0.6h0.7v-0.7
				c7.5,7,13.4,15.6,17.2,25.1c-0.2,0.4-0.3,0.8-0.3,1.2c-0.1,0.9,0.2,1.7,0.9,2.4c0.3,0.3,0.6,0.5,1,0.7c0.9,2.7,1.6,5.4,2.2,8.1
				c0-0.2-0.3-0.3-0.4-0.5c-0.7-1.4-2.2-2.3-3.8-2.1l-1,0.1v1c0,0.9,0.4,1.8,1.2,2.4l0.1,0.1c-0.2,0.6-0.1,1.3,0.3,1.8v0.1
				c0.4,0.4,0.9,0.6,1.4,0.6c0,0,0,0,0.2,0c0.1,0.1,0.2,0.2,0.3,0.3c0.5,0.8,1.3,1.3,2.2,1.4h0.2c0.2,1.6,0.3,3.2,0.5,4.8
				c-1.7,0.5-3.2,1.3-4.5,2.5c-1,0-1.9,0.2-2.8,0.5c-0.8,0.3-1.7,0.4-2.6,0.3c0-0.4,0-0.7,0-1.1c0.1-1.5-0.2-2.9-0.9-4.3v-0.1
				c-0.3-0.4-0.7-0.7-1.1-1C136.1,70.3,135.8,70,135.5,69.7z M136.1,74.4L136.1,74.4c-0.6-0.6-1.1-1.4-1.4-2.3l0.4,0.4l0.8,0.7
				C136,73.6,136.1,74,136.1,74.4z M121.9,51.4h0.2c0,0.5,0,1-0.2,1.7v0.4l0.2,0.4c0.3,0.4,0.7,0.9,1,1.3l0.6,0.6l0.3,0.4h0.5h1.2
				c0.6,0,1.2,0.1,1.8,0.1v1.3l0.7,0.3c0.3,0.1,0.6,0.2,1,0.2l0,0c0,0.3-0.2,0.5-0.3,0.7l-0.5-0.1c-0.5-0.2-1-0.2-1.5-0.3
				c-0.5,0-0.9,0.1-1.3,0.3c-0.2,0.1-0.3,0.1-0.5,0.1H125c-1.1-0.1-2.1-0.5-3.1-1c-1.1-0.7-2.4-1.1-3.7-1.2c-0.9,0-1.9,0.3-2.7,0.8
				l-0.4,0.3v0.4l0,0l-0.2-0.6l-0.9-0.3c-0.8-0.3-1.7-0.6-2.6-1c0-0.3,0-0.6,0-0.9s0-0.8,0-1.4v-0.3v-0.3c-0.4-0.8-1.3-1.3-2.2-1.4
				l0.3-0.5c0.2-0.4,0.4-0.9,0.5-1.3v-0.3l0.7,0.5c0,0,0.3,0.4,0.4,0.6c0.4,1.3,1.5,2.1,2.8,2.1h0.5h0.4l0.3-0.3
				c0.5-0.4,0.8-1.1,0.9-1.8l0,0c1,0.9,1.6,2.2,1.7,3.5v1.1h1.1c0.9,0,1.7-0.4,2.2-1.1C121.7,53.6,122,52.5,121.9,51.4z M109.7,47.9
				c-0.3-0.2-0.6-0.2-0.9-0.2c-0.4,0.1-0.8,0.2-1.1,0.5l0,0h-1.2v1.2c-0.1,0.9,0.2,1.7,0.8,2.3l-0.4,0.3c-0.2,0-0.3,0-0.5,0
				c-0.2,0-0.5,0-0.7-0.1l-0.6-0.4l-0.6,0.3c-1.4,0.5-2.9,0.8-4.4,0.9c0.5-0.7,0.7-1.5,0.8-2.3c1.2-0.5,2.2-1.4,2.8-2.6l0,0
				c0.3-0.1,0.6-0.1,0.9-0.1c0.2,0,0.5,0.1,0.7,0.2l0.3,0.1h0.4c0.7-0.1,1.4-0.4,1.9-0.8c0.3-0.2,0.7-0.4,1-0.4l0,0
				c0.4,0.1,0.7,0.4,0.9,0.8c0.2,0.2,0.2,0.5,0.3,0.7L109.7,47.9z M129.3,47.1c0.3,0,0.6,0,0.9,0c0.9-0.1,1.7-0.3,2.5-0.8l0.5-0.3
				c0.6,1.1,1.4,2.1,2.4,2.8c-0.2,0.1-0.5,0.1-0.7,0c-0.2-0.1-0.4-0.2-0.5-0.4c-0.4-0.4-0.8-0.7-1.3-0.9c-1.1-0.2-2.2-0.3-3.3-0.3
				c-1.1,0-2.2,0.1-3.3,0.3l-0.4,0.1l0,0l0,0c0.2-0.2,0.4-0.4,0.6-0.7c0.2-0.3,0.4-0.6,0.6-0.9c0.2-0.3,0.4-0.6,0.6-0.9
				c0.1,0.1,0.3,0.2,0.4,0.3l0,0c0,0.1,0,0.2,0,0.2v0.9L129.3,47.1z M97,28.6h0.2l0,0c0,0.2,0,0.3-0.2,0.5l-0.3,0.7l0.5,0.6
				c0.3,0.4,0.6,0.7,1,1c0.8,0.7,1.1,1.1,1.2,1.9V34l0.8,0.3c0.3,0.1,0.5,0.3,0.5,0.6c0,0.3-0.1,0.6-0.3,0.9h-0.8
				c-0.7,0-1.3,0.1-2,0.2c0-0.4-0.1-0.7-0.3-1l0,0c0-0.1,0-0.2,0-0.4l0,0l1.2-0.4l-0.3-0.7l0.9-0.4l-1.2-1.3c-0.4-0.4-1-0.6-1.5-0.6
				c-0.1-0.2-0.3-0.4-0.4-0.6c0-0.3,0-0.6,0-0.9v-0.4L95.7,29l-0.3-0.6c0.1-0.1,0.3-0.2,0.5-0.3l0,0L97,28.6z M106.9,22.9
				c2-0.9,3.7-2.5,4.7-4.5v-0.3v-0.3c0-0.6,0.2-1.2,0.5-1.7c1.8,1,3.5,2,5.1,3.1l-0.6,0.6c-1.3,0.9-3,2-2.6,4.5v0.4l0.3,0.3l0.3,0.4
				l0.3,0.3c-0.4,0.8-0.8,1.6-1.4,2.3c-0.1-0.2-0.2-0.5-0.2-0.8l-0.3-0.7h-0.7c-0.4,0-0.7-0.2-1-0.4c-0.1-0.1-0.2-0.1-0.3-0.2
				l-0.7-0.4l-0.6,0.3c-0.3,0.2-0.6,0.4-0.9,0.6c-0.2,0.2-0.4,0.3-0.6,0.4c-0.1-0.1-0.3-0.2-0.5-0.3c-0.3-0.1-0.6-0.2-1-0.3
				c0-0.2,0-0.4,0-0.6C106.8,24.8,106.9,23.9,106.9,22.9L106.9,22.9z M117.7,24.8v0.4l-0.2-0.4c-0.3-0.5-0.7-1-1.1-1.4
				c0-0.6,0.4-0.9,1.5-1.6C117.6,22.8,117.5,23.8,117.7,24.8L117.7,24.8z M117.7,25.8l0-0.3L117.7,25.8l0.9,0.1l0.3,0.3
				c0.2,0.2,0.5,0.4,0.7,0.5c0,0.2,0,0.3,0,0.5c0,0.3,0.1,0.6,0.2,0.9h-0.5c-1.9,0-2.1,2-2.1,2.8c-0.6,0.1-1.2,0.2-1.8,0.2H114
				l-0.2-0.5l0.6,0.2l0.5-0.5c1.1-1.3,2-2.7,2.6-4.3L117.7,25.8z M120.9,21.7c1.1,0.8,2.1,1.7,3.1,2.6c-0.5,0-1,0.1-1.4,0.2
				c-0.3,0.1-0.7,0.1-1,0.2l0,0c-0.2-0.1-0.4-0.2-0.6-0.4c-0.2-0.2-0.4-0.3-0.6-0.5c-0.1-0.7,0-1.4,0.3-2L120.9,21.7z M79.4,7.5
				c-1.9,0.9-4,1.3-6.1,1.2h-0.5h-0.2c-0.6,0.2-1.2,0.7-1.4,1.3l-0.6,0.2c-0.6,0.1-1.1,0.3-1.7,0.6c-0.4,0.3-0.8,0.6-1.1,1
				c-0.1,0.1-0.1,0.2-0.2,0.3c-0.2,0-0.5,0-0.7,0l0,0c-1.3,0.1-2.5,0.8-3.2,2c-0.3,0.5-0.7,0.9-1.2,1.2l-0.4,0.2L62,16
				c0,0.3-0.3,0.7-0.4,1c-0.4,0.8-0.6,1.6-0.9,2.4l-0.3,0.2h-0.3c-0.9-1.2-2.3-2.1-3.8-2.4L55.7,17c-0.1-0.5-0.2-1.1-0.3-1.6
				c-0.2-0.7-0.3-1.4-0.2-2.2v-0.3l-0.2-0.3c-0.3-0.4-0.7-0.7-1.1-1C61.6,8.7,69.7,7.3,78,7.3h0.8L79.4,7.5z M45,29
				c0.6,0.3,1.2,0.4,1.9,0.4l0,0v0.3c-0.3,0.5-0.6,0.6-1.4,0.8h-0.5c-0.4,0.1-0.9,0.3-1.2,0.6c-0.2,0.1-0.4,0.3-0.6,0.3
				c-0.7,0.1-1.5,0.1-2.2,0c-0.9-0.2-1.9-0.3-2.8-0.2c-0.9,0.2-1.7,0.6-2.4,1.3c-0.4,0.3-0.8,0.6-1.3,0.7v2.4h0.2
				c1.1,0,2.2-0.2,3.3-0.6h0.3l-0.2,0.3L37.6,36l0.2,0.5c0.1,0.3,0.1,0.6,0,0.9c-1,0.1-2,0.5-2.8,1.2c-0.5,0.5-1.2,0.8-2,0.8l0,0h-1
				l-0.3,1c-0.1,0.3-0.1,0.6,0,0.9c-0.4,0.3-0.8,0.5-1.2,0.7c-1.3,0.6-2.4,1.6-3.1,2.8h-0.1h-1.4l0.4,1.4c0.7,2.6-2.2,3.7-3.4,4.1
				l-0.6,0.2L22,51c-0.2,0.5-0.4,0.9-0.7,1.3l-0.4,0.5v0.4c0,0.3,0,0.6,0,0.9c-0.1-0.2-0.1-0.3-0.2-0.4v-0.9l-1.6,0.2
				c-0.5,0.1-1.1,0-1.6-0.3c-0.6-0.3-1.3-0.4-2-0.4c-0.4,0-0.8,0.1-1.1,0.2l-0.3,0.2c-0.2,0.1-0.4,0.3-0.5,0.5
				c-0.6-0.1-1.2-0.2-1.8-0.2c1.5-3.8,3.3-7.5,5.4-11.1h0.3c2-0.5,1.9-2.5,1.8-3.2l0,0l0.4-0.4l0.6-0.2l0,0
				c-0.1,0.8,0.1,1.7,0.5,2.4l2.8,4.3L23,39.7c0,0,0-0.2,0.5-0.6c0.9-0.7,1.3-1.7,1.2-2.8l-0.2-1h-1c-0.3,0-0.5-0.1-0.8-0.3
				l-0.5-0.3c1.1-1.4,2.2-2.8,3.4-4c0.5-0.2,0.9-0.7,1.1-1.2l0.6-0.7l0.5-0.2v-0.1c2.5-2.5,5.1-4.8,7.9-7c0.3,0.4,0.7,0.8,1.1,1H37
				h0.3c1.3,0,2.5-0.8,3-2c0.8,0.5,1.1,1.5,1.5,3c0.1,0.5,0.3,1,0.4,1.5v0.3l0.1,0.3l0.7,0.6c0.4,0.3,0.7,0.6,1,1v0.3
				c0,0.1,0,0.2,0,0.2l-0.1,0.9L45,29z M43.6,35.4h-0.2l-1,0.1l-0.2,0.7c-0.1,0.5-1,0.8-1.7,0.6l0,0c0-0.2,0-0.4,0-0.6l0.2-0.2
				c0.7-0.4,1.2-1.1,1.4-1.9c0.6,0.1,1.2,0,1.8-0.2h0.3C44,34.4,43.8,34.9,43.6,35.4z M47.3,33.4c0,0.6,0.2,1.2,0.6,1.6l0.5,0.5H49
				V36h-1c-0.6-0.4-1.2-0.7-1.9-0.9C46.4,34.5,46.8,33.9,47.3,33.4z M23.8,58.5c0.2,0.4,0.5,0.6,0.8,0.8c-0.1,0.4,0,0.9,0.2,1.3
				l-0.7-0.2L23,59.9l0.5-0.6C23.6,59,23.7,58.7,23.8,58.5z M34,67.5h0.5c0.4,0.1,0.8,0.2,1.1,0.2l0,0c0.2,0,0.4,0,0.7,0h0.4h0.4
				c0.1,0.2,0.2,0.3,0.4,0.5c0,0.1,0.1,0.2,0.1,0.3v0.5l0.7,0.2l0,0v0.4l0,0L37,70.9l1.6,0.6c-0.3,0.3-0.4,0.6-0.5,1h-0.2L37,72.3
				l-0.4,0.2c-0.2,0.1-0.3,0.2-0.5,0.2l-0.3-0.2c-0.3,0-0.5-0.3-0.9-0.4c-0.3-0.1-0.7-0.2-1-0.2h-0.2l-0.1-0.2
				c-0.4-0.5-1-0.9-1.6-0.9l0,0c-0.3,0-0.5,0.1-0.8,0.2L31,70.2h-1c-0.9,0.1-1.8,0.5-2.5,1.2c-0.3,0.3-0.5,0.5-0.9,0.7
				c-0.7-0.1-1.3,0.1-1.9,0.4C24.4,72.2,24,72,23.6,72h-0.7c-1.1,0-2.8-0.2-2.8-0.6c0.1-0.2,0.2-0.4,0.3-0.5
				c0.6-1.1,0.7-2.3,0.3-3.5l-0.3-0.6h-0.5l0,0c-0.3-0.4-0.6-0.7-1-1c-0.6-0.4-1.2-0.6-1.9-0.7c-0.3,0-0.6,0-0.9,0
				c0-0.3,0-0.5,0.3-1c0.4-0.8,0.6-1.6,0.5-2.5v-0.5l-0.4-0.3C16,60.3,15.2,60,14.3,60c-1.4,0-2.7,0.9-3.3,2.2
				c-0.2,0.1-0.4,0.2-0.5,0.3h-0.3c-0.4,0.1-0.8,0.1-1.2-0.1c0.5-2.4,1.2-4.8,2-7.1h0.2c0.9,0,1.8,0.1,2.7,0.4h0.3h0.3
				c0.4-0.2,0.8-0.5,1-0.9c0.4,0,0.8,0.1,1.2,0.3c0.6,0.3,1.3,0.4,1.9,0.5c0.6,1.6,1.6,3,2.8,4c-0.5-0.2-1-0.3-1.5-0.3
				c-1.1,0-2.1,0.8-2.4,1.9l-0.3,0.9l0.8,0.5c1,0.6,2,1,3.1,1.1l1.4,0.4v2.8H24c0.2,0,0.3,0,0.5,0c0.4,0.2,0.9,0.3,1.3,0.3h1.1v-0.5
				c0,0.1,0.1,0.2,0.2,0.2l0.3,0.3h1.9c0.5,0.1,1,0.2,1.5,0.3h0.6h0.6l0.4-0.4l0,0l-0.3,0.9L34,67.5z M48.8,86.4
				c0.6,0.1,1.3,0,1.9-0.2l0.7-0.1c0.5,0.3,1.1,0.6,1.6,0.9c0.9,0.4,1.7,1,2.5,1.5l0.5,0.3h0.5c0.6,0,1,0,1.8,0.6
				c0.4,0.3,0.9,0.5,1.4,0.7c0.5,0.2,0.9,0.5,1.3,0.8c0.6,0.4,1.3,0.8,1.9,1.1l0,0v0.3c0,0.3-0.2,0.6-0.3,0.8
				c-0.4,1.1-0.5,1.2-0.8,1.2h-0.9l-0.2,0.9c0,0.1,0,0.3,0,0.4c-0.1,0.2-0.1,0.3-0.1,0.5l-1,0.3l-0.9,0.3v0.9c0,0.6,0,1.2,0,1.9
				c0,0,0,0.3,0,0.4c-0.9,1.3-1.5,2.8-1.9,4.3c-0.1,0.3-0.2,0.7-0.3,1c-0.9,0.2-1.6,0.5-2.4,0.7c-0.8,0.3-1.7,0.5-2.6,0.7h-0.4
				l-0.3,0.3c-0.3,0.3-0.6,0.6-0.9,0.8c-0.6,0.4-1.1,0.9-1.5,1.4l-0.4,0.5l0.2,0.6c0.1,0.5,0.1,1.1,0,1.7c-0.9,0.3-1.6,0.9-1.8,1.8
				l-0.5-0.1l-0.5,0.5c-0.5,0.5-1,1.1-1.4,1.8l-0.3,0.4l-1.2,0.3c-0.8,0.2-1.6,0.2-2.3,0l-1.1-0.2l-0.3,1.1
				c-0.2,0.9,0.2,1.7,0.8,2.3c-1.3,0.9-2.7,1.4-4.3,1.5H35l-0.3,0.3c-0.4,0.3-0.6,0.9-0.5,1.4c-0.9,0.1-1.7,0.6-2.1,1.4v0.3
				c-0.1,0.4-0.1,0.7,0,1.1c-0.3,0.6-0.8,1.1-1.2,1.7c-0.5,0.6-0.9,1.3-1.3,1.9c-1.3-1.2-2.6-2.5-3.9-3.9c0.1-0.4,0.1-0.9,0.2-1.3
				v-0.6l-0.5-0.4c0.1,0.2,0-0.3,0-1.2c0.3-0.5,0.6-1.1,0.9-1.6c0.3-0.6,0.6-1.1,0.9-1.6l0.3-0.3v-0.5c0-0.8-0.1-1.7-0.3-2.5
				c-0.1-0.4-0.1-0.7-0.2-1.1c1.3-1.5,2-3.4,2.1-5.4c0.2-0.6,0.3-1.2,0.2-1.8c0-0.4,0-0.8,0-1.1s0.1-0.7,0.2-1.1
				c0.4-2.1,0.8-4.3-1.6-5.7L27.6,99h-0.4h-0.4l0,0c-0.3-0.5-0.5-1-0.6-1.6c0-0.4-0.2-0.9-0.4-1.3c-0.3-0.7-0.8-1.4-1.3-1.9
				c-0.4-0.3-0.7-0.7-0.9-1.2c-0.1-0.3-0.2-0.7-0.3-1c-0.1-0.6-0.3-1.2-0.6-1.8v-0.4h-0.2l0,0c-0.1-0.3-0.2-0.6-0.3-0.8
				c-0.2-0.3-0.3-0.6-0.5-0.9c-0.3-0.3-0.5-0.7-0.5-1.1l0.3-0.4c0.4-0.5,0.8-1.1,0.9-1.7c0.1-0.5,0.1-1,0-1.5c0,0,0-0.2,0-0.3l0,0
				c0.9-0.9,1.7-2,2.4-3.1c0.8-1.3,0.8-2.9,0-4.2l0.4-0.3c0.6-0.4,1-0.6,1.4-0.5h0.3h0.3c0.6-0.2,1.1-0.5,1.5-0.9v0.4l1,0.4
				c0.2,0.1,0.4,0.1,0.7,0.1c0.7,0,1.3-0.4,1.7-1c0.2,0.2,0.4,0.4,0.7,0.5c0.3,0.2,0.7,0.2,1,0.3h0.4l0.7,0.3
				c0.8,0.5,1.7,0.6,2.6,0.2l0,0c1.3,0.4,2.1,0.6,2.6,1.4l0.3,0.6h0.7h0.2c0.2,0.2,0.4,0.3,0.5,0.5c0.2,0.1,0.3,0.3,0.5,0.5l0.3,0.4
				H43c1,0.3,2,0.8,2.8,1.5c0.8,0.7,1.7,1.2,2.7,1.6l0.5,0.5c0.2,0.2,0.3,0.4,0.5,0.6l0,0c-0.6,0.5-1.1,1.2-1.3,2l-0.4,1.4
				L48.8,86.4z M39.5,70.9l-0.2,0.4c-0.1,0-0.2-0.1-0.2-0.3c-0.1-0.1-0.1-0.3,0-0.5l0.3,0.2l0,0L39.5,70.9z M39.5,68.5v-0.1l0,0
				V68.5z M38.1,66.6L38.1,66.6l-0.3,0.2c0-0.2,0.1-0.3,0.2-0.5l0,0L38.1,66.6z M39,72.9c0.1-0.3,0.4-0.5,0.7-0.5l0.2,1
				c-0.3-0.1-0.6-0.3-0.9-0.3L39,72.9z M40.5,73.6L40,73.3v-1c0.5,0,0.8,0.3,0.9,0.8c0,0.3-0.2,0.6-0.5,0.6L40.5,73.6z M17.8,71.9
				l-0.3-0.2L17,71.4c-0.1-0.2-0.2-0.4-0.3-0.6c-0.3-1-1.1-1.8-2-2.2h-0.4h-0.1h-0.4l0,0L13.3,68v-0.5l-0.5-0.4
				c-1.2-1-2.8-1.5-4.3-1.4v-0.9c0.6,0.3,1.3,0.4,2,0.3c0.4-0.1,0.8-0.2,1.2-0.5l0.2-0.1h1.2v-1.2c0.1-0.6,0.7-1,1.3-0.9
				c0,0,0.1,0,0.1,0l-0.3,0.5c-0.7,0.9-0.8,2.1-0.5,3.2l0.2,0.3c0.7,0.8,1.8,1.3,2.8,1.2c0.3,0,0.6,0.1,0.9,0.1c0,0,0,0.1,0.2,0.3
				c0.2,0.2,0.4,0.4,0.6,0.6c0,0.5-0.2,0.9-0.4,1.3c-0.2,0.5-0.4,1-0.4,1.6C17.7,71.5,17.7,71.8,17.8,71.9L17.8,71.9z M27.6,66v0.2
				l0,0V66z M37.6,20.1L37.6,20.1l0.5-0.2C37.9,20,37.8,20.1,37.6,20.1z M8,68c1,0,2,0.2,2.8,0.7c0.2,0.6,0.6,1.1,1,1.4l0.3,0.3
				l0.6,0.8l0.8-0.4h0.4c0.2,0.2,0.4,0.5,0.5,0.8c0.2,0.4,0.4,0.7,0.6,1.1c0.3,0.3,0.5,0.6,0.9,0.8c0.3,0.2,0.5,0.4,0.7,0.6
				c1.1,1.4,2.6,2.3,4.4,2.5c0.4,0.1,0.8,0,1.2,0c0.8,0.7,0.7,1.2,0.2,2.1c-0.2,0.3-1.1,1.7-1.5,2.2c-0.4,0.1-0.8,0.3-1,0.7
				c-0.3,0.7-0.4,1.4-0.2,2.1c0,0.3,0,0.5,0,0.8c-0.1,0.2-0.2,0.5-0.4,0.7c-0.4,0.4-0.7,1-0.8,1.6c-0.1,1,0.3,2,0.9,2.8
				c0.1,0.2,0.3,0.4,0.4,0.6c0,0.1,0,0.2,0,0.3c0.1,0.4,0.3,0.8,0.6,1.2c0.1,0.2,0.2,0.5,0.2,0.8c0.1,0.5,0.2,1.1,0.4,1.6
				c0.4,0.7,0.8,1.3,1.3,1.8c0.4,0.3,0.6,0.7,0.9,1.2c0.1,0.3,0.2,0.7,0.3,1c0.2,1.1,0.7,2.2,1.6,3l0.2,0.2h0.3h0.2
				c0.4,0.1,0.7,0.2,1.1,0.2c0.5,0.4,0.5,1,0.2,2.8c0,0.4-0.1,0.7-0.2,1.2c-0.1,0.5-0.1,1.1,0,1.6l0,0h-0.3v1.1
				c0,1.8-0.7,3.5-1.9,4.8l-0.1,0.6v0.4c0,0.6,0.1,1.3,0.3,1.9c0.1,0.5,0.2,1,0.2,1.5c-0.4,0.6-0.8,1.2-1,1.8
				c-0.2,0.5-0.5,1-0.8,1.5l-0.2,0.3v0.3c0,0.4,0,0.8,0,1.2C10.7,107.1,5.2,87.4,8,68z M138.4,107.3c0.6-1.1,1-1.2,1.6-1.1h0.5
				l0.3-0.2l0,0l0.5-0.4c0.3-0.3,0.5-0.7,0.5-1.2c0.3-0.3,0.5-0.7,0.7-1.1l0.1,0.3v0.3c-0.2,0.3-0.3,0.7-0.4,1
				c-0.1,0.5-0.4,0.9-0.7,1.3l-0.3,0.3v0.4c-0.1,0.8-0.4,1.5-0.9,2.1c-0.6,0.9-1,2-1.1,3.1c-0.2,0.3-0.4,0.7-0.6,1
				c-0.2,0.4-0.4,0.7-0.6,1c-0.1-0.1-0.1-0.2-0.2-0.3c-0.2-0.4-0.4-0.7-0.6-1c0.1-0.6,0.3-1.2,0.5-1.8
				C138.1,109.9,138.3,108.6,138.4,107.3L138.4,107.3z M138.1,114.4L138.1,114.4v0.5l0,0V114.4z M144.4,102c-0.4-0.7-1.1-1.2-2-1.2
				h-0.2c-1,0.1-1.7,0.8-2,1.7c-0.1,0.2-0.2,0.3-0.3,0.5l-0.6,0.3v0.6l0,0c-1.5,0.4-2.7,1.4-3.3,2.8l-0.2,0.4v0.5
				c0.1,1-0.1,1.9-0.4,2.8c-0.3,1-0.5,2-0.6,3v0.6l0.5,0.4c0.2,0.2,0.3,0.4,0.4,0.6c0.2,0.6,0.7,1.2,1.2,1.6
				c-21.3,32.6-64.9,41.8-97.5,20.6c0.1-0.2,0.1-0.3,0.1-0.5l0.2-1l-1-0.3c-0.6-0.2-1.2-0.3-1.8-0.3h-0.6c-1.2-0.9-2.4-1.8-3.5-2.8
				l0.3-0.4l-0.7-0.8c-0.1-0.1-0.3-0.3-0.4-0.4c0.3-0.5,0.7-1,1-1.5c0.6-0.7,1.1-1.4,1.5-2.2v-0.2v-0.2c0.1-0.3,0.1-0.6,0-0.9H35
				c0.6-0.1,1.1-0.4,1.6-0.7l0.3-0.3V124v-0.2c2.2-0.2,4.2-1.2,5.6-2.9l0.3-0.5v-0.5c-0.1-0.2-0.1-0.4-0.2-0.6l1-0.2
				c0.5-0.1,1-0.2,1.5-0.3h0.5l0.3-0.4l0.7-1c0.2-0.4,0.4-0.7,0.7-1c0.4,0,0.7-0.2,1-0.4h0.9v-1c0-0.2,0-0.3,0.7-0.5h0.3l0.2-0.2
				c0.8-1.1,1-2.5,0.6-3.8l0.7-0.5c0.3-0.2,0.7-0.5,1-0.8c0.8-0.2,1.7-0.4,2.5-0.7c0.9-0.3,1.9-0.6,2.8-0.7h0.7l0.3-0.7
				c0.2-0.6,0.4-1.2,0.6-1.7c0.3-1.4,0.9-2.6,1.7-3.8l0.3-0.3v-0.4c0-0.3,0-0.5,0-0.8c0-0.4,0-0.8,0-1.3l0.9-0.3l0.7-0.3v-0.8
				c0-0.2,0-0.4,0-0.6c1.1-0.5,1.8-1.5,2.1-2.7c0.1-0.3,0.2-0.6,0.4-0.9l0.2-0.4v-0.5c-0.1-0.4-0.2-0.8-0.4-1.2c0-0.2,0-0.4,0-0.6
				L65,90.2L64.5,90c-0.7-0.3-1.3-0.7-1.9-1.1c-0.5-0.4-1.1-0.7-1.6-1l-1.4-0.7c-0.8-0.6-1.8-0.9-2.8-0.9c-0.8-0.5-1.6-1-2.4-1.4
				c-0.6-0.3-1.2-0.7-1.8-1l-0.3-0.2h-0.3l0,0v-0.5c-0.1-0.9-0.6-1.7-1.2-2.4c-0.2-0.2-0.3-0.4-0.5-0.6l-0.3-0.5h-0.5
				c-0.8-0.3-1.6-0.7-2.3-1.3c-1-0.8-2.1-1.5-3.3-1.9c-0.2-0.2-0.3-0.4-0.5-0.5c-0.2-0.1-0.3-0.3-0.5-0.5l-0.3-0.6h-0.6l0,0
				c-0.2-0.3-0.5-0.6-0.8-0.8c0.2-0.4,0.3-0.9,0.3-1.4c0-0.2-0.1-0.5-0.2-0.7l0.2-0.4c0.2-0.5,0.2-1,0-1.4c0,0,0-0.2,0-0.3l0,0
				c0.3-0.4,0.5-0.9,0.4-1.4l-0.2-1.1h-1c-0.1-0.3-0.2-0.5-0.4-0.7c-0.1-0.1-0.3-0.2-0.4-0.3c-0.1-0.3-0.4-0.6-0.7-0.8v-0.2
				l-0.8-0.4l-0.5-0.3l-1-1.1v1c-0.1,0-0.2,0.1-0.3,0.2c-0.6-0.3-1.2-0.4-1.8-0.4c-0.2,0-0.5,0-0.7,0l-0.3-0.3
				c-0.4-0.4-0.9-0.7-1.5-0.9c0.1-0.4,0.1-0.9-0.2-1.3c-0.4-0.6-1-0.9-1.7-0.9c-0.4-0.5-1-0.9-1.6-1.1l-0.5-0.5
				c-0.2-0.2-0.4-0.5-0.5-0.7c-0.2-0.3-0.4-0.6-0.6-0.9c0-0.2,0-0.3,0-0.5v-1.2H26c-0.2,0-0.4,0-0.7,0l0,0v0.1l-0.6,0.2l-0.6,0.2
				c-0.1-0.5-0.2-1.1-0.4-1.6c-0.2-0.5-0.3-1-0.3-1.5c0.3-0.4,0.5-0.8,0.7-1.2c2.5-0.6,4.4-2.7,4.7-5.3l0.3-0.1l0.5-0.3v-0.6
				c0.2-1,1-1.5,2.2-2.2c0.8-0.4,1.5-0.9,2.2-1.5c0.2-0.2,0.4-0.6,0.4-0.9c0.8-0.2,1.5-0.6,2.2-1.1c0.5-0.5,1.2-0.7,1.9-0.8H39h0.3
				l0.4-0.4c0.4,0.4,0.9,0.7,1.5,0.7c0.4-0.1,0.9-0.2,1.3-0.4c0.3-0.1,0.6-0.1,0.9-0.2h1l0.2-0.9v-0.3c0.1-0.3,0.2-0.7,0.3-1.1
				c0.7,0,1.5,0.2,2,0.8l0.5,0.5l0.7-0.3c0.4-0.1,0.9-0.1,1.3,0c0.5,0.1,0.9,0.1,1.4,0l1.8-0.4l-1.1-1.5c-0.1-0.3-0.2-0.6-0.2-0.9
				c-0.1-0.7-0.4-2.1-1.6-2.5l0.5-0.6l-0.8-0.7c-0.2-0.2-0.5-0.4-0.8-0.5l0.2-0.3c0.4-1.1,0.3-2.2-0.3-3.2l-0.3-0.4h-0.5h-0.4v-0.8
				L47.2,26c-0.3-0.3-0.6-0.4-1-0.5c-0.4-0.5-0.8-0.9-1.3-1.3l-0.4-0.3c0-0.3-0.2-0.7-0.3-1c-0.2-2.1-1.5-4-3.5-4.8h0.4v-0.3
				c3.3-2,6.7-3.7,10.2-5.2c0.3,0.3,0.6,0.6,1,0.9l0.5,0.3c0,0.8,0.1,1.6,0.3,2.3c0.2,0.6,0.3,1.3,0.3,2v0.7L54,19
				c0.5,0.2,1,0.4,1.5,0.6c1.4,0.5,2.4,0.9,2.6,1.7l0.3,0.9h2.8l0.3-0.3c0.2-0.2,0.5-0.4,0.8-0.6l0.5-0.3v-0.5
				c0.2-0.8,0.4-1.6,0.8-2.4c0-0.3,0.2-0.5,0.3-0.7c0.6-0.5,1.2-1,1.6-1.6c0.5-0.7,0.8-1,1.2-1h0.1c0.4,0.1,0.8,0.1,1.2,0
				c0.6-0.2,1.2-0.6,1.5-1.2c0.1-0.2,0.3-0.3,0.4-0.5c0.3-0.2,0.7-0.3,1-0.3c0.6-0.1,1.1-0.3,1.6-0.6l0.3-0.2l0.1-0.3l0.1-0.3v0
				c2.5,0,5-0.6,7.2-1.6L82.2,9h0.4l0.4-0.5c0.2-0.2,0.3-0.5,0.3-0.8h0.4V7.6c9.2,0.7,18.1,3.3,26.2,7.5c-0.5,0.8-0.8,1.7-0.8,2.7
				c-1.1,1.6-2.5,2.8-4.3,3.5l-0.9,0.5l0.3,0.9c0.1,0.9,0.1,1.9,0,2.8c0,0.5,0,1,0,1.5v0.3v0.2c0.3,0.8,1.1,1.2,1.9,1.2h0.2l0.3,0.3
				c-0.3,0.9-0.3,1.9,0,2.8c0,0.3,0,0.7,0,1H106h-0.6l-0.4,0.4c-0.3,0.3-0.7,0.6-1.1,0.8l-1.1,0.8c-0.1-0.9-0.7-1.8-1.5-2.3
				c-0.3-1.1-1-2.1-1.9-2.8l-0.2-0.2c0.3-0.6,0.4-1.3,0.3-2v-0.5l-0.4-0.3c-0.2-0.2-0.5-0.3-0.9-0.3l0,0l-0.3-0.5h-0.6
				c-1.8-0.4-3.6,0.4-4.6,2l-0.3,0.4v0.5c0.1,0.5,0.3,1,0.6,1.4c-0.7,0.1-1.3,0.4-1.8,0.8c-0.3,0.2-0.5,0.3-0.8,0.4h-1.3v1.3
				c0.1,0.6,0,1.3-0.3,1.8l-0.7,1.1l1.2,0.6c0,0,0,0,0,0.2c0.1,0.2,0.3,0.4,0.5,0.5l0.3,0.3h0.6c0.8,0,1.7-0.2,2.4-0.5
				c0.3-0.1,0.6-0.2,0.9-0.3c-0.6,0.3-0.9,0.9-1,1.5V38l0.2,0.3c0.3,0.5,0.8,0.8,1.3,0.9c-0.2,0.3-0.4,0.6-0.5,0.9l-0.2,0.7l0.6,0.5
				l0.7,0.6c0.6,0.4,1.1,0.9,1.5,1.5c0,0.3-0.1,0.7-0.2,1l0,0h-1.5c-0.7,0-1.3,0-2,0c-1.2-0.1-2.4,0.2-3.4,0.8l-0.7,0.5l0.2,0.8
				c0.2,1,0.2,2.1,0,3.1c-0.1,0.9-0.1,1.9,0,2.8v0.6l0.5,0.3c0.7,0.5,1.5,0.9,2.2,1.2c-0.4,0.4-0.9,0.8-1.4,1.1
				c-0.6,0.3-1.1,0.7-1.6,1.2l-0.3,0.4v1.9h-0.1c-0.3,0.2-0.6,0.5-0.9,0.8c-1.3,0.7-2.5,1.6-3.6,2.7l-0.5,0.5l0.1,0.6
				c-0.2,0.2-0.4,0.4-0.6,0.6c-0.7,0.5-1.2,1.2-1.5,2c-0.1,0.4-0.1,0.9,0,1.3c0,0.1,0,0.2,0,0.3c0,0.3,0,0.6,0,0.9
				c0,0.5,0,0.9,0,1.4c0.1,0.7-0.1,1.3-0.3,1.9c0,0.5-0.3,1-0.4,1.6c-0.4,1.4,0.3,2.9,1.6,3.7l0,0c0.4,0.9,0.9,1.8,1.7,2.4
				c0.6,0.5,1,1.2,1.2,2v0.8l0.8,0.2c0.1,0.2,0.2,0.4,0.3,0.6c0.1,0.2,0.2,0.4,0.3,0.7l0.1,0.2l0.2,0.1c1.1,0.9,2.5,1.3,4,1.2h0.4
				l0.3-0.3c0.7-0.2,1.4-0.1,2.1,0.3l0.3,0.2h0.8c1.7-0.1,3.3-0.4,4.9-1c0.2,0,0.5,0,0.7,0c0.9,1,2.2,1.5,3.5,1.5l0.3,0.6
				c-0.1,0.5-0.2,1-0.5,1.4c-0.2,0.3-0.4,0.6-0.5,1l-0.2,0.4l0.2,0.5c0.4,1,1,2,1.8,2.8c0.9,1,1.4,1.6,1.3,2.8V96l0.3,0.4
				c0.4,0.5,0.7,1.1,1,1.7c0.2,1.3-0.2,2.6-1,3.7c-1,1.4-1.5,3-1.3,4.7c0.1,0.7,0.4,1.4,0.8,2c0.2,0.3,0.3,0.7,0.5,0.9
				c0.4,1,0.6,2.1,0.6,3.2v0.1l0,0c0,0.7,0.3,1.5,0.4,2.4c0.1,1.6,0.5,3.2,1.2,4.6l0.4,0.6h0.3c0.1,0.5,0.2,1.1,0.2,1.7v0.2l0.7-0.3
				c0.7,1.6,2.4,2.4,5,2.4c1.6,0,3.1-0.2,4.7-0.5l1.6-0.2h0.8l0.4-1.2l0,0c1.5-0.9,2.8-2.1,3.8-3.6c0.4-0.4,0.7-0.9,1.1-1.3l0.3-0.3
				v-0.4c0-0.4,0-0.8,0-1.2v-0.3h0.2c0.6-0.2,1.1-0.7,1.5-1.2c0.7-1,0.9-2.4,0.3-3.6v-0.3c0.4-0.4,0.9-0.8,1.4-1.1l0.6-0.5l0.3-0.3
				c0.4-0.3,0.8-0.6,1.2-0.9c2.3-1.2,2.3-2.8,2.3-4.8v-1.6l-0.4-0.3v-0.1c0-0.3-0.1-0.7-0.2-1c-0.2-0.4-0.4-0.8-0.6-1.1
				s-0.6-1-0.5-1.6c0.5-1.3,1.1-2.6,1.8-3.8c0.5-0.5,1.1-0.9,1.8-1.3c0.7-0.4,1.3-0.9,1.9-1.3c0.6-0.5,1.1-1,1.6-1.4
				c0.5-0.5,0.9-0.8,1.3-1.1l0.2-0.2l0.4-0.9c0.4-1.2,1-2.3,1.8-3.3l0.3-0.3v-0.5c0.1-0.6,0.4-1.1,0.8-1.5c0.2-0.2,0.4-0.4,0.6-0.7
				l0.9-1.1l-1.2-0.7c-0.4-0.2-0.8-0.4-1.2-0.5c0.9-0.9,2.1-1.5,3.3-1.8c0,0.5,0,1,0,1.5C148.6,86.2,147.2,94.4,144.4,102z
				 M93.1,33.7l-0.6,0.2c-0.3,0.1-0.6,0.2-0.9,0.3c0.1-0.3,0.1-0.7,0.2-1l1-0.5l0.3-0.2c0,0.3,0,0.5,0,0.8
				C93.1,33.4,93.1,33.6,93.1,33.7z"/>
		</g>
	</g>
</g>
</svg>
