<?xml version="1.0" encoding="iso-8859-1"?>
<!-- Generator: Adobe Illustrator 23.0.3, SVG Export Plug-In . SVG Version: 6.00 Build 0)  -->
<!-- <svg version="1.1"
	 id="svg180558" xmlns:cc="http://creativecommons.org/ns#" xmlns:dc="http://purl.org/dc/elements/1.1/" xmlns:rdf="http://www.w3.org/1999/02/22-rdf-syntax-ns#" xmlns:svg="http://www.w3.org/2000/svg"
	 xmlns="http://www.w3.org/2000/svg" xmlns:xlink="http://www.w3.org/1999/xlink" x="0px" y="0px" viewBox="0 0 51.4 52.3"
	 style="enable-background:new 0 0 51.4 52.3;" xml:space="preserve"> -->

<svg width="100%" height="100%" viewBox="-0.5 -0.5 52.4 53.3" xmlns="http://www.w3.org/2000/svg" xmlns:svg="http://www.w3.org/2000/svg" xmlns:se="http://svg-edit.googlecode.com" data-name="Layer 1">

<style type="text/css">
	.st0{fill:#58595B;stroke:none;stroke-width:2;}
</style>
<g id="layer1" transform="translate(558.64985,-408.72538)">
	<g id="Layer_2-97-8" transform="matrix(0.33522251,0,0,0.33522251,-558.64715,408.72538)">
		<g id="Layer_1-2-36-0">
			<path id="path2943-4" class="st0" d="M153.4,152l-13.2-42.8c-1.4-4.9-5.1-8.9-10-10.4l-29-9.2c-0.9-0.3-1.8-0.1-2.6,0.3
				l-21.8,14.2L55,89.9c-0.8-0.5-1.7-0.6-2.6-0.3l-29,9.2c-4.9,1.5-8.6,5.4-10,10.3L0.2,152c-0.3,1-0.2,2,0.5,2.8
				c0.6,0.8,1.5,1.2,2.4,1.2h147.4c1.7,0,3-1.4,3-3c0-0.3-0.1-0.6-0.1-0.9L153.4,152z M102.2,107.2l6.7,8.8l-28.5,30.9l21-50.9
				l10.1,3.2l-9,6.3c-0.3,0.2-0.4,0.5-0.5,0.8C101.9,106.6,102,107,102.2,107.2z M50.8,105.5l-8.9-6.3L52.2,96l21.3,51.5L44.3,116
				l6.8-8.8c0.2-0.3,0.3-0.6,0.2-0.9C51.2,106,51,105.7,50.8,105.5z M81.9,130.5l-2.5-11.3l3.5-4.2l-4.1-5l15.9-10.3L81.9,130.5z
				 M74.2,119.2l-2.5,11.3L58.9,99.7L74.9,110l-4,5L74.2,119.2z M19.3,110.7c0.8-3,3.1-5.4,6-6.3l13.7-4.3l9.4,6.5l-6.6,8.5
				c-0.4,0.4-0.4,1.1,0,1.6l30.5,33.2H24.8v-18.9c-0.1-0.7-0.7-1.1-1.4-1c-0.5,0.1-0.9,0.5-1,1v18.9H7.1L19.3,110.7z M131.2,149.7
				v-18.8c-0.1-0.7-0.7-1.1-1.4-1c-0.5,0.1-0.9,0.5-1,1v18.9H80.9l30.5-33c0.4-0.4,0.4-1.1,0-1.6l-6.6-8.5l9.5-6.6l13.9,4.4
				c3,0.9,5.3,3.3,6.1,6.3l12.1,38.9L131.2,149.7z"/>
			<path id="path2945-0" class="st0" d="M45,64.1c0.7,0.8,1.4,1.5,2.2,2.1c2.2,6.7,5.8,12.9,10.7,18.1c4.6,5.6,11.5,8.8,18.8,8.8
				h0.2c7.3,0,14.1-3.2,18.8-8.8c4.9-5.2,8.5-11.3,10.7-18.1c0.8-0.6,1.6-1.3,2.2-2.1c1.7-2.2,3-4.7,3.8-7.4
				c0.8-2.5,1.2-5.1,1.2-7.8c0-0.6,0-1.2,0-1.8l0,0l0,0c-0.2-2.4-1.2-4.7-2.8-6.6c-0.4-0.5-0.9-0.9-1.4-1.3c0-0.2,0-0.4,0-0.6
				c2-10.5-0.5-30.1-22.2-37C84,0.6,80.6,0,77.1,0c-8,0-15.7,3.3-21.3,9.1c-3.8,0.3-7.3,2.3-9.5,5.4c-2.5,3.3-6,10.9-2.6,25.1
				c-0.4,0.3-0.7,0.6-1,1c-1.6,1.8-2.6,4.1-2.8,6.6l0,0c0,0.6,0,1.2,0,1.9c0,3.6,0.8,7.1,2.2,10.3C42.8,61,43.8,62.6,45,64.1z
				 M51,18.1c1.3-1.9,3.5-2.9,5.8-2.8c1.1,0,2.1-0.4,2.7-1.3C64,8.9,70.4,6,77.1,6c2.8,0,5.6,0.5,8.3,1.3c13,3.7,21,16.9,18.2,30.2
				c-0.1,0.9-0.3,1.7-0.5,2.5c0,0.3,0,0.5,0,0.8c-6,0.9-18.6-5.4-26.3-17.2c-1.6-2.9-4.5-4.8-7.7-5.1c-6.5-0.3-12.2,6.7-12.6,7
				c-2.8,4.3-5,8.9-6.6,13.8C46.5,26.7,49.2,20.6,51,18.1z M46,47.8L46,47.8c0.1-1,0.4-2,1-2.8c0,0.6,0.2,1.2,0.3,1.7
				c0.4,2.6,0.5,3.3,1.7,3.3l0,0c1.1,0,1.2-0.9,1.5-2.3c1.2-7.3,3.9-14.3,8-20.5c0,0,5.3-6.4,10.4-6.2c2.5,0.3,4.7,1.8,5.8,4
				c8.1,12.5,21.9,19.8,29.2,18.2l-0.8,4c-0.1,0.6,0.3,1.3,0.9,1.4c0.6,0.1,1.3-0.3,1.4-0.9l0.7-3.1l0,0c0.7,0.9,1.2,2.1,1.3,3.3
				l0,0c0,0.4,0,0.8,0,1.2c0,2-0.4,4-1,6c-0.5,1.9-1.4,3.6-2.6,5.2c-0.4,0.5-1,1-1.6,1.3c-0.8,0.4-1.3,1.1-1.5,1.9
				c-1.8,6.3-5.2,12-9.7,16.7c-3.4,4.4-8.7,6.9-14.3,6.9h-0.2c-5.5,0-10.7-2.6-14.1-6.9c-4.5-4.7-7.8-10.4-9.7-16.7
				c-0.2-0.8-0.8-1.5-1.5-1.9c-0.6-0.3-1.1-0.8-1.6-1.3c-0.8-1-1.4-2-1.9-3.2C46.6,54.5,46,51.8,46,49C46,48.6,46,48.2,46,47.8
				L46,47.8z"/>
			<path id="path2947-9" class="st0" d="M66.6,74.1c3.1,1.6,6.6,2.5,10.1,2.6c3.6-0.1,7.1-0.9,10.3-2.6c0.6-0.3,0.8-1,0.6-1.6
				c-0.3-0.6-1-0.8-1.6-0.6c-5.7,3-12.5,3-18.3,0c-0.6-0.4-1.3-0.2-1.7,0.3c-0.4,0.6-0.2,1.3,0.3,1.7C66.4,74,66.5,74.1,66.6,74.1z"
				/>
			<ellipse id="ellipse2949-1" class="st0" cx="62.3" cy="50.2" rx="3.6" ry="4.8"/>
			<ellipse id="ellipse2951-9" class="st0" cx="91.3" cy="50.2" rx="3.6" ry="4.8"/>
			<path id="path2953-6" class="st0" d="M74.2,65.7h0.7c0.6,0,1.2-0.2,1.7-0.5c0.5-0.4,0.7-1.1,0.3-1.7c0,0,0,0,0,0
				c-0.3-0.5-1.1-0.7-1.6-0.4c0,0,0,0-0.1,0c-0.1,0-0.2,0-0.3,0c-0.3-0.1-0.6-0.3-0.8-0.5c-0.3-0.8-0.4-1.6-0.3-2.4
				c0.3-2.1,0.8-4.1,1.8-6c0.3-0.6,0.1-1.3-0.5-1.6c0,0-0.1,0-0.1,0c-0.6-0.3-1.3-0.1-1.6,0.5c0,0,0,0,0,0c-1,2.2-1.7,4.5-2,6.8
				c-0.3,1.3-0.1,2.7,0.6,4C72.4,64.8,73.2,65.4,74.2,65.7z"/>
		</g>
	</g>
</g>
</svg>
