<?xml version="1.0" encoding="utf-8"?>
<!-- Generator: Adobe Illustrator 23.0.3, SVG Export Plug-In . SVG Version: 6.00 Build 0)  -->
<!-- <svg version="1.1" id="Layer_1" xmlns:se="http://svg-edit.googlecode.com" xmlns:svg="http://www.w3.org/2000/svg"
	 xmlns="http://www.w3.org/2000/svg" xmlns:xlink="http://www.w3.org/1999/xlink" x="0px" y="0px" viewBox="0 0 612 792"
	 style="enable-background:new 0 0 612 792;" xml:space="preserve"> -->

<svg width="100%" height="100%" viewBox="0 60 612 670" xmlns="http://www.w3.org/2000/svg" xmlns:svg="http://www.w3.org/2000/svg" xmlns:se="http://svg-edit.googlecode.com" data-name="Layer 1">	 

<style type="text/css">
	.st0{fill:#58595B;}
	.st1{fill:#58595B;stroke:#000000;stroke-width:20;stroke-miterlimit:10;}
	.st2{fill:#CCCCCC;}
</style>
<g id="layer1" transform="translate(747.68627,-382.26705)">
	<g id="Layer_2-19-2" transform="matrix(0.21813074,0,0,0.21813074,-747.68284,382.26719)">
		<g id="Layer_1-2-47-5">
			<path id="path3025-4" class="st0" d="M2334.3,2275.9c-19-70.8-73.3-127.7-142.9-150.5l-443.8-129c-12.6-3.8-27.8-1.3-39.2,6.3
				l-304.7,197.3l-303.5-197.3c-11.4-7.6-25.3-10.1-39.2-6.3l-445.1,129c-70.8,22.8-123.9,80.9-142.9,151.7l-110,475.4
				c-6.3,25.3,10.1,50.6,35.4,56.9c1.3,0,2.5,0,3.8,1.3l220,32.9c16.4,37.9,88.5,58.2,254.2,75.9c141.6,13.9,328.8,21.5,527.3,21.5
				s386.9-7.6,527.3-21.5c166.9-16.4,236.5-35.4,254.2-75.9l220-34.1c12.6-1.3,25.3-8.9,32.9-20.2c7.6-10.1,10.1-24,7.6-35.4
				L2334.3,2275.9z M1755.2,2253.2l91,118.9l-404.6,438.8l293.4-714.4l5.1-2.5l141.6,40.5l-121.4,84.7
				C1748.8,2226.6,1746.3,2241.8,1755.2,2253.2C1755.2,2251.9,1755.2,2251.9,1755.2,2253.2z M1042,2219l-120.1-83.5l146.7-43
				l3.8,2.5L1367,2812l-2.5,2.5L954.8,2372l91-118.9c3.8-5.1,5.1-11.4,3.8-17.7C1050.9,2227.9,1048.3,2222.8,1042,2219z
				 M1479.5,2593.3l-46.8-204.8l55.6-67l-35.4-43l212.4-137.8L1479.5,2593.3z M1372,2388.5l-44.3,204.8l-187.1-452.7l215,137.8
				l-35.4,43L1372,2388.5z M710.7,2795.6v-274.4c0-26.6-21.5-46.8-46.8-46.8c-26.6,0-46.8,21.5-46.8,46.8l0,0V2745l-150.5-22.8
				l97.4-422.3c11.4-40.5,40.5-72.1,79.7-84.7l220-63.2l130.2,91l-88.5,115.1c-7.6,8.9-7.6,21.5,0,30.3l422.3,456.5
				C997.7,2841.1,773.9,2815.8,710.7,2795.6z M2188.9,2746.3v-223.8c0-26.6-21.5-46.8-46.8-46.8c-26.6,0-46.8,21.5-46.8,46.8l0,0
				v273.1c-62,20.2-287,45.5-620.9,49.3l419.8-453.9c7.6-8.9,7.6-21.5,0-30.3l-88.5-115.1l131.5-92.3l222.5,64.5
				c39.2,12.6,69.5,44.3,80.9,83.5l98.6,424.9L2188.9,2746.3z"/>
			<path id="path3027-4" class="st1" d="M2778.1,582.8c-1.3-31.6-22.8-59.4-53.1-68.3c-426.1-142.9-872.5-216.2-1321.4-215
				c-450.1-1.3-899,70.8-1326.4,215c-27.8,10.1-48,36.7-48,67C19.1,1339,161.9,1880.1,389.5,2292.4l7.6-31.6
				c12.6-48,37.9-92.3,72.1-129c-184.6-373-300.9-851-295.9-1498.4c398.3-127.7,813-192.2,1230.3-190.9
				c418.5-1.3,833.3,63.2,1231.6,190.9c3.8,644.9-112.5,1124.1-297.1,1497.1c34.1,35.4,58.2,77.1,72.1,123.9v3.8l7.6,34.1
				c226.3-409.7,369.2-945.8,357.8-1698.2C2778.1,590.4,2778.1,586.6,2778.1,582.8z"/>
			<path id="path3029-9" class="st1" d="M1403.6,3172.4c-68.3-50.6-136.6-103.7-203.6-158.1c-83.5-2.5-161.9-6.3-232.7-11.4
				c125.2,112.5,256.7,215,388.2,311.1c12.6,11.4,30.3,17.7,48,17.7l0,0c19,0,36.7-7.6,50.6-21.5
				c130.2-96.1,260.5-197.3,385.7-309.8c-72.1,5.1-149.2,8.9-232.7,11.4C1540.2,3068.7,1471.9,3120.6,1403.6,3172.4z"/>
			<path id="path3031-9" class="st2" d="M316.2,738.3C669,634.6,1035.7,582.8,1403.6,584.1c368-1.3,734.7,50.6,1088.7,154.3
				c-7.6,565.2-113.8,986.3-274.4,1317.6c15.2,5.1,29.1,11.4,44.3,19c163.1-337.6,271.9-771.3,278.2-1353c0-10.1-6.3-20.2-16.4-22.8
				C2161,591.7,1783,537.3,1403.6,537.3c-379.3-1.3-756.1,53.1-1120.3,160.6c-10.1,2.5-17.7,12.6-16.4,22.8
				c6.3,581.7,113.8,1014.1,276.9,1353c13.9-7.6,29.1-12.6,44.3-17.7C428.7,1724.6,322.5,1303.5,316.2,738.3z"/>
			<path id="path3033-3" class="st0" d="M981.3,1658.9c8.9,10.1,19,20.2,30.3,27.8c29.1,89.8,78.4,172,142.9,240.2
				c62,74.6,154.3,118.9,250.4,117.6h2.5c97.4,0,189.7-43,250.4-117.6c65.8-68.3,113.8-150.5,142.9-240.2
				c11.4-7.6,21.5-17.7,30.3-27.8c22.8-29.1,39.2-62,50.6-96.1c8.9-34.1,12.6-68.3,11.4-103.7c0-7.6,0-15.2,0-24l0,0l0,0
				c-2.5-32.9-15.2-63.2-35.4-87.2c-5.1-6.3-11.4-12.6-19-17.7c0-2.5,0-5.1,0-7.6c25.3-140.4-8.9-402.1-297.1-491.9
				c-43-13.9-88.5-21.5-134-21.5c-107.5,0-208.6,44.3-283.2,121.4c-50.6,3.8-97.4,30.3-126.4,72.1c-32.9,44.3-79.7,142.9-35.4,333.8
				c-5.1,3.8-8.9,8.9-13.9,12.6c-20.2,25.3-32.9,55.6-35.4,87.2l0,0c0,8.9,0,16.4,0,25.3c1.3,46.8,10.1,93.6,29.1,137.8
				C951,1619.7,964.9,1641.2,981.3,1658.9z M1062.2,1048.1c17.7-25.3,46.8-40.5,78.4-39.2c13.9,1.3,27.8-5.1,35.4-15.2
				c59.4-67,144.1-105,233.9-105c37.9,0,74.6,6.3,110,17.7c235.2,73.3,263,287,242.8,400.8c-2.5,11.4-5.1,22.8-6.3,32.9
				c0,3.8,0,6.3,0,10.1c-80.9,11.4-247.8-72.1-349-228.9c-21.5-40.5-60.7-65.8-106.2-69.5c-86-3.8-161.9,89.8-166.9,94.8
				c-37.9,56.9-67,118.9-87.2,183.3C1001.5,1163.2,1036.9,1082.3,1062.2,1048.1z M994,1443.9L994,1443.9
				c1.3-13.9,5.1-26.6,12.6-39.2c0,8.9,2.5,15.2,3.8,22.8c6.3,35.4,7.6,44.3,22.8,44.3l0,0c13.9,0,16.4-12.6,20.2-31.6
				c16.4-97.4,53.1-189.7,107.5-271.9c0,0,72.1-84.7,139.1-82.2c32.9,3.8,62,24,77.1,54.4c107.5,166.9,290.8,261.7,389.5,241.5
				l-11.4,53.1c-2.5,8.9,2.5,17.7,11.4,20.2c8.9,2.5,17.7-2.5,20.2-11.4c0-1.3,0-1.3,0-2.5l8.9-41.7l0,0
				c10.1,12.6,15.2,27.8,16.4,44.3l0,0l0,0c0,5.1,0,10.1,0,15.2c0,26.6-5.1,53.1-12.6,79.7c-7.6,25.3-19,48-35.4,68.3
				c-6.3,7.6-12.6,13.9-21.5,17.7c-10.1,5.1-17.7,13.9-20.2,25.3c-24,83.5-68.3,159.3-127.7,222.5c-45.5,58.2-116.3,92.3-190.9,92.3
				l0,0c-73.3,0-144.1-32.9-189.7-91c-59.4-63.2-103.7-139.1-127.7-222.5c-2.5-11.4-10.1-20.2-20.2-25.3
				c-7.6-5.1-15.2-10.1-21.5-17.7c-10.1-12.6-19-27.8-25.3-43c-13.9-34.1-22.8-70.8-22.8-107.5C994,1454,994,1449,994,1443.9z"/>
			<path id="path3035-6" class="st0" d="M1268.3,1792.9c41.7,21.5,87.2,34.1,134,34.1c48-1.3,94.8-12.6,136.6-34.1
				c7.6-3.8,11.4-12.6,7.6-21.5l0,0c-3.8-7.6-13.9-11.4-21.5-7.6c-75.9,40.5-166.9,40.5-242.8,0c-7.6-3.8-17.7-1.3-21.5,7.6
				C1257,1779,1259.5,1789.1,1268.3,1792.9z"/>
			<ellipse id="ellipse3037-0" class="st0" cx="1211.4" cy="1474.2" rx="48" ry="64.5"/>
			<ellipse id="ellipse3039-5" class="st0" cx="1597.1" cy="1474.2" rx="48" ry="64.5"/>
			<path id="path3041-0" class="st0" d="M1368.2,1680.4h8.9c7.6,0,15.2-2.5,20.2-6.3c7.6-5.1,8.9-15.2,5.1-21.5l0,0
				c-5.1-7.6-15.2-8.9-22.8-5.1l0,0c0,0-3.8,0-5.1,0c-3.8-1.3-7.6-3.8-10.1-7.6c-5.1-10.1-5.1-21.5-3.8-32.9
				c3.8-27.8,11.4-55.6,22.8-79.7c5.1-7.6,3.8-17.7-3.8-22.8s-17.7-3.8-22.8,3.8c-1.3,1.3-1.3,2.5-2.5,3.8
				c-13.9,27.8-22.8,59.4-26.6,89.8c-3.8,17.7,0,36.7,7.6,53.1C1344.2,1669,1355.6,1677.8,1368.2,1680.4z"/>
		</g>
	</g>
</g>
</svg>
