<?xml version="1.0" encoding="utf-8"?>
<!-- Generator: Adobe Illustrator 23.0.3, SVG Export Plug-In . SVG Version: 6.00 Build 0)  -->
<svg version="1.1"
	 id="svg188914" xmlns:cc="http://creativecommons.org/ns#" xmlns:dc="http://purl.org/dc/elements/1.1/" xmlns:rdf="http://www.w3.org/1999/02/22-rdf-syntax-ns#" xmlns:svg="http://www.w3.org/2000/svg"
	 xmlns="http://www.w3.org/2000/svg" xmlns:xlink="http://www.w3.org/1999/xlink" x="0px" y="0px" viewBox="0 0 47.4 52.3"
	 style="enable-background:new 0 0 47.4 52.3;" xml:space="preserve">
<style type="text/css">
	.st0{fill:#58595B;}
	.st2{fill:#58595B;stroke:#58595B;stroke-width:0.25;}
	.st2{fill:#CCCCCC;}
</style>
<g id="layer1" transform="translate(747.68627,-382.26705)">
	<g id="Layer_2-19-2" transform="matrix(0.21813074,0,0,0.21813074,-747.68284,382.26719)">
		<g id="Layer_1-2-47-5">
			<path id="path3025-4" class="st0" d="M182.3,156.3c-1.5-5.6-5.8-10.1-11.3-11.9l-35.1-10.2c-1-0.3-2.2-0.1-3.1,0.5l-24.1,15.6
				l-24-15.6c-0.9-0.6-2-0.8-3.1-0.5l-35.2,10.2c-5.6,1.8-9.8,6.4-11.3,12L26.4,194c-0.5,2,0.8,4,2.8,4.5c0.1,0,0.2,0,0.3,0.1
				l17.4,2.6c1.3,3,7,4.6,20.1,6c11.2,1.1,26,1.7,41.7,1.7s30.6-0.6,41.7-1.7c13.2-1.3,18.7-2.8,20.1-6l17.4-2.7
				c1-0.1,2-0.7,2.6-1.6c0.6-0.8,0.8-1.9,0.6-2.8L182.3,156.3z M136.5,154.5l7.2,9.4l-32,34.7l23.2-56.5l0.4-0.2l11.2,3.2l-9.6,6.7
				C136,152.4,135.8,153.6,136.5,154.5C136.5,154.4,136.5,154.4,136.5,154.5z M80.1,151.8l-9.5-6.6l11.6-3.4l0.3,0.2l23.3,56.7
				l-0.2,0.2l-32.4-35l7.2-9.4c0.3-0.4,0.4-0.9,0.3-1.4C80.8,152.5,80.6,152.1,80.1,151.8z M114.7,181.4l-3.7-16.2l4.4-5.3l-2.8-3.4
				l16.8-10.9L114.7,181.4z M106.2,165.2l-3.5,16.2l-14.8-35.8l17,10.9l-2.8,3.4L106.2,165.2z M53.9,197.4v-21.7
				c0-2.1-1.7-3.7-3.7-3.7c-2.1,0-3.7,1.7-3.7,3.7l0,0v17.7l-11.9-1.8l7.7-33.4c0.9-3.2,3.2-5.7,6.3-6.7l17.4-5l10.3,7.2l-7,9.1
				c-0.6,0.7-0.6,1.7,0,2.4l33.4,36.1C76.6,201,58.9,199,53.9,197.4z M170.8,193.5v-17.7c0-2.1-1.7-3.7-3.7-3.7
				c-2.1,0-3.7,1.7-3.7,3.7l0,0v21.6c-4.9,1.6-22.7,3.6-49.1,3.9l33.2-35.9c0.6-0.7,0.6-1.7,0-2.4l-7-9.1l10.4-7.3l17.6,5.1
				c3.1,1,5.5,3.5,6.4,6.6l7.8,33.6L170.8,193.5z"/>
			<path id="path3027-4" class="st1" d="M217.4,22.4c-0.1-2.5-1.8-4.7-4.2-5.4c-33.7-11.3-69-17.1-104.5-17
				C73.1-0.1,37.6,5.6,3.8,17C1.6,17.8,0,19.9,0,22.3C-0.8,82.2,10.5,125,28.5,157.6l0.6-2.5c1-3.8,3-7.3,5.7-10.2
				C20.2,115.4,11,77.6,11.4,26.4c31.5-10.1,64.3-15.2,97.3-15.1c33.1-0.1,65.9,5,97.4,15.1c0.3,51-8.9,88.9-23.5,118.4
				c2.7,2.8,4.6,6.1,5.7,9.8v0.3l0.6,2.7c17.9-32.4,29.2-74.8,28.3-134.3C217.4,23,217.4,22.7,217.4,22.4z"/>
			<path id="path3029-9" class="st1" d="M108.7,227.2c-5.4-4-10.8-8.2-16.1-12.5c-6.6-0.2-12.8-0.5-18.4-0.9
				c9.9,8.9,20.3,17,30.7,24.6c1,0.9,2.4,1.4,3.8,1.4l0,0c1.5,0,2.9-0.6,4-1.7c10.3-7.6,20.6-15.6,30.5-24.5
				c-5.7,0.4-11.8,0.7-18.4,0.9C119.5,219,114.1,223.1,108.7,227.2z"/>
			<path id="path3031-9" class="st2" d="M22.7,34.7c27.9-8.2,56.9-12.3,86-12.2c29.1-0.1,58.1,4,86.1,12.2
				c-0.6,44.7-9,78-21.7,104.2c1.2,0.4,2.3,0.9,3.5,1.5c12.9-26.7,21.5-61,22-107c0-0.8-0.5-1.6-1.3-1.8
				c-28.7-8.5-58.6-12.8-88.6-12.8c-30-0.1-59.8,4.2-88.6,12.7c-0.8,0.2-1.4,1-1.3,1.8c0.5,46,9,80.2,21.9,107
				c1.1-0.6,2.3-1,3.5-1.4C31.6,112.7,23.2,79.4,22.7,34.7z"/>
			<path id="path3033-3" class="st0" d="M75.3,107.5c0.7,0.8,1.5,1.6,2.4,2.2c2.3,7.1,6.2,13.6,11.3,19c4.9,5.9,12.2,9.4,19.8,9.3
				h0.2c7.7,0,15-3.4,19.8-9.3c5.2-5.4,9-11.9,11.3-19c0.9-0.6,1.7-1.4,2.4-2.2c1.8-2.3,3.1-4.9,4-7.6c0.7-2.7,1-5.4,0.9-8.2
				c0-0.6,0-1.2,0-1.9l0,0l0,0c-0.2-2.6-1.2-5-2.8-6.9c-0.4-0.5-0.9-1-1.5-1.4c0-0.2,0-0.4,0-0.6c2-11.1-0.7-31.8-23.5-38.9
				c-3.4-1.1-7-1.7-10.6-1.7c-8.5,0-16.5,3.5-22.4,9.6c-4,0.3-7.7,2.4-10,5.7C74,59.1,70.3,66.9,73.8,82c-0.4,0.3-0.7,0.7-1.1,1
				c-1.6,2-2.6,4.4-2.8,6.9l0,0c0,0.7,0,1.3,0,2c0.1,3.7,0.8,7.4,2.3,10.9C72.9,104.4,74,106.1,75.3,107.5z M81.7,59.2
				c1.4-2,3.7-3.2,6.2-3.1c1.1,0.1,2.2-0.4,2.8-1.2c4.7-5.3,11.4-8.3,18.5-8.3c3,0,5.9,0.5,8.7,1.4c18.6,5.8,20.8,22.7,19.2,31.7
				c-0.2,0.9-0.4,1.8-0.5,2.6c0,0.3,0,0.5,0,0.8C130.2,84,117,77.4,109,65c-1.7-3.2-4.8-5.2-8.4-5.5c-6.8-0.3-12.8,7.1-13.2,7.5
				c-3,4.5-5.3,9.4-6.9,14.5C76.9,68.3,79.7,61.9,81.7,59.2z M76.3,90.5L76.3,90.5c0.1-1.1,0.4-2.1,1-3.1c0,0.7,0.2,1.2,0.3,1.8
				c0.5,2.8,0.6,3.5,1.8,3.5l0,0c1.1,0,1.3-1,1.6-2.5c1.3-7.7,4.2-15,8.5-21.5c0,0,5.7-6.7,11-6.5c2.6,0.3,4.9,1.9,6.1,4.3
				c8.5,13.2,23,20.7,30.8,19.1l-0.9,4.2c-0.2,0.7,0.2,1.4,0.9,1.6s1.4-0.2,1.6-0.9c0-0.1,0-0.1,0-0.2l0.7-3.3l0,0
				c0.8,1,1.2,2.2,1.3,3.5l0,0l0,0c0,0.4,0,0.8,0,1.2c0,2.1-0.4,4.2-1,6.3c-0.6,2-1.5,3.8-2.8,5.4c-0.5,0.6-1,1.1-1.7,1.4
				c-0.8,0.4-1.4,1.1-1.6,2c-1.9,6.6-5.4,12.6-10.1,17.6c-3.6,4.6-9.2,7.3-15.1,7.3l0,0c-5.8,0-11.4-2.6-15-7.2
				c-4.7-5-8.2-11-10.1-17.6c-0.2-0.9-0.8-1.6-1.6-2c-0.6-0.4-1.2-0.8-1.7-1.4c-0.8-1-1.5-2.2-2-3.4c-1.1-2.7-1.8-5.6-1.8-8.5
				C76.3,91.3,76.3,90.9,76.3,90.5z"/>
			<path id="path3035-6" class="st0" d="M98,118.1c3.3,1.7,6.9,2.7,10.6,2.7c3.8-0.1,7.5-1,10.8-2.7c0.6-0.3,0.9-1,0.6-1.7l0,0
				c-0.3-0.6-1.1-0.9-1.7-0.6c-6,3.2-13.2,3.2-19.2,0c-0.6-0.3-1.4-0.1-1.7,0.6C97.1,117,97.3,117.8,98,118.1z"/>
			<ellipse id="ellipse3037-0" class="st0" cx="93.5" cy="92.9" rx="3.8" ry="5.1"/>
			<ellipse id="ellipse3039-5" class="st0" cx="124" cy="92.9" rx="3.8" ry="5.1"/>
			<path id="path3041-0" class="st0" d="M105.9,109.2h0.7c0.6,0,1.2-0.2,1.6-0.5c0.6-0.4,0.7-1.2,0.4-1.7l0,0
				c-0.4-0.6-1.2-0.7-1.8-0.4l0,0c0,0-0.3,0-0.4,0c-0.3-0.1-0.6-0.3-0.8-0.6c-0.4-0.8-0.4-1.7-0.3-2.6c0.3-2.2,0.9-4.4,1.8-6.3
				c0.4-0.6,0.3-1.4-0.3-1.8c-0.6-0.4-1.4-0.3-1.8,0.3c-0.1,0.1-0.1,0.2-0.2,0.3c-1.1,2.2-1.8,4.7-2.1,7.1c-0.3,1.4,0,2.9,0.6,4.2
				C104,108.3,104.9,109,105.9,109.2z"/>
		</g>
	</g>
</g>
</svg>
