<?xml version="1.0" encoding="iso-8859-1"?>
<!-- Generator: Adobe Illustrator 23.0.3, SVG Export Plug-In . SVG Version: 6.00 Build 0)  -->
<!-- <svg version="1.1"
	 id="svg202688" xmlns:cc="http://creativecommons.org/ns#" xmlns:dc="http://purl.org/dc/elements/1.1/" xmlns:rdf="http://www.w3.org/1999/02/22-rdf-syntax-ns#" xmlns:svg="http://www.w3.org/2000/svg"
	 xmlns="http://www.w3.org/2000/svg" xmlns:xlink="http://www.w3.org/1999/xlink" x="0px" y="0px" viewBox="0 0 34.6 52.3"
	 style="enable-background:new 0 0 34.6 52.3;" xml:space="preserve"> -->

<svg width="100%" height="100%" viewBox="-0.5 -0.5 35.6 53.3" xmlns="http://www.w3.org/2000/svg" xmlns:svg="http://www.w3.org/2000/svg" xmlns:se="http://svg-edit.googlecode.com" data-name="Layer 1">

<style type="text/css">
	.st0{fill:#58595B;stroke:none;stroke-width:2;}
</style>
<g id="layer1" transform="translate(-235.03924,-122.21943)">
	<g id="Layer_2-47-8" transform="matrix(0.40396237,0,0,0.40396237,235.04657,122.22043)">
		<g id="Layer_1-2-44-0">
			<path id="path3454-9" class="st0" d="M3.7,129.5c-0.7,0-1.5-0.2-2.1-0.7c-1.7-1.2-2.1-3.5-1.2-5.3l21.7-55.4h-17
				c-1.7,0-3.4-0.8-4.4-2.2c-0.9-1.5-1-3.4-0.2-5L27,4.3c1.3-2.5,3.8-4.2,6.7-4.3h47c1.8-0.1,3.5,0.8,4.5,2.3c0.9,1.5,0.9,3.4,0,4.9
				L64.8,51H81c1.9-0.2,3.7,0.9,4.4,2.7c0.6,1.8,0,3.8-1.5,5L7,128.1C6.1,128.9,5,129.4,3.7,129.5z M8,61.3h19.2
				c1.9,0,3.5,1.5,3.5,3.5c0,0.4-0.1,0.9-0.2,1.3l-19.1,48.9L74.6,58H59.4c-1.1,0-2.2-0.6-2.8-1.6c-0.6-1-0.7-2.2-0.2-3.3L77.7,6.9
				H33.7c-0.2,0.1-0.4,0.2-0.5,0.4L8,61.3z"/>
		</g>
	</g>
	<g id="g203247" transform="matrix(0.40396237,0,0,0.40396237,235.04657,122.22043)">
		<g id="g203245">
			<path id="path203243" class="st0" d="M3.7,129.5c-0.7,0-1.5-0.2-2.1-0.7c-1.7-1.2-2.1-3.5-1.2-5.3l21.7-55.4h-17
				c-1.7,0-3.4-0.8-4.4-2.2c-0.9-1.5-1-3.4-0.2-5L27,4.3c1.3-2.5,3.8-4.2,6.7-4.3h47c1.8-0.1,3.5,0.8,4.5,2.3c0.9,1.5,0.9,3.4,0,4.9
				L64.8,51H81c1.9-0.2,3.7,0.9,4.4,2.7c0.6,1.8,0,3.8-1.5,5L7,128.1C6.1,128.9,5,129.4,3.7,129.5z M8,61.3h19.2
				c1.9,0,3.5,1.5,3.5,3.5c0,0.4-0.1,0.9-0.2,1.3l-19.1,48.9L74.6,58H59.4c-1.1,0-2.2-0.6-2.8-1.6c-0.6-1-0.7-2.2-0.2-3.3L77.7,6.9
				H33.7c-0.2,0.1-0.4,0.2-0.5,0.4L8,61.3z"/>
		</g>
	</g>
</g>
</svg>
