<?xml version="1.0" encoding="iso-8859-1"?>
<!-- Generator: Adobe Illustrator 23.0.3, SVG Export Plug-In . SVG Version: 6.00 Build 0)  -->
<svg version="1.1"
	 id="svg211040" xmlns:cc="http://creativecommons.org/ns#" xmlns:dc="http://purl.org/dc/elements/1.1/" xmlns:rdf="http://www.w3.org/1999/02/22-rdf-syntax-ns#" xmlns:svg="http://www.w3.org/2000/svg"
	 xmlns="http://www.w3.org/2000/svg" xmlns:xlink="http://www.w3.org/1999/xlink" x="0px" y="0px" viewBox="0 0 51.9 52.3"
	 style="enable-background:new 0 0 51.9 52.3;" xml:space="preserve">
<style type="text/css">
	.st0{fill:#616161;}
</style>
<g id="layer1" transform="translate(582.9224,-118.43967)">
	<g id="Layer_2-95-7" transform="matrix(0.25281789,0,0,0.25281789,-582.92391,118.43815)">
		<g id="Layer_1-2-04-4">
			<path id="path5051-9" class="st0" d="M43.3,133.2c0,0.9,0.7,1.6,1.6,1.6c0,0,0,0,0,0c14.1,0.1,25.5,11.6,25.5,25.7
				c-0.1,0.9,0.5,1.7,1.4,1.8c0.9,0.1,1.7-0.5,1.8-1.4c0-0.1,0-0.3,0-0.4c0-15.9-12.8-28.9-28.7-29C44,131.5,43.3,132.2,43.3,133.2
				C43.3,133.2,43.3,133.2,43.3,133.2z"/>
			<path id="path5053-9" class="st0" d="M162,72.2c0-0.9-0.7-1.6-1.6-1.6c-14.2,0-25.7-11.5-25.7-25.7c0-0.9-0.7-1.6-1.6-1.6
				c-0.9,0-1.6,0.7-1.6,1.6c0.1,15.9,13,28.8,28.9,28.8C161.3,73.7,162,73,162,72.2z"/>
			<path id="path5055-4" class="st0" d="M108,79.1l17.8-17.8c1.3-1.3,1.8-3.2,1.2-5c-1.2-3.7-1.9-7.5-1.9-11.3
				c0-19.5,15.8-35.3,35.3-35.4c0,0,0,0,0,0c2.5,0,4.9,0.2,7.3,0.7l-18,18c-4.3,4.4-4.3,11.5,0,15.9l11.3,11.3
				c4.4,4.3,11.5,4.3,15.9,0l18-18c0.5,2.4,0.7,4.9,0.7,7.3c0,19.4-15.7,35.2-35.2,35.3c-3.9,0-7.7-0.6-11.3-1.9
				c-1.7-0.6-3.7-0.1-5,1.2l-17.8,17.8l2,2l7.3,2.3l13.3-13.3c24,6.3,48.6-8,54.9-31.9c2.6-9.9,1.8-20.3-2.3-29.6
				c-0.6-1.5-1.9-2.5-3.5-2.8c-1.6-0.3-3.2,0.2-4.3,1.3l-23.6,23.6c-0.3,0.3-0.7,0.5-1.1,0.5c-0.4,0-0.8-0.2-1.1-0.5l-11.3-11.3
				c-0.6-0.6-0.6-1.6,0-2.3L180,11.6c1.9-1.9,1.9-4.9,0.1-6.8c-0.4-0.4-0.9-0.8-1.5-1c-22.7-10-49.2,0.2-59.3,22.9
				c-2.5,5.7-3.8,11.9-3.8,18.1c0,4,0.5,7.9,1.5,11.8l-15.8,15.8L108,79.1z"/>
			<path id="path5057-5" class="st0" d="M97.6,129.8l-2-2L79.4,144c-1.3,1.3-1.8,3.2-1.2,5c1.3,3.6,1.9,7.5,1.9,11.3
				c0,19.4-15.7,35.2-35.2,35.3c-2.5,0-4.9-0.3-7.3-0.8l18-18c4.3-4.4,4.3-11.5,0-15.9l-11.3-11.3c-4.4-4.3-11.5-4.3-15.9,0
				l-18,18.1c-0.5-2.4-0.7-4.9-0.7-7.3c0-19.5,15.8-35.3,35.3-35.3c3.9,0,7.7,0.7,11.3,1.9c1.7,0.6,3.7,0.1,5-1.2l16.2-16.2
				l-6.6-6.8L56.7,117c-3.8-1-7.7-1.5-11.6-1.5c-24.8-0.1-45,20-45.1,44.8c0,6.3,1.3,12.5,3.8,18.3c1.1,2.4,3.9,3.5,6.3,2.5
				c0.6-0.2,1.1-0.6,1.5-1l23.5-23.5c0.6-0.6,1.6-0.6,2.3,0l11.3,11.3c0.3,0.3,0.5,0.7,0.5,1.1c0,0.4-0.2,0.8-0.5,1.1l-23.5,23.5
				c-1.1,1.1-1.6,2.7-1.3,4.3c0.3,1.6,1.4,2.9,2.8,3.5c5.7,2.6,11.9,3.9,18.2,3.9c24.8,0,44.9-20.1,44.9-44.9
				c0-3.9-0.5-7.8-1.5-11.6l11.7-11.7L97.6,129.8z"/>
			<path id="path5059-9" class="st0" d="M150.2,113.4c-0.5-0.6-1.2-1-2-1.2l-24.8-7.7c-0.5-0.2-1-0.2-1.5-0.2L79.4,61.7
				c0-0.3,0-0.6,0-0.9l-3.9-31.2c-0.2-1.5-1.1-2.9-2.4-3.6L29.8,2.2c-1.9-1-4.2-0.7-5.7,0.8L1.5,25.7c-1.5,1.5-1.8,3.8-0.8,5.7
				l24,43.4c0.8,1.3,2.1,2.2,3.6,2.4l31.2,3.9h0.8l42.5,42.5c0,0.5,0.1,1,0.2,1.5l7.5,24.7c0.2,0.7,0.6,1.4,1.2,2l47.3,47.3
				c10.6,10.6,27.7,10.6,38.3,0c0,0,0,0,0,0c10.6-10.6,10.6-27.7,0-38.3L150.2,113.4z M190.6,167.5c4.3,4.3,6,10.5,4.6,16.4
				l-55.9-57.4l5.2-5.1L190.6,167.5z M190.6,192.2c-1.4,1.4-3,2.5-4.7,3.4c-0.4-0.2-0.7-0.5-1-0.8l-56.1-57.7l8.3-8.3l56.1,57.6
				c0.3,0.3,0.6,0.7,0.8,1C193.1,189.2,192,190.8,190.6,192.2z M66.7,36.8l2.8,23.1L58.2,71.3l-23.1-2.8L66.7,36.8z M10.8,30
				l17.6-17.6l37.5,20.8L31.6,67.4L10.8,30z M106.2,118L65.7,77.4l10.1-10.1l40.6,40.6L106.2,118z M123.2,114.5l17.9,5.7l-22.7,22.7
				l-5.7-17.9L123.2,114.5z M165.8,192.2l-46-46.1l6.7-6.7l55.9,57.5c-1.3,0.3-2.7,0.5-4.1,0.5c-4.6,0-9.1-1.8-12.4-5.1H165.8z"/>
		</g>
	</g>
</g>
</svg>
