<?xml version="1.0" encoding="iso-8859-1"?>
<!-- Generator: Adobe Illustrator 23.0.3, SVG Export Plug-In . SVG Version: 6.00 Build 0)  -->
<svg version="1.1"
	 id="svg224806" xmlns:cc="http://creativecommons.org/ns#" xmlns:dc="http://purl.org/dc/elements/1.1/" xmlns:rdf="http://www.w3.org/1999/02/22-rdf-syntax-ns#" xmlns:svg="http://www.w3.org/2000/svg"
	 xmlns="http://www.w3.org/2000/svg" xmlns:xlink="http://www.w3.org/1999/xlink" x="0px" y="0px" viewBox="0 0 52.3 52.3"
	 style="enable-background:new 0 0 52.3 52.3;" xml:space="preserve">
<style type="text/css">
	.st0{fill:#58595B;stroke:#58595B;stroke-width:0.25;}
</style>
<g id="layer1" transform="translate(48.530012,-123.73134)">
	<g id="Layer_2-27-3" transform="matrix(0.33522341,0,0,0.33522341,-48.543421,123.78157)">
		<g id="Layer_1-2-22-7">
			<path id="path5109-8" class="st0" d="M43.8,83.1c0-0.7-0.5-1.2-1.2-1.2c-17.5,0-31.7,14.2-31.7,31.7c0,0,0,0,0,0.1
				c0,0.7,0.5,1.2,1.2,1.2h0c0.7,0,1.2-0.5,1.2-1.2l0,0c0-16.1,13-29.3,29.1-29.3c0.7,0.1,1.3-0.4,1.3-1.1
				C43.8,83.2,43.8,83.1,43.8,83.1z"/>
			<path id="path5111-8" class="st0" d="M42.4,142.8c-0.7,0-1.2,0.5-1.2,1.2l0,0c0,0.7,0.5,1.2,1.2,1.2c0,0,0,0,0,0
				c17.5,0,31.7-14.1,31.8-31.5c0-0.7-0.5-1.2-1.2-1.2c-0.7,0-1.2,0.5-1.2,1.2C71.7,129.8,58.6,142.8,42.4,142.8z"/>
			<path id="path5113-6" class="st0" d="M127.8,73.4c-15.5,0-28,12.5-28,28c0,0.9,0,1.9,0.1,2.8l-15.4,2.2
				c-1.4-8.3-5.2-16-10.9-22.1l35.3-35.4c11.4,10.5,29.2,9.7,39.7-1.7c10.5-11.4,9.7-29.2-1.7-39.7s-29.2-9.7-39.7,1.7
				c-9.9,10.7-9.9,27.2,0,38L71.8,82.5c-6.1-5.8-13.8-9.6-22-11.1L52,56.1c0.9,0,1.8,0.1,2.8,0.1c15.6,0.1,28.2-12.5,28.3-28
				c0.1-15.6-12.5-28.2-28-28.3s-28.2,12.5-28.3,28c-0.1,13.6,9.5,25.2,22.8,27.8l-2.2,15.4c-1.6-0.2-3.2-0.3-4.8-0.3
				C19.1,70.9,0,89.9,0,113.4s19,42.5,42.5,42.5s42.5-19,42.5-42.5c0-1.6-0.1-3.2-0.3-4.8l15.4-2.2c2.9,15.2,17.5,25.2,32.7,22.3
				s25.2-17.5,22.3-32.7c-2.5-13.2-14.1-22.8-27.5-22.8L127.8,73.4z M31.6,28.3C31.6,15.5,42,5.1,54.7,5.1s23.2,10.4,23.2,23.2
				S67.5,51.4,54.7,51.4l0,0C42,51.4,31.6,41.1,31.6,28.3z M127.8,5.2c12.8-0.1,23.2,10.2,23.3,23c0.1,12.8-10.2,23.2-23,23.3
				s-23.2-10.2-23.3-23c0-0.1,0-0.1,0-0.2C104.8,15.6,115.1,5.2,127.8,5.2z M42.4,148.9c-19.5-0.1-35.3-15.9-35.2-35.4
				s15.9-35.3,35.4-35.2c19.5,0.1,35.3,15.9,35.2,35.4C77.8,133.2,61.9,148.9,42.4,148.9z M127.7,124.5c-12.8,0-23.2-10.3-23.2-23.1
				c0-12.8,10.3-23.2,23.1-23.2c12.8,0,23.2,10.3,23.2,23.1c0,0,0,0,0,0c0,12.7-10.3,23.1-23,23.2L127.7,124.5z"/>
			<path id="path5115-0" class="st0" d="M59.9,41.2c1,0,1.9-0.1,2.8-0.3c0.8-0.2,1.6-0.5,2.4-0.9l-2.1-4.1c-1.2,0.6-2.5,0.9-3.9,1
				c-1.1-0.1-2.1-0.3-3.1-0.5c-0.5-0.1-1-0.2-1.6-0.3c-0.4,0-0.8,0-1.2,0c-0.9,0-1.8,0.1-2.6,0.5c0.9-0.9,1.7-1.9,2.3-3
				c0.4-0.8,0.6-1.6,0.6-2.5c0-0.3,0-0.5,0-0.8h5v-3.8h-6c-0.3-0.7-0.5-1.4-0.7-2.2c-0.2-0.6-0.3-1.3-0.3-1.9c0-0.9,0.4-1.7,1-2.2
				c1.4-1.1,3.5-1.1,4.9,0c0.7,0.7,1.2,1.6,1.3,2.6l5.2-0.7c-0.3-1.9-1.3-3.7-2.8-4.9c-1.8-1.2-3.9-1.8-6-1.7
				c-1.6,0-3.1,0.3-4.5,0.9c-1.3,0.5-2.4,1.4-3.2,2.6c-0.7,1.1-1.1,2.3-1.1,3.6c0,1.4,0.3,2.8,0.8,4.1h-2.9v3.8h4c0,0.3,0,0.6,0,1
				c0,1-0.3,2.1-0.9,2.9c-0.8,1.2-1.9,2.1-3.1,2.8l2,4.1c1.4-0.9,3-1.4,4.7-1.5c1.4,0.1,2.8,0.3,4.2,0.7
				C56.8,40.9,58.4,41.2,59.9,41.2z"/>
			<path id="path5117-4" class="st0" d="M114.8,32.1h2.8c0.5,2.2,1.6,4.1,3.2,5.7c2.5,2.3,5.7,3.6,9.1,3.4c1.9,0,3.9-0.4,5.7-1.1
				v-5.1c-1.6,1.4-3.7,2.1-5.8,2c-1.9,0.1-3.7-0.7-4.9-2c-0.7-0.8-1.2-1.8-1.5-2.8h8.7l0.6-2.7h-9.6c0-0.4,0-0.9,0-1.2v-1h10.2
				l0.6-2.6h-10.5c0.3-1.1,0.8-2,1.5-2.8c1.3-1.4,3.1-2.1,5-2c1.7-0.1,3.4,0.4,4.7,1.4l1.2-4.7c-1.8-0.7-3.7-1.1-5.7-1
				c-3.5-0.2-6.9,1.1-9.4,3.5c-1.6,1.5-2.7,3.5-3.2,5.7h-2.3l-0.6,2.6h2.5c0,0.4,0,0.9,0,1.4v0.9h-1.8L114.8,32.1z"/>
			<path id="path5119-6" class="st0" d="M132.7,90l-3.9,7.3c-0.4,0.8-0.8,1.6-1,2.4c-0.3-0.8-0.6-1.6-1-2.4L123,90h-5.9l5.9,10.8h-5
				v3.8h7.1v2.1H118v3.8h7.1v4.7h5.2v-4.7h7.2v-3.8h-7.2v-2.1h7.2v-3.8h-4.9l6-10.8H132.7z"/>
			<path id="path5121-7" class="st0" d="M44.1,137.3v-4.8c3.3-0.3,6.3-1.7,8.7-3.9c2.1-2.1,3.2-4.9,3.1-7.9c0.1-2.5-0.8-5-2.5-6.8
				c-2.6-2.3-5.9-3.8-9.3-4.3V99.5c1.8,0.7,3.1,2.2,3.4,4.1l7.2-0.9c-0.4-2.4-1.6-4.5-3.4-6.1c-2.1-1.7-4.6-2.7-7.2-2.8v-2.5H40v2.5
				c-2.9,0.1-5.7,1.3-7.9,3.3c-1.9,1.9-2.9,4.4-2.8,7.1c-0.1,2.6,0.9,5.1,2.6,7.1c2.3,2.2,5.1,3.7,8.2,4.4v10.8
				c-1.1-0.5-2.1-1.3-2.8-2.2c-0.8-1-1.4-2.2-1.7-3.5l-7.5,0.7c0.4,3,1.8,5.8,3.9,7.8c2.3,1.9,5.1,3.1,8,3.3v4.7L44.1,137.3z
				 M44.1,116.8c1.4,0.3,2.7,0.9,3.7,1.9c0.7,0.8,1.1,1.8,1.1,2.8c0,1.3-0.4,2.5-1.3,3.5c-0.9,1-2.2,1.6-3.5,1.8V116.8z M37.2,106.5
				c-0.6-0.7-0.9-1.6-0.9-2.5c0-1,0.3-2,1-2.8c0.7-0.8,1.6-1.4,2.7-1.7v8.9C38.9,107.9,37.9,107.3,37.2,106.5z"/>
		</g>
	</g>
</g>
</svg>
