<?xml version="1.0" encoding="utf-8"?>
<!-- Generator: Adobe Illustrator 23.0.3, SVG Export Plug-In . SVG Version: 6.00 Build 0)  -->
<svg version="1.1"
	 id="svg231702" xmlns:cc="http://creativecommons.org/ns#" xmlns:dc="http://purl.org/dc/elements/1.1/" xmlns:rdf="http://www.w3.org/1999/02/22-rdf-syntax-ns#" xmlns:svg="http://www.w3.org/2000/svg"
	 xmlns="http://www.w3.org/2000/svg" xmlns:xlink="http://www.w3.org/1999/xlink" x="0px" y="0px" viewBox="0 0 58.5 52.3"
	 style="enable-background:new 0 0 58.5 52.3;" xml:space="preserve">
<style type="text/css">
	.st0{fill:#CCCCCC;}
	.st1{fill:#58595B;}
	.st2{fill:#58595B;stroke:#58595B;stroke-width:0.25;}
</style>
<g>
	<polygon class="st0" points="51.1,11 29.3,2 7.5,11 6.9,9.4 29.3,0.2 51.7,9.4 	"/>
	<polygon class="st1" points="22.9,22.1 22.9,19.7 20.3,19.7 20.3,22.1 19.2,22.1 19.2,16.5 20.3,16.5 20.3,18.7 22.9,18.7 
		22.9,16.5 24.1,16.5 24.1,22.1 	"/>
	<polygon class="st1" points="25.5,22.1 25.5,16.5 29.4,16.5 29.4,17.6 26.7,17.6 26.7,18.7 29.3,18.7 29.3,19.8 26.6,19.8 26.6,21 
		29.4,21 29.4,22.1 	"/>
	<polygon class="st1" points="30.5,22.1 30.5,16.5 31.7,16.5 31.7,21 34,21 34,22.1 	"/>
	<path class="st1" d="M35,22.1v-5.5h2.6c1-0.1,1.8,0.7,1.9,1.7c0.1,1-0.7,1.8-1.7,1.9h-0.2h-1.4v2H35V22.1z M38.3,18.3
		c0-0.4-0.3-0.8-0.7-0.8h-0.1h-1.2V19h1.2C37.9,19.1,38.2,18.8,38.3,18.3L38.3,18.3L38.3,18.3z"/>
	<polygon class="st1" points="16.1,31 15.1,27.2 14.2,31 12.9,31 11.4,25.5 12.7,25.5 13.6,29.5 14.7,25.5 15.6,25.5 16.6,29.5 
		17.6,25.5 18.9,25.5 17.4,31 	"/>
	<path class="st1" d="M23,31l-0.3-0.9h-2.4L20,31h-1.3l2.1-5.5h1.5l2.1,5.5H23z M21.5,26.6L20.7,29h1.7L21.5,26.6z"/>
	<polygon class="st1" points="28.9,31 26.3,27.4 26.3,31 25.1,31 25.1,25.5 26.4,25.5 28.9,28.9 28.9,25.5 30.1,25.5 30.1,31 	"/>
	<polygon class="st1" points="32.7,31 32.7,26.5 31.1,26.5 31.1,25.5 35.5,25.5 35.5,26.5 33.9,26.5 33.9,31 	"/>
	<polygon class="st1" points="36.5,31 36.5,25.5 40.4,25.5 40.4,26.5 37.7,26.5 37.7,27.7 40.3,27.7 40.3,28.7 37.7,28.7 37.7,29.9 
		40.4,29.9 40.4,31 	"/>
	<path class="st1" d="M41.6,31v-5.5h2.2c1.7,0,2.9,1.1,2.9,2.8c0,1.7-1.2,2.8-2.9,2.8L41.6,31L41.6,31z M45.5,28.2
		c0.1-0.9-0.6-1.7-1.5-1.7h-0.2h-1V30h1c0.9,0,1.7-0.7,1.7-1.6V28.2z"/>
	<path class="st2" d="M54.5,52.2H4.1c-2.2,0-4-1.8-4-4V13c0-2.2,1.8-4,4-4h50.4c2.2,0,4,1.8,4,4v35.2C58.5,50.4,56.7,52.2,54.5,52.2
		z M4.1,12c-0.6,0-1,0.4-1,1v35.2c0,0.6,0.4,1,1,1h50.4c0.6,0,1-0.4,1-1V13c0-0.6-0.4-1-1-1H4.1z"/>
	<path class="st0" d="M45.8,45.8H12.7c-1.9,0-3.3-1.5-3.3-3.3v-4.4c0.1-1.9,1.6-3.3,3.3-3.3h33.1c1.9,0,3.3,1.5,3.3,3.3v4.4
		C49.1,44.4,47.7,45.8,45.8,45.8z M12.7,36.4c-0.9,0-1.6,0.8-1.7,1.7l0,4.3c0,0.9,0.7,1.7,1.7,1.7h33.1c0.9,0,1.7-0.7,1.7-1.7v-4.4
		c0-0.9-0.7-1.7-1.7-1.7H12.7z"/>
	<path class="st1" d="M29.3,0c0.6,0,1.1,0.5,1.1,1.1s-0.5,1.1-1.1,1.1s-1.1-0.5-1.1-1.1C28.2,0.5,28.7,0,29.3,0z"/>
</g>
</svg>
