<?xml version="1.0" encoding="utf-8"?>
<!-- Generator: Adobe Illustrator 23.0.3, SVG Export Plug-In . SVG Version: 6.00 Build 0)  -->
<svg version="1.1" id="Layer_1" xmlns:se="http://svg-edit.googlecode.com" xmlns:svg="http://www.w3.org/2000/svg"
	 xmlns="http://www.w3.org/2000/svg" xmlns:xlink="http://www.w3.org/1999/xlink" x="0px" y="0px" viewBox="0 0 612 792"
	 style="enable-background:new 0 0 612 792;" xml:space="preserve">

<svg width="100%" height="100%" viewBox="-0.5 -0.5 46.2 53.3" xmlns="http://www.w3.org/2000/svg" xmlns:svg="http://www.w3.org/2000/svg" xmlns:se="http://svg-edit.googlecode.com" data-name="Layer 1">
	 
<style type="text/css">
	.st0{fill:none;}
	.st1{fill:#58595B;stroke:#000000;stroke-width:0.25;stroke-miterlimit:10;}
</style>
<g>
	<path class="st0" d="M250.5,91.9C149.9,113.3,71.2,191.9,49.3,292.6c14.4-5.9,30-9.1,45.5-9.1c25.7-1.1,50.8,8,70.1,24.6
		c19.8-16.6,45-25.2,70.6-24.1c24.9-1,49.3,7.5,68.4,23.2c0.7-0.1,1.5-0.1,2.3-0.1c0.4,0,0.9,0,1.3,0.1c19-15.6,43.4-24.1,68.3-23.1
		c25.2-1.1,49.8,7.5,68.5,24.6c19.3-16.6,44.4-25.2,69.6-24.6c16.6,0,33.2,3.2,48.2,9.6C532,151.8,392.9,61.4,250.5,91.9z"/>
	<path class="st1" d="M306.2,49.6C140.8,49.6,6.5,183.9,6.5,349.8c0,1.1,0,2.1,0,3.2c1.1,10.2,10.2,17.7,20.3,16.6
		c10.2-1.1,17.7-10.2,16.6-20.3c0-13.4,22.5-27.8,51.9-27.8s51.9,15,51.9,28.4c0,1.1,0,2.1,0,3.2c1.1,10.2,10.2,17.7,20.3,16.6
		c10.2-1.1,17.7-10.2,16.6-20.3c0-13.4,21.9-28.4,51.9-28.4c27.3,0,47.9,12.4,51.4,24.7v308.2c0,1.6,0,3.7,0,5.4
		c-1.6,28.9-25.7,50.8-54.6,49.2c-28.9-1.6-50.8-26.2-49.2-54.6V650c-0.5-8.6-7.5-15.5-16.6-16.6c-10.2-1.1-19.3,6.4-20.3,16.6v3.7
		c0,49.2,39.6,88.8,88.8,88.8c49.2,0,88.8-39.6,89.4-88.8V353.7c0.3-1.4,0.5-2.9,0.5-4.4c0-13.4,21.9-27.8,51.4-27.8
		c29.4,0,49.2,14.4,49.2,28.4c0,1.1,0,2.1,0,3.2c1.1,10.2,10.2,17.7,20.3,16.6c10.2-1.1,17.7-10.2,16.6-20.3
		c0-13.4,21.9-28.4,51.9-28.4s54,15.5,54,28.4c0,10.2,8,18.7,18.2,18.7h0.5c10.2,0,18.2-8.6,18.2-18.7
		C605.9,183.9,471.5,49.6,306.2,49.6z M513.8,284c-25.2-0.5-50.3,8-69.6,24.6c-18.7-17.1-43.3-25.7-68.5-24.6
		c-24.9-1-49.3,7.5-68.3,23.1c-0.4,0-0.9-0.1-1.3-0.1c-0.8,0-1.5,0.1-2.3,0.1c-19-15.7-43.4-24.2-68.4-23.2
		c-25.7-1.1-50.8,7.5-70.6,24.1c-19.3-16.6-44.4-25.7-70.1-24.6c-15.5,0-31,3.2-45.5,9.1C71.2,191.9,149.9,113.3,250.5,91.9
		C392.9,61.4,532,151.8,562,293.6C547,287.2,530.4,284,513.8,284z"/>
</g>
</svg>
