<?xml version="1.0" encoding="utf-8"?>
<!-- Generator: Adobe Illustrator 23.0.3, SVG Export Plug-In . SVG Version: 6.00 Build 0)  -->
<!-- <svg version="1.1"
	 id="svg240086" xmlns:cc="http://creativecommons.org/ns#" xmlns:dc="http://purl.org/dc/elements/1.1/" xmlns:rdf="http://www.w3.org/1999/02/22-rdf-syntax-ns#" xmlns:svg="http://www.w3.org/2000/svg"
	 xmlns="http://www.w3.org/2000/svg" xmlns:xlink="http://www.w3.org/1999/xlink" x="0px" y="0px" viewBox="0 0 45.2 52.3"
	 style="enable-background:new 0 0 45.2 52.3;" xml:space="preserve"> -->

<svg width="100%" height="100%" viewBox="-1 -1 47.2 54.3" xmlns="http://www.w3.org/2000/svg" xmlns:svg="http://www.w3.org/2000/svg" xmlns:se="http://svg-edit.googlecode.com" data-name="Layer 1">

<style type="text/css">
	.st0{fill:none;}
	.st1{fill:#58595B;stroke:none;stroke-width:1.5;}
</style>
<g>
	<path class="st0" d="M18.4,3.2C10.8,4.8,4.9,10.7,3.2,18.3c1.1-0.4,2.3-0.7,3.4-0.7c1.9-0.1,3.8,0.6,5.3,1.9
		c1.5-1.3,3.4-1.9,5.3-1.8c1.9-0.1,3.7,0.6,5.2,1.8c0.1,0,0.1,0,0.2,0c0,0,0.1,0,0.1,0c1.4-1.2,3.3-1.8,5.2-1.7
		c1.9-0.1,3.8,0.6,5.2,1.9c1.5-1.3,3.4-1.9,5.3-1.9c1.3,0,2.5,0.2,3.6,0.7C39.7,7.7,29.2,0.9,18.4,3.2z"/>
	<path class="st1" d="M22.6,0C10.1,0,0,10.1,0,22.7c0,0.1,0,0.2,0,0.2c0.1,0.8,0.8,1.3,1.5,1.3c0.8-0.1,1.3-0.8,1.3-1.5
		c0-1,1.7-2.1,3.9-2.1s3.9,1.1,3.9,2.1c0,0.1,0,0.2,0,0.2c0.1,0.8,0.8,1.3,1.5,1.3s1.3-0.8,1.3-1.5c0-1,1.7-2.1,3.9-2.1
		c2.1,0,3.7,1,3.9,1.9v23.2c0,0.1,0,0.3,0,0.4c-0.1,2.2-1.9,3.8-4.1,3.7c-2.2-0.1-3.8-2-3.7-4.1v-0.3c0-0.6-0.6-1.2-1.3-1.3
		c-0.8-0.1-1.5,0.5-1.5,1.3v0.3c0,3.7,3,6.7,6.7,6.7c3.7,0,6.7-3,6.7-6.7V22.9c0-0.1,0-0.2,0-0.3c0-1,1.7-2.1,3.9-2.1
		s3.7,1.1,3.7,2.1c0,0.1,0,0.2,0,0.2c0.1,0.8,0.8,1.3,1.5,1.3c0.8-0.1,1.3-0.8,1.3-1.5c0-1,1.7-2.1,3.9-2.1s4.1,1.2,4.1,2.1
		c0,0.8,0.6,1.4,1.4,1.4h0c0.8,0,1.4-0.6,1.4-1.4C45.2,10.1,35.1,0,22.6,0z M38.3,17.7c-1.9,0-3.8,0.6-5.3,1.9
		c-1.4-1.3-3.3-1.9-5.2-1.9c-1.9-0.1-3.7,0.6-5.2,1.7c0,0-0.1,0-0.1,0c-0.1,0-0.1,0-0.2,0c-1.4-1.2-3.3-1.8-5.2-1.8
		c-1.9-0.1-3.8,0.6-5.3,1.8c-1.5-1.3-3.4-1.9-5.3-1.9c-1.2,0-2.3,0.2-3.4,0.7c1.7-7.6,7.6-13.5,15.2-15.1
		c10.7-2.3,21.2,4.5,23.5,15.2C40.8,17.9,39.5,17.7,38.3,17.7z"/>
</g>
</svg>
