<?xml version="1.0" encoding="utf-8"?>
<!-- Generator: Adobe Illustrator 23.0.3, SVG Export Plug-In . SVG Version: 6.00 Build 0)  -->
<!-- <svg version="1.1"
	 id="svg253274" xmlns:cc="http://creativecommons.org/ns#" xmlns:dc="http://purl.org/dc/elements/1.1/" xmlns:rdf="http://www.w3.org/1999/02/22-rdf-syntax-ns#" xmlns:svg="http://www.w3.org/2000/svg"
	 xmlns="http://www.w3.org/2000/svg" xmlns:xlink="http://www.w3.org/1999/xlink" x="0px" y="0px" viewBox="0 0 35.7 52.3"
	 style="enable-background:new 0 0 35.7 52.3;" xml:space="preserve"> -->

<svg width="100%" height="100%" viewBox="-0.5 -0.5 36.7 53.3" xmlns="http://www.w3.org/2000/svg" xmlns:svg="http://www.w3.org/2000/svg" xmlns:se="http://svg-edit.googlecode.com" data-name="Layer 1">

<style type="text/css">
	.st0{fill:#58595B;}
	.st1{fill:none;}
	.st2{fill:#58595B;stroke:none;stroke-width:2;}
</style>
<g id="layer1" transform="translate(305.66068,-35.284904)">
	<g id="Layer_2-62-0" transform="matrix(0.37834925,0,0,0.37834925,-305.66044,35.286796)">
		<g id="Layer_1-2-178-2">
			<path id="path5753-9" class="st0" d="M88.8,95.1H5.7c-1.1,0.1-2-0.6-2.1-1.7c-0.1-1.1,0.6-2,1.7-2.1c0.2,0,0.3,0,0.5,0h83.1
				c1.1-0.1,2,0.6,2.1,1.7c0.1,1.1-0.6,2-1.7,2.1C89.1,95.2,89,95.2,88.8,95.1z"/>
			<path id="path5755-7" class="st0" d="M88.8,64.5H5.7c-1.1,0-1.9-0.9-1.9-1.9s0.9-1.9,1.9-1.9h83.1c1.1,0,1.9,0.9,1.9,1.9
				S89.9,64.5,88.8,64.5z"/>
			<path id="path5761-4" class="st0" d="M20.9,112.7c-2.3,0-4.1-1.8-4.1-4.1s1.8-4.1,4.1-4.1s4.1,1.8,4.1,4.1S23.2,112.7,20.9,112.7
				L20.9,112.7z M20.9,108.3v0.5l0.3-0.3C21.2,108.4,21.1,108.3,20.9,108.3C21,108.3,21,108.3,20.9,108.3z"/>
			<path id="path5763-6" class="st0" d="M34,112.7c-2.3,0-4.1-1.8-4.1-4.1c0-2.3,1.8-4.1,4.1-4.1c2.3,0,4.1,1.8,4.1,4.1
				S36.3,112.7,34,112.7L34,112.7z M34,108.3v0.5l0.3-0.3C34.3,108.4,34.2,108.3,34,108.3L34,108.3z"/>
			<path id="path5765-3" class="st0" d="M75.7,112.7H53.9c-1.1,0-1.9-0.9-1.9-1.9s0.9-1.9,1.9-1.9h21.8c1.1,0,1.9,0.9,1.9,1.9
				S76.8,112.7,75.7,112.7z"/>
			<path id="path5767-7" class="st0" d="M20.9,82c-2.3,0-4.1-1.8-4.1-4.1c0-2.3,1.8-4.1,4.1-4.1s4.1,1.8,4.1,4.1l0,0
				C25,80.2,23.2,82,20.9,82z M20.9,77.6v0.5l0.3-0.3C21.2,77.8,21.1,77.6,20.9,77.6C21,77.6,21,77.6,20.9,77.6z"/>
			<path id="path5769-9" class="st0" d="M34,82c-2.3,0-4.1-1.8-4.1-4.1c0-2.3,1.8-4.1,4.1-4.1s4.1,1.8,4.1,4.1l0,0
				C38.1,80.2,36.3,82,34,82z M34,77.6v0.5l0.3-0.3C34.3,77.7,34.2,77.6,34,77.6L34,77.6z"/>
			<path id="path5771-7" class="st0" d="M75.7,82H53.9c-1.1,0-1.9-0.8-1.9-1.9c0-1.1,0.9-1.9,1.9-1.9h21.8c1.1,0,1.9,0.9,1.9,1.9
				C77.6,81.1,76.7,82,75.7,82z"/>
			<path id="path5773-4" class="st0" d="M20.9,51.3c-2.3,0-4.1-1.8-4.1-4.1c0-2.3,1.8-4.1,4.1-4.1s4.1,1.8,4.1,4.1
				C25,49.5,23.2,51.3,20.9,51.3L20.9,51.3z M20.9,47v0.5l0.3-0.3C21.2,47.1,21.1,47,20.9,47C21,47,21,47,20.9,47z"/>
			<path id="path5775-9" class="st0" d="M34,51.3c-2.3,0-4.1-1.8-4.1-4.1c0-2.3,1.8-4.1,4.1-4.1c2.3,0,4.1,1.8,4.1,4.1
				C38.1,49.5,36.3,51.3,34,51.3L34,51.3z M34,47v0.5l0.3-0.3C34.3,47.1,34.2,47,34,47z"/>
			<path id="path5777-1" class="st0" d="M75.7,51.3H53.9c-1.1,0.1-2-0.6-2.1-1.7c-0.1-1.1,0.6-2,1.7-2.1c0.2,0,0.3,0,0.5,0h21.8
				c1.1-0.1,2,0.6,2.1,1.7c0.1,1.1-0.6,2-1.7,2.1C76,51.4,75.8,51.4,75.7,51.3z"/>
			<g>
				<polygon class="st1" points="18.7,6.9 9,26.3 85.4,26.3 75.7,6.9 				"/>
				<rect x="32" y="61" class="st1" width="30.3" height="33.8"/>
				<path class="st2" d="M94.3,29.6c0-0.5-0.1-1.1-0.3-1.6L80.8,1.8c-0.7-1.4-2.2-2-3.7-1.7c0,0-0.1,0-0.1,0H17.4
					c-0.2,0-0.4,0-0.6,0c0,0-0.1,0-0.1,0c-1.2,0-2.3,0.6-3,1.6L0.6,28c-0.3,0.5-0.4,1-0.4,1.6c0,0.1,0,0.1,0,0.2V126
					c0,2,1.6,3.5,3.5,3.5h13.8v5.4c0,1.9,1.5,3.4,3.4,3.4c2-0.1,3.5-1.6,3.5-3.5v-5.3H70v5.3c0,2,1.6,3.5,3.5,3.5
					c1.9-0.1,3.4-1.6,3.4-3.5v-5.3h13.8c1.9,0,3.4-1.5,3.6-3.3V29.8C94.3,29.7,94.3,29.7,94.3,29.6z M85.4,26.3H9l9.7-19.4h57
					L85.4,26.3z M87.3,122.6H7.1V33.2h80.2V122.6z"/>
			</g>
		</g>
	</g>
</g>
</svg>
