<?xml version="1.0" encoding="iso-8859-1"?>
<!-- Generator: Adobe Illustrator 23.0.3, SVG Export Plug-In . SVG Version: 6.00 Build 0)  -->
<svg version="1.1"
	 id="svg253274" xmlns:cc="http://creativecommons.org/ns#" xmlns:dc="http://purl.org/dc/elements/1.1/" xmlns:rdf="http://www.w3.org/1999/02/22-rdf-syntax-ns#" xmlns:svg="http://www.w3.org/2000/svg"
	 xmlns="http://www.w3.org/2000/svg" xmlns:xlink="http://www.w3.org/1999/xlink" x="0px" y="0px" viewBox="0 0 35.7 52.3"
	 style="enable-background:new 0 0 35.7 52.3;" xml:space="preserve">
<style type="text/css">
	.st0{fill:#58595B;stroke:#58595B;stroke-width:0.25;}
</style>
<g id="layer1" transform="translate(305.66068,-35.284904)">
	<g id="Layer_2-62-0" transform="matrix(0.37834925,0,0,0.37834925,-305.66044,35.286796)">
		<g id="Layer_1-2-178-2">
			<path id="path5751-2" class="st0" d="M90.7,129.5H3.7c-1.9,0-3.5-1.5-3.5-3.5c0,0,0,0,0,0V29.7c0-1.9,1.6-3.4,3.5-3.4h87.1
				c1.9,0,3.5,1.5,3.5,3.5v0v96.4C94.1,128,92.6,129.5,90.7,129.5z M7.1,122.6h80.2V33.2H7.1V122.6z"/>
			<path id="path5753-9" class="st0" d="M88.8,95.1H5.7c-1.1,0.1-2-0.6-2.1-1.7c-0.1-1.1,0.6-2,1.7-2.1c0.2,0,0.3,0,0.5,0h83.1
				c1.1-0.1,2,0.6,2.1,1.7c0.1,1.1-0.6,2-1.7,2.1C89.1,95.2,89,95.2,88.8,95.1z"/>
			<path id="path5755-7" class="st0" d="M88.8,64.5H5.7c-1.1,0-1.9-0.9-1.9-1.9s0.9-1.9,1.9-1.9h83.1c1.1,0,1.9,0.9,1.9,1.9
				S89.9,64.5,88.8,64.5z"/>
			<path id="path5757-5" class="st0" d="M20.9,138.3c-1.9,0-3.4-1.5-3.4-3.4c0,0,0,0,0,0V126c0.2-1.9,1.9-3.3,3.8-3.1
				c1.7,0.2,3,1.5,3.1,3.1v8.8C24.4,136.7,22.9,138.2,20.9,138.3C21,138.3,21,138.3,20.9,138.3z"/>
			<path id="path5759-6" class="st0" d="M73.5,138.3c-1.9,0-3.5-1.5-3.5-3.5l0,0V126c0.2-1.9,1.9-3.3,3.8-3.1c1.7,0.2,3,1.5,3.1,3.1
				v8.8C76.9,136.7,75.4,138.2,73.5,138.3C73.5,138.3,73.5,138.3,73.5,138.3z"/>
			<path id="path5761-4" class="st0" d="M20.9,112.7c-2.3,0-4.1-1.8-4.1-4.1s1.8-4.1,4.1-4.1s4.1,1.8,4.1,4.1S23.2,112.7,20.9,112.7
				C20.9,112.7,20.9,112.7,20.9,112.7z M20.9,108.3v0.5l0.3-0.3C21.2,108.4,21.1,108.3,20.9,108.3C21,108.3,21,108.3,20.9,108.3z"/>
			<path id="path5763-6" class="st0" d="M34,112.7c-2.3,0-4.1-1.8-4.1-4.1c0-2.3,1.8-4.1,4.1-4.1c2.3,0,4.1,1.8,4.1,4.1
				S36.3,112.7,34,112.7L34,112.7z M34,108.3v0.5l0.3-0.3C34.3,108.4,34.2,108.3,34,108.3C34,108.3,34,108.3,34,108.3z"/>
			<path id="path5765-3" class="st0" d="M75.7,112.7H53.9c-1.1,0-1.9-0.9-1.9-1.9s0.9-1.9,1.9-1.9h21.8c1.1,0,1.9,0.9,1.9,1.9
				S76.8,112.7,75.7,112.7z"/>
			<path id="path5767-7" class="st0" d="M20.9,82c-2.3,0-4.1-1.8-4.1-4.1c0-2.3,1.8-4.1,4.1-4.1s4.1,1.8,4.1,4.1c0,0,0,0,0,0
				C25,80.2,23.2,82,20.9,82z M20.9,77.6v0.5l0.3-0.3C21.2,77.8,21.1,77.6,20.9,77.6C21,77.6,21,77.6,20.9,77.6z"/>
			<path id="path5769-9" class="st0" d="M34,82c-2.3,0-4.1-1.8-4.1-4.1c0-2.3,1.8-4.1,4.1-4.1s4.1,1.8,4.1,4.1c0,0,0,0,0,0
				C38.1,80.2,36.3,82,34,82z M34,77.6v0.5l0.3-0.3C34.3,77.7,34.2,77.6,34,77.6C34,77.6,34,77.6,34,77.6z"/>
			<path id="path5771-7" class="st0" d="M75.7,82H53.9c-1.1,0-1.9-0.8-1.9-1.9c0-1.1,0.9-1.9,1.9-1.9h21.8c1.1,0,1.9,0.9,1.9,1.9
				C77.6,81.1,76.7,82,75.7,82z"/>
			<path id="path5773-4" class="st0" d="M20.9,51.3c-2.3,0-4.1-1.8-4.1-4.1s1.8-4.1,4.1-4.1c2.3,0,4.1,1.8,4.1,4.1
				S23.2,51.3,20.9,51.3C20.9,51.3,20.9,51.3,20.9,51.3z M20.9,47v0.5l0.3-0.3C21.2,47.1,21.1,47,20.9,47C21,47,21,47,20.9,47z"/>
			<path id="path5775-9" class="st0" d="M34,51.3c-2.3,0-4.1-1.8-4.1-4.1c0-2.3,1.8-4.1,4.1-4.1c2.3,0,4.1,1.8,4.1,4.1
				S36.3,51.3,34,51.3L34,51.3z M34,47v0.5l0.3-0.3C34.3,47.1,34.2,47,34,47z"/>
			<path id="path5777-1" class="st0" d="M75.7,51.3H53.9c-1.1,0.1-2-0.6-2.1-1.7c-0.1-1.1,0.6-2,1.7-2.1c0.2,0,0.3,0,0.5,0h21.8
				c1.1-0.1,2,0.6,2.1,1.7c0.1,1.1-0.6,2-1.7,2.1C76,51.4,75.8,51.4,75.7,51.3z"/>
			<path id="path5779-7" class="st0" d="M3.5,33.2c-0.5,0-1.1-0.1-1.6-0.4c-1.7-0.8-2.4-2.9-1.5-4.6c0,0,0,0,0,0L13.5,1.9
				c1-1.6,3.1-2.2,4.7-1.2c1.5,0.9,2.1,2.7,1.4,4.3L6.5,31.2C6,32.4,4.8,33.2,3.5,33.2z"/>
			<path id="path5781-0" class="st0" d="M91,33.2c-1.3,0-2.6-0.8-3.1-2L74.8,5c-0.8-1.7-0.2-3.8,1.5-4.6s3.8-0.2,4.6,1.5l13.1,26.2
				c0.9,1.7,0.2,3.8-1.5,4.6c0,0,0,0,0,0C92.1,33.1,91.6,33.2,91,33.2z"/>
			<path id="path5783-6" class="st0" d="M77.9,6.9H16.6c-1.9,0.2-3.6-1.2-3.8-3.1C12.7,1.9,14.1,0.2,16,0c0.2,0,0.4,0,0.6,0h61.3
				c1.9-0.2,3.6,1.2,3.8,3.1s-1.2,3.6-3.1,3.8C78.3,6.9,78.1,6.9,77.9,6.9z"/>
		</g>
	</g>
</g>
</svg>
