<?xml version="1.0" encoding="utf-8"?>
<!-- Generator: Adobe Illustrator 23.0.3, SVG Export Plug-In . SVG Version: 6.00 Build 0)  -->
<svg version="1.1" id="Layer_1" xmlns:se="http://svg-edit.googlecode.com" xmlns:svg="http://www.w3.org/2000/svg"
	 xmlns="http://www.w3.org/2000/svg" xmlns:xlink="http://www.w3.org/1999/xlink" x="0px" y="0px" viewBox="0 0 612 792"
	 style="enable-background:new 0 0 612 792;" xml:space="preserve">

<svg width="100%" height="100%" viewBox="-0.5 -0.5 36.7 53.3" xmlns="http://www.w3.org/2000/svg" xmlns:svg="http://www.w3.org/2000/svg" xmlns:se="http://svg-edit.googlecode.com" data-name="Layer 1">
	 
<style type="text/css">
	.st0{fill:#58595B;}
	.st1{fill:none;}
	.st2{fill:#58595B;stroke:#000000;stroke-width:0.25;stroke-miterlimit:10;}
</style>
<g id="layer1" transform="translate(305.66068,-35.284904)">
	<g id="Layer_2-62-0" transform="matrix(0.37834925,0,0,0.37834925,-305.66044,35.286796)">
		<g id="Layer_1-2-178-2">
			<path id="path5761-4" class="st0" d="M418.3,1694.3c-34.2,0-60.9-26.7-60.9-60.9c0-34.2,26.7-60.9,60.9-60.9s60.9,26.7,60.9,60.9
				C479.2,1667.6,452.5,1694.3,418.3,1694.3L418.3,1694.3z M418.3,1629v7.4l4.5-4.5C422.8,1630.5,421.3,1629,418.3,1629
				C419.8,1629,419.8,1629,418.3,1629z"/>
			<path id="path5763-6" class="st0" d="M613,1694.3c-34.2,0-60.9-26.7-60.9-60.9s26.7-60.9,60.9-60.9s60.9,26.7,60.9,60.9
				C673.9,1667.6,647.1,1694.3,613,1694.3L613,1694.3z M613,1629v7.4l4.5-4.5C617.4,1630.5,615.9,1629,613,1629L613,1629z"/>
			<path id="path5765-3" class="st0" d="M1232.6,1694.3H908.7c-16.3,0-28.2-13.4-28.2-28.2s13.4-28.2,28.2-28.2h323.9
				c16.3,0,28.2,13.4,28.2,28.2S1248.9,1694.3,1232.6,1694.3z"/>
			<path id="path5767-7" class="st0" d="M418.3,1238.2c-34.2,0-60.9-26.7-60.9-60.9c0-34.2,26.7-60.9,60.9-60.9s60.9,26.7,60.9,60.9
				l0,0C479.2,1211.4,452.5,1238.2,418.3,1238.2z M418.3,1172.8v7.4l4.5-4.5C422.8,1175.8,421.3,1172.8,418.3,1172.8
				C419.8,1172.8,419.8,1172.8,418.3,1172.8z"/>
			<path id="path5769-9" class="st0" d="M613,1238.2c-34.2,0-60.9-26.7-60.9-60.9c0-34.2,26.7-60.9,60.9-60.9
				c34.2,0,60.9,26.7,60.9,60.9l0,0C673.9,1211.4,647.1,1238.2,613,1238.2z M613,1172.8v7.4l4.5-4.5
				C617.4,1174.3,615.9,1172.8,613,1172.8L613,1172.8z"/>
			<path id="path5771-7" class="st0" d="M1232.6,1238.2H908.7c-16.3,0-28.2-11.9-28.2-28.2c0-16.3,13.4-28.2,28.2-28.2h323.9
				c16.3,0,28.2,13.4,28.2,28.2C1260.8,1224.8,1247.5,1238.2,1232.6,1238.2z"/>
			<path id="path5773-4" class="st0" d="M418.3,782c-34.2,0-60.9-26.7-60.9-60.9c0-34.2,26.7-60.9,60.9-60.9s60.9,26.7,60.9,60.9
				C479.2,755.2,452.5,782,418.3,782L418.3,782z M418.3,718.1v7.4l4.5-4.5C422.8,719.6,421.3,718.1,418.3,718.1
				C419.8,718.1,419.8,718.1,418.3,718.1z"/>
			<path id="path5775-9" class="st0" d="M613,782c-34.2,0-60.9-26.7-60.9-60.9c0-34.2,26.7-60.9,60.9-60.9s60.9,26.7,60.9,60.9
				C673.9,755.2,647.1,782,613,782L613,782z M613,718.1v7.4l4.5-4.5C617.4,719.6,615.9,718.1,613,718.1z"/>
			<path id="path5777-1" class="st0" d="M1232.6,782H908.7c-16.3,1.5-29.7-8.9-31.2-25.3c-1.5-16.3,8.9-29.7,25.3-31.2
				c3,0,4.5,0,7.4,0h323.9c16.3-1.5,29.7,8.9,31.2,25.3c1.5,16.3-8.9,29.7-25.3,31.2C1237.1,783.5,1234.1,783.5,1232.6,782z"/>
			<g>
				<rect x="583.7" y="1101.9" class="st1" width="450.9" height="150.7"/>
				<rect x="583.7" y="640" class="st1" width="450.9" height="154.6"/>
				<polygon class="st1" points="1377.5,410.5 1233.3,122.2 384.9,122.2 240.7,410.5 				"/>
				<rect x="583.7" y="1559.8" class="st1" width="450.9" height="154.6"/>
				<path class="st1" d="M418.3,2074.7c0.7,0,1.1,0,1.1,0"/>
				<path class="st2" d="M1504.5,437.3L1322,72.2c0-2.1,0-4.2-0.2-6.4c-3-28.2-28.2-49-56.5-46.1H354.4c-3,0-5.9,0-8.9,0
					c-25.6,2.7-45,23.7-47.3,48.7L113.7,438.7c-6.9,13-7.4,27.5-3,40.2V1892c0,29.7,23.8,52,52,52h205.1v80.2
					c0,28.2,22.3,50.5,50.5,50.5c29.7-1.5,52-23.8,52-52V1944h677.6v78.8c0,29.7,23.8,52,52,52c28.2-1.5,50.5-23.8,50.5-52V1944
					h205.1c28.2,0,50.5-22.3,53.5-49V472.4C1511.7,461,1510.5,448.5,1504.5,437.3z M384.9,122.2h848.5l144.1,288.3H240.7
					L384.9,122.2z M213.2,513H1405v408.6H213.2V513z M213.2,978.1H1405v398.2H213.2V978.1z M213.2,1841.5v-408.6H1405v408.6H213.2z"
					/>
			</g>
		</g>
	</g>
</g>
</svg>
