<?xml version="1.0" encoding="utf-8"?>
<!-- Generator: Adobe Illustrator 23.0.3, SVG Export Plug-In . SVG Version: 6.00 Build 0)  -->

<svg version="1.1"
	 id="svg238631" xmlns:cc="http://creativecommons.org/ns#" xmlns:dc="http://purl.org/dc/elements/1.1/" xmlns:inkscape="http://www.inkscape.org/namespaces/inkscape" xmlns:rdf="http://www.w3.org/1999/02/22-rdf-syntax-ns#" xmlns:sodipodi="http://sodipodi.sourceforge.net/DTD/sodipodi-0.dtd" xmlns:svg="http://www.w3.org/2000/svg"
	 xmlns="http://www.w3.org/2000/svg" xmlns:xlink="http://www.w3.org/1999/xlink" x="0px" y="0px" viewBox="-0.5 -0.5 51.1 53.3"
	 style="enable-background:new 0 0 50.1 52.3;" xml:space="preserve">

<style type="text/css">
	.st0{fill:#58595B;stroke:none;stroke-width:2;}
	.st1{fill:#58595B;}
</style>
<sodipodi:namedview  bordercolor="#666666" borderopacity="1.0" fit-margin-bottom="0" fit-margin-left="0" fit-margin-right="0" fit-margin-top="0" id="base" inkscape:current-layer="layer1" inkscape:cx="77.705647" inkscape:cy="354.8737" inkscape:document-units="mm" inkscape:pageopacity="0.0" inkscape:pageshadow="2" inkscape:window-height="2105" inkscape:window-maximized="0" inkscape:window-width="1887" inkscape:window-x="67" inkscape:window-y="27" inkscape:zoom="0.35" pagecolor="#ffffff" showgrid="false">
	</sodipodi:namedview>
<g id="layer1" transform="translate(44.372119,-224.273)" inkscape:groupmode="layer" inkscape:label="Layer 1">
	<g id="Layer_2-22" transform="matrix(0.29474525,0,0,0.29474525,-44.372119,224.273)">
		<g id="Layer_1-2-92">
			<path id="path9998" inkscape:connector-curvature="0" class="st0" d="M131.8,112.5c15.4-25.5,7.2-58.7-18.4-74.1
				s-58.7-7.2-74.1,18.4C29,73.9,29,95.3,39.3,112.5l13.2,18.8c4.6,6.5,6.7,9.4,6.7,17v16.6c0,8.3,13.3,12.6,26.4,12.6
				s26.4-4.3,26.4-12.6v-16.4c0-7.7,2.1-10.7,6.6-17l13-18.6L131.8,112.5z M78.4,135.9c0,0.6,0.5,1.1,1.2,1.1l0,0
				c0.6,0,1.2-0.5,1.2-1.2c0-3.1,0-5.9-0.3-8.5c1.6,0,3.3-0.2,5-0.2c1.8,0,3.5,0,5,0.2c0,2.6-0.2,5.4-0.2,8.5c0,0.6,0.5,1.1,1.1,1.2
				l0,0c0.6,0,1.1-0.5,1.2-1.1l0,0c0-3,0-5.7,0.2-8.3c8.8,1.2,14.5,4.5,14.5,7.5s-8.5,6.9-21.9,6.9s-21.8-4.1-21.8-6.9
				s5.7-6.3,14.5-7.5C78.3,130.1,78.4,132.9,78.4,135.9z M80.4,125c-0.7-11.1-2.5-22.2-5.2-33L75,90.9c0.5,0.6,1.2,1,2,1
				c1.8,0,2.6-1.8,3.2-3.2c0.3-0.6,0.8-1.8,1.1-1.8c0.3,0,0.8,1.2,1.1,1.8c0.6,1.4,1.4,3.2,3.2,3.2s2.6-1.8,3.2-3.2
				c0.3-0.6,0.8-1.8,1.1-1.8c0.3,0,0.8,1.2,1.1,1.8c0.6,1.4,1.4,3.2,3.2,3.2c0.8,0,1.5-0.4,2-1L95.9,92c-2.7,10.8-4.5,21.8-5.2,33
				c-1.7-0.1-3.4-0.2-5.2-0.2S82.2,124.9,80.4,125z M103.4,146c-5.4,5-17.4,8.2-27.2,7.3c-3.7,0-7.3-1.4-10.2-3.7v-1
				c0-1.9-0.1-3.8-0.4-5.7c6.3,2.7,13,4,19.8,3.7c6.8,0.3,13.6-1,19.8-3.7v0.7C104.8,144.4,104.2,145.2,103.4,146z M66,155.1
				c3,1.6,6.4,2.6,9.8,2.8c1.2,0,2.5,0.2,3.8,0.2c9.1,0.1,17.9-2.4,25.5-7.4v2.7c-0.4,0.7-1,1.2-1.6,1.8c-5.4,4.7-17.3,7.4-27.2,6.1
				c-3.8-0.2-7.4-1.7-10.3-4.2V155.1z M85.5,170.8c-12.8,0-19.5-4.3-19.5-5.7v-2.4c3,1.6,6.3,2.7,9.7,3.1c1.9,0.3,3.8,0.4,5.7,0.4
				c8.4,0.2,16.6-2.1,23.7-6.5v5.5C105.1,166.5,98.4,170.8,85.5,170.8z M113,127.3c-1.4,2.1-2.8,3.9-3.8,5.7
				c-1.7-3.7-7.9-6.6-16.2-7.7c0.7-11,2.5-22,5.1-32.7l1.1-4.2c0.2-0.9-0.3-1.9-1.2-2.2c-0.9-0.3-1.9,0.1-2.3,1l-0.3,0.6
				c-0.3,0.6-0.8,1.8-1.1,1.8s-0.8-1.2-1.1-1.8c-0.6-1.4-1.4-3.2-3.2-3.2s-2.6,1.8-3.2,3.2c-0.3,0.6-0.8,1.8-1.1,1.8
				c-0.3,0-0.8-1.2-1.1-1.8c-0.6-1.4-1.4-3.2-3.2-3.2c-1.8,0-2.6,1.8-3.2,3.2c-0.3,0.6-0.8,1.8-1.1,1.8s-0.8-1.2-1.1-1.8
				c-0.1-0.2-0.2-0.4-0.3-0.6c-0.4-0.9-1.4-1.3-2.3-1s-1.4,1.2-1.2,2.2l0.9,4.2c2.7,10.7,4.4,21.7,5.1,32.7
				c-8.2,1.1-14.4,4-16.2,7.7c-1.1-1.8-2.4-3.6-3.8-5.7l-13-18.5c-13.4-22.3-6.1-51.3,16.2-64.7c7.3-4.4,15.6-6.7,24.1-6.7
				c26,0.1,47.1,21.2,47,47.2c0,8.5-2.3,16.8-6.7,24.1L113,127.3z"/>
			<path id="path10000" inkscape:connector-curvature="0" class="st1" d="M85.5,44.3c-22.2,0-40.2,18-40.2,40.2
				c0,0.6,0.5,1.2,1.2,1.2c0.6,0,1.1-0.5,1.1-1.1l0,0c0-20.9,17-37.9,37.9-37.9c0.6,0.1,1.2-0.3,1.3-1c0.1-0.6-0.3-1.2-1-1.3
				C85.8,44.3,85.7,44.3,85.5,44.3z"/>
			<polygon id="polygon10002" class="st0" points="81.6,0 85,25.3 88.5,0 			"/>
			<polygon id="polygon10004" class="st0" points="22.5,27.4 42.8,42.8 27.4,22.5 			"/>
			<polygon id="polygon10006" class="st0" points="147.6,142.7 127.3,127.3 142.7,147.6 			"/>
			<polygon id="polygon10008" class="st0" points="0,88.5 25.3,85 0,81.6 			"/>
			<polygon id="polygon10010" class="st0" points="170.1,88.5 170.1,81.6 144.8,85 			"/>
			<polygon id="polygon10012" class="st0" points="42.8,127.3 22.5,142.7 27.4,147.6 			"/>
			<polygon id="polygon10014" class="st0" points="127.3,42.8 147.6,27.4 142.7,22.5 			"/>
		</g>
	</g>
</g>
</svg>
