<?xml version="1.0" encoding="iso-8859-1"?>
<!-- Generator: Adobe Illustrator 23.0.3, SVG Export Plug-In . SVG Version: 6.00 Build 0)  -->
<svg version="1.1"
	 id="svg260189" xmlns:cc="http://creativecommons.org/ns#" xmlns:dc="http://purl.org/dc/elements/1.1/" xmlns:rdf="http://www.w3.org/1999/02/22-rdf-syntax-ns#" xmlns:svg="http://www.w3.org/2000/svg"
	 xmlns="http://www.w3.org/2000/svg" xmlns:xlink="http://www.w3.org/1999/xlink" x="0px" y="0px" viewBox="0 0 45.4 52.3"
	 style="enable-background:new 0 0 45.4 52.3;" xml:space="preserve">
<style type="text/css">
	.st0{fill:#58595B;stroke:#58595B;stroke-width:0.25;}
</style>
<g id="layer1" transform="translate(327.77291,-129.77896)">
	<g id="Layer_2-75-0" transform="matrix(0.3759118,0,0,0.3759118,-327.77289,129.7718)">
		<g id="Layer_1-2-38-8">
			<path id="path5880-5" class="st0" d="M117.3,138.9H3.5c-1.9,0-3.4-1.5-3.5-3.4c0,0,0,0,0-0.1V74.1c0-1.9,1.5-3.5,3.5-3.5h113.8
				c1.9,0,3.5,1.5,3.5,3.5l0,0v61.3C120.7,137.3,119.2,138.9,117.3,138.9C117.3,138.9,117.3,138.9,117.3,138.9z M6.9,132h107V77.6
				H6.9V132z"/>
			<path id="path5882-3" class="st0" d="M37.4,77.6c-1.8,0-3.3-1.4-3.4-3.2L30.9,25h-11l-3.1,49.3c-0.1,1.9-1.7,3.3-3.5,3.2
				c0,0-0.1,0-0.1,0c-1.9-0.1-3.3-1.8-3.2-3.7l3.3-52.5c0.1-1.8,1.6-3.2,3.4-3.2H34c1.8,0,3.3,1.4,3.4,3.2l3.4,52.5
				c0.1,1.9-1.3,3.5-3.2,3.7L37.4,77.6z"/>
			<path id="path5884-9" class="st0" d="M72.4,77.6c-1.8,0-3.3-1.4-3.4-3.2L65.9,25h-11l-3.1,49.3c-0.1,1.9-1.7,3.3-3.6,3.2
				c-1.9-0.1-3.3-1.8-3.2-3.7l3.2-52.5c0.1-1.8,1.6-3.2,3.5-3.2h17.5c1.8,0,3.3,1.4,3.4,3.2l3.3,52.5c0.1,1.9-1.3,3.5-3.2,3.7
				L72.4,77.6z"/>
			<path id="path5886-4" class="st0" d="M104.1,77.6c-1.9,0-3.5-1.5-3.5-3.5l0,0V61c0-2.9-2.4-5.3-5.3-5.3c-2.9,0-5.3,2.4-5.3,5.3
				c0,0,0,0,0,0v13.1c0.2,1.9-1.2,3.6-3.1,3.8c-1.9,0.2-3.6-1.2-3.8-3.1c0-0.2,0-0.4,0-0.6V61c-0.3-6.7,4.9-12.5,11.6-12.8
				c6.7-0.3,12.5,4.9,12.8,11.6c0,0.4,0,0.8,0,1.2v13.1C107.6,76,106.1,77.6,104.1,77.6C104.1,77.6,104.1,77.6,104.1,77.6z"/>
			<path id="path5888-1" class="st0" d="M99.8,138.9c-1.9,0-3.4-1.6-3.4-3.5c0,0,0,0,0,0v-27.2H81.3v27.2c0.2,1.9-1.2,3.6-3.1,3.8
				c-1.9,0.2-3.6-1.2-3.8-3.1c0-0.2,0-0.4,0-0.6v-30.6c0-1.9,1.5-3.4,3.4-3.4h21.9c1.9,0,3.4,1.5,3.4,3.4v30.6
				C103.2,137.3,101.7,138.8,99.8,138.9C99.8,138.9,99.8,138.9,99.8,138.9z"/>
			<path id="path5890-5" class="st0" d="M36.3,108.9H18.8c-1-0.1-1.8-0.9-1.8-1.9V93.8c0-1,0.9-1.9,1.9-1.9h17.4
				c1.1,0,1.9,0.8,1.9,1.9v13.1C38.2,108,37.3,108.9,36.3,108.9z M20.7,105h13.7v-9.3H20.7V105z"/>
			<path id="path5892-4" class="st0" d="M62.6,108.9H45c-1.1,0-1.9-0.9-1.9-1.9l0,0V93.8c0-1.1,0.9-1.9,1.9-1.9h17.5
				c1,0,1.9,0.9,1.9,1.9v13.1C64.5,108,63.6,108.9,62.6,108.9C62.6,108.9,62.6,108.9,62.6,108.9z M46.9,105h13.7v-9.3H46.9V105z"/>
			<path id="path5894-1" class="st0" d="M86.3,17c-1,0-1.9-0.2-2.8-0.5c-1-0.3-1.9-0.7-2.8-1.3c-0.9-0.5-1.7-1.1-2.5-1.8
				c-0.8-0.7-1.5-1.3-2.3-2l-2.1-2.1l-2-2c-0.7-0.6-1.3-1.2-2-1.7c-1-0.8-2.3-1.3-3.5-1.6c-1.2-0.3-2.5-0.3-3.7,0
				c-1.4,0.3-2.6,0.9-3.8,1.7c-0.7,0.8-1.9,0.9-2.7,0.2c-0.8-0.7-0.9-1.9-0.2-2.7c0.2-0.2,0.4-0.4,0.7-0.5c1.5-1.1,3.2-1.8,4.9-2.3
				c1.7-0.4,3.6-0.4,5.3,0c1.8,0.4,3.6,1.2,5.1,2.3c0.8,0.6,1.6,1.3,2.4,2c0.7,0.7,1.4,1.4,2.2,2.1l2.1,2.1c0.7,0.6,1.4,1.3,2,1.8
				c0.6,0.5,1.3,1,2,1.5c0.7,0.4,1.3,0.7,2,0.9c0.6,0.2,1.2,0.3,1.9,0.3c0.6,0,1.2-0.1,1.7-0.4c1-0.4,2.1,0,2.5,1c0.4,1,0,2.1-1,2.5
				c-1,0.4-2.1,0.6-3.2,0.7H86.3z"/>
			<path id="path5896-5" class="st0" d="M104.5,12.6c-0.7,0-1.3-0.1-2-0.1c-0.7,0-1.3-0.3-1.9-0.4c-0.6-0.2-1.2-0.4-1.8-0.6
				s-1.1-0.5-1.6-0.7L95.8,10l-1.4-0.7L93,8.8c-0.8-0.3-1.7-0.5-2.6-0.5c-0.9-0.1-1.9-0.1-2.8,0c-0.9,0.1-1.8,0.3-2.6,0.6
				c-1,0.3-2.1-0.2-2.4-1.2c-0.3-1,0.2-2,1.1-2.4c0,0,0,0,0.1,0c1.1-0.4,2.2-0.6,3.4-0.8c1.2-0.1,2.3-0.1,3.5,0
				c1.2,0.1,2.3,0.4,3.5,0.7l1.7,0.7l1.5,0.7l1.4,0.7l1.4,0.6l1.4,0.5c0.5,0.1,1,0.2,1.4,0.3c0.5,0.1,1,0.1,1.4,0c0.4,0,0.9,0,1.3,0
				c1-0.2,2,0.4,2.3,1.5c0.2,1-0.4,2-1.5,2.3c0,0,0,0,0,0C105.9,12.5,105.2,12.6,104.5,12.6z"/>
		</g>
	</g>
</g>
</svg>
