<?xml version="1.0" encoding="utf-8"?>
<!-- Generator: Adobe Illustrator 23.0.3, SVG Export Plug-In . SVG Version: 6.00 Build 0)  -->
<svg version="1.1" id="Layer_1" xmlns:se="http://svg-edit.googlecode.com" xmlns:svg="http://www.w3.org/2000/svg"
	 xmlns="http://www.w3.org/2000/svg" xmlns:xlink="http://www.w3.org/1999/xlink" x="0px" y="0px" viewBox="0 0 612 792"
	 style="enable-background:new 0 0 612 792;" xml:space="preserve">

<!-- <svg width="100%" height="100%" viewBox="-0.5 -0.5 46.4 53.3" xmlns="http://www.w3.org/2000/svg" xmlns:svg="http://www.w3.org/2000/svg" xmlns:se="http://svg-edit.googlecode.com" data-name="Layer 1"> -->

<style type="text/css">
	.st0{fill:none;}
	.st1{fill:#58595B;stroke:#FFFFFF;stroke-width:0.25;stroke-miterlimit:10;}
	.st2{fill:#58595B;}
</style>
<g>
	<polygon class="st0" points="159.8,174.9 105.3,174.9 91,401 174,401 	"/>
	<rect x="409.7" y="582" class="st0" width="74.9" height="123.5"/>
	<polygon class="st0" points="333.3,174.9 278.8,174.9 264.6,401 347.5,401 	"/>
	<path class="st0" d="M505.4,345.9c0-14.4-11.9-26.3-26.3-26.3c-14.4,0-26.3,11.9-26.3,26.3V401h52.6V345.9z"/>
	<rect x="109.2" y="525.5" class="st0" width="67.9" height="46.1"/>
	<rect x="239.1" y="525.5" class="st0" width="67.9" height="46.1"/>
	<path class="st0" d="M40.8,435.7v269.7h334.7V565.7c0-9.4,7.4-16.9,16.9-16.9h108.6c9.4,0,16.9,7.4,16.9,16.9v139.8h53.5V435.7
		H40.8z M196,581c0,5.5-4.5,9.9-9.4,9.9H99.8c-5-0.5-8.9-4.5-8.9-9.4v-65.4c0-5,4.5-9.4,9.4-9.4h86.3c5.5,0,9.4,4,9.4,9.4V581z
		 M317,590.9h-87.3c-5.5,0-9.4-4.5-9.4-9.4v-65.4c0-5.5,4.5-9.4,9.4-9.4h86.8c5,0,9.4,4.5,9.4,9.4v65
		C326.4,586.5,321.9,590.9,317,590.9z"/>
	<path class="st1" d="M588.2,401h-48.6v-55.2c0-2,0-4,0-5.9c-1.5-33.2-30.2-59-63.5-57.5c-33.2,1.5-59,30.2-57.5,63.5V401h-36.7
		l-15.4-244.4c-0.5-8.9-7.9-15.9-16.9-15.9h-86.8c-9.4,0-16.9,6.9-17.4,15.9L230.7,401h-22.8L192,156.6c-0.5-8.9-7.9-15.9-16.9-15.9
		H89.4c-8.9,0-16.4,6.9-16.9,15.9L57.2,401H23.9C14,401,6.6,409,6.6,418.4v303.9c0,0.5,0,0.5,0,0.5c0.5,9.4,7.9,16.9,17.4,16.9
		h564.2c9.4,0,16.9-7.9,17.4-17.4V418.4C605.5,408.5,597.6,401,588.2,401z M452.8,345.9c0-14.4,11.9-26.3,26.3-26.3
		c14.4,0,26.3,11.9,26.3,26.3V401h-52.6V345.9z M278.8,174.9h54.5L347.5,401h-82.9L278.8,174.9z M105.3,174.9h54.5L174,401H91
		L105.3,174.9z M484.6,705.5h-74.9V582h74.9V705.5z M571.3,705.5h-53.5V565.7c0-9.4-7.4-16.9-16.9-16.9H392.3
		c-9.4,0-16.9,7.4-16.9,16.9v139.8H40.8V435.7h530.5V705.5z"/>
	<path class="st2" d="M186.6,506.6h-86.3c-5,0-9.4,4.5-9.4,9.4v65.4c0,5,4,8.9,8.9,9.4h86.8c5,0,9.4-4.5,9.4-9.9v-65
		C196,510.6,192,506.6,186.6,506.6z M177.2,571.6h-67.9v-46.1h67.9V571.6z"/>
	<path class="st2" d="M325.9,516.1c0-5-4.5-9.4-9.4-9.4h-86.8c-5,0-9.4,4-9.4,9.4v65.4c0,5,4,9.4,9.4,9.4H317c5,0,9.4-4.5,8.9-9.9
		V516.1z M307.1,571.6h-67.9v-46.1h67.9V571.6z"/>
	<path class="st1" d="M284.7,80.2c4,3.5,9.9,3,13.4-1c5.9-4,11.9-6.9,18.8-8.4c5.9-1.5,12.4-1.5,18.3,0s12.4,4,17.4,7.9
		c3.5,2.5,6.4,5.5,9.9,8.4l9.9,9.9l10.4,10.4c4,3.5,7.4,6.4,11.4,9.9c4,3.5,7.9,6.4,12.4,8.9c4.5,3,8.9,5,13.9,6.4
		c4.5,1.5,8.9,2.5,13.9,2.5v1h1c5.5-0.5,10.9-1.5,15.9-3.5c5-2,6.9-7.4,5-12.4s-7.4-6.9-12.4-5c-2.5,1.5-5.5,2-8.4,2
		c-3.5,0-6.4-0.5-9.4-1.5c-3.5-1-6.4-2.5-9.9-4.5c-3.5-2.5-6.9-5-9.9-7.4c-3-2.5-6.4-5.9-9.9-8.9l-10.4-10.4
		c-4-3.5-7.4-6.9-10.9-10.4c-4-3.5-7.9-6.9-11.9-9.9c-7.4-5.5-16.4-9.4-25.3-11.4c-8.4-2-17.8-2-26.3,0c-8.4,2.5-16.9,5.9-24.3,11.4
		c-1.5,0.5-2.5,1.5-3.5,2.5C280.3,70.8,280.8,76.8,284.7,80.2z"/>
	<path class="st1" d="M428,95.1c4-1.5,8.4-2.5,12.9-3c4.5-0.5,9.4-0.5,13.9,0c4.5,0,8.9,1,12.9,2.5l6.9,2.5l6.9,3.5l6.9,4
		c2.5,1,5,2.5,7.9,3.5s5.9,2,8.9,3c3,0.5,5.9,2,9.4,2c3.5,0,6.4,0.5,9.9,0.5s6.9-0.5,9.9-0.5c5.5-1.5,8.4-6.4,7.4-11.4
		c-1.5-5.5-6.4-8.4-11.4-7.4c-2,0-4.5,0-6.4,0c-2,0.5-4.5,0.5-6.9,0c-2-0.5-4.5-1-6.9-1.5l-6.9-2.5l-6.9-3l-6.9-3.5l-7.4-3.5
		l-8.4-3.5c-5.9-1.5-11.4-3-17.4-3.5c-5.9-0.5-11.4-0.5-17.4,0c-5.9,1-11.4,2-16.9,4c-0.5,0-0.5,0-0.5,0c-4.5,2-6.9,6.9-5.5,11.9
		C417.6,94.1,423.1,96.6,428,95.1z"/>
</g>
</svg>
