<?xml version="1.0" encoding="utf-8"?>
<!-- Generator: Adobe Illustrator 23.0.3, SVG Export Plug-In . SVG Version: 6.00 Build 0)  -->
<svg version="1.1"
	 id="svg260189" xmlns:cc="http://creativecommons.org/ns#" xmlns:dc="http://purl.org/dc/elements/1.1/" xmlns:rdf="http://www.w3.org/1999/02/22-rdf-syntax-ns#" xmlns:svg="http://www.w3.org/2000/svg"
	 xmlns="http://www.w3.org/2000/svg" xmlns:xlink="http://www.w3.org/1999/xlink" x="0px" y="0px" viewBox="0 0 45.4 52.3"
	 style="enable-background:new 0 0 45.4 52.3;" xml:space="preserve">
<style type="text/css">
	.st0{fill:none;}
	.st1{fill:#58595B;stroke:#000000;stroke-width:0.25;stroke-miterlimit:10;}
	.st2{fill:#58595B;}
</style>
<g>
	<rect x="30.6" y="40.3" class="st0" width="5.7" height="9.4"/>
	<polygon class="st0" points="24.7,8.7 20.6,8.7 19.5,26.5 25.9,26.5 	"/>
	<path class="st0" d="M37.8,22.2c0-1.1-0.9-2-2-2s-2,0.9-2,2v4.3h4V22.2z"/>
	<rect x="17.6" y="36" class="st0" width="5.1" height="3.5"/>
	<polygon class="st0" points="11.6,9.4 7.5,9.4 6.4,26.5 12.7,26.5 	"/>
	<path class="st0" d="M2.6,29.2v20.4H28V39c0-0.7,0.6-1.3,1.3-1.3h8.2c0.7,0,1.3,0.6,1.3,1.3v10.6h4.1V29.2H2.6z M16.2,35.3
		c0-0.4,0.3-0.7,0.7-0.7h6.6c0.4,0,0.7,0.3,0.7,0.7v4.9c0,0.4-0.3,0.8-0.7,0.8h-6.6c-0.4,0-0.7-0.3-0.7-0.7V35.3z M14.4,35.3v4.9
		c0,0.4-0.3,0.8-0.7,0.8H7.1c-0.4,0-0.7-0.3-0.7-0.7v-5c0-0.4,0.3-0.7,0.7-0.7h6.5C14.1,34.5,14.4,34.8,14.4,35.3z"/>
	<rect x="7.8" y="36" class="st0" width="5.1" height="3.5"/>
	<path class="st1" d="M44.1,26.5h-3.7v-4.3c0-0.2,0-0.3,0-0.5c-0.1-2.5-2.3-4.5-4.8-4.4s-4.5,2.3-4.4,4.8v4.3h-2.8L27.3,7.3
		c0-0.7-0.6-1.2-1.3-1.2h-6.6c-0.7,0-1.3,0.5-1.3,1.2l-1.2,19.3h-1.7L14.1,8c0-0.7-0.6-1.2-1.3-1.2H6.3C5.6,6.8,5,7.3,5,8L3.8,26.5
		H1.3c-0.8,0-1.3,0.6-1.3,1.3v23c0,0,0,0,0,0c0,0.7,0.6,1.3,1.3,1.3h42.8c0.7,0,1.3-0.6,1.3-1.3v-23C45.4,27.1,44.8,26.5,44.1,26.5z
		 M33.8,22.2c0-1.1,0.9-2,2-2s2,0.9,2,2v4.3h-4V22.2z M20.6,8.7h4.1l1.1,17.9h-6.4L20.6,8.7z M7.5,9.4h4.1l1.1,17.1H6.4L7.5,9.4z
		 M36.2,49.6h-5.7v-9.4h5.7V49.6z M42.8,49.6h-4.1V39c0-0.7-0.6-1.3-1.3-1.3h-8.2c-0.7,0-1.3,0.6-1.3,1.3v10.6H2.6V29.2h40.2V49.6z"
		/>
	<path class="st2" d="M7.1,34.5c-0.4,0-0.7,0.3-0.7,0.7v5c0,0.4,0.3,0.7,0.7,0.7h6.6c0.4,0,0.7-0.3,0.7-0.8v-4.9
		c0-0.4-0.3-0.7-0.7-0.7H7.1z M12.9,39.5H7.8V36h5.1V39.5z"/>
	<path class="st2" d="M16.9,40.9h6.6c0.4,0,0.7-0.3,0.7-0.8v-4.9c0-0.4-0.3-0.7-0.7-0.7h-6.6c-0.4,0-0.7,0.3-0.7,0.7v5
		C16.2,40.6,16.5,40.9,16.9,40.9z M17.6,36h5.1v3.5h-5.1V36z"/>
	<path class="st1" d="M22.1,2.1c0.5-0.3,0.9-0.5,1.4-0.6c0.5-0.1,0.9-0.1,1.4,0c0.5,0.1,0.9,0.3,1.3,0.6c0.3,0.2,0.5,0.4,0.8,0.6
		l0.8,0.8l0.8,0.8c0.3,0.3,0.6,0.5,0.9,0.8c0.3,0.3,0.6,0.5,0.9,0.7c0.3,0.2,0.7,0.4,1.1,0.5c0.3,0.1,0.7,0.2,1.1,0.2v0.1h0.1
		c0.4,0,0.8-0.1,1.2-0.3s0.5-0.6,0.4-0.9c-0.2-0.4-0.6-0.5-0.9-0.4C33,5,32.7,5,32.5,5c-0.3,0-0.5,0-0.7-0.1
		c-0.3-0.1-0.5-0.2-0.8-0.3c-0.3-0.2-0.5-0.4-0.8-0.6c-0.2-0.2-0.5-0.5-0.8-0.7l-0.8-0.8c-0.3-0.3-0.6-0.5-0.8-0.8
		C27.6,1.5,27.3,1.2,27,1c-0.6-0.4-1.2-0.7-1.9-0.9c-0.6-0.2-1.4-0.2-2,0c-0.6,0.2-1.3,0.5-1.8,0.9c-0.1,0-0.2,0.1-0.3,0.2
		c-0.3,0.3-0.2,0.8,0.1,1C21.4,2.5,21.8,2.4,22.1,2.1z"/>
	<path class="st1" d="M32,3.3c0.3-0.1,0.6-0.2,1-0.2c0.3,0,0.7,0,1.1,0c0.3,0,0.7,0.1,1,0.2l0.5,0.2L36,3.8l0.5,0.3
		c0.2,0.1,0.4,0.2,0.6,0.3c0.2,0.1,0.5,0.2,0.7,0.2c0.2,0,0.5,0.2,0.7,0.2s0.5,0,0.8,0c0.3,0,0.5,0,0.8,0c0.4-0.1,0.6-0.5,0.6-0.9
		c-0.1-0.4-0.5-0.6-0.9-0.6c-0.2,0-0.3,0-0.5,0c-0.2,0-0.3,0-0.5,0c-0.2,0-0.3-0.1-0.5-0.1L37.7,3l-0.5-0.2l-0.5-0.3L36,2.2
		l-0.6-0.3c-0.5-0.1-0.9-0.2-1.3-0.3c-0.5,0-0.9,0-1.3,0c-0.5,0.1-0.9,0.2-1.3,0.3c0,0,0,0,0,0c-0.3,0.2-0.5,0.5-0.4,0.9
		S31.6,3.5,32,3.3z"/>
</g>
</svg>
