<?xml version="1.0" encoding="utf-8"?>
<!-- Generator: Adobe Illustrator 23.0.3, SVG Export Plug-In . SVG Version: 6.00 Build 0)  -->
<!-- <svg version="1.1"
	 id="svg267096" xmlns:cc="http://creativecommons.org/ns#" xmlns:dc="http://purl.org/dc/elements/1.1/" xmlns:rdf="http://www.w3.org/1999/02/22-rdf-syntax-ns#" xmlns:svg="http://www.w3.org/2000/svg"
	 xmlns="http://www.w3.org/2000/svg" xmlns:xlink="http://www.w3.org/1999/xlink" x="0px" y="0px" viewBox="0 0 55.3 52.3"
	 style="enable-background:new 0 0 55.3 52.3;" xml:space="preserve"> -->

<svg width="100%" height="100%" viewBox="-1 -1 57.3 54.3" xmlns="http://www.w3.org/2000/svg" xmlns:svg="http://www.w3.org/2000/svg" xmlns:se="http://svg-edit.googlecode.com" data-name="Layer 1">

<style type="text/css">
	.st0{fill:none;}
	.st1{fill:#58595B;stroke:none;stroke-width:1;}
	.st2{fill:#58595B;}
</style>
<g>
	<path class="st0" d="M23.4,32.6c-0.1,2-0.4,3.9-0.9,5.6c1,0.2,1.9,0.5,2.5,0.8c1.3-1.8,2.2-4.1,2.4-6.5H23.4z"/>
	<path class="st0" d="M23.4,30.8h4c-0.2-2.4-1.1-4.6-2.4-6.5c-0.6,0.3-1.5,0.6-2.5,0.8C23,26.9,23.4,28.8,23.4,30.8z"/>
	<path class="st0" d="M21.4,38.9c-1.6-0.3-3.5-0.4-5.5-0.4v5.7c0.6,0,1.3-0.1,1.9-0.3c1.3-0.8,2.3-2,2.9-3.2
		C20.9,40.1,21.2,39.5,21.4,38.9z"/>
	<path class="st0" d="M15.9,30.8h6.7c-0.1-2.1-0.4-4-0.9-5.5c-2.1,0.3-4.4,0.5-5.8,0.5V30.8z"/>
	<path class="st0" d="M14.1,30.8v-5c-2.1,0-4.1-0.2-5.7-0.5c-0.5,1.5-0.8,3.4-0.8,5.5H14.1z"/>
	<path class="st0" d="M15.9,32.6v5c1.3,0,3.7,0.1,5.8,0.5c0.5-1.7,0.8-3.5,0.9-5.5H15.9z"/>
	<path class="st0" d="M14.1,38.4c-2.1,0-4,0.2-5.5,0.4c1,2.6,2.5,4.3,4.1,5.1c0.5,0.1,0.9,0.1,1.4,0.2V38.4z"/>
	<path class="st0" d="M6.6,32.6H2.6c0.2,2.5,1,4.7,2.4,6.6c0.6-0.4,1.5-0.7,2.5-0.9C7,36.5,6.7,34.6,6.6,32.6z"/>
	<path class="st0" d="M15.9,25c2.2,0,4-0.2,5.5-0.4c-0.9-2.5-2.4-4.2-3.9-5c-0.5-0.1-1.1-0.2-1.6-0.2V25z"/>
	<path class="st0" d="M14.1,25v-5.6c-0.5,0-1.1,0.1-1.6,0.2c-1.6,0.8-3,2.5-3.9,5C10.1,24.8,11.9,24.9,14.1,25z"/>
	<path class="st0" d="M6.6,30.8c0.1-2,0.4-3.9,0.9-5.6c-1.1-0.2-2-0.5-2.6-0.9c-1.4,1.8-2.2,4-2.4,6.5H6.6z"/>
	<path class="st0" d="M22.3,39c-0.3,0.7-0.5,1.4-0.9,2c-0.5,0.9-1,1.6-1.6,2.2c1.8-0.8,3.4-2,4.7-3.5C24.1,39.5,23.4,39.3,22.3,39z"
		/>
	<path class="st0" d="M14.1,32.6H7.5c0.1,2.1,0.4,4,0.8,5.5c2-0.3,4.3-0.4,5.7-0.5V32.6z"/>
	<path class="st0" d="M33.8,2.6c-5.2,0-10.2,0.6-13.8,1.7c-3.9,1.1-5,2.5-5,3c0,1.6,6.7,4.7,18.9,4.7c5.2,0,10.2-0.7,13.8-1.7
		c4-1.2,5.1-2.5,5-3C52.7,5.7,46,2.6,33.8,2.6z"/>
	<path class="st0" d="M8.6,41c-0.3-0.6-0.6-1.3-0.9-2c-1.1,0.2-1.8,0.5-2.3,0.8c1.3,1.5,2.9,2.7,4.8,3.5C9.7,42.6,9.1,41.9,8.6,41z"
		/>
	<path class="st0" d="M21.4,22.5c0.3,0.6,0.6,1.2,0.8,1.9c1-0.2,1.7-0.4,2.2-0.7c-1.3-1.5-2.8-2.7-4.6-3.4
		C20.4,20.9,21,21.6,21.4,22.5z"/>
	<path class="st0" d="M7.8,24.4c0.2-0.7,0.5-1.3,0.9-1.9c0.5-0.9,1-1.6,1.6-2.2c-1.8,0.8-3.5,2-4.7,3.5C6,24,6.8,24.2,7.8,24.4z"/>
	<path class="st1" d="M33.9,0C23.2,0,12.4,2.5,12.4,7.3v7.9c0.8-0.2,1.7-0.2,2.6-0.2V11c3.8,2.4,11.4,3.7,18.9,3.7
		c7.5,0,15.1-1.2,18.9-3.7v7.2c-1.7,2-8.6,4.2-18.9,4.2c-1.9,0-3.6-0.1-5.2-0.2c0.4,0.6,0.7,1.1,1.1,1.8c1.4,0.1,2.8,0.2,4.1,0.2
		c7.4,0,15.2-1.3,18.9-3.7v1.9c-1.7,2-8.6,4.2-18.9,4.2c-1.1,0-2,0-3-0.1c0.2,0.6,0.3,1.1,0.5,1.7c0.8,0,1.7,0.1,2.5,0.1
		c7.4,0,15.2-1.3,18.9-3.7v7.2c-1.8,2-8.7,4.2-19,4.2c-0.9,0-1.8,0-2.7-0.1c-0.2,0.6-0.3,1.1-0.6,1.7c1.1,0.1,2.1,0.1,3.3,0.1
		c7.4,0,15.2-1.3,18.9-3.7v2c-1.7,2-8.6,4.2-18.9,4.2c-1.5,0-3-0.1-4.4-0.2c-0.3,0.6-0.7,1.1-1.1,1.6c1.8,0.2,3.7,0.2,5.5,0.2
		c7.4,0,15.2-1.3,18.9-3.7v6.7c0,0.5-1.1,1.9-5,3c-3.7,1.1-8.6,1.7-13.8,1.7c-6.4,0-11.2-0.8-14.4-1.9c-1.5,0.5-3.1,0.7-4.6,0.7
		c-0.1,0-0.2,0-0.3,0c3.7,2.5,11.5,3.9,19.2,3.9c10.7,0,21.4-2.5,21.4-7.2V7.4C55.3,2.5,44.5,0,33.9,0z M47.7,10.3
		c-3.7,1.1-8.6,1.7-13.8,1.7C21.7,12,15,8.9,15,7.3c0-0.5,1.1-1.9,5-3c3.7-1.1,8.6-1.7,13.8-1.7c12.2,0,18.9,3.1,18.9,4.7
		C52.8,7.8,51.7,9.1,47.7,10.3z"/>
	<path class="st1" d="M30,31.7c0-8.2-6.8-15-15-15c-8.2,0-15,6.7-15,15c0,8.3,6.8,15,15,15C23.3,46.7,30,40,30,31.7z M8.6,38.9
		c1.5-0.2,3.3-0.4,5.5-0.4v5.7c-0.5,0-0.9-0.1-1.4-0.2C11.1,43.2,9.6,41.5,8.6,38.9z M2.6,32.6h4.1c0.1,2,0.4,3.9,0.9,5.7
		c-1,0.2-1.9,0.5-2.5,0.9C3.6,37.3,2.7,35.1,2.6,32.6z M5,24.3c0.6,0.3,1.4,0.6,2.6,0.9c-0.5,1.7-0.8,3.6-0.9,5.6h-4
		C2.8,28.4,3.6,26.2,5,24.3z M12.5,19.5c0.5-0.1,1-0.2,1.6-0.2V25c-2.1,0-4-0.2-5.5-0.4C9.5,22,10.9,20.3,12.5,19.5z M21.4,24.5
		c-1.5,0.2-3.4,0.4-5.5,0.4v-5.6c0.6,0,1.1,0.1,1.6,0.2C19.1,20.4,20.5,22,21.4,24.5z M27.4,30.8h-4c-0.1-2-0.4-3.9-0.9-5.7
		c1-0.2,1.8-0.5,2.5-0.8C26.3,26.2,27.2,28.4,27.4,30.8z M25.1,39.1c-0.6-0.3-1.5-0.6-2.5-0.8c0.5-1.7,0.8-3.6,0.9-5.6h4
		C27.2,35,26.4,37.2,25.1,39.1z M17.7,43.9c-0.6,0.1-1.2,0.2-1.9,0.3v-5.7c2,0,4,0.2,5.5,0.4c-0.2,0.7-0.5,1.3-0.8,1.9
		C20,41.8,19.1,43.1,17.7,43.9z M15.9,37.6v-5h6.7c-0.1,2-0.4,3.8-0.9,5.5C19.5,37.7,17.2,37.6,15.9,37.6z M22.5,30.8h-6.7v-5
		c1.4,0,3.7-0.1,5.8-0.5C22.2,26.8,22.5,28.7,22.5,30.8z M14.1,25.8v5H7.5c0.1-2.1,0.4-3.9,0.8-5.5C10,25.6,12,25.7,14.1,25.8z
		 M7.5,32.6h6.6v5c-1.4,0-3.7,0.1-5.7,0.5C7.9,36.6,7.6,34.7,7.5,32.6z M19.8,43.2c0.6-0.6,1.1-1.3,1.6-2.2c0.3-0.6,0.6-1.3,0.9-2
		c1.1,0.2,1.8,0.5,2.2,0.7C23.3,41.3,21.6,42.5,19.8,43.2z M24.5,23.7c-0.5,0.2-1.2,0.5-2.2,0.7c-0.2-0.7-0.5-1.3-0.8-1.9
		c-0.5-0.9-1-1.6-1.6-2.2C21.7,21,23.2,22.2,24.5,23.7z M10.2,20.2c-0.6,0.6-1.1,1.4-1.6,2.2c-0.3,0.6-0.6,1.2-0.9,1.9
		c-1-0.2-1.8-0.4-2.3-0.7C6.7,22.2,8.4,21,10.2,20.2z M5.5,39.8c0.5-0.3,1.3-0.5,2.3-0.8c0.3,0.7,0.5,1.4,0.9,2
		c0.5,0.9,1,1.6,1.6,2.2C8.4,42.5,6.7,41.3,5.5,39.8z"/>
	<path class="st2" d="M47.3,17.3c0.1,0,0.2,0,0.2,0c1.4-0.4,2.6-0.8,3.6-1.3c0.4-0.2,0.7-0.7,0.4-1.1c-0.2-0.4-0.7-0.7-1.1-0.4
		c-0.9,0.4-2,0.8-3.3,1.1c-0.5,0.2-0.7,0.6-0.7,1.1C46.6,17,46.9,17.3,47.3,17.3z"/>
	<path class="st2" d="M47.3,31c0.1,0,0.2,0,0.2,0c1.4-0.4,2.6-0.8,3.6-1.3c0.4-0.2,0.7-0.7,0.4-1.1c-0.2-0.4-0.7-0.7-1.1-0.4
		c-0.9,0.4-2,0.8-3.3,1.1c-0.5,0.2-0.7,0.6-0.7,1.1C46.6,30.7,46.9,31,47.3,31z"/>
	<path class="st2" d="M47.3,44.8c0.1,0,0.2-0.1,0.2,0c1.4-0.4,2.6-0.8,3.6-1.3c0.4-0.2,0.7-0.7,0.4-1.1c-0.2-0.4-0.7-0.7-1.1-0.4
		c-0.9,0.4-2,0.8-3.3,1.1c-0.5,0.2-0.7,0.6-0.7,1.1C46.6,44.5,46.9,44.8,47.3,44.8z"/>
</g>
</svg>
