<?xml version="1.0" encoding="iso-8859-1"?>
<!-- Generator: Adobe Illustrator 23.0.3, SVG Export Plug-In . SVG Version: 6.00 Build 0)  -->
<!-- <svg version="1.1"
	 id="svg268603" xmlns:cc="http://creativecommons.org/ns#" xmlns:dc="http://purl.org/dc/elements/1.1/" xmlns:rdf="http://www.w3.org/1999/02/22-rdf-syntax-ns#" xmlns:svg="http://www.w3.org/2000/svg"
	 xmlns="http://www.w3.org/2000/svg" xmlns:xlink="http://www.w3.org/1999/xlink" x="0px" y="0px" viewBox="0 0 55.8 52.3"
	 style="enable-background:new 0 0 55.8 52.3;" xml:space="preserve"> -->

<svg width="100%" height="100%" viewBox="-0.5 -0.5 56.8 53.3" xmlns="http://www.w3.org/2000/svg" xmlns:svg="http://www.w3.org/2000/svg" xmlns:se="http://svg-edit.googlecode.com" data-name="Layer 1">

<style type="text/css">
	.st0{fill:#58595B;stroke:none;stroke-width:2;}
</style>
<g id="layer1" transform="translate(-188.97422,-409.48133)">
	<g id="Layer_2-44-3" transform="matrix(0.32804195,0,0,0.32804195,188.97422,409.48133)">
		<g id="Layer_1-2-447-7">
			<path id="path5621-1" class="st0" d="M160.8,0H9.3C4.2,0,0,4.2,0,9.3v109c0,5.1,4.2,9.3,9.3,9.3h57.1v23.9H45.2
				c-2.2-0.2-4.1,1.4-4.3,3.6c-0.2,2.2,1.4,4.1,3.6,4.3c0.2,0,0.4,0,0.7,0h79.7c2.2,0.2,4.1-1.4,4.3-3.6c0.2-2.2-1.4-4.1-3.6-4.3
				c-0.2,0-0.4,0-0.7,0h-21.3v-23.9h57.1c5.1,0,9.3-4.2,9.3-9.3V9.3C170.1,4.2,165.9,0,160.8,0z M9.3,8h151.5c0.7,0,1.3,0.6,1.3,1.3
				c0,0,0,0,0,0v96.4H8V9.3C8,8.6,8.6,8,9.3,8z M98.3,151.5H71.7v-23.9h26.6V151.5z M160.7,119.6H9.3c-0.7,0-1.3-0.6-1.3-1.3v-10
				h154.1v10C162.1,119,161.5,119.6,160.7,119.6C160.8,119.6,160.8,119.6,160.7,119.6L160.7,119.6z"/>
			<path id="path5623-2" class="st0" d="M91.7,113.6H78.4c-0.7,0-1.3,0.6-1.3,1.3s0.6,1.3,1.3,1.3c0,0,0,0,0,0h13.3
				c0.7,0,1.3-0.6,1.3-1.3C93,114.2,92.4,113.6,91.7,113.6z"/>
			<polygon id="polygon5625-2" class="st0" points="84.9,31.4 84.9,22.8 70.6,31 78.1,35.3 			"/>
			<polygon id="polygon5627-0" class="st0" points="70.5,31.3 70.5,47.7 78,43.4 78,35.6 			"/>
			<polygon id="polygon5629-2" class="st0" points="92,43.6 92.3,43.5 92.3,35.3 92.1,35.4 92,35.3 92,43.3 85.2,39.4 85.2,31.4 
				84.9,31.4 84.9,39.4 78,43.4 78.1,43.6 85,39.6 			"/>
			<polygon id="polygon5631-1" class="st0" points="99.6,31.1 85.2,22.8 85.2,31.4 92.1,35.4 			"/>
			<polygon id="polygon5633-7" class="st0" points="99.6,39.2 85.2,47.5 85.2,56.2 99.6,47.8 			"/>
			<polygon id="polygon5635-5" class="st0" points="84.9,47.5 78.1,43.6 70.7,48 84.9,56.2 			"/>
			<path id="path5637-1" class="st0" d="M55.4,62.4v1.8c-0.8-0.1-1.6-0.2-2.4-0.3c-1.5,0-2,0.5-2,1.8V70c0,1.4,0.5,1.8,2,1.8
				c0.8,0,1.6-0.1,2.4-0.3v1.9c-0.8,0.2-1.7,0.3-2.6,0.3c-2.8,0-3.8-1.2-3.8-3.6v-4.5c0-2.4,1-3.6,3.8-3.6
				C53.6,62.2,54.5,62.2,55.4,62.4z"/>
			<path id="path5639-7" class="st0" d="M61.8,69.7v4h-2.1v-4l-3.3-7.4h2.3l2,5.4l2-5.4h2.4L61.8,69.7z"/>
			<path id="path5641-4" class="st0" d="M73.5,64.9v0.3c0.1,1.1-0.6,2.1-1.7,2.5c1.3,0.2,2.2,1.3,2.1,2.6v0.4c0,1.8-1.2,3.2-4.2,3.2
				c-1,0-1.7,0-3.3,0V62.4h3.2C72.3,62.1,73.5,63.3,73.5,64.9z M68.5,63.9V67h1.3c1.1,0,1.6-0.6,1.6-1.5v-0.3c0-0.9-0.5-1.4-1.9-1.4
				L68.5,63.9z M68.5,68.8V72h1.3c1.5,0,2.1-0.6,2.1-1.5v-0.3c0-0.9-0.6-1.4-2-1.4L68.5,68.8z"/>
			<path id="path5643-1" class="st0" d="M82,64.2h-4.2v2.8h3.9V69h-3.9v2.8H82v1.9h-6.3V62.4H82V64.2z"/>
			<path id="path5645-7" class="st0" d="M91.3,65.2v0.4c0,1.2-0.7,2.4-1.9,2.8l2.8,5.1H90L87.5,69h-1.3v4.7h-2.1V62.4h3.2
				C90.1,62.1,91.3,63.4,91.3,65.2z M86.1,63.9v3.3h1.1c1.4,0,2-0.6,2-1.6v-0.3c0-1-0.6-1.5-2-1.5L86.1,63.9z"/>
			<path id="path5647-1" class="st0" d="M102,73.7h-2.2l-0.6-2.4h-3.7l-0.6,2.4h-2.1l3.4-11.3h2.4L102,73.7z M96,69.6h2.8l-1.4-5.4
				L96,69.6z"/>
			<path id="path5649-1" class="st0" d="M110.6,65.2v0.4c0,1.3-0.8,2.4-1.9,2.8l2.8,5.1h-2.3l-2.4-4.6h-1.3v4.7h-2.1V62.4h3.1
				C109.3,62.1,110.6,63.4,110.6,65.2z M105.3,63.9v3.3h1.1c1.4,0,2-0.6,2-1.6v-0.3c0-1-0.6-1.5-2-1.5L105.3,63.9z"/>
			<path id="path5651-1" class="st0" d="M116.6,67.9l4.5,5.7h-2.5l-3.7-4.9v5h-2.1V62.4h2.1v5.1l3.7-5.1h2.2L116.6,67.9z"/>
			<path id="path5653-7" class="st0" d="M23.6,82.4v0.4c0,2.2-1.3,3.5-3.9,3.5c-0.4,0-0.9-0.1-1.3-0.1v4.5h-2.1V79.4
				c0.9,0,2,0,3.1,0C22.3,79.1,23.6,80.4,23.6,82.4z M18.4,81v3.4c0.4,0,0.8,0,1.2,0c1.4,0,2-0.6,2-1.8v-0.1c0-1-0.6-1.6-2.1-1.6
				L18.4,81z"/>
			<path id="path5655-0" class="st0" d="M32.8,90.7h-2.2L30,88.3h-3.6l-0.6,2.4h-2.1L27,79.4h2.5L32.8,90.7z M26.8,86.5h2.8
				l-1.4-5.4L26.8,86.5z"/>
			<path id="path5657-4" class="st0" d="M41.4,82.2v0.4c0,1.3-0.8,2.4-1.9,2.8l2.8,5.1H40L37.6,86h-1.3v4.7h-2.1V79.4h3.1
				C40.2,79.1,41.4,80.4,41.4,82.2z M36.2,80.9v3.3h1.1c1.4,0,2-0.6,2-1.6v-0.3c0-1-0.6-1.5-2-1.5L36.2,80.9z"/>
			<path id="path5659-0" class="st0" d="M51,81.2h-3.1v9.5h-2.1v-9.5h-3.1v-1.9H51V81.2z"/>
			<path id="path5661-8" class="st0" d="M54.7,82.7v8.1h-2V79.4h2.8l2.8,8v-8h2v11.3h-2.8L54.7,82.7z"/>
			<path id="path5663-5" class="st0" d="M68.9,81.2h-4.2v2.8h3.9V86h-3.9v2.8h4.2v1.9h-6.3V79.4h6.3V81.2z"/>
			<path id="path5665-1" class="st0" d="M78.3,82.2v0.4c0,1.2-0.7,2.4-1.9,2.8l2.8,5.1H77L74.5,86h-1.3v4.7h-2.1V79.4h3.2
				C77.1,79.1,78.3,80.4,78.3,82.2z M73.1,80.9v3.3h1.1c1.4,0,2-0.6,2-1.6v-0.3c0-1-0.6-1.5-2-1.5L73.1,80.9z"/>
			<path id="path5667-6" class="st0" d="M85.8,82.7v8.1h-2V79.4h2.8l2.8,8v-8h2v11.3h-2.8L85.8,82.7z"/>
			<path id="path5669-6" class="st0" d="M100.1,81.2h-4.2v2.8h3.9V86h-3.9v2.8h4.2v1.9h-6.3V79.4h6.3V81.2z"/>
			<path id="path5671-2" class="st0" d="M109.9,81.2h-3.1v9.5h-2v-9.5h-3.1v-1.9h8.3L109.9,81.2z"/>
			<path id="path5673-1" class="st0" d="M122.3,90.7h-2.6l-1.9-9.1l-1.9,9.1h-2.6l-2.5-11.3h2.2l1.6,9.2l1.9-9.2h2.4l1.9,9.2
				l1.6-9.2h2.1L122.3,90.7z"/>
			<path id="path5675-9" class="st0" d="M133.8,82.9v4.1c-0.2,2.2-2.1,3.7-4.2,3.6c-1.9-0.2-3.4-1.7-3.6-3.6v-4.1
				c0.2-2.2,2.1-3.7,4.2-3.6C132.1,79.5,133.6,81,133.8,82.9z M128.1,82.8v4.4c0.1,1,1,1.7,2.1,1.6c0.8-0.1,1.5-0.8,1.6-1.6v-4.4
				c0.1-0.9-0.5-1.7-1.4-1.8c-0.2,0-0.3,0-0.5,0c-0.9-0.2-1.7,0.4-1.9,1.3C128,82.4,128,82.6,128.1,82.8L128.1,82.8z"/>
			<path id="path5677-6" class="st0" d="M143.2,82.2v0.4c0,1.3-0.8,2.4-1.9,2.8l2.8,5.1h-2.4l-2.5-4.6h-1.3v4.7h-1.9V79.4h3.2
				C142,79.1,143.2,80.4,143.2,82.2z M138,80.9v3.3h1.1c1.4,0,2-0.6,2-1.6v-0.3c0-1-0.6-1.5-2-1.5L138,80.9z"/>
			<path id="path5679-4" class="st0" d="M149.2,84.9l4.5,5.7h-2.5l-3.8-4.9v5h-2V79.4h2v5.1l3.7-5.1h2.2L149.2,84.9z"/>
		</g>
	</g>
</g>
</svg>
