<?xml version="1.0" encoding="iso-8859-1"?>
<!-- Generator: Adobe Illustrator 23.0.3, SVG Export Plug-In . SVG Version: 6.00 Build 0)  -->
<svg version="1.1"
	 id="svg282423" xmlns:cc="http://creativecommons.org/ns#" xmlns:dc="http://purl.org/dc/elements/1.1/" xmlns:rdf="http://www.w3.org/1999/02/22-rdf-syntax-ns#" xmlns:svg="http://www.w3.org/2000/svg"
	 xmlns="http://www.w3.org/2000/svg" xmlns:xlink="http://www.w3.org/1999/xlink" x="0px" y="0px" viewBox="0 0 54.2 52.3"
	 style="enable-background:new 0 0 54.2 52.3;" xml:space="preserve">
<style type="text/css">
	.st0{fill:#58595B;stroke:#58595B;stroke-width:0.25;}
</style>
<g id="layer1" transform="translate(962.05674,-291.55276)">
	<g id="Layer_2-23-0" transform="matrix(0.25287958,0,0,0.25287958,-962.05674,291.55952)">
		<g id="Layer_1-2-75-4">
			<path id="path2891-8" class="st0" d="M46.8,206.8c-1.2,0-2.4,0-3.5-0.2c-0.6-0.1-1.3-0.1-1.9-0.1h-0.6h-0.7l-33-7l-7.1-26
				l87.3-88.8c-11.1-24.4-6.9-46.5,12.6-65.8C113,6,130.9-0.8,149.2,0c19.1,1,37,10,49.2,24.7c22.5,26.6,20.8,65.9-3.8,90.5
				c-17,16.6-41.1,21.9-64.8,14.4L119.6,140l-16.7-0.3v15.5L87.4,155v15.5l-19.2-0.4v19.4l-11.5-0.2v5.9c0.4,3.5-0.9,7-3.5,9.4
				C51.4,206.2,49.1,207,46.8,206.8z M41.6,196.9c0.8,0,1.7,0,2.6,0.2c0.9,0.2,2.1,0.2,2.8,0.2l0,0c0-0.2,0-1.4,0-1.8v-15.7
				l11.7,0.2v-19.4l19.4,0.3v-15.5l15.5,0.3v-15.5l22.4,0.4l11.6-11.7l2.8,1c21.1,7.7,42.8,3.4,57.9-11.3
				c21.1-21.1,22.4-54.9,3.1-77.6c-10.5-12.8-26-20.5-42.5-21.3c-15.7-0.9-31,4.9-42.2,15.9c-17.5,17.3-20.5,35.7-9.3,57.8l1.5,3
				l-88.2,89.8l4.1,15.1L41.6,196.9z"/>
			<path id="path2893-7" class="st0" d="M164.4,65.7h-0.3c-8.9-0.2-16-7.4-16.1-16.3l0,0c-0.1-8.6,6.8-15.7,15.5-15.8
				c0.2,0,0.4,0,0.5,0c8.9,0.2,16,7.4,16.1,16.3c0.1,8.6-6.8,15.7-15.4,15.8C164.6,65.7,164.5,65.7,164.4,65.7z M151.4,49.3
				c0,7.1,5.7,13,12.8,13.1c3.3,0.1,6.5-1.2,8.9-3.5c2.4-2.3,3.7-5.5,3.6-8.8c0-7.1-5.7-13-12.8-13.1c-6.8-0.2-12.4,5.2-12.5,12
				C151.5,49,151.5,49.1,151.4,49.3L151.4,49.3z"/>
			
				<rect id="rect2895-0" x="12.8" y="136.8" transform="matrix(0.7071 -0.7071 0.7071 0.7071 -78.0893 88.4912)" class="st0" width="110" height="3.4"/>
		</g>
	</g>
</g>
</svg>
