<?xml version="1.0" encoding="utf-8"?>
<!-- Generator: Adobe Illustrator 23.0.3, SVG Export Plug-In . SVG Version: 6.00 Build 0)  -->
<svg version="1.1"
	 id="svg289303" xmlns:cc="http://creativecommons.org/ns#" xmlns:dc="http://purl.org/dc/elements/1.1/" xmlns:rdf="http://www.w3.org/1999/02/22-rdf-syntax-ns#" xmlns:svg="http://www.w3.org/2000/svg"
	 xmlns="http://www.w3.org/2000/svg" xmlns:xlink="http://www.w3.org/1999/xlink" x="0px" y="0px" viewBox="0 0 52.3 52.3"
	 style="enable-background:new 0 0 52.3 52.3;" xml:space="preserve">
<style type="text/css">
	.st0{fill:#58595B;stroke:#000000;stroke-width:0.25;stroke-miterlimit:10;}
</style>
<g id="layer1" transform="translate(-194.12357,-228.80872)">
	<g id="Layer_2-977-5" transform="matrix(0.4393252,0,0,0.4393252,194.12715,228.81106)">
		<g id="Layer_1-2-643-4">
			<g id="path17-6-9">
				<path id="path6190-8" class="st0" d="M93.3,119.1h-0.2h-0.8l-1.1-0.3c-1.8-0.3-3.5-0.9-5.2-1.5c-39.9-17-68-45.4-83.8-83.7
					c-2.9-6.2-3-13.4-0.3-19.7c3.2-6.4,9-11.1,15.9-13.1c3-1.1,6.2-1.1,9.2,0c6.8,2.5,22.2,23.4,22.7,30.6
					c0.4,6.7-4.6,10.1-7.3,11.9c-3.9,2.6-4.5,5.7-2.2,10.6c5.1,11.4,14.4,20.4,26,25.1c4.6,2.1,6.6,0.3,8-1.6
					c2.2-3.8,5.9-6.6,10.2-7.6c4.9-0.6,9.9,0.8,13.7,4l2,1.4c3,2.1,6.2,4.3,9.2,6.7l1.7,1.3c4.4,3.4,10.5,8,7.2,17.2
					C114.8,109.5,104,119.1,93.3,119.1z M22.4,6.3c-0.9,0-1.8,0.2-2.6,0.5c-5.2,1.4-9.7,4.9-12.2,9.7C5.8,21.2,6,26.4,8.1,31
					c15.1,37,42.2,63.9,80.5,80.3c1.3,0.5,2.7,0.9,4.1,1.2l0.9,0.2c7,0,15.9-7.1,18.6-14.5c1.7-4.6-0.5-6.5-5.1-10l-1.8-1.4l0,0
					c-2.8-2.2-5.8-4.4-8.8-6.4l-2-1.4c-2.5-2.2-5.7-3.2-9-3c-2.6,0.7-4.8,2.5-6.1,4.9c-3.7,5.5-9.3,7-15.9,3.9
					c-13-5.4-23.4-15.6-29.3-28.3c-3.5-7.8-2-14,4.5-18.4c3.1-2.1,4.7-3.7,4.5-6.3c-0.3-4.7-14-23.3-18.4-25
					C24.1,6.5,23.3,6.3,22.4,6.3z"/>
			</g>
		</g>
	</g>
</g>
</svg>
