<svg xmlns="http://www.w3.org/2000/svg" viewBox="0 0 136.06 121.89"><defs><style>.cls-1{fill:#fff;}.cls-2{fill:#010101;}.cls-3{fill:none;}</style></defs><polygon class="cls-1" points="68.09 81.39 68.1 81.39 68.09 81.39 68.09 81.39"/><path class="cls-2" d="M67.21,83.94a2.5,2.5,0,0,0,.82.14,2.47,2.47,0,0,0,.82-.14c14.78-5.12,14.54-17.55,14.38-25.78V58c0-.83,0-1.62,0-2.38a2.51,2.51,0,0,0-2.51-2.51c-4.57,0-8-1.3-10.92-4.09a2.49,2.49,0,0,0-3.49,0c-2.87,2.79-6.34,4.09-10.91,4.09a2.51,2.51,0,0,0-2.51,2.51c0,.76,0,1.55,0,2.38v.15C52.67,66.39,52.43,78.82,67.21,83.94ZM55.53,58.22v-.15c0-.78,0-1.52,0-2.24,5.16,0,9.13-1.54,12.47-4.73,3.34,3.18,7.31,4.69,12.47,4.73,0,.72,0,1.46,0,2.24v.15c.16,8.32.36,18.66-12.5,23.15C55.17,76.88,55.37,66.53,55.53,58.22ZM68.09,81.39h0Z"/><polygon class="cls-2" points="76.07 63.2 74.23 61.23 67.45 67.57 63.95 64.05 62.03 65.95 67.39 71.33 76.07 63.2"/><polygon class="cls-3" points="84.2 22.81 84.2 35.57 96.88 35.57 84.2 22.81"/><polygon class="cls-2" points="98.78 105.09 37.28 105.09 37.28 105.09 34.59 105.09 34.59 107.89 35.13 107.89 100.93 107.89 101.48 107.89 101.48 105.09 98.78 105.09 98.78 105.09"/><path class="cls-2" d="M37.28,101.67V20.89h45l0,0H81.5V38.27H98.78v64.14h2.7v-66L83.41,18.19H34.59V102h2.7ZM84.2,22.81,96.88,35.57H84.2Z"/></svg>