<svg xmlns="http://www.w3.org/2000/svg" viewBox="0 0 136.06 121.89"><defs><style>.cls-1{fill:none;}.cls-2{fill:#010101;}</style></defs><path class="cls-1" d="M73.38,73a10.16,10.16,0,0,1-5.77,1.42,11.29,11.29,0,0,1-6.17-1.55,8.91,8.91,0,0,0-.93-.47,14.74,14.74,0,0,1-3.63-2.12v4.58l11.15,9,11.3-9.09V69.4a15.3,15.3,0,0,1-5.15,3.18A5.5,5.5,0,0,0,73.38,73Z"/><path class="cls-1" d="M45.35,44.4H44A15.92,15.92,0,0,0,44,47a6.16,6.16,0,0,0,1.1,2.7h1.68l-.4-1.47C46.32,48.12,45.83,46.32,45.35,44.4Z"/><path class="cls-1" d="M88.41,49.7h2.23A6.15,6.15,0,0,0,91.73,47a16,16,0,0,0-.07-2.58H88.92A48.18,48.18,0,0,1,88.41,49.7Z"/><path class="cls-2" d="M34.83,84.56,32.73,101l2.68.34,0-.18,1.9-14.85,15.88-8.05,1,1.48,2.7,4.11,5.54,8.43L68,87.34l5.61,4.94,5.69-8.66L82,79.52l.82-1.25,15.84,8,1.12,14.49v.1l2.69-.21-1.24-16.1L82,74.82V66.38a36.46,36.46,0,0,0,5.88-14l4,0,.4-.48a9.39,9.39,0,0,0,2.06-4.73,20.22,20.22,0,0,0-.26-4.35L94,41.7h-4.4a40.92,40.92,0,0,0,1.18-5.85,28.72,28.72,0,0,0-.4-7.8c-2.9-10.79-10.71-16.5-22.58-16.5-13,0-22,8-23.49,20.84a24.44,24.44,0,0,0,.37,8.92l.08.37v0h-3l-.2,1.11a20.2,20.2,0,0,0-.26,4.35,9.4,9.4,0,0,0,2.06,4.73l.4.48,3.56,0c1.23,5.81,3.54,11.33,6.88,15.25v7.1ZM63,88.2l-6.09-9.27L56,77.59l.88.71,9.06,7.29Zm16.36-9.49L73.1,88.2l-3-2.61,9.21-7.41.74-.6Zm0-4L68,83.81l-11.15-9V70.26a14.74,14.74,0,0,0,3.63,2.12,8.91,8.91,0,0,1,.93.47,11.29,11.29,0,0,0,6.17,1.55A10.16,10.16,0,0,0,73.38,73a5.5,5.5,0,0,1,.81-.41,15.3,15.3,0,0,0,5.15-3.18Zm8.4-46a26.52,26.52,0,0,1,.36,6.41c0,.13,0,.27,0,.38-.1.83-.24,1.67-.4,2.49l-.75-5H85.66c-.3,0-.63,0-.95,0A22.29,22.29,0,0,1,73,28.9c-.53-.4-1.06-.85-1.64-1.36L69.5,25.89l-.67,4.44a9.61,9.61,0,0,1-1.59-2.56,31.49,31.49,0,0,1-1.14-6.16L65.91,20,64,20.61A29.83,29.83,0,0,0,55,25a16.17,16.17,0,0,0-2.42,2.22,21.69,21.69,0,0,0-4.35,9.27c-.33,1.37-.58,2.71-.77,4,0,.21-.07.42-.1.62l-.07-.31-.08-.38a19.38,19.38,0,0,1-.44-3.43,26.9,26.9,0,0,1,.19-4.22c1.36-11.55,9.14-18.45,20.81-18.45C78.28,14.26,85.19,19.27,87.73,28.76ZM84.14,41,84,40.45l-.56-.26A19.29,19.29,0,0,0,76,38.54a16.62,16.62,0,0,0-7.09,1.68l-.28.15-.19.26a4.5,4.5,0,0,0-.59,2.59h-.55a4.5,4.5,0,0,0-.59-2.59l-.19-.26-.28-.15a16.62,16.62,0,0,0-7.09-1.68,19.29,19.29,0,0,0-7.38,1.65l-.56.26-.17.59s-.06.21-.12.51L50,41.26c.58-4.09,1.65-9,4.55-12.28,2.58-2.94,7-4.72,9-5.43a23.32,23.32,0,0,0,1.12,5.25,12.59,12.59,0,0,0,4.3,5.37l1.76,1.14.63-4.2a25.35,25.35,0,0,0,13.14,4.6L85.53,42l-1.1.5A13.58,13.58,0,0,0,84.14,41ZM82,45.56a8.14,8.14,0,0,1-1.06,3.74,6.61,6.61,0,0,1-4,1,8.29,8.29,0,0,1-4.52-1.07,13.43,13.43,0,0,1-1.49-4,7,7,0,0,1-.2-2.86A14.15,14.15,0,0,1,76,41.24a16.45,16.45,0,0,1,5.64,1.15A17.43,17.43,0,0,1,82,45.56Zm-17.58-.3a13.43,13.43,0,0,1-1.49,4,8.28,8.28,0,0,1-4.52,1.08,6.64,6.64,0,0,1-4-1,8.14,8.14,0,0,1-1.06-3.75,17.39,17.39,0,0,1,.28-3.17,16.36,16.36,0,0,1,5.64-1.15,14.14,14.14,0,0,1,5.39,1.16A7,7,0,0,1,64.38,45.26Zm-14.71-1,0-.23.91.29c0,.4,0,.82,0,1.28a10.87,10.87,0,0,0,1.57,5.33l.13.17c.18.2,1.85,1.93,6.1,1.93s6.17-1.62,6.39-1.8L65,51a14.39,14.39,0,0,0,2-5.05h1.23a14.41,14.41,0,0,0,2,5.05l.21.23c.22.18,2.24,1.8,6.39,1.8s5.93-1.73,6.1-1.93l.13-.17a10.88,10.88,0,0,0,1.56-5.33c0-.06,0-.12,0-.18l1.3-.59.17,1.13A40.1,40.1,0,0,1,82,61.17a25.26,25.26,0,0,1-2.7,4.21A14.17,14.17,0,0,1,73.27,70a7.72,7.72,0,0,0-1.23.6,7.62,7.62,0,0,1-4.44,1.07,8.6,8.6,0,0,1-4.87-1.22,11.14,11.14,0,0,0-1.23-.61,13.23,13.23,0,0,1-4.63-3.33A21.91,21.91,0,0,1,54.18,63a38.23,38.23,0,0,1-5-15.58C49.38,46.63,49.51,45.63,49.67,44.21Zm42,.19A16,16,0,0,1,91.73,47a6.15,6.15,0,0,1-1.09,2.7H88.41a48.18,48.18,0,0,0,.51-5.3ZM45.07,49.69A6.16,6.16,0,0,1,44,47,15.92,15.92,0,0,1,44,44.4h1.3c.48,1.92,1,3.71,1,3.82l.4,1.47Z"/><polygon class="cls-2" points="32.45 106.54 32.45 107.89 103.61 107.89 103.61 106.54 103.61 105.19 32.45 105.19 32.45 106.54"/><rect class="cls-2" x="75.26" y="43.56" width="2.7" height="4"/><rect class="cls-2" x="57.26" y="43.56" width="2.7" height="4"/><polygon class="cls-2" points="68.83 95.28 68.83 94.71 68.83 92.28 66.13 92.28 66.13 94.71 66.13 95.28 68.83 95.28"/><polygon class="cls-2" points="66.13 99.28 66.13 100.99 66.13 102.28 68.83 102.28 68.83 100.97 68.83 99.28 66.13 99.28"/></svg>