<svg xmlns="http://www.w3.org/2000/svg" viewBox="0 0 136.06 121.89"><defs><style>.cls-1,.cls-4{fill:#fff;}.cls-2,.cls-5{fill:none;}.cls-3{fill:#010101;}.cls-4,.cls-5{stroke:#010101;stroke-miterlimit:10;stroke-width:2.7px;}</style></defs><polygon class="cls-1" points="68.09 81.39 68.1 81.39 68.09 81.39 68.09 81.39"/><polygon class="cls-2" points="84.2 22.81 84.2 35.57 96.88 35.57 84.2 22.81"/><polygon class="cls-3" points="98.78 105.09 37.28 105.09 37.28 105.09 34.59 105.09 34.59 107.89 35.13 107.89 100.93 107.89 101.48 107.89 101.48 105.09 98.78 105.09 98.78 105.09"/><path class="cls-3" d="M37.28,101.67V20.89h45l0,0H81.5V38.27H98.78v64.14h2.7v-66L83.41,18.19H34.59V102h2.7ZM84.2,22.81,96.88,35.57H84.2Z"/><rect class="cls-4" x="53.99" y="57.95" width="28.08" height="22.86"/><line class="cls-5" x1="82.07" y1="75.79" x2="53.99" y2="75.79"/><line class="cls-5" x1="68.03" y1="63.38" x2="68.03" y2="69.91"/><path class="cls-5" d="M59.35,57.55V54A8.71,8.71,0,0,1,68,45.28h0A8.71,8.71,0,0,1,76.72,54v3.59"/></svg>