<svg xmlns="http://www.w3.org/2000/svg" viewBox="0 0 136.06 121.89"><defs><style>.cls-1{fill:none;}.cls-2{fill:#010101;}</style></defs><path class="cls-1" d="M72.51,40.34a4.7,4.7,0,0,0-9.41,0V42h9.41Z"/><path class="cls-1" d="M81.89,78.08l-1.81-2L108,50.91,67.7,18.21,28.11,50.9,56,76.46l-1.82,2L28.46,54.89v47.53h4.08L67.71,73.64l35.76,28.78h4.15V54.86ZM67.81,65.77a10.45,10.45,0,0,1-10.18-8.19h-3.4a.8.8,0,0,0-.79.79v7.7h-2.7v-7.7a3.5,3.5,0,0,1,3.49-3.49h3.15V52.56H48.63v-2.7h8.74V47.61H54.22a3.5,3.5,0,0,1-3.49-3.49v-7.7h2.7v7.7a.8.8,0,0,0,.79.79h3.15V42.43h3V40.34a7.4,7.4,0,0,1,14.81,0v2.09h3v2.48h3.15a.81.81,0,0,0,.79-.79v-7.7h2.7v7.7a3.5,3.5,0,0,1-3.49,3.49H78.24v2.25h9.2v2.7h-9.2v2.32h3.15a3.5,3.5,0,0,1,3.49,3.49v7.7h-2.7v-7.7a.81.81,0,0,0-.79-.79H78A10.45,10.45,0,0,1,67.81,65.77Z"/><polygon class="cls-2" points="32.54 102.42 36.81 102.42 67.72 77.12 99.16 102.42 103.47 102.42 67.71 73.64 32.54 102.42"/><polygon class="cls-2" points="28.46 54.88 54.2 78.45 56.02 76.45 28.11 50.9 67.7 18.21 107.95 50.91 80.08 76.07 81.89 78.08 107.61 54.86 107.61 102.42 110.31 102.42 110.31 50.09 110.68 49.64 110.31 49.35 110.31 48.78 109.98 49.08 67.68 14.72 26.1 49.06 25.76 48.75 25.76 49.34 25.39 49.65 25.76 50.1 25.76 102.42 28.46 102.42 28.46 54.88"/><polygon class="cls-2" points="28.88 105.42 25.76 105.42 25.76 107.89 25.85 107.89 110.27 107.89 110.31 107.89 110.31 105.42 107.19 105.42 28.88 105.42"/><path class="cls-2" d="M82.19,58.37v7.7h2.7v-7.7a3.5,3.5,0,0,0-3.49-3.49H78.24V52.56h9.2v-2.7h-9.2V47.61h3.15a3.5,3.5,0,0,0,3.49-3.49v-7.7h-2.7v7.7a.81.81,0,0,1-.79.79H78.24V42.43h-3V40.34a7.4,7.4,0,0,0-14.81,0v2.09h-3v2.48H54.22a.8.8,0,0,1-.79-.79v-7.7h-2.7v7.7a3.5,3.5,0,0,0,3.49,3.49h3.15v2.25H48.63v2.7h8.74v2.32H54.22a3.5,3.5,0,0,0-3.49,3.49v7.7h2.7v-7.7a.8.8,0,0,1,.79-.79h3.4a10.43,10.43,0,0,0,20.37,0h3.4A.81.81,0,0,1,82.19,58.37Zm-19.08-18a4.7,4.7,0,0,1,9.41,0V42H63.1Zm6.05,22.6v-15h-2.7v15a7.74,7.74,0,0,1-6.38-7.61V45.13H75.54V55.34A7.74,7.74,0,0,1,69.16,62.95Z"/></svg>