<svg xmlns="http://www.w3.org/2000/svg" viewBox="0 0 136.06 121.89"><defs><style>.cls-1{fill:none;}.cls-2{fill:#010101;}</style></defs><path class="cls-1" d="M71.63,65.59a7.34,7.34,0,1,0-14.67,0v2.63H71.63Z"/><path class="cls-1" d="M79.68,93.79H48.9V68.23h5.36V65.59a10,10,0,0,1,20.07,0v2.63h5.36Z"/><rect class="cls-2" x="21.86" y="105.19" width="83.03" height="2.7"/><rect class="cls-2" x="62.94" y="75.01" width="2.7" height="6.53"/><path class="cls-2" d="M74.33,65.59a10,10,0,0,0-20.07,0v2.63H48.9V93.79H79.68V68.23H74.33ZM57,65.59a7.34,7.34,0,1,1,14.67,0v2.63H57ZM77,86.07H51.6V70.93H77Zm-25.38,5V88.77H77v2.32Z"/><path class="cls-2" d="M95.28,30.54A19.79,19.79,0,0,0,77.47,41.78a40.36,40.36,0,0,0-46.86,60.41H33.9a37.31,37.31,0,0,1-7.28-22.25A37.65,37.65,0,0,1,76.45,44.29,19.76,19.76,0,0,0,95.28,70.1a20.38,20.38,0,0,0,5.18-.68,37.6,37.6,0,0,1-5.78,32.77H98A40.31,40.31,0,0,0,103,68.58a19.82,19.82,0,0,0-7.74-38Zm0,2.7a17.08,17.08,0,0,1,0,34.16,17.08,17.08,0,0,1,0-34.16Z"/><path class="cls-2" d="M88.46,56.36a9.83,9.83,0,1,1,14.39-.52l2,1.77a12.53,12.53,0,1,0-18.34.67Z"/><path class="cls-2" d="M99.39,53.64a5.79,5.79,0,1,0-8,0l-1.65,8.6H101Zm-5-1.16-.73-.5a3.09,3.09,0,1,1,3.48,0l-.73.5,1.36,7H93Z"/></svg>