<svg xmlns="http://www.w3.org/2000/svg" viewBox="0 0 136.06 121.89"><defs><style>.cls-1{fill:#fff;}.cls-2{fill:#010101;}</style></defs><polygon class="cls-1" points="99.96 101.04 99.96 101.04 99.96 101.04 99.96 101.04"/><path class="cls-2" d="M34.74,100.92l2.65.51,0-.26,2.85-14.89L54,78.1l-1.3-1.62C46,68.18,37.8,57.86,37.8,49.66c0-17.54,22.81-33.27,29.65-33.27S97.1,32.12,97.1,49.66c0,8-8,18.13-14.42,26.26l-1.35,1.71,14.43,8.65L98.59,101l0,.25L100,101h0l1.33-.25-3.1-16.2L85.36,76.9C91.94,68.57,99.8,58.37,99.8,49.66c0-18.48-23.54-36-32.35-36S35.1,31.18,35.1,49.66c0,8.87,8.05,19.23,14.82,27.71L37.87,84.59Z"/><path class="cls-2" d="M85.43,34.66l-.32-1.09.17-.3-.83-1.36H83l-.15.2a93.11,93.11,0,0,1-15.38,1.62,86,86,0,0,1-14.12-1.51,16.08,16.08,0,0,0-2.09-.31h0c-.85,0-1.81,0-3.42,7.11A57.57,57.57,0,0,0,46.3,51c0,7.33,5.42,16,10,22,1.81,2.38,9.5,11.69,11.18,11.69S76.82,75.35,78.64,73c4.55-6,10-14.63,10-22C88.61,45.22,86.46,38.09,85.43,34.66ZM49,51a55.47,55.47,0,0,1,2.86-16.3l1,.17a88.32,88.32,0,0,0,14.59,1.55,85.56,85.56,0,0,0,10.95-.86c2-.27,3.36-.48,4.29-.66l.16.52c1,3.31,3.06,10.18,3.06,15.57,0,11.26-15,27.24-18.45,30.55C64,78.25,49,62.27,49,51Z"/><rect class="cls-2" x="71.3" y="48.41" width="6.6" height="2.7"/><rect class="cls-2" x="69.74" y="39.61" width="10.83" height="2.7" transform="translate(-10.16 34.05) rotate(-23.96)"/><rect class="cls-2" x="57.01" y="48.41" width="6.6" height="2.7"/><polygon class="cls-2" points="34.02 106.54 34.02 107.89 102.05 107.89 102.05 106.54 102.05 105.19 34.02 105.19 34.02 106.54"/><rect class="cls-2" x="66.6" y="89.04" width="2.7" height="12"/><rect class="cls-2" x="58.4" y="35.55" width="2.7" height="10.83" transform="translate(-1.95 78.93) rotate(-66.04)"/><polygon class="cls-2" points="68.25 69.02 66.91 69.02 65.56 69.02 65.56 76.71 66.91 76.71 68.25 76.71 68.25 69.02"/><path class="cls-2" d="M74,64.48a6.84,6.84,0,0,0,6.15-3.26l-1.2-.62h0L77.75,60a3.13,3.13,0,0,1-.52.62A4.54,4.54,0,0,1,74,61.78a9.15,9.15,0,0,1-4.24-1.18,10.31,10.31,0,0,1-1.45-.93L67.45,59l-.86.72a10,10,0,0,1-1.44.93,9.12,9.12,0,0,1-4.25,1.18,4.53,4.53,0,0,1-3.23-1.18,3.1,3.1,0,0,1-.53-.64l-2.38,1.27a6.83,6.83,0,0,0,6.15,3.26,12.4,12.4,0,0,0,6.54-2.11A12.4,12.4,0,0,0,74,64.48Z"/></svg>