<svg xmlns="http://www.w3.org/2000/svg" viewBox="0 0 136.06 121.89"><defs><style>.cls-1{fill:none;}.cls-2{fill:#010101;}.cls-3{fill:#fff;}</style></defs><path class="cls-1" d="M90.77,48.17a6.15,6.15,0,0,0,1.09-2.7,15.86,15.86,0,0,0-.07-2.58H89a35.88,35.88,0,0,1-.68,5.3Z"/><path class="cls-1" d="M44.18,42.88a15.87,15.87,0,0,0-.07,2.58,6.18,6.18,0,0,0,1.09,2.7h1.92a35.89,35.89,0,0,1-.68-5.29Z"/><path class="cls-1" d="M68.31,85.66l9.57-9.24V66.77a16,16,0,0,1-10.15,4.12,15.48,15.48,0,0,1-9.15-3.33v8.71Z"/><path class="cls-2" d="M74.58,55.19l-.76-.83a8.18,8.18,0,0,1-1.23.83,8.63,8.63,0,0,1-8.71,0,8.56,8.56,0,0,1-1.24-.83l-.76.83-1.06,1.17a10.9,10.9,0,0,0,2.39,1.53,11.27,11.27,0,0,0,10,0,10.89,10.89,0,0,0,2.39-1.53Z"/><path class="cls-2" d="M85,8.47,67.74,11.66,50.49,8.47,45.21,31.7H33.74v2.7H47.11a31.47,31.47,0,0,0-.69,5.79H41.87l-.2,1.11a20.19,20.19,0,0,0-.26,4.35,9.4,9.4,0,0,0,2.07,4.73l.4.48,3.91,0a33.68,33.68,0,0,0,8.1,14.33V74L38.15,84.59,35,100.92l2.65.51,0-.26,2.85-14.89,15.11-9.05.2.19L58.58,80l9.73,9.39,9.57-9.24,2.7-2.61.35-.34L96,86.28,98.87,101l0,.25,1.33-.25h0l1.33-.25-3.1-16.2L80.58,73.87V64.14A34.37,34.37,0,0,0,87.74,50.7v.19l4.35,0,.4-.48a9.4,9.4,0,0,0,2.07-4.73,20.19,20.19,0,0,0-.26-4.35l-.2-1.11h-5a31.47,31.47,0,0,0-.69-5.79h13.37V31.7H90.26ZM86.39,41a33.88,33.88,0,0,1-5.8,18.72,26.48,26.48,0,0,1-2.7,3.33c-3,3.16-6.58,5.1-10.15,5.1-3.19,0-6.35-1.55-9.15-4.12a24.35,24.35,0,0,1-2.7-3A33.64,33.64,0,0,1,49.08,41a28.75,28.75,0,0,1,.77-6.64h35.7A27.66,27.66,0,0,1,86.39,41ZM67.74,14.4,82.92,11.6l2.67,11.73H59.89V26H86v-.7l1.13,5,.32,1.42H48l.32-1.42.93-4.1v.71h6v-2.7H49.69L52.55,11.6ZM45.2,48.17a6.18,6.18,0,0,1-1.09-2.7,15.87,15.87,0,0,1,.07-2.58h2.26a35.89,35.89,0,0,0,.68,5.29ZM67.74,70.89a16,16,0,0,0,10.15-4.12v9.65l-9.57,9.24-9.73-9.39V67.56A15.48,15.48,0,0,0,67.74,70.89ZM89,42.89h2.76a15.86,15.86,0,0,1,.07,2.58,6.15,6.15,0,0,1-1.09,2.7l-2.42,0A35.88,35.88,0,0,0,89,42.89Z"/><polygon class="cls-2" points="74.39 42.14 74.39 46.04 77.08 46.04 77.08 41.04 76.8 41.04 81.79 38.77 80.68 36.31 69.68 41.31 70.79 43.77 74.39 42.14"/><polygon class="cls-2" points="58.38 41.04 58.38 46.04 61.09 46.04 61.09 42.14 64.68 43.77 65.79 41.31 54.79 36.31 53.68 38.77 58.67 41.04 58.38 41.04"/><polygon class="cls-3" points="100.24 101.04 100.24 101.04 100.24 101.04 100.24 101.04"/><rect class="cls-2" x="34.3" y="105.19" width="68.03" height="2.7"/><polygon class="cls-2" points="69.58 93.04 66.89 93.04 66.89 93.19 66.89 95.89 66.89 96.04 69.58 96.04 69.58 95.89 69.58 93.19 69.58 93.04"/><polygon class="cls-2" points="66.89 99.04 66.89 101.11 66.89 102.04 69.58 102.04 69.58 101.1 69.58 99.04 66.89 99.04"/><polygon class="cls-2" points="79.23 92.19 79.23 94.89 80.58 94.89 90.23 94.89 90.23 92.19 80.58 92.19 79.23 92.19"/></svg>