<svg xmlns="http://www.w3.org/2000/svg" viewBox="0 0 136.06 121.89"><defs><style>.cls-1{fill:none;}.cls-2{fill:#010101;}</style></defs><path class="cls-1" d="M79.63,93.79H48.85V68.23H54.2V65.59a10,10,0,0,1,20.07,0v2.63h5.36Z"/><path class="cls-1" d="M71.58,65.59a7.34,7.34,0,0,0-14.67,0v2.63H71.58Z"/><rect class="cls-2" x="21.8" y="105.19" width="83.03" height="2.7"/><rect class="cls-2" x="62.89" y="75.01" width="2.7" height="6.53"/><path class="cls-2" d="M74.27,65.59a10,10,0,0,0-20.07,0v2.63H48.85V93.79H79.63V68.23H74.27Zm-17.37,0a7.34,7.34,0,0,1,14.67,0v2.63H56.9Zm20,20.47H51.55V70.93H76.93Zm-25.38,5V88.77H76.93v2.32Z"/><path class="cls-2" d="M115,50.32A19.57,19.57,0,0,0,95.23,30.54,19.79,19.79,0,0,0,77.42,41.78a40.36,40.36,0,0,0-46.86,60.41h3.29a37.32,37.32,0,0,1-7.28-22.25A37.65,37.65,0,0,1,76.4,44.29,19.76,19.76,0,0,0,95.23,70.11a20.38,20.38,0,0,0,5.18-.68,37.6,37.6,0,0,1-5.78,32.77h3.29A40.31,40.31,0,0,0,103,68.58,19.55,19.55,0,0,0,115,50.32ZM95.23,33.24a17.08,17.08,0,1,1,0,34.16,17.08,17.08,0,0,1,0-34.16Z"/><path class="cls-2" d="M95.23,63.86c6.67,0,12.1-5,12.1-11.08a11.2,11.2,0,0,0-8.08-10.45c-.34-.13-.58-.23-.92-1.43a2.43,2.43,0,0,1-.07-1.31h0A1.34,1.34,0,0,0,98,38.12a1.37,1.37,0,0,0-1.45-.38,2.49,2.49,0,0,1-1.32,0,3.91,3.91,0,0,1-1.52-.86A1.34,1.34,0,0,0,92,36.74a1.36,1.36,0,0,0-.34,1.76,4.08,4.08,0,0,1,.21,3.1,2.49,2.49,0,0,1-.28.62,11.3,11.3,0,0,0-8.43,10.56C83.13,58.89,88.56,63.86,95.23,63.86Zm-2.7-19.11c1.2-.36,1.75-1.9,1.89-2.36a7.16,7.16,0,0,0,.32-2,5.76,5.76,0,0,0,.79.13,5.85,5.85,0,0,0,.21,1.14c.45,1.56,1,2.65,2.58,3.22l.08,0a8.52,8.52,0,0,1,6.24,7.89c0,4.62-4.22,8.38-9.4,8.38s-9.4-3.76-9.4-8.38A8.63,8.63,0,0,1,92.53,44.75Z"/><path class="cls-2" d="M90.39,56.73a1.35,1.35,0,1,0,2.19-1.58,4.21,4.21,0,0,1-.83-2.46,4.35,4.35,0,0,1,1.32-3,1.35,1.35,0,1,0-1.94-1.88,7.09,7.09,0,0,0-2.08,4.92A6.89,6.89,0,0,0,90.39,56.73Z"/><path class="cls-2" d="M98.61,52.88a5.76,5.76,0,0,1-.83,3A1.35,1.35,0,1,0,100.22,57a8.35,8.35,0,0,0,1.08-4.14,8.94,8.94,0,0,0-1.75-5.34A1.35,1.35,0,0,0,97.28,49,6.29,6.29,0,0,1,98.61,52.88Z"/></svg>