<svg xmlns="http://www.w3.org/2000/svg" viewBox="0 0 136.06 121.89"><defs><style>.cls-1{fill:#010101;}</style></defs><path class="cls-1" d="M67.18,99.78h-8v5H30v2.7H59.18v4h19.7v-4H106v-2.7H78.88v-5h-9v-5.3h36.79V34.35h-.91L87.63,21H48.19L30.05,34.35h-.66V94.48H67.18Zm9,5v4H61.88v-6.3h14.3ZM34.61,34.35,49.07,23.72H86.74L101.2,34.35Zm-2.52,2.7H104v16.3H32.09Zm0,19.43v-.43H104v16.3H32.09Zm0,19v-.43H104V91.78H32.09Z"/><rect class="cls-1" x="87.19" y="41.82" width="12" height="2.7"/><rect class="cls-1" x="43.08" y="41.99" width="2.7" height="2.35"/><rect class="cls-1" x="36.92" y="41.99" width="2.7" height="2.35"/><rect class="cls-1" x="87.19" y="60.82" width="12" height="2.7"/><rect class="cls-1" x="43.08" y="60.99" width="2.7" height="2.35"/><rect class="cls-1" x="36.92" y="60.99" width="2.7" height="2.35"/><rect class="cls-1" x="87.19" y="79.82" width="12" height="2.7"/><rect class="cls-1" x="43.08" y="79.99" width="2.7" height="2.35"/><rect class="cls-1" x="36.92" y="79.99" width="2.7" height="2.35"/></svg>