<svg xmlns="http://www.w3.org/2000/svg" viewBox="0 0 136.06 121.89"><defs><style>.cls-1{fill:#010101;}</style></defs><path class="cls-1" d="M70.13,10.06a3.21,3.21,0,0,0-4.2,0L23.41,47a3.2,3.2,0,0,0,2.1,5.61H33.4V90.12a3.2,3.2,0,0,0,3.2,3.2H67.18v6.87h-8v5H30v2.7H59.18v4h19.7v-4H106v-2.7H78.88v-5h-9V93.32H99.46a3.2,3.2,0,0,0,3.2-3.2V52.64h7.89a3.2,3.2,0,0,0,2.1-5.61Zm6.05,95.13v4H61.88v-6.3h14.3ZM100,90.12a.5.5,0,0,1-.5.5H36.6a.5.5,0,0,1-.5-.5V49.95H25.51a.5.5,0,0,1-.47-.32.51.51,0,0,1,.14-.56l42.52-37a.5.5,0,0,1,.66,0l42.52,37a.5.5,0,0,1-.33.88H100Z"/><path class="cls-1" d="M76.66,32.17H59.4A5.43,5.43,0,0,0,54,37.6v8.57a5.43,5.43,0,0,0,5.42,5.42h2.94V79.32L68,83.7l5.7-4.38v-6h-2v-.58l2-1.28V65.94h-2v-.58l2-1.28v-5.5h-2V58l2-1.28V51.59h2.94a5.43,5.43,0,0,0,5.42-5.42V37.6A5.43,5.43,0,0,0,76.66,32.17Zm2.72,14a2.73,2.73,0,0,1-2.72,2.72H71v6.35l-2,1.28v4.77h2V62.6l-2,1.28v4.77h2V70l-2,1.28V76h2v2L68,80.3,65,78V48.89H59.4a2.73,2.73,0,0,1-2.72-2.72V37.6a2.73,2.73,0,0,1,2.72-2.72H76.66a2.73,2.73,0,0,1,2.72,2.72Z"/><path class="cls-1" d="M72.16,38.09H63.9a3.72,3.72,0,0,0-3.72,3.72v.87a3.72,3.72,0,0,0,3.72,3.72h8.27a3.72,3.72,0,0,0,3.72-3.72v-.87A3.72,3.72,0,0,0,72.16,38.09Zm1,4.59a1,1,0,0,1-1,1H63.9a1,1,0,0,1-1-1v-.87a1,1,0,0,1,1-1h8.27a1,1,0,0,1,1,1Z"/></svg>