<svg xmlns="http://www.w3.org/2000/svg" viewBox="0 0 136.06 121.89"><defs><style>.cls-1{fill:none;}.cls-2{fill:#010101;}</style></defs><polygon class="cls-1" points="26.47 79.28 16.47 76.77 16.3 78.84 23.17 80.54 14.08 84.77 5.51 83.38 7.64 87.74 13.69 88.95 22.48 85.22 27.3 86.11 29.55 83.78 26.47 79.28"/><polygon class="cls-1" points="112.89 80.44 119.76 78.74 119.59 76.67 109.6 79.18 106.51 83.68 108.76 86.01 113.59 85.12 122.38 88.85 128.42 87.64 130.55 83.28 121.98 84.67 112.89 80.44"/><polygon class="cls-2" points="99.28 105.19 37.64 105.19 37.64 106.54 37.64 107.89 99.28 107.89 99.28 105.19"/><rect class="cls-2" x="74.86" y="48.28" width="2.7" height="4.63"/><path class="cls-2" d="M76.21,44.06A5.28,5.28,0,0,1,79,45l.85-1,.86-1a7.8,7.8,0,0,0-4.39-1.52,8.31,8.31,0,0,0-4.34.76l1.31,2.36A6,6,0,0,1,76.21,44.06Z"/><path class="cls-2" d="M59.09,45A5.91,5.91,0,0,1,62,44.06a6.31,6.31,0,0,1,2.91.45l1.23-2.4a7.36,7.36,0,0,0-1.75-.56,9.84,9.84,0,0,0-2.28-.18h-.27a8.41,8.41,0,0,0-4.34,1.48l.37.49.84,1.12Z"/><rect class="cls-2" x="60.54" y="48.35" width="2.7" height="4.5"/><path class="cls-2" d="M121,81.22l1.66-.41L122,73.28l-14.08,3.53-3.35,4.88-.44-.46L93.89,91.76l-8.78-9.82a16.06,16.06,0,0,0,3,.28,44.7,44.7,0,0,0,12.78-2,1.35,1.35,0,0,0,.9-1.08,1.37,1.37,0,0,0-.55-1.31S98.75,76,97,69.14a61.68,61.68,0,0,1-1.39-11c-.31-4.33-.69-9.71-1.84-17.29C91.6,26.39,80.58,15.06,68.72,15.06c-12.42,0-24.15,12.1-25.1,25.9-1.43,20.88-6.82,27.57-6.87,27.63a1.35,1.35,0,0,0,1,2.23,14,14,0,0,0,5.35-1.09A15.84,15.84,0,0,0,45.9,67.8a18.57,18.57,0,0,1-1.73,4.87c-2.35,4.7-4.53,5-4.49,5a1.35,1.35,0,0,0-1.21,2c.08.17,2,3.75,8.39,3.75a20,20,0,0,0,2.48-.16c.73-.09,1.4-.2,2-.31L42.57,91.5,31.87,81.38l-.4.42-3.35-4.88L14,73.37l-.61,7.54,1.66.41-1.4.65L.79,79.88l5,10.24L14,91.76,22.78,88l2.28.42-2.64,2.74,13.36,12.24.91-1,.91-1L26.29,91.06,32,85.17,42.6,95.24l14.08-13.8,1.92-1.88,0,0,.49.76,1.39,2.15L69.06,95.7l8.54-13.24,1.82-2.83.27.3L93.8,95.72l10.34-10.6L109.77,91l-10.33,9.47.91,1,.91,1,12.36-11.34L111,88.34l2.28-.42,8.81,3.74L130.26,90l5-10.24-12.9,2.09ZM69.06,90.71,61.37,78.8v-.07l.46-5.26a12.11,12.11,0,0,0,7,2.81c2.37,0,5-1.21,7.57-3.28l.38,4.34.11,1.27Zm-27-11.24a13.47,13.47,0,0,0,4.53-5.6c3-6,2.09-9.23,2-9.58a1.35,1.35,0,0,0-2.24-.53,23.86,23.86,0,0,1-4.4,3.55,6.76,6.76,0,0,1-1.55.51c1.6-3.09,4-9.32,5.33-20.28q.14-1.13.26-2.32c.13-1.3.25-2.65.35-4.08.84-12.24,11.52-23.38,22.4-23.38,10.56,0,20.4,10.32,22.42,23.49,1.14,7.47,1.52,12.8,1.82,17.07A64.59,64.59,0,0,0,94.42,69.8,24.46,24.46,0,0,0,98,78.26a42.58,42.58,0,0,1-9.87,1.26c-5.64,0-7.19-2.88-7.27-3a1.35,1.35,0,0,0-1.31-.76l-.26-.29-.42-4.78a36.94,36.94,0,0,0,9.74-22.13c0-.57.06-1.13.06-1.7a30.93,30.93,0,0,0-.32-4.42,31.88,31.88,0,0,0-1.22-5.23,1.33,1.33,0,0,0,.29-1.56h0a1.33,1.33,0,0,0-1.13-.73,1.31,1.31,0,0,0-.67.12s-.2.09-.54.23l-.44.16-.85.27-.54.15c-.45.12-1,.24-1.52.36a29.79,29.79,0,0,1-6,.58,57.86,57.86,0,0,1-6.26-.36L68,36.22,66.43,36l-.26,0-2.53-4.23a1.35,1.35,0,0,0-2.48.43l-.71,3.56a37.33,37.33,0,0,1-4.29-.81l-1.79-.45L53,34.12,52.35,34a1.35,1.35,0,0,0-1.48,2A31.79,31.79,0,0,0,49,44.58c0,.47-.06.93-.07,1.4q0,.26,0,.52c0,.11,0,.22,0,.34s0,.35,0,.53c.18,9.21,4.87,18.43,10.39,23.9L59,75.43,55.2,79.11A30.37,30.37,0,0,1,49,80.48C45.31,80.94,43.19,80.2,42.05,79.47Zm9.57-32.74c0-.07,0-.13,0-.19,0-.42,0-.82,0-1.22s0-1,.09-1.42A27.81,27.81,0,0,1,53.28,37l2.22.55a33.42,33.42,0,0,0,6,1,1.35,1.35,0,0,0,1.32-1.09l.27-1.33,1.05,1.76a1.42,1.42,0,0,0,.89.63l.77.14c.41.07,1,.16,1.65.25a61.91,61.91,0,0,0,8.3.59,31.52,31.52,0,0,0,7.83-.94q.62-.16,1.12-.31a28,28,0,0,1,1,4.87A31.22,31.22,0,0,1,86,46.83c0,.11,0,.22,0,.33a32.79,32.79,0,0,1-7.42,19.67,29.55,29.55,0,0,1-2.47,2.71c-2.65,2.54-5.31,4-7.27,4s-4.23-1.27-6.67-3.47a27.88,27.88,0,0,1-2.49-2.56c-4.27-5-8-12.51-8-20.71C51.62,46.8,51.62,46.77,51.62,46.74ZM22.48,85.22,13.69,89l-6-1.22L5.51,83.38l8.57,1.39,9.09-4.23-6.87-1.7.17-2.07,10,2.51,3.09,4.5-2.25,2.33Zm105.95,2.42-6,1.22-8.79-3.73-4.83.89-2.25-2.33,3.09-4.5,10-2.51.17,2.07-6.87,1.7L122,84.67l8.57-1.39Z"/></svg>