<svg xmlns="http://www.w3.org/2000/svg" viewBox="0 0 136.06 121.89"><defs><style>.cls-1{fill:#010101;}.cls-2{fill:#fff;}</style></defs><path class="cls-1" d="M94,21H54.59L36.45,34.35H35.8V56.83h2.7V37.05h71.88V91.78H38.5V74.38H35.8v20.1H73.58v5.3h-8v5H36.42v2.7H65.58v4h19.7v-4h27.17v-2.7H85.28v-5h-9v-5.3h36.79V34.35h-.91ZM82.58,104.78v4H68.28v-6.3h14.3ZM41,34.35,55.47,23.72H93.15l14.46,10.63Z"/><polygon class="cls-2" points="67.31 65.67 66.99 65.35 66.99 65.98 67.31 65.67"/><rect class="cls-1" x="22.99" y="64.32" width="4" height="2.7"/><rect class="cls-1" x="54.99" y="64.32" width="4" height="2.7"/><path class="cls-1" d="M63,64.32V67h3l-7,7,1.91,1.91L71.13,65.67,60.91,55.45,59,57.36l7,7Z"/><rect class="cls-1" x="30.99" y="64.32" width="4" height="2.7"/><rect class="cls-1" x="46.99" y="64.32" width="4" height="2.7"/><rect class="cls-1" x="38.99" y="64.32" width="4" height="2.7"/></svg>