<svg xmlns="http://www.w3.org/2000/svg" viewBox="0 0 136.06 121.89"><defs><style>.cls-1{fill:none;}.cls-2{fill:#010101;}</style></defs><path class="cls-1" d="M76,65.59a7.34,7.34,0,0,0-14.67,0v2.63H76Z"/><path class="cls-1" d="M99.08,102.19a37.32,37.32,0,0,0,7.28-22.25,37.67,37.67,0,1,0-75.34,0,37.32,37.32,0,0,0,7.28,22.25m45.78-8.41H53.3V68.23h5.36V65.59a10,10,0,0,1,20.07,0v2.63h5.36Z"/><path class="cls-2" d="M31,79.94a37.67,37.67,0,1,1,75.34,0,37.32,37.32,0,0,1-7.28,22.25h3.29a40,40,0,0,0,6.69-22.25,40.37,40.37,0,1,0-80.74,0A40,40,0,0,0,35,102.19H38.3A37.32,37.32,0,0,1,31,79.94Z"/><rect class="cls-2" x="26.25" y="105.19" width="83.03" height="2.7"/><rect class="cls-2" x="67.34" y="75.01" width="2.7" height="6.53"/><path class="cls-2" d="M78.72,65.59a10,10,0,0,0-20.07,0v2.63H53.3V93.79H84.08V68.23H78.72Zm-17.37,0a7.34,7.34,0,0,1,14.67,0v2.63H61.35ZM56,91.09V88.77H81.38v2.32Zm25.38-5H56V70.93H81.38Z"/></svg>