<?xml version="1.0" encoding="utf-8"?>
<!-- Generator: Adobe Illustrator 23.0.3, SVG Export Plug-In . SVG Version: 6.00 Build 0)  -->
<svg version="1.1"
	 id="svg276375" xmlns:cc="http://creativecommons.org/ns#" xmlns:dc="http://purl.org/dc/elements/1.1/" xmlns:rdf="http://www.w3.org/1999/02/22-rdf-syntax-ns#" xmlns:svg="http://www.w3.org/2000/svg"
	 xmlns="http://www.w3.org/2000/svg" xmlns:xlink="http://www.w3.org/1999/xlink" x="0px" y="0px" viewBox="0 0 86.1 51.7"
	 style="enable-background:new 0 0 86.1 51.7;" xml:space="preserve">
<style type="text/css">
	.st0{fill:#58595B;stroke:#58595B;stroke-width:0.25;}
</style>
<g id="layer1" transform="translate(38.996378,-139.70633)">
	<g id="Layer_2-0-8" transform="matrix(0.29463008,0,0,0.29463008,-38.996378,139.70633)">
		<g id="Layer_1-2-8-3">
			<path id="path4549-7" class="st0" d="M182.6,120.8c-2.1,0-4.1-0.1-6.1-0.4h-0.9c-2.5-0.3-5-0.8-7.5-1.5
				c-10.5-2.9-20.2-8.3-28.1-15.8l2.5-14.6l14.2-2.8c4.3,4.1,9.3,7.2,14.9,9.2l0.7,0.2c1.7,0.5,3.4,1,5.2,1.3
				c-0.2-2.2-0.5-4.3-0.6-6.5c-0.8-0.2-1.5-0.3-2.3-0.6l-0.9-0.2c-10.1-3.4-17.9-11.9-27.4-25.5c9.5-13.5,17.3-22,27.4-25.5l0.9-0.2
				c1.4-0.4,2.8-0.7,4.2-1c0.9-0.1,1.9-0.1,2.8-0.2c0.9-0.1,1.9-0.2,2.8-0.2c1.5,0,2.9,0.1,4.3,0.3l0,0c1.1,0,2.1,0.3,3.1,0.5
				l1.6,0.4h0.5c2.3,0.7,4.4,1.6,6.5,2.8l0,0c0.6,0.4,1.2,0.8,1.8,1.3l0.8,0.6l1,0.9c0.5,0.5,1,1,1.4,1.5l0,0
				c3.3,4.2,5.3,9.4,5.7,14.7c0,1.2,0.2,2.4,0.2,3.7c0,0.2,0,0.5,0,0.7c2.1-0.9,4.1-1.9,6.1-3c0-0.3,0-0.7,0-1
				c-0.3-6.4-2.4-12.7-6.2-17.9l14.7-2l3-14.2c5.8,7,9.7,15.4,11.3,24.4c1.2,0.4,2.4,1.1,3.4,1.9c1.2,1,2.4,1.9,3.6,2.8
				c-3.7-40-38.7-55-62.7-55c-2.4,0-4.7,0.1-6.9,0.3h-1.2c-2.2,0.2-4.3,0.5-6.3,0.9l0,0c-21.5,4.4-35.7,18-46.1,30.9
				C113.6,19.3,99.4,5.7,78,1.4h-0.1c-2-0.4-4.1-0.7-6.1-0.9h-1.2C68.2,0.1,66,0,63.6,0C38,0,0,17,0,63.6s38,63.6,63.6,63.6
				c2.4,0,4.7-0.1,6.9-0.3h1.2c2.1-0.2,4.1-0.5,6.1-0.9H78c21.4-4.3,35.7-17.9,46.1-30.8c10.4,12.9,24.6,26.5,46.1,30.8l0,0
				c2,0.4,4.1,0.7,6.3,0.9h1.2c2.2,0.2,4.5,0.3,6.9,0.3h0.3c0-0.3-0.3-0.5-0.4-0.8C183.8,124.6,183.2,122.7,182.6,120.8z M168.1,8.2
				c2.5-0.6,5.1-1.1,7.6-1.4h0.9c2.7-0.3,5.3-0.5,8-0.5c16.1,0.1,31.6,6.6,42.9,18.1l-3,14.2l-14.8,1.9l-1.1-1.1
				c-6.5-6.3-15.3-9.6-24.3-9.1l0,0c-1.2,0-2.2,0.2-3.3,0.3s-2.4,0-3.5,0.3c-1.9,0.3-3.8,0.8-5.7,1.4l-0.7,0.2c-3,1-5.9,2.4-8.5,4.2
				l2.3-12.3l-14.8-8.1C155.7,12.6,161.8,9.9,168.1,8.2z M120.1,37.2l-14.4,20.9l-1.2-1.6l-2.4-3.1c-0.9-1.2-1.8-2.3-2.7-3.3
				c-0.9-1-1.5-1.8-2.3-2.8c-0.8-1-1.8-1.9-2.6-2.8c-0.9-0.9-1.5-1.6-2.3-2.3s-1.8-1.6-2.8-2.4s-1.6-1.3-2.4-1.9s-1.9-1.2-2.8-1.8
				s-1.6-1-2.5-1.5c-0.9-0.5-2.1-0.9-3.1-1.4L78.2,33l-2.5-13.4L90,11.9C101.9,17.8,112.2,26.5,120.1,37.2z M102,63.6
				c-12.7,18-22.4,27.1-38.5,27.1c-1.4,0-2.8,0-4.1-0.3H59c-0.9,0-1.8-0.3-2.6-0.5c-4-0.8-7.8-2.5-11.1-5l0,0
				c-0.6-0.5-1.1-1-1.6-1.5l-1-1l-0.6-0.7c-2.9-3.7-4.7-8.2-5.3-12.8l0,0c0-0.6-0.1-1.1-0.2-1.7c0-1.2-0.2-2.4-0.2-3.8
				c0-1.4,0-2.6,0.2-3.8c0-0.5,0-1.1,0.2-1.7l0,0c0.6-4.6,2.4-9,5.3-12.8l0.6-0.7l1-1c0.5-0.5,1.1-1,1.6-1.4l0,0
				c3.2-2.4,7-4.1,10.9-4.8c0.9-0.2,1.7-0.3,2.6-0.5h0.5c1.3,0,2.6-0.2,4.1-0.3C79.7,36.4,89.4,45.6,102,63.6z M63.6,6.2
				c2.7,0,5.3,0.2,8,0.5h1C75,7,77.5,7.5,79.9,8.1c2.7,0.7,5.4,1.7,8,2.8l-14.2,7.7l2.5,13.5c-1.1-0.4-2.3-0.6-3.5-0.9
				c-1.2-0.3-1.6-0.4-2.5-0.6c-2-0.3-4-0.4-6-0.5h-0.6h-0.2c-6.1,0-12,1.4-17.4,4.2l-0.7,0.4c-0.6,0.3-1.2,0.7-1.8,1.1
				c-0.6,0.4-1.3,0.9-2,1.4l-0.4,0.3c-1.9,1.6-3.6,3.4-5,5.4l-16.6,3.6l-5.9-12.9C25,14.2,47.1,6.2,63.6,6.2z M6.2,63.6
				c-0.2-9.5,2-19,6.2-27.5l5.9,13l16.2-3.5c-2.3,4.1-3.6,8.7-4,13.4v0.2c0,1.4-0.2,2.8-0.2,4.4c0,1.6,0,3,0.2,4.4v0.2
				c0.5,8.2,4.3,15.9,10.6,21.2l0.4,0.3c0.6,0.5,1.2,0.9,1.8,1.4l2.4,14.2L32,112.1C17.7,103.3,6.2,87.9,6.2,63.6z M79.9,118.9
				c-2.4,0.6-4.9,1.1-7.4,1.4h-1c-2.7,0.3-5.3,0.5-8,0.5c-10.3-0.1-20.5-2.7-29.5-7.7l13.9-6.9l-2.3-13.8l0.3,0.2
				c5.4,2.8,11.4,4.2,17.4,4.2h0.2h0.6c2,0,4-0.2,6-0.5c0.9,0,1.6-0.4,2.5-0.6s2.5-0.5,3.6-0.9c1.2-0.4,1.7-0.7,2.5-1
				c0.8-0.4,2.1-0.9,3.1-1.4s1.6-1,2.5-1.5c0.8-0.5,1.9-1.2,2.8-1.8c0.9-0.7,1.6-1.2,2.4-1.9c0.8-0.7,1.6-1.3,2.4-2.1l14.2,3.4
				l1.2,15.1C99.5,110.9,90.1,116.1,79.9,118.9L79.9,118.9z M121.5,88.1c-3.7,4.9-7.8,9.5-12.2,13.8L108.1,87l-14.4-3.4l0.8-0.9
				c0.9-0.9,1.8-1.8,2.6-2.8c0.8-1,1.5-1.8,2.3-2.8s1.8-2.2,2.7-3.3l2.3-3.1l1.3-1.7l2.6-3.7l1.2-1.8l0,0l6.9-9.9l0,0l8.2-11.9
				l2-2.6c6.1-8.3,13.4-15.6,21.8-21.7l14.6,7.9L160.6,38c-7.2,5.3-13.7,13.3-20.9,23.7l0,0l0,0l-0.3,0.4l-0.9,1.4l0,0L121.5,88.1z
				 M127.9,89.9L142.3,69c3.7,5.3,7.8,10.3,12.3,15l-13.9,2.8l-2.5,14.7C134.5,97.8,131.1,93.9,127.9,89.9L127.9,89.9z"/>
			<path id="path4551-8" class="st0" d="M259,132.3c-1.7,2.7-3.6,5.3-5.7,7.7c-0.8,1.1-1.7,2.1-2.6,3c-4,4.4-8.5,8.4-13.4,11.8
				c-4.6-3.2-8.9-6.9-12.8-11c-0.6-0.6-1.6-0.7-2.3-0.2c-0.6,0.6-0.7,1.6-0.2,2.2c4.3,4.6,9.1,8.7,14.3,12.1
				c0.2,0.2,0.6,0.3,0.9,0.3c0.4,0,0.7-0.1,1-0.3c6.3-4.1,11.9-9.2,16.8-14.9c0.9-1,1.6-2,2.4-3c4-5.3,7.5-11,10.3-17
				c4.4-9.9,7.1-20.4,8-31.2c0.1-0.9-0.5-1.6-1.4-1.7h-0.1c-0.9-0.1-1.6,0.5-1.7,1.4c-0.9,10.9-3.8,21.5-8.5,31.4
				C262.7,126.1,260.9,129.2,259,132.3z"/>
			<path id="path4553-2" class="st0" d="M237.4,137.8c2.4,0,4.6-0.9,6.4-2.5c3.2-3,3.4-8.1,0.3-11.3c-0.3-0.3-0.7-0.7-1-0.9
				c-1.5-1.2-3.3-1.9-5.2-1.9h-0.4h-0.4c-1.9,0.1-3.7,0.7-5.2,1.9c-2,1.5-3.2,3.9-3.2,6.4c0,2.2,0.9,4.3,2.4,5.8
				C232.8,136.9,235.1,137.8,237.4,137.8z"/>
			<path id="path4555-1" class="st0" d="M232.1,107l0.3,3.3c-0.2,2.7,1.8,5.1,4.5,5.3c2.7,0.2,5.1-1.8,5.3-4.5c0-0.2,0-0.5,0-0.7
				l2.4-20.2c0-1-0.2-1.9-0.5-2.8c-0.8-2.3-2.7-4.1-5-4.8c-0.6-0.2-1.2-0.2-1.8-0.3c-4.2,0.2-7.5,3.7-7.3,7.9l0,0l1,8.5L232.1,107z"
				/>
			<path id="path4557-0" class="st0" d="M288.3,77.2c-14.3-1.9-28-6.8-40.2-14.6c-2.2-1.5-4.3-3-6.3-4.7c-0.4-0.3-0.9-0.7-1.3-1
				c-1.8-1.6-4.5-1.6-6.4,0c-5,4.3-10.5,7.9-16.4,10.8c-2.1,1-4.3,2-6.6,2.8c-8,3.1-16.3,5.3-24.8,6.6c-2.4,0.4-4.1,2.4-4.1,4.8
				c0,2.8,0,5.7,0.3,8.5c0,2.1,0.4,4.2,0.6,6.2c0.7,6.1,1.9,12.1,3.5,18c0.6,2.1,1.3,4.1,2,6c0.4,1.1,0.7,2.4,1.2,3.5
				c0.4,1.1,0.8,1.6,1.1,2.5c7.2,17,19,31.7,34,42.4c2.6,1.8,4.9,3.2,6.6,4.2s3.3,1.8,3.7,1.9c1.3,0.6,2.8,0.6,4.1,0
				c20.8-11,36.9-29.1,45.4-51c1.2-3,2.3-6.2,3.2-9.5c3-10.7,4.5-21.7,4.4-32.8C292.1,79.6,290.5,77.6,288.3,77.2z M282,94.8
				c0,0.9-0.2,1.7-0.3,2.6c-0.3,1.9-0.5,3.8-0.9,5.7c-0.2,0.9-0.4,1.9-0.6,2.8c-0.4,1.7-0.8,3.4-1.2,5c-0.2,0.8-0.4,1.6-0.7,2.4
				c-0.6,1.9-1.2,3.8-1.9,5.7l-0.2,0.6l-0.2,0.6c-0.8,2.2-1.7,4.2-2.7,6.2c-0.3,0.6-0.6,1.2-0.9,1.8c-0.6,1.2-1.2,2.4-1.9,3.6
				l-0.2,0.4l-1.2,2c-0.3,0.5-0.6,1.1-0.9,1.6l0,0c-1.2,1.9-2.4,3.7-3.7,5.5l0,0l-0.9,1.2c-0.7,0.9-1.4,1.8-2.1,2.8l-1.7,2.1
				c-0.7,0.8-1.4,1.6-2.2,2.4l-1.7,1.8c-0.7,0.7-1.4,1.4-2.2,2.1l-1.6,1.5l-2.2,1.8l-1.5,1.2l-2.1,1.6l-1.3,1l-2,1.4l-1,0.7
				l-1.9,1.2l0,0l-0.7,0.5l-2,1.2l0,0l-2-1.5l-0.7-0.5l-1.9-1.2l-1-0.7l-1.1-0.7l-1-0.6l-1.3-1l-2.1-1.6l-1.5-1.2l-2.2-1.9l-1.6-1.5
				l-2.2-2.1l-1.7-1.8c-0.7-0.8-1.4-1.6-2.2-2.4l-1.7-2.1c-0.7-0.9-1.4-1.8-2.2-2.8c-0.3-0.4-0.6-0.7-0.9-1.1l0,0
				c-1.3-1.7-2.5-3.5-3.7-5.5l0,0c-0.3-0.5-0.6-1.1-0.9-1.6l-1.3-1.9l-0.2-0.4c-0.6-1.2-1.3-2.3-1.9-3.5c-0.3-0.6-0.6-1.2-0.9-1.8
				c-0.3-0.6-0.3-0.8-0.5-1.1c-0.8-1.6-1.5-3.3-2.2-5.1l-0.2-0.6l0,0l-0.2-0.5c-0.7-1.8-1.3-3.7-1.9-5.7c-0.2-0.8-0.5-1.6-0.7-2.4
				c-0.5-1.6-0.9-3.3-1.2-5c-0.2-0.9-0.4-1.8-0.6-2.8c-0.3-1.8-0.6-3.7-0.9-5.7l-0.1-1.2c0-0.4,0-0.9-0.2-1.3
				c-0.2-1.6-0.3-3.3-0.4-4.9s-0.2-2.4-0.3-3.7c4.4-0.8,8.8-1.9,13.1-3.2l1.3-0.4c2.8-0.9,5.7-1.9,8.2-2.8l0,0
				c3.2-1.3,6.3-2.9,9.4-4.5c0.9-0.5,1.8-0.8,2.6-1.3c3.7-2.1,7.3-4.4,10.6-7c1.4,1.1,2.8,2.1,4.4,3.1c1.5,1,3.8,2.5,5.8,3.6
				l0.4,0.3c0.8,0.5,1.8,0.9,2.6,1.3c3,1.6,6.2,3.1,9.4,4.4c2.7,1.1,5.4,2.1,8.3,2.8c4.7,1.5,9.6,2.7,14.5,3.6
				C282.5,89.1,282.2,92,282,94.8L282,94.8z"/>
		</g>
	</g>
</g>
</svg>
