<?xml version="1.0" encoding="utf-8"?>
<!-- Generator: Adobe Illustrator 23.0.3, SVG Export Plug-In . SVG Version: 6.00 Build 0)  -->
<!-- <svg version="1.1"
	 id="svg279048" xmlns:cc="http://creativecommons.org/ns#" xmlns:dc="http://purl.org/dc/elements/1.1/" xmlns:rdf="http://www.w3.org/1999/02/22-rdf-syntax-ns#" xmlns:svg="http://www.w3.org/2000/svg"
	 xmlns="http://www.w3.org/2000/svg" xmlns:xlink="http://www.w3.org/1999/xlink" x="0px" y="0px" viewBox="0 0 74.1 52.3"
	 style="enable-background:new 0 0 74.1 52.3;" xml:space="preserve"> -->

<svg width="100%" height="100%" viewBox="-0.1 0 74.4 52.4" xmlns="http://www.w3.org/2000/svg" xmlns:svg="http://www.w3.org/2000/svg" xmlns:se="http://svg-edit.googlecode.com" data-name="Layer 1">

<style type="text/css">
	.st0{fill:#58595B;stroke:none;stroke-width:2;}
</style>
<g id="layer1" transform="translate(13.834247,-511.53491)">
	<g id="Layer_2-9" transform="matrix(0.28879522,0,0,0.28878837,-13.751746,511.61744)">
		<g id="Layer_1-2-9">
			<path id="path8436" class="st0" d="M223.5,29.8h-92.3v5.8H222C221.9,33.6,222.4,31.5,223.5,29.8z"/>
			<path id="path8438" class="st0" d="M227.8,92.1h-0.5c-0.2,0.1-0.3,0.1-0.5,0.2c-0.8,0.4-1.6,0.7-2.4,1v81H6.4V35.6h93.1v-5.8h-99
				V180h229.6V90.8C229.5,91.4,228.7,91.9,227.8,92.1z"/>
			<path id="path8440" class="st0" d="M224.9,78.1c1.3-1.4,3.3-2,5.2-1.4V45.5c-0.9,0.5-1.8,0.8-2.8,0.8s-2-0.3-2.8-0.8v33.3
				L224.9,78.1z"/>
			<path id="path8442" class="st0" d="M102.6,159.4H22.3V68h80.3C102.6,68,102.6,159.4,102.6,159.4z M29.3,152.4h66.4V75H29.3V152.4
				z"/>
			<path id="path8444" class="st0" d="M119.3,137.1c-1.6,0-2.8,1.3-2.8,2.8c0,1.6,1.3,2.8,2.8,2.8h50.8c1.6,0,2.8-1.3,2.8-2.8
				c0-1.6-1.3-2.8-2.8-2.8H119.3z"/>
			<path id="path8446" class="st0" d="M208.1,120h-88.8c-1.6,0-2.8,1.3-2.8,2.8c0,1.6,1.3,2.8,2.8,2.8h88.9L208.1,120z"/>
			<path id="path8448" class="st0" d="M208.1,102.9h-88.8c-1.6,0-2.8,1.3-2.8,2.8c0,1.6,1.3,2.8,2.8,2.8h88.9L208.1,102.9z"/>
			<path id="path8450" class="st0" d="M161.4,85.8h-42.1c-1.6,0-2.8,1.3-2.8,2.8s1.3,2.8,2.8,2.8h44.3C161.8,90.2,161,88,161.4,85.8
				z"/>
			<path id="path8452" class="st0" d="M169.8,91.4H183c-2.4-1.4-4.5-3.4-6.1-5.7H172C172.4,87.9,171.6,90.1,169.8,91.4z"/>
			<path id="path8454" class="st0" d="M99.4,1.8v47.6h31.8V1.8H99.4z M122.4,43.4h-14V29.5h14V43.4z"/>
			<path id="path8456" class="st0" d="M62.5,153.2h-6.2c2.3,0,4.6,0.3,6.9,0.2c1.7,0,3.3,0,5,0l-0.3-0.2
				C66.2,153.2,64.4,153.2,62.5,153.2z"/>
			<path id="path8458" class="st0" d="M248.4,53.8c-1.3,0-2.4,1.1-2.4,2.4c0,14.8-16.2,20-30,20c-8.2,0.2-16.3-2.8-22.5-8.2
				l11.2-11.6c0.7-0.7,0.9-1.7,0.5-2.6c-0.4-0.9-1.2-1.5-2.2-1.5h-40.2c-1.3,0-2.4,1.1-2.4,2.4l0,0v42c0,1.3,1.1,2.4,2.4,2.4
				c0,0,0,0,0.1,0c0.7,0,1.3-0.3,1.8-0.8L175.3,87c8.1,7.8,19,12.1,30.2,12.1c26.2,0,45.4-18.1,45.4-43c0-1.3-1-2.4-2.4-2.4
				C248.5,53.8,248.4,53.8,248.4,53.8z M234.2,83.9c-7.9,6.9-18.2,10.6-28.7,10.3c-10.8,0-21.1-4.5-28.5-12.4
				c-0.5-0.5-1.1-0.8-1.8-0.8s-1.3,0.3-1.8,0.8l-8.5,8.8V57.2H197l-8.8,9.2c-0.9,0.9-0.9,2.4,0,3.3c7.2,7.5,17.2,11.6,27.6,11.3
				c11,0,19.8-2.6,26.1-7.3C240,77.7,237.4,81.1,234.2,83.9z"/>
			<path id="path8460" class="st0" d="M254.1,0.7c-0.9-0.4-2-0.1-2.6,0.6l-10.9,11.3c-8.2-7.8-19-12.1-30.3-12.1
				c-26.2,0-45.4,18.1-45.4,43c0,1.3,1.1,2.4,2.4,2.4c1.3,0,2.4-1.1,2.4-2.4c0-14.8,16.2-20,30.1-20c8.3-0.2,16.4,2.7,22.6,8.2
				l-11.1,11.6c-0.7,0.7-0.9,1.7-0.5,2.6c0.4,0.9,1.3,1.5,2.2,1.5h40.1c1.3,0,2.4-1.1,2.4-2.4c0,0,0,0,0-0.1V3
				C255.6,2,255,1.1,254.1,0.7z M250.8,42.6h-32l8.8-9.2c0.9-0.9,0.9-2.4,0-3.3c-7.2-7.5-17.2-11.6-27.6-11.3c-11,0-20,2.6-26.1,7.3
				c2-3.8,4.6-7.3,7.8-10.2c7.9-6.9,18.1-10.6,28.6-10.4c10.8,0,21.2,4.5,28.6,12.4c0.9,1,2.4,1,3.4,0.1l0.1-0.1l8.5-8.8L250.8,42.6
				z"/>
			<path id="path8462" class="st0" d="M78.8,143.5c0.7,0,1.2,0.5,1.2,1.2l0,0v8.6h10c-0.5-10.1-7.5-24.5-18-27.3h-0.2
				c-0.5,2.1-1.9,3.8-3.8,4.9c-3.5,1.9-7.6,1.9-11.1,0c-0.9-0.5-1.7-1.2-2.4-2.1c-0.7-0.8-1.1-1.8-1.4-2.8H53l-1,0.3l0,0
				c-9.9,2.8-16.6,17.3-17,27.1h9.1v-8.6c0-0.7,0.5-1.2,1.2-1.2s1.2,0.5,1.2,1.2l0,0v8.7h31.2v-8.6
				C77.7,144.1,78.1,143.6,78.8,143.5z"/>
			<path id="path8464" class="st0" d="M62.5,89c-10.9,0-12.1,11.3-12.1,16.1c0.2,4.1,2,8,5,10.9c0.9,0.9,1.8,1.8,2.8,2.5
				c0.1,0.1,0.2,0.2,0.3,0.3c0.3,0.4,0.4,0.9,0.4,1.4c-0.2,2.1-1.5,4-3.4,4.9c0.2,0.8,0.6,1.5,1.1,2.1c0.4,0.5,1,0.9,1.6,1.2
				c2.7,1.5,6,1.5,8.7,0c1.3-0.7,2.3-1.9,2.7-3.4c-0.9-0.4-1.7-1-2.2-1.8c-0.6-0.9-1-2-1.1-3.1c-0.1-0.7,0.1-1.3,0.7-1.8
				c4.4-3.1,7.3-8.1,7.8-13.5c0.2-4.4-1-8.7-3.5-12.3C69,90.2,65.8,88.8,62.5,89z"/>
			<path id="path8466" class="st0" d="M66.8,118.6c-0.5,0.4-0.8,1.1-0.7,1.8c0.2,1.1,0.6,2.1,1.1,3.1c-0.6-0.9-0.9-2-1.1-3.1
				C66.1,119.7,66.3,119,66.8,118.6c4.5-3.1,7.3-8,7.8-13.4c0.2-4.4-1.1-8.7-3.5-12.3c2.5,3.6,3.7,7.9,3.5,12.3
				C74.1,110.5,71.3,115.5,66.8,118.6z"/>
			<path id="path8468" class="st0" d="M66.8,128.7c-2.7,1.5-6,1.5-8.7,0c-0.6-0.3-1.1-0.7-1.6-1.2c0.4,0.5,1,0.9,1.6,1.3
				C60.9,130.2,64.1,130.2,66.8,128.7c1.3-0.7,2.3-1.9,2.7-3.4l0,0C69.1,126.7,68.2,127.9,66.8,128.7z"/>
			<path id="path8470" class="st0" d="M55.3,116.1c0.9,0.9,1.8,1.8,2.8,2.6c0.1,0.1,0.2,0.2,0.3,0.3c-0.1-0.1-0.2-0.2-0.3-0.3
				C57.2,117.8,56.2,117,55.3,116.1z"/>
			<path id="path8472" class="st0" d="M62.5,85.6c3.9-0.1,7.7,1.3,10.5,4C70.2,86.9,66.4,85.4,62.5,85.6c-9.9,0-15.7,7.3-15.7,19.8
				c0.2,4.7,2.1,9.1,5.2,12.6c-3.2-3.4-5-7.9-5.2-12.6C46.8,92.8,52.7,85.6,62.5,85.6z"/>
			<path id="path8474" class="st0" d="M72.8,122.4L72.8,122.4c1.3,0.3,2.6,0.8,3.9,1.2h0.2C75.5,123.2,74,122.8,72.8,122.4
				L72.8,122.4c-0.9-0.1-1.7-0.4-2.4-0.9C71.1,122,71.9,122.3,72.8,122.4z"/>
			<path id="path8476" class="st0" d="M53.2,126L53.2,126c0.3,1,0.7,2,1.4,2.8C53.9,128,53.4,127,53.2,126z"/>
			<path id="path8478" class="st0" d="M52,126.3c-0.5-0.5-1.1-1-1.7-1.5c-0.6-0.5-1.4-0.8-2.2-1c-8.5,3.3-16.3,18.2-16.7,29.6H35
				C35.4,143.6,42.1,129.2,52,126.3z"/>
			<path id="path8480" class="st0" d="M45.3,143.5c-0.7,0-1.2,0.5-1.2,1.2v8.7h2.4v-8.7C46.4,144,45.9,143.5,45.3,143.5z"/>
			<path id="path8482" class="st0" d="M52.2,122.4c2-0.4,2.5-0.8,2.8-1.8l0,0C54.8,121.6,54.2,122,52.2,122.4L52.2,122.4
				c-1,0.3-2,0.6-2.8,0.9c1-0.3,2-0.6,3-0.9H52.2z"/>
			<path id="path8484" class="st0" d="M73,126.3l-1-0.3h-0.2c-0.6,2-1.9,3.8-3.8,4.8c-3.5,1.9-7.6,1.9-11.1,0
				c-0.9-0.5-1.7-1.2-2.4-2c0.7,0.8,1.5,1.5,2.4,2.1c3.5,1.9,7.6,1.9,11.1,0c1.8-1,3.2-2.8,3.8-4.8H72c10.5,2.8,17.6,17.2,18,27.3
				h3.6c-0.5-11.3-8.2-26.3-16.8-29.6c-0.8,0.2-1.5,0.5-2.1,1C74.1,125.2,73.5,125.8,73,126.3z"/>
			<path id="path8486" class="st0" d="M48,123.8L48,123.8l1-0.4L48,123.8z"/>
			<path id="path8488" class="st0" d="M53,126h0.2l0,0H53l-1,0.3l0,0L53,126z"/>
			<path id="path8490" class="st0" d="M79.9,144.7c-0.1-0.7-0.7-1.1-1.4-1c-0.5,0.1-0.9,0.5-1,1v8.6h2.4V144.7z"/>
			<path id="path8492" class="st0" d="M69.5,125.2L69.5,125.2c-0.9-0.4-1.7-1-2.2-1.8C67.8,124.2,68.6,124.9,69.5,125.2z"/>
			<path id="path8494" class="st0" d="M58.8,120.3c0.1-0.5-0.1-1-0.4-1.4C58.8,119.3,58.9,119.8,58.8,120.3c-0.2,2.1-1.5,4-3.4,4.9
				c0.2,0.8,0.6,1.5,1.1,2.2c-0.5-0.6-0.9-1.3-1.1-2.1C57.4,124.4,58.7,122.5,58.8,120.3z"/>
			<path id="path8496" class="st0" d="M55.3,116.1c-3-2.9-4.7-6.8-5-10.9c0-4.8,1.2-16.1,12.1-16.1c3.3-0.1,6.4,1.3,8.5,3.8
				c-2.1-2.5-5.2-4-8.5-3.8c-10.9,0-12.1,11.3-12.1,16.1C50.6,109.3,52.4,113.2,55.3,116.1z"/>
			<path id="path8498" class="st0" d="M69.9,120.7c0.1,0.3,0.3,0.7,0.5,0.9C70.2,121.4,70,121.1,69.9,120.7
				c9.4-7.4,11.1-21,3.7-30.4c-0.2-0.2-0.4-0.5-0.6-0.7c7.8,9.1,6.7,22.8-2.4,30.6C70.4,120.4,70.1,120.6,69.9,120.7L69.9,120.7z"/>
			<path id="path8500" class="st0" d="M52,117.7c0.9,1.1,1.9,2.1,3,3l0,0C53.9,119.8,52.9,118.8,52,117.7z"/>
			<path id="path8502" class="st0" d="M52,126.3l1-0.3h0.2l0,0c0.2,1,0.7,2,1.4,2.8s1.5,1.5,2.4,2c3.5,1.9,7.6,1.9,11.1,0
				c1.9-1,3.2-2.7,3.8-4.8H72l1,0.3c0.5-0.5,1.1-1.1,1.7-1.5c0.6-0.5,1.3-0.8,2.1-1c-1.3-0.5-2.6-0.9-3.9-1.2l0,0
				c-0.9-0.1-1.7-0.4-2.4-0.9c-0.2-0.3-0.4-0.6-0.5-0.9c9.4-7.4,11-21.1,3.6-30.5c-0.2-0.2-0.4-0.5-0.6-0.7
				c-2.8-2.7-6.6-4.2-10.6-4.1c-9.8,0-15.7,7.4-15.7,19.8c0.2,4.7,2.1,9.1,5.2,12.6c0.9,1.1,1.9,2.1,3,3l0,0c-0.3,1-0.9,1.4-2.8,1.8
				l0,0c-1,0.3-2,0.6-3,0.9l-1,0.4c0.8,0.2,1.5,0.5,2.2,1C50.9,125.4,51.5,125.8,52,126.3z M50.4,105.1c0-4.8,1.2-16.1,12.1-16.1
				c3.3-0.1,6.4,1.3,8.5,3.8c2.5,3.6,3.7,8,3.5,12.3c-0.5,5.4-3.3,10.3-7.8,13.5c-0.5,0.4-0.8,1.1-0.7,1.7c0.2,1.1,0.5,2.1,1.1,3.1
				c0.6,0.8,1.3,1.4,2.2,1.8l0,0c-0.4,1.4-1.4,2.7-2.7,3.4c-2.7,1.5-6,1.5-8.7,0c-0.6-0.3-1.1-0.8-1.6-1.3c-0.5-0.6-0.9-1.4-1.1-2.2
				c1.9-0.9,3.2-2.8,3.3-4.9c0.1-0.5,0-1-0.3-1.4c-0.1-0.1-0.2-0.2-0.3-0.3c-1-0.8-2-1.6-2.8-2.6C52.3,113.1,50.5,109.2,50.4,105.1z
				"/>
		</g>
	</g>
</g>
</svg>
