<?xml version="1.0" encoding="iso-8859-1"?>
<!-- Generator: Adobe Illustrator 23.0.3, SVG Export Plug-In . SVG Version: 6.00 Build 0)  -->
<svg version="1.1"
	 id="svg110433" xmlns:cc="http://creativecommons.org/ns#" xmlns:dc="http://purl.org/dc/elements/1.1/" xmlns:rdf="http://www.w3.org/1999/02/22-rdf-syntax-ns#" xmlns:svg="http://www.w3.org/2000/svg"
	 xmlns="http://www.w3.org/2000/svg" xmlns:xlink="http://www.w3.org/1999/xlink" x="0px" y="0px" viewBox="0 0 51.5 52.3"
	 style="enable-background:new 0 0 51.5 52.3;" xml:space="preserve">
<style type="text/css">
	.st0{fill:#58595B;stroke:#58595B;stroke-width:0.25;}
</style>
<g id="layer1" transform="translate(-204.84582,-39.820619)">
	<g id="Layer_2-18-3" transform="matrix(0.2534514,0,0,0.2534514,204.84582,39.820794)">
		<g id="Layer_1-2-59-3">
			<path id="path5848-3" class="st0" d="M164,49.7c0.7-3.1,1.1-6.2,1.1-9.3C164.8,17.8,146.4-0.2,123.8,0c-14.8,0-28.5,7.8-36,20.7
				C67,17.3,46.7,29.6,40,49.6C17.8,50.9,0.3,69.2,0,91.4c0.3,23.4,19.5,42.1,42.9,41.9h36.5c-0.7-3.1-1-6.3-0.9-9.5H42.9
				c-18.1,0.2-33-14.3-33.3-32.4c0.3-18,15-32.4,33-32.4c4.6,0.1,9.1,1,13.3,2.8c1.6,0.7,3.5-0.1,4.2-1.7c0.7-1.6-0.1-3.5-1.7-4.2
				c-3-1.2-6.1-2.1-9.3-2.7c4.3-14.1,17.3-23.7,32.1-23.6h0.8c8.3,0.1,16.2,3,22.5,8.4c0.6,0.5,1.3,0.8,2,0.8c0.9,0,1.8-0.4,2.4-1.1
				c1.1-1.3,1-3.3-0.4-4.5c0,0,0,0,0,0c-3.7-3.2-8-5.6-12.6-7.3c5.7-10.1,16.4-16.4,28-16.3c17.3-0.2,31.5,13.6,31.7,30.8
				c0,4.2-0.9,8.3-2.6,12.1c-0.1,0.3-0.2,0.7-0.3,1c-4.5,0.9-8.8,2.6-12.7,4.9c-1.4,1-1.8,3-0.8,4.4c0.5,0.8,1.4,1.3,2.4,1.4
				c0.6,0,1.1-0.1,1.6-0.4c4.6-2.8,9.9-4.4,15.3-4.8h1.8c18.1-0.3,33,14.1,33.3,32.2c-0.2,15-10.6,28-25.2,31.5
				c0.1,3.3-0.1,6.6-0.7,9.9c22.8-3.4,38.5-24.7,35.1-47.5C199.9,65.7,183.7,50.9,164,49.7z"/>
			<path id="path5850-7" class="st0" d="M59.2,206.4c-9.8,0-17.7-8-17.7-17.8c0-4.7,1.9-9.1,5.2-12.4l40-40
				c-6.5-20.3,4.7-42.1,25-48.6c8.4-2.7,17.5-2.4,25.7,0.7c1.5,0.6,2.5,1.9,2.8,3.5c0.3,1.6-0.1,3.2-1.3,4.4l-18.2,18.2l12.8,12.8
				l18.2-18.2c1.2-1.1,2.9-1.6,4.5-1.2c1.6,0.3,2.8,1.4,3.5,2.8c7.6,20-2.3,42.3-22.3,50c-4.4,1.7-9.1,2.6-13.8,2.6l0,0
				c-4,0-8-0.6-11.8-1.8l-40,40C68.4,204.6,63.9,206.4,59.2,206.4z M123.5,95.3c-16.1,0-29.1,13-29.2,29c0,3.9,0.8,7.7,2.3,11.3
				c0.7,1.8,0.3,3.8-1,5.2l-42.1,42.1c-3.2,3.2-3.2,8.4,0,11.6c1.5,1.5,3.5,2.4,5.7,2.4c2.1,0,4.2-0.9,5.7-2.4l42.3-42.2
				c1.4-1.4,3.4-1.8,5.2-1c3.5,1.5,7.4,2.2,11.2,2.2l0,0c7.7,0,15.1-3,20.6-8.5c6.2-6.2,9.3-14.7,8.5-23.4L140,134.2
				c-3.5,3.5-9.2,3.5-12.7,0l-13.5-13.5c-3.5-3.5-3.5-9.2,0-12.7l12.6-12.6C125.4,95.3,124.4,95.3,123.5,95.3z"/>
			<path id="path5852-3" class="st0" d="M122.3,148.4c-12.5,0-22.7-10.2-22.7-22.7c0-0.1,0-0.2,0-0.3h3.2
				c-0.3,10.7,8.1,19.6,18.8,19.8c0.2,0,0.5,0,0.7,0L122.3,148.4z"/>
			<path id="path5854-2" class="st0" d="M62.4,189.3c0,2.1-1.7,3.8-3.8,3.8c-2.1,0-3.8-1.7-3.8-3.8c0-2.1,1.7-3.8,3.8-3.8
				C60.7,185.5,62.3,187.2,62.4,189.3z"/>
			<path id="path5856-6" class="st0" d="M70.7,180.4c-1.8,0-3.2-1.5-3.2-3.3c0-0.8,0.3-1.6,0.9-2.2l24.5-24.5c1.2-1.2,3.3-1.2,4.5,0
				c1.2,1.2,1.2,3.3,0,4.5l-24.5,24.5C72.3,180.1,71.5,180.4,70.7,180.4z"/>
		</g>
	</g>
</g>
</svg>
