<?xml version="1.0" encoding="iso-8859-1"?>
<!-- Generator: Adobe Illustrator 23.0.3, SVG Export Plug-In . SVG Version: 6.00 Build 0)  -->
<!-- <svg version="1.1"
	 id="svg80350" xmlns:cc="http://creativecommons.org/ns#" xmlns:dc="http://purl.org/dc/elements/1.1/" xmlns:rdf="http://www.w3.org/1999/02/22-rdf-syntax-ns#" xmlns:svg="http://www.w3.org/2000/svg"
	 xmlns="http://www.w3.org/2000/svg" xmlns:xlink="http://www.w3.org/1999/xlink" x="0px" y="0px" viewBox="0 0 55.2 52.3"
	 style="enable-background:new 0 0 55.2 52.3;" xml:space="preserve"> -->

<svg width="100%" height="100%" viewBox="-0.5 -0.5 56.2 53.3" xmlns="http://www.w3.org/2000/svg" xmlns:svg="http://www.w3.org/2000/svg" xmlns:se="http://svg-edit.googlecode.com" data-name="Layer 1">
	 
<style type="text/css">
	.st0{fill:#58595B;stroke:none;stroke-width:2;}
</style>
<g id="layer1" transform="translate(625.08282,-46.62419)">
	<g id="Layer_2-02-5" transform="matrix(0.27165803,0,0,0.27165803,-625.08282,46.624378)">
		<g id="Layer_1-2-10-2">
			<path id="path12071-6" class="st0" d="M169,177.1l-10.2-16.2V98.1c0-5.3-4.3-9.6-9.6-9.6H53.9c-5.3,0-9.6,4.3-9.6,9.6l0,0v62.8
				L34,177.1c-0.3,0.5-0.5,1.1-0.5,1.7v2.1c0,6.5,5.3,11.7,11.7,11.7c0,0,0.1,0,0.1,0h112.4c6.4,0,11.7-5.2,11.7-11.7v-2.1
				C169.5,178.2,169.3,177.6,169,177.1z M50.5,98.1c0-1.8,1.4-3.2,3.2-3.2c0,0,0.1,0,0.1,0h41.9l0.4,2.1h10.6l0.4-2.1h42
				c1.8,0,3.2,1.4,3.2,3.2v61.6h-102L50.5,98.1z M49.8,163.9h103.4l8.6,13.8h-43.5l-0.9-5.3H85.6l-0.9,5.3H41.2L49.8,163.9z
				 M163.2,180.9c0,2.9-2.4,5.3-5.3,5.3l0,0H45.4c-2.9,0-5.3-2.4-5.3-5.3v-1.1h123L163.2,180.9z"/>
			<path id="path12073-5" class="st0" d="M55.8,155.4h91.3v-55.2H55.8V155.4z M58,102.3H145v51H58V102.3z"/>
			<rect id="rect12075-8" x="57.4" y="113.8" class="st0" width="88.6" height="2.6"/>
			<circle id="circle12077-7" class="st0" cx="138.3" cy="108.6" r="2.4"/>
			<circle id="circle12079-9" class="st0" cx="131.7" cy="108.6" r="2.4"/>
			<circle id="circle12081-6" class="st0" cx="125.2" cy="108.6" r="2.4"/>
			<path id="path12083-0" class="st0" d="M119.1,132.5l6.8,11.8l1.3-4.8l3.9,2.8c0.1,0.1,0.3,0.1,0.4,0.1c0.2,0,0.4-0.1,0.6-0.3
				c0.2-0.3,0.2-0.7-0.1-1c0,0,0,0,0,0l-3.9-2.8l4.3-2.5L119.1,132.5z"/>
			<path id="path12085-4" class="st0" d="M203.2,91.4c-0.2-22-17.3-40.1-39.2-41.8c0.7-3.1,1.1-6.2,1.1-9.3
				C164.8,17.8,146.4-0.2,123.8,0c-14.8,0-28.5,7.8-36,20.7C67,17.3,46.7,29.6,40,49.6C17.8,50.9,0.3,69.2,0,91.4
				c0.2,20,14.4,37.1,34,41v-9.8C19.7,119,9.6,106.2,9.4,91.5C9.7,73.4,24.5,59,42.5,59.1c4.6,0.1,9.1,1,13.3,2.8
				c1.6,0.7,3.5-0.1,4.2-1.7c0.7-1.6-0.1-3.5-1.7-4.2c-3-1.2-6.1-2.1-9.3-2.7c4.3-14.1,17.3-23.7,32.1-23.6h0.8
				c8.3,0.1,16.2,3,22.5,8.4c0.6,0.5,1.3,0.8,2,0.8c0.9,0,1.8-0.4,2.4-1.1c1.1-1.3,1-3.3-0.4-4.5c0,0,0,0,0,0
				c-3.7-3.2-8-5.6-12.6-7.3c5.7-10.1,16.4-16.4,28-16.3c17.3-0.2,31.5,13.6,31.7,30.8c0,4.2-0.9,8.3-2.6,12.1
				c-0.1,0.3-0.2,0.7-0.3,1c-4.5,0.9-8.8,2.6-12.7,4.9c-1.4,1-1.8,3-0.8,4.4c0.5,0.8,1.4,1.3,2.4,1.4c0.6,0,1.1-0.1,1.6-0.4
				c4.6-2.8,9.9-4.4,15.3-4.8h1.8c18.1-0.3,33,14.1,33.3,32.2c-0.2,15-10.5,27.9-25,31.4v9.8C188.5,128.9,203,111.6,203.2,91.4z"/>
		</g>
	</g>
</g>
</svg>
