<?xml version="1.0" encoding="utf-8"?>
<!-- Generator: Adobe Illustrator 23.0.3, SVG Export Plug-In . SVG Version: 6.00 Build 0)  -->
<svg version="1.1"
	 id="svg87247" xmlns:cc="http://creativecommons.org/ns#" xmlns:dc="http://purl.org/dc/elements/1.1/" xmlns:rdf="http://www.w3.org/1999/02/22-rdf-syntax-ns#" xmlns:svg="http://www.w3.org/2000/svg"
	 xmlns="http://www.w3.org/2000/svg" xmlns:xlink="http://www.w3.org/1999/xlink" x="0px" y="0px" viewBox="0 0 53.2 52.3"
	 style="enable-background:new 0 0 53.2 52.3;" xml:space="preserve">
<style type="text/css">
	.st0{fill:none;}
	.st1{fill:#666666;stroke:#020202;stroke-width:1;stroke-miterlimit:10;}
	.st2{fill:#666666;stroke:#020202;stroke-width:0.5;stroke-miterlimit:10;}
</style>
<g>
	<path class="st0" d="M18,36.1c0-2,0.4-4.1,1-6c-1.2-0.2-2.1-0.5-2.7-0.9c-1.5,1.9-2.4,4.3-2.5,6.9H18z"/>
	<path class="st0" d="M18,37.8h-4.2c0.2,2.5,1.1,4.8,2.5,6.8c0.7-0.4,1.6-0.7,2.7-0.9C18.4,41.8,18.1,39.8,18,37.8z"/>
	<path class="st0" d="M25.7,43.8c-2.2,0-4.2,0.2-5.7,0.5c0.9,2.4,2.2,4.3,4.1,5.3c0.5,0.1,1.1,0.2,1.6,0.2V43.8z"/>
	<path class="st0" d="M33.4,30.3c-2.2,0.4-4.7,0.5-6.1,0.5v5.4h7C34.3,34.1,34,32.1,33.4,30.3z"/>
	<path class="st0" d="M27.4,30c2.3,0,4.2-0.2,5.8-0.5c-0.8-2.3-2.1-4.2-3.9-5.1c-0.6-0.1-1.2-0.2-1.9-0.2V30z"/>
	<path class="st0" d="M25.7,30v-5.8c-0.6,0-1.2,0.1-1.8,0.2c-1.7,1-3,2.8-3.9,5.1C21.5,29.7,23.5,29.9,25.7,30z"/>
	<path class="st0" d="M35.2,36.1h4.2c-0.2-2.6-1.1-4.9-2.5-6.9c-0.7,0.4-1.6,0.7-2.6,0.9C34.8,32,35.1,34.1,35.2,36.1z"/>
	<path class="st0" d="M33.1,44.3c-1.9-0.3-3.8-0.4-5.8-0.5v5.9c0.6,0,1.1-0.1,1.7-0.2c1.5-0.8,2.6-2.2,3.3-3.4
		C32.6,45.5,32.9,44.9,33.1,44.3z"/>
	<path class="st0" d="M35.2,37.8c-0.1,2-0.4,4-0.9,5.8c1.1,0.2,2,0.5,2.7,0.9c1.4-1.9,2.3-4.2,2.4-6.7H35.2z"/>
	<path class="st0" d="M27.4,37.8V43c1.4,0,3.8,0.1,6,0.5c0.6-1.8,0.9-3.7,1-5.7H27.4z"/>
	<path class="st0" d="M19.1,44.4c-1.1,0.2-1.9,0.5-2.4,0.8c1.3,1.6,3,2.8,5,3.6C20.6,47.7,19.8,46.2,19.1,44.4z"/>
	<path class="st0" d="M19.2,29.4c0.2-0.7,0.5-1.4,0.8-2c0.5-0.9,1-1.6,1.6-2.3c-1.9,0.8-3.6,2-4.9,3.6
		C17.3,28.9,18.1,29.1,19.2,29.4z"/>
	<path class="st0" d="M25.7,36.1v-5.4c-2,0-4-0.2-5.9-0.5c-0.6,1.8-0.9,3.9-0.9,5.9H25.7z"/>
	<path class="st0" d="M34,44.4c-0.6,1.7-1.5,3.3-2.6,4.4c1.9-0.8,3.6-2,5-3.6C35.9,45,35.2,44.7,34,44.4z"/>
	<path class="st0" d="M25.7,37.8h-6.9c0.1,2,0.4,3.9,0.9,5.7c2.1-0.4,4.6-0.5,6-0.5V37.8z"/>
	<path class="st0" d="M34,29.3c1.1-0.2,1.9-0.5,2.4-0.7c-1.3-1.5-3-2.8-4.9-3.6C32.5,26.2,33.4,27.7,34,29.3z"/>
	<path class="st1" d="M53,22.7c-0.5-5.3-4.8-9.4-10.1-9.7c0.2-0.8,0.3-1.6,0.3-2.4C43.1,4.7,38.3-0.1,32.4,0c-3.9,0-7.5,2-9.4,5.4
		C17.5,4.5,12.2,7.7,10.5,13C4.7,13.3,0.1,18.1,0,23.9c0.1,5.5,4.2,10.2,9.7,10.9c0.1-0.8,0.3-1.6,0.5-2.5c-4.3-0.4-7.6-4.1-7.7-8.4
		c0.1-4.7,3.9-8.5,8.6-8.5c1.2,0,2.4,0.3,3.5,0.7c0.4,0.2,0.9,0,1.1-0.4s0-0.9-0.4-1.1c-0.8-0.3-1.6-0.5-2.4-0.7
		c1.1-3.7,4.5-6.2,8.4-6.2h0.2c2.2,0,4.2,0.8,5.9,2.2c0.2,0.1,0.3,0.2,0.5,0.2c0.2,0,0.5-0.1,0.6-0.3c0.3-0.3,0.3-0.9-0.1-1.2
		c-1-0.8-2.1-1.5-3.3-1.9c1.5-2.6,4.3-4.3,7.3-4.3c4.5-0.1,8.2,3.6,8.3,8.1c0,1.1-0.2,2.2-0.7,3.2c0,0.1-0.1,0.2-0.1,0.3
		c-1.2,0.2-2.3,0.7-3.3,1.3c-0.4,0.3-0.5,0.8-0.2,1.2c0.1,0.2,0.4,0.3,0.6,0.4c0.2,0,0.3,0,0.4-0.1c1.2-0.7,2.6-1.2,4-1.3h0.5
		c4.7-0.1,8.6,3.7,8.7,8.4c-0.1,4.4-3.4,8-7.7,8.4c0.2,0.8,0.4,1.6,0.5,2.5C49.4,34.1,53.7,28.7,53,22.7z"/>
	<path class="st2" d="M26.5,21.6c-8.5,0-15.3,6.9-15.3,15.4c0,8.5,6.9,15.3,15.4,15.3c8.5,0,15.3-6.9,15.3-15.3c0,0,0,0,0,0
		C41.9,28.5,35,21.6,26.5,21.6z M39.4,36.1h-4.2c-0.1-2.1-0.4-4.1-0.9-6c1-0.2,2-0.5,2.6-0.9C38.3,31.2,39.2,33.6,39.4,36.1z
		 M36.9,44.5c-0.7-0.4-1.6-0.7-2.7-0.9c0.5-1.8,0.8-3.8,0.9-5.8h4.2C39.2,40.3,38.3,42.6,36.9,44.5z M29.1,49.6
		c-0.6,0.1-1.1,0.2-1.7,0.2v-5.9c1.9,0,3.8,0.2,5.8,0.5c-0.2,0.6-0.5,1.2-0.8,1.8C31.7,47.4,30.6,48.8,29.1,49.6z M20,44.3
		c1.5-0.3,3.5-0.4,5.7-0.5v5.9c-0.6,0-1.1-0.1-1.6-0.2C22.2,48.6,20.8,46.7,20,44.3z M13.7,37.8H18c0.1,2,0.4,4,0.9,5.8
		c-1.1,0.2-2,0.5-2.7,0.9C14.8,42.7,13.9,40.3,13.7,37.8z M16.3,29.3c0.6,0.3,1.5,0.6,2.7,0.9c-0.6,1.9-1,4-1,6h-4.2
		C13.9,33.6,14.8,31.2,16.3,29.3z M23.9,24.4c0.6-0.1,1.2-0.2,1.8-0.2V30c-2.2,0-4.2-0.2-5.7-0.5C20.8,27.2,22.1,25.3,23.9,24.4z
		 M33.1,29.5c-1.6,0.3-3.5,0.4-5.8,0.5v-5.8c0.6,0,1.3,0.1,1.9,0.2C31,25.3,32.3,27.2,33.1,29.5z M27.4,30.8c1.4,0,3.8-0.1,6.1-0.5
		c0.6,1.8,0.9,3.8,0.9,5.8h-7V30.8z M25.7,30.8v5.4h-6.9c0.1-2,0.4-4.1,0.9-5.9C21.7,30.6,23.7,30.7,25.7,30.8z M18.8,37.8h6.9V43
		c-1.4,0-3.8,0.1-6,0.5C19.2,41.7,18.9,39.8,18.8,37.8z M27.4,43v-5.2h7c0,1.9-0.4,3.8-1,5.7C31.2,43.1,28.7,43,27.4,43z M36.4,28.6
		c-0.5,0.3-1.3,0.5-2.4,0.7c-0.6-1.7-1.4-3.2-2.5-4.3C33.4,25.8,35,27.1,36.4,28.6z M21.7,25.1c-0.6,0.6-1.1,1.4-1.6,2.3
		c-0.3,0.7-0.6,1.3-0.8,2c-1.1-0.2-1.9-0.5-2.4-0.8C18.1,27.1,19.8,25.8,21.7,25.1z M16.7,45.2c0.5-0.3,1.3-0.5,2.4-0.8
		c0.6,1.7,1.5,3.3,2.6,4.4C19.8,48.1,18,46.8,16.7,45.2z M31.4,48.9c1.1-1.1,2-2.7,2.6-4.4c1.2,0.2,1.9,0.5,2.4,0.8
		C35.1,46.8,33.4,48.1,31.4,48.9z M37.4,46.3C37.5,46.3,37.5,46.3,37.4,46.3C37.5,46.3,37.5,46.3,37.4,46.3z"/>
	<path class="st0" d="M37.5,46.3C37.5,46.3,37.5,46.3,37.5,46.3"/>
</g>
</svg>
