<?xml version="1.0" encoding="utf-8"?>
<!-- Generator: Adobe Illustrator 23.0.3, SVG Export Plug-In . SVG Version: 6.00 Build 0)  -->
<!-- <svg version="1.1"
	 id="svg176233" xmlns:cc="http://creativecommons.org/ns#" xmlns:dc="http://purl.org/dc/elements/1.1/" xmlns:rdf="http://www.w3.org/1999/02/22-rdf-syntax-ns#" xmlns:svg="http://www.w3.org/2000/svg"
	 xmlns="http://www.w3.org/2000/svg" xmlns:xlink="http://www.w3.org/1999/xlink" x="0px" y="0px" viewBox="0 0 52.7 52.3"
	 style="enable-background:new 0 0 52.7 52.3;" xml:space="preserve"> -->

<svg width="100%" height="100%" viewBox="-0.3 -0.5 53.3 53.1" xmlns="http://www.w3.org/2000/svg" xmlns:svg="http://www.w3.org/2000/svg" xmlns:se="http://svg-edit.googlecode.com" data-name="Layer 1">

<style type="text/css">
	.st0{fill:#58595B;stroke:none;stroke-width:2;}
</style>
<g id="layer1" transform="translate(-329.36732,-38.308714)">
	<g id="Layer_2-7-6" transform="matrix(0.25943205,0,0,0.25943205,329.36732,38.308893)">
		<g id="Layer_1-2-0-8">
			<path id="path2721-3" class="st0" d="M164,49.7c0.7-3.1,1.1-6.2,1.1-9.3C164.8,17.8,146.4-0.2,123.8,0c-14.8,0-28.5,7.8-36,20.7
				C67,17.3,46.7,29.6,40,49.6C17.8,50.9,0.3,69.2,0,91.4c0.3,23.4,19.5,42.1,42.9,41.9h1.3c-0.7-3.1-1.2-6.2-1.7-9.6
				c-18,0.1-32.7-14.4-33-32.4c0.3-18,15-32.4,33-32.4c4.6,0.1,9.1,1,13.3,2.8c1.6,0.7,3.5-0.1,4.2-1.7c0.7-1.6-0.1-3.5-1.7-4.2
				c-3-1.2-6.1-2.1-9.3-2.7C53.3,39,66.3,29.4,81.1,29.5h0.8c8.3,0.1,16.2,3,22.5,8.4c0.6,0.5,1.3,0.8,2,0.8c0.9,0,1.8-0.4,2.4-1.1
				c1.1-1.3,1-3.3-0.4-4.5l0,0c-3.7-3.2-8-5.6-12.6-7.3c5.7-10.1,16.4-16.4,28-16.3c17.3-0.2,31.5,13.6,31.7,30.8
				c0,4.2-0.9,8.3-2.6,12.1c-0.1,0.3-0.2,0.7-0.3,1c-4.5,0.9-8.8,2.6-12.7,4.9c-1.4,1-1.8,3-0.8,4.4c0.5,0.8,1.4,1.3,2.4,1.4
				c0.6,0,1.1-0.1,1.6-0.4c4.6-2.8,9.9-4.4,15.3-4.8h1.8c18.1-0.3,33,14.1,33.3,32.2c-0.3,18-15,32.5-33,32.5
				c-0.5,3.3-1,6.5-1.7,9.6h1.3c23.4,0.2,42.5-18.5,42.9-41.9C203,69.5,185.9,51.3,164,49.7z"/>
			<path id="path2723-8" class="st0" d="M101.6,201.6c-0.7,0-1.4-0.2-2.1-0.5c-2.1-1-51.9-26-51.9-96.4c0-2.3,1.7-4.3,4-4.7
				c19.2-3,34.9-10.1,46.8-21c1.8-1.7,4.6-1.7,6.4,0c11.9,10.9,27.6,18,46.7,21c2.4,0.4,4.1,2.4,4,4.8c0,70.3-49.8,95.3-51.9,96.4
				C103,201.5,102.3,201.7,101.6,201.6z M57.2,108.8c1.6,54.2,35.5,77.5,44.4,82.7c8.9-5.2,42.9-28.5,44.4-82.7
				c-16.2-2.8-31.5-9.6-44.4-19.8C88.7,99.2,73.4,106,57.2,108.8z"/>
			
				<rect id="rect2725-3" x="58" y="129.6" transform="matrix(0.6998 -0.7144 0.7144 0.6998 -64.3041 112.4516)" class="st0" width="87.3" height="6.3"/>
			<path id="path2727-3" class="st0" d="M101.6,183.6c-0.3,0-0.7-0.1-0.9-0.3c-5.1-3.6-9.8-7.9-13.9-12.6c-0.6-0.6-0.6-1.6,0-2.2
				c0.6-0.6,1.6-0.6,2.3,0c3.8,4.2,7.9,8,12.5,11.3c10.1-6.9,31.4-26.8,34.6-64.9c0.1-0.9,0.8-1.5,1.7-1.4l0,0
				c0.9,0.1,1.5,0.8,1.5,1.7l0,0c-3.5,40.6-26.9,61.2-36.9,68C102.2,183.4,101.9,183.5,101.6,183.6z"/>
		</g>
	</g>
</g>
</svg>
