<?xml version="1.0" encoding="iso-8859-1"?>
<!-- Generator: Adobe Illustrator 23.0.3, SVG Export Plug-In . SVG Version: 6.00 Build 0)  -->
<svg version="1.1"
	 id="svg59404" xmlns:cc="http://creativecommons.org/ns#" xmlns:dc="http://purl.org/dc/elements/1.1/" xmlns:rdf="http://www.w3.org/1999/02/22-rdf-syntax-ns#" xmlns:svg="http://www.w3.org/2000/svg"
	 xmlns="http://www.w3.org/2000/svg" xmlns:xlink="http://www.w3.org/1999/xlink" x="0px" y="0px" viewBox="0 0 79.3 52.3"
	 style="enable-background:new 0 0 79.3 52.3;" xml:space="preserve">
<style type="text/css">
	.st0{fill:#616161;}
</style>
<g id="layer1" transform="translate(649.7385,-373.95155)">
	<path id="path3746-1-1" class="st0" d="M-585.4,393.5c0.3-1.2,0.4-2.4,0.4-3.7c-0.1-8.8-7.4-15.9-16.2-15.8
		c-5.8,0-11.2,3.1-14.1,8.1c-0.9-0.1-1.8-0.2-2.7-0.2c-7.3,0-13.8,4.7-16.1,11.6c-9.1,0.4-16.1,8.1-15.7,17.1
		c0.4,8.9,7.9,15.9,16.8,15.7h46.1c9.1-0.1,16.4-7.5,16.3-16.6C-570.5,401.3-577,394.2-585.4,393.5L-585.4,393.5z M-586.8,422.5
		h-46.1c-7,0.2-12.9-5.2-13.1-12.3c-0.2-7,5.2-12.9,12.3-13.1c0.2,0,0.5,0,0.7,0c1.8,0,3.5,0.3,5.2,1c0.2,0.1,0.3,0.1,0.5,0.1
		c0.7,0,1.3-0.5,1.3-1.2c0-0.5-0.3-1-0.8-1.2c-1.2-0.5-2.4-0.8-3.6-1c1.7-5.5,6.8-9.3,12.6-9.3h0.3c3.2,0,6.4,1.2,8.8,3.3
		c0.2,0.2,0.5,0.3,0.8,0.3c0.4,0,0.7-0.2,1-0.4c0.4-0.5,0.4-1.3-0.1-1.7c0,0,0,0,0,0c-1.5-1.2-3.1-2.2-4.9-2.9c2.2-4,6.4-6.4,11-6.4
		c6.8-0.1,12.4,5.3,12.5,12.1c0,1.6-0.4,3.3-1,4.8c-0.1,0.1-0.1,0.3-0.1,0.4c-1.8,0.4-3.4,1-5,1.9c-0.6,0.4-0.8,1.1-0.4,1.7
		c0.2,0.4,0.6,0.6,1,0.6c0.2,0,0.4-0.1,0.6-0.2c1.8-1.1,3.9-1.7,6-1.9h0.7c7-0.3,13,5.1,13.3,12.2c0.3,7-5.1,13-12.2,13.3
		C-586.1,422.5-586.4,422.5-586.8,422.5L-586.8,422.5z"/>
</g>
</svg>
