<?xml version="1.0" encoding="iso-8859-1"?>
<!-- Generator: Adobe Illustrator 23.0.3, SVG Export Plug-In . SVG Version: 6.00 Build 0)  -->
<svg version="1.1"
	 id="svg72599" xmlns:cc="http://creativecommons.org/ns#" xmlns:dc="http://purl.org/dc/elements/1.1/" xmlns:rdf="http://www.w3.org/1999/02/22-rdf-syntax-ns#" xmlns:svg="http://www.w3.org/2000/svg"
	 xmlns="http://www.w3.org/2000/svg" xmlns:xlink="http://www.w3.org/1999/xlink" x="0px" y="0px" viewBox="0 0 65.2 52.3"
	 style="enable-background:new 0 0 65.2 52.3;" xml:space="preserve">
<style type="text/css">
	.st0{fill:#58595B;stroke:#58595B;stroke-width:0.25;}
</style>
<g id="layer1" transform="translate(689.59082,-42.844429)">
	<g id="Layer_2-15-8" transform="matrix(0.32015398,0,0,0.32015398,-689.59082,42.844753)">
		<g id="Layer_1-2-54-7">
			<path id="path3190-9" class="st0" d="M203.7,91.6c-0.3-22-17.3-40.2-39.3-41.8c0.7-3.1,1.1-6.2,1.1-9.4
				C165.3,17.8,146.7-0.3,124.1,0C109.2,0,95.5,7.8,88,20.7c-2.3-0.3-4.6-0.5-6.9-0.5C62.5,20.1,46,32,40.1,49.7
				C17.8,51,0.3,69.3,0,91.6c0.2,18.4,12.4,34.6,30,39.9c0-1-0.1-2-0.1-3c0-2.3,0.2-4.6,0.5-6.8c-12.4-4.8-20.7-16.7-20.8-30
				c0.3-18,15-32.4,33-32.4c4.6,0,9.1,0.9,13.4,2.7c1.6,0.8,3.5,0.1,4.3-1.4c0.8-1.6,0.1-3.5-1.4-4.3c-0.1-0.1-0.2-0.1-0.3-0.1
				c-3-1.3-6.1-2.3-9.3-2.8c4.3-14.1,17.4-23.7,32.1-23.7H82c8.3,0.1,16.4,3.1,22.7,8.5c0.6,0.5,1.3,0.8,2,0.8
				c1.8,0.1,3.2-1.3,3.3-3.1c0-1-0.4-2-1.2-2.6c-3.7-3.2-8-5.7-12.6-7.4c5.7-10.1,16.4-16.4,28.1-16.3c17.3-0.1,31.4,13.7,31.7,31
				c0,4.2-0.9,8.3-2.6,12.2c-0.1,0.3-0.2,0.7-0.3,1c-4.5,0.9-8.8,2.6-12.7,4.9c-1.5,0.9-2,2.9-1.1,4.4c0.6,1,1.6,1.5,2.7,1.5
				c0.6,0,1.1-0.2,1.6-0.5c4.7-2.8,9.9-4.4,15.3-4.8h1.8c18.1-0.3,33.1,14.1,33.4,32.2c-0.2,15-10.5,27.9-25,31.4
				c0.2,1.9,0.3,3.8,0.3,5.7c0,1.5,0,2.8-0.2,4.3C189.1,129.1,203.5,111.9,203.7,91.6z"/>
			<path id="path3192-0" class="st0" d="M130.4,93.5c-6.6,0-13.1,1.7-18.9,5c-4.3,2.8-8.2,6.2-11.7,9.9c-0.7-0.8-1.4-1.5-2.1-2.2
				c-2.2-2.3-4.6-4.4-7.2-6.2c-6.4-4.3-13.9-6.6-21.5-6.5c-14,0-35,9.4-35,35s21,34.9,35.2,34.9c7.5,0,14.9-2.3,21.1-6.5
				c2.6-1.8,5.1-3.9,7.3-6.2c0.7-0.7,1.4-1.4,2-2.2c7.5,9.3,18.8,14.8,30.7,14.9c14,0,34.9-9.3,34.9-34.9S144.3,93.5,130.4,93.5z
				 M130.4,108.9c-6.1-0.1-11.9,2.3-16.2,6.6l-0.8-4.3l-3.5-0.6c1.8-1.7,3.7-3.3,5.8-4.6c4.5-2.6,9.6-3.9,14.7-3.9
				c8.1,0,15.9,3.6,21.1,9.9l-0.8,3.8l-4.3,0.6C142.5,111.5,136.6,108.7,130.4,108.9L130.4,108.9z M130.4,139.5
				c-6,0-10.1-2.8-16.2-11.1c6.1-8.5,10.2-11.1,16.2-11.1c5.6-0.5,10.5,3.5,11.1,9.1c0.1,0.6,0.1,1.3,0,1.9
				C141.4,138,134.4,139.5,130.4,139.5L130.4,139.5z M91.6,112.2c0.9,1,1.9,2,2.8,3.1l0.5,0.5l-4.2,6.2c-2.4-3.3-5.2-6.3-8.5-8.7
				l0.6-4.1l4.3-0.7C88.6,109.5,90.1,110.8,91.6,112.2L91.6,112.2z M69.1,139.5c-5.6,0.5-10.5-3.6-11.1-9.1c-0.1-0.6-0.1-1.3,0-1.9
				c0-9.5,6.9-11,11.1-11.1c6,0,10.1,2.8,16.2,11.1C79.1,136.8,75,139.6,69.1,139.5L69.1,139.5z M85.7,107.1c0,0,0.1,0,0.2,0
				l-4.1,0.7l-0.6,4.4c-3.6-2.3-7.9-3.6-12.2-3.5l0,0c-7.2-0.2-13.9,3.6-17.4,9.9l-4.9,1l-1.5-3.4C49.9,107.5,59,102,69,102
				C74.9,102,80.7,103.8,85.7,107.1L85.7,107.1z M42.6,128.5c0-3.6,0.7-7.2,2-10.5l1.4,3.1l5-1c-1.1,2.7-1.6,5.6-1.6,8.5
				c-0.4,7.2,3.4,14,9.9,17.3l0.7,3.7l-4.1,2c-8.6-4.4-13.8-13.5-13.4-23.2L42.6,128.5z M85.6,149.9c-4.9,3.3-10.7,5-16.6,5
				c-4.1-0.1-8.2-1.1-11.9-2.8l4-1.8l-0.7-3.8c2.7,1.1,5.6,1.7,8.5,1.8c6.7,0.1,13.1-2.8,17.5-7.9l4.2,0.9l0.3,4.2
				C89.4,147,87.5,148.5,85.6,149.9z M103.7,128.4l-6.3,9.6l0,0l-3.3,4c-0.7,0.8-1.4,1.6-2.2,2.4l-0.3-4l-4.3-1
				c2.2-2.4,4.2-4.9,6-7.6l2.2-3.2l0,0l7.4-11.1c1.2-1.4,3.4-3.7,5.9-6l3.5,0.5l0.8,4.4c-2.6,2.7-5,5.6-7.1,8.7L103.7,128.4
				L103.7,128.4z M107.4,144.3c-1-1-1.9-2-2.8-3.1l4-5.9c1.1,1.5,2.3,2.8,3.4,4l-3.9,0.8L107.4,144.3z M108.1,145.2l0.7-4.2l3.9-0.8
				c4.5,5.1,10.9,7.9,17.7,7.8c3.8,0,7.6-1.1,10.9-3l-0.5,4.1l4.2,1.5c-4.4,2.7-9.5,4.2-14.6,4.3c-8.4,0-16.4-3.5-22.1-9.6H108.1z
				 M145.8,149.9l-4.1-1.5l0.5-4.1c5-3.6,7.8-9.6,7.5-15.8c0.1-3.9-1-7.8-3.1-11.2l4.6-0.6l0.9-3.3c3.1,4.5,4.6,9.8,4.5,15.3
				c0.3,8.4-3.7,16.5-10.6,21.3H145.8z"/>
		</g>
	</g>
</g>
</svg>
