<?xml version="1.0" encoding="utf-8"?>
<!-- Generator: Adobe Illustrator 23.0.3, SVG Export Plug-In . SVG Version: 6.00 Build 0)  -->
<svg version="1.1" id="Layer_1" xmlns:se="http://svg-edit.googlecode.com" xmlns:svg="http://www.w3.org/2000/svg"
	 xmlns="http://www.w3.org/2000/svg" xmlns:xlink="http://www.w3.org/1999/xlink" x="0px" y="0px" viewBox="0 0 612 792"
	 style="enable-background:new 0 0 612 792;" xml:space="preserve">
<style type="text/css">
	.st0{fill:#58595B;}
	.st1{fill:none;}
	.st2{fill:none;stroke:#58595B;stroke-width:0;stroke-linecap:round;stroke-linejoin:round;}
</style>
<g id="layer1" transform="translate(353.33434,-289.28491)">
	<g id="Layer_2-618-3" transform="matrix(0.26149665,0,0,0.26149665,-353.33434,289.28509)">
		<g id="Layer_1-2-79-8">
			<path id="path2850-0" class="st0" d="M1873.4,946.4c7.9-35,12.4-70,12.4-105c-3.4-255.2-211.2-458.4-466.3-456.2
				c-167.1,0-321.8,88.1-406.5,233.7c-234.9-38.4-464.1,100.5-539.7,326.3c-250.7,14.7-448.3,221.3-451.7,472
				c2.3,239.4,181.8,439.2,418.9,468.6c4.5-36.1,11.3-71.1,21.5-106.1c-187.4-19.2-329.7-175-333.1-362.5
				c3.4-203.2,169.4-365.8,372.6-365.8c51.9,1.1,102.8,11.3,150.2,31.6c18.1,7.9,39.5-1.1,47.4-19.2s-1.1-39.5-19.2-47.4
				c-33.9-13.5-68.9-23.7-105-30.5c48.6-159.2,195.3-267.6,362.5-266.5h9c93.7,1.1,182.9,33.9,254.1,94.8c6.8,5.6,14.7,9,22.6,9
				c10.2,0,20.3-4.5,27.1-12.4c12.4-14.7,11.3-37.3-4.5-50.8l0,0c-41.8-36.1-90.3-63.2-142.3-82.4c64.4-114,185.2-185.2,316.2-184.1
				c195.3-2.3,355.7,153.6,357.9,347.8c0,47.4-10.2,93.7-29.4,136.6c-1.1,3.4-2.3,7.9-3.4,11.3c-50.8,10.2-99.4,29.4-143.4,55.3
				c-15.8,11.3-20.3,33.9-9,49.7c5.6,9,15.8,14.7,27.1,15.8c6.8,0,12.4-1.1,18.1-4.5c51.9-31.6,111.8-49.7,172.8-54.2h20.3
				c204.4-3.4,372.6,159.2,376,363.6c-2.3,188.6-145.7,344.4-333.1,364.7c10.2,35,16.9,70,21.5,106.1
				c258.6-29.4,446-263.1,416.7-521.7C2287.8,1137.2,2102.6,959.9,1873.4,946.4z"/>
			<g>
				<path class="st1" d="M797.2,1945.7c1.3-88.2,15.8-175.3,42.4-259.2c-51.5-10.4-90.1-23.1-116.1-38.3
					c-62.7,83.9-102.2,186.2-109.1,297.5H797.2z"/>
				<path class="st1" d="M1464.5,1693.3c-95,15.7-201.7,19.7-261.8,20.6v231.8h302C1501.9,1859,1488.7,1771.6,1464.5,1693.3z"/>
				<path class="st1" d="M1130.4,1945.7v-231.5c-86.2-1-172.3-8.3-257.1-21.9c-24.4,78.6-37.8,166.4-40.5,253.4H1130.4z"/>
				<path class="st1" d="M1202.7,1679c98-1.4,183-8.9,250.3-19.9c-36.4-100-92.4-181.5-169.3-222c-26.4-5.5-53.4-9.2-81-10.8V1679z"
					/>
				<path class="st1" d="M798,2018H614.5c7.2,108.9,45.6,209.1,106.5,291.8c28.5-17.4,69.8-30.3,116.2-40
					C813.8,2190.8,800.9,2104.1,798,2018z"/>
				<path class="st1" d="M1540.8,2018c-2.8,85.9-15.7,172.3-39.1,251c46.3,9.5,87.5,22.3,115.9,39.5
					c60.3-82.5,98.3-182.2,105.5-290.4H1540.8z"/>
				<path class="st1" d="M1451.9,2297.8c-82.8-12.5-165.7-19.4-249.2-20.1v257.5c25.7-1.5,50.9-4.8,75.5-9.7
					c65.7-34.1,111.2-95.1,140.1-148.4C1430.9,2351.2,1442.1,2324.7,1451.9,2297.8z"/>
				<path class="st1" d="M1130.4,2278c-96.7,1.6-180.6,9-247,19.8c37.1,103.3,95,187.4,175.2,227.5c23.4,4.7,47.4,7.9,71.8,9.6V2278
					z"/>
				<path class="st1" d="M1130.4,1678.9v-252.4c-26.7,1.8-52.9,5.5-78.4,11c-75.8,41.2-131.2,122.4-167.4,221.5
					C950.8,1669.9,1034.3,1677.3,1130.4,1678.9z"/>
				<path class="st1" d="M1490.3,2304.1c-26.2,74.9-62.7,141-110,190.6c83.5-34.3,156.7-88.4,213.9-156.4
					C1573.8,2326.8,1540.5,2314.7,1490.3,2304.1z"/>
				<path class="st1" d="M1130.4,2018H833c3,84.2,15.8,169,39,245.3c92.7-15.6,196.9-20.1,258.4-21.3V2018z"/>
				<path class="st1" d="M851,1652.9c10.7-29.7,22.9-59,36.6-87.8c20.3-38.3,43.4-71,68.7-98c-81.9,33.9-154,86.8-210.6,153.2
					C768.3,1632.3,804.1,1643.5,851,1652.9z"/>
				<path class="st1" d="M848.3,2304.2c-47.5,9.6-83.4,21.1-105.6,33.3c57.4,68.5,131.1,123,215.1,157.4
					C910.7,2445.2,874.4,2379.1,848.3,2304.2z"/>
				<path class="st1" d="M1202.7,2018v223.8c59.6,0.9,166.4,4.8,261.5,20.3c25.1-78.9,38.7-161.3,40.9-244.1H1202.7z"/>
				<path class="st1" d="M1500,1686.7c24.6,80.9,38,170.3,40.8,259h182.4c-6.9-111.1-46.3-213.4-109-297.3
					C1585.6,1665,1545.2,1677.4,1500,1686.7z"/>
				<path class="st1" d="M1488.7,1652.5c45.6-9.3,80.6-20.3,103.3-31.9c-56.6-66.5-128.6-119.4-210.5-153.3
					C1427.4,1515.8,1462.9,1579.9,1488.7,1652.5z"/>
				<path class="st0" d="M1167.7,1316.7c-365.8,0-662.8,297-662.8,663.9c0,365.8,297,662.8,663.9,662.8
					c365.8,0,662.8-297,662.8-662.8c0-1.1,0-1.1,0-1.1C1831.6,1613.7,1534.7,1316.7,1167.7,1316.7z M1617.6,2308.4
					c-28.4-17.2-69.6-30-115.9-39.5c23.4-78.6,36.3-165,39.1-251h182.3C1715.9,2126.2,1677.9,2225.9,1617.6,2308.4z M1278.2,2525.5
					c-24.6,4.9-49.8,8.2-75.5,9.7v-257.5c83.5,0.8,166.4,7.7,249.2,20.1c-9.9,26.9-21,53.4-33.6,79.2
					C1389.4,2430.4,1343.9,2491.4,1278.2,2525.5z M883.4,2297.8c66.4-10.9,150.2-18.3,247-19.8v256.9c-24.4-1.7-48.3-4.9-71.8-9.6
					C978.4,2485.2,920.6,2401.1,883.4,2297.8z M614.5,2018H798c2.9,86.2,15.8,172.9,39.3,251.8c-46.4,9.7-87.7,22.6-116.2,40
					C660.2,2227.1,621.7,2126.8,614.5,2018z M723.5,1648.2c26,15.2,64.6,27.9,116.1,38.3c-26.6,83.8-41.1,170.9-42.4,259.2H614.4
					C621.3,1834.5,660.8,1732.1,723.5,1648.2z M1052,1437.5c25.5-5.5,51.7-9.2,78.4-11v252.4c-96.1-1.6-179.6-9-245.8-19.9
					C920.8,1559.8,976.2,1478.6,1052,1437.5z M1453,1659c-67.3,11.1-152.3,18.6-250.3,19.9v-252.8c27.6,1.7,54.6,5.3,81,10.8
					C1360.6,1477.5,1416.6,1559,1453,1659z M1202.7,1713.9c60.1-1,166.8-5,261.8-20.6c24.2,78.3,37.4,165.7,40.2,252.4h-302V1713.9z
					 M1130.4,1714.2v231.5H832.9c2.7-87,16-174.7,40.5-253.4C958.2,1705.9,1044.2,1713.2,1130.4,1714.2z M833,2018h297.4v224
					c-61.5,1.2-165.7,5.8-258.4,21.3C848.8,2186.9,836,2102.2,833,2018z M1202.7,2241.8V2018H1505c-2.1,82.8-15.8,165.2-40.9,244.1
					C1369,2246.6,1262.3,2242.7,1202.7,2241.8z M1540.8,1945.7c-2.8-88.7-16.2-178-40.8-259c45.2-9.3,85.6-21.7,114.2-38.3
					c62.6,83.9,102.1,186.1,109,297.3H1540.8z M1592,1620.6c-22.6,11.7-57.7,22.7-103.3,31.9c-25.8-72.6-61.3-136.7-107.2-185.2
					C1463.5,1501.2,1535.4,1554.1,1592,1620.6z M956.4,1467.2c-25.4,27-48.4,59.7-68.7,98c-13.7,28.7-25.9,58-36.6,87.8
					c-46.9-9.4-82.7-20.6-105.3-32.5C802.4,1553.9,874.4,1501,956.4,1467.2z M742.7,2337.4c22.2-12.2,58.1-23.7,105.6-33.3
					c26.1,74.9,62.4,141.1,109.6,190.7C873.8,2460.4,800.2,2406,742.7,2337.4z M1380.3,2494.6c47.3-49.6,83.8-115.7,110-190.6
					c50.1,10.6,83.5,22.8,103.9,34.2C1537,2406.2,1463.8,2460.3,1380.3,2494.6z M1638.5,2383.8c0.3,0,0.4,0,0.5,0
					C1639,2383.8,1638.8,2383.8,1638.5,2383.8z"/>
				<path class="st2" d="M1639,2383.8c-0.1,0-0.2,0-0.5,0"/>
			</g>
		</g>
	</g>
</g>
</svg>
