<?xml version="1.0" encoding="iso-8859-1"?>
<!-- Generator: Adobe Illustrator 23.0.3, SVG Export Plug-In . SVG Version: 6.00 Build 0)  -->
<!-- <svg version="1.1"
	 id="svg183116" xmlns:cc="http://creativecommons.org/ns#" xmlns:dc="http://purl.org/dc/elements/1.1/" xmlns:rdf="http://www.w3.org/1999/02/22-rdf-syntax-ns#" xmlns:svg="http://www.w3.org/2000/svg"
	 xmlns="http://www.w3.org/2000/svg" xmlns:xlink="http://www.w3.org/1999/xlink" x="0px" y="0px" viewBox="0 0 50.1 52.3"
	 style="enable-background:new 0 0 50.1 52.3;" xml:space="preserve"> -->

<svg width="100%" height="100%" viewBox="0 0 50.1 52.3" xmlns="http://www.w3.org/2000/svg" xmlns:svg="http://www.w3.org/2000/svg" xmlns:se="http://svg-edit.googlecode.com" data-name="Layer 1">

<style type="text/css">
	.st0{fill:#58595B;stroke:none;stroke-width:2;}
</style>
<g id="layer1" transform="translate(-393.32102,-50.403952)">
	<g id="Layer_2-49" transform="matrix(0.21583542,0,0,0.21583653,393.42102,50.5044)">
		<g id="Layer_1-2-81">
			<path id="path8619" class="st0" d="M49.3,133.6c-20.8,0-40.4-18-40.4-36.9s19.4-36.4,39.9-36.6c5.2,0,10.3,3.7,15.1,5.7
				c0.4,0.2,0.9,0.3,1.4,0.3c1.4,0,2.7-0.8,3.3-2c0.7-1.7,0-3.6-1.7-4.3c-0.1,0-0.1-0.1-0.2-0.1c-3.4-1.3-9.7-5-13.3-5.7
				c4.5-14.5,22.1-24.8,39-24.8h0.9c9.3,0,18.3,5.9,25.5,11.5c0.7,0.5,1.5,0.8,2.3,0.8c1.1,0,2.1-0.4,2.8-1.2
				c1.2-1.3,1.1-3.3-0.1-4.4c-0.1-0.1-0.2-0.2-0.3-0.2c-5.1-4.3-10.9-7.8-17-10.5c6.2-10.5,21.1-17,34.4-17
				c19.7-0.1,38.6,17.2,38.6,35.2c0,3.5-1,7-2.8,10c-0.1,0.3-3,0.7-3.1,1c-5,1-9.9,5.4-14.3,7.9c-1.6,0.8-2.2,2.7-1.4,4.3
				c0,0.1,0.1,0.2,0.1,0.3c0.7,1,1.9,1.6,3.1,1.6c0.6,0,1.3-0.2,1.8-0.5c5.2-2.8,11.1-7.3,17.2-7.7h4.8c20.8,0,37.7,17.8,37.7,36.6
				s-19.6,36.9-40.4,36.9v7.3c26.7,0,48.4-19.8,48.4-44c0-23-19.5-42-44.3-43.9c0.8-3.2,1.2-6.5,1.1-9.8c0-23.5-20.9-42.5-46.6-42.5
				c-16.4-0.3-31.8,7.9-40.7,21.7c-2.6-0.4-5.1-0.6-7.7-0.6c-21.3,0-40.1,12.9-46.1,31C20.9,54.5,0.9,73.6,0.9,96.9
				c0,24.3,21.7,44,48.4,44V133.6z"/>
			<path id="path8621" class="st0" d="M116.6,93c-30.1,0-60.5,7.1-60.5,20.6v25.3l1.6-1.3c1.6-1.4,3.6-2.2,5.7-2.2v-11.5
				c10.9,6.8,32.2,10.2,53.3,10.2s42.5-3.5,53.3-10.3V144c-4.9,5.7-24.2,11.9-53.3,11.9c-3.1,0-6.1,0-8.9-0.2c1,1.4,1.6,3.1,1.6,4.9
				c2.4,0,4.8,0.2,7.3,0.2c21,0,42.9-3.6,53.3-10.5v6c-4.9,5.7-24.2,11.9-53.3,11.9c-2.6,0-5.1,0-7.5-0.1c0,1.6-0.3,3.2-0.4,4.8
				c2.6,0,5.3,0.2,7.9,0.2c21,0,42.9-3.6,53.3-10.5v20.4c-4.9,5.7-24.2,11.8-53.3,11.8c-4.5,0-8.8-0.1-12.8-0.4
				c-0.6,1.6-1.2,3.2-1.8,4.7c4.8,0.4,9.7,0.6,14.6,0.6c21,0,42.9-3.6,53.3-10.5v5.9c-4.9,5.7-24.2,11.8-53.3,11.8
				c-6,0-11.9-0.3-17.9-0.9c-0.9,1.6-1.7,3.1-2.6,4.6c6.8,0.8,13.6,1.1,20.5,1.1c21,0,42.9-3.6,53.3-10.5v18.9
				c0,1.5-2.8,5.2-14.2,8.5c-12.8,3.4-26,5-39.2,4.8c-12.2,0.2-24.4-1.2-36.3-4.1c-2.2,2-4.6,3.8-7.1,5.5c14.1,4.1,28.7,6,43.4,5.7
				c30.1,0,60.5-7.1,60.5-20.6V113.6C177.1,100.1,146.7,93,116.6,93z M155.8,122.1c-12.8,3.4-26,5-39.2,4.8
				c-34.5,0-53.3-8.8-53.3-13.3c0-1.5,2.8-5.2,14.2-8.5c12.8-3.4,26-5,39.2-4.8c34.4,0,53.3,8.8,53.3,13.3
				C169.9,115.1,166.9,118.8,155.8,122.1z"/>
			<path id="path8623" class="st0" d="M63.4,234.7c-0.5,0-1.1-0.1-1.6-0.4c-1.6-0.8-39.7-19.8-39.7-73.5c0-1.8,1.3-3.4,3.1-3.6
				c13.2-1.7,25.6-7.3,35.7-16c1.4-1.3,3.5-1.3,4.9,0c10,8.8,22.4,14.4,35.7,16c1.8,0.3,3.1,1.8,3.1,3.6c0,53.6-38,72.7-39.7,73.5
				C64.4,234.5,63.9,234.6,63.4,234.7z M29.3,163.8c1.2,41.3,27,59.1,34,63c6.8-4,32.6-21.7,33.8-63c-12.4-2.1-24-7.3-33.8-15.2
				c-9.8,7.8-21.5,13.1-33.9,15.2L29.3,163.8z"/>
			<path id="path8625" class="st0" d="M154.5,141.8c-1.1,0-2.1-0.7-2.3-1.8c-0.3-1.3,0.5-2.5,1.8-2.8c3.2-0.8,6.2-1.8,9.2-3.2
				c1.1-0.8,2.6-0.6,3.4,0.5c0.8,1.1,0.6,2.6-0.5,3.4c-0.2,0.2-0.5,0.3-0.8,0.4c-3.3,1.5-6.7,2.7-10.2,3.6L154.5,141.8z"/>
			<path id="path8627" class="st0" d="M154.5,180.6c-1.3,0-2.4-1-2.5-2.4c0-1.1,0.8-2.2,1.9-2.4c3.2-0.8,6.2-1.8,9.2-3.2
				c1.2-0.7,2.7-0.2,3.3,0.9c0.7,1.2,0.2,2.7-0.9,3.3c-0.1,0-0.2,0.1-0.2,0.1c-3.3,1.5-6.7,2.7-10.2,3.5L154.5,180.6z"/>
			<path id="path8629" class="st0" d="M154.5,219.3c-1.1,0-2.1-0.7-2.3-1.8c-0.3-1.3,0.5-2.5,1.8-2.8c3.2-0.8,6.2-1.8,9.2-3.2
				c1.1-0.8,2.6-0.6,3.4,0.5c0.8,1.1,0.6,2.6-0.5,3.4c-0.2,0.2-0.5,0.3-0.8,0.4c-3.3,1.5-6.7,2.7-10.2,3.6
				C154.9,219.3,154.7,219.3,154.5,219.3z"/>
		</g>
	</g>
</g>
</svg>
