<?xml version="1.0" encoding="utf-8"?>
<!-- Generator: Adobe Illustrator 23.0.3, SVG Export Plug-In . SVG Version: 6.00 Build 0)  -->
<!-- <svg version="1.1"
	 id="svg169349" xmlns:cc="http://creativecommons.org/ns#" xmlns:dc="http://purl.org/dc/elements/1.1/" xmlns:rdf="http://www.w3.org/1999/02/22-rdf-syntax-ns#" xmlns:svg="http://www.w3.org/2000/svg"
	 xmlns="http://www.w3.org/2000/svg" xmlns:xlink="http://www.w3.org/1999/xlink" x="0px" y="0px" viewBox="0 0 53.1 52.3"
	 style="enable-background:new 0 0 53.1 52.3;" xml:space="preserve"> -->

<svg width="100%" height="100%" viewBox="-0.5 -0.5 54.1 53.3" xmlns="http://www.w3.org/2000/svg" xmlns:svg="http://www.w3.org/2000/svg" xmlns:se="http://svg-edit.googlecode.com" data-name="Layer 1">

<style type="text/css">
	.st0{fill:#58595B;stroke:none;stroke-width:2;}
</style>
<g id="layer1" transform="translate(-273.35284,-45.868238)">
	<g id="Layer_2-29-8" transform="matrix(0.26149666,0,0,0.26149666,273.35284,45.868419)">
		<g id="Layer_1-2-12-8">
			<path id="path2689-9" class="st0" d="M164,49.7c0.7-3.1,1.1-6.2,1.1-9.3C164.8,17.8,146.4-0.2,123.8,0c-14.8,0-28.5,7.8-36,20.7
				C67,17.3,46.7,29.6,40,49.6C17.8,50.9,0.3,69.2,0,91.4c0.3,23.4,19.5,42.1,42.9,41.9H57c2-1.3,4.3-2.2,6.6-2.8v-6.7H42.9
				c-18.1,0.2-33-14.3-33.3-32.4c0.3-18,15-32.4,33-32.4c4.6,0.1,9.1,1,13.3,2.8c1.6,0.7,3.5-0.1,4.2-1.7c0.7-1.6-0.1-3.5-1.7-4.2
				c-3-1.2-6.1-2.1-9.3-2.7c4.3-14.1,17.3-23.7,32.1-23.6H82c8.3,0.1,16.2,3,22.5,8.4c0.6,0.5,1.3,0.8,2,0.8c0.9,0,1.8-0.4,2.4-1.1
				c1.1-1.3,1-3.3-0.4-4.5l0,0c-3.7-3.2-8-5.6-12.6-7.3c5.7-10.1,16.4-16.4,28-16.3c17.3-0.2,31.5,13.6,31.7,30.8
				c0,4.2-0.9,8.3-2.6,12.1c-0.1,0.3-0.2,0.7-0.3,1c-4.5,0.9-8.8,2.6-12.7,4.9c-1.4,1-1.8,3-0.8,4.4c0.5,0.8,1.4,1.3,2.4,1.4
				c0.6,0,1.1-0.1,1.6-0.4c4.6-2.8,9.9-4.4,15.3-4.8h1.8c18.1-0.3,33,14.1,33.3,32.2c-0.3,18.2-15.2,32.7-33.3,32.5h-20.6v6.5
				c2.6,0.3,5,1.3,7.1,2.8h13.5c23.3,0.2,42.5-18.5,42.9-41.8C203,69.5,185.9,51.3,164,49.7z"/>
			<path id="path2691-2" class="st0" d="M147.7,188.9c0,6.1-5,11.1-11.1,11.1H66.7c-6.1,0-11.1-5-11.1-11.1v-41.3
				c0-6.1,5-11.1,11.1-11.1l0,0h69.9c6.1,0,11.1,5,11.1,11.1L147.7,188.9z M138.1,147.7c0-0.9-0.7-1.6-1.6-1.6l0,0H66.7
				c-0.9,0-1.6,0.7-1.6,1.6l0,0V189c0,0.9,0.7,1.6,1.6,1.6h69.9c0.9,0,1.6-0.7,1.6-1.6v-41.3H138.1z"/>
			<path id="path2693-8" class="st0" d="M133.4,141.3h-9.5V119c0-14-10-25.5-22.2-25.5S79.4,105,79.4,119v22.2h-9.5V119
				c0-19.3,14.2-35,31.8-35s31.7,15.7,31.7,35V141.3z"/>
			<circle id="circle2695-8" class="st0" cx="101.8" cy="163.5" r="9.5"/>
			<path id="path2697-8" class="st0" d="M101.6,184.3c-1.8,0-3.2-1.4-3.2-3.2v-14.2c0-1.8,1.4-3.2,3.2-3.2c1.8,0,3.2,1.4,3.2,3.2
				v14.2C104.8,182.8,103.4,184.3,101.6,184.3L101.6,184.3z"/>
		</g>
	</g>
</g>
</svg>
