<?xml version="1.0" encoding="iso-8859-1"?>
<!-- Generator: Adobe Illustrator 23.0.3, SVG Export Plug-In . SVG Version: 6.00 Build 0)  -->
<svg version="1.1"
	 id="svg280553" xmlns:cc="http://creativecommons.org/ns#" xmlns:dc="http://purl.org/dc/elements/1.1/" xmlns:rdf="http://www.w3.org/1999/02/22-rdf-syntax-ns#" xmlns:svg="http://www.w3.org/2000/svg"
	 xmlns="http://www.w3.org/2000/svg" xmlns:xlink="http://www.w3.org/1999/xlink" x="0px" y="0px" viewBox="0 0 55.8 52.3"
	 style="enable-background:new 0 0 55.8 52.3;" xml:space="preserve">
<style type="text/css">
	.st0{fill:#58595B;stroke:#58595B;stroke-width:0.25;}
</style>
<g id="layer1" transform="translate(33.654098,-139.60633)">
	<g id="Layer_2-67-2" transform="matrix(0.26750743,0,0,0.26750743,-33.654098,139.60633)">
		<g id="Layer_1-2-365-9">
			<path id="path5400-4" class="st0" d="M197.2,0H11.3C5.1,0,0,5.1,0,11.3v133.7c0,6.3,5.1,11.3,11.3,11.3h72.8l-3.7,29.3h-25
				c-2.7-0.2-5.1,1.8-5.3,4.5c-0.2,2.7,1.8,5.1,4.5,5.3c0.2,0,0.5,0,0.7,0h97.8c2.7-0.2,4.7-2.6,4.5-5.3c-0.2-2.4-2.1-4.3-4.5-4.5
				h-25l-3.7-29.3h72.7c6.3,0,11.3-5.1,11.3-11.3V11.3C208.6,5.1,203.5,0,197.2,0z M11.3,9.8h185.9c0.9,0,1.6,0.7,1.6,1.6V132H9.8
				V11.3C9.8,10.5,10.5,9.8,11.3,9.8z M121.6,185.8H87l3.7-29.3H118L121.6,185.8z M197.2,146.7H11.3c-0.9,0-1.6-0.7-1.6-1.6v-9.8
				h189.1v9.8C198.8,145.9,198.1,146.6,197.2,146.7z"/>
			<path id="path5402-3" class="st0" d="M112.5,140.2H96.2c-0.9,0.1-1.5,0.9-1.4,1.8c0.1,0.7,0.7,1.3,1.4,1.4h16.3
				c0.9,0.1,1.7-0.5,1.8-1.4c0.1-0.9-0.5-1.7-1.4-1.8C112.7,140.2,112.6,140.2,112.5,140.2z"/>
			<polygon id="polygon5404-5" class="st0" points="108.2,63.1 127.3,32.7 94.8,32.7 81.4,72.7 102.6,72.7 93.7,109.1 127.3,63.1 
							"/>
			<path id="path5406-1" class="st0" d="M58.7,89.9c-0.9,0-1.7-0.3-2.4-0.8l-20.1-15c-1-0.8-1.6-2-1.6-3.2c0-1.2,0.6-2.4,1.6-3.1
				l20.1-15c1.7-1.3,4.2-1,5.5,0.8c1.3,1.7,1,4.2-0.7,5.5c0,0,0,0-0.1,0L45.4,70.9l15.8,11.9c1.8,1.3,2.1,3.8,0.8,5.5
				C61.3,89.3,60.1,89.9,58.7,89.9L58.7,89.9z"/>
			<path id="path5408-7" class="st0" d="M149.9,89.9c-1.2,0-2.4-0.6-3.1-1.6c-1.3-1.7-1-4.2,0.7-5.5l16-11.9l-16-11.8
				c-1.7-1.3-2.1-3.8-0.8-5.5c1.3-1.7,3.8-2.1,5.5-0.8l20.1,15c1,0.7,1.6,1.9,1.6,3.1c0,1.2-0.6,2.4-1.6,3.2l-20.1,15
				C151.6,89.6,150.7,89.9,149.9,89.9z"/>
		</g>
	</g>
</g>
</svg>
