<?xml version="1.0" encoding="iso-8859-1"?>
<!-- Generator: Adobe Illustrator 23.0.3, SVG Export Plug-In . SVG Version: 6.00 Build 0)  -->
<!-- <svg version="1.1"
	 id="svg287544" xmlns:cc="http://creativecommons.org/ns#" xmlns:dc="http://purl.org/dc/elements/1.1/" xmlns:rdf="http://www.w3.org/1999/02/22-rdf-syntax-ns#" xmlns:svg="http://www.w3.org/2000/svg"
	 xmlns="http://www.w3.org/2000/svg" xmlns:xlink="http://www.w3.org/1999/xlink" x="0px" y="0px" viewBox="0 0 85.7 52.3"
	 style="enable-background:new 0 0 85.7 52.3;" xml:space="preserve"> -->

<svg width="100%" height="100%" viewBox="0 -0.5 85.7 53.3" xmlns="http://www.w3.org/2000/svg" xmlns:svg="http://www.w3.org/2000/svg" xmlns:se="http://svg-edit.googlecode.com" data-name="Layer 1">
	 	 	 
<style type="text/css">
	.st0{fill:#878589;}
	.st1{fill:#58595B;stroke:none;stroke-width:2;}
</style>
<g id="layer1" transform="translate(38.931804,-139.60633)">
	<g id="Layer_2-94-9" transform="matrix(0.28834374,0,0,0.28834374,-38.931804,139.60633)">
		<g id="Layer_1-2-90-4">
			<rect id="rect11308-5" x="135.9" y="128" class="st0" width="2.8" height="41.3"/>
			<rect id="rect11310-9" x="151" y="128" class="st0" width="2.8" height="41.3"/>
			<rect id="rect11312-3" x="143.5" y="128" class="st0" width="2.8" height="41.3"/>
			<rect id="rect11314-5" x="158.5" y="128" class="st0" width="2.8" height="41.3"/>
			<rect id="rect11316-7" x="78.8" y="70.8" class="st0" width="2.8" height="41.3"/>
			<rect id="rect11318-0" x="166" y="128" class="st0" width="2.7" height="41.3"/>
			<rect id="rect11320-8" x="86.3" y="70.8" class="st0" width="2.8" height="41.3"/>
			<rect id="rect11322-1" x="71.4" y="70.8" class="st0" width="2.7" height="41.3"/>
			<rect id="rect11324-9" x="143.5" y="70.8" class="st0" width="2.8" height="41.3"/>
			<rect id="rect11326-9" x="135.9" y="70.8" class="st0" width="2.8" height="41.3"/>
			<rect id="rect11328-7" x="151" y="70.8" class="st0" width="2.8" height="41.3"/>
			<rect id="rect11330-8" x="158.5" y="70.8" class="st0" width="2.8" height="41.3"/>
			<rect id="rect11332-2" x="166" y="70.8" class="st0" width="2.7" height="41.3"/>
			<rect id="rect11334-5" x="128.6" y="128" class="st0" width="2.7" height="41.3"/>
			<rect id="rect11336-3" x="93.8" y="70.8" class="st0" width="2.8" height="41.3"/>
			<rect id="rect11338-4" x="21.6" y="128" class="st0" width="2.8" height="41.3"/>
			<rect id="rect11340-9" x="14.2" y="128" class="st0" width="2.7" height="41.3"/>
			<rect id="rect11342-0" x="29.1" y="128" class="st0" width="2.8" height="41.3"/>
			<rect id="rect11344-2" x="108.8" y="128" class="st0" width="2.7" height="41.3"/>
			<rect id="rect11346-0" x="36.6" y="128" class="st0" width="2.8" height="41.3"/>
			<rect id="rect11348-1" x="51.6" y="128" class="st0" width="2.7" height="41.3"/>
			<rect id="rect11350-9" x="44.1" y="128" class="st0" width="2.8" height="41.3"/>
			<rect id="rect11352-6" x="93.8" y="128" class="st0" width="2.8" height="41.3"/>
			<rect id="rect11354-2" x="108.8" y="70.8" class="st0" width="2.7" height="41.3"/>
			<rect id="rect11356-1" x="101.3" y="70.8" class="st0" width="2.8" height="41.3"/>
			<rect id="rect11358-2" x="71.4" y="128" class="st0" width="2.7" height="41.3"/>
			<rect id="rect11360-0" x="128.6" y="70.8" class="st0" width="2.7" height="41.3"/>
			<rect id="rect11362-7" x="101.3" y="128" class="st0" width="2.8" height="41.3"/>
			<rect id="rect11364-3" x="86.3" y="128" class="st0" width="2.8" height="41.3"/>
			<rect id="rect11366-1" x="78.8" y="128" class="st0" width="2.8" height="41.3"/>
			<rect id="rect11368-1" x="215.6" y="128" class="st0" width="2.8" height="41.3"/>
			<rect id="rect11370-9" x="193.1" y="13.7" class="st0" width="2.8" height="41.3"/>
			<rect id="rect11372-0" x="280.3" y="128" class="st0" width="2.7" height="41.3"/>
			<rect id="rect11374-5" x="200.6" y="13.7" class="st0" width="2.8" height="41.3"/>
			<rect id="rect11376-6" x="185.8" y="13.7" class="st0" width="2.7" height="41.3"/>
			<rect id="rect11378-7" x="208.1" y="13.7" class="st0" width="2.8" height="41.3"/>
			<rect id="rect11380-7" x="215.6" y="13.7" class="st0" width="2.8" height="41.3"/>
			<rect id="rect11382-4" x="257.8" y="128" class="st0" width="2.8" height="41.3"/>
			<rect id="rect11384-0" x="242.9" y="128" class="st0" width="2.7" height="41.3"/>
			<rect id="rect11386-6" x="250.3" y="128" class="st0" width="2.8" height="41.3"/>
			<rect id="rect11388-4" x="272.8" y="128" class="st0" width="2.8" height="41.3"/>
			<rect id="rect11390-7" x="265.3" y="128" class="st0" width="2.8" height="41.3"/>
			<rect id="rect11392-4" x="223.1" y="13.7" class="st0" width="2.7" height="41.3"/>
			<rect id="rect11394-8" x="185.8" y="70.8" class="st0" width="2.7" height="41.3"/>
			<rect id="rect11396-5" x="193.1" y="128" class="st0" width="2.8" height="41.3"/>
			<rect id="rect11398-8" x="185.8" y="128" class="st0" width="2.7" height="41.3"/>
			<rect id="rect11400-2" x="223.1" y="70.8" class="st0" width="2.7" height="41.3"/>
			<rect id="rect11402-6" x="215.6" y="70.8" class="st0" width="2.8" height="41.3"/>
			<rect id="rect11404-0" x="200.6" y="128" class="st0" width="2.8" height="41.3"/>
			<rect id="rect11406-6" x="223.1" y="128" class="st0" width="2.7" height="41.3"/>
			<rect id="rect11408-6" x="208.1" y="128" class="st0" width="2.8" height="41.3"/>
			<rect id="rect11410-4" x="208.1" y="70.8" class="st0" width="2.8" height="41.3"/>
			<rect id="rect11412-6" x="193.1" y="70.8" class="st0" width="2.8" height="41.3"/>
			<rect id="rect11414-2" x="200.6" y="70.8" class="st0" width="2.8" height="41.3"/>
			<rect id="rect11416-8" x="151" y="128" class="st0" width="2.8" height="41.3"/>
			<rect id="rect11418-9" x="158.5" y="128" class="st0" width="2.8" height="41.3"/>
			<rect id="rect11420-6" x="143.5" y="128" class="st0" width="2.8" height="41.3"/>
			<rect id="rect11422-0" x="71.4" y="70.8" class="st0" width="2.7" height="41.3"/>
			<rect id="rect11424-7" x="78.8" y="70.8" class="st0" width="2.8" height="41.3"/>
			<rect id="rect11426-0" x="135.9" y="128" class="st0" width="2.8" height="41.3"/>
			<rect id="rect11428-1" x="51.6" y="128" class="st0" width="2.7" height="41.3"/>
			<rect id="rect11430-0" x="143.5" y="70.8" class="st0" width="2.8" height="41.3"/>
			<rect id="rect11432-1" x="86.3" y="70.8" class="st0" width="2.8" height="41.3"/>
			<rect id="rect11434-3" x="128.6" y="128" class="st0" width="2.7" height="41.3"/>
			<rect id="rect11436-7" x="135.9" y="70.8" class="st0" width="2.8" height="41.3"/>
			<rect id="rect11438-7" x="128.6" y="70.8" class="st0" width="2.7" height="41.3"/>
			<rect id="rect11440-2" x="151" y="70.8" class="st0" width="2.8" height="41.3"/>
			<rect id="rect11442-6" x="166" y="70.8" class="st0" width="2.7" height="41.3"/>
			<rect id="rect11444-4" x="158.5" y="70.8" class="st0" width="2.8" height="41.3"/>
			<rect id="rect11446-5" x="166" y="128" class="st0" width="2.7" height="41.3"/>
			<rect id="rect11448-2" x="14.2" y="128" class="st0" width="2.7" height="41.3"/>
			<rect id="rect11450-0" x="21.6" y="128" class="st0" width="2.8" height="41.3"/>
			<rect id="rect11452-2" x="108.8" y="128" class="st0" width="2.7" height="41.3"/>
			<rect id="rect11454-9" x="93.8" y="70.8" class="st0" width="2.8" height="41.3"/>
			<rect id="rect11456-0" x="44.1" y="128" class="st0" width="2.8" height="41.3"/>
			<rect id="rect11458-9" x="29.1" y="128" class="st0" width="2.8" height="41.3"/>
			<rect id="rect11460-9" x="36.6" y="128" class="st0" width="2.8" height="41.3"/>
			<rect id="rect11462-4" x="101.3" y="128" class="st0" width="2.8" height="41.3"/>
			<rect id="rect11464-5" x="71.4" y="128" class="st0" width="2.7" height="41.3"/>
			<rect id="rect11466-1" x="108.8" y="70.8" class="st0" width="2.7" height="41.3"/>
			<rect id="rect11468-0" x="93.8" y="128" class="st0" width="2.8" height="41.3"/>
			<rect id="rect11470-3" x="101.3" y="70.8" class="st0" width="2.8" height="41.3"/>
			<rect id="rect11472-7" x="78.8" y="128" class="st0" width="2.8" height="41.3"/>
			<rect id="rect11474-8" x="86.3" y="128" class="st0" width="2.8" height="41.3"/>
			<rect id="rect11476-8" x="215.6" y="128" class="st0" width="2.8" height="41.3"/>
			<rect id="rect11478-6" x="200.6" y="13.7" class="st0" width="2.8" height="41.3"/>
			<rect id="rect11480-0" x="208.1" y="13.7" class="st0" width="2.8" height="41.3"/>
			<rect id="rect11482-4" x="185.8" y="13.7" class="st0" width="2.7" height="41.3"/>
			<rect id="rect11484-6" x="193.1" y="13.7" class="st0" width="2.8" height="41.3"/>
			<rect id="rect11486-7" x="185.8" y="70.8" class="st0" width="2.7" height="41.3"/>
			<rect id="rect11488-6" x="223.1" y="13.7" class="st0" width="2.7" height="41.3"/>
			<rect id="rect11490-0" x="215.6" y="13.7" class="st0" width="2.8" height="41.3"/>
			<rect id="rect11492-9" x="280.3" y="128" class="st0" width="2.7" height="41.3"/>
			<rect id="rect11494-7" x="257.8" y="128" class="st0" width="2.8" height="41.3"/>
			<rect id="rect11496-5" x="242.9" y="128" class="st0" width="2.7" height="41.3"/>
			<rect id="rect11498-9" x="250.3" y="128" class="st0" width="2.8" height="41.3"/>
			<rect id="rect11500-7" x="265.3" y="128" class="st0" width="2.8" height="41.3"/>
			<rect id="rect11502-8" x="272.8" y="128" class="st0" width="2.8" height="41.3"/>
			<rect id="rect11504-5" x="200.6" y="128" class="st0" width="2.8" height="41.3"/>
			<rect id="rect11506-3" x="223.1" y="128" class="st0" width="2.7" height="41.3"/>
			<rect id="rect11508-3" x="193.1" y="128" class="st0" width="2.8" height="41.3"/>
			<rect id="rect11510-8" x="185.8" y="128" class="st0" width="2.7" height="41.3"/>
			<rect id="rect11512-3" x="223.1" y="70.8" class="st0" width="2.7" height="41.3"/>
			<rect id="rect11514-7" x="208.1" y="128" class="st0" width="2.8" height="41.3"/>
			<rect id="rect11516-9" x="200.6" y="70.8" class="st0" width="2.8" height="41.3"/>
			<rect id="rect11518-3" x="208.1" y="70.8" class="st0" width="2.8" height="41.3"/>
			<rect id="rect11520-7" x="215.6" y="70.8" class="st0" width="2.8" height="41.3"/>
			<rect id="rect11522-8" x="193.1" y="70.8" class="st0" width="2.8" height="41.3"/>
			<path id="path11524-7" class="st1" d="M240.1,114.3V0h-68.6v57.2H57.2v57.1H0v67.1h297.3v-67.1H240.1z M59.1,173.4H9.5v-49.5
				h49.5V173.4z M116.2,173.4H66.7v-49.5h49.5L116.2,173.4z M116.2,116.2H66.7V66.7h49.5V116.2z M173.4,173.4h-49.5v-49.5h49.5
				V173.4z M173.4,116.2h-49.5V66.7h49.5V116.2z M230.6,173.4H181v-49.5h49.5V173.4z M230.6,116.2H181V66.7h49.5V116.2z M230.6,59
				H181V9.5h49.5V59z M287.7,173.4h-49.6v-49.5h49.5L287.7,173.4z"/>
		</g>
	</g>
</g>
</svg>
