<?xml version="1.0" encoding="utf-8"?>
<!-- Generator: Adobe Illustrator 23.0.3, SVG Export Plug-In . SVG Version: 6.00 Build 0)  -->
<!-- <svg version="1.1"
	 id="svg300412" xmlns:cc="http://creativecommons.org/ns#" xmlns:dc="http://purl.org/dc/elements/1.1/" xmlns:rdf="http://www.w3.org/1999/02/22-rdf-syntax-ns#" xmlns:svg="http://www.w3.org/2000/svg"
	 xmlns="http://www.w3.org/2000/svg" xmlns:xlink="http://www.w3.org/1999/xlink" x="0px" y="0px" viewBox="0 0 52.3 52.3"
	 style="enable-background:new 0 0 52.3 52.3;" xml:space="preserve"> -->

<svg width="100%" height="100%" viewBox="0 0 52.3 52.3" xmlns="http://www.w3.org/2000/svg" xmlns:svg="http://www.w3.org/2000/svg" xmlns:se="http://svg-edit.googlecode.com" data-name="Layer 1">

<style type="text/css">
	.st0{fill:none;}
	.st1{fill:#58595B;stroke:#000000;stroke-width:0.5;}
</style>
<g>
	<path class="st0" d="M27.4,12.8c0-1,0.1-2,0.4-2.9H10.5c-1.3,0-2.5,1-2.8,2.3L2.5,35.7c1.1-1,2.5-1.6,4.1-1.6H39
		c1.6,0,3.1,0.6,4.2,1.7L40.8,25C40.4,25,40,25,39.6,25C32.8,25,27.4,19.5,27.4,12.8z"/>
	<path class="st0" d="M39,35.1H6.6c-2.8,0-5.1,2.3-5.1,5.1v5.5c0,2.8,2.3,5.1,5.1,5.1H39c2.8,0,5.2-2.3,5.2-5.1v-5.5
		C44.1,37.4,41.9,35.1,39,35.1z M36.2,45.9c-1.7,0-3-1.3-3-3c0-1.7,1.3-3,3-3c1.7,0,3,1.3,3,3C39.2,44.6,37.9,45.9,36.2,45.9z"/>
	<path class="st0" d="M42.5,10c0-1.4-1.3-2.6-2.9-2.6s-2.9,1.2-2.9,2.6v1.8h5.9V10z"/>
	<path class="st0" d="M36.2,40.9c-1.1,0-2,0.9-2,2c0,1.1,0.9,2,2,2c1.1,0,2-0.9,2-2C38.2,41.8,37.3,40.9,36.2,40.9z"/>
	<path class="st0" d="M39.6,1.5c-6.2,0-11.2,5.1-11.2,11.3c0,6.2,5,11.3,11.2,11.3c6.2,0,11.3-5.1,11.3-11.3
		C50.8,6.5,45.8,1.5,39.6,1.5z M44.3,19.1h-9.4v-7.2h0.7V10c0-2,1.8-3.6,3.9-3.6c2.2,0,3.9,1.6,3.9,3.6v1.8h0.8V19.1z"/>
	<rect x="35.9" y="12.8" class="st0" width="7.4" height="5.2"/>
	<path class="st1" d="M43.5,10c0-2-1.8-3.6-3.9-3.6c-2.2,0-3.9,1.6-3.9,3.6v1.8h-0.7v7.2h9.4v-7.2h-0.8V10z M36.7,10
		c0-1.4,1.3-2.6,2.9-2.6s2.9,1.2,2.9,2.6v1.8h-5.9V10z M43.3,18.1h-7.4v-5.2h7.4V18.1z"/>
	<path class="st1" d="M36.2,39.9c-1.7,0-3,1.3-3,3c0,1.7,1.3,3,3,3c1.7,0,3-1.3,3-3C39.2,41.2,37.9,39.9,36.2,39.9z M36.2,44.9
		c-1.1,0-2-0.9-2-2c0-1.1,0.9-2,2-2c1.1,0,2,0.9,2,2C38.2,44,37.3,44.9,36.2,44.9z"/>
	<path class="st1" d="M51.8,12.8c0-6.8-5.5-12.3-12.3-12.3C34.2,0.5,29.6,4,28,8.9H10.5c-1.8,0-3.4,1.3-3.8,3.1L1,37.8
		c-0.3,0.7-0.5,1.5-0.5,2.4v5.5c0,3.4,2.7,6.1,6.1,6.1H39c3.4,0,6.2-2.8,6.2-6.1v-5.5c0-0.8-0.1-1.5-0.4-2.1l0,0l-3-13.2
		C47.5,23.8,51.8,18.8,51.8,12.8z M44.1,45.7c0,2.8-2.4,5.1-5.2,5.1H6.6c-2.8,0-5.1-2.3-5.1-5.1v-5.5c0-2.8,2.3-5.1,5.1-5.1H39
		c2.8,0,5.1,2.3,5.1,5.1V45.7z M43.2,35.7c-1.1-1-2.6-1.7-4.2-1.7H6.6c-1.6,0-3.1,0.6-4.1,1.6l5.2-23.5c0.3-1.3,1.5-2.3,2.8-2.3
		h17.2c-0.2,0.9-0.4,1.9-0.4,2.9c0,6.8,5.5,12.3,12.2,12.3c0.4,0,0.8,0,1.2-0.1L43.2,35.7z M39.6,24c-6.2,0-11.2-5.1-11.2-11.3
		c0-6.2,5-11.3,11.2-11.3c6.2,0,11.3,5.1,11.3,11.3C50.8,19,45.8,24,39.6,24z"/>
</g>
</svg>
