<?xml version="1.0" encoding="utf-8"?>
<!-- Generator: Adobe Illustrator 23.0.3, SVG Export Plug-In . SVG Version: 6.00 Build 0)  -->
<!-- <svg version="1.1"
	 id="svg262454" xmlns:cc="http://creativecommons.org/ns#" xmlns:dc="http://purl.org/dc/elements/1.1/" xmlns:rdf="http://www.w3.org/1999/02/22-rdf-syntax-ns#" xmlns:svg="http://www.w3.org/2000/svg"
	 xmlns="http://www.w3.org/2000/svg" xmlns:xlink="http://www.w3.org/1999/xlink" x="0px" y="0px" viewBox="0 0 102.1 52.3"
	 style="enable-background:new 0 0 102.1 52.3;" xml:space="preserve"> -->

<svg width="100%" height="100%" viewBox="-0.5 -0.5 103.1 53.3" xmlns="http://www.w3.org/2000/svg" xmlns:svg="http://www.w3.org/2000/svg" xmlns:se="http://svg-edit.googlecode.com" data-name="Layer 1">
	 
<style type="text/css">
	.st0{fill:#878589;}
	.st1{fill:none;}
	.st2{fill:#58595B;stroke:none;stroke-width:2;}
</style>
<g id="layer1" transform="translate(536.5926,25.949609)">
	<g id="Layer_2-598-4" transform="matrix(0.4025646,0,0,0.4059306,-536.739,-26.097235)">
		<g id="Layer_1-2-481-1">
			<polygon class="st0" points="37.8,43.9 19,48 12.3,33 11.5,34.3 18.2,49.4 36.8,45.3 			"/>
			<polygon class="st0" points="90.1,40.7 88.9,39.8 91.2,23.8 108.7,20.5 109.9,21.5 92.2,24.8 			"/>
			<polygon class="st0" points="45.5,92.7 44.1,91.8 46.8,108.2 31.3,115.8 32.5,116.6 48.2,108.8 			"/>
			<polygon class="st0" points="156.6,48.2 153.6,31 137.1,28.6 138.1,27.5 154.6,30 154.7,30.4 157.6,47 			"/>
			<polygon class="st0" points="216,42.8 215,41.8 231.3,39.4 234.7,23.1 235.7,24.1 232.3,40.4 			"/>
			<polygon class="st0" points="228.2,112.5 211.5,106.6 213.5,89.1 214.9,87.7 212.9,105.8 229.3,111.6 			"/>
			<path class="st0" d="M162.1,87c-0.4-0.3-0.7-0.7-1.1-1l-16.2,3.3l-2.7,16.6c0.4,0.3,0.7,0.6,1.1,1l2.7-16.5L162.1,87z"/>
			<g>
				<path class="st0" d="M94,85.5c-0.4,0.3-0.7,0.7-1.1,1l16.4,4l1.2,17.2c0.4-0.3,0.8-0.7,1.1-1l-1.2-17.2L94,85.5z"/>
				<path class="st1" d="M189.8,35.4c-17.5,0-27.8,9.9-41.5,29.4c13.2,19.1,23.8,29.4,41.2,29.4c6.9,0,29.4-2.1,29.7-29.4
					C219.2,37.5,196.7,35.4,189.8,35.4z"/>
			</g>
			<g>
				<path class="st1" d="M189.5,4.3c-30.4,0-48.5,18.3-60.9,34.3l0.1,0L110,65.8l-3-2l17.9-26C112.6,22,94.8,4.3,64.8,4.3
					C40.5,4.3,4.3,20.4,4.3,64.8c0,44.4,36.2,60.6,60.6,60.6c19.9,0,34.5-7.8,45.7-17.7l1.1-1c5.5-5,10.1-10.4,14.1-15.6l2.9,2
					l0.8-1.1c3.6,4.7,7.8,9.5,12.5,14l1.1,1c11.3,10.3,26.2,18.5,46.6,18.5c24.3,0,60.6-16.1,60.6-60.6
					C250.3,20.4,213.9,4.3,189.5,4.3z"/>
				<g>
					<path class="st1" d="M64.8,35.4c-4.9,0-29.4,1.4-29.4,29.4c0,27.3,22.5,29.4,29.4,29.4c17.4,0,28.1-10.3,41.5-29.4
						C92.5,45.3,82.2,35.4,64.8,35.4z"/>
					<path class="st1" d="M189.5,4.3c-30.4,0-48.5,18.3-60.9,34.3l0.1,0l-18,26.2l0,0l-0.7,1c-5.6,8-10.7,14.6-16,19.7l-1.1,1
						c-8.1,7.4-16.8,11.3-28.1,11.3c-5.5,0-33-1.6-33-33c0-31.4,27.5-33,33-33c18.5,0,29.9,10.5,43.7,29.8l16.4-23.9
						C112.6,22,94.8,4.3,64.8,4.3C40.5,4.3,4.3,20.4,4.3,64.8c0,44.4,36.2,60.6,60.6,60.6c19.9,0,34.5-7.8,45.7-17.7l1.1-1
						c5.5-5,10.1-10.4,14.1-15.6l2.9,2l0.8-1.1c3.6,4.7,7.8,9.5,12.5,14l1.1,1c11.3,10.3,26.2,18.5,46.6,18.5
						c24.3,0,60.6-16.1,60.6-60.6C250.3,20.4,213.9,4.3,189.5,4.3z"/>
					<g>
						<path class="st1" d="M189.5,4.3c-30.4,0-48.5,18.3-60.9,34.3l0.1,0l-18,26.2l0,0l-0.7,1c-5.6,8-10.7,14.6-16,19.7l-1.1,1
							c-8.1,7.4-16.8,11.3-28.1,11.3c-5.5,0-33-1.6-33-33c0-31.4,27.5-33,33-33c18.5,0,29.9,10.5,43.7,29.8l16.4-23.9
							C112.6,22,94.8,4.3,64.8,4.3C40.5,4.3,4.3,20.4,4.3,64.8c0,44.4,36.2,60.6,60.6,60.6c19.9,0,34.5-7.8,45.7-17.7l1.1-1
							c5.5-5,10.1-10.4,14.1-15.6l18.7-27.2l0.1-0.1c14.7-21.2,25.8-32,45.2-32c5.5,0,33,1.6,33,33c-0.3,31.4-27.8,33-33.3,33
							c-11.1,0-19.6-3.7-27.4-10.8l-1.1-1c-5-4.7-9.8-10.8-15-18.2L128.7,93l0.8-1.1c3.6,4.7,7.8,9.5,12.5,14l1.1,1
							c11.3,10.3,26.2,18.5,46.6,18.5c24.3,0,60.6-16.1,60.6-60.6C250.3,20.4,213.9,4.3,189.5,4.3z"/>
						<path class="st1" d="M189.5,94.2c6.9,0,29.4-2.1,29.7-29.4c0-27.2-22.5-29.4-29.4-29.4c-17.5,0-27.8,9.9-41.5,29.4
							C161.5,83.9,172.1,94.2,189.5,94.2z"/>
						<path class="st1" d="M64.8,35.4c-4.9,0-29.4,1.4-29.4,29.4c0,27.3,22.5,29.4,29.4,29.4c17.4,0,28.1-10.3,41.5-29.4
							C92.5,45.3,82.2,35.4,64.8,35.4z"/>
						<path class="st2" d="M189.5,0.7c-30.9,0-49.6,17.7-62.4,33.9C114.4,18.4,95.8,0.7,64.8,0.7C39,0.7,0.7,17.8,0.7,64.8
							c0,47.1,38.4,64.2,64.2,64.2c30.9,0,49.6-17.7,62.4-34c12.8,16.2,31.5,34,62.4,34c25.8,0,64.2-17.1,64.2-64.2
							C253.9,17.8,215.4,0.7,189.5,0.7z M189.7,125.4c-20.4,0-35.3-8.3-46.6-18.5l-1.1-1c-4.8-4.5-8.9-9.3-12.5-14l-0.8,1.1
							L146,67.9c5.1,7.4,10,13.5,15,18.2l1.1,1c7.9,7.1,16.3,10.8,27.4,10.8c5.5,0,33-1.6,33.3-33c0-31.4-27.5-33-33-33
							c-19.5,0-30.5,10.8-45.2,32l-0.1,0.1l-18.7,27.2c-4,5.2-8.6,10.6-14.1,15.6l-1.1,1c-11.2,9.9-25.8,17.7-45.7,17.7
							c-24.3,0-60.6-16.1-60.6-60.6c0-44.4,36.2-60.5,60.5-60.5c30,0,47.8,17.6,60.1,33.4l-16.4,23.9C94.7,42.3,83.3,31.8,64.8,31.8
							c-5.5,0-33,1.6-33,33c0,31.4,27.5,33,33,33c11.4,0,20-3.9,28.1-11.3l1.1-1c5.3-5.1,10.4-11.7,16-19.7l0.7-1l0,0l18-26.2
							l-0.1,0c12.4-16,30.4-34.3,60.9-34.3c24.4,0,60.8,16.1,60.8,60.5C250.3,109.2,214,125.4,189.7,125.4z M148.3,64.8
							c13.6-19.5,24-29.4,41.5-29.4c6.9,0,29.4,2.1,29.4,29.4c-0.3,27.3-22.8,29.4-29.7,29.4C172.1,94.2,161.5,83.9,148.3,64.8z
							 M106.3,64.8C92.9,83.9,82.2,94.2,64.8,94.2c-6.9,0-29.4-2.1-29.4-29.4c0-28,24.5-29.4,29.4-29.4
							C82.2,35.4,92.5,45.3,106.3,64.8z"/>
					</g>
				</g>
			</g>
		</g>
	</g>
</g>
</svg>
