<?xml version="1.0" encoding="utf-8"?>
<!-- Generator: Adobe Illustrator 23.0.3, SVG Export Plug-In . SVG Version: 6.00 Build 0)  -->
<svg version="1.1"
	 id="svg301880" xmlns:cc="http://creativecommons.org/ns#" xmlns:dc="http://purl.org/dc/elements/1.1/" xmlns:inkscape="http://www.inkscape.org/namespaces/inkscape" xmlns:rdf="http://www.w3.org/1999/02/22-rdf-syntax-ns#" xmlns:sodipodi="http://sodipodi.sourceforge.net/DTD/sodipodi-0.dtd" xmlns:svg="http://www.w3.org/2000/svg"
	 xmlns="http://www.w3.org/2000/svg" xmlns:xlink="http://www.w3.org/1999/xlink" x="0px" y="0px" viewBox="0 0 56.5 52.3"
	 style="enable-background:new 0 0 56.5 52.3;" xml:space="preserve">
<style type="text/css">
	.st0{fill:none;}
	.st1{fill:#666666;stroke:#000000;stroke-miterlimit:10;}
	.st2{fill:#666666;}
</style>
<sodipodi:namedview  bordercolor="#666666" borderopacity="1.0" fit-margin-bottom="0" fit-margin-left="0" fit-margin-right="0" fit-margin-top="0" id="base" inkscape:current-layer="layer1" inkscape:cx="37.682852" inkscape:cy="34.873688" inkscape:document-units="mm" inkscape:pageopacity="0.0" inkscape:pageshadow="2" inkscape:window-height="2105" inkscape:window-maximized="0" inkscape:window-width="1887" inkscape:window-x="67" inkscape:window-y="27" inkscape:zoom="0.35" pagecolor="#ffffff" showgrid="false">
	</sodipodi:namedview>
<g>
	<path class="st0" d="M35.1,2.5C30.4,2.5,25.7,3,21.2,4.3c-3.9,1.2-5,2.5-5,3c0,1.6,6.6,4.7,18.9,4.7c4.7,0.1,9.3-0.5,13.9-1.7
		c3.9-1.2,5-2.5,5-3.1C54,5.7,47.3,2.5,35.1,2.5z"/>
	<path class="st0" d="M11,38c0.2,0.1,0.3,0.3,0.4,0.5c1.8,1.7,4.2,2.7,6.9,2.7c5.7,0,10.3-4.6,10.3-10.3c0-5.7-4.6-10.3-10.3-10.3
		S8.1,25.2,8.1,30.9c0,2.7,1,5.1,2.7,6.9C10.8,37.8,11,37.9,11,38z M10.1,30.9c0-4.6,3.7-8.3,8.3-8.3c0.2,0,0.4,0.2,0.4,0.4
		c0,0.2-0.2,0.4-0.4,0.4c-4.1,0-7.4,3.4-7.5,7.5c0,0.3-0.2,0.4-0.4,0.4C10.3,31.3,10.1,31.1,10.1,30.9z"/>
	<path class="st1" d="M35.1,0C24.4,0,13.7,2.5,13.7,7.3v9.8c0.8-0.3,1.7-0.5,2.6-0.6v-5.5c3.8,2.4,11.4,3.6,18.9,3.6
		s15-1.2,18.9-3.6v7.1c-1.7,2-8.6,4.2-18.9,4.2c-1.8,0-3.5-0.1-5.1-0.2c0.4,0.6,0.8,1.2,1.2,1.8c1.3,0.1,2.6,0.1,3.9,0.1
		c7.4,0,15.2-1.3,18.9-3.7v2.1c-1.7,2-8.6,4.2-18.9,4.2c-1,0-1.9,0-2.8-0.1c0.2,0.6,0.3,1.1,0.4,1.7c0.8,0,1.6,0.1,2.4,0.1
		c7.4,0,15.2-1.3,18.9-3.7v7.2c-1.7,2-8.6,4.2-18.9,4.2c-1.1,0-2.1,0-3.1-0.1c-0.2,0.6-0.5,1.1-0.7,1.7c1.2,0.1,2.5,0.1,3.8,0.1
		c7.4,0,15.2-1.3,18.9-3.7v2c-1.7,2-8.6,4.2-18.9,4.2c-1.9,0-3.7-0.1-5.4-0.2c-0.4,0.5-0.9,1.1-1.5,1.6c2.3,0.2,4.6,0.4,6.9,0.4
		c7.4,0,15.2-1.3,18.9-3.7V45c0,0.5-1,1.8-5,3c-4.5,1.2-9.2,1.8-13.9,1.7c-11.5,0-18.1-2.8-18.8-4.4c-0.9-0.1-1.8-0.3-2.6-0.6v0.4
		c0,4.8,10.8,7.3,21.4,7.3c10.6,0,21.4-2.5,21.4-7.3V7.3C56.5,2.5,45.7,0,35.1,0z M49,10.3c-4.5,1.2-9.2,1.8-13.9,1.7
		c-12.2,0-18.9-3.1-18.9-4.7c0-0.5,1-1.8,5-3c4.5-1.2,9.2-1.8,13.9-1.7C47.3,2.5,54,5.7,54,7.2C54,7.8,52.9,9.1,49,10.3z"/>
	<path class="st1" d="M18.4,43.7c7.1,0,12.9-5.8,12.9-12.8c0-7.1-5.7-12.9-12.8-12.9c-7.1,0-12.9,5.7-12.9,12.8c0,2.9,1,5.6,2.6,7.8
		l-7.7,7.7C0.2,46.7,0,47.1,0,47.5c0,0.9,0.7,1.7,1.7,1.8c0.5,0,0.9-0.2,1.2-0.5l7.7-7.7C12.8,42.7,15.4,43.7,18.4,43.7z M18.4,20.6
		c5.7,0,10.3,4.6,10.3,10.3c0,5.7-4.6,10.3-10.3,10.3c-2.7,0-5.1-1-6.9-2.7c-0.1-0.2-0.2-0.4-0.4-0.5c-0.1-0.1-0.2-0.2-0.3-0.2
		c-1.7-1.8-2.7-4.2-2.7-6.9C8.1,25.2,12.7,20.6,18.4,20.6z"/>
	<path class="st2" d="M10.9,30.8c0-4.1,3.4-7.5,7.5-7.5c0.2,0,0.4-0.2,0.4-0.4c0-0.2-0.2-0.4-0.4-0.4c-4.6,0-8.3,3.7-8.3,8.3
		c0,0.2,0.2,0.4,0.4,0.4C10.7,31.3,10.9,31.1,10.9,30.8z"/>
	<path class="st2" d="M48.7,17.3c1.2-0.3,2.5-0.7,3.6-1.3c0.1,0,0.1-0.1,0.2-0.1c0.4-0.2,0.5-0.8,0.3-1.2c-0.2-0.4-0.8-0.5-1.2-0.3
		c-1,0.5-2.1,0.9-3.2,1.1c-0.4,0.1-0.6,0.5-0.6,0.9c0,0.5,0.4,0.8,0.9,0.8C48.6,17.3,48.6,17.3,48.7,17.3z"/>
	<path class="st2" d="M48.7,30.9c1.2-0.3,2.5-0.7,3.6-1.2c0.1,0,0.1-0.1,0.2-0.1c0.4-0.3,0.5-0.8,0.2-1.2s-0.8-0.5-1.2-0.2
		c-1,0.5-2.1,0.9-3.2,1.1c-0.4,0.1-0.6,0.5-0.6,0.9c0,0.5,0.4,0.8,0.9,0.8C48.6,31,48.6,31,48.7,30.9z"/>
	<path class="st2" d="M48.7,44.6c1.2-0.3,2.5-0.7,3.6-1.2c0.1,0,0.1-0.1,0.2-0.1c0.4-0.3,0.5-0.8,0.2-1.2c-0.3-0.4-0.8-0.5-1.2-0.2
		c-1,0.5-2.1,0.9-3.2,1.1c-0.4,0.1-0.6,0.4-0.6,0.8c0,0.5,0.4,0.9,0.9,0.9C48.6,44.7,48.6,44.7,48.7,44.6z"/>
</g>
</svg>
