<?xml version="1.0" encoding="iso-8859-1"?>
<!-- Generator: Adobe Illustrator 23.0.3, SVG Export Plug-In . SVG Version: 6.00 Build 0)  -->
<svg version="1.1"
	 id="svg301880" xmlns:cc="http://creativecommons.org/ns#" xmlns:dc="http://purl.org/dc/elements/1.1/" xmlns:inkscape="http://www.inkscape.org/namespaces/inkscape" xmlns:rdf="http://www.w3.org/1999/02/22-rdf-syntax-ns#" xmlns:sodipodi="http://sodipodi.sourceforge.net/DTD/sodipodi-0.dtd" xmlns:svg="http://www.w3.org/2000/svg"
	 xmlns="http://www.w3.org/2000/svg" xmlns:xlink="http://www.w3.org/1999/xlink" x="0px" y="0px" viewBox="0 0 56.5 52.3"
	 style="enable-background:new 0 0 56.5 52.3;" xml:space="preserve">
<style type="text/css">
	.st0{fill:#58595B;stroke:#58595B;stroke-width:0.25;}
</style>
<sodipodi:namedview  bordercolor="#666666" borderopacity="1.0" fit-margin-bottom="0" fit-margin-left="0" fit-margin-right="0" fit-margin-top="0" id="base" inkscape:current-layer="layer1" inkscape:cx="37.682852" inkscape:cy="34.873688" inkscape:document-units="mm" inkscape:pageopacity="0.0" inkscape:pageshadow="2" inkscape:window-height="2105" inkscape:window-maximized="0" inkscape:window-width="1887" inkscape:window-x="67" inkscape:window-y="27" inkscape:zoom="0.35" pagecolor="#ffffff" showgrid="false">
	</sodipodi:namedview>
<g id="layer1" transform="translate(33.782755,-139.60633)" inkscape:groupmode="layer" inkscape:label="Layer 1">
	<g id="Layer_2-45-8" transform="matrix(0.25969603,0,0,0.25969603,-33.797289,139.60633)">
		<g id="Layer_1-2-25-6">
			<path id="path3416-2" inkscape:connector-curvature="0" class="st0" d="M135.2,0c-41,0-82.5,9.6-82.5,28v37.7
				c3.2-1.1,6.5-1.9,9.9-2.4V42.1c14.7,9.2,43.8,14,72.6,14s57.9-4.8,72.6-14v27.5c-6.6,7.6-33,16.2-72.6,16.2
				c-6.9,0-13.5-0.2-19.6-0.7c1.7,2.2,3.1,4.5,4.5,6.9c5,0.3,10.1,0.5,15.1,0.5c28.6,0,58.5-4.9,72.6-14.2v8
				c-6.6,7.6-33,16.2-72.6,16.2c-3.7,0-7.3,0-10.8-0.2c0.7,2.2,1.2,4.4,1.6,6.6c3,0,6.1,0.2,9.2,0.2c28.6,0,58.5-4.9,72.6-14.2v27.8
				c-6.6,7.7-33,16.2-72.6,16.2c-4.1,0-8,0-11.8-0.3c-0.8,2.2-1.8,4.4-2.8,6.4c4.8,0.3,9.8,0.4,14.6,0.4c28.6,0,58.5-4.9,72.6-14.2
				v7.7c-6.6,7.7-33.1,16.2-72.6,16.2c-7.4,0-14.4-0.3-20.9-0.8c-1.7,2.1-3.6,4.1-5.7,6c8.8,0.9,17.7,1.4,26.6,1.4
				c28.6,0,58.5-4.9,72.6-14.2v25.8c0,2-4,7.1-19.2,11.6c-17.4,4.7-35.4,6.9-53.4,6.6c-44.4,0-69.7-10.7-72.3-17
				c-3.5-0.5-6.8-1.3-10.1-2.4v1.4c0,18.4,41.5,28,82.5,28s82.5-9.6,82.5-28V28C217.7,9.6,176.2,0,135.2,0z M188.6,39.7
				c-17.4,4.6-35.4,6.8-53.4,6.5c-47,0-72.6-12-72.6-18.2c0-2,4-7.1,19.2-11.6c17.4-4.7,35.4-6.9,53.4-6.6c47,0,72.6,12,72.6,18.1
				C207.8,30.1,203.7,35.1,188.6,39.7z"/>
			<path id="path3418-4" inkscape:connector-curvature="0" class="st0" d="M70.8,168.3c-27.3,0-49.5-22.2-49.4-49.5
				c0-27.3,22.2-49.5,49.5-49.4c27.3,0,49.4,22.2,49.4,49.5C120.3,146.1,98.1,168.3,70.8,168.3C70.8,168.3,70.8,168.3,70.8,168.3z
				 M70.8,79.2c-21.9,0-39.7,17.8-39.7,39.7s17.8,39.7,39.7,39.7s39.7-17.8,39.7-39.7S92.7,79.2,70.8,79.2z"/>
			<path id="path3420-7" inkscape:connector-curvature="0" class="st0" d="M40.5,120.4c-0.9,0-1.6-0.7-1.6-1.6
				c0-17.6,14.3-32,31.9-32c0.9,0,1.6,0.7,1.6,1.6c0,0.9-0.7,1.6-1.6,1.6c0,0,0,0,0,0c-15.8,0-28.6,12.9-28.7,28.7
				C42.1,119.7,41.4,120.4,40.5,120.4z"/>
			<path id="path3422-9" inkscape:connector-curvature="0" class="st0" d="M6.5,189.7c-3.7-0.1-6.5-3.2-6.4-6.8
				c0-1.6,0.7-3.1,1.8-4.3l31.4-31.5c2.3-2.8,6.5-3.2,9.3-0.8c2.8,2.3,3.2,6.5,0.8,9.3c-0.3,0.3-0.6,0.6-0.9,0.9l-31.2,31.3
				C10,189,8.3,189.7,6.5,189.7z"/>
			<path id="path3424-3" inkscape:connector-curvature="0" class="st0" d="M186.8,66.6c-1.8,0-3.3-1.4-3.3-3.2c0-1.5,1-2.9,2.5-3.3
				c4.3-1,8.5-2.5,12.5-4.4c1.5-0.9,3.6-0.5,4.5,1.1c0.9,1.5,0.5,3.6-1.1,4.5c-0.2,0.1-0.4,0.2-0.6,0.3c-4.4,2.1-9.1,3.7-13.9,4.9
				C187.3,66.5,187.1,66.6,186.8,66.6z"/>
			<path id="path3426-9" inkscape:connector-curvature="0" class="st0" d="M186.8,119.3c-1.8,0-3.3-1.4-3.3-3.2c0-1.5,1-2.9,2.5-3.3
				c4.3-1,8.5-2.5,12.5-4.4c1.5-1,3.6-0.6,4.6,0.9c1,1.5,0.6,3.6-0.9,4.6c-0.3,0.2-0.5,0.3-0.8,0.4c-4.4,2.1-9.1,3.7-13.9,4.8
				C187.3,119.3,187.1,119.3,186.8,119.3z"/>
			<path id="path3428-2" inkscape:connector-curvature="0" class="st0" d="M186.8,172.1c-1.8,0-3.3-1.5-3.3-3.4c0-1.5,1-2.8,2.5-3.1
				c4.3-1,8.5-2.5,12.5-4.4c1.5-1,3.6-0.6,4.6,0.9c1,1.5,0.6,3.6-0.9,4.6c-0.3,0.2-0.5,0.3-0.8,0.4c-4.4,2.1-9.1,3.7-13.9,4.8
				C187.3,172.1,187.1,172.1,186.8,172.1z"/>
		</g>
	</g>
</g>
</svg>
