<?xml version="1.0" encoding="iso-8859-1"?>
<!-- Generator: Adobe Illustrator 23.0.3, SVG Export Plug-In . SVG Version: 6.00 Build 0)  -->
<!-- <svg version="1.1"
	 id="svg258137" xmlns:cc="http://creativecommons.org/ns#" xmlns:dc="http://purl.org/dc/elements/1.1/" xmlns:rdf="http://www.w3.org/1999/02/22-rdf-syntax-ns#" xmlns:svg="http://www.w3.org/2000/svg"
	 xmlns="http://www.w3.org/2000/svg" xmlns:xlink="http://www.w3.org/1999/xlink" x="0px" y="0px" viewBox="0 0 57 52.3"
	 style="enable-background:new 0 0 57 52.3;" xml:space="preserve"> -->

<svg width="100%" height="100%" viewBox="0 0 57 52.3" xmlns="http://www.w3.org/2000/svg" xmlns:svg="http://www.w3.org/2000/svg" xmlns:se="http://svg-edit.googlecode.com" data-name="Layer 1">
	
<style type="text/css">
	.st0{fill:#58595B;stroke:none;stroke-width:2;}
</style>
<g id="layer1" transform="translate(33.859135,-139.60632)">
	<g id="Layer_2-33" transform="matrix(0.25402735,0,0,0.25407298,-33.592553,139.73881)">
		<g id="Layer_1-2-46">
			<path id="path9621" class="st0" d="M110.7,135.5c-18.3,0.1-33.1-14.7-33.2-32.9c-0.1-18.3,14.7-33.1,32.9-33.2
				c18.3-0.1,33.1,14.7,33.2,32.9c0,0.1,0,0.1,0,0.2C143.6,120.6,128.9,135.4,110.7,135.5z M110.7,73.6c-15.9,0-28.8,12.9-28.8,28.8
				s12.9,28.8,28.8,28.8c15.9,0,28.8-12.9,28.8-28.8c0,0,0,0,0,0C139.5,86.5,126.6,73.7,110.7,73.6z"/>
			<path id="path9623" class="st0" d="M120.2,170.6h-19.1c-1.6,0-3-1.2-3.2-2.8l-1.6-13c-4.4-1.2-8.7-3-12.6-5.2l-10.3,8
				c-1.3,1-3.1,0.9-4.2-0.3l-13.4-13.4c-1.1-1.1-1.2-2.8-0.3-4.1l8-10.3c-2.3-4-4-8.2-5.2-12.6l-13-1.6c-1.6-0.2-2.8-1.5-2.8-3.2
				V92.9c0-1.6,1.2-3,2.8-3.2l13-1.6c1.2-4.4,3-8.7,5.2-12.6l-8-10.3c-1-1.3-0.9-3.1,0.3-4.2l13.5-13.4c1.1-1.1,3-1.2,4.2-0.3
				l10.3,8c4-2.3,8.2-4,12.6-5.2L98,37c0.2-1.6,1.6-2.8,3.2-2.8h19c1.6,0,3,1.2,3.2,2.8l1.6,13c4.4,1.2,8.7,3,12.6,5.2l10.3-8
				c1.3-1,3.1-0.9,4.2,0.3l13.4,13.4c1.2,1.1,1.3,2.9,0.3,4.2l-8.1,10.3c2.3,4,4.1,8.2,5.2,12.6l13,1.6c1.6,0.2,2.8,1.6,2.8,3.2v19
				c0,1.6-1.2,3-2.8,3.2l-13,1.6c-1.2,4.4-3,8.7-5.2,12.6l8.1,10.5c1,1.3,0.9,3.1-0.3,4.2l-13.5,13.3c-1.1,1.1-3,1.2-4.2,0.3
				l-10.3-8c-4,2.3-8.2,4-12.6,5.2l-1.6,13C123.1,169.4,121.8,170.6,120.2,170.6z M104,164.2h13.4l1.5-12.4c0.1-1.4,1.1-2.5,2.5-2.8
				c5.2-1.2,10.2-3.3,14.8-6.1c1.1-0.7,2.6-0.6,3.7,0.2l9.8,7.7l9.4-9.5l-7.7-9.8c-0.8-1.1-0.9-2.5-0.2-3.7
				c2.9-4.5,4.9-9.5,6.2-14.8c0.3-1.3,1.4-2.3,2.7-2.5l12.4-1.5V95.7l-12.4-1.5c-1.3-0.2-2.4-1.2-2.7-2.5
				c-1.2-5.2-3.3-10.2-6.2-14.8c-0.7-1.1-0.6-2.6,0.2-3.7l7.7-9.8l-9.4-9.5l-9.8,7.7c-1.1,0.8-2.5,0.9-3.7,0.2
				c-4.5-2.9-9.5-4.9-14.8-6.1c-1.3-0.3-2.3-1.5-2.5-2.8l-1.4-12.2H104L102.4,53c-0.1,1.4-1.1,2.5-2.5,2.8
				C94.7,57,89.7,59.1,85.2,62c-1.1,0.7-2.6,0.6-3.7-0.2l-9.8-7.7l-9.4,9.3l7.7,9.8c0.8,1.1,0.9,2.5,0.2,3.7
				c-2.9,4.5-4.9,9.5-6.1,14.7c-0.3,1.3-1.5,2.3-2.8,2.5l-12.4,1.5v13.4l12.4,1.5c1.4,0.1,2.5,1.1,2.8,2.5
				c1.2,5.2,3.3,10.2,6.1,14.8c0.8,1.1,0.7,2.6-0.2,3.7l-7.7,9.8l9.5,9.5l9.8-7.7c1.1-0.8,2.5-0.9,3.7-0.2c4.5,2.9,9.5,4.9,14.8,6.1
				c1.3,0.3,2.3,1.5,2.5,2.8L104,164.2z"/>
			<path id="path9625" class="st0" d="M110.7,124.8c-12.4,0-22.4-10-22.4-22.4S98.3,80,110.7,80s22.4,10,22.4,22.4c0,0,0,0,0,0.1
				C133.1,114.8,123.1,124.8,110.7,124.8z M110.7,86.4c-8.8,0-16,7.1-16.1,15.9c0,8.8,7.1,16,15.9,16.1c8.8,0,16-7.1,16.1-15.9
				c0,0,0-0.1,0-0.1C126.6,93.6,119.5,86.5,110.7,86.4z"/>
			<path id="path9627" class="st0" d="M212.2,102.4H205c0-52.1-42.2-94.2-94.3-94.3V1C166.8,1,212.1,46.4,212.2,102.4z"/>
			<path id="path9629" class="st0" d="M110.7,203.9v-7.2c3,0,6.2,0,9.2-0.4l0.7,7.1C117.4,203.7,114,203.9,110.7,203.9z
				 M125.5,202.8l-1-7.1c3-0.4,6-1,9-1.8l1.6,6.9C132.1,201.7,128.8,202.2,125.5,202.8z M140,199.6l-2-6.9c2.8-0.9,5.9-1.9,8.7-3.1
				l2.8,6.6C146.3,197.5,143.2,198.6,140,199.6z M153.9,194.3l-3.1-6.5c2.8-1.3,5.5-2.8,8.1-4.3l3.7,6.2
				C159.8,191.3,156.9,192.9,153.9,194.3z M166.8,187l-4-6c2.6-1.7,5-3.5,7.4-5.5l4.5,5.7C172.2,183.2,169.5,185.2,166.8,187z
				 M178.6,177.9l-4.8-5.3c2.3-2,4.5-4.2,6.5-6.5l5.3,4.9C183.3,173.4,181,175.7,178.6,177.9z M188.8,167.2l-5.5-4.7
				c2-2.4,3.8-4.8,5.5-7.3l5.8,4.1C192.9,162.1,190.9,164.7,188.8,167.2z M197.3,155.2l-6.1-3.7c1.6-2.6,3.1-5.3,4.4-8.1l6.5,3.1
				c-1.4,3-2.9,5.9-4.5,8.7H197.3z"/>
			<path id="path9631" class="st0" d="M25.8,61.5l-6.5-3.1c1.4-2.8,3-5.9,4.7-8.7l6.2,3.7C28.6,56,27.1,58.8,25.8,61.5z M32.6,49.5
				l-5.9-4c1.9-2.8,3.9-5.4,6-7.9l5.5,4.6C36.2,44.6,34.4,47,32.6,49.5z M41.1,38.7l-5.2-4.8c2.2-2.4,4.6-4.8,7-6.9l4.8,5.2
				C45.5,34.3,43.3,36.5,41.1,38.7L41.1,38.7z M51.2,29.3l-4.5-5.7c2.6-2,5.2-4,8-5.7l4,5.8C56.1,25.5,53.6,27.3,51.2,29.3z
				 M62.6,21.4l-3.7-6.3c2.8-1.7,5.8-3.3,8.8-4.6l3,6.5C67.9,18.3,65.2,19.8,62.6,21.4L62.6,21.4z M74.9,15.1L72,8.5
				c3-1.2,6.2-2.4,9.3-3.3l2.1,6.9C80.6,13,77.7,14,74.9,15.1z M88,10.9l-1.7-6.9C89.4,3.1,92.6,2.5,96,2l1,7.1
				C93.9,9.5,90.9,10.1,88,10.9z M101.6,8.6l-0.7-7.1c3.3-0.3,6.6-0.5,9.9-0.5v7.2C107.7,8.1,104.6,8.3,101.6,8.6z"/>
			<path id="path9633" class="st0" d="M110.7,203.9c-56-0.1-101.4-45.4-101.5-101.5h7.2c0.1,52.1,42.3,94.2,94.3,94.3V203.9z"/>
			<polygon id="polygon9635" class="st0" points="13.2,88.6 24.5,103.5 1.9,103.5 			"/>
			<polygon id="polygon9637" class="st0" points="208.9,113.5 220.2,98.7 197.6,98.7 			"/>
		</g>
	</g>
</g>
</svg>
