<?xml version="1.0" encoding="utf-8"?>
<!-- Generator: Adobe Illustrator 23.0.3, SVG Export Plug-In . SVG Version: 6.00 Build 0)  -->
<svg version="1.1"
	 id="svg308809" xmlns:cc="http://creativecommons.org/ns#" xmlns:dc="http://purl.org/dc/elements/1.1/" xmlns:inkscape="http://www.inkscape.org/namespaces/inkscape" xmlns:rdf="http://www.w3.org/1999/02/22-rdf-syntax-ns#" xmlns:sodipodi="http://sodipodi.sourceforge.net/DTD/sodipodi-0.dtd" xmlns:svg="http://www.w3.org/2000/svg"
	 xmlns="http://www.w3.org/2000/svg" xmlns:xlink="http://www.w3.org/1999/xlink" x="0px" y="0px" viewBox="0 0 66.2 52.3"
	 style="enable-background:new 0 0 66.2 52.3;" xml:space="preserve">
<style type="text/css">
	.st0{fill:#666666;stroke:#000000;stroke-width:0.25;stroke-miterlimit:10;}
	.st1{fill:#666666;}
</style>
<sodipodi:namedview  bordercolor="#666666" borderopacity="1.0" fit-margin-bottom="0" fit-margin-left="0" fit-margin-right="0" fit-margin-top="0" id="base" inkscape:current-layer="layer1" inkscape:cx="1054.1235" inkscape:cy="1229.1594" inkscape:document-units="mm" inkscape:pageopacity="0.0" inkscape:pageshadow="2" inkscape:window-height="2105" inkscape:window-maximized="1" inkscape:window-width="3773" inkscape:window-x="67" inkscape:window-y="27" inkscape:zoom="0.35" pagecolor="#ffffff" showgrid="false">
	</sodipodi:namedview>
<g id="layer1" transform="translate(302.71601,-455.59443)" inkscape:groupmode="layer" inkscape:label="Layer 1">
	<g id="Layer_2-30-8" transform="matrix(0.30746229,0,0,0.30746229,-302.71601,455.59946)">
		<g id="Layer_1-2-78-3">
			<path id="path3474-0" inkscape:connector-curvature="0" class="st0" d="M14,103.7c0-7.5-7.5-11.5-11.5-12.2
				c-1.4-0.3-2.4-1.6-2.5-3v-6.7c0.1-1.3,1.1-2.4,2.3-2.7C5.2,78.8,14,74.3,14,67V43C14,9.4,37.9,0.4,55.1,0c1.5-0.3,3,0.7,3.3,2.3
				c0,0.2,0,0.4,0,0.6l0.3,6.8c0.1,1.4-0.7,2.7-2,3C42,15.2,30,25.5,30,42.9v19.8C30,78.3,19.8,83.6,16.5,85v0.5
				c4.6,2,13.5,6.7,13.5,21.9v20c0,17.5,12,27.6,26.5,30c1.4,0.3,2.3,1.6,2.2,3l-0.3,6.8c-0.1,1.7-1.6,3-3.3,2.8l0,0
				c-17.2-0.3-41.1-9.2-41.1-42.7C14,127.3,14,103.7,14,103.7z"/>
			<path id="path3476-1" inkscape:connector-curvature="0" class="st0" d="M185.1,107.3c0-15.2,8.9-19.8,13.5-21.9V85
				c-3.2-1.3-13.5-6.7-13.5-22.2V43c0-17.5-12-27.8-26.4-30.3c-1.4-0.3-2.3-1.6-2.2-3l0.2-6.9c0-1.6,1.2-2.9,2.8-2.9
				c0.2,0,0.4,0,0.5,0c17.2,0.3,41.2,9.4,41.2,42.9v24c0,7.3,9,11.8,11.7,12.2c1.3,0.3,2.2,1.4,2.3,2.7v6.7c-0.1,1.5-1.2,2.8-2.7,3
				c-3.9,0.7-11.3,4.7-11.3,12.2v23.7c0,33.6-23.9,42.5-41.1,42.7c-1.7,0.1-3.2-1.1-3.3-2.8l0,0l-0.3-6.8c-0.1-1.4,0.8-2.7,2.2-3
				c14.5-2.5,26.5-12.5,26.5-30L185.1,107.3z"/>
			<path id="path3478-7" inkscape:connector-curvature="0" class="st1" d="M69.3,73.5c6.4,0,11.6,5.1,11.7,11.5s-5.1,11.6-11.5,11.7
				s-11.6-5.1-11.7-11.5v-0.1C57.8,78.7,62.9,73.5,69.3,73.5z"/>
			<path id="path3480-8" inkscape:connector-curvature="0" class="st1" d="M107.5,73.5c6.4,0,11.6,5.1,11.7,11.5
				c0,6.4-5.1,11.6-11.5,11.7S96.1,91.6,96,85.2v-0.1C96,78.7,101.2,73.5,107.5,73.5z"/>
			<path id="path3482-9" inkscape:connector-curvature="0" class="st1" d="M145.7,73.5c6.4,0,11.6,5.1,11.7,11.5
				c0,6.4-5.1,11.6-11.5,11.7c-6.4,0-11.6-5.1-11.7-11.5c0,0,0,0,0-0.1C134.2,78.7,139.4,73.5,145.7,73.5z"/>
		</g>
	</g>
</g>
</svg>
