<?xml version="1.0" encoding="utf-8"?>
<!-- Generator: Adobe Illustrator 23.0.3, SVG Export Plug-In . SVG Version: 6.00 Build 0)  -->
<svg version="1.1"
	 id="svg315693" xmlns:cc="http://creativecommons.org/ns#" xmlns:dc="http://purl.org/dc/elements/1.1/" xmlns:inkscape="http://www.inkscape.org/namespaces/inkscape" xmlns:rdf="http://www.w3.org/1999/02/22-rdf-syntax-ns#" xmlns:sodipodi="http://sodipodi.sourceforge.net/DTD/sodipodi-0.dtd" xmlns:svg="http://www.w3.org/2000/svg"
	 xmlns="http://www.w3.org/2000/svg" xmlns:xlink="http://www.w3.org/1999/xlink" x="0px" y="0px" viewBox="0 0 51.7 52.3"
	 style="enable-background:new 0 0 51.7 52.3;" xml:space="preserve">
<style type="text/css">
	.st0{fill:#616161;stroke:#000000;stroke-width:0.25;stroke-miterlimit:10;}
	.st1{fill:none;}
</style>
<sodipodi:namedview  bordercolor="#666666" borderopacity="1.0" fit-margin-bottom="0" fit-margin-left="0" fit-margin-right="0" fit-margin-top="0" id="base" inkscape:current-layer="layer1" inkscape:cx="-1126.9622" inkscape:cy="514.87369" inkscape:document-units="mm" inkscape:pageopacity="0.0" inkscape:pageshadow="2" inkscape:window-height="2105" inkscape:window-maximized="0" inkscape:window-width="1887" inkscape:window-x="67" inkscape:window-y="27" inkscape:zoom="0.35" pagecolor="#ffffff" showgrid="false">
	</sodipodi:namedview>
<g id="layer1" transform="translate(-274.36292,-266.60633)" inkscape:groupmode="layer" inkscape:label="Layer 1">
	<g id="Layer_2-26-1" transform="matrix(0.21133761,0,0,0.21133761,274.36292,266.60633)">
		<g id="Layer_1-2-64-5">
			<path id="path5022-4" inkscape:connector-curvature="0" class="st0" d="M65.8,131.7L0,65.8L65.8,0l17.3,17.3
				c0.4-0.5,0.8-0.9,1.2-1.3c8.7-8.7,22.8-8.7,31.4,0s8.7,22.8,0,31.4c-0.4,0.4-0.8,0.8-1.3,1.2l17.3,17.3l-24.3,24.3l-2.5-4.7
				c-0.7-1.3-1.6-2.6-2.6-3.6c-5.7-5.7-14.9-5.6-20.6,0c-5.7,5.7-5.6,14.9,0,20.6c1,1,2.2,1.9,3.5,2.6l4.7,2.4L65.8,131.7z
				 M10.9,65.8l55,55L77.6,109c-0.4-0.4-0.9-0.8-1.3-1.2c-8.3-9.1-7.6-23.1,1.4-31.4c8.5-7.7,21.4-7.7,29.9,0
				c0.4,0.4,0.8,0.8,1.2,1.3l11.8-11.8L102,47l4.7-2.4c1.3-0.7,2.6-1.6,3.6-2.6c5.5-5.9,5.1-15.1-0.8-20.6c-5.6-5.2-14.2-5.2-19.8,0
				c-1.1,1.1-2,2.3-2.6,3.6l-2.4,4.7L65.8,10.9L10.9,65.8z"/>
			<g>
				<path class="st1" d="M159.3,154.4h26.5l0,0.1h0.1l-1.6,5c-0.5,1.4-0.7,2.9-0.7,4.5c0.4,8,7.1,14.2,15.2,13.9
					c4.6-0.2,8.7-2.6,11.2-6.2c0.1-0.1,0.1-0.2,0.2-0.3c0.3-0.4,0.5-0.8,0.7-1.2c0.3-0.7,0.7-1.3,0.9-2.1c0.9-2.9,0.9-5.9,0-8.8
					l-1.6-5h26.6V76.7h-77.7v16.8c0.6,0,1.2,0,1.8,0c12.3,0.4,21.9,10.8,21.4,23c-0.4,11.7-9.8,21-21.4,21.4c-0.6,0-1.2,0-1.8,0
					v16.5H159.3L159.3,154.4z"/>
				<path class="st1" d="M128.3,200.1c0.4-11.7,9.8-21,21.4-21.4c0.6,0,1.2,0,1.8,0v-16.5h-26.6l1.6-5c0.5-1.4,0.7-2.9,0.7-4.4
					c0.1-8-6.4-14.6-14.4-14.7c-8-0.1-14.6,6.4-14.7,14.4c0,1.6,0.2,3.2,0.7,4.7l1.6,5H73.7v77.6h77.8v-16.7c-0.6,0-1.2,0-1.8,0
					C137.4,222.7,127.8,212.3,128.3,200.1z"/>
				<path class="st1" d="M220.3,163.9c0,4.6-1.5,8.9-3.9,12.4c-0.7,1-1.5,2-2.4,2.9c-0.1,0.1-0.2,0.2-0.3,0.3
					c-3.7,3.7-8.7,6.1-14.3,6.4c-0.5,0-0.9,0.1-1.3,0.1c0,0,0,0-0.1,0c0,0,0,0,0,0c-0.4,0-0.8-0.1-1.2-0.1c-11.7-0.6-21-10.1-21-22
					v-0.1c0-0.6,0-1.2,0-1.8h-16.5v26.6l-0.1,0v0l-2.5-0.8l-2.6-0.8c-1.4-0.5-2.9-0.7-4.4-0.7c-8,0.4-14.2,7.1-13.9,15.2
					c0.3,7.5,6.4,13.6,13.9,13.9c1.5,0,3-0.2,4.4-0.7l5-1.6v0l0.1,0v26.6h77.7v-77.7h-16.6C220.3,162.7,220.3,163.3,220.3,163.9z"/>
				<path class="st0" d="M151.6,69v34.3l5-1.6c1.5-0.5,3.1-0.7,4.7-0.7c8,0.1,14.5,6.7,14.4,14.7c-0.1,8-6.7,14.5-14.7,14.4
					c-1.5,0-3-0.2-4.4-0.7l-5-1.6v26.6h-16.7c0-0.6,0-1.2,0-1.8c-0.4-11.6-9.7-21-21.4-21.4c-12.2-0.5-22.6,9.1-23,21.4
					c0,0.6,0,1.2,0,1.8H66.1v93.1h85.4h7.7h85.4h0.1v-85.4v-7.6V69H151.6z M159.1,137.9c0.6,0,1.2,0,1.8,0
					c11.6-0.4,21-9.7,21.4-21.4c0.5-12.2-9.1-22.6-21.4-23c-0.6,0-1.2,0-1.8,0V76.7h77.7v77.7h-26.6l1.6,5c0.9,2.9,0.9,5.9,0,8.8
					c-0.2,0.7-0.6,1.4-0.9,2.1c-0.2,0.4-0.4,0.8-0.7,1.2c-0.1,0.1-0.1,0.2-0.2,0.3c-2.5,3.6-6.6,6-11.2,6.2
					c-8.1,0.3-14.8-5.9-15.2-13.9c0-1.6,0.2-3.1,0.7-4.5l1.6-5h-0.1l0-0.1h-26.5h-0.1h-0.1V137.9z M151.5,239.8H73.7v-77.6h26.7
					l-1.6-5c-0.5-1.5-0.7-3.1-0.7-4.7c0.1-8,6.7-14.5,14.7-14.4c8,0.1,14.5,6.7,14.4,14.7c0,1.5-0.2,3-0.7,4.4l-1.6,5h26.6v16.5
					c-0.6,0-1.2,0-1.8,0c-11.6,0.4-21,9.7-21.4,21.4c-0.5,12.2,9.1,22.6,21.4,23c0.6,0,1.2,0,1.8,0V239.8z M236.9,239.8h-77.7v-26.6
					l-0.1,0v0l-5,1.6c-1.5,0.5-3,0.7-4.4,0.7c-7.5-0.3-13.6-6.4-13.9-13.9c-0.3-8.1,5.9-14.8,13.9-15.2c1.6,0,3.1,0.2,4.4,0.7
					l2.6,0.8l2.5,0.8v0l0.1,0v-26.6h16.5c0,0.6,0,1.2,0,1.8v0.1c0,11.8,9.3,21.4,21,22c0.4,0,0.8,0.1,1.2,0.1c0,0,0,0,0,0
					c0,0,0,0,0.1,0c0.5,0,0.9-0.1,1.3-0.1c5.6-0.4,10.6-2.7,14.3-6.4c0.1-0.1,0.2-0.2,0.3-0.3c0.9-0.9,1.7-1.8,2.4-2.9
					c2.4-3.5,3.9-7.8,3.9-12.4c0-0.6,0-1.2,0-1.8h16.6V239.8z"/>
			</g>
		</g>
	</g>
</g>
</svg>
