<?xml version="1.0" encoding="utf-8"?>
<!-- Generator: Adobe Illustrator 23.0.3, SVG Export Plug-In . SVG Version: 6.00 Build 0)  -->
<svg version="1.1" id="Layer_1" xmlns:se="http://svg-edit.googlecode.com" xmlns:svg="http://www.w3.org/2000/svg"
	 xmlns="http://www.w3.org/2000/svg" xmlns:xlink="http://www.w3.org/1999/xlink" x="0px" y="0px" viewBox="0 0 612 792"
	 style="enable-background:new 0 0 612 792;" xml:space="preserve">

<!-- <svg width="100%" height="100%" viewBox="0 0 51.9 52.3" xmlns="http://www.w3.org/2000/svg" xmlns:svg="http://www.w3.org/2000/svg" xmlns:se="http://svg-edit.googlecode.com" data-name="Layer 1">	  -->

<style type="text/css">
	.st0{fill:none;}
	.st1{fill:#58595B;}
	.st2{fill:none;stroke:#58595B;stroke-width:0;stroke-linecap:round;stroke-linejoin:round;}
</style>
<g>
	<path class="st0" d="M340.8,140.2c0-19.5-15.9-35.4-35.4-35.4c-19.5,0-35.4,15.9-35.4,35.4s15.9,35.4,35.4,35.4
		C324.9,175.6,340.5,159.7,340.8,140.2z M285.9,144.8c-1.2-1.2-1.2-3.1,0-4.3c1.2-1.2,3.1-1.2,4.3,0l7.9,8.2l22.9-22.9
		c1.2-1.2,3.1-1.2,4.3,0c1,1.2,1,2.9,0.2,4.3l-27.2,27.2L285.9,144.8z"/>
	<path class="st0" d="M583.4,271.7c13.7-13.7,13.7-36.1,0-49.8c-13.7-13.7-36.1-13.7-49.8,0c-13.7,13.7-13.7,36.1,0,49.8
		S569.7,285.4,583.4,271.7z M542.5,234.8c-1.2-1.2-1.2-3.1,0-4.3c1.2-1.2,3.1-1.2,4.3,0l11.8,11.8l11.8-11.6c1.2-1.2,3.1-1.2,4.3,0
		c0,0,0.2,0.2,0.5,0.5c1,1.2,0.7,3.1-0.5,4.3L563,246.6l11.8,11.8c1.2,1.2,1.2,3.1,0,4.3c-0.7,0.7-1.4,1-2.2,1s-1.7-0.5-2.2-1
		L558.6,251l-11.8,11.8c-0.7,0.7-1.4,1-2.2,1c-0.7,0-1.7-0.5-2.2-1c-1.2-1.2-1.2-3.1,0-4.3l11.8-11.8L542.5,234.8z"/>
	<path class="st0" d="M270,651.5c0,0.2,0,0.2,0,0.2c0,19.5,15.9,35.4,35.4,35.4s35.4-15.9,35.4-35.4s-15.9-35.4-35.4-35.4
		C285.9,616.4,270.3,632.3,270,651.5z M325.4,635.9c1,1.2,1,2.9,0,4.3l-27.2,27.2l-12.5-12.8c-1.2-1.2-1.2-3.1,0-4.3
		c1.2-1.2,3.1-1.2,4.3,0l8.2,8.2l22.9-22.6C322.3,634.7,324.2,634.7,325.4,635.9z"/>
	<path class="st0" d="M305.4,463.5c71,0,118-15.2,129.8-28.9v-49.1c-25,16.4-78.2,25.5-129.8,25.5c-51.5,0-104.7-8.9-129.8-25.5
		v49.1C187.9,448.4,234.4,463.5,305.4,463.5z M396.6,417.8c7.7-1.7,15.2-4.3,22.4-7.7c2.9-1.4,6.3-0.2,7.7,2.6s0.2,6.3-2.6,7.7
		c-7.9,3.9-16.4,6.7-24.8,8.7c-0.5,0-1,0-1.4,0c-2.9,0-5.1-1.7-5.5-4.6C391.8,421.6,393.5,418.5,396.6,417.8z"/>
	<path class="st0" d="M27.8,520.3c-13.7,13.7-13.7,36.1,0,49.8s36.1,13.7,49.8,0s13.7-36.1,0-49.8C64,506.6,41.6,506.6,27.8,520.3z
		 M69,556.9c1.2,1.2,1.2,3.1,0,4.3c-0.5,0.7-1.4,1-2.2,1s-1.7-0.5-2.2-1l-11.8-11.8l-11.8,11.8c-0.5,0.7-1.4,1-2.2,1s-1.7-0.5-2.2-1
		c-1.2-1.2-1.2-3.1,0-4.3l11.8-11.8l-11.8-11.8c-1.2-1.2-1.2-3.1,0-4.3c1.2-1.2,3.1-1.2,4.3,0l11.8,11.8L64.7,529
		c1.2-1.2,3.1-1.2,4.3,0c1.2,1.4,1.2,3.4,0,4.3l-11.8,11.8L69,556.9z"/>
	<path class="st0" d="M77.7,221.8c-13.7-13.7-36.1-13.7-49.8,0c-13.7,13.7-13.7,36.1,0,49.8s36.1,13.7,49.8,0
		C91.6,258,91.6,235.6,77.7,221.8z M69,258.7c1.2,1.2,1.2,3.1,0,4.3c-0.5,0.7-1.4,1-2.2,1s-1.7-0.5-2.2-1l-11.8-11.8L41.1,263
		c-0.5,0.7-1.4,1-2.2,1s-1.7-0.5-2.2-1c-1.2-1.2-1.2-3.1,0-4.3l11.8-11.8l-11.8-11.8c-1.2-1.2-1.2-3.1,0-4.3c1.2-1.2,3.1-1.2,4.3,0
		l11.8,11.6l11.8-11.6c1.2-1.2,3.1-1.2,4.3,0c0.1,0,0.1,0,0.1,0c0,0,0,0-0.1,0c1.4,1.4,1.4,3.4,0,4.6l-11.8,11.6L69,258.7z"/>
	<path class="st0" d="M305.4,369.6c71,0,118-15.2,129.8-28.9v-49.1c-26.7,16.4-78,24.8-129.8,24.8c-51.8,0-103.5-8.4-129.8-24.8
		v49.1C187.9,354.5,234.4,369.6,305.4,369.6z M396.6,323.7c7.7-1.7,15.2-4.3,22.4-7.7c0,0,0.2-0.2,0.5-0.2c2.9-1.2,6.5,0.2,7.7,3.1
		c1.2,2.9-0.2,6.5-3.1,7.7c-7.9,3.9-16.4,6.7-24.8,8.7h-1.4c-2.9,0.2-5.5-1.7-5.8-4.6C391.3,327.5,393.5,324.4,396.6,323.7z"/>
	<path class="st0" d="M305.4,398.8c71,0,118-15.2,129.8-28.9v-14.2c-25.5,16.4-78.5,25.3-129.8,25.3c-51.3,0-104.7-8.7-129.8-25.3
		v14.2C187.9,383.6,234.4,398.8,305.4,398.8z"/>
	<path class="st0" d="M583.4,520.3c-13.7-13.7-36.1-13.7-49.8,0c-13.7,13.7-13.7,36.1,0,49.8s36.1,13.7,49.8,0
		S597.2,534.1,583.4,520.3z M574.8,556.9c1.2,1.2,1.2,3.1,0,4.3c-0.7,0.7-1.4,1-2.2,1s-1.7-0.5-2.2-1l-11.8-11.8l-11.8,11.8
		c-0.7,0.7-1.4,1-2.2,1c-0.7,0-1.7-0.5-2.2-1c-1.2-1.2-1.2-3.1,0-4.3l11.8-11.8l-11.8-11.8c-1.2-1.2-1.2-3.1,0-4.3
		c1.2-1.2,3.1-1.2,4.3,0l11.8,11.8l11.8-11.8c1.2-1.2,3.1-1.2,4.3,0c1.2,1.4,1.2,3.4,0,4.3L563,545.1L574.8,556.9z"/>
	<path class="st0" d="M176.4,449.8V464c12.3,13.7,58.7,28.9,129.8,28.9s118-15.2,129.8-28.9v-14.2c-25.5,16.6-78.5,25.5-129.8,25.5
		C254.9,475.3,201.4,466.4,176.4,449.8z"/>
	<path class="st0" d="M306.1,234.4c-32.3-0.7-64.5,3.4-95.6,11.6c-27,7.9-34.2,16.9-34.2,20.5c0,10.8,46,32.3,129.8,32.3
		c32.3,0.7,64.5-3.4,95.6-11.6c27.4-7.9,34.2-16.9,34.2-20.5C435.9,255.8,389.9,234.4,306.1,234.4z"/>
	<path class="st0" d="M175.7,479.2v46c0,10.8,46,32.3,129.8,32.3c32.3,0.7,64.5-3.4,95.6-11.6c27-7.9,34.2-17.1,34.2-20.7v-46
		c-25.5,16.4-78.2,25.3-129.8,25.3S200.7,495.8,175.7,479.2z M396.4,511.7c7.7-1.7,15.2-4.3,22.4-7.7c0,0,0.2,0,0.7-0.2
		c2.9-1.2,6.5,0.2,7.7,3.1c1.2,2.9-0.2,6.5-3.1,7.7c-7.9,3.9-16.4,6.7-24.8,8.7h-1.4c-2.9,0.2-5.5-1.9-6-4.6
		C391.1,515.5,393.3,512.4,396.4,511.7z"/>
	<path class="st1" d="M397.8,335.2h1.4c8.4-1.9,16.9-4.8,24.8-8.7c2.9-1.2,4.3-4.8,3.1-7.7c-1.2-2.9-4.8-4.3-7.7-3.1
		c-0.2,0-0.5,0.2-0.5,0.2c-7.2,3.4-14.7,6-22.4,7.7c-3.1,0.7-5.3,3.9-4.6,7C392.3,333.5,395,335.5,397.8,335.2z"/>
	<path class="st1" d="M397.8,429.1c0.5,0,1,0,1.4,0c8.4-1.9,16.9-4.8,24.8-8.7c2.9-1.4,4.1-4.8,2.6-7.7s-4.8-4.1-7.7-2.6
		c-7.2,3.4-14.7,6-22.4,7.7c-3.1,0.7-4.8,3.9-4.3,6.7C392.8,427.4,395,429.1,397.8,429.1z"/>
	<path class="st1" d="M397.8,523.2h1.4c8.4-1.9,16.9-4.8,24.8-8.7c2.9-1.2,4.3-4.8,3.1-7.7c-1.2-2.9-4.8-4.3-7.7-3.1
		c-0.5,0.2-0.7,0.2-0.7,0.2c-7.2,3.4-14.7,6-22.4,7.7c-3.1,0.7-5.3,3.9-4.6,7C392.3,521.3,395,523.5,397.8,523.2z"/>
	<path class="st1" d="M325.4,125.8c-1.2-1.2-3.1-1.2-4.3,0l-22.9,22.9l-7.9-8.2c-1.2-1.2-3.1-1.2-4.3,0c-1.2,1.2-1.2,3.1,0,4.3
		l12.5,12.5l27.2-27.2C326.3,128.7,326.3,127,325.4,125.8z"/>
	<path class="st1" d="M290,650.3c-1.2-1.2-3.1-1.2-4.3,0c-1.2,1.2-1.2,3.1,0,4.3l12.5,12.8l27.2-27.2c1-1.4,1-3.1,0-4.3
		c-1.2-1.2-3.1-1.2-4.3,0l-22.9,22.6L290,650.3z"/>
	<path class="st1" d="M592.8,511.2c-18.8-18.8-49.3-19-68.4,0c-0.8,0.8-1.5,1.5-2.2,2.3L453,472.6V319.5l69.2-40.9
		c0.7,0.8,1.5,1.6,2.3,2.4c19,19,49.3,19,68.4,0c18.8-19,18.8-49.6,0-68.4c-18.8-18.8-49.3-19-68.4,0
		c-13.6,13.6-17.5,33.3-11.4,50.4L453,298.5v-31.9c-0.2-31.6-68.1-48.6-138.2-50v-28.7c22.2-4.4,39-24,39-47.5
		c0-26.7-21.7-48.4-48.4-48.4S257,113.8,257,140.5c0,23.8,17.1,43.5,39.7,47.6v28.6c-69.9,1.3-137.9,18.3-137.9,50v32.2l-60.3-35.6
		c6.2-17,2.4-36.7-11.4-50.5c-19-18.8-49.6-18.8-68.4,0c-18.8,18.8-19,49.3,0,68.4c19,19,49.3,19,68.4,0c0.8-0.8,1.5-1.6,2.2-2.3
		l69.6,41.1v152.5l-69.7,41.1c-0.7-0.8-1.3-1.5-2.1-2.2c-19-19-49.3-19-68.4,0c-18.8,19-18.8,49.3,0,68.4c18.8,18.8,49.3,19,68.4,0
		c13.6-13.6,17.5-33.5,11.3-50.6l60.4-35.7v32.2c0,31.4,67.9,48.4,137.9,49.7v29.2c-22.7,4-39.7,23.8-39.7,47.4
		c0,26.5,21.7,48.1,48.4,48.4c26.7,0,48.4-21.7,48.1-48.4c-0.2-23.4-16.7-43-38.8-47.3v-29.4c70.1-1.3,138.2-18.3,138.2-49.7v-31.8
		l60.2,35.5c-6.1,17-2.4,36.8,11.3,50.5c19,18.8,49.3,18.8,68.4,0C611.6,560.8,611.8,530.2,592.8,511.2z M533.6,221.8
		c13.7-13.7,36.1-13.7,49.8,0c13.7,13.7,13.7,36.1,0,49.8s-36.1,13.7-49.8,0S519.9,235.6,533.6,221.8z M27.8,271.7
		c-13.7-13.7-13.7-36.1,0-49.8c13.7-13.7,36.1-13.7,49.8,0c14,13.7,14,36.1,0,49.8C64,285.4,41.6,285.4,27.8,271.7z M77.7,570.2
		c-13.7,13.7-36.1,13.7-49.8,0s-13.7-36.1,0-49.8c13.7-13.7,36.1-13.7,49.8,0C91.4,534.1,91.4,556.5,77.7,570.2z M270,140.2
		c0-19.5,15.9-35.4,35.4-35.4c19.5,0,35.4,15.9,35.4,35.4c-0.2,19.5-15.9,35.4-35.4,35.4C285.9,175.6,270,159.7,270,140.2z
		 M175.7,291.7c26.2,16.4,78,24.8,129.8,24.8c51.8,0,103-8.4,129.8-24.8v49.1c-11.8,13.7-58.7,28.9-129.8,28.9
		s-117.5-15.2-129.8-28.9V291.7z M175.7,355.7c25,16.6,78.5,25.3,129.8,25.3c51.3,0,104.2-8.9,129.8-25.3v14.2
		c-11.8,13.7-58.7,28.9-129.8,28.9s-117.5-15.2-129.8-28.9V355.7z M175.7,385.5c25,16.6,78.2,25.5,129.8,25.5
		c51.5,0,104.7-9.1,129.8-25.5v49.1c-11.8,13.7-58.7,28.9-129.8,28.9s-117.5-15.2-129.8-28.9V385.5z M340.8,651.8
		c0,19.5-15.9,35.4-35.4,35.4S270,671.3,270,651.8c0,0,0,0,0-0.2c0.2-19.3,15.9-35.1,35.4-35.1C324.9,616.4,340.8,632.3,340.8,651.8
		z M435.2,525.2c0,3.6-7.2,12.8-34.2,20.7c-31.1,8.2-63.3,12.3-95.6,11.6c-83.8,0-129.8-21.4-129.8-32.3v-46
		c25,16.6,78.2,25.3,129.8,25.3s104.2-8.9,129.8-25.3V525.2z M435.9,464c-11.8,13.7-58.7,28.9-129.8,28.9S188.7,477.7,176.4,464
		v-14.2c25,16.6,78.5,25.5,129.8,25.5c51.3,0,104.2-8.9,129.8-25.5V464z M401.7,287.1c-31.1,8.2-63.3,12.3-95.6,11.6
		c-83.8,0-129.8-21.4-129.8-32.3c0-3.6,7.2-12.5,34.2-20.5c31.1-8.2,63.3-12.3,95.6-11.6c83.8,0,129.8,21.4,129.8,32.3
		C435.9,270.2,429.1,279.1,401.7,287.1z M583.4,570.2c-13.7,13.7-36.1,13.7-49.8,0s-13.7-36.1,0-49.8c13.7-13.7,36.1-13.7,49.8,0
		C597.2,534.1,597.2,556.5,583.4,570.2z"/>
	<path class="st1" d="M574.8,529c-1.2-1.2-3.1-1.2-4.3,0l-11.8,11.8L546.9,529c-1.2-1.2-3.1-1.2-4.3,0c-1.2,1.2-1.2,3.1,0,4.3
		l11.8,11.8l-11.8,11.8c-1.2,1.2-1.2,3.1,0,4.3c0.5,0.5,1.4,1,2.2,1c0.7,0,1.4-0.2,2.2-1l11.8-11.8l11.8,11.8c0.5,0.5,1.4,1,2.2,1
		s1.4-0.2,2.2-1c1.2-1.2,1.2-3.1,0-4.3L563,545.1l11.8-11.8C576,532.4,576,530.5,574.8,529z"/>
	<path class="st1" d="M542.5,262.8c0.5,0.5,1.4,1,2.2,1c0.7,0,1.4-0.2,2.2-1l11.8-11.8l11.8,11.8c0.5,0.5,1.4,1,2.2,1s1.4-0.2,2.2-1
		c1.2-1.2,1.2-3.1,0-4.3L563,246.6l11.8-11.1c1.2-1.2,1.4-3.1,0.5-4.3c-0.2-0.2-0.5-0.5-0.5-0.5c-1.2-1.2-3.1-1.2-4.3,0l-11.8,11.6
		l-11.8-11.8c-1.2-1.2-3.1-1.2-4.3,0c-1.2,1.2-1.2,3.1,0,4.3l11.8,11.8l-11.8,11.8C541.3,259.6,541.3,261.6,542.5,262.8z"/>
	<path class="st2" d="M69,230.7c0.1,0,0.1,0,0.1,0"/>
	<path class="st1" d="M69,230.7c-1.2-1.2-3.1-1.2-4.3,0l-11.8,11.6l-11.8-11.6c-1.2-1.2-3.1-1.2-4.3,0c-1.2,1.2-1.2,3.1,0,4.3
		l11.8,11.8l-11.8,11.8c-1.2,1.2-1.2,3.1,0,4.3c0.5,0.5,1.4,1,2.2,1s1.7-0.2,2.2-1l11.8-11.8L64.7,263c0.5,0.5,1.4,1,2.2,1
		s1.7-0.2,2.2-1c1.2-1.2,1.2-3.1,0-4.3l-11.8-11.8L69,235.3C70.5,234.1,70.5,232.2,69,230.7z"/>
	<path class="st1" d="M69,529c-1.2-1.2-3.1-1.2-4.3,0l-11.8,11.8L41.1,529c-1.2-1.2-3.1-1.2-4.3,0c-1.2,1.2-1.2,3.1,0,4.3l11.8,11.8
		l-11.8,11.8c-1.2,1.2-1.2,3.1,0,4.3c0.5,0.5,1.4,1,2.2,1s1.7-0.2,2.2-1l11.8-11.8l11.8,11.8c0.5,0.5,1.4,1,2.2,1s1.7-0.2,2.2-1
		c1.2-1.2,1.2-3.1,0-4.3l-11.8-11.8L69,533.3C70.2,532.4,70.2,530.5,69,529z"/>
</g>
</svg>
