<?xml version="1.0" encoding="iso-8859-1"?>
<!-- Generator: Adobe Illustrator 23.0.3, SVG Export Plug-In . SVG Version: 6.00 Build 0)  -->
<svg version="1.1"
	 id="svg260964" xmlns:cc="http://creativecommons.org/ns#" xmlns:dc="http://purl.org/dc/elements/1.1/" xmlns:rdf="http://www.w3.org/1999/02/22-rdf-syntax-ns#" xmlns:svg="http://www.w3.org/2000/svg"
	 xmlns="http://www.w3.org/2000/svg" xmlns:xlink="http://www.w3.org/1999/xlink" x="0px" y="0px" viewBox="0 0 51.9 52.3"
	 style="enable-background:new 0 0 51.9 52.3;" xml:space="preserve">
<style type="text/css">
	.st0{fill:#58595B;stroke:#58595B;stroke-width:0.25;}
</style>
<g id="layer1" transform="translate(-439.8895,-54.183714)">
	<g id="Layer_2-1" transform="matrix(0.20414507,0,0,0.20414609,440.02577,54.316006)">
		<g id="Layer_1-2-5">
			<path id="path9761" class="st0" d="M126.3,52.9C96,52.9,65.3,60,65.3,73.7v107.5c0,13.6,30.7,20.7,61.1,20.7s61.1-7.1,61.1-20.7
				V73.7C187.4,60,156.7,52.9,126.3,52.9z M86.8,65.1c12.9-3.4,26.3-5.1,39.7-4.8c34.8,0,53.9,8.9,53.9,13.4c0,1.5-2.8,5.2-14.2,8.5
				c-12.9,3.4-26.3,5.1-39.7,4.8c-34.8,0-53.9-8.9-53.9-13.4C72.6,72.1,75.6,68.4,86.8,65.1z M180.1,116.6c-4.9,5.7-24.4,12-53.9,12
				s-48.8-6.3-53.9-12v-5.9c10.4,6.9,32.6,10.5,53.9,10.5s43.3-3.7,53.9-10.5V116.6z M180.1,122.9v20.6c-4.9,5.7-24.4,12-53.9,12
				s-48.8-6.3-53.9-12v-20.4c10.4,6.9,32.5,10.6,53.9,10.6s43.5-3.8,53.9-10.6V122.9z M72.6,149.8c10.4,6.9,32.6,10.6,53.9,10.6
				s43.3-3.7,53.9-10.6v5.9c-4.9,5.7-24.4,12-53.9,12s-48.8-6.3-53.9-12V149.8z M180.1,104.5c-4.9,5.7-24.4,12-53.9,12
				s-48.8-6.3-53.9-12V84.1c10.9,6.8,32.4,10.3,53.9,10.3s42.8-3.5,53.9-10.3V104.5z M165.9,189.7c-12.9,3.4-26.3,5.1-39.7,4.8
				c-34.8,0-53.9-8.9-53.9-13.4V162c10.4,6.9,32.5,10.5,53.9,10.5s43.3-3.7,53.9-10.5v19.1C180.1,182.6,177.1,186.4,165.9,189.7
				L165.9,189.7z"/>
			<path id="path9763" class="st0" d="M164.6,102.2h0.6c3.5-0.8,7-2,10.3-3.6c1.2-0.5,1.8-2,1.3-3.2c-0.5-1.2-2-1.8-3.2-1.3
				c-0.1,0-0.2,0.1-0.2,0.1c-3,1.4-6.1,2.5-9.3,3.2c-1.3,0.3-2.2,1.6-1.9,2.9C162.3,101.5,163.4,102.3,164.6,102.2L164.6,102.2z"/>
			<path id="path9765" class="st0" d="M164.6,141.2c0.2,0,0.4,0,0.6,0c3.5-0.8,7-2,10.3-3.6c1.2-0.6,1.7-2,1.1-3.2
				c-0.6-1.2-2-1.7-3.2-1.1c0,0,0,0,0,0c-3,1.4-6.1,2.5-9.3,3.2c-1.3,0.3-2,1.6-1.8,2.8C162.5,140.5,163.4,141.2,164.6,141.2z"/>
			<path id="path9767" class="st0" d="M173.3,172.3c-3,1.4-6.1,2.5-9.3,3.2c-1.3,0.3-2.2,1.6-1.9,2.9c0.2,1.1,1.3,2,2.5,1.9h0.6
				c3.5-0.8,7-2,10.3-3.6c1.2-0.5,1.8-2,1.3-3.2c-0.5-1.2-2-1.8-3.2-1.3C173.4,172.3,173.3,172.3,173.3,172.3L173.3,172.3z"/>
			<path id="path9769" class="st0" d="M126.2,1.2c-11.1,0-20.1,9-20.1,20.1s9,20.1,20.1,20.1s20.1-9,20.1-20.1c0,0,0,0,0,0
				C146.3,10.2,137.3,1.2,126.2,1.2z M126.2,35.9c-8.1,0-14.7-6.6-14.7-14.7s6.6-14.7,14.7-14.7c8.1,0,14.7,6.6,14.7,14.7
				C140.8,29.3,134.3,35.9,126.2,35.9z"/>
			<path id="path9771" class="st0" d="M134.5,15.2c-0.5-0.5-1.3-0.5-1.8,0l-9.5,9.5l-3.3-3.4c-0.5-0.5-1.3-0.5-1.8,0c0,0,0,0,0,0
				c-0.5,0.5-0.5,1.3,0,1.8l5.2,5.2l11.3-11.3C134.9,16.4,134.9,15.7,134.5,15.2z"/>
			<path id="path9773" class="st0" d="M126.2,253.8c11.1,0,20.1-9,20-20.1s-9-20.1-20.1-20c-11.1,0-20,9-20,20
				C106.1,244.7,115.1,253.7,126.2,253.8C126.2,253.8,126.2,253.8,126.2,253.8z M126.2,219c8.1,0,14.7,6.6,14.7,14.7
				c0,8.1-6.6,14.7-14.7,14.7c-8.1,0-14.7-6.6-14.7-14.7c0,0,0,0,0-0.1C111.6,225.6,118.1,219,126.2,219z"/>
			<path id="path9775" class="st0" d="M134.5,227.1c-0.5-0.5-1.3-0.5-1.8,0c0,0,0,0,0,0l-9.5,9.4l-3.4-3.4c-0.5-0.5-1.3-0.5-1.8,0
				c-0.5,0.5-0.5,1.3,0,1.8l5.2,5.3l11.3-11.3C134.9,228.3,134.9,227.6,134.5,227.1z"/>
			
				<rect id="rect9777" x="181.4" y="79.8" transform="matrix(0.8611 -0.5084 0.5084 0.8611 -14.6422 113.6412)" class="st0" width="38.6" height="7.5"/>
			
				<rect id="rect9779" x="33" y="167.3" transform="matrix(0.8611 -0.5084 0.5084 0.8611 -79.6836 50.4535)" class="st0" width="39" height="7.5"/>
			
				<rect id="rect9781" x="48.3" y="64.4" transform="matrix(0.5083 -0.8612 0.8612 0.5083 -46.4273 85.9199)" class="st0" width="7.5" height="38.5"/>
			
				<rect id="rect9783" x="196.7" y="151.9" transform="matrix(0.5083 -0.8612 0.8612 0.5083 -48.8794 256.8686)" class="st0" width="7.5" height="38.7"/>
			<rect id="rect9785" x="122.6" y="38.1" class="st0" width="7.5" height="17.2"/>
			<rect id="rect9787" x="122.6" y="197.9" class="st0" width="7.5" height="19.1"/>
			<path id="path9789" class="st0" d="M245.6,203.7c7.8-7.8,7.9-20.5,0-28.4c-7.8-7.8-20.5-7.9-28.4,0c-7.8,7.8-7.9,20.5,0,28.4
				c0,0,0,0,0,0C225.1,211.5,237.7,211.5,245.6,203.7z M221,179.1c5.7-5.7,15-5.7,20.7,0c5.7,5.7,5.7,15,0,20.7s-15,5.7-20.7,0
				c0,0,0,0,0,0C215.3,194.1,215.3,184.8,221,179.1z"/>
			<path id="path9791" class="st0" d="M245.6,51.3c-7.8-7.8-20.5-7.9-28.4,0c-7.8,7.8-7.9,20.5,0,28.4s20.5,7.9,28.4,0c0,0,0,0,0,0
				C253.4,71.8,253.4,59.1,245.6,51.3z M221,75.8c-5.7-5.7-5.7-15,0-20.7c5.7-5.7,15-5.7,20.7,0s5.7,15,0,20.7c0,0,0,0,0,0
				C236,81.5,226.7,81.5,221,75.8z"/>
			<path id="path9793" class="st0" d="M238.1,182.7c-0.5-0.5-1.3-0.5-1.8,0l-4.9,4.9l-4.9-4.9c-0.5-0.5-1.3-0.5-1.8,0
				c-0.5,0.5-0.5,1.3,0,1.8c0,0,0,0,0,0l4.9,4.9l-4.9,4.9c-0.5,0.5-0.5,1.3,0,1.8c0,0,0,0,0,0c0.2,0.2,0.6,0.4,0.9,0.4
				c0.3,0,0.6-0.1,0.9-0.4l4.9-4.9l4.9,4.9c0.2,0.2,0.6,0.4,0.9,0.4c0.3,0,0.6-0.1,0.9-0.4c0.5-0.5,0.5-1.3,0-1.8c0,0,0,0,0,0
				l-4.9-4.9l4.9-4.9C238.6,184.1,238.6,183.3,238.1,182.7C238.1,182.8,238.1,182.8,238.1,182.7z"/>
			<path id="path9795" class="st0" d="M238.1,58.8c-0.5-0.5-1.3-0.5-1.8,0l-4.9,4.8l-4.9-4.9c-0.5-0.5-1.3-0.5-1.8,0
				c-0.5,0.5-0.5,1.3,0,1.8c0,0,0,0,0,0l4.9,4.9l-4.9,4.9c-0.5,0.5-0.5,1.3,0,1.8c0,0,0,0,0,0c0.2,0.2,0.6,0.4,0.9,0.4
				c0.3,0,0.6-0.1,0.9-0.4l4.9-4.9l4.9,4.9c0.2,0.2,0.6,0.4,0.9,0.4c0.3,0,0.6-0.1,0.9-0.4c0.5-0.5,0.5-1.3,0-1.8c0,0,0,0,0,0
				l-4.9-4.9l4.9-4.6c0.5-0.5,0.6-1.3,0.2-1.8C238.2,58.9,238.1,58.8,238.1,58.8z"/>
			<path id="path9797" class="st0" d="M7.1,51.3c-7.8,7.8-7.9,20.5,0,28.4s20.5,7.9,28.4,0s7.9-20.5,0-28.4c0,0,0,0,0,0
				C27.6,43.5,14.9,43.5,7.1,51.3z M31.6,75.8c-5.7,5.7-15,5.7-20.7,0c-5.7-5.7-5.7-15,0-20.7s15-5.7,20.7,0c0,0,0,0,0,0
				C37.4,60.8,37.4,70.1,31.6,75.8z"/>
			<path id="path9799" class="st0" d="M7.1,203.7c7.8,7.8,20.5,7.9,28.4,0c7.8-7.8,7.9-20.5,0-28.4s-20.5-7.9-28.4,0c0,0,0,0,0,0
				C-0.7,183.2-0.7,195.8,7.1,203.7z M31.6,179.1c5.7,5.7,5.7,15,0,20.7c-5.7,5.7-15,5.7-20.7,0c-5.7-5.7-5.7-15,0-20.7c0,0,0,0,0,0
				C16.6,173.4,25.9,173.4,31.6,179.1z"/>
			<path id="path9801" class="st0" d="M28,58.8c-0.5-0.5-1.3-0.5-1.8,0l-4.9,4.8l-4.9-4.8c-0.5-0.5-1.3-0.5-1.8,0
				c-0.5,0.5-0.5,1.3,0,1.8c0,0,0,0,0,0l4.9,4.9l-4.9,4.9c-0.5,0.5-0.5,1.3,0,1.8c0,0,0,0,0,0c0.2,0.2,0.6,0.4,0.9,0.4
				c0.3,0,0.7-0.1,0.9-0.4l4.9-4.9l4.9,4.9c0.2,0.2,0.6,0.4,0.9,0.4c0.3,0,0.7-0.1,0.9-0.4c0.5-0.5,0.5-1.3,0-1.8l-4.9-4.9l4.9-4.8
				C28.6,60.2,28.6,59.4,28,58.8C28.1,58.8,28,58.8,28,58.8z"/>
			<path id="path9803" class="st0" d="M28,182.7c-0.5-0.5-1.3-0.5-1.8,0l-4.9,4.9l-4.9-4.9c-0.5-0.5-1.3-0.5-1.8,0
				c-0.5,0.5-0.5,1.3,0,1.8c0,0,0,0,0,0l4.9,4.9l-4.9,4.9c-0.5,0.5-0.5,1.3,0,1.8c0,0,0,0,0,0c0.2,0.2,0.6,0.4,0.9,0.4
				c0.3,0,0.7-0.1,0.9-0.4l4.9-4.9l4.9,4.9c0.2,0.2,0.6,0.4,0.9,0.4c0.3,0,0.7-0.1,0.9-0.4c0.5-0.5,0.5-1.3,0-1.8l-4.9-4.9l4.9-4.9
				C28.5,184.1,28.5,183.3,28,182.7z"/>
		</g>
	</g>
</g>
</svg>
