<?xml version="1.0" encoding="utf-8"?>
<!-- Generator: Adobe Illustrator 23.0.3, SVG Export Plug-In . SVG Version: 6.00 Build 0)  -->
<!-- <svg version="1.1"
	 id="svg260964" xmlns:cc="http://creativecommons.org/ns#" xmlns:dc="http://purl.org/dc/elements/1.1/" xmlns:rdf="http://www.w3.org/1999/02/22-rdf-syntax-ns#" xmlns:svg="http://www.w3.org/2000/svg"
	 xmlns="http://www.w3.org/2000/svg" xmlns:xlink="http://www.w3.org/1999/xlink" x="0px" y="0px" viewBox="0 0 51.9 52.3"
	 style="enable-background:new 0 0 51.9 52.3;" xml:space="preserve"> -->

<svg width="100%" height="100%" viewBox="0 -0.5 51.9 53.3" xmlns="http://www.w3.org/2000/svg" xmlns:svg="http://www.w3.org/2000/svg" xmlns:se="http://svg-edit.googlecode.com" data-name="Layer 1">	 

<style type="text/css">
	.st0{fill:none;}
	.st1{fill:#58595B;}
	.st2{fill:#58595B;stroke:none;stroke-width:0.7;}
	.st3{fill:none;}
</style>
<g>
	<path class="st0" d="M36.9,21.5v-4.2c-2.3,1.4-6.6,2.1-11,2.1c-4.4,0-8.8-0.7-11-2.1v4.2c1,1.2,5,2.4,11,2.4S35.9,22.6,36.9,21.5z
		 M33.6,20c0.7-0.1,1.3-0.4,1.9-0.7c0,0,0,0,0,0c0.2-0.1,0.6,0,0.7,0.3c0.1,0.2,0,0.6-0.3,0.7c-0.7,0.3-1.4,0.6-2.1,0.7h-0.1
		c-0.2,0-0.5-0.1-0.5-0.4C33.2,20.3,33.4,20.1,33.6,20z"/>
	<path class="st0" d="M36.9,29.4v-4.2c-2.1,1.4-6.6,2.2-11,2.2s-8.9-0.8-11-2.2v4.2c1,1.2,5,2.4,11,2.4S35.9,30.6,36.9,29.4z
		 M33.6,28c0.7-0.1,1.3-0.4,1.9-0.7c0.2-0.1,0.5,0,0.7,0.2s0,0.5-0.2,0.7c-0.7,0.3-1.4,0.6-2.1,0.7c0,0-0.1,0-0.1,0
		c-0.2,0-0.4-0.1-0.5-0.4C33.2,28.3,33.4,28.1,33.6,28z"/>
	<path class="st0" d="M28.9,4.5c0-1.7-1.3-3-3-3s-3,1.3-3,3c0,1.7,1.3,3,3,3S28.9,6.1,28.9,4.5z M24.2,4.8c-0.1-0.1-0.1-0.3,0-0.4
		s0.3-0.1,0.4,0l0.7,0.7l1.9-1.9c0.1-0.1,0.3-0.1,0.4,0c0.1,0.1,0.1,0.2,0,0.4l-2.3,2.3L24.2,4.8z"/>
	<path class="st0" d="M36.9,23.9v-1.2c-2.2,1.4-6.7,2.1-11,2.1c-4.3,0-8.9-0.7-11-2.1v1.2c1,1.2,5,2.4,11,2.4S35.9,25.1,36.9,23.9z"
		/>
	<path class="st0" d="M49.5,15.6c1.2-1.2,1.2-3.1,0-4.2c-1.2-1.2-3.1-1.2-4.2,0s-1.2,3.1,0,4.2S48.3,16.8,49.5,15.6z M46,12.5
		c-0.1-0.1-0.1-0.3,0-0.4c0.1-0.1,0.3-0.1,0.4,0l1,1l1-1c0.1-0.1,0.3-0.1,0.4,0c0,0,0,0,0,0c0.1,0.1,0.1,0.3,0,0.4l-1,0.9l1,1
		c0.1,0.1,0.1,0.3,0,0.4c-0.1,0.1-0.1,0.1-0.2,0.1c-0.1,0-0.1,0-0.2-0.1l-1-1l-1,1c-0.1,0.1-0.1,0.1-0.2,0.1c-0.1,0-0.1,0-0.2-0.1
		c-0.1-0.1-0.1-0.3,0-0.4l1-1L46,12.5z"/>
	<path class="st0" d="M6.6,11.4c-1.2-1.2-3.1-1.2-4.2,0s-1.2,3.1,0,4.2s3.1,1.2,4.2,0C7.8,14.4,7.8,12.5,6.6,11.4z M5.9,14.5
		c0.1,0.1,0.1,0.3,0,0.4c0,0.1-0.1,0.1-0.2,0.1c-0.1,0-0.1,0-0.2-0.1l-1-1l-1,1c0,0.1-0.1,0.1-0.2,0.1c-0.1,0-0.1,0-0.2-0.1
		c-0.1-0.1-0.1-0.3,0-0.4l1-1l-1-1c-0.1-0.1-0.1-0.3,0-0.4c0.1-0.1,0.3-0.1,0.4,0l1,1l1-1c0.1-0.1,0.3-0.1,0.4,0c0,0,0,0,0,0
		c0,0,0,0,0,0c0.1,0.1,0.1,0.3,0,0.4l-1,1L5.9,14.5z"/>
	<path class="st0" d="M2.4,36.7c-1.2,1.2-1.2,3.1,0,4.2s3.1,1.2,4.2,0c1.2-1.2,1.2-3.1,0-4.2C5.4,35.5,3.5,35.5,2.4,36.7z M5.9,39.8
		c0.1,0.1,0.1,0.3,0,0.4c0,0.1-0.1,0.1-0.2,0.1c-0.1,0-0.1,0-0.2-0.1l-1-1l-1,1c0,0.1-0.1,0.1-0.2,0.1c-0.1,0-0.1,0-0.2-0.1
		c-0.1-0.1-0.1-0.3,0-0.4l1-1l-1-1c-0.1-0.1-0.1-0.3,0-0.4c0.1-0.1,0.3-0.1,0.4,0l1,1l1-1c0.1-0.1,0.3-0.1,0.4,0
		c0.1,0.1,0.1,0.3,0,0.4l-1,1L5.9,39.8z"/>
	<path class="st0" d="M22.9,47.8C22.9,47.8,22.9,47.8,22.9,47.8c0,1.7,1.3,3,3,3s3-1.3,3-3c0-1.7-1.3-3-3-3S22.9,46.2,22.9,47.8z
		 M27.6,46.5c0.1,0.1,0.1,0.2,0,0.4l-2.3,2.3l-1.1-1.1c-0.1-0.1-0.1-0.3,0-0.4c0.1-0.1,0.3-0.1,0.4,0l0.7,0.7l1.9-1.9
		C27.3,46.4,27.5,46.4,27.6,46.5z"/>
	<path class="st0" d="M49.5,36.7c-1.2-1.2-3.1-1.2-4.2,0s-1.2,3.1,0,4.2s3.1,1.2,4.2,0C50.6,39.8,50.6,37.9,49.5,36.7z M48.7,39.8
		c0.1,0.1,0.1,0.3,0,0.4c-0.1,0.1-0.1,0.1-0.2,0.1c-0.1,0-0.1,0-0.2-0.1l-1-1l-1,1c-0.1,0.1-0.1,0.1-0.2,0.1c-0.1,0-0.1,0-0.2-0.1
		c-0.1-0.1-0.1-0.3,0-0.4l1-1l-1-1c-0.1-0.1-0.1-0.3,0-0.4c0.1-0.1,0.3-0.1,0.4,0l1,1l1-1c0.1-0.1,0.3-0.1,0.4,0
		c0.1,0.1,0.1,0.3,0,0.4l-1,1L48.7,39.8z"/>
	<path class="st0" d="M26,12.4c-2.7-0.1-5.5,0.3-8.1,1c-2.3,0.7-2.9,1.4-2.9,1.7c0,0.9,3.9,2.7,11,2.7c2.7,0.1,5.5-0.3,8.1-1
		c2.3-0.7,2.9-1.4,2.9-1.7C37,14.3,33.1,12.4,26,12.4z"/>
	<path class="st0" d="M15,30.7v1.2c1,1.2,5,2.4,11,2.4s10-1.3,11-2.4v-1.2c-2.2,1.4-6.7,2.2-11,2.2C21.6,32.9,17.1,32.1,15,30.7z"/>
	<path class="st0" d="M14.9,33.2v3.9c0,0.9,3.9,2.7,11,2.7c2.7,0.1,5.5-0.3,8.1-1c2.3-0.7,2.9-1.4,2.9-1.8v-3.9
		c-2.2,1.4-6.6,2.1-11,2.1S17,34.6,14.9,33.2z M33.6,36c0.7-0.1,1.3-0.4,1.9-0.7c0,0,0,0,0.1,0c0.2-0.1,0.6,0,0.7,0.3
		c0.1,0.2,0,0.6-0.3,0.7c-0.7,0.3-1.4,0.6-2.1,0.7h-0.1c-0.2,0-0.5-0.2-0.5-0.4C33.2,36.3,33.4,36,33.6,36z"/>
	<path class="st1" d="M33.7,21h0.1c0.7-0.2,1.4-0.4,2.1-0.7c0.2-0.1,0.4-0.4,0.3-0.7c-0.1-0.2-0.4-0.4-0.7-0.3c0,0,0,0,0,0
		c-0.6,0.3-1.2,0.5-1.9,0.7c-0.3,0.1-0.4,0.3-0.4,0.6C33.3,20.9,33.5,21,33.7,21z"/>
	<path class="st1" d="M33.7,29c0,0,0.1,0,0.1,0c0.7-0.2,1.4-0.4,2.1-0.7c0.2-0.1,0.3-0.4,0.2-0.7s-0.4-0.3-0.7-0.2
		c-0.6,0.3-1.2,0.5-1.9,0.7c-0.3,0.1-0.4,0.3-0.4,0.6C33.3,28.8,33.5,29,33.7,29z"/>
	<path class="st1" d="M33.7,36.9h0.1c0.7-0.2,1.4-0.4,2.1-0.7c0.2-0.1,0.4-0.4,0.3-0.7c-0.1-0.2-0.4-0.4-0.7-0.3c0,0-0.1,0-0.1,0
		c-0.6,0.3-1.2,0.5-1.9,0.7c-0.3,0.1-0.4,0.3-0.4,0.6C33.3,36.8,33.5,37,33.7,36.9z"/>
	<path class="st1" d="M27.6,3.2c-0.1-0.1-0.3-0.1-0.4,0l-1.9,1.9l-0.7-0.7c-0.1-0.1-0.3-0.1-0.4,0s-0.1,0.3,0,0.4l1.1,1.1l2.3-2.3
		C27.7,3.5,27.7,3.3,27.6,3.2z"/>
	<path class="st1" d="M24.6,47.7c-0.1-0.1-0.3-0.1-0.4,0c-0.1,0.1-0.1,0.3,0,0.4l1.1,1.1l2.3-2.3c0.1-0.1,0.1-0.3,0-0.4
		c-0.1-0.1-0.3-0.1-0.4,0l-1.9,1.9L24.6,47.7z"/>
	<path class="st2" d="M50.3,35.9c-1.6-1.6-4.2-1.6-5.8,0c-0.1,0.1-0.1,0.1-0.2,0.2l-5.9-3.5v-13l5.9-3.5c0.1,0.1,0.1,0.1,0.2,0.2
		c1.6,1.6,4.2,1.6,5.8,0c1.6-1.6,1.6-4.2,0-5.8s-4.2-1.6-5.8,0c-1.1,1.1-1.5,2.8-1,4.3l-5.1,3v-2.7c0-2.7-5.8-4.1-11.7-4.2V8.5
		c1.9-0.4,3.3-2,3.3-4c0-2.3-1.8-4.1-4.1-4.1c-2.3,0-4.1,1.8-4.1,4.1c0,2,1.5,3.7,3.4,4v2.4c-5.9,0.1-11.7,1.6-11.7,4.2v2.7l-5.1-3
		c0.5-1.4,0.2-3.1-1-4.3C5.8,9,3.2,9,1.6,10.6s-1.6,4.2,0,5.8c1.6,1.6,4.2,1.6,5.8,0c0.1-0.1,0.1-0.1,0.2-0.2l5.9,3.5v12.9l-5.9,3.5
		c-0.1-0.1-0.1-0.1-0.2-0.2c-1.6-1.6-4.2-1.6-5.8,0c-1.6,1.6-1.6,4.2,0,5.8c1.6,1.6,4.2,1.6,5.8,0c1.2-1.2,1.5-2.8,0.9-4.3l5.1-3
		v2.7c0,2.7,5.8,4.1,11.7,4.2v2.5c-1.9,0.3-3.4,2-3.4,4c0,2.2,1.8,4.1,4.1,4.1c2.3,0,4.1-1.8,4.1-4.1c0-2-1.4-3.6-3.3-4v-2.5
		c5.9-0.1,11.7-1.6,11.7-4.2v-2.7l5.1,3c-0.5,1.4-0.2,3.1,0.9,4.3c1.6,1.6,4.2,1.6,5.8,0C51.9,40.1,51.9,37.5,50.3,35.9z M45.3,11.4
		c1.2-1.2,3.1-1.2,4.2,0c1.2,1.2,1.2,3.1,0,4.2c-1.2,1.2-3.1,1.2-4.2,0S44.1,12.5,45.3,11.4z M2.4,15.6c-1.2-1.2-1.2-3.1,0-4.2
		s3.1-1.2,4.2,0c1.2,1.2,1.2,3.1,0,4.2C5.4,16.8,3.5,16.8,2.4,15.6z M6.6,40.9c-1.2,1.2-3.1,1.2-4.2,0s-1.2-3.1,0-4.2s3.1-1.2,4.2,0
		C7.8,37.9,7.8,39.8,6.6,40.9z M22.9,4.5c0-1.7,1.3-3,3-3s3,1.3,3,3c0,1.7-1.3,3-3,3S22.9,6.1,22.9,4.5z M14.9,17.3
		c2.2,1.4,6.6,2.1,11,2.1c4.4,0,8.7-0.7,11-2.1v4.2c-1,1.2-5,2.4-11,2.4s-10-1.3-11-2.4V17.3z M14.9,22.7c2.1,1.4,6.7,2.1,11,2.1
		c4.3,0,8.8-0.8,11-2.1v1.2c-1,1.2-5,2.4-11,2.4s-10-1.3-11-2.4V22.7z M14.9,25.3c2.1,1.4,6.6,2.2,11,2.2s8.9-0.8,11-2.2v4.2
		c-1,1.2-5,2.4-11,2.4s-10-1.3-11-2.4V25.3z M28.9,47.8c0,1.7-1.3,3-3,3s-3-1.3-3-3c0,0,0,0,0,0c0-1.6,1.3-3,3-3
		S28.9,46.2,28.9,47.8z M36.9,37.1c0,0.3-0.6,1.1-2.9,1.8c-2.6,0.7-5.4,1-8.1,1c-7.1,0-11-1.8-11-2.7v-3.9c2.1,1.4,6.6,2.1,11,2.1
		s8.8-0.8,11-2.1V37.1z M37,31.9c-1,1.2-5,2.4-11,2.4s-10-1.3-11-2.4v-1.2c2.1,1.4,6.7,2.2,11,2.2c4.3,0,8.8-0.8,11-2.2V31.9z
		 M34.1,16.9c-2.6,0.7-5.4,1-8.1,1c-7.1,0-11-1.8-11-2.7c0-0.3,0.6-1.1,2.9-1.7c2.6-0.7,5.4-1,8.1-1c7.1,0,11,1.8,11,2.7
		C37,15.5,36.4,16.2,34.1,16.9z M49.5,40.9c-1.2,1.2-3.1,1.2-4.2,0s-1.2-3.1,0-4.2s3.1-1.2,4.2,0C50.6,37.9,50.6,39.8,49.5,40.9z"/>
	<path class="st1" d="M48.7,37.4c-0.1-0.1-0.3-0.1-0.4,0l-1,1l-1-1c-0.1-0.1-0.3-0.1-0.4,0c-0.1,0.1-0.1,0.3,0,0.4l1,1l-1,1
		c-0.1,0.1-0.1,0.3,0,0.4c0,0,0.1,0.1,0.2,0.1c0.1,0,0.1,0,0.2-0.1l1-1l1,1c0,0,0.1,0.1,0.2,0.1c0.1,0,0.1,0,0.2-0.1
		c0.1-0.1,0.1-0.3,0-0.4l-1-1l1-1C48.8,37.7,48.8,37.6,48.7,37.4z"/>
	<path class="st1" d="M46,14.9c0,0,0.1,0.1,0.2,0.1c0.1,0,0.1,0,0.2-0.1l1-1l1,1c0,0,0.1,0.1,0.2,0.1c0.1,0,0.1,0,0.2-0.1
		c0.1-0.1,0.1-0.3,0-0.4l-1-1l1-0.9c0.1-0.1,0.1-0.3,0-0.4c0,0,0,0,0,0c-0.1-0.1-0.3-0.1-0.4,0l-1,1l-1-1c-0.1-0.1-0.3-0.1-0.4,0
		c-0.1,0.1-0.1,0.3,0,0.4l1,1l-1,1C45.9,14.6,45.9,14.7,46,14.9z"/>
	<path class="st3" d="M5.9,12.1C5.9,12.1,5.9,12.1,5.9,12.1"/>
	<path class="st1" d="M5.9,12.1c-0.1-0.1-0.3-0.1-0.4,0l-1,1l-1-1c-0.1-0.1-0.3-0.1-0.4,0c-0.1,0.1-0.1,0.3,0,0.4l1,1l-1,1
		c-0.1,0.1-0.1,0.3,0,0.4c0,0,0.1,0.1,0.2,0.1c0.1,0,0.1,0,0.2-0.1l1-1l1,1c0,0,0.1,0.1,0.2,0.1c0.1,0,0.1,0,0.2-0.1
		c0.1-0.1,0.1-0.3,0-0.4l-1-1l1-1C6,12.4,6,12.3,5.9,12.1z"/>
	<path class="st1" d="M5.9,37.4c-0.1-0.1-0.3-0.1-0.4,0l-1,1l-1-1c-0.1-0.1-0.3-0.1-0.4,0c-0.1,0.1-0.1,0.3,0,0.4l1,1l-1,1
		c-0.1,0.1-0.1,0.3,0,0.4c0,0,0.1,0.1,0.2,0.1c0.1,0,0.1,0,0.2-0.1l1-1l1,1c0,0,0.1,0.1,0.2,0.1c0.1,0,0.1,0,0.2-0.1
		c0.1-0.1,0.1-0.3,0-0.4l-1-1l1-1C6,37.7,6,37.6,5.9,37.4z"/>
</g>
</svg>
