<?xml version="1.0" encoding="utf-8"?>
<!-- Generator: Adobe Illustrator 23.0.3, SVG Export Plug-In . SVG Version: 6.00 Build 0)  -->
<svg version="1.1"
	 id="svg229054" xmlns:cc="http://creativecommons.org/ns#" xmlns:dc="http://purl.org/dc/elements/1.1/" xmlns:rdf="http://www.w3.org/1999/02/22-rdf-syntax-ns#" xmlns:svg="http://www.w3.org/2000/svg"
	 xmlns="http://www.w3.org/2000/svg" xmlns:xlink="http://www.w3.org/1999/xlink" x="0px" y="0px" viewBox="0 0 54.8 52.3"
	 style="enable-background:new 0 0 54.8 52.3;" xml:space="preserve">
<style type="text/css">
	.st0{fill:#58595B;stroke:#58595B;stroke-width:0.25;}
	.st1{fill:#58595B;}
	.st2{fill:#CCCCCC;}
</style>
<g id="layer1" transform="translate(97.350272,-200.08252)">
	<g id="Layer_2-83-4" transform="matrix(0.22252467,0,0,0.22252467,-97.350272,200.08255)">
		<g id="Layer_1-2-18-2">
			<path id="path5924-2" class="st0" d="M209.6,11.5c3.1,0,5.7,2.5,5.7,5.7v111.6h-26.7l4.3,7.7h24l15.7,25.1h-26l2.1,3.9h26v1.8
				c0,5.3-4.3,9.6-9.6,9.6H215l6.2,11.6h3.7c11.7,0,21.2-9.4,21.3-21.1v-0.1v-3.8c0-1.1-0.3-2.1-0.9-3.1L226.8,131V17.3
				c0-9.5-7.7-17.2-17.2-17.3H36.7c-9.6-0.1-17.4,7.6-17.4,17.2v0.1V131L0.9,160.4c-0.6,0.9-0.9,2-0.9,3.1v3.8
				c0,11.7,9.5,21.1,21.1,21.1h173.7l-6.3-11.5H21.3c-5.3,0.1-9.7-4.2-9.8-9.5c0-0.1,0-0.1,0-0.2v-1.9h170.6l-2.1-3.7h-26.6
				l-1.6-9.6H94.2l-1.6,9.6H13.8l15.6-25h137l-4.2-7.8H30.8V17.3c0-3.1,2.5-5.7,5.7-5.7h76.3l0.7,3.8h19.3l0.8-3.9H209.6z"/>
			<polyline id="polyline5926-6" class="st1" points="76.3,40.1 94.6,75.6 134,45.3 222.8,204.1 236.3,196.8 235.4,235.1 
				202.7,215.2 216.1,207.8 131.6,56.9 92,87.3 67.7,40.1 			"/>
			<path id="path5928-4" class="st1" d="M56.9,104.2V33c0.1-1.1-0.6-2-1.7-2.1s-2,0.6-2.1,1.7c0,0.2,0,0.3,0,0.5v73.1
				c0,1,0.9,1.9,1.9,1.9l0,0h135.9c1.1-0.1,1.8-1.1,1.7-2.1c-0.1-0.9-0.8-1.6-1.7-1.7"/>
			<polygon id="polygon5930-1" class="st2" points="155.8,117 157.9,120.8 40.2,120.8 40.2,20.8 205.6,20.8 205.6,120.8 
				184.2,120.8 182.1,117 201.7,117 201.7,24.7 44.1,24.7 44.1,117 			"/>
			<circle id="circle5932-2" class="st1" cx="71.9" cy="40.1" r="7.6"/>
		</g>
	</g>
</g>
</svg>
