<?xml version="1.0" encoding="iso-8859-1"?>
<!-- Generator: Adobe Illustrator 23.0.3, SVG Export Plug-In . SVG Version: 6.00 Build 0)  -->
<!-- <svg version="1.1"
	 id="svg237506" xmlns:cc="http://creativecommons.org/ns#" xmlns:dc="http://purl.org/dc/elements/1.1/" xmlns:rdf="http://www.w3.org/1999/02/22-rdf-syntax-ns#" xmlns:svg="http://www.w3.org/2000/svg"
	 xmlns="http://www.w3.org/2000/svg" xmlns:xlink="http://www.w3.org/1999/xlink" x="0px" y="0px" viewBox="0 0 52.7 52.3"
	 style="enable-background:new 0 0 52.7 52.3;" xml:space="preserve"> -->

<svg width="100%" height="100%" viewBox="-0.5 -0.5 53.7 53.3" xmlns="http://www.w3.org/2000/svg" xmlns:svg="http://www.w3.org/2000/svg" xmlns:se="http://svg-edit.googlecode.com" data-name="Layer 1">

<style type="text/css">
	.st0{fill:#58595B;stroke:none;stroke-width:2;}
</style>
<g id="layer1" transform="translate(26.683204,-180.42776)">
	<g id="Layer_2-61" transform="matrix(0.33804725,0,0,0.33804725,-26.683204,180.42776)">
		<g id="Layer_1-2-7">
			<path id="path9902" class="st0" d="M155.3,136.9l-11.6-18.6v-72c-6,0-10.9-4.9-10.9-10.9c0,0,0,0,0,0h-8.5l-4.1,7.2h12.6
				c0,2,1.6,3.6,3.6,3.7c0,0,0,0,0,0v70.8H19.5V46.3c2,0,3.6-1.6,3.6-3.6c0,0,0-0.1,0-0.1h48.2l0.5,2.4H84l0.5-2.4h19l4-7.3H23.1
				c0.1,6-4.8,11-10.8,11.1c0,0-0.1,0-0.1,0v72L0.6,136.9c0,0.7-0.2,1.4-0.6,2v2.4c7.4,0,13.4,6,13.4,13.4h129.1
				c0-7.4,5.9-13.4,13.4-13.5c0,0,0,0,0.1,0v-2.4C155.5,138.3,155.3,137.6,155.3,136.9z M18.6,121.9h118.7l9.9,15.8H97.2l-0.9-6.2
				H59.7l-1,6.1H8.7L18.6,121.9z M142.5,147.4H13.4c0-3.4-2.7-6.1-6.1-6.1v-1.2h141.3v1.2C145.2,141.3,142.5,144,142.5,147.4z"/>
			<path id="path9904" class="st0" d="M83.5,89.2L58.4,70L42.9,99.9h-5.2V59.7c0-0.7-0.5-1.2-1.2-1.2c-0.7,0-1.2,0.5-1.2,1.2
				c0,0,0,0,0,0v41.4c0.7,0,1.2,0.5,1.2,1.2l0,0h82.8c0.7,0,1.2-0.5,1.2-1.2l0,0c0-0.7-0.5-1.2-1.2-1.2l0,0H48.5l11.6-22.5L85,96.6
				l42.2-77l8.5,4.7L135.2,0l-20.8,12.6l8.5,4.7L83.5,89.2z"/>
			<polygon id="polygon9906" class="st0" points="25.6,112.1 130.3,112.1 130.3,48.7 116.8,48.7 115.5,51.2 127.9,51.2 127.9,109.6 
				28,109.6 28,51.2 98.8,51.2 100.1,48.7 25.6,48.7 			"/>
		</g>
	</g>
</g>
</svg>
