<?xml version="1.0" encoding="iso-8859-1"?>
<!-- Generator: Adobe Illustrator 23.0.3, SVG Export Plug-In . SVG Version: 6.00 Build 0)  -->
<svg version="1.1"
	 id="svg242725" xmlns:cc="http://creativecommons.org/ns#" xmlns:dc="http://purl.org/dc/elements/1.1/" xmlns:rdf="http://www.w3.org/1999/02/22-rdf-syntax-ns#" xmlns:svg="http://www.w3.org/2000/svg"
	 xmlns="http://www.w3.org/2000/svg" xmlns:xlink="http://www.w3.org/1999/xlink" x="0px" y="0px" viewBox="0 0 51.8 51.7"
	 style="enable-background:new 0 0 51.8 51.7;" xml:space="preserve">
<style type="text/css">
	.st0{fill:#58595B;stroke:#58595B;stroke-width:0.25;}
</style>
<g id="layer1" transform="translate(32.948107,-139.70634)">
	<g id="Layer_2-8-7" transform="matrix(0.26453183,0,0,0.26453183,-32.948107,139.70764)">
		<g id="Layer_1-2-6-1">
			<path id="path4316-2" class="st0" d="M180.3,150V91.4c-2.8,3.6-5.9,7.1-9.2,10.3v46.5H24.4V59.5c0-2.5,2.1-4.6,4.6-4.6h0h60.5
				c0,0-1.2-4.9-2-9.2H29c-7.6,0-13.7,6.2-13.7,13.7V150L0.7,173.3C0.2,174,0,174.9,0,175.8v3.1c0,9.3,7.5,16.8,16.8,16.8h162
				c9.3,0,16.8-7.5,16.8-16.8v-3c0-0.9-0.2-1.7-0.7-2.4L180.3,150z M23.4,154.4h148.9l12.4,19.8h-62.8l-1.3-7.7H74.9l-1.2,7.7H10.9
				L23.4,154.4z M186.4,178.8c0,4.2-3.4,7.7-7.7,7.7H16.8c-4.2,0-7.7-3.4-7.7-7.7l0,0v-1.5h177.3L186.4,178.8z"/>
			<path id="path4318-2" class="st0" d="M133.5,96.4l-1.4-1.2L133.5,96.4z"/>
			<path id="path4320-1" class="st0" d="M132.1,95.1l-2-1.8L132.1,95.1z"/>
			<path id="path4322-5" class="st0" d="M130,93.4l-1.5-1.4L130,93.4z"/>
			<path id="path4324-0" class="st0" d="M128.5,91.9l-2.1-2L128.5,91.9z"/>
			<path id="path4326-9" class="st0" d="M139.5,100.7l-1-0.7L139.5,100.7z"/>
			<path id="path4328-0" class="st0" d="M138.5,100l-1.9-1.3L138.5,100z"/>
			<path id="path4330-4" class="st0" d="M135.4,97.8l-2-1.4L135.4,97.8z"/>
			<path id="path4332-0" class="st0" d="M141.3,101.8l-1.8-1.1L141.3,101.8z"/>
			<path id="path4334-1" class="st0" d="M136.7,98.7l-1.2-0.9L136.7,98.7z"/>
			<path id="path4336-3" class="st0" d="M112.7,71.8c-0.7-1.2-1.3-2.4-2-3.7C111.4,69.4,112.1,70.6,112.7,71.8z"/>
			<path id="path4338-7" class="st0" d="M124.7,88.3c-0.7-0.7-1.4-1.5-2.1-2.3C123.4,86.8,124.1,87.5,124.7,88.3z"/>
			<path id="path4340-4" class="st0" d="M110.8,68c-0.3-0.6-0.6-1.1-0.9-1.7C110.2,67,110.6,67.5,110.8,68z"/>
			<path id="path4342-1" class="st0" d="M109.9,66.4c-0.9-1.9-1.7-3.8-2.5-5.8C108.2,62.6,109,64.5,109.9,66.4z"/>
			<path id="path4344-1" class="st0" d="M113.8,73.7l-1.1-1.9L113.8,73.7z"/>
			<path id="path4346-3" class="st0" d="M114.7,75.2L114.7,75.2l-0.9-1.5C114.2,74.2,114.4,74.8,114.7,75.2z"/>
			<path id="path4348-0" class="st0" d="M121.1,84.1c-0.7-0.8-1.4-1.7-2-2.6C119.8,82.4,120.4,83.2,121.1,84.1z"/>
			<path id="path4350-3" class="st0" d="M122.7,86l-1.6-2L122.7,86z"/>
			<path id="path4352-2" class="st0" d="M118.2,80.4l0.9,1.1L118.2,80.4L118.2,80.4z"/>
			<path id="path4354-1" class="st0" d="M162.9,88.3l-1.6,1.7L162.9,88.3z"/>
			<path id="path4356-7" class="st0" d="M107.4,60.6c0-0.4-0.3-0.8-0.4-1.1C107.1,59.8,107.3,60.2,107.4,60.6z"/>
			<path id="path4358-5" class="st0" d="M161.3,90l-2,2L161.3,90z"/>
			<path id="path4360-6" class="st0" d="M159.3,91.9l-1.6,1.4L159.3,91.9z"/>
			<path id="path4362-5" class="st0" d="M165,86c-0.7,0.8-1.4,1.5-2.1,2.3C163.6,87.5,164.4,86.8,165,86z"/>
			<path id="path4364-4" class="st0" d="M172.9,75.2c0.3-0.5,0.6-1,0.9-1.5L172.9,75.2L172.9,75.2z"/>
			<path id="path4366-2" class="st0" d="M166.6,84l-1.6,2L166.6,84z"/>
			<path id="path4368-2" class="st0" d="M169.5,80.4L169.5,80.4l-0.8,1.1L169.5,80.4z"/>
			<path id="path4370-1" class="st0" d="M157.7,93.4l-2,1.7L157.7,93.4z"/>
			<path id="path4372-7" class="st0" d="M168.7,81.5c-0.7,0.9-1.3,1.7-2,2.6C167.2,83.2,168,82.4,168.7,81.5z"/>
			<path id="path4374-2" class="st0" d="M152.3,97.8l-1.2,0.9L152.3,97.8z"/>
			<path id="path4376-4" class="st0" d="M146.5,101.8l-0.7,0.4L146.5,101.8z"/>
			<path id="path4378-1" class="st0" d="M148.2,100.7l-1.8,1.1L148.2,100.7z"/>
			<path id="path4380-6" class="st0" d="M145.8,102.3l-1.9,1.1L145.8,102.3z"/>
			<path id="path4382-5" class="st0" d="M143.9,103.4l-1.9-1.1L143.9,103.4z"/>
			<path id="path4384-7" class="st0" d="M149.2,100l-1,0.7L149.2,100z"/>
			<path id="path4386-8" class="st0" d="M142,102.3l-0.7-0.4L142,102.3z"/>
			<path id="path4388-5" class="st0" d="M154.3,96.4l-2,1.5L154.3,96.4z"/>
			<path id="path4390-9" class="st0" d="M151.1,98.7l-1.9,1.3L151.1,98.7z"/>
			<path id="path4392-2" class="st0" d="M155.7,95.1l-1.4,1.2L155.7,95.1z"/>
			<path id="path4394-7" class="st0" d="M126.4,90l-1.7-1.7L126.4,90z"/>
			<path id="path4396-3" class="st0" d="M182.5,54.2c-0.5,1.8-1.1,3.6-1.8,5.3C181.4,57.7,182,56,182.5,54.2z"/>
			<path id="path4398-6" class="st0" d="M177.8,66.4c-0.3,0.6-0.6,1.1-0.9,1.7C177.3,67.5,177.6,67,177.8,66.4z"/>
			<path id="path4400-4" class="st0" d="M180.7,59.5c0,0.4-0.3,0.8-0.4,1.1C180.5,60.2,180.6,59.8,180.7,59.5z"/>
			<path id="path4402-7" class="st0" d="M180.3,60.6c-0.8,2-1.6,4-2.5,5.8C178.6,64.5,179.5,62.6,180.3,60.6z"/>
			<path id="path4404-9" class="st0" d="M183.1,51.9c-0.2,0.8-0.4,1.5-0.6,2.3C182.7,53.4,182.9,52.6,183.1,51.9z"/>
			<path id="path4406-7" class="st0" d="M184.3,47.1c-0.3,1.6-0.7,3.2-1.2,4.7C183.5,50.3,183.9,48.8,184.3,47.1z"/>
			<path id="path4408-2" class="st0" d="M185.7,39.3c-0.2,1.8-0.5,3.5-0.8,5.2C185.2,42.8,185.4,41.1,185.7,39.3z"/>
			<path id="path4410-2" class="st0" d="M184.8,44.5c-0.2,0.9-0.3,1.8-0.5,2.6C184.5,46.3,184.6,45.4,184.8,44.5z"/>
			<path id="path4412-1" class="st0" d="M173.9,73.7l1.1-1.9L173.9,73.7z"/>
			<path id="path4414-6" class="st0" d="M186,36.9c0,0.8-0.2,1.6-0.3,2.4C185.8,38.5,185.9,37.7,186,36.9z"/>
			<path id="path4416-3" class="st0" d="M107,59.5c-0.6-1.7-1.2-3.5-1.8-5.3C105.8,56,106.4,57.7,107,59.5z"/>
			<path id="path4418-0" class="st0" d="M177,68c-0.7,1.3-1.3,2.6-2,3.7C175.7,70.6,176.3,69.4,177,68z"/>
			<path id="path4420-2" class="st0" d="M101.1,28.7c4.6-0.9,9.1-2,13.6-3.4C110.3,26.7,105.7,27.8,101.1,28.7z"/>
			<path id="path4422-1" class="st0" d="M101.8,36.9c-0.3-2.6-0.5-5.4-0.6-8.2C101.3,31.5,101.5,34.2,101.8,36.9z"/>
			<path id="path4424-5" class="st0" d="M102.9,44.5c-0.3-1.7-0.6-3.5-0.8-5.2C102.3,41.1,102.6,42.8,102.9,44.5z"/>
			<path id="path4426-6" class="st0" d="M102,39.3c0-0.8-0.2-1.6-0.3-2.5C101.8,37.7,102,38.5,102,39.3z"/>
			<path id="path4428-5" class="st0" d="M105.2,54.2c-0.2-0.7-0.4-1.5-0.6-2.3C104.9,52.6,104.9,53.4,105.2,54.2z"/>
			<path id="path4430-0" class="st0" d="M103.4,47.1c-0.2-0.9-0.4-1.7-0.5-2.6C103.1,45.4,103.3,46.3,103.4,47.1z"/>
			<path id="path4432-0" class="st0" d="M104.6,51.9c-0.4-1.5-0.8-3.1-1.2-4.7C103.8,48.8,104.2,50.3,104.6,51.9z"/>
			<path id="path4434-3" class="st0" d="M172.9,25.3c4.5,1.4,9,2.5,13.6,3.4C181.9,27.8,177.4,26.7,172.9,25.3z"/>
			<path id="path4436-4" class="st0" d="M156.3,18.4c2.9,1.5,5.8,2.9,8.8,4.1C162.2,21.3,159.2,19.9,156.3,18.4z"/>
			<path id="path4438-6" class="st0" d="M143.9,10.5c3.2,2.4,6.5,4.6,10,6.5C150.4,15.1,147,12.9,143.9,10.5z"/>
			<path id="path4440-6" class="st0" d="M133.9,17c3.5-2,6.8-4.2,10-6.6C140.7,12.8,137.3,15.1,133.9,17z"/>
			<path id="path4442-0" class="st0" d="M122.6,22.5c3-1.2,6-2.6,8.8-4.1C128.5,19.9,125.6,21.3,122.6,22.5z"/>
			<path id="path4444-2" class="st0" d="M153.9,17c0.8,0.5,1.6,0.8,2.4,1.2C155.5,18,154.7,17.6,153.9,17z"/>
			<path id="path4446-5" class="st0" d="M186.6,28.7c0,2.8-0.3,5.7-0.6,8.2C186.3,34.2,186.5,31.5,186.6,28.7z"/>
			<path id="path4448-8" class="st0" d="M131.4,18.4c0.8-0.4,1.6-0.8,2.4-1.2C133.2,17.6,132.2,18,131.4,18.4z"/>
			<path id="path4450-9" class="st0" d="M191.9,20.3c-18.5-2.8-33.6-9.2-45.1-19.2c-1.7-1.5-4.3-1.5-6,0
				c-11.3,9.9-26.6,16.4-45,19.1c-2.2,0.3-3.9,2.3-3.9,4.5c0,64.2,48,86.9,50,87.9c1.2,0.6,2.6,0.6,3.8,0c2-0.9,50-23.7,50-87.9
				C195.8,22.5,194.1,20.6,191.9,20.3z M172.9,75.2L172.9,75.2c-1.1,1.9-2.3,3.6-3.5,5.2l0,0l-0.9,1.1c-0.7,0.9-1.3,1.7-2,2.6
				l-1.6,2c-0.7,0.8-1.4,1.5-2.1,2.3l-1.6,1.7l-2,2l-1.6,1.4l-2,1.7l-1.4,1.2l-2,1.5l-1.2,0.9l-1.9,1.3l-1,0.7l-1.8,1.1l-0.7,0.4
				l-1.9,1.1l-1.9-1.1l-0.7-0.4l-1.8-1.1l-1-0.7l-1.9-1.3l-1.2-0.9l-1.8-1.4l-1.4-1.2l-2-1.8l-1.5-1.4l-2.1-2l-1.7-1.8
				c-0.7-0.7-1.4-1.5-2.1-2.3l-1.6-2c-0.7-0.8-1.4-1.7-2-2.6l-0.9-1.1l0,0c-1.2-1.6-2.4-3.3-3.5-5.2l0,0c-0.3-0.5-0.6-1-0.9-1.5
				l-1.1-1.9c-0.7-1.2-1.3-2.4-2-3.7c-0.3-0.6-0.6-1.1-0.9-1.7c-0.9-1.9-1.7-3.8-2.5-5.8c-0.1-0.4-0.3-0.8-0.4-1.1
				c-0.6-1.7-1.2-3.5-1.8-5.3c-0.2-0.7-0.4-1.5-0.6-2.3c-0.4-1.5-0.8-3.1-1.2-4.7c-0.2-0.9-0.4-1.7-0.5-2.6
				c-0.3-1.7-0.6-3.5-0.8-5.2c0-0.8-0.2-1.6-0.3-2.5c-0.3-2.6-0.5-5.4-0.6-8.2c4.6-0.8,9.1-2,13.6-3.4c2.7-0.8,5.3-1.8,7.8-2.8
				c3-1.2,6-2.6,8.8-4.1c0.8-0.4,1.7-0.8,2.4-1.2c3.5-2,6.8-4.2,10-6.6c3.2,2.4,6.5,4.6,10,6.5c0.8,0.5,1.6,0.8,2.4,1.2
				c2.9,1.5,5.8,2.9,8.8,4.1c2.5,1,5.1,2,7.8,2.8c4.5,1.4,9,2.5,13.6,3.4c0,2.8-0.3,5.7-0.6,8.2c0,0.8-0.2,1.6-0.3,2.4
				c-0.2,1.8-0.5,3.5-0.8,5.2c-0.2,0.9-0.3,1.8-0.5,2.6c-0.3,1.6-0.7,3.2-1.2,4.7c-0.2,0.8-0.4,1.5-0.6,2.3
				c-0.5,1.8-1.1,3.6-1.8,5.3c0,0.4-0.3,0.8-0.4,1.1c-0.8,2-1.6,4-2.5,5.8c-0.3,0.6-0.6,1.1-0.9,1.7c-0.7,1.3-1.3,2.6-2,3.7
				l-1.1,1.9C173.6,74.2,173.3,74.8,172.9,75.2z"/>
			<path id="path4452-5" class="st0" d="M180.3,34.3c-0.8,10.1-3.4,20-7.5,29.2c-1.4,3-3,5.9-4.7,8.7c-1.5,2.5-3.2,4.9-5,7.2
				c-0.7,1-1.5,1.9-2.3,2.8c-4.6,5.4-9.9,10.2-15.8,14.2c-0.3,0.2-0.6,0.3-0.9,0.3c-0.3,0-0.6-0.1-0.8-0.3c-4.9-3.2-9.5-7-13.5-11.3
				c-0.5-0.6-0.4-1.6,0.2-2.1c0.6-0.5,1.6-0.4,2.1,0.1c3.6,3.9,7.7,7.4,12,10.4c4.6-3.3,8.9-7,12.6-11.3c0.9-0.9,1.7-1.8,2.5-2.8
				c2-2.3,3.7-4.7,5.3-7.2c1.8-2.8,3.4-5.7,4.9-8.7c4.4-9.3,7-19.2,7.9-29.5c0.1-0.8,0.8-1.4,1.6-1.3
				C179.7,32.8,180.3,33.4,180.3,34.3C180.3,34.2,180.3,34.2,180.3,34.3z"/>
			<path id="path4454-0" class="st0" d="M152.4,69.5c0,2.1-0.9,4.1-2.4,5.5c-3.4,3.1-8.6,3.1-12,0c-1.5-1.5-2.3-3.4-2.3-5.5
				c0-2.4,1.2-4.7,3.2-6c1.5-1.2,3.3-1.9,5.2-1.9c1.9,0,3.8,0.6,5.3,1.9C151.3,64.9,152.4,67.2,152.4,69.5z"/>
			<path id="path4456-6" class="st0" d="M148.6,51.5c0.2,2.5-1.7,4.8-4.2,5c-2.5,0.2-4.8-1.7-5-4.2c0-0.2,0-0.5,0-0.7l-2.3-19
				c-0.2-3.8,2.6-7.1,6.5-7.3c3.8-0.2,7.1,2.6,7.3,6.5c0,0.3,0,0.6,0,0.9L148.6,51.5z"/>
			<path id="path4458-0" class="st0" d="M32.1,142.1h131.4v-33.7c-1,0.9-2.1,1.6-3.1,2.3v28.3H35.1V65.7H93c-0.4-1-0.8-2-1.1-3.1
				H32.1V142.1z"/>
		</g>
	</g>
</g>
</svg>
