<?xml version="1.0" encoding="iso-8859-1"?>
<!-- Generator: Adobe Illustrator 23.0.3, SVG Export Plug-In . SVG Version: 6.00 Build 0)  -->
<!-- <svg version="1.1"
	 id="svg215177" xmlns:cc="http://creativecommons.org/ns#" xmlns:dc="http://purl.org/dc/elements/1.1/" xmlns:rdf="http://www.w3.org/1999/02/22-rdf-syntax-ns#" xmlns:svg="http://www.w3.org/2000/svg"
	 xmlns="http://www.w3.org/2000/svg" xmlns:xlink="http://www.w3.org/1999/xlink" x="0px" y="0px" viewBox="0 0 52.3 52.3"
	 style="enable-background:new 0 0 52.3 52.3;" xml:space="preserve"> -->

<svg width="100%" height="100%" viewBox="-0.5 -0.5 53.3 53.3" xmlns="http://www.w3.org/2000/svg" xmlns:svg="http://www.w3.org/2000/svg" xmlns:se="http://svg-edit.googlecode.com" data-name="Layer 1">

<style type="text/css">
	.st0{fill:#58595B;stroke:none;stroke-width:2;}
</style>
<g id="layer1" transform="translate(33.0395,-139.60633)">
	<g id="Layer_2-57-4" transform="matrix(0.26362857,0,0,0.26362857,-33.0395,139.60633)">
		<g id="Layer_3-4-3">
			<path id="path5819-1" class="st0" d="M182.9,152.1v-34.3h-9.3v32.6H24.8V60.5c0-2.6,2.1-4.6,4.6-4.6h61.4l0.6,3.1h10.9
				c0.5-5,3.1-9.5,7.2-12.4H29.5c-7.7,0-13.9,6.2-13.9,13.9l0,0v91.7L0.7,175.7c-0.5,0.7-0.7,1.6-0.7,2.5v3.2c0,9.4,7.6,17,17,17
				h164.4c9.4,0,17-7.6,17-17v-3.1c0-0.9-0.2-1.7-0.7-2.5L182.9,152.1z M23.7,156.6h151l12.6,20.2h-63.6l-1.3-7.7H76l-1.3,7.7H11.1
				L23.7,156.6z M189.1,181.4c0,4.2-3.5,7.7-7.7,7.7H17c-4.2,0-7.7-3.5-7.7-7.7v-1.5h179.8V181.4z"/>
			<path id="path5821-4" class="st0" d="M187.6,49.6h-3.1V34c0-18.8-13.9-34-31-34s-31,15.3-31,34v15.6h-3.1
				c-6,0-10.8,4.9-10.9,10.9v40.3c0,6,4.9,10.8,10.9,10.9h68.2c6,0,10.8-4.9,10.9-10.9V60.5C198.4,54.5,193.6,49.6,187.6,49.6z
				 M131.8,34c0-13.7,9.8-24.8,21.7-24.8s21.7,11.2,21.7,24.8v15.6h-43.4V34z M189.1,100.8c0,0.8-0.7,1.5-1.6,1.5h-68.2
				c-0.9,0-1.5-0.7-1.6-1.5V60.5c0-0.9,0.7-1.6,1.6-1.6h68.2c0.9,0,1.6,0.7,1.6,1.6v0V100.8z"/>
			<path id="path5823-6" class="st0" d="M153.5,66.7c-5.1,0-9.3,4.2-9.3,9.3c0,3.9,2.5,7.4,6.2,8.7V93c0,1.7,1.4,3.1,3.1,3.1
				c1.7,0,3.1-1.4,3.1-3.1v-8.3c4.8-1.7,7.4-7,5.6-11.9C160.9,69.2,157.4,66.7,153.5,66.7z"/>
			<polygon id="polygon5825-9" class="st0" points="162.8,117.8 162.8,141.1 35.7,141.1 35.7,66.7 102.3,66.7 102.3,63.6 32.5,63.6 
				32.5,144.2 165.9,144.2 165.9,117.8 			"/>
		</g>
	</g>
</g>
</svg>
