<?xml version="1.0" encoding="iso-8859-1"?>
<!-- Generator: Adobe Illustrator 23.0.3, SVG Export Plug-In . SVG Version: 6.00 Build 0)  -->
<!-- <svg version="1.1"
	 id="svg322588" xmlns:cc="http://creativecommons.org/ns#" xmlns:dc="http://purl.org/dc/elements/1.1/" xmlns:rdf="http://www.w3.org/1999/02/22-rdf-syntax-ns#" xmlns:svg="http://www.w3.org/2000/svg"
	 xmlns="http://www.w3.org/2000/svg" xmlns:xlink="http://www.w3.org/1999/xlink" x="0px" y="0px" viewBox="0 0 55.7 52.3"
	 style="enable-background:new 0 0 55.7 52.3;" xml:space="preserve"> -->

<svg width="100%" height="100%" viewBox="-0.3 -0.2 56.3 52.8" xmlns="http://www.w3.org/2000/svg" xmlns:svg="http://www.w3.org/2000/svg" xmlns:se="http://svg-edit.googlecode.com" data-name="Layer 1">

<style type="text/css">
	.st0{fill:#58595B;stroke:none;stroke-width:2;}
</style>
<g id="layer1" transform="translate(144.3921,-44.356333)">
	<g id="Layer_2-93-1" transform="matrix(0.26362834,0,0,0.26362834,-144.39209,44.356341)">
		<g id="Layer_3-9">
			<path id="path2750-6" class="st0" d="M119.4,63.6H60.5c-0.9,0-1.6,0.7-1.6,1.6s0.7,1.6,1.6,1.6l0,0h58.9c0.9,0,1.6-0.7,1.6-1.6
				S120.2,63.6,119.4,63.6z"/>
			<path id="path2752-2" class="st0" d="M120.9,96.1c0-0.9-0.7-1.6-1.6-1.6H60.5c-0.9-0.1-1.6,0.5-1.8,1.3c-0.1,0.9,0.5,1.6,1.3,1.8
				c0.1,0,0.3,0,0.4,0h58.9C120.2,97.7,120.9,97,120.9,96.1z"/>
			<path id="path2754-1" class="st0" d="M51.3,58.4c-1.2-1.2-3.1-1.2-4.3,0c0,0,0,0,0,0L32.1,73.2l-4.1-4.1c-1.2-1.2-3.2-1.2-4.4,0
				c-1.2,1.2-1.2,3.2,0,4.4l6.2,6.2c1.2,1.2,3.2,1.2,4.4,0l17-17C52.5,61.5,52.5,59.6,51.3,58.4z"/>
			<path id="path2756-2" class="st0" d="M51.3,89.4c-1.2-1.2-3.1-1.2-4.3,0c0,0,0,0,0,0l-14.8,14.8l-4.1-4.1c-1.2-1.2-3.1-1.2-4.3,0
				c0,0,0,0,0,0c-1.2,1.2-1.2,3.2,0,4.4c0,0,0,0,0,0l6.2,6.2c1.2,1.2,3.2,1.2,4.4,0l17-17C52.5,92.5,52.5,90.6,51.3,89.4z"/>
			<path id="path2758-0" class="st0" d="M51.3,120.4c-1.2-1.2-3.1-1.2-4.3,0c0,0,0,0,0,0l-14.8,14.7l-4.1-4
				c-1.3-1.2-3.2-1.1-4.4,0.2c-1.1,1.2-1.1,3,0,4.2l6.2,6.2c1.2,1.2,3.2,1.2,4.4,0l17-17C52.5,123.5,52.5,121.6,51.3,120.4z"/>
			<path id="path2760-7" class="st0" d="M60.5,76h27.9c0.9,0,1.6-0.7,1.6-1.6s-0.7-1.6-1.6-1.6H60.5c-0.9,0-1.6,0.7-1.6,1.6
				S59.6,76,60.5,76L60.5,76z"/>
			<path id="path2762-3" class="st0" d="M60.5,107h27.9c0.9,0,1.5-0.7,1.6-1.5c0-0.9-0.7-1.6-1.6-1.6H60.5c-0.9,0-1.6,0.7-1.6,1.6
				C58.9,106.3,59.6,107,60.5,107z"/>
			<path id="path2764-1" class="st0" d="M60.5,138h27.9c0.9,0.1,1.6-0.5,1.8-1.3c0.1-0.9-0.5-1.6-1.3-1.8c-0.1,0-0.3,0-0.4,0H60.5
				c-0.9-0.1-1.6,0.5-1.8,1.3c-0.1,0.9,0.5,1.6,1.3,1.8C60.2,138,60.3,138,60.5,138z"/>
			<path id="path2766-1" class="st0" d="M60.5,165.9c-0.9,0-1.5,0.7-1.6,1.5c0,0.9,0.7,1.6,1.6,1.6h27.9c0.9,0,1.6-0.7,1.6-1.6
				c0-0.8-0.7-1.5-1.6-1.5H60.5z"/>
			<path id="path2768-9" class="st0" d="M46.9,151.4l-14.8,14.8l-4.1-4c-1.2-1.3-3.1-1.3-4.4-0.2c-1.3,1.2-1.3,3.1-0.2,4.4
				c0.1,0.1,0.1,0.1,0.2,0.2l6.2,6.2c1.2,1.2,3.2,1.2,4.4,0l17-17c1.2-1.2,1.2-3.2,0-4.4C50.1,150.1,48.2,150.1,46.9,151.4
				L46.9,151.4z"/>
			<path id="path2770-0" class="st0" d="M109.3,156.6H60.5c-0.9,0-1.6,0.7-1.6,1.6c0,0.9,0.7,1.6,1.6,1.6h48.9L109.3,156.6z"/>
			<path id="path2772-5" class="st0" d="M142.6,154.4v34.8H9.4V9.3H103v36.5c0,1.7,1.4,3.1,3.1,3.1c0,0,0,0,0,0h36.5v28.3
				c3-1.1,6.1-1.9,9.3-2.4V45.8c0-1.2-0.5-2.4-1.4-3.3L109.4,1.4c-0.9-0.9-2.1-1.4-3.3-1.4H4.6C2.1,0,0,2,0,4.6c0,0,0,0,0,0.1v189.1
				c0,2.6,2,4.6,4.6,4.6c0,0,0,0,0.1,0h142.8c2.6,0,4.6-2,4.6-4.6c0,0,0,0,0-0.1v-37C148.8,156.4,145.6,155.6,142.6,154.4z
				 M109.2,14.3l28.3,28.3h-28.3V14.3z"/>
			<path id="path2774-6" class="st0" d="M117.3,125.6H60.6c-0.9-0.1-1.6,0.5-1.8,1.3c-0.1,0.9,0.5,1.6,1.3,1.8c0.1,0,0.3,0,0.4,0
				h57.5C117.8,127.6,117.5,126.6,117.3,125.6z"/>
			<path id="path2776-7" class="st0" d="M157.4,153.7c-20.9,0-37.8-16.9-37.8-37.8S136.5,78,157.4,78s37.8,16.9,37.8,37.8
				C195.2,136.7,178.2,153.7,157.4,153.7z M157.4,85.6c-16.7,0-30.2,13.5-30.2,30.2c0,16.7,13.5,30.2,30.2,30.2
				c16.7,0,30.2-13.5,30.2-30.2c0,0,0,0,0,0C187.6,99.2,174,85.6,157.4,85.6L157.4,85.6z"/>
			<path id="path2778-7" class="st0" d="M180.6,117.1c-0.7,0-1.3-0.6-1.3-1.3l0,0c0-12.1-9.8-21.9-21.9-21.9
				c-0.7-0.1-1.2-0.8-1.1-1.5c0.1-0.6,0.5-1,1.1-1.1c13.5,0,24.4,11,24.5,24.5C181.8,116.5,181.3,117.1,180.6,117.1z"/>
			<path id="path2780-4" class="st0" d="M206.5,170.1c-1.3,0-2.6-0.5-3.6-1.5l-23.9-24c-2-2-2-5.2,0-7.1c2-2,5.2-2,7.1,0l24,24.1
				c1.9,2,1.8,5.2-0.2,7.1C209,169.6,207.8,170.1,206.5,170.1z"/>
		</g>
	</g>
</g>
</svg>
