<?xml version="1.0" encoding="iso-8859-1"?>
<!-- Generator: Adobe Illustrator 23.0.3, SVG Export Plug-In . SVG Version: 6.00 Build 0)  -->
<svg version="1.1"
	 id="svg329504" xmlns:cc="http://creativecommons.org/ns#" xmlns:dc="http://purl.org/dc/elements/1.1/" xmlns:rdf="http://www.w3.org/1999/02/22-rdf-syntax-ns#" xmlns:svg="http://www.w3.org/2000/svg"
	 xmlns="http://www.w3.org/2000/svg" xmlns:xlink="http://www.w3.org/1999/xlink" x="0px" y="0px" viewBox="0 0 49.7 52.3"
	 style="enable-background:new 0 0 49.7 52.3;" xml:space="preserve">
<style type="text/css">
	.st0{fill:#58595B;}
</style>
<g id="layer1" transform="translate(36.740044,-89.713476)">
	<g id="Layer_2-10-8" transform="matrix(0.28970158,0,0,0.28970158,-36.740044,89.713476)">
		<g id="Layer_1-2-30-9">
			<path id="path5562-6" class="st0" d="M108.6,57.9H55c-0.8,0-1.4,0.6-1.4,1.4s0.6,1.4,1.4,1.4h53.6c0.8,0,1.4-0.6,1.4-1.4
				S109.4,57.9,108.6,57.9z"/>
			<path id="path5564-0" class="st0" d="M110,87.5c0-0.8-0.6-1.4-1.4-1.4H55c-0.8,0-1.4,0.6-1.4,1.4s0.6,1.4,1.4,1.4h53.6
				C109.4,88.9,110,88.3,110,87.5C110,87.5,110,87.5,110,87.5z"/>
			<path id="path5566-7" class="st0" d="M166.7,58.8l-7.3-4.2c-1.5-0.9-3.2-1.3-4.9-1.3l0,0c-3.5,0-6.7,1.9-8.5,4.9l-40.3,69.6
				c-0.5,0.9-0.8,1.8-0.8,2.8l0.3,16.4c0,3.1,2.5,5.7,5.7,5.7c1,0,2-0.2,2.8-0.7l14.4-8c0.9-0.5,1.6-1.2,2.2-2.1l40.1-69.7
				C173,67.6,171.4,61.5,166.7,58.8z M158.3,81.7L158.3,81.7l-14.7-8.5l2.8-4.9l14.7,8.5L158.3,81.7z M142.3,75.7l2.5,1.4
				l-31.2,53.9l-2.5-1.4L142.3,75.7z M123.8,139.9l-7.2,4l-5.9-3.4v-8.2L123.8,139.9z M116.2,132.2l31.2-53.9l4.9,2.8l-31.2,53.9
				L116.2,132.2z M126,137.9L126,137.9l-2.5-1.4l31.2-53.9l2.5,1.4L126,137.9z M165.4,69.5l-2.8,4.9l0,0l-14.7-8.5l2.8-4.9
				c0.8-1.3,2.1-2.1,3.7-2.1c0.7,0,1.5,0.2,2.1,0.6l7.3,4.3C165.9,64.8,166.6,67.4,165.4,69.5C165.4,69.5,165.4,69.5,165.4,69.5z"/>
			<path id="path5568-0" class="st0" d="M46.7,53.1c-1.1-1.1-2.9-1.1-4,0L29.3,66.6l-3.7-3.7c-1.1-1.1-2.9-1.1-4,0
				c-1.1,1.1-1.1,2.9,0,4l5.7,5.7c1.1,1.1,2.9,1.1,4,0l15.4-15.4C47.7,56.1,47.8,54.3,46.7,53.1z"/>
			<path id="path5570-1" class="st0" d="M46.7,81.4c-1.1-1.1-2.9-1.1-4,0L29.3,94.8l-3.7-3.7c-1.2-1-3-0.8-4,0.5
				c-0.8,1-0.8,2.5,0,3.5l5.7,5.7c1.1,1.1,2.9,1.1,4,0l15.4-15.4C47.7,84.3,47.8,82.5,46.7,81.4z"/>
			<path id="path5572-0" class="st0" d="M46.7,109.6c-1.1-1.1-2.9-1.1-4,0L29.3,123l-3.7-3.7c-1.1-1.1-2.9-1.1-4,0
				c-1.1,1.1-1.1,2.9,0,4l5.7,5.7c1.1,1.1,2.9,1.1,4,0l15.4-15.4C47.7,112.5,47.8,110.7,46.7,109.6z"/>
			<path id="path5574-1" class="st0" d="M55,69.1h25.5c0.8,0,1.4-0.6,1.4-1.4c0-0.8-0.6-1.4-1.4-1.4H55c-0.8,0-1.4,0.6-1.4,1.4
				C53.6,68.5,54.2,69.1,55,69.1z"/>
			<path id="path5576-3" class="st0" d="M55,97.3h25.5c0.8,0,1.4-0.6,1.4-1.4c0-0.8-0.6-1.4-1.4-1.4H55c-0.8,0-1.4,0.6-1.4,1.4
				C53.6,96.7,54.2,97.3,55,97.3z"/>
			<path id="path5578-7" class="st0" d="M55,125.5h25.5c0.8,0,1.4-0.6,1.4-1.4c0-0.8-0.6-1.4-1.4-1.4H55c-0.8,0-1.4,0.6-1.4,1.4
				C53.6,124.9,54.2,125.5,55,125.5z"/>
			<path id="path5580-7" class="st0" d="M55,150.9c-0.8,0-1.4,0.6-1.4,1.4c0,0.8,0.6,1.4,1.4,1.4h25.5c0.8,0,1.4-0.6,1.4-1.4
				c0-0.8-0.6-1.4-1.4-1.4H55z"/>
			<path id="path5582-2" class="st0" d="M42.7,137.8l-13.4,13.4l-3.7-3.7c-1.1-1.1-2.9-1.1-4,0c-1.1,1.1-1.1,2.9,0,4l5.7,5.7
				c1.1,1.1,2.9,1.1,4,0l15.5-15.5c1.2-1,1.3-2.8,0.3-4c-1-1.2-2.8-1.3-4-0.3C42.9,137.5,42.8,137.6,42.7,137.8L42.7,137.8z"/>
			<path id="path5584-6" class="st0" d="M130.7,149l-0.9,0.5v22.7H8.5V8.5h85.3v33.2c0,1.6,1.3,2.8,2.8,2.8h33.2v30.2l8.5-14.7V41.7
				c0-1.1-0.4-2.2-1.2-3L99.6,1.2c-0.8-0.8-1.9-1.2-3-1.2H4.2C1.9,0,0,1.9,0,4.2c0,0,0,0,0,0v172.1c0,2.3,1.9,4.2,4.2,4.2
				c0,0,0,0,0,0H134c2.3,0,4.2-1.8,4.2-4.2c0,0,0,0,0-0.1v-37.3l-3.3,5.7C134,146.5,132.5,148,130.7,149z M99.4,13l25.8,25.8H99.4
				V13z"/>
			<path id="path5586-4" class="st0" d="M107,114.3H55c-0.8,0-1.4,0.6-1.4,1.4c0,0.8,0.6,1.4,1.4,1.4h50.3L107,114.3z"/>
			<path id="path5588-5" class="st0" d="M99.4,142.5H55c-0.8,0-1.4,0.6-1.4,1.4s0.6,1.4,1.4,1.4h44.5L99.4,142.5z"/>
		</g>
	</g>
</g>
</svg>
