<?xml version="1.0" encoding="iso-8859-1"?>
<!-- Generator: Adobe Illustrator 23.0.3, SVG Export Plug-In . SVG Version: 6.00 Build 0)  -->
<svg version="1.1"
	 id="svg337790" xmlns:cc="http://creativecommons.org/ns#" xmlns:dc="http://purl.org/dc/elements/1.1/" xmlns:rdf="http://www.w3.org/1999/02/22-rdf-syntax-ns#" xmlns:svg="http://www.w3.org/2000/svg"
	 xmlns="http://www.w3.org/2000/svg" xmlns:xlink="http://www.w3.org/1999/xlink" x="0px" y="0px" viewBox="0 0 81.7 51.7"
	 style="enable-background:new 0 0 81.7 51.7;" xml:space="preserve">
<style type="text/css">
	.st0{fill:#58595B;}
	.st1{fill:none;stroke:#666666;stroke-width:0.8639;stroke-miterlimit:10;}
</style>
<g>
	<path class="st0" d="M19.6,37.7c-3.2,0-8.5-0.3-8.5-2.3c0-3.8,2.8-5.1,5.6-5.8c0.6-0.1,0.7-0.2,0.9-0.6c-1.3-1-2.2-2.6-2.3-4.3
		c0-3.4,1.6-5.4,4.2-5.4c2.7,0,4.2,2,4.2,5.4C23.8,26.4,23,28,21.6,29c0.1,0.3,0.3,0.5,0.9,0.6c2.8,0.8,5.6,2,5.6,5.8
		C28.1,37.4,22.8,37.7,19.6,37.7z"/>
	<path class="st0" d="M40.8,47.2c-0.4,0-0.8-0.3-0.8-0.8V10.7c0-0.4,0.4-0.8,0.8-0.8c0.4,0,0.8,0.4,0.8,0.8v35.7
		C41.6,46.8,41.3,47.2,40.8,47.2L40.8,47.2z"/>
	<path class="st0" d="M49.2,42.4l-1.7-3.1l-1.4,1.3h-1.9c-0.3,0-0.5-0.2-0.6-0.4c0-0.3,0.2-0.5,0.4-0.6h0.1h1.5l2-1.9l1.7,3.1
		l1.4-1.3h5c0.3,0,0.5,0.2,0.6,0.4c0,0.3-0.2,0.5-0.4,0.6h-0.1h-4.6L49.2,42.4z"/>
	<path class="st0" d="M32.5,42.4l-2-1.9h-4.6c-0.3,0-0.5-0.2-0.6-0.4s0.2-0.5,0.4-0.6h0.1h5l1.4,1.3l1.7-3.1l2,1.9h1.5
		c0.3,0,0.5,0.2,0.6,0.4s-0.2,0.5-0.4,0.6h-0.1h-1.9l-1.4-1.3L32.5,42.4z"/>
	<path class="st0" d="M74.8,40.6H55.4c-0.3,0-0.5-0.2-0.6-0.4s0.2-0.5,0.4-0.6h0.1h19.4c0.3,0,0.5,0.2,0.6,0.4
		c0,0.3-0.2,0.5-0.4,0.6H74.8z"/>
	<path class="st0" d="M65.1,40.6c-0.3,0-0.5-0.2-0.5-0.5v-3.8c0-0.3,0.3-0.5,0.6-0.4c0.2,0,0.4,0.2,0.4,0.4v3.8
		C65.6,40.3,65.4,40.6,65.1,40.6z"/>
	<path class="st0" d="M70.9,36.7H59.3c-1.4,0-2.4-1.1-2.4-2.4c0-1.4,1.1-2.4,2.4-2.5h0h11.6c1.4,0,2.4,1.1,2.4,2.4
		C73.4,35.6,72.3,36.7,70.9,36.7L70.9,36.7z M59.3,32.8c-0.8,0-1.4,0.6-1.4,1.4c0,0.8,0.6,1.4,1.4,1.4h11.6c0.8,0,1.4-0.6,1.4-1.4
		c0-0.8-0.6-1.4-1.4-1.4H59.3z"/>
	<path class="st0" d="M70.9,25.1H59.3c-1.4,0-2.4-1.1-2.4-2.4c0-1.4,1.1-2.5,2.4-2.5h0h11.6c1.4,0,2.4,1.1,2.4,2.4
		C73.4,24,72.3,25.1,70.9,25.1L70.9,25.1z M59.3,21.2c-0.8,0-1.4,0.6-1.4,1.4c0,0.8,0.6,1.4,1.4,1.4h11.6c0.8,0,1.4-0.6,1.4-1.4
		c0-0.8-0.6-1.4-1.4-1.4H59.3z"/>
	<path class="st0" d="M70.9,30.9H59.3c-1.4,0-2.4-1.1-2.4-2.4c0-1.4,1.1-2.4,2.4-2.5h0h11.6c1.4,0,2.4,1.1,2.4,2.4
		C73.4,29.8,72.3,30.9,70.9,30.9L70.9,30.9z M59.3,27c-0.8,0-1.4,0.6-1.4,1.4c0,0.8,0.6,1.4,1.4,1.4h0h11.6c0.8,0,1.4-0.6,1.4-1.4
		c0-0.8-0.6-1.4-1.4-1.4h0H59.3z"/>
	<path class="st0" d="M69.6,22.5L69.6,22.5v0.2V22.5L69.6,22.5 M69.6,22c-0.4,0-0.6,0.3-0.6,0.6s0.3,0.6,0.6,0.6s0.6-0.3,0.6-0.6
		S70,22,69.6,22z"/>
	<path class="st0" d="M67.1,22.5L67.1,22.5v0.2V22.5L67.1,22.5 M67.1,22c-0.4,0-0.6,0.3-0.6,0.6s0.3,0.6,0.6,0.6s0.6-0.3,0.6-0.6
		C67.7,22.2,67.4,22,67.1,22z"/>
	<path class="st0" d="M69.6,28.3L69.6,28.3v0.2V28.3L69.6,28.3 M69.6,27.8c-0.4,0-0.6,0.3-0.6,0.6c0,0.4,0.3,0.6,0.6,0.6
		s0.6-0.3,0.6-0.6C70.3,28.1,70,27.8,69.6,27.8z"/>
	<path class="st0" d="M67.1,28.3L67.1,28.3v0.2V28.3L67.1,28.3 M67.1,27.8c-0.4,0-0.6,0.3-0.6,0.6c0,0.4,0.3,0.6,0.6,0.6
		s0.6-0.3,0.6-0.6C67.7,28.1,67.4,27.8,67.1,27.8z"/>
	<path class="st0" d="M69.6,34.2L69.6,34.2v0.2V34.2L69.6,34.2 M69.6,33.6c-0.4,0-0.6,0.3-0.6,0.6c0,0.4,0.3,0.6,0.6,0.6
		s0.6-0.3,0.6-0.6C70.3,33.9,70,33.6,69.6,33.6z"/>
	<path class="st0" d="M67.1,34.2L67.1,34.2v0.2V34.2L67.1,34.2 M67.1,33.6c-0.4,0-0.6,0.3-0.6,0.6c0,0.4,0.3,0.6,0.6,0.6
		s0.6-0.3,0.6-0.6C67.7,33.9,67.4,33.6,67.1,33.6z"/>
	<ellipse class="st0" cx="70" cy="10.5" rx="2.6" ry="2.6"/>
	<path class="st0" d="M56.9,9.3v0.1c0,0.6-0.3,1-0.9,1.2l1.2,2.2h-1l-1.1-2c-0.2,0-0.4,0-0.6,0v2h-0.9V8c0.4,0,1,0,1.4,0
		C56.4,8,56.9,8.5,56.9,9.3z M54.6,8.8v1.4c0.2,0,0.3,0,0.5,0c0.6,0,0.9-0.3,0.9-0.7V9.4c0-0.4-0.3-0.7-0.9-0.7L54.6,8.8z"/>
	<polygon class="st0" points="58.7,8.9 58.7,10.1 60.4,10.1 60.4,10.9 58.7,10.9 58.7,12.2 60.6,12.2 60.6,13 57.8,13 57.8,8 
		60.6,8 60.6,8.9 	"/>
	<path class="st0" d="M64.1,8.1v0.8c-0.3-0.1-0.7-0.1-1-0.1c-0.6,0-0.9,0.2-0.9,0.8v1.9c0,0.6,0.2,0.8,0.9,0.8c0.3,0,0.7-0.1,1-0.2
		V13c-0.4,0.1-0.7,0.1-1.1,0.1c-1.2,0-1.7-0.5-1.7-1.6v-2c0-1.1,0.4-1.6,1.7-1.6C63.3,8,63.7,8,64.1,8.1z"/>
	<path class="st0" d="M29.3,40.6H9.9c-0.3,0-0.5-0.2-0.6-0.4s0.2-0.5,0.4-0.6h0.1h19.4c0.3,0,0.5,0.2,0.6,0.4c0,0.3-0.2,0.5-0.4,0.6
		H29.3z"/>
	<path class="st0" d="M19.6,40.6c-0.3,0-0.5-0.2-0.5-0.5v-3.8c0-0.3,0.3-0.5,0.6-0.4c0.2,0,0.4,0.2,0.4,0.4v3.8
		C20.1,40.3,19.9,40.6,19.6,40.6z"/>
	<path class="st0" d="M14.1,51.4H5.2c-0.6,0-1.3-0.1-1.9-0.4c-0.3-0.1-0.6-0.3-0.9-0.5c-0.3-0.2-0.5-0.4-0.7-0.6
		c-0.4-0.4-0.8-1-1-1.5c-0.2-0.6-0.4-1.2-0.3-1.9V35.4c0-0.4,0.4-0.8,0.8-0.8c0.4,0,0.8,0.4,0.8,0.8v11.1c0,0.2,0,0.4,0.1,0.7
		c0.1,0.4,0.3,0.8,0.5,1.2c0.2,0.3,0.5,0.6,0.9,0.9c0.2,0.1,0.4,0.2,0.6,0.3c0.4,0.2,0.8,0.3,1.3,0.3h8.9c0.4,0,0.8,0.4,0.8,0.8
		C14.9,51,14.6,51.4,14.1,51.4L14.1,51.4z"/>
	<path class="st1" d="M14.1,51.4H5.2c-0.6,0-1.3-0.1-1.9-0.4c-0.3-0.1-0.6-0.3-0.9-0.5c-0.3-0.2-0.5-0.4-0.7-0.6
		c-0.4-0.4-0.8-1-1-1.5c-0.2-0.6-0.4-1.2-0.3-1.9V35.4c0-0.4,0.4-0.8,0.8-0.8c0.4,0,0.8,0.4,0.8,0.8v11.1c0,0.2,0,0.4,0.1,0.7
		c0.1,0.4,0.3,0.8,0.5,1.2c0.2,0.3,0.5,0.6,0.9,0.9c0.2,0.1,0.4,0.2,0.6,0.3c0.4,0.2,0.8,0.3,1.3,0.3h8.9c0.4,0,0.8,0.4,0.8,0.8
		C14.9,51,14.6,51.4,14.1,51.4L14.1,51.4z"/>
	<path class="st0" d="M76.5,51.4h-8.9c-0.4,0-0.8-0.4-0.8-0.8c0-0.4,0.4-0.8,0.8-0.8h8.9c0.4,0,0.9-0.1,1.3-0.3
		c0.2-0.1,0.4-0.2,0.6-0.3c0.2-0.1,0.3-0.3,0.5-0.4s0.3-0.3,0.4-0.5c0.1-0.2,0.2-0.4,0.3-0.6c0.2-0.4,0.3-0.8,0.3-1.3V35.4
		c0-0.4,0.4-0.8,0.8-0.8c0.4,0,0.8,0.4,0.8,0.8v11.1c0,0.7-0.1,1.3-0.4,1.9c-0.4,0.9-1,1.6-1.7,2.1c-0.3,0.2-0.5,0.3-0.8,0.5
		C77.8,51.2,77.1,51.4,76.5,51.4L76.5,51.4z"/>
	<path class="st1" d="M76.5,51.4h-8.9c-0.4,0-0.8-0.4-0.8-0.8c0-0.4,0.4-0.8,0.8-0.8h8.9c0.4,0,0.9-0.1,1.3-0.3
		c0.2-0.1,0.4-0.2,0.6-0.3c0.2-0.1,0.3-0.3,0.5-0.4s0.3-0.3,0.4-0.5c0.1-0.2,0.2-0.4,0.3-0.6c0.2-0.4,0.3-0.8,0.3-1.3V35.4
		c0-0.4,0.4-0.8,0.8-0.8c0.4,0,0.8,0.4,0.8,0.8v11.1c0,0.7-0.1,1.3-0.4,1.9c-0.4,0.9-1,1.6-1.7,2.1c-0.3,0.2-0.5,0.3-0.8,0.5
		C77.8,51.2,77.1,51.4,76.5,51.4L76.5,51.4z"/>
	<path class="st0" d="M80.5,17.1c-0.4,0-0.8-0.4-0.8-0.8V5.2c0-0.4-0.1-0.9-0.3-1.3c-0.1-0.2-0.2-0.4-0.3-0.5
		c-0.1-0.2-0.3-0.3-0.4-0.5c-0.1-0.1-0.3-0.3-0.5-0.4c-0.2-0.1-0.4-0.2-0.6-0.3C77.3,2.1,76.9,2,76.5,2h-8.9c-0.4,0-0.8-0.4-0.8-0.8
		s0.4-0.8,0.8-0.8h8.9c1,0,1.9,0.3,2.7,0.9c0.3,0.2,0.5,0.4,0.7,0.6c0.2,0.2,0.4,0.5,0.6,0.7c0.2,0.3,0.3,0.6,0.5,0.9
		c0.1,0.3,0.2,0.5,0.3,0.8c0.1,0.3,0.1,0.7,0.1,1v11.1C81.3,16.8,81,17.1,80.5,17.1z"/>
	<path class="st1" d="M80.5,17.1c-0.4,0-0.8-0.4-0.8-0.8V5.2c0-0.4-0.1-0.9-0.3-1.3c-0.1-0.2-0.2-0.4-0.3-0.5
		c-0.1-0.2-0.3-0.3-0.4-0.5c-0.1-0.1-0.3-0.3-0.5-0.4c-0.2-0.1-0.4-0.2-0.6-0.3C77.3,2.1,76.9,2,76.5,2h-8.9c-0.4,0-0.8-0.4-0.8-0.8
		s0.4-0.8,0.8-0.8h8.9c1,0,1.9,0.3,2.7,0.9c0.3,0.2,0.5,0.4,0.7,0.6c0.2,0.2,0.4,0.5,0.6,0.7c0.2,0.3,0.3,0.6,0.5,0.9
		c0.1,0.3,0.2,0.5,0.3,0.8c0.1,0.3,0.1,0.7,0.1,1v11.1C81.3,16.8,81,17.1,80.5,17.1z"/>
	<path class="st0" d="M1.2,17.1c-0.4,0-0.8-0.4-0.8-0.8V5.2c0-0.3,0-0.6,0.1-1C0.5,4,0.6,3.7,0.7,3.4C0.9,3.1,1,2.8,1.2,2.5
		C1.4,2.3,1.6,2,1.8,1.8c0.7-0.7,1.5-1.2,2.5-1.4c0.3-0.1,0.6-0.1,1-0.1h8.9c0.4,0,0.8,0.4,0.8,0.8s-0.4,0.8-0.8,0.8H5.2
		C4.8,1.9,4.4,2,4,2.2C3.6,2.4,3.2,2.6,2.9,2.9C2.8,3.1,2.6,3.2,2.5,3.4C2.3,3.8,2.1,4.2,2.1,4.6C2,4.8,2,5,2,5.2v11.1
		C2,16.8,1.6,17.1,1.2,17.1L1.2,17.1z"/>
	<path class="st1" d="M1.2,17.1c-0.4,0-0.8-0.4-0.8-0.8V5.2c0-0.3,0-0.6,0.1-1C0.5,4,0.6,3.7,0.7,3.4C0.9,3.1,1,2.8,1.2,2.5
		C1.4,2.3,1.6,2,1.8,1.8c0.7-0.7,1.5-1.2,2.5-1.4c0.3-0.1,0.6-0.1,1-0.1h8.9c0.4,0,0.8,0.4,0.8,0.8s-0.4,0.8-0.8,0.8H5.2
		C4.8,1.9,4.4,2,4,2.2C3.6,2.4,3.2,2.6,2.9,2.9C2.8,3.1,2.6,3.2,2.5,3.4C2.3,3.8,2.1,4.2,2.1,4.6C2,4.8,2,5,2,5.2v11.1
		C2,16.8,1.6,17.1,1.2,17.1L1.2,17.1z"/>
</g>
</svg>
