<?xml version="1.0" encoding="iso-8859-1"?>
<!-- Generator: Adobe Illustrator 23.0.3, SVG Export Plug-In . SVG Version: 6.00 Build 0)  -->
<!-- <svg version="1.1"
	 id="svg13412" xmlns:cc="http://creativecommons.org/ns#" xmlns:dc="http://purl.org/dc/elements/1.1/" xmlns:rdf="http://www.w3.org/1999/02/22-rdf-syntax-ns#" xmlns:svg="http://www.w3.org/2000/svg"
	 xmlns="http://www.w3.org/2000/svg" xmlns:xlink="http://www.w3.org/1999/xlink" x="0px" y="0px" viewBox="0 0 46.6 52.3"
	 style="enable-background:new 0 0 46.6 52.3;" xml:space="preserve"> -->

<svg width="100%" height="100%" viewBox="-0.5 -0.5 47.6 53.3" xmlns="http://www.w3.org/2000/svg" xmlns:svg="http://www.w3.org/2000/svg" xmlns:se="http://svg-edit.googlecode.com" data-name="Layer 1">

<style type="text/css">
	.st0{fill:#58595B;stroke:none;stroke-width:2;}
</style>
<g id="layer1" transform="translate(32.037898,-139.60633)">
	<g id="Layer_2-879-3" transform="matrix(0.3270536,0,0,0.3270536,-32.037898,139.58998)">
		<g id="Layer_1-2-033-7">
			<path id="path16056-1" class="st0" d="M141.2,15.8c-0.9-0.6-2.3-0.9-3.4-0.6c-4.3,1.1-8.8,1.7-13.3,1.7c-18.1,0-38-9.1-51.3-16.4
				c-1.1-0.6-2.6-0.6-3.7,0C56.1,7.8,36.3,16.9,18.1,16.9c-4.5,0-9.1-0.6-13.3-2c-2-0.6-4,0.6-4.5,2.6C0,17.8,0,18.3,0,18.6v62.6
				c0,35.4,24.4,62.6,70,78.5c0.9,0.3,1.7,0.3,2.6,0c45.9-15.9,70-43.1,70-78.5V18.6C142.6,17.5,142,16.3,141.2,15.8z M124.4,24.3
				c2.8,0,5.7-0.3,8.5-0.6l-4.5,5.4c-1.1,0-2.6,0-3.7,0c-19,0-38.6-8.2-51.9-15V8.4C86.7,16.1,106,24.3,124.4,24.3z M70,103.9v40
				C33.4,130,15,109,15,81.3V31.9h3.1c19,0,38.3-7.9,51.9-14.7v38.6h2.6V17.2c13.6,7.1,33.2,14.7,51.9,14.7h3.1v49.3
				c0,27.8-18.4,48.8-55,62.6v-40H70z M70,8.7v5.7c-13.3,6.8-32.9,15-51.9,15c-1.1,0-2.6,0-3.7,0l-4.5-5.7c2.8,0.3,5.7,0.6,8.5,0.6
				C36.6,24.3,56.1,16.1,70,8.7z M7.7,81.3V25.1l4.8,6v50.2c0,29.2,19.3,51,57.5,65.2v5.4C28.6,136.8,7.7,113,7.7,81.3z M72.9,151.8
				v-5.4c38-14.2,57.5-36,57.5-65.2V31.1l5.1-6v56.1C135.2,113,114.2,136.8,72.9,151.8z"/>
			<path id="path16058-2" class="st0" d="M91,60.6c-9.4,0-15,5.4-19.6,11.1C66.9,66,61.2,60.6,51.9,60.6
				C41.4,60.3,32.6,68.5,32.3,79c0,0.3,0,0.9,0,1.1C32,90.6,40.3,99.4,50.7,99.7c0.3,0,0.9,0,1.1,0c9.4,0,15-5.1,19.6-11.1
				C76,94.3,81.6,99.7,91,99.7c10.5,0.3,19.3-7.9,19.6-18.4c0-0.3,0-0.9,0-1.1c0.3-10.5-7.9-19.3-18.4-19.6
				C91.6,60.6,91.3,60.6,91,60.6z M51.9,89.8c-5.1,0.3-9.4-3.4-9.6-8.5c0-0.3,0-0.9,0-1.1c-0.3-5.1,3.4-9.4,8.5-9.6
				c0.3,0,0.9,0,1.1,0c6,0,9.4,3.7,13.6,9.6C61.2,86.1,57.8,89.8,51.9,89.8z M90.7,89.8c-6,0-9.4-3.7-13.6-9.6
				c4.3-6,7.7-9.6,13.6-9.6c5.1-0.3,9.4,3.4,9.6,8.5c0,0.3,0,0.9,0,1.1c0.3,5.1-3.4,9.4-8.5,9.6C91.6,89.8,91,89.8,90.7,89.8z"/>
		</g>
	</g>
</g>
</svg>
