<?xml version="1.0" encoding="utf-8"?>
<!-- Generator: Adobe Illustrator 23.0.3, SVG Export Plug-In . SVG Version: 6.00 Build 0)  -->
<svg version="1.1" id="Layer_1" xmlns:se="http://svg-edit.googlecode.com" xmlns:svg="http://www.w3.org/2000/svg"
	 xmlns="http://www.w3.org/2000/svg" xmlns:xlink="http://www.w3.org/1999/xlink" x="0px" y="0px" viewBox="0 0 612 792"
	 style="enable-background:new 0 0 612 792;" xml:space="preserve">

<!-- <svg width="100%" height="100%" viewBox="-0.5 -0.5 54.8 53.3" xmlns="http://www.w3.org/2000/svg" xmlns:svg="http://www.w3.org/2000/svg" xmlns:se="http://svg-edit.googlecode.com" data-name="Layer 1">	  -->
<style type="text/css">
	.st0{fill:none;}
	.st1{fill:#58595B;stroke:#000000;stroke-width:0.5;stroke-miterlimit:10;}
	.st2{fill:#58595B;stroke:#0000DF;stroke-width:0.25;stroke-miterlimit:10;}
	.st3{fill:#58595B;stroke:#DF0045;stroke-width:0.25;stroke-miterlimit:10;}
</style>
<g id="layer1" transform="translate(33.305237,-139.60633)">
	<g id="Layer_1-2-317-8" transform="matrix(0.24605333,0,0,0.24605333,-33.305237,139.60633)">
		<g>
			<path class="st0" d="M2276.4,525.3l-1996.8-1.1c-48,0-87.1,39.1-87.1,88.2c0,0,0,0,0,1.1v1994.6c0,48,38,88.2,86,88.2
				c0,0,0,0,1.1,0h1996.8c48,0,87.1-39.1,87.1-88.2V612.4C2363.5,564.3,2324.4,525.3,2276.4,525.3z"/>
			<path class="st1" d="M2276.4,422.5H279.6c-105,0-189.9,84.9-189.9,189.9v234.5h-67v325h67v875.6h-67v325h67V2607
				c0,105,84.9,189.9,189.9,189.9h1995.7c105,0,189.9-84.9,191-189.9V612.4C2466.2,507.4,2381.4,422.5,2276.4,422.5z M2363.5,2608.1
				c0,49.1-39.1,88.2-87.1,88.2H279.6c-1.1,0-1.1,0-1.1,0c-48,0-86-40.2-86-88.2V613.5c0-1.1,0-1.1,0-1.1
				c0-49.1,39.1-88.2,87.1-88.2l1996.8,1.1c48,0,87.1,39.1,87.1,87.1V2608.1z"/>
		</g>
		<path id="path12068-9" class="st2" d="M2034,2527.7H534.2c-91.6-2.2-167.5-73.7-174.2-165.3V849.1c0-90.5,91.6-158.6,174.2-158.6
			h1501c87.1-1.1,159.7,68.1,160.8,155.2c0,1.1,0,2.2,0,3.4v1520l-2.2,3.4C2189.3,2458.4,2120,2525.4,2034,2527.7z M534.2,741.9
			c-57,0-124,46.9-124,107.2v1513.3c7.8,63.7,59.2,111.7,124,115h1501c60.3-1.1,109.4-50.3,109.4-110.6v-6.7l2.2-3.4V849.1
			c-2.2-59.2-50.3-107.2-110.6-107.2H534.2z"/>
		<g>
			<path class="st0" d="M1283.5,1490.2c15.3,0,29.9,2.9,43.4,8.2l133.9-132.7c-46.2-33.6-102.4-54.6-163.9-57.5h-13.4
				c-72.3,0-138.7,25.5-190.7,68.1l141.7,124.5C1249.5,1493.9,1266.1,1490.2,1283.5,1490.2z"/>
			<path class="st0" d="M1164.1,1609.7c0-12.6,1.9-24.7,5.5-36l-141.3-124.4c-29.3,46.5-46.3,101.5-46.3,160.4
				c0,65.2,20.8,125.5,56,174.9l133.8-132.5C1166.8,1638.8,1164.1,1624.6,1164.1,1609.7z"/>
			<path class="st0" d="M1283.5,1729.2c-15.1,0-29.5-2.8-42.8-7.9l-134.2,132.4c49.7,36.1,110.8,57.5,177,57.5
				c72.5,0,139.3-25.7,191.5-68.6l-141.4-124.5C1318.4,1725.2,1301.5,1729.2,1283.5,1729.2z"/>
			<path class="st0" d="M1530,1435.7l-134.3,132.6c4.8,12.9,7.4,26.8,7.4,41.3c0,12.1-1.8,23.7-5.1,34.7l141.8,124.7
				c26.4-42.3,42.7-91.6,45.3-144.8C1588.4,1554.3,1567.6,1488.8,1530,1435.7z"/>
			<path class="st3" d="M1599.2,1367.5l20.5-20.3c16.8-19,16.8-46.9,0-65.9c-17.9-20.1-49.1-22.3-69.2-4.5l-20.7,20.5
				c-63.4-50-142.6-81.3-229.5-85.3c-107.4-4.9-206.6,33.3-281.1,99.3l-21.5-18.9c-2.2-3.4-5.6-5.6-8.9-7.8
				c-23.5-15.6-52.5-10.1-68.1,13.4c-15.6,23.5-8.9,53.6,13.4,68.1l20.7,18.2c-40.9,59.6-66.3,131-69.8,208.5
				c-4.5,98.1,27.1,189.4,82.9,261.3l-18.1,17.9c-8.9,8.9-14.5,21.2-14.5,34.6c-1.1,26.8,21.2,49.1,48,49.1
				c12.3,0,24.6-4.5,33.5-13.4l19.6-19.3c63.4,50,142.6,81.3,229.5,85.2h17.9c101.3,0,194.2-38.2,264.8-101.2l21.1,18.6
				c7.8,7.8,20.1,12.3,31.3,12.3c14.5,0,27.9-5.6,38-16.8c17.9-21.2,15.6-51.4-4.5-69.2l-21.3-18.7c39.9-58.8,64.6-128.9,68.2-204.7
				v-1.1C1685.6,1529.9,1654.4,1439.2,1599.2,1367.5z M1283.5,1308.1h13.4c61.5,2.9,117.8,23.9,163.9,57.5l-133.9,132.7
				c-13.5-5.2-28.1-8.2-43.4-8.2c-17.5,0-34.1,3.8-49,10.5l-141.7-124.5C1144.8,1333.7,1211.2,1308.1,1283.5,1308.1z M982,1609.7
				c0-58.9,17-113.9,46.3-160.4l141.3,124.4c-3.6,11.4-5.5,23.5-5.5,36c0,14.9,2.8,29.2,7.7,42.3L1038,1784.5
				C1002.8,1735.2,982,1674.8,982,1609.7z M1283.5,1911.2c-66.1,0-127.2-21.4-177-57.5l134.2-132.4c13.3,5.1,27.7,7.9,42.8,7.9
				c17.9,0,34.9-4,50.1-11l141.4,124.5C1422.8,1885.5,1356,1911.2,1283.5,1911.2z M1397.9,1644.3c3.3-11,5.1-22.6,5.1-34.7
				c0-14.5-2.6-28.5-7.4-41.3l134.3-132.6c37.6,53.1,58.4,118.6,55.1,188.4c-2.6,53.2-18.9,102.5-45.3,144.8L1397.9,1644.3z"/>
		</g>
	</g>
</g>
</svg>
