<?xml version="1.0" encoding="utf-8"?>
<!-- Generator: Adobe Illustrator 23.0.3, SVG Export Plug-In . SVG Version: 6.00 Build 0)  -->
<!-- <svg version="1.1" id="Layer_1" xmlns:se="http://svg-edit.googlecode.com" xmlns:svg="http://www.w3.org/2000/svg"
	 xmlns="http://www.w3.org/2000/svg" xmlns:xlink="http://www.w3.org/1999/xlink" x="0px" y="0px" viewBox="0 0 612 792"
	 style="enable-background:new 0 0 612 792;" xml:space="preserve"> -->

<svg width="100%" height="100%" viewBox="0 97 612 600" xmlns="http://www.w3.org/2000/svg" xmlns:svg="http://www.w3.org/2000/svg" xmlns:se="http://svg-edit.googlecode.com" data-name="Layer 1">

<style type="text/css">
	.st0{fill:#58595B;}
	.st1{fill:#58595B;}
	.st2{fill:#58595B;stroke:none;stroke-width:20;}
</style>
<g id="layer1" transform="translate(33.087814,-139.70633)">
	<g id="Layer_2-4-0" transform="matrix(0.25352778,0,0,0.25352778,-33.087814,139.70633)">
		<g id="Layer_1-2-3-8">
			<path id="path4269-9" class="st0" d="M1326.4,1569.3c78.8-118.7,74.2-274-11.4-388.2l11.4-11.4c19.4-18.3,19.4-49.1,0-68.5
				c-18.3-19.4-49.1-19.4-68.5,0l-11.4,11.4c-126.7-95.9-302.6-91.3-423.6,12.6l-12.6-11.4c-19.4-18.3-50.2-16-68.5,3.4
				c-18.3,19.4-16,50.2,3.4,68.5l12.6,11.4c-78.8,118.7-74.2,274,11.4,388.2l-11.4,11.4c-18.3,19.4-18.3,49.1,0,68.5
				c9.1,9.1,20.6,13.7,34.3,13.7c12.6,0,24-5.7,32-13.7l11.4-11.4c54.8,42.2,122.2,67.4,191.8,69.6h14.8
				c81.1,0,158.7-28.5,219.2-81.1l12.6,11.4c9.1,8,20.6,12.6,32,11.4c26.3,0,48-21.7,48-48c0-13.7-5.7-27.4-16-36.5L1326.4,1569.3z
				 M1285.3,1395.7c-2.3,38.8-12.6,76.5-32,109.6l-113-99.3c1.1-6.9,2.3-14.8,2.3-21.7c0-9.1-1.1-18.3-4.6-26.3l107.3-106.2
				C1272.8,1294.1,1286.5,1344.3,1285.3,1395.7z M1043.3,1142.2h11.4c44.5,2.3,86.8,16,124.5,41.1l-107.3,106.2
				c-9.1-2.3-18.3-4.6-28.5-4.6c-11.4,0-21.7,2.3-32,5.7l-114.2-99.3C938.2,1159.3,990.8,1142.2,1043.3,1142.2z M801.2,1374
				c2.3-38.8,12.6-76.5,32-109.6l113,99.3c-1.1,6.9-2.3,14.8-2.3,21.7c0,9.1,1.1,18.3,4.6,26.3l-107.3,106.2
				C812.6,1475.6,798.9,1424.2,801.2,1374L801.2,1374z M1033,1627.5c-44.5-2.3-86.8-16-124.5-41.1l107.3-106.2
				c9.1,2.3,18.3,4.6,28.5,4.6c11.4,0,21.7-2.3,32-5.7l113,99.3C1144.9,1612.6,1089,1629.8,1033,1627.5z"/>
			<path id="path4271-3" class="st1" d="M1799.1,754c0-69.6-57.1-125.6-125.6-125.6l0,0h-1248c-65.1,0-138.2,52.5-138.2,124.5V2010
				c5.7,71.9,66.2,127.9,138.2,129h550.3v-26.3H425.6c-57.1-1.1-105-45.7-109.6-103.9v-1256c0-54.8,59.4-97.1,109.6-97.1h1246.8
				c53.7,0,97.1,43.4,97.1,97.1v1145.2h29.7V754z"/>
			<path id="path4273-1" class="st2" d="M1428.1,2334.3l-6.9,10.3c-2.3,3.4-5.7,4.6-9.1,2.3l-27.4-19.4v20.6v12.6
				c0,3.4-3.4,6.9-6.9,6.9h-11.4c-3.4,0-6.9-3.4-8-6.9V2348v-20.6l-27.4,18.3c-3.4,2.3-8,1.1-10.3-1.1l-6.9-10.3
				c-2.3-3.4-1.1-8,2.3-10.3l0,0l32-18.3l-32-18.3c-3.4-3.4-3.4-8,0-11.4l0,0l6.9-10.3c2.3-2.3,6.9-2.3,9.1,0l27.4,18.3v-22.8v-10.3
				c0-3.4,1.1-6.9,4.6-8h11.4c3.4,0,6.9,3.4,6.9,6.9v10.3v22.8l27.4-19.4c3.4-2.3,8-1.1,10.3,2.3l6.9,10.3c2.3,3.4,2.3,8-1.1,10.3
				l0,0l-32,18.3l32,19.4C1429.2,2326.3,1430.3,2329.7,1428.1,2334.3C1428.1,2333.1,1428.1,2334.3,1428.1,2334.3z"/>
			<path id="path4275-4" class="st2" d="M1597,2334.3l-6.9,10.3c-2.3,3.4-5.7,4.6-9.1,2.3l-27.4-19.4v32c0,3.4-3.4,6.9-6.9,6.9l0,0
				h-11.4c-3.4,0-6.9-3.4-6.9-6.9l0,0v-32l-27.4,18.3c-3.4,2.3-8,1.1-10.3-1.1l-6.9-10.3c-2.3-3.4-1.1-8,2.3-10.3l0,0l32-18.3
				l-32-18.3c-3.4-2.3-4.6-8-1.1-11.4c0,0,0,0,0-1.1l6.9-10.3c2.3-2.3,6.9-2.3,9.1,0l27.4,18.3V2260v-10.3c0-3.4,3.4-6.9,6.9-6.9
				l0,0h11.4c3.4,0,6.9,3.4,6.9,6.9l0,0v32l27.4-19.4c3.4-2.3,8-1.1,10.3,2.3l5.7,10.3c3.4,2.3,3.4,6.9,0,10.3l0,0l-32,18.3l32,19.4
				C1600.5,2327.4,1600.5,2330.8,1597,2334.3C1598.2,2334.3,1597,2334.3,1597,2334.3z"/>
			<path id="path4277-8" class="st2" d="M1996.7,2274.9c3.4-4.6,4.6-6.9,8-10.3c2.3-2.3,6.9-2.3,9.1,0l27.4,18.3v-32
				c-1.1-3.4,1.1-8,4.6-9.1h11.4c3.4,0,6.9,3.4,6.9,6.9l0,0v32l27.4-19.4c3.4-2.3,8-1.1,10.3,2.3l5.7,10.3c2.3,3.4,2.3,8-1.1,10.3
				l0,0l-32,18.3l32,19.4c3.4,2.3,4.6,6.9,2.3,10.3l-6.9,10.3c-2.3,3.4-5.7,4.6-9.1,2.3l-27.4-19.4v32c0,3.4-3.4,6.9-6.9,6.9l0,0
				h-11.4c-3.4,0-6.9-3.4-6.9-6.9l0,0v-32l-27.4,18.3c-3.4,2.3-8,1.1-10.3-1.1l-4.6-9.1c-2.3-3.4-1.1-8,1.1-10.3l0,0l32-18.3
				l-32-18.3C1994.4,2284,1994.4,2278.3,1996.7,2274.9z"/>
			<path id="path4279-9" class="st2" d="M1825.4,2274.9c3.4-4.6,4.6-6.9,8-10.3c2.3-2.3,6.9-2.3,9.1,0l27.4,18.3v-32
				c0-3.4,3.4-6.9,6.9-6.9l0,0h11.4c3.4,0,6.9,3.4,6.9,6.9l0,0v32l27.4-19.4c3.4-2.3,8-1.1,10.3,2.3l6.9,10.3
				c2.3,3.4,1.1,8-2.3,10.3l0,0l-32,18.3l32,19.4c3.4,2.3,4.6,6.9,2.3,10.3l-6.9,10.3c-2.3,3.4-5.7,4.6-9.1,2.3l-27.4-19.4v32
				c0,3.4-3.4,6.9-6.9,6.9l0,0h-11.4c-3.4,0-6.9-3.4-6.9-6.9l0,0v-32l-27.4,18.3c-3.4,2.3-8,1.1-10.3-1.1l-5.7-10.3
				c-2.3-3.4-1.1-8,1.1-10.3l0,0l32-18.3l-32-18.3C1823.1,2285.2,1822,2279.4,1825.4,2274.9
				C1825.4,2276,1825.4,2274.9,1825.4,2274.9z"/>
			<path id="path4281-6" class="st2" d="M1751.2,2264.6c3.4-2.3,8-1.1,10.3,2.3l6.9,10.3c2.3,3.4,1.1,8-2.3,10.3l0,0l-32,18.3
				l32,19.4c3.4,2.3,4.6,6.9,2.3,10.3l-6.9,10.3c-2.3,3.4-5.7,4.6-9.1,2.3l-28.5-20.6v32c0,3.4-3.4,6.9-6.9,6.9l0,0h-11.4
				c-3.4,0-6.9-3.4-6.9-6.9l0,0v-32l-25.1,18.3c-3.4,2.3-8,1.1-10.3-1.1l-5.7-10.3c-2.3-3.4-1.1-8,1.1-10.3l0,0l32-18.3l-10.3-5.7
				l-21.7-12.6c-3.4-2.3-4.6-6.9-2.3-10.3c2.3-4.6,4.6-6.9,6.9-10.3c2.3-2.3,6.9-2.3,9.1,0l22.8,16l4.6,3.4V2276v-25.1
				c0-3.4,1.1-6.9,4.6-8h11.4c3.4,0,6.9,3.4,6.9,6.9l0,0v32L1751.2,2264.6z"/>
			<path id="path4283-7" class="st2" d="M2301.5,2333.1c3.4,9.1,4.6,19.4,5.7,29.7c-3.4,59.4-53.7,105-111.9,102.8h-928.3v-84.5
				l-235.2,174.7l235.2,174.7V2646h924.8l0,0h13.7c97.1,4.6,179.3-70.8,183.8-167.8C2389.4,2415.3,2355.2,2360.5,2301.5,2333.1z"/>
			<path id="path4285-7" class="st2" d="M1123.2,2278.3c-3.4-9.1-4.6-19.4-5.7-29.7c2.3-59.4,52.5-105,111.9-102.8h926v84.5
				l235.2-174.7L2155.4,1881v84.5h-924.9l0,0h-13.7c-97.1-4.6-179.3,70.8-183.8,167.8C1034.1,2196.1,1068.4,2250.9,1123.2,2278.3z"
				/>
			<path id="path4287-3" class="st2" d="M1872.2,397.8H214.3c-86.8,0-157.6,70.8-157.6,157.6v194.1H22.5v269.5h34.3v729.6H22.5V2018
				h34.3v194.1c-1.1,86.8,68.5,158.7,155.3,159.9c1.1,0,1.1,0,2.3,0h848.4c-35.4-19.4-61.7-49.1-77.6-85.6H214.3
				c-40,0-71.9-32-71.9-71.9c0,0,0,0,0-1.1V555.3c0-40,32-71.9,71.9-71.9h1657.9c40,0,71.9,32,71.9,71.9v1342.7h85.6V555.3
				C2028.6,468.6,1959,398.9,1872.2,397.8z"/>
		</g>
	</g>
</g>
</svg>
