<?xml version="1.0" encoding="utf-8"?>
<!-- Generator: Adobe Illustrator 23.0.3, SVG Export Plug-In . SVG Version: 6.00 Build 0)  -->
<!-- <svg version="1.1" id="Layer_1" xmlns:se="http://svg-edit.googlecode.com" xmlns:svg="http://www.w3.org/2000/svg"
	 xmlns="http://www.w3.org/2000/svg" xmlns:xlink="http://www.w3.org/1999/xlink" x="0px" y="0px" viewBox="0 0 612 792"
	 style="enable-background:new 0 0 612 792;" xml:space="preserve"> -->

<svg width="100%" height="100%" viewBox="0 150 615 490" xmlns="http://www.w3.org/2000/svg" xmlns:svg="http://www.w3.org/2000/svg" xmlns:se="http://svg-edit.googlecode.com" data-name="Layer 1">

<style type="text/css">
	.st0{fill:#58595B;stroke:none;stroke-width:20;}
	.st1{fill:none;}
	.st2{fill:#58595B;}
	.st3{fill:#58595B;stroke:none;stroke-width:20;}
	.st4{fill:#58595B;}
</style>
<g id="layer1" transform="translate(35.388016,-139.60634)">
	<g id="Layer_2-338-1" transform="matrix(0.23867043,0,0,0.23867043,-35.388016,139.60634)">
		<g id="Layer_1-2-60-4">
			<rect id="rect5985-9" x="19.3" y="1892" class="st0" width="81.8" height="248.1"/>
			<rect id="rect5987-1" x="19.3" y="975.8" class="st0" width="81.8" height="248.1"/>
			<g>
				<path class="st1" d="M980.4,1466.5c11.7,0,22.9,2.2,33.1,6.3l102.3-101.7c-35.2-25.5-77.9-41.3-124.4-43.3h-10.1
					c-55.3,0-106,19.7-145.7,52.3l107.3,94.5C954.4,1469.4,967.1,1466.5,980.4,1466.5z"/>
				<path class="st1" d="M889.5,1557.5c0-9.4,1.4-18.6,4.1-27.1l-106.9-94.3c-20.3,32.6-32.6,70.6-34.1,111.4
					c-3.5,53.7,11.8,104,40.2,144.9l102.8-102.2C891.6,1580,889.5,1569,889.5,1557.5z"/>
				<path class="st1" d="M980.4,1648.5c-11.3,0-22.1-2.1-32.1-5.8l-103.7,103.3c34.6,25.6,76.7,42,122.9,45
					c61.2,4,118-16.4,161.4-52.8l-110.8-97.8C1006.7,1645.5,993.9,1648.5,980.4,1648.5z"/>
				<path class="st1" d="M1211.1,1567.6c2.3-53.5-13.9-103.5-42.9-144l-102.5,102.1c3.7,9.9,5.7,20.6,5.7,31.7
					c0,9.3-1.4,18.2-4,26.7l110.4,97.2c18.9-30.9,30.7-66.8,33.3-105.5C1211.1,1573.1,1211.1,1570.4,1211.1,1567.6z"/>
				<path class="st2" d="M1222.2,1369.9l14.6-14.6c1.8-0.9,2.8-2.8,4.6-4.6c12.9-15.6,11-39.5-4.6-52.4c-15.6-12.9-39.5-11-52.4,4.6
					l-14.7,14.6c-47.9-37.4-107.4-61-172.8-64.2c-83.3-4.1-160.2,25.6-217.7,77.1l-16.6-14.6c-15.6-12.9-38.6-11.9-52.4,3.7
					c-12.9,15.6-11.9,38.6,3.7,52.4l16.4,14.5c-30.5,44.8-49.4,98.3-52.2,156.5c-3.7,75.4,20.3,145.5,63.1,200.8l-15.3,15.2
					c-14.7,14.7-14.7,37.7,0,52.4c6.4,6.4,15.6,11,25.7,11c10.1,0,19.3-3.7,27.6-11l14.5-14.5c48.1,37.9,108,61.8,173.8,65h13.8
					c74.1,0.9,145.5-25.8,202-75.6l14.9,13.1c7.4,5.5,15.6,9.2,24.8,9.2c10.1,0,20.2-4.6,26.6-13.8c13.8-15.6,12.9-38.6-2.8-52.4
					l-13.7-12c32-46.3,50.6-101,53.2-158C1290.2,1496.2,1265.7,1425.4,1222.2,1369.9z M981.4,1327.8h10.1
					c46.6,2,89.3,17.9,124.4,43.3l-102.3,101.7c-10.3-4-21.4-6.3-33.1-6.3c-13.4,0-26,2.9-37.5,8.1l-107.3-94.5
					C875.3,1347.4,926.1,1327.8,981.4,1327.8z M752.5,1547.4c1.5-40.8,13.9-78.8,34.1-111.4l106.9,94.3c-2.7,8.6-4.1,17.7-4.1,27.1
					c0,11.5,2.2,22.5,6.1,32.6l-102.8,102.2C764.4,1651.4,749,1601.1,752.5,1547.4z M967.6,1790.9c-46.2-3-88.3-19.4-122.9-45
					l103.7-103.3c10,3.8,20.8,5.8,32.1,5.8c13.5,0,26.2-2.9,37.7-8.2l110.8,97.8C1085.6,1774.5,1028.7,1794.9,967.6,1790.9z
					 M1067.4,1584.2c2.6-8.4,4-17.4,4-26.7c0-11.2-2-21.9-5.7-31.7l102.5-102.1c29,40.4,45.2,90.4,42.9,144c0,2.8,0,5.5,0,8.3
					c-2.5,38.7-14.4,74.5-33.3,105.5L1067.4,1584.2z"/>
			</g>
			<path id="path5997-7" class="st3" d="M215,2385.5c-35.8-0.9-65.2-30.3-65.2-66.2V796.6c0-35.8,29.4-65.2,65.2-66.2h1523.6
				c36.8,0,66.2,29.4,66.2,66.2v346.4h78.1V796.6c0-79.9-64.3-144.3-144.3-144.3l0,0H215c-79,0-143.4,64.3-143.4,144.3v1522.7
				c0,79.9,64.3,144.3,144.3,144.3h1126.6v-78.1H215z"/>
			<path id="path5999-0" class="st4" d="M409.8,2219.1c-48.7-1.8-89.1-39.5-94.6-87.3V977.7c0-45.9,50.5-80.9,94.6-80.9h1144.1
				c45,0,82.7,35.8,84.5,80.9V1144h38.6V977.7c-0.9-67.1-56.1-120.4-123.1-119.5l0,0H409.8c-62.5,0-133.2,52.4-133.2,119.5v1154.2
				c5.5,69.8,62.5,125,133.2,125.9h932.7v-38.6H409.8z"/>
			<path id="path6001-4" class="st0" d="M2354.2,1674.2h-433.7c-6.4,0-11,5.5-11,11c0,6.4,5.5,11,11,11l0,0h433.7
				c6.4,0,11-5.5,11-11C2365.3,1679.7,2360.7,1674.2,2354.2,1674.2z"/>
			<path id="path6003-8" class="st0" d="M2365.3,1914.1c0-6.4-4.6-11-11-11c0,0,0,0-0.9,0h-433.7c-6.4-0.9-11.9,3.7-12.9,9.2
				c-0.9,6.4,3.7,11.9,9.2,12.9c0.9,0,2.8,0,3.7,0h433.7C2360.7,1925.1,2365.3,1920.5,2365.3,1914.1L2365.3,1914.1z"/>
			<path id="path6005-0" class="st0" d="M1920.5,1765.2h205.8c6.4,0,11-5.5,11-11c0-6.4-4.6-11-11-11l0,0h-205.8
				c-6.4,0-11,4.6-11,11C1909.5,1760.6,1914.1,1765.2,1920.5,1765.2L1920.5,1765.2z"/>
			<path id="path6007-4" class="st0" d="M1920.5,1993.1h205.8c6.4,0,11-5.5,11-11c0-6.4-5.5-11-11-11h-205.8c-6.4,0-11,5.5-11,11
				C1909.5,1988.5,1914.1,1993.1,1920.5,1993.1L1920.5,1993.1z"/>
			<path id="path6009-2" class="st0" d="M1920.5,2221h205.8c6.4,0,11-5.5,11-11c0-6.4-5.5-11-11-11h-205.8c-6.4,0-11,5.5-11,11
				C1909.5,2216.4,1914.1,2221,1920.5,2221L1920.5,2221z"/>
			<path id="path6011-9" class="st0" d="M1920.5,2425.9c-6.4,0-11.9,5.5-11.9,11.9s5.5,11.9,11.9,11.9h205.8c6.4,0,11-5.5,11-11.9
				s-5.5-11-11-11L1920.5,2425.9z"/>
			<path id="path6013-6" class="st3" d="M2546.3,1543.7c0-9.2-3.7-17.5-10.1-23.9l-302.3-302.3c-6.4-6.4-14.7-10.1-23.9-10.1h-746.2
				c-19.3,0-34,15.6-34,34l0,0v1390.3c0,19.3,15.6,34,34,34h1048.5c19.3,0,34-15.6,34-34V1543.7z M2477.4,2596.8h-979.6V1275.4H2187
				v268.3c0,12.9,10.1,23,22.1,23l0,0h268.3V2596.8z M2232.9,1312.2l208.6,208.6h-208.6V1312.2L2232.9,1312.2z"/>
			<path id="path6015-1" class="st0" d="M2341.4,2130h-419.9c-6.4-0.9-11.9,3.7-12.9,9.2c-0.9,6.4,3.7,11.9,9.2,12.9
				c0.9,0,2.8,0,3.7,0h406.2L2341.4,2130z"/>
			<path id="path6017-0" class="st0" d="M2279.8,2357.9h-359.3c-6.4-0.9-11.9,3.7-12.9,9.2c-0.9,6.4,3.7,11.9,9.2,12.9
				c0.9,0,2.8,0,3.7,0h359.3V2357.9z"/>
			<path id="path6019-4" class="st0" d="M1812.1,1828.6c-8.3-9.2-23-9.2-31.2-0.9c0,0,0,0-0.9,0.9L1671.5,1937l-29.4-29.4
				c-9.2-9.2-23.9-9.2-33.1-0.9c-9.2,9.2-9.2,23.9-0.9,33.1l45.9,45.9c4.6,4.6,10.1,6.4,16.5,6.4c6.4,0,11.9-2.8,16.5-6.4l124.1-125
				C1820.3,1851.6,1820.3,1837.8,1812.1,1828.6L1812.1,1828.6z"/>
			<path id="path6021-2" class="st0" d="M1751.4,2026.2h-177.4v-164.5h177.4V2026.2z M1591.5,2008.7H1734v-130.5h-142.4V2008.7z"/>
			<path id="path6023-2" class="st0" d="M1812.1,2062c-9.2-9.2-23-9.2-32.2,0l-108.4,108.4l-29.4-29.4c-9.2-9.2-23.9-9.2-33.1-0.9
				c-9.2,9.2-9.2,23.9-0.9,33.1l45.9,45.9c4.6,4.6,10.1,6.4,16.5,6.4c6.4,0,11.9-2.8,16.5-6.4l124.1-124.1
				C1820.3,2085.9,1820.3,2071.2,1812.1,2062z"/>
			<path id="path6025-2" class="st0" d="M1751.4,2260.5h-177.4V2096h177.4V2260.5z M1591.5,2241.2H1734v-127.7h-142.4V2241.2z"/>
			<path id="path6027-0" class="st0" d="M1812.1,2295.4c-9.2-9.2-23-9.2-32.2,0l-108.4,108.4l-29.4-29.4c-9.2-9.2-23.9-9.2-33.1-0.9
				c-9.2,8.3-9.2,23.9-0.9,33.1l45.9,45.9c4.6,4.6,10.1,6.4,16.5,6.4c6.4,0,11.9-2.8,16.5-6.4l124.1-124.1
				C1820.3,2319.3,1820.3,2304.6,1812.1,2295.4z"/>
			<path id="path6029-5" class="st0" d="M1751.4,2493.9h-177.4v-164.5h177.4V2493.9z M1591.5,2475.5H1734V2345h-142.4V2475.5z"/>
			<path id="path6031-5" class="st0" d="M1812.1,1594.3c-9.2-9.2-23-9.2-32.2,0l-108.4,108.4l-29.4-29.4c-9.2-9.2-23.9-9.2-33.1-0.9
				c-9.2,9.2-9.2,23.9-0.9,33.1l45.9,45.9c4.6,4.6,10.1,6.4,16.5,6.4c6.4,0,11.9-2.8,16.5-6.4l124.1-125
				C1820.3,1618.2,1820.3,1603.5,1812.1,1594.3z"/>
			<path id="path6033-2" class="st0" d="M1751.4,1791.8h-177.4v-164.5h177.4V1791.8z M1591.5,1774.4H1734v-129.6h-142.4V1774.4z"/>
			<path id="path6035-9" class="st0" d="M1582.3,1483.1l52.4-108.4c0-0.9,1.8-1.8,2.8-1.8h1.8c0.9,0,1.8,0.9,2.8,1.8l49.6,108.4
				c0.9,1.8,0,3.7-1.8,4.6h-0.9h-15.6c-1.8,0-3.7-0.9-4.6-3.7l-8.3-17.5h-48.7l-8.3,17.5c-0.9,1.8-2.8,3.7-4.6,3.7h-13.8
				c-1.8,0.9-2.8,0-3.7-1.8C1581.4,1484.9,1581.4,1484,1582.3,1483.1z M1652.2,1449.1l-16.5-35.8l0,0l-15.6,35.8H1652.2z"/>
			<path id="path6037-0" class="st0" d="M1710.1,1377.4c0-1.8,0.9-2.8,2.8-2.8h15.6c1.8,0,2.8,1.8,2.8,2.8l0,0v66.2
				c-0.9,12.9,8.3,24.8,21.1,25.7c12.9,0.9,24.8-8.3,25.7-21.1c0-1.8,0-3.7,0-4.6v-66.2c0-1.8,1.8-2.8,2.8-2.8l0,0h15.6
				c1.8,0,2.8,1.8,2.8,2.8v67.1c-1.8,24.8-23.9,44.1-48.7,41.4c-22.1-1.8-40.4-19.3-41.4-41.4L1710.1,1377.4z"/>
			<path id="path6039-2" class="st0" d="M1836,1377.4c0-1.8,0.9-2.8,2.8-2.8h38.6c31.2,0,57,25.7,57,57c0,31.2-25.7,57-57,57l0,0
				h-38.6c-1.8,0-2.8-1.8-2.8-2.8V1377.4z M1875.5,1467.5c20.2-1.8,35.8-19.3,34-40.4c-1.8-18.4-15.6-32.2-34-34h-18.4v74.4H1875.5z
				"/>
			<path id="path6041-8" class="st0" d="M1963.7,1377.4c0-1.8,1.8-2.8,2.8-2.8h14.7c1.8,0,2.8,1.8,2.8,2.8v107.5
				c0,1.8-1.8,2.8-2.8,2.8h-14.7c-1.8,0-2.8-1.8-2.8-2.8V1377.4z"/>
			<path id="path6043-3" class="st0" d="M2038.1,1393h-24.8c-1.8,0-2.8-1.8-2.8-2.8l0,0v-12.9c0-1.8,1.8-2.8,2.8-2.8l0,0h70.8
				c1.8,0,2.8,1.8,2.8,2.8l0,0v12.9c0,1.8-1.8,2.8-2.8,2.8l0,0h-25.7v91c0,1.8-1.8,2.8-2.8,2.8h-14.7c-1.8,0-2.8-1.8-2.8-2.8
				L2038.1,1393z"/>
		</g>
	</g>
</g>
</svg>
