<?xml version="1.0" encoding="utf-8"?>
<!-- Generator: Adobe Illustrator 23.0.3, SVG Export Plug-In . SVG Version: 6.00 Build 0)  -->
<svg version="1.1" id="Layer_1" xmlns:se="http://svg-edit.googlecode.com" xmlns:svg="http://www.w3.org/2000/svg"
	 xmlns="http://www.w3.org/2000/svg" xmlns:xlink="http://www.w3.org/1999/xlink" x="0px" y="0px" viewBox="0 0 612 792"
	 style="enable-background:new 0 0 612 792;" xml:space="preserve">

<!-- <svg width="100%" height="100%" viewBox="-0.5 -0.5 54.8 53.3" xmlns="http://www.w3.org/2000/svg" xmlns:svg="http://www.w3.org/2000/svg" xmlns:se="http://svg-edit.googlecode.com" data-name="Layer 1">	  -->
<style type="text/css">
	.st0{fill:none;}
	.st1{fill:#58595B;stroke:#000000;stroke-width:5;stroke-miterlimit:10;}
	.st2{fill:#58595B;}
	.st3{fill:#CCCCCC;}
</style>
<g id="layer1" transform="translate(33.305237,-139.60633)">
	<g id="Layer_2-76-2" transform="matrix(0.24605333,0,0,0.24605333,-33.305237,139.60633)">
		<g id="Layer_1-2-56-8">
			<g>
				<path class="st0" d="M2276.4,525.3l-1996.8-1.1c-48,0-87.1,39.1-87.1,88.2c0,0,0,0,0,1.1v1994.6c0,48,38,88.2,86,88.2
					c0,0,0,0,1.1,0h1996.8c48,0,87.1-39.1,87.1-88.2V612.4C2363.5,564.3,2324.4,525.3,2276.4,525.3z"/>
				<path class="st1" d="M2276.4,422.5H279.6c-105,0-189.9,84.9-189.9,189.9v234.5h-67v325h67v875.6h-67v325h67V2607
					c0,105,84.9,189.9,189.9,189.9h1995.7c105,0,189.9-84.9,191-189.9V612.4C2466.2,507.4,2381.4,422.5,2276.4,422.5z
					 M2363.5,2608.1c0,49.1-39.1,88.2-87.1,88.2H279.6c-1.1,0-1.1,0-1.1,0c-48,0-86-40.2-86-88.2V613.5c0-1.1,0-1.1,0-1.1
					c0-49.1,39.1-88.2,87.1-88.2l1996.8,1.1c48,0,87.1,39.1,87.1,87.1V2608.1z"/>
			</g>
			<path id="path3219-4" class="st2" d="M2034,2527.7H534.2c-91.6-2.2-167.5-73.7-174.2-165.3V849.1c0-90.5,91.6-158.6,174.2-158.6
				h1501c87.1-1.1,159.7,68.1,160.8,155.2c0,1.1,0,2.2,0,3.4v1520l-2.2,3.4C2189.3,2458.4,2120,2525.4,2034,2527.7z M534.2,741.9
				c-57,0-124,46.9-124,107.2v1513.3c7.8,63.7,59.2,111.7,124,115h1501c60.3-1.1,109.4-50.3,109.4-110.6v-6.7l2.2-3.4V849.1
				c-2.2-59.2-50.3-107.2-110.6-107.2C2036.3,741.9,534.2,741.9,534.2,741.9z"/>
			<path id="path3221-0" class="st3" d="M481.7,986.5h126.2v23.5H481.7V986.5z M513,782.1h15.6v23.5h-42.4L513,782.1z M558.8,983.1
				h-24.6v-201h24.6V983.1z"/>
			<path id="path3223-6" class="st3" d="M689.4,782.1h79.3v23.5H664.8L689.4,782.1z M689.4,1009.9l-24.6-24.6V808.9h22.3
				L689.4,1009.9z M772.1,1009.9h-79.3v-23.5h103.9L772.1,1009.9z M772.1,782.1l24.6,24.6v177.6h-24.6V782.1z"/>
			<path id="path3225-2" class="st3" d="M845.8,986.5H972v23.5H845.8V986.5z M877,782.1h17.9v23.5h-43.6L877,782.1z M922.8,983.1
				h-24.6v-201h24.6V983.1z"/>
			<path id="path3227-9" class="st3" d="M1054.6,782.1h79.3v23.5H1030L1054.6,782.1z M1054.6,1009.9l-24.6-24.6V808.9h24.6V1009.9z
				 M1137.3,1009.9H1058v-23.5h105L1137.3,1009.9z M1137.3,782.1l24.6,24.6v177.6h-24.6V782.1z"/>
			<path id="path3229-9" class="st3" d="M1212.1,986.5h126.2v23.5h-126.2V986.5z M1244.5,782.1h17.9v23.5h-44.7L1244.5,782.1z
				 M1289.1,983.1h-24.6v-201h24.6V983.1z"/>
			<path id="path3231-0" class="st3" d="M1419.8,782.1h79.3v23.5h-103.9L1419.8,782.1z M1419.8,1009.9l-24.6-24.6V808.9h24.6V1009.9
				z M1502.4,1009.9h-79.3v-23.5h105L1502.4,1009.9z M1502.4,782.1l24.6,24.6v177.6h-24.6V782.1z"/>
			<path id="path3233-8" class="st3" d="M1577.3,986.5h126.2v23.5h-126.2V986.5z M1609.7,782.1h17.9v23.5h-44.7L1609.7,782.1z
				 M1655.4,983.1h-24.6v-201h24.6V983.1z"/>
			<path id="path3235-9-1" class="st3" d="M1785,782.1h79.3v23.5h-103.9L1785,782.1z M1785,1009.9l-24.6-24.6V808.9h24.6V1009.9z
				 M1867.6,1009.9h-79.3v-23.5h103.9L1867.6,1009.9z M1867.6,782.1l24.6,24.6v177.6h-24.6V782.1z"/>
			<path id="path3237-3-3" class="st3" d="M1942.5,986.5h126.2v23.5h-126.2V986.5z M1974.8,782.1h17.9v23.5H1948L1974.8,782.1z
				 M2020.6,983.1h-24.6v-201h24.6V983.1z"/>
			<path id="path3239-7-1" class="st3" d="M506.3,1066.9h79.3v23.5H481.7L506.3,1066.9z M506.3,1294.7l-24.6-24.6v-177.6h24.6
				V1294.7z M588.9,1294.7h-79.3v-23.5h105L588.9,1294.7z M588.9,1066.9l24.6,24.6V1269h-24.6V1066.9z"/>
			<path id="path3241-1" class="st3" d="M664.8,1271.3H791v23.5H664.8V1271.3z M696.1,1066.9H714v23.5h-44.7L696.1,1066.9z
				 M741.9,1267.9h-24.6v-201h24.6V1267.9z"/>
			<path id="path3243-0" class="st3" d="M872.6,1066.9h79.3v23.5h-105L872.6,1066.9z M872.6,1294.7l-26.8-24.6v-177.6h24.6
				L872.6,1294.7z M954.1,1294.7h-79.3v-23.5h103.9L954.1,1294.7z M954.1,1066.9l24.6,24.6V1269h-24.6V1066.9z"/>
			<path id="path3245-3" class="st3" d="M1030,1271.3h126.2v23.5H1030V1271.3z M1061.3,1066.9h17.9v23.5h-43.6L1061.3,1066.9z
				 M1107.1,1267.9h-24.6v-201h24.6V1267.9z"/>
			<path id="path3247-4" class="st3" d="M1237.8,1066.9h79.3v23.5h-103.9L1237.8,1066.9z M1237.8,1294.7l-24.6-24.6v-177.6h24.6
				V1294.7z M1319.3,1294.7H1240v-23.5h103.9L1319.3,1294.7z M1319.3,1066.9l24.6,24.6V1269h-23.5L1319.3,1066.9z"/>
			<path id="path3249-0" class="st3" d="M1395.2,1271.3h126.2v23.5h-126.2C1395.2,1294.7,1395.2,1271.3,1395.2,1271.3z
				 M1426.5,1066.9h17.9v23.5h-44.7L1426.5,1066.9z M1472.3,1267.9h-24.6v-201h24.6V1267.9z"/>
			<path id="path3251-3" class="st3" d="M1603,1066.9h79.3v23.5h-103.9L1603,1066.9z M1603,1294.7l-24.6-24.6v-177.6h24.6V1294.7z
				 M1684.5,1294.7h-79.3v-23.5H1709L1684.5,1294.7z M1684.5,1066.9l24.6,24.6V1269h-24.6V1066.9z"/>
			<path id="path3253-9" class="st3" d="M1760.4,1271.3h126.2v23.5h-126.2V1271.3z M1791.7,1066.9h17.9v23.5h-44.7L1791.7,1066.9z
				 M1837.5,1267.9h-24.6v-201h24.6V1267.9z"/>
			<path id="path3255-1" class="st3" d="M1968.1,1066.9h80.4v23.5h-106.1L1968.1,1066.9z M1968.1,1294.7l-24.6-24.6v-177.6h24.6
				V1294.7z M2050.8,1294.7h-79.3v-23.5h103.9L2050.8,1294.7z M2050.8,1066.9l24.6,24.6V1269h-24.6V1066.9z"/>
			<path id="path3257-9" class="st3" d="M481.7,1556.1h126.2v23.5H481.7V1556.1z M513,1351.7h15.6v23.5h-42.4L513,1351.7z
				 M558.8,1552.7h-24.6v-201h24.6V1552.7z"/>
			<path id="path3259-6" class="st3" d="M664.8,1556.1H791v23.5H664.8V1556.1z M696.1,1351.7H714v23.5h-44.7L696.1,1351.7z
				 M741.9,1552.7h-24.6v-201h24.6V1552.7z"/>
			<path id="path3261-9" class="st3" d="M872.6,1351.7h79.3v23.5h-105L872.6,1351.7z M872.6,1579.5l-26.8-24.6v-177.6h24.6
				L872.6,1579.5z M954.1,1579.5h-79.3v-23.5h103.9L954.1,1579.5z M954.1,1351.7l24.6,24.6v176.5h-24.6V1351.7z"/>
			<path id="path3263-3" class="st3" d="M1030,1556.1h126.2v23.5H1030V1556.1z M1061.3,1351.7h17.9v23.5h-43.6L1061.3,1351.7z
				 M1107.1,1552.7h-24.6v-201h24.6V1552.7z"/>
			<path id="path3265-3" class="st3" d="M1212.1,1556.1h126.2v23.5h-126.2V1556.1z M1244.5,1351.7h17.9v23.5h-44.7L1244.5,1351.7z
				 M1289.1,1552.7h-24.6v-201h24.6V1552.7z"/>
			<path id="path3267-8" class="st3" d="M1419.8,1351.7h79.3v23.5h-103.9L1419.8,1351.7z M1419.8,1579.5l-24.6-24.6v-177.6h24.6
				V1579.5z M1502.4,1579.5h-79.3v-23.5h105L1502.4,1579.5z M1502.4,1351.7l24.6,24.6v176.5h-24.6V1351.7z"/>
			<path id="path3269-0" class="st3" d="M1577.3,1556.1h126.2v23.5h-126.2V1556.1z M1609.7,1351.7h17.9v23.5h-44.7L1609.7,1351.7z
				 M1655.4,1552.7h-24.6v-201h24.6V1552.7z"/>
			<path id="path3271-5" class="st3" d="M1760.4,1556.1h126.2v23.5h-126.2V1556.1z M1791.7,1351.7h17.9v23.5h-44.7L1791.7,1351.7z
				 M1837.5,1552.7h-24.6v-201h24.6V1552.7z"/>
			<path id="path3273-6" class="st3" d="M1968.1,1351.7h80.4v23.5h-106.1L1968.1,1351.7z M1968.1,1579.5l-24.6-24.6v-177.6h24.6
				V1579.5z M2050.8,1579.5h-79.3v-23.5h103.9L2050.8,1579.5z M2050.8,1351.7l24.6,24.6v176.5h-24.6V1351.7z"/>
			<path id="path3275-6" class="st3" d="M506.3,1636.5h79.3v23.5H481.7L506.3,1636.5z M506.3,1864.3l-24.6-24.6v-176.5h24.6V1864.3z
				 M588.9,1864.3h-79.3v-23.5h105L588.9,1864.3z M588.9,1636.5l24.6,24.6v176.5h-24.6V1636.5z"/>
			<path id="path3277-4" class="st3" d="M689.4,1636.5h79.3v23.5H664.8L689.4,1636.5z M689.4,1864.3l-24.6-24.6v-176.5h22.3
				L689.4,1864.3z M772.1,1864.3h-79.3v-23.5h103.9L772.1,1864.3z M772.1,1636.5l24.6,24.6v176.5h-24.6V1636.5z"/>
			<path id="path3279-0" class="st3" d="M872.6,1636.5h79.3v23.5h-105L872.6,1636.5z M872.6,1864.3l-26.8-24.6v-176.5h24.6
				L872.6,1864.3z M954.1,1864.3h-79.3v-23.5h103.9L954.1,1864.3z M954.1,1636.5l24.6,24.6v176.5h-24.6V1636.5z"/>
			<path id="path3281-0" class="st3" d="M1030,1840.8h126.2v23.5H1030V1840.8z M1061.3,1636.5h17.9v23.5h-43.6L1061.3,1636.5z
				 M1107.1,1837.5h-24.6v-202.1h24.6V1837.5z"/>
			<path id="path3283-4" class="st3" d="M1237.8,1636.5h79.3v23.5h-103.9L1237.8,1636.5z M1237.8,1864.3l-24.6-24.6v-176.5h24.6
				V1864.3z M1319.3,1864.3H1240v-23.5h103.9L1319.3,1864.3z M1319.3,1636.5l24.6,24.6v176.5h-23.5L1319.3,1636.5z"/>
			<path id="path3285-6" class="st3" d="M1395.2,1840.8h126.2v23.5h-126.2C1395.2,1864.3,1395.2,1840.8,1395.2,1840.8z
				 M1426.5,1636.5h17.9v23.5h-44.7L1426.5,1636.5z M1472.3,1837.5h-24.6v-202.1h24.6V1837.5z"/>
			<path id="path3287-2" class="st3" d="M1577.3,1840.8h126.2v23.5h-126.2V1840.8z M1609.7,1636.5h17.9v23.5h-44.7L1609.7,1636.5z
				 M1655.4,1837.5h-24.6v-202.1h24.6V1837.5z"/>
			<path id="path3289-6" class="st3" d="M1785,1636.5h79.3v23.5h-103.9L1785,1636.5z M1785,1864.3l-24.6-24.6v-176.5h24.6V1864.3z
				 M1867.6,1864.3h-79.3v-23.5h103.9L1867.6,1864.3z M1867.6,1636.5l24.6,24.6v176.5h-24.6V1636.5z"/>
			<path id="path3291-7" class="st3" d="M1942.5,1840.8h126.2v23.5h-126.2V1840.8z M1974.8,1636.5h17.9v23.5H1948L1974.8,1636.5z
				 M2020.6,1837.5h-24.6v-202.1h24.6V1837.5z"/>
			<path id="path3293-5" class="st3" d="M481.7,2125.6h126.2v23.5H481.7V2125.6z M513,1921.2h15.6v23.5h-42.4L513,1921.2z
				 M558.8,2122.3h-24.6v-202.1h24.6V2122.3z"/>
			<path id="path3295-6" class="st3" d="M689.4,1921.2h79.3v23.5H664.8L689.4,1921.2z M689.4,2149.1l-24.6-24.6v-177.6h22.3
				L689.4,2149.1z M772.1,2149.1h-79.3v-23.5h103.9L772.1,2149.1z M772.1,1921.2l24.6,24.6v177.6h-24.6V1921.2z"/>
			<path id="path3297-9" class="st3" d="M872.6,1921.2h79.3v23.5h-105L872.6,1921.2z M872.6,2149.1l-26.8-24.6v-177.6h24.6
				L872.6,2149.1z M954.1,2149.1h-79.3v-23.5h103.9L954.1,2149.1z M954.1,1921.2l24.6,24.6v177.6h-24.6V1921.2z"/>
			<path id="path3299-8" class="st3" d="M1054.6,1921.2h79.3v23.5H1030L1054.6,1921.2z M1054.6,2149.1l-24.6-24.6v-177.6h24.6
				V2149.1z M1137.3,2149.1H1058v-23.5h105L1137.3,2149.1z M1137.3,1921.2l24.6,24.6v177.6h-24.6V1921.2z"/>
			<path id="path3301-7" class="st3" d="M1212.1,2125.6h126.2v23.5h-126.2V2125.6z M1244.5,1921.2h17.9v23.5h-44.7L1244.5,1921.2z
				 M1289.1,2122.3h-24.6v-202.1h24.6V2122.3z"/>
			<path id="path3303-2" class="st3" d="M1419.8,1921.2h79.3v23.5h-103.9L1419.8,1921.2z M1419.8,2149.1l-24.6-24.6v-177.6h24.6
				V2149.1z M1502.4,2149.1h-79.3v-23.5h105L1502.4,2149.1z M1502.4,1921.2l24.6,24.6v177.6h-24.6V1921.2z"/>
			<path id="path3305-8" class="st3" d="M1603,1921.2h79.3v23.5h-103.9L1603,1921.2z M1603,2149.1l-24.6-24.6v-177.6h24.6V2149.1z
				 M1684.5,2149.1h-79.3v-23.5H1709L1684.5,2149.1z M1684.5,1921.2l24.6,24.6v177.6h-24.6V1921.2z"/>
			<path id="path3307-2" class="st3" d="M1760.4,2125.6h126.2v23.5h-126.2V2125.6z M1791.7,1921.2h17.9v23.5h-44.7L1791.7,1921.2z
				 M1837.5,2122.3h-24.6v-202.1h24.6V2122.3z"/>
			<path id="path3309-9" class="st3" d="M1942.5,2125.6h126.2v23.5h-126.2V2125.6z M1974.8,1921.2h17.9v23.5H1948L1974.8,1921.2z
				 M2020.6,2122.3h-24.6v-202.1h24.6V2122.3z"/>
			<path id="path3311-9" class="st3" d="M506.3,2206h79.3v23.5H481.7L506.3,2206z M506.3,2433.8l-24.6-24.6v-177.6h24.6V2433.8z
				 M588.9,2433.8h-79.3v-23.5h105L588.9,2433.8z M588.9,2206l24.6,24.6V2407h-24.6V2206z"/>
			<path id="path3313-6" class="st3" d="M664.8,2410.4H791v23.5H664.8V2410.4z M696.1,2206H714v23.5h-44.7L696.1,2206z M741.9,2407
				h-24.6v-201h24.6V2407z"/>
			<path id="path3315-0" class="st3" d="M845.8,2410.4H972v23.5H845.8V2410.4z M877,2206h17.9v23.5h-43.6L877,2206z M922.8,2407
				h-24.6v-201h24.6V2407z"/>
			<path id="path3317-2" class="st3" d="M1030,2410.4h126.2v23.5H1030V2410.4z M1061.3,2206h17.9v23.5h-43.6L1061.3,2206z
				 M1107.1,2407h-24.6v-201h24.6V2407z"/>
			<path id="path3319-7" class="st3" d="M1237.8,2206h79.3v23.5h-103.9L1237.8,2206z M1237.8,2433.8l-24.6-24.6v-177.6h24.6V2433.8z
				 M1319.3,2433.8H1240v-23.5h103.9L1319.3,2433.8z M1319.3,2206l24.6,24.6V2407h-23.5L1319.3,2206z"/>
			<path id="path3321-6" class="st3" d="M1395.2,2410.4h126.2v23.5h-126.2C1395.2,2433.8,1395.2,2410.4,1395.2,2410.4z M1426.5,2206
				h17.9v23.5h-44.7L1426.5,2206z M1472.3,2407h-24.6v-201h24.6V2407z"/>
			<path id="path3323-1" class="st3" d="M1577.3,2410.4h126.2v23.5h-126.2V2410.4z M1609.7,2206h17.9v23.5h-44.7L1609.7,2206z
				 M1655.4,2407h-24.6v-201h24.6V2407z"/>
			<path id="path3325-3" class="st3" d="M1760.4,2410.4h126.2v23.5h-126.2V2410.4z M1791.7,2206h17.9v23.5h-44.7L1791.7,2206z
				 M1837.5,2407h-24.6v-201h24.6V2407z"/>
			<path id="path3327-2" class="st3" d="M1942.5,2410.4h126.2v23.5h-126.2V2410.4z M1974.8,2206h17.9v23.5H1948L1974.8,2206z
				 M2020.6,2407h-24.6v-201h24.6V2407z"/>
			<g>
				<path class="st0" d="M1283.5,1490.2c15.6,0,30.2,3.4,43.6,7.8l134-132.9c-45.8-33.5-102.7-54.7-164.2-58.1h-13.4
					c-72.6,0-138.5,25.7-191,68.1l141.8,125.1C1250,1494.6,1265.7,1490.2,1283.5,1490.2z"/>
				<path class="st0" d="M1283.5,1729.2c-14.5,0-29-3.4-42.4-7.8l-134,132.9c50.3,35.7,110.6,58.1,176.5,58.1
					c72.6,0,139.6-25.7,191-69.2L1333.8,1718C1318.2,1724.7,1301.4,1729.2,1283.5,1729.2z"/>
				<path class="st0" d="M1164.1,1609.7c0-12.3,2.2-24.6,5.6-35.7l-140.7-124c-29,46.9-46.9,101.6-46.9,159.7
					c0,64.8,21.2,125.1,55.8,174.2l134-132.9C1167.4,1638.7,1164.1,1624.2,1164.1,1609.7z"/>
				<path class="st0" d="M1530.4,1435.4l-134,132.9c4.5,12.3,7.8,26.8,7.8,41.3c0,12.3-2.2,23.5-5.6,34.6l141.8,125.1
					c26.8-42.4,42.4-91.6,45.8-145.2C1588.4,1553.8,1567.2,1489,1530.4,1435.4z"/>
				<path class="st2" d="M1681.1,1627.5c4.5-97.2-26.8-188.7-81.5-260.2l20.1-20.1c16.8-19,16.8-46.9,0-65.9
					c-17.9-20.1-49.1-22.3-69.2-4.5l-21.2,21.2c-63.7-50.3-141.8-81.5-228.9-86c-107.2-4.5-206.6,33.5-281.4,99.4l-21.2-19
					c-2.2-3.4-5.6-5.6-8.9-7.8c-23.5-15.6-52.5-10.1-68.1,13.4c-15.6,23.5-8.9,53.6,13.4,68.1l21.2,19
					c-41.3,59.2-67,130.7-70.4,207.7c-4.5,98.3,26.8,188.7,82.6,261.3l-17.9,17.9c-8.9,8.9-14.5,21.2-14.5,34.6
					c-1.1,26.8,21.2,49.1,48,49.1c12.3,0,24.6-4.5,33.5-13.4l20.1-20.1c63.7,50.3,141.8,81.5,228.9,86h17.9
					c101.6,0,194.3-38,264.7-101.6l21.2,19c7.8,7.8,20.1,12.3,31.3,12.3c14.5,0,27.9-5.6,38-16.8c17.9-21.2,15.6-51.4-4.5-69.2
					l-21.2-19C1652.1,1773.8,1677.8,1704.6,1681.1,1627.5L1681.1,1627.5z M1283.5,1308.1h13.4c61.4,3.4,117.3,23.5,164.2,58.1
					l-134,132.9c-13.4-5.6-27.9-7.8-43.6-7.8c-17.9,0-33.5,4.5-49.1,11.2l-141.8-126.2C1145.1,1333.8,1211,1308.1,1283.5,1308.1z
					 M982,1609.7c0-59.2,16.8-113.9,46.9-159.7l141.8,125.1c-3.4,11.2-5.6,23.5-5.6,35.7c0,14.5,3.4,29,7.8,42.4l-134,132.9
					C1003.2,1734.7,982,1674.4,982,1609.7z M1283.5,1911.2c-65.9,0-127.3-21.2-176.5-58.1l134-132.9c13.4,5.6,27.9,7.8,42.4,7.8
					c17.9,0,34.6-4.5,50.3-11.2l141.8,125.1C1423.1,1885.5,1356.1,1911.2,1283.5,1911.2z M1397.5,1644.3c3.4-11.2,5.6-22.3,5.6-34.6
					c0-14.5-3.4-27.9-7.8-41.3l134-132.9c38,53.6,58.1,118.4,54.7,188.7c-2.2,53.6-19,102.7-45.8,145.2L1397.5,1644.3z"/>
			</g>
		</g>
	</g>
</g>
</svg>
