<?xml version="1.0" encoding="iso-8859-1"?>
<!-- Generator: Adobe Illustrator 23.0.3, SVG Export Plug-In . SVG Version: 6.00 Build 0)  -->
<svg version="1.1"
	 id="svg206941" xmlns:cc="http://creativecommons.org/ns#" xmlns:dc="http://purl.org/dc/elements/1.1/" xmlns:rdf="http://www.w3.org/1999/02/22-rdf-syntax-ns#" xmlns:svg="http://www.w3.org/2000/svg"
	 xmlns="http://www.w3.org/2000/svg" xmlns:xlink="http://www.w3.org/1999/xlink" x="0px" y="0px" viewBox="0 0 52.6 51.7"
	 style="enable-background:new 0 0 52.6 51.7;" xml:space="preserve">
<style type="text/css">
	.st0{fill:#58595B;stroke:#58595B;stroke-width:0.25;}
</style>
<g id="layer1" transform="translate(33.087814,-139.70633)">
	<g id="Layer_2-4-0" transform="matrix(0.25352778,0,0,0.25352778,-33.087814,139.70633)">
		<g id="Layer_1-2-3-8">
			<path id="path4269-9" class="st0" d="M114.2,102.6c6.9-10.4,6.5-24-1-34l1-1c1.7-1.6,1.7-4.3,0-6c-1.6-1.7-4.3-1.7-6,0l-1,1
				c-11.1-8.4-26.5-8-37.1,1.1l-1.1-1c-1.7-1.6-4.4-1.4-6,0.3c-1.6,1.7-1.4,4.4,0.3,6l1.1,1c-6.9,10.4-6.5,24,1,34l-1,1
				c-1.6,1.7-1.6,4.3,0,6c0.8,0.8,1.8,1.2,3,1.2c1.1,0,2.1-0.5,2.8-1.2l1-1c4.8,3.7,10.7,5.9,16.8,6.1h1.3c7.1,0,13.9-2.5,19.2-7.1
				l1.1,1c0.8,0.7,1.8,1.1,2.8,1c2.3,0,4.2-1.9,4.2-4.2c0-1.2-0.5-2.4-1.4-3.2L114.2,102.6z M110.6,87.4c-0.2,3.4-1.1,6.7-2.8,9.6
				l-9.9-8.7c0.1-0.6,0.2-1.3,0.2-1.9c0-0.8-0.1-1.6-0.4-2.3l9.4-9.3C109.5,78.5,110.7,82.9,110.6,87.4z M89.4,65.2h1
				c3.9,0.2,7.6,1.4,10.9,3.6l-9.4,9.3c-0.8-0.2-1.6-0.4-2.5-0.4c-1,0-1.9,0.2-2.8,0.5l-10-8.7C80.2,66.7,84.8,65.2,89.4,65.2z
				 M68.2,85.5c0.2-3.4,1.1-6.7,2.8-9.6l9.9,8.7c-0.1,0.6-0.2,1.3-0.2,1.9c0,0.8,0.1,1.6,0.4,2.3l-9.4,9.3
				C69.2,94.4,68,89.9,68.2,85.5L68.2,85.5z M88.5,107.7c-3.9-0.2-7.6-1.4-10.9-3.6l9.4-9.3c0.8,0.2,1.6,0.4,2.5,0.4
				c1,0,1.9-0.2,2.8-0.5l9.9,8.7C98.3,106.4,93.4,107.9,88.5,107.7z"/>
			<path id="path4271-3" class="st0" d="M155.6,31.2c0-6.1-5-11-11-11c0,0,0,0,0,0H35.3c-5.7,0-12.1,4.6-12.1,10.9v110.1
				c0.5,6.3,5.8,11.2,12.1,11.3h48.2v-2.3H35.3c-5-0.1-9.2-4-9.6-9.1v-110c0-4.8,5.2-8.5,9.6-8.5h109.2c4.7,0,8.5,3.8,8.5,8.5v100.3
				h2.6L155.6,31.2z"/>
			<path id="path4273-1" class="st0" d="M123.1,169.6l-0.6,0.9c-0.2,0.3-0.5,0.4-0.8,0.2l-2.4-1.7v1.8v1.1c0,0.3-0.3,0.6-0.6,0.6h-1
				c-0.3,0-0.6-0.3-0.7-0.6v-1.1V169l-2.4,1.6c-0.3,0.2-0.7,0.1-0.9-0.1l-0.6-0.9c-0.2-0.3-0.1-0.7,0.2-0.9c0,0,0,0,0,0l2.8-1.6
				l-2.8-1.6c-0.3-0.3-0.3-0.7,0-1c0,0,0,0,0,0l0.6-0.9c0.2-0.2,0.6-0.2,0.8,0l2.4,1.6v-2v-0.9c0-0.3,0.1-0.6,0.4-0.7h1
				c0.3,0,0.6,0.3,0.6,0.6v0.9v2l2.4-1.7c0.3-0.2,0.7-0.1,0.9,0.2l0.6,0.9c0.2,0.3,0.2,0.7-0.1,0.9c0,0,0,0,0,0l-2.8,1.6l2.8,1.7
				C123.2,168.9,123.3,169.2,123.1,169.6C123.1,169.5,123.1,169.6,123.1,169.6z"/>
			<path id="path4275-4" class="st0" d="M137.9,169.6l-0.6,0.9c-0.2,0.3-0.5,0.4-0.8,0.2l-2.4-1.7v2.8c0,0.3-0.3,0.6-0.6,0.6
				c0,0,0,0,0,0h-1c-0.3,0-0.6-0.3-0.6-0.6c0,0,0,0,0,0V169l-2.4,1.6c-0.3,0.2-0.7,0.1-0.9-0.1l-0.6-0.9c-0.2-0.3-0.1-0.7,0.2-0.9
				c0,0,0,0,0,0l2.8-1.6l-2.8-1.6c-0.3-0.2-0.4-0.7-0.1-1c0,0,0,0,0-0.1l0.6-0.9c0.2-0.2,0.6-0.2,0.8,0l2.4,1.6v-2v-0.9
				c0-0.3,0.3-0.6,0.6-0.6c0,0,0,0,0,0h1c0.3,0,0.6,0.3,0.6,0.6c0,0,0,0,0,0v2.8l2.4-1.7c0.3-0.2,0.7-0.1,0.9,0.2l0.5,0.9
				c0.3,0.2,0.3,0.6,0,0.9c0,0,0,0,0,0l-2.8,1.6l2.8,1.7C138.2,169,138.2,169.3,137.9,169.6C138,169.6,137.9,169.6,137.9,169.6z"/>
			<path id="path4277-8" class="st0" d="M172.9,164.4c0.3-0.4,0.4-0.6,0.7-0.9c0.2-0.2,0.6-0.2,0.8,0l2.4,1.6v-2.8
				c-0.1-0.3,0.1-0.7,0.4-0.8h1c0.3,0,0.6,0.3,0.6,0.6c0,0,0,0,0,0v2.8l2.4-1.7c0.3-0.2,0.7-0.1,0.9,0.2l0.5,0.9
				c0.2,0.3,0.2,0.7-0.1,0.9c0,0,0,0,0,0l-2.8,1.6l2.8,1.7c0.3,0.2,0.4,0.6,0.2,0.9l-0.6,0.9c-0.2,0.3-0.5,0.4-0.8,0.2l-2.4-1.7v2.8
				c0,0.3-0.3,0.6-0.6,0.6c0,0,0,0,0,0h-1c-0.3,0-0.6-0.3-0.6-0.6c0,0,0,0,0,0v-2.8l-2.4,1.6c-0.3,0.2-0.7,0.1-0.9-0.1l-0.4-0.8
				c-0.2-0.3-0.1-0.7,0.1-0.9c0,0,0,0,0,0l2.8-1.6l-2.8-1.6C172.7,165.2,172.7,164.7,172.9,164.4z"/>
			<path id="path4279-9" class="st0" d="M157.9,164.4c0.3-0.4,0.4-0.6,0.7-0.9c0.2-0.2,0.6-0.2,0.8,0l2.4,1.6v-2.8
				c0-0.3,0.3-0.6,0.6-0.6c0,0,0,0,0,0h1c0.3,0,0.6,0.3,0.6,0.6c0,0,0,0,0,0v2.8l2.4-1.7c0.3-0.2,0.7-0.1,0.9,0.2l0.6,0.9
				c0.2,0.3,0.1,0.7-0.2,0.9c0,0,0,0,0,0l-2.8,1.6l2.8,1.7c0.3,0.2,0.4,0.6,0.2,0.9l-0.6,0.9c-0.2,0.3-0.5,0.4-0.8,0.2l-2.4-1.7v2.8
				c0,0.3-0.3,0.6-0.6,0.6c0,0,0,0,0,0h-1c-0.3,0-0.6-0.3-0.6-0.6c0,0,0,0,0,0v-2.8l-2.4,1.6c-0.3,0.2-0.7,0.1-0.9-0.1l-0.5-0.9
				c-0.2-0.3-0.1-0.7,0.1-0.9c0,0,0,0,0,0l2.8-1.6l-2.8-1.6C157.7,165.3,157.6,164.8,157.9,164.4
				C157.9,164.5,157.9,164.4,157.9,164.4z"/>
			<path id="path4281-6" class="st0" d="M151.4,163.5c0.3-0.2,0.7-0.1,0.9,0.2l0.6,0.9c0.2,0.3,0.1,0.7-0.2,0.9c0,0,0,0,0,0
				l-2.8,1.6l2.8,1.7c0.3,0.2,0.4,0.6,0.2,0.9l-0.6,0.9c-0.2,0.3-0.5,0.4-0.8,0.2L149,169v2.8c0,0.3-0.3,0.6-0.6,0.6c0,0,0,0,0,0h-1
				c-0.3,0-0.6-0.3-0.6-0.6c0,0,0,0,0,0V169l-2.2,1.6c-0.3,0.2-0.7,0.1-0.9-0.1l-0.5-0.9c-0.2-0.3-0.1-0.7,0.1-0.9c0,0,0,0,0,0
				l2.8-1.6l-0.9-0.5l-1.9-1.1c-0.3-0.2-0.4-0.6-0.2-0.9c0.2-0.4,0.4-0.6,0.6-0.9c0.2-0.2,0.6-0.2,0.8,0l2,1.4l0.4,0.3v-0.9v-2.2
				c0-0.3,0.1-0.6,0.4-0.7h1c0.3,0,0.6,0.3,0.6,0.6c0,0,0,0,0,0v2.8L151.4,163.5z"/>
			<path id="path4283-7" class="st0" d="M199.6,169.5c0.3,0.8,0.4,1.7,0.5,2.6c-0.3,5.2-4.7,9.2-9.8,9H109v-7.4l-20.6,15.3
				l20.6,15.3v-7.4h81l0,0h1.2c8.5,0.4,15.7-6.2,16.1-14.7C207.3,176.7,204.3,171.9,199.6,169.5z"/>
			<path id="path4285-7" class="st0" d="M96.4,164.7c-0.3-0.8-0.4-1.7-0.5-2.6c0.2-5.2,4.6-9.2,9.8-9h81.1v7.4l20.6-15.3l-20.6-15.3
				v7.4h-81l0,0h-1.2c-8.5-0.4-15.7,6.2-16.1,14.7C88.6,157.5,91.6,162.3,96.4,164.7z"/>
			<path id="path4287-3" class="st0" d="M162,0H16.8C9.2,0,3,6.2,3,13.8v17H0v23.6h3v63.9H0v23.6h3v17c-0.1,7.6,6,13.9,13.6,14
				c0.1,0,0.1,0,0.2,0h74.3c-3.1-1.7-5.4-4.3-6.8-7.5H16.8c-3.5,0-6.3-2.8-6.3-6.3c0,0,0,0,0-0.1V13.8c0-3.5,2.8-6.3,6.3-6.3H162
				c3.5,0,6.3,2.8,6.3,6.3v117.6h7.5V13.8C175.7,6.2,169.6,0.1,162,0z"/>
		</g>
	</g>
</g>
</svg>
