<?xml version="1.0" encoding="utf-8"?>
<!-- Generator: Adobe Illustrator 23.0.3, SVG Export Plug-In . SVG Version: 6.00 Build 0)  -->
<!-- <svg version="1.1"
	 id="svg186023" xmlns:cc="http://creativecommons.org/ns#" xmlns:dc="http://purl.org/dc/elements/1.1/" xmlns:rdf="http://www.w3.org/1999/02/22-rdf-syntax-ns#" xmlns:svg="http://www.w3.org/2000/svg"
	 xmlns="http://www.w3.org/2000/svg" xmlns:xlink="http://www.w3.org/1999/xlink" x="0px" y="0px" viewBox="0 0 53.8 52.3"
	 style="enable-background:new 0 0 53.8 52.3;" xml:space="preserve"> -->

<svg width="100%" height="100%" viewBox="-0.5 -0.5 54.8 53.3" xmlns="http://www.w3.org/2000/svg" xmlns:svg="http://www.w3.org/2000/svg" xmlns:se="http://svg-edit.googlecode.com" data-name="Layer 1">

<style type="text/css">
	.st0{fill:none;}
	.st1{fill:#58595B;stroke:none;stroke-width:2;}
	.st2{fill:#58595B;}
	.st3{fill:#58595B;}
</style>
<g id="layer1" transform="translate(33.305237,-139.60633)">
	<g id="Layer_1-2-317-8" transform="matrix(0.24605333,0,0,0.24605333,-33.305237,139.60633)">
		<g>
			<path class="st0" d="M201.8,9.2L23,9.1c-4.3,0-7.8,3.5-7.8,7.9c0,0,0,0,0,0.1v178.6c0,4.3,3.4,7.9,7.7,7.9c0,0,0,0,0.1,0h178.8
				c4.3,0,7.8-3.5,7.8-7.9V17C209.6,12.7,206.1,9.2,201.8,9.2z"/>
			<path class="st1" d="M201.8,0H23C13.6,0,6,7.6,6,17v21H0v29.1h6v78.4H0v29.1h6v21c0,9.4,7.6,17,17,17h178.7c9.4,0,17-7.6,17.1-17
				V17C218.8,7.6,211.2,0,201.8,0z M209.6,195.7c0,4.4-3.5,7.9-7.8,7.9H23c-0.1,0-0.1,0-0.1,0c-4.3,0-7.7-3.6-7.7-7.9V17.1
				c0-0.1,0-0.1,0-0.1c0-4.4,3.5-7.9,7.8-7.9l178.8,0.1c4.3,0,7.8,3.5,7.8,7.8V195.7z"/>
		</g>
		<path id="path12068-9" class="st2" d="M180.1,188.5H45.8c-8.2-0.2-15-6.6-15.6-14.8V38.2c0-8.1,8.2-14.2,15.6-14.2h134.4
			c7.8-0.1,14.3,6.1,14.4,13.9c0,0.1,0,0.2,0,0.3v136.1l-0.2,0.3C194,182.3,187.8,188.3,180.1,188.5z M45.8,28.6
			c-5.1,0-11.1,4.2-11.1,9.6v135.5c0.7,5.7,5.3,10,11.1,10.3h134.4c5.4-0.1,9.8-4.5,9.8-9.9v-0.6l0.2-0.3v-135
			c-0.2-5.3-4.5-9.6-9.9-9.6H45.8z"/>
		<g>
			<path class="st0" d="M102.2,106.3c0-1.1,0.2-2.2,0.5-3.2L90.1,92c-2.6,4.2-4.2,9.1-4.2,14.3c0,5.8,1.9,11.2,5,15.6l12-11.9
				C102.5,108.9,102.2,107.6,102.2,106.3z"/>
			<path class="st0" d="M112.9,95.6c1.4,0,2.7,0.3,3.9,0.7l12-11.9c-4.1-3-9.2-4.9-14.7-5.2h-1.2c-6.5,0-12.4,2.3-17.1,6.1
				l12.7,11.2C109.9,96,111.3,95.6,112.9,95.6z"/>
			<path class="st0" d="M112.9,117c-1.3,0-2.6-0.3-3.8-0.7l-12,11.9c4.5,3.2,9.9,5.2,15.8,5.2c6.5,0,12.5-2.3,17.1-6.2L117.4,116
				C116,116.6,114.5,117,112.9,117z"/>
			<path class="st0" d="M135,90.7l-12,11.9c0.4,1.1,0.7,2.4,0.7,3.7c0,1.1-0.2,2.1-0.5,3.1l12.7,11.2c2.4-3.8,3.8-8.2,4.1-13
				C140.2,101.3,138.3,95.5,135,90.7z"/>
			<path class="st3" d="M148.5,107.9c0.4-8.7-2.4-16.9-7.3-23.3l1.8-1.8c1.5-1.7,1.5-4.2,0-5.9c-1.6-1.8-4.4-2-6.2-0.4l-1.9,1.9
				c-5.7-4.5-12.7-7.3-20.5-7.7c-9.6-0.4-18.5,3-25.2,8.9l-1.9-1.7c-0.2-0.3-0.5-0.5-0.8-0.7c-2.1-1.4-4.7-0.9-6.1,1.2
				c-1.4,2.1-0.8,4.8,1.2,6.1l1.9,1.7c-3.7,5.3-6,11.7-6.3,18.6c-0.4,8.8,2.4,16.9,7.4,23.4l-1.6,1.6c-0.8,0.8-1.3,1.9-1.3,3.1
				c-0.1,2.4,1.9,4.4,4.3,4.4c1.1,0,2.2-0.4,3-1.2l1.8-1.8c5.7,4.5,12.7,7.3,20.5,7.7h1.6c9.1,0,17.4-3.4,23.7-9.1l1.9,1.7
				c0.7,0.7,1.8,1.1,2.8,1.1c1.3,0,2.5-0.5,3.4-1.5c1.6-1.9,1.4-4.6-0.4-6.2l-1.9-1.7C145.9,121,148.2,114.8,148.5,107.9
				L148.5,107.9z M112.9,79.3h1.2c5.5,0.3,10.5,2.1,14.7,5.2l-12,11.9c-1.2-0.5-2.5-0.7-3.9-0.7c-1.6,0-3,0.4-4.4,1L95.8,85.4
				C100.5,81.6,106.4,79.3,112.9,79.3z M85.9,106.3c0-5.3,1.5-10.2,4.2-14.3l12.7,11.2c-0.3,1-0.5,2.1-0.5,3.2
				c0,1.3,0.3,2.6,0.7,3.8l-12,11.9C87.8,117.5,85.9,112.1,85.9,106.3z M112.9,133.3c-5.9,0-11.4-1.9-15.8-5.2l12-11.9
				c1.2,0.5,2.5,0.7,3.8,0.7c1.6,0,3.1-0.4,4.5-1l12.7,11.2C125.4,131,119.4,133.3,112.9,133.3z M123.1,109.4c0.3-1,0.5-2,0.5-3.1
				c0-1.3-0.3-2.5-0.7-3.7l12-11.9c3.4,4.8,5.2,10.6,4.9,16.9c-0.2,4.8-1.7,9.2-4.1,13L123.1,109.4z"/>
		</g>
	</g>
</g>
</svg>
