<?xml version="1.0" encoding="iso-8859-1"?>
<!-- Generator: Adobe Illustrator 23.0.3, SVG Export Plug-In . SVG Version: 6.00 Build 0)  -->
<!-- <svg version="1.1"
	 id="svg186023" xmlns:cc="http://creativecommons.org/ns#" xmlns:dc="http://purl.org/dc/elements/1.1/" xmlns:rdf="http://www.w3.org/1999/02/22-rdf-syntax-ns#" xmlns:svg="http://www.w3.org/2000/svg"
	 xmlns="http://www.w3.org/2000/svg" xmlns:xlink="http://www.w3.org/1999/xlink" x="0px" y="0px" viewBox="0 0 53.8 52.3"
	 style="enable-background:new 0 0 53.8 52.3;" xml:space="preserve"> -->

<svg width="100%" height="100%" viewBox="-0.5 -0.5 54.8 53.3" xmlns="http://www.w3.org/2000/svg" xmlns:svg="http://www.w3.org/2000/svg" xmlns:se="http://svg-edit.googlecode.com" data-name="Layer 1">

<style type="text/css">
	.st0{fill:#58595B;stroke:#000000;stroke-width:2;}
</style>
<g id="layer1" transform="translate(33.305237,-139.60633)">
	<g id="Layer_1-2-317-8" transform="matrix(0.24605333,0,0,0.24605333,-33.305237,139.60633)">
		<rect id="rect12062-0" y="145.5" class="st0" width="9.6" height="29.1"/>
		<rect id="rect12064-9" y="38" class="st0" width="9.6" height="29.1"/>
		<path id="path12066-7" class="st0" d="M201.7,212.6H23c-9.4,0-17-7.6-17-17V17C6,7.6,13.6,0,23,0h178.8c9.4,0,17,7.6,17,17v178.6
			C218.7,205,211.1,212.6,201.7,212.6z M23,9.1c-4.3,0-7.8,3.5-7.8,7.9c0,0,0,0,0,0.1v178.6c0,4.3,3.4,7.9,7.7,7.9c0,0,0,0,0.1,0
			h178.8c4.3,0,7.8-3.5,7.8-7.9c0,0,0,0,0,0V17c0-4.3-3.5-7.8-7.8-7.8L23,9.1z"/>
		<path id="path12068-9" class="st0" d="M180.1,188.5H45.8c-8.2-0.2-15-6.6-15.6-14.8V38.2c0-8.1,8.2-14.2,15.6-14.2h134.4
			c7.8-0.1,14.3,6.1,14.4,13.9c0,0.1,0,0.2,0,0.3v136.1l-0.2,0.3C194,182.3,187.8,188.3,180.1,188.5z M45.8,28.6
			c-5.1,0-11.1,4.2-11.1,9.6v135.5c0.7,5.7,5.3,10,11.1,10.3h134.4c5.4-0.1,9.8-4.5,9.8-9.9v-0.6l0.2-0.3V38.2
			c-0.2-5.3-4.5-9.6-9.9-9.6H45.8z"/>
		<path id="path12178-9" class="st0" d="M112.9,142h-1.6c-19.7-0.9-35-17.5-34.1-37.2s17.5-35,37.2-34.1c19.7,0.9,35,17.5,34.1,37.2
			c0,0,0,0.1,0,0.1l0,0C147.6,127,131.9,142,112.9,142z M112.9,79.3c-14.9,0-27,12.1-27,27c0,14.9,12.1,27,27,27
			c14.4,0,26.3-11.3,27-25.7l0,0c0.7-14.9-10.8-27.6-25.8-28.3c0,0,0,0,0,0L112.9,79.3z"/>
		<path id="path12180-3" class="st0" d="M86,137.3c-2.4,0-4.4-2-4.3-4.4c0-1.2,0.5-2.3,1.3-3.1l53.8-53.3c1.8-1.6,4.6-1.4,6.2,0.4
			c1.5,1.7,1.5,4.2,0,5.9L89,136.1C88.2,136.9,87.1,137.3,86,137.3z"/>
		<path id="path12182-2" class="st0" d="M141.3,135.7c-1,0-2.1-0.4-2.8-1.1L81.6,84.5c-2-1.3-2.6-4-1.2-6.1s4-2.6,6.1-1.2
			c0.3,0.2,0.6,0.4,0.8,0.7l57,50.1c1.8,1.6,2,4.3,0.4,6.2C143.8,135.2,142.6,135.7,141.3,135.7z"/>
		<ellipse id="ellipse12184-4" class="st0" cx="112.9" cy="106.3" rx="10.7" ry="10.7"/>
	</g>
</g>
</svg>
