<?xml version="1.0" encoding="utf-8"?>
<!-- Generator: Adobe Illustrator 23.0.3, SVG Export Plug-In . SVG Version: 6.00 Build 0)  -->
<!-- <svg version="1.1"
	 id="svg208268" xmlns:cc="http://creativecommons.org/ns#" xmlns:dc="http://purl.org/dc/elements/1.1/" xmlns:rdf="http://www.w3.org/1999/02/22-rdf-syntax-ns#" xmlns:svg="http://www.w3.org/2000/svg"
	 xmlns="http://www.w3.org/2000/svg" xmlns:xlink="http://www.w3.org/1999/xlink" x="0px" y="0px" viewBox="0 0 54.2 52.3"
	 style="enable-background:new 0 0 54.2 52.3;" xml:space="preserve"> -->

<svg width="100%" height="100%" viewBox="-0.5 -0.5 55.2 53.3" xmlns="http://www.w3.org/2000/svg" xmlns:svg="http://www.w3.org/2000/svg" xmlns:se="http://svg-edit.googlecode.com" data-name="Layer 1">

<style type="text/css">
	.st0{fill:#58595B;}
	.st1{fill:#58595B;}
	.st2{fill:#58595B;stroke:none;stroke-width:2;}
	.st3{fill:none;}
</style>
<g id="layer1" transform="translate(-146.17041,-357.32062)">
	<g id="Layer_2-12-1" transform="matrix(0.23400964,0,0,0.23400964,146.17041,357.32062)">
		<g id="Layer_1-2-93-0">
			<path id="path2978-8" class="st0" d="M127.3,114.4c7.6-11.6,7.2-26.7-1.1-37.8l1.1-1.1c1.8-1.8,1.9-4.8,0-6.6
				c-1.8-1.8-4.8-1.9-6.6,0l0,0l-1.1,1.1c-12.4-9.5-29.6-9-41.4,1.1L77,70c-1.9-1.8-4.9-1.7-6.6,0.3c-1.8,1.9-1.7,4.9,0.3,6.6
				c0.1,0.1,0.2,0.1,0.2,0.2l1.2,1.1c-7.6,11.6-7.2,26.7,1.1,37.8l-1.1,1.1c-1.9,1.7-2.1,4.7-0.4,6.6c1.7,1.9,4.7,2.1,6.6,0.4
				c0.1-0.1,0.2-0.2,0.3-0.3l1.1-1.1c5.3,4.1,11.7,6.4,18.4,6.7h1.5c7.9,0,15.5-2.8,21.4-8l1.2,1.1c1.9,1.8,4.8,1.8,6.7-0.1
				c1.8-1.9,1.8-4.8-0.1-6.7c-0.1-0.1-0.2-0.2-0.3-0.3L127.3,114.4z M123.3,97.4c-0.2,3.8-1.2,7.5-3.1,10.7l-11-9.7
				c0.2-0.7,0.3-1.4,0.3-2.1c0-0.9-0.1-1.7-0.4-2.6l10.4-10.4C122.1,87.5,123.5,92.4,123.3,97.4z M99.6,72.6h1.1
				c4.3,0.2,8.5,1.5,12.1,3.9L102.4,87c-0.9-0.3-1.9-0.4-2.8-0.4c-1.1,0-2.2,0.2-3.2,0.6l-11.1-9.8C89.4,74.3,94.4,72.6,99.6,72.6z
				 M76,95.3c0.2-3.8,1.2-7.5,3.1-10.7l11,9.7c-0.1,0.7-0.2,1.4-0.2,2.1c0,0.9,0.1,1.7,0.4,2.6l-10.4,10.3
				C77.2,105.1,75.8,100.2,76,95.3L76,95.3z M98.7,120c-4.3-0.2-8.5-1.6-12.1-4L97,105.6c0.9,0.3,1.9,0.4,2.8,0.4
				c1.1,0,2.2-0.2,3.2-0.6l11,9.7c-4.4,3.4-9.9,5.1-15.5,4.8L98.7,120z"/>
			<path id="path2980-5" class="st1" d="M173.4,34.6c-0.2-6.7-5.7-12.1-12.4-12H39.4c-6.4,0-13.5,5.2-13.5,12.1v122.5
				c0.6,7.1,6.4,12.6,13.5,12.8h53.5v-2.8H39.4c-5.6-0.1-10.1-4.4-10.7-9.9V34.6c0-5.2,5.7-9.3,10.7-9.3H161c5.2,0,9.5,4.1,9.6,9.3
				v111.8h2.8L173.4,34.6z"/>
			<path id="path2982-0" class="st2" d="M92.2,184.3H18.7c-3.9,0-7-3.1-7-7V15.4c0.1-3.8,3.2-6.9,7-6.9h161.8c3.9,0,7,3.1,7,7v128.7
				c1.3-0.3,2.7-0.5,4.1-0.5c1.5,0,2.9,0.2,4.3,0.5V15.4C195.9,6.9,189,0,180.5,0H18.7C10.2,0,3.4,6.9,3.3,15.4v19.1H0v26.3h3.3
				v71.1H0v26.3h3.3v19.1c-0.1,8.5,6.8,15.5,15.3,15.5h0.1h73.7C91.7,190,91.6,187.1,92.2,184.3z"/>
			<g>
				<path class="st3" d="M164.6,201.6l0.5-0.6l7.8-11l1.1-1.6c6.3-9.1,12.5-16.6,23.9-16.6c8.5,0,18.2,4.8,18.2,18.2
					c0,13.4-9.5,18-18.2,18.1c-10,0-16-5.9-21.6-13.5l-6.1,8.5c5.8,7.2,14.1,14.9,27.6,15c11.3,0,28.1-7.4,28.1-28.1
					s-17-28.2-28.3-28.2c-14.3,0-22.9,8.7-28.8,16.4l-2.1,2.7l-6.1,9.2l-1.1,1.6c-6.4,9-12.5,16.6-23.9,16.6
					c-8.5,0-18.2-4.8-18.2-18.2c0-13.4,9.4-18.1,18.2-18.2c10,0,16.1,5.9,21.7,13.5l6.1-8.4c-5.7-7.2-14-15.1-27.7-15.1
					c-11.3,0-28.3,7.5-28.3,28.3s17,28.3,28.3,28.3C150,218.3,158.7,209.2,164.6,201.6z"/>
				<path class="st3" d="M135.6,177.1c-3.8,0-12.8,1.4-12.8,12.8c-0.5,6.5,4.3,12.2,10.8,12.7c0.6,0.1,1.3,0.1,1.9,0
					c7.5,0,12.2-4.3,18.3-12.7C147.8,181.4,143.1,177.1,135.6,177.1z"/>
				<path class="st3" d="M197.9,202.6c4.8,0,12.8-1.8,12.8-12.7c0.5-6.5-4.3-12.2-10.9-12.8c-0.6,0-1.2-0.1-1.9,0
					c-7.5,0-12.2,4.3-18.2,12.8C185.7,198.4,190.4,202.6,197.9,202.6z"/>
				<path class="st1" d="M231.4,189.8L231.4,189.8L231.4,189.8L231.4,189.8z"/>
				<path class="st1" d="M135.7,223.5L135.7,223.5C135.8,223.5,135.8,223.5,135.7,223.5L135.7,223.5L135.7,223.5z"/>
				<g>
					<path class="st3" d="M135.6,177.1c-3.8,0-12.8,1.4-12.8,12.8c-0.5,6.5,4.3,12.2,10.8,12.7c0.6,0.1,1.3,0.1,1.9,0
						c7.5,0,12.2-4.3,18.3-12.7C147.8,181.4,143.1,177.1,135.6,177.1z"/>
					<path class="st3" d="M197.6,161.6c-14.3,0-22.9,8.7-28.8,16.4l-2.1,2.7v-0.1l-3.3-3.9l0,0c-5.7-7.2-14-15.1-27.7-15.1
						c-11.3,0-28.3,7.5-28.3,28.3s17,28.3,28.3,28.3c14.3,0,23-9.1,28.9-16.7l0.5-0.6l7.8-11l1.1-1.6c6.3-9.1,12.5-16.6,23.9-16.6
						c8.5,0,18.2,4.8,18.2,18.2c0,13.4-9.5,18-18.2,18.1c-10,0-16-5.9-21.6-13.5l-6.1,8.5c5.8,7.2,14.1,14.9,27.6,15
						c11.3,0,28.1-7.4,28.1-28.1C225.9,169.2,208.9,161.6,197.6,161.6z M159.5,191.5c-6.4,9-12.5,16.6-23.9,16.6
						c-8.5,0-18.2-4.8-18.2-18.2c0-13.4,9.4-18.1,18.2-18.2c10,0,16.1,5.9,21.7,13.5l-3.4,4.7h6.7L159.5,191.5z"/>
					<path class="st3" d="M197.9,202.6c4.8,0,12.8-1.8,12.8-12.7c0.5-6.5-4.3-12.2-10.9-12.8c-0.6,0-1.2-0.1-1.9,0
						c-7.5,0-12.2,4.3-18.2,12.8C185.7,198.4,190.4,202.6,197.9,202.6z"/>
				</g>
				<g>
					<path class="st3" d="M197.6,161.6c-14.3,0-22.9,8.7-28.8,16.4l-2.1,2.7l-6.1,9.2l-1.1,1.6c-6.4,9-12.5,16.6-23.9,16.6
						c-8.5,0-18.2-4.8-18.2-18.2c0-13.4,9.4-18.1,18.2-18.2c10,0,16.1,5.9,21.7,13.5l6.1-8.4c-5.7-7.2-14-15.1-27.7-15.1
						c-11.3,0-28.3,7.5-28.3,28.3s17,28.3,28.3,28.3c14.3,0,23-9.1,28.9-16.7l0.5-0.6l7.8-11l1.1-1.6c6.3-9.1,12.5-16.6,23.9-16.6
						c8.5,0,18.2,4.8,18.2,18.2c0,13.4-9.5,18-18.2,18.1c-10,0-16-5.9-21.6-13.5l-6.1,8.5c5.8,7.2,14.1,14.9,27.6,15
						c11.3,0,28.1-7.4,28.1-28.1C225.9,169.2,208.9,161.6,197.6,161.6z"/>
					<path class="st3" d="M197.9,202.6c4.8,0,12.8-1.8,12.8-12.7c0.5-6.5-4.3-12.2-10.9-12.8c-0.6,0-1.2-0.1-1.9,0
						c-7.5,0-12.2,4.3-18.2,12.8C185.7,198.4,190.4,202.6,197.9,202.6z"/>
					<path class="st3" d="M135.6,177.1c-3.8,0-12.8,1.4-12.8,12.8c-0.5,6.5,4.3,12.2,10.8,12.7c0.6,0.1,1.3,0.1,1.9,0
						c7.5,0,12.2-4.3,18.3-12.7C147.8,181.4,143.1,177.1,135.6,177.1z"/>
					<path class="st2" d="M231.4,189.8L231.4,189.8c-0.1-24.7-20.2-33.6-33.7-33.6c-15,0-24.7,8.3-30.9,15.8
						c-6.3-7.4-15.9-15.8-31-15.8c-13.6,0-33.8,9.1-33.8,33.7c0,24.5,20.2,33.6,33.7,33.6l0,0c15,0,24.5-7.9,31.1-15.8
						c6.2,7.3,15.8,15.8,30.9,15.8h0.1l0,0C211.3,223.5,231.2,214.7,231.4,189.8L231.4,189.8C231.4,189.9,231.4,189.9,231.4,189.8z
						 M197.8,218c-13.5,0-21.8-7.7-27.6-15l6.1-8.5c5.6,7.6,11.6,13.5,21.6,13.5c8.7-0.1,18.2-4.7,18.2-18.1s-9.7-18.2-18.2-18.2
						c-11.4,0-17.6,7.5-23.9,16.6l-1.1,1.6l-7.8,11l-0.5,0.6c-5.9,7.6-14.6,16.7-28.9,16.7c-11.3,0-28.3-7.5-28.3-28.3
						s17-28.3,28.3-28.3c13.7,0,22,7.9,27.7,15.1l-6.1,8.4c-5.6-7.6-11.7-13.5-21.7-13.5c-8.8,0.1-18.2,4.8-18.2,18.2
						c0,13.4,9.7,18.2,18.2,18.2c11.4,0,17.5-7.6,23.9-16.6l1.1-1.6l6.1-9.2l2.1-2.7c5.9-7.7,14.5-16.4,28.8-16.4
						c11.3,0,28.3,7.6,28.3,28.2C225.9,210.6,209.1,218,197.8,218z M179.7,189.9c6-8.5,10.7-12.8,18.2-12.8c0.7-0.1,1.3,0,1.9,0
						c6.6,0.6,11.4,6.3,10.9,12.8c0,10.9-8,12.7-12.8,12.7C190.4,202.6,185.7,198.4,179.7,189.9z M153.8,189.9
						c-6.1,8.4-10.8,12.7-18.3,12.7c-0.6,0.1-1.3,0.1-1.9,0c-6.5-0.5-11.3-6.2-10.8-12.7c0-11.4,9-12.8,12.8-12.8
						C143.1,177.1,147.8,181.4,153.8,189.9z"/>
				</g>
			</g>
		</g>
	</g>
</g>
</svg>
