<?xml version="1.0" encoding="utf-8"?>
<!-- Generator: Adobe Illustrator 23.0.3, SVG Export Plug-In . SVG Version: 6.00 Build 0)  -->
<!-- <svg version="1.1" id="Layer_1" xmlns:se="http://svg-edit.googlecode.com" xmlns:svg="http://www.w3.org/2000/svg"
	 xmlns="http://www.w3.org/2000/svg" xmlns:xlink="http://www.w3.org/1999/xlink" x="0px" y="0px" viewBox="0 0 612 792"
	 style="enable-background:new 0 0 612 792;" xml:space="preserve"> -->

<svg width="100%" height="100%" viewBox="0 97 612 600" xmlns="http://www.w3.org/2000/svg" xmlns:svg="http://www.w3.org/2000/svg" xmlns:se="http://svg-edit.googlecode.com" data-name="Layer 1">

<style type="text/css">
	.st0{fill:#58595B;}
	.st1{fill:#58595B;}
	.st2{fill:#58595B;stroke:none;stroke-width:20;}
	.st3{fill:none;}
</style>
<g id="layer1" transform="translate(-146.17041,-357.32062)">
	<g id="Layer_2-12-1" transform="matrix(0.23400964,0,0,0.23400964,146.17041,357.32062)">
		<g id="Layer_1-2-93-0">
			<path id="path2978-8" class="st0" d="M1435.1,1721.6c84.3-128.6,79.8-296-12.2-419.1l12.2-12.2c20-20,21.1-53.2,0-73.2
				c-20-20-53.2-21.1-73.2,0l0,0l-12.2,12.2c-137.5-105.3-328.2-99.8-459,12.2l-13.3-12.2c-21.1-20-54.3-18.8-73.2,3.3
				c-20,21.1-18.8,54.3,3.3,73.2c1.1,1.1,2.2,1.1,2.2,2.2l13.3,12.2c-84.3,128.6-79.8,296,12.2,419.1l-12.2,12.2
				c-21.1,18.8-23.3,52.1-4.4,73.2s52.1,23.3,73.2,4.4c1.1-1.1,2.2-2.2,3.3-3.3l12.2-12.2c58.8,45.5,129.7,71,204,74.3h16.6
				c87.6,0,171.8-31,237.3-88.7l13.3,12.2c21.1,20,53.2,20,74.3-1.1c20-21.1,20-53.2-1.1-74.3c-1.1-1.1-2.2-2.2-3.3-3.3
				L1435.1,1721.6z M1390.7,1533.2c-2.2,42.1-13.3,83.2-34.4,118.6l-122-107.5c2.2-7.8,3.3-15.5,3.3-23.3c0-10-1.1-18.8-4.4-28.8
				l115.3-115.3C1377.4,1423.4,1392.9,1477.7,1390.7,1533.2z M1127.9,1258.2h12.2c47.7,2.2,94.2,16.6,134.2,43.2L1159,1417.9
				c-10-3.3-21.1-4.4-31-4.4c-12.2,0-24.4,2.2-35.5,6.7l-123.1-108.7C1014.9,1277.1,1070.3,1258.2,1127.9,1258.2z M866.3,1509.9
				c2.2-42.1,13.3-83.2,34.4-118.6l122,107.5c-1.1,7.8-2.2,15.5-2.2,23.3c0,10,1.1,18.8,4.4,28.8l-115.3,114.2
				C879.6,1618.5,864.1,1564.2,866.3,1509.9L866.3,1509.9z M1118,1783.7c-47.7-2.2-94.2-17.7-134.2-44.3l115.3-115.3
				c10,3.3,21.1,4.4,31,4.4c12.2,0,24.4-2.2,35.5-6.7l122,107.5c-48.8,37.7-109.8,56.5-171.8,53.2L1118,1783.7z"/>
			<path id="path2980-5" class="st1" d="M1946.2,836.9c-2.2-74.3-63.2-134.2-137.5-133H460.5c-71,0-149.7,57.7-149.7,134.2v1358.2
				c6.7,78.7,71,139.7,149.7,141.9h593.2v-31H460.5c-62.1-1.1-112-48.8-118.6-109.8V836.9c0-57.7,63.2-103.1,118.6-103.1h1348.2
				c57.7,0,105.3,45.5,106.4,103.1v1239.5h31L1946.2,836.9z"/>
			<path id="path2982-0" class="st2" d="M1045.9,2496.6H231c-43.2,0-77.6-34.4-77.6-77.6V624c1.1-42.1,35.5-76.5,77.6-76.5h1793.9
				c43.2,0,77.6,34.4,77.6,77.6V2052c14.4-3.3,29.9-5.5,45.5-5.5c16.6,0,32.2,2.2,47.7,5.5V624c0-94.2-76.5-170.7-170.7-170.7H231
				c-94.2,0-169.6,76.5-170.7,170.7v211.8H23.7v291.6h36.6v788.3H23.7v291.6h36.6V2419c-1.1,94.2,75.4,171.8,169.6,171.8h1.1h817.1
				C1040.4,2559.8,1039.3,2527.7,1045.9,2496.6z"/>
			<g>
				<path class="st3" d="M2217.8,2699.5c53.2,0,141.9-20,141.9-140.8c5.5-72.1-47.7-135.3-120.8-141.9c-6.7,0-13.3-1.1-21.1,0
					c-83.2,0-135.3,47.7-201.8,141.9C2082.5,2652.9,2134.6,2699.5,2217.8,2699.5z"/>
				<path class="st3" d="M1527.1,2416.8c-42.1,0-141.9,15.5-141.9,141.9c-5.5,72.1,47.7,135.3,119.7,140.8c6.7,1.1,14.4,1.1,21.1,0
					c83.2,0,135.3-47.7,202.9-140.8C1662.3,2464.5,1610.2,2416.8,1527.1,2416.8z"/>
				<g>
					<path class="st3" d="M2217.8,2699.5c53.2,0,141.9-20,141.9-140.8c5.5-72.1-47.7-135.3-120.8-141.9c-6.7,0-13.3-1.1-21.1,0
						c-83.2,0-135.3,47.7-201.8,141.9C2082.5,2652.9,2134.6,2699.5,2217.8,2699.5z"/>
					<path class="st3" d="M2214.5,2244.9c-158.5,0-253.9,96.5-319.3,181.8l-23.3,29.6l-67.6,102.3l-12.2,17.7
						c-71,99.8-138.6,184-265,184c-94.2,0-201.8-53.2-201.8-201.8c0-148.6,104.2-200.7,201.8-201.8c110.4,0,177.8,64.6,240.1,149.1
						l68-93.7c-63-79.6-155.5-166.3-307-166.3c-125.3,0-313.8,83.2-313.8,313.8c0,230.6,188.5,313.8,313.8,313.8
						c158.5,0,255-100.9,320.4-185.2l5.2-6.7l87-121.7l-0.2-0.2l12.2-17.7c69.8-100.9,138.6-184,265-184
						c94.2,0,201.8,53.2,201.8,201.8c0,148.6-105.3,199.6-201.8,200.7c-110.7,0-177.3-65-239.5-149.7l-68.1,93.9
						c64.8,80,156.8,165.4,306,165.6c125.3-0.3,311.9-81.4,311.9-311.5C2528.2,2329.2,2339.8,2244.9,2214.5,2244.9z"/>
					<path class="st3" d="M1527.1,2416.8c-42.1,0-141.9,15.5-141.9,141.9c-5.5,72.1,47.7,135.3,119.7,140.8c6.7,1.1,14.4,1.1,21.1,0
						c83.2,0,135.3-47.7,202.9-140.8C1662.3,2464.5,1610.2,2416.8,1527.1,2416.8z"/>
					<path class="st2" d="M2589.2,2558.7c0-273.8-224-373.6-373.6-373.6c-166.3,0-273.8,92-342.6,175.2
						c-69.8-82-176.3-175.2-343.7-175.2c-150.8,0-374.7,100.9-374.7,373.6c0,272.1,224,372,373.6,372.5v0h1.1c-0.2,0-0.5,0-0.7,0
						c166.1-0.2,271.3-87.7,344.4-175.2c68.7,80.9,175.2,175.2,342.6,175.2h1.1v0C2366.3,2930.7,2588.1,2834.1,2589.2,2558.7z
						 M2216.3,2870.2c-149.2-0.2-241.3-85.6-306-165.6l68.1-93.9c62.2,84.8,128.8,149.7,239.5,149.7
						c96.5-1.1,201.8-52.1,201.8-200.7c0-148.6-107.5-201.8-201.8-201.8c-126.4,0-195.1,83.2-265,184l-12.2,17.7l0.2,0.2l-87,121.7
						l-5.2,6.7c-65.4,84.3-161.9,185.2-320.4,185.2c-125.3,0-313.8-83.2-313.8-313.8c0-230.6,188.5-313.8,313.8-313.8
						c151.5,0,243.9,86.7,307,166.3l-68,93.7c-62.3-84.4-129.6-149.1-240.1-149.1c-97.6,1.1-201.8,53.2-201.8,201.8
						c0,148.6,107.5,201.8,201.8,201.8c126.4,0,194-84.3,265-184l12.2-17.7l67.6-102.3l23.3-29.6c65.4-85.4,160.8-181.8,319.3-181.8
						c125.3,0,313.8,84.3,313.8,313.8C2528.2,2788.9,2341.6,2869.9,2216.3,2870.2z M2016,2558.7c66.5-94.2,118.6-141.9,201.8-141.9
						c7.8-1.1,14.4,0,21.1,0c73.2,6.7,126.4,69.8,120.8,141.9c0,120.8-88.7,140.8-141.9,140.8
						C2134.6,2699.5,2082.5,2652.9,2016,2558.7z M1728.9,2558.7c-67.6,93.1-119.7,140.8-202.9,140.8c-6.7,1.1-14.4,1.1-21.1,0
						c-72.1-5.5-125.3-68.7-119.7-140.8c0-126.4,99.8-141.9,141.9-141.9C1610.2,2416.8,1662.3,2464.5,1728.9,2558.7z"/>
				</g>
			</g>
		</g>
	</g>
</g>
</svg>
