<?xml version="1.0" encoding="iso-8859-1"?>
<!-- Generator: Adobe Illustrator 23.0.3, SVG Export Plug-In . SVG Version: 6.00 Build 0)  -->
<!-- <svg version="1.1"
	 id="svg199987" xmlns:cc="http://creativecommons.org/ns#" xmlns:dc="http://purl.org/dc/elements/1.1/" xmlns:rdf="http://www.w3.org/1999/02/22-rdf-syntax-ns#" xmlns:svg="http://www.w3.org/2000/svg"
	 xmlns="http://www.w3.org/2000/svg" xmlns:xlink="http://www.w3.org/1999/xlink" x="0px" y="0px" viewBox="0 0 65.6 52.3"
	 style="enable-background:new 0 0 65.6 52.3;" xml:space="preserve"> -->

<svg width="100%" height="100%" viewBox="-0.5 -0.5 66.6 53.3" xmlns="http://www.w3.org/2000/svg" xmlns:svg="http://www.w3.org/2000/svg" xmlns:se="http://svg-edit.googlecode.com" data-name="Layer 1">

<style type="text/css">
	.st0{fill:#58595B;stroke:none;stroke-width:2;}
</style>
<g id="layer1" transform="translate(35.388016,-139.60634)">
	<g id="Layer_2-338-1" transform="matrix(0.23867043,0,0,0.23867043,-35.388016,139.60634)">
		<g id="Layer_1-2-60-4">
			<rect id="rect5985-9" y="134.9" class="st0" width="8.9" height="27"/>
			<rect id="rect5987-1" y="35.2" class="st0" width="8.9" height="27"/>
			<path id="path5989-0" class="st0" d="M104.7,131.6h-1.5c-18.3-0.9-32.4-16.4-31.5-34.7c0.9-18.3,16.4-32.4,34.7-31.5
				s32.4,16.4,31.5,34.7c-0.4,8.8-4.3,17.1-10.9,23C120.8,128.7,112.9,131.7,104.7,131.6z M104.7,73.5c-13.4,0-24.4,10.6-24.9,23.9
				c-0.9,13.8,9.6,25.6,23.4,26.5c13.8,0.9,25.6-9.6,26.5-23.4c0-0.3,0-0.6,0-0.9l0,0c0.6-13.8-10.1-25.5-23.9-26.1L104.7,73.5z"/>
			<path id="path5991-7" class="st0" d="M79.7,127.3c-1.1,0-2.1-0.5-2.8-1.2c-1.6-1.6-1.6-4.1,0-5.7l49.9-49.6
				c1.4-1.7,4-1.9,5.7-0.5c1.7,1.4,1.9,4,0.5,5.7c-0.2,0.2-0.3,0.4-0.5,0.5l-49.8,49.6C81.8,126.9,80.8,127.3,79.7,127.3z"/>
			<path id="path5993-5" class="st0" d="M131,125.8c-1,0-1.9-0.4-2.7-1L75.6,78.3c-1.7-1.5-1.8-4-0.4-5.7c1.5-1.7,4-1.8,5.7-0.4
				l52.7,46.4c1.7,1.5,1.8,4,0.3,5.7C133.2,125.3,132.1,125.8,131,125.8z"/>
			<circle id="ellipse5995-8" class="st0" cx="104.6" cy="98.5" r="9.9"/>
			<path id="path5997-7" class="st0" d="M21.3,188.6c-3.9-0.1-7.1-3.3-7.1-7.2V15.7c0-3.9,3.2-7.1,7.1-7.2h165.8
				c4,0,7.2,3.2,7.2,7.2v37.7h8.5V15.7C202.8,7,195.8,0,187.1,0c0,0,0,0,0,0H21.3C12.7,0,5.7,7,5.7,15.7v165.7
				c0,8.7,7,15.7,15.7,15.7H144v-8.5L21.3,188.6z"/>
			<path id="path5999-0" class="st0" d="M42.5,170.5c-5.3-0.2-9.7-4.3-10.3-9.5V35.4c0-5,5.5-8.8,10.3-8.8H167c4.9,0,9,3.9,9.2,8.8
				v18.1h4.2V35.4c-0.1-7.3-6.1-13.1-13.4-13c0,0,0,0,0,0H42.5c-6.8,0-14.5,5.7-14.5,13V161c0.6,7.6,6.8,13.6,14.5,13.7H144v-4.2
				H42.5z"/>
			<path id="path6001-4" class="st0" d="M254.1,111.2h-47.2c-0.7,0-1.2,0.6-1.2,1.2c0,0.7,0.6,1.2,1.2,1.2l0,0h47.2
				c0.7,0,1.2-0.6,1.2-1.2C255.3,111.8,254.8,111.2,254.1,111.2z"/>
			<path id="path6003-8" class="st0" d="M255.3,137.3c0-0.7-0.5-1.2-1.2-1.2c0,0,0,0-0.1,0h-47.2c-0.7-0.1-1.3,0.4-1.4,1
				c-0.1,0.7,0.4,1.3,1,1.4c0.1,0,0.3,0,0.4,0h47.2C254.8,138.5,255.3,138,255.3,137.3C255.3,137.3,255.3,137.3,255.3,137.3z"/>
			<path id="path6005-0" class="st0" d="M206.9,121.1h22.4c0.7,0,1.2-0.6,1.2-1.2c0-0.7-0.5-1.2-1.2-1.2l0,0h-22.4
				c-0.7,0-1.2,0.5-1.2,1.2C205.7,120.6,206.2,121.1,206.9,121.1L206.9,121.1z"/>
			<path id="path6007-4" class="st0" d="M206.9,145.9h22.4c0.7,0,1.2-0.6,1.2-1.2c0-0.7-0.6-1.2-1.2-1.2h-22.4
				c-0.7,0-1.2,0.6-1.2,1.2C205.7,145.4,206.2,145.9,206.9,145.9L206.9,145.9z"/>
			<path id="path6009-2" class="st0" d="M206.9,170.7h22.4c0.7,0,1.2-0.6,1.2-1.2c0-0.7-0.6-1.2-1.2-1.2h-22.4
				c-0.7,0-1.2,0.6-1.2,1.2C205.7,170.2,206.2,170.7,206.9,170.7L206.9,170.7z"/>
			<path id="path6011-9" class="st0" d="M206.9,193c-0.7,0-1.3,0.6-1.3,1.3c0,0.7,0.6,1.3,1.3,1.3h22.4c0.7,0,1.2-0.6,1.2-1.3
				c0-0.7-0.6-1.2-1.2-1.2L206.9,193z"/>
			<path id="path6013-6" class="st0" d="M275,97c0-1-0.4-1.9-1.1-2.6l-32.9-32.9c-0.7-0.7-1.6-1.1-2.6-1.1h-81.2
				c-2.1,0-3.7,1.7-3.7,3.7l0,0v151.3c0,2.1,1.7,3.7,3.7,3.7h114.1c2.1,0,3.7-1.7,3.7-3.7V97z M267.5,211.6H160.9V67.8h75V97
				c0,1.4,1.1,2.5,2.4,2.5c0,0,0,0,0,0h29.2L267.5,211.6z M240.9,71.8l22.7,22.7h-22.7V71.8z"/>
			<path id="path6015-1" class="st0" d="M252.7,160.8h-45.7c-0.7-0.1-1.3,0.4-1.4,1c-0.1,0.7,0.4,1.3,1,1.4c0.1,0,0.3,0,0.4,0h44.2
				L252.7,160.8z"/>
			<path id="path6017-0" class="st0" d="M246,185.6h-39.1c-0.7-0.1-1.3,0.4-1.4,1c-0.1,0.7,0.4,1.3,1,1.4c0.1,0,0.3,0,0.4,0h39.1
				L246,185.6z"/>
			<path id="path6019-4" class="st0" d="M195.1,128c-0.9-1-2.5-1-3.4-0.1c0,0,0,0-0.1,0.1l-11.8,11.8l-3.2-3.2c-1-1-2.6-1-3.6-0.1
				c-1,1-1,2.6-0.1,3.6l5,5c0.5,0.5,1.1,0.7,1.8,0.7c0.7,0,1.3-0.3,1.8-0.7l13.5-13.6C196,130.5,196,129,195.1,128
				C195.1,128,195.1,128,195.1,128z"/>
			<path id="path6021-2" class="st0" d="M188.5,149.5h-19.3v-17.9h19.3V149.5z M171.1,147.6h15.5v-14.2h-15.5V147.6z"/>
			<path id="path6023-2" class="st0" d="M195.1,153.4c-1-1-2.5-1-3.5,0l-11.8,11.8l-3.2-3.2c-1-1-2.6-1-3.6-0.1c-1,1-1,2.6-0.1,3.6
				l5,5c0.5,0.5,1.1,0.7,1.8,0.7c0.7,0,1.3-0.3,1.8-0.7l13.5-13.5C196,156,196,154.4,195.1,153.4z"/>
			<path id="path6025-2" class="st0" d="M188.5,175h-19.3v-17.9h19.3V175z M171.1,172.9h15.5V159h-15.5V172.9z"/>
			<path id="path6027-0" class="st0" d="M195.1,178.8c-1-1-2.5-1-3.5,0l-11.8,11.8l-3.2-3.2c-1-1-2.6-1-3.6-0.1s-1,2.6-0.1,3.6l5,5
				c0.5,0.5,1.1,0.7,1.8,0.7c0.7,0,1.3-0.3,1.8-0.7l13.5-13.5C196,181.4,196,179.8,195.1,178.8z"/>
			<path id="path6029-5" class="st0" d="M188.5,200.4h-19.3v-17.9h19.3V200.4z M171.1,198.4h15.5v-14.2h-15.5V198.4z"/>
			<path id="path6031-5" class="st0" d="M195.1,102.5c-1-1-2.5-1-3.5,0l-11.8,11.8l-3.2-3.2c-1-1-2.6-1-3.6-0.1c-1,1-1,2.6-0.1,3.6
				l5,5c0.5,0.5,1.1,0.7,1.8,0.7c0.7,0,1.3-0.3,1.8-0.7L195,106C196,105.1,196,103.5,195.1,102.5z"/>
			<path id="path6033-2" class="st0" d="M188.5,124h-19.3v-17.9h19.3V124z M171.1,122.1h15.5V108h-15.5V122.1z"/>
			<path id="path6035-9" class="st0" d="M170.1,90.4l5.7-11.8c0-0.1,0.2-0.2,0.3-0.2h0.2c0.1,0,0.2,0.1,0.3,0.2l5.4,11.8
				c0.1,0.2,0,0.4-0.2,0.5c0,0-0.1,0-0.1,0H180c-0.2,0-0.4-0.1-0.5-0.4l-0.9-1.9h-5.3l-0.9,1.9c-0.1,0.2-0.3,0.4-0.5,0.4h-1.5
				c-0.2,0.1-0.3,0-0.4-0.2C170,90.6,170,90.5,170.1,90.4z M177.7,86.7l-1.8-3.9l0,0l-1.7,3.9H177.7z"/>
			<path id="path6037-0" class="st0" d="M184,78.9c0-0.2,0.1-0.3,0.3-0.3h1.7c0.2,0,0.3,0.2,0.3,0.3c0,0,0,0,0,0v7.2
				c-0.1,1.4,0.9,2.7,2.3,2.8c1.4,0.1,2.7-0.9,2.8-2.3c0-0.2,0-0.4,0-0.5v-7.2c0-0.2,0.2-0.3,0.3-0.3l0,0h1.7c0.2,0,0.3,0.2,0.3,0.3
				v7.3c-0.2,2.7-2.6,4.8-5.3,4.5c-2.4-0.2-4.4-2.1-4.5-4.5L184,78.9z"/>
			<path id="path6039-2" class="st0" d="M197.7,78.9c0-0.2,0.1-0.3,0.3-0.3h4.2c3.4,0,6.2,2.8,6.2,6.2s-2.8,6.2-6.2,6.2c0,0,0,0,0,0
				H198c-0.2,0-0.3-0.2-0.3-0.3V78.9z M202,88.7c2.2-0.2,3.9-2.1,3.7-4.4c-0.2-2-1.7-3.5-3.7-3.7h-2v8.1H202z"/>
			<path id="path6041-8" class="st0" d="M211.6,78.9c0-0.2,0.2-0.3,0.3-0.3h1.6c0.2,0,0.3,0.2,0.3,0.3v11.7c0,0.2-0.2,0.3-0.3,0.3
				h-1.6c-0.2,0-0.3-0.2-0.3-0.3V78.9z"/>
			<path id="path6043-3" class="st0" d="M219.7,80.6H217c-0.2,0-0.3-0.2-0.3-0.3c0,0,0,0,0,0v-1.4c0-0.2,0.2-0.3,0.3-0.3l0,0h7.7
				c0.2,0,0.3,0.2,0.3,0.3c0,0,0,0,0,0v1.4c0,0.2-0.2,0.3-0.3,0.3l0,0h-2.8v9.9c0,0.2-0.2,0.3-0.3,0.3h-1.6c-0.2,0-0.3-0.2-0.3-0.3
				L219.7,80.6z"/>
		</g>
	</g>
</g>
</svg>
