<?xml version="1.0" encoding="utf-8"?>
<!-- Generator: Adobe Illustrator 23.0.3, SVG Export Plug-In . SVG Version: 6.00 Build 0)  -->
<svg version="1.1"
	 id="svg199987" xmlns:cc="http://creativecommons.org/ns#" xmlns:dc="http://purl.org/dc/elements/1.1/" xmlns:rdf="http://www.w3.org/1999/02/22-rdf-syntax-ns#" xmlns:svg="http://www.w3.org/2000/svg"
	 xmlns="http://www.w3.org/2000/svg" xmlns:xlink="http://www.w3.org/1999/xlink" x="0px" y="0px" viewBox="0 0 65.6 52.3"
	 style="enable-background:new 0 0 65.6 52.3;" xml:space="preserve">
<style type="text/css">
	.st0{fill:none;}
	.st1{fill:#FF3FB5;}
	.st2{fill:#666666;stroke:#000000;stroke-width:0.25;stroke-miterlimit:10;}
	.st3{fill:#666666;}
</style>
<g id="layer1" transform="translate(35.388016,-139.60634)">
	<g id="Layer_2-338-1" transform="matrix(0.23867043,0,0,0.23867043,-35.388016,139.60634)">
		<g id="Layer_1-2-60-4">
			<g>
				<path class="st0" d="M104.6,88.6c1.3,0,2.5,0.3,3.6,0.7l11.1-11.1c-3.8-2.8-8.5-4.5-13.5-4.7h-1.1c-6,0-11.5,2.1-15.8,5.7
					l11.7,10.3C101.8,88.9,103.1,88.6,104.6,88.6z"/>
				<path class="st0" d="M114.5,98.5c0,1-0.2,2-0.5,2.9l12,10.6c2.1-3.4,3.4-7.3,3.6-11.5c0-0.3,0-0.6,0-0.9
					c0.3-5.8-1.5-11.3-4.7-15.7L113.7,95C114.3,96.1,114.5,97.3,114.5,98.5z"/>
				<path class="st0" d="M94.7,98.5c0-1,0.2-2,0.5-2.9L83.5,85.3c-2.2,3.5-3.6,7.7-3.7,12.1c-0.4,5.8,1.3,11.3,4.4,15.8L95.4,102
					C95,100.9,94.7,99.7,94.7,98.5z"/>
				<path class="st0" d="M104.6,108.4c-1.2,0-2.4-0.3-3.5-0.7L89.8,119c3.8,2.8,8.3,4.6,13.4,4.9c6.7,0.4,12.8-1.8,17.6-5.8
					l-12.1-10.6C107.4,108.1,106.1,108.4,104.6,108.4z"/>
				<path class="st1" d="M132.1,117.3c3.5-5,5.5-11,5.8-17.2c0.4-8.3-2.3-16-7-22l1.6-1.6c0.2-0.1,0.3-0.3,0.5-0.5
					c1.4-1.7,1.2-4.3-0.5-5.7c-1.7-1.4-4.3-1.2-5.7,0.5l-1.6,1.6c-5.2-4.1-11.7-6.6-18.8-7C97.3,65,89,68.2,82.7,73.8l-1.8-1.6
					c-1.7-1.4-4.2-1.3-5.7,0.4c-1.4,1.7-1.3,4.2,0.4,5.7l1.8,1.6c-3.3,4.9-5.4,10.7-5.7,17c-0.4,8.2,2.2,15.8,6.9,21.8l-1.7,1.7
					c-1.6,1.6-1.6,4.1,0,5.7c0.7,0.7,1.7,1.2,2.8,1.2c1.1,0,2.1-0.4,3-1.2l1.6-1.6c5.2,4.1,11.7,6.7,18.9,7.1h1.5
					c8.1,0.1,15.8-2.8,22-8.2l1.6,1.4c0.8,0.6,1.7,1,2.7,1c1.1,0,2.2-0.5,2.9-1.5c1.5-1.7,1.4-4.2-0.3-5.7L132.1,117.3z M129.7,99.6
					c0,0.3,0,0.6,0,0.9c-0.3,4.2-1.6,8.1-3.6,11.5l-12-10.6c0.3-0.9,0.5-1.9,0.5-2.9c0-1.2-0.2-2.4-0.6-3.4l11-11.2
					C128.2,88.3,130,93.8,129.7,99.6z M104.7,73.5h1.1c5.1,0.2,9.7,1.9,13.5,4.7l-11.1,11.1c-1.1-0.4-2.3-0.7-3.6-0.7
					c-1.5,0-2.8,0.3-4.1,0.9L88.9,79.2C93.2,75.6,98.7,73.5,104.7,73.5z M79.8,97.4c0.2-4.4,1.5-8.6,3.7-12.1l11.7,10.3
					c-0.3,0.9-0.5,1.9-0.5,2.9c0,1.2,0.3,2.4,0.7,3.5l-11.2,11.1C81.1,108.7,79.4,103.2,79.8,97.4z M103.2,123.9
					c-5-0.3-9.6-2.1-13.4-4.9l11.3-11.3c1.1,0.4,2.2,0.7,3.5,0.7c1.5,0,2.8-0.3,4.1-0.9l12.1,10.6
					C116,122.1,109.9,124.3,103.2,123.9z"/>
			</g>
			<path class="st2" d="M187.1,0H21.3C12.7,0,5.7,7,5.7,15.7v19.5H0v27h5.7v72.7H0v27h5.7v19.5c0,8.7,7,15.7,15.7,15.7H144v-8.5
				H21.3c-3.9-0.1-7.1-3.3-7.1-7.2V15.7c0-3.9,3.2-7.1,7.1-7.2h165.8c4,0,7.2,3.2,7.2,7.2v37.7h8.5V15.7C202.8,7,195.8,0,187.1,0z"
				/>
			<path class="st3" d="M167,22.4H42.5c-6.8,0-14.5,5.7-14.5,13V161c0.6,7.6,6.8,13.6,14.5,13.7H144v-4.2H42.5
				c-5.3-0.2-9.7-4.3-10.3-9.5V35.4c0-5,5.5-8.8,10.3-8.8H167c4.9,0,9,3.9,9.2,8.8v18.1h4.2V35.4C180.3,28.1,174.3,22.3,167,22.4z"
				/>
			<path id="path6001-4" class="st3" d="M254.1,111.2h-47.2c-0.7,0-1.2,0.6-1.2,1.2c0,0.7,0.6,1.2,1.2,1.2l0,0h47.2
				c0.7,0,1.2-0.6,1.2-1.2C255.3,111.8,254.8,111.2,254.1,111.2z"/>
			<path id="path6003-8" class="st3" d="M255.3,137.3c0-0.7-0.5-1.2-1.2-1.2c0,0,0,0-0.1,0h-47.2c-0.7-0.1-1.3,0.4-1.4,1
				c-0.1,0.7,0.4,1.3,1,1.4c0.1,0,0.3,0,0.4,0H254C254.8,138.5,255.3,138,255.3,137.3L255.3,137.3z"/>
			<path id="path6005-0" class="st3" d="M206.9,121.1h22.4c0.7,0,1.2-0.6,1.2-1.2c0-0.7-0.5-1.2-1.2-1.2l0,0h-22.4
				c-0.7,0-1.2,0.5-1.2,1.2S206.2,121.1,206.9,121.1L206.9,121.1z"/>
			<path id="path6007-4" class="st3" d="M206.9,145.9h22.4c0.7,0,1.2-0.6,1.2-1.2c0-0.7-0.6-1.2-1.2-1.2h-22.4
				c-0.7,0-1.2,0.6-1.2,1.2C205.7,145.4,206.2,145.9,206.9,145.9L206.9,145.9z"/>
			<path id="path6009-2" class="st3" d="M206.9,170.7h22.4c0.7,0,1.2-0.6,1.2-1.2c0-0.7-0.6-1.2-1.2-1.2h-22.4
				c-0.7,0-1.2,0.6-1.2,1.2C205.7,170.2,206.2,170.7,206.9,170.7L206.9,170.7z"/>
			<path id="path6011-9" class="st3" d="M206.9,193c-0.7,0-1.3,0.6-1.3,1.3s0.6,1.3,1.3,1.3h22.4c0.7,0,1.2-0.6,1.2-1.3
				s-0.6-1.2-1.2-1.2L206.9,193z"/>
			<path id="path6013-6" class="st2" d="M275,97c0-1-0.4-1.9-1.1-2.6L241,61.5c-0.7-0.7-1.6-1.1-2.6-1.1h-81.2
				c-2.1,0-3.7,1.7-3.7,3.7l0,0v151.3c0,2.1,1.7,3.7,3.7,3.7h114.1c2.1,0,3.7-1.7,3.7-3.7V97z M267.5,211.6H160.9V67.8h75V97
				c0,1.4,1.1,2.5,2.4,2.5l0,0h29.2V211.6z M240.9,71.8l22.7,22.7h-22.7C240.9,94.5,240.9,71.8,240.9,71.8z"/>
			<path id="path6015-1" class="st3" d="M252.7,160.8H207c-0.7-0.1-1.3,0.4-1.4,1c-0.1,0.7,0.4,1.3,1,1.4c0.1,0,0.3,0,0.4,0h44.2
				L252.7,160.8z"/>
			<path id="path6017-0" class="st3" d="M246,185.6h-39.1c-0.7-0.1-1.3,0.4-1.4,1c-0.1,0.7,0.4,1.3,1,1.4c0.1,0,0.3,0,0.4,0H246
				V185.6z"/>
			<path id="path6019-4" class="st3" d="M195.1,128c-0.9-1-2.5-1-3.4-0.1c0,0,0,0-0.1,0.1l-11.8,11.8l-3.2-3.2c-1-1-2.6-1-3.6-0.1
				c-1,1-1,2.6-0.1,3.6l5,5c0.5,0.5,1.1,0.7,1.8,0.7s1.3-0.3,1.8-0.7l13.5-13.6C196,130.5,196,129,195.1,128L195.1,128z"/>
			<path id="path6021-2" class="st3" d="M188.5,149.5h-19.3v-17.9h19.3V149.5z M171.1,147.6h15.5v-14.2h-15.5V147.6z"/>
			<path id="path6023-2" class="st3" d="M195.1,153.4c-1-1-2.5-1-3.5,0l-11.8,11.8l-3.2-3.2c-1-1-2.6-1-3.6-0.1c-1,1-1,2.6-0.1,3.6
				l5,5c0.5,0.5,1.1,0.7,1.8,0.7s1.3-0.3,1.8-0.7L195,157C196,156,196,154.4,195.1,153.4z"/>
			<path id="path6025-2" class="st3" d="M188.5,175h-19.3v-17.9h19.3V175z M171.1,172.9h15.5V159h-15.5V172.9z"/>
			<path id="path6027-0" class="st3" d="M195.1,178.8c-1-1-2.5-1-3.5,0l-11.8,11.8l-3.2-3.2c-1-1-2.6-1-3.6-0.1s-1,2.6-0.1,3.6l5,5
				c0.5,0.5,1.1,0.7,1.8,0.7s1.3-0.3,1.8-0.7l13.5-13.5C196,181.4,196,179.8,195.1,178.8z"/>
			<path id="path6029-5" class="st3" d="M188.5,200.4h-19.3v-17.9h19.3V200.4z M171.1,198.4h15.5v-14.2h-15.5V198.4z"/>
			<path id="path6031-5" class="st3" d="M195.1,102.5c-1-1-2.5-1-3.5,0l-11.8,11.8l-3.2-3.2c-1-1-2.6-1-3.6-0.1c-1,1-1,2.6-0.1,3.6
				l5,5c0.5,0.5,1.1,0.7,1.8,0.7s1.3-0.3,1.8-0.7L195,106C196,105.1,196,103.5,195.1,102.5z"/>
			<path id="path6033-2" class="st3" d="M188.5,124h-19.3v-17.9h19.3V124z M171.1,122.1h15.5V108h-15.5V122.1z"/>
			<path id="path6035-9" class="st3" d="M170.1,90.4l5.7-11.8c0-0.1,0.2-0.2,0.3-0.2h0.2c0.1,0,0.2,0.1,0.3,0.2l5.4,11.8
				c0.1,0.2,0,0.4-0.2,0.5h-0.1H180c-0.2,0-0.4-0.1-0.5-0.4l-0.9-1.9h-5.3l-0.9,1.9c-0.1,0.2-0.3,0.4-0.5,0.4h-1.5
				c-0.2,0.1-0.3,0-0.4-0.2C170,90.6,170,90.5,170.1,90.4z M177.7,86.7l-1.8-3.9l0,0l-1.7,3.9H177.7z"/>
			<path id="path6037-0" class="st3" d="M184,78.9c0-0.2,0.1-0.3,0.3-0.3h1.7c0.2,0,0.3,0.2,0.3,0.3l0,0v7.2
				c-0.1,1.4,0.9,2.7,2.3,2.8c1.4,0.1,2.7-0.9,2.8-2.3c0-0.2,0-0.4,0-0.5v-7.2c0-0.2,0.2-0.3,0.3-0.3l0,0h1.7c0.2,0,0.3,0.2,0.3,0.3
				v7.3c-0.2,2.7-2.6,4.8-5.3,4.5c-2.4-0.2-4.4-2.1-4.5-4.5L184,78.9z"/>
			<path id="path6039-2" class="st3" d="M197.7,78.9c0-0.2,0.1-0.3,0.3-0.3h4.2c3.4,0,6.2,2.8,6.2,6.2s-2.8,6.2-6.2,6.2l0,0H198
				c-0.2,0-0.3-0.2-0.3-0.3V78.9z M202,88.7c2.2-0.2,3.9-2.1,3.7-4.4c-0.2-2-1.7-3.5-3.7-3.7h-2v8.1H202z"/>
			<path id="path6041-8" class="st3" d="M211.6,78.9c0-0.2,0.2-0.3,0.3-0.3h1.6c0.2,0,0.3,0.2,0.3,0.3v11.7c0,0.2-0.2,0.3-0.3,0.3
				h-1.6c-0.2,0-0.3-0.2-0.3-0.3V78.9z"/>
			<path id="path6043-3" class="st3" d="M219.7,80.6H217c-0.2,0-0.3-0.2-0.3-0.3l0,0v-1.4c0-0.2,0.2-0.3,0.3-0.3l0,0h7.7
				c0.2,0,0.3,0.2,0.3,0.3l0,0v1.4c0,0.2-0.2,0.3-0.3,0.3l0,0h-2.8v9.9c0,0.2-0.2,0.3-0.3,0.3H220c-0.2,0-0.3-0.2-0.3-0.3V80.6z"/>
		</g>
	</g>
</g>
</svg>
