<?xml version="1.0" encoding="UTF-8" standalone="no"?>
<svg
   xmlns:dc="http://purl.org/dc/elements/1.1/"
   xmlns:cc="http://creativecommons.org/ns#"
   xmlns:rdf="http://www.w3.org/1999/02/22-rdf-syntax-ns#"
   xmlns:svg="http://www.w3.org/2000/svg"
   xmlns="http://www.w3.org/2000/svg"
   id="svg169349"
   version="1.1"
   viewBox="0 0 18.746696 18.454"
   height="18.454mm"
   width="18.746696mm">
  <defs
     id="defs169343" />
  <metadata
     id="metadata169346">
    <rdf:RDF>
      <cc:Work
         rdf:about="">
        <dc:format>image/svg+xml</dc:format>
        <dc:type
           rdf:resource="http://purl.org/dc/dcmitype/StillImage" />
        <dc:title></dc:title>
      </cc:Work>
    </rdf:RDF>
  </metadata>
  <g
     transform="translate(-273.35284,-45.868238)"
     id="layer1">
    <g
       style="stroke-width:1.01180387"
       transform="matrix(0.26149666,0,0,0.26149666,273.35284,45.868419)"
       id="Layer_2-29-8"
       data-name="Layer 2">
      <g
         style="stroke-width:1.01180387"
         id="Layer_1-2-12-8"
         data-name="Layer 1">
        <path
           style="fill:#666666;stroke-width:1.01180387"
           class="cls-1"
           d="M 57.86,17.53 A 13.9,13.9 0 0 0 58.25,14.24 14.42,14.42 0 0 0 43.69,0 14.64,14.64 0 0 0 31,7.29 15.25,15.25 0 0 0 14.12,17.51 15,15 0 0 0 0,32.26 15,15 0 0 0 15.12,47.05 h 5 a 8.57,8.57 0 0 1 2.33,-1 V 43.69 H 15.12 A 11.62,11.62 0 0 1 3.36,32.26 11.61,11.61 0 0 1 15,20.84 a 12.19,12.19 0 0 1 4.7,1 1.1226976,1.1226976 0 0 0 0.87,-2.07 14.61,14.61 0 0 0 -3.28,-0.94 11.75,11.75 0 0 1 11.31,-8.33 h 0.29 a 12.45,12.45 0 0 1 7.95,2.95 1.09,1.09 0 0 0 0.72,0.27 1.15,1.15 0 0 0 0.86,-0.4 1.12,1.12 0 0 0 -0.13,-1.58 15,15 0 0 0 -4.44,-2.59 11.25,11.25 0 0 1 9.88,-5.75 11.06,11.06 0 0 1 11.2,10.88 10.54,10.54 0 0 1 -0.9,4.28 2.47,2.47 0 0 0 -0.11,0.36 14.17,14.17 0 0 0 -4.47,1.73 1.12,1.12 0 0 0 0.55,2.04 1.16,1.16 0 0 0 0.57,-0.15 12.08,12.08 0 0 1 5.38,-1.68 h 0.64 A 11.56,11.56 0 0 1 68.33,32.21 11.66,11.66 0 0 1 56.57,43.69 H 49.29 V 46 a 5.24,5.24 0 0 1 2.5,1 h 4.78 A 15,15 0 0 0 71.69,32.26 14.93,14.93 0 0 0 57.86,17.53 Z"
           id="path2689-9" />
        <path
           style="fill:#666666;stroke-width:1.01180387"
           class="cls-1"
           d="m 52.09,66.65 a 3.92,3.92 0 0 1 -3.92,3.92 H 23.52 A 3.92,3.92 0 0 1 19.6,66.65 V 52.09 a 3.92,3.92 0 0 1 3.92,-3.92 h 24.65 a 3.92,3.92 0 0 1 3.92,3.92 z M 48.73,52.09 A 0.56,0.56 0 0 0 48.17,51.53 H 23.52 a 0.56,0.56 0 0 0 -0.56,0.56 v 14.56 a 0.56,0.56 0 0 0 0.56,0.56 h 24.65 a 0.56,0.56 0 0 0 0.56,-0.56 z"
           id="path2691-2" />
        <path
           style="fill:#666666;stroke-width:1.01180387"
           class="cls-1"
           d="M 47.05,49.85 H 43.69 V 42 c 0,-4.94 -3.52,-9 -7.84,-9 C 31.53,33 28,37.07 28,42 v 7.84 H 24.64 V 42 c 0,-6.8 5,-12.33 11.21,-12.33 6.21,0 11.2,5.54 11.2,12.33 z"
           id="path2693-8" />
        <circle
           style="fill:#666666;stroke-width:1.01180387"
           class="cls-1"
           cx="35.93"
           cy="57.689999"
           r="3.3599999"
           id="circle2695-8" />
        <path
           style="fill:#666666;stroke-width:1.01180387"
           class="cls-1"
           d="m 35.85,65 a 1.12,1.12 0 0 1 -1.12,-1.12 v -5 a 1.12,1.12 0 1 1 2.24,0 v 5 A 1.12,1.12 0 0 1 35.85,65 Z"
           id="path2697-8" />
      </g>
    </g>
  </g>
</svg>
