<?xml version="1.0" encoding="UTF-8" standalone="no"?>
<svg
   xmlns:dc="http://purl.org/dc/elements/1.1/"
   xmlns:cc="http://creativecommons.org/ns#"
   xmlns:rdf="http://www.w3.org/1999/02/22-rdf-syntax-ns#"
   xmlns:svg="http://www.w3.org/2000/svg"
   xmlns="http://www.w3.org/2000/svg"
   id="svg280553"
   version="1.1"
   viewBox="0 0 19.683197 18.454"
   height="18.454mm"
   width="19.683197mm">
  <defs
     id="defs280547" />
  <metadata
     id="metadata280550">
    <rdf:RDF>
      <cc:Work
         rdf:about="">
        <dc:format>image/svg+xml</dc:format>
        <dc:type
           rdf:resource="http://purl.org/dc/dcmitype/StillImage" />
        <dc:title></dc:title>
      </cc:Work>
    </rdf:RDF>
  </metadata>
  <g
     transform="translate(33.654098,-139.60633)"
     id="layer1">
    <g
       style="stroke-width:0.9890691"
       transform="matrix(0.26750743,0,0,0.26750743,-33.654098,139.60633)"
       id="Layer_2-67-2"
       data-name="Layer 2">
      <g
         style="stroke-width:0.9890691"
         id="Layer_1-2-365-9"
         data-name="Layer 1">
        <path
           style="fill:#616161;stroke-width:0.9890691"
           class="cls-1"
           d="M 69.58,0 H 4 A 4,4 0 0 0 0,4 v 47.18 a 4,4 0 0 0 4,4 h 25.68 l -1.3,10.35 h -8.83 a 1.73,1.73 0 1 0 0,3.45 h 34.5 a 1.73,1.73 0 0 0 0,-3.45 H 45.22 L 43.92,55.2 h 25.66 a 4,4 0 0 0 4,-4 V 4 a 4,4 0 0 0 -4,-4 z M 4,3.45 h 65.58 a 0.58,0.58 0 0 1 0.57,0.58 V 46.57 H 3.45 V 4 A 0.58,0.58 0 0 1 4,3.45 Z m 38.9,62.1 H 30.7 L 32,55.2 h 9.62 z M 69.58,51.75 H 4 A 0.58,0.58 0 0 1 3.43,51.18 v -3.45 h 66.7 v 3.45 a 0.58,0.58 0 0 1 -0.55,0.57 z"
           id="path5400-4" />
        <path
           style="fill:#616161;stroke-width:0.9890691"
           class="cls-1"
           d="m 39.67,49.45 h -5.75 a 0.58,0.58 0 0 0 0,1.15 h 5.75 a 0.58,0.58 0 1 0 0,-1.15 z"
           id="path5402-3" />
        <polygon
           style="fill:#616161;stroke-width:0.9890691"
           class="cls-1"
           points="38.16,22.25 44.9,11.54 33.46,11.54 28.7,25.63 36.18,25.63 33.06,38.49 44.9,22.25 "
           id="polygon5404-5" />
        <path
           style="fill:#616161;stroke-width:0.9890691"
           class="cls-1"
           d="M 20.72,31.71 A 1.36,1.36 0 0 1 19.89,31.43 L 12.8,26.13 A 1.41,1.41 0 0 1 12.25,25 1.37,1.37 0 0 1 12.8,23.89 l 7.09,-5.3 a 1.4,1.4 0 0 1 1.95,0.27 1.38,1.38 0 0 1 -0.28,1.95 L 16,25 l 5.59,4.19 a 1.39,1.39 0 0 1 -0.84,2.51 z"
           id="path5406-1" />
        <path
           style="fill:#616161;stroke-width:0.9890691"
           class="cls-1"
           d="M 52.87,31.71 A 1.37,1.37 0 0 1 51.76,31.15 1.39,1.39 0 0 1 52,29.2 L 57.64,25 52,20.82 a 1.3920129,1.3920129 0 0 1 1.68,-2.22 l 7.09,5.3 a 1.37,1.37 0 0 1 0.58,1.1 1.41,1.41 0 0 1 -0.55,1.12 l -7.09,5.3 a 1.39,1.39 0 0 1 -0.84,0.29 z"
           id="path5408-7" />
      </g>
    </g>
  </g>
</svg>
