<?xml version="1.0" encoding="UTF-8" standalone="no"?>
<svg
   xmlns:dc="http://purl.org/dc/elements/1.1/"
   xmlns:cc="http://creativecommons.org/ns#"
   xmlns:rdf="http://www.w3.org/1999/02/22-rdf-syntax-ns#"
   xmlns:svg="http://www.w3.org/2000/svg"
   xmlns="http://www.w3.org/2000/svg"
   id="svg262454"
   version="1.1"
   viewBox="0 0 36.018524 18.458742"
   height="18.458742mm"
   width="36.018524mm">
  <defs
     id="defs262448" />
  <metadata
     id="metadata262451">
    <rdf:RDF>
      <cc:Work
         rdf:about="">
        <dc:format>image/svg+xml</dc:format>
        <dc:type
           rdf:resource="http://purl.org/dc/dcmitype/StillImage" />
        <dc:title></dc:title>
      </cc:Work>
    </rdf:RDF>
  </metadata>
  <g
     transform="translate(536.5926,25.949609)"
     id="layer1">
    <g
       style="stroke-width:0.65451384"
       transform="matrix(0.4025646,0,0,0.4059306,-536.739,-26.097235)"
       id="Layer_2-598-4">
      <g
         style="stroke-width:0.65451384"
         id="Layer_1-2-481-1">
        <polyline
           style="fill:none;stroke:#878589;stroke-width:0.49088535;stroke-miterlimit:10"
           class="st0"
           points="4.1,11.4 6.8,17.4 14.7,15.7   "
           id="polyline11988-9" />
        <polyline
           style="fill:none;stroke:#878589;stroke-width:0.49088535;stroke-miterlimit:10"
           class="st0"
           points="39.6,7.5 32.6,8.8 31.7,15.2   "
           id="polyline11990-0" />
        <polyline
           style="fill:none;stroke:#878589;stroke-width:0.49088535;stroke-miterlimit:10"
           class="st0"
           points="15.9,31.9 17,38.5 10.7,41.6   "
           id="polyline11992-9" />
        <polyline
           style="fill:none;stroke:#878589;stroke-width:0.49088535;stroke-miterlimit:10"
           class="st0"
           points="32.5,30.4 39,32 39.5,38.9   "
           id="polyline11994-8" />
        <polyline
           style="fill:none;stroke:#878589;stroke-width:0.49088535;stroke-miterlimit:10"
           class="st0"
           points="48,10 54.6,11 55.8,17.8   "
           id="polyline11996-8" />
        <polyline
           style="fill:none;stroke:#878589;stroke-width:0.49088535;stroke-miterlimit:10"
           class="st0"
           points="83.4,7.8 82,14.3 75.3,15.3   "
           id="polyline11998-5" />
        <polyline
           style="fill:none;stroke:#878589;stroke-width:0.49088535;stroke-miterlimit:10"
           class="st0"
           points="75.9,30.6 75.1,37.7 81.6,40   "
           id="polyline12000-8" />
        <polyline
           style="fill:none;stroke:#878589;stroke-width:0.49088535;stroke-miterlimit:10"
           class="st0"
           points="58,30.6 51.5,31.9 50.4,38.5   "
           id="polyline12002-4" />
        <path
           style="fill:none;stroke:#666666;stroke-width:1.47265613;stroke-miterlimit:10"
           class="st1"
           d="M 67.1,1.1 C 56.6,1.1 50.1,7 45.1,13.5 40.1,7 33.6,1.1 23.1,1.1 c -8.8,0 -22,5.9 -22,22 0,16.1 13.2,22 22,22 10.5,0 17,-5.9 22,-12.4 5,6.5 11.5,12.4 22,12.4 8.8,0 22,-5.9 22,-22 C 89.1,7 76,1.1 67.1,1.1 Z m -44,33 c -1.8,0 -11,-0.5 -11,-11 0,-10.1 8.5,-11 11,-11 6.7,0 10.6,4.1 15.4,11 -4.8,6.9 -8.7,11 -15.4,11 z m 44,0 c -6.7,0 -10.6,-4.1 -15.3,-11 4.8,-6.9 8.6,-11 15.4,-11 1.8,0 11,0.5 11,11 -0.1,10.1 -8.5,11 -11.1,11 z"
           id="path12004-3" />
        <line
           style="fill:none;stroke:#666666;stroke-width:1.47265613;stroke-miterlimit:10"
           class="st1"
           x1="45.099998"
           y1="32.700001"
           x2="51.700001"
           y2="23.1"
           id="line12006-7" />
        <line
           style="fill:none;stroke:#666666;stroke-width:1.47265613;stroke-miterlimit:10"
           class="st1"
           x1="45.099998"
           y1="13.5"
           x2="38.5"
           y2="23.1"
           id="line12008-1" />
      </g>
    </g>
  </g>
</svg>
