<?xml version="1.0" encoding="UTF-8" standalone="no"?>
<svg
   xmlns:dc="http://purl.org/dc/elements/1.1/"
   xmlns:cc="http://creativecommons.org/ns#"
   xmlns:rdf="http://www.w3.org/1999/02/22-rdf-syntax-ns#"
   xmlns:svg="http://www.w3.org/2000/svg"
   xmlns="http://www.w3.org/2000/svg"
   id="svg260964"
   version="1.1"
   viewBox="0 0 18.292423 18.454"
   height="18.454mm"
   width="18.292423mm">
  <defs
     id="defs260958" />
  <metadata
     id="metadata260961">
    <rdf:RDF>
      <cc:Work
         rdf:about="">
        <dc:format>image/svg+xml</dc:format>
        <dc:type
           rdf:resource="http://purl.org/dc/dcmitype/StillImage" />
        <dc:title></dc:title>
      </cc:Work>
    </rdf:RDF>
  </metadata>
  <g
     transform="translate(-439.8895,-54.183714)"
     id="layer1">
    <g
       style="fill:#58595b;fill-opacity:1;stroke:#58595b;stroke-width:1.29605222;stroke-opacity:1"
       transform="matrix(0.20414507,0,0,0.20414609,440.02577,54.316006)"
       id="Layer_2-1"
       data-name="Layer 2">
      <g
         style="fill:#58595b;fill-opacity:1;stroke:#58595b;stroke-width:1.29605222;stroke-opacity:1"
         id="Layer_1-2-5"
         data-name="Layer 1">
        <path
           style="fill:#58595b;fill-opacity:1;stroke:#58595b;stroke-width:1.29605222;stroke-opacity:1"
           class="cls-1"
           d="m 44.14,18.25 c -10.71,0 -21.54,2.51 -21.54,7.32 v 37.91 c 0,4.81 10.83,7.32 21.54,7.32 10.71,0 21.54,-2.51 21.54,-7.32 V 25.57 c 0,-4.81 -10.84,-7.32 -21.54,-7.32 z m -13.95,4.29 a 51.22,51.22 0 0 1 14,-1.71 c 12.26,0 19,3.13 19,4.74 0,0.53 -1,1.85 -5,3 a 51.27,51.27 0 0 1 -14,1.71 c -12.27,0 -19,-3.13 -19,-4.74 -0.01,-0.54 1.04,-1.82 5,-3 z m 32.9,18.19 c -1.73,2 -8.62,4.23 -19,4.23 -10.38,0 -17.23,-2.23 -19,-4.23 v -2.08 c 3.68,2.43 11.49,3.72 19,3.72 7.51,0 15.28,-1.29 19,-3.72 z m 0,2.22 v 7.26 c -1.73,2 -8.62,4.22 -19,4.22 -10.38,0 -17.23,-2.22 -19,-4.22 V 43 c 3.67,2.44 11.48,3.73 19,3.73 7.52,0 15.33,-1.34 19,-3.73 z m -37.91,9.48 c 3.68,2.44 11.49,3.73 19,3.73 7.51,0 15.28,-1.29 19,-3.73 v 2.09 c -1.73,2 -8.62,4.22 -19,4.22 -10.38,0 -17.23,-2.23 -19,-4.22 z m 37.91,-16 c -1.73,2 -8.62,4.23 -19,4.23 -10.38,0 -17.23,-2.23 -19,-4.23 v -7.19 c 3.85,2.41 11.43,3.65 19,3.65 7.57,0 15.11,-1.24 19,-3.65 z m -5,30.09 a 51.27,51.27 0 0 1 -14,1.71 c -12.27,0 -19,-3.13 -19,-4.74 v -6.75 c 3.67,2.43 11.48,3.72 19,3.72 7.52,0 15.28,-1.29 19,-3.72 v 6.74 c 0,0.52 -1.04,1.85 -5,3.03 z"
           id="path9761" />
        <path
           style="fill:#58595b;fill-opacity:1;stroke:#58595b;stroke-width:1.29605222;stroke-opacity:1"
           class="cls-1"
           d="m 57.62,35.63 h 0.21 a 17.79,17.79 0 0 0 3.62,-1.27 0.86,0.86 0 1 0 -0.76,-1.54 16.75,16.75 0 0 1 -3.28,1.14 0.86,0.86 0 0 0 0.21,1.7 z"
           id="path9763" />
        <path
           style="fill:#58595b;fill-opacity:1;stroke:#58595b;stroke-width:1.29605222;stroke-opacity:1"
           class="cls-1"
           d="m 57.62,49.41 a 0.75,0.75 0 0 0 0.21,0 18.42,18.42 0 0 0 3.62,-1.27 0.86,0.86 0 0 0 0.39,-1.14 0.85,0.85 0 0 0 -1.15,-0.38 17.44,17.44 0 0 1 -3.28,1.14 0.85,0.85 0 0 0 -0.62,1 0.86,0.86 0 0 0 0.83,0.65 z"
           id="path9765" />
        <path
           style="fill:#58595b;fill-opacity:1;stroke:#58595b;stroke-width:1.29605222;stroke-opacity:1"
           class="cls-1"
           d="m 60.69,60.36 a 16.75,16.75 0 0 1 -3.28,1.14 0.86,0.86 0 0 0 0.21,1.7 h 0.21 a 17.79,17.79 0 0 0 3.62,-1.27 0.86,0.86 0 1 0 -0.76,-1.54 z"
           id="path9767" />
        <path
           style="fill:#58595b;fill-opacity:1;stroke:#58595b;stroke-width:1.29605222;stroke-opacity:1"
           class="cls-1"
           d="M 44.09,0 A 7.08,7.08 0 1 0 51.17,7.08 7.09,7.09 0 0 0 44.09,0 Z m 0,12.25 a 5.17,5.17 0 1 1 5.17,-5.17 5.18,5.18 0 0 1 -5.17,5.17 z"
           id="path9769" />
        <path
           style="fill:#58595b;fill-opacity:1;stroke:#58595b;stroke-width:1.29605222;stroke-opacity:1"
           class="cls-1"
           d="m 47,4.93 a 0.47,0.47 0 0 0 -0.64,0 L 43,8.27 41.82,7.08 a 0.45,0.45 0 0 0 -0.64,0 0.47,0.47 0 0 0 0,0.64 l 1.82,1.82 4,-4 a 0.47,0.47 0 0 0 0,-0.61 z"
           id="path9771" />
        <path
           style="fill:#58595b;fill-opacity:1;stroke:#58595b;stroke-width:1.29605222;stroke-opacity:1"
           class="cls-1"
           d="M 44.09,89.1 A 7.08,7.08 0 1 0 37,82 a 7.09,7.09 0 0 0 7.09,7.1 z m 0,-12.25 A 5.17,5.17 0 1 1 38.92,82 5.18,5.18 0 0 1 44.09,76.85 Z"
           id="path9773" />
        <path
           style="fill:#58595b;fill-opacity:1;stroke:#58595b;stroke-width:1.29605222;stroke-opacity:1"
           class="cls-1"
           d="m 47,79.69 a 0.45,0.45 0 0 0 -0.64,0 L 43,83 41.81,81.8 a 0.45254834,0.45254834 0 0 0 -0.64,0.64 l 1.83,1.86 4,-4 a 0.45,0.45 0 0 0 0,-0.61 z"
           id="path9775" />
        <rect
           style="fill:#58595b;fill-opacity:1;stroke:#58595b;stroke-width:1.29605222;stroke-opacity:1"
           class="cls-1"
           x="63.549999"
           y="27.75"
           width="13.61"
           height="2.6600001"
           transform="rotate(-30.56,70.355341,29.074312)"
           id="rect9777" />
        <rect
           style="fill:#58595b;fill-opacity:1;stroke:#58595b;stroke-width:1.29605222;stroke-opacity:1"
           class="cls-1"
           x="11.21"
           y="58.599998"
           width="13.76"
           height="2.6600001"
           transform="rotate(-30.56,18.085139,59.932448)"
           id="rect9779" />
        <rect
           style="fill:#58595b;fill-opacity:1;stroke:#58595b;stroke-width:1.29605222;stroke-opacity:1"
           class="cls-1"
           x="16.59"
           y="22.290001"
           width="2.6600001"
           height="13.58"
           transform="rotate(-59.45,17.919717,29.077696)"
           id="rect9781" />
        <rect
           style="fill:#58595b;fill-opacity:1;stroke:#58595b;stroke-width:1.29605222;stroke-opacity:1"
           class="cls-1"
           x="68.959999"
           y="53.16"
           width="2.6600001"
           height="13.66"
           transform="rotate(-59.45,70.294745,59.980803)"
           id="rect9783" />
        <rect
           style="fill:#58595b;fill-opacity:1;stroke:#58595b;stroke-width:1.29605222;stroke-opacity:1"
           class="cls-1"
           x="42.810001"
           y="13.01"
           width="2.6600001"
           height="6.0799999"
           id="rect9785" />
        <rect
           style="fill:#58595b;fill-opacity:1;stroke:#58595b;stroke-width:1.29605222;stroke-opacity:1"
           class="cls-1"
           x="42.810001"
           y="69.400002"
           width="2.6600001"
           height="6.7399998"
           id="rect9787" />
        <path
           style="fill:#58595b;fill-opacity:1;stroke:#58595b;stroke-width:1.29605222;stroke-opacity:1"
           class="cls-1"
           d="m 86.2,71.43 a 7.08,7.08 0 1 0 -10,0 7.1,7.1 0 0 0 10,0 z m -8.66,-8.66 a 5.17,5.17 0 1 1 0,7.31 5.17,5.17 0 0 1 0,-7.31 z"
           id="path9789" />
        <path
           style="fill:#58595b;fill-opacity:1;stroke:#58595b;stroke-width:1.29605222;stroke-opacity:1"
           class="cls-1"
           d="m 86.2,17.67 a 7.08,7.08 0 1 0 0,10 7.09,7.09 0 0 0 0,-10 z m -8.66,8.66 a 5.17,5.17 0 1 1 7.31,0 5.17,5.17 0 0 1 -7.31,0 z"
           id="path9791" />
        <path
           style="fill:#58595b;fill-opacity:1;stroke:#58595b;stroke-width:1.29605222;stroke-opacity:1"
           class="cls-1"
           d="m 83.56,64.05 a 0.45,0.45 0 0 0 -0.63,0 l -1.73,1.74 -1.74,-1.74 a 0.45,0.45 0 0 0 -0.63,0 0.45,0.45 0 0 0 0,0.64 l 1.73,1.73 -1.73,1.73 a 0.45,0.45 0 0 0 0,0.64 0.44,0.44 0 0 0 0.32,0.13 0.42,0.42 0 0 0 0.31,-0.13 l 1.74,-1.73 1.73,1.73 a 0.44,0.44 0 0 0 0.32,0.13 0.42,0.42 0 0 0 0.31,-0.13 0.45,0.45 0 0 0 0,-0.64 l -1.73,-1.73 1.73,-1.73 a 0.45,0.45 0 0 0 0,-0.64 z"
           id="path9793" />
        <path
           style="fill:#58595b;fill-opacity:1;stroke:#58595b;stroke-width:1.29605222;stroke-opacity:1"
           class="cls-1"
           d="m 83.56,20.31 a 0.45,0.45 0 0 0 -0.63,0 L 81.2,22 79.46,20.27 a 0.45,0.45 0 0 0 -0.63,0 0.45,0.45 0 0 0 0,0.64 l 1.73,1.73 -1.73,1.73 a 0.45,0.45 0 0 0 0,0.64 0.48,0.48 0 0 0 0.32,0.13 0.46,0.46 0 0 0 0.31,-0.13 l 1.74,-1.74 1.73,1.74 a 0.48,0.48 0 0 0 0.32,0.13 0.46,0.46 0 0 0 0.31,-0.13 0.45,0.45 0 0 0 0,-0.64 L 81.83,22.64 83.56,21 a 0.45,0.45 0 0 0 0,-0.69 z"
           id="path9795" />
        <path
           style="fill:#58595b;fill-opacity:1;stroke:#58595b;stroke-width:1.29605222;stroke-opacity:1"
           class="cls-1"
           d="m 2.07,17.67 a 7.08,7.08 0 1 0 10,0 7.1,7.1 0 0 0 -10,0 z m 8.66,8.66 a 5.17,5.17 0 1 1 0,-7.31 5.17,5.17 0 0 1 0,7.31 z"
           id="path9797" />
        <path
           style="fill:#58595b;fill-opacity:1;stroke:#58595b;stroke-width:1.29605222;stroke-opacity:1"
           class="cls-1"
           d="m 2.07,71.43 a 7.08,7.08 0 1 0 0,-10 7.09,7.09 0 0 0 0,10 z m 8.66,-8.66 a 5.17,5.17 0 1 1 -7.31,0 5.17,5.17 0 0 1 7.31,0 z"
           id="path9799" />
        <path
           style="fill:#58595b;fill-opacity:1;stroke:#58595b;stroke-width:1.29605222;stroke-opacity:1"
           class="cls-1"
           d="m 9.45,20.31 a 0.47,0.47 0 0 0 -0.64,0 L 7.08,22 5.35,20.31 a 0.47,0.47 0 0 0 -0.64,0 0.45,0.45 0 0 0 0,0.64 l 1.73,1.73 -1.73,1.73 a 0.45,0.45 0 0 0 0,0.64 0.48,0.48 0 0 0 0.32,0.13 0.5,0.5 0 0 0 0.32,-0.13 l 1.73,-1.74 1.73,1.74 a 0.48,0.48 0 0 0 0.32,0.13 0.5,0.5 0 0 0 0.32,-0.13 0.47,0.47 0 0 0 0,-0.64 L 7.71,22.68 9.45,21 a 0.47,0.47 0 0 0 0,-0.69 z"
           id="path9801" />
        <path
           style="fill:#58595b;fill-opacity:1;stroke:#58595b;stroke-width:1.29605222;stroke-opacity:1"
           class="cls-1"
           d="m 9.45,64.05 a 0.47,0.47 0 0 0 -0.64,0 L 7.08,65.79 5.35,64.05 a 0.47,0.47 0 0 0 -0.64,0 0.45,0.45 0 0 0 0,0.64 l 1.73,1.73 -1.73,1.73 a 0.45,0.45 0 0 0 0,0.64 0.44,0.44 0 0 0 0.32,0.13 0.45,0.45 0 0 0 0.32,-0.13 l 1.73,-1.73 1.73,1.73 a 0.44,0.44 0 0 0 0.32,0.13 0.45,0.45 0 0 0 0.32,-0.13 0.47,0.47 0 0 0 0,-0.64 L 7.71,66.42 9.45,64.69 a 0.47,0.47 0 0 0 0,-0.64 z"
           id="path9803" />
      </g>
    </g>
  </g>
</svg>
