<?xml version="1.0" encoding="UTF-8" standalone="no"?>
<svg
   xmlns:dc="http://purl.org/dc/elements/1.1/"
   xmlns:cc="http://creativecommons.org/ns#"
   xmlns:rdf="http://www.w3.org/1999/02/22-rdf-syntax-ns#"
   xmlns:svg="http://www.w3.org/2000/svg"
   xmlns="http://www.w3.org/2000/svg"
   id="svg192966"
   version="1.1"
   viewBox="0 0 18.985476 18.454"
   height="18.454mm"
   width="18.985476mm">
  <defs
     id="defs192960" />
  <metadata
     id="metadata192963">
    <rdf:RDF>
      <cc:Work
         rdf:about="">
        <dc:format>image/svg+xml</dc:format>
        <dc:type
           rdf:resource="http://purl.org/dc/dcmitype/StillImage" />
        <dc:title></dc:title>
      </cc:Work>
    </rdf:RDF>
  </metadata>
  <g
     transform="translate(33.305237,-139.60633)"
     id="layer1">
    <g
       style="stroke-width:1.07530892"
       transform="matrix(0.24605333,0,0,0.24605333,-33.305237,139.60633)"
       id="Layer_2-76-2"
       data-name="Layer 2">
      <g
         style="stroke-width:1.07530892"
         id="Layer_1-2-56-8"
         data-name="Layer 1">
        <rect
           style="fill:#666666;stroke-width:1.07530892"
           x="0"
           class="cls-1"
           y="51.34"
           width="3.3800001"
           height="10.26"
           id="rect3213-4" />
        <rect
           style="fill:#666666;stroke-width:1.07530892"
           x="0"
           class="cls-1"
           y="13.4"
           width="3.3800001"
           height="10.26"
           id="rect3215-7" />
        <path
           style="fill:#666666;stroke-width:1.07530892"
           class="cls-1"
           d="M 71.16,75 H 8.1 a 6,6 0 0 1 -6,-6 V 6 a 6,6 0 0 1 6,-6 h 63.06 a 6,6 0 0 1 6,6 v 63 a 6,6 0 0 1 -6,6 z M 8.1,3.21 A 2.76,2.76 0 0 0 5.35,6 V 69 A 2.76,2.76 0 0 0 8.1,71.79 H 71.16 A 2.77,2.77 0 0 0 73.92,69 V 6 A 2.77,2.77 0 0 0 71.16,3.24 Z"
           id="path3217-2" />
        <path
           style="fill:#666666;stroke-width:1.07530892"
           class="cls-1"
           d="M 63.55,66.5 H 16.14 A 5.65,5.65 0 0 1 10.63,61.28 V 13.47 c 0,-2.85 2.91,-5 5.51,-5 h 47.41 a 5,5 0 0 1 5.09,5 v 48 l -0.07,0.12 A 5.13,5.13 0 0 1 63.55,66.5 Z M 16.14,10.1 c -1.8,0 -3.9,1.47 -3.9,3.37 v 47.81 a 4.09,4.09 0 0 0 3.9,3.62 H 63.55 A 3.52,3.52 0 0 0 67,61.39 v -0.21 l 0.06,-0.11 V 13.47 A 3.47,3.47 0 0 0 63.58,10.1 Z"
           id="path3219-4" />
        <path
           style="fill:#cccccc;stroke-width:1.07530892"
           class="cls-2"
           d="m 14.5,17.82 h 4 v 0.73 h -4 z m 1,-6.47 H 16 v 0.73 h -1.35 z m 1.44,6.37 h -0.78 v -6.37 h 0.78 z"
           id="path3221-0" />
        <path
           style="fill:#cccccc;stroke-width:1.07530892"
           class="cls-2"
           d="m 21.06,11.35 h 2.5 v 0.73 h -3.29 z m 0,7.2 -0.77,-0.77 V 12.19 H 21 Z m 2.6,0 h -2.5 v -0.73 h 3.29 z m 0,-7.2 0.77,0.77 v 5.6 h -0.77 z"
           id="path3223-6" />
        <path
           style="fill:#cccccc;stroke-width:1.07530892"
           class="cls-2"
           d="m 26,17.82 h 4 v 0.73 h -4 z m 1,-6.47 h 0.56 v 0.73 h -1.37 z m 1.44,6.37 h -0.77 v -6.37 h 0.77 z"
           id="path3225-2" />
        <path
           style="fill:#cccccc;stroke-width:1.07530892"
           class="cls-2"
           d="m 32.6,11.35 h 2.5 v 0.73 h -3.29 z m 0,7.2 -0.77,-0.77 v -5.59 h 0.77 z m 2.6,0 H 32.7 V 17.82 H 36 Z m 0,-7.2 0.77,0.77 v 5.6 H 35.2 Z"
           id="path3227-9" />
        <path
           style="fill:#cccccc;stroke-width:1.07530892"
           class="cls-2"
           d="m 37.58,17.82 h 4 v 0.73 h -4 z m 1,-6.47 h 0.56 v 0.73 H 37.73 Z M 40,17.72 H 39.23 V 11.35 H 40 Z"
           id="path3229-9" />
        <path
           style="fill:#cccccc;stroke-width:1.07530892"
           class="cls-2"
           d="m 44.14,11.35 h 2.5 v 0.73 h -3.29 z m 0,7.2 -0.77,-0.77 v -5.59 h 0.77 z m 2.6,0 h -2.5 v -0.73 h 3.3 z m 0,-7.2 0.78,0.77 v 5.6 h -0.78 z"
           id="path3231-0" />
        <path
           style="fill:#cccccc;stroke-width:1.07530892"
           class="cls-2"
           d="m 49.12,17.82 h 4 v 0.73 h -4 z m 1,-6.47 h 0.56 v 0.73 h -1.4 z m 1.44,6.37 h -0.77 v -6.37 h 0.77 z"
           id="path3233-8" />
        <path
           style="fill:#cccccc;stroke-width:1.07530892"
           class="cls-2"
           d="m 55.68,11.35 h 2.5 v 0.73 h -3.29 z m 0,7.2 -0.77,-0.77 v -5.59 h 0.77 z m 2.6,0 h -2.51 v -0.73 h 3.29 z m 0,-7.2 0.77,0.77 v 5.6 h -0.77 z"
           id="path3235-9-1" />
        <path
           style="fill:#cccccc;stroke-width:1.07530892"
           class="cls-2"
           d="m 60.66,17.82 h 4 v 0.73 h -4 z m 1,-6.47 h 0.56 v 0.73 h -1.4 z m 1.44,6.37 h -0.77 v -6.37 h 0.77 z"
           id="path3237-3-3" />
        <path
           style="fill:#cccccc;stroke-width:1.07530892"
           class="cls-2"
           d="m 15.29,20.35 h 2.5 v 0.73 H 14.5 Z m 0,7.2 -0.77,-0.77 v -5.6 h 0.77 z m 2.6,0 h -2.5 v -0.73 h 3.29 z m 0,-7.2 0.77,0.77 v 5.6 h -0.77 z"
           id="path3239-7-1" />
        <path
           style="fill:#cccccc;stroke-width:1.07530892"
           class="cls-2"
           d="m 20.27,26.82 h 4 v 0.73 h -4 z m 1,-6.47 h 0.56 v 0.73 h -1.41 z m 1.44,6.37 h -0.78 v -6.37 h 0.78 z"
           id="path3241-1" />
        <path
           style="fill:#cccccc;stroke-width:1.07530892"
           class="cls-2"
           d="m 26.83,20.35 h 2.5 v 0.73 H 26 Z m 0,7.2 L 26,26.78 v -5.6 h 0.77 z m 2.6,0 h -2.5 v -0.73 h 3.27 z m 0,-7.2 0.77,0.77 v 5.6 h -0.77 z"
           id="path3243-0" />
        <path
           style="fill:#cccccc;stroke-width:1.07530892"
           class="cls-2"
           d="m 31.81,26.82 h 4 v 0.73 h -4 z m 1,-6.47 h 0.56 v 0.73 H 32 Z m 1.44,6.37 h -0.78 v -6.37 h 0.78 z"
           id="path3245-3" />
        <path
           style="fill:#cccccc;stroke-width:1.07530892"
           class="cls-2"
           d="m 38.37,20.35 h 2.5 v 0.73 h -3.29 z m 0,7.2 -0.77,-0.77 v -5.6 h 0.77 z m 2.6,0 h -2.5 v -0.73 h 3.29 z m 0,-7.2 0.77,0.77 v 5.6 H 41 Z"
           id="path3247-4" />
        <path
           style="fill:#cccccc;stroke-width:1.07530892"
           class="cls-2"
           d="m 43.35,26.82 h 4 v 0.73 h -4 z m 1,-6.47 h 0.56 v 0.73 H 43.5 Z m 1.44,6.37 H 45 v -6.37 h 0.77 z"
           id="path3249-0" />
        <path
           style="fill:#cccccc;stroke-width:1.07530892"
           class="cls-2"
           d="m 49.91,20.35 h 2.5 v 0.73 h -3.29 z m 0,7.2 -0.77,-0.77 v -5.6 h 0.77 z m 2.6,0 H 50 v -0.73 h 3.29 z m 0,-7.2 0.78,0.77 v 5.6 h -0.78 z"
           id="path3251-3" />
        <path
           style="fill:#cccccc;stroke-width:1.07530892"
           class="cls-2"
           d="m 54.89,26.82 h 4 v 0.73 h -4 z m 1,-6.47 h 0.56 v 0.73 h -1.4 z m 1.44,6.37 h -0.77 v -6.37 h 0.77 z"
           id="path3253-9" />
        <path
           style="fill:#cccccc;stroke-width:1.07530892"
           class="cls-2"
           d="M 61.45,20.35 H 64 v 0.73 h -3.34 z m 0,7.2 -0.77,-0.77 v -5.6 h 0.77 z m 2.6,0 h -2.51 v -0.73 h 3.29 z m 0,-7.2 0.77,0.77 v 5.6 h -0.77 z"
           id="path3255-1" />
        <path
           style="fill:#cccccc;stroke-width:1.07530892"
           class="cls-2"
           d="m 14.5,35.82 h 4 v 0.73 h -4 z m 1,-6.47 H 16 v 0.73 h -1.35 z m 1.44,6.36 h -0.78 v -6.36 h 0.78 z"
           id="path3257-9" />
        <path
           style="fill:#cccccc;stroke-width:1.07530892"
           class="cls-2"
           d="m 20.27,35.82 h 4 v 0.73 h -4 z m 1,-6.47 h 0.56 v 0.73 h -1.41 z m 1.44,6.36 h -0.78 v -6.36 h 0.78 z"
           id="path3259-6" />
        <path
           style="fill:#cccccc;stroke-width:1.07530892"
           class="cls-2"
           d="m 26.83,29.35 h 2.5 v 0.73 H 26 Z m 0,7.2 L 26,35.77 v -5.59 h 0.77 z m 2.6,0 h -2.5 v -0.73 h 3.27 z m 0,-7.2 0.77,0.77 v 5.59 h -0.77 z"
           id="path3261-9" />
        <path
           style="fill:#cccccc;stroke-width:1.07530892"
           class="cls-2"
           d="m 31.81,35.82 h 4 v 0.73 h -4 z m 1,-6.47 h 0.56 v 0.73 H 32 Z m 1.44,6.36 h -0.78 v -6.36 h 0.78 z"
           id="path3263-3" />
        <path
           style="fill:#cccccc;stroke-width:1.07530892"
           class="cls-2"
           d="m 37.58,35.82 h 4 v 0.73 h -4 z m 1,-6.47 h 0.56 v 0.73 H 37.73 Z M 40,35.71 H 39.23 V 29.35 H 40 Z"
           id="path3265-3" />
        <path
           style="fill:#cccccc;stroke-width:1.07530892"
           class="cls-2"
           d="m 44.14,29.35 h 2.5 v 0.73 h -3.29 z m 0,7.2 -0.77,-0.78 v -5.59 h 0.77 z m 2.6,0 h -2.5 v -0.73 h 3.3 z m 0,-7.2 0.78,0.77 v 5.59 h -0.78 z"
           id="path3267-8" />
        <path
           style="fill:#cccccc;stroke-width:1.07530892"
           class="cls-2"
           d="m 49.12,35.82 h 4 v 0.73 h -4 z m 1,-6.47 h 0.56 v 0.73 h -1.4 z m 1.44,6.36 h -0.77 v -6.36 h 0.77 z"
           id="path3269-0" />
        <path
           style="fill:#cccccc;stroke-width:1.07530892"
           class="cls-2"
           d="m 54.89,35.82 h 4 v 0.73 h -4 z m 1,-6.47 h 0.56 v 0.73 h -1.4 z m 1.44,6.36 h -0.77 v -6.36 h 0.77 z"
           id="path3271-5" />
        <path
           style="fill:#cccccc;stroke-width:1.07530892"
           class="cls-2"
           d="M 61.45,29.35 H 64 v 0.73 h -3.34 z m 0,7.2 -0.77,-0.78 v -5.59 h 0.77 z m 2.6,0 h -2.51 v -0.73 h 3.29 z m 0,-7.2 0.77,0.77 v 5.59 h -0.77 z"
           id="path3273-6" />
        <path
           style="fill:#cccccc;stroke-width:1.07530892"
           class="cls-2"
           d="m 15.29,38.34 h 2.5 v 0.73 H 14.5 Z m 0,7.2 -0.77,-0.77 v -5.59 h 0.77 z m 2.6,0 h -2.5 v -0.73 h 3.29 z m 0,-7.2 0.77,0.78 v 5.59 h -0.77 z"
           id="path3275-6" />
        <path
           style="fill:#cccccc;stroke-width:1.07530892"
           class="cls-2"
           d="m 21.06,38.34 h 2.5 v 0.73 h -3.29 z m 0,7.2 -0.77,-0.77 V 39.18 H 21 Z m 2.6,0 h -2.5 v -0.73 h 3.29 z m 0,-7.2 0.77,0.78 v 5.59 h -0.77 z"
           id="path3277-4" />
        <path
           style="fill:#cccccc;stroke-width:1.07530892"
           class="cls-2"
           d="m 26.83,38.34 h 2.5 v 0.73 H 26 Z m 0,7.2 L 26,44.77 v -5.59 h 0.77 z m 2.6,0 h -2.5 v -0.73 h 3.27 z m 0,-7.2 0.77,0.78 v 5.59 h -0.77 z"
           id="path3279-0" />
        <path
           style="fill:#cccccc;stroke-width:1.07530892"
           class="cls-2"
           d="m 31.81,44.81 h 4 v 0.73 h -4 z m 1,-6.47 h 0.56 v 0.73 H 32 Z m 1.44,6.37 h -0.78 v -6.37 h 0.78 z"
           id="path3281-0" />
        <path
           style="fill:#cccccc;stroke-width:1.07530892"
           class="cls-2"
           d="m 38.37,38.34 h 2.5 v 0.73 h -3.29 z m 0,7.2 -0.77,-0.77 v -5.59 h 0.77 z m 2.6,0 h -2.5 v -0.73 h 3.29 z m 0,-7.2 0.77,0.78 v 5.59 H 41 Z"
           id="path3283-4" />
        <path
           style="fill:#cccccc;stroke-width:1.07530892"
           class="cls-2"
           d="m 43.35,44.81 h 4 v 0.73 h -4 z m 1,-6.47 h 0.56 v 0.73 H 43.5 Z m 1.44,6.37 H 45 v -6.37 h 0.77 z"
           id="path3285-6" />
        <path
           style="fill:#cccccc;stroke-width:1.07530892"
           class="cls-2"
           d="m 49.12,44.81 h 4 v 0.73 h -4 z m 1,-6.47 h 0.56 v 0.73 h -1.4 z m 1.44,6.37 h -0.77 v -6.37 h 0.77 z"
           id="path3287-2" />
        <path
           style="fill:#cccccc;stroke-width:1.07530892"
           class="cls-2"
           d="m 55.68,38.34 h 2.5 v 0.73 h -3.29 z m 0,7.2 -0.77,-0.77 v -5.59 h 0.77 z m 2.6,0 h -2.51 v -0.73 h 3.29 z m 0,-7.2 0.77,0.78 v 5.59 h -0.77 z"
           id="path3289-6" />
        <path
           style="fill:#cccccc;stroke-width:1.07530892"
           class="cls-2"
           d="m 60.66,44.81 h 4 v 0.73 h -4 z m 1,-6.47 h 0.56 v 0.73 h -1.4 z m 1.44,6.37 h -0.77 v -6.37 h 0.77 z"
           id="path3291-7" />
        <path
           style="fill:#cccccc;stroke-width:1.07530892"
           class="cls-2"
           d="m 14.5,53.81 h 4 v 0.73 h -4 z m 1,-6.47 H 16 v 0.73 h -1.35 z m 1.44,6.37 h -0.78 v -6.37 h 0.78 z"
           id="path3293-5" />
        <path
           style="fill:#cccccc;stroke-width:1.07530892"
           class="cls-2"
           d="m 21.06,47.34 h 2.5 v 0.73 h -3.29 z m 0,7.2 -0.77,-0.77 v -5.6 H 21 Z m 2.6,0 h -2.5 v -0.73 h 3.29 z m 0,-7.2 0.77,0.77 v 5.6 h -0.77 z"
           id="path3295-6" />
        <path
           style="fill:#cccccc;stroke-width:1.07530892"
           class="cls-2"
           d="m 26.83,47.34 h 2.5 v 0.73 H 26 Z m 0,7.2 L 26,53.77 v -5.6 h 0.77 z m 2.6,0 h -2.5 v -0.73 h 3.27 z m 0,-7.2 0.77,0.77 v 5.6 h -0.77 z"
           id="path3297-9" />
        <path
           style="fill:#cccccc;stroke-width:1.07530892"
           class="cls-2"
           d="m 32.6,47.34 h 2.5 v 0.73 h -3.29 z m 0,7.2 -0.77,-0.77 v -5.6 h 0.77 z m 2.6,0 H 32.7 V 53.81 H 36 Z m 0,-7.2 0.77,0.77 v 5.6 H 35.2 Z"
           id="path3299-8" />
        <path
           style="fill:#cccccc;stroke-width:1.07530892"
           class="cls-2"
           d="m 37.58,53.81 h 4 v 0.73 h -4 z m 1,-6.47 h 0.56 v 0.73 H 37.73 Z M 40,53.71 H 39.23 V 47.34 H 40 Z"
           id="path3301-7" />
        <path
           style="fill:#cccccc;stroke-width:1.07530892"
           class="cls-2"
           d="m 44.14,47.34 h 2.5 v 0.73 h -3.29 z m 0,7.2 -0.77,-0.77 v -5.6 h 0.77 z m 2.6,0 h -2.5 v -0.73 h 3.3 z m 0,-7.2 0.78,0.77 v 5.6 h -0.78 z"
           id="path3303-2" />
        <path
           style="fill:#cccccc;stroke-width:1.07530892"
           class="cls-2"
           d="m 49.91,47.34 h 2.5 v 0.73 h -3.29 z m 0,7.2 -0.77,-0.77 v -5.6 h 0.77 z m 2.6,0 H 50 v -0.73 h 3.29 z m 0,-7.2 0.78,0.77 v 5.6 h -0.78 z"
           id="path3305-8" />
        <path
           style="fill:#cccccc;stroke-width:1.07530892"
           class="cls-2"
           d="m 54.89,53.81 h 4 v 0.73 h -4 z m 1,-6.47 h 0.56 v 0.73 h -1.4 z m 1.44,6.37 h -0.77 v -6.37 h 0.77 z"
           id="path3307-2" />
        <path
           style="fill:#cccccc;stroke-width:1.07530892"
           class="cls-2"
           d="m 60.66,53.81 h 4 v 0.73 h -4 z m 1,-6.47 h 0.56 v 0.73 h -1.4 z m 1.44,6.37 h -0.77 v -6.37 h 0.77 z"
           id="path3309-9" />
        <path
           style="fill:#cccccc;stroke-width:1.07530892"
           class="cls-2"
           d="m 15.29,56.34 h 2.5 v 0.73 H 14.5 Z m 0,7.2 -0.77,-0.77 v -5.6 h 0.77 z m 2.6,0 h -2.5 v -0.73 h 3.29 z m 0,-7.2 0.77,0.77 v 5.59 h -0.77 z"
           id="path3311-9" />
        <path
           style="fill:#cccccc;stroke-width:1.07530892"
           class="cls-2"
           d="m 20.27,62.81 h 4 v 0.73 h -4 z m 1,-6.47 h 0.56 v 0.73 h -1.41 z m 1.44,6.36 h -0.78 v -6.36 h 0.78 z"
           id="path3313-6" />
        <path
           style="fill:#cccccc;stroke-width:1.07530892"
           class="cls-2"
           d="m 26,62.81 h 4 v 0.73 h -4 z m 1,-6.47 h 0.56 v 0.73 h -1.37 z m 1.44,6.36 h -0.77 v -6.36 h 0.77 z"
           id="path3315-0" />
        <path
           style="fill:#cccccc;stroke-width:1.07530892"
           class="cls-2"
           d="m 31.81,62.81 h 4 v 0.73 h -4 z m 1,-6.47 h 0.56 v 0.73 H 32 Z m 1.44,6.36 h -0.78 v -6.36 h 0.78 z"
           id="path3317-2" />
        <path
           style="fill:#cccccc;stroke-width:1.07530892"
           class="cls-2"
           d="m 38.37,56.34 h 2.5 v 0.73 h -3.29 z m 0,7.2 -0.77,-0.77 v -5.6 h 0.77 z m 2.6,0 h -2.5 v -0.73 h 3.29 z m 0,-7.2 0.77,0.77 V 62.7 H 41 Z"
           id="path3319-7" />
        <path
           style="fill:#cccccc;stroke-width:1.07530892"
           class="cls-2"
           d="m 43.35,62.81 h 4 v 0.73 h -4 z m 1,-6.47 h 0.56 v 0.73 H 43.5 Z m 1.44,6.36 H 45 v -6.36 h 0.77 z"
           id="path3321-6" />
        <path
           style="fill:#cccccc;stroke-width:1.07530892"
           class="cls-2"
           d="m 49.12,62.81 h 4 v 0.73 h -4 z m 1,-6.47 h 0.56 v 0.73 h -1.4 z m 1.44,6.36 h -0.77 v -6.36 h 0.77 z"
           id="path3323-1" />
        <path
           style="fill:#cccccc;stroke-width:1.07530892"
           class="cls-2"
           d="m 54.89,62.81 h 4 v 0.73 h -4 z m 1,-6.47 h 0.56 v 0.73 h -1.4 z m 1.44,6.36 h -0.77 v -6.36 h 0.77 z"
           id="path3325-3" />
        <path
           style="fill:#cccccc;stroke-width:1.07530892"
           class="cls-2"
           d="m 60.66,62.81 h 4 v 0.73 h -4 z m 1,-6.47 h 0.56 v 0.73 h -1.4 z m 1.44,6.36 h -0.77 v -6.36 h 0.77 z"
           id="path3327-2" />
        <path
           style="fill:#666666;stroke-width:1.07530892"
           class="cls-1"
           d="m 39.83,50.1 h -0.57 a 12.6,12.6 0 1 1 13.13,-12 v 0 a 12.59,12.59 0 0 1 -12.56,12 z m 0,-22.13 a 9.53,9.53 0 1 0 9.51,10 v 0 A 9.54,9.54 0 0 0 40.24,28 Z"
           id="path3329-1" />
        <path
           style="fill:#666666;stroke-width:1.07530892"
           class="cls-1"
           d="M 30.33,48.45 A 1.54,1.54 0 0 1 29.25,45.82 L 48.23,27 a 1.54,1.54 0 0 1 2.16,2.19 L 31.41,48 a 1.51,1.51 0 0 1 -1.08,0.45 z"
           id="path3331-5" />
        <path
           style="fill:#666666;stroke-width:1.07530892"
           class="cls-1"
           d="m 49.85,47.88 a 1.55,1.55 0 0 1 -1,-0.39 L 28.77,29.82 a 1.54,1.54 0 1 1 2,-2.31 l 20.1,17.67 a 1.54,1.54 0 0 1 0.13,2.17 1.51,1.51 0 0 1 -1.15,0.53 z"
           id="path3333-9" />
        <ellipse
           style="fill:#666666;stroke-width:1.07530892"
           class="cls-1"
           cx="39.82"
           cy="37.5"
           rx="3.78"
           ry="3.79"
           id="ellipse3335-9" />
      </g>
    </g>
  </g>
</svg>
