<?xml version="1.0" encoding="iso-8859-1"?>
<!-- Generator: Adobe Illustrator 23.0.3, SVG Export Plug-In . SVG Version: 6.00 Build 0)  -->
<svg version="1.1"
	 id="svg111102" xmlns:cc="http://creativecommons.org/ns#" xmlns:dc="http://purl.org/dc/elements/1.1/" xmlns:rdf="http://www.w3.org/1999/02/22-rdf-syntax-ns#" xmlns:svg="http://www.w3.org/2000/svg"
	 xmlns="http://www.w3.org/2000/svg" xmlns:xlink="http://www.w3.org/1999/xlink" x="0px" y="0px" viewBox="0 0 52.1 52.3"
	 style="enable-background:new 0 0 52.1 52.3;" xml:space="preserve">
<style type="text/css">
	.st0{fill:#666666;}
	.st1{fill:#878589;}
</style>
<g id="layer1" transform="translate(-203.99527,-69.302762)">
	<g id="Layer_2-689-4" transform="matrix(0.27058652,0,0,0.27058652,204.00799,69.302762)">
		<g id="Layer_1-2-266-9">
			<path id="path11139-2" class="st0" d="M174.2,58.9c-2.5,0-4.5-2-4.5-4.5V25.7c0-0.8-0.7-1.5-1.5-1.5l0,0H86.6
				c-1.2,0-2.4-0.5-3.2-1.3L69.6,9.1H23.2c-0.8,0-1.5,0.7-1.5,1.5v43.8c0,2.5-2,4.5-4.5,4.5c-2.5,0-4.5-2-4.5-4.5V10.6
				C12.6,4.7,17.3,0,23.2,0h48.2c1.2,0,2.4,0.5,3.2,1.3l13.8,13.8h79.8c5.8,0,10.5,4.8,10.5,10.6v28.7
				C178.7,56.8,176.7,58.9,174.2,58.9z"/>
			<path id="path11141-5" class="st1" d="M159.1,55.9H32.3c-0.8,0-1.5-0.7-1.5-1.5l0,0V36.3c0-0.8,0.7-1.5,1.5-1.5h126.9
				c0.8,0,1.5,0.7,1.5,1.5v18.1C160.6,55.2,160,55.9,159.1,55.9z M33.8,52.9h123.8V37.8H33.8V52.9z"/>
			<path id="path11143-7" class="st0" d="M80.6,140.5c0-1.5,0-3,0.2-4.5H22.3c-0.7,0-1.4-0.5-1.5-1.3L9.2,62.2
				c-0.1-0.8,0.4-1.6,1.2-1.7c0.1,0,0.2,0,0.3,0h170.1c0.8,0,1.5,0.7,1.5,1.5c0,0.1,0,0.2,0,0.3L176.9,95c2.9,2.4,5.5,5,7.9,7.9
				l6.3-39.3c0.9-5.8-3-11.2-8.8-12.1c-0.6-0.1-1.1-0.1-1.7-0.1H10.7C4.8,51.3,0,56,0,61.8c0,0.6,0,1.2,0.1,1.8l11.8,72.5
				c0.8,5.1,5.2,8.9,10.4,8.9h58.5C80.7,143.5,80.6,142,80.6,140.5z"/>
			<path id="path11145-4" class="st0" d="M139.5,87.6c-29.2,0-52.9,23.7-52.9,52.9s23.7,52.9,52.9,52.9s52.9-23.7,52.9-52.9
				C192.3,111.3,168.7,87.6,139.5,87.6z M139.5,185.5c-24.9,0-45-20.2-45-45c0-24.9,20.2-45,45-45c24.9,0,45,20.2,45,45c0,0,0,0,0,0
				C184.5,165.3,164.3,185.4,139.5,185.5z"/>
			<path id="path11147-9" class="st0" d="M164.8,121.9c-1.5-1.6-4-1.6-5.5-0.1c0,0-0.1,0.1-0.1,0.1l-28.9,28.9l-10.4-10.4
				c-1.6-1.6-4.1-1.6-5.7,0c-1.6,1.6-1.6,4.1,0,5.7c0,0,0,0,0,0l15.9,15.9l34.8-34.8C166.2,125.8,166.2,123.4,164.8,121.9z"/>
		</g>
	</g>
</g>
</svg>
