<?xml version="1.0" encoding="UTF-8" standalone="no"?>
<svg
   xmlns:dc="http://purl.org/dc/elements/1.1/"
   xmlns:cc="http://creativecommons.org/ns#"
   xmlns:rdf="http://www.w3.org/1999/02/22-rdf-syntax-ns#"
   xmlns:svg="http://www.w3.org/2000/svg"
   xmlns="http://www.w3.org/2000/svg"
   id="svg117990"
   version="1.1"
   viewBox="0 0 18.470106 18.454"
   height="18.454mm"
   width="18.470106mm">
  <defs
     id="defs117984" />
  <metadata
     id="metadata117987">
    <rdf:RDF>
      <cc:Work
         rdf:about="">
        <dc:format>image/svg+xml</dc:format>
        <dc:type
           rdf:resource="http://purl.org/dc/dcmitype/StillImage" />
        <dc:title></dc:title>
      </cc:Work>
    </rdf:RDF>
  </metadata>
  <g
     transform="translate(-356.6459,-2.0229998)"
     id="layer1">
    <g
       style="stroke-width:0.69920081"
       transform="matrix(0.37840822,0,0,0.37840822,356.6459,2.0220313)"
       id="Layer_2-60-8"
       data-name="Layer 2">
      <g
         style="stroke-width:0.69920081"
         id="Layer_1-2-62-5"
         data-name="Layer 1">
        <path
           style="fill:#58595b;stroke-width:0.69920081"
           class="cls-1"
           d="M 47.55,48.77 H 1.22 A 1.22,1.22 0 0 1 0,47.55 v -6.18 a 1.21,1.21 0 0 1 1.22,-1.21 h 46.33 a 1.22,1.22 0 0 1 1.22,1.21 v 6.18 a 1.22,1.22 0 0 1 -1.22,1.22 z M 2.43,46.34 H 46.34 V 42.59 H 2.43 Z"
           id="path2815-8" />
        <path
           style="fill:#58595b;stroke-width:0.69920081"
           class="cls-1"
           d="M 42.15,38.39 H 34.42 A 0.87,0.87 0 0 1 33.55,37.51 V 17.43 a 0.87,0.87 0 0 1 0.87,-0.87 h 7.73 a 0.87,0.87 0 0 1 0.87,0.87 v 20.08 a 0.87,0.87 0 0 1 -0.87,0.88 z M 35.3,36.64 h 6 V 18.31 h -6 z"
           id="path2817-4" />
        <path
           style="fill:#58595b;stroke-width:0.69920081"
           class="cls-1"
           d="M 14.34,38.39 H 6.62 A 0.87,0.87 0 0 1 5.75,37.51 V 17.43 a 0.87,0.87 0 0 1 0.87,-0.87 h 7.72 a 0.87,0.87 0 0 1 0.88,0.87 v 20.08 a 0.87,0.87 0 0 1 -0.88,0.88 z M 7.5,36.64 h 6 V 18.31 h -6 z"
           id="path2819-3" />
        <path
           style="fill:#58595b;stroke-width:0.69920081"
           class="cls-1"
           d="M 28.24,38.39 H 20.52 A 0.87,0.87 0 0 1 19.65,37.51 V 17.43 a 0.87,0.87 0 0 1 0.87,-0.87 h 7.72 a 0.87,0.87 0 0 1 0.88,0.87 v 20.08 a 0.87,0.87 0 0 1 -0.88,0.88 z M 21.4,36.64 h 6 V 18.31 h -6 z"
           id="path2821-7" />
        <path
           style="fill:#58595b;stroke-width:0.69920081"
           class="cls-1"
           d="M 47.55,14.79 H 1.22 A 1.22,1.22 0 0 1 0,13.57 V 9.51 A 1.22,1.22 0 0 1 0.81,8.36 L 24,0.07 a 1.28,1.28 0 0 1 0.82,0 L 48,8.36 a 1.23,1.23 0 0 1 0.81,1.15 v 4.06 a 1.22,1.22 0 0 1 -1.26,1.22 z M 2.43,12.36 h 43.91 v -2 l -22,-7.85 -21.91,7.85 z"
           id="path2823-1" />
        <path
           style="fill:#58595b;stroke-width:0.69920081"
           class="cls-1"
           d="m 24.38,10.39 a 3,3 0 1 1 3,-3 3,3 0 0 1 -3,3 z m 0,-4.64 A 1.64,1.64 0 1 0 26,7.39 1.65,1.65 0 0 0 24.38,5.75 Z"
           id="path2825-3" />
      </g>
    </g>
  </g>
</svg>
