<?xml version="1.0" encoding="UTF-8" standalone="no"?>
<svg
   xmlns:dc="http://purl.org/dc/elements/1.1/"
   xmlns:cc="http://creativecommons.org/ns#"
   xmlns:rdf="http://www.w3.org/1999/02/22-rdf-syntax-ns#"
   xmlns:svg="http://www.w3.org/2000/svg"
   xmlns="http://www.w3.org/2000/svg"
   id="svg124874"
   version="1.1"
   viewBox="0 0 15.563656 18.454"
   height="18.454mm"
   width="15.563656mm">
  <defs
     id="defs124868" />
  <metadata
     id="metadata124871">
    <rdf:RDF>
      <cc:Work
         rdf:about="">
        <dc:format>image/svg+xml</dc:format>
        <dc:type
           rdf:resource="http://purl.org/dc/dcmitype/StillImage" />
        <dc:title></dc:title>
      </cc:Work>
    </rdf:RDF>
  </metadata>
  <g
     transform="translate(-175.15865,-417.79681)"
     id="layer1">
    <g
       style="stroke-width:0.93204516"
       transform="matrix(0.28387395,0,0,0.28387395,175.15994,417.79681)"
       id="Layer_2-77-9"
       data-name="Layer 2">
      <g
         style="stroke-width:0.93204516"
         id="Layer_1-2-11-9"
         data-name="Layer 1">
        <path
           style="fill:#58595b;stroke-width:0.93204516"
           class="cls-1"
           d="m 45,49.87 c 2.21,-2.7 12.48,-18.3 9.17,-31.17 0,0 0,0 0,-0.06 C 52,7.83 42.14,0 30.7,0 14.48,0 5.78,14 5.61,21.64 a 13.44,13.44 0 0 0 0.16,3 c 0.13,1.08 0.31,2.56 0,3.06 a 33.69,33.69 0 0 1 -2.68,3.42 13.4,13.4 0 0 0 -2.95,4.4 3.4,3.4 0 0 0 0.52,3 3.21,3.21 0 0 0 2.72,1.18 H 3.93 4 A 3.76,3.76 0 0 0 4.17,43.2 2.25,2.25 0 0 0 4,43.9 3.9,3.9 0 0 0 5.33,47.06 v 0 c -0.23,1.48 -0.76,4.93 2,6.24 2.37,1.13 4.93,1 7.18,0.91 a 21.17,21.17 0 0 1 2.86,0 c -0.13,1.44 0,8.48 0,9.28 a 1.52,1.52 0 0 0 3,-0.06 c -0.06,-3 -0.12,-8.06 0,-9 a 3,3 0 0 0 -2.63,-3.29 24.24,24.24 0 0 0 -3.41,0 c -2,0.1 -4.05,0.19 -5.73,-0.61 -0.69,-0.33 -0.39,-2.29 -0.27,-3 A 3.7,3.7 0 0 0 8.39,46.23 2.37,2.37 0 0 0 7.62,45 1.36,1.36 0 0 1 7.09,44.27 1.89,1.89 0 0 0 7.41,42.82 2.79,2.79 0 0 0 6.74,41.46 2.56,2.56 0 0 1 6.74,41.1 L 6.87,40.91 A 3.17,3.17 0 0 0 7.48,39 2.22,2.22 0 0 0 6.76,37.33 4,4 0 0 0 3.76,36.68 H 3.33 v 0 c -0.12,0 -0.18,0 -0.18,0 a 0.68,0.68 0 0 1 0,-0.32 13.08,13.08 0 0 1 2.32,-3.23 36.92,36.92 0 0 0 2.83,-3.75 C 9.24,28 9,26 8.79,24.27 A 10.5,10.5 0 0 1 8.65,21.93 c 0,-0.06 0,-0.11 0,-0.17 0,-2.93 1.83,-7.71 5.75,-11.78 A 22.15,22.15 0 0 1 30.7,3.05 c 10,0 18.66,6.86 20.49,16.32 a 0.9,0.9 0 0 0 0.06,0.22 C 54.18,31.4 44,46.44 42.57,48 c -0.58,0.58 -1.46,1.45 1.58,15.74 a 1.52,1.52 0 0 0 1.48,1.26 1.66,1.66 0 0 0 0.32,0 1.52,1.52 0 0 0 1.17,-1.81 C 46,57.8 44.9,51.42 45,49.87 Z"
           id="path5342-7" />
        <path
           style="fill:#58595b;stroke-width:0.93204516"
           class="cls-1"
           d="m 44.22,34.92 a 2,2 0 0 0 0.32,-1.64 2,2 0 0 0 -1,-1.32 1.73,1.73 0 0 1 -0.77,-2.14 1.71,1.71 0 0 1 1.59,-1.08 1.54,1.54 0 0 1 0.43,0.06 2.22,2.22 0 0 0 0.51,0.06 2,2 0 0 0 1.13,-0.35 2,2 0 0 0 0.88,-1.42 17,17 0 0 0 -0.09,-5 2,2 0 0 0 -2,-1.7 2.32,2.32 0 0 0 -0.58,0.08 1.55,1.55 0 0 1 -0.48,0.07 1.71,1.71 0 0 1 -0.87,-3.18 2,2 0 0 0 0.58,-3 17,17 0 0 0 -3.63,-3.5 2,2 0 0 0 -1.18,-0.38 1.74,1.74 0 0 0 -0.45,0.06 2,2 0 0 0 -1.33,1 1.72,1.72 0 0 1 -1.51,0.89 1.67,1.67 0 0 1 -0.62,-0.12 1.71,1.71 0 0 1 -1,-2 2.06,2.06 0 0 0 -0.28,-1.64 2,2 0 0 0 -1.42,-0.88 16.74,16.74 0 0 0 -2.24,-0.15 16.46,16.46 0 0 0 -2.8,0.24 2,2 0 0 0 -1.61,2.58 1.72,1.72 0 0 1 -1,2.05 1.63,1.63 0 0 1 -0.68,0.14 1.72,1.72 0 0 1 -1.48,-0.84 2,2 0 0 0 -1.36,-1 1.72,1.72 0 0 0 -0.39,0 2,2 0 0 0 -1.24,0.42 17.17,17.17 0 0 0 -3.49,3.63 2,2 0 0 0 -0.33,1.63 2,2 0 0 0 1,1.33 A 1.71,1.71 0 0 1 16,21 a 1.47,1.47 0 0 1 -0.4,0 2.22,2.22 0 0 0 -0.51,-0.06 2,2 0 0 0 -1.14,0.34 2.08,2.08 0 0 0 -0.88,1.42 17,17 0 0 0 0.09,5 2,2 0 0 0 0.93,1.39 2,2 0 0 0 1.07,0.31 1.9,1.9 0 0 0 0.58,-0.09 2,2 0 0 1 0.48,-0.07 1.71,1.71 0 0 1 0.87,3.19 2,2 0 0 0 -1,1.36 2.07,2.07 0 0 0 0.38,1.63 17.17,17.17 0 0 0 3.63,3.49 2,2 0 0 0 1.18,0.38 2.3,2.3 0 0 0 0.45,-0.05 2,2 0 0 0 1.33,-1 1.72,1.72 0 0 1 1.51,-0.89 1.88,1.88 0 0 1 0.62,0.11 1.71,1.71 0 0 1 1,2 A 2,2 0 0 0 28,42 18.42,18.42 0 0 0 30.23,42.14 17.44,17.44 0 0 0 33,41.9 a 2,2 0 0 0 1.62,-2.58 1.71,1.71 0 0 1 1,-2.06 1.8,1.8 0 0 1 0.68,-0.14 1.72,1.72 0 0 1 1.48,0.84 2,2 0 0 0 1.36,1 2.58,2.58 0 0 0 0.39,0 2,2 0 0 0 1.24,-0.43 17.41,17.41 0 0 0 3.45,-3.61 z m -4.74,2 a 3.74,3.74 0 0 0 -3.23,-1.85 3.79,3.79 0 0 0 -1.49,0.31 3.75,3.75 0 0 0 -2.09,4.5 15.82,15.82 0 0 1 -2.47,0.2 14.38,14.38 0 0 1 -2,-0.13 3.74,3.74 0 0 0 -6.91,-2.72 15.06,15.06 0 0 1 -3.2,-3.08 3.74,3.74 0 0 0 -1.9,-7 3.54,3.54 0 0 0 -1.06,0.16 15.39,15.39 0 0 1 -0.07,-4.44 3.78,3.78 0 0 0 4.41,-2.26 3.73,3.73 0 0 0 -1.66,-4.61 15.06,15.06 0 0 1 3.08,-3.2 3.74,3.74 0 0 0 6.81,-3 14.8,14.8 0 0 1 2.47,-0.21 16,16 0 0 1 2,0.13 3.76,3.76 0 0 0 2.25,4.42 3.74,3.74 0 0 0 4.66,-1.7 15.1,15.1 0 0 1 3.2,3.09 3.74,3.74 0 0 0 1.9,7 3.88,3.88 0 0 0 1.06,-0.15 15,15 0 0 1 0.08,4.44 3.79,3.79 0 0 0 -0.94,-0.12 3.74,3.74 0 0 0 -1.78,7 15.1,15.1 0 0 1 -3.12,3.24 z"
           id="path5344-8" />
        <path
           style="fill:#58595b;stroke-width:0.93204516"
           class="cls-1"
           d="m 30.19,18.27 a 6.6,6.6 0 1 0 6.6,6.6 6.61,6.61 0 0 0 -6.6,-6.6 z m 0,11.17 a 4.57,4.57 0 1 1 4.57,-4.57 4.58,4.58 0 0 1 -4.57,4.57 z"
           id="path5346-2" />
        <path
           style="fill:#58595b;stroke-width:0.93204516"
           class="cls-1"
           d="m 30.19,15.23 a 9.65,9.65 0 1 0 9.64,9.64 9.65,9.65 0 0 0 -9.64,-9.64 z m 0,18.27 a 8.63,8.63 0 1 1 8.63,-8.63 8.64,8.64 0 0 1 -8.63,8.63 z"
           id="path5348-5" />
      </g>
    </g>
  </g>
</svg>
