<?xml version="1.0" encoding="UTF-8" standalone="no"?>
<svg
   xmlns:dc="http://purl.org/dc/elements/1.1/"
   xmlns:cc="http://creativecommons.org/ns#"
   xmlns:rdf="http://www.w3.org/1999/02/22-rdf-syntax-ns#"
   xmlns:svg="http://www.w3.org/2000/svg"
   xmlns="http://www.w3.org/2000/svg"
   id="svg180558"
   version="1.1"
   viewBox="0 0 18.144938 18.454"
   height="18.454mm"
   width="18.144938mm">
  <defs
     id="defs180552" />
  <metadata
     id="metadata180555">
    <rdf:RDF>
      <cc:Work
         rdf:about="">
        <dc:format>image/svg+xml</dc:format>
        <dc:type
           rdf:resource="http://purl.org/dc/dcmitype/StillImage" />
        <dc:title></dc:title>
      </cc:Work>
    </rdf:RDF>
  </metadata>
  <g
     transform="translate(558.64985,-408.72538)"
     id="layer1">
    <g
       style="stroke-width:0.78927672"
       transform="matrix(0.33522251,0,0,0.33522251,-558.64715,408.72538)"
       id="Layer_2-97-8"
       data-name="Layer 2">
      <g
         style="stroke-width:0.78927672"
         id="Layer_1-2-36-0"
         data-name="Layer 1">
        <path
           style="fill:#58595b;stroke-width:0.78927672"
           class="cls-1"
           d="M 54.12,53.62 49.45,38.53 A 5.36,5.36 0 0 0 45.91,34.85 L 35.67,31.61 a 1.1,1.1 0 0 0 -0.9,0.12 l -7.69,5 -7.68,-5 A 1.1,1.1 0 0 0 18.5,31.61 L 8.26,34.85 A 5.34,5.34 0 0 0 4.73,38.5 L 0.05,53.62 a 1.08,1.08 0 0 0 0.16,1 1.07,1.07 0 0 0 0.86,0.43 h 52 a 1.06,1.06 0 0 0 1,-1.38 z m -18.07,-15.79 2.38,3.09 -10.07,10.9 7.4,-17.94 3.56,1.12 -3.18,2.22 a 0.45,0.45 0 0 0 -0.18,0.28 0.49,0.49 0 0 0 0.09,0.33 z M 17.9,37.22 14.77,35 18.41,33.85 25.91,52.03 15.61,40.92 18,37.83 A 0.43,0.43 0 0 0 18.08,37.5 0.41,0.41 0 0 0 17.9,37.22 Z m 11,8.82 -0.89,-4 1.22,-1.48 -1.46,-1.76 5.62,-3.64 z m -2.72,-4 -0.89,4 -4.5,-10.86 5.62,3.64 -1.41,1.76 z m -19.39,-3 a 3.18,3.18 0 0 1 2.13,-2.21 l 4.83,-1.53 3.31,2.3 -2.33,3 a 0.42,0.42 0 0 0 0,0.55 L 25.5,52.87 H 8.74 v -6.68 a 0.43,0.43 0 0 0 -0.85,0 v 6.68 H 2.51 Z m 39.5,13.77 v -6.62 a 0.43,0.43 0 0 0 -0.85,0 v 6.68 H 28.55 L 39.3,41.24 a 0.42,0.42 0 0 0 0,-0.55 l -2.32,-3 3.34,-2.33 4.92,1.56 a 3.2,3.2 0 0 1 2.14,2.24 l 4.26,13.74 z"
           id="path2943-4" />
        <path
           style="fill:#58595b;stroke-width:0.78927672"
           class="cls-1"
           d="m 15.86,22.61 a 4.5,4.5 0 0 0 0.79,0.73 16.85,16.85 0 0 0 3.78,6.38 8.59,8.59 0 0 0 6.62,3.12 h 0.07 a 8.59,8.59 0 0 0 6.62,-3.12 16.78,16.78 0 0 0 3.78,-6.38 4.21,4.21 0 0 0 0.79,-0.74 7.37,7.37 0 0 0 1.34,-2.6 9.37,9.37 0 0 0 0.44,-2.74 c 0,-0.21 0,-0.42 0,-0.64 v 0 0 a 4.23,4.23 0 0 0 -1,-2.33 3.07,3.07 0 0 0 -0.49,-0.46 c 0,-0.07 0,-0.15 0,-0.22 C 39.32,9.9 38.42,3 30.77,0.57 A 11.92,11.92 0 0 0 27.2,0 10.48,10.48 0 0 0 19.68,3.2 4.63,4.63 0 0 0 16.32,5.09 c -0.88,1.16 -2.12,3.83 -0.9,8.86 a 2.89,2.89 0 0 0 -0.35,0.35 4.2,4.2 0 0 0 -1,2.32 v 0 c 0,0.22 0,0.43 0,0.67 a 9.5,9.5 0 0 0 0.78,3.64 6.91,6.91 0 0 0 1.01,1.68 z M 18,6.38 a 2.41,2.41 0 0 1 2.06,-1 1.1,1.1 0 0 0 0.94,-0.46 8.25,8.25 0 0 1 6.2,-2.79 10,10 0 0 1 2.93,0.47 9.13,9.13 0 0 1 6.42,10.64 q -0.07,0.47 -0.18,0.87 a 1,1 0 0 0 0,0.29 C 34.24,14.7 29.81,12.48 27.1,8.32 A 3.45,3.45 0 0 0 24.37,6.52 C 22.08,6.4 20.05,8.9 19.94,9 a 19.49,19.49 0 0 0 -2.32,4.88 C 16.41,9.43 17.35,7.27 18,6.38 Z m -1.79,10.5 v 0 a 2.2,2.2 0 0 1 0.34,-1 c 0,0.22 0.07,0.42 0.1,0.59 0.15,0.92 0.19,1.17 0.59,1.17 v 0 c 0.38,0 0.44,-0.33 0.53,-0.82 A 18.69,18.69 0 0 1 20.6,9.59 c 0,0 1.87,-2.27 3.68,-2.18 a 2.69,2.69 0 0 1 2.06,1.42 c 2.87,4.42 7.73,7 10.31,6.42 l -0.29,1.4 a 0.42361539,0.42361539 0 0 0 0.83,0.17 l 0.24,-1.11 v 0 a 2.11,2.11 0 0 1 0.45,1.16 v 0 c 0,0.13 0,0.27 0,0.41 a 7.11,7.11 0 0 1 -0.35,2.11 5.4,5.4 0 0 1 -0.93,1.83 2,2 0 0 1 -0.56,0.47 1,1 0 0 0 -0.54,0.68 14.45,14.45 0 0 1 -3.41,5.89 6.38,6.38 0 0 1 -5.05,2.44 H 26.97 A 6.38,6.38 0 0 1 22,28.27 14.45,14.45 0 0 1 18.59,22.38 1.06,1.06 0 0 0 18.05,21.7 2,2 0 0 1 17.49,21.23 4.33,4.33 0 0 1 16.82,20.1 7.33,7.33 0 0 1 16.21,17.3 2.82,2.82 0 0 1 16.23,16.88 Z"
           id="path2945-0" />
        <path
           style="fill:#58595b;stroke-width:0.78927672"
           class="cls-1"
           d="m 23.48,26.15 a 7.84,7.84 0 0 0 3.57,0.9 8.24,8.24 0 0 0 3.63,-0.9 0.42264051,0.42264051 0 1 0 -0.37,-0.76 6.86,6.86 0 0 1 -6.44,0 0.43,0.43 0 1 0 -0.39,0.76 z"
           id="path2947-9" />
        <ellipse
           style="fill:#58595b;stroke-width:0.78927672"
           class="cls-1"
           cx="21.969999"
           cy="17.700001"
           rx="1.28"
           ry="1.71"
           id="ellipse2949-1" />
        <ellipse
           style="fill:#58595b;stroke-width:0.78927672"
           class="cls-1"
           cx="32.200001"
           cy="17.700001"
           rx="1.28"
           ry="1.71"
           id="ellipse2951-9" />
        <path
           style="fill:#58595b;stroke-width:0.78927672"
           class="cls-1"
           d="m 26.16,23.18 h 0.23 A 1,1 0 0 0 27,23 a 0.42,0.42 0 0 0 0.1,-0.59 0.41,0.41 0 0 0 -0.59,-0.11 0.17,0.17 0 0 1 -0.12,0 0.44,0.44 0 0 1 -0.27,-0.19 1.46,1.46 0 0 1 -0.09,-0.86 6.79,6.79 0 0 1 0.62,-2.13 0.41,0.41 0 0 0 -0.2,-0.57 0.42,0.42 0 0 0 -0.57,0.19 7.49,7.49 0 0 0 -0.69,2.41 2.21,2.21 0 0 0 0.2,1.4 1.3,1.3 0 0 0 0.77,0.63 z"
           id="path2953-6" />
      </g>
    </g>
  </g>
</svg>
