<?xml version="1.0" encoding="iso-8859-1"?>
<!-- Generator: Adobe Illustrator 23.0.3, SVG Export Plug-In . SVG Version: 6.00 Build 0)  -->
<svg version="1.1"
	 id="svg187448" xmlns:cc="http://creativecommons.org/ns#" xmlns:dc="http://purl.org/dc/elements/1.1/" xmlns:rdf="http://www.w3.org/1999/02/22-rdf-syntax-ns#" xmlns:svg="http://www.w3.org/2000/svg"
	 xmlns="http://www.w3.org/2000/svg" xmlns:xlink="http://www.w3.org/1999/xlink" x="0px" y="0px" viewBox="0 0 45.3 52.3"
	 style="enable-background:new 0 0 45.3 52.3;" xml:space="preserve">
<style type="text/css">
	.st0{fill:#58595B;}
</style>
<g id="layer1" transform="translate(213.61594,-410.99324)">
	<g id="Layer_2-81" transform="matrix(0.24947727,0,0,0.24947727,-213.6113,410.99324)">
		<g id="Layer_1-2-2">
			<path id="path10116" class="st0" d="M171.4,159.9l-13.9-45c-1.4-5.2-5.4-9.4-10.5-11l-30.5-9.7c-1-0.3-2-0.2-2.8,0.4l-22.8,14.9
				L67.8,94.6C67,94.1,66,94,65,94.3l-30.3,9.7c-5.1,1.6-9.1,5.7-10.5,10.9l-14,45.1c-0.5,1.7,0.4,3.5,2.1,4c0.3,0.1,0.6,0.1,1,0.1
				h155.2c1,0,2-0.5,2.6-1.3C171.6,161.9,171.8,160.9,171.4,159.9z M117.6,112.8l7.2,9.2l-30.2,32.5l22.1-53.5l10.6,3.3l-9.5,6.6
				c-0.3,0.2-0.5,0.5-0.5,0.9C117.2,112.2,117.3,112.6,117.6,112.8L117.6,112.8z M63.4,111l-9.4-6.5l10.9-3.4l22.4,54.2l-30.6-33.2
				l7.1-9.2c0.4-0.5,0.3-1.3-0.2-1.8c0,0-0.1,0-0.1-0.1L63.4,111z M96.2,137.3l-2.7-11.9l3.6-4.4l-4.3-5.3l16.7-10.9L96.2,137.3z
				 M88.1,125.5l-2.7,11.9L72,104.9l16.8,10.9l-4.3,5.3L88.1,125.5z M30.3,116.6c0.8-3.1,3.2-5.6,6.3-6.6l14.5-4.6l9.9,6.9l-7,9
				c-0.4,0.5-0.4,1.2,0,1.6l32.2,34.7H36.1v-19.8c0-0.7-0.6-1.3-1.3-1.3c0,0,0,0,0,0c-0.7,0-1.3,0.6-1.3,1.3l0,0v19.8h-16
				L30.3,116.6z M148.1,157.7v-19.8c0-0.7-0.6-1.3-1.3-1.3c-0.7,0-1.3,0.6-1.3,1.3v19.8H95.2l32.1-34.7c0.4-0.5,0.4-1.2,0-1.6
				l-6.9-9l10.1-7l14.7,4.6c3.1,1,5.5,3.5,6.4,6.7l12.7,41H148.1z"/>
			<path id="path10118" class="st0" d="M57.3,67.4c0.7,0.8,1.5,1.5,2.4,2.2c2.3,7.1,6.2,13.6,11.3,19c4.9,5.9,12.2,9.4,19.8,9.3h0.3
				c7.7,0,15-3.4,19.8-9.3c5.2-5.4,9-11.9,11.3-19c0.9-0.6,1.7-1.4,2.4-2.2c1.8-2.3,3.1-4.9,4-7.6c0.9-2.6,1.3-5.4,1.3-8.2
				c0-0.6,0-1.2,0-1.9l0,0l0,0c-0.2-2.6-1.2-5-2.8-6.9c-0.4-0.5-0.9-1-1.5-1.4c0-0.2,0-0.4,0-0.7c1.7-11.2-0.9-31.9-23.8-39
				C98.4,0.6,94.8,0,91.1,0c-8.5,0-16.5,3.4-22.4,9.5c-4,0.3-7.7,2.4-10,5.7c-2.6,3.5-6.3,11.3-2.7,26.4c-0.4,0.3-0.7,0.7-1,1
				c-1.6,2-2.6,4.4-2.8,6.9l0,0c0,0.7,0,1.3,0,2c0,3.7,0.8,7.4,2.2,10.8C55.1,64.2,56.1,65.9,57.3,67.4z M63.8,19
				c1.4-2,3.7-3.2,6.1-3.1c1.1,0.1,2.1-0.4,2.8-1.2c4.7-5.3,11.4-8.4,18.5-8.3c3,0,5.9,0.5,8.8,1.4c18.6,5.8,20.8,22.7,19.2,31.7
				c-0.2,0.9-0.4,1.8-0.5,2.6c0,0.3,0,0.6,0,0.9C112.3,43.9,99,37.3,91,24.8c-1.6-3.1-4.7-5.1-8.1-5.4C76.1,19.1,70,26.6,69.7,27
				c-3,4.5-5.3,9.4-6.9,14.5C59,28.1,61.8,21.7,63.8,19z M58.4,50.4L58.4,50.4c0.1-1.1,0.5-2.2,1.1-3.1c0,0.7,0.2,1.2,0.3,1.8
				c0.4,2.8,0.6,3.5,1.8,3.5l0,0c1.2,0,1.3-1,1.6-2.5c1.3-7.7,4.2-15,8.5-21.6c0,0,5.7-6.7,11-6.5c2.6,0.3,4.9,1.9,6.1,4.3
				c8.5,13.2,23.1,20.7,30.8,19.1l-0.9,4.2c-0.1,0.7,0.3,1.4,1,1.5c0.7,0.1,1.4-0.3,1.5-1l0.7-3.3l0,0c0.8,1,1.2,2.2,1.3,3.5l0,0
				l0,0c0,0.4,0,0.8,0,1.2c0,2.1-0.4,4.2-1,6.3c-0.6,2-1.6,3.8-2.8,5.5c-0.5,0.6-1,1-1.7,1.4c-0.8,0.4-1.4,1.2-1.6,2
				c-1.9,6.6-5.4,12.6-10.1,17.6c-3.6,4.6-9.2,7.3-15.1,7.3h-0.1c-5.9,0-11.4-2.6-15.1-7.3c-4.7-5-8.2-11-10.1-17.6
				c-0.2-0.9-0.8-1.6-1.6-2c-0.6-0.4-1.2-0.8-1.7-1.4c-0.8-1-1.5-2.2-2-3.4c-1.1-2.6-1.8-5.5-1.8-8.4C58.4,51,58.4,50.7,58.4,50.4z"
				/>
			<path id="path10120" class="st0" d="M80.1,78c3.3,1.7,6.9,2.7,10.7,2.7c3.8-0.1,7.5-1,10.8-2.7c0.6-0.3,1-1,0.7-1.7
				c-0.3-0.6-1-1-1.7-0.7c0,0-0.1,0-0.1,0.1c-6,3.2-13.2,3.2-19.2,0c-0.6-0.3-1.4-0.1-1.7,0.5c0,0,0,0,0,0
				C79.2,76.9,79.4,77.7,80.1,78C80.1,78,80.1,78,80.1,78z"/>
			<ellipse id="ellipse10122" class="st0" cx="75.5" cy="52.8" rx="3.8" ry="5.1"/>
			<ellipse id="ellipse10124" class="st0" cx="106.1" cy="52.8" rx="3.8" ry="5.1"/>
			<path id="path10126" class="st0" d="M88,69.1h0.7c0.6,0,1.2-0.2,1.7-0.5c0.6-0.4,0.7-1.2,0.3-1.8c-0.4-0.6-1.1-0.7-1.7-0.4
				c0,0,0,0-0.1,0.1c-0.1,0-0.2,0-0.4,0c-0.3-0.1-0.6-0.3-0.8-0.6c-0.4-0.8-0.4-1.7-0.3-2.6c0.3-2.2,0.9-4.4,1.8-6.3
				c0.3-0.6,0.1-1.4-0.5-1.7c-0.6-0.3-1.4-0.1-1.7,0.5c0,0,0,0.1-0.1,0.1c-1.1,2.3-1.8,4.7-2,7.2c-0.3,1.4,0,2.9,0.6,4.2
				C86.2,68.2,87.1,68.9,88,69.1z"/>
			<path id="path10128" class="st0" d="M21.2,209.5c-0.2,0-0.3,0-0.5,0l-7.2-3.9l-7.2,3.7c-0.3,0.2-0.8,0.2-1.1,0
				c-0.3-0.2-0.5-0.6-0.4-1l1.4-7.9l-5.8-5.7c-0.3-0.3-0.4-0.7-0.3-1.1c0.1-0.4,0.4-0.7,0.9-0.7l8-1.2l3.6-7.2
				c0.3-0.5,1-0.7,1.5-0.4c0.2,0.1,0.3,0.2,0.4,0.4l3.6,7.2l8,1.2c0.4,0.1,0.7,0.3,0.9,0.7c0.1,0.4,0,0.8-0.3,1.1l-5.8,5.7l1.4,7.8
				c0,0.1,0,0.2,0,0.3C22.1,209.1,21.7,209.6,21.2,209.5L21.2,209.5z M13.5,203.4c0.2,0,0.3,0,0.5,0l5.7,3l-1.1-6.3
				c-0.1-0.3,0.1-0.7,0.3-0.9l4.6-4.5l-6.4-0.9c-0.3-0.1-0.6-0.3-0.8-0.6l-2.8-5.7l-2.8,5.7c-0.2,0.3-0.4,0.5-0.8,0.6l-6.4,0.9
				l4.6,4.5c0.3,0.2,0.4,0.6,0.3,0.9l-1.1,6.3l5.7-3C13.1,203.3,13.3,203.3,13.5,203.4z"/>
			<path id="path10130" class="st0" d="M59.8,209.5c-0.2,0-0.3,0-0.5,0l-7.2-3.7l-7.2,3.7c-0.3,0.2-0.8,0.2-1.1,0
				c-0.3-0.2-0.5-0.6-0.4-1l1.4-7.9l-5.8-5.7c-0.3-0.3-0.4-0.7-0.3-1.1c0.1-0.4,0.4-0.7,0.9-0.7l8-1.2l3.6-7.2
				c0.2-0.4,0.6-0.6,1-0.6c0.4,0,0.8,0.2,0.9,0.6l3.6,7l8,1.2c0.6,0.1,1,0.6,0.9,1.2c0,0.2-0.2,0.5-0.3,0.6l-5.7,5.7l1.3,7.8
				c0,0.1,0,0.2,0,0.3C61,209.1,60.5,209.6,59.8,209.5L59.8,209.5z M52.2,203.4c0.2,0,0.3,0,0.5,0l5.7,3l-1.1-6.3
				c-0.1-0.3,0-0.7,0.3-0.9l4.9-4.4l-6.4-0.9c-0.4-0.1-0.7-0.3-0.8-0.6l-2.8-5.7l-2.8,5.7c-0.2,0.3-0.4,0.5-0.8,0.6l-6.4,0.9
				l4.6,4.5c0.3,0.2,0.4,0.6,0.3,0.9l-1.1,6.3l5.7-3C51.9,203.4,52,203.4,52.2,203.4z"/>
			<path id="path10132" class="st0" d="M98.5,209.5c-0.2,0-0.3,0-0.5,0l-7.3-3.9l-7.2,3.7c-0.3,0.2-0.8,0.2-1.1,0
				c-0.3-0.2-0.5-0.6-0.4-1l1.4-7.9l-5.7-5.7c-0.3-0.3-0.4-0.7-0.3-1.1c0.1-0.4,0.5-0.7,0.9-0.7l8-1.2l3.6-7.2
				c0.2-0.3,0.5-0.6,0.9-0.6c0.4,0,0.8,0.2,1,0.6l3.6,7.2l8,1.2c0.4,0.1,0.7,0.3,0.9,0.7c0.1,0.4,0,0.8-0.3,1.1l-5.7,5.7l1.3,7.8
				c0,0.1,0,0.2,0,0.3c0,0.6-0.5,1.1-1.1,1.1L98.5,209.5z M90.7,203.4c0.2,0,0.3,0,0.5,0l5.7,3l-1.1-6.3c-0.1-0.3,0.1-0.7,0.3-0.9
				l4.6-4.5l-6.4-0.9c-0.3-0.1-0.6-0.3-0.8-0.6l-2.8-5.7l-2.8,5.7c-0.2,0.3-0.5,0.5-0.8,0.6l-6.4,0.9l4.6,4.5
				c0.3,0.2,0.4,0.6,0.3,0.9l-1.1,6.3l5.7-3C90.4,203.3,90.6,203.3,90.7,203.4z"/>
			<path id="path10134" class="st0" d="M137.1,209.5c-0.2,0-0.3,0-0.5,0l-7.2-3.7l-7.2,3.7c-0.5,0.3-1.1,0.1-1.4-0.4
				c-0.1-0.2-0.2-0.4-0.1-0.7l1.4-7.9l-5.7-5.7c-0.4-0.4-0.5-1.1-0.1-1.5c0.2-0.2,0.4-0.3,0.6-0.3l8-1.2l3.6-7.2
				c0.2-0.3,0.5-0.6,0.9-0.6c0.4,0,0.8,0.2,1,0.6l3.6,7.2l8,1.2c0.4,0.1,0.7,0.3,0.9,0.7c0.1,0.4,0,0.8-0.3,1.1l-5.7,5.7l1.4,7.8
				c0,0.1,0,0.2,0,0.3c0,0.6-0.4,1.1-1,1.1c0,0,0,0,0,0L137.1,209.5z M129.5,203.4c0.2,0,0.3,0,0.5,0l5.7,3l-1.1-6.3
				c-0.1-0.3,0.1-0.7,0.3-0.9l4.6-4.5l-6.2-0.8c-0.3-0.1-0.6-0.3-0.8-0.6l-2.8-5.7l-2.8,5.7c-0.2,0.3-0.5,0.5-0.8,0.6l-6.4,0.9
				l4.6,4.5c0.3,0.2,0.4,0.6,0.3,0.9l-1.1,6.3l5.7-3C129.2,203.4,129.3,203.4,129.5,203.4z"/>
			<path id="path10136" class="st0" d="M175.8,209.5c-0.2,0-0.3,0-0.5,0l-7.2-3.9l-7.2,3.7c-0.3,0.2-0.8,0.2-1.1,0
				c-0.3-0.2-0.5-0.6-0.4-1l1.4-7.9l-5.8-5.7c-0.3-0.3-0.4-0.7-0.3-1.1c0.1-0.4,0.4-0.7,0.9-0.7l8-1.2l3.7-7.2
				c0.2-0.3,0.6-0.6,1-0.6c0.4,0,0.8,0.2,0.9,0.6l3.6,7.2l8,1.2c0.6,0.1,1,0.6,0.9,1.2c0,0.2-0.2,0.5-0.3,0.6l-5.7,5.7l1.4,7.8
				c0,0.1,0,0.2,0,0.3c0,0.6-0.5,1.1-1,1.1L175.8,209.5z M168.1,203.4c0.2,0,0.3,0,0.5,0l5.7,3l-1.1-6.3c-0.1-0.3,0.1-0.7,0.3-0.9
				l4.6-4.5l-6.4-0.9c-0.3-0.1-0.6-0.3-0.8-0.6l-2.8-5.7l-2.8,5.7c-0.2,0.3-0.4,0.5-0.8,0.6l-6.4,0.9l4.6,4.5
				c0.3,0.2,0.4,0.6,0.3,0.9l-1.1,6.3l5.7-3C167.7,203.3,167.9,203.3,168.1,203.4z"/>
		</g>
	</g>
</g>
</svg>
