<?xml version="1.0" encoding="UTF-8" standalone="no"?>
<svg
   xmlns:dc="http://purl.org/dc/elements/1.1/"
   xmlns:cc="http://creativecommons.org/ns#"
   xmlns:rdf="http://www.w3.org/1999/02/22-rdf-syntax-ns#"
   xmlns:svg="http://www.w3.org/2000/svg"
   xmlns="http://www.w3.org/2000/svg"
   id="svg187448"
   version="1.1"
   viewBox="0 0 15.993789 18.454"
   height="18.454mm"
   width="15.993789mm">
  <defs
     id="defs187442" />
  <metadata
     id="metadata187445">
    <rdf:RDF>
      <cc:Work
         rdf:about="">
        <dc:format>image/svg+xml</dc:format>
        <dc:type
           rdf:resource="http://purl.org/dc/dcmitype/StillImage" />
        <dc:title></dc:title>
      </cc:Work>
    </rdf:RDF>
  </metadata>
  <g
     transform="translate(213.61594,-410.99324)"
     id="layer1">
    <g
       style="stroke-width:1.06055093"
       transform="matrix(0.24947727,0,0,0.24947727,-213.6113,410.99324)"
       id="Layer_2-81"
       data-name="Layer 2">
      <g
         style="stroke-width:1.06055093"
         id="Layer_1-2-2"
         data-name="Layer 1">
        <path
           style="fill:#58595b;stroke-width:1.06055093"
           class="cls-1"
           d="M 60.47,56.42 55.55,40.55 A 5.62,5.62 0 0 0 51.83,36.67 L 41.06,33.26 a 1.14,1.14 0 0 0 -1,0.13 L 32,38.64 23.92,33.39 a 1.14,1.14 0 0 0 -1,-0.13 l -10.7,3.41 A 5.61,5.61 0 0 0 8.51,40.51 L 3.57,56.42 a 1.12,1.12 0 0 0 1.08,1.45 H 59.4 a 1.16,1.16 0 0 0 0.91,-0.45 1.12,1.12 0 0 0 0.16,-1 z m -19,-16.62 2.53,3.26 -10.64,11.46 7.79,-18.87 3.75,1.18 -3.34,2.33 a 0.46,0.46 0 0 0 -0.19,0.3 0.42,0.42 0 0 0 0.09,0.34 z m -19.1,-0.64 -3.3,-2.3 3.84,-1.21 L 30.8,54.78 20,43.06 22.51,39.8 a 0.44,0.44 0 0 0 -0.1,-0.64 z M 33.94,48.45 33,44.26 34.28,42.71 32.75,40.85 38.65,37 Z M 31.07,44.26 30.13,48.45 25.4,37 l 5.91,3.83 -1.53,1.86 z M 10.67,41.15 A 3.38,3.38 0 0 1 12.9,38.81 L 18,37.2 21.48,39.63 19,42.81 a 0.45,0.45 0 0 0 0,0.58 L 30.35,55.63 H 12.73 v -7 a 0.45,0.45 0 0 0 -0.45,-0.45 0.45,0.45 0 0 0 -0.45,0.45 v 7 H 6.17 Z m 41.55,14.48 v -7 a 0.45,0.45 0 1 0 -0.9,0 v 7 H 33.56 L 44.88,43.39 a 0.44,0.44 0 0 0 0,-0.58 l -2.45,-3.18 3.57,-2.46 5.18,1.64 a 3.42,3.42 0 0 1 2.25,2.37 l 4.48,14.45 z"
           id="path10116" />
        <path
           style="fill:#58595b;stroke-width:1.06055093"
           class="cls-1"
           d="m 20.21,23.79 a 5,5 0 0 0 0.83,0.77 17.72,17.72 0 0 0 4,6.71 9,9 0 0 0 7,3.29 h 0.09 a 9,9 0 0 0 7,-3.29 17.63,17.63 0 0 0 4,-6.71 4.64,4.64 0 0 0 0.83,-0.78 7.93,7.93 0 0 0 1.4,-2.69 9.74,9.74 0 0 0 0.47,-2.89 c 0,-0.22 0,-0.43 0,-0.66 v 0 0 a 4.38,4.38 0 0 0 -1,-2.45 3.46,3.46 0 0 0 -0.52,-0.49 1.57,1.57 0 0 0 0,-0.23 C 44.9,10.42 44,3.11 35.9,0.6 A 12.5,12.5 0 0 0 32.14,0 a 11,11 0 0 0 -7.91,3.36 4.86,4.86 0 0 0 -3.53,2 c -0.93,1.22 -2.24,4 -0.95,9.32 a 3.23,3.23 0 0 0 -0.37,0.37 4.38,4.38 0 0 0 -1,2.44 v 0 c 0,0.23 0,0.45 0,0.7 a 10.07,10.07 0 0 0 0.78,3.81 7.26,7.26 0 0 0 1.05,1.79 z M 22.49,6.71 a 2.54,2.54 0 0 1 2.16,-1.1 1.17,1.17 0 0 0 1,-0.43 8.65,8.65 0 0 1 6.52,-2.94 10.33,10.33 0 0 1 3.09,0.5 c 6.56,2.05 7.33,8 6.76,11.2 -0.06,0.31 -0.13,0.62 -0.19,0.91 a 1,1 0 0 0 0,0.3 c -2.24,0.32 -6.9,-2 -9.75,-6.39 A 3.62,3.62 0 0 0 29.21,6.86 C 26.82,6.74 24.68,9.37 24.56,9.52 a 20.77,20.77 0 0 0 -2.44,5.13 C 20.8,9.92 21.78,7.65 22.49,6.71 Z M 20.6,17.77 v 0 a 2.38,2.38 0 0 1 0.4,-1.1 c 0,0.23 0.08,0.44 0.11,0.62 0.15,1 0.2,1.23 0.62,1.23 v 0 c 0.41,0 0.47,-0.34 0.56,-0.87 a 19.92,19.92 0 0 1 3,-7.61 c 0,0 2,-2.38 3.88,-2.29 a 2.85,2.85 0 0 1 2.16,1.5 c 3,4.65 8.14,7.31 10.86,6.75 l -0.32,1.47 a 0.46,0.46 0 0 0 0.35,0.54 0.45,0.45 0 0 0 0.53,-0.35 L 43,16.49 v 0 a 2.26,2.26 0 0 1 0.47,1.22 v 0 0 c 0,0.14 0,0.29 0,0.44 a 7.52,7.52 0 0 1 -0.37,2.21 5.8,5.8 0 0 1 -1,1.93 2,2 0 0 1 -0.59,0.49 1.15,1.15 0 0 0 -0.57,0.72 15.07,15.07 0 0 1 -3.58,6.2 6.7,6.7 0 0 1 -5.31,2.56 H 32 A 6.7,6.7 0 0 1 26.69,29.7 15.07,15.07 0 0 1 23.11,23.5 1.15,1.15 0 0 0 22.54,22.78 2,2 0 0 1 21.95,22.29 4.93,4.93 0 0 1 21.24,21.1 7.92,7.92 0 0 1 20.6,18.15 C 20.58,18 20.59,17.9 20.6,17.77 Z"
           id="path10118" />
        <path
           style="fill:#58595b;stroke-width:1.06055093"
           class="cls-1"
           d="m 28.23,27.52 a 8.28,8.28 0 0 0 3.76,0.95 8.72,8.72 0 0 0 3.82,-0.95 0.45,0.45 0 1 0 -0.39,-0.81 7.2,7.2 0 0 1 -6.78,0 0.45,0.45 0 0 0 -0.61,0.19 0.46,0.46 0 0 0 0.2,0.62 z"
           id="path10120" />
        <ellipse
           style="fill:#58595b;stroke-width:1.06055093"
           class="cls-1"
           cx="26.639999"
           cy="18.629999"
           rx="1.35"
           ry="1.8"
           id="ellipse10122" />
        <ellipse
           style="fill:#58595b;stroke-width:1.06055093"
           class="cls-1"
           cx="37.41"
           cy="18.629999"
           rx="1.35"
           ry="1.8"
           id="ellipse10124" />
        <path
           style="fill:#58595b;stroke-width:1.06055093"
           class="cls-1"
           d="m 31.05,24.39 h 0.24 a 1,1 0 0 0 0.59,-0.18 0.45,0.45 0 0 0 0.11,-0.62 0.43,0.43 0 0 0 -0.62,-0.11 0.2,0.2 0 0 1 -0.13,0 0.44,0.44 0 0 1 -0.28,-0.2 1.48,1.48 0 0 1 -0.09,-0.91 7,7 0 0 1 0.65,-2.24 0.45,0.45 0 1 0 -0.81,-0.39 7.88,7.88 0 0 0 -0.71,2.55 2.32,2.32 0 0 0 0.22,1.48 1.39,1.39 0 0 0 0.83,0.62 z"
           id="path10126" />
        <path
           style="fill:#58595b;stroke-width:1.06055093"
           class="cls-1"
           d="m 7.45,73.91 a 0.37,0.37 0 0 1 -0.17,0 L 4.75,72.54 2.22,73.86 a 0.36,0.36 0 0 1 -0.4,0 0.36,0.36 0 0 1 -0.14,-0.36 l 0.48,-2.79 -2.05,-2 A 0.36,0.36 0 0 1 0,68.32 0.37,0.37 0 0 1 0.3,68.06 l 2.83,-0.41 1.26,-2.54 a 0.39,0.39 0 0 1 0.68,0 l 1.26,2.54 2.83,0.41 a 0.37,0.37 0 0 1 0.3,0.26 0.36,0.36 0 0 1 -0.09,0.38 l -2.05,2 0.48,2.74 a 0.41,0.41 0 0 1 0,0.11 0.38,0.38 0 0 1 -0.37,0.38 z m -2.7,-2.16 a 0.33,0.33 0 0 1 0.17,0 l 2,1.06 -0.39,-2.24 A 0.37,0.37 0 0 1 6.64,70.24 L 8.27,68.65 6.01,68.33 A 0.38,0.38 0 0 1 5.73,68.12 l -1,-2 -1,2 a 0.38,0.38 0 0 1 -0.28,0.21 l -2.26,0.32 1.63,1.59 a 0.37,0.37 0 0 1 0.11,0.33 l -0.39,2.24 2,-1.06 a 0.33,0.33 0 0 1 0.21,0 z"
           id="path10128" />
        <path
           style="fill:#58595b;stroke-width:1.06055093"
           class="cls-1"
           d="m 21.09,73.91 a 0.34,0.34 0 0 1 -0.17,0 l -2.53,-1.32 -2.53,1.32 a 0.36,0.36 0 0 1 -0.4,0 0.38,0.38 0 0 1 -0.15,-0.36 l 0.49,-2.79 -2.05,-2 a 0.36,0.36 0 0 1 -0.09,-0.38 0.37,0.37 0 0 1 0.3,-0.26 l 2.83,-0.41 1.26,-2.54 a 0.38,0.38 0 0 1 0.34,-0.2 0.37,0.37 0 0 1 0.33,0.2 l 1.28,2.48 2.83,0.41 a 0.37,0.37 0 0 1 0.2,0.64 l -2,2 0.47,2.74 a 0.43,0.43 0 0 1 0,0.11 0.38,0.38 0 0 1 -0.38,0.38 z m -2.7,-2.16 a 0.33,0.33 0 0 1 0.17,0 l 2,1.06 -0.38,-2.24 a 0.34,0.34 0 0 1 0.1,-0.33 L 22,68.69 19.74,68.37 a 0.4,0.4 0 0 1 -0.29,-0.21 l -1,-2 -1,2 a 0.38,0.38 0 0 1 -0.28,0.21 l -2.27,0.32 1.64,1.59 a 0.37,0.37 0 0 1 0.11,0.33 l -0.39,2.24 2,-1.06 a 0.39,0.39 0 0 1 0.13,-0.04 z"
           id="path10130" />
        <path
           style="fill:#58595b;stroke-width:1.06055093"
           class="cls-1"
           d="m 34.73,73.91 a 0.34,0.34 0 0 1 -0.17,0 L 32,72.54 29.47,73.86 a 0.35,0.35 0 0 1 -0.39,0 0.36,0.36 0 0 1 -0.15,-0.36 l 0.48,-2.79 -2,-2 a 0.39,0.39 0 0 1 -0.1,-0.38 0.38,0.38 0 0 1 0.31,-0.26 l 2.82,-0.41 1.27,-2.54 a 0.37,0.37 0 0 1 0.33,-0.2 0.38,0.38 0 0 1 0.34,0.2 l 1.26,2.54 2.83,0.41 a 0.39,0.39 0 0 1 0.31,0.26 0.39,0.39 0 0 1 -0.1,0.38 l -2,2 0.47,2.74 a 0.43,0.43 0 0 1 0,0.11 0.38,0.38 0 0 1 -0.38,0.38 z M 32,71.75 a 0.39,0.39 0 0 1 0.18,0 l 2,1.06 -0.39,-2.24 a 0.37,0.37 0 0 1 0.11,-0.33 l 1.64,-1.59 -2.27,-0.32 a 0.4,0.4 0 0 1 -0.28,-0.21 l -1,-2 -1,2 a 0.4,0.4 0 0 1 -0.28,0.21 l -2.27,0.32 1.64,1.59 a 0.37,0.37 0 0 1 0.11,0.33 l -0.39,2.24 2,-1.06 a 0.38,0.38 0 0 1 0.2,0 z"
           id="path10132" />
        <path
           style="fill:#58595b;stroke-width:1.06055093"
           class="cls-1"
           d="m 48.37,73.91 a 0.41,0.41 0 0 1 -0.18,0 l -2.53,-1.32 -2.53,1.32 a 0.37,0.37 0 0 1 -0.54,-0.39 l 0.48,-2.79 -2,-2 a 0.37,0.37 0 0 1 0.2,-0.64 l 2.83,-0.41 1.27,-2.54 a 0.37,0.37 0 0 1 0.33,-0.2 0.4,0.4 0 0 1 0.34,0.2 l 1.26,2.54 2.83,0.41 a 0.37,0.37 0 0 1 0.3,0.26 0.36,0.36 0 0 1 -0.09,0.38 l -2,2 0.48,2.74 a 0.41,0.41 0 0 1 0,0.11 0.37,0.37 0 0 1 -0.37,0.38 z m -2.71,-2.16 a 0.39,0.39 0 0 1 0.18,0 l 2,1.06 -0.39,-2.24 a 0.37,0.37 0 0 1 0.11,-0.33 L 49.2,68.65 47,68.37 a 0.38,0.38 0 0 1 -0.28,-0.21 l -1,-2 -1,2 a 0.4,0.4 0 0 1 -0.29,0.21 l -2.26,0.32 1.63,1.59 a 0.34,0.34 0 0 1 0.11,0.33 l -0.38,2.24 2,-1.06 a 0.33,0.33 0 0 1 0.13,-0.04 z"
           id="path10134" />
        <path
           style="fill:#58595b;stroke-width:1.06055093"
           class="cls-1"
           d="m 62,73.91 a 0.34,0.34 0 0 1 -0.17,0 l -2.53,-1.37 -2.53,1.32 a 0.36,0.36 0 0 1 -0.4,0 0.36,0.36 0 0 1 -0.14,-0.36 l 0.48,-2.79 -2.05,-2 a 0.36,0.36 0 0 1 -0.09,-0.38 0.37,0.37 0 0 1 0.3,-0.26 L 57.7,67.66 59,65.11 a 0.4,0.4 0 0 1 0.34,-0.2 0.37,0.37 0 0 1 0.33,0.2 l 1.27,2.54 2.83,0.41 a 0.37,0.37 0 0 1 0.2,0.64 l -2,2 0.48,2.74 a 0.41,0.41 0 0 1 0,0.11 0.38,0.38 0 0 1 -0.37,0.38 z m -2.7,-2.16 a 0.33,0.33 0 0 1 0.17,0 l 2,1.06 -0.38,-2.24 a 0.37,0.37 0 0 1 0.11,-0.33 l 1.63,-1.59 -2.26,-0.32 a 0.38,0.38 0 0 1 -0.28,-0.21 l -1,-2 -1,2 a 0.38,0.38 0 0 1 -0.28,0.21 l -2.26,0.32 1.63,1.59 a 0.37,0.37 0 0 1 0.11,0.33 l -0.39,2.24 2,-1.06 a 0.33,0.33 0 0 1 0.2,0 z"
           id="path10136" />
      </g>
    </g>
  </g>
</svg>
