<?xml version="1.0" encoding="iso-8859-1"?>
<!-- Generator: Adobe Illustrator 23.0.3, SVG Export Plug-In . SVG Version: 6.00 Build 0)  -->
<svg version="1.1"
	 id="svg195817" xmlns:cc="http://creativecommons.org/ns#" xmlns:dc="http://purl.org/dc/elements/1.1/" xmlns:rdf="http://www.w3.org/1999/02/22-rdf-syntax-ns#" xmlns:svg="http://www.w3.org/2000/svg"
	 xmlns="http://www.w3.org/2000/svg" xmlns:xlink="http://www.w3.org/1999/xlink" x="0px" y="0px" viewBox="0 0 52.3 52.3"
	 style="enable-background:new 0 0 52.3 52.3;" xml:space="preserve">
<style type="text/css">
	.st0{fill:#616161;}
</style>
<g id="layer1" transform="translate(-281.81458,-113.148)">
	<path id="path3170-9" class="st0" d="M327.2,133.2c0.3,0,0.6-0.1,0.9-0.4l5.7-5.7c0.5-0.5,0.5-1.3,0-1.7l-5.7-5.7
		c-0.2-0.2-0.5-0.4-0.9-0.4h-15.5V116c0-1.6-1.3-2.9-2.9-2.9h-1.6c-1.6,0-2.9,1.3-2.9,2.9v3.3h-15.5c-0.7,0-1.2,0.6-1.2,1.2v11.4
		c0,0.7,0.5,1.2,1.2,1.2l0,0h15.5v3.3h-15.5c-0.3,0-0.6,0.1-0.9,0.4l-5.7,5.7c-0.5,0.5-0.5,1.2,0,1.7c0,0,0,0,0,0l5.7,5.7
		c0.2,0.2,0.5,0.4,0.9,0.4h15.5v12.3c0,1.6,1.3,2.9,2.9,2.9h1.6c1.6,0,2.9-1.3,2.9-2.9l0,0v-12.3h15.5c0.7,0,1.2-0.6,1.2-1.2v-11.4
		c0-0.7-0.5-1.2-1.2-1.2h-15.5v-3.3L327.2,133.2z M306.7,116c0-0.2,0.2-0.4,0.4-0.4h1.6c0.2,0,0.4,0.2,0.4,0.4v3.3h-2.5V116z
		 M290,121.7h36.7l4.5,4.5l-4.5,4.5H290V121.7z M309.2,162.6c0,0.2-0.2,0.4-0.4,0.4h-1.6c-0.2,0-0.4-0.2-0.4-0.4v-12.3h2.5V162.6z
		 M326,147.9h-36.7l-4.5-4.5l4.5-4.5H326V147.9z M309.2,136.4h-2.5v-3.3h2.5V136.4z"/>
</g>
</svg>
