<?xml version="1.0" encoding="UTF-8" standalone="no"?>
<svg
   xmlns:dc="http://purl.org/dc/elements/1.1/"
   xmlns:cc="http://creativecommons.org/ns#"
   xmlns:rdf="http://www.w3.org/1999/02/22-rdf-syntax-ns#"
   xmlns:svg="http://www.w3.org/2000/svg"
   xmlns="http://www.w3.org/2000/svg"
   id="svg195817"
   version="1.1"
   viewBox="0 0 18.454163 18.454"
   height="18.454mm"
   width="18.454163mm">
  <defs
     id="defs195811" />
  <metadata
     id="metadata195814">
    <rdf:RDF>
      <cc:Work
         rdf:about="">
        <dc:format>image/svg+xml</dc:format>
        <dc:type
           rdf:resource="http://purl.org/dc/dcmitype/StillImage" />
        <dc:title></dc:title>
      </cc:Work>
    </rdf:RDF>
  </metadata>
  <g
     transform="translate(-281.81458,-113.148)"
     id="layer1">
    <path
       style="fill:#616161;stroke-width:0.26458332"
       class="cls-1"
       d="m 297.81885,120.21229 a 0.42714339,0.42714339 0 0 0 0.3051,-0.12674 l 2.01836,-2.01836 a 0.43418421,0.43418421 0 0 0 0,-0.61256 l -2.01836,-2.01836 a 0.43887811,0.43887811 0 0 0 -0.3051,-0.12674 h -5.48011 v -1.15235 a 1.0091849,1.0091849 0 0 0 -1.00919,-1.00918 h -0.575 a 1.0115319,1.0115319 0 0 0 -1.00919,1.00918 v 1.15235 h -5.4801 a 0.43418421,0.43418421 0 0 0 -0.43184,0.43418 v 4.03675 a 0.43183725,0.43183725 0 0 0 0.43184,0.43183 h 5.4801 v 1.15001 h -5.4801 a 0.42714339,0.42714339 0 0 0 -0.30511,0.12673 l -2.01836,2.01837 a 0.42949032,0.42949032 0 0 0 0,0.6102 l 2.01836,2.01837 a 0.42714339,0.42714339 0 0 0 0.30511,0.12674 h 5.4801 v 4.3301 a 1.0115319,1.0115319 0 0 0 1.00919,1.00919 h 0.575 a 1.0091849,1.0091849 0 0 0 1.00919,-1.00919 v -4.32541 h 5.48011 a 0.43183725,0.43183725 0 0 0 0.42479,-0.43184 v -4.03674 a 0.43183725,0.43183725 0 0 0 -0.42479,-0.43652 h -5.48011 v -1.15001 z m -7.20981,-6.05511 a 0.14551039,0.14551039 0 0 1 0.14551,-0.14316 h 0.575 a 0.14551039,0.14551039 0 0 1 0.14551,0.14316 v 1.15235 h -0.86602 z m -5.9096,2.01838 h 12.93869 l 1.58653,1.58653 -1.58653,1.58418 h -12.93869 z m 6.77562,14.41725 a 0.14551039,0.14551039 0 0 1 -0.14551,0.14317 h -0.575 a 0.14551039,0.14551039 0 0 1 -0.14551,-0.14317 v -4.32541 h 0.86602 z m 5.9096,-5.18908 h -12.93869 l -1.58653,-1.58654 1.58653,-1.58653 h 12.93869 z m -5.9096,-4.04143 h -0.86602 v -1.15001 h 0.86602 z"
       id="path3170-9" />
  </g>
</svg>
