<?xml version="1.0" encoding="UTF-8" standalone="no"?>
<svg
   xmlns:dc="http://purl.org/dc/elements/1.1/"
   xmlns:cc="http://creativecommons.org/ns#"
   xmlns:rdf="http://www.w3.org/1999/02/22-rdf-syntax-ns#"
   xmlns:svg="http://www.w3.org/2000/svg"
   xmlns="http://www.w3.org/2000/svg"
   id="svg202688"
   version="1.1"
   viewBox="0 0 12.219141 18.454"
   height="18.454mm"
   width="12.219141mm">
  <defs
     id="defs202682" />
  <metadata
     id="metadata202685">
    <rdf:RDF>
      <cc:Work
         rdf:about="">
        <dc:format>image/svg+xml</dc:format>
        <dc:type
           rdf:resource="http://purl.org/dc/dcmitype/StillImage" />
        <dc:title></dc:title>
      </cc:Work>
    </rdf:RDF>
  </metadata>
  <g
     transform="translate(-235.03924,-122.21943)"
     id="layer1">
    <g
       style="stroke-width:0.65497023"
       transform="matrix(0.40396237,0,0,0.40396237,235.04657,122.22043)"
       id="Layer_2-47-8"
       data-name="Layer 2">
      <g
         style="stroke-width:0.65497023"
         id="Layer_1-2-44-0"
         data-name="Layer 1">
        <path
           style="fill:#58595b;stroke-width:0.65497023"
           class="cls-1"
           d="M 1.31,45.68 A 1.35,1.35 0 0 1 0.57,45.45 1.46,1.46 0 0 1 0.16,43.58 L 7.82,24.05 h -6 A 1.8,1.8 0 0 1 0.28,23.26 1.81,1.81 0 0 1 0.21,21.51 l 9.3,-20 A 2.75,2.75 0 0 1 11.86,0 H 28.43 A 1.76,1.76 0 0 1 30,0.8 1.76,1.76 0 0 1 30,2.54 L 22.84,18 h 5.74 a 1.55,1.55 0 0 1 1.56,0.95 1.57,1.57 0 0 1 -0.53,1.77 L 2.45,45.18 a 1.74,1.74 0 0 1 -1.14,0.5 z M 2.82,21.62 H 9.6 a 1.22,1.22 0 0 1 1.14,1.66 L 4,40.53 26.3,20.45 h -5.36 a 1.23,1.23 0 0 1 -1,-0.56 1.25,1.25 0 0 1 -0.08,-1.17 L 27.41,2.43 H 11.86 a 0.48,0.48 0 0 0 -0.17,0.13 z"
           id="path3454-9" />
      </g>
    </g>
    <g
       data-name="Layer 2"
       id="g203247"
       transform="matrix(0.40396237,0,0,0.40396237,235.04657,122.22043)"
       style="stroke-width:0.65497023">
      <g
         data-name="Layer 1"
         id="g203245"
         style="stroke-width:0.65497023">
        <path
           id="path203243"
           d="M 1.31,45.68 A 1.35,1.35 0 0 1 0.57,45.45 1.46,1.46 0 0 1 0.16,43.58 L 7.82,24.05 h -6 A 1.8,1.8 0 0 1 0.28,23.26 1.81,1.81 0 0 1 0.21,21.51 l 9.3,-20 A 2.75,2.75 0 0 1 11.86,0 H 28.43 A 1.76,1.76 0 0 1 30,0.8 1.76,1.76 0 0 1 30,2.54 L 22.84,18 h 5.74 a 1.55,1.55 0 0 1 1.56,0.95 1.57,1.57 0 0 1 -0.53,1.77 L 2.45,45.18 a 1.74,1.74 0 0 1 -1.14,0.5 z M 2.82,21.62 H 9.6 a 1.22,1.22 0 0 1 1.14,1.66 L 4,40.53 26.3,20.45 h -5.36 a 1.23,1.23 0 0 1 -1,-0.56 1.25,1.25 0 0 1 -0.08,-1.17 L 27.41,2.43 H 11.86 a 0.48,0.48 0 0 0 -0.17,0.13 z"
           class="cls-1"
           style="fill:#58595b;stroke-width:0.65497023" />
      </g>
    </g>
  </g>
</svg>
