<?xml version="1.0" encoding="iso-8859-1"?>
<!-- Generator: Adobe Illustrator 23.0.3, SVG Export Plug-In . SVG Version: 6.00 Build 0)  -->
<svg version="1.1"
	 id="svg217925" xmlns:cc="http://creativecommons.org/ns#" xmlns:dc="http://purl.org/dc/elements/1.1/" xmlns:rdf="http://www.w3.org/1999/02/22-rdf-syntax-ns#" xmlns:svg="http://www.w3.org/2000/svg"
	 xmlns="http://www.w3.org/2000/svg" xmlns:xlink="http://www.w3.org/1999/xlink" x="0px" y="0px" viewBox="0 0 53.1 52.3"
	 style="enable-background:new 0 0 53.1 52.3;" xml:space="preserve">
<style type="text/css">
	.st0{fill:#58595B;}
</style>
<g id="layer1" transform="translate(222.54872,-402.67776)">
	<g id="Layer_2-87-9" transform="matrix(0.34073079,0,0,0.34073079,-222.54864,402.67776)">
		<g id="Layer_1-2-17-4">
			<path id="path5083-5" class="st0" d="M153.5,68.2c1.3,0,2.4-1.1,2.4-2.4c0,0,0,0,0-0.1V53.6c0-1.3-1.1-2.4-2.4-2.4c0,0,0,0-0.1,0
				h-43.9c-1.3,0-2.4,1.1-2.4,2.4c0,0,0,0,0,0v9.7h-4.9c-1.3,0-2.4,1.1-2.4,2.4V78c0,1.3,1.1,2.4,2.4,2.4h4.9v7.3
				c-1.3,0-2.4,1.1-2.4,2.4c0,0,0,0,0,0v12.2c0,1.3,1.1,2.4,2.4,2.4l0,0v7.3h-2.3v-9.8c0-1.3-1.1-2.4-2.4-2.4l0,0H100v-9.7
				c0-1.3-1.1-2.4-2.4-2.4c0,0,0,0-0.1,0h-44c-1.3,0-2.4,1.1-2.4,2.4c0,0,0,0,0,0.1v12.2c0,1.3,1.1,2.4,2.4,2.4c0,0,0,0,0.1,0H56
				v7.3c-1.3,0-2.4,1.1-2.4,2.4l0,0v12.2c0-1.3-1.1-2.4-2.4-2.4h-2.4v-9.8c0-1.3-1.1-2.4-2.4-2.4H2.4c-1.3,0-2.4,1.1-2.4,2.4
				c0,0,0,0,0,0v12.2c0,1.3,1.1,2.4,2.4,2.4c0,0,0,0,0,0h2.4v7.3H2.4c-1.3,0-2.4,1.1-2.4,2.4c0,0,0,0,0,0.1v12.2
				c0,1.3,1.1,2.4,2.4,2.4c0,0,0,0,0.1,0h43.9c1.3,0,2.4-1.1,2.4-2.4l0,0v-9.8h2.4c1.3,0,2.4-1.1,2.4-2.4l0,0V151
				c0,1.3,1.1,2.4,2.4,2.4c0,0,0,0,0.1,0h43.8c1.3,0,2.4-1.1,2.4-2.4c0,0,0,0,0-0.1v-24.3c0,1.3,1.1,2.4,2.4,2.4h2.4V151
				c0,1.3,1.1,2.4,2.4,2.4l0,0h43.9c1.3,0,2.4-1.1,2.4-2.4c0,0,0,0,0-0.1v-24.3c0-1.3-1.1-2.4-2.4-2.4c0,0,0,0-0.1,0H151v-7.3h2.4
				c1.3,0,2.4-1.1,2.4-2.4c0,0,0,0,0-0.1v-12.2c0-1.3-1.1-2.4-2.4-2.4l0,0v-7.3c1.3,0,2.4-1.1,2.4-2.4c0,0,0,0,0,0V78
				c0-1.3-1.1-2.4-2.4-2.4l0,0h-4.9v-7.3H153.5z M43.9,124.2H19.5v-7.3h24.4V124.2z M18.3,136.4v-7.3h3.6v7.3H18.3z M8.5,141.3h2.4
				v7.3H8.5V141.3z M8.5,116.9h2.4v7.3H8.5V116.9z M13.4,124.2v-7.3H17v7.3H13.4z M15.8,129.1v7.3h-2.4v-7.3H15.8z M13.4,141.3H17
				v7.3h-3.6L13.4,141.3z M4.9,116.9h1.2v7.3H4.9L4.9,116.9z M9.8,129.1H11v7.3H9.8V129.1z M4.9,141.3h1.2v7.3H4.9L4.9,141.3z
				 M43.9,148.6H19.5v-7.3h24.4V148.6z M48.7,136.4H24.3v-7.3h24.4V136.4z M58.5,129.1h1.2v7.3h-1.2V129.1z M58.5,116.9h1.2v7.3
				h-1.2V116.9z M59.7,92.6h2.4v7.3h-2.4V92.6z M99.9,104.9v7.3H75.5v-7.3H99.9z M67,136.4v-7.3h3.7v7.3H67z M64.5,116.9v7.3h-2.4
				v-7.3H64.5z M64.5,129.1v7.3h-2.4v-7.3H64.5z M67,124.2v-7.3h3.7v7.3L67,124.2z M73.1,112.1h-3.7v-7.2h3.7V112.1z M64.6,99.9
				v-7.3h3.7v7.3H64.6z M67,104.9v7.3h-2.4v-7.3H67z M64.5,141.4v7.3h-2.4v-7.5L64.5,141.4z M67,141.4h3.7v7.3H67L67,141.4z
				 M73.1,129.3h24.3v7.3H73.1V129.3z M97.4,124.4H73.1v-7.5h24.3V124.4z M95,100H70.6v-7.4H95V100z M56,92.6h1.2v7.3H56V92.6z
				 M60.9,104.9h1.2v7.3h-1.2V104.9z M58.5,141.4h1.2v7.3h-1.2V141.4z M97.4,148.7H73.1v-7.5h24.3V148.7z M151,63.3h-24.3V56H151
				V63.3z M120.6,112.1v-7.2h3.7v7.3L120.6,112.1z M151,129.1v7.3h-24.3v-7.2L151,129.1L151,129.1z M110.8,116.9h2.6v7.3h-2.6V116.9
				z M109.6,92.6h1.2v7.3h-1.2V92.6z M108.4,75.6v-7.4h2.4v7.3L108.4,75.6L108.4,75.6z M115.7,63.4V56h2.4v7.3L115.7,63.4z
				 M118.1,80.4v7.3h-2.4v-7.3H118.1z M113.4,99.9v-7.3h2.4v7.3H113.4z M118.1,104.9v7.3h-2.4v-7.3H118.1z M118.1,129.3v7.3h-2.4
				v-7.4L118.1,129.3z M118.1,141.4v7.3h-2.4v-7.5L118.1,141.4z M120.6,141.4h3.7v7.3h-3.7V141.4z M124.2,136.5h-3.7v-7.4h3.7V136.5
				z M115.7,124.4v-7.5h3.7v7.3L115.7,124.4z M118.2,100v-7.4h3.7v7.3L118.2,100z M120.6,87.8v-7.5h3.7v7.3L120.6,87.8z M113.4,75.5
				v-7.3h3.7v7.3H113.4z M120.7,56h3.7v7.3h-3.8L120.7,56z M112.2,56h1.2v7.3h-1.2L112.2,56z M104.9,68.2h1.2v7.3h-1.2V68.2z
				 M112.2,80.4h1.2v7.3h-1.2L112.2,80.4z M112.2,104.7h1.2v7.3h-1.2L112.2,104.7z M107.3,116.9h1.2v7.3h-1.2V116.9z M113.4,129.1
				v7.3h-1.2v-7.3H113.4z M112.2,141.3h1.2v7.3h-1.2V141.3z M151.1,148.6h-24.5v-7.3H151L151.1,148.6z M146.3,124.2h-24.4v-7.3h24.3
				L146.3,124.2z M151.1,112.1h-24.5v-7.2H151L151.1,112.1z M148.7,99.9h-24.5v-7.3h24.3L148.7,99.9z M151.1,87.7h-24.5v-7.3H151
				L151.1,87.7z M143.8,75.5h-24.5v-7.3h24.3L143.8,75.5z"/>
			<path id="path5085-1" class="st0" d="M20.4,89.6c-1.7,1-2.3,3.3-1.3,5c0.7,1.2,2.1,1.9,3.5,1.8c0.8,0,1.5-0.2,2.1-0.7l104.5-74.4
				l8.5,11.9L152.9,0l-36.3,3.4l8.5,11.8L20.4,89.6z"/>
			<path id="path5087-0" class="st0" d="M17.6,48c-1.2-1.4-1.9-3-2.3-4.7l-9.9,1c0.5,4,2.3,7.7,5.2,10.5c3,2.6,6.7,4.1,10.7,4.4v6.1
				H27v-6.3c4.3-0.3,8.3-2.1,11.5-5c2.8-2.8,4.3-6.7,4.1-10.6c0.1-3.3-1.1-6.6-3.3-9.1c-3.6-3-7.9-4.9-12.4-5.7V15
				c2.4,0.9,4.1,3,4.6,5.5l9.6-1.1c-0.5-3.2-2.1-6.1-4.6-8.2c-2.8-2.2-6.1-3.5-9.6-3.7V4.1h-5.7v3.4c-3.9,0.2-7.6,1.8-10.5,4.4
				c-2.5,2.5-3.9,5.9-3.7,9.4c-0.1,3.5,1.2,6.9,3.5,9.4c3,3,6.8,5,10.9,5.8v14.3C19.8,50.2,18.6,49.2,17.6,48z M26.8,38
				c1.9,0.4,3.6,1.2,4.9,2.6c1,1.1,1.5,2.5,1.5,4c0,1.7-0.6,3.3-1.8,4.5c-1.2,1.3-2.9,2.1-4.6,2.4L26.8,38z M17.6,24.2
				c-0.8-0.9-1.2-2.1-1.2-3.4c0-1.3,0.5-2.6,1.3-3.6c0.9-1.1,2.2-1.9,3.6-2.3v11.8C19.9,26.3,18.6,25.4,17.6,24.2z"/>
		</g>
	</g>
</g>
</svg>
