<?xml version="1.0" encoding="UTF-8" standalone="no"?>
<svg
   xmlns:dc="http://purl.org/dc/elements/1.1/"
   xmlns:cc="http://creativecommons.org/ns#"
   xmlns:rdf="http://www.w3.org/1999/02/22-rdf-syntax-ns#"
   xmlns:svg="http://www.w3.org/2000/svg"
   xmlns="http://www.w3.org/2000/svg"
   id="svg224806"
   version="1.1"
   viewBox="0 0 18.440977 18.454"
   height="18.454mm"
   width="18.440977mm">
  <defs
     id="defs224800" />
  <metadata
     id="metadata224803">
    <rdf:RDF>
      <cc:Work
         rdf:about="">
        <dc:format>image/svg+xml</dc:format>
        <dc:type
           rdf:resource="http://purl.org/dc/dcmitype/StillImage" />
        <dc:title></dc:title>
      </cc:Work>
    </rdf:RDF>
  </metadata>
  <g
     transform="translate(48.530012,-123.73134)"
     id="layer1">
    <g
       style="stroke-width:0.78927463"
       transform="matrix(0.33522341,0,0,0.33522341,-48.543421,123.78157)"
       id="Layer_2-27-3"
       data-name="Layer 2">
      <g
         style="stroke-width:0.78927463"
         id="Layer_1-2-22-7"
         data-name="Layer 1">
        <path
           style="fill:#58595b;stroke-width:0.78927463"
           class="cls-1"
           d="M 15.47,29.22 A 0.43,0.43 0 0 0 15.04,28.79 11.18,11.18 0 0 0 3.87,40 0.43,0.43 0 0 0 4.3,40.43 0.43,0.43 0 0 0 4.73,40 10.32,10.32 0 0 1 15,29.65 0.43,0.43 0 0 0 15.47,29.22 Z"
           id="path5109-8" />
        <path
           style="fill:#58595b;stroke-width:0.78927463"
           class="cls-1"
           d="M 15,50.27 A 0.43,0.43 0 0 0 14.57,50.7 0.43,0.43 0 0 0 15,51.13 11.18,11.18 0 0 0 26.21,40 0.43,0.43 0 0 0 25.35,40 10.32,10.32 0 0 1 15,50.27 Z"
           id="path5111-8" />
        <path
           style="fill:#58595b;stroke-width:0.78927463"
           class="cls-1"
           d="m 45.12,25.78 a 9.9,9.9 0 0 0 -9.89,9.88 c 0,0.33 0,0.66 0.05,1 l -5.42,0.78 A 15,15 0 0 0 26,29.64 L 38.44,17.16 a 9.91,9.91 0 1 0 -0.6,-0.6 L 25.36,29 a 15,15 0 0 0 -7.77,-3.9 l 0.77,-5.42 c 0.32,0 0.65,0.05 1,0.05 A 9.94,9.94 0 1 0 17.53,19.55 L 16.74,25 a 16,16 0 0 0 -1.7,-0.1 15,15 0 1 0 15,15 16,16 0 0 0 -0.1,-1.7 l 5.43,-0.77 A 9.88,9.88 0 1 0 45.08,25.72 Z M 11.17,9.88 a 8.17,8.17 0 1 1 8.17,8.17 8.17,8.17 0 0 1 -8.17,-8.17 z M 45.12,1.72 A 8.17,8.17 0 1 1 37,9.88 8.17,8.17 0 0 1 45.12,1.72 Z M 15,52.42 A 12.46,12.46 0 1 1 27.5,40 12.47,12.47 0 0 1 15,52.42 Z m 30.08,-8.59 a 8.17,8.17 0 1 1 8.16,-8.17 8.18,8.18 0 0 1 -8.12,8.17 z"
           id="path5113-6" />
        <path
           style="fill:#58595b;stroke-width:0.78927463"
           class="cls-1"
           d="m 21.16,14.45 a 4.22,4.22 0 0 0 1,-0.12 A 4.77,4.77 0 0 0 23,14 l -0.73,-1.44 a 3.81,3.81 0 0 1 -1.37,0.34 5.71,5.71 0 0 1 -1.1,-0.19 4.71,4.71 0 0 0 -0.55,-0.11 2.81,2.81 0 0 0 -0.43,0 2.22,2.22 0 0 0 -0.92,0.17 5,5 0 0 0 0.82,-1.06 1.89,1.89 0 0 0 0.2,-0.88 1.23,1.23 0 0 0 0,-0.27 H 20.7 V 9.22 H 18.6 A 4.87,4.87 0 0 1 18.37,8.46 2.85,2.85 0 0 1 18.27,7.79 1.07,1.07 0 0 1 18.62,7 a 1.41,1.41 0 0 1 1.74,0 1.63,1.63 0 0 1 0.46,0.93 l 1.82,-0.24 a 2.6,2.6 0 0 0 -1,-1.73 3.39,3.39 0 0 0 -2.11,-0.6 4.19,4.19 0 0 0 -1.6,0.31 2.56,2.56 0 0 0 -1.13,0.91 2.29,2.29 0 0 0 -0.4,1.26 3.8,3.8 0 0 0 0.28,1.44 h -1.02 v 1.34 h 1.4 a 2.14,2.14 0 0 1 0,0.34 2,2 0 0 1 -0.31,1.04 3.32,3.32 0 0 1 -1.09,1 l 0.72,1.46 a 3.19,3.19 0 0 1 1.67,-0.52 6.63,6.63 0 0 1 1.49,0.25 6.56,6.56 0 0 0 1.62,0.26 z"
           id="path5115-0" />
        <path
           style="fill:#58595b;stroke-width:0.78927463"
           class="cls-1"
           d="m 40.54,11.21 h 1 a 3.93,3.93 0 0 0 1.13,2 4.46,4.46 0 0 0 3.22,1.21 5,5 0 0 0 2,-0.39 v -1.81 a 2.88,2.88 0 0 1 -2.06,0.71 2.26,2.26 0 0 1 -1.74,-0.71 2.15,2.15 0 0 1 -0.52,-1 h 3.06 l 0.22,-0.94 h -3.38 c 0,-0.15 0,-0.3 0,-0.44 V 9.47 h 3.61 L 47.3,8.54 h -3.7 a 2.2,2.2 0 0 1 0.54,-1 2.34,2.34 0 0 1 1.77,-0.71 2.44,2.44 0 0 1 1.67,0.51 L 48,5.67 a 4.86,4.86 0 0 0 -2,-0.37 4.6,4.6 0 0 0 -3.33,1.22 3.92,3.92 0 0 0 -1.12,2 h -0.8 l -0.22,0.93 h 0.88 c 0,0.14 0,0.31 0,0.49 v 0.31 h -0.65 z"
           id="path5117-4" />
        <path
           style="fill:#58595b;stroke-width:0.78927463"
           class="cls-1"
           d="m 46.84,31.66 -1.37,2.58 A 5.49,5.49 0 0 0 45.1,35.09 4.37,4.37 0 0 0 44.74,34.24 L 43.4,31.66 h -2.07 l 2.09,3.82 h -1.75 v 1.33 h 2.49 v 0.73 h -2.49 v 1.33 h 2.49 v 1.65 H 46 v -1.65 h 2.53 V 37.54 H 46 v -0.73 h 2.53 v -1.33 h -1.74 l 2.11,-3.82 z"
           id="path5119-6" />
        <path
           style="fill:#58595b;stroke-width:0.78927463"
           class="cls-1"
           d="m 15.58,48.34 v -1.69 a 5.08,5.08 0 0 0 3.07,-1.38 3.82,3.82 0 0 0 1.1,-2.77 3.34,3.34 0 0 0 -0.88,-2.4 6.66,6.66 0 0 0 -3.29,-1.53 V 35 a 1.88,1.88 0 0 1 1.21,1.45 l 2.55,-0.3 A 3.69,3.69 0 0 0 18.13,34 4.54,4.54 0 0 0 15.58,33 V 32.11 H 14.12 V 33 a 4.38,4.38 0 0 0 -2.78,1.17 3.34,3.34 0 0 0 -1,2.49 3.62,3.62 0 0 0 0.92,2.5 5.7,5.7 0 0 0 2.9,1.54 v 3.8 a 2.84,2.84 0 0 1 -1,-0.77 2.92,2.92 0 0 1 -0.6,-1.25 l -2.63,0.26 a 4.56,4.56 0 0 0 1.39,2.76 4.93,4.93 0 0 0 2.83,1.17 v 1.65 z m 0,-7.23 a 2.56,2.56 0 0 1 1.3,0.67 1.5,1.5 0 0 1 0.4,1 1.68,1.68 0 0 1 -0.47,1.22 2.09,2.09 0 0 1 -1.23,0.63 z m -2.44,-3.64 a 1.45,1.45 0 0 1 -0.32,-0.89 1.52,1.52 0 0 1 0.35,-1 1.89,1.89 0 0 1 0.95,-0.61 v 3.13 a 2.29,2.29 0 0 1 -0.98,-0.63 z"
           id="path5121-7" />
      </g>
    </g>
  </g>
</svg>
