<?xml version="1.0" encoding="iso-8859-1"?>
<!-- Generator: Adobe Illustrator 23.0.3, SVG Export Plug-In . SVG Version: 6.00 Build 0)  -->
<svg version="1.1"
	 id="svg231702" xmlns:cc="http://creativecommons.org/ns#" xmlns:dc="http://purl.org/dc/elements/1.1/" xmlns:rdf="http://www.w3.org/1999/02/22-rdf-syntax-ns#" xmlns:svg="http://www.w3.org/2000/svg"
	 xmlns="http://www.w3.org/2000/svg" xmlns:xlink="http://www.w3.org/1999/xlink" x="0px" y="0px" viewBox="0 0 58.5 52.3"
	 style="enable-background:new 0 0 58.5 52.3;" xml:space="preserve">
<style type="text/css">
	.st0{fill:none;stroke:#CCCCCC;stroke-width:1.6547;stroke-miterlimit:10;}
	.st1{fill:#666666;}
	.st2{fill:none;stroke:#666666;stroke-width:5.1332;stroke-miterlimit:10;}
</style>
<g>
	<polyline class="st0" points="51.4,10.2 29.3,1.1 7.2,10.2 	"/>
	<polygon class="st1" points="22.9,22.1 22.9,19.7 20.3,19.7 20.3,22.1 19.2,22.1 19.2,16.5 20.3,16.5 20.3,18.7 22.9,18.7 
		22.9,16.5 24.1,16.5 24.1,22.1 	"/>
	<polygon class="st1" points="25.5,22.1 25.5,16.5 29.4,16.5 29.4,17.6 26.7,17.6 26.7,18.7 29.3,18.7 29.3,19.8 26.6,19.8 26.6,21 
		29.4,21 29.4,22.1 	"/>
	<polygon class="st1" points="30.5,22.1 30.5,16.5 31.7,16.5 31.7,21 34,21 34,22.1 	"/>
	<path class="st1" d="M35,22.1v-5.5h2.6c1-0.1,1.8,0.7,1.9,1.7c0.1,1-0.7,1.8-1.7,1.9h-0.2h-1.4v2H35z M38.3,18.3
		c0-0.4-0.3-0.8-0.7-0.8l-0.1,0h-1.2v1.5h1.2C37.9,19.1,38.2,18.8,38.3,18.3L38.3,18.3L38.3,18.3z"/>
	<polygon class="st1" points="16.1,31 15.1,27.2 14.2,31 12.9,31 11.4,25.5 12.7,25.5 13.6,29.5 14.7,25.5 15.6,25.5 16.6,29.5 
		17.6,25.5 18.9,25.5 17.4,31 	"/>
	<path class="st1" d="M23,31l-0.3-0.9h-2.4L20,31h-1.3l2.1-5.5h1.5l2.1,5.5H23z M21.5,26.6L20.7,29h1.7L21.5,26.6z"/>
	<polygon class="st1" points="28.9,31 26.3,27.4 26.3,31 25.1,31 25.1,25.5 26.4,25.5 28.9,28.9 28.9,25.5 30.1,25.5 30.1,31 	"/>
	<polygon class="st1" points="32.7,31 32.7,26.5 31.1,26.5 31.1,25.5 35.5,25.5 35.5,26.5 33.9,26.5 33.9,31 	"/>
	<polygon class="st1" points="36.5,31 36.5,25.5 40.4,25.5 40.4,26.5 37.7,26.5 37.7,27.7 40.3,27.7 40.3,28.7 37.7,28.7 37.7,29.9 
		40.4,29.9 40.4,31 	"/>
	<path class="st1" d="M41.6,31v-5.5h2.2c1.7,0,2.9,1.1,2.9,2.8c0,1.7-1.2,2.8-2.9,2.8H41.6z M45.5,28.2c0.1-0.9-0.6-1.7-1.5-1.7
		h-0.2h-1V30h1c0.9,0,1.7-0.7,1.7-1.6V28.2z"/>
	<path class="st2" d="M4.1,10.5h50.4c1.4,0,2.5,1.1,2.5,2.5v35.2c0,1.4-1.1,2.5-2.5,2.5H4.1c-1.4,0-2.5-1.1-2.5-2.5V13
		C1.6,11.6,2.7,10.5,4.1,10.5z"/>
	<path class="st0" d="M12.7,35.6h33.1c1.4,0,2.5,1.1,2.5,2.5v4.4c0,1.4-1.1,2.5-2.5,2.5H12.7c-1.4,0-2.5-1.1-2.5-2.5v-4.4
		C10.3,36.7,11.4,35.6,12.7,35.6z"/>
	<path class="st1" d="M29.3,0c0.6,0,1.1,0.5,1.1,1.1c0,0.6-0.5,1.1-1.1,1.1c-0.6,0-1.1-0.5-1.1-1.1C28.2,0.5,28.7,0,29.3,0z"/>
</g>
</svg>
