<?xml version="1.0" encoding="UTF-8" standalone="no"?>
<svg
   xmlns:dc="http://purl.org/dc/elements/1.1/"
   xmlns:cc="http://creativecommons.org/ns#"
   xmlns:rdf="http://www.w3.org/1999/02/22-rdf-syntax-ns#"
   xmlns:svg="http://www.w3.org/2000/svg"
   xmlns="http://www.w3.org/2000/svg"
   id="svg240086"
   version="1.1"
   viewBox="0 0 15.959551 18.454"
   height="18.454mm"
   width="15.959551mm">
  <defs
     id="defs240080" />
  <metadata
     id="metadata240083">
    <rdf:RDF>
      <cc:Work
         rdf:about="">
        <dc:format>image/svg+xml</dc:format>
        <dc:type
           rdf:resource="http://purl.org/dc/dcmitype/StillImage" />
        <dc:title></dc:title>
      </cc:Work>
    </rdf:RDF>
  </metadata>
  <g
     transform="translate(271.80716,-107.85633)"
     id="layer1">
    <g
       style="stroke-width:0.65493476"
       transform="matrix(0.40398425,0,0,0.40398425,-271.81726,107.85633)"
       id="Layer_2-631-8"
       data-name="Layer 2">
      <g
         style="stroke-width:0.65493476"
         id="Layer_1-2-759-0"
         data-name="Layer 1">
        <path
           style="fill:#58595b;stroke-width:0.65493476"
           class="cls-1"
           d="M 15.12,45.68 A 5.86,5.86 0 0 1 9.27,39.83 v -0.26 a 1.22,1.22 0 0 1 2.43,0 v 0.26 a 3.42,3.42 0 1 0 6.83,0 V 18.21 a 1.22,1.22 0 1 1 2.44,0 v 21.62 a 5.86,5.86 0 0 1 -5.85,5.85 z"
           id="path5728-8" />
        <path
           style="fill:#58595b;stroke-width:0.65493476"
           class="cls-1"
           d="m 38.28,21 a 1.22,1.22 0 0 1 -1.21,-1.22 c 0,-0.85 -1.6,-1.87 -3.58,-1.87 -1.98,0 -3.42,1 -3.42,1.87 a 1.22,1.22 0 1 1 -2.43,0 c 0,-0.9 -1.31,-1.87 -3.26,-1.87 -1.95,0 -3.38,0.96 -3.38,1.84 a 1.22,1.22 0 0 1 -2.44,0 c 0,-0.88 -1.46,-1.87 -3.41,-1.87 -1.95,0 -3.42,1 -3.42,1.87 a 1.22,1.22 0 1 1 -2.43,0 c 0,-0.88 -1.47,-1.87 -3.42,-1.87 -1.95,0 -3.42,1 -3.42,1.87 a 1.22,1.22 0 1 1 -2.43,0 19.75,19.75 0 0 1 39.5,0 A 1.22,1.22 0 0 1 38.28,21 Z M 15.12,15.45 a 6.73,6.73 0 0 1 4.63,1.64 6.73,6.73 0 0 1 4.63,-1.64 6.41,6.41 0 0 1 4.51,1.61 6.75,6.75 0 0 1 4.6,-1.61 7.9,7.9 0 0 1 3.19,0.65 17.32,17.32 0 0 0 -33.85,-0.1 7.64,7.64 0 0 1 3,-0.59 6.71,6.71 0 0 1 4.63,1.64 6.74,6.74 0 0 1 4.66,-1.6 z"
           id="path5730-1" />
      </g>
    </g>
  </g>
</svg>
