<?xml version="1.0" encoding="iso-8859-1"?>
<!-- Generator: Adobe Illustrator 23.0.3, SVG Export Plug-In . SVG Version: 6.00 Build 0)  -->
<svg version="1.1"
	 id="svg240086" xmlns:cc="http://creativecommons.org/ns#" xmlns:dc="http://purl.org/dc/elements/1.1/" xmlns:rdf="http://www.w3.org/1999/02/22-rdf-syntax-ns#" xmlns:svg="http://www.w3.org/2000/svg"
	 xmlns="http://www.w3.org/2000/svg" xmlns:xlink="http://www.w3.org/1999/xlink" x="0px" y="0px" viewBox="0 0 45.2 52.3"
	 style="enable-background:new 0 0 45.2 52.3;" xml:space="preserve">
<style type="text/css">
	.st0{fill:#58595B;}
</style>
<g id="layer1" transform="translate(271.80716,-107.85633)">
	<g id="Layer_2-631-8" transform="matrix(0.40398425,0,0,0.40398425,-271.81726,107.85633)">
		<g id="Layer_1-2-759-0">
			<path id="path5728-8" class="st0" d="M42.8,129.5c-9.2,0-16.6-7.4-16.6-16.6v-0.7c0.2-1.9,1.9-3.3,3.8-3.1c1.7,0.2,3,1.5,3.1,3.1
				v0.7c-0.3,5.3,3.8,9.9,9.2,10.2s9.9-3.8,10.2-9.2c0-0.3,0-0.7,0-1V51.6c0-1.9,1.5-3.5,3.5-3.5c1.9,0,3.5,1.5,3.5,3.5v61.3
				C59.4,122.1,52,129.5,42.8,129.5z"/>
			<path id="path5730-1" class="st0" d="M108.5,59.5c-1.9,0-3.4-1.6-3.4-3.5c0-2.4-4.5-5.3-10.1-5.3c-5.6,0-9.7,2.8-9.7,5.3
				c0.2,1.9-1.2,3.6-3.1,3.8c-1.9,0.2-3.6-1.2-3.8-3.1c0-0.2,0-0.4,0-0.6c0-2.6-3.7-5.3-9.2-5.3s-9.6,2.7-9.6,5.2
				c0,1.9-1.5,3.5-3.5,3.5c-1.9,0-3.5-1.5-3.5-3.5c0-2.5-4.1-5.3-9.7-5.3s-9.7,2.8-9.7,5.3c0.2,1.9-1.2,3.6-3.1,3.8
				c-1.9,0.2-3.6-1.2-3.8-3.1c0-0.2,0-0.4,0-0.6c0-2.5-4.2-5.3-9.7-5.3S6.9,53.5,6.9,56c0.2,1.9-1.2,3.6-3.1,3.8
				c-1.9,0.2-3.6-1.2-3.8-3.1c0-0.2,0-0.4,0-0.6C0,25.1,25.1,0,56,0c30.9,0,56,25.1,56,56c0,1.9-1.5,3.5-3.4,3.5
				C108.6,59.5,108.5,59.5,108.5,59.5z M42.8,43.8c4.8-0.2,9.5,1.5,13.1,4.6c3.6-3.1,8.3-4.8,13.1-4.6c4.7-0.2,9.3,1.4,12.8,4.6
				c3.6-3.1,8.3-4.7,13-4.6c3.1,0,6.2,0.6,9,1.8C98.2,19.1,72.2,2.2,45.6,7.9C26.8,11.9,12.1,26.6,8,45.4c2.7-1.1,5.6-1.7,8.5-1.7
				c4.8-0.2,9.5,1.5,13.1,4.6C33.3,45.2,38,43.6,42.8,43.8z"/>
		</g>
	</g>
</g>
</svg>
