<?xml version="1.0" encoding="iso-8859-1"?>
<!-- Generator: Adobe Illustrator 23.0.3, SVG Export Plug-In . SVG Version: 6.00 Build 0)  -->
<svg version="1.1"
	 id="svg84762" xmlns:cc="http://creativecommons.org/ns#" xmlns:dc="http://purl.org/dc/elements/1.1/" xmlns:rdf="http://www.w3.org/1999/02/22-rdf-syntax-ns#" xmlns:svg="http://www.w3.org/2000/svg"
	 xmlns="http://www.w3.org/2000/svg" xmlns:xlink="http://www.w3.org/1999/xlink" x="0px" y="0px" viewBox="0 0 476.4 182.5"
	 style="enable-background:new 0 0 476.4 182.5;" xml:space="preserve">
<style type="text/css">
	.st0{fill:#5C5D60;}
	.st1{fill:#FFB71B;}
	.st2{fill:#F18A00;}
	.st3{fill:#6AA845;}
	.st4{fill:#4D8FCC;}
	.st5{fill:#6D6E71;}
</style>
<g>
	<polygon class="st0" points="59.6,106 59.6,73.1 30.9,86.6 30.9,119.6 	"/>
	<polygon class="st0" points="0,106 28.7,119.6 28.7,86.6 0,73.1 	"/>
	<polygon class="st1" points="0,108.5 0,140.3 28.7,153.8 28.7,122 	"/>
	<polygon class="st0" points="59.6,70.6 59.6,39.3 30.9,51.3 30.9,84.1 	"/>
	<polygon class="st0" points="0,70.6 28.7,84.1 28.7,51.2 0,37.7 	"/>
	<polygon class="st0" points="29.8,49.3 57.9,37.5 29.8,24.7 1.7,36 	"/>
	<polygon class="st0" points="60.7,36.4 88.8,24.6 60.7,12.4 32.7,23.6 	"/>
	<polygon class="st2" points="91.6,23.4 119.6,11.2 91.6,0 63.6,11.2 	"/>
	<polygon class="st0" points="90.5,56 90.5,26.3 61.8,38.3 61.8,69.5 	"/>
	<polygon class="st1" points="59.6,136.1 30.9,123.1 30.9,153.9 30.9,154.9 59.6,168.5 59.6,141.4 	"/>
	<polygon class="st1" points="32.5,121.3 60.7,134.1 89,120.8 60.7,108 	"/>
	<polygon class="st2" points="92.8,26.3 92.8,54.9 92.8,56 121.4,69.5 121.4,43.8 121.4,41.4 121.4,36.7 	"/>
	<polygon class="st2" points="122.5,12.4 94.6,24.6 122.5,34.7 149.4,23.5 	"/>
	<polygon class="st2" points="183.2,73.1 154.6,86.6 154.6,119.6 183.2,106 	"/>
	<polygon class="st2" points="123.7,73.1 123.7,106 152.3,119.6 152.3,86.6 	"/>
	<polygon class="st3" points="154.6,122 154.6,153.8 183.2,140.3 183.2,108.5 	"/>
	<polygon class="st2" points="154.6,84.1 183.2,70.6 183.2,37.5 154.6,48.5 	"/>
	<polygon class="st2" points="123.7,37.5 123.7,70.6 152.3,84.1 152.3,48.5 	"/>
	<polygon class="st2" points="125.6,35.8 153.5,46.5 181.2,35.9 152.3,24.7 	"/>
	<polygon class="st4" points="121.4,105.4 121.4,104.9 121.4,79.3 121.4,76.8 121.4,72.5 92.8,86.1 92.8,90.3 92.8,91.4 92.8,92.8 
		92.8,93.9 92.8,119 	"/>
	<polygon class="st4" points="61.8,73 61.8,104.9 61.8,106 90.5,119 90.5,93.9 90.5,91.4 90.5,86.1 	"/>
	<polygon class="st4" points="63.4,71.3 91.6,84.1 119.9,70.8 91.6,57.9 	"/>
	<polygon class="st1" points="121.4,136.6 92.8,150.2 92.8,182.5 121.4,169.5 121.4,140.4 	"/>
	<polygon class="st1" points="61.8,168.5 61.8,169.5 90.5,182.5 90.5,155.5 90.5,150.2 61.8,137.1 61.8,140.4 	"/>
	<polygon class="st1" points="91.6,148.2 119.9,134.8 91.6,122 63.4,135.4 	"/>
	<polygon class="st3" points="152.3,123 123.7,135.6 123.7,141.4 123.7,168.5 152.3,154.9 152.3,153.9 	"/>
	<polygon class="st3" points="150.7,121.3 121.4,107.4 93.2,120.7 122.5,133.6 	"/>
	<path class="st5" d="M285.1,25c0-0.1,0.1-0.2,0.2-0.2h5.4c0.1,0,0.2,0.1,0.2,0.2v0.2c0,0.1-0.1,0.2-0.2,0.2h-5v3.8h4.3
		c0.1,0,0.2,0,0.2,0.1l0,0v0.2c0,0.1-0.1,0.2-0.2,0.2h-4.3v4h4.9c0.1,0,0.2,0.1,0.2,0.2V34c0,0.1-0.1,0.2-0.2,0.2h-5.4
		c-0.1,0-0.2-0.1-0.2-0.2L285.1,25z"/>
	<path class="st5" d="M293.4,29c0-0.1,0.1-0.2,0.2-0.2h0.1l0.2,0.1v0l0.1,0.6c0.5-0.5,1.3-0.8,2-0.8c1.5,0,2.2,1,2.2,2.5v2.9
		c0,0.1-0.1,0.2-0.2,0.2h-0.2c-0.1,0-0.2-0.1-0.2-0.2v-2.9c0-1.2-0.6-1.9-1.6-1.9c-0.8,0-1.5,0.4-2,0.9v3.8l-0.1,0.2h0h-0.3
		l-0.2-0.2l0,0L293.4,29z"/>
	<path class="st5" d="M303.2,28.7c0.6,0,1.2,0.2,1.7,0.5V25c0-0.1,0.1-0.2,0.2-0.2h0.2l0.2,0.2v9.1c0,0.1-0.1,0.2-0.2,0.2h-0.1
		c-0.1,0-0.2-0.1-0.2-0.2l0,0l0-0.5c-0.5,0.5-1.2,0.8-1.9,0.8c-1.5-0.1-2.6-1.3-2.5-2.8l0,0c-0.1-1.5,1.1-2.7,2.6-2.8L303.2,28.7z
		 M303.1,33.8c0.7,0,1.4-0.4,1.8-1v-3c-0.5-0.4-1-0.6-1.6-0.6c-1.2,0-2.1,1-2.1,2.1l0,0.1C301,32.7,301.9,33.7,303.1,33.8
		L303.1,33.8z"/>
	<path class="st5" d="M308.9,38.1c0,0.1-0.1,0.2-0.2,0.2h-0.2c-0.1,0-0.2-0.1-0.2-0.2V29c0-0.1,0.1-0.2,0.2-0.2h0.2
		c0.1,0,0.1,0,0.2,0.1l0,0.4c0.5-0.4,1.1-0.6,1.8-0.6c1.5,0,2.6,1.3,2.6,2.7l0,0.1c0.1,1.5-1.1,2.8-2.6,2.8l-0.1,0
		c-0.6,0-1.2-0.2-1.6-0.6L308.9,38.1z M310.4,33.8c1.2,0,2.2-0.9,2.2-2.1l0-0.1c0.1-1.2-0.8-2.2-2-2.2l-0.1,0
		c-0.6,0-1.3,0.3-1.7,0.8v3.2C309.3,33.6,309.8,33.8,310.4,33.8z"/>
	<path class="st5" d="M318,28.7c1.6-0.1,2.9,1.2,2.9,2.7c0.1,1.6-1.2,2.9-2.7,2.9c-1.6,0.1-2.9-1.2-2.9-2.7l0-0.1
		C315.3,30,316.5,28.7,318,28.7z M318,33.8c1.2,0.1,2.3-0.9,2.4-2.1c0.1-1.2-0.9-2.3-2.1-2.4c-1.2-0.1-2.3,0.9-2.4,2.1l0,0
		C315.8,32.7,316.7,33.7,318,33.8L318,33.8z"/>
	<path class="st5" d="M323,25.8c0-0.3,0.2-0.5,0.5-0.5c0.3,0,0.5,0.2,0.5,0.5c0,0.3-0.2,0.5-0.5,0.5C323.2,26.2,323,26,323,25.8z
		 M323.2,29c0-0.1,0.1-0.2,0.2-0.2h0.2c0.1,0,0.2,0.1,0.2,0.2v5.1l-0.1,0.2l0,0h-0.3l-0.1-0.2v0V29z"/>
	<path class="st5" d="M326.6,29c0-0.1,0.1-0.2,0.2-0.2h0h0.1l0.2,0.1l0.1,0.6c0.5-0.5,1.3-0.8,2-0.8c1.5,0,2.2,1,2.2,2.5v2.9
		c0,0.1-0.1,0.2-0.2,0.2h-0.2c-0.1,0-0.2-0.1-0.2-0.2v-2.9c0-1.2-0.6-1.9-1.6-1.9c-0.7,0-1.4,0.4-1.9,0.9v3.8l-0.1,0.2l0,0h-0.3
		l-0.2-0.2l0,0V29z"/>
	<path class="st5" d="M334.3,29.4h-0.6c-0.1,0-0.2-0.1-0.2-0.2V29c0-0.1,0.1-0.1,0.2-0.1h0.6v-1.5c0-0.1,0.1-0.2,0.2-0.2h0h0.2
		c0.1,0,0.2,0.1,0.2,0.2l0,0v1.5h1.9c0.1,0,0.2,0.1,0.2,0.2v0.2c0,0.1-0.1,0.2-0.2,0.2h0h-1.9v3.4c0,0.6,0.1,1,0.7,1
		c0.4,0,0.9-0.2,1.2-0.4l0.2,0l0,0l0.1,0.2c0.1,0.1,0,0.2,0,0.2c-0.5,0.3-1,0.5-1.6,0.5c-1.1,0-1.2-0.7-1.2-1.5V29.4z"/>
	<path class="st5" d="M343.5,25c0-0.1,0.1-0.2,0.2-0.2h2.8c2.6,0,4.7,2.1,4.7,4.7s-2.1,4.7-4.7,4.7h-2.9c-0.1,0-0.2-0.1-0.2-0.2
		L343.5,25z M346.4,33.7c2.3,0,4.1-1.9,4.1-4.1s-1.9-4.1-4.1-4.1h-2.3v8.3H346.4z"/>
	<path class="st5" d="M356,28.7c1.3,0,2.4,1,2.4,2.3l0,0.2c0,0.2,0,0.5-0.2,0.5h-4.3c0,1.2,0.9,2.1,2.1,2.1c0.6,0,1.1-0.2,1.6-0.5
		c0.1-0.1,0.2-0.1,0.2,0l0.1,0.2l-0.1,0.2c-0.6,0.4-1.3,0.6-2,0.6c-1.5,0-2.7-1.2-2.7-2.6l0-0.2c-0.1-1.5,1-2.7,2.5-2.8L356,28.7z
		 M357.9,31.2c0.1-1-0.7-1.9-1.7-2l-0.2,0c-1.1,0-2,0.9-2.1,2v0H357.9z"/>
	<path class="st5" d="M361.1,29.4h-0.6c-0.1,0-0.2-0.1-0.2-0.2V29c0-0.1,0.1-0.1,0.2-0.1h0.6v-1.5c0-0.1,0.1-0.2,0.2-0.2h0h0.2
		c0.1,0,0.2,0.1,0.2,0.2v1.5h1.9c0.1,0,0.2,0.1,0.2,0.2l0,0v0.2c0,0.1-0.1,0.2-0.2,0.2l0,0h-1.9v3.4c0,0.6,0.1,1,0.7,1
		c0.4,0,0.9-0.2,1.2-0.4c0.1-0.1,0.2,0,0.2,0.1l0.1,0.2l0,0.2l0,0c-0.5,0.3-1,0.5-1.6,0.5c-1.1,0-1.2-0.7-1.2-1.5V29.4z"/>
	<path class="st5" d="M368.4,28.7c1.3,0,2.4,1,2.4,2.3v0.2c0,0.2,0,0.5-0.2,0.5h-4.3c0,1.2,0.9,2.1,2.1,2.1c0.6,0,1.1-0.2,1.6-0.5
		c0.1-0.1,0.2-0.1,0.2,0l0.1,0.2l-0.1,0.2c-0.6,0.4-1.3,0.6-2,0.6c-1.5,0-2.7-1.2-2.7-2.6l0-0.2c-0.1-1.5,1-2.7,2.5-2.8L368.4,28.7z
		 M370.2,31.2c0.1-1-0.7-1.9-1.7-2l-0.2,0c-1.1,0-2,0.9-2.1,2v0H370.2z"/>
	<path class="st5" d="M375.6,28.7c0.8,0,1.5,0.3,2,0.8l0,0.2l0,0l-0.1,0.1l-0.3,0l0,0c-0.9-0.8-2.3-0.8-3.2,0.1s-0.8,2.3,0.1,3.2
		c0.4,0.4,0.9,0.6,1.5,0.6c0.7,0,1.3-0.3,1.7-0.8c0.1-0.1,0.2-0.1,0.3,0l0.2,0.1l0,0.2c-0.5,0.7-1.3,1-2.1,1c-1.6,0-2.8-1.3-2.8-2.8
		C372.8,30,374.1,28.7,375.6,28.7L375.6,28.7z"/>
	<path class="st5" d="M380.5,29.4h-0.6c-0.1,0-0.2-0.1-0.2-0.2V29c0-0.1,0.1-0.1,0.2-0.1h0.6v-1.5c0-0.1,0.1-0.2,0.1-0.2l0,0h0.2
		c0.1,0,0.2,0.1,0.2,0.2v1.5h1.9c0.1,0,0.2,0.1,0.2,0.2v0v0.2c0,0.1-0.1,0.2-0.2,0.2l0,0H381v3.4c0,0.6,0.1,1,0.7,1
		c0.4,0,0.9-0.2,1.2-0.4c0.1-0.1,0.2,0,0.2,0.1l0.1,0.2l0,0.2l0,0c-0.5,0.3-1,0.5-1.6,0.5c-1.1,0-1.2-0.7-1.2-1.5L380.5,29.4z"/>
	<path class="st5" d="M385.3,25.8c0-0.3,0.2-0.5,0.5-0.5c0.3,0,0.5,0.2,0.5,0.5v0c0,0.3-0.2,0.5-0.5,0.5
		C385.5,26.2,385.3,26,385.3,25.8z M385.5,29c0-0.1,0.1-0.2,0.2-0.2h0.2c0.1,0,0.2,0.1,0.2,0.2v5.1l-0.1,0.2h0h-0.3l-0.2-0.2v0V29z"
		/>
	<path class="st5" d="M391.2,28.7c1.6-0.1,2.9,1.2,2.9,2.7s-1.2,2.9-2.7,2.9c-1.6,0.1-2.9-1.2-2.9-2.7l0-0.1
		C388.5,30,389.7,28.7,391.2,28.7z M391.2,33.8c1.2,0.1,2.3-0.9,2.4-2.1c0.1-1.2-0.9-2.3-2.1-2.4c-1.2-0.1-2.3,0.9-2.4,2.1l0,0
		C389,32.7,390,33.8,391.2,33.8L391.2,33.8z"/>
	<path class="st5" d="M396.4,29c0-0.1,0.1-0.2,0.2-0.2h0h0.2l0.2,0.1v0l0.1,0.6c0.5-0.5,1.3-0.8,2-0.8c1.5,0,2.2,1,2.2,2.5v2.9
		c0,0.1-0.1,0.2-0.2,0.2h-0.2c-0.1,0-0.2-0.1-0.2-0.2v-2.9c0-1.2-0.6-1.9-1.6-1.9c-0.7,0-1.4,0.4-1.9,0.9v3.8l-0.1,0.2l0,0h-0.3
		l-0.2-0.2l0,0L396.4,29z"/>
	<path class="st5" d="M409.8,29.2l-0.2-0.2c-0.7-0.5-1.1-1.3-1.2-2.2c0-1.2,1-2.1,2.2-2.1l0.1,0c1.1-0.1,2.1,0.7,2.2,1.8l0,0.2
		c0,1.1-1.2,2-2.3,2.6l2.8,2.7c0.5-0.8,0.8-1.8,0.8-2.7V29c0-0.1,0-0.1,0.1-0.1h0.3l0.2,0.1v0.3c0,1.1-0.4,2.2-1,3.1l1.4,1.4
		c0.1,0.1,0.2,0.2,0.1,0.3l-0.2,0.2c-0.1,0.1-0.2,0-0.3,0l-1.3-1.4c-0.8,0.9-1.9,1.5-3.1,1.5c-1.3,0.1-2.5-0.9-2.6-2.3l0-0.2
		C407.8,30.5,408.9,29.7,409.8,29.2z M410.4,33.8c1.1,0,2.1-0.5,2.7-1.3l-2.9-3c-1,0.4-1.7,1.3-1.8,2.4c0,1.1,0.8,1.9,1.9,2
		L410.4,33.8z M412.4,26.7c0-0.8-0.7-1.5-1.5-1.5l-0.1,0c-0.9-0.1-1.6,0.6-1.7,1.5l0,0.1c0.1,0.7,0.4,1.3,0.9,1.7
		c0.1,0.1,0.3,0.3,0.4,0.4C411.3,28.4,412.4,27.7,412.4,26.7z"/>
	<path class="st5" d="M421.7,25c0-0.1,0.1-0.2,0.2-0.2h3.3c1.6,0,2.9,1.2,3,2.8c0,1.4-0.9,2.6-2.2,2.9l2,3.5c0.1,0.1,0,0.2-0.1,0.2
		h-0.4l-0.2-0.1l-2-3.5c-0.2,0-0.3,0-0.5,0h-2.5v3.5c0,0.1-0.1,0.2-0.2,0.2l0,0h-0.2c-0.1,0-0.2-0.1-0.2-0.2L421.7,25z M425.3,30
		c1.3,0,2.4-1,2.4-2.3v0c0-1.3-1.1-2.3-2.4-2.3h-2.8V30H425.3z"/>
	<path class="st5" d="M432.8,28.7c1.3,0,2.4,1,2.4,2.3l0,0.2c0,0.2,0,0.5-0.2,0.5h-4.3c0,1.2,0.9,2.1,2.1,2.1c0.6,0,1.1-0.2,1.6-0.5
		c0.1-0.1,0.2-0.1,0.2,0l0.1,0.2l-0.1,0.2c-0.6,0.4-1.3,0.6-2,0.6c-1.5,0-2.7-1.2-2.7-2.6l0-0.2c-0.1-1.5,1-2.7,2.5-2.8L432.8,28.7z
		 M434.7,31.2c0.1-1-0.7-1.9-1.7-2l-0.2,0c-1.1,0-2,0.9-2.1,2v0H434.7z"/>
	<path class="st5" d="M437.4,33.6l0.1-0.2l0.2,0l0,0c0.4,0.3,0.9,0.5,1.4,0.5c0.8,0,1.3-0.4,1.3-1s-0.6-0.9-1.5-1.2
		s-1.7-0.8-1.7-1.6c0.1-0.9,0.8-1.5,1.7-1.4l0.1,0c0.5,0,1.1,0.2,1.5,0.4l0.1,0.3l-0.1,0.1l-0.3,0.1c-0.4-0.2-0.8-0.4-1.2-0.4
		c-0.8,0-1.2,0.5-1.2,0.9c0,0.5,0.5,0.8,1.3,1.1c1,0.4,1.9,0.8,1.9,1.7c-0.1,0.9-1,1.6-1.9,1.5c-0.6,0-1.3-0.2-1.8-0.6L437.4,33.6
		L437.4,33.6z"/>
	<path class="st5" d="M444.1,38.1c0,0.1-0.1,0.2-0.2,0.2h-0.2c-0.1,0-0.2-0.1-0.2-0.2V29c0-0.1,0.1-0.2,0.2-0.2h0.2
		c0.1,0,0.1,0,0.2,0.1l0,0.4c0.5-0.4,1.1-0.6,1.8-0.6c1.5,0,2.6,1.3,2.6,2.7l0,0.1c0.1,1.5-1.1,2.8-2.6,2.8l-0.1,0
		c-0.6,0-1.2-0.2-1.6-0.6V38.1z M445.6,33.8c1.2,0,2.2-0.9,2.2-2.1l0-0.1c0.1-1.2-0.8-2.2-2-2.2l-0.1,0c-0.6,0-1.3,0.3-1.7,0.8v3.2
		C444.5,33.6,445,33.8,445.6,33.8z"/>
	<path class="st5" d="M453.2,28.7c1.6-0.1,2.9,1.1,3,2.7c0.1,1.6-1.1,2.9-2.7,3s-2.9-1.1-3-2.7l0-0.2
		C450.4,30,451.7,28.7,453.2,28.7z M453.2,33.8c1.2,0.1,2.3-0.9,2.4-2.1s-0.9-2.3-2.1-2.4c-1.2-0.1-2.3,0.9-2.4,2.1l0,0
		C451,32.7,451.9,33.7,453.2,33.8L453.2,33.8z"/>
	<path class="st5" d="M458.3,29c0-0.1,0.1-0.2,0.2-0.2h0h0.1l0.2,0.1v0l0.1,0.6c0.5-0.5,1.2-0.8,2-0.8c1.5,0,2.2,1,2.2,2.5v2.9
		c0,0.1-0.1,0.2-0.2,0.2h-0.2c-0.1,0-0.2-0.1-0.2-0.2v-2.9c0-1.2-0.6-1.9-1.6-1.9c-0.7,0-1.4,0.4-1.9,0.9v3.8l-0.1,0.2h0h-0.3
		l-0.1-0.2v0V29z"/>
	<path class="st5" d="M465.5,33.6l0.1-0.2l0.2,0l0,0c0.4,0.3,0.9,0.5,1.4,0.5c0.8,0,1.3-0.4,1.3-1s-0.6-0.9-1.5-1.2
		c-0.9-0.3-1.7-0.8-1.7-1.6c0.1-0.9,0.8-1.5,1.7-1.4l0.1,0c0.5,0,1.1,0.2,1.5,0.4l0.1,0.3l-0.1,0.1c-0.1,0.1-0.2,0.1-0.3,0.1
		c-0.4-0.2-0.8-0.4-1.2-0.4c-0.9,0-1.2,0.5-1.2,0.9c0,0.5,0.5,0.8,1.3,1.1c1,0.4,1.9,0.8,1.9,1.7c-0.1,0.9-1,1.6-1.9,1.5
		c-0.6,0-1.3-0.2-1.8-0.6L465.5,33.6z"/>
	<path class="st5" d="M473.9,28.7c1.3,0,2.4,1,2.4,2.3l0,0.2c0,0.2,0,0.5-0.2,0.5h-4.3c0,1.2,0.9,2.1,2.1,2.1c0.6,0,1.1-0.2,1.6-0.5
		c0.1-0.1,0.2-0.1,0.2,0l0.1,0.2l-0.1,0.2c-0.6,0.4-1.3,0.6-2,0.6c-1.5,0-2.7-1.2-2.7-2.6l0-0.2c-0.1-1.5,1-2.7,2.5-2.8L473.9,28.7z
		 M475.8,31.2c0.1-1-0.7-1.9-1.7-2l-0.2,0c-1.1,0-2,0.9-2.1,2l0,0H475.8z"/>
	<polygon class="st0" points="268.2,37.2 268.2,26.5 258.4,30.6 258.4,41.8 	"/>
	<polygon class="st0" points="248,37.2 257.7,41.8 257.7,30.6 248,26 	"/>
	<polygon class="st0" points="258.1,29.9 267.6,26 258.1,21.6 248.5,25.4 	"/>
	<path class="st5" d="M285.1,84.5c0-0.1,0.1-0.2,0.2-0.2h2.9c1.7,0,3,1.4,3,3s-1.4,3-3,3h-2.4v3.2c0,0.1-0.1,0.2-0.2,0.2h-0.2
		c-0.1,0-0.2-0.1-0.2-0.2v0V84.5z M288.2,89.8c1.4,0,2.4-1.1,2.4-2.5c0-1.3-1.1-2.4-2.5-2.4h-2.4v4.8H288.2z"/>
	<path class="st5" d="M293.3,88.6c0-0.1,0.1-0.2,0.2-0.2h0.2l0.2,0.1l0.1,0.6c0.4-0.5,1-0.8,1.7-0.8c0.3,0,0.6,0.1,0.8,0.2
		c0.1,0,0.2,0.1,0.2,0.2l0,0l-0.1,0.3c0,0.1-0.1,0.1-0.2,0.1c-0.2-0.1-0.5-0.2-0.7-0.2c-0.7,0-1.3,0.4-1.6,0.9v3.8l-0.1,0.2l0,0
		h-0.3l-0.2-0.2l0,0V88.6z"/>
	<path class="st5" d="M298.3,85.3c0-0.3,0.2-0.5,0.5-0.5c0.3,0,0.5,0.2,0.5,0.5c0,0.3-0.2,0.5-0.5,0.5
		C298.5,85.8,298.3,85.6,298.3,85.3z M298.5,88.6c0-0.1,0.1-0.2,0.2-0.2h0h0.2c0.1,0,0.2,0.1,0.2,0.2v5l-0.1,0.2l0,0h-0.3
		c-0.1,0-0.1-0.1-0.1-0.2V88.6z"/>
	<path class="st5" d="M301.1,88.6c-0.1-0.1,0-0.2,0.1-0.2h0.3l0.2,0.1l2,4.5l2-4.5l0.2-0.1h0.3c0.1,0,0.1,0.1,0.1,0.2l-2.4,5.3
		l-0.2,0.1h-0.1c-0.1,0-0.1,0-0.2-0.1L301.1,88.6z"/>
	<path class="st5" d="M308.1,85.3c0-0.3,0.1-0.5,0.4-0.5c0.3,0,0.5,0.1,0.5,0.4v0.1c0,0.3-0.3,0.4-0.5,0.4
		C308.3,85.7,308.1,85.5,308.1,85.3z M308.2,88.6c0-0.1,0.1-0.2,0.2-0.2h0.2c0.1,0,0.2,0.1,0.2,0.2v5l-0.1,0.2h0h-0.3l-0.2-0.1l0,0
		V88.6z"/>
	<path class="st5" d="M311.7,84.5c0-0.1,0.1-0.2,0.2-0.2h0.2c0.1,0,0.2,0.1,0.2,0.2v9.1l-0.1,0.2l0,0h-0.3c-0.1,0-0.1-0.1-0.1-0.2
		V84.5z"/>
	<path class="st5" d="M317.4,88.3c1.3,0,2.4,1,2.4,2.3l0,0.2c0,0.2,0,0.5-0.2,0.5h-4.3c0,1.2,0.9,2.1,2.1,2.1c0.6,0,1.1-0.2,1.6-0.5
		c0.1-0.1,0.2-0.1,0.2,0l0.1,0.2l-0.1,0.2c-0.6,0.4-1.3,0.6-2,0.6c-1.6-0.1-2.7-1.5-2.6-3C314.9,89.5,316,88.4,317.4,88.3z
		 M319.3,90.8c0.1-1-0.7-1.9-1.7-2l-0.2,0c-1.1,0-2,0.9-2.1,2v0H319.3z"/>
	<path class="st5" d="M322.6,91.9c-0.3-0.4-0.4-0.9-0.4-1.4c0-1.2,1-2.3,2.2-2.3l0.1,0h2.3c0.1,0,0.2,0.1,0.2,0.2v0v0.1l-0.1,0.2
		l-1,0.1c0.6,0.4,0.9,1,0.8,1.7c0,1.2-0.9,2.2-2.1,2.3h-0.1c-0.5,0-1.1-0.1-1.5-0.5c-0.4,0.2-0.7,0.5-0.7,1c0,0.6,0.5,0.8,1.1,0.8h2
		c1.2,0,2,0.5,2,1.7c0,1.2-1.1,2.2-2.8,2.2c-1.8,0-2.6-1.1-2.6-2c0-0.6,0.3-1.1,0.9-1.4c-0.6-0.1-1-0.6-1.1-1.2
		C321.7,92.8,322.1,92.2,322.6,91.9z M324.5,97.5c1.2,0,2.2-0.8,2.2-1.6c0-0.6-0.4-1.2-1.4-1.2h-1.7c-0.6,0.2-1,0.7-1.1,1.3
		C322.5,96.7,323.3,97.5,324.5,97.5z M326.1,90.6c0.1-0.9-0.6-1.7-1.5-1.7l-0.2,0c-0.9,0-1.7,0.7-1.7,1.6v0.1
		c-0.1,0.9,0.6,1.7,1.5,1.7l0.2,0c0.9,0,1.6-0.7,1.7-1.6L326.1,90.6z"/>
	<path class="st5" d="M331.6,88.3c1.3,0,2.4,1,2.4,2.3l0,0.2c0,0.2,0,0.5-0.2,0.5h-4.3c0,1.2,0.9,2.1,2.1,2.1c0.6,0,1.1-0.2,1.6-0.5
		c0.1-0.1,0.2-0.1,0.2,0l0.1,0.2l-0.1,0.2c-0.6,0.4-1.3,0.6-2,0.6c-1.6-0.1-2.7-1.5-2.6-3C329,89.5,330.2,88.4,331.6,88.3z
		 M333.4,90.8c0.1-1-0.7-1.9-1.7-2l-0.2,0c-1.1,0-2,0.9-2.1,2v0H333.4z"/>
	<path class="st5" d="M341.7,84.3l0.1-0.1h0.1l0.1,0.1l2.8,8.3l2.8-8.3l0.1-0.1h0.2l0.1,0.1l1.9,9.3c0,0.1,0,0.2-0.1,0.2h-0.3
		l-0.2-0.1l-1.5-7.9l-2.7,8.1L345,94h-0.1c-0.1,0-0.2,0-0.2-0.1l-2.7-8.1l-1.5,7.9l-0.2,0.1H340c-0.1,0-0.2,0-0.1-0.2L341.7,84.3z"
		/>
	<path class="st5" d="M354.3,90.3c0.5,0,0.9,0.1,1.4,0.2c0-1.2-0.1-1.8-1.2-1.8c-0.6,0-1.1,0.1-1.6,0.4c-0.1,0-0.2,0-0.2-0.1
		l-0.1-0.2l0.1-0.2l0,0c0.6-0.3,1.2-0.4,1.8-0.4c1.7,0,1.7,1,1.7,2.4v3c0,0.1-0.1,0.2-0.2,0.2h-0.2c-0.1,0-0.1-0.1-0.2-0.1l-0.1-0.5
		c-0.5,0.5-1.2,0.7-1.9,0.8c-0.9,0-1.7-0.7-1.8-1.6l0-0.2C352.1,91.1,352.9,90.3,354.3,90.3z M353.9,93.4c0.7,0,1.3-0.3,1.8-0.8
		v-1.5c-0.4-0.2-0.9-0.3-1.4-0.3c-1,0-1.7,0.5-1.7,1.3c0,0.7,0.5,1.2,1.1,1.3L353.9,93.4z"/>
	<path class="st5" d="M359.1,88.6c0-0.1,0.1-0.2,0.2-0.2h0.1l0.2,0.1l0.1,0.6c0.5-0.5,1.2-0.8,2-0.9c1.5,0,2.2,1,2.2,2.5v2.9
		c0,0.1-0.1,0.2-0.2,0.2h0h-0.2c-0.1,0-0.2-0.1-0.2-0.2v-2.9c0-1.2-0.6-1.9-1.6-1.9c-0.7,0-1.4,0.4-1.9,0.9v3.8l-0.1,0.2l0,0h-0.2
		l-0.2-0.2v0L359.1,88.6z"/>
	<path class="st5" d="M368.4,90.3c0.5,0,0.9,0.1,1.4,0.2c0-1.2-0.1-1.8-1.2-1.8c-0.6,0-1.1,0.1-1.6,0.4c-0.1,0-0.2,0-0.2-0.1
		l-0.1-0.2l0.1-0.2l0,0c0.6-0.3,1.2-0.4,1.9-0.4c1.7,0,1.7,1,1.7,2.4v3c0,0.1-0.1,0.2-0.2,0.2h0H370c-0.1,0-0.1-0.1-0.2-0.1
		l-0.1-0.5c-0.5,0.5-1.2,0.7-1.9,0.8c-0.9,0-1.7-0.7-1.8-1.6l0-0.2C366.1,91.1,367,90.3,368.4,90.3z M368,93.4
		c0.7,0,1.3-0.3,1.8-0.8v-1.5c-0.4-0.2-0.9-0.3-1.4-0.3c-1,0-1.7,0.5-1.7,1.3c0,0.7,0.5,1.2,1.1,1.3H368z"/>
	<path class="st5" d="M373.5,91.9c-0.3-0.4-0.4-0.9-0.4-1.4c0-1.2,1-2.3,2.2-2.3l0.1,0h2.2c0.1,0,0.2,0.1,0.2,0.2v0v0.1l-0.1,0.2
		l-1,0.1c0.6,0.4,0.9,1,0.8,1.7c0,1.2-0.9,2.2-2.1,2.3h-0.1c-0.5,0-1.1-0.1-1.5-0.5c-0.4,0.2-0.7,0.5-0.7,1c0,0.6,0.5,0.8,1.1,0.8h2
		c1.2,0,2,0.5,2,1.7c0,1.2-1.1,2.2-2.8,2.2c-1.8,0-2.6-1.1-2.6-2c0-0.6,0.3-1.1,0.8-1.4c-0.6-0.1-1-0.6-1-1.2
		C372.6,92.7,373,92.2,373.5,91.9z M375.4,97.5c1.2,0,2.2-0.8,2.2-1.6c0-0.6-0.4-1.2-1.4-1.2h-1.7c-0.6,0.2-1,0.7-1.1,1.3
		C373.4,96.7,374.1,97.5,375.4,97.5L375.4,97.5z M377,90.6c0.1-0.9-0.6-1.7-1.5-1.7l-0.2,0c-0.9,0-1.7,0.7-1.7,1.6v0.1
		c-0.1,0.9,0.6,1.7,1.5,1.7l0.2,0C376.3,92.3,377,91.6,377,90.6L377,90.6L377,90.6z"/>
	<path class="st5" d="M382.5,88.3c1.3,0,2.4,1,2.4,2.3l0,0.2c0,0.2,0,0.5-0.2,0.5h-4.3c0,1.2,0.9,2.1,2.1,2.1c0.6,0,1.1-0.2,1.6-0.5
		c0.1-0.1,0.2-0.1,0.2,0l0.1,0.2l-0.1,0.2c-0.6,0.4-1.3,0.6-2,0.6c-1.6-0.1-2.7-1.5-2.6-3C380,89.5,381.1,88.4,382.5,88.3z
		 M384.4,90.8c0.1-1-0.7-1.9-1.7-2l-0.2,0c-1.1,0-2,0.9-2.1,2v0H384.4z"/>
	<path class="st5" d="M387.3,88.6c0-0.1,0.1-0.2,0.2-0.2h0.2l0.2,0.1l0.1,0.6c0.5-0.6,1.1-0.9,1.9-0.9c0.7-0.1,1.4,0.3,1.8,1
		c0.5-0.6,1.2-1,2-1c1.5,0,2.1,1,2.1,2.5v2.9c0,0.1-0.1,0.2-0.2,0.2h-0.3l-0.2-0.2l0,0v-2.9c0-1.2-0.5-1.9-1.6-1.9
		c-0.7,0-1.4,0.4-1.8,0.9c0.1,0.3,0.1,0.6,0.1,1v2.9c0,0.1-0.1,0.2-0.2,0.2h-0.3l-0.2-0.1v0v-2.9c0-1.2-0.6-1.9-1.6-1.9
		c-0.7,0-1.4,0.4-1.8,0.9v3.8l-0.1,0.2h0h-0.3l-0.2-0.1l0,0L387.3,88.6z"/>
	<path class="st5" d="M400.7,88.3c1.3,0,2.4,1,2.4,2.3l0,0.2c0,0.2,0,0.5-0.2,0.5h-4.3c0,1.2,0.9,2.1,2.1,2.1c0.6,0,1.1-0.2,1.6-0.5
		c0.1-0.1,0.2-0.1,0.2,0l0.1,0.2l-0.1,0.2c-0.6,0.4-1.3,0.6-2,0.6c-1.6-0.1-2.7-1.5-2.6-3C398.2,89.5,399.3,88.4,400.7,88.3z
		 M402.5,90.8c0.1-1-0.7-1.9-1.7-2l-0.2,0c-1.1,0-2,0.9-2.1,2v0H402.5z"/>
	<path class="st5" d="M405.5,88.6c0-0.1,0.1-0.2,0.2-0.2h0.1l0.2,0.1v0l0.1,0.6c0.5-0.5,1.2-0.8,2-0.9c1.5,0,2.2,1,2.2,2.5v2.9
		c0,0.1-0.1,0.2-0.2,0.2h-0.2c-0.1,0-0.2-0.1-0.2-0.2v-2.9c0-1.2-0.6-1.9-1.6-1.9c-0.7,0-1.4,0.4-1.9,0.9v3.8l-0.1,0.2h0h-0.3
		l-0.2-0.1l0,0V88.6z"/>
	<path class="st5" d="M413.3,88.9h-0.6c-0.1,0-0.2-0.1-0.2-0.2v-0.2c0-0.1,0.1-0.1,0.2-0.1h0.6v-1.5c0-0.1,0.1-0.2,0.2-0.2h0h0.2
		c0.1,0,0.2,0.1,0.2,0.2v1.5h1.9c0.1,0,0.2,0.1,0.2,0.2v0v0.2c0,0.1-0.1,0.2-0.2,0.2l0,0h-1.9v3.5c0,0.6,0.1,1,0.7,1
		c0.4,0,0.8-0.2,1.2-0.4c0.1-0.1,0.2,0,0.2,0.1l0.1,0.2v0.2c-0.5,0.3-1,0.5-1.6,0.5c-1.1,0-1.2-0.7-1.2-1.5L413.3,88.9z"/>
	<polygon class="st4" points="268.2,96.7 268.2,86.1 258.4,90.2 258.4,101.3 	"/>
	<polygon class="st4" points="248,96.7 257.7,101.3 257.7,90.2 248,85.6 	"/>
	<polygon class="st4" points="258.1,89.5 267.6,85.5 258.1,81.2 248.5,85 	"/>
	<path class="st5" d="M283.8,63.9l4.2-9.4l0.2-0.1h0l0.2,0.1l4.1,9.4c0,0.1,0,0.2-0.1,0.2h-0.4l-0.2-0.1l-1.1-2.5h-5.2l-1.1,2.5
		l-0.2,0.1h-0.4C283.8,64,283.7,64,283.8,63.9z M290.4,60.9l-2.3-5.4l-2.4,5.5L290.4,60.9z"/>
	<path class="st5" d="M294.3,58.8c0-0.1,0.1-0.2,0.2-0.2h0h0.1l0.2,0.1l0.1,0.6c0.5-0.5,1.2-0.8,2-0.8c1.5,0,2.2,1,2.2,2.5v2.9
		c0,0.1-0.1,0.2-0.2,0.2h-0.2c-0.1,0-0.2-0.1-0.2-0.2V61c0-1.2-0.6-1.9-1.6-1.9c-0.7,0-1.4,0.4-1.9,0.9v3.8l-0.1,0.2l0,0h-0.3
		c-0.1,0-0.1-0.1-0.1-0.2V58.8z"/>
	<path class="st5" d="M302.1,59.2h-0.6c-0.1,0-0.2-0.1-0.2-0.2v-0.2c0-0.1,0.1-0.1,0.2-0.1h0.6v-1.5l0.2-0.1h0.2
		c0.1,0,0.2,0.1,0.2,0.2v1.5h1.8c0.1,0,0.2,0.1,0.2,0.2v0V59c0,0.1-0.1,0.2-0.1,0.2l0,0h-1.9v3.4c0,0.6,0.1,1,0.7,1
		c0.4,0,0.9-0.2,1.2-0.4c0.1-0.1,0.2,0,0.2,0.1l0.1,0.2l0,0.2l0,0c-0.5,0.3-1,0.5-1.6,0.5c-1.1,0-1.2-0.7-1.2-1.5L302.1,59.2z"/>
	<path class="st5" d="M306.9,55.5c0-0.3,0.1-0.5,0.4-0.5c0.3,0,0.5,0.1,0.5,0.4v0.1c0,0.3-0.3,0.4-0.5,0.4
		C307.1,55.9,306.9,55.7,306.9,55.5z M307.1,58.8c0-0.1,0.1-0.2,0.2-0.2h0.2c0.1,0,0.2,0.1,0.2,0.2v5l-0.1,0.2l0,0h-0.3
		c-0.1,0-0.2-0.1-0.2-0.2V58.8z"/>
	<path class="st5" d="M309.8,58.8c-0.1-0.1,0-0.2,0.1-0.2h0.3l0.2,0.1l2,4.5l2-4.5l0.2-0.1h0.3c0.1,0,0.1,0.1,0.1,0.2l-2.4,5.2
		l-0.2,0.1h-0.1c-0.1,0-0.1,0-0.2-0.1L309.8,58.8z"/>
	<path class="st5" d="M316.7,55.5c0-0.3,0.1-0.5,0.4-0.5c0.3,0,0.5,0.1,0.5,0.4v0.1c0,0.3-0.3,0.4-0.5,0.4
		C316.9,55.9,316.7,55.7,316.7,55.5z M316.9,58.8c0-0.1,0.1-0.2,0.2-0.2h0.2c0.1,0,0.2,0.1,0.2,0.2v5l-0.1,0.2l0,0H317
		c-0.1,0-0.2-0.1-0.2-0.2L316.9,58.8z"/>
	<path class="st5" d="M320.3,58.8c0-0.1,0.1-0.2,0.2-0.2h0.2l0.2,0.1l0.1,0.6c0.4-0.5,1-0.8,1.7-0.8c0.3,0,0.6,0.1,0.8,0.2
		c0.1,0,0.2,0.1,0.2,0.2l0,0l-0.1,0.3l-0.2,0.1l0,0c-0.2-0.1-0.5-0.2-0.7-0.2c-0.7,0-1.3,0.4-1.6,0.9v3.8l-0.1,0.2l0,0h-0.3
		c-0.1,0-0.2-0.1-0.2-0.2V58.8z"/>
	<path class="st5" d="M325.4,58.8c0-0.1,0.1-0.2,0.2-0.2h0.2c0.1,0,0.2,0.1,0.2,0.2v2.9c0,1.3,0.6,1.9,1.6,1.9
		c0.7,0,1.4-0.4,1.8-0.9v-3.8c0-0.1,0.1-0.2,0.1-0.2h0h0.2c0.1,0,0.2,0.1,0.2,0.2v0v5c0,0.1-0.1,0.2-0.2,0.2l0,0h-0.2
		c-0.1,0-0.1-0.1-0.2-0.2l-0.1-0.5c-0.5,0.5-1.2,0.8-1.9,0.8c-1.5,0-2.2-0.9-2.2-2.5V58.8z"/>
	<path class="st5" d="M332.5,63.4l0.1-0.2l0.2,0l0,0c0.4,0.3,0.9,0.5,1.4,0.5c0.8,0,1.3-0.4,1.3-1c0-0.5-0.6-0.9-1.5-1.2
		c-0.9-0.3-1.7-0.8-1.7-1.6c0.1-0.9,0.8-1.5,1.7-1.4l0.1,0c0.5,0,1,0.1,1.5,0.4l0.1,0.3l-0.1,0.1l-0.2,0.1l0,0
		c-0.4-0.2-0.8-0.4-1.2-0.4c-0.8,0-1.2,0.5-1.2,0.9c0,0.5,0.5,0.8,1.3,1.1c1,0.4,1.9,0.7,1.9,1.7c-0.1,0.9-1,1.6-1.9,1.5
		c-0.6,0-1.3-0.2-1.8-0.6L332.5,63.4z"/>
	<path class="st5" d="M341.2,54.7l0.2-0.1h0.2c0.1,0,0.2,0.1,0.2,0.2l-3,9.1l-0.2,0.1h-0.2c-0.1,0-0.2-0.1-0.1-0.2L341.2,54.7z"/>
	<path class="st5" d="M344.3,54.6c0-0.1,0.1-0.2,0.2-0.2l0,0h0.2l6.5,8.4v-8.1c0-0.1,0.1-0.2,0.2-0.2h0.3c0.1,0,0.2,0.1,0.2,0.2V64
		c0,0.1-0.1,0.2-0.2,0.2h-0.2c0,0-0.1,0-6.5-8.5v8.2c0,0.1-0.1,0.2-0.2,0.2l0,0h-0.3c-0.1,0-0.2-0.1-0.2-0.2V54.6z"/>
	<path class="st5" d="M359.7,54.4c1.2,0,2.4,0.4,3.3,1.3l0,0.2l0,0l-0.2,0.2h-0.2c-0.8-0.7-1.8-1.1-2.8-1.1c-2.3,0-4.3,1.9-4.3,4.3
		s1.9,4.3,4.3,4.3c1,0,2-0.2,2.8-0.8v-2.5h-2.3c-0.1,0-0.2-0.1-0.2-0.2v-0.3c0-0.1,0-0.2,0.2-0.2h2.8c0.1,0,0.2,0.1,0.2,0.2V63
		c0,0.1-0.1,0.3-0.2,0.3c-1,0.6-2.1,0.9-3.2,0.9c-2.7,0-4.9-2.2-4.9-4.9S357.1,54.4,359.7,54.4L359.7,54.4z"/>
	<path class="st5" d="M365,63.9l4.2-9.4l0.2-0.1h0l0.2,0.1l4.1,9.4c0,0.1,0,0.2-0.1,0.2h-0.4l-0.2-0.1l-1.1-2.5h-5.1l-1.1,2.5
		l-0.2,0.1h-0.4C365,64,365,64,365,63.9z M371.7,60.9l-2.3-5.4l-2.4,5.5L371.7,60.9z"/>
	<path class="st5" d="M374.1,54.8c-0.1-0.1,0-0.2,0.1-0.2h0.4l0.2,0.1l3.6,8.4l3.7-8.4l0.2-0.1h0.4c0.1,0,0.2,0.1,0.1,0.2l-4.1,9.3
		l-0.2,0.1h-0.1l-0.2-0.1L374.1,54.8z"/>
	<polygon class="st2" points="268.2,67 268.2,56.3 258.4,60.4 258.4,71.5 	"/>
	<polygon class="st2" points="248,67 257.7,71.5 257.7,60.4 248,55.8 	"/>
	<polygon class="st2" points="258.1,59.7 267.6,55.8 258.1,51.4 248.5,55.2 	"/>
	<path class="st5" d="M289.3,143.8c2.7,0,4.9,2.2,4.9,4.9c0,2.7-2.2,4.9-4.9,4.9s-4.9-2.2-4.9-4.9
		C284.4,146,286.6,143.8,289.3,143.8L289.3,143.8z M289.3,152.9c2.4,0,4.3-1.9,4.3-4.3c0-2.4-1.9-4.3-4.3-4.3
		c-2.4,0-4.3,1.9-4.3,4.3v0C285,151,286.9,152.9,289.3,152.9L289.3,152.9z"/>
	<path class="st5" d="M296.6,152.1l0.1-0.2c0.1-0.1,0.2-0.2,0.3-0.1c0.7,0.6,1.6,1,2.5,1c1.2,0,2.3-0.8,2.3-1.8c0-1.2-1-1.7-2.6-2.3
		c-1.6-0.6-2.6-1.1-2.6-2.7c0-1,0.8-2.4,2.9-2.4c0.8,0,1.6,0.2,2.3,0.7c0.1,0.1,0.1,0.2,0.1,0.3l0,0l-0.1,0.2
		c-0.1,0.1-0.2,0.1-0.3,0.1l0,0c-0.6-0.4-1.3-0.6-2-0.6c-1.7,0-2.3,1-2.3,1.8c0,1.1,0.9,1.6,2.3,2.1c1.9,0.6,3,1.3,3,2.8
		c0,1.3-1.4,2.4-2.9,2.4c-1.1,0-2.1-0.4-2.9-1.1V152.1L296.6,152.1z"/>
	<path class="st5" d="M309.1,144.1c0-0.1,0.1-0.2,0.2-0.2h0h2.9c1.7,0,3,1.4,3,3s-1.4,3-3,3h0h-2.5v3.2c0,0.1-0.1,0.2-0.2,0.2l0,0
		h-0.2c-0.1,0-0.2-0.1-0.2-0.2v0L309.1,144.1z M312.1,149.4c1.3,0,2.4-1.1,2.4-2.5c0-1.3-1.1-2.4-2.5-2.4h-2.4v4.8H312.1z"/>
	<path class="st5" d="M318.9,149.9c0.5,0,0.9,0.1,1.4,0.2c0-1.2-0.1-1.8-1.2-1.8c-0.6,0-1.1,0.1-1.6,0.4l-0.2-0.1l0,0l0-0.1
		c0-0.1,0-0.2,0.1-0.2c0.6-0.3,1.2-0.4,1.9-0.4c1.6,0,1.7,1,1.7,2.4v3c0,0.1-0.1,0.2-0.2,0.2h-0.2c-0.1,0-0.1-0.1-0.2-0.1l-0.1-0.5
		c-0.5,0.5-1.2,0.7-1.9,0.8c-0.9,0-1.7-0.7-1.8-1.6l0-0.2C316.7,150.7,317.5,149.9,318.9,149.9z M318.5,153c0.7,0,1.3-0.3,1.8-0.8
		v-1.5c-0.4-0.2-0.9-0.3-1.4-0.3c-1,0-1.7,0.5-1.7,1.3c0,0.7,0.5,1.3,1.2,1.3L318.5,153L318.5,153z"/>
	<path class="st5" d="M323.9,148.5h-0.7c-0.1,0-0.2-0.1-0.2-0.2v-0.2c0-0.1,0.1-0.1,0.2-0.1h0.6v-1.5c0-0.1,0.1-0.2,0.2-0.2h0h0.2
		c0.1,0,0.2,0.1,0.2,0.2v1.5h1.9c0.1,0,0.2,0.1,0.2,0.1v0v0.2c0,0.1-0.1,0.2-0.1,0.2h0h-1.9v3.4c0,0.6,0.1,1,0.7,1
		c0.4,0,0.8-0.2,1.2-0.4c0.1-0.1,0.2,0,0.2,0.1l0.1,0.2l0,0.2l0,0c-0.5,0.3-1,0.5-1.6,0.5c-1.1,0-1.2-0.7-1.2-1.5L323.9,148.5z"/>
	<path class="st5" d="M331.3,147.9c0.8,0,1.5,0.3,2,0.8l0,0.2l0,0l-0.1,0.1l-0.3,0l0,0c-0.9-0.8-2.3-0.8-3.2,0.1s-0.8,2.3,0.1,3.2
		c0.4,0.4,0.9,0.6,1.5,0.6c0.7,0,1.3-0.3,1.7-0.8c0.1-0.1,0.2-0.1,0.3,0l0.1,0.1l0.1,0.2l0,0c-0.5,0.7-1.3,1-2.1,1
		c-1.6,0-2.8-1.3-2.8-2.8C328.5,149.2,329.8,147.9,331.3,147.9L331.3,147.9z"/>
	<path class="st5" d="M335.9,144.1c0-0.1,0.1-0.2,0.2-0.2h0.2c0.1,0,0.2,0.1,0.2,0.2v4.6c0.5-0.5,1.2-0.8,2-0.9
		c1.4,0,2.2,0.9,2.2,2.5v2.9c0,0.1-0.1,0.2-0.2,0.2h-0.2c-0.1,0-0.2-0.1-0.2-0.2v-2.9c0-1.2-0.6-1.9-1.6-1.9c-0.7,0-1.4,0.4-1.9,0.9
		v3.8c0,0.1-0.1,0.2-0.1,0.2h0h-0.3c-0.1,0-0.2-0.1-0.2-0.2V144.1z"/>
	<path class="st5" d="M343.3,144.9c0-0.3,0.2-0.5,0.5-0.5c0.3,0,0.5,0.2,0.5,0.5c0,0.3-0.2,0.5-0.5,0.5
		C343.5,145.4,343.3,145.2,343.3,144.9z M343.4,148.2c0-0.1,0.1-0.2,0.2-0.2h0h0.2c0.1,0,0.2,0.1,0.2,0.2v0v5c0,0.1-0.1,0.2-0.1,0.2
		h0h-0.3c-0.1,0-0.2-0.1-0.2-0.2v0V148.2z"/>
	<path class="st5" d="M346.9,148.2c0-0.1,0.1-0.2,0.2-0.2h0.1l0.2,0.1v0l0.1,0.6c0.5-0.5,1.3-0.8,2-0.8c1.5,0,2.2,1,2.2,2.5v2.9
		c0,0.1-0.1,0.2-0.2,0.2h-0.2c-0.1,0-0.2-0.1-0.2-0.2v-2.9c0-1.2-0.6-1.9-1.6-1.9c-0.7,0-1.4,0.4-1.9,0.9v3.8c0,0.1-0.1,0.2-0.1,0.2
		h0H347c-0.1,0-0.2-0.1-0.2-0.2V148.2z"/>
	<path class="st5" d="M354.7,151.5c-0.3-0.4-0.4-0.9-0.4-1.3c0-1.2,1-2.3,2.2-2.3l0.1,0h2.3c0.1,0,0.2,0.1,0.2,0.2v0v0.2l-0.1,0.2
		l-1,0.1c0.6,0.4,0.9,1,0.8,1.7c0,1.2-0.9,2.2-2.1,2.3h-0.2c-0.5,0-1.1-0.1-1.5-0.5c-0.4,0.2-0.7,0.5-0.7,1c0,0.6,0.5,0.8,1.1,0.8h2
		c1.2,0,2,0.5,2,1.7s-1.1,2.2-2.8,2.2c-1.8,0-2.6-1.1-2.6-2c0-0.6,0.3-1.1,0.9-1.4c-0.6-0.1-1-0.6-1.1-1.2
		C353.8,152.3,354.2,151.8,354.7,151.5z M356.6,157c1.2,0,2.1-0.8,2.1-1.6c0-0.6-0.4-1.2-1.4-1.2h-1.7c-0.6,0.2-1,0.7-1.1,1.3
		C354.6,156.3,355.3,157,356.6,157L356.6,157z M358.2,150.1c0.1-0.9-0.6-1.6-1.5-1.7l-0.2,0c-0.9,0-1.7,0.7-1.7,1.6v0.1
		c0,0.9,0.8,1.7,1.7,1.7S358.2,151.1,358.2,150.1z"/>
	<polygon class="st1" points="268.2,156.3 268.2,145.7 258.4,149.8 258.4,160.9 	"/>
	<polygon class="st1" points="248,156.3 257.7,160.9 257.7,149.8 248,145.2 	"/>
	<polygon class="st1" points="258.1,149.1 267.6,145.1 258.1,140.8 248.5,144.6 	"/>
	<path class="st5" d="M283.8,123.5l4.2-9.4l0.2-0.1h0l0.2,0.1l4.1,9.4c0,0.1,0,0.2-0.1,0.2h-0.4l-0.2-0.1l-1.1-2.5h-5.2l-1.1,2.5
		l-0.2,0.1h-0.4C283.8,123.6,283.7,123.6,283.8,123.5z M290.4,120.5l-2.3-5.4l-2.4,5.5L290.4,120.5z"/>
	<path class="st5" d="M294.9,127.5c0,0.1-0.1,0.2-0.2,0.2h-0.2c-0.1,0-0.2-0.1-0.2-0.2v-9.1c0-0.1,0.1-0.2,0.2-0.2h0h0.1l0.2,0.1v0
		l0,0.4c0.5-0.4,1.1-0.6,1.8-0.6c1.5,0,2.7,1.3,2.6,2.8l0,0.1c0.1,1.5-1.1,2.8-2.6,2.8l-0.1,0c-0.6,0-1.2-0.2-1.6-0.6V127.5z
		 M296.4,123.2c1.2,0,2.2-0.9,2.2-2.1l0-0.1c0.1-1.2-0.8-2.2-2-2.2l-0.1,0c-0.6,0-1.3,0.3-1.7,0.8v3.2
		C295.3,123,295.9,123.2,296.4,123.2L296.4,123.2z"/>
	<path class="st5" d="M302.3,127.5c0,0.1-0.1,0.2-0.2,0.2h0h-0.2c-0.1,0-0.2-0.1-0.2-0.2v0v-9.1c0-0.1,0.1-0.2,0.2-0.2h0h0.1
		l0.2,0.1l0,0l0,0.4c0.5-0.4,1.1-0.6,1.8-0.6c1.5,0,2.7,1.3,2.6,2.8l0,0.1c0.1,1.5-1.1,2.8-2.6,2.8l-0.1,0c-0.6,0-1.2-0.2-1.6-0.6
		V127.5z M303.8,123.2c1.2,0,2.2-0.9,2.2-2.1l0-0.1c0.1-1.2-0.8-2.2-1.9-2.2l-0.1,0c-0.6,0-1.3,0.3-1.7,0.8v3.2
		C302.7,123,303.3,123.2,303.8,123.2L303.8,123.2z"/>
	<path class="st5" d="M309.1,114.3c0-0.1,0.1-0.2,0.2-0.2h0.2c0.1,0,0.2,0.1,0.2,0.2v9.1l-0.1,0.2h0h-0.3l-0.2-0.2l0,0V114.3z"/>
	<path class="st5" d="M312.4,115.1c0-0.3,0.2-0.5,0.5-0.5c0.3,0,0.5,0.2,0.5,0.5c0,0.3-0.2,0.5-0.5,0.5
		C312.6,115.6,312.4,115.4,312.4,115.1z M312.6,118.4c0-0.1,0.1-0.2,0.2-0.2h0.2c0.1,0,0.2,0.1,0.2,0.2v5.1l-0.1,0.2l0,0h-0.3
		l-0.1-0.2v0V118.4z"/>
	<path class="st5" d="M318.5,118.1c0.8,0,1.5,0.3,2,0.8l0,0.2l0,0l-0.1,0.1l-0.3,0l0,0c-0.9-0.8-2.3-0.8-3.2,0.1s-0.8,2.3,0.1,3.2
		c0.4,0.4,0.9,0.6,1.5,0.6c0.7,0,1.3-0.3,1.7-0.8c0.1-0.1,0.2-0.1,0.3,0l0.2,0.1l0,0.2c-0.5,0.6-1.3,1-2.1,1c-1.6,0-2.8-1.3-2.8-2.8
		C315.6,119.4,316.9,118.1,318.5,118.1L318.5,118.1L318.5,118.1z"/>
	<path class="st5" d="M324.9,120.1c0.5,0,0.9,0.1,1.4,0.2c0-1.2-0.1-1.8-1.2-1.8c-0.6,0-1.1,0.1-1.6,0.4l-0.2-0.1l0,0l-0.1-0.2
		l0.1-0.2l0,0c0.6-0.3,1.2-0.4,1.8-0.4c1.7,0,1.7,1,1.7,2.4v3c0,0.1-0.1,0.2-0.2,0.2h-0.2c-0.1,0-0.1-0.1-0.2-0.1l-0.1-0.5
		c-0.5,0.5-1.2,0.7-1.9,0.8c-0.9,0-1.7-0.7-1.8-1.6l0-0.2C322.6,120.9,323.4,120.1,324.9,120.1z M324.4,123.2c0.7,0,1.3-0.3,1.8-0.8
		v-1.5c-0.4-0.2-0.9-0.3-1.4-0.3c-1,0-1.7,0.5-1.7,1.3c0,0.7,0.5,1.3,1.1,1.3L324.4,123.2z"/>
	<path class="st5" d="M329.8,118.7h-0.6c-0.1,0-0.2-0.1-0.2-0.2v-0.2c0-0.1,0.1-0.1,0.2-0.1h0.6v-1.5c0-0.1,0.1-0.2,0.2-0.2h0h0.2
		c0.1,0,0.2,0.1,0.2,0.2v1.5h1.8c0.1,0,0.2,0.1,0.2,0.2v0v0.2c0,0.1-0.1,0.2-0.2,0.2l0,0h-1.9v3.4c0,0.6,0.1,1,0.7,1
		c0.4,0,0.9-0.2,1.2-0.4c0.1-0.1,0.2,0,0.2,0.1l0.1,0.2v0.2c-0.5,0.3-1,0.5-1.6,0.5c-1.1,0-1.2-0.7-1.2-1.5L329.8,118.7z"/>
	<path class="st5" d="M334.7,115.1c0-0.3,0.2-0.5,0.5-0.5c0.3,0,0.5,0.2,0.5,0.5c0,0.3-0.2,0.5-0.5,0.5
		C334.9,115.6,334.7,115.4,334.7,115.1z M334.8,118.4c0-0.1,0.1-0.2,0.2-0.2h0.2c0.1,0,0.2,0.1,0.2,0.2v5.1l-0.1,0.2l0,0H335
		l-0.2-0.2l0,0L334.8,118.4z"/>
	<path class="st5" d="M340.6,118.1c1.6-0.1,2.9,1.1,3,2.7c0.1,1.6-1.1,2.9-2.7,3s-2.9-1.1-3-2.7l0-0.1
		C337.9,119.4,339.1,118.1,340.6,118.1z M340.6,123.2c1.2,0.1,2.3-0.9,2.4-2.1c0.1-1.2-0.9-2.3-2.1-2.4c-1.2-0.1-2.3,0.9-2.4,2.1
		l0,0.1C338.4,122.1,339.4,123.1,340.6,123.2L340.6,123.2z"/>
	<path class="st5" d="M345.8,118.4c0-0.1,0.1-0.2,0.2-0.2h0.1l0.2,0.1l0.1,0.6c0.5-0.5,1.3-0.8,2-0.8c1.5,0,2.2,1,2.2,2.5v2.9
		c0,0.1-0.1,0.2-0.2,0.2H350c-0.1,0-0.2-0.1-0.2-0.2v-2.9c0-1.2-0.6-1.9-1.6-1.9c-0.7,0-1.4,0.4-1.9,0.9v3.8l-0.1,0.2l0,0h-0.3
		l-0.2-0.2l0,0V118.4z"/>
	<path class="st5" d="M357.4,114.3c0-0.1,0.1-0.2,0.2-0.2h2.9c1.7,0,3,1.4,3,3s-1.4,3-3,3h0H358v3.2c0,0.1-0.1,0.2-0.2,0.2h-0.2
		c-0.1,0-0.2-0.1-0.2-0.2L357.4,114.3z M360.5,119.6c1.4,0,2.4-1.1,2.4-2.5c0-1.3-1.1-2.4-2.5-2.4h-2.4v4.8H360.5z"/>
	<path class="st5" d="M367.3,120.1c0.5,0,0.9,0.1,1.4,0.2c0-1.2-0.1-1.8-1.2-1.8c-0.6,0-1.1,0.1-1.6,0.4l-0.2-0.1l0,0l-0.1-0.2
		l0.1-0.2l0,0c0.6-0.3,1.2-0.4,1.8-0.4c1.7,0,1.7,1,1.7,2.4v3c0,0.1-0.1,0.2-0.2,0.2h-0.2c-0.1,0-0.1-0.1-0.2-0.2l-0.1-0.5
		c-0.5,0.5-1.2,0.7-1.9,0.8c-0.9,0-1.7-0.7-1.8-1.6l0-0.2C365,120.9,365.9,120.1,367.3,120.1z M366.9,123.2c0.7,0,1.3-0.3,1.8-0.8
		v-1.5c-0.4-0.2-0.9-0.3-1.4-0.3c-1,0-1.7,0.5-1.7,1.3c0,0.7,0.5,1.3,1.1,1.3L366.9,123.2z"/>
	<path class="st5" d="M372.3,118.7h-0.6c-0.1,0-0.2-0.1-0.2-0.2v-0.2c0-0.1,0.1-0.1,0.2-0.1h0.6v-1.5c0-0.1,0.1-0.2,0.2-0.2h0h0.2
		c0.1,0,0.2,0.1,0.2,0.2v1.5h1.9c0.1,0,0.2,0.1,0.2,0.2v0.2c0,0.1-0.1,0.2-0.2,0.2h0h-1.9v3.4c0,0.6,0.1,1,0.7,1
		c0.4,0,0.9-0.2,1.2-0.4l0.2,0l0,0l0.1,0.2l0,0.2l0,0c-0.5,0.3-1,0.5-1.6,0.5c-1.1,0-1.2-0.7-1.2-1.5L372.3,118.7z"/>
	<path class="st5" d="M379.7,118.1c0.8,0,1.5,0.3,2,0.8l0,0.2l0,0l-0.1,0.1l-0.3,0l0,0c-0.9-0.8-2.3-0.8-3.2,0.1
		c-0.8,0.9-0.8,2.3,0.1,3.2c0.4,0.4,0.9,0.6,1.5,0.6c0.7,0,1.3-0.3,1.7-0.8c0.1-0.1,0.2-0.1,0.3,0l0.1,0.1l0,0.2
		c-0.5,0.6-1.3,1-2.1,1c-1.6,0-2.8-1.3-2.8-2.8C376.9,119.4,378.2,118.1,379.7,118.1L379.7,118.1L379.7,118.1z"/>
	<path class="st5" d="M384.3,114.3c0-0.1,0.1-0.2,0.2-0.2h0.2c0.1,0,0.2,0.1,0.2,0.2v4.6c0.5-0.5,1.2-0.8,2-0.9
		c1.4,0,2.2,0.9,2.2,2.5v2.9c0,0.1-0.1,0.2-0.2,0.2h-0.2c-0.1,0-0.2-0.1-0.2-0.2v-2.9c0-1.2-0.6-1.9-1.6-1.9c-0.7,0-1.4,0.4-1.9,0.9
		v3.8l-0.1,0.2h0h-0.3l-0.2-0.2v0V114.3z"/>
	<path class="st5" d="M391.6,115.1c0-0.3,0.2-0.5,0.5-0.5c0.3,0,0.5,0.2,0.5,0.5v0c0,0.3-0.2,0.5-0.5,0.5
		C391.8,115.6,391.6,115.4,391.6,115.1z M391.8,118.4c0-0.1,0.1-0.2,0.2-0.2h0.2c0.1,0,0.2,0.1,0.2,0.2v5.1l-0.1,0.2l0,0h-0.3
		l-0.1-0.2v0V118.4z"/>
	<path class="st5" d="M395.3,118.4c0-0.1,0.1-0.2,0.2-0.2h0.1l0.2,0.1v0l0.1,0.6c0.5-0.5,1.2-0.8,2-0.8c1.5,0,2.2,1,2.2,2.5v2.9
		c0,0.1-0.1,0.2-0.2,0.2h-0.2c-0.1,0-0.2-0.1-0.2-0.2v-2.9c0-1.2-0.6-1.9-1.6-1.9c-0.7,0-1.4,0.4-1.9,0.9v3.8l-0.1,0.2l0,0h-0.3
		l-0.2-0.2l0,0V118.4z"/>
	<path class="st5" d="M403.1,121.7c-0.3-0.4-0.4-0.9-0.4-1.3c0-1.2,0.9-2.2,2.2-2.3l0.2,0h2.3c0.1,0,0.2,0.1,0.2,0.2v0v0.1l-0.1,0.2
		l-1,0.1c0.6,0.4,0.9,1,0.8,1.7c0,1.2-0.9,2.2-2.1,2.3h-0.2c-0.5,0-1.1-0.1-1.5-0.5c-0.4,0.2-0.7,0.5-0.7,1c0,0.6,0.5,0.8,1.1,0.8
		h1.9c1.2,0,2,0.5,2,1.7s-1.1,2.2-2.8,2.2c-1.8,0-2.6-1.1-2.6-2c0-0.6,0.3-1.1,0.8-1.4c-0.6-0.1-1-0.6-1-1.2
		C402.2,122.5,402.5,122,403.1,121.7z M405,127.2c1.2,0,2.1-0.8,2.1-1.6c0-0.6-0.4-1.2-1.4-1.2h-1.7c-0.6,0.2-1,0.7-1.1,1.3
		C403,126.5,403.7,127.2,405,127.2L405,127.2z M406.6,120.3c0.1-0.9-0.6-1.7-1.5-1.7l-0.2,0c-0.9,0-1.7,0.7-1.7,1.6v0.1
		c-0.1,0.9,0.6,1.7,1.5,1.7l0.2,0c0.9,0,1.7-0.7,1.7-1.6L406.6,120.3z"/>
	<polygon class="st3" points="268.2,126.5 268.2,115.9 258.4,120 258.4,131.1 	"/>
	<polygon class="st3" points="248,126.5 257.7,131.1 257.7,120 248,115.4 	"/>
	<polygon class="st3" points="258.1,119.3 267.6,115.3 258.1,111 248.5,114.8 	"/>
</g>
</svg>
