<?xml version="1.0" encoding="iso-8859-1"?>
<!-- Generator: Adobe Illustrator 23.0.3, SVG Export Plug-In . SVG Version: 6.00 Build 0)  -->
<svg version="1.1"
	 id="svg55871" xmlns:cc="http://creativecommons.org/ns#" xmlns:dc="http://purl.org/dc/elements/1.1/" xmlns:rdf="http://www.w3.org/1999/02/22-rdf-syntax-ns#" xmlns:svg="http://www.w3.org/2000/svg"
	 xmlns="http://www.w3.org/2000/svg" xmlns:xlink="http://www.w3.org/1999/xlink" x="0px" y="0px" viewBox="0 0 646.6 443.2"
	 style="enable-background:new 0 0 646.6 443.2;" xml:space="preserve">
<style type="text/css">
	.st0{fill:#133653;}
	.st1{fill:#808083;}
	.st2{fill:#4C8ECB;}
	.st3{fill:#2E73AF;}
	.st4{fill:#1A4B74;}
	.st5{fill:#404041;}
	.st6{fill:#59595C;}
	.st7{fill:#FFFFFF;}
	.st8{fill:#F05B40;}
	.st9{fill:none;stroke:#BE1E2D;stroke-width:2;stroke-miterlimit:10;}
</style>
<g>
	<path class="st0" d="M355.5,268.6v0.2h29c13.9-3.9,26.9-10.3,38.6-18.8h-10.6C395.4,261.1,375.8,267.5,355.5,268.6z"/>
	<path class="st1" d="M38.5,390.3h18.8c0-53.8,43.5-97.6,97.1-98.3v-18.8C90.3,273.9,38.5,326.1,38.5,390.3z"/>
	<path class="st1" d="M15.2,390.3H34c0-66.6,53.9-120.9,120.4-121.5V250C77.5,250.7,15.2,313.3,15.2,390.3z"/>
	<path class="st1" d="M15.2,390.3H34c0-66.6,53.9-120.9,120.4-121.5V250C77.5,250.7,15.2,313.3,15.2,390.3z"/>
	<path class="st2" d="M470.9,389.6L470.9,389.6v45l-33.8-45h15c-0.3-53.9-44.3-97.6-98.3-97.6v-18.8
		C418.3,273.3,470.6,325.4,470.9,389.6z"/>
	<path class="st3" d="M494.2,389.6h15l-33.8,45v-44.4c0-67-54.5-121.5-121.5-121.5V250C431.1,250,493.9,312.6,494.2,389.6z"/>
	<path class="st4" d="M453.8,291.8h-28.6c2.9,2.1,5.7,4.3,8.3,6.7h26.4C457.9,296.3,455.9,294,453.8,291.8z"/>
	<path class="st0" d="M399.7,257.6c-14.3,6.8-29.8,10.5-45.6,11.1v0.1c7.1,0,14.2,0.6,21.1,1.8c10.5-2.3,20.7-5.9,30.2-10.8
		C411,256.2,404.5,255.6,399.7,257.6z"/>
	<path class="st5" d="M27,116.2c0.2,0.2,0.3,0.4,0.5,0.5c0.5,1.6,1.4,3.1,2.6,4.4c1.1,1.4,2.8,2.2,4.6,2.2h0.1
		c1.8,0,3.4-0.8,4.6-2.2c1.2-1.3,2.1-2.8,2.6-4.4c0.2-0.1,0.4-0.3,0.5-0.5c0.4-0.5,0.7-1.1,0.9-1.8c0.2-0.6,0.3-1.2,0.3-1.9
		c0-0.1,0-0.3,0-0.4c-0.1-0.6-0.3-1.1-0.7-1.6c-0.1-0.1-0.2-0.2-0.3-0.3V110c0.5-2.6-0.2-7.4-5.4-9c-0.8-0.3-1.6-0.4-2.5-0.4
		c-2,0-3.8,0.8-5.2,2.2c-0.9,0.1-1.8,0.6-2.3,1.3c-0.6,0.8-1.5,2.6-0.6,6.1l-0.2,0.2c-0.4,0.5-0.6,1-0.7,1.6c0,0.2,0,0.3,0,0.5
		c0,0.9,0.2,1.7,0.5,2.5C26.5,115.5,26.7,115.9,27,116.2z M28.5,105c0.3-0.5,0.8-0.8,1.4-0.8c0.2,0,0.5-0.1,0.6-0.3
		c1.1-1.2,2.6-1.9,4.3-1.9c0.7,0,1.4,0.1,2,0.3c3.2,0.9,5.1,4.1,4.4,7.3c0,0.2-0.1,0.4-0.1,0.6v0.2c-1.5,0.2-4.5-1.3-6.4-4.2
		c-0.4-0.7-1.1-1.2-1.9-1.2c-1.6-0.1-3,1.6-3,1.7c-0.7,1.1-1.3,2.2-1.6,3.4C27.4,107.1,28,105.6,28.5,105z M27.3,112.2L27.3,112.2
		c0-0.3,0.1-0.5,0.2-0.7c0,0.2,0,0.3,0.1,0.4c0.1,0.6,0.1,0.8,0.4,0.8c0.3,0,0.3-0.2,0.4-0.6c0.3-1.8,1-3.5,1.9-5
		c0,0,1.3-1.6,2.5-1.5c0.6,0.1,1.1,0.4,1.4,1c2,3,5.3,4.8,7.1,4.4l-0.2,1c0,0.2,0.1,0.3,0.2,0.3l0,0c0.2,0,0.3-0.1,0.4-0.2l0.2-0.8
		c0.2,0.2,0.3,0.5,0.3,0.8c0,0.1,0,0.2,0,0.3c0,0.5-0.1,1-0.2,1.5c-0.1,0.5-0.3,0.9-0.6,1.3c-0.1,0.1-0.2,0.2-0.4,0.3
		c-0.2,0.1-0.3,0.3-0.4,0.5c-0.4,1.5-1.3,2.9-2.3,4.1c-0.8,1.1-2.1,1.7-3.5,1.7h-0.1c-1.4,0-2.6-0.6-3.5-1.7
		c-1.1-1.1-1.9-2.5-2.3-4.1c-0.1-0.2-0.2-0.4-0.4-0.5c-0.1-0.1-0.3-0.2-0.4-0.3c-0.2-0.2-0.3-0.5-0.5-0.8c-0.3-0.6-0.4-1.3-0.4-1.9
		C27.2,112.4,27.2,112.4,27.3,112.2L27.3,112.2z"/>
	<path class="st5" d="M32.3,118.6c0.8,0.4,1.6,0.6,2.5,0.6c0.9,0,1.7-0.2,2.5-0.6c0.1-0.1,0.2-0.3,0.1-0.4c-0.1-0.1-0.2-0.2-0.3-0.1
		c-1.4,0.7-3.1,0.7-4.4,0c-0.1-0.1-0.3,0-0.4,0.1C32,118.4,32.1,118.6,32.3,118.6L32.3,118.6L32.3,118.6z"/>
	<path class="st5" d="M31.4,111.6c0.5,0,0.9,0.5,0.9,1.2c0,0.7-0.4,1.2-0.9,1.2s-0.9-0.5-0.9-1.2C30.5,112.2,30.9,111.6,31.4,111.6z
		"/>
	<path class="st5" d="M37.8,111.6c0.5,0,0.9,0.5,0.9,1.2c0,0.7-0.4,1.2-0.9,1.2s-0.9-0.5-0.9-1.2C36.9,112.2,37.3,111.6,37.8,111.6z
		"/>
	<path class="st5" d="M34.1,116.6h0.2c0.1,0,0.3,0,0.4-0.1c0.1-0.1,0.2-0.3,0.1-0.4c-0.1-0.1-0.3-0.2-0.4-0.1h-0.1l-0.2-0.1
		c-0.1-0.2-0.1-0.4-0.1-0.6c0.1-0.5,0.2-1,0.4-1.5c0.1-0.1,0-0.3-0.1-0.4c-0.1-0.1-0.3,0-0.4,0.1l0,0c-0.3,0.5-0.4,1.1-0.5,1.7
		c-0.1,0.3,0,0.7,0.1,1C33.6,116.4,33.8,116.5,34.1,116.6z"/>
	<rect x="30.8" y="110.5" transform="matrix(0.3896 -0.921 0.921 0.3896 -83.9444 96.8086)" class="st5" width="0.5" height="2.4"/>
	
		<rect x="36.9" y="111.5" transform="matrix(0.9211 -0.3892 0.3892 0.9211 -40.4928 23.6436)" class="st5" width="2.4" height="0.5"/>
	<path class="st5" d="M43.4,137.1h-7.6l7.4-8c0.1-0.1,0.1-0.3,0-0.4l-1.6-2.1l2.3-1.6l3.4,1.1c0.7,0.2,1.3,0.8,1.5,1.6l0.1,0.2
		l0.2-0.4c0.2-0.4,0.4-0.7,0.8-1c-0.5-0.8-1.2-1.5-2.1-1.8l-7.1-2.3c-0.2-0.1-0.4,0-0.6,0.1l-5.3,3.4l-5.3-3.4
		c-0.2-0.1-0.4-0.1-0.6-0.1l-7.1,2.3c-1.2,0.4-2.1,1.3-2.4,2.5l-3.2,10.4c-0.1,0.2,0,0.5,0.1,0.7c0.1,0.2,0.4,0.3,0.6,0.3h25.8
		c0.1-0.1,0.1-0.3,0.2-0.4L43.4,137.1z M22.1,137.1v-4.6c0-0.2-0.1-0.3-0.3-0.3h0c-0.2,0-0.3,0.1-0.3,0.3v4.6h-3.7l2.9-9.5
		c0.2-0.7,0.8-1.3,1.5-1.5l3.3-1.1l2.3,1.6l-1.6,2.1c-0.1,0.1-0.1,0.3,0,0.4l7.4,8L22.1,137.1z M26.8,128.8l1.6-2.1l0.1-0.2
		l-0.1-0.2l-2.2-1.5l2.5-0.8l5.2,12.5L26.8,128.8z M34.1,129.6l-0.6,2.7l-3.1-7.5l3.9,2.5l-1,1.2L34.1,129.6z M35.2,127.3l3.9-2.5
		l-3.1,7.5l-0.6-2.7l0.8-1L35.2,127.3z M40.7,123.9l2.5,0.8l-2.2,1.5l-0.1,0.2l0.1,0.2l1.6,2.1l-6.9,7.5L40.7,123.9z"/>
	<path class="st5" d="M58.6,142.2H46.1c-0.8,0-1.5-0.4-1.9-1.1c-0.4-0.7-0.4-1.5,0-2.2l6.3-10.7c0.6-1,2-1.4,3-0.8
		c0.3,0.2,0.6,0.5,0.8,0.8l6.3,10.7c0.4,0.7,0.4,1.5,0,2.2C60.1,141.8,59.4,142.2,58.6,142.2z M52.3,128.5c-0.3,0-0.6,0.1-0.8,0.4
		l-6.3,10.7c-0.2,0.2-0.2,0.6,0,0.8c0.2,0.3,0.4,0.4,0.8,0.4h12.5c0.3,0,0.6-0.1,0.8-0.4c0.2-0.2,0.2-0.6,0-0.8l-6.3-10.7
		C52.9,128.6,52.6,128.5,52.3,128.5z"/>
	<path class="st5" d="M53.6,138.8c0,0.7-0.6,1.3-1.3,1.3c-0.7,0-1.3-0.6-1.3-1.3c0-0.7,0.6-1.3,1.3-1.3h0
		C53.1,137.4,53.6,138,53.6,138.8L53.6,138.8z"/>
	<path class="st5" d="M53.1,136c0.1,0.4-0.1,0.8-0.5,0.9c-0.4,0.1-0.8-0.1-0.9-0.5c0-0.1,0-0.3,0-0.4l-0.4-3.1
		c-0.1-0.6,0.3-1.2,0.9-1.2s1.2,0.3,1.2,0.9c0,0.1,0,0.2,0,0.3L53.1,136z"/>
	<path class="st5" d="M32.3,419.6c0.8,0.4,1.6,0.6,2.5,0.6c0.9,0,1.7-0.2,2.5-0.6c0.1-0.1,0.2-0.2,0.1-0.4c-0.1-0.1-0.2-0.2-0.4-0.1
		l0,0c-1.4,0.7-3.1,0.7-4.4,0c-0.1-0.1-0.3,0-0.4,0.1C32,419.4,32.1,419.5,32.3,419.6z"/>
	<path class="st5" d="M31.4,412.6c0.5,0,0.9,0.5,0.9,1.2s-0.4,1.2-0.9,1.2s-0.9-0.5-0.9-1.2S30.9,412.6,31.4,412.6z"/>
	<path class="st5" d="M37.8,412.6c0.5,0,0.9,0.5,0.9,1.2s-0.4,1.2-0.9,1.2s-0.9-0.5-0.9-1.2S37.3,412.6,37.8,412.6z"/>
	<path class="st5" d="M34.1,417.6h0.2c0.1,0,0.3,0,0.4-0.1c0.1-0.1,0.2-0.3,0.1-0.4c-0.1-0.1-0.3-0.2-0.4-0.1h-0.1l-0.2-0.1
		c-0.1-0.2-0.1-0.4-0.1-0.6c0.1-0.5,0.2-1,0.4-1.5c0.1-0.1,0-0.3-0.1-0.4l0,0c-0.1-0.1-0.3,0-0.4,0.1c-0.3,0.5-0.4,1.1-0.5,1.7
		c-0.1,0.3,0,0.7,0.1,1C33.6,417.3,33.8,417.5,34.1,417.6z"/>
	
		<rect x="30.8" y="411.5" transform="matrix(0.3892 -0.9212 0.9212 0.3892 -361.1606 280.6995)" class="st5" width="0.5" height="2.4"/>
	
		<rect x="36.9" y="412.4" transform="matrix(0.9211 -0.3894 0.3894 0.9211 -157.7039 47.4102)" class="st5" width="2.4" height="0.5"/>
	<path class="st5" d="M22.1,438v-4.6c0-0.2-0.1-0.3-0.3-0.3h0c-0.2,0-0.3,0.1-0.3,0.3v4.6h-3.7l2.9-9.5c0.2-0.7,0.8-1.3,1.5-1.5
		l6.6-2.1l1.6,0.9l3.9,2.5h0.9l3.9-2.5l1.6-0.9l6.6,2.1c0.7,0.2,1.3,0.8,1.5,1.5l0.1,0.2l0.2-0.4c0.2-0.4,0.5-0.7,0.8-1
		c-0.5-0.8-1.2-1.5-2.1-1.8l-7.1-2.3c-0.2-0.1-0.4,0-0.6,0.1l-5.3,3.4l-5.3-3.4c-0.2-0.1-0.4-0.1-0.6-0.1l-7.1,2.3
		c-1.2,0.4-2.1,1.3-2.4,2.5l-3.2,10.4c-0.1,0.2,0,0.5,0.1,0.7c0.1,0.2,0.4,0.3,0.6,0.3h25.8c0.1-0.1,0.1-0.3,0.2-0.4l0.6-1L22.1,438
		z"/>
	<path class="st5" d="M58.6,443.2H46.1c-0.8,0-1.5-0.4-1.9-1.1c-0.4-0.7-0.4-1.5,0-2.2l6.3-10.7c0.6-1,2-1.4,3-0.8
		c0.3,0.2,0.6,0.5,0.8,0.8l6.3,10.7c0.4,0.7,0.4,1.5,0,2.2C60.1,442.7,59.4,443.2,58.6,443.2z M52.3,429.4c-0.3,0-0.6,0.1-0.8,0.4
		l-6.3,10.7c-0.1,0.2-0.1,0.5,0,0.8c0.1,0.3,0.4,0.4,0.8,0.4h12.5c0.3,0,0.6-0.1,0.8-0.4c0.1-0.2,0.1-0.5,0-0.8l-6.3-10.7
		C52.9,429.6,52.6,429.4,52.3,429.4z"/>
	<path class="st5" d="M53.6,439.7c0,0.7-0.6,1.3-1.3,1.3c-0.7,0-1.3-0.6-1.3-1.3s0.6-1.3,1.3-1.3h0C53.1,438.4,53.6,439,53.6,439.7z
		"/>
	<path class="st5" d="M53.1,436.9c0.1,0.4-0.1,0.8-0.5,0.9c-0.4,0.1-0.8-0.1-0.9-0.5c0-0.1,0-0.3,0-0.4l-0.4-3.1
		c-0.1-0.6,0.3-1.2,0.9-1.2c0.6-0.1,1.2,0.3,1.2,0.9c0,0.1,0,0.2,0,0.3L53.1,436.9z"/>
	<rect x="30.7" y="425.5" class="st5" width="0.5" height="8.6"/>
	<path class="st5" d="M31,432.2L31,432.2c0.4,0,0.6,0.3,0.6,0.6s-0.3,0.6-0.6,0.6s-0.6-0.3-0.6-0.6S30.6,432.2,31,432.2z"/>
	<rect x="38.1" y="425.5" class="st5" width="0.5" height="8.6"/>
	<path class="st5" d="M38.4,432.2L38.4,432.2c0.4,0,0.6,0.3,0.6,0.6s-0.3,0.6-0.6,0.6c-0.4,0-0.6-0.3-0.6-0.6S38,432.2,38.4,432.2z"
		/>
	<path class="st5" d="M41.3,410.4v0.3c0,0.2-0.1,0.4-0.1,0.6v0.2c-1.1,0.2-3.3-0.8-5-2.5h-0.8c2,2.2,4.6,3.4,6.1,3.1l-0.2,1
		c0,0.2,0.1,0.3,0.2,0.4c0.2,0,0.3-0.1,0.4-0.2l0.2-0.8c0.2,0.2,0.3,0.5,0.3,0.8c0,0.1,0,0.2,0,0.3c0,0.5-0.1,1-0.2,1.5
		c-0.1,0.5-0.3,0.9-0.6,1.3c-0.1,0.1-0.2,0.2-0.4,0.3c-0.2,0.1-0.3,0.3-0.4,0.5c-0.4,1.5-1.2,2.9-2.3,4.1c-0.8,1.1-2.1,1.7-3.5,1.7
		h-0.1c-1.4,0-2.6-0.6-3.5-1.7c-1.1-1.1-1.9-2.5-2.4-4.1c-0.1-0.2-0.2-0.4-0.4-0.5c-0.1-0.1-0.3-0.2-0.4-0.3
		c-0.2-0.2-0.3-0.5-0.5-0.8c-0.3-0.6-0.4-1.3-0.4-1.9c0-0.1,0-0.2,0-0.3c0-0.3,0.1-0.5,0.2-0.7c0,0.2,0,0.3,0.1,0.4
		c0.1,0.6,0.1,0.8,0.4,0.8c0.3,0,0.3-0.2,0.4-0.6c0.2-1.1,0.5-2.2,0.9-3.2c-0.3,0.1-0.6,0.3-0.8,0.5c-0.1,0.3-0.2,0.5-0.3,0.8
		c0-0.2-0.1-0.3-0.1-0.5c-1.4,1.1-2.2,2.9-2,4.7c0.1,0.2,0.1,0.4,0.2,0.6c0.2,0.4,0.4,0.8,0.7,1.1c0.2,0.2,0.3,0.4,0.5,0.5
		c0.5,1.6,1.4,3.1,2.6,4.4c1.1,1.4,2.8,2.2,4.6,2.2h0.1c1.8,0,3.4-0.8,4.6-2.2c1.2-1.3,2.1-2.8,2.6-4.4c0.2-0.1,0.4-0.3,0.5-0.5
		c0.4-0.5,0.7-1.1,0.9-1.8c0.1-0.2,0.1-0.5,0.2-0.8C43.5,413,42.7,411.4,41.3,410.4z"/>
	<path class="st5" d="M43.7,425.8l-4.7-1.1l0.7-1c1.3-1.9,4.3-7.7,2.5-11.1c-1-1.9-3.5-2.9-7.3-2.9c-3.8,0-6.5,1-7.5,2.9
		c-2.1,3.9,2.3,10.6,2.3,10.6l0.6,0.8l-4.2,1.5l-0.4-0.4c-2.4-2.8-5-11.8-1.1-18.1c0.3-0.5,0.6-1.1,1-1.8c1.6-3.1,4.1-7.9,8.5-7.9
		h0.3c5.9,0,8.9,5.1,10.7,8.2l0.1,0.1c3.4,5.7,1.1,14.7-1.2,19.4L43.7,425.8z M41.6,423.6l1.2,0.3c2-4.3,3.9-12.4,1-17.3l-0.1-0.1
		c-1.8-2.9-4.4-7.4-9.3-7.4h-0.3c-3.5,0-5.6,4-7.1,7c-0.4,0.7-0.7,1.4-1,1.9c-3.4,5.5-1.2,13.1,0.6,15.8l1.2-0.4
		c-1.2-2.1-3.9-7.6-1.9-11.4c1.3-2.5,4.3-3.8,8.9-3.8c4.6,0,7.4,1.3,8.7,3.7C45.8,415.8,42.9,421.4,41.6,423.6z"/>
	<rect x="270.3" y="250" class="st3" width="81.2" height="18.8"/>
	<rect x="270.3" y="273.3" class="st2" width="81.2" height="18.8"/>
	<polygon class="st6" points="191.1,230 191.1,312.7 271.2,312.7 301.5,271.4 271.2,230 	"/>
	<path class="st2" d="M426.9,268.8h219.8l-45-33.8v15h-152C442.7,257.1,435.1,263.4,426.9,268.8z"/>
	<path class="st3" d="M417.8,273.3c-19.6,11.4-41.8,17.8-64.4,18.8h248.3v15l45-33.8H417.8z"/>
	<path class="st3" d="M450,250L450,250c-6.9,7-14.5,13.3-22.7,18.8C435.5,263.4,443.1,257.1,450,250z"/>
	<path class="st4" d="M456.8,250h-9c-6.9,7-14.5,13.3-22.7,18.8h11.6C443.9,263.2,450.7,256.9,456.8,250z"/>
	<polygon class="st2" points="255,31.3 257.5,37.2 256.3,38.2 251,34.6 255.5,40.1 254.5,41 248.5,33.8 250,32.5 256,36.6 253.1,30 
		254.6,28.8 260.6,35.9 259.6,36.8 	"/>
	<path class="st2" d="M263.3,28.3l1.2,1.7c1,1.3,0.9,2.6-0.5,3.6c-1.4,1-2.6,0.8-3.6-0.6l-1.2-1.7c-1-1.3-0.9-2.6,0.5-3.6
		S262.3,27,263.3,28.3z M260.3,30.4l1.3,1.8c0.5,0.7,1.1,0.8,1.7,0.4c0.5-0.3,0.6-1,0.3-1.6l-0.2-0.2l-1.3-1.8
		c-0.3-0.6-0.9-0.8-1.5-0.5l-0.2,0.1c-0.5,0.3-0.6,1-0.3,1.6L260.3,30.4z"/>
	<polygon class="st2" points="269.7,29.4 268.2,30.4 262.6,25.8 263.8,25 268.4,29.1 266.3,23.3 267.6,22.5 	"/>
	<path class="st2" d="M273.9,21.4l0.8,1.3l-3,1.9l0.4,0.6c0.4,0.8,1,0.8,1.8,0.3c0.5-0.4,1-0.7,1.5-1.2l0.7,1
		c-0.5,0.5-1,0.9-1.6,1.3c-1.6,1-2.7,0.7-3.6-0.8l-1.1-1.8c-0.9-1.4-0.7-2.6,0.8-3.5C271.8,19.6,273,20,273.9,21.4z M270.8,23.1
		l0.3,0.5l1.8-1.1l-0.3-0.5c-0.2-0.6-0.9-0.8-1.4-0.6c-0.6,0.2-0.8,0.9-0.6,1.4C270.6,22.9,270.7,23,270.8,23.1z"/>
	<polygon class="st2" points="280.3,21.6 283.5,19.9 284.1,21 279.6,23.4 275.3,15.1 276.5,14.5 	"/>
	<path class="st2" d="M287.3,14.3l2,4.3l-1.2,0.6l-0.5-0.9c0,0.8-0.4,1.5-1.1,1.9c-1,0.5-2,0.1-2.5-1.2l-0.2-0.3
		c-0.5-1-0.1-2.1,0.8-2.7c0.1,0,0.2-0.1,0.3-0.1c0.4-0.2,0.8-0.3,1.3-0.4l-0.3-0.6c-0.3-0.7-0.8-0.8-1.4-0.5c-0.6,0.3-1.1,0.6-1.6,1
		l-0.5-1.1c0.5-0.4,1.1-0.7,1.7-1.1C285.6,12.4,286.5,12.7,287.3,14.3z M285.2,18l0.1,0.1c0.3,0.6,0.7,0.8,1.1,0.6
		c0.5-0.4,0.8-1,0.8-1.6l-0.5-0.9c-0.3,0.1-0.6,0.2-0.9,0.4c-0.5,0.2-0.8,0.7-0.6,1.2L285.2,18L285.2,18z"/>
	<path class="st2" d="M289.6,10.8l1.6-0.8l0.5,1.1l-1.6,0.7l1.5,3.5c0.3,0.6,0.6,0.8,1.1,0.5c0.4-0.2,0.7-0.4,1-0.6l0.5,1.1
		c-0.3,0.2-0.7,0.5-1.1,0.6c-1.4,0.6-2.3,0.3-2.9-1.2l-1.4-3.3l-0.9,0.4l-0.5-1.1l0.9-0.4l-0.5-1.8l1.1-0.5L289.6,10.8z"/>
	<path class="st2" d="M298,10l0.5,1.4l-3.3,1.3l0.3,0.7c0.3,0.8,0.8,1,1.7,0.7c0.6-0.3,1.1-0.5,1.7-0.9l0.5,1.1
		c-0.6,0.4-1.1,0.7-1.8,1c-1.8,0.7-2.8,0.2-3.4-1.5l-0.8-2c-0.6-1.5-0.2-2.7,1.4-3.3C296.3,7.9,297.4,8.4,298,10z M294.6,11.1
		l0.2,0.6l2-0.8l-0.2-0.6c-0.1-0.6-0.7-0.9-1.2-0.8l-0.2,0.1c-0.5,0.2-0.8,0.8-0.6,1.3L294.6,11.1z"/>
	<path class="st2" d="M301.9,5.9l0.5,1.5c-0.2,0-0.3,0.1-0.5,0.1c-0.6,0.2-1.1,0.8-1.1,1.4l1.5,4.4l-1.3,0.5l-2.3-6.6l1.2-0.5l0.3,1
		c0.1-0.8,0.6-1.4,1.4-1.7C301.7,6,301.8,5.9,301.9,5.9z"/>
	<path class="st2" d="M308,6.5l1.4,4.5l-1.3,0.4l-0.3-1c-0.1,0.8-0.6,1.4-1.4,1.7c-1,0.3-1.9-0.2-2.3-1.5l-0.1-0.4
		c-0.3-1,0.2-2.1,1.2-2.5l0.3-0.1c0.4-0.1,0.9-0.2,1.3-0.2l-0.2-0.7c-0.2-0.7-0.6-0.9-1.3-0.7c-0.6,0.2-1.2,0.5-1.7,0.8l-0.4-1.2
		c0.6-0.3,1.2-0.6,1.8-0.8C306.6,4.4,307.5,4.9,308,6.5z M305.4,9.9l0,0.1c0.2,0.6,0.6,0.9,1,0.8c0.4-0.1,0.8-0.6,1-1.5l-0.3-1
		c-0.3,0-0.7,0.1-1,0.2c-0.5,0.1-0.9,0.6-0.8,1.1L305.4,9.9z"/>
	<polygon class="st2" points="312.4,10.2 311,10.6 308.5,1.2 309.8,0.8 	"/>
	<polygon class="st2" points="315.4,9.4 314,9.8 311.7,0.3 313,0 	"/>
	<polygon class="st2" points="319.7,11.2 318.4,11.5 318.7,8.7 318.1,8.8 314.8,2.4 316.3,2.1 318.9,7.6 319.3,1.4 320.7,1.1 	"/>
	<path class="st2" d="M490.9,92l-0.3,0.1c-1.7,0.8-3.2,0.2-4.1-1.9c-0.2-0.4-0.3-0.8-0.4-1.2l-3.6,1.6l-0.6-1.4l9.1-4
		c0.4,0.7,0.8,1.4,1.2,2.4C493.1,89.8,492.5,91.3,490.9,92z M490.4,87.1l-3.1,1.4c0.1,0.4,0.2,0.8,0.4,1.2c0.5,1.2,1.3,1.6,2.4,1.1
		l0.2-0.1c0.9-0.4,1.2-1.2,0.6-2.5C490.7,87.6,490.5,87.4,490.4,87.1z"/>
	<path class="st2" d="M491.1,99l-1.5,0.6l-1.3-3.5l-0.7,0.3c-0.8,0.3-1,0.8-0.7,1.8c0.3,0.6,0.6,1.2,0.9,1.8l-1.2,0.5
		c-0.4-0.6-0.7-1.2-1-1.8c-0.8-1.9-0.2-2.9,1.5-3.6l2.1-0.8c1.6-0.6,2.8-0.2,3.5,1.4C493.3,97.2,492.8,98.4,491.1,99z M489.9,95.4
		l-0.6,0.2l0.8,2.1l0.6-0.2c0.8-0.3,1-0.9,0.8-1.5c-0.2-0.6-0.8-0.9-1.4-0.7L489.9,95.4L489.9,95.4z"/>
	<path class="st2" d="M495.4,103.2l-1.6,0.5c0-0.2-0.1-0.4-0.1-0.5c-0.2-0.7-0.8-1.1-1.5-1.2l-4.6,1.6l-0.5-1.4l6.9-2.3l0.4,1.3
		l-1,0.4c0.8,0.1,1.5,0.7,1.8,1.4C495.3,103,495.3,103.1,495.4,103.2z"/>
	<path class="st2" d="M499.7,107.6l-1.1,0.4c0-0.3-0.1-0.6-0.2-0.9c-0.2-0.5-0.6-0.8-1.4-0.6l-0.7,0.2l0.4,1.4l-1.2,0.4l-0.4-1.4
		l-5.8,1.8l-0.4-1.4l5.8-1.8l-0.3-1l1.2-0.4l0.3,1l0.7-0.2c1.5-0.5,2.5,0.1,3,1.5C499.6,106.9,499.7,107.3,499.7,107.6z"/>
	<path class="st2" d="M495.9,115l-2.1,0.6c-1.7,0.4-2.9-0.1-3.3-1.9c-0.5-1.8,0.3-2.9,2-3.3l2.1-0.6c1.7-0.4,2.9,0.1,3.3,1.9
		C498.4,113.5,497.6,114.5,495.9,115z M495,111.2l-2.3,0.6c-0.9,0.2-1.2,0.8-1,1.5s0.8,1,1.7,0.8l2.3-0.6c0.9-0.2,1.2-0.8,1-1.5
		S495.9,110.9,495,111.2z"/>
	<path class="st2" d="M499.8,119.7l-1.6,0.4c0-0.2,0-0.4-0.1-0.6c-0.2-0.7-0.7-1.2-1.4-1.4l-4.7,1.1l-0.3-1.4l7.1-1.6l0.3,1.3
		l-1.1,0.2c0.8,0.2,1.4,0.8,1.7,1.6C499.7,119.5,499.8,119.6,499.8,119.7L499.8,119.7z"/>
	<path class="st2" d="M499.1,130.4l-4.9,0.8l-0.2-1.5l4.7-0.8c1-0.2,1.3-0.5,1.2-1c-0.2-0.6-0.7-1.1-1.3-1.2l-5,0.8l-0.2-1.5
		l4.7-0.8c1-0.2,1.3-0.5,1.2-1c-0.2-0.6-0.7-1.1-1.3-1.2l-5,0.8l-0.2-1.5l7.2-1.2l0.2,1.4l-1,0.2c0.8,0.3,1.4,0.9,1.5,1.7
		c0.2,0.8-0.2,1.6-1,2c0.8,0.2,1.4,0.9,1.6,1.7C501.5,129.3,500.7,130.1,499.1,130.4z"/>
	<path class="st2" d="M502.5,141.1h-0.4c-1.1,0.1-2.2-0.5-2.6-1.6l-4.3,2.9l-0.1-1.7l3.9-2.6c-0.1-0.5-0.1-1-0.1-1.4l-4.1,0.3
		l-0.1-1.5l9.9-0.8c0.1,0.8,0.2,1.9,0.3,2.7C505.1,139.9,504.1,141,502.5,141.1z M503.5,136.3l-3.2,0.3c0,0.6,0,0.8,0,1.2
		c0.1,1.4,0.8,1.9,1.8,1.8h0.3c1-0.1,1.4-0.7,1.3-2.1C503.6,137.2,503.5,136.7,503.5,136.3L503.5,136.3z"/>
	<path class="st2" d="M500.3,148.1l-1.6,0.1l-0.1-3.8h-0.8c-0.9,0-1.3,0.4-1.2,1.5c0,0.7,0.2,1.3,0.3,2l-1.3,0.1
		c-0.2-0.7-0.3-1.4-0.3-2.1c-0.1-2,0.8-2.9,2.6-2.9l2.3-0.1c1.7-0.1,2.7,0.8,2.8,2.5C503,147.1,502,148.1,500.3,148.1z M500.3,144.4
		h-0.7l0.1,2.3h0.6c0.9,0,1.3-0.5,1.2-1.2c0-0.6-0.5-1.1-1.1-1.1L500.3,144.4L500.3,144.4z"/>
	<path class="st2" d="M502.7,154l-1.3-0.1c0.1-0.5,0.2-1,0.2-1.5c0-0.9-0.5-1.4-1.4-1.4l-2.2,0c-1,0-1.4,0.5-1.4,1.3
		c0,0.5,0.1,1,0.2,1.5h-1.3c-0.1-0.5-0.2-1.1-0.2-1.6c0-1.8,1-2.7,2.8-2.7h2.2c1.8,0,2.7,0.9,2.7,2.8
		C502.9,152.9,502.9,153.5,502.7,154z"/>
	<path class="st2" d="M499.9,160.8l-2.2-0.1c-1.7-0.1-2.7-1-2.6-2.8c0.1-1.8,1.1-2.6,2.9-2.5l2.2,0.1c1.7,0.1,2.7,1,2.6,2.8
		S501.6,160.9,499.9,160.8z M500.2,157l-2.4-0.1c-0.9,0-1.4,0.4-1.5,1.1c0,0.8,0.4,1.2,1.3,1.3l2.4,0.1c0.9,0,1.4-0.4,1.4-1.1
		C501.5,157.5,501.1,157,500.2,157z"/>
	<path class="st2" d="M499.5,167.9l-5-0.5l0.1-1.5l4.8,0.5c1,0.1,1.3-0.2,1.4-0.7c0-0.6-0.4-1.2-0.9-1.6l-5-0.5l0.1-1.5l7.3,0.7
		l-0.1,1.4l-1.1-0.1c0.7,0.5,1.1,1.2,1,2.1C502.1,167.5,501.1,168.1,499.5,167.9z"/>
	<path class="st2" d="M498.5,175.2l-4.9-0.7l0.2-1.5l4.7,0.7c1,0.1,1.3-0.1,1.4-0.6c0-0.6-0.3-1.3-0.9-1.6l-5-0.8l0.2-1.5l7.2,1
		l-0.2,1.4l-1.1-0.1c0.7,0.5,1,1.3,1,2.1C501.1,174.8,500.1,175.4,498.5,175.2z"/>
	<path class="st2" d="M497.3,181.9l-4.9-0.9l0.3-1.4l1.1,0.2c-0.6-0.5-1-1.3-0.9-2.1c0.2-1.1,1.2-1.7,2.6-1.4l0.4,0.1
		c1.1,0.2,1.9,1.3,1.7,2.4l-0.1,0.3c-0.1,0.5-0.3,0.9-0.4,1.4l0.7,0.1c0.8,0.1,1.1-0.1,1.3-0.9c0.1-0.7,0.1-1.3,0.1-2l1.3,0.2
		c0,0.7-0.1,1.4-0.2,2.1C499.9,181.6,499,182.2,497.3,181.9z M495.4,177.7h-0.1c-0.7-0.1-1.1,0.1-1.2,0.6c-0.1,0.4,0.2,1.1,0.9,1.6
		l1.1,0.2c0.1-0.3,0.2-0.7,0.3-1c0.2-0.5-0.1-1.1-0.7-1.3L495.4,177.7L495.4,177.7z"/>
	<path class="st2" d="M491.6,184l0.3-1.4l7.1,1.6l-0.3,1.4L491.6,184z M501,186.3l-0.4-0.1c-0.5-0.1-0.7-0.5-0.5-1.1
		c0.1-0.6,0.5-0.8,1-0.8l0.4,0.1c0.5,0.1,0.7,0.5,0.6,1.1C501.8,186.2,501.5,186.5,501,186.3z"/>
	<path class="st2" d="M497.4,191.3l-1.2-0.4c0.2-0.4,0.4-0.9,0.6-1.4c0.2-0.9,0-1.3-0.4-1.4h-0.1c-0.3-0.1-0.5,0-0.8,0.4l-1,1.2
		c-0.5,0.7-1.3,1-2.1,0.8l-0.3-0.1c-1.3-0.4-1.9-1.3-1.4-3c0.2-0.6,0.5-1.3,0.8-1.8l1.3,0.4c-0.3,0.5-0.6,1.1-0.8,1.8
		c-0.2,0.9-0.1,1.2,0.4,1.3h0.1c0.3,0.1,0.7,0,0.9-0.3l0.9-1.2c0.4-0.7,1.2-1,2-0.8l0.2,0.1c1.3,0.4,1.8,1.3,1.4,3
		C497.8,190.3,497.6,190.8,497.4,191.3z"/>
	<path class="st2" d="M493.2,197.2l-4.8-1.5l0.4-1.3l1.1,0.3c-0.6-0.6-0.8-1.4-0.7-2.2c0.3-1.1,1.3-1.6,2.7-1.1l0.4,0.1
		c1.1,0.3,1.7,1.4,1.4,2.5l-0.1,0.3c-0.2,0.4-0.3,0.9-0.6,1.3l0.7,0.2c0.8,0.2,1.1,0,1.3-0.8c0.2-0.6,0.3-1.3,0.4-2l1.2,0.4
		c-0.1,0.7-0.2,1.4-0.4,2C495.8,197.3,494.9,197.7,493.2,197.2z M491.7,192.9l-0.1,0c-0.7-0.2-1.1,0-1.2,0.4
		c-0.1,0.6,0.2,1.3,0.7,1.7l1,0.3c0.2-0.3,0.3-0.7,0.4-1c0.2-0.5,0-1.1-0.5-1.4L491.7,192.9L491.7,192.9z"/>
	<path class="st2" d="M490.8,204l-4.7-1.7l0.5-1.4l4.5,1.6c0.9,0.3,1.3,0.1,1.5-0.3c0.1-0.6-0.1-1.3-0.5-1.7l-4.7-1.7l0.5-1.4
		l6.9,2.5l-0.5,1.3l-1-0.4c0.5,0.6,0.7,1.5,0.5,2.3C493.4,204.2,492.3,204.5,490.8,204z"/>
	<path class="st2" d="M490.6,210.6l-1.2-0.5c0.3-0.4,0.6-0.8,0.8-1.3c0.3-0.6,0.1-1.3-0.4-1.7c-0.1-0.1-0.2-0.1-0.3-0.1l-2-0.8
		c-0.6-0.4-1.3-0.2-1.7,0.4c-0.1,0.1-0.1,0.2-0.1,0.3c-0.2,0.5-0.3,0.9-0.4,1.4l-1.2-0.5c0.1-0.5,0.2-1.1,0.4-1.6
		c0.7-1.7,1.9-2.2,3.6-1.5l2,0.8c1.6,0.7,2.3,1.9,1.5,3.6C491.2,209.7,490.9,210.2,490.6,210.6L490.6,210.6z"/>
	<path class="st2" d="M485.5,215.8l-1.5-0.7l1.6-3.4l-0.7-0.3c-0.8-0.4-1.3-0.2-1.8,0.8c-0.3,0.6-0.5,1.3-0.6,1.9l-1.2-0.5
		c0.1-0.7,0.4-1.4,0.6-2c0.8-1.9,2-2.2,3.7-1.4l2,0.9c1.6,0.8,2.1,1.9,1.4,3.5C488.3,216.1,487.1,216.5,485.5,215.8z M487.3,212.5
		l-0.6-0.3l-0.9,2.1l0.6,0.3c0.5,0.3,1.2,0.2,1.5-0.3l0.1-0.2c0.3-0.5,0-1.2-0.5-1.5L487.3,212.5z"/>
	<path class="st6" d="M496.5,239.1v2.3c0,2.3-1.2,3.6-3.7,3.6c-0.9,0-1.7,0-2.6-0.1v-9.5c0.7,0,1.6-0.1,2.7-0.1
		C495.2,235.3,496.5,236.7,496.5,239.1z M491.6,236.6v7.1c0.5,0,0.9,0.1,1.2,0.1c1.1,0.1,2.1-0.8,2.2-1.9c0-0.1,0-0.2,0-0.4V239
		c0-1.6-0.8-2.4-2.2-2.4C492.4,236.6,492,236.6,491.6,236.6z"/>
	<path class="st6" d="M499.7,235.7v0.4c0,0.5-0.3,0.8-0.9,0.8s-0.9-0.3-0.9-0.8v-0.4c0-0.5,0.3-0.8,0.9-0.8S499.7,235.2,499.7,235.7
		z M499.6,244.8h-1.4v-7h1.4V244.8z"/>
	<path class="st6" d="M504.9,237.9v1.2c-0.5-0.1-0.9-0.2-1.4-0.2c-0.8,0-1.2,0.3-1.2,0.7v0.1c0,0.3,0.1,0.5,0.5,0.6l1.3,0.6
		c0.7,0.3,1.2,0.9,1.2,1.7v0.3c0,1.3-0.7,2-2.5,2c-0.6,0-1.3-0.1-1.9-0.3l0.1-1.3c0.6,0.2,1.2,0.3,1.8,0.3c0.8,0,1.1-0.2,1.1-0.7
		v-0.1c0-0.3-0.2-0.6-0.5-0.8l-1.3-0.6c-0.7-0.2-1.2-0.9-1.3-1.7v-0.2c0-1.3,0.8-2,2.5-2C503.9,237.7,504.4,237.8,504.9,237.9z"/>
	<path class="st6" d="M510.3,237.8v1.6c-0.2,0-0.3,0-0.5,0c-0.7,0-1.3,0.4-1.6,1v4.6h-1.4v-7h1.3v1c0.4-0.7,1.1-1.2,1.9-1.2
		C510.1,237.7,510.2,237.7,510.3,237.8z"/>
	<path class="st6" d="M516.3,244.8H515v-1c-0.4,0.7-1.1,1.1-1.8,1.1c-1.1,0-1.8-0.8-1.8-2.4v-4.7h1.4v4.5c0,0.9,0.3,1.3,0.8,1.3
		c0.6-0.1,1.1-0.5,1.3-1v-4.8h1.4L516.3,244.8z"/>
	<path class="st6" d="M523.1,240.1v2.5c0,1.6-0.8,2.4-2.1,2.4c-0.5,0-1-0.2-1.5-0.5v3h-1.4v-9.6h1.3v1c0.4-0.7,1.1-1.1,1.8-1.1
		C522.4,237.8,523.1,238.5,523.1,240.1z M519.5,240v3.3c0.3,0.3,0.7,0.4,1.2,0.5c0.7,0,1-0.4,1-1.3v-2.1c0-1-0.3-1.3-0.8-1.3
		C520.3,239.1,519.8,239.4,519.5,240L519.5,240z"/>
	<path class="st6" d="M526.4,237.9h1.8v1.2h-1.8v3.8c0,0.7,0.3,1,0.8,1c0.4,0,0.8-0.1,1.2-0.1v1.2c-0.4,0.1-0.8,0.2-1.2,0.2
		c-1.5,0-2.3-0.6-2.3-2.3v-3.7h-1v-1.2h1l0.2-1.9h1.2L526.4,237.9z"/>
	<path class="st6" d="M537.9,237.6v0.3c0,0.9-0.5,1.7-1.3,2.1c1,0.2,1.8,1.1,1.7,2.1v0.3c0,1.5-1,2.6-3.4,2.6c-0.8,0-1.3,0-2.7-0.1
		v-9.5c0.7,0,1.6-0.1,2.6-0.1C536.8,235.3,537.9,236.3,537.9,237.6z M533.6,236.6v2.9h1.2c1.1,0,1.6-0.5,1.6-1.4v-0.2
		c0-0.8-0.5-1.3-1.8-1.3C534.3,236.6,534,236.6,533.6,236.6z M533.6,240.7v3c0.4,0.1,0.8,0.1,1.2,0.1c1.4,0,2-0.6,2-1.4V242
		c0-0.9-0.6-1.3-1.9-1.3L533.6,240.7z"/>
	<path class="st6" d="M544.5,244.8h-1.3v-1c-0.4,0.7-1.1,1.1-1.8,1.1c-1.1,0-1.8-0.8-1.8-2.4v-4.7h1.4v4.5c0,0.9,0.3,1.3,0.8,1.3
		c0.6-0.1,1.1-0.5,1.4-1v-4.8h1.4V244.8z"/>
	<path class="st6" d="M549.8,237.9v1.2c-0.5-0.1-0.9-0.2-1.4-0.2c-0.8,0-1.2,0.3-1.2,0.7v0.1c0,0.3,0.2,0.5,0.5,0.6l1.3,0.6
		c0.7,0.3,1.2,0.9,1.2,1.7v0.3c0,1.3-0.7,2-2.5,2c-0.6,0-1.3-0.1-1.9-0.3l0.1-1.3c0.6,0.2,1.2,0.3,1.8,0.3c0.8,0,1.1-0.2,1.1-0.7
		v-0.1c0-0.3-0.2-0.6-0.5-0.8l-1.3-0.6c-0.7-0.2-1.2-0.9-1.3-1.7v-0.2c0-1.3,0.8-2,2.5-2C548.9,237.7,549.3,237.8,549.8,237.9z"/>
	<path class="st6" d="M553.3,235.7v0.4c0,0.5-0.3,0.8-0.9,0.8s-0.9-0.3-0.9-0.8v-0.4c0-0.5,0.3-0.8,0.9-0.8S553.3,235.2,553.3,235.7
		z M553.2,244.8h-1.4v-7h1.4V244.8z"/>
	<path class="st6" d="M560,240.1v4.7h-1.4v-4.6c0-0.9-0.3-1.3-0.8-1.3c-0.6,0.1-1.1,0.5-1.4,1v4.8h-1.4v-7h1.3v1
		c0.4-0.7,1.1-1.1,1.9-1.2C559.3,237.8,560,238.5,560,240.1z"/>
	<path class="st6" d="M566.5,240.3v1.5H563v0.7c0,0.9,0.4,1.2,1.3,1.2c0.6,0,1.3-0.1,1.9-0.2v1.2c-0.7,0.1-1.3,0.2-2,0.3
		c-1.9,0-2.7-0.8-2.7-2.6v-2.1c0-1.6,0.8-2.6,2.5-2.6S566.5,238.6,566.5,240.3z M563,240.1v0.7h2.2v-0.6c0-0.8-0.4-1.2-1.1-1.2
		c-0.6,0-1.1,0.4-1.1,1L563,240.1z"/>
	<path class="st6" d="M571.6,237.9v1.2c-0.5-0.1-0.9-0.2-1.4-0.2c-0.8,0-1.2,0.3-1.2,0.7v0.1c0,0.3,0.1,0.5,0.5,0.6l1.3,0.6
		c0.7,0.3,1.2,0.9,1.2,1.7v0.3c0,1.3-0.7,2-2.5,2c-0.6,0-1.3-0.1-1.9-0.3l0.1-1.3c0.6,0.2,1.2,0.3,1.8,0.3c0.8,0,1.1-0.2,1.1-0.7
		v-0.1c0-0.3-0.2-0.6-0.5-0.8l-1.3-0.6c-0.7-0.2-1.2-0.9-1.3-1.7v-0.2c0-1.3,0.8-2,2.5-2C570.6,237.7,571.1,237.8,571.6,237.9z"/>
	<path class="st6" d="M576.9,237.9v1.2c-0.5-0.1-0.9-0.2-1.4-0.2c-0.8,0-1.2,0.3-1.2,0.7v0.1c0,0.3,0.1,0.5,0.5,0.6l1.3,0.6
		c0.7,0.3,1.2,0.9,1.2,1.7v0.3c0,1.3-0.8,2-2.5,2c-0.6,0-1.3-0.1-1.9-0.3l0.1-1.3c0.6,0.2,1.2,0.3,1.8,0.3c0.8,0,1.1-0.2,1.1-0.7
		v-0.1c0-0.3-0.2-0.6-0.5-0.8l-1.3-0.6c-0.7-0.2-1.2-0.9-1.2-1.7v-0.2c0-1.3,0.8-2,2.5-2C576,237.7,576.5,237.8,576.9,237.9z"/>
	<polygon class="st6" points="480.5,303.4 478.3,300.5 476.2,302.1 478.2,304.8 477.2,305.6 475.2,302.9 472.9,304.6 475.1,307.5 
		474.1,308.2 471.1,304.2 478.6,298.6 481.6,302.6 	"/>
	<polygon class="st6" points="479.5,309.8 477.8,313.7 476.9,312.3 478.2,309.7 475.3,310 474.4,308.7 478.6,308.4 480.2,304.9 
		481.1,306.2 479.9,308.6 482.6,308.3 483.5,309.6 	"/>
	<path class="st6" d="M488.7,312.7l-1,0.7c-0.1-0.4-0.3-0.9-0.5-1.3c-0.2-0.4-0.7-0.7-1.1-0.5l-0.2,0.1l-0.7,0.4l1.8,3l-5.9,3.6
		l-0.8-1.2l4.9-3l-1.1-1.8l-4.9,3l-0.8-1.2l4.9-3l-0.5-0.8l1-0.6l0.5,0.8l0.5-0.3c1.4-0.8,2.4-0.7,3.2,0.8
		C488.3,311.8,488.5,312.2,488.7,312.7z"/>
	
		<rect x="481.4" y="317.6" transform="matrix(0.8676 -0.4972 0.4972 0.8676 -93.9005 283.9144)" class="st6" width="9.7" height="1.4"/>
	<path class="st6" d="M490.1,320.9l0.8,1.6l-1,0.6l-0.8-1.6l-3.3,1.8c-0.6,0.3-0.7,0.7-0.4,1.2c0.2,0.3,0.4,0.7,0.7,1l-1,0.6
		c-0.3-0.3-0.5-0.6-0.8-1c-0.8-1.4-0.5-2.3,0.9-3l3.2-1.7l-0.5-0.8l1-0.6l0.5,0.8l1.7-0.7l0.5,1L490.1,320.9z"/>
	<path class="st6" d="M493.3,326.7l-1.4,0.7c0-0.2-0.1-0.3-0.2-0.5c-0.3-0.6-0.9-1-1.6-1l-4.1,2l-0.6-1.3l6.2-3.1l0.6,1.2l-0.9,0.5
		c0.8,0,1.5,0.4,1.9,1.1C493.2,326.5,493.2,326.6,493.3,326.7z"/>
	<path class="st6" d="M493.4,332.7l-4.3,2l-0.5-1.2l0.9-0.4c-0.8,0-1.5-0.5-1.8-1.1c-0.5-1,0-2,1.2-2.5l0.4-0.2
		c1-0.5,2.2-0.1,2.6,0.9l0.1,0.2c0.2,0.4,0.3,0.8,0.4,1.3l0.6-0.3c0.7-0.3,0.8-0.8,0.5-1.4c-0.3-0.6-0.6-1.1-1-1.6l1.1-0.5
		c0.4,0.5,0.7,1.1,1,1.7C495.3,331,495,332,493.4,332.7z M489.7,330.5l-0.1,0.1c-0.6,0.3-0.8,0.7-0.6,1.1c0.2,0.4,0.8,0.7,1.6,0.8
		l0.9-0.4c-0.1-0.3-0.2-0.6-0.3-1c-0.2-0.5-0.7-0.8-1.3-0.6L489.7,330.5L489.7,330.5z"/>
	<path class="st6" d="M496.7,334.9l0.7,1.7l-1.1,0.5l-0.7-1.7l-3.5,1.4c-0.6,0.3-0.8,0.6-0.6,1.1c0.2,0.4,0.4,0.7,0.6,1l-1.1,0.5
		c-0.2-0.3-0.5-0.7-0.6-1.1c-0.6-1.4-0.3-2.3,1.3-2.9l3.4-1.4l-0.4-0.9l1.1-0.5l0.4,0.9l1.8-0.5l0.4,1.1L496.7,334.9z"/>
	<path class="st6" d="M497.3,343.2l-1.4,0.5l-1.2-3.3l-0.7,0.2c-0.8,0.3-1,0.8-0.7,1.7c0.2,0.6,0.5,1.1,0.9,1.7l-1.1,0.4
		c-0.4-0.6-0.7-1.2-0.9-1.8c-0.7-1.8-0.2-2.8,1.5-3.4l2-0.8c1.6-0.6,2.7-0.1,3.3,1.4C499.4,341.5,498.9,342.6,497.3,343.2z
		 M496.2,339.8l-0.6,0.2l0.8,2l0.6-0.2c0.8-0.3,1-0.8,0.8-1.4c-0.2-0.5-0.8-0.8-1.3-0.7L496.2,339.8z"/>
	<path class="st6" d="M501.4,352.5l-2.2,0.6c-2.3,0.7-3.8-0.2-4.5-2.5c-0.3-0.9-0.4-1.6-0.6-2.5l9.1-2.7c0.2,0.6,0.5,1.5,0.8,2.5
		C504.6,350.2,503.7,351.8,501.4,352.5z M502.4,347.2l-6.8,2c0.1,0.5,0.2,0.8,0.3,1.1c0.2,1.1,1.3,1.8,2.4,1.6
		c0.1,0,0.3-0.1,0.4-0.1l2.4-0.7c1.6-0.5,2.1-1.5,1.7-2.8C502.7,347.9,502.6,347.5,502.4,347.2L502.4,347.2z"/>
	<path class="st6" d="M501.9,358.8l-4.6,1.1l-0.3-1.3l1-0.2c-0.8-0.2-1.4-0.8-1.6-1.5c-0.3-1,0.3-1.9,1.7-2.3l0.4-0.1
		c1.1-0.3,2.1,0.3,2.4,1.4l0,0.2c0.1,0.4,0.1,0.9,0.2,1.3l0.7-0.1c0.8-0.2,0.9-0.6,0.8-1.3c-0.2-0.6-0.4-1.2-0.7-1.8l1.2-0.3
		c0.3,0.6,0.5,1.2,0.7,1.9C504,357.6,503.5,358.4,501.9,358.8z M498.6,356h-0.1c-0.6,0.2-0.9,0.5-0.8,1c0.1,0.4,0.6,0.8,1.4,1.1
		l1-0.2c0-0.3-0.1-0.7-0.2-1c-0.1-0.5-0.6-0.9-1.1-0.8L498.6,356z"/>
	<path class="st6" d="M504.8,361.6l0.4,1.8l-1.2,0.2l-0.4-1.8l-3.7,0.8c-0.7,0.1-0.9,0.5-0.8,1c0.1,0.4,0.2,0.8,0.4,1.1l-1.2,0.3
		c-0.2-0.4-0.3-0.8-0.4-1.2c-0.3-1.5,0.2-2.3,1.8-2.6l3.6-0.8l-0.2-0.9l1.2-0.2l0.2,1l1.9-0.1l0.2,1.1L504.8,361.6z"/>
	<path class="st6" d="M503.8,369.6l-4.7,0.8L499,369l1-0.2c-0.7-0.2-1.3-0.8-1.5-1.6c-0.2-1.1,0.5-1.9,1.8-2.1l0.4-0.1
		c1.1-0.2,2.1,0.5,2.3,1.6l0,0.2c0.1,0.4,0.1,0.9,0.1,1.3l0.7-0.1c0.8-0.1,0.9-0.5,0.8-1.2c-0.1-0.6-0.3-1.2-0.5-1.8l1.2-0.2
		c0.2,0.6,0.4,1.3,0.5,1.9C506.1,368.5,505.5,369.3,503.8,369.6z M500.8,366.5h-0.1c-0.7,0.1-0.9,0.5-0.9,0.9
		c0.1,0.4,0.5,0.9,1.3,1.2l1-0.2c0-0.3,0-0.7-0.1-1c0-0.5-0.5-0.9-1-0.9L500.8,366.5L500.8,366.5z"/>
	<polygon class="st7" points="215.2,258.3 211.5,258.3 211.5,260.3 214.9,260.3 214.9,262.4 211.5,262.4 211.5,264.5 215.3,264.5 
		215.3,266.6 209.3,266.6 209.3,256.3 215.2,256.3 	"/>
	<path class="st7" d="M221.9,256.4v2c-0.8-0.1-1.6-0.2-2.4-0.3c-0.8,0-1.1,0.3-1.1,0.9v0.3c0,0.4,0.2,0.6,0.8,0.9l1.3,0.4
		c1.5,0.5,2.1,1.3,2.1,2.9v0.3c0,2-1,3-3.7,3c-0.8,0-1.7-0.2-2.5-0.3v-2.1c0.8,0.2,1.6,0.3,2.4,0.4c1.1,0,1.5-0.4,1.5-0.9v-0.3
		c0-0.4-0.3-0.8-0.7-0.8l-1.5-0.5c-1.6-0.5-2.1-1.2-2.1-2.9v-0.2c0-1.9,1-3,3.3-3C220.2,256.1,221.1,256.2,221.9,256.4z"/>
	<path class="st7" d="M229.5,256.4v2c-0.7-0.1-1.4-0.2-2.1-0.3c-1.3,0-1.6,0.4-1.6,1.6v3.5c0,1.2,0.4,1.6,1.6,1.6
		c0.7,0,1.4-0.1,2.1-0.3v2c-0.8,0.2-1.7,0.3-2.5,0.3c-2.6,0-3.5-1.1-3.5-3.4v-3.9c0-2.3,0.9-3.4,3.5-3.4
		C227.8,256.1,228.7,256.2,229.5,256.4z"/>
	<path class="st7" d="M238.5,266.6h-2.4l-0.5-2h-3l-0.5,2H230l3-10.3h2.6L238.5,266.6z M233.1,262.7h2.2l-1.1-4.6L233.1,262.7z"/>
	<polygon class="st7" points="241.4,264.6 245.2,264.6 245.2,266.6 239.2,266.6 239.2,256.3 241.5,256.3 	"/>
	<path class="st7" d="M254,266.6h-2.4l-0.5-2h-3l-0.5,2h-2.3l3-10.3h2.6L254,266.6z M248.6,262.7h2.2l-1.1-4.6L248.6,262.7z"/>
	<polygon class="st7" points="260.8,258.3 258,258.3 258,266.6 255.8,266.6 255.8,258.3 253,258.3 253,256.3 260.7,256.3 	"/>
	<polygon class="st7" points="267.7,258.3 263.9,258.3 263.9,260.3 267.3,260.3 267.3,262.4 263.9,262.4 263.9,264.5 267.7,264.5 
		267.7,266.6 261.7,266.6 261.7,256.3 267.7,256.3 	"/>
	<path class="st7" d="M211.7,277.2v0.3c0,2-1.2,3.3-3.6,3.3c-0.3,0-0.7,0-1-0.1v3.9h-2.3v-10.4c0.8,0,1.9-0.1,3-0.1
		C210.5,274.1,211.7,275.3,211.7,277.2z M207.1,276.1v2.7c0.3,0,0.6,0.1,0.8,0.1c1.1,0,1.5-0.5,1.5-1.4v-0.2c0-0.8-0.5-1.2-1.6-1.2
		C207.6,276,207.4,276,207.1,276.1z"/>
	<path class="st7" d="M219.4,277.1v0.3c0,1.1-0.6,2.1-1.6,2.6l2.5,4.6h-2.5l-2.1-4c-0.3,0-0.6,0-0.9,0v4h-2.3v-10.4
		c0.9,0,2.3-0.1,3-0.1C218.3,274.1,219.4,275.3,219.4,277.1z M214.9,276.1v2.6c0.3,0,0.5,0,0.8,0c1.1,0,1.5-0.5,1.5-1.3v-0.2
		c0-0.8-0.4-1.2-1.5-1.2C215.4,276.1,215.2,276.1,214.9,276.1z"/>
	<rect x="220.9" y="274.3" class="st7" width="2.3" height="10.3"/>
	<polygon class="st7" points="229.4,284.6 226.8,284.6 223.9,274.3 226.2,274.3 228.1,282.7 230,274.3 232.3,274.3 	"/>
	<rect x="233" y="274.3" class="st7" width="2.3" height="10.3"/>
	<polygon class="st7" points="238.9,282.6 242.6,282.6 242.6,284.6 236.7,284.6 236.7,274.3 239,274.3 	"/>
	<polygon class="st7" points="249.5,276.3 245.7,276.3 245.7,278.3 249.1,278.3 249.1,280.4 245.7,280.4 245.7,282.5 249.5,282.5 
		249.5,284.6 243.5,284.6 243.5,274.3 249.5,274.3 	"/>
	<path class="st7" d="M257.1,274.4v2c-0.9-0.2-1.9-0.3-2.9-0.3c-1.1,0-1.4,0.4-1.4,1.3v4c0,1,0.4,1.4,1.4,1.4c0.4,0,0.8,0,1.2-0.1
		v-2.3H254v-2h3.5v5.7c-1.1,0.4-2.3,0.6-3.4,0.7c-2.6,0-3.5-1.1-3.5-3.4v-3.9c0-2.3,1-3.4,3.5-3.4
		C255.1,274.1,256.1,274.2,257.1,274.4z"/>
	<polygon class="st7" points="264.8,276.3 261,276.3 261,278.3 264.4,278.3 264.4,280.4 261,280.4 261,282.5 264.8,282.5 
		264.8,284.6 258.8,284.6 258.8,274.3 264.8,274.3 	"/>
	<path class="st7" d="M271.5,274.4v2c-0.8-0.2-1.6-0.2-2.4-0.3c-0.8,0-1.1,0.3-1.1,0.9v0.3c0,0.4,0.2,0.6,0.8,0.9l1.3,0.4
		c1.4,0.3,2.3,1.5,2.1,2.9v0.3c0,2-1,3-3.7,3c-0.8,0-1.7-0.2-2.5-0.3v-2.1c0.8,0.2,1.6,0.3,2.4,0.4c1.1,0,1.5-0.4,1.5-0.9v-0.3
		c0-0.4-0.3-0.8-0.7-0.8l-1.5-0.5c-1.6-0.5-2.1-1.2-2.1-2.9v-0.2c0-1.9,1-3,3.3-3C269.8,274.1,270.7,274.2,271.5,274.4z"/>
	<path class="st6" d="M81.8,271c-1.8,1.1-3.5,2.2-5.3,3.4c6,3.9,12.2,7.4,18.7,10.4c2.2-1.2,4.4-2.4,6.6-3.5
		C94.8,278.4,88.1,275,81.8,271z"/>
	<polygon class="st0" points="417.8,273.3 431.2,273.3 425.7,269.5 	"/>
	<path class="st2" d="M228.1,151.8L228.1,151.8c0-67,54.5-121.5,121.5-121.5V11.5c-77.1,0-139.9,62.6-140.3,139.6"/>
	<path class="st4" d="M391.6,291.8c13.8-4.1,26.9-10.4,38.8-18.5h-12.7c-19,11-40.4,17.4-62.3,18.5h-3c0.8,0,1.6,0,2.5,0l-0.6,0
		c-1,0.1-1.9,0.1-2.9,0.2h7.7c10.3,0.6,20.4,2.8,30,6.5h37.3c-3-2.4-6.1-4.6-9.3-6.7L391.6,291.8z"/>
	<path class="st3" d="M349.6,34.8c-1,0-2,0-3,0h-1l-2,0.1l-1.1,0.1c-0.6,0-1.2,0.1-1.8,0.1l-1.3,0.1l-1.7,0.1l-1.4,0.2
		c-0.5,0.1-1,0.1-1.5,0.2c-0.5,0.1-1,0.1-1.4,0.2c-0.5,0.1-1,0.1-1.5,0.2c-0.5,0.1-1,0.2-1.5,0.2l-1.4,0.2l-1.5,0.3l-1.4,0.3
		l-1.5,0.3c-0.5,0.1-0.9,0.2-1.3,0.3c-0.4,0.1-1,0.2-1.5,0.4l-1.3,0.3l-1.6,0.4l-1.2,0.3l-1.6,0.5L315,40c-0.5,0.2-1.1,0.3-1.6,0.5
		c-0.4,0.1-0.8,0.2-1.1,0.4l-1.7,0.6l-1,0.4l-1.7,0.7l-1,0.4l-1.7,0.7l-0.9,0.4c-0.6,0.2-1.2,0.5-1.8,0.8l-0.8,0.4
		c-0.6,0.3-1.2,0.5-1.8,0.8l-0.8,0.4l-1.8,0.9l-0.8,0.4c-0.6,0.3-1.2,0.6-1.8,1l-0.7,0.4c-0.6,0.3-1.2,0.7-1.8,1l-0.6,0.4l-1.9,1.1
		l-0.6,0.3c-0.6,0.4-1.3,0.8-1.9,1.2l-0.5,0.3c-0.6,0.4-1.3,0.8-1.9,1.2l-0.5,0.3c-0.6,0.4-1.3,0.9-1.9,1.3l-0.4,0.3
		c-0.6,0.5-1.3,0.9-1.9,1.4l-0.4,0.3c-0.6,0.5-1.3,1-1.9,1.5l-0.3,0.2c-0.6,0.5-1.3,1-1.9,1.5l-0.3,0.2c-0.6,0.5-1.3,1.1-1.9,1.6
		l-0.2,0.2c-0.6,0.6-1.3,1.1-1.9,1.7l-0.2,0.2c-0.6,0.6-1.3,1.2-1.9,1.7l-0.2,0.1c-0.6,0.6-1.3,1.2-1.9,1.8l-0.1,0.1
		c-0.6,0.6-1.3,1.3-1.9,1.9l-0.1,0.1c-0.6,0.7-1.2,1.3-1.8,2l-0.1,0.1c-0.6,0.7-1.2,1.4-1.8,2.1c-0.6,0.7-1.2,1.4-1.8,2.1
		c-17.3,20.8-26.8,47-26.9,74c0,0.2,0,0.4,0,0.6v70.5l33.8-45h-15v-25.5c0-0.2,0-0.4,0-0.6c0.1-21.9,7.6-43.1,21.2-60.3
		c0.5-0.6,1-1.2,1.5-1.8c0.5-0.6,1-1.2,1.5-1.8l0.1-0.1c0.5-0.6,1-1.1,1.5-1.7l0.1-0.1c0.5-0.6,1-1.1,1.5-1.6l0.1-0.1
		c0.5-0.5,1-1.1,1.6-1.6l0.1-0.1l1.6-1.5l0.2-0.1c0.5-0.5,1-1,1.6-1.4l0.2-0.2l1.6-1.4l0.2-0.1c0.5-0.5,1-0.9,1.6-1.3l0.3-0.2
		c0.5-0.4,1-0.8,1.6-1.3l0.3-0.2c0.5-0.4,1-0.8,1.6-1.2l0.3-0.2c0.5-0.4,1-0.8,1.6-1.1l0.4-0.3c0.5-0.4,1-0.8,1.6-1.1l0.4-0.3l1.6-1
		l0.4-0.3c0.5-0.3,1-0.6,1.6-1c0.2-0.1,0.3-0.2,0.5-0.3c0.5-0.3,1-0.6,1.5-0.9l0.5-0.3c0.5-0.3,1-0.6,1.5-0.8l0.6-0.3
		c0.5-0.3,1-0.5,1.5-0.8c0.2-0.1,0.4-0.2,0.6-0.3c0.5-0.2,1-0.5,1.5-0.8l0.7-0.3l1.5-0.7l0.8-0.3l1.5-0.6c0.3-0.1,0.5-0.2,0.8-0.3
		c0.5-0.2,1-0.4,1.4-0.6l0.8-0.3l1.4-0.5l0.9-0.3l1.4-0.5l0.9-0.3l1.4-0.4l1-0.3l1.3-0.4l1-0.3c0.4-0.1,0.9-0.2,1.3-0.4l1-0.3
		l1.3-0.3l1.1-0.2l1.3-0.3l1.1-0.2c0.4-0.1,0.9-0.2,1.3-0.2l1.2-0.2l1.2-0.2l1.2-0.2l1.2-0.2c0.4-0.1,0.9-0.1,1.3-0.1l1.2-0.1
		L341,54l1.1-0.1l1.5-0.1l1-0.1c0.5,0,1.1,0,1.6-0.1h0.9c0.8,0,1.7,0,2.5,0c22.7,0,44.8,7.9,62.3,22.3l3.2-21
		C395.9,41.8,373,34.8,349.6,34.8z"/>
	<path class="st3" d="M447.9,151.8c-0.1,54.2-44,98.2-98.3,98.3v18.8c64.5,0,117-52.5,117-117c0-37.1-17.6-72-47.4-94L416,79.4
		C436.3,98,447.9,124.2,447.9,151.8z"/>
	<path class="st2" d="M448,51.9l-24,3.8c29.8,23,47.2,58.5,47.2,96.1c0,67-54.5,121.5-121.5,121.5V292
		c77.3,0,140.3-62.9,140.3-140.3C489.9,114.2,474.8,78.2,448,51.9z"/>
	<path class="st2" d="M349.6,11.6c-77.3,0-140.3,62.9-140.3,140.3v25.5h-15l33.8,45v-44v-26.5c0-67,54.5-121.5,121.5-121.5
		c24.7,0,48.9,7.5,69.2,21.7l25-4C418.1,24.5,384.5,11.5,349.6,11.6z"/>
	<polygon class="st6" points="1.9,174.9 1.7,173.5 11,172.4 11.1,173.8 	"/>
	<path class="st6" d="M7.5,181.2l-4.7,0.7l-0.2-1.4l4.5-0.7c0.9-0.1,1.2-0.5,1.1-1c-0.2-0.6-0.6-1.1-1.2-1.2l-4.7,0.7L2.1,177
		l6.9-1.1l0.2,1.3l-1,0.1c0.7,0.3,1.3,0.9,1.4,1.7C9.8,180.2,9.1,181,7.5,181.2z"/>
	<path class="st6" d="M10.4,184.3l0.3,1.8l-1.2,0.2l-0.3-1.8l-3.7,0.7c-0.7,0.1-0.9,0.4-0.8,1c0.1,0.4,0.2,0.8,0.4,1.1l-1.2,0.3
		c-0.2-0.4-0.3-0.8-0.4-1.2c-0.3-1.5,0.2-2.3,1.8-2.6l3.6-0.7l-0.2-0.9l1.2-0.2l0.2,1l1.9-0.1l0.2,1.1L10.4,184.3z"/>
	<path class="st6" d="M9.8,192.7L8.3,193l-0.8-3.5l-0.7,0.2c-0.8,0.2-1.1,0.7-0.9,1.6c0.2,0.6,0.4,1.2,0.6,1.8l-1.2,0.3
		c-0.3-0.6-0.5-1.2-0.7-1.9c-0.4-1.9,0.2-2.8,1.9-3.2l2-0.5c1.6-0.4,2.7,0.2,3.1,1.8C12.1,191.3,11.4,192.3,9.8,192.7z M9.1,189.2
		l-0.6,0.1l0.5,2.1l0.6-0.1c0.8-0.2,1.1-0.7,0.9-1.3c-0.1-0.6-0.7-0.9-1.2-0.8L9.1,189.2L9.1,189.2z"/>
	<path class="st6" d="M13.5,196.9l-1.5,0.4c0-0.2,0-0.3-0.1-0.5c-0.2-0.6-0.7-1.1-1.3-1.2l-4.4,1.2l-0.4-1.4l6.7-1.8l0.3,1.3l-1,0.3
		c0.8,0.2,1.4,0.7,1.7,1.5C13.5,196.7,13.5,196.8,13.5,196.9z"/>
	<path class="st6" d="M13.1,203.6L8.6,205l-0.4-1.3l4.3-1.4c0.9-0.3,1.1-0.7,1-1.1c-0.3-0.6-0.8-0.9-1.4-1l-4.6,1.5l-0.4-1.3
		l6.6-2.1l0.4,1.2l-1,0.3c0.8,0.1,1.4,0.7,1.7,1.4C15.2,202.2,14.6,203.1,13.1,203.6z"/>
	<path class="st6" d="M15.4,209.7l-4.4,1.7l-0.5-1.2l1-0.4c-0.8-0.1-1.4-0.6-1.7-1.3c-0.4-1,0.1-2,1.4-2.4l0.4-0.1
		c1-0.4,2.2,0.1,2.6,1.1l0.1,0.2c0.1,0.4,0.2,0.9,0.3,1.3l0.6-0.2c0.7-0.3,0.8-0.7,0.6-1.4c-0.2-0.6-0.5-1.2-0.9-1.7l1.1-0.4
		c0.3,0.6,0.6,1.2,0.9,1.8C17.4,208.2,17,209.1,15.4,209.7z M11.8,207.3l-0.1,0.1c-0.6,0.2-0.8,0.6-0.7,1c0.1,0.4,0.7,0.8,1.5,0.9
		l1-0.4c-0.1-0.3-0.2-0.7-0.3-1c-0.1-0.5-0.7-0.8-1.2-0.7L11.8,207.3z"/>
	<polygon class="st6" points="12.2,214.5 11.7,213.2 20.7,209.5 21.2,210.8 	"/>
	<polygon class="st6" points="23.9,220.8 22.8,218.4 15.5,221.8 14.9,220.6 22.2,217.1 21,214.7 22.2,214.1 25.1,220.2 	"/>
	<path class="st6" d="M23.5,224.1c0.7,0,1.4,0.4,1.7,1c0.6,1,0.2,2-1.2,2.8l-4.2,2.3l-0.7-1.2l4-2.2c0.8-0.4,1-0.9,0.8-1.3
		c-0.4-0.5-1-0.8-1.6-0.8l-4.2,2.3l-0.7-1.2l8.6-4.6l0.7,1.2L23.5,224.1z"/>
	<path class="st6" d="M28.8,231.3l-1.3,0.8c-0.1-0.2-0.1-0.3-0.2-0.5c-0.3-0.6-1-0.9-1.6-0.8l-4,2.4l-0.8-1.2l6-3.5l0.7,1.1
		l-0.9,0.5c0.8,0,1.5,0.3,2,1C28.7,231.1,28.8,231.2,28.8,231.3z"/>
	<path class="st6" d="M29.8,237.7l-1.3,0.8l-1.9-3l-0.6,0.4c-0.8,0.5-0.8,1-0.3,1.8c0.4,0.5,0.8,1,1.2,1.5l-1,0.7
		c-0.5-0.5-0.9-1-1.3-1.5c-1.1-1.6-0.8-2.7,0.8-3.7l1.8-1.1c1.4-0.9,2.6-0.8,3.5,0.7C31.6,235.6,31.2,236.8,29.8,237.7z M28.1,234.6
		l-0.5,0.3l1.2,1.8l0.5-0.3c0.5-0.2,0.8-0.9,0.5-1.4l-0.1-0.2c-0.3-0.5-0.9-0.7-1.4-0.4L28.1,234.6z"/>
	<path class="st6" d="M33.6,242.7l-3.9,2.8l-0.8-1.1l0.8-0.6c-0.8,0.1-1.5-0.2-2-0.8c-0.6-0.9-0.4-1.9,0.7-2.7l0.3-0.2
		c0.9-0.7,2.1-0.5,2.8,0.4l0.1,0.2c0.2,0.4,0.5,0.8,0.7,1.2l0.5-0.4c0.6-0.4,0.6-0.9,0.2-1.5c-0.4-0.5-0.8-1-1.3-1.4l1-0.7
		c0.5,0.5,0.9,1,1.3,1.5C35.1,240.7,35,241.7,33.6,242.7z M29.5,241.3l-0.1,0.1c-0.5,0.4-0.6,0.8-0.4,1.2c0.4,0.4,1.1,0.6,1.7,0.5
		l0.8-0.6c-0.1-0.3-0.3-0.6-0.5-0.9c-0.3-0.5-0.9-0.6-1.3-0.4L29.5,241.3z"/>
	<path class="st6" d="M37.4,244.1l1.1,1.4l-0.9,0.8l-1.1-1.4l-3,2.3c-0.5,0.4-0.6,0.8-0.2,1.3c0.2,0.3,0.5,0.6,0.8,0.8l-0.9,0.8
		c-0.3-0.3-0.6-0.5-0.9-0.9c-0.9-1.2-0.9-2.1,0.4-3.1l2.9-2.3L35,243l0.9-0.8l0.6,0.8l1.6-1l0.7,0.9L37.4,244.1z"/>
	<path class="st6" d="M41.7,249.3l-1,0.8c-0.2-0.4-0.5-0.8-0.8-1.2c-0.5-0.6-0.9-0.7-1.3-0.4l-0.1,0.1c-0.2,0.2-0.3,0.4-0.2,0.8
		l0.4,1.4c0.3,0.7,0.1,1.5-0.5,2l-0.2,0.2c-1,0.8-2,0.8-3.1-0.6c-0.4-0.5-0.7-1.1-1-1.6l1-0.8c0.2,0.6,0.5,1.1,0.9,1.6
		c0.5,0.7,0.9,0.7,1.2,0.4l0.1-0.1c0.3-0.2,0.4-0.6,0.3-0.9l-0.4-1.4c-0.3-0.7-0.1-1.5,0.5-2l0.1-0.1c1-0.8,2-0.8,3.1,0.6
		C41.2,248.5,41.5,248.9,41.7,249.3z"/>
	<path class="st8" d="M38.5,390.3c0-23,6.8-45.4,19.5-64.5l1.9,1.2l-0.2-3.7l-0.2-3.4l-3.7,1.1l-3.7,1.1l2,1.3
		c-13.2,19.8-20.2,43.1-20.2,66.9"/>
	<path class="st9" d="M38.5,390.3c0-23,6.8-45.4,19.5-64.5l1.9,1.2l-0.2-3.7l-0.2-3.4l-3.7,1.1l-3.7,1.1l2,1.3
		c-13.2,19.8-20.2,43.1-20.2,66.9"/>
	<path class="st1" d="M57.2,151.8H38.5c0,64.1,51.9,116.4,115.9,117v-18.8C100.7,249.4,57.2,205.6,57.2,151.8z"/>
	<path class="st1" d="M34,151.8H15.2c0,77,62.3,139.6,139.1,140.3v-18.8C87.9,272.7,34,218.4,34,151.8z"/>
	<path class="st1" d="M34,151.8H15.2c0,77,62.3,139.6,139.1,140.3v-18.8C87.9,272.7,34,218.4,34,151.8z"/>
	<rect x="154.3" y="273.3" class="st1" width="36.8" height="18.8"/>
	<path class="st6" d="M107.5,283.6c-2.4,1.1-4.8,2.3-7.1,3.5c9.4,3.9,19.2,6.7,29.3,8.4c8.1-2.2,16.4-3.4,24.7-3.4
		C138.4,291.9,122.5,289.1,107.5,283.6z"/>
	<path class="st6" d="M107.5,258.5c-1.9,0.7-3.9,1.5-5.8,2.3c9.6,4.8,19.9,8.2,30.4,10.3c7.3-1.4,14.8-2.2,22.2-2.3
		C138.2,268.7,122.2,265.2,107.5,258.5z"/>
	<path class="st1" d="M57.2,151.8H38.5c0,64.1,51.9,116.4,115.9,117v-18.8C100.7,249.4,57.2,205.6,57.2,151.8z"/>
	<rect x="154.3" y="250" class="st1" width="36.8" height="18.8"/>
	<path class="st8" d="M38.5,151.8c0,23,6.8,45.4,19.5,64.6l1.9-1.2l-0.2,3.7l-0.2,3.4l-3.7-1.1l-3.7-1.1l2-1.3
		C41,198.9,34,175.6,34,151.8"/>
	<path class="st9" d="M38.5,151.8c0,23,6.8,45.4,19.5,64.6l1.9-1.2l-0.2,3.7l-0.2,3.4l-3.7-1.1l-3.7-1.1l2-1.3
		C41,198.9,34,175.6,34,151.8"/>
	<polygon class="st6" points="2.1,363.8 1.5,367.4 4.1,367.8 4.7,364.5 5.9,364.7 5.4,368 8.2,368.4 8.7,364.9 10,365.1 9.2,370.1 
		0,368.6 0.8,363.6 	"/>
	<polygon class="st6" points="7.4,360.1 11.3,358.7 11,360.2 8.2,361.1 10.4,363 10.1,364.6 7,361.7 3.3,363 3.7,361.4 6.2,360.7 
		4.2,358.9 4.5,357.4 	"/>
	<path class="st6" d="M5.3,354.5l0.4-1.7l1.2,0.3l-0.4,1.7l3.6,0.9c0.7,0.2,1,0,1.1-0.6c0.1-0.4,0.1-0.8,0.1-1.2l1.2,0.3
		c0,0.4,0,0.8-0.1,1.2c-0.4,1.5-1.1,2-2.7,1.6L6,356.2l-0.2,0.9l-1.1-0.3l0.2-0.9l-1.7-0.7l0.3-1.1L5.3,354.5z"/>
	<path class="st6" d="M9.7,347.4l1.5,0.4l-1,3.4l0.7,0.2c0.8,0.2,1.3,0,1.6-0.9c0.2-0.6,0.3-1.2,0.3-1.9l1.2,0.3
		c0,0.7-0.1,1.3-0.3,2c-0.5,1.9-1.5,2.3-3.3,1.8l-2-0.6c-1.6-0.5-2.3-1.5-1.8-3.1S8.1,347,9.7,347.4z M8.5,350.8l0.6,0.2l0.6-2.1
		l-0.6-0.2c-0.5-0.3-1.2,0-1.4,0.5c-0.3,0.5,0,1.2,0.5,1.4C8.3,350.8,8.4,350.8,8.5,350.8z"/>
	<path class="st6" d="M8.8,342l1.5,0.5c-0.1,0.2-0.2,0.3-0.2,0.5c-0.2,0.6,0,1.3,0.4,1.8l4.4,1.5l-0.4,1.3l-6.6-2.2l0.4-1.3l1,0.3
		c-0.5-0.6-0.8-1.4-0.6-2.2C8.7,342.2,8.7,342.1,8.8,342z"/>
	<path class="st6" d="M13.2,337l4.4,1.7l-0.5,1.3l-4.3-1.6c-0.9-0.3-1.3-0.2-1.5,0.3c-0.1,0.6,0,1.2,0.5,1.7l4.5,1.7l-0.5,1.3
		l-6.5-2.5l0.4-1.2l0.9,0.4c-0.5-0.6-0.7-1.4-0.5-2.1C10.7,336.8,11.7,336.5,13.2,337z"/>
	<path class="st6" d="M15.6,331.2l4.4,1.9l-0.5,1.2l-1-0.4c0.5,0.6,0.6,1.4,0.4,2.1c-0.4,1-1.4,1.3-2.7,0.8l-0.4-0.2
		c-1-0.4-1.5-1.5-1.1-2.5l0.1-0.2c0.2-0.4,0.4-0.8,0.7-1.2l-0.6-0.3c-0.7-0.3-1.1-0.1-1.3,0.6c-0.2,0.6-0.4,1.2-0.5,1.8l-1.1-0.5
		c0.1-0.6,0.3-1.3,0.6-1.9C13.1,330.9,14,330.5,15.6,331.2z M16.5,335.4l0.1,0.1c0.6,0.3,1,0.1,1.2-0.3c0.1-0.6,0-1.2-0.5-1.7
		l-0.9-0.4c-0.2,0.3-0.3,0.6-0.5,0.9c-0.3,0.5-0.1,1.1,0.4,1.3L16.5,335.4z"/>
	<polygon class="st6" points="21.2,330.4 20.6,331.7 11.8,327.6 12.4,326.3 	"/>
	<polygon class="st6" points="18.8,317.7 17.5,320 24.6,323.8 23.9,325.1 16.8,321.3 15.6,323.6 14.4,323 17.6,317.1 	"/>
	<path class="st6" d="M21.8,316.3c-0.3-0.6-0.3-1.4,0-2c0.6-1,1.7-1.2,3-0.4l4.1,2.4l-0.8,1.2l-3.9-2.3c-0.8-0.5-1.2-0.4-1.5,0
		c-0.3,0.6-0.2,1.2,0.2,1.7l4.1,2.5l-0.8,1.2l-8.3-5l0.8-1.2L21.8,316.3z"/>
	<path class="st6" d="M25.7,308.3l1.3,0.9c-0.1,0.1-0.2,0.3-0.3,0.4c-0.4,0.6-0.4,1.3,0,1.8l3.9,2.5l-0.8,1.2l-5.9-3.8l0.8-1.1
		l0.9,0.6c-0.4-0.7-0.4-1.6,0-2.3L25.7,308.3z"/>
	<path class="st6" d="M31.1,304.9l1.2,0.9l-2,2.9l0.6,0.4c0.7,0.5,1.2,0.4,1.8-0.4c0.3-0.5,0.6-1.1,0.9-1.7l1,0.7
		c-0.3,0.6-0.6,1.2-0.9,1.8c-1.1,1.6-2.2,1.7-3.7,0.7l-1.7-1.2c-1.4-1-1.7-2.1-0.7-3.5C28.6,304.1,29.8,303.9,31.1,304.9z
		 M28.9,307.7l0.5,0.4l1.2-1.8l-0.5-0.3c-0.4-0.4-1.1-0.4-1.5,0c-0.4,0.4-0.4,1.1,0,1.5L28.9,307.7z"/>
	<path class="st6" d="M34.6,300l3.8,2.9l-0.8,1l-0.8-0.6c0.3,0.7,0.3,1.5-0.1,2.2c-0.7,0.9-1.7,0.9-2.8,0.1l-0.3-0.2
		c-0.9-0.6-1.1-1.9-0.4-2.8l0.2-0.2c0.3-0.3,0.6-0.7,0.9-1l-0.5-0.4c-0.6-0.5-1-0.4-1.5,0.2c-0.4,0.5-0.7,1.1-1,1.6l-1-0.8
		c0.3-0.6,0.6-1.2,1-1.7C32.3,299.1,33.3,299,34.6,300z M34.5,304.3l0.1,0.1c0.5,0.4,1,0.4,1.2,0c0.3-0.6,0.3-1.2-0.1-1.7L35,302
		c-0.2,0.2-0.5,0.5-0.7,0.8c-0.4,0.4-0.4,1,0,1.4L34.5,304.3z"/>
	<path class="st6" d="M35,296l1.1-1.4l0.9,0.8l-1.1,1.4l2.9,2.4c0.5,0.4,0.9,0.4,1.3,0c0.2-0.3,0.5-0.6,0.6-1l0.9,0.8
		c-0.2,0.4-0.4,0.7-0.7,1c-1,1.2-1.9,1.3-3.2,0.3l-2.8-2.4l-0.6,0.8l-0.9-0.8l0.6-0.8l-1.3-1.4l0.8-0.9L35,296z"/>
	<path class="st6" d="M39.5,290.9l0.9,0.8c-0.4,0.3-0.7,0.6-1.1,0.9c-0.6,0.6-0.6,1-0.2,1.3l0.1,0.1c0.2,0.2,0.4,0.2,0.8,0l1.3-0.6
		c0.7-0.4,1.5-0.3,2.1,0.2l0.2,0.2c1,0.9,1,1.9-0.1,3.2c-0.4,0.5-1,0.9-1.5,1.2l-0.9-0.9c0.5-0.3,1-0.7,1.4-1.1
		c0.6-0.6,0.6-1,0.2-1.3l-0.1-0.1c-0.2-0.2-0.6-0.3-0.9-0.1l-1.3,0.6c-0.7,0.4-1.5,0.3-2.1-0.2l-0.1-0.1c-1-0.9-1-1.9,0.1-3.2
		C38.7,291.5,39.1,291.2,39.5,290.9z"/>
</g>
</svg>
