<?xml version="1.0" encoding="UTF-8" standalone="no"?>
<svg
   xmlns:dc="http://purl.org/dc/elements/1.1/"
   xmlns:cc="http://creativecommons.org/ns#"
   xmlns:rdf="http://www.w3.org/1999/02/22-rdf-syntax-ns#"
   xmlns:svg="http://www.w3.org/2000/svg"
   xmlns="http://www.w3.org/2000/svg"
   id="svg48440"
   version="1.1"
   viewBox="0 0 228.11845 156.33438"
   height="156.33438mm"
   width="228.11845mm">
  <defs
     id="defs48434" />
  <metadata
     id="metadata48437">
    <rdf:RDF>
      <cc:Work
         rdf:about="">
        <dc:format>image/svg+xml</dc:format>
        <dc:type
           rdf:resource="http://purl.org/dc/dcmitype/StillImage" />
        <dc:title></dc:title>
      </cc:Work>
    </rdf:RDF>
  </metadata>
  <g
     transform="translate(296.9997,22.315999)"
     id="layer1">
    <g
       transform="matrix(0.26458333,0,0,0.26458333,-296.9997,-22.315999)"
       id="Layer_2-884-2"
       data-name="Layer 2">
      <g
         id="Layer_1-2-31-0"
         data-name="Layer 1">
        <polygon
           style="fill:#f05b40;stroke:#be1e2d;stroke-width:2px;stroke-miterlimit:10"
           class="cls-1"
           points="290.05,291.73 300.25,301.92 314.66,301.92 324.85,291.73 324.85,277.32 314.66,267.12 300.25,267.12 290.05,277.32 "
           id="polygon10511-2" />
        <path
           style="fill:#133653"
           class="cls-2"
           d="m 474,358.15 v 0.24 h 38.66 a 161.47,161.47 0 0 0 51.46,-25 H 550 a 155.12,155.12 0 0 1 -76,24.76 z"
           id="path10513-1" />
        <path
           style="fill:#808083"
           class="cls-3"
           d="m 51.28,520.37 h 25 c 0,-71.73 58,-130.16 129.5,-131 v -25 c -85.33,0.84 -154.5,70.49 -154.5,156 z"
           id="path10515-7" />
        <path
           style="fill:#808083"
           class="cls-3"
           d="m 20.28,520.37 h 25 c 0,-88.82 71.86,-161.16 160.5,-162 v -25 c -102.42,0.84 -185.5,84.4 -185.5,187 z"
           id="path10517-5" />
        <path
           style="fill:#808083"
           class="cls-3"
           d="m 20.28,520.37 h 25 c 0,-88.82 71.86,-161.16 160.5,-162 v -25 c -102.42,0.84 -185.5,84.4 -185.5,187 z"
           id="path10519-1" />
        <path
           style="fill:#4c8ecb"
           class="cls-4"
           d="m 627.91,519.52 v 0 60 l -45,-60 h 20 c -0.44,-71.85 -59,-130.18 -131,-130.18 v -25 c 85.76,0 155.56,69.54 156,155.18 z"
           id="path10521-7" />
        <path
           style="fill:#2e73af"
           class="cls-5"
           d="m 658.91,519.52 h 20 l -45,60 v -59.19 0 c 0,-89.32 -72.67,-162 -162,-162 v -25 c 102.86,0.01 186.56,83.46 187,186.19 z"
           id="path10523-4" />
        <path
           style="fill:#1a4b74"
           class="cls-6"
           d="m 605,389.09 h -38.13 q 5.79,4.21 11.13,8.91 h 35.16 q -3.93,-4.58 -8.16,-8.91 z"
           id="path10525-1" />
        <path
           style="fill:#133653"
           class="cls-2"
           d="m 532.89,343.43 a 154.94,154.94 0 0 1 -60.76,14.79 v 0.07 a 161.8,161.8 0 0 1 28.2,2.46 160.75,160.75 0 0 0 40.31,-14.46 c 7.36,-4.64 -1.25,-5.54 -7.75,-2.86 z"
           id="path10527-7" />
        <path
           style="fill:#404041"
           class="cls-7"
           d="m 36,154.94 a 3.77,3.77 0 0 0 0.72,0.67 15.33,15.33 0 0 0 3.48,5.86 7.87,7.87 0 0 0 6.08,2.88 h 0.07 a 7.92,7.92 0 0 0 6.08,-2.87 15.35,15.35 0 0 0 3.47,-5.87 3.86,3.86 0 0 0 0.73,-0.68 6.67,6.67 0 0 0 1.22,-2.35 8.52,8.52 0 0 0 0.42,-2.52 5.78,5.78 0 0 0 0,-0.58 v 0 0 a 3.9,3.9 0 0 0 -0.88,-2.14 3.12,3.12 0 0 0 -0.46,-0.43 1.18,1.18 0 0 0 0,-0.2 c 0.62,-3.42 -0.21,-9.8 -7.25,-12 a 10.86,10.86 0 0 0 -3.28,-0.53 9.6,9.6 0 0 0 -6.9,2.94 4.27,4.27 0 0 0 -3.09,1.74 c -0.81,1.07 -1.95,3.52 -0.83,8.15 a 1.94,1.94 0 0 0 -0.32,0.32 3.77,3.77 0 0 0 -0.88,2.13 v 0 a 5.79,5.79 0 0 0 0,0.61 8.74,8.74 0 0 0 0.72,3.35 5.71,5.71 0 0 0 0.9,1.52 z M 38,140 a 2.23,2.23 0 0 1 1.89,-1 1,1 0 0 0 0.85,-0.37 7.51,7.51 0 0 1 5.69,-2.57 9,9 0 0 1 2.7,0.44 8.38,8.38 0 0 1 5.9,9.77 c -0.05,0.28 -0.11,0.55 -0.16,0.81 a 1.09,1.09 0 0 0 0,0.26 c -1.95,0.28 -6,-1.77 -8.51,-5.59 a 3.21,3.21 0 0 0 -2.51,-1.66 c -2.08,-0.1 -4,2.2 -4.06,2.33 a 18.11,18.11 0 0 0 -2.2,4.58 c -1.11,-4.17 -0.25,-6.16 0.41,-7 z m -1.65,9.65 v 0 a 2.18,2.18 0 0 1 0.31,-0.94 q 0.06,0.32 0.09,0.54 c 0.14,0.85 0.18,1.08 0.54,1.08 v 0 c 0.35,0 0.41,-0.3 0.49,-0.76 a 17.13,17.13 0 0 1 2.6,-6.64 c 0,0 1.71,-2.09 3.38,-2 a 2.43,2.43 0 0 1 1.89,1.3 c 2.65,4.06 7.11,6.39 9.48,5.9 l -0.27,1.29 a 0.39,0.39 0 0 0 0.3,0.46 0.4,0.4 0 0 0 0.47,-0.3 l 0.21,-1 v 0 a 2,2 0 0 1 0.41,1.07 v 0 c 0,0.13 0,0.26 0,0.39 A 6.89,6.89 0 0 1 56,152 a 5,5 0 0 1 -0.86,1.68 1.82,1.82 0 0 1 -0.51,0.44 1,1 0 0 0 -0.5,0.62 13.41,13.41 0 0 1 -3.13,5.41 5.87,5.87 0 0 1 -4.64,2.24 h -0.07 a 5.84,5.84 0 0 1 -4.64,-2.25 13.09,13.09 0 0 1 -3.13,-5.41 1,1 0 0 0 -0.5,-0.62 1.72,1.72 0 0 1 -0.52,-0.44 4.76,4.76 0 0 1 -0.62,-1 6.83,6.83 0 0 1 -0.55,-2.57 c -0.03,-0.18 -0.03,-0.3 -0.02,-0.42 z"
           id="path10529-1" />
        <path
           style="fill:#404041"
           class="cls-7"
           d="m 43,158.2 a 7.22,7.22 0 0 0 3.28,0.83 7.65,7.65 0 0 0 3.34,-0.83 0.41,0.41 0 0 0 0.18,-0.53 0.4,0.4 0 0 0 -0.52,-0.18 6.32,6.32 0 0 1 -5.93,0 0.38,0.38 0 0 0 -0.52,0.17 0.4,0.4 0 0 0 0.17,0.54 z"
           id="path10531-1" />
        <ellipse
           style="fill:#404041"
           class="cls-7"
           cx="41.869999"
           cy="150.42999"
           rx="1.1799999"
           ry="1.5700001"
           id="ellipse10533-1" />
        <ellipse
           style="fill:#404041"
           class="cls-7"
           cx="50.360001"
           cy="150.42999"
           rx="1.1799999"
           ry="1.5700001"
           id="ellipse10535-7" />
        <path
           style="fill:#404041"
           class="cls-7"
           d="m 45.44,155.46 h 0.21 a 0.91,0.91 0 0 0 0.51,-0.16 0.39,0.39 0 0 0 0.1,-0.55 0.4,0.4 0 0 0 -0.54,-0.1 0.17,0.17 0 0 1 -0.12,0 0.39,0.39 0 0 1 -0.24,-0.18 1.32,1.32 0 0 1 -0.08,-0.79 6.06,6.06 0 0 1 0.57,-2 0.41,0.41 0 0 0 -0.18,-0.53 0.4,0.4 0 0 0 -0.53,0.19 7,7 0 0 0 -0.64,2.21 2.06,2.06 0 0 0 0.19,1.29 1.14,1.14 0 0 0 0.75,0.62 z"
           id="path10537-0" />
        <rect
           style="fill:#404041"
           class="cls-7"
           x="41.049999"
           y="147.37"
           width="0.73000002"
           height="3.24"
           transform="rotate(-67.08,41.406638,148.98331)"
           id="rect10539-4" />
        <rect
           style="fill:#404041"
           class="cls-7"
           x="49.189999"
           y="148.63"
           width="3.24"
           height="0.73000002"
           transform="rotate(-22.91,50.824844,149.01482)"
           id="rect10541-0" />
        <path
           style="fill:none"
           class="cls-8"
           d="m 35,166.36 2.88,2 a 0.35,0.35 0 0 1 0.16,0.26 0.41,0.41 0 0 1 -0.07,0.3 l -2.19,2.84 9.44,10.24 -6.9,-16.71 z"
           id="path10543-8" />
        <polygon
           style="fill:none"
           class="cls-8"
           points="45.45,172.82 44.33,171.46 45.67,169.84 40.51,166.5 44.63,176.48 "
           id="polygon10545-5" />
        <path
           style="fill:none"
           class="cls-8"
           d="m 34.93,171.56 2.14,-2.79 -3,-2.11 -4.45,1.4 a 3,3 0 0 0 -1.95,2 l -3.92,12.65 h 4.94 v -6.13 a 0.4,0.4 0 1 1 0.79,0 v 6.13 H 44.83 L 35,172.06 a 0.38,0.38 0 0 1 -0.07,-0.5 z"
           id="path10547-1" />
        <polygon
           style="fill:none"
           class="cls-8"
           points="46.91,169.84 48.25,171.46 47.13,172.82 47.95,176.48 52.07,166.5 "
           id="polygon10549-6" />
        <path
           style="fill:none"
           class="cls-8"
           d="m 54.53,168.93 a 0.42,0.42 0 0 1 -0.08,-0.3 0.39,0.39 0 0 1 0.17,-0.26 l 2.91,-2 -3.27,-1 -6.8,16.48 9.26,-10 z"
           id="path10551-6" />
        <path
           style="fill:#404041"
           class="cls-7"
           d="M 57.81,182.75 H 47.63 l 9.89,-10.69 a 0.38,0.38 0 0 0 0,-0.5 l -2.14,-2.79 3.07,-2.14 4.55,1.43 a 3,3 0 0 1 2,2.07 l 0.07,0.23 0.33,-0.55 a 4.85,4.85 0 0 1 1.06,-1.27 4.93,4.93 0 0 0 -2.83,-2.35 l -9.41,-3 a 1,1 0 0 0 -0.82,0.11 l -7.07,4.58 -7.06,-4.58 a 1,1 0 0 0 -0.83,-0.11 l -9.41,3 a 4.92,4.92 0 0 0 -3.24,3.36 l -4.31,13.89 a 1,1 0 0 0 0.94,1.27 H 56.71 A 6.27,6.27 0 0 1 57,184.13 Z m -28.37,0 v -6.13 a 0.4,0.4 0 1 0 -0.79,0 v 6.13 h -4.94 l 3.92,-12.65 a 3,3 0 0 1 1.95,-2 l 4.45,-1.4 3,2.11 -2.14,2.79 a 0.38,0.38 0 0 0 0,0.5 l 9.88,10.69 z m 6.31,-11 2.19,-2.84 a 0.41,0.41 0 0 0 0.07,-0.3 0.35,0.35 0 0 0 -0.16,-0.26 l -2.88,-2 3.35,-1.06 6.9,16.71 z m 9.7,1 -0.82,3.66 -4.12,-10 5.16,3.34 -1.34,1.62 z m 1.46,-3 5.16,-3.34 -4.12,10 -0.82,-3.66 1.12,-1.36 z m 7.35,-4.54 3.27,1 -2.91,2 a 0.39,0.39 0 0 0 -0.17,0.26 0.42,0.42 0 0 0 0.08,0.3 l 2.19,2.84 -9.26,10 z"
           id="path10553-2" />
        <path
           style="fill:#404041"
           class="cls-7"
           d="M 78.14,189.6 H 61.42 a 2.9,2.9 0 0 1 -2.54,-1.47 2.87,2.87 0 0 1 0,-2.89 l 8.36,-14.33 a 2.93,2.93 0 0 1 5.06,0 l 8.36,14.33 a 2.85,2.85 0 0 1 0,2.89 2.88,2.88 0 0 1 -2.52,1.47 z m -8.36,-18.31 a 1.1,1.1 0 0 0 -1,0.54 l -8.36,14.33 a 1.06,1.06 0 0 0 0,1.06 1.09,1.09 0 0 0 1,0.55 h 16.72 a 1.11,1.11 0 0 0 1,-0.55 1,1 0 0 0 0,-1.06 l -8.36,-14.33 a 1.09,1.09 0 0 0 -1,-0.54 z"
           id="path10555-1" />
        <path
           style="fill:#404041"
           class="cls-7"
           d="m 71.52,185 a 1.74,1.74 0 1 1 -1.74,-1.73 1.73,1.73 0 0 1 1.74,1.73 z"
           id="path10557-9" />
        <path
           style="fill:#404041"
           class="cls-7"
           d="m 70.75,181.31 a 1,1 0 1 1 -1.93,0 l -0.48,-4.17 a 1.46,1.46 0 1 1 2.89,0 z"
           id="path10559-6" />
        <path
           style="fill:#404041"
           class="cls-7"
           d="m 43,559.47 a 7.22,7.22 0 0 0 3.28,0.83 7.65,7.65 0 0 0 3.34,-0.83 0.4,0.4 0 0 0 0.18,-0.52 0.38,0.38 0 0 0 -0.52,-0.18 6.29,6.29 0 0 1 -5.93,0 0.38,0.38 0 0 0 -0.52,0.17 0.39,0.39 0 0 0 0.17,0.53 z"
           id="path10561-4" />
        <ellipse
           style="fill:#404041"
           class="cls-7"
           cx="41.869999"
           cy="551.71002"
           rx="1.1799999"
           ry="1.5700001"
           id="ellipse10563-8" />
        <ellipse
           style="fill:#404041"
           class="cls-7"
           cx="50.360001"
           cy="551.71002"
           rx="1.1799999"
           ry="1.5700001"
           id="ellipse10565-0" />
        <path
           style="fill:#404041"
           class="cls-7"
           d="m 45.44,556.74 h 0.21 a 0.84,0.84 0 0 0 0.51,-0.16 0.38,0.38 0 0 0 0.1,-0.54 0.39,0.39 0 0 0 -0.54,-0.1 0.17,0.17 0 0 1 -0.12,0 0.41,0.41 0 0 1 -0.24,-0.17 1.35,1.35 0 0 1 -0.08,-0.8 6.13,6.13 0 0 1 0.57,-2 0.39360513,0.39360513 0 0 0 -0.71,-0.34 7.11,7.11 0 0 0 -0.64,2.21 2.06,2.06 0 0 0 0.19,1.29 1.19,1.19 0 0 0 0.75,0.61 z"
           id="path10567-8" />
        <rect
           style="fill:#404041"
           class="cls-7"
           x="41.049999"
           y="548.65002"
           width="0.73000002"
           height="3.24"
           transform="rotate(-67.08,41.398426,550.23751)"
           id="rect10569-1" />
        <rect
           style="fill:#404041"
           class="cls-7"
           x="49.189999"
           y="549.90002"
           width="3.24"
           height="0.73000002"
           transform="rotate(-22.91,50.835787,550.31714)"
           id="rect10571-0" />
        <path
           style="fill:#404041"
           class="cls-7"
           d="m 29.44,584 v -6.13 a 0.4,0.4 0 0 0 -0.79,0 V 584 h -4.94 l 3.92,-12.64 a 2.94,2.94 0 0 1 1.95,-2 l 8.74,-2.77 2.19,1.2 5.16,3.34 h 1.24 l 5.16,-3.34 2.19,-1.2 8.74,2.75 a 3,3 0 0 1 2,2.06 l 0.07,0.24 0.33,-0.56 a 5,5 0 0 1 1.06,-1.27 4.91,4.91 0 0 0 -2.83,-2.34 l -9.41,-3 a 1,1 0 0 0 -0.82,0.11 l -7.07,4.58 -7.06,-4.58 a 1,1 0 0 0 -0.83,-0.11 l -9.41,3 a 4.91,4.91 0 0 0 -3.24,3.35 l -4.31,13.89 a 1,1 0 0 0 0.15,0.88 1,1 0 0 0 0.79,0.39 h 34.29 c 0.09,-0.19 0.18,-0.38 0.29,-0.57 l 0.81,-1.39 z"
           id="path10573-2" />
        <path
           style="fill:#404041"
           class="cls-7"
           d="M 78.14,590.87 H 61.42 a 2.9,2.9 0 0 1 -2.53,-4.36 l 8.36,-14.32 a 2.93,2.93 0 0 1 5.06,0 l 8.36,14.32 a 2.9,2.9 0 0 1 -2.53,4.36 z m -8.36,-18.3 a 1.08,1.08 0 0 0 -1,0.54 l -8.36,14.33 a 1,1 0 0 0 0,1 1.07,1.07 0 0 0 1,0.55 h 16.72 a 1.09,1.09 0 0 0 1,-0.55 1,1 0 0 0 0,-1 l -8.36,-14.33 a 1.07,1.07 0 0 0 -1,-0.54 z"
           id="path10575-2" />
        <path
           style="fill:#404041"
           class="cls-7"
           d="m 71.52,586.24 a 1.74,1.74 0 1 1 -1.74,-1.72 1.73,1.73 0 0 1 1.74,1.72 z"
           id="path10577-9" />
        <path
           style="fill:#404041"
           class="cls-7"
           d="m 70.75,582.59 a 1,1 0 1 1 -1.93,0 l -0.48,-4.17 a 1.46,1.46 0 1 1 2.89,0 z"
           id="path10579-7" />
        <rect
           style="fill:#404041"
           class="cls-7"
           x="40.990002"
           y="567.34003"
           width="0.69"
           height="11.43"
           id="rect10581-5" />
        <rect
           style="fill:#404041"
           class="cls-7"
           x="40.450001"
           y="576.26001"
           width="1.73"
           height="1.73"
           rx="0.87"
           id="rect10583-6" />
        <rect
           style="fill:#404041"
           class="cls-7"
           x="50.799999"
           y="567.34003"
           width="0.69"
           height="11.43"
           id="rect10585-4" />
        <rect
           style="fill:#404041"
           class="cls-7"
           x="50.27"
           y="576.26001"
           width="1.73"
           height="1.73"
           rx="0.87"
           id="rect10587-6" />
        <path
           style="fill:none"
           class="cls-8"
           d="m 37.94,547.23 c -0.18,0.12 -0.35,0.24 -0.51,0.37 0,0.2 0.1,0.41 0.16,0.63 0.1,-0.31 0.21,-0.65 0.35,-1 z"
           id="path10589-3" />
        <path
           style="fill:#404041"
           class="cls-7"
           d="m 55,547.25 c 0,0.12 0,0.25 0,0.36 -0.05,0.28 -0.11,0.54 -0.16,0.8 a 1.15,1.15 0 0 0 0,0.26 c -1.52,0.22 -4.34,-1 -6.68,-3.34 q -0.54,0 -1.11,0 c 2.62,2.93 6.1,4.53 8.1,4.11 l -0.27,1.29 a 0.39322385,0.39322385 0 1 0 0.77,0.16 l 0.21,-1 v 0 a 1.93,1.93 0 0 1 0.41,1.06 v 0 0 c 0,0.12 0,0.25 0,0.38 a 7,7 0 0 1 -0.32,1.94 5.17,5.17 0 0 1 -0.86,1.68 1.77,1.77 0 0 1 -0.51,0.43 1,1 0 0 0 -0.5,0.62 13.34,13.34 0 0 1 -3.08,5.42 5.87,5.87 0 0 1 -4.64,2.24 h -0.07 a 5.85,5.85 0 0 1 -4.64,-2.24 13.12,13.12 0 0 1 -3.16,-5.42 1,1 0 0 0 -0.5,-0.62 1.83,1.83 0 0 1 -0.52,-0.43 4.76,4.76 0 0 1 -0.62,-1 6.88,6.88 0 0 1 -0.55,-2.58 c 0,-0.13 0,-0.26 0,-0.37 v 0 a 2.09,2.09 0 0 1 0.31,-0.94 q 0.06,0.3 0.09,0.54 c 0.14,0.84 0.18,1.07 0.54,1.08 v 0 c 0.35,0 0.41,-0.31 0.49,-0.76 a 17.53,17.53 0 0 1 1.27,-4.3 8.77,8.77 0 0 0 -1.1,0.61 c -0.14,0.35 -0.25,0.69 -0.35,1 -0.06,-0.22 -0.11,-0.43 -0.16,-0.63 a 7.25,7.25 0 0 0 -2.67,6.28 6.94,6.94 0 0 0 0.3,0.8 5.71,5.71 0 0 0 0.92,1.53 3.48,3.48 0 0 0 0.72,0.67 15.43,15.43 0 0 0 3.48,5.87 7.87,7.87 0 0 0 6.08,2.87 h 0.07 a 7.89,7.89 0 0 0 6.08,-2.87 15.19,15.19 0 0 0 3.47,-5.87 3.79,3.79 0 0 0 0.73,-0.67 6.85,6.85 0 0 0 1.22,-2.35 10,10 0 0 0 0.26,-1 6.9,6.9 0 0 0 -3.05,-5.61 z"
           id="path10591-7" />
        <path
           style="fill:#404041"
           class="cls-7"
           d="m 58.31,567.69 -6.31,-1.45 0.88,-1.3 c 1.75,-2.59 5.77,-10.29 3.38,-14.78 -1.34,-2.52 -4.62,-3.8 -9.74,-3.8 -5.12,0 -8.62,1.31 -10,3.87 -2.78,5.22 3,14.08 3.08,14.17 l 0.77,1.13 -5.58,2.06 -0.48,-0.57 c -3.22,-3.76 -6.66,-15.7 -1.48,-24.14 0.38,-0.63 0.8,-1.44 1.28,-2.38 2.2,-4.17 5.44,-10.5 11.39,-10.5 h 0.43 c 7.81,0 11.88,6.83 14.31,10.91 l 0.08,0.15 c 4.53,7.6 1.51,19.62 -1.63,25.84 z m -2.81,-2.86 1.63,0.38 c 2.69,-5.8 5.23,-16.5 1.34,-23 l -0.08,-0.15 C 56.05,538.14 52.52,532.2 45.93,532.2 H 45.5 c -4.64,0 -7.4,5.38 -9.42,9.3 -0.49,0.94 -0.94,1.82 -1.37,2.52 -4.47,7.29 -1.62,17.42 0.84,21 l 1.62,-0.6 c -1.62,-2.8 -5.23,-10.09 -2.5,-15.22 1.77,-3.32 5.76,-5 11.88,-5 6.12,0 9.9,1.67 11.64,4.94 2.81,5.23 -0.94,12.69 -2.69,15.69 z"
           id="path10593-9" />
        <rect
           style="fill:#2e73af"
           class="cls-5"
           x="360.39999"
           y="333.39001"
           width="108.29"
           height="25"
           id="rect10595-7" />
        <rect
           style="fill:#4c8ecb"
           class="cls-4"
           x="360.39999"
           y="364.39001"
           width="108.29"
           height="25"
           id="rect10597-4" />
        <polygon
           style="fill:#59595c"
           class="cls-9"
           points="254.79,416.98 361.63,416.98 402.01,361.84 361.63,306.7 254.79,306.7 "
           id="polygon10599-9" />
        <path
           style="fill:#4c8ecb"
           class="cls-4"
           d="m 569.18,358.39 h 293 l -60,-45 v 20 H 599.49 a 188,188 0 0 1 -30.31,25 z"
           id="path10601-1" />
        <path
           style="fill:#2e73af"
           class="cls-5"
           d="m 557,364.39 a 185.84,185.84 0 0 1 -85.91,25 h 331.08 v 20 l 60,-45 z"
           id="path10603-7" />
        <path
           style="fill:#2e73af"
           class="cls-5"
           d="m 600,333.39 v 0 a 188,188 0 0 1 -30.31,25 v 0 a 188,188 0 0 0 30.31,-25 z"
           id="path10605-0" />
        <path
           style="fill:#1a4b74"
           class="cls-6"
           d="m 609,333.39 h -12 a 188,188 0 0 1 -30.31,25 h 15.51 a 188.06,188.06 0 0 0 26.8,-25 z"
           id="path10607-6" />
        <path
           style="fill:#4c8ecb"
           class="cls-4"
           d="m 340,41.71 3.4,7.83 -1.7,1.4 -7,-4.85 6,7.43 -1.41,1.16 -7.9,-9.68 2,-1.68 8,5.53 -3.89,-8.85 2,-1.65 8,9.52 -1.4,1.13 z"
           id="path10609-0" />
        <path
           style="fill:#4c8ecb"
           class="cls-4"
           d="M 351.06,37.76 352.7,40 c 1.29,1.76 1.2,3.43 -0.69,4.82 -1.89,1.39 -3.5,1 -4.8,-0.79 l -1.64,-2.24 c -1.29,-1.76 -1.2,-3.43 0.69,-4.82 1.89,-1.39 3.5,-0.97 4.8,0.79 z M 347,40.59 348.78,43 c 0.69,0.93 1.51,1.08 2.27,0.52 a 1.49,1.49 0 0 0 0.18,-2.32 l -1.78,-2.44 c -0.69,-0.93 -1.5,-1.07 -2.26,-0.51 A 1.49,1.49 0 0 0 347,40.59 Z"
           id="path10611-8" />
        <path
           style="fill:#4c8ecb"
           class="cls-4"
           d="m 359.58,39.25 -2,1.32 -7.5,-6.13 1.65,-1.12 6.06,5.44 -2.71,-7.68 1.64,-1.1 z"
           id="path10613-5" />
        <path
           style="fill:#4c8ecb"
           class="cls-4"
           d="m 365.22,28.56 1.06,1.73 -4,2.47 0.5,0.81 c 0.6,1 1.29,1.13 2.37,0.46 a 15.2,15.2 0 0 0 2,-1.57 l 0.89,1.38 a 16.85,16.85 0 0 1 -2.07,1.67 c -2.21,1.35 -3.62,0.94 -4.87,-1.1 L 359.58,32 c -1.15,-1.88 -0.89,-3.49 1,-4.65 1.89,-1.16 3.42,-0.71 4.64,1.21 z m -4.22,2.25 0.45,0.73 2.45,-1.5 -0.42,-0.68 A 1.45,1.45 0 1 0 361,30.81 Z"
           id="path10615-3" />
        <path
           style="fill:#4c8ecb"
           class="cls-4"
           d="m 373.77,28.75 4.23,-2.26 0.8,1.51 -5.93,3.16 -5.85,-11 1.68,-0.89 z"
           id="path10617-9" />
        <path
           style="fill:#4c8ecb"
           class="cls-4"
           d="m 383,19 2.74,5.7 -1.6,0.77 -0.6,-1.26 a 3,3 0 0 1 -1.46,2.5 c -1.3,0.62 -2.61,0.09 -3.4,-1.56 l -0.22,-0.46 a 2.62,2.62 0 0 1 1.46,-3.69 11.7,11.7 0 0 1 1.7,-0.59 l -0.39,-0.8 c -0.42,-0.89 -1,-1 -1.86,-0.6 a 16.46,16.46 0 0 0 -2.15,1.36 l -0.71,-1.47 a 18.1,18.1 0 0 1 2.24,-1.41 C 380.79,16.5 382,16.9 383,19 Z m -2.77,5 0.08,0.17 c 0.38,0.79 1,1 1.47,0.78 a 2.45,2.45 0 0 0 1,-2.12 l -0.59,-1.24 a 8.92,8.92 0 0 0 -1.27,0.49 1.3,1.3 0 0 0 -0.68,1.92 z"
           id="path10619-4" />
        <path
           style="fill:#4c8ecb"
           class="cls-4"
           d="m 386.07,14.39 2.2,-1 0.62,1.45 -2.19,0.95 2,4.61 c 0.36,0.83 0.84,1 1.54,0.72 a 7.64,7.64 0 0 0 1.35,-0.79 l 0.67,1.45 a 7.7,7.7 0 0 1 -1.41,0.85 c -1.88,0.82 -3,0.42 -3.92,-1.59 l -1.93,-4.45 -1.17,0.51 -0.62,-1.45 1.18,-0.52 -0.7,-2.38 1.43,-0.62 z"
           id="path10621-1" />
        <path
           style="fill:#4c8ecb"
           class="cls-4"
           d="m 397.36,13.31 0.74,1.89 -4.41,1.72 0.34,0.88 c 0.42,1.08 1.07,1.34 2.26,0.88 a 15.49,15.49 0 0 0 2.22,-1.19 l 0.63,1.51 a 15.63,15.63 0 0 1 -2.34,1.27 c -2.41,0.94 -3.72,0.28 -4.59,-1.95 l -1,-2.62 c -0.8,-2 -0.26,-3.59 1.81,-4.4 2.07,-0.81 3.53,-0.08 4.34,2.01 z m -4.52,1.47 0.3,0.8 2.68,-1 -0.29,-0.75 a 1.4,1.4 0 0 0 -1.94,-1 1.38,1.38 0 0 0 -0.75,1.95 z"
           id="path10623-5" />
        <path
           style="fill:#4c8ecb"
           class="cls-4"
           d="m 402.58,7.89 0.68,2 a 3.94,3.94 0 0 0 -0.69,0.18 2.35,2.35 0 0 0 -1.53,1.9 l 2,5.82 -1.78,0.61 -3,-8.76 1.63,-0.64 0.46,1.31 A 3.08,3.08 0 0 1 402.17,8 1.71,1.71 0 0 1 402.58,7.89 Z"
           id="path10625-4" />
        <path
           style="fill:#4c8ecb"
           class="cls-4"
           d="m 410.69,8.65 1.85,6 -1.69,0.52 -0.4,-1.33 a 3,3 0 0 1 -1.82,2.25 c -1.38,0.42 -2.59,-0.3 -3.13,-2 l -0.15,-0.49 a 2.63,2.63 0 0 1 2,-3.41 11.84,11.84 0 0 1 1.77,-0.32 L 408.83,9 c -0.29,-0.94 -0.81,-1.16 -1.75,-0.87 a 16.53,16.53 0 0 0 -2.33,1 l -0.48,-1.56 a 18.68,18.68 0 0 1 2.42,-1.06 c 2.16,-0.61 3.31,-0.03 4,2.14 z m -3.49,4.57 0.06,0.18 c 0.25,0.84 0.79,1.15 1.33,1 0.54,-0.15 1.05,-0.85 1.29,-1.94 l -0.4,-1.31 a 8.78,8.78 0 0 0 -1.32,0.29 1.3,1.3 0 0 0 -0.96,1.78 z"
           id="path10627-1" />
        <path
           style="fill:#4c8ecb"
           class="cls-4"
           d="m 416.49,13.62 -1.81,0.5 -3.41,-12.53 1.82,-0.49 z"
           id="path10629-5" />
        <path
           style="fill:#4c8ecb"
           class="cls-4"
           d="M 420.54,12.59 418.72,13.04 415.58,0.46 417.41,0 Z"
           id="path10631-5" />
        <path
           style="fill:#4c8ecb"
           class="cls-4"
           d="m 426.3,14.88 -1.82,0.39 0.41,-3.68 -0.69,0.14 -4.46,-8.52 2,-0.43 3.43,7.34 0.56,-8.2 1.91,-0.41 z"
           id="path10633-4" />
        <path
           style="fill:#4c8ecb"
           class="cls-4"
           d="m 654.59,122.65 -0.42,0.19 c -2.27,1 -4.23,0.28 -5.48,-2.51 a 12.42,12.42 0 0 1 -0.57,-1.65 l -4.85,2.15 -0.81,-1.83 12.08,-5.36 c 0.47,0.9 1,1.93 1.55,3.18 1.34,2.97 0.64,4.88 -1.5,5.83 z m -0.75,-6.51 -4.13,1.86 a 11.76,11.76 0 0 0 0.53,1.54 c 0.71,1.61 1.78,2.1 3.19,1.47 l 0.29,-0.13 c 1.23,-0.54 1.58,-1.57 0.79,-3.35 a 14.41,14.41 0 0 0 -0.67,-1.39 z"
           id="path10635-9" />
        <path
           style="fill:#4c8ecb"
           class="cls-4"
           d="m 654.78,132 -2,0.77 -1.8,-4.64 -0.93,0.36 c -1.14,0.44 -1.41,1.13 -0.93,2.37 a 15.8,15.8 0 0 0 1.26,2.35 l -1.59,0.66 a 16,16 0 0 1 -1.34,-2.46 c -1,-2.54 -0.3,-3.92 2,-4.83 l 2.76,-1.07 c 2.16,-0.84 3.78,-0.27 4.62,1.92 0.84,2.19 0.17,3.73 -2.05,4.57 z m -1.54,-4.77 -0.84,0.33 1.09,2.82 0.78,-0.31 c 1.08,-0.42 1.39,-1.18 1.06,-2 a 1.46,1.46 0 0 0 -2.09,-0.82 z"
           id="path10637-8" />
        <path
           style="fill:#4c8ecb"
           class="cls-4"
           d="m 660.49,137.56 -2.06,0.7 a 3.7,3.7 0 0 0 -0.19,-0.72 2.48,2.48 0 0 0 -2,-1.62 l -6.12,2.08 -0.65,-1.87 9.24,-3.18 0.59,1.75 -1.38,0.47 a 3.24,3.24 0 0 1 2.46,1.93 2.72,2.72 0 0 1 0.11,0.46 z"
           id="path10639-3" />
        <path
           style="fill:#4c8ecb"
           class="cls-4"
           d="m 666.27,143.51 -1.53,0.47 a 9,9 0 0 0 -0.27,-1.24 c -0.22,-0.73 -0.8,-1.05 -1.82,-0.74 l -0.91,0.28 0.56,1.83 -1.59,0.49 -0.56,-1.84 -7.75,2.36 -0.58,-1.89 7.75,-2.36 -0.39,-1.29 1.59,-0.48 0.39,1.28 0.9,-0.27 c 2.05,-0.61 3.39,0.14 4,2 a 6,6 0 0 1 0.21,1.4 z"
           id="path10641-8" />
        <path
           style="fill:#4c8ecb"
           class="cls-4"
           d="m 661.23,153.3 -2.82,0.74 c -2.22,0.59 -3.82,-0.14 -4.45,-2.52 -0.63,-2.38 0.4,-3.81 2.62,-4.4 l 2.82,-0.74 c 2.23,-0.59 3.83,0.15 4.46,2.52 0.63,2.37 -0.4,3.81 -2.63,4.4 z m -1.23,-5.06 -3,0.81 c -1.18,0.31 -1.65,1 -1.39,2 0.26,1 1,1.38 2.2,1.07 l 3.08,-0.81 c 1.18,-0.31 1.62,-1.05 1.37,-2 -0.25,-0.95 -1.06,-1.38 -2.26,-1.07 z"
           id="path10643-5" />
        <path
           style="fill:#4c8ecb"
           class="cls-4"
           d="m 666.36,159.66 -2.13,0.47 a 3.29,3.29 0 0 0 -0.1,-0.74 2.48,2.48 0 0 0 -1.8,-1.84 L 656,159 l -0.43,-1.93 9.53,-2.11 0.4,1.8 -1.43,0.32 a 3.22,3.22 0 0 1 2.23,2.19 2,2 0 0 1 0.06,0.39 z"
           id="path10645-2" />
        <path
           style="fill:#4c8ecb"
           class="cls-4"
           d="m 665.5,173.87 -6.5,1.13 -0.33,-2 6.31,-1 c 1.29,-0.21 1.67,-0.7 1.56,-1.37 a 2.55,2.55 0 0 0 -1.73,-1.66 l -6.63,1.1 -0.33,-1.95 6.31,-1.05 c 1.29,-0.22 1.67,-0.71 1.56,-1.36 a 2.5,2.5 0 0 0 -1.73,-1.65 l -6.63,1.1 -0.33,-2 9.63,-1.61 0.3,1.82 -1.4,0.23 a 3.14,3.14 0 0 1 2.06,2.26 2.29,2.29 0 0 1 -1.35,2.61 3.13,3.13 0 0 1 2.17,2.32 c 0.22,1.61 -0.77,2.72 -2.94,3.08 z"
           id="path10647-2" />
        <path
           style="fill:#4c8ecb"
           class="cls-4"
           d="m 670,188.13 h -0.48 a 3.38,3.38 0 0 1 -3.48,-2.08 l -5.68,3.81 -0.19,-2.22 5.23,-3.48 a 13.54,13.54 0 0 1 -0.12,-1.92 l -5.52,0.46 -0.17,-2 13.19,-1.1 c 0.14,1.13 0.31,2.48 0.4,3.54 0.26,3.34 -1.02,4.86 -3.18,4.99 z m 1.28,-6.35 -4.31,0.36 c 0,0.74 0,1.1 0,1.58 0.16,1.85 1,2.56 2.36,2.45 h 0.35 c 1.28,-0.1 1.89,-0.94 1.74,-2.83 0,-0.41 -0.07,-1.08 -0.15,-1.56 z"
           id="path10649-2" />
        <path
           style="fill:#4c8ecb"
           class="cls-4"
           d="m 667,197.52 -2.14,0.08 -0.18,-5 h -1 c -1.22,0 -1.7,0.6 -1.65,1.94 a 16.13,16.13 0 0 0 0.41,2.62 l -1.71,0.1 a 15.12,15.12 0 0 1 -0.46,-2.76 c -0.1,-2.72 1,-3.8 3.52,-3.89 l 3,-0.1 c 2.32,-0.08 3.66,1 3.74,3.33 0.08,2.33 -1.19,3.6 -3.53,3.68 z m 0.1,-5 h -0.9 l 0.11,3 h 0.84 c 1.16,0 1.69,-0.66 1.66,-1.58 a 1.45,1.45 0 0 0 -1.73,-1.42 z"
           id="path10651-7" />
        <path
           style="fill:#4c8ecb"
           class="cls-4"
           d="m 670.29,205.37 -1.76,-0.07 a 9,9 0 0 0 0.29,-2 c 0,-1.24 -0.61,-1.83 -1.85,-1.85 l -2.94,-0.05 a 1.66,1.66 0 0 0 -1.93,1.79 8.44,8.44 0 0 0 0.23,2 h -1.76 a 10.06,10.06 0 0 1 -0.23,-2.14 c 0,-2.46 1.32,-3.64 3.74,-3.6 h 2.88 c 2.36,0 3.66,1.22 3.62,3.74 a 9.67,9.67 0 0 1 -0.29,2.18 z"
           id="path10653-0" />
        <path
           style="fill:#4c8ecb"
           class="cls-4"
           d="m 666.53,214.46 -2.92,-0.14 c -2.3,-0.11 -3.6,-1.29 -3.48,-3.75 0.12,-2.46 1.53,-3.51 3.83,-3.4 l 2.91,0.14 c 2.3,0.11 3.6,1.3 3.48,3.75 -0.12,2.45 -1.53,3.51 -3.82,3.4 z m 0.37,-5.18 -3.16,-0.16 c -1.22,-0.05 -1.89,0.51 -1.93,1.51 -0.04,1 0.56,1.63 1.78,1.69 l 3.17,0.15 c 1.22,0.06 1.87,-0.51 1.92,-1.51 0.05,-1 -0.56,-1.63 -1.78,-1.68 z"
           id="path10655-3" />
        <path
           style="fill:#4c8ecb"
           class="cls-4"
           d="m 666,223.93 -6.61,-0.63 0.19,-2 6.37,0.61 c 1.28,0.12 1.79,-0.27 1.86,-0.95 a 2.53,2.53 0 0 0 -1.25,-2.09 l -6.69,-0.64 0.19,-2 9.72,0.93 -0.18,1.83 -1.41,-0.13 a 3.12,3.12 0 0 1 1.4,2.74 c -0.17,1.72 -1.42,2.54 -3.59,2.33 z"
           id="path10657-4" />
        <path
           style="fill:#4c8ecb"
           class="cls-4"
           d="m 664.65,233.54 -6.57,-0.95 0.29,-2 6.33,0.92 c 1.27,0.18 1.81,-0.19 1.9,-0.86 a 2.55,2.55 0 0 0 -1.14,-2.15 l -6.65,-1 0.28,-2 9.66,1.4 -0.26,1.82 -1.41,-0.2 a 3.15,3.15 0 0 1 1.27,2.81 c -0.24,1.76 -1.52,2.53 -3.7,2.21 z"
           id="path10659-6" />
        <path
           style="fill:#4c8ecb"
           class="cls-4"
           d="m 663,242.47 -6.54,-1.26 0.35,-1.83 1.44,0.28 a 3.2,3.2 0 0 1 -1.2,-2.8 c 0.29,-1.49 1.56,-2.27 3.45,-1.9 l 0.53,0.1 a 2.76,2.76 0 0 1 2.19,3.52 13.32,13.32 0 0 1 -0.57,1.8 l 0.92,0.18 c 1,0.2 1.48,-0.18 1.68,-1.2 a 16.83,16.83 0 0 0 0.19,-2.68 l 1.69,0.33 a 19.82,19.82 0 0 1 -0.21,2.77 c -0.44,2.34 -1.55,3.14 -3.92,2.69 z m -2.52,-5.5 h -0.2 c -0.9,-0.17 -1.46,0.17 -1.57,0.76 -0.11,0.59 0.28,1.4 1.17,2.16 l 1.41,0.27 a 9.8,9.8 0 0 0 0.39,-1.37 1.37,1.37 0 0 0 -1.19,-1.79 z"
           id="path10661-3" />
        <path
           style="fill:#4c8ecb"
           class="cls-4"
           d="m 655.52,245.37 0.44,-1.93 9.52,2.17 -0.44,1.93 z m 12.48,3.08 -0.55,-0.12 c -0.62,-0.14 -0.89,-0.66 -0.72,-1.44 0.17,-0.78 0.65,-1.1 1.27,-1 l 0.55,0.13 c 0.66,0.15 0.91,0.65 0.74,1.42 -0.17,0.77 -0.64,1.16 -1.29,1.01 z"
           id="path10663-6" />
        <path
           style="fill:#4c8ecb"
           class="cls-4"
           d="m 663.16,255 -1.66,-0.47 a 8.33,8.33 0 0 0 0.75,-1.83 c 0.3,-1.14 0,-1.67 -0.56,-1.82 h -0.14 c -0.42,-0.11 -0.67,0 -1.06,0.51 l -1.3,1.58 a 2.58,2.58 0 0 1 -2.76,1.06 l -0.4,-0.1 c -1.78,-0.49 -2.48,-1.68 -1.86,-4.06 a 10.82,10.82 0 0 1 1.08,-2.45 l 1.7,0.53 a 9.51,9.51 0 0 0 -1.07,2.34 c -0.3,1.14 -0.09,1.55 0.58,1.72 h 0.16 a 1,1 0 0 0 1.23,-0.42 l 1.24,-1.6 a 2.5,2.5 0 0 1 2.71,-1.11 l 0.27,0.07 c 1.77,0.51 2.46,1.72 1.85,4.06 a 9.55,9.55 0 0 1 -0.76,1.99 z"
           id="path10665-3" />
        <path
           style="fill:#4c8ecb"
           class="cls-4"
           d="m 657.57,262.94 -6.37,-1.94 0.55,-1.78 1.39,0.43 a 3.2,3.2 0 0 1 -0.89,-2.91 c 0.45,-1.45 1.79,-2.08 3.63,-1.52 l 0.51,0.16 a 2.75,2.75 0 0 1 1.81,3.73 12.85,12.85 0 0 1 -0.76,1.73 l 0.9,0.27 c 1,0.31 1.49,0 1.8,-1 a 18.26,18.26 0 0 0 0.47,-2.63 l 1.64,0.5 a 19.81,19.81 0 0 1 -0.5,2.73 c -0.7,2.29 -1.89,2.93 -4.18,2.23 z m -1.93,-5.73 -0.19,-0.06 c -0.88,-0.27 -1.47,0 -1.64,0.58 a 2.55,2.55 0 0 0 0.93,2.27 l 1.38,0.42 a 8.25,8.25 0 0 0 0.53,-1.32 1.37,1.37 0 0 0 -1.01,-1.89 z"
           id="path10667-3" />
        <path
           style="fill:#4c8ecb"
           class="cls-4"
           d="m 654.38,272 -6.25,-2.23 0.67,-1.86 6,2.15 c 1.21,0.43 1.81,0.18 2,-0.46 a 2.52,2.52 0 0 0 -0.69,-2.33 l -6.28,-2.27 0.67,-1.87 9.19,3.29 -0.62,1.73 -1.34,-0.48 a 3.15,3.15 0 0 1 0.69,3 c -0.56,1.57 -1.97,2.06 -4.04,1.33 z"
           id="path10669-4" />
        <path
           style="fill:#4c8ecb"
           class="cls-4"
           d="m 654.17,280.83 -1.62,-0.7 a 8.65,8.65 0 0 0 1,-1.71 1.63,1.63 0 0 0 -1,-2.4 l -2.72,-1.11 a 1.65,1.65 0 0 0 -2.45,1 8.77,8.77 0 0 0 -0.5,1.91 l -1.64,-0.63 a 10.79,10.79 0 0 1 0.56,-2.08 c 0.93,-2.27 2.55,-2.91 4.79,-2 l 2.67,1.09 c 2.19,0.89 3,2.47 2,4.8 a 9.17,9.17 0 0 1 -1.09,1.83 z"
           id="path10671-4" />
        <path
           style="fill:#4c8ecb"
           class="cls-4"
           d="m 647.37,287.73 -2,-0.89 2.08,-4.53 -0.91,-0.42 c -1.11,-0.51 -1.79,-0.22 -2.35,1 a 15.83,15.83 0 0 0 -0.81,2.54 l -1.58,-0.68 a 16.33,16.33 0 0 1 0.83,-2.68 c 1.13,-2.47 2.6,-2.94 4.89,-1.89 l 2.7,1.23 c 2.11,1 2.82,2.53 1.85,4.65 -0.97,2.12 -2.56,2.65 -4.7,1.67 z m 2.33,-4.43 -0.81,-0.38 -1.26,2.75 0.76,0.35 a 1.48,1.48 0 0 0 2.2,-0.67 1.45,1.45 0 0 0 -0.89,-2.05 z"
           id="path10673-3" />
        <path
           style="fill:#59595c"
           class="cls-9"
           d="m 661.94,318.79 v 3 c 0,3.08 -1.63,4.85 -4.9,4.85 -1.24,0 -2.26,0 -3.42,-0.11 v -12.7 c 0.91,0 2.13,-0.09 3.55,-0.09 3.06,0.04 4.77,1.83 4.77,5.05 z m -6.42,-3.32 v 9.46 c 0.65,0.06 1.14,0.1 1.56,0.1 A 2.74,2.74 0 0 0 660,322 v -3.29 c 0,-2.18 -1.1,-3.25 -2.94,-3.25 -0.51,-0.03 -1.06,-0.01 -1.54,0.01 z"
           id="path10675-9" />
        <path
           style="fill:#59595c"
           class="cls-9"
           d="m 666.31,314.25 v 0.54 c 0,0.6 -0.42,1 -1.18,1 -0.76,0 -1.15,-0.37 -1.15,-1 v -0.54 c 0,-0.64 0.41,-1 1.15,-1 0.74,0 1.18,0.36 1.18,1 z m -0.23,12.2 h -1.88 v -9.27 h 1.88 z"
           id="path10677-7" />
        <path
           style="fill:#59595c"
           class="cls-9"
           d="m 673.23,317.18 v 1.63 a 8.1,8.1 0 0 0 -1.86,-0.24 c -1.12,0 -1.54,0.36 -1.54,0.95 v 0.13 c 0,0.42 0.19,0.61 0.72,0.85 l 1.77,0.82 a 2.44,2.44 0 0 1 1.63,2.28 v 0.4 c 0,1.75 -0.95,2.68 -3.29,2.68 a 10.27,10.27 0 0 1 -2.5,-0.4 l 0.07,-1.69 a 9.4,9.4 0 0 0 2.42,0.42 c 1.12,0 1.44,-0.29 1.44,-0.95 v -0.15 a 1,1 0 0 0 -0.68,-1 l -1.77,-0.76 a 2.37,2.37 0 0 1 -1.67,-2.22 v -0.27 c 0,-1.75 1,-2.68 3.28,-2.68 a 9.45,9.45 0 0 1 1.98,0.2 z"
           id="path10679-2" />
        <path
           style="fill:#59595c"
           class="cls-9"
           d="m 680.35,317 v 2.07 a 3.31,3.31 0 0 0 -0.7,-0.06 2.34,2.34 0 0 0 -2.07,1.3 v 6.15 h -1.88 v -9.27 h 1.75 v 1.39 a 3.07,3.07 0 0 1 2.49,-1.62 2,2 0 0 1 0.41,0.04 z"
           id="path10681-5" />
        <path
           style="fill:#59595c"
           class="cls-9"
           d="m 688.43,326.45 h -1.75 v -1.29 a 3,3 0 0 1 -2.41,1.52 c -1.47,0 -2.41,-1 -2.41,-3.19 v -6.31 h 1.88 v 6 c 0,1.24 0.39,1.73 1,1.73 a 2.38,2.38 0 0 0 1.81,-1.35 v -6.4 h 1.88 z"
           id="path10683-8" />
        <path
           style="fill:#59595c"
           class="cls-9"
           d="m 697.47,320.18 v 3.27 c 0,2.07 -1.1,3.23 -2.79,3.23 a 4.38,4.38 0 0 1 -2,-0.65 V 330 h -1.88 v -12.82 h 1.75 v 1.29 A 3,3 0 0 1 695,317 c 1.52,0 2.47,1 2.47,3.18 z m -4.8,-0.19 v 4.41 a 2.78,2.78 0 0 0 1.55,0.61 c 0.92,0 1.35,-0.57 1.35,-1.77 v -2.85 c 0,-1.27 -0.43,-1.75 -1.06,-1.75 a 2.34,2.34 0 0 0 -1.84,1.36 z"
           id="path10685-9" />
        <path
           style="fill:#59595c"
           class="cls-9"
           d="m 701.92,317.18 h 2.39 v 1.58 h -2.39 v 5 c 0,0.91 0.36,1.27 1.12,1.27 a 7.87,7.87 0 0 0 1.56,-0.18 v 1.59 a 7.09,7.09 0 0 1 -1.63,0.23 c -2,0 -3,-0.84 -3,-3 v -4.9 h -1.28 v -1.58 h 1.3 l 0.3,-2.47 h 1.56 z"
           id="path10687-0" />
        <path
           style="fill:#59595c"
           class="cls-9"
           d="m 717.15,316.84 v 0.38 a 2.78,2.78 0 0 1 -1.8,2.75 2.75,2.75 0 0 1 2.3,2.83 v 0.4 c 0,2 -1.37,3.48 -4.54,3.48 -1.12,0 -1.73,0 -3.54,-0.11 v -12.7 c 0.92,0 2.19,-0.09 3.42,-0.09 2.78,0 4.16,1.27 4.16,3.06 z m -5.68,-1.37 v 3.88 h 1.66 c 1.4,0 2.11,-0.71 2.11,-1.9 v -0.31 c 0,-1.1 -0.69,-1.73 -2.45,-1.73 -0.42,0 -0.79,0.02 -1.32,0.06 z m 0,5.45 v 4 a 11.14,11.14 0 0 0 1.66,0.1 c 1.86,0 2.62,-0.76 2.62,-1.92 v -0.38 c 0,-1.14 -0.76,-1.79 -2.51,-1.79 z"
           id="path10689-2" />
        <path
           style="fill:#59595c"
           class="cls-9"
           d="m 726,326.45 h -1.75 v -1.29 a 3,3 0 0 1 -2.41,1.52 c -1.46,0 -2.41,-1 -2.41,-3.19 v -6.31 h 1.88 v 6 c 0,1.24 0.4,1.73 1,1.73 a 2.37,2.37 0 0 0 1.8,-1.35 v -6.4 H 726 Z"
           id="path10691-4" />
        <path
           style="fill:#59595c"
           class="cls-9"
           d="m 733.12,317.18 v 1.63 a 8.1,8.1 0 0 0 -1.86,-0.24 c -1.13,0 -1.54,0.36 -1.54,0.95 v 0.13 c 0,0.42 0.19,0.61 0.72,0.85 l 1.77,0.82 a 2.44,2.44 0 0 1 1.63,2.28 v 0.4 c 0,1.75 -0.95,2.68 -3.29,2.68 a 10.41,10.41 0 0 1 -2.51,-0.4 l 0.08,-1.69 a 9.4,9.4 0 0 0 2.41,0.42 c 1.12,0 1.45,-0.29 1.45,-0.95 v -0.15 a 1,1 0 0 0 -0.69,-1 l -1.76,-0.76 a 2.37,2.37 0 0 1 -1.67,-2.22 v -0.27 c 0,-1.75 1,-2.68 3.28,-2.68 a 9.45,9.45 0 0 1 1.98,0.2 z"
           id="path10693-7" />
        <path
           style="fill:#59595c"
           class="cls-9"
           d="m 737.77,314.25 v 0.54 c 0,0.6 -0.42,1 -1.18,1 -0.76,0 -1.16,-0.37 -1.16,-1 v -0.54 c 0,-0.64 0.42,-1 1.16,-1 0.74,0 1.18,0.36 1.18,1 z m -0.23,12.2 h -1.88 v -9.27 h 1.88 z"
           id="path10695-6" />
        <path
           style="fill:#59595c"
           class="cls-9"
           d="m 746.61,320.14 v 6.31 h -1.89 v -6.08 c 0,-1.21 -0.41,-1.67 -1.06,-1.67 a 2.38,2.38 0 0 0 -1.86,1.37 v 6.38 h -1.88 v -9.27 h 1.75 v 1.35 a 3,3 0 0 1 2.47,-1.58 c 1.57,0.05 2.47,1.1 2.47,3.19 z"
           id="path10697-5" />
        <path
           style="fill:#59595c"
           class="cls-9"
           d="m 755.4,320.39 v 2 h -4.73 v 0.95 c 0,1.16 0.51,1.64 1.79,1.64 a 14,14 0 0 0 2.5,-0.31 v 1.64 a 15.79,15.79 0 0 1 -2.64,0.34 c -2.58,0 -3.57,-1.08 -3.57,-3.48 v -2.81 c 0,-2.2 1.06,-3.44 3.29,-3.44 2.23,0 3.36,1.23 3.36,3.47 z m -4.75,-0.27 V 321 h 2.87 v -0.8 c 0,-1.1 -0.57,-1.63 -1.44,-1.63 a 1.38,1.38 0 0 0 -1.43,1.55 z"
           id="path10699-7" />
        <path
           style="fill:#59595c"
           class="cls-9"
           d="m 762.13,317.18 v 1.63 a 8.1,8.1 0 0 0 -1.86,-0.24 c -1.12,0 -1.54,0.36 -1.54,0.95 v 0.13 c 0,0.42 0.19,0.61 0.72,0.85 l 1.77,0.82 a 2.44,2.44 0 0 1 1.63,2.28 v 0.4 c 0,1.75 -0.95,2.68 -3.28,2.68 a 10.27,10.27 0 0 1 -2.51,-0.4 l 0.07,-1.69 a 9.4,9.4 0 0 0 2.42,0.42 c 1.12,0 1.44,-0.29 1.44,-0.95 v -0.15 a 1,1 0 0 0 -0.68,-1 l -1.77,-0.76 a 2.37,2.37 0 0 1 -1.67,-2.22 v -0.27 c 0,-1.75 1,-2.68 3.28,-2.68 a 9.45,9.45 0 0 1 1.98,0.2 z"
           id="path10701-1" />
        <path
           style="fill:#59595c"
           class="cls-9"
           d="m 769.25,317.18 v 1.63 a 8,8 0 0 0 -1.86,-0.24 c -1.12,0 -1.54,0.36 -1.54,0.95 v 0.13 c 0,0.42 0.19,0.61 0.73,0.85 l 1.76,0.82 a 2.44,2.44 0 0 1 1.64,2.28 v 0.4 c 0,1.75 -1,2.68 -3.29,2.68 a 10.34,10.34 0 0 1 -2.51,-0.4 l 0.08,-1.69 a 9.33,9.33 0 0 0 2.41,0.42 c 1.12,0 1.45,-0.29 1.45,-0.95 v -0.15 a 1,1 0 0 0 -0.69,-1 l -1.77,-0.76 A 2.38,2.38 0 0 1 764,319.9 v -0.27 c 0,-1.75 1,-2.68 3.29,-2.68 a 9.3,9.3 0 0 1 1.96,0.23 z"
           id="path10703-3" />
        <path
           style="fill:#59595c"
           class="cls-9"
           d="m 640.67,404.59 -2.9,-3.86 -2.83,2.12 2.67,3.56 -1.36,1 -2.68,-3.55 -3,2.24 2.9,3.87 -1.38,1 -4,-5.38 10,-7.47 4,5.38 z"
           id="path10705-3" />
        <path
           style="fill:#59595c"
           class="cls-9"
           d="m 639.41,413.1 -2.34,5.13 -1.22,-1.77 1.78,-3.52 -3.9,0.42 -1.22,-1.78 5.56,-0.33 2.2,-4.75 1.21,1.77 -1.62,3.18 3.56,-0.36 1.18,1.72 z"
           id="path10707-3" />
        <path
           style="fill:#59595c"
           class="cls-9"
           d="m 651.56,416.92 -1.41,0.87 a 7.76,7.76 0 0 0 -0.72,-1.7 1.16,1.16 0 0 0 -1.83,-0.43 l -0.87,0.54 2.45,4 -7.88,4.8 -1,-1.59 6.54,-4.06 -1.45,-2.35 -6.54,4 -1,-1.6 6.54,-4.05 -0.67,-1.08 1.34,-0.84 0.67,1.09 0.66,-0.41 c 1.83,-1.12 3.17,-0.87 4.32,1 a 13.2,13.2 0 0 1 0.85,1.81 z"
           id="path10709-8" />
        <path
           style="fill:#59595c"
           class="cls-9"
           d="m 643.26,428.48 -0.93,-1.64 11.25,-6.45 0.94,1.64 z"
           id="path10711-5" />
        <path
           style="fill:#59595c"
           class="cls-9"
           d="m 653.49,427.82 1.13,2.11 -1.38,0.75 -1.14,-2.11 -4.42,2.43 c -0.8,0.43 -0.95,0.92 -0.59,1.59 a 7,7 0 0 0 0.91,1.28 l -1.39,0.79 a 7.78,7.78 0 0 1 -1,-1.33 c -1,-1.81 -0.66,-3 1.26,-4 l 4.32,-2.32 -0.6,-1.13 1.39,-0.74 0.61,1.13 2.32,-0.9 0.74,1.37 z"
           id="path10713-1" />
        <path
           style="fill:#59595c"
           class="cls-9"
           d="m 657.68,435.63 -1.85,0.92 a 3.12,3.12 0 0 0 -0.27,-0.65 2.32,2.32 0 0 0 -2.07,-1.28 l -5.49,2.73 -0.83,-1.68 8.3,-4.13 0.78,1.57 -1.24,0.62 a 3.06,3.06 0 0 1 2.55,1.51 1.66,1.66 0 0 1 0.12,0.39 z"
           id="path10715-0" />
        <path
           style="fill:#59595c"
           class="cls-9"
           d="m 657.87,443.57 -5.76,2.61 -0.73,-1.61 1.26,-0.57 a 3,3 0 0 1 -2.46,-1.51 c -0.6,-1.32 0,-2.62 1.63,-3.37 l 0.46,-0.21 a 2.64,2.64 0 0 1 3.64,1.52 12,12 0 0 1 0.54,1.72 l 0.81,-0.37 c 0.91,-0.41 1,-1 0.65,-1.86 a 16.41,16.41 0 0 0 -1.33,-2.17 l 1.49,-0.68 a 18.06,18.06 0 0 1 1.36,2.27 c 0.94,2.05 0.57,3.29 -1.56,4.23 z m -5,-2.88 -0.17,0.08 c -0.8,0.36 -1,0.93 -0.8,1.45 0.2,0.52 1,0.93 2.09,1 l 1.25,-0.56 a 8.14,8.14 0 0 0 -0.46,-1.28 1.31,1.31 0 0 0 -1.89,-0.69 z"
           id="path10717-8" />
        <path
           style="fill:#59595c"
           class="cls-9"
           d="m 662.28,446.5 0.9,2.22 -1.46,0.6 -0.9,-2.22 -4.65,1.9 c -0.84,0.34 -1,0.81 -0.75,1.52 a 7.59,7.59 0 0 0 0.76,1.37 l -1.46,0.64 a 7.4,7.4 0 0 1 -0.83,-1.43 c -0.78,-1.9 -0.35,-3.06 1.67,-3.89 l 4.54,-1.85 -0.48,-1.18 1.46,-0.6 0.49,1.2 2.4,-0.65 0.59,1.44 z"
           id="path10719-7" />
        <path
           style="fill:#59595c"
           class="cls-9"
           d="m 663,457.57 -1.91,0.7 -1.62,-4.44 -0.9,0.32 c -1.08,0.4 -1.36,1 -0.92,2.24 a 14,14 0 0 0 1.15,2.25 l -1.53,0.6 a 14.89,14.89 0 0 1 -1.22,-2.37 c -0.89,-2.42 -0.21,-3.72 2,-4.54 l 2.64,-1 c 2.07,-0.75 3.6,-0.18 4.36,1.91 0.76,2.09 0.1,3.57 -2.05,4.33 z m -1.34,-4.57 -0.8,0.29 1,2.7 0.75,-0.27 c 1,-0.38 1.34,-1.1 1,-1.92 a 1.38,1.38 0 0 0 -1.95,-0.8 z"
           id="path10721-6" />
        <path
           style="fill:#59595c"
           class="cls-9"
           d="m 668.52,470 -2.92,0.85 c -3,0.87 -5.11,-0.21 -6,-3.34 -0.35,-1.19 -0.6,-2.18 -0.85,-3.32 l 12.18,-3.55 c 0.29,0.86 0.68,2 1.08,3.38 0.84,2.91 -0.39,5.06 -3.49,5.98 z m 1.39,-7.09 -9.08,2.65 c 0.12,0.63 0.22,1.12 0.34,1.52 a 2.75,2.75 0 0 0 3.76,2 l 3.16,-0.92 c 2.09,-0.61 2.81,-2 2.29,-3.74 -0.15,-0.56 -0.31,-1.05 -0.47,-1.53 z"
           id="path10723-3" />
        <path
           style="fill:#59595c"
           class="cls-9"
           d="m 669.18,478.4 -6.18,1.47 -0.41,-1.72 1.35,-0.32 a 3,3 0 0 1 -2.13,-2 c -0.33,-1.4 0.46,-2.57 2.24,-3 l 0.49,-0.12 a 2.63,2.63 0 0 1 3.28,2.19 12.39,12.39 0 0 1 0.21,1.78 l 0.87,-0.2 c 1,-0.23 1.21,-0.74 1,-1.7 a 16.8,16.8 0 0 0 -0.88,-2.39 l 1.59,-0.38 a 18.27,18.27 0 0 1 0.9,2.48 c 0.54,2.25 -0.11,3.38 -2.33,3.91 z m -4.34,-3.77 h -0.18 c -0.85,0.21 -1.2,0.72 -1.06,1.27 0.14,0.55 0.79,1.1 1.86,1.41 l 1.33,-0.31 a 10.25,10.25 0 0 0 -0.21,-1.34 1.3,1.3 0 0 0 -1.74,-1.03 z"
           id="path10725-5" />
        <path
           style="fill:#59595c"
           class="cls-9"
           d="m 673,482.14 0.47,2.34 -1.55,0.31 -0.46,-2.35 -4.92,1 c -0.9,0.18 -1.18,0.6 -1,1.35 a 7.23,7.23 0 0 0 0.49,1.49 l -1.56,0.35 a 7.22,7.22 0 0 1 -0.54,-1.56 c -0.4,-2 0.24,-3.07 2.38,-3.49 l 4.81,-1 -0.25,-1.25 1.55,-0.31 0.25,1.27 2.48,-0.18 0.3,1.52 z"
           id="path10727-0" />
        <path
           style="fill:#59595c"
           class="cls-9"
           d="m 671.81,492.79 -6.25,1 -0.28,-1.74 1.37,-0.22 a 3,3 0 0 1 -2,-2.11 c -0.23,-1.43 0.65,-2.53 2.45,-2.82 l 0.51,-0.08 a 2.63,2.63 0 0 1 3.1,2.43 11.76,11.76 0 0 1 0.08,1.8 l 0.88,-0.14 c 1,-0.16 1.26,-0.65 1.11,-1.62 a 17,17 0 0 0 -0.7,-2.45 l 1.61,-0.26 a 19.62,19.62 0 0 1 0.72,2.55 c 0.38,2.22 -0.35,3.3 -2.6,3.66 z m -4,-4.09 h -0.19 c -0.86,0.13 -1.25,0.62 -1.16,1.18 0.09,0.56 0.71,1.16 1.75,1.55 l 1.35,-0.21 a 10.4,10.4 0 0 0 -0.1,-1.36 1.3,1.3 0 0 0 -1.69,-1.16 z"
           id="path10729-8" />
        <path
           style="fill:#ffffff"
           class="cls-10"
           d="m 287,344.44 h -5 v 2.68 h 4.56 v 2.71 H 282 v 2.9 h 5 v 2.73 h -8 v -13.75 h 8 z"
           id="path10731-0" />
        <path
           style="fill:#ffffff"
           class="cls-10"
           d="m 295.91,341.81 v 2.71 a 23.64,23.64 0 0 0 -3.21,-0.38 c -1.09,0 -1.51,0.44 -1.51,1.2 v 0.36 c 0,0.59 0.21,0.86 1.09,1.15 l 1.78,0.59 c 2,0.65 2.79,1.68 2.79,3.86 v 0.4 c 0,2.61 -1.36,4 -4.89,4 a 19.42,19.42 0 0 1 -3.36,-0.46 v -2.77 a 18.53,18.53 0 0 0 3.24,0.5 c 1.53,0 2,-0.48 2,-1.24 v -0.46 a 1.06,1.06 0 0 0 -0.88,-1.13 l -2,-0.65 c -2.12,-0.72 -2.83,-1.64 -2.83,-3.84 v -0.21 c 0,-2.57 1.32,-4 4.38,-4 a 20.64,20.64 0 0 1 3.4,0.37 z"
           id="path10733-4" />
        <path
           style="fill:#ffffff"
           class="cls-10"
           d="m 306,341.83 v 2.65 a 17.93,17.93 0 0 0 -2.83,-0.34 c -1.73,0 -2.21,0.51 -2.21,2.12 v 4.62 c 0,1.62 0.53,2.1 2.21,2.1 a 14.51,14.51 0 0 0 2.83,-0.4 v 2.73 a 19.46,19.46 0 0 1 -3.31,0.4 c -3.51,0 -4.73,-1.49 -4.73,-4.49 V 346 c 0,-3 1.26,-4.49 4.73,-4.49 a 20.62,20.62 0 0 1 3.31,0.32 z"
           id="path10735-1" />
        <path
           style="fill:#ffffff"
           class="cls-10"
           d="m 318,355.46 h -3.17 l -0.63,-2.69 h -3.9 l -0.63,2.69 h -3.07 l 4,-13.75 h 3.46 z m -7.22,-5.16 h 2.9 l -1.45,-6.2 z"
           id="path10737-1" />
        <path
           style="fill:#ffffff"
           class="cls-10"
           d="m 321.87,352.75 h 5 v 2.71 h -7.93 v -13.75 h 3 z"
           id="path10739-3" />
        <path
           style="fill:#ffffff"
           class="cls-10"
           d="m 338.69,355.46 h -3.17 l -0.63,-2.69 h -3.95 l -0.63,2.69 h -3.07 l 4,-13.75 h 3.47 z m -7.23,-5.16 h 2.9 l -1.45,-6.2 z"
           id="path10741-5" />
        <path
           style="fill:#ffffff"
           class="cls-10"
           d="M 347.67,344.44 H 344 v 11 h -3 v -11 h -3.63 v -2.73 h 10.24 z"
           id="path10743-9" />
        <path
           style="fill:#ffffff"
           class="cls-10"
           d="m 356.87,344.44 h -5 v 2.68 h 4.55 v 2.71 h -4.52 v 2.9 h 5 v 2.73 h -7.93 v -13.75 h 7.93 z"
           id="path10745-3" />
        <path
           style="fill:#ffffff"
           class="cls-10"
           d="M 282.3,369.57 V 370 c 0,2.71 -1.63,4.37 -4.78,4.37 a 9.33,9.33 0 0 1 -1.33,-0.1 v 5.18 h -3 V 365.6 c 1,-0.06 2.59,-0.12 3.95,-0.12 3.55,-0.02 5.16,1.59 5.16,4.09 z m -6.11,-1.47 v 3.55 c 0.47,0 0.8,0.08 1.1,0.08 1.4,0 2,-0.63 2,-1.8 v -0.3 c 0,-1 -0.63,-1.57 -2.14,-1.57 a 7.41,7.41 0 0 0 -0.96,0.04 z"
           id="path10747-4" />
        <path
           style="fill:#ffffff"
           class="cls-10"
           d="m 292.59,369.45 v 0.46 a 3.78,3.78 0 0 1 -2.16,3.44 l 3.32,6.11 h -3.28 l -2.77,-5.27 a 7.88,7.88 0 0 1 -1.17,0 v 5.29 h -3 v -13.9 c 1.24,0 3.11,-0.1 4,-0.1 3.55,0 5.06,1.52 5.06,3.97 z m -6.06,-1.31 v 3.43 c 0.44,0 0.71,0.06 1,0.06 1.47,0 2.06,-0.65 2.06,-1.7 v -0.3 c 0,-1 -0.59,-1.55 -2,-1.55 a 9.94,9.94 0 0 0 -1.06,0.06 z"
           id="path10749-1" />
        <path
           style="fill:#ffffff"
           class="cls-10"
           d="m 297.51,379.46 h -3 v -13.75 h 3 z"
           id="path10751-5" />
        <path
           style="fill:#ffffff"
           class="cls-10"
           d="m 305.84,379.46 h -3.44 l -3.88,-13.75 h 3.12 l 2.48,11.19 2.5,-11.19 h 3.13 z"
           id="path10753-0" />
        <path
           style="fill:#ffffff"
           class="cls-10"
           d="m 313.72,379.46 h -3 v -13.75 h 3 z"
           id="path10755-8" />
        <path
           style="fill:#ffffff"
           class="cls-10"
           d="m 318.53,376.75 h 5 v 2.71 h -7.93 v -13.75 h 3 z"
           id="path10757-3" />
        <path
           style="fill:#ffffff"
           class="cls-10"
           d="m 332.62,368.44 h -5 v 2.68 h 4.56 v 2.71 h -4.56 v 2.9 h 5 v 2.73 h -7.94 v -13.75 h 7.94 z"
           id="path10759-5" />
        <path
           style="fill:#ffffff"
           class="cls-10"
           d="m 342.74,365.88 v 2.66 a 23.62,23.62 0 0 0 -3.8,-0.42 c -1.41,0 -1.91,0.51 -1.91,1.79 v 5.29 c 0,1.3 0.52,1.83 1.82,1.83 a 11.86,11.86 0 0 0 1.66,-0.15 v -3.09 h -1.8 v -2.64 h 4.62 v 7.66 a 15.4,15.4 0 0 1 -4.6,0.9 c -3.45,0 -4.66,-1.49 -4.66,-4.49 V 370 c 0,-3.09 1.3,-4.49 4.72,-4.49 a 25.73,25.73 0 0 1 3.95,0.37 z"
           id="path10761-6" />
        <path
           style="fill:#ffffff"
           class="cls-10"
           d="m 353,368.44 h -5 v 2.68 h 4.56 v 2.71 H 348 v 2.9 h 5 v 2.73 h -7.94 V 365.71 H 353 Z"
           id="path10763-5" />
        <path
           style="fill:#ffffff"
           class="cls-10"
           d="m 362,365.81 v 2.71 a 23.76,23.76 0 0 0 -3.22,-0.38 c -1.09,0 -1.51,0.44 -1.51,1.2 v 0.36 c 0,0.59 0.21,0.86 1.09,1.15 l 1.79,0.59 a 3.47,3.47 0 0 1 2.79,3.86 v 0.4 c 0,2.61 -1.36,4 -4.89,4 a 19.42,19.42 0 0 1 -3.36,-0.46 v -2.77 a 18.3,18.3 0 0 0 3.23,0.5 c 1.54,0 2,-0.48 2,-1.24 v -0.46 a 1.06,1.06 0 0 0 -0.88,-1.13 l -2,-0.65 c -2.12,-0.72 -2.83,-1.64 -2.83,-3.84 v -0.21 c 0,-2.57 1.32,-4 4.39,-4 a 20.86,20.86 0 0 1 3.4,0.37 z"
           id="path10765-9" />
        <path
           style="fill:#59595c"
           class="cls-9"
           d="m 109,361.39 q -3.56,2.21 -7,4.56 a 188.19,188.19 0 0 0 24.91,13.84 c 2.87,-1.65 5.8,-3.2 8.77,-4.68 A 186.52,186.52 0 0 1 109,361.39 Z"
           id="path10767-9" />
        <polygon
           style="fill:#133653"
           class="cls-2"
           points="574.98,364.4 567.55,359.4 557.01,364.39 "
           id="polygon10769-0" />
        <path
           style="fill:#1a4b74"
           class="cls-6"
           d="m 522.13,389.09 a 186.37,186.37 0 0 0 51.79,-24.7 H 557 a 185.71,185.71 0 0 1 -83.12,24.7 h -3.95 c 1.09,0 2.18,0 3.28,0 l -0.79,0.05 c -1.28,0.08 -2.55,0.16 -3.83,0.21 h 10.31 a 136.61,136.61 0 0 1 40,8.62 h 49.73 c -4,-3.16 -8.08,-6.15 -12.36,-8.92 z"
           id="path10771-7" />
        <path
           style="fill:#2e73af"
           class="cls-5"
           d="m 597.18,202.4 a 131.14,131.14 0 0 1 -131,131 v 25 c 86,0 156,-70 156,-156 A 155.89,155.89 0 0 0 558.94,77.05 l -4.33,28.79 a 130.68,130.68 0 0 1 42.57,96.56 z"
           id="path10773-6" />
        <path
           style="fill:#2e73af"
           class="cls-5"
           d="m 466.19,46.41 c -1.34,0 -2.68,0 -4,0.05 h -1.38 l -2.61,0.1 -1.52,0.1 -2.45,0.15 -1.69,0.15 -2.24,0.2 -1.87,0.22 c -0.68,0.07 -1.36,0.14 -2,0.23 l -1.93,0.27 c -0.65,0.09 -1.3,0.17 -1.95,0.27 -0.65,0.1 -1.31,0.22 -2,0.33 l -1.87,0.31 -2,0.38 -1.82,0.35 -2,0.44 -1.79,0.39 c -0.69,0.15 -1.37,0.33 -2.06,0.5 l -1.68,0.41 -2.13,0.57 -1.58,0.43 -2.13,0.64 -1.54,0.46 c -0.73,0.22 -1.44,0.46 -2.16,0.7 -0.49,0.16 -1,0.31 -1.48,0.48 -0.74,0.25 -1.48,0.51 -2.21,0.78 l -1.38,0.48 -2.28,0.87 -1.27,0.48 -2.32,0.95 -1.19,0.49 -2.33,1 -1.14,0.5 -2.36,1.1 -1.06,0.5 -2.41,1.19 -1,0.48 -2.36,1.34 -0.9,0.48 c -0.82,0.44 -1.63,0.9 -2.44,1.36 l -0.84,0.47 -2.48,1.46 -0.75,0.45 c -0.84,0.51 -1.66,1 -2.49,1.55 l -0.69,0.43 c -0.85,0.54 -1.68,1.09 -2.51,1.65 l -0.62,0.41 c -0.85,0.57 -1.69,1.15 -2.53,1.74 l -0.55,0.38 c -0.85,0.61 -1.69,1.22 -2.52,1.84 l -0.51,0.36 c -0.85,0.64 -1.69,1.29 -2.53,1.94 l -0.43,0.33 c -0.86,0.67 -1.7,1.35 -2.54,2 l -0.37,0.3 c -0.86,0.7 -1.7,1.42 -2.54,2.14 l -0.32,0.26 c -0.85,0.74 -1.69,1.48 -2.52,2.23 l -0.27,0.25 c -0.85,0.76 -1.69,1.55 -2.52,2.33 l -0.21,0.2 c -0.85,0.81 -1.69,1.62 -2.52,2.45 l -0.16,0.15 c -0.84,0.84 -1.67,1.68 -2.49,2.54 l -0.12,0.12 c -0.83,0.87 -1.65,1.75 -2.46,2.63 l -0.09,0.09 c -0.82,0.91 -1.63,1.82 -2.44,2.74 v 0 c -0.81,0.94 -1.62,1.89 -2.41,2.84 v 0 A 155.19,155.19 0 0 0 310.3,201.5 v 0 60 l 45,-60 h -20 a 130.37,130.37 0 0 1 28.23,-80.35 v 0 c 0.64,-0.81 1.29,-1.62 2,-2.42 v 0 c 0.66,-0.78 1.32,-1.57 2,-2.34 a 0.27,0.27 0 0 0 0.07,-0.08 c 0.67,-0.76 1.34,-1.51 2,-2.25 l 0.09,-0.1 c 0.68,-0.74 1.36,-1.47 2.05,-2.19 l 0.12,-0.13 c 0.68,-0.7 1.37,-1.41 2.07,-2.1 l 0.17,-0.16 c 0.68,-0.68 1.37,-1.35 2.07,-2 l 0.21,-0.19 c 0.69,-0.65 1.38,-1.3 2.09,-1.93 l 0.25,-0.23 2.09,-1.85 L 381,103 c 0.7,-0.6 1.4,-1.19 2.11,-1.77 l 0.34,-0.28 c 0.7,-0.57 1.39,-1.13 2.1,-1.68 l 0.4,-0.31 c 0.69,-0.54 1.39,-1.07 2.09,-1.6 l 0.45,-0.32 c 0.69,-0.52 1.39,-1 2.09,-1.52 l 0.5,-0.35 c 0.69,-0.48 1.38,-1 2.08,-1.44 l 0.55,-0.36 2.11,-1.37 0.61,-0.38 2.06,-1.28 c 0.22,-0.14 0.44,-0.26 0.66,-0.39 0.68,-0.41 1.36,-0.82 2.05,-1.21 l 0.73,-0.41 c 0.67,-0.38 1.34,-0.76 2,-1.13 l 0.79,-0.42 c 0.66,-0.35 1.33,-0.71 2,-1 0.28,-0.15 0.56,-0.28 0.84,-0.42 0.66,-0.33 1.33,-0.67 2,-1 l 0.9,-0.42 2,-0.92 1,-0.42 2,-0.85 c 0.34,-0.15 0.69,-0.28 1,-0.42 0.64,-0.27 1.27,-0.53 1.91,-0.78 l 1.12,-0.43 1.87,-0.71 1.17,-0.41 1.84,-0.65 1.24,-0.4 1.81,-0.59 1.28,-0.38 1.81,-0.54 1.33,-0.36 c 0.59,-0.16 1.18,-0.33 1.78,-0.48 l 1.39,-0.34 1.75,-0.43 1.44,-0.31 1.74,-0.38 1.48,-0.28 c 0.57,-0.11 1.14,-0.23 1.72,-0.33 l 1.58,-0.26 1.65,-0.28 1.64,-0.23 1.61,-0.22 1.72,-0.2 1.56,-0.18 1.79,-0.16 1.52,-0.13 2,-0.13 1.37,-0.08 2.19,-0.09 h 1.16 c 1.12,0 2.24,0 3.37,0 a 130.39,130.39 0 0 1 83.05,29.77 l 4.21,-28 A 155.1,155.1 0 0 0 466.19,46.41 Z"
           id="path10775-3" />
        <path
           style="fill:#4c8ecb"
           class="cls-4"
           d="m 466.19,15.41 c -1.61,0 -3.22,0 -4.82,0.06 h -1.22 c -1.19,0 -2.37,0.08 -3.56,0.14 -0.66,0 -1.32,0.09 -2,0.13 -0.92,0.05 -1.85,0.1 -2.77,0.17 l -2.18,0.2 -2.54,0.22 -2.24,0.26 -2.44,0.28 -2.33,0.32 c -0.77,0.11 -1.55,0.21 -2.32,0.33 -0.77,0.12 -1.59,0.26 -2.39,0.4 -0.8,0.14 -1.48,0.23 -2.22,0.37 -0.74,0.14 -1.65,0.31 -2.47,0.47 l -2.1,0.4 c -0.84,0.17 -1.67,0.36 -2.51,0.55 -0.67,0.15 -1.35,0.28 -2,0.44 l -2.53,0.62 c -0.65,0.16 -1.31,0.31 -2,0.48 -0.86,0.22 -1.71,0.46 -2.57,0.69 l -1.88,0.51 c -0.88,0.25 -1.75,0.52 -2.62,0.78 l -1.78,0.53 c -0.9,0.28 -1.8,0.58 -2.69,0.88 l -1.67,0.54 -2.72,1 c -0.52,0.19 -1.06,0.37 -1.59,0.57 q -1.38,0.51 -2.76,1.05 l -1.5,0.57 c -0.94,0.37 -1.87,0.76 -2.81,1.14 l -1.39,0.58 c -1,0.39 -1.89,0.81 -2.82,1.23 l -1.35,0.58 c -0.95,0.43 -1.89,0.88 -2.83,1.33 l -1.27,0.59 c -1,0.46 -1.92,0.95 -2.87,1.43 l -1.18,0.58 -2.94,1.55 -1,0.56 c -1,0.54 -2,1.09 -3,1.65 l -1,0.54 c -1,0.58 -2,1.17 -3,1.77 l -0.88,0.52 c -1,0.62 -2,1.25 -3,1.88 l -0.81,0.5 c -1,0.65 -2,1.32 -3,2 l -0.72,0.48 c -1,0.69 -2,1.4 -3.05,2.11 l -0.64,0.44 c -1,0.74 -2.06,1.49 -3.08,2.24 l -0.55,0.4 c -1,0.77 -2.06,1.56 -3.08,2.36 l -0.48,0.36 C 350,56 349,56.82 348,57.65 l -0.41,0.33 c -1,0.84 -2.05,1.71 -3.06,2.58 l -0.36,0.3 c -1,0.89 -2.05,1.8 -3.07,2.71 l -0.28,0.26 c -1,0.93 -2,1.88 -3.07,2.84 l -0.21,0.2 c -1,1 -2,2 -3,3 -0.05,0 -0.11,0.1 -0.16,0.16 -1,1 -2,2 -3,3.08 l -0.1,0.11 q -1.52,1.57 -3,3.2 a 0.23,0.23 0 0 0 -0.07,0.07 q -1.5,1.64 -3,3.31 v 0 A 186.22,186.22 0 0 0 279.3,201.6 h -20 l 45,60 v -59.2 0 c 0,-89.32 72.67,-162 162,-162 a 161.07,161.07 0 0 1 92.26,28.92 L 591.83,64 A 186.27,186.27 0 0 0 466.19,15.41 Z"
           id="path10777-7" />
        <path
           style="fill:#4c8ecb"
           class="cls-4"
           d="m 597.32,69.23 -32.07,5.09 a 161.8,161.8 0 0 1 62.93,128.08 c 0,89.32 -72.67,162 -162,162 v 25 c 103.11,0 187,-83.88 187,-187 A 186.43,186.43 0 0 0 597.32,69.23 Z"
           id="path10779-6" />
        <path
           style="fill:#59595c"
           class="cls-9"
           d="m 2.47,233.2 -0.21,-1.89 12.36,-1.41 0.21,1.89 z"
           id="path10781-1" />
        <path
           style="fill:#59595c"
           class="cls-9"
           d="m 10,241.63 -6.23,0.93 -0.28,-1.86 6,-0.9 c 1.2,-0.18 1.59,-0.66 1.49,-1.3 A 2.38,2.38 0 0 0 9.35,236.86 L 3.04,237.81 2.79,236 12,234.57 l 0.26,1.73 -1.34,0.2 a 3,3 0 0 1 1.93,2.21 c 0.15,1.56 -0.76,2.61 -2.85,2.92 z"
           id="path10783-5" />
        <path
           style="fill:#59595c"
           class="cls-9"
           d="m 13.81,245.76 0.46,2.35 -1.55,0.3 -0.46,-2.35 -4.92,0.94 c -0.9,0.17 -1.18,0.59 -1,1.34 a 7.91,7.91 0 0 0 0.48,1.49 l -1.56,0.34 a 7.25,7.25 0 0 1 -0.53,-1.56 c -0.39,-2 0.26,-3.07 2.4,-3.48 l 4.82,-0.93 -0.28,-1.2 1.55,-0.3 0.24,1.27 2.48,-0.17 0.3,1.53 z"
           id="path10785-0" />
        <path
           style="fill:#59595c"
           class="cls-9"
           d="M 13,256.93 11,257.4 9.93,252.79 9,253 c -1.13,0.26 -1.47,0.87 -1.18,2.11 a 14.37,14.37 0 0 0 0.87,2.37 L 7.1,257.89 A 15.81,15.81 0 0 1 6.17,255.4 c -0.59,-2.52 0.24,-3.72 2.57,-4.27 l 2.74,-0.64 c 2.14,-0.5 3.59,0.25 4.09,2.41 0.5,2.16 -0.4,3.52 -2.57,4.03 z m -0.82,-4.68 -0.83,0.2 0.65,2.79 0.78,-0.18 c 1.07,-0.26 1.46,-0.93 1.26,-1.78 a 1.39,1.39 0 0 0 -1.88,-1.03 z"
           id="path10787-6" />
        <path
           style="fill:#59595c"
           class="cls-9"
           d="m 18.05,262.57 -2,0.55 a 3.35,3.35 0 0 0 -0.14,-0.69 2.32,2.32 0 0 0 -1.79,-1.65 l -5.92,1.64 -0.5,-1.82 8.93,-2.46 0.47,1.68 -1.34,0.37 a 3.08,3.08 0 0 1 2.22,2 2.17,2.17 0 0 1 0.07,0.38 z"
           id="path10789-5" />
        <path
           style="fill:#59595c"
           class="cls-9"
           d="m 17.53,271.41 -6,1.92 -0.53,-1.79 5.79,-1.85 c 1.15,-0.37 1.46,-0.91 1.26,-1.52 a 2.37,2.37 0 0 0 -1.87,-1.36 l -6.08,1.95 -0.62,-1.76 8.83,-2.82 0.53,1.66 -1.28,0.41 a 3,3 0 0 1 2.25,1.87 c 0.48,1.47 -0.29,2.65 -2.28,3.29 z"
           id="path10791-0" />
        <path
           style="fill:#59595c"
           class="cls-9"
           d="m 20.55,279.63 -5.93,2.21 -0.62,-1.65 1.3,-0.49 A 3,3 0 0 1 13,278 c -0.51,-1.35 0.14,-2.6 1.85,-3.24 l 0.48,-0.18 a 2.63,2.63 0 0 1 3.52,1.77 12.44,12.44 0 0 1 0.43,1.75 l 0.83,-0.32 c 0.93,-0.34 1.12,-0.88 0.77,-1.8 a 16.73,16.73 0 0 0 -1.17,-2.26 l 1.53,-0.57 a 16.94,16.94 0 0 1 1.2,2.35 c 0.75,2.14 0.25,3.34 -1.89,4.13 z m -4.76,-3.21 -0.18,0.07 c -0.82,0.3 -1.1,0.85 -0.9,1.39 0.2,0.54 0.91,1 2,1.17 l 1.28,-0.47 a 9.2,9.2 0 0 0 -0.37,-1.31 1.3,1.3 0 0 0 -1.83,-0.85 z"
           id="path10793-8" />
        <path
           style="fill:#59595c"
           class="cls-9"
           d="m 16.31,286 -0.72,-1.74 12,-4.94 0.71,1.74 z"
           id="path10795-1" />
        <path
           style="fill:#59595c"
           class="cls-9"
           d="m 31.92,294.35 -1.52,-3.17 -9.67,4.61 -0.82,-1.71 9.67,-4.62 -1.52,-3.19 1.56,-0.74 3.86,8.08 z"
           id="path10797-2" />
        <path
           style="fill:#59595c"
           class="cls-9"
           d="m 31.36,298.85 a 2.86,2.86 0 0 1 2.33,1.4 c 0.75,1.38 0.21,2.69 -1.63,3.69 l -5.55,3 -0.89,-1.66 5.38,-2.89 c 1.08,-0.59 1.26,-1.18 1,-1.73 a 2.4,2.4 0 0 0 -2.09,-1 l -5.61,3 -0.9,-1.65 11.42,-6.17 0.89,1.65 z"
           id="path10799-2" />
        <path
           style="fill:#59595c"
           class="cls-9"
           d="m 38.39,308.44 -1.78,1.06 a 4.46,4.46 0 0 0 -0.31,-0.63 2.35,2.35 0 0 0 -2.17,-1.12 l -5.3,3.14 -1,-1.62 8,-4.73 0.89,1.5 -1.19,0.71 a 3.09,3.09 0 0 1 2.66,1.32 1.74,1.74 0 0 1 0.2,0.37 z"
           id="path10801-6" />
        <path
           style="fill:#59595c"
           class="cls-9"
           d="m 39.77,316.9 -1.71,1.1 -2.57,-4 -0.8,0.52 c -1,0.63 -1.09,1.32 -0.4,2.39 a 14.23,14.23 0 0 0 1.62,1.94 l -1.36,0.92 a 17.55,17.55 0 0 1 -1.72,-2 c -1.4,-2.18 -1,-3.59 1,-4.89 l 2.37,-1.53 c 1.85,-1.2 3.46,-1 4.67,0.89 1.21,1.89 0.78,3.45 -1.1,4.66 z m -2.36,-4.13 -0.72,0.46 1.56,2.41 0.67,-0.43 a 1.4,1.4 0 0 0 0.59,-2.1 1.38,1.38 0 0 0 -2.1,-0.34 z"
           id="path10803-9" />
        <path
           style="fill:#59595c"
           class="cls-9"
           d="m 44.77,323.55 -5.15,3.67 -1,-1.44 1.13,-0.8 a 3,3 0 0 1 -2.7,-1 c -0.84,-1.17 -0.54,-2.55 0.95,-3.61 l 0.42,-0.3 a 2.63,2.63 0 0 1 3.86,0.8 12.42,12.42 0 0 1 0.86,1.58 l 0.73,-0.52 c 0.8,-0.57 0.85,-1.14 0.27,-1.94 a 15.87,15.87 0 0 0 -1.71,-1.89 l 1.33,-0.94 a 18.51,18.51 0 0 1 1.77,2 c 1.28,1.78 1.1,3.07 -0.76,4.39 z m -5.43,-1.87 -0.16,0.11 c -0.71,0.51 -0.84,1.12 -0.51,1.58 a 2.42,2.42 0 0 0 2.26,0.61 l 1.11,-0.79 a 8.62,8.62 0 0 0 -0.69,-1.17 1.31,1.31 0 0 0 -2.01,-0.34 z"
           id="path10805-1" />
        <path
           style="fill:#59595c"
           class="cls-9"
           d="m 49.91,325.43 1.47,1.9 -1.25,1 -1.46,-1.89 -4,3.06 c -0.72,0.56 -0.78,1.07 -0.32,1.67 a 7.82,7.82 0 0 0 1.1,1.12 l -1.24,1 a 7.37,7.37 0 0 1 -1.18,-1.15 c -1.25,-1.63 -1.15,-2.86 0.58,-4.19 l 3.89,-3 -0.78,-1 1.25,-1 0.79,1 2.14,-1.27 0.95,1.23 z"
           id="path10807-0" />
        <path
           style="fill:#59595c"
           class="cls-9"
           d="m 55.59,332.45 -1.28,1 a 8.28,8.28 0 0 0 -1,-1.59 c -0.72,-0.86 -1.27,-0.95 -1.72,-0.57 l -0.1,0.08 c -0.32,0.27 -0.35,0.54 -0.2,1.1 l 0.5,1.89 a 2.44,2.44 0 0 1 -0.71,2.71 l -0.3,0.25 c -1.36,1.11 -2.67,1 -4.16,-0.81 a 10.54,10.54 0 0 1 -1.3,-2.19 l 1.35,-1 a 9.26,9.26 0 0 0 1.22,2.12 c 0.72,0.87 1.14,0.93 1.65,0.51 l 0.12,-0.1 a 1,1 0 0 0 0.35,-1.18 l -0.54,-1.85 a 2.36,2.36 0 0 1 0.64,-2.7 l 0.2,-0.17 c 1.37,-1.09 2.7,-1 4.17,0.81 a 10.23,10.23 0 0 1 1.11,1.69 z"
           id="path10809-4" />
        <path
           style="fill:#f05b40;stroke:#be1e2d;stroke-width:2px;stroke-miterlimit:10"
           class="cls-1"
           d="m 51.28,520.37 a 155.07,155.07 0 0 1 26,-86.06 l 2.54,1.59 -0.3,-4.88 -0.27,-4.56 -4.89,1.48 -4.87,1.47 2.71,1.7 a 161.09,161.09 0 0 0 -26.88,89.26"
           id="path10811-2" />
        <path
           style="fill:#808083"
           class="cls-3"
           d="m 76.28,202.41 h -25 c 0,85.51 69.17,155.16 154.5,156 v -25 c -71.54,-0.84 -129.5,-59.27 -129.5,-131 z"
           id="path10813-7" />
        <path
           style="fill:#808083"
           class="cls-3"
           d="m 45.28,202.41 h -25 c 0,102.61 83.08,186.16 185.5,187 v -25 c -88.64,-0.83 -160.5,-73.18 -160.5,-162 z"
           id="path10815-4" />
        <path
           style="fill:#808083"
           class="cls-3"
           d="m 45.28,202.41 h -25 c 0,102.61 83.08,186.16 185.5,187 v -25 c -88.64,-0.83 -160.5,-73.18 -160.5,-162 z"
           id="path10817-0" />
        <path
           style="fill:#59595c"
           class="cls-9"
           d="m 143.32,378.12 c -3.23,1.45 -6.39,3 -9.5,4.68 a 185.65,185.65 0 0 0 39,11.2 130.94,130.94 0 0 1 33,-4.59 v 0 a 186.07,186.07 0 0 1 -62.5,-11.29 z"
           id="path10819-3" />
        <path
           style="fill:#59595c"
           class="cls-9"
           d="m 143.32,344.67 c -2.59,0.94 -5.15,1.95 -7.69,3 a 160.66,160.66 0 0 0 40.53,13.72 162.37,162.37 0 0 1 29.62,-3 v 0 a 155,155 0 0 1 -62.46,-13.72 z"
           id="path10821-2" />
        <path
           style="fill:#808083"
           class="cls-3"
           d="m 76.28,202.41 h -25 c 0,85.51 69.17,155.16 154.5,156 v -25 c -71.54,-0.84 -129.5,-59.27 -129.5,-131 z"
           id="path10823-8" />
        <path
           style="fill:#f05b40;stroke:#be1e2d;stroke-width:2px;stroke-miterlimit:10"
           class="cls-1"
           d="m 51.28,202.41 a 155.13,155.13 0 0 0 26,86.07 l 2.54,-1.6 -0.3,4.88 -0.27,4.56 -4.89,-1.48 -4.87,-1.47 2.71,-1.7 A 161.09,161.09 0 0 1 45.32,202.41"
           id="path10825-0" />
        <path
           style="fill:none;stroke:#ffffff;stroke-width:1.38999999px;stroke-miterlimit:10"
           class="cls-11"
           d="m 299,276.87 a 15.42,15.42 0 0 0 8.42,-3.06 15.45,15.45 0 0 0 8.42,3.06 v 10.37 c 0,3.57 -3.46,6.63 -8.42,8 -5,-1.37 -8.42,-4.43 -8.42,-8 z"
           id="path10827-3" />
        <path
           style="fill:#ffffff"
           class="cls-10"
           d="m 310.87,281.1 a 0.66,0.66 0 0 0 -0.92,0 l -2.5,2.51 -2.45,-2.51 a 0.65053824,0.65053824 0 0 0 -0.92,0.92 l 2.5,2.5 L 304,287 a 0.65,0.65 0 1 0 0.92,0.91 l 2.5,-2.5 2.5,2.5 a 0.66,0.66 0 0 0 0.46,0.2 0.66,0.66 0 0 0 0.46,-1.11 l -2.5,-2.51 2.5,-2.5 a 0.64,0.64 0 0 0 0.03,-0.89 z"
           id="path10829-7" />
        <polygon
           style="fill:#f05b40;stroke:#be1e2d;stroke-width:2px;stroke-miterlimit:10"
           class="cls-1"
           points="212.84,367.99 223.04,378.18 237.45,378.18 247.64,367.99 247.64,353.57 237.45,343.38 223.04,343.38 212.84,353.57 "
           id="polygon10831-0" />
        <path
           style="fill:none;stroke:#ffffff;stroke-width:1.38999999px;stroke-miterlimit:10"
           class="cls-11"
           d="m 221.82,353.13 a 15.39,15.39 0 0 0 8.42,-3.06 15.45,15.45 0 0 0 8.42,3.06 v 10.37 c 0,3.56 -3.46,6.62 -8.42,8 -5,-1.37 -8.42,-4.43 -8.42,-8 z"
           id="path10833-0" />
        <path
           style="fill:#ffffff"
           class="cls-10"
           d="m 233.66,357.36 a 0.66,0.66 0 0 0 -0.92,0 l -2.5,2.5 -2.5,-2.5 a 0.65053824,0.65053824 0 0 0 -0.92,0.92 l 2.5,2.5 -2.5,2.5 a 0.66,0.66 0 0 0 0,0.92 0.65,0.65 0 0 0 0.46,0.19 0.63,0.63 0 0 0 0.46,-0.19 l 2.5,-2.5 2.5,2.5 a 0.65,0.65 0 0 0 0.46,0.19 0.62,0.62 0 0 0 0.46,-0.19 0.64,0.64 0 0 0 0,-0.92 l -2.5,-2.5 2.5,-2.5 a 0.64,0.64 0 0 0 0,-0.92 z"
           id="path10835-3" />
        <polyline
           style="fill:none;stroke:#be1e2d;stroke-width:2px;stroke-miterlimit:10"
           class="cls-12"
           points="290.11 289.03 285.64 279.42 281.17 289.03 276.7 279.42 272.23 289.03 267.76 279.42 263.29 289.03 258.82 279.42 254.35 289.03"
           id="polyline10837-4" />
        <polyline
           style="fill:none;stroke:#be1e2d;stroke-width:2px;stroke-miterlimit:10"
           class="cls-12"
           points="360.73 289.03 356.26 279.42 351.79 289.03 347.32 279.42 342.85 289.03 338.38 279.42 333.91 289.03 329.44 279.42 324.97 289.03"
           id="polyline10839-9" />
        <polyline
           style="fill:none;stroke:#be1e2d;stroke-width:2px;stroke-miterlimit:10"
           class="cls-12"
           points="234.4 378.32 224.78 382.79 234.4 387.26 224.78 391.73 234.4 396.2 224.78 400.67 234.4 405.14 224.78 409.61 234.4 414.08"
           id="polyline10841-2" />
        <polyline
           style="fill:none;stroke:#be1e2d;stroke-width:2px;stroke-miterlimit:10"
           class="cls-12"
           points="234.4 307.7 224.78 312.17 234.4 316.64 224.78 321.11 234.4 325.58 224.78 330.05 234.4 334.52 224.78 338.99 234.4 343.46"
           id="polyline10843-7" />
        <path
           style="fill:#59595c"
           class="cls-9"
           d="m 2.79,485.11 -0.79,4.77 3.49,0.57 0.71,-4.39 1.69,0.27 -0.71,4.39 3.69,0.6 0.78,-4.76 1.7,0.27 -1.08,6.64 L 0,491.48 1.08,484.84 Z"
           id="path10845-4" />
        <path
           style="fill:#59595c"
           class="cls-9"
           d="m 9.81,480.08 5.32,-1.86 -0.44,2.1 -3.77,1.16 3,2.53 -0.44,2.1 -4.08,-3.78 -4.95,1.67 0.43,-2.1 3.42,-1 -2.72,-2.31 0.43,-2 z"
           id="path10847-2" />
        <path
           style="fill:#59595c"
           class="cls-9"
           d="m 7,472.69 0.58,-2.32 1.53,0.38 -0.58,2.32 4.87,1.21 c 0.88,0.22 1.32,0 1.5,-0.78 a 7.6,7.6 0 0 0 0.19,-1.55 l 1.56,0.35 a 7.36,7.36 0 0 1 -0.17,1.64 c -0.5,2 -1.53,2.67 -3.65,2.14 L 8,474.9 l -0.3,1.23 -1.53,-0.38 0.31,-1.25 -2.32,-0.89 0.37,-1.52 z"
           id="path10849-5" />
        <path
           style="fill:#59595c"
           class="cls-9"
           d="m 12.92,463.24 1.95,0.57 -1.32,4.54 0.91,0.27 c 1.11,0.32 1.71,0 2.07,-1.26 a 15.37,15.37 0 0 0 0.41,-2.49 l 1.58,0.42 a 16.14,16.14 0 0 1 -0.41,2.63 c -0.73,2.48 -2,3.13 -4.34,2.46 l -2.7,-0.79 c -2.12,-0.61 -3,-2 -2.39,-4.12 0.61,-2.12 2.08,-2.86 4.24,-2.23 z m -1.59,4.49 0.82,0.24 0.81,-2.76 -0.77,-0.22 a 1.44,1.44 0 1 0 -0.86,2.74 z"
           id="path10851-2" />
        <path
           style="fill:#59595c"
           class="cls-9"
           d="m 11.73,456 2,0.66 a 3.27,3.27 0 0 0 -0.27,0.65 2.34,2.34 0 0 0 0.57,2.37 l 5.84,1.94 -0.59,1.78 -8.8,-2.92 0.52,-1.68 1.32,0.44 a 3.06,3.06 0 0 1 -0.75,-2.87 3.37,3.37 0 0 1 0.16,-0.37 z"
           id="path10853-4" />
        <path
           style="fill:#59595c"
           class="cls-9"
           d="m 17.55,449.38 5.9,2.22 -0.66,1.76 -5.69,-2.14 c -1.14,-0.43 -1.71,-0.2 -1.94,0.41 a 2.38,2.38 0 0 0 0.63,2.22 l 6,2.25 -0.66,1.76 -8.68,-3.27 0.55,-1.59 1.26,0.47 a 3,3 0 0 1 -0.61,-2.86 c 0.6,-1.52 1.94,-1.97 3.9,-1.23 z"
           id="path10855-4" />
        <path
           style="fill:#59595c"
           class="cls-9"
           d="m 20.82,441.6 5.81,2.49 -0.7,1.63 -1.27,-0.55 A 3,3 0 0 1 25.2,448 c -0.57,1.32 -1.91,1.78 -3.58,1.06 l -0.47,-0.2 a 2.62,2.62 0 0 1 -1.32,-3.71 11.27,11.27 0 0 1 0.89,-1.56 l -0.82,-0.35 c -0.91,-0.39 -1.41,-0.13 -1.8,0.78 a 17.24,17.24 0 0 0 -0.72,2.44 l -1.5,-0.64 a 18,18 0 0 1 0.76,-2.53 c 0.89,-2.07 2.08,-2.59 4.18,-1.69 z m 1.23,5.61 0.17,0.08 c 0.8,0.34 1.39,0.14 1.61,-0.39 a 2.41,2.41 0 0 0 -0.65,-2.24 l -1.25,-0.54 a 8.94,8.94 0 0 0 -0.64,1.19 1.31,1.31 0 0 0 0.76,1.9 z"
           id="path10857-3" />
        <path
           style="fill:#59595c"
           class="cls-9"
           d="m 28.28,440.56 -0.8,1.71 -11.75,-5.51 0.8,-1.7 z"
           id="path10859-8" />
        <path
           style="fill:#59595c"
           class="cls-9"
           d="m 25,423.59 -1.66,3.1 9.45,5.05 -0.89,1.68 -9.45,-5.05 -1.67,3.11 -1.52,-0.81 4.22,-7.89 z"
           id="path10861-6" />
        <path
           style="fill:#59595c"
           class="cls-9"
           d="m 29.11,421.69 a 2.87,2.87 0 0 1 0,-2.72 c 0.81,-1.35 2.22,-1.55 4,-0.48 l 5.41,3.24 -1,1.61 -5.21,-3.12 c -1.06,-0.63 -1.66,-0.48 -2,0.06 a 2.39,2.39 0 0 0 0.22,2.29 l 5.47,3.28 -1,1.61 -11,-6.66 1,-1.61 z"
           id="path10863-0" />
        <path
           style="fill:#59595c"
           class="cls-9"
           d="m 34.22,411 1.78,1.14 a 3.77,3.77 0 0 0 -0.44,0.56 2.38,2.38 0 0 0 -0.05,2.44 l 5.16,3.36 -1,1.58 -7.83,-5.08 0.95,-1.47 1.16,0.76 a 3.08,3.08 0 0 1 0,-3 2.11,2.11 0 0 1 0.27,-0.29 z"
           id="path10865-8" />
        <path
           style="fill:#59595c"
           class="cls-9"
           d="m 41.52,406.52 1.66,1.17 -2.73,3.86 0.78,0.55 c 1,0.67 1.63,0.53 2.36,-0.51 a 14.76,14.76 0 0 0 1.2,-2.23 l 1.36,0.91 a 15.65,15.65 0 0 1 -1.25,2.36 c -1.49,2.11 -2.94,2.29 -4.89,0.91 l -2.3,-1.62 c -1.8,-1.27 -2.2,-2.85 -0.92,-4.67 1.28,-1.82 2.9,-2.02 4.73,-0.73 z m -3,3.73 0.7,0.49 1.66,-2.35 -0.65,-0.46 a 1.45,1.45 0 1 0 -1.71,2.32 z"
           id="path10867-9" />
        <path
           style="fill:#59595c"
           class="cls-9"
           d="m 46.16,400 5,3.87 -1.08,1.4 -1.08,-0.84 a 3,3 0 0 1 -0.19,2.88 c -0.88,1.14 -2.29,1.26 -3.73,0.14 l -0.41,-0.31 a 2.64,2.64 0 0 1 -0.36,-3.93 12.64,12.64 0 0 1 1.26,-1.28 l -0.71,-0.55 c -0.78,-0.6 -1.33,-0.48 -1.93,0.31 a 17.48,17.48 0 0 0 -1.31,2.18 l -1.29,-1 a 17.7,17.7 0 0 1 1.36,-2.26 c 1.38,-1.79 2.67,-1.99 4.47,-0.61 z m -0.2,5.74 0.15,0.12 c 0.69,0.53 1.3,0.48 1.65,0 a 2.42,2.42 0 0 0 -0.07,-2.33 l -1.08,-0.84 a 7.93,7.93 0 0 0 -0.91,1 1.29,1.29 0 0 0 0.3,2.06 z"
           id="path10869-2" />
        <path
           style="fill:#59595c"
           class="cls-9"
           d="m 46.73,394.71 1.53,-1.84 1.21,1 -1.53,1.84 3.85,3.21 c 0.7,0.59 1.21,0.54 1.7,0 a 8.29,8.29 0 0 0 0.85,-1.32 l 1.25,1 a 7.58,7.58 0 0 1 -0.87,1.4 c -1.32,1.58 -2.55,1.74 -4.22,0.34 l -3.77,-3.14 -0.81,1 -1.21,-1 0.83,-1 -1.71,-1.81 1,-1.2 z"
           id="path10871-2" />
        <path
           style="fill:#59595c"
           class="cls-9"
           d="m 52.66,387.9 1.19,1.1 a 8.36,8.36 0 0 0 -1.42,1.22 c -0.75,0.84 -0.76,1.39 -0.32,1.78 l 0.1,0.09 c 0.31,0.28 0.58,0.27 1.12,0 l 1.79,-0.77 a 2.45,2.45 0 0 1 2.78,0.3 l 0.3,0.27 c 1.29,1.18 1.36,2.49 -0.19,4.24 a 10.76,10.76 0 0 1 -2,1.6 l -1.21,-1.18 a 9.6,9.6 0 0 0 1.92,-1.52 c 0.74,-0.84 0.75,-1.27 0.25,-1.71 l -0.11,-0.11 a 1,1 0 0 0 -1.22,-0.17 l -1.75,0.81 a 2.38,2.38 0 0 1 -2.77,-0.23 l -0.2,-0.18 c -1.27,-1.2 -1.33,-2.52 0.2,-4.24 a 10,10 0 0 1 1.54,-1.3 z"
           id="path10873-3" />
      </g>
    </g>
  </g>
</svg>
