<?xml version="1.0" encoding="UTF-8" standalone="no"?>
<svg
   xmlns:dc="http://purl.org/dc/elements/1.1/"
   xmlns:cc="http://creativecommons.org/ns#"
   xmlns:rdf="http://www.w3.org/1999/02/22-rdf-syntax-ns#"
   xmlns:svg="http://www.w3.org/2000/svg"
   xmlns="http://www.w3.org/2000/svg"
   id="svg55871"
   version="1.1"
   viewBox="0 0 228.11845 156.33437"
   height="156.33437mm"
   width="228.11845mm">
  <defs
     id="defs55865" />
  <metadata
     id="metadata55868">
    <rdf:RDF>
      <cc:Work
         rdf:about="">
        <dc:format>image/svg+xml</dc:format>
        <dc:type
           rdf:resource="http://purl.org/dc/dcmitype/StillImage" />
        <dc:title></dc:title>
      </cc:Work>
    </rdf:RDF>
  </metadata>
  <g
     transform="translate(1002.3033,-94.856627)"
     id="layer1">
    <g
       transform="matrix(0.26458333,0,0,0.26458333,-1002.3033,94.856627)"
       id="Layer_2-28-1"
       data-name="Layer 2">
      <g
         id="Layer_1-2-97-8"
         data-name="Layer 1">
        <path
           style="fill:#133653"
           class="cls-1"
           d="m 474,358.15 v 0.24 h 38.66 a 161.57,161.57 0 0 0 51.46,-25 H 550 a 155.12,155.12 0 0 1 -76,24.76 z"
           id="path9969-3-3" />
        <path
           style="fill:#808083"
           class="cls-2"
           d="m 51.28,520.37 h 25 c 0,-71.73 58,-130.16 129.5,-131 v -25 c -85.33,0.84 -154.5,70.49 -154.5,156 z"
           id="path9971-6-4" />
        <path
           style="fill:#808083"
           class="cls-2"
           d="m 20.28,520.37 h 25 c 0,-88.82 71.86,-161.16 160.5,-162 v -25 c -102.42,0.84 -185.5,84.4 -185.5,187 z"
           id="path9973-2" />
        <path
           style="fill:#808083"
           class="cls-2"
           d="m 20.28,520.37 h 25 c 0,-88.82 71.86,-161.16 160.5,-162 v -25 c -102.42,0.84 -185.5,84.4 -185.5,187 z"
           id="path9975-1-2" />
        <path
           style="fill:#4c8ecb"
           class="cls-3"
           d="m 627.91,519.52 v 0 60 l -45,-60 h 20 c -0.44,-71.85 -59,-130.18 -131,-130.18 v -25 c 85.76,0 155.56,69.54 156,155.18 z"
           id="path9977-2-4" />
        <path
           style="fill:#2e73af"
           class="cls-4"
           d="m 658.91,519.52 h 20 l -45,60 v -59.19 0 c 0,-89.32 -72.67,-162 -162,-162 v -25 c 102.85,0.01 186.56,83.46 187,186.19 z"
           id="path9979-9-5" />
        <path
           style="fill:#1a4b74"
           class="cls-5"
           d="m 605,389.09 h -38.13 q 5.78,4.21 11.13,8.91 h 35.16 c -2.62,-3 -5.34,-6 -8.16,-8.91 z"
           id="path9981-3-1" />
        <path
           style="fill:#133653"
           class="cls-1"
           d="m 532.89,343.43 a 154.94,154.94 0 0 1 -60.76,14.79 v 0.07 a 161.88,161.88 0 0 1 28.2,2.46 160.75,160.75 0 0 0 40.31,-14.46 c 7.36,-4.64 -1.26,-5.54 -7.75,-2.86 z"
           id="path9983-7" />
        <path
           style="fill:#404041"
           class="cls-6"
           d="m 36,154.94 a 4.14,4.14 0 0 0 0.73,0.67 15.3,15.3 0 0 0 3.47,5.86 7.89,7.89 0 0 0 6.08,2.88 h 0.07 a 7.9,7.9 0 0 0 6.08,-2.87 15.36,15.36 0 0 0 3.48,-5.87 3.86,3.86 0 0 0 0.73,-0.68 6.67,6.67 0 0 0 1.22,-2.35 8.5,8.5 0 0 0 0.41,-2.52 5.72,5.72 0 0 0 0,-0.58 v 0 0 a 3.89,3.89 0 0 0 -0.87,-2.14 3.12,3.12 0 0 0 -0.46,-0.43 c 0,-0.06 0,-0.13 0,-0.2 0.62,-3.42 -0.21,-9.8 -7.25,-12 a 10.91,10.91 0 0 0 -3.28,-0.53 9.65,9.65 0 0 0 -6.91,2.94 4.25,4.25 0 0 0 -3.08,1.74 c -0.81,1.07 -1.95,3.52 -0.83,8.15 a 2.5,2.5 0 0 0 -0.33,0.32 3.83,3.83 0 0 0 -0.87,2.13 v 0 a 3.91,3.91 0 0 0 0,0.61 9.13,9.13 0 0 0 0.72,3.35 6.27,6.27 0 0 0 0.89,1.52 z M 38,140 a 2.23,2.23 0 0 1 1.89,-1 1,1 0 0 0 0.84,-0.37 7.57,7.57 0 0 1 5.7,-2.57 9,9 0 0 1 2.7,0.44 8.39,8.39 0 0 1 5.9,9.77 c -0.05,0.28 -0.11,0.55 -0.17,0.81 a 1.1,1.1 0 0 0 0,0.26 c -1.95,0.28 -6,-1.77 -8.51,-5.59 a 3.21,3.21 0 0 0 -2.51,-1.66 c -2.09,-0.1 -4,2.2 -4.06,2.33 A 17.75,17.75 0 0 0 37.59,147 c -1.11,-4.17 -0.25,-6.16 0.41,-7 z m -1.65,9.65 v 0 a 2.06,2.06 0 0 1 0.32,-0.94 q 0,0.32 0.09,0.54 c 0.14,0.85 0.17,1.08 0.54,1.08 v 0 c 0.36,0 0.41,-0.3 0.5,-0.76 a 17.23,17.23 0 0 1 2.59,-6.64 c 0,0 1.72,-2.09 3.39,-2 a 2.44,2.44 0 0 1 1.89,1.3 c 2.64,4.06 7.11,6.39 9.48,5.9 l -0.27,1.29 a 0.38,0.38 0 0 0 0.3,0.46 0.4,0.4 0 0 0 0.47,-0.3 l 0.21,-1 v 0 a 1.88,1.88 0 0 1 0.4,1.07 v 0 c 0,0.13 0,0.26 0,0.39 A 6.54,6.54 0 0 1 56,152 a 4.88,4.88 0 0 1 -0.85,1.68 1.72,1.72 0 0 1 -0.52,0.44 1,1 0 0 0 -0.5,0.62 13.18,13.18 0 0 1 -3.13,5.41 5.84,5.84 0 0 1 -4.64,2.24 h -0.07 a 5.85,5.85 0 0 1 -4.64,-2.25 13.31,13.31 0 0 1 -3.13,-5.41 1,1 0 0 0 -0.5,-0.62 1.82,1.82 0 0 1 -0.51,-0.44 4.09,4.09 0 0 1 -0.62,-1 7,7 0 0 1 -0.56,-2.57 c -0.04,-0.18 -0.03,-0.3 -0.02,-0.42 z"
           id="path9985-1-5" />
        <path
           style="fill:#404041"
           class="cls-6"
           d="m 43,158.2 a 7.2,7.2 0 0 0 3.27,0.82 7.64,7.64 0 0 0 3.35,-0.82 0.4,0.4 0 0 0 -0.35,-0.71 6.3,6.3 0 0 1 -5.92,0 0.3913119,0.3913119 0 1 0 -0.35,0.7 z"
           id="path9987-9-7" />
        <ellipse
           style="fill:#404041"
           class="cls-6"
           cx="41.869999"
           cy="150.42999"
           rx="1.1799999"
           ry="1.5700001"
           id="ellipse9989-1" />
        <ellipse
           style="fill:#404041"
           class="cls-6"
           cx="50.349998"
           cy="150.42999"
           rx="1.1799999"
           ry="1.5700001"
           id="ellipse9991-6" />
        <path
           style="fill:#404041"
           class="cls-6"
           d="m 45.44,155.46 h 0.21 a 0.91,0.91 0 0 0 0.51,-0.16 0.4,0.4 0 0 0 0.1,-0.55 0.41,0.41 0 0 0 -0.55,-0.1 c 0,0 -0.08,0 -0.11,0 a 0.39,0.39 0 0 1 -0.24,-0.18 1.32,1.32 0 0 1 -0.08,-0.79 6.06,6.06 0 0 1 0.57,-2 0.4,0.4 0 0 0 -0.19,-0.53 0.39,0.39 0 0 0 -0.52,0.19 6.77,6.77 0 0 0 -0.64,2.21 2,2 0 0 0 0.19,1.29 1.14,1.14 0 0 0 0.75,0.62 z"
           id="path9993-9" />
        <rect
           style="fill:#404041"
           class="cls-6"
           x="41.049999"
           y="147.37"
           width="0.73000002"
           height="3.24"
           transform="rotate(-67.08,41.406638,148.98331)"
           id="rect9995-8" />
        <rect
           style="fill:#404041"
           class="cls-6"
           x="49.189999"
           y="148.63"
           width="3.24"
           height="0.73000002"
           transform="rotate(-22.91,50.824844,149.01482)"
           id="rect9997-1" />
        <path
           style="fill:none"
           class="cls-7"
           d="m 35,166.36 2.88,2 a 0.35,0.35 0 0 1 0.16,0.26 0.41,0.41 0 0 1 -0.07,0.3 l -2.19,2.84 9.43,10.24 -6.89,-16.7 z"
           id="path9999-4-3" />
        <polygon
           style="fill:none"
           class="cls-7"
           points="44.63,176.48 45.45,172.82 44.33,171.46 45.67,169.84 40.51,166.5 "
           id="polygon10001-3" />
        <path
           style="fill:none"
           class="cls-7"
           d="m 34.92,171.56 2.14,-2.79 -3,-2.11 -4.45,1.4 a 3,3 0 0 0 -1.95,2 l -3.92,12.65 h 4.94 v -6.13 a 0.4,0.4 0 0 1 0.39,-0.4 0.39,0.39 0 0 1 0.39,0.4 v 6.13 h 15.4 L 35,172.06 a 0.39,0.39 0 0 1 -0.08,-0.5 z"
           id="path10003-3" />
        <polygon
           style="fill:none"
           class="cls-7"
           points="52.07,166.5 46.91,169.84 48.25,171.46 47.13,172.82 47.95,176.48 "
           id="polygon10005-7" />
        <path
           style="fill:none"
           class="cls-7"
           d="m 54.53,168.93 a 0.38,0.38 0 0 1 -0.08,-0.3 0.42,0.42 0 0 1 0.16,-0.26 l 2.92,-2 -3.27,-1 -6.8,16.48 9.25,-10 z"
           id="path10007-7-9" />
        <path
           style="fill:#404041"
           class="cls-6"
           d="M 57.8,182.75 H 47.63 l 9.89,-10.69 a 0.41,0.41 0 0 0 0,-0.5 l -2.14,-2.79 3.07,-2.14 4.55,1.43 a 3,3 0 0 1 2,2.07 l 0.07,0.23 0.33,-0.55 a 4.81,4.81 0 0 1 1,-1.27 4.91,4.91 0 0 0 -2.82,-2.35 l -9.41,-3 a 1,1 0 0 0 -0.83,0.11 l -7.06,4.58 -7.07,-4.58 a 1,1 0 0 0 -0.82,-0.11 l -9.41,3 a 4.9,4.9 0 0 0 -3.24,3.36 l -4.31,13.89 a 1,1 0 0 0 0.15,0.87 1,1 0 0 0 0.79,0.4 H 56.71 A 4.48,4.48 0 0 1 57,184.13 Z m -28.37,0 v -6.13 a 0.39,0.39 0 0 0 -0.39,-0.4 0.4,0.4 0 0 0 -0.39,0.4 v 6.13 h -4.94 l 3.92,-12.65 a 3,3 0 0 1 1.95,-2 l 4.45,-1.4 3,2.11 -2.14,2.79 a 0.39,0.39 0 0 0 0,0.5 l 9.88,10.69 z m 6.32,-11 2.19,-2.84 a 0.41,0.41 0 0 0 0.07,-0.3 0.35,0.35 0 0 0 -0.16,-0.26 l -2.88,-2 3.35,-1.06 6.89,16.71 z m 9.7,1 -0.82,3.66 -4.12,-10 5.16,3.34 -1.34,1.62 z m 1.46,-3 5.16,-3.34 -4.12,10 -0.82,-3.66 1.12,-1.36 z m 7.35,-4.54 3.27,1 -2.92,2 a 0.42,0.42 0 0 0 -0.16,0.26 0.38,0.38 0 0 0 0.08,0.3 l 2.18,2.84 -9.25,10 z"
           id="path10009-8-8" />
        <path
           style="fill:#404041"
           class="cls-6"
           d="M 78.14,189.6 H 61.42 a 2.9,2.9 0 0 1 -2.54,-1.47 2.85,2.85 0 0 1 0,-2.89 l 8.36,-14.33 a 2.93,2.93 0 0 1 5.06,0 l 8.36,14.33 a 2.85,2.85 0 0 1 0,2.89 2.89,2.89 0 0 1 -2.52,1.47 z m -8.36,-18.31 a 1.1,1.1 0 0 0 -1,0.54 l -8.36,14.33 a 1,1 0 0 0 0,1.06 1.08,1.08 0 0 0 1,0.55 h 16.72 a 1.08,1.08 0 0 0 1,-0.55 1,1 0 0 0 0,-1.06 l -8.36,-14.33 a 1.09,1.09 0 0 0 -1,-0.54 z"
           id="path10011-4-6" />
        <path
           style="fill:#404041"
           class="cls-6"
           d="m 71.52,185 a 1.74,1.74 0 1 1 -1.74,-1.73 1.73,1.73 0 0 1 1.74,1.73 z"
           id="path10013-7" />
        <path
           style="fill:#404041"
           class="cls-6"
           d="m 70.74,181.31 a 1,1 0 1 1 -1.92,0 l -0.48,-4.17 a 1.46,1.46 0 1 1 2.89,0 z"
           id="path10015-5-0" />
        <path
           style="fill:#404041"
           class="cls-6"
           d="m 43,559.47 a 7.21,7.21 0 0 0 3.27,0.83 7.66,7.66 0 0 0 3.35,-0.83 0.4,0.4 0 0 0 0.18,-0.52 0.39,0.39 0 0 0 -0.53,-0.18 6.27,6.27 0 0 1 -5.92,0 0.3913119,0.3913119 0 1 0 -0.35,0.7 z"
           id="path10017-0-4" />
        <ellipse
           style="fill:#404041"
           class="cls-6"
           cx="41.869999"
           cy="551.71002"
           rx="1.1799999"
           ry="1.5700001"
           id="ellipse10019-8" />
        <ellipse
           style="fill:#404041"
           class="cls-6"
           cx="50.349998"
           cy="551.71002"
           rx="1.1799999"
           ry="1.5700001"
           id="ellipse10021-4" />
        <path
           style="fill:#404041"
           class="cls-6"
           d="m 45.44,556.74 h 0.21 a 0.84,0.84 0 0 0 0.51,-0.16 0.39,0.39 0 0 0 0.1,-0.54 0.4,0.4 0 0 0 -0.55,-0.1 0.14,0.14 0 0 1 -0.11,0 0.41,0.41 0 0 1 -0.24,-0.17 1.35,1.35 0 0 1 -0.08,-0.8 6.13,6.13 0 0 1 0.57,-2 0.39,0.39 0 0 0 -0.19,-0.52 0.39,0.39 0 0 0 -0.52,0.18 6.85,6.85 0 0 0 -0.64,2.21 2,2 0 0 0 0.19,1.29 1.19,1.19 0 0 0 0.75,0.61 z"
           id="path10023-8" />
        <rect
           style="fill:#404041"
           class="cls-6"
           x="41.049999"
           y="548.65002"
           width="0.73000002"
           height="3.24"
           transform="rotate(-67.08,41.398426,550.23751)"
           id="rect10025-1" />
        <rect
           style="fill:#404041"
           class="cls-6"
           x="49.189999"
           y="549.90002"
           width="3.24"
           height="0.73000002"
           transform="rotate(-22.91,50.835787,550.31714)"
           id="rect10027-6" />
        <path
           style="fill:#404041"
           class="cls-6"
           d="m 29.43,584 v -6.13 a 0.38,0.38 0 0 0 -0.39,-0.39 0.39,0.39 0 0 0 -0.39,0.39 V 584 h -4.94 l 3.92,-12.64 a 2.94,2.94 0 0 1 1.95,-2 l 8.74,-2.77 2.19,1.2 5.16,3.34 h 1.24 l 5.16,-3.34 2.19,-1.2 8.74,2.75 a 3,3 0 0 1 2,2.06 l 0.07,0.24 0.33,-0.56 a 5,5 0 0 1 1,-1.27 4.89,4.89 0 0 0 -2.82,-2.34 l -9.41,-3 a 1,1 0 0 0 -0.83,0.11 l -7.06,4.58 -7.07,-4.58 a 1,1 0 0 0 -0.82,-0.11 l -9.41,3 a 4.89,4.89 0 0 0 -3.24,3.35 l -4.31,13.89 a 1,1 0 0 0 0.15,0.88 1,1 0 0 0 0.79,0.39 H 56.71 A 5.1,5.1 0 0 1 57,585.41 l 0.8,-1.39 z"
           id="path10029-3-8" />
        <path
           style="fill:#404041"
           class="cls-6"
           d="M 78.14,590.87 H 61.42 a 2.91,2.91 0 0 1 -2.54,-1.46 2.87,2.87 0 0 1 0,-2.9 l 8.36,-14.32 a 2.93,2.93 0 0 1 5.06,0 l 8.36,14.32 a 2.87,2.87 0 0 1 0,2.9 2.9,2.9 0 0 1 -2.52,1.46 z m -8.36,-18.3 a 1.08,1.08 0 0 0 -1,0.54 l -8.36,14.33 a 1,1 0 0 0 0,1 1.06,1.06 0 0 0 1,0.55 h 16.72 a 1.06,1.06 0 0 0 1,-0.55 1,1 0 0 0 0,-1 l -8.36,-14.33 a 1.07,1.07 0 0 0 -1,-0.54 z"
           id="path10031-6-5" />
        <path
           style="fill:#404041"
           class="cls-6"
           d="m 71.52,586.24 a 1.74,1.74 0 1 1 -1.74,-1.72 1.73,1.73 0 0 1 1.74,1.72 z"
           id="path10033-2" />
        <path
           style="fill:#404041"
           class="cls-6"
           d="m 70.74,582.59 a 1,1 0 1 1 -1.92,0 l -0.48,-4.17 a 1.46,1.46 0 1 1 2.89,0 z"
           id="path10035-1-1" />
        <rect
           style="fill:#404041"
           class="cls-6"
           x="40.990002"
           y="567.34003"
           width="0.69"
           height="11.43"
           id="rect10037-9" />
        <rect
           style="fill:#404041"
           class="cls-6"
           x="40.450001"
           y="576.26001"
           width="1.73"
           height="1.73"
           rx="0.87"
           id="rect10039-9" />
        <rect
           style="fill:#404041"
           class="cls-6"
           x="50.799999"
           y="567.34003"
           width="0.69"
           height="11.43"
           id="rect10041-6" />
        <rect
           style="fill:#404041"
           class="cls-6"
           x="50.27"
           y="576.26001"
           width="1.73"
           height="1.73"
           rx="0.87"
           id="rect10043-0" />
        <path
           style="fill:none"
           class="cls-7"
           d="m 37.93,547.23 c -0.17,0.12 -0.34,0.24 -0.5,0.37 0,0.2 0.1,0.41 0.16,0.63 0.1,-0.31 0.21,-0.65 0.34,-1 z"
           id="path10045-0-6" />
        <path
           style="fill:#404041"
           class="cls-6"
           d="m 55,547.25 c 0,0.12 0,0.25 0,0.36 -0.05,0.28 -0.11,0.54 -0.17,0.8 a 1.14,1.14 0 0 0 0,0.26 c -1.52,0.22 -4.34,-1 -6.69,-3.34 h -1.11 c 2.63,2.94 6.11,4.54 8.11,4.12 l -0.27,1.29 a 0.4,0.4 0 0 0 0.3,0.47 0.41,0.41 0 0 0 0.47,-0.31 l 0.21,-1 v 0 a 1.85,1.85 0 0 1 0.4,1.06 v 0 0 c 0,0.12 0,0.25 0,0.38 a 6.61,6.61 0 0 1 -0.32,1.94 5,5 0 0 1 -0.85,1.68 1.67,1.67 0 0 1 -0.52,0.43 1,1 0 0 0 -0.5,0.62 13.12,13.12 0 0 1 -3.06,5.41 5.84,5.84 0 0 1 -4.64,2.24 h -0.07 a 5.87,5.87 0 0 1 -4.64,-2.24 13.34,13.34 0 0 1 -3.17,-5.42 1,1 0 0 0 -0.5,-0.62 1.94,1.94 0 0 1 -0.51,-0.43 4.09,4.09 0 0 1 -0.62,-1 7.1,7.1 0 0 1 -0.56,-2.58 c 0,-0.13 0,-0.26 0,-0.37 v 0 a 2,2 0 0 1 0.32,-0.94 q 0,0.3 0.09,0.54 c 0.14,0.84 0.17,1.07 0.54,1.08 v 0 c 0.36,0 0.41,-0.31 0.5,-0.76 a 17.53,17.53 0 0 1 1.26,-4.3 9.69,9.69 0 0 0 -1.11,0.61 c -0.13,0.35 -0.24,0.69 -0.34,1 -0.06,-0.22 -0.11,-0.43 -0.16,-0.63 a 7.22,7.22 0 0 0 -2.67,6.28 6.9,6.9 0 0 0 0.29,0.8 6.27,6.27 0 0 0 0.92,1.53 3.79,3.79 0 0 0 0.73,0.67 15.41,15.41 0 0 0 3.47,5.87 7.89,7.89 0 0 0 6.08,2.87 h 0.07 a 7.87,7.87 0 0 0 6.08,-2.87 15.2,15.2 0 0 0 3.48,-5.87 3.79,3.79 0 0 0 0.73,-0.67 6.85,6.85 0 0 0 1.22,-2.35 7.83,7.83 0 0 0 0.25,-1 6.89,6.89 0 0 0 -3.04,-5.61 z"
           id="path10047-6-4" />
        <path
           style="fill:#404041"
           class="cls-6"
           d="m 58.31,567.69 -6.31,-1.45 0.88,-1.3 c 1.75,-2.59 5.76,-10.29 3.38,-14.78 -1.34,-2.52 -4.62,-3.8 -9.74,-3.8 -5.12,0 -8.62,1.31 -10,3.87 -2.77,5.22 3,14.08 3.09,14.17 l 0.77,1.13 -5.58,2.06 -0.49,-0.57 c -3.21,-3.76 -6.65,-15.7 -1.47,-24.14 0.38,-0.63 0.8,-1.44 1.28,-2.38 2.19,-4.17 5.43,-10.5 11.38,-10.5 h 0.43 c 7.81,0 11.87,6.83 14.3,10.91 l 0.09,0.15 c 4.53,7.6 1.51,19.62 -1.63,25.84 z m -2.81,-2.86 1.63,0.38 c 2.69,-5.8 5.23,-16.5 1.34,-23 l -0.08,-0.15 C 56.05,538.14 52.51,532.2 45.93,532.2 H 45.5 c -4.64,0 -7.41,5.38 -9.43,9.3 -0.48,0.94 -0.93,1.82 -1.36,2.52 -4.47,7.29 -1.63,17.42 0.84,21 l 1.61,-0.6 c -1.61,-2.8 -5.22,-10.09 -2.49,-15.22 1.76,-3.32 5.76,-5 11.88,-5 6.12,0 9.9,1.67 11.64,4.94 2.81,5.23 -0.94,12.69 -2.69,15.69 z"
           id="path10049-3-9" />
        <rect
           style="fill:#2e73af"
           class="cls-4"
           x="360.39001"
           y="333.39001"
           width="108.29"
           height="25"
           id="rect10051-9" />
        <rect
           style="fill:#4c8ecb"
           class="cls-3"
           x="360.39001"
           y="364.39001"
           width="108.29"
           height="25"
           id="rect10053-0" />
        <polygon
           style="fill:#59595c"
           class="cls-8"
           points="254.79,306.7 254.79,416.98 361.63,416.98 402,361.84 361.63,306.7 "
           id="polygon10055-8" />
        <path
           style="fill:#4c8ecb"
           class="cls-3"
           d="m 569.18,358.39 h 293 l -60,-45 v 20 H 599.49 a 188.41,188.41 0 0 1 -30.31,25 z"
           id="path10057-2-9" />
        <path
           style="fill:#2e73af"
           class="cls-4"
           d="m 557,364.39 a 185.88,185.88 0 0 1 -85.92,25 h 331.09 v 20 l 60,-45 z"
           id="path10059-3" />
        <path
           style="fill:#2e73af"
           class="cls-4"
           d="m 600,333.39 v 0 a 188.41,188.41 0 0 1 -30.31,25 v 0 a 188.41,188.41 0 0 0 30.31,-25 z"
           id="path10061-0-1" />
        <path
           style="fill:#1a4b74"
           class="cls-5"
           d="m 609,333.39 h -12 a 188.41,188.41 0 0 1 -30.31,25 h 15.51 a 188.67,188.67 0 0 0 26.8,-25 z"
           id="path10063-4" />
        <path
           style="fill:#4c8ecb"
           class="cls-3"
           d="m 340,41.71 3.4,7.83 -1.7,1.4 -7,-4.85 6,7.43 -1.41,1.16 -7.91,-9.68 2,-1.68 8,5.53 -3.88,-8.85 2,-1.65 8,9.52 -1.41,1.13 z"
           id="path10065-6-8" />
        <path
           style="fill:#4c8ecb"
           class="cls-3"
           d="M 351.05,37.76 352.7,40 c 1.29,1.76 1.2,3.43 -0.69,4.82 -1.89,1.39 -3.51,1 -4.8,-0.79 l -1.64,-2.24 c -1.29,-1.76 -1.2,-3.43 0.68,-4.82 1.88,-1.39 3.51,-0.97 4.8,0.79 z M 347,40.59 348.78,43 c 0.69,0.93 1.51,1.08 2.27,0.52 a 1.49,1.49 0 0 0 0.18,-2.32 l -1.79,-2.44 a 1.49,1.49 0 0 0 -2.26,-0.51 1.5,1.5 0 0 0 -0.18,2.34 z"
           id="path10067-9" />
        <path
           style="fill:#4c8ecb"
           class="cls-3"
           d="m 359.57,39.25 -1.95,1.32 -7.51,-6.13 1.66,-1.12 6.05,5.44 -2.7,-7.68 1.64,-1.1 z"
           id="path10069-6" />
        <path
           style="fill:#4c8ecb"
           class="cls-3"
           d="m 365.21,28.56 1.06,1.73 -4,2.47 0.5,0.81 c 0.6,1 1.29,1.13 2.37,0.46 a 15.2,15.2 0 0 0 2,-1.57 l 0.89,1.38 a 16.18,16.18 0 0 1 -2.08,1.67 c -2.2,1.35 -3.61,0.94 -4.86,-1.1 L 359.57,32 c -1.15,-1.88 -0.88,-3.49 1,-4.65 1.88,-1.16 3.43,-0.71 4.64,1.21 z m -4.21,2.25 0.45,0.73 2.45,-1.5 -0.42,-0.68 A 1.45,1.45 0 1 0 361,30.81 Z"
           id="path10071-1-7" />
        <path
           style="fill:#4c8ecb"
           class="cls-3"
           d="m 373.77,28.75 4.23,-2.26 0.8,1.51 -5.94,3.16 -5.84,-11 1.67,-0.89 z"
           id="path10073-5-7" />
        <path
           style="fill:#4c8ecb"
           class="cls-3"
           d="m 383,19 2.73,5.7 -1.59,0.77 -0.6,-1.26 a 3,3 0 0 1 -1.46,2.5 c -1.3,0.62 -2.61,0.09 -3.4,-1.56 l -0.22,-0.46 a 2.62,2.62 0 0 1 1.46,-3.69 11.7,11.7 0 0 1 1.7,-0.59 l -0.39,-0.8 c -0.42,-0.89 -1,-1 -1.87,-0.6 a 16.36,16.36 0 0 0 -2.14,1.36 l -0.71,-1.47 a 18.06,18.06 0 0 1 2.23,-1.41 C 380.78,16.5 382,16.9 383,19 Z m -2.77,5 0.08,0.17 c 0.38,0.79 0.95,1 1.47,0.78 a 2.45,2.45 0 0 0 1,-2.12 l -0.6,-1.24 a 9.24,9.24 0 0 0 -1.26,0.49 1.3,1.3 0 0 0 -0.68,1.92 z"
           id="path10075-5-3" />
        <path
           style="fill:#4c8ecb"
           class="cls-3"
           d="m 386.07,14.39 2.2,-1 0.62,1.45 -2.19,0.95 2,4.61 c 0.36,0.83 0.84,1 1.53,0.72 a 7.4,7.4 0 0 0 1.36,-0.79 l 0.67,1.45 a 7.7,7.7 0 0 1 -1.41,0.85 c -1.88,0.82 -3,0.42 -3.92,-1.59 l -1.93,-4.45 -1.17,0.51 -0.63,-1.45 1.19,-0.52 -0.7,-2.38 1.43,-0.62 z"
           id="path10077-4-7" />
        <path
           style="fill:#4c8ecb"
           class="cls-3"
           d="m 397.36,13.31 0.73,1.89 -4.41,1.72 0.35,0.88 c 0.42,1.08 1.07,1.34 2.25,0.88 a 15.1,15.1 0 0 0 2.23,-1.19 l 0.63,1.51 a 16.13,16.13 0 0 1 -2.34,1.27 c -2.41,0.94 -3.72,0.28 -4.59,-1.95 l -1,-2.62 c -0.8,-2 -0.25,-3.59 1.82,-4.4 2.07,-0.81 3.52,-0.08 4.33,2.01 z m -4.53,1.47 0.31,0.8 2.68,-1 -0.29,-0.75 a 1.4,1.4 0 0 0 -1.94,-1 1.39,1.39 0 0 0 -0.76,1.95 z"
           id="path10079-1" />
        <path
           style="fill:#4c8ecb"
           class="cls-3"
           d="m 402.58,7.89 0.68,2 a 3.73,3.73 0 0 0 -0.69,0.18 2.35,2.35 0 0 0 -1.53,1.9 l 2,5.82 -1.77,0.61 -3,-8.76 1.62,-0.64 0.46,1.31 A 3,3 0 0 1 402.17,8 1.71,1.71 0 0 1 402.58,7.89 Z"
           id="path10081-7-2" />
        <path
           style="fill:#4c8ecb"
           class="cls-3"
           d="m 410.69,8.65 1.85,6 -1.69,0.52 -0.41,-1.33 a 3,3 0 0 1 -1.81,2.25 c -1.38,0.42 -2.59,-0.3 -3.13,-2 l -0.15,-0.49 a 2.62,2.62 0 0 1 2,-3.41 11.94,11.94 0 0 1 1.76,-0.32 L 408.83,9 c -0.29,-0.94 -0.81,-1.16 -1.76,-0.87 a 16.94,16.94 0 0 0 -2.32,1 l -0.48,-1.56 a 18.68,18.68 0 0 1 2.42,-1.06 c 2.16,-0.61 3.31,-0.03 4,2.14 z m -3.49,4.57 0.05,0.18 c 0.26,0.84 0.79,1.15 1.34,1 0.55,-0.15 1.05,-0.85 1.29,-1.94 l -0.4,-1.31 a 8.78,8.78 0 0 0 -1.32,0.29 1.3,1.3 0 0 0 -0.96,1.78 z"
           id="path10083-6-2" />
        <path
           style="fill:#4c8ecb"
           class="cls-3"
           d="m 416.49,13.62 -1.81,0.5 -3.41,-12.53 1.81,-0.49 z"
           id="path10085-5-1" />
        <path
           style="fill:#4c8ecb"
           class="cls-3"
           d="M 420.54,12.59 418.72,13.04 415.58,0.46 417.4,0 Z"
           id="path10087-6-5" />
        <path
           style="fill:#4c8ecb"
           class="cls-3"
           d="m 426.3,14.88 -1.83,0.39 0.42,-3.68 -0.69,0.14 -4.46,-8.52 2,-0.43 3.42,7.34 0.57,-8.2 1.91,-0.41 z"
           id="path10089-0" />
        <path
           style="fill:#4c8ecb"
           class="cls-3"
           d="m 654.59,122.65 -0.43,0.19 c -2.26,1 -4.23,0.28 -5.47,-2.51 a 13.88,13.88 0 0 1 -0.58,-1.65 l -4.84,2.15 -0.81,-1.83 12.08,-5.36 c 0.47,0.9 1,1.93 1.55,3.18 1.34,2.97 0.63,4.88 -1.5,5.83 z m -0.75,-6.51 -4.14,1.86 a 13.5,13.5 0 0 0 0.53,1.54 q 1.08,2.42 3.2,1.47 l 0.29,-0.13 c 1.22,-0.54 1.58,-1.57 0.79,-3.35 -0.31,-0.72 -0.51,-1.04 -0.67,-1.39 z"
           id="path10091-9-9" />
        <path
           style="fill:#4c8ecb"
           class="cls-3"
           d="m 654.78,132 -2,0.77 -1.8,-4.64 -0.94,0.36 c -1.13,0.44 -1.4,1.13 -0.92,2.37 a 14.9,14.9 0 0 0 1.25,2.35 l -1.59,0.66 a 16.88,16.88 0 0 1 -1.34,-2.46 c -1,-2.54 -0.29,-3.92 2.06,-4.83 l 2.75,-1.07 c 2.17,-0.84 3.79,-0.27 4.63,1.92 0.84,2.19 0.12,3.73 -2.1,4.57 z m -1.54,-4.77 -0.84,0.33 1.09,2.82 0.78,-0.31 c 1.08,-0.42 1.39,-1.18 1.06,-2 a 1.46,1.46 0 0 0 -2.09,-0.82 z"
           id="path10093-3-0" />
        <path
           style="fill:#4c8ecb"
           class="cls-3"
           d="m 660.49,137.56 -2.07,0.7 a 3.56,3.56 0 0 0 -0.18,-0.72 2.48,2.48 0 0 0 -2,-1.62 l -6.13,2.08 -0.64,-1.87 9.23,-3.13 0.6,1.75 -1.38,0.47 a 3.24,3.24 0 0 1 2.46,1.93 2.72,2.72 0 0 1 0.11,0.41 z"
           id="path10095-7-4" />
        <path
           style="fill:#4c8ecb"
           class="cls-3"
           d="m 666.27,143.51 -1.53,0.47 a 9,9 0 0 0 -0.27,-1.24 c -0.22,-0.73 -0.8,-1.05 -1.82,-0.74 l -0.92,0.28 0.56,1.83 -1.58,0.49 -0.57,-1.84 -7.74,2.36 -0.58,-1.89 7.75,-2.36 -0.39,-1.29 1.59,-0.48 0.39,1.28 0.9,-0.27 c 2.05,-0.61 3.38,0.14 4,2 a 6,6 0 0 1 0.21,1.4 z"
           id="path10097-4-0" />
        <path
           style="fill:#4c8ecb"
           class="cls-3"
           d="m 661.23,153.3 -2.82,0.74 c -2.22,0.59 -3.82,-0.14 -4.45,-2.52 -0.63,-2.38 0.4,-3.81 2.62,-4.4 l 2.82,-0.74 c 2.23,-0.59 3.83,0.15 4.45,2.52 0.62,2.37 -0.39,3.81 -2.62,4.4 z m -1.23,-5.06 -3.06,0.81 c -1.18,0.31 -1.64,1 -1.38,2 0.26,1 1,1.38 2.2,1.07 l 3.08,-0.81 c 1.18,-0.31 1.62,-1.05 1.37,-2 -0.25,-0.95 -1.01,-1.38 -2.21,-1.07 z"
           id="path10099-1" />
        <path
           style="fill:#4c8ecb"
           class="cls-3"
           d="m 666.36,159.66 -2.13,0.47 a 3.29,3.29 0 0 0 -0.1,-0.74 2.49,2.49 0 0 0 -1.8,-1.84 L 656,159 l -0.42,-1.93 9.53,-2.11 0.39,1.8 -1.42,0.32 a 3.23,3.23 0 0 1 2.22,2.19 2.07,2.07 0 0 1 0.06,0.39 z"
           id="path10101-5-3" />
        <path
           style="fill:#4c8ecb"
           class="cls-3"
           d="m 665.49,173.87 -6.55,1.13 -0.32,-2 6.31,-1 c 1.29,-0.21 1.67,-0.7 1.56,-1.37 a 2.57,2.57 0 0 0 -1.74,-1.66 l -6.63,1.1 -0.32,-1.95 6.31,-1.05 c 1.28,-0.22 1.67,-0.71 1.56,-1.36 a 2.5,2.5 0 0 0 -1.73,-1.65 l -6.63,1.1 -0.33,-2 9.63,-1.61 0.3,1.82 -1.4,0.23 a 3.14,3.14 0 0 1 2.06,2.26 2.3,2.3 0 0 1 -1.35,2.61 3.13,3.13 0 0 1 2.17,2.32 c 0.26,1.61 -0.73,2.72 -2.9,3.08 z"
           id="path10103-2-7" />
        <path
           style="fill:#4c8ecb"
           class="cls-3"
           d="m 670,188.13 h -0.48 a 3.37,3.37 0 0 1 -3.48,-2.08 l -5.69,3.81 -0.18,-2.22 5.23,-3.48 a 11.09,11.09 0 0 1 -0.12,-1.92 l -5.52,0.46 -0.17,-2 13.19,-1.1 c 0.14,1.13 0.31,2.48 0.4,3.54 0.26,3.34 -1.02,4.86 -3.18,4.99 z m 1.27,-6.35 -4.3,0.36 c 0,0.74 0,1.1 0,1.58 0.16,1.85 1,2.56 2.35,2.45 h 0.36 c 1.28,-0.1 1.89,-0.94 1.73,-2.83 0.01,-0.41 -0.07,-1.08 -0.15,-1.56 z"
           id="path10105-5-4" />
        <path
           style="fill:#4c8ecb"
           class="cls-3"
           d="m 667,197.52 -2.13,0.08 -0.18,-5 h -1 c -1.22,0 -1.7,0.6 -1.65,1.94 a 16.13,16.13 0 0 0 0.41,2.62 l -1.72,0.1 a 16,16 0 0 1 -0.45,-2.76 c -0.1,-2.72 1,-3.8 3.52,-3.89 l 3,-0.1 c 2.32,-0.08 3.66,1 3.74,3.33 0.08,2.33 -1.21,3.6 -3.54,3.68 z m 0.11,-5 h -0.9 l 0.11,3 h 0.84 c 1.15,0 1.69,-0.66 1.66,-1.58 a 1.45,1.45 0 0 0 -1.74,-1.42 z"
           id="path10107-4-1" />
        <path
           style="fill:#4c8ecb"
           class="cls-3"
           d="m 670.29,205.37 -1.76,-0.07 a 9,9 0 0 0 0.29,-2 c 0,-1.24 -0.61,-1.83 -1.85,-1.85 l -2.94,-0.05 c -1.32,0 -1.92,0.65 -1.93,1.79 a 9,9 0 0 0 0.22,2 h -1.76 a 10.59,10.59 0 0 1 -0.22,-2.14 c 0,-2.46 1.32,-3.64 3.74,-3.6 h 2.88 c 2.36,0 3.66,1.22 3.62,3.74 a 9.67,9.67 0 0 1 -0.29,2.18 z"
           id="path10109-1" />
        <path
           style="fill:#4c8ecb"
           class="cls-3"
           d="m 666.53,214.46 -2.92,-0.14 c -2.3,-0.11 -3.6,-1.29 -3.48,-3.75 0.12,-2.46 1.53,-3.51 3.82,-3.4 l 2.92,0.14 c 2.3,0.11 3.6,1.3 3.48,3.75 -0.12,2.45 -1.53,3.51 -3.82,3.4 z m 0.37,-5.18 -3.16,-0.16 c -1.22,-0.05 -1.89,0.51 -1.94,1.51 -0.05,1 0.57,1.63 1.79,1.69 l 3.17,0.15 c 1.22,0.06 1.87,-0.51 1.92,-1.51 0.05,-1 -0.57,-1.63 -1.78,-1.68 z"
           id="path10111-7-3" />
        <path
           style="fill:#4c8ecb"
           class="cls-3"
           d="m 666,223.93 -6.61,-0.63 0.19,-2 6.37,0.61 c 1.27,0.12 1.79,-0.27 1.86,-0.95 a 2.53,2.53 0 0 0 -1.25,-2.09 l -6.69,-0.64 0.19,-2 9.72,0.93 -0.18,1.83 -1.41,-0.13 a 3.12,3.12 0 0 1 1.4,2.74 c -0.18,1.72 -1.42,2.54 -3.59,2.33 z"
           id="path10113-4-0" />
        <path
           style="fill:#4c8ecb"
           class="cls-3"
           d="m 664.65,233.54 -6.57,-0.95 0.29,-2 6.33,0.92 c 1.27,0.18 1.8,-0.19 1.9,-0.86 a 2.55,2.55 0 0 0 -1.14,-2.15 l -6.65,-1 0.28,-2 9.66,1.4 -0.27,1.82 -1.4,-0.2 a 3.15,3.15 0 0 1 1.27,2.81 c -0.24,1.76 -1.52,2.53 -3.7,2.21 z"
           id="path10115-3" />
        <path
           style="fill:#4c8ecb"
           class="cls-3"
           d="m 663,242.47 -6.54,-1.26 0.35,-1.83 1.44,0.28 a 3.2,3.2 0 0 1 -1.2,-2.8 c 0.29,-1.49 1.56,-2.27 3.45,-1.9 l 0.53,0.1 a 2.76,2.76 0 0 1 2.19,3.52 13.32,13.32 0 0 1 -0.57,1.8 l 0.92,0.18 c 1,0.2 1.48,-0.18 1.68,-1.2 a 18.09,18.09 0 0 0 0.19,-2.68 l 1.69,0.33 a 19.82,19.82 0 0 1 -0.21,2.77 c -0.44,2.34 -1.55,3.14 -3.92,2.69 z m -2.53,-5.5 h -0.19 c -0.91,-0.17 -1.46,0.17 -1.57,0.76 -0.11,0.59 0.28,1.4 1.17,2.16 l 1.41,0.27 a 9.8,9.8 0 0 0 0.39,-1.37 1.37,1.37 0 0 0 -1.2,-1.79 z"
           id="path10117-4-2" />
        <path
           style="fill:#4c8ecb"
           class="cls-3"
           d="m 655.52,245.37 0.44,-1.93 9.52,2.17 -0.44,1.93 z m 12.48,3.08 -0.55,-0.12 c -0.62,-0.14 -0.89,-0.66 -0.72,-1.44 0.17,-0.78 0.64,-1.1 1.27,-1 l 0.54,0.13 c 0.67,0.15 0.92,0.65 0.75,1.42 -0.17,0.77 -0.64,1.16 -1.29,1.01 z"
           id="path10119-1" />
        <path
           style="fill:#4c8ecb"
           class="cls-3"
           d="m 663.15,255 -1.65,-0.47 a 8.85,8.85 0 0 0 0.75,-1.83 c 0.29,-1.14 0,-1.67 -0.56,-1.82 h -0.14 c -0.42,-0.11 -0.67,0 -1.06,0.51 l -1.3,1.58 a 2.58,2.58 0 0 1 -2.76,1.06 l -0.4,-0.1 c -1.78,-0.49 -2.48,-1.68 -1.86,-4.06 a 11.2,11.2 0 0 1 1.07,-2.45 l 1.71,0.53 a 9.51,9.51 0 0 0 -1.07,2.34 c -0.3,1.14 -0.09,1.55 0.58,1.72 h 0.16 a 1,1 0 0 0 1.22,-0.42 l 1.25,-1.6 a 2.5,2.5 0 0 1 2.71,-1.11 l 0.27,0.07 c 1.77,0.51 2.46,1.72 1.85,4.06 a 9.65,9.65 0 0 1 -0.77,1.99 z"
           id="path10121-3-7" />
        <path
           style="fill:#4c8ecb"
           class="cls-3"
           d="m 657.57,262.94 -6.37,-1.94 0.54,-1.78 1.4,0.43 a 3.2,3.2 0 0 1 -0.89,-2.91 c 0.44,-1.45 1.79,-2.08 3.62,-1.52 l 0.52,0.16 a 2.76,2.76 0 0 1 1.81,3.73 12.85,12.85 0 0 1 -0.76,1.73 l 0.9,0.27 c 1,0.31 1.49,0 1.79,-1 a 17,17 0 0 0 0.47,-2.63 l 1.65,0.5 a 19.81,19.81 0 0 1 -0.5,2.73 c -0.7,2.29 -1.89,2.93 -4.18,2.23 z m -1.93,-5.73 -0.19,-0.06 c -0.88,-0.27 -1.47,0 -1.64,0.58 a 2.55,2.55 0 0 0 0.93,2.27 l 1.38,0.42 a 9.31,9.31 0 0 0 0.53,-1.32 1.37,1.37 0 0 0 -1.01,-1.89 z"
           id="path10123-5" />
        <path
           style="fill:#4c8ecb"
           class="cls-3"
           d="m 654.38,272 -6.25,-2.23 0.66,-1.86 6,2.15 c 1.2,0.43 1.8,0.18 2,-0.46 a 2.52,2.52 0 0 0 -0.69,-2.33 l -6.27,-2.27 0.67,-1.87 9.18,3.29 -0.61,1.73 -1.34,-0.48 a 3.17,3.17 0 0 1 0.69,3 c -0.56,1.57 -1.97,2.06 -4.04,1.33 z"
           id="path10125-6" />
        <path
           style="fill:#4c8ecb"
           class="cls-3"
           d="m 654.17,280.83 -1.62,-0.7 a 8.65,8.65 0 0 0 1,-1.71 1.63,1.63 0 0 0 -1,-2.4 l -2.72,-1.11 a 1.65,1.65 0 0 0 -2.45,1 8.24,8.24 0 0 0 -0.5,1.91 l -1.65,-0.63 a 11.43,11.43 0 0 1 0.57,-2.08 c 0.93,-2.27 2.55,-2.91 4.79,-2 l 2.67,1.09 c 2.19,0.89 3,2.47 2,4.8 a 9.69,9.69 0 0 1 -1.09,1.83 z"
           id="path10127-0-5" />
        <path
           style="fill:#4c8ecb"
           class="cls-3"
           d="m 647.36,287.73 -1.94,-0.89 2.07,-4.53 -0.91,-0.42 c -1.11,-0.51 -1.79,-0.22 -2.34,1 a 15.83,15.83 0 0 0 -0.81,2.54 l -1.58,-0.68 a 16.33,16.33 0 0 1 0.83,-2.68 c 1.13,-2.47 2.6,-2.94 4.89,-1.89 l 2.69,1.23 c 2.11,1 2.83,2.53 1.85,4.65 -0.98,2.12 -2.6,2.65 -4.75,1.67 z m 2.34,-4.43 -0.82,-0.38 -1.25,2.75 0.76,0.35 a 1.48,1.48 0 0 0 2.2,-0.67 1.46,1.46 0 0 0 -0.89,-2.05 z"
           id="path10129-7-4" />
        <path
           style="fill:#59595c"
           class="cls-8"
           d="m 661.94,318.79 v 3 c 0,3.08 -1.64,4.85 -4.9,4.85 -1.24,0 -2.26,0 -3.42,-0.11 v -12.7 c 0.91,0 2.13,-0.09 3.55,-0.09 3.06,0.04 4.77,1.83 4.77,5.05 z m -6.42,-3.32 v 9.46 c 0.64,0.06 1.14,0.1 1.56,0.1 A 2.74,2.74 0 0 0 660,322 v -3.29 c 0,-2.18 -1.1,-3.25 -2.94,-3.25 -0.52,-0.03 -1.06,-0.01 -1.54,0.01 z"
           id="path10131-8-2" />
        <path
           style="fill:#59595c"
           class="cls-8"
           d="m 666.31,314.25 v 0.54 c 0,0.6 -0.42,1 -1.18,1 -0.76,0 -1.16,-0.37 -1.16,-1 v -0.54 c 0,-0.64 0.42,-1 1.16,-1 0.74,0 1.18,0.36 1.18,1 z m -0.23,12.2 h -1.88 v -9.27 h 1.88 z"
           id="path10133-6-2" />
        <path
           style="fill:#59595c"
           class="cls-8"
           d="m 673.22,317.18 v 1.63 a 8.16,8.16 0 0 0 -1.86,-0.24 c -1.12,0 -1.54,0.36 -1.54,0.95 v 0.13 c 0,0.42 0.19,0.61 0.72,0.85 l 1.77,0.82 a 2.44,2.44 0 0 1 1.63,2.28 v 0.4 c 0,1.75 -0.95,2.68 -3.29,2.68 a 10.2,10.2 0 0 1 -2.5,-0.4 l 0.07,-1.69 a 9.4,9.4 0 0 0 2.41,0.42 c 1.12,0 1.45,-0.29 1.45,-0.95 v -0.15 a 1,1 0 0 0 -0.69,-1 l -1.76,-0.76 a 2.37,2.37 0 0 1 -1.67,-2.22 v -0.27 c 0,-1.75 1,-2.68 3.28,-2.68 a 9.3,9.3 0 0 1 1.98,0.2 z"
           id="path10135-1" />
        <path
           style="fill:#59595c"
           class="cls-8"
           d="m 680.35,317 v 2.07 a 3.31,3.31 0 0 0 -0.7,-0.06 2.34,2.34 0 0 0 -2.07,1.3 v 6.15 h -1.88 v -9.27 h 1.74 v 1.39 a 3.09,3.09 0 0 1 2.49,-1.62 2.12,2.12 0 0 1 0.42,0.04 z"
           id="path10137-7" />
        <path
           style="fill:#59595c"
           class="cls-8"
           d="m 688.43,326.45 h -1.75 v -1.29 a 3,3 0 0 1 -2.41,1.52 c -1.47,0 -2.42,-1 -2.42,-3.19 v -6.31 h 1.88 v 6 c 0,1.24 0.4,1.73 1,1.73 a 2.35,2.35 0 0 0 1.8,-1.35 v -6.4 h 1.89 z"
           id="path10139-2" />
        <path
           style="fill:#59595c"
           class="cls-8"
           d="m 697.47,320.18 v 3.27 c 0,2.07 -1.1,3.23 -2.79,3.23 a 4.34,4.34 0 0 1 -2,-0.65 V 330 h -1.88 v -12.82 h 1.75 v 1.29 A 3,3 0 0 1 695,317 c 1.52,0 2.47,1 2.47,3.18 z m -4.81,-0.19 v 4.41 a 2.83,2.83 0 0 0 1.56,0.61 c 0.91,0 1.35,-0.57 1.35,-1.77 v -2.85 c 0,-1.27 -0.44,-1.75 -1.06,-1.75 a 2.37,2.37 0 0 0 -1.85,1.36 z"
           id="path10141-4" />
        <path
           style="fill:#59595c"
           class="cls-8"
           d="m 701.92,317.18 h 2.39 v 1.58 h -2.39 v 5 c 0,0.91 0.36,1.27 1.12,1.27 a 7.77,7.77 0 0 0 1.55,-0.18 v 1.59 a 7.17,7.17 0 0 1 -1.63,0.23 c -2,0 -3,-0.84 -3,-3 v -4.9 h -1.28 v -1.58 h 1.29 l 0.31,-2.47 h 1.56 z"
           id="path10143-1" />
        <path
           style="fill:#59595c"
           class="cls-8"
           d="m 717.15,316.84 v 0.38 a 2.78,2.78 0 0 1 -1.8,2.75 2.75,2.75 0 0 1 2.3,2.83 v 0.4 c 0,2 -1.37,3.48 -4.54,3.48 -1.13,0 -1.73,0 -3.54,-0.11 v -12.7 c 0.91,0 2.19,-0.09 3.42,-0.09 2.78,0 4.16,1.27 4.16,3.06 z m -5.68,-1.37 v 3.88 h 1.65 c 1.41,0 2.11,-0.71 2.11,-1.9 v -0.31 c 0,-1.1 -0.68,-1.73 -2.45,-1.73 -0.41,0 -0.78,0.02 -1.31,0.06 z m 0,5.45 v 4 a 11.09,11.09 0 0 0 1.65,0.1 c 1.87,0 2.63,-0.76 2.63,-1.92 v -0.38 c 0,-1.14 -0.76,-1.79 -2.51,-1.79 z"
           id="path10145-6" />
        <path
           style="fill:#59595c"
           class="cls-8"
           d="m 726,326.45 h -1.75 v -1.29 a 3,3 0 0 1 -2.41,1.52 c -1.46,0 -2.41,-1 -2.41,-3.19 v -6.31 h 1.88 v 6 c 0,1.24 0.4,1.73 1,1.73 a 2.38,2.38 0 0 0 1.81,-1.35 v -6.4 H 726 Z"
           id="path10147-5" />
        <path
           style="fill:#59595c"
           class="cls-8"
           d="m 733.11,317.18 v 1.63 a 8,8 0 0 0 -1.86,-0.24 c -1.12,0 -1.54,0.36 -1.54,0.95 v 0.13 c 0,0.42 0.2,0.61 0.73,0.85 l 1.76,0.82 a 2.44,2.44 0 0 1 1.64,2.28 v 0.4 c 0,1.75 -0.95,2.68 -3.29,2.68 a 10.34,10.34 0 0 1 -2.51,-0.4 l 0.08,-1.69 a 9.33,9.33 0 0 0 2.41,0.42 c 1.12,0 1.45,-0.29 1.45,-0.95 v -0.15 a 1,1 0 0 0 -0.69,-1 l -1.77,-0.76 a 2.38,2.38 0 0 1 -1.67,-2.22 v -0.27 c 0,-1.75 1,-2.68 3.29,-2.68 a 9.3,9.3 0 0 1 1.97,0.2 z"
           id="path10149-7" />
        <path
           style="fill:#59595c"
           class="cls-8"
           d="m 737.77,314.25 v 0.54 c 0,0.6 -0.42,1 -1.18,1 -0.76,0 -1.16,-0.37 -1.16,-1 v -0.54 c 0,-0.64 0.42,-1 1.16,-1 0.74,0 1.18,0.36 1.18,1 z m -0.23,12.2 h -1.88 v -9.27 h 1.88 z"
           id="path10151-8" />
        <path
           style="fill:#59595c"
           class="cls-8"
           d="m 746.6,320.14 v 6.31 h -1.88 v -6.08 c 0,-1.21 -0.42,-1.67 -1.06,-1.67 a 2.38,2.38 0 0 0 -1.86,1.37 v 6.38 h -1.88 v -9.27 h 1.74 v 1.35 a 3,3 0 0 1 2.47,-1.58 c 1.58,0.05 2.47,1.1 2.47,3.19 z"
           id="path10153-5" />
        <path
           style="fill:#59595c"
           class="cls-8"
           d="m 755.4,320.39 v 2 h -4.73 v 0.95 c 0,1.16 0.51,1.64 1.79,1.64 a 14.12,14.12 0 0 0 2.5,-0.31 v 1.64 a 15.79,15.79 0 0 1 -2.64,0.34 c -2.58,0 -3.57,-1.08 -3.57,-3.48 v -2.81 c 0,-2.2 1.06,-3.44 3.28,-3.44 2.22,0 3.37,1.23 3.37,3.47 z m -4.75,-0.27 V 321 h 2.87 v -0.8 c 0,-1.1 -0.57,-1.63 -1.45,-1.63 a 1.38,1.38 0 0 0 -1.42,1.55 z"
           id="path10155-9" />
        <path
           style="fill:#59595c"
           class="cls-8"
           d="m 762.12,317.18 v 1.63 a 8.1,8.1 0 0 0 -1.86,-0.24 c -1.12,0 -1.54,0.36 -1.54,0.95 v 0.13 c 0,0.42 0.19,0.61 0.72,0.85 l 1.77,0.82 a 2.44,2.44 0 0 1 1.63,2.28 v 0.4 c 0,1.75 -0.95,2.68 -3.29,2.68 a 10.2,10.2 0 0 1 -2.5,-0.4 l 0.07,-1.69 a 9.4,9.4 0 0 0 2.41,0.42 c 1.12,0 1.45,-0.29 1.45,-0.95 v -0.15 a 1,1 0 0 0 -0.69,-1 l -1.76,-0.76 a 2.37,2.37 0 0 1 -1.67,-2.22 v -0.27 c 0,-1.75 1,-2.68 3.28,-2.68 a 9.3,9.3 0 0 1 1.98,0.2 z"
           id="path10157-2" />
        <path
           style="fill:#59595c"
           class="cls-8"
           d="m 769.25,317.18 v 1.63 a 8.1,8.1 0 0 0 -1.86,-0.24 c -1.12,0 -1.54,0.36 -1.54,0.95 v 0.13 c 0,0.42 0.19,0.61 0.72,0.85 l 1.77,0.82 a 2.45,2.45 0 0 1 1.64,2.28 v 0.4 c 0,1.75 -1,2.68 -3.29,2.68 a 10.34,10.34 0 0 1 -2.51,-0.4 l 0.08,-1.69 a 9.26,9.26 0 0 0 2.41,0.42 c 1.12,0 1.44,-0.29 1.44,-0.95 v -0.15 a 1,1 0 0 0 -0.68,-1 l -1.77,-0.76 A 2.37,2.37 0 0 1 764,319.9 v -0.27 c 0,-1.75 1,-2.68 3.29,-2.68 a 9.44,9.44 0 0 1 1.96,0.23 z"
           id="path10159-7" />
        <path
           style="fill:#59595c"
           class="cls-8"
           d="m 640.67,404.59 -2.9,-3.86 -2.83,2.12 2.67,3.56 -1.37,1 -2.67,-3.55 -3,2.24 2.9,3.87 -1.39,1 -4,-5.38 10,-7.47 4,5.38 z"
           id="path10161-3" />
        <path
           style="fill:#59595c"
           class="cls-8"
           d="m 639.4,413.1 -2.33,5.13 -1.22,-1.77 1.78,-3.52 -3.9,0.42 -1.22,-1.78 5.56,-0.33 2.2,-4.75 1.21,1.77 -1.62,3.18 3.55,-0.36 1.19,1.72 z"
           id="path10163-6" />
        <path
           style="fill:#59595c"
           class="cls-8"
           d="m 651.55,416.92 -1.4,0.87 a 7.76,7.76 0 0 0 -0.72,-1.7 1.16,1.16 0 0 0 -1.83,-0.43 l -0.87,0.54 2.45,4 -7.88,4.8 -1,-1.59 6.54,-4.06 -1.45,-2.35 -6.54,4 -1,-1.6 6.54,-4.05 -0.67,-1.08 1.34,-0.84 0.67,1.09 0.66,-0.41 c 1.83,-1.12 3.17,-0.87 4.32,1 a 13.12,13.12 0 0 1 0.84,1.81 z"
           id="path10165-4" />
        <path
           style="fill:#59595c"
           class="cls-8"
           d="m 643.26,428.48 -0.94,-1.64 11.26,-6.45 0.93,1.64 z"
           id="path10167-7" />
        <path
           style="fill:#59595c"
           class="cls-8"
           d="m 653.49,427.82 1.13,2.11 -1.39,0.75 -1.13,-2.11 -4.42,2.43 c -0.8,0.43 -0.95,0.92 -0.59,1.59 a 7,7 0 0 0 0.91,1.28 l -1.39,0.79 a 7.28,7.28 0 0 1 -1,-1.33 c -1,-1.81 -0.67,-3 1.26,-4 l 4.32,-2.32 -0.61,-1.13 1.39,-0.74 0.62,1.13 2.32,-0.9 0.73,1.37 z"
           id="path10169-9" />
        <path
           style="fill:#59595c"
           class="cls-8"
           d="m 657.68,435.63 -1.86,0.92 a 3,3 0 0 0 -0.26,-0.65 2.33,2.33 0 0 0 -2.08,-1.28 l -5.48,2.73 -0.84,-1.68 8.31,-4.13 0.78,1.57 -1.25,0.62 a 3.06,3.06 0 0 1 2.56,1.51 3.63,3.63 0 0 1 0.12,0.39 z"
           id="path10171-7" />
        <path
           style="fill:#59595c"
           class="cls-8"
           d="m 657.87,443.57 -5.77,2.61 -0.72,-1.61 1.26,-0.57 a 3,3 0 0 1 -2.46,-1.51 c -0.6,-1.32 0,-2.62 1.62,-3.37 l 0.47,-0.21 a 2.62,2.62 0 0 1 3.63,1.52 10.82,10.82 0 0 1 0.55,1.72 l 0.81,-0.37 c 0.9,-0.41 1,-1 0.64,-1.86 a 15.34,15.34 0 0 0 -1.32,-2.17 l 1.49,-0.68 a 19.35,19.35 0 0 1 1.36,2.27 c 0.93,2.05 0.51,3.29 -1.56,4.23 z m -5,-2.88 -0.17,0.08 c -0.8,0.36 -1,0.93 -0.8,1.45 0.2,0.52 1,0.93 2.09,1 l 1.25,-0.56 a 9.29,9.29 0 0 0 -0.46,-1.28 1.31,1.31 0 0 0 -1.89,-0.69 z"
           id="path10173-2" />
        <path
           style="fill:#59595c"
           class="cls-8"
           d="m 662.27,446.5 0.91,2.22 -1.46,0.6 -0.91,-2.22 -4.64,1.9 c -0.85,0.34 -1,0.81 -0.76,1.52 a 8.26,8.26 0 0 0 0.77,1.37 l -1.46,0.64 a 7.4,7.4 0 0 1 -0.83,-1.43 c -0.78,-1.9 -0.35,-3.06 1.67,-3.89 l 4.54,-1.85 -0.48,-1.18 1.46,-0.6 0.49,1.2 2.4,-0.65 0.59,1.44 z"
           id="path10175-2" />
        <path
           style="fill:#59595c"
           class="cls-8"
           d="m 663,457.57 -1.91,0.7 -1.63,-4.44 -0.89,0.32 c -1.09,0.4 -1.36,1 -0.92,2.24 a 14.79,14.79 0 0 0 1.14,2.25 l -1.52,0.6 a 14.89,14.89 0 0 1 -1.22,-2.37 c -0.89,-2.42 -0.21,-3.72 2,-4.54 l 2.64,-1 c 2.07,-0.75 3.6,-0.18 4.36,1.91 0.76,2.09 0.09,3.57 -2.05,4.33 z m -1.34,-4.57 -0.81,0.29 1,2.7 0.75,-0.27 c 1,-0.38 1.34,-1.1 1,-1.92 a 1.38,1.38 0 0 0 -1.94,-0.8 z"
           id="path10177-1" />
        <path
           style="fill:#59595c"
           class="cls-8"
           d="m 668.51,470 -2.91,0.85 c -3,0.87 -5.11,-0.21 -6,-3.34 -0.34,-1.19 -0.59,-2.18 -0.85,-3.32 l 12.18,-3.55 c 0.3,0.86 0.69,2 1.09,3.38 0.83,2.91 -0.41,5.06 -3.51,5.98 z m 1.4,-7.09 -9.09,2.65 c 0.13,0.63 0.23,1.12 0.35,1.52 a 2.75,2.75 0 0 0 3.76,2 l 3.16,-0.92 c 2.09,-0.61 2.8,-2 2.29,-3.74 -0.15,-0.56 -0.31,-1.05 -0.47,-1.53 z"
           id="path10179-6" />
        <path
           style="fill:#59595c"
           class="cls-8"
           d="m 669.18,478.4 -6.18,1.47 -0.41,-1.72 1.34,-0.32 a 3,3 0 0 1 -2.12,-2 c -0.34,-1.4 0.46,-2.57 2.23,-3 l 0.5,-0.12 a 2.63,2.63 0 0 1 3.28,2.19 12.39,12.39 0 0 1 0.21,1.78 l 0.87,-0.2 c 1,-0.23 1.21,-0.74 1,-1.7 a 16.8,16.8 0 0 0 -0.88,-2.39 l 1.59,-0.38 a 18.27,18.27 0 0 1 0.9,2.48 c 0.49,2.25 -0.11,3.38 -2.33,3.91 z m -4.34,-3.77 h -0.18 c -0.85,0.21 -1.2,0.72 -1.07,1.27 0.13,0.55 0.79,1.1 1.86,1.41 l 1.33,-0.31 a 8.89,8.89 0 0 0 -0.2,-1.34 1.3,1.3 0 0 0 -1.74,-1.03 z"
           id="path10181-3" />
        <path
           style="fill:#59595c"
           class="cls-8"
           d="m 673,482.14 0.47,2.34 -1.55,0.31 -0.47,-2.35 -4.91,1 c -0.9,0.18 -1.18,0.6 -1,1.35 a 7.23,7.23 0 0 0 0.49,1.49 l -1.56,0.35 a 7.22,7.22 0 0 1 -0.54,-1.56 c -0.4,-2 0.24,-3.07 2.38,-3.49 l 4.81,-1 -0.25,-1.25 1.54,-0.31 0.26,1.27 2.48,-0.18 0.3,1.52 z"
           id="path10183-0" />
        <path
           style="fill:#59595c"
           class="cls-8"
           d="m 671.8,492.79 -6.25,1 -0.27,-1.74 1.37,-0.22 a 3.06,3.06 0 0 1 -2,-2.11 c -0.22,-1.43 0.66,-2.53 2.46,-2.82 l 0.51,-0.08 a 2.63,2.63 0 0 1 3.1,2.43 11.79,11.79 0 0 1 0.07,1.8 l 0.89,-0.14 c 1,-0.16 1.26,-0.65 1.1,-1.62 a 15.73,15.73 0 0 0 -0.69,-2.45 l 1.61,-0.26 a 18,18 0 0 1 0.71,2.55 c 0.38,2.22 -0.35,3.3 -2.61,3.66 z m -4,-4.09 h -0.19 c -0.87,0.13 -1.25,0.62 -1.16,1.18 0.09,0.56 0.7,1.16 1.75,1.55 l 1.35,-0.21 a 10.4,10.4 0 0 0 -0.1,-1.36 1.3,1.3 0 0 0 -1.68,-1.16 z"
           id="path10185-2" />
        <path
           style="fill:#ffffff"
           class="cls-9"
           d="m 286.94,344.44 h -5 v 2.68 h 4.55 v 2.71 H 282 v 2.9 h 5 v 2.73 h -8 v -13.75 h 7.93 z"
           id="path10187-1" />
        <path
           style="fill:#ffffff"
           class="cls-9"
           d="m 295.91,341.81 v 2.71 a 23.82,23.82 0 0 0 -3.21,-0.38 c -1.1,0 -1.52,0.44 -1.52,1.2 v 0.36 c 0,0.59 0.21,0.86 1.1,1.15 l 1.78,0.59 c 2,0.65 2.79,1.68 2.79,3.86 v 0.4 c 0,2.61 -1.36,4 -4.89,4 a 19.42,19.42 0 0 1 -3.36,-0.46 v -2.77 a 18.53,18.53 0 0 0 3.24,0.5 c 1.53,0 2,-0.48 2,-1.24 v -0.46 a 1.06,1.06 0 0 0 -0.88,-1.13 l -2,-0.65 c -2.12,-0.72 -2.84,-1.64 -2.84,-3.84 v -0.21 c 0,-2.57 1.33,-4 4.39,-4 a 20.86,20.86 0 0 1 3.4,0.37 z"
           id="path10189-5" />
        <path
           style="fill:#ffffff"
           class="cls-9"
           d="m 306,341.83 v 2.65 a 17.91,17.91 0 0 0 -2.84,-0.34 c -1.72,0 -2.2,0.51 -2.2,2.12 v 4.62 c 0,1.62 0.52,2.1 2.2,2.1 a 14.5,14.5 0 0 0 2.84,-0.4 v 2.73 a 19.45,19.45 0 0 1 -3.32,0.4 c -3.5,0 -4.72,-1.49 -4.72,-4.49 V 346 c 0,-3 1.26,-4.49 4.72,-4.49 a 20.73,20.73 0 0 1 3.32,0.32 z"
           id="path10191-6" />
        <path
           style="fill:#ffffff"
           class="cls-9"
           d="m 318,355.46 h -3.17 l -0.63,-2.69 h -3.95 l -0.62,2.69 h -3.03 l 4,-13.75 h 3.46 z m -7.22,-5.16 h 2.9 l -1.45,-6.2 z"
           id="path10193-5" />
        <path
           style="fill:#ffffff"
           class="cls-9"
           d="m 321.87,352.75 h 5 v 2.71 h -7.93 v -13.75 h 3 z"
           id="path10195-0" />
        <path
           style="fill:#ffffff"
           class="cls-9"
           d="m 338.68,355.46 h -3.17 l -0.63,-2.69 h -3.94 l -0.63,2.69 h -3.07 l 4,-13.75 h 3.47 z m -7.22,-5.16 h 2.9 l -1.45,-6.2 z"
           id="path10197-0" />
        <path
           style="fill:#ffffff"
           class="cls-9"
           d="M 347.67,344.44 H 344 v 11 h -3 v -11 h -3.63 v -2.73 h 10.24 z"
           id="path10199-3" />
        <path
           style="fill:#ffffff"
           class="cls-9"
           d="m 356.87,344.44 h -5 v 2.68 h 4.56 v 2.71 h -4.56 v 2.9 h 5 v 2.73 h -7.94 v -13.75 h 7.94 z"
           id="path10201-4" />
        <path
           style="fill:#ffffff"
           class="cls-9"
           d="M 282.3,369.57 V 370 c 0,2.71 -1.64,4.37 -4.79,4.37 a 9.31,9.31 0 0 1 -1.32,-0.1 v 5.18 h -3 V 365.6 c 1,-0.06 2.58,-0.12 3.95,-0.12 3.54,-0.02 5.16,1.59 5.16,4.09 z m -6.11,-1.47 v 3.55 c 0.46,0 0.8,0.08 1.09,0.08 1.41,0 2.06,-0.63 2.06,-1.8 v -0.3 c 0,-1 -0.63,-1.57 -2.14,-1.57 a 7.41,7.41 0 0 0 -1.01,0.04 z"
           id="path10203-6" />
        <path
           style="fill:#ffffff"
           class="cls-9"
           d="m 292.59,369.45 v 0.46 a 3.8,3.8 0 0 1 -2.16,3.44 l 3.32,6.11 h -3.28 l -2.77,-5.27 a 8,8 0 0 1 -1.18,0 v 5.29 h -3 v -13.9 c 1.24,0 3.11,-0.1 4,-0.1 3.56,0 5.07,1.52 5.07,3.97 z m -6.07,-1.31 v 3.43 c 0.44,0 0.72,0.06 1,0.06 1.47,0 2.06,-0.65 2.06,-1.7 v -0.3 c 0,-1 -0.59,-1.55 -2,-1.55 a 10.24,10.24 0 0 0 -1.06,0.06 z"
           id="path10205-6" />
        <path
           style="fill:#ffffff"
           class="cls-9"
           d="m 297.51,379.46 h -3 v -13.75 h 3 z"
           id="path10207-0" />
        <path
           style="fill:#ffffff"
           class="cls-9"
           d="m 305.84,379.46 h -3.44 l -3.89,-13.75 h 3.13 l 2.48,11.19 2.5,-11.19 h 3.13 z"
           id="path10209-2" />
        <path
           style="fill:#ffffff"
           class="cls-9"
           d="m 313.72,379.46 h -3 v -13.75 h 3 z"
           id="path10211-5" />
        <path
           style="fill:#ffffff"
           class="cls-9"
           d="m 318.53,376.75 h 5 v 2.71 h -7.93 v -13.75 h 3 z"
           id="path10213-8" />
        <path
           style="fill:#ffffff"
           class="cls-9"
           d="m 332.62,368.44 h -5 v 2.68 h 4.56 v 2.71 h -4.56 v 2.9 h 5 v 2.73 h -7.94 v -13.75 h 7.94 z"
           id="path10215-9" />
        <path
           style="fill:#ffffff"
           class="cls-9"
           d="m 342.74,365.88 v 2.66 a 23.62,23.62 0 0 0 -3.8,-0.42 c -1.41,0 -1.92,0.51 -1.92,1.79 v 5.29 c 0,1.3 0.53,1.83 1.83,1.83 a 11.86,11.86 0 0 0 1.66,-0.15 v -3.09 h -1.81 v -2.64 h 4.62 v 7.66 a 15.33,15.33 0 0 1 -4.59,0.9 c -3.45,0 -4.67,-1.49 -4.67,-4.49 V 370 c 0,-3.09 1.31,-4.49 4.73,-4.49 a 25.73,25.73 0 0 1 3.95,0.37 z"
           id="path10217-5" />
        <path
           style="fill:#ffffff"
           class="cls-9"
           d="m 353,368.44 h -5 v 2.68 h 4.56 v 2.71 H 348 v 2.9 h 5 v 2.73 h -7.94 V 365.71 H 353 Z"
           id="path10219-0" />
        <path
           style="fill:#ffffff"
           class="cls-9"
           d="m 362,365.81 v 2.71 a 23.46,23.46 0 0 0 -3.21,-0.38 c -1.09,0 -1.51,0.44 -1.51,1.2 v 0.36 c 0,0.59 0.21,0.86 1.09,1.15 l 1.78,0.59 a 3.47,3.47 0 0 1 2.8,3.86 v 0.4 c 0,2.61 -1.37,4 -4.9,4 a 19.32,19.32 0 0 1 -3.35,-0.46 v -2.77 a 18.3,18.3 0 0 0 3.23,0.5 c 1.53,0 2,-0.48 2,-1.24 v -0.46 a 1.07,1.07 0 0 0 -0.89,-1.13 l -1.95,-0.65 c -2.12,-0.72 -2.83,-1.64 -2.83,-3.84 v -0.21 c 0,-2.57 1.32,-4 4.39,-4 a 20.64,20.64 0 0 1 3.35,0.37 z"
           id="path10221-6" />
        <path
           style="fill:#59595c"
           class="cls-8"
           d="m 109,361.39 q -3.56,2.21 -7,4.56 a 188.19,188.19 0 0 0 24.91,13.84 c 2.87,-1.65 5.8,-3.2 8.77,-4.68 A 186.52,186.52 0 0 1 109,361.39 Z"
           id="path10223-0" />
        <polygon
           style="fill:#133653"
           class="cls-1"
           points="557.01,364.39 574.97,364.4 567.54,359.4 "
           id="polygon10225-8" />
        <path
           style="fill:#4c8ecb"
           class="cls-3"
           d="m 304.17,202.4 v 0 c 0,-89.32 72.67,-162 162,-162 v -25 c -102.84,0 -186.55,83.44 -187,186.18"
           id="path10227-3" />
        <path
           style="fill:#1a4b74"
           class="cls-5"
           d="m 522.13,389.09 a 186.18,186.18 0 0 0 51.78,-24.7 H 557 a 185.71,185.71 0 0 1 -83.12,24.7 h -3.95 c 1.09,0 2.18,0 3.27,0 l -0.78,0.05 c -1.28,0.08 -2.55,0.16 -3.84,0.21 h 10.32 a 136.61,136.61 0 0 1 40,8.62 h 49.73 c -4,-3.16 -8.09,-6.15 -12.36,-8.92 z"
           id="path10229-7" />
        <path
           style="fill:#2e73af"
           class="cls-4"
           d="m 466.19,46.41 c -1.34,0 -2.68,0 -4,0.05 h -1.37 l -2.62,0.1 -1.51,0.1 c -0.82,0 -1.64,0.09 -2.45,0.15 l -1.69,0.15 -2.24,0.2 -1.87,0.22 c -0.68,0.07 -1.36,0.14 -2,0.23 -0.64,0.09 -1.29,0.18 -1.93,0.27 -0.64,0.09 -1.3,0.17 -1.95,0.27 -0.65,0.1 -1.31,0.22 -2,0.33 l -1.87,0.31 -2,0.38 -1.82,0.35 -2,0.44 c -0.6,0.13 -1.2,0.25 -1.79,0.39 -0.59,0.14 -1.37,0.33 -2.06,0.5 l -1.68,0.41 -2.13,0.57 -1.58,0.43 -2.13,0.64 -1.55,0.46 c -0.72,0.22 -1.43,0.46 -2.15,0.7 -0.49,0.16 -1,0.31 -1.48,0.48 l -2.22,0.78 -1.37,0.48 -2.28,0.87 -1.27,0.48 -2.32,0.95 -1.19,0.49 c -0.79,0.33 -1.56,0.67 -2.34,1 l -1.13,0.5 c -0.8,0.36 -1.58,0.73 -2.37,1.1 l -1.05,0.5 -2.41,1.19 -1,0.48 c -0.82,0.42 -1.62,0.85 -2.43,1.28 l -0.9,0.48 c -0.82,0.44 -1.63,0.9 -2.44,1.36 l -0.84,0.47 -2.48,1.46 -0.75,0.45 c -0.84,0.51 -1.67,1 -2.49,1.55 l -0.7,0.43 c -0.84,0.54 -1.67,1.09 -2.5,1.65 l -0.63,0.41 q -1.26,0.86 -2.52,1.74 l -0.55,0.38 c -0.85,0.61 -1.69,1.22 -2.52,1.84 l -0.51,0.36 c -0.85,0.64 -1.69,1.29 -2.53,1.94 l -0.43,0.33 c -0.86,0.67 -1.7,1.35 -2.54,2 l -0.37,0.3 c -0.86,0.7 -1.7,1.42 -2.54,2.13 l -0.32,0.27 c -0.85,0.74 -1.69,1.48 -2.52,2.23 l -0.27,0.25 c -0.85,0.76 -1.69,1.55 -2.52,2.33 l -0.22,0.2 c -0.85,0.81 -1.68,1.62 -2.51,2.45 l -0.16,0.15 c -0.84,0.84 -1.67,1.68 -2.49,2.54 l -0.12,0.12 c -0.83,0.87 -1.65,1.75 -2.46,2.63 l -0.09,0.09 c -0.82,0.91 -1.63,1.82 -2.44,2.74 v 0 c -0.81,0.94 -1.62,1.89 -2.41,2.84 v 0 a 155.19,155.19 0 0 0 -35.93,98.68 v 0 c 0,0.27 0,0.54 0,0.81 v 94 l 45,-60 h -20 v -34 c 0,-0.27 0,-0.54 0,-0.81 a 130.31,130.31 0 0 1 28.23,-80.35 v 0 c 0.65,-0.81 1.3,-1.62 2,-2.42 v 0 c 0.65,-0.78 1.32,-1.57 2,-2.34 a 0.27,0.27 0 0 0 0.07,-0.08 c 0.66,-0.76 1.34,-1.51 2,-2.25 l 0.09,-0.1 c 0.67,-0.74 1.36,-1.47 2.05,-2.19 l 0.12,-0.13 c 0.68,-0.7 1.37,-1.41 2.07,-2.1 l 0.16,-0.16 2.08,-2 0.21,-0.19 c 0.69,-0.65 1.38,-1.3 2.08,-1.93 l 0.26,-0.23 2.09,-1.85 L 381,103 c 0.69,-0.6 1.4,-1.19 2.1,-1.77 l 0.35,-0.28 c 0.7,-0.57 1.39,-1.13 2.1,-1.68 l 0.39,-0.31 c 0.7,-0.54 1.39,-1.07 2.1,-1.6 l 0.45,-0.32 c 0.69,-0.52 1.38,-1 2.09,-1.52 l 0.5,-0.35 c 0.69,-0.48 1.38,-1 2.08,-1.44 l 0.55,-0.36 2.11,-1.37 0.6,-0.38 c 0.69,-0.43 1.37,-0.86 2.07,-1.28 0.21,-0.14 0.44,-0.26 0.65,-0.39 0.69,-0.41 1.37,-0.82 2.06,-1.21 l 0.73,-0.41 c 0.67,-0.38 1.34,-0.76 2,-1.13 l 0.79,-0.42 c 0.67,-0.35 1.34,-0.71 2,-1 0.28,-0.15 0.56,-0.28 0.84,-0.42 0.66,-0.33 1.32,-0.67 2,-1 l 0.91,-0.42 2,-0.92 1,-0.42 2,-0.85 c 0.34,-0.15 0.69,-0.28 1,-0.42 0.64,-0.27 1.27,-0.53 1.91,-0.78 l 1.12,-0.43 1.86,-0.71 1.18,-0.41 1.84,-0.65 1.24,-0.4 1.81,-0.59 1.28,-0.38 1.8,-0.54 1.34,-0.36 c 0.59,-0.16 1.18,-0.33 1.78,-0.48 l 1.39,-0.34 1.75,-0.43 1.43,-0.31 1.75,-0.38 1.48,-0.28 c 0.57,-0.11 1.14,-0.23 1.72,-0.33 l 1.57,-0.26 1.65,-0.28 1.65,-0.23 1.61,-0.22 c 0.57,-0.08 1.15,-0.13 1.72,-0.2 l 1.56,-0.18 1.79,-0.16 1.51,-0.13 2,-0.13 1.37,-0.08 c 0.72,0 1.45,-0.06 2.18,-0.09 h 1.17 c 1.12,0 2.24,0 3.37,0 a 130.39,130.39 0 0 1 83.05,29.77 l 4.21,-28 A 155.1,155.1 0 0 0 466.19,46.41 Z"
           id="path10231-8" />
        <path
           style="fill:#2e73af"
           class="cls-4"
           d="m 597.18,202.4 a 131.14,131.14 0 0 1 -131,131 v 25 c 86,0 156,-70 156,-156 A 155.87,155.87 0 0 0 558.93,77.05 l -4.32,28.79 a 130.68,130.68 0 0 1 42.57,96.56 z"
           id="path10233-2" />
        <path
           style="fill:#4c8ecb"
           class="cls-3"
           d="m 597.31,69.23 -32.06,5.09 a 161.8,161.8 0 0 1 62.93,128.08 c 0,89.32 -72.67,162 -162,162 v 25 c 103.1,0 187,-83.88 187,-187 A 186.4,186.4 0 0 0 597.31,69.23 Z"
           id="path10235-1" />
        <path
           style="fill:#4c8ecb"
           class="cls-3"
           d="m 466.19,15.41 c -103.11,0 -187,83.88 -187,187 v 34 h -20 l 45,60 v -58.68 0 -35.33 c 0,-89.32 72.67,-162 162,-162 a 161.07,161.07 0 0 1 92.26,28.92 L 591.83,64 A 186.27,186.27 0 0 0 466.19,15.41 Z"
           id="path10237-0" />
        <path
           style="fill:#59595c"
           class="cls-8"
           d="m 2.47,233.2 -0.22,-1.89 12.37,-1.41 0.21,1.89 z"
           id="path10239-5" />
        <path
           style="fill:#59595c"
           class="cls-8"
           d="m 10,241.63 -6.24,0.93 -0.26,-1.86 6,-0.9 c 1.21,-0.18 1.6,-0.66 1.5,-1.3 A 2.4,2.4 0 0 0 9.37,236.86 L 3.06,237.81 2.79,236 12,234.57 l 0.25,1.73 -1.33,0.2 a 3,3 0 0 1 1.93,2.21 c 0.15,1.56 -0.77,2.61 -2.85,2.92 z"
           id="path10241-8" />
        <path
           style="fill:#59595c"
           class="cls-8"
           d="m 13.81,245.76 0.46,2.35 -1.55,0.3 -0.46,-2.35 -4.92,0.94 c -0.9,0.17 -1.19,0.59 -1,1.34 a 7.91,7.91 0 0 0 0.48,1.49 l -1.56,0.34 a 7.25,7.25 0 0 1 -0.53,-1.56 c -0.39,-2 0.26,-3.07 2.4,-3.48 l 4.82,-0.93 -0.29,-1.2 1.55,-0.3 0.25,1.27 2.48,-0.17 0.3,1.53 z"
           id="path10243-5" />
        <path
           style="fill:#59595c"
           class="cls-8"
           d="M 13,256.93 11,257.4 9.92,252.79 9,253 c -1.13,0.26 -1.47,0.87 -1.18,2.11 a 14.36,14.36 0 0 0 0.86,2.37 L 7.1,257.89 A 15.81,15.81 0 0 1 6.17,255.4 c -0.59,-2.52 0.24,-3.72 2.57,-4.27 l 2.73,-0.64 c 2.15,-0.5 3.59,0.25 4.1,2.41 0.51,2.16 -0.41,3.52 -2.57,4.03 z m -0.82,-4.68 -0.83,0.2 0.65,2.79 0.78,-0.18 c 1.07,-0.26 1.46,-0.93 1.26,-1.78 a 1.39,1.39 0 0 0 -1.88,-1.03 z"
           id="path10245-5" />
        <path
           style="fill:#59595c"
           class="cls-8"
           d="m 18.05,262.57 -2,0.55 a 3.23,3.23 0 0 0 -0.13,-0.69 2.32,2.32 0 0 0 -1.79,-1.65 l -5.93,1.64 -0.5,-1.82 8.93,-2.46 0.46,1.68 -1.33,0.37 a 3.08,3.08 0 0 1 2.22,2 3.5,3.5 0 0 1 0.07,0.38 z"
           id="path10247-0" />
        <path
           style="fill:#59595c"
           class="cls-8"
           d="m 17.53,271.41 -6,1.92 -0.58,-1.79 5.79,-1.85 c 1.16,-0.37 1.47,-0.91 1.27,-1.52 a 2.39,2.39 0 0 0 -1.87,-1.36 l -6.08,1.95 -0.58,-1.76 8.83,-2.82 0.53,1.66 -1.28,0.41 a 3,3 0 0 1 2.25,1.87 c 0.48,1.47 -0.29,2.65 -2.28,3.29 z"
           id="path10249-7" />
        <path
           style="fill:#59595c"
           class="cls-8"
           d="m 20.55,279.63 -5.93,2.21 -0.62,-1.65 1.3,-0.49 A 3,3 0 0 1 13,278 c -0.5,-1.35 0.15,-2.6 1.86,-3.24 l 0.48,-0.18 a 2.63,2.63 0 0 1 3.52,1.77 11.2,11.2 0 0 1 0.42,1.75 l 0.84,-0.32 c 0.93,-0.34 1.11,-0.88 0.77,-1.8 a 16.73,16.73 0 0 0 -1.17,-2.26 l 1.53,-0.57 a 16.94,16.94 0 0 1 1.2,2.35 c 0.74,2.14 0.24,3.34 -1.9,4.13 z m -4.77,-3.21 -0.17,0.07 c -0.82,0.3 -1.11,0.85 -0.91,1.39 0.2,0.54 0.92,1 2,1.17 l 1.29,-0.47 a 9.2,9.2 0 0 0 -0.37,-1.31 1.3,1.3 0 0 0 -1.84,-0.85 z"
           id="path10251-3" />
        <path
           style="fill:#59595c"
           class="cls-8"
           d="m 16.3,286 -0.71,-1.74 12,-4.94 0.72,1.74 z"
           id="path10253-8" />
        <path
           style="fill:#59595c"
           class="cls-8"
           d="m 31.91,294.35 -1.51,-3.17 -9.67,4.61 -0.82,-1.71 9.67,-4.62 -1.52,-3.19 1.56,-0.74 3.85,8.08 z"
           id="path10255-2" />
        <path
           style="fill:#59595c"
           class="cls-8"
           d="m 31.36,298.85 a 2.86,2.86 0 0 1 2.33,1.4 c 0.75,1.38 0.21,2.69 -1.63,3.69 l -5.55,3 -0.89,-1.66 5.38,-2.89 c 1.09,-0.59 1.27,-1.18 1,-1.73 a 2.4,2.4 0 0 0 -2.09,-1 l -5.61,3 -0.9,-1.65 11.41,-6.17 0.9,1.65 z"
           id="path10257-3" />
        <path
           style="fill:#59595c"
           class="cls-8"
           d="m 38.39,308.44 -1.78,1.06 a 4.46,4.46 0 0 0 -0.31,-0.63 2.35,2.35 0 0 0 -2.17,-1.12 l -5.3,3.14 -1,-1.62 8,-4.73 0.89,1.5 -1.19,0.71 a 3.09,3.09 0 0 1 2.66,1.32 2.41,2.41 0 0 1 0.2,0.37 z"
           id="path10259-0" />
        <path
           style="fill:#59595c"
           class="cls-8"
           d="m 39.76,316.9 -1.7,1.1 -2.57,-4 -0.8,0.52 c -1,0.63 -1.09,1.32 -0.4,2.39 a 14.94,14.94 0 0 0 1.61,1.94 l -1.35,0.92 a 15.76,15.76 0 0 1 -1.72,-2 c -1.4,-2.18 -1,-3.59 1,-4.89 l 2.36,-1.53 c 1.86,-1.2 3.47,-1 4.68,0.89 1.21,1.89 0.78,3.45 -1.11,4.66 z m -2.35,-4.13 -0.72,0.46 1.56,2.41 0.67,-0.43 a 1.41,1.41 0 0 0 0.59,-2.1 1.38,1.38 0 0 0 -2.1,-0.34 z"
           id="path10261-7" />
        <path
           style="fill:#59595c"
           class="cls-8"
           d="m 44.77,323.55 -5.15,3.67 -1,-1.44 1.13,-0.8 a 3,3 0 0 1 -2.7,-1 c -0.84,-1.17 -0.54,-2.55 0.95,-3.61 l 0.41,-0.3 a 2.63,2.63 0 0 1 3.86,0.8 11.31,11.31 0 0 1 0.87,1.58 l 0.73,-0.52 c 0.8,-0.57 0.84,-1.14 0.27,-1.94 a 17.8,17.8 0 0 0 -1.71,-1.89 l 1.33,-0.94 a 18.51,18.51 0 0 1 1.77,2 c 1.28,1.78 1.1,3.07 -0.76,4.39 z m -5.43,-1.87 -0.16,0.11 c -0.71,0.51 -0.84,1.12 -0.51,1.58 a 2.42,2.42 0 0 0 2.26,0.61 l 1.11,-0.79 a 8.62,8.62 0 0 0 -0.69,-1.17 1.31,1.31 0 0 0 -2.01,-0.34 z"
           id="path10263-7" />
        <path
           style="fill:#59595c"
           class="cls-8"
           d="m 49.91,325.43 1.47,1.9 -1.26,1 -1.46,-1.89 -4,3.06 c -0.72,0.56 -0.79,1.07 -0.32,1.67 a 7.33,7.33 0 0 0 1.1,1.12 l -1.24,1 a 7.37,7.37 0 0 1 -1.18,-1.15 c -1.25,-1.63 -1.15,-2.86 0.58,-4.19 l 3.88,-3 -0.78,-1 1.25,-1 0.79,1 2.15,-1.27 0.95,1.23 z"
           id="path10265-7" />
        <path
           style="fill:#59595c"
           class="cls-8"
           d="m 55.59,332.45 -1.29,1 a 8.28,8.28 0 0 0 -1,-1.59 c -0.71,-0.86 -1.26,-0.95 -1.71,-0.57 l -0.1,0.08 c -0.32,0.27 -0.35,0.54 -0.2,1.1 l 0.5,1.89 a 2.44,2.44 0 0 1 -0.71,2.71 l -0.3,0.25 c -1.36,1.11 -2.67,1 -4.17,-0.81 a 10.12,10.12 0 0 1 -1.29,-2.19 l 1.35,-1 a 8.9,8.9 0 0 0 1.22,2.12 c 0.71,0.87 1.14,0.93 1.65,0.51 l 0.12,-0.1 a 1,1 0 0 0 0.35,-1.18 l -0.55,-1.85 a 2.36,2.36 0 0 1 0.65,-2.7 l 0.2,-0.17 c 1.37,-1.09 2.69,-1 4.16,0.81 a 9.62,9.62 0 0 1 1.12,1.69 z"
           id="path10267-6" />
        <path
           style="fill:#f05b40;stroke:#be1e2d;stroke-width:2px;stroke-miterlimit:10"
           class="cls-10"
           d="m 51.28,520.37 a 155.07,155.07 0 0 1 26,-86.06 l 2.53,1.59 -0.33,-4.9 -0.27,-4.56 -4.89,1.48 -4.87,1.47 2.71,1.7 a 161,161 0 0 0 -26.88,89.26"
           id="path10269-9" />
        <path
           style="fill:#808083"
           class="cls-2"
           d="m 76.28,202.41 h -25 c 0,85.51 69.17,155.16 154.5,156 v -25 c -71.54,-0.84 -129.5,-59.27 -129.5,-131 z"
           id="path10271-1" />
        <path
           style="fill:#808083"
           class="cls-2"
           d="m 45.28,202.41 h -25 c 0,102.61 83.08,186.16 185.5,187 v -25 c -88.64,-0.83 -160.5,-73.18 -160.5,-162 z"
           id="path10273-1" />
        <path
           style="fill:#808083"
           class="cls-2"
           d="m 45.28,202.41 h -25 c 0,102.61 83.08,186.16 185.5,187 v -25 c -88.64,-0.83 -160.5,-73.18 -160.5,-162 z"
           id="path10275-9" />
        <rect
           style="fill:#808083"
           class="cls-2"
           x="205.78"
           y="364.38"
           width="49.009998"
           height="25"
           id="rect10277-0" />
        <path
           style="fill:#59595c"
           class="cls-8"
           d="m 143.31,378.12 c -3.22,1.45 -6.38,3 -9.49,4.68 a 185.65,185.65 0 0 0 39,11.2 130.94,130.94 0 0 1 33,-4.59 v 0 a 186.18,186.18 0 0 1 -62.51,-11.29 z"
           id="path10279-8" />
        <path
           style="fill:#59595c"
           class="cls-8"
           d="m 143.31,344.67 q -3.88,1.41 -7.68,3 a 160.66,160.66 0 0 0 40.53,13.72 162.37,162.37 0 0 1 29.62,-3 v 0 a 155.09,155.09 0 0 1 -62.47,-13.72 z"
           id="path10281-9" />
        <path
           style="fill:#808083"
           class="cls-2"
           d="m 76.28,202.41 h -25 c 0,85.51 69.17,155.16 154.5,156 v -25 c -71.54,-0.84 -129.5,-59.27 -129.5,-131 z"
           id="path10283-8" />
        <rect
           style="fill:#808083"
           class="cls-2"
           x="205.78"
           y="333.38"
           width="49.009998"
           height="25"
           id="rect10285-8" />
        <path
           style="fill:#f05b40;stroke:#be1e2d;stroke-width:2px;stroke-miterlimit:10"
           class="cls-10"
           d="m 51.28,202.41 a 155.13,155.13 0 0 0 26,86.07 l 2.53,-1.6 -0.29,4.88 -0.27,4.56 -4.89,-1.48 -4.87,-1.47 2.71,-1.7 A 161,161 0 0 1 45.32,202.41"
           id="path10287-0" />
        <path
           style="fill:#59595c"
           class="cls-8"
           d="m 2.79,485.1 -0.79,4.76 3.49,0.57 0.72,-4.43 1.69,0.28 -0.71,4.38 3.69,0.6 0.78,-4.76 1.7,0.28 -1.08,6.64 L 0,491.46 1.08,484.82 Z"
           id="path10289-3" />
        <path
           style="fill:#59595c"
           class="cls-8"
           d="m 9.81,480.07 5.32,-1.86 -0.44,2.1 -3.77,1.15 3,2.53 -0.44,2.1 -4.08,-3.78 -4.95,1.69 0.43,-2.1 3.42,-1 -2.72,-2.32 0.43,-2 z"
           id="path10291-7" />
        <path
           style="fill:#59595c"
           class="cls-8"
           d="m 7,472.69 0.57,-2.32 1.54,0.38 -0.58,2.32 4.86,1.22 c 0.89,0.22 1.32,-0.05 1.51,-0.78 a 7.77,7.77 0 0 0 0.19,-1.56 l 1.56,0.35 a 7.43,7.43 0 0 1 -0.18,1.64 c -0.49,2 -1.52,2.67 -3.64,2.14 L 8,474.9 l -0.31,1.23 -1.53,-0.38 0.32,-1.25 -2.33,-0.89 0.38,-1.52 z"
           id="path10293-0" />
        <path
           style="fill:#59595c"
           class="cls-8"
           d="m 12.91,463.24 2,0.57 -1.33,4.54 0.92,0.27 c 1.11,0.32 1.71,0 2.07,-1.26 a 14.3,14.3 0 0 0 0.4,-2.49 l 1.58,0.42 a 16.18,16.18 0 0 1 -0.4,2.63 c -0.73,2.48 -2,3.13 -4.34,2.46 l -2.7,-0.79 c -2.12,-0.61 -3,-2 -2.39,-4.12 0.61,-2.12 2.04,-2.86 4.19,-2.23 z m -1.58,4.49 0.82,0.24 0.8,-2.76 -0.76,-0.22 a 1.45,1.45 0 1 0 -0.86,2.74 z"
           id="path10295-6" />
        <path
           style="fill:#59595c"
           class="cls-8"
           d="m 11.73,456 2,0.66 a 3.2,3.2 0 0 0 -0.28,0.65 2.37,2.37 0 0 0 0.58,2.37 l 5.84,1.94 -0.59,1.78 -8.8,-2.92 0.52,-1.68 1.31,0.44 a 3.08,3.08 0 0 1 -0.74,-2.87 2.2,2.2 0 0 1 0.16,-0.37 z"
           id="path10297-9" />
        <path
           style="fill:#59595c"
           class="cls-8"
           d="m 17.55,449.38 5.9,2.22 -0.66,1.76 -5.69,-2.14 c -1.14,-0.43 -1.71,-0.2 -1.94,0.41 a 2.4,2.4 0 0 0 0.62,2.22 l 6,2.25 -0.66,1.76 -8.68,-3.27 0.56,-1.59 1.26,0.47 a 3,3 0 0 1 -0.61,-2.86 c 0.6,-1.52 1.94,-1.97 3.9,-1.23 z"
           id="path10299-2" />
        <path
           style="fill:#59595c"
           class="cls-8"
           d="m 20.82,441.6 5.81,2.49 -0.7,1.63 -1.27,-0.55 A 3,3 0 0 1 25.2,448 c -0.57,1.32 -1.91,1.78 -3.58,1.06 l -0.47,-0.2 a 2.62,2.62 0 0 1 -1.33,-3.71 13.25,13.25 0 0 1 0.9,-1.56 l -0.82,-0.35 c -0.91,-0.39 -1.41,-0.13 -1.8,0.78 a 17.24,17.24 0 0 0 -0.72,2.44 l -1.5,-0.64 a 18.13,18.13 0 0 1 0.75,-2.53 c 0.9,-2.07 2.09,-2.59 4.19,-1.69 z m 1.18,5.61 0.18,0.08 c 0.8,0.34 1.39,0.14 1.61,-0.39 a 2.43,2.43 0 0 0 -0.65,-2.24 l -1.26,-0.54 a 8.29,8.29 0 0 0 -0.63,1.2 1.3,1.3 0 0 0 0.75,1.89 z"
           id="path10301-1" />
        <path
           style="fill:#59595c"
           class="cls-8"
           d="m 28.28,440.56 -0.8,1.71 -11.75,-5.51 0.79,-1.7 z"
           id="path10303-7" />
        <path
           style="fill:#59595c"
           class="cls-8"
           d="m 25,423.59 -1.66,3.1 9.45,5.06 -0.89,1.67 -9.45,-5.05 -1.67,3.12 -1.53,-0.82 4.22,-7.89 z"
           id="path10305-7" />
        <path
           style="fill:#59595c"
           class="cls-8"
           d="m 29.11,421.69 a 2.87,2.87 0 0 1 0,-2.72 c 0.81,-1.35 2.21,-1.55 4,-0.48 l 5.41,3.24 -1,1.61 -5.21,-3.12 c -1.06,-0.63 -1.66,-0.48 -2,0.06 a 2.35,2.35 0 0 0 0.21,2.29 l 5.48,3.28 -1,1.61 -11,-6.66 1,-1.61 z"
           id="path10307-9" />
        <path
           style="fill:#59595c"
           class="cls-8"
           d="m 34.22,411 1.78,1.14 a 4.65,4.65 0 0 0 -0.43,0.56 2.33,2.33 0 0 0 -0.05,2.44 l 5.16,3.36 -1,1.58 -7.85,-5.08 1,-1.47 1.16,0.76 a 3.08,3.08 0 0 1 0,-3 2.11,2.11 0 0 1 0.23,-0.29 z"
           id="path10309-7" />
        <path
           style="fill:#59595c"
           class="cls-8"
           d="m 41.52,406.52 1.66,1.17 -2.73,3.86 0.78,0.55 c 0.94,0.67 1.63,0.53 2.36,-0.51 a 15.72,15.72 0 0 0 1.2,-2.23 l 1.36,0.91 a 15.65,15.65 0 0 1 -1.25,2.36 c -1.49,2.11 -2.94,2.29 -4.9,0.91 l -2.29,-1.62 c -1.8,-1.27 -2.2,-2.85 -0.92,-4.67 1.28,-1.82 2.9,-2.02 4.73,-0.73 z m -3,3.73 0.7,0.49 1.66,-2.35 -0.66,-0.46 a 1.45,1.45 0 1 0 -1.7,2.32 z"
           id="path10311-6" />
        <path
           style="fill:#59595c"
           class="cls-8"
           d="m 46.16,400 5,3.87 -1.08,1.4 -1.1,-0.85 a 3,3 0 0 1 -0.18,2.88 c -0.88,1.14 -2.29,1.26 -3.73,0.14 l -0.41,-0.31 a 2.63,2.63 0 0 1 -0.36,-3.93 11.66,11.66 0 0 1 1.26,-1.28 l -0.71,-0.55 c -0.78,-0.6 -1.33,-0.48 -1.94,0.31 a 16.29,16.29 0 0 0 -1.3,2.18 l -1.29,-1 a 17.7,17.7 0 0 1 1.36,-2.26 c 1.39,-1.78 2.68,-1.98 4.48,-0.6 z m -0.16,5.75 0.15,0.12 c 0.7,0.53 1.31,0.48 1.66,0 a 2.42,2.42 0 0 0 -0.07,-2.33 l -1.08,-0.84 a 9,9 0 0 0 -0.92,1 1.3,1.3 0 0 0 0.26,2.05 z"
           id="path10313-2" />
        <path
           style="fill:#59595c"
           class="cls-8"
           d="m 46.73,394.71 1.53,-1.84 1.21,1 -1.53,1.84 3.85,3.21 c 0.7,0.59 1.21,0.54 1.69,0 a 7.74,7.74 0 0 0 0.86,-1.32 l 1.25,1 a 7.68,7.68 0 0 1 -0.88,1.4 c -1.31,1.58 -2.54,1.74 -4.22,0.34 l -3.76,-3.14 -0.81,1 -1.22,-1 0.83,-1 -1.7,-1.81 1,-1.2 z"
           id="path10315-7" />
        <path
           style="fill:#59595c"
           class="cls-8"
           d="m 52.66,387.9 1.19,1.1 a 8.36,8.36 0 0 0 -1.42,1.22 c -0.75,0.84 -0.76,1.39 -0.32,1.78 l 0.1,0.09 c 0.31,0.28 0.58,0.27 1.12,0 l 1.78,-0.77 a 2.46,2.46 0 0 1 2.79,0.3 l 0.3,0.27 c 1.29,1.18 1.36,2.49 -0.2,4.24 a 10.12,10.12 0 0 1 -2,1.6 l -1.2,-1.18 a 9.89,9.89 0 0 0 1.92,-1.52 c 0.74,-0.84 0.75,-1.27 0.25,-1.71 l -0.11,-0.11 a 1,1 0 0 0 -1.22,-0.17 l -1.75,0.81 a 2.38,2.38 0 0 1 -2.77,-0.23 l -0.2,-0.18 c -1.28,-1.2 -1.34,-2.52 0.2,-4.24 a 9.11,9.11 0 0 1 1.54,-1.3 z"
           id="path10317-1" />
      </g>
    </g>
  </g>
</svg>
