<?xml version="1.0" encoding="UTF-8" standalone="no"?>
<svg
   xmlns:dc="http://purl.org/dc/elements/1.1/"
   xmlns:cc="http://creativecommons.org/ns#"
   xmlns:rdf="http://www.w3.org/1999/02/22-rdf-syntax-ns#"
   xmlns:svg="http://www.w3.org/2000/svg"
   xmlns="http://www.w3.org/2000/svg"
   id="svg63310"
   version="1.1"
   viewBox="0 0 148.80167 160.22108"
   height="160.22108mm"
   width="148.80167mm">
  <defs
     id="defs63304" />
  <metadata
     id="metadata63307">
    <rdf:RDF>
      <cc:Work
         rdf:about="">
        <dc:format>image/svg+xml</dc:format>
        <dc:type
           rdf:resource="http://purl.org/dc/dcmitype/StillImage" />
        <dc:title></dc:title>
      </cc:Work>
    </rdf:RDF>
  </metadata>
  <g
     transform="translate(128.07345,80.199829)"
     id="layer1">
    <g
       transform="matrix(0.26458333,0,0,0.26458333,-128.07345,-80.199829)"
       id="Layer_2-31-6"
       data-name="Layer 2">
      <g
         id="Layer_1-2-49-1"
         data-name="Layer 1">
        <path
           style="fill:#616161"
           class="cls-1"
           d="m 498.83,525.29 -4.91,-7.86 V 487 a 4.62,4.62 0 0 0 -4.62,-4.63 H 443 a 4.63,4.63 0 0 0 -4.63,4.63 v 30.41 l -4.91,7.86 a 1.53,1.53 0 0 0 -0.23,0.81 v 1 a 5.67,5.67 0 0 0 5.66,5.66 h 54.51 a 5.67,5.67 0 0 0 5.66,-5.66 v -1 a 1.45,1.45 0 0 0 -0.23,-0.79 z M 441.47,487 a 1.55,1.55 0 0 1 1.54,-1.55 h 20.37 l 0.2,1 h 5.14 l 0.21,-1 h 20.37 a 1.55,1.55 0 0 1 1.54,1.55 v 29.83 h -49.37 z m -0.37,31.88 h 50.11 l 4.17,6.69 H 474.3 L 473.87,523 h -15.43 l -0.43,2.57 h -21.09 z m 54.9,8.25 a 2.57,2.57 0 0 1 -2.57,2.57 H 438.9 a 2.58,2.58 0 0 1 -2.58,-2.57 v -0.51 H 496 Z"
           id="path4357-8" />
        <path
           style="fill:#616161"
           class="cls-1"
           d="m 444,514.79 h 44.23 V 488.05 H 444 Z m 1,-25.72 h 42.17 v 24.69 h -42.1 z"
           id="path4359-7" />
        <path
           style="fill:#414042"
           class="cls-2"
           d="m 434.88,556 a 5.45,5.45 0 0 1 3.89,1.49 0.19,0.19 0 0 1 0,0.28 l -0.26,0.28 c -0.09,0.09 -0.17,0.08 -0.27,0 a 5,5 0 1 0 -3.38,8.77 5.07,5.07 0 0 0 3.38,-1.34 0.2,0.2 0 0 1 0.26,0 l 0.27,0.27 a 0.18,0.18 0 0 1 0,0.27 5.52,5.52 0 0 1 -3.91,1.55 5.76,5.76 0 1 1 0,-11.52 z"
           id="path4361-0" />
        <path
           style="fill:#414042"
           class="cls-2"
           d="m 440,561.22 c -0.07,-0.13 -0.05,-0.26 0.09,-0.26 h 0.35 a 0.25,0.25 0 0 1 0.21,0.14 l 2.74,5.41 v 0 l 2.5,-5.41 a 0.25,0.25 0 0 1 0.2,-0.14 h 0.36 c 0.14,0 0.16,0.13 0.09,0.26 l -5,10.82 a 0.22,0.22 0 0 1 -0.21,0.12 H 441 c -0.13,0 -0.18,-0.08 -0.11,-0.22 L 443,567.3 Z"
           id="path4363-5" />
        <path
           style="fill:#414042"
           class="cls-2"
           d="m 448.69,556.37 a 0.21,0.21 0 0 1 0.21,-0.21 h 0.27 a 0.21,0.21 0 0 1 0.21,0.21 v 5.07 a 3.31,3.31 0 0 1 2,-0.64 3.38,3.38 0 0 1 0.19,6.72 3.08,3.08 0 0 1 -2.22,-0.94 l -0.05,0.57 a 0.2,0.2 0 0 1 -0.22,0.21 h -0.16 a 0.21,0.21 0 0 1 -0.21,-0.21 z m 2.8,10.51 a 2.71,2.71 0 0 0 -0.21,-5.39 3,3 0 0 0 -1.89,0.67 v 3.59 a 2.56,2.56 0 0 0 2.1,1.13 z"
           id="path4365-1" />
        <path
           style="fill:#414042"
           class="cls-2"
           d="m 459.79,560.8 a 2.82,2.82 0 0 1 2.9,2.93 c 0,0.25 0,0.62 -0.24,0.62 h -5.1 a 2.52,2.52 0 0 0 2.49,2.53 3.37,3.37 0 0 0 1.89,-0.59 c 0.14,-0.1 0.21,-0.11 0.29,0 l 0.16,0.22 c 0.05,0.07 0,0.16 -0.07,0.26 a 3.85,3.85 0 0 1 -2.32,0.75 3.37,3.37 0 0 1 0,-6.72 z m 2.2,3 a 2.16,2.16 0 0 0 -2.2,-2.34 2.38,2.38 0 0 0 -2.43,2.34 z"
           id="path4367-1" />
        <path
           style="fill:#414042"
           class="cls-2"
           d="m 465.22,561.17 a 0.21,0.21 0 0 1 0.21,-0.21 h 0.19 a 0.19,0.19 0 0 1 0.19,0.17 l 0.06,0.66 a 2.47,2.47 0 0 1 2,-1 2.64,2.64 0 0 1 1,0.19 c 0.14,0 0.22,0.16 0.17,0.29 l -0.12,0.32 a 0.18,0.18 0 0 1 -0.26,0.08 2.08,2.08 0 0 0 -0.83,-0.19 2.28,2.28 0 0 0 -1.91,1.1 v 4.56 a 0.19,0.19 0 0 1 -0.21,0.21 h -0.32 c -0.11,0 -0.17,-0.09 -0.17,-0.21 z"
           id="path4369-0" />
        <path
           style="fill:#414042"
           class="cls-2"
           d="m 473.22,563.23 a 5.48,5.48 0 0 1 1.62,0.29 c 0,-1.41 -0.15,-2.11 -1.41,-2.11 a 4.63,4.63 0 0 0 -1.92,0.43 0.17,0.17 0 0 1 -0.24,-0.13 l -0.09,-0.19 c 0,-0.14 0,-0.21 0.1,-0.24 a 4.69,4.69 0 0 1 2.19,-0.48 c 2,0 2,1.17 2,2.8 v 3.55 a 0.21,0.21 0 0 1 -0.21,0.21 h -0.19 c -0.11,0 -0.16,-0.06 -0.19,-0.17 l -0.07,-0.58 a 3.37,3.37 0 0 1 -2.22,0.91 2,2 0 0 1 -2.1,-2.13 c 0.04,-1.23 1.05,-2.16 2.73,-2.16 z m -0.51,3.67 a 2.94,2.94 0 0 0 2.13,-1 v -1.76 a 4.33,4.33 0 0 0 -1.62,-0.33 c -1.22,0 -2,0.62 -2,1.57 a 1.46,1.46 0 0 0 1.49,1.52 z"
           id="path4371-3" />
        <path
           style="fill:#414042"
           class="cls-2"
           d="m 478.51,561.17 a 0.21,0.21 0 0 1 0.21,-0.21 h 0.19 a 0.18,0.18 0 0 1 0.19,0.17 l 0.07,0.66 a 2.47,2.47 0 0 1 2,-1 2.63,2.63 0 0 1 1,0.19 c 0.15,0 0.23,0.16 0.18,0.29 l -0.13,0.32 c 0,0.11 -0.14,0.13 -0.26,0.08 a 2.08,2.08 0 0 0 -0.83,-0.19 2.25,2.25 0 0 0 -1.9,1.1 v 4.56 a 0.19,0.19 0 0 1 -0.21,0.21 h -0.32 a 0.19,0.19 0 0 1 -0.18,-0.21 z"
           id="path4373-0" />
        <path
           style="fill:#414042"
           class="cls-2"
           d="m 484.34,556.37 a 0.2,0.2 0 0 1 0.2,-0.21 h 0.28 a 0.2,0.2 0 0 1 0.2,0.21 v 7.17 l 3.41,-2.49 a 0.48,0.48 0 0 1 0.26,-0.09 h 0.46 c 0.16,0 0.18,0.21 0.05,0.29 l -3.44,2.53 3.86,3.31 a 0.15,0.15 0 0 1 -0.08,0.27 H 489 a 0.45,0.45 0 0 1 -0.32,-0.13 l -3.7,-3.18 v 3.1 c 0,0.13 -0.06,0.21 -0.2,0.21 h -0.31 c -0.11,0 -0.17,-0.09 -0.17,-0.21 z"
           id="path4375-0" />
        <path
           style="fill:#414042"
           class="cls-2"
           d="m 496.42,556.37 a 0.2,0.2 0 0 1 0.2,-0.21 H 503 a 0.21,0.21 0 0 1 0.21,0.21 v 0.27 a 0.2,0.2 0 0 1 -0.21,0.2 h -5.86 v 4.42 h 5.08 a 0.22,0.22 0 0 1 0.21,0.21 v 0.27 a 0.21,0.21 0 0 1 -0.21,0.21 h -5.08 v 4.74 H 503 a 0.21,0.21 0 0 1 0.21,0.21 v 0.25 a 0.21,0.21 0 0 1 -0.21,0.21 h -6.42 a 0.2,0.2 0 0 1 -0.2,-0.21 z"
           id="path4377-4" />
        <path
           style="fill:#414042"
           class="cls-2"
           d="m 506,561.17 a 0.22,0.22 0 0 1 0.23,-0.21 h 0.16 a 0.18,0.18 0 0 1 0.19,0.16 l 0.06,0.69 a 3.4,3.4 0 0 1 2.37,-1 c 1.8,0 2.58,1.14 2.58,2.93 v 3.42 a 0.21,0.21 0 0 1 -0.21,0.21 H 511 a 0.2,0.2 0 0 1 -0.2,-0.21 v -3.42 c 0,-1.47 -0.69,-2.24 -1.91,-2.24 a 3.28,3.28 0 0 0 -2.29,1.1 v 4.56 a 0.19,0.19 0 0 1 -0.21,0.21 h -0.3 a 0.19,0.19 0 0 1 -0.18,-0.21 z"
           id="path4379-5" />
        <path
           style="fill:#414042"
           class="cls-2"
           d="m 517.2,560.8 a 3.22,3.22 0 0 1 2,0.64 v -5.07 a 0.2,0.2 0 0 1 0.21,-0.21 h 0.29 a 0.21,0.21 0 0 1 0.19,0.21 v 10.78 a 0.21,0.21 0 0 1 -0.21,0.21 h -0.16 a 0.2,0.2 0 0 1 -0.22,-0.21 v -0.56 a 3.1,3.1 0 0 1 -2.21,0.93 3.15,3.15 0 0 1 -3,-3.36 3.19,3.19 0 0 1 3.11,-3.36 z m -0.14,6.08 a 2.55,2.55 0 0 0 2.11,-1.13 v -3.59 a 3,3 0 0 0 -1.9,-0.67 2.71,2.71 0 0 0 -0.21,5.39 z"
           id="path4381-4" />
        <path
           style="fill:#414042"
           class="cls-2"
           d="m 523.62,572 a 0.21,0.21 0 0 1 -0.21,0.2 h -0.27 a 0.2,0.2 0 0 1 -0.21,-0.2 v -10.83 a 0.21,0.21 0 0 1 0.22,-0.21 h 0.18 a 0.17,0.17 0 0 1 0.19,0.16 l 0.05,0.45 a 3.24,3.24 0 0 1 2.1,-0.77 3.18,3.18 0 0 1 3.09,3.36 3.22,3.22 0 0 1 -3.24,3.36 2.89,2.89 0 0 1 -1.9,-0.65 z m 1.82,-5.11 a 2.58,2.58 0 0 0 2.61,-2.71 2.5,2.5 0 0 0 -2.43,-2.68 2.57,2.57 0 0 0 -2,0.89 v 3.75 a 2.54,2.54 0 0 0 1.82,0.71 z"
           id="path4383-2" />
        <path
           style="fill:#414042"
           class="cls-2"
           d="m 534.1,560.8 a 3.36,3.36 0 1 1 -3.22,3.34 3.28,3.28 0 0 1 3.22,-3.34 z m 0,6.07 a 2.71,2.71 0 1 0 -2.53,-2.73 2.6,2.6 0 0 0 2.53,2.73 z"
           id="path4385-4" />
        <path
           style="fill:#414042"
           class="cls-2"
           d="m 539.71,557.29 a 0.55,0.55 0 1 1 1.09,0 0.55,0.55 0 0 1 -1.09,0 z m 0.19,3.88 a 0.21,0.21 0 0 1 0.21,-0.21 h 0.29 a 0.21,0.21 0 0 1 0.21,0.21 v 6 a 0.19,0.19 0 0 1 -0.21,0.21 h -0.32 a 0.19,0.19 0 0 1 -0.18,-0.21 z"
           id="path4387-9" />
        <path
           style="fill:#414042"
           class="cls-2"
           d="m 543.68,561.17 a 0.21,0.21 0 0 1 0.22,-0.21 h 0.16 a 0.18,0.18 0 0 1 0.2,0.16 l 0.06,0.69 a 3.4,3.4 0 0 1 2.37,-1 c 1.79,0 2.58,1.14 2.58,2.93 v 3.42 a 0.21,0.21 0 0 1 -0.21,0.21 h -0.29 a 0.21,0.21 0 0 1 -0.21,-0.21 v -3.42 c 0,-1.47 -0.69,-2.24 -1.9,-2.24 a 3.28,3.28 0 0 0 -2.29,1.1 v 4.56 a 0.19,0.19 0 0 1 -0.21,0.21 h -0.3 c -0.12,0 -0.18,-0.09 -0.18,-0.21 z"
           id="path4389-9" />
        <path
           style="fill:#414042"
           class="cls-2"
           d="m 552.51,561.58 h -0.75 c -0.16,0 -0.19,-0.08 -0.19,-0.2 v -0.26 c 0,-0.11 0.08,-0.16 0.19,-0.16 h 0.75 v -1.75 a 0.2,0.2 0 0 1 0.21,-0.2 h 0.27 a 0.22,0.22 0 0 1 0.21,0.21 V 561 h 2.23 a 0.2,0.2 0 0 1 0.2,0.21 v 0.21 a 0.19,0.19 0 0 1 -0.2,0.2 h -2.23 v 4.09 c 0,0.75 0.08,1.16 0.83,1.16 a 3.42,3.42 0 0 0 1.46,-0.43 0.16,0.16 0 0 1 0.26,0.07 l 0.11,0.19 a 0.18,0.18 0 0 1 -0.05,0.27 3.22,3.22 0 0 1 -1.86,0.59 c -1.33,0 -1.44,-0.78 -1.44,-1.81 z"
           id="path4391-9" />
        <path
           style="fill:#414042"
           class="cls-2"
           d="m 433.1,575.37 a 0.21,0.21 0 0 1 0.21,-0.21 h 3.45 a 3.61,3.61 0 0 1 0,7.22 h -2.91 v 3.77 c 0,0.12 -0.1,0.21 -0.26,0.21 h -0.29 a 0.21,0.21 0 0 1 -0.21,-0.21 z m 3.62,6.27 a 2.92,2.92 0 0 0 2.9,-2.91 2.88,2.88 0 0 0 -2.91,-2.82 h -2.85 v 5.73 z"
           id="path4393-4" />
        <path
           style="fill:#414042"
           class="cls-2"
           d="m 442.45,580.17 a 0.21,0.21 0 0 1 0.21,-0.21 h 0.19 a 0.18,0.18 0 0 1 0.19,0.17 l 0.07,0.66 a 2.47,2.47 0 0 1 2,-1 2.63,2.63 0 0 1 1,0.19 c 0.14,0 0.22,0.16 0.17,0.29 l -0.12,0.32 a 0.18,0.18 0 0 1 -0.26,0.08 2.08,2.08 0 0 0 -0.83,-0.19 2.28,2.28 0 0 0 -1.91,1.1 v 4.56 c 0,0.13 -0.06,0.21 -0.2,0.21 h -0.32 c -0.12,0 -0.18,-0.09 -0.18,-0.21 z"
           id="path4395-9" />
        <path
           style="fill:#414042"
           class="cls-2"
           d="m 448.08,576.29 a 0.55,0.55 0 1 1 1.09,0 0.55,0.55 0 0 1 -1.09,0 z m 0.19,3.88 a 0.21,0.21 0 0 1 0.21,-0.21 h 0.29 a 0.21,0.21 0 0 1 0.21,0.21 v 6 a 0.19,0.19 0 0 1 -0.21,0.21 h -0.32 a 0.19,0.19 0 0 1 -0.18,-0.21 z"
           id="path4397-8" />
        <path
           style="fill:#414042"
           class="cls-2"
           d="m 451.1,580.2 c -0.06,-0.13 0,-0.24 0.1,-0.24 h 0.35 a 0.21,0.21 0 0 1 0.21,0.14 l 2.32,5.28 v 0 l 2.33,-5.28 a 0.21,0.21 0 0 1 0.21,-0.14 H 457 c 0.14,0 0.16,0.11 0.09,0.24 l -2.78,6.18 a 0.23,0.23 0 0 1 -0.2,0.14 h -0.06 c -0.1,0 -0.14,0 -0.19,-0.14 z"
           id="path4399-1" />
        <path
           style="fill:#414042"
           class="cls-2"
           d="m 459,576.29 a 0.56,0.56 0 0 1 0.55,-0.56 0.56,0.56 0 0 1 0.54,0.56 0.54,0.54 0 0 1 -0.54,0.53 0.54,0.54 0 0 1 -0.55,-0.53 z m 0.2,3.88 a 0.21,0.21 0 0 1 0.21,-0.21 h 0.28 a 0.21,0.21 0 0 1 0.21,0.21 v 6 a 0.19,0.19 0 0 1 -0.21,0.21 h -0.32 c -0.11,0 -0.17,-0.09 -0.17,-0.21 z"
           id="path4401-6" />
        <path
           style="fill:#414042"
           class="cls-2"
           d="m 463,575.37 a 0.21,0.21 0 0 1 0.21,-0.21 h 0.29 a 0.21,0.21 0 0 1 0.21,0.21 v 10.78 a 0.19,0.19 0 0 1 -0.21,0.21 h -0.32 A 0.19,0.19 0 0 1 463,586.15 Z"
           id="path4403-3" />
        <path
           style="fill:#414042"
           class="cls-2"
           d="m 469.46,579.8 a 2.81,2.81 0 0 1 2.89,2.93 c 0,0.25 0,0.62 -0.24,0.62 H 467 a 2.53,2.53 0 0 0 2.5,2.53 3.43,3.43 0 0 0 1.89,-0.59 c 0.14,-0.1 0.2,-0.11 0.28,0 l 0.16,0.22 c 0.05,0.07 0,0.16 -0.06,0.26 a 3.88,3.88 0 0 1 -2.32,0.75 3.37,3.37 0 0 1 0,-6.72 z m 2.19,3 a 2.15,2.15 0 0 0 -2.19,-2.34 2.38,2.38 0 0 0 -2.44,2.34 z"
           id="path4405-9" />
        <path
           style="fill:#414042"
           class="cls-2"
           d="m 475.28,584.1 a 2.73,2.73 0 0 1 -0.5,-1.6 2.63,2.63 0 0 1 2.81,-2.7 h 2.62 a 0.2,0.2 0 0 1 0.21,0.21 v 0.17 a 0.2,0.2 0 0 1 -0.15,0.2 l -1.15,0.08 a 2.16,2.16 0 0 1 1,2 2.58,2.58 0 0 1 -2.65,2.66 2.48,2.48 0 0 1 -1.75,-0.57 1.3,1.3 0 0 0 -0.81,1.15 c 0,0.75 0.64,0.93 1.26,0.93 h 2.32 c 1.38,0 2.37,0.62 2.37,2 0,1.38 -1.31,2.61 -3.26,2.61 -2.18,0 -3.12,-1.28 -3.12,-2.37 a 2,2 0 0 1 1,-1.68 1.58,1.58 0 0 1 -1.24,-1.45 2,2 0 0 1 1.04,-1.64 z m 2.29,6.57 c 1.44,0 2.54,-0.85 2.54,-1.94 0,-0.74 -0.44,-1.41 -1.63,-1.41 h -2 a 1.75,1.75 0 0 0 -1.3,1.55 c -0.01,0.89 0.82,1.8 2.39,1.8 z m 1.87,-8.18 a 1.9,1.9 0 0 0 -2,-2 2,2 0 0 0 -2,2 2,2 0 1 0 4,0 z"
           id="path4407-3" />
        <path
           style="fill:#414042"
           class="cls-2"
           d="m 485.6,579.8 a 2.82,2.82 0 0 1 2.9,2.93 c 0,0.25 0,0.62 -0.24,0.62 h -5.11 a 2.53,2.53 0 0 0 2.5,2.53 3.4,3.4 0 0 0 1.89,-0.59 c 0.14,-0.1 0.21,-0.11 0.29,0 l 0.16,0.22 c 0,0.07 0,0.16 -0.07,0.26 a 3.85,3.85 0 0 1 -2.32,0.75 3.37,3.37 0 0 1 0,-6.72 z m 2.19,3 a 2.15,2.15 0 0 0 -2.19,-2.34 2.38,2.38 0 0 0 -2.43,2.34 z"
           id="path4409-3" />
        <path
           style="fill:#414042"
           class="cls-2"
           d="m 497,575.11 a 0.16,0.16 0 0 1 0.15,-0.11 h 0.17 a 0.15,0.15 0 0 1 0.16,0.11 l 3.3,9.83 v 0 l 3.32,-9.83 a 0.15,0.15 0 0 1 0.16,-0.11 h 0.17 a 0.16,0.16 0 0 1 0.15,0.11 l 2.27,11 c 0,0.16 0,0.21 -0.18,0.21 h -0.38 a 0.19,0.19 0 0 1 -0.19,-0.17 l -1.81,-9.38 v 0 l -3.29,9.62 a 0.2,0.2 0 0 1 -0.22,0.13 h -0.06 c -0.08,0 -0.18,0 -0.21,-0.13 l -3.24,-9.58 v 0 l -1.81,9.38 a 0.19,0.19 0 0 1 -0.19,0.17 h -0.38 c -0.15,0 -0.21,-0.05 -0.18,-0.21 z"
           id="path4411-4" />
        <path
           style="fill:#414042"
           class="cls-2"
           d="m 511.63,582.23 a 5.41,5.41 0 0 1 1.62,0.29 c 0,-1.41 -0.14,-2.11 -1.41,-2.11 a 4.69,4.69 0 0 0 -1.92,0.43 0.17,0.17 0 0 1 -0.24,-0.13 l -0.08,-0.19 a 0.17,0.17 0 0 1 0.1,-0.24 4.65,4.65 0 0 1 2.19,-0.48 c 2,0 2,1.17 2,2.8 v 3.55 a 0.21,0.21 0 0 1 -0.21,0.21 h -0.19 c -0.11,0 -0.16,-0.06 -0.19,-0.17 l -0.06,-0.58 a 3.38,3.38 0 0 1 -2.23,0.91 2,2 0 0 1 -2.1,-2.13 c 0.03,-1.23 1.09,-2.16 2.72,-2.16 z m -0.51,3.67 a 2.9,2.9 0 0 0 2.13,-1 v -1.76 a 4.33,4.33 0 0 0 -1.62,-0.33 c -1.21,0 -2,0.62 -2,1.57 a 1.45,1.45 0 0 0 1.49,1.52 z"
           id="path4413-6" />
        <path
           style="fill:#414042"
           class="cls-2"
           d="m 516.93,580.17 a 0.21,0.21 0 0 1 0.22,-0.21 h 0.16 a 0.18,0.18 0 0 1 0.2,0.16 l 0.06,0.69 a 3.4,3.4 0 0 1 2.37,-1 c 1.79,0 2.58,1.14 2.58,2.93 v 3.42 a 0.21,0.21 0 0 1 -0.21,0.21 H 522 a 0.21,0.21 0 0 1 -0.21,-0.21 v -3.42 c 0,-1.47 -0.69,-2.24 -1.9,-2.24 a 3.26,3.26 0 0 0 -2.29,1.1 v 4.56 a 0.19,0.19 0 0 1 -0.21,0.21 h -0.31 c -0.11,0 -0.17,-0.09 -0.17,-0.21 z"
           id="path4415-1" />
        <path
           style="fill:#414042"
           class="cls-2"
           d="m 527.67,582.23 a 5.32,5.32 0 0 1 1.61,0.29 c 0,-1.41 -0.14,-2.11 -1.41,-2.11 a 4.74,4.74 0 0 0 -1.92,0.43 c -0.12,0 -0.2,0 -0.24,-0.13 l -0.08,-0.19 c 0,-0.14 0,-0.21 0.1,-0.24 a 4.65,4.65 0 0 1 2.19,-0.48 c 2,0 2,1.17 2,2.8 v 3.55 a 0.2,0.2 0 0 1 -0.2,0.21 h -0.2 c -0.11,0 -0.16,-0.06 -0.19,-0.17 l -0.06,-0.58 a 3.38,3.38 0 0 1 -2.23,0.91 2,2 0 0 1 -2.09,-2.13 c 0.05,-1.23 1.05,-2.16 2.72,-2.16 z m -0.52,3.67 a 2.9,2.9 0 0 0 2.13,-1 v -1.76 a 4.32,4.32 0 0 0 -1.61,-0.33 c -1.22,0 -2,0.62 -2,1.57 a 1.45,1.45 0 0 0 1.48,1.52 z"
           id="path4417-5" />
        <path
           style="fill:#414042"
           class="cls-2"
           d="m 533.36,584.1 a 2.73,2.73 0 0 1 -0.5,-1.6 2.63,2.63 0 0 1 2.81,-2.7 h 2.62 a 0.2,0.2 0 0 1 0.21,0.21 v 0.17 a 0.2,0.2 0 0 1 -0.15,0.2 l -1.15,0.08 a 2.16,2.16 0 0 1 1,2 2.58,2.58 0 0 1 -2.65,2.66 2.48,2.48 0 0 1 -1.75,-0.57 1.3,1.3 0 0 0 -0.81,1.15 c 0,0.75 0.64,0.93 1.26,0.93 h 2.32 c 1.38,0 2.37,0.62 2.37,2 0,1.38 -1.31,2.61 -3.26,2.61 -2.18,0 -3.13,-1.28 -3.13,-2.37 a 2,2 0 0 1 1,-1.68 1.59,1.59 0 0 1 -1.25,-1.45 2,2 0 0 1 1.06,-1.64 z m 2.29,6.57 c 1.44,0 2.54,-0.85 2.54,-1.94 0,-0.74 -0.44,-1.41 -1.63,-1.41 h -2 a 1.74,1.74 0 0 0 -1.29,1.55 c -0.02,0.89 0.83,1.8 2.38,1.8 z m 1.87,-8.18 a 1.9,1.9 0 0 0 -2,-2 2,2 0 0 0 -2,2 1.92,1.92 0 0 0 2,2 1.94,1.94 0 0 0 2,-2 z"
           id="path4419-6" />
        <path
           style="fill:#414042"
           class="cls-2"
           d="m 543.68,579.8 a 2.82,2.82 0 0 1 2.9,2.93 c 0,0.25 0,0.62 -0.24,0.62 h -5.11 a 2.53,2.53 0 0 0 2.5,2.53 3.4,3.4 0 0 0 1.89,-0.59 c 0.14,-0.1 0.21,-0.11 0.29,0 l 0.16,0.22 c 0,0.07 0,0.16 -0.07,0.26 a 3.88,3.88 0 0 1 -2.32,0.75 3.37,3.37 0 0 1 0,-6.72 z m 2.19,3 a 2.15,2.15 0 0 0 -2.19,-2.34 2.38,2.38 0 0 0 -2.43,2.34 z"
           id="path4421-1" />
        <path
           style="fill:#414042"
           class="cls-2"
           d="m 549.1,580.17 a 0.21,0.21 0 0 1 0.21,-0.21 h 0.19 a 0.19,0.19 0 0 1 0.2,0.17 l 0.06,0.66 a 2.47,2.47 0 0 1 2,-1 2.58,2.58 0 0 1 1,0.19 c 0.15,0 0.23,0.16 0.18,0.29 l -0.13,0.32 a 0.17,0.17 0 0 1 -0.25,0.08 2.09,2.09 0 0 0 -0.84,-0.19 2.25,2.25 0 0 0 -1.9,1.1 v 4.56 a 0.19,0.19 0 0 1 -0.21,0.21 h -0.32 a 0.19,0.19 0 0 1 -0.18,-0.21 z"
           id="path4423-7" />
        <path
           style="fill:#414042"
           class="cls-2"
           d="M 445.41,605.17 450.34,594 a 0.22,0.22 0 0 1 0.19,-0.11 h 0.05 a 0.2,0.2 0 0 1 0.21,0.11 l 4.88,11.14 c 0,0.1 0,0.19 -0.15,0.19 h -0.41 a 0.29,0.29 0 0 1 -0.23,-0.14 l -1.29,-3 h -6.12 l -1.28,3 a 0.26,0.26 0 0 1 -0.22,0.14 h -0.45 c -0.11,0.03 -0.16,-0.03 -0.11,-0.16 z m 7.91,-3.52 -2.74,-6.45 v 0 l -2.79,6.45 z"
           id="path4425-2" />
        <path
           style="fill:#414042"
           class="cls-2"
           d="m 460.31,598.8 a 3.21,3.21 0 0 1 2,0.64 v -5.07 a 0.2,0.2 0 0 1 0.21,-0.21 h 0.29 a 0.2,0.2 0 0 1 0.19,0.21 v 10.78 a 0.2,0.2 0 0 1 -0.2,0.21 h -0.16 a 0.21,0.21 0 0 1 -0.23,-0.21 l -0.05,-0.56 a 3.08,3.08 0 0 1 -2.21,0.93 3.15,3.15 0 0 1 -3,-3.36 3.19,3.19 0 0 1 3.16,-3.36 z m -0.15,6.08 a 2.55,2.55 0 0 0 2.11,-1.13 v -3.59 a 3,3 0 0 0 -1.9,-0.67 2.71,2.71 0 0 0 -0.21,5.39 z"
           id="path4427-2" />
        <path
           style="fill:#414042"
           class="cls-2"
           d="m 466,599.17 a 0.21,0.21 0 0 1 0.21,-0.21 h 0.19 a 0.18,0.18 0 0 1 0.18,0.16 l 0.08,0.69 a 2.78,2.78 0 0 1 2.21,-1 2.24,2.24 0 0 1 2.13,1.19 3.21,3.21 0 0 1 2.4,-1.17 c 1.74,0 2.49,1.14 2.49,2.93 v 3.42 a 0.21,0.21 0 0 1 -0.21,0.21 h -0.32 a 0.19,0.19 0 0 1 -0.17,-0.21 v -3.42 c 0,-1.47 -0.64,-2.24 -1.84,-2.24 a 2.71,2.71 0 0 0 -2.11,1.09 4.42,4.42 0 0 1 0.14,1.15 v 3.42 a 0.21,0.21 0 0 1 -0.21,0.21 h -0.3 a 0.19,0.19 0 0 1 -0.19,-0.21 v -3.42 c 0,-1.47 -0.66,-2.24 -1.86,-2.24 a 2.57,2.57 0 0 0 -2.08,1.1 v 4.56 a 0.19,0.19 0 0 1 -0.21,0.21 h -0.32 a 0.19,0.19 0 0 1 -0.18,-0.21 z"
           id="path4429-9" />
        <path
           style="fill:#414042"
           class="cls-2"
           d="m 478.69,595.29 a 0.55,0.55 0 1 1 1.09,0 0.55,0.55 0 0 1 -1.09,0 z m 0.19,3.88 a 0.21,0.21 0 0 1 0.21,-0.21 h 0.29 a 0.21,0.21 0 0 1 0.21,0.21 v 6 a 0.19,0.19 0 0 1 -0.21,0.21 h -0.32 c -0.12,0 -0.18,-0.09 -0.18,-0.21 z"
           id="path4431-2" />
        <path
           style="fill:#414042"
           class="cls-2"
           d="m 482.66,599.17 a 0.21,0.21 0 0 1 0.22,-0.21 H 483 a 0.17,0.17 0 0 1 0.19,0.16 l 0.07,0.69 a 3.4,3.4 0 0 1 2.37,-1 c 1.79,0 2.57,1.14 2.57,2.93 v 3.42 a 0.21,0.21 0 0 1 -0.21,0.21 h -0.28 a 0.21,0.21 0 0 1 -0.21,-0.21 v -3.42 c 0,-1.47 -0.69,-2.24 -1.91,-2.24 a 3.25,3.25 0 0 0 -2.28,1.1 v 4.56 a 0.19,0.19 0 0 1 -0.21,0.21 h -0.31 c -0.11,0 -0.17,-0.09 -0.17,-0.21 z"
           id="path4433-8" />
        <path
           style="fill:#414042"
           class="cls-2"
           d="m 491,595.29 a 0.56,0.56 0 0 1 0.55,-0.56 0.56,0.56 0 0 1 0.54,0.56 0.54,0.54 0 0 1 -0.54,0.53 0.54,0.54 0 0 1 -0.55,-0.53 z m 0.2,3.88 a 0.21,0.21 0 0 1 0.21,-0.21 h 0.28 a 0.21,0.21 0 0 1 0.21,0.21 v 6 a 0.19,0.19 0 0 1 -0.21,0.21 h -0.32 c -0.11,0 -0.17,-0.09 -0.17,-0.21 z"
           id="path4435-1" />
        <path
           style="fill:#414042"
           class="cls-2"
           d="m 494.62,604.58 0.16,-0.26 a 0.19,0.19 0 0 1 0.29,0 2.83,2.83 0 0 0 1.71,0.63 c 0.92,0 1.54,-0.51 1.54,-1.14 0,-0.63 -0.72,-1 -1.79,-1.44 -1.07,-0.44 -2,-0.89 -2,-1.89 0,-0.7 0.62,-1.66 2.1,-1.66 a 3.37,3.37 0 0 1 1.81,0.51 0.23,0.23 0 0 1 0.06,0.31 l -0.1,0.17 a 0.21,0.21 0 0 1 -0.3,0.08 3.05,3.05 0 0 0 -1.47,-0.45 c -1,0 -1.38,0.6 -1.38,1 0,0.64 0.58,0.94 1.52,1.28 1.2,0.45 2.26,0.85 2.26,2 a 2.07,2.07 0 0 1 -2.28,1.77 3.27,3.27 0 0 1 -2.09,-0.72 0.18,0.18 0 0 1 -0.04,-0.19 z"
           id="path4437-2" />
        <path
           style="fill:#414042"
           class="cls-2"
           d="m 501.82,599.58 h -0.75 c -0.16,0 -0.19,-0.08 -0.19,-0.2 v -0.26 c 0,-0.11 0.08,-0.16 0.19,-0.16 h 0.75 v -1.75 a 0.2,0.2 0 0 1 0.21,-0.2 h 0.27 a 0.21,0.21 0 0 1 0.21,0.21 V 599 h 2.23 a 0.2,0.2 0 0 1 0.21,0.21 v 0.21 a 0.19,0.19 0 0 1 -0.21,0.2 h -2.23 v 4.09 c 0,0.75 0.08,1.16 0.84,1.16 a 3.37,3.37 0 0 0 1.45,-0.43 c 0.15,-0.08 0.21,0 0.26,0.07 l 0.11,0.19 a 0.18,0.18 0 0 1 -0.05,0.27 3.18,3.18 0 0 1 -1.85,0.59 c -1.33,0 -1.45,-0.78 -1.45,-1.81 z"
           id="path4439-4" />
        <path
           style="fill:#414042"
           class="cls-2"
           d="m 507.46,599.17 a 0.21,0.21 0 0 1 0.21,-0.21 h 0.19 a 0.19,0.19 0 0 1 0.19,0.17 l 0.06,0.66 a 2.47,2.47 0 0 1 2,-1 2.64,2.64 0 0 1 1,0.19 c 0.14,0 0.22,0.16 0.17,0.29 l -0.13,0.32 c 0,0.11 -0.14,0.13 -0.25,0.08 a 2.08,2.08 0 0 0 -0.83,-0.19 2.28,2.28 0 0 0 -1.91,1.1 v 4.56 a 0.19,0.19 0 0 1 -0.21,0.21 h -0.32 c -0.11,0 -0.17,-0.09 -0.17,-0.21 z"
           id="path4441-7" />
        <path
           style="fill:#414042"
           class="cls-2"
           d="m 515.46,601.23 a 5.32,5.32 0 0 1 1.61,0.29 c 0,-1.41 -0.14,-2.11 -1.4,-2.11 a 4.76,4.76 0 0 0 -1.93,0.43 c -0.12,0 -0.2,0 -0.24,-0.13 l -0.08,-0.19 c 0,-0.14 0,-0.21 0.1,-0.24 a 4.65,4.65 0 0 1 2.19,-0.48 c 2,0 2,1.17 2,2.8 v 3.55 a 0.21,0.21 0 0 1 -0.21,0.21 h -0.19 c -0.12,0 -0.17,-0.06 -0.2,-0.17 l -0.06,-0.58 a 3.38,3.38 0 0 1 -2.23,0.91 2,2 0 0 1 -2.09,-2.13 c 0.04,-1.23 1.05,-2.16 2.73,-2.16 z m -0.52,3.67 a 2.9,2.9 0 0 0 2.13,-1 v -1.76 a 4.27,4.27 0 0 0 -1.61,-0.33 c -1.22,0 -2,0.62 -2,1.57 a 1.45,1.45 0 0 0 1.48,1.52 z"
           id="path4443-8" />
        <path
           style="fill:#414042"
           class="cls-2"
           d="m 521,599.58 h -0.75 c -0.16,0 -0.19,-0.08 -0.19,-0.2 v -0.26 c 0,-0.11 0.08,-0.16 0.19,-0.16 H 521 v -1.75 a 0.2,0.2 0 0 1 0.21,-0.2 h 0.27 a 0.21,0.21 0 0 1 0.21,0.21 V 599 h 2.23 a 0.2,0.2 0 0 1 0.21,0.21 v 0.21 a 0.19,0.19 0 0 1 -0.21,0.2 h -2.23 v 4.09 c 0,0.75 0.08,1.16 0.83,1.16 a 3.42,3.42 0 0 0 1.46,-0.43 c 0.15,-0.08 0.21,0 0.26,0.07 l 0.11,0.19 a 0.18,0.18 0 0 1 0,0.27 3.19,3.19 0 0 1 -1.86,0.59 c -1.32,0 -1.44,-0.78 -1.44,-1.81 z"
           id="path4445-6" />
        <path
           style="fill:#414042"
           class="cls-2"
           d="m 529.39,598.8 a 3.36,3.36 0 1 1 -3.21,3.34 3.29,3.29 0 0 1 3.21,-3.34 z m 0,6.07 a 2.71,2.71 0 1 0 -2.53,-2.73 2.61,2.61 0 0 0 2.53,2.73 z"
           id="path4447-3" />
        <path
           style="fill:#414042"
           class="cls-2"
           d="m 535.2,599.17 a 0.21,0.21 0 0 1 0.21,-0.21 h 0.19 a 0.18,0.18 0 0 1 0.19,0.17 l 0.07,0.66 a 2.47,2.47 0 0 1 2,-1 2.63,2.63 0 0 1 1,0.19 c 0.14,0 0.22,0.16 0.17,0.29 l -0.12,0.32 a 0.18,0.18 0 0 1 -0.26,0.08 2.08,2.08 0 0 0 -0.83,-0.19 2.28,2.28 0 0 0 -1.91,1.1 v 4.56 c 0,0.13 -0.06,0.21 -0.2,0.21 h -0.32 c -0.12,0 -0.18,-0.09 -0.18,-0.21 z"
           id="path4449-7" />
        <path
           style="fill:#616161"
           class="cls-1"
           d="m 65.59,525.29 -4.9,-7.86 V 487 a 4.63,4.63 0 0 0 -4.63,-4.63 H 9.77 A 4.63,4.63 0 0 0 5.14,487 v 30.41 l -4.91,7.88 A 1.53,1.53 0 0 0 0,526.1 v 1 a 5.67,5.67 0 0 0 5.66,5.66 h 54.51 a 5.67,5.67 0 0 0 5.66,-5.66 v -1 a 1.45,1.45 0 0 0 -0.24,-0.81 z M 8.23,487 a 1.55,1.55 0 0 1 1.54,-1.55 h 20.37 l 0.2,1 h 5.15 l 0.2,-1 H 56.06 A 1.55,1.55 0 0 1 57.6,487 v 29.83 H 8.23 Z M 7.86,518.9 H 58 l 4.17,6.69 H 41.06 L 40.63,523 H 25.2 l -0.43,2.57 H 3.68 Z m 54.88,8.23 a 2.57,2.57 0 0 1 -2.57,2.57 H 5.66 a 2.57,2.57 0 0 1 -2.57,-2.57 v -0.51 h 59.65 z"
           id="path4451-7" />
        <path
           style="fill:#616161"
           class="cls-1"
           d="M 10.8,514.79 H 55 V 488.05 H 10.8 Z m 1,-25.72 H 54 v 24.69 H 11.83 Z"
           id="path4453-2" />
        <path
           style="fill:#414042"
           class="cls-2"
           d="m 33.6,556.37 a 0.2,0.2 0 0 1 0.2,-0.21 h 4 a 3.47,3.47 0 0 1 3.57,3.42 3.5,3.5 0 0 1 -2.64,3.35 l 2.27,4.14 c 0.08,0.13 0.05,0.29 -0.11,0.29 h -0.5 a 0.23,0.23 0 0 1 -0.22,-0.14 L 37.89,563 c -0.21,0 -0.39,0 -0.6,0 h -2.94 v 4.11 c 0,0.12 -0.1,0.21 -0.26,0.21 H 33.8 a 0.2,0.2 0 0 1 -0.2,-0.21 z m 4.14,6 a 2.8,2.8 0 0 0 2.84,-2.79 2.77,2.77 0 0 0 -2.85,-2.69 h -3.37 v 5.48 z"
           id="path4455-3" />
        <path
           style="fill:#414042"
           class="cls-2"
           d="m 46.41,560.8 a 2.82,2.82 0 0 1 2.9,2.93 c 0,0.25 0,0.62 -0.24,0.62 H 44 a 2.52,2.52 0 0 0 2.49,2.53 3.37,3.37 0 0 0 1.89,-0.59 c 0.14,-0.1 0.21,-0.11 0.29,0 l 0.16,0.22 c 0.05,0.07 0,0.16 -0.07,0.26 a 3.85,3.85 0 0 1 -2.32,0.75 3.37,3.37 0 0 1 0,-6.72 z m 2.2,3 a 2.16,2.16 0 0 0 -2.2,-2.34 2.38,2.38 0 0 0 -2.41,2.32 z"
           id="path4457-7" />
        <path
           style="fill:#414042"
           class="cls-2"
           d="M 51.84,561.17 A 0.2,0.2 0 0 1 52,561 h 0.2 a 0.17,0.17 0 0 1 0.17,0.16 l 0.08,0.69 a 2.8,2.8 0 0 1 2.21,-1 2.23,2.23 0 0 1 2.14,1.15 3.23,3.23 0 0 1 2.4,-1.17 c 1.74,0 2.5,1.14 2.5,2.93 v 3.42 a 0.21,0.21 0 0 1 -0.21,0.21 h -0.32 a 0.19,0.19 0 0 1 -0.18,-0.21 v -3.42 c 0,-1.47 -0.64,-2.24 -1.84,-2.24 a 2.73,2.73 0 0 0 -2.15,1.06 4.42,4.42 0 0 1 0.14,1.15 v 3.42 a 0.21,0.21 0 0 1 -0.21,0.21 h -0.3 a 0.19,0.19 0 0 1 -0.19,-0.21 v -3.42 c 0,-1.47 -0.66,-2.24 -1.86,-2.24 a 2.57,2.57 0 0 0 -2.08,1.1 v 4.56 a 0.19,0.19 0 0 1 -0.21,0.21 H 52 c -0.11,0 -0.17,-0.09 -0.17,-0.21 z"
           id="path4459-2" />
        <path
           style="fill:#414042"
           class="cls-2"
           d="m 67.42,560.8 a 3.36,3.36 0 1 1 -3.22,3.34 3.29,3.29 0 0 1 3.22,-3.34 z m 0,6.07 a 2.71,2.71 0 1 0 -2.53,-2.73 2.6,2.6 0 0 0 2.53,2.73 z"
           id="path4461-5" />
        <path
           style="fill:#414042"
           class="cls-2"
           d="m 73.5,561.58 h -0.75 c -0.16,0 -0.19,-0.08 -0.19,-0.2 v -0.26 c 0,-0.11 0.08,-0.16 0.19,-0.16 h 0.75 v -1.75 a 0.2,0.2 0 0 1 0.21,-0.2 h 0.27 a 0.22,0.22 0 0 1 0.21,0.21 V 561 h 2.22 a 0.2,0.2 0 0 1 0.21,0.21 v 0.21 a 0.19,0.19 0 0 1 -0.21,0.2 h -2.22 v 4.09 c 0,0.75 0.08,1.16 0.83,1.16 a 3.42,3.42 0 0 0 1.46,-0.43 c 0.14,-0.08 0.2,0 0.25,0.07 l 0.12,0.19 a 0.19,0.19 0 0 1 0,0.27 3.22,3.22 0 0 1 -1.86,0.59 c -1.33,0 -1.44,-0.78 -1.44,-1.81 z"
           id="path4463-3" />
        <path
           style="fill:#414042"
           class="cls-2"
           d="m 81.82,560.8 a 2.82,2.82 0 0 1 2.9,2.93 c 0,0.25 0,0.62 -0.24,0.62 h -5.11 a 2.53,2.53 0 0 0 2.5,2.53 3.4,3.4 0 0 0 1.89,-0.59 c 0.14,-0.1 0.21,-0.11 0.29,0 l 0.16,0.22 c 0,0.07 0,0.16 -0.07,0.26 a 3.88,3.88 0 0 1 -2.32,0.75 3.37,3.37 0 0 1 0,-6.72 z m 2.19,3 a 2.15,2.15 0 0 0 -2.19,-2.34 2.38,2.38 0 0 0 -2.43,2.34 z"
           id="path4465-7" />
        <path
           style="fill:#414042"
           class="cls-2"
           d="m 18.81,575.37 a 0.21,0.21 0 0 1 0.21,-0.21 h 0.35 a 0.21,0.21 0 0 1 0.2,0.21 v 10.32 h 5.1 c 0.19,0 0.21,0.1 0.21,0.21 v 0.29 c 0,0.11 -0.1,0.17 -0.21,0.17 H 19 a 0.21,0.21 0 0 1 -0.21,-0.21 z"
           id="path4467-6" />
        <path
           style="fill:#414042"
           class="cls-2"
           d="m 29,582.23 a 5.41,5.41 0 0 1 1.62,0.29 c 0,-1.41 -0.14,-2.11 -1.41,-2.11 a 4.74,4.74 0 0 0 -1.92,0.43 0.17,0.17 0 0 1 -0.24,-0.13 l -0.08,-0.19 a 0.17,0.17 0 0 1 0.1,-0.24 4.65,4.65 0 0 1 2.19,-0.48 c 1.95,0 2,1.17 2,2.8 v 3.55 a 0.2,0.2 0 0 1 -0.2,0.21 h -0.2 c -0.11,0 -0.16,-0.06 -0.19,-0.17 l -0.06,-0.58 a 3.38,3.38 0 0 1 -2.23,0.91 2,2 0 0 1 -2.1,-2.13 c 0,-1.23 1.01,-2.16 2.72,-2.16 z m -0.51,3.67 a 2.9,2.9 0 0 0 2.13,-1 v -1.76 A 4.33,4.33 0 0 0 29,582.81 c -1.21,0 -2,0.62 -2,1.57 a 1.45,1.45 0 0 0 1.46,1.52 z"
           id="path4469-8" />
        <path
           style="fill:#414042"
           class="cls-2"
           d="m 35,591 a 0.21,0.21 0 0 1 -0.21,0.2 H 34.52 A 0.2,0.2 0 0 1 34.31,591 v -10.83 a 0.21,0.21 0 0 1 0.22,-0.21 h 0.18 a 0.17,0.17 0 0 1 0.19,0.16 v 0.45 a 3.24,3.24 0 0 1 2.1,-0.77 3.18,3.18 0 0 1 3.09,3.36 3.22,3.22 0 0 1 -3.24,3.36 2.92,2.92 0 0 1 -1.9,-0.65 z m 1.82,-5.11 a 2.58,2.58 0 0 0 2.61,-2.71 2.5,2.5 0 0 0 -2.43,-2.72 2.57,2.57 0 0 0 -2,0.89 v 3.75 a 2.54,2.54 0 0 0 1.78,0.75 z"
           id="path4471-1" />
        <path
           style="fill:#414042"
           class="cls-2"
           d="m 43,580.58 h -0.75 c -0.16,0 -0.19,-0.08 -0.19,-0.2 v -0.26 c 0,-0.11 0.08,-0.16 0.19,-0.16 H 43 v -1.75 a 0.2,0.2 0 0 1 0.21,-0.2 h 0.27 a 0.21,0.21 0 0 1 0.21,0.21 V 580 h 2.23 a 0.19,0.19 0 0 1 0.2,0.21 v 0.21 a 0.18,0.18 0 0 1 -0.2,0.2 h -2.26 v 4.09 c 0,0.75 0.08,1.16 0.83,1.16 a 3.42,3.42 0 0 0 1.51,-0.47 0.16,0.16 0 0 1 0.26,0.07 l 0.11,0.19 a 0.18,0.18 0 0 1 0,0.27 3.19,3.19 0 0 1 -1.86,0.59 c -1.32,0 -1.44,-0.78 -1.44,-1.81 z"
           id="path4473-3" />
        <path
           style="fill:#414042"
           class="cls-2"
           d="m 51.34,579.8 a 3.36,3.36 0 1 1 -3.22,3.34 3.29,3.29 0 0 1 3.22,-3.34 z m 0,6.07 a 2.71,2.71 0 1 0 -2.53,-2.73 2.6,2.6 0 0 0 2.53,2.73 z"
           id="path4475-6" />
        <path
           style="fill:#414042"
           class="cls-2"
           d="m 57.84,591 a 0.21,0.21 0 0 1 -0.21,0.2 H 57.36 A 0.2,0.2 0 0 1 57.15,591 v -10.83 a 0.21,0.21 0 0 1 0.22,-0.21 h 0.18 a 0.17,0.17 0 0 1 0.19,0.16 v 0.45 a 3.24,3.24 0 0 1 2.1,-0.77 3.18,3.18 0 0 1 3.16,3.36 3.21,3.21 0 0 1 -3.23,3.36 2.89,2.89 0 0 1 -1.9,-0.65 z m 1.82,-5.11 a 2.58,2.58 0 0 0 2.61,-2.71 2.5,2.5 0 0 0 -2.43,-2.68 2.57,2.57 0 0 0 -2,0.89 v 3.75 a 2.54,2.54 0 0 0 1.82,0.71 z"
           id="path4477-4" />
        <path
           style="fill:#414042"
           class="cls-2"
           d="m 70,575.37 a 0.21,0.21 0 0 1 0.21,-0.21 h 0.34 a 0.21,0.21 0 0 1 0.21,0.21 v 6.83 a 3.44,3.44 0 1 0 6.88,0 v -6.85 c 0,-0.13 0.06,-0.21 0.22,-0.21 h 0.32 a 0.21,0.21 0 0 1 0.21,0.21 v 6.91 a 4.2,4.2 0 1 1 -8.39,0 z"
           id="path4479-0" />
        <path
           style="fill:#414042"
           class="cls-2"
           d="m 81.16,585.58 0.16,-0.26 a 0.19,0.19 0 0 1 0.29,0 2.83,2.83 0 0 0 1.71,0.63 c 0.92,0 1.54,-0.51 1.54,-1.14 0,-0.63 -0.72,-1 -1.79,-1.44 -1.07,-0.44 -2,-0.89 -2,-1.89 0,-0.7 0.62,-1.66 2.1,-1.66 a 3.37,3.37 0 0 1 1.81,0.51 0.24,0.24 0 0 1 0.06,0.31 l -0.1,0.17 a 0.21,0.21 0 0 1 -0.3,0.08 3.05,3.05 0 0 0 -1.47,-0.45 c -1,0 -1.38,0.6 -1.38,1 0,0.64 0.58,0.94 1.52,1.28 1.2,0.45 2.26,0.85 2.26,2 a 2.07,2.07 0 0 1 -2.28,1.77 3.27,3.27 0 0 1 -2.09,-0.72 0.18,0.18 0 0 1 -0.04,-0.19 z"
           id="path4481-3" />
        <path
           style="fill:#414042"
           class="cls-2"
           d="m 90.78,579.8 a 2.82,2.82 0 0 1 2.9,2.93 c 0,0.25 0,0.62 -0.24,0.62 h -5.11 a 2.53,2.53 0 0 0 2.5,2.53 3.4,3.4 0 0 0 1.89,-0.59 c 0.14,-0.1 0.21,-0.11 0.29,0 l 0.16,0.22 c 0,0.07 0,0.16 -0.07,0.26 a 3.88,3.88 0 0 1 -2.32,0.75 3.37,3.37 0 0 1 0,-6.72 z m 2.19,3 a 2.15,2.15 0 0 0 -2.19,-2.34 2.38,2.38 0 0 0 -2.43,2.34 z"
           id="path4483-5" />
        <path
           style="fill:#414042"
           class="cls-2"
           d="m 96.2,580.17 a 0.21,0.21 0 0 1 0.21,-0.21 h 0.19 a 0.19,0.19 0 0 1 0.2,0.17 l 0.06,0.66 a 2.47,2.47 0 0 1 2,-1 2.58,2.58 0 0 1 1,0.19 c 0.15,0 0.23,0.16 0.18,0.29 l -0.13,0.32 a 0.17,0.17 0 0 1 -0.25,0.08 2.09,2.09 0 0 0 -0.84,-0.19 2.25,2.25 0 0 0 -1.9,1.1 v 4.56 a 0.19,0.19 0 0 1 -0.21,0.21 h -0.32 a 0.19,0.19 0 0 1 -0.18,-0.21 z"
           id="path4485-8" />
        <path
           style="fill:#414042"
           class="cls-2"
           d="m 254.19,317.87 a 0.21,0.21 0 0 1 0.21,-0.21 h 0.35 a 0.21,0.21 0 0 1 0.21,0.21 v 10.78 a 0.22,0.22 0 0 1 -0.23,0.21 h -0.33 a 0.21,0.21 0 0 1 -0.21,-0.21 z"
           id="path4487-5" />
        <path
           style="fill:#414042"
           class="cls-2"
           d="m 258.29,322.67 a 0.21,0.21 0 0 1 0.22,-0.21 h 0.16 a 0.17,0.17 0 0 1 0.19,0.16 l 0.07,0.69 a 3.38,3.38 0 0 1 2.37,-1 c 1.79,0 2.57,1.14 2.57,2.93 v 3.42 a 0.21,0.21 0 0 1 -0.21,0.21 h -0.28 a 0.21,0.21 0 0 1 -0.21,-0.21 v -3.42 c 0,-1.47 -0.69,-2.24 -1.91,-2.24 a 3.31,3.31 0 0 0 -2.29,1.1 v 4.56 c 0,0.13 -0.06,0.21 -0.2,0.21 h -0.31 c -0.11,0 -0.17,-0.09 -0.17,-0.21 z"
           id="path4489-0" />
        <path
           style="fill:#414042"
           class="cls-2"
           d="m 267.12,323.08 h -0.75 c -0.16,0 -0.2,-0.08 -0.2,-0.2 v -0.26 c 0,-0.11 0.08,-0.16 0.2,-0.16 h 0.75 v -1.75 a 0.2,0.2 0 0 1 0.21,-0.2 h 0.27 a 0.22,0.22 0 0 1 0.21,0.21 v 1.76 H 270 a 0.2,0.2 0 0 1 0.21,0.21 v 0.21 a 0.19,0.19 0 0 1 -0.21,0.2 h -2.22 v 4.09 c 0,0.75 0.08,1.16 0.83,1.16 a 3.42,3.42 0 0 0 1.46,-0.43 c 0.14,-0.08 0.2,0 0.25,0.07 l 0.11,0.19 a 0.18,0.18 0 0 1 0,0.27 3.22,3.22 0 0 1 -1.86,0.59 c -1.33,0 -1.44,-0.78 -1.44,-1.81 z"
           id="path4491-9" />
        <path
           style="fill:#414042"
           class="cls-2"
           d="m 275.44,322.3 a 2.82,2.82 0 0 1 2.9,2.93 c 0,0.25 0,0.62 -0.24,0.62 H 273 a 2.53,2.53 0 0 0 2.5,2.53 3.4,3.4 0 0 0 1.89,-0.59 c 0.14,-0.1 0.2,-0.11 0.28,0 l 0.16,0.22 c 0.05,0.07 0,0.16 -0.06,0.26 a 3.88,3.88 0 0 1 -2.32,0.75 3.37,3.37 0 0 1 0,-6.72 z m 2.19,3 a 2.15,2.15 0 0 0 -2.19,-2.34 2.38,2.38 0 0 0 -2.43,2.34 z"
           id="path4493-9" />
        <path
           style="fill:#414042"
           class="cls-2"
           d="m 280.86,322.67 a 0.21,0.21 0 0 1 0.21,-0.21 h 0.19 a 0.18,0.18 0 0 1 0.19,0.17 l 0.07,0.66 a 2.47,2.47 0 0 1 2,-1 2.63,2.63 0 0 1 1,0.19 0.24,0.24 0 0 1 0.18,0.29 l -0.13,0.32 a 0.18,0.18 0 0 1 -0.26,0.08 2.08,2.08 0 0 0 -0.83,-0.19 2.23,2.23 0 0 0 -1.9,1.1 v 4.56 a 0.19,0.19 0 0 1 -0.21,0.21 H 281 a 0.19,0.19 0 0 1 -0.18,-0.21 z"
           id="path4495-8" />
        <path
           style="fill:#414042"
           class="cls-2"
           d="m 286.69,322.67 a 0.21,0.21 0 0 1 0.22,-0.21 h 0.16 a 0.17,0.17 0 0 1 0.19,0.16 l 0.07,0.69 a 3.35,3.35 0 0 1 2.36,-1 c 1.8,0 2.58,1.14 2.58,2.93 v 3.42 a 0.21,0.21 0 0 1 -0.21,0.21 h -0.28 a 0.21,0.21 0 0 1 -0.21,-0.21 v -3.42 c 0,-1.47 -0.69,-2.24 -1.91,-2.24 a 3.31,3.31 0 0 0 -2.29,1.1 v 4.56 c 0,0.13 -0.06,0.21 -0.2,0.21 h -0.31 c -0.11,0 -0.17,-0.09 -0.17,-0.21 z"
           id="path4497-0" />
        <path
           style="fill:#414042"
           class="cls-2"
           d="m 297.93,322.3 a 2.82,2.82 0 0 1 2.9,2.93 c 0,0.25 0,0.62 -0.24,0.62 h -5.1 a 2.52,2.52 0 0 0 2.49,2.53 3.37,3.37 0 0 0 1.89,-0.59 c 0.15,-0.1 0.21,-0.11 0.29,0 l 0.16,0.22 c 0.05,0.07 0,0.16 -0.06,0.26 a 3.91,3.91 0 0 1 -2.33,0.75 3.37,3.37 0 0 1 0,-6.72 z m 2.2,3 a 2.16,2.16 0 0 0 -2.2,-2.34 2.38,2.38 0 0 0 -2.43,2.34 z"
           id="path4499-2" />
        <path
           style="fill:#414042"
           class="cls-2"
           d="m 303.63,323.08 h -0.75 c -0.16,0 -0.2,-0.08 -0.2,-0.2 v -0.26 c 0,-0.11 0.09,-0.16 0.2,-0.16 h 0.75 v -1.75 a 0.2,0.2 0 0 1 0.21,-0.2 h 0.27 a 0.22,0.22 0 0 1 0.21,0.21 v 1.76 h 2.22 a 0.2,0.2 0 0 1 0.21,0.21 v 0.21 a 0.19,0.19 0 0 1 -0.21,0.2 h -2.22 v 4.09 c 0,0.75 0.08,1.16 0.83,1.16 a 3.42,3.42 0 0 0 1.46,-0.43 c 0.14,-0.08 0.2,0 0.25,0.07 l 0.11,0.19 a 0.18,0.18 0 0 1 0,0.27 3.22,3.22 0 0 1 -1.86,0.59 c -1.33,0 -1.44,-0.78 -1.44,-1.81 z"
           id="path4501-4" />
        <path
           style="fill:#616161"
           class="cls-1"
           d="M 288.94,480.4 H 245 a 5.76,5.76 0 0 0 -5.76,5.76 v 31 a 5.76,5.76 0 0 0 5.76,5.76 h 14.76 v 4.74 h -6.42 a 1.44,1.44 0 1 0 0,2.88 h 27.23 a 1.44,1.44 0 1 0 0,-2.88 h -6.41 v -4.74 h 14.76 a 5.77,5.77 0 0 0 5.76,-5.76 v -31 a 5.77,5.77 0 0 0 -5.74,-5.76 z m -17.64,47.16 h -8.64 v -4.68 h 8.64 z m 20.52,-10.44 A 2.89,2.89 0 0 1 288.94,520 H 245 a 2.88,2.88 0 0 1 -2.88,-2.88 v -31 a 2.88,2.88 0 0 1 2.88,-2.88 h 43.92 a 2.89,2.89 0 0 1 2.88,2.88 z"
           id="path4503-9" />
        <circle
           style="fill:#616161"
           class="cls-1"
           cx="309.64001"
           cy="512.85999"
           r="1.8"
           id="circle4505-0" />
        <path
           style="fill:#616161"
           class="cls-1"
           d="m 314,487.66 h -8.64 v 7.2 H 314 Z m -1.44,5.76 h -5.76 v -4.32 h 5.76 z"
           id="path4507-1" />
        <path
           style="fill:#616161"
           class="cls-1"
           d="m 309.64,503.14 a 2.88,2.88 0 1 0 2.88,2.88 2.88,2.88 0 0 0 -2.88,-2.88 z m 0,4.32 a 1.44,1.44 0 1 1 1.44,-1.44 1.45,1.45 0 0 1 -1.44,1.44 z"
           id="path4509-2" />
        <path
           style="fill:#616161"
           class="cls-1"
           d="m 315.4,480.1 h -11.52 a 5.77,5.77 0 0 0 -5.76,5.76 v 38.88 a 5.77,5.77 0 0 0 5.76,5.76 h 11.52 a 5.76,5.76 0 0 0 5.76,-5.76 v -38.88 a 5.76,5.76 0 0 0 -5.76,-5.76 z m -11.52,2.9 h 11.52 a 2.88,2.88 0 0 1 2.88,2.88 v 35.28 H 301 v -35.3 a 2.88,2.88 0 0 1 2.88,-2.86 z m 11.52,44.64 H 303.88 A 2.88,2.88 0 0 1 301,524.76 v -2.16 h 17.28 v 2.16 a 2.88,2.88 0 0 1 -2.88,2.86 z"
           id="path4511-0" />
        <path
           style="fill:#616161"
           class="cls-1"
           d="m 245.38,516.58 h 43.2 v -30.24 h -43.2 z m 1.44,-28.8 h 40.32 v 27.36 h -40.32 z"
           id="path4513-0" />
        <path
           style="fill:#414042"
           class="cls-2"
           d="m 199.43,556 a 5.45,5.45 0 0 1 3.89,1.49 0.19,0.19 0 0 1 0,0.28 l -0.26,0.28 c -0.09,0.09 -0.17,0.08 -0.27,0 a 5,5 0 1 0 -3.38,8.77 5.07,5.07 0 0 0 3.38,-1.34 0.2,0.2 0 0 1 0.26,0 l 0.27,0.27 a 0.18,0.18 0 0 1 0,0.27 5.52,5.52 0 0 1 -3.91,1.55 5.76,5.76 0 1 1 0,-11.52 z"
           id="path4515-6" />
        <path
           style="fill:#414042"
           class="cls-2"
           d="m 208.65,560.8 a 3.36,3.36 0 1 1 -3.22,3.34 3.29,3.29 0 0 1 3.22,-3.34 z m 0,6.07 a 2.71,2.71 0 1 0 -2.53,-2.73 2.6,2.6 0 0 0 2.53,2.73 z"
           id="path4517-3" />
        <path
           style="fill:#414042"
           class="cls-2"
           d="m 214.46,561.17 a 0.2,0.2 0 0 1 0.2,-0.21 h 0.19 a 0.19,0.19 0 0 1 0.2,0.17 l 0.06,0.66 a 2.47,2.47 0 0 1 2,-1 2.58,2.58 0 0 1 1,0.19 c 0.15,0 0.23,0.16 0.18,0.29 l -0.13,0.32 a 0.17,0.17 0 0 1 -0.25,0.08 2.09,2.09 0 0 0 -0.84,-0.19 2.27,2.27 0 0 0 -1.9,1.1 v 4.56 a 0.19,0.19 0 0 1 -0.21,0.21 h -0.32 c -0.11,0 -0.17,-0.09 -0.17,-0.21 z"
           id="path4519-9" />
        <path
           style="fill:#414042"
           class="cls-2"
           d="m 221,572 a 0.21,0.21 0 0 1 -0.21,0.2 h -0.27 a 0.2,0.2 0 0 1 -0.21,-0.2 v -10.83 a 0.21,0.21 0 0 1 0.22,-0.21 h 0.18 a 0.17,0.17 0 0 1 0.19,0.16 v 0.45 a 3.24,3.24 0 0 1 2.1,-0.77 3.18,3.18 0 0 1 3.08,3.36 3.21,3.21 0 0 1 -3.23,3.36 2.92,2.92 0 0 1 -1.9,-0.65 z m 1.82,-5.11 a 2.57,2.57 0 0 0 2.61,-2.71 2.49,2.49 0 0 0 -2.43,-2.68 2.57,2.57 0 0 0 -2,0.89 v 3.75 a 2.54,2.54 0 0 0 1.79,0.71 z"
           id="path4521-0" />
        <path
           style="fill:#414042"
           class="cls-2"
           d="m 231.45,560.8 a 3.36,3.36 0 1 1 -3.22,3.34 3.29,3.29 0 0 1 3.22,-3.34 z m 0,6.07 a 2.71,2.71 0 1 0 -2.53,-2.73 2.6,2.6 0 0 0 2.53,2.73 z"
           id="path4523-8" />
        <path
           style="fill:#414042"
           class="cls-2"
           d="m 237.26,561.17 a 0.2,0.2 0 0 1 0.2,-0.21 h 0.2 a 0.19,0.19 0 0 1 0.19,0.17 l 0.06,0.66 a 2.47,2.47 0 0 1 2,-1 2.64,2.64 0 0 1 1,0.19 c 0.14,0 0.22,0.16 0.17,0.29 l -0.13,0.32 c 0,0.11 -0.14,0.13 -0.25,0.08 a 2.09,2.09 0 0 0 -0.84,-0.19 2.27,2.27 0 0 0 -1.9,1.1 v 4.56 a 0.19,0.19 0 0 1 -0.21,0.21 h -0.32 c -0.11,0 -0.17,-0.09 -0.17,-0.21 z"
           id="path4525-3" />
        <path
           style="fill:#414042"
           class="cls-2"
           d="m 245.26,563.23 a 5.32,5.32 0 0 1 1.61,0.29 c 0,-1.41 -0.14,-2.11 -1.41,-2.11 a 4.74,4.74 0 0 0 -1.92,0.43 c -0.12,0 -0.2,0 -0.24,-0.13 l -0.08,-0.19 c 0,-0.14 0,-0.21 0.1,-0.24 a 4.65,4.65 0 0 1 2.19,-0.48 c 2,0 2,1.17 2,2.8 v 3.55 a 0.2,0.2 0 0 1 -0.2,0.21 h -0.2 c -0.11,0 -0.16,-0.06 -0.19,-0.17 l -0.06,-0.58 a 3.38,3.38 0 0 1 -2.23,0.91 2,2 0 0 1 -2.09,-2.13 c 0.03,-1.23 1.04,-2.16 2.72,-2.16 z m -0.52,3.67 a 2.9,2.9 0 0 0 2.13,-1 v -1.76 a 4.32,4.32 0 0 0 -1.61,-0.33 c -1.22,0 -2,0.62 -2,1.57 a 1.45,1.45 0 0 0 1.48,1.52 z"
           id="path4527-8" />
        <path
           style="fill:#414042"
           class="cls-2"
           d="m 250.82,561.58 h -0.75 c -0.16,0 -0.19,-0.08 -0.19,-0.2 v -0.26 c 0,-0.11 0.08,-0.16 0.19,-0.16 h 0.75 v -1.75 a 0.2,0.2 0 0 1 0.21,-0.2 h 0.27 a 0.21,0.21 0 0 1 0.21,0.21 V 561 h 2.23 a 0.2,0.2 0 0 1 0.2,0.21 v 0.21 a 0.19,0.19 0 0 1 -0.2,0.2 h -2.23 v 4.09 c 0,0.75 0.08,1.16 0.83,1.16 a 3.42,3.42 0 0 0 1.46,-0.43 0.16,0.16 0 0 1 0.26,0.07 l 0.11,0.19 a 0.18,0.18 0 0 1 0,0.27 3.19,3.19 0 0 1 -1.86,0.59 c -1.33,0 -1.44,-0.78 -1.44,-1.81 z"
           id="path4529-7" />
        <path
           style="fill:#414042"
           class="cls-2"
           d="m 259.14,560.8 a 2.82,2.82 0 0 1 2.9,2.93 c 0,0.25 0,0.62 -0.24,0.62 h -5.11 a 2.53,2.53 0 0 0 2.5,2.53 3.37,3.37 0 0 0 1.89,-0.59 c 0.14,-0.1 0.21,-0.11 0.29,0 l 0.16,0.22 c 0.05,0.07 0,0.16 -0.07,0.26 a 3.85,3.85 0 0 1 -2.32,0.75 3.37,3.37 0 0 1 0,-6.72 z m 2.2,3 a 2.16,2.16 0 0 0 -2.2,-2.34 2.38,2.38 0 0 0 -2.43,2.34 z"
           id="path4531-3" />
        <path
           style="fill:#414042"
           class="cls-2"
           d="m 269.16,556.37 a 0.21,0.21 0 0 1 0.19,-0.21 h 3.39 a 5.6,5.6 0 1 1 0,11.2 h -3.39 a 0.21,0.21 0 0 1 -0.19,-0.21 z m 3.46,10.3 a 4.92,4.92 0 1 0 0,-9.83 h -2.71 v 9.83 z"
           id="path4533-1" />
        <path
           style="fill:#414042"
           class="cls-2"
           d="m 283.66,560.8 a 2.81,2.81 0 0 1 2.89,2.93 c 0,0.25 0,0.62 -0.24,0.62 h -5.1 a 2.52,2.52 0 0 0 2.49,2.53 3.37,3.37 0 0 0 1.89,-0.59 c 0.15,-0.1 0.21,-0.11 0.29,0 l 0.16,0.22 c 0,0.07 0,0.16 -0.06,0.26 a 3.88,3.88 0 0 1 -2.32,0.75 3.37,3.37 0 0 1 0,-6.72 z m 2.19,3 a 2.15,2.15 0 0 0 -2.19,-2.34 2.38,2.38 0 0 0 -2.44,2.34 z"
           id="path4535-0" />
        <path
           style="fill:#414042"
           class="cls-2"
           d="m 288.71,566.58 0.16,-0.26 a 0.19,0.19 0 0 1 0.29,0 2.83,2.83 0 0 0 1.71,0.63 c 0.91,0 1.54,-0.51 1.54,-1.14 0,-0.63 -0.72,-1 -1.8,-1.44 -1.08,-0.44 -2,-0.89 -2,-1.89 a 1.85,1.85 0 0 1 2.09,-1.66 3.37,3.37 0 0 1 1.81,0.51 0.23,0.23 0 0 1 0.07,0.31 l -0.1,0.17 a 0.21,0.21 0 0 1 -0.3,0.08 3.15,3.15 0 0 0 -1.48,-0.45 c -1,0 -1.37,0.6 -1.37,1 0,0.64 0.57,0.94 1.52,1.28 1.2,0.45 2.25,0.85 2.25,2 a 2.06,2.06 0 0 1 -2.27,1.77 3.3,3.3 0 0 1 -2.1,-0.72 0.17,0.17 0 0 1 -0.02,-0.19 z"
           id="path4537-0" />
        <path
           style="fill:#414042"
           class="cls-2"
           d="m 295.64,556.37 a 0.21,0.21 0 0 1 0.21,-0.21 h 0.27 a 0.21,0.21 0 0 1 0.21,0.21 v 7.17 l 3.41,-2.49 A 0.43,0.43 0 0 1 300,561 h 0.47 c 0.16,0 0.17,0.21 0,0.29 l -3.44,2.53 3.86,3.31 a 0.15,0.15 0 0 1 -0.08,0.27 h -0.49 a 0.45,0.45 0 0 1 -0.33,-0.13 l -3.69,-3.18 v 3.1 a 0.19,0.19 0 0 1 -0.21,0.21 h -0.31 c -0.11,0 -0.17,-0.09 -0.17,-0.21 z"
           id="path4539-5" />
        <path
           style="fill:#414042"
           class="cls-2"
           d="m 303.4,561.58 h -0.75 c -0.16,0 -0.2,-0.08 -0.2,-0.2 v -0.26 c 0,-0.11 0.08,-0.16 0.2,-0.16 h 0.75 v -1.75 a 0.2,0.2 0 0 1 0.21,-0.2 h 0.27 a 0.22,0.22 0 0 1 0.21,0.21 V 561 h 2.22 a 0.2,0.2 0 0 1 0.21,0.21 v 0.21 a 0.19,0.19 0 0 1 -0.21,0.2 h -2.22 v 4.09 c 0,0.75 0.08,1.16 0.83,1.16 a 3.42,3.42 0 0 0 1.46,-0.43 c 0.14,-0.08 0.2,0 0.25,0.07 l 0.11,0.19 a 0.18,0.18 0 0 1 0,0.27 3.22,3.22 0 0 1 -1.86,0.59 c -1.33,0 -1.44,-0.78 -1.44,-1.81 z"
           id="path4541-0" />
        <path
           style="fill:#414042"
           class="cls-2"
           d="m 311.77,560.8 a 3.36,3.36 0 1 1 -3.22,3.34 3.28,3.28 0 0 1 3.22,-3.34 z m 0,6.07 a 2.71,2.71 0 1 0 -2.53,-2.73 2.6,2.6 0 0 0 2.53,2.73 z"
           id="path4543-3" />
        <path
           style="fill:#414042"
           class="cls-2"
           d="m 318.26,572 a 0.2,0.2 0 0 1 -0.21,0.2 h -0.27 a 0.21,0.21 0 0 1 -0.21,-0.2 v -10.83 a 0.22,0.22 0 0 1 0.23,-0.21 h 0.2 a 0.18,0.18 0 0 1 0.2,0.16 v 0.45 a 3.27,3.27 0 0 1 2.1,-0.77 3.18,3.18 0 0 1 3.09,3.36 3.21,3.21 0 0 1 -3.23,3.36 3,3 0 0 1 -1.91,-0.65 z m 1.83,-5.11 a 2.58,2.58 0 0 0 2.61,-2.71 2.5,2.5 0 0 0 -2.44,-2.68 2.57,2.57 0 0 0 -2,0.89 v 3.75 a 2.51,2.51 0 0 0 1.83,0.71 z"
           id="path4545-1" />
        <path
           style="fill:#414042"
           class="cls-2"
           d="m 330.47,556.37 a 0.21,0.21 0 0 1 0.21,-0.21 H 331 a 0.2,0.2 0 0 1 0.2,0.21 v 6.83 a 3.44,3.44 0 1 0 6.88,0 v -6.85 c 0,-0.13 0.07,-0.21 0.23,-0.21 h 0.32 a 0.21,0.21 0 0 1 0.21,0.21 v 6.91 a 4.2,4.2 0 1 1 -8.39,0 z"
           id="path4547-8" />
        <path
           style="fill:#414042"
           class="cls-2"
           d="m 341.59,566.58 0.16,-0.26 a 0.19,0.19 0 0 1 0.29,0 2.8,2.8 0 0 0 1.71,0.63 c 0.91,0 1.54,-0.51 1.54,-1.14 0,-0.63 -0.72,-1 -1.8,-1.44 -1.08,-0.44 -2,-0.89 -2,-1.89 a 1.86,1.86 0 0 1 2.1,-1.66 3.37,3.37 0 0 1 1.81,0.51 0.23,0.23 0 0 1 0.07,0.31 l -0.1,0.17 a 0.21,0.21 0 0 1 -0.3,0.08 3.15,3.15 0 0 0 -1.48,-0.45 c -1,0 -1.37,0.6 -1.37,1 0,0.64 0.57,0.94 1.52,1.28 1.2,0.45 2.25,0.85 2.25,2 a 2.06,2.06 0 0 1 -2.27,1.77 3.3,3.3 0 0 1 -2.1,-0.72 0.17,0.17 0 0 1 -0.03,-0.19 z"
           id="path4549-2-0" />
        <path
           style="fill:#414042"
           class="cls-2"
           d="m 351.21,560.8 a 2.81,2.81 0 0 1 2.89,2.93 c 0,0.25 0,0.62 -0.24,0.62 h -5.1 a 2.52,2.52 0 0 0 2.49,2.53 3.37,3.37 0 0 0 1.89,-0.59 c 0.15,-0.1 0.21,-0.11 0.29,0 l 0.16,0.22 c 0.05,0.07 0,0.16 -0.06,0.26 a 3.88,3.88 0 0 1 -2.32,0.75 3.37,3.37 0 0 1 0,-6.72 z m 2.19,3 a 2.15,2.15 0 0 0 -2.19,-2.34 2.38,2.38 0 0 0 -2.44,2.34 z"
           id="path4551-0-1" />
        <path
           style="fill:#414042"
           class="cls-2"
           d="m 356.63,561.17 a 0.21,0.21 0 0 1 0.21,-0.21 H 357 a 0.18,0.18 0 0 1 0.19,0.17 l 0.07,0.66 a 2.47,2.47 0 0 1 2,-1 2.63,2.63 0 0 1 1,0.19 c 0.14,0 0.22,0.16 0.17,0.29 l -0.12,0.32 a 0.18,0.18 0 0 1 -0.26,0.08 2.08,2.08 0 0 0 -0.83,-0.19 2.28,2.28 0 0 0 -1.91,1.1 v 4.56 c 0,0.13 -0.06,0.21 -0.2,0.21 h -0.32 c -0.12,0 -0.18,-0.09 -0.18,-0.21 z"
           id="path4553-6-7" />
        <path
           style="fill:#414042"
           class="cls-2"
           d="m 362.09,566.58 0.16,-0.26 a 0.18,0.18 0 0 1 0.28,0 2.84,2.84 0 0 0 1.72,0.63 c 0.91,0 1.53,-0.51 1.53,-1.14 0,-0.63 -0.72,-1 -1.79,-1.44 -1.07,-0.44 -2,-0.89 -2,-1.89 a 1.86,1.86 0 0 1 2.1,-1.66 3.37,3.37 0 0 1 1.81,0.51 0.23,0.23 0 0 1 0.06,0.31 l -0.09,0.17 a 0.22,0.22 0 0 1 -0.31,0.08 3.05,3.05 0 0 0 -1.47,-0.45 c -1,0 -1.38,0.6 -1.38,1 0,0.64 0.58,0.94 1.52,1.28 1.2,0.45 2.26,0.85 2.26,2 a 2.06,2.06 0 0 1 -2.27,1.77 3.28,3.28 0 0 1 -2.1,-0.72 0.17,0.17 0 0 1 -0.03,-0.19 z"
           id="path4555-8-9" />
        <path
           style="fill:#616161"
           class="cls-1"
           d="m 312.77,0 h -65.13 a 3.92,3.92 0 0 0 -3.91,3.92 v 88 a 3.92,3.92 0 0 0 3.91,3.92 h 4.78 v 6 a 1,1 0 0 0 1,1 h 15.73 a 1,1 0 0 0 1,-1 v -6 h 20 v 6 a 1,1 0 0 0 1,1 H 307 a 1,1 0 0 0 1,-1 v -6 h 4.77 a 3.93,3.93 0 0 0 3.92,-3.92 v -88 A 3.93,3.93 0 0 0 312.77,0 Z m -44.61,100.83 h -13.67 v -5 h 13.67 z m 37.77,0 h -13.67 v -5 h 13.67 z"
           id="path4557-9-1" />
        <rect
           style="fill:#ffffff;stroke:#6aa845;stroke-width:2px;stroke-miterlimit:10"
           class="cls-3"
           x="247.44"
           y="34.790001"
           width="65.529999"
           height="26.26"
           id="rect4559-0" />
        <path
           style="fill:#ffffff;stroke:#4d8fcc;stroke-width:2px;stroke-miterlimit:10"
           class="cls-4"
           d="m 247.64,3.72 h 65.13 a 0.2,0.2 0 0 1 0.2,0.2 V 30.73 H 247.44 V 3.92 a 0.2,0.2 0 0 1 0.2,-0.2 z"
           id="path4561-3" />
        <path
           style="fill:#ffffff;stroke:#ffb71b;stroke-width:2px;stroke-miterlimit:10"
           class="cls-5"
           d="m 312.77,92.13 h -65.13 a 0.2,0.2 0 0 1 -0.2,-0.2 V 65.12 H 313 v 26.81 a 0.2,0.2 0 0 1 -0.23,0.2 z"
           id="path4563-5" />
        <path
           style="fill:#616161"
           class="cls-1"
           d="m 261.32,42.17 a 5.76,5.76 0 1 0 5.76,5.75 5.76,5.76 0 0 0 -5.76,-5.75 z m 0,9.44 a 3.69,3.69 0 1 1 3.68,-3.69 3.69,3.69 0 0 1 -3.68,3.69 z"
           id="path4565-9" />
        <path
           style="fill:#616161"
           class="cls-1"
           d="m 261.32,23.35 a 5.76,5.76 0 1 0 -5.75,-5.75 5.76,5.76 0 0 0 5.75,5.75 z m 0,-9.44 a 3.69,3.69 0 1 1 -3.68,3.69 3.69,3.69 0 0 1 3.68,-3.69 z"
           id="path4567-4" />
        <path
           style="fill:#616161"
           class="cls-1"
           d="m 261.32,72.5 a 5.76,5.76 0 1 0 5.76,5.75 5.76,5.76 0 0 0 -5.76,-5.75 z m 0,9.44 a 3.69,3.69 0 1 1 3.68,-3.69 3.69,3.69 0 0 1 -3.68,3.69 z"
           id="path4569-8" />
        <circle
           style="fill:#616161"
           class="cls-1"
           cx="302.23999"
           cy="47.919998"
           r="2.6099999"
           id="circle4571-4" />
        <circle
           style="fill:#616161"
           class="cls-1"
           cx="292.79999"
           cy="47.919998"
           r="2.6099999"
           id="circle4573-6" />
        <circle
           style="fill:#616161"
           class="cls-1"
           cx="283.35999"
           cy="47.919998"
           r="2.6099999"
           id="circle4575-9" />
        <path
           style="fill:#616161"
           class="cls-1"
           d="m 302.24,20.2 a 2.61,2.61 0 1 0 -2.6,-2.6 2.61,2.61 0 0 0 2.6,2.6 z"
           id="path4577-2" />
        <path
           style="fill:#616161"
           class="cls-1"
           d="m 292.8,20.2 a 2.61,2.61 0 1 0 -2.61,-2.6 2.61,2.61 0 0 0 2.61,2.6 z"
           id="path4579-9" />
        <path
           style="fill:#616161"
           class="cls-1"
           d="m 283.36,20.2 a 2.61,2.61 0 1 0 -2.61,-2.6 2.61,2.61 0 0 0 2.61,2.6 z"
           id="path4581-0" />
        <path
           style="fill:#616161"
           class="cls-1"
           d="m 302.24,75.65 a 2.61,2.61 0 1 0 2.61,2.6 2.59,2.59 0 0 0 -2.61,-2.6 z"
           id="path4583-3" />
        <path
           style="fill:#616161"
           class="cls-1"
           d="m 292.8,75.65 a 2.61,2.61 0 1 0 2.61,2.6 2.6,2.6 0 0 0 -2.61,-2.6 z"
           id="path4585-0" />
        <path
           style="fill:#616161"
           class="cls-1"
           d="m 283.36,75.65 a 2.61,2.61 0 1 0 2.6,2.6 2.6,2.6 0 0 0 -2.6,-2.6 z"
           id="path4587-3" />
        <path
           style="fill:#414042"
           class="cls-2"
           d="m 254.18,125.5 a 5.47,5.47 0 0 1 3.89,1.49 0.19,0.19 0 0 1 0,0.28 l -0.25,0.28 c -0.1,0.09 -0.18,0.08 -0.28,0 a 5,5 0 0 0 -3.37,-1.31 5,5 0 1 0 3.37,8.74 0.2,0.2 0 0 1 0.26,0 l 0.27,0.27 a 0.18,0.18 0 0 1 0,0.27 5.51,5.51 0 0 1 -3.9,1.55 5.76,5.76 0 1 1 0,-11.52 z"
           id="path4589-3" />
        <path
           style="fill:#414042"
           class="cls-2"
           d="m 259.28,130.72 c -0.07,-0.13 0,-0.26 0.09,-0.26 h 0.36 a 0.22,0.22 0 0 1 0.2,0.14 l 2.74,5.41 v 0 l 2.5,-5.41 a 0.25,0.25 0 0 1 0.21,-0.14 h 0.35 c 0.14,0 0.16,0.13 0.1,0.26 l -5,10.82 a 0.22,0.22 0 0 1 -0.21,0.12 h -0.37 c -0.12,0 -0.17,-0.08 -0.11,-0.22 l 2.16,-4.64 z"
           id="path4591-7" />
        <path
           style="fill:#414042"
           class="cls-2"
           d="m 268,125.87 a 0.21,0.21 0 0 1 0.21,-0.21 h 0.27 a 0.21,0.21 0 0 1 0.21,0.21 v 5.07 a 3.31,3.31 0 0 1 2,-0.64 3.38,3.38 0 0 1 0.2,6.72 3.09,3.09 0 0 1 -2.23,-0.94 l -0.05,0.57 a 0.2,0.2 0 0 1 -0.22,0.21 h -0.16 a 0.21,0.21 0 0 1 -0.21,-0.21 z m 2.8,10.51 a 2.71,2.71 0 0 0 -0.21,-5.39 3,3 0 0 0 -1.88,0.67 v 3.59 a 2.53,2.53 0 0 0 2.07,1.13 z"
           id="path4593-9" />
        <path
           style="fill:#414042"
           class="cls-2"
           d="m 279.09,130.3 a 2.81,2.81 0 0 1 2.89,2.93 c 0,0.25 0,0.62 -0.24,0.62 h -5.1 a 2.52,2.52 0 0 0 2.49,2.53 3.37,3.37 0 0 0 1.89,-0.59 c 0.15,-0.1 0.21,-0.11 0.29,0 l 0.16,0.22 c 0,0.07 0,0.16 -0.06,0.26 a 3.88,3.88 0 0 1 -2.32,0.75 3.37,3.37 0 0 1 0,-6.72 z m 2.19,3 a 2.15,2.15 0 0 0 -2.19,-2.34 2.38,2.38 0 0 0 -2.44,2.34 z"
           id="path4595-4" />
        <path
           style="fill:#414042"
           class="cls-2"
           d="m 284.51,130.67 a 0.21,0.21 0 0 1 0.21,-0.21 h 0.19 a 0.18,0.18 0 0 1 0.19,0.17 l 0.07,0.66 a 2.47,2.47 0 0 1 2,-1 2.63,2.63 0 0 1 1,0.19 0.24,0.24 0 0 1 0.18,0.29 l -0.13,0.32 a 0.18,0.18 0 0 1 -0.26,0.08 2.08,2.08 0 0 0 -0.83,-0.19 2.28,2.28 0 0 0 -1.91,1.1 v 4.56 c 0,0.13 -0.06,0.21 -0.2,0.21 h -0.32 c -0.12,0 -0.18,-0.09 -0.18,-0.21 z"
           id="path4597-9" />
        <path
           style="fill:#414042"
           class="cls-2"
           d="m 288.75,136.67 4.93,-11.14 a 0.22,0.22 0 0 1 0.19,-0.11 h 0.05 a 0.2,0.2 0 0 1 0.21,0.11 l 4.87,11.14 c 0,0.1 0,0.19 -0.14,0.19 h -0.42 a 0.26,0.26 0 0 1 -0.22,-0.14 l -1.3,-2.95 h -6.12 l -1.28,2.95 a 0.26,0.26 0 0 1 -0.22,0.14 h -0.45 c -0.1,0 -0.15,-0.06 -0.1,-0.19 z m 7.91,-3.52 -2.74,-6.45 v 0 l -2.79,6.45 z"
           id="path4599-9" />
        <path
           style="fill:#414042"
           class="cls-2"
           d="m 301,130.67 a 0.21,0.21 0 0 1 0.21,-0.21 h 0.19 a 0.19,0.19 0 0 1 0.19,0.17 l 0.06,0.66 a 2.47,2.47 0 0 1 2,-1 2.63,2.63 0 0 1 1,0.19 c 0.14,0 0.22,0.16 0.17,0.29 l -0.12,0.32 a 0.18,0.18 0 0 1 -0.26,0.08 2.08,2.08 0 0 0 -0.83,-0.19 2.28,2.28 0 0 0 -1.91,1.1 v 4.56 a 0.19,0.19 0 0 1 -0.21,0.21 h -0.32 c -0.11,0 -0.17,-0.09 -0.17,-0.21 z"
           id="path4601-1" />
        <path
           style="fill:#414042"
           class="cls-2"
           d="m 306.78,125.87 a 0.21,0.21 0 0 1 0.21,-0.21 h 0.27 a 0.21,0.21 0 0 1 0.21,0.21 V 133 l 3.41,-2.49 a 0.45,0.45 0 0 1 0.26,-0.09 h 0.46 c 0.16,0 0.18,0.21 0,0.29 l -3.44,2.53 3.85,3.31 a 0.15,0.15 0 0 1 -0.08,0.27 h -0.49 a 0.42,0.42 0 0 1 -0.32,-0.13 l -3.7,-3.18 v 3.1 a 0.19,0.19 0 0 1 -0.21,0.21 H 307 a 0.19,0.19 0 0 1 -0.18,-0.21 z"
           id="path4603-9" />
        <path
           style="fill:#414042"
           class="cls-2"
           d="m 219.61,144.87 a 0.2,0.2 0 0 1 0.2,-0.21 h 6.42 a 0.21,0.21 0 0 1 0.21,0.21 v 0.27 a 0.2,0.2 0 0 1 -0.21,0.2 h -5.85 v 4.42 h 5.07 a 0.22,0.22 0 0 1 0.21,0.21 v 0.27 a 0.21,0.21 0 0 1 -0.21,0.21 h -5.07 v 4.74 h 5.85 a 0.21,0.21 0 0 1 0.21,0.21 v 0.25 a 0.21,0.21 0 0 1 -0.21,0.21 h -6.42 a 0.2,0.2 0 0 1 -0.2,-0.21 z"
           id="path4605-4" />
        <path
           style="fill:#414042"
           class="cls-2"
           d="m 229.14,149.67 a 0.22,0.22 0 0 1 0.23,-0.21 h 0.16 a 0.18,0.18 0 0 1 0.19,0.16 l 0.06,0.69 a 3.4,3.4 0 0 1 2.37,-1 c 1.79,0 2.58,1.14 2.58,2.93 v 3.42 a 0.21,0.21 0 0 1 -0.21,0.21 h -0.29 a 0.21,0.21 0 0 1 -0.21,-0.21 v -3.42 c 0,-1.47 -0.68,-2.24 -1.9,-2.24 a 3.28,3.28 0 0 0 -2.29,1.1 v 4.56 a 0.19,0.19 0 0 1 -0.21,0.21 h -0.3 a 0.19,0.19 0 0 1 -0.18,-0.21 z"
           id="path4607-2" />
        <path
           style="fill:#414042"
           class="cls-2"
           d="m 240.39,149.3 a 3.22,3.22 0 0 1 2,0.64 v -5.07 a 0.2,0.2 0 0 1 0.21,-0.21 h 0.29 a 0.21,0.21 0 0 1 0.19,0.21 v 10.78 a 0.21,0.21 0 0 1 -0.21,0.21 h -0.16 a 0.2,0.2 0 0 1 -0.22,-0.21 l -0.05,-0.56 a 3.1,3.1 0 0 1 -2.21,0.93 3.15,3.15 0 0 1 -3,-3.36 3.19,3.19 0 0 1 3.16,-3.36 z m -0.14,6.08 a 2.55,2.55 0 0 0 2.11,-1.13 v -3.59 a 3,3 0 0 0 -1.9,-0.67 2.71,2.71 0 0 0 -0.21,5.39 z"
           id="path4609-0" />
        <path
           style="fill:#414042"
           class="cls-2"
           d="m 246.81,160.46 a 0.21,0.21 0 0 1 -0.21,0.2 h -0.27 a 0.21,0.21 0 0 1 -0.21,-0.2 v -10.79 a 0.21,0.21 0 0 1 0.22,-0.21 h 0.18 a 0.17,0.17 0 0 1 0.19,0.16 v 0.45 a 3.24,3.24 0 0 1 2.1,-0.77 3.18,3.18 0 0 1 3.09,3.36 3.22,3.22 0 0 1 -3.24,3.36 2.92,2.92 0 0 1 -1.9,-0.65 z m 1.82,-5.11 a 2.58,2.58 0 0 0 2.61,-2.71 2.49,2.49 0 0 0 -2.43,-2.68 2.57,2.57 0 0 0 -2,0.89 v 3.75 a 2.54,2.54 0 0 0 1.82,0.75 z"
           id="path4611-6" />
        <path
           style="fill:#414042"
           class="cls-2"
           d="m 257.29,149.3 a 3.36,3.36 0 1 1 -3.22,3.34 3.29,3.29 0 0 1 3.22,-3.34 z m 0,6.07 a 2.71,2.71 0 1 0 -2.53,-2.73 2.6,2.6 0 0 0 2.53,2.73 z"
           id="path4613-5" />
        <path
           style="fill:#414042"
           class="cls-2"
           d="m 262.9,145.79 a 0.55,0.55 0 1 1 1.09,0 0.55,0.55 0 0 1 -1.09,0 z m 0.2,3.88 a 0.2,0.2 0 0 1 0.2,-0.21 h 0.29 a 0.21,0.21 0 0 1 0.21,0.21 v 6 a 0.19,0.19 0 0 1 -0.21,0.21 h -0.32 c -0.11,0 -0.17,-0.09 -0.17,-0.21 z"
           id="path4615-9" />
        <path
           style="fill:#414042"
           class="cls-2"
           d="m 266.87,149.67 a 0.21,0.21 0 0 1 0.22,-0.21 h 0.16 a 0.18,0.18 0 0 1 0.2,0.16 l 0.06,0.69 a 3.4,3.4 0 0 1 2.37,-1 c 1.79,0 2.58,1.14 2.58,2.93 v 3.42 a 0.21,0.21 0 0 1 -0.21,0.21 H 272 a 0.21,0.21 0 0 1 -0.21,-0.21 v -3.42 c 0,-1.47 -0.69,-2.24 -1.9,-2.24 a 3.26,3.26 0 0 0 -2.29,1.1 v 4.56 a 0.19,0.19 0 0 1 -0.21,0.21 h -0.3 c -0.12,0 -0.18,-0.09 -0.18,-0.21 z"
           id="path4617-5" />
        <path
           style="fill:#414042"
           class="cls-2"
           d="M 275.7,150.08 H 275 c -0.16,0 -0.19,-0.08 -0.19,-0.2 v -0.26 c 0,-0.11 0.08,-0.16 0.19,-0.16 h 0.75 v -1.75 a 0.2,0.2 0 0 1 0.21,-0.2 h 0.27 a 0.21,0.21 0 0 1 0.21,0.21 v 1.76 h 2.23 a 0.2,0.2 0 0 1 0.2,0.21 v 0.21 a 0.19,0.19 0 0 1 -0.2,0.2 h -2.23 v 4.09 c 0,0.75 0.08,1.16 0.83,1.16 a 3.42,3.42 0 0 0 1.46,-0.43 0.16,0.16 0 0 1 0.26,0.07 l 0.11,0.19 a 0.18,0.18 0 0 1 -0.05,0.27 3.19,3.19 0 0 1 -1.86,0.59 c -1.33,0 -1.44,-0.78 -1.44,-1.81 z"
           id="path4619-6" />
        <path
           style="fill:#414042"
           class="cls-2"
           d="m 285.93,144.87 a 0.2,0.2 0 0 1 0.2,-0.21 h 3.45 a 3.61,3.61 0 0 1 0,7.22 h -2.91 v 3.77 c 0,0.12 -0.1,0.21 -0.26,0.21 h -0.29 a 0.2,0.2 0 0 1 -0.2,-0.21 z m 3.61,6.27 a 2.92,2.92 0 0 0 2.9,-2.91 2.88,2.88 0 0 0 -2.91,-2.82 h -2.85 v 5.73 z"
           id="path4621-1" />
        <path
           style="fill:#414042"
           class="cls-2"
           d="m 295.27,149.67 a 0.21,0.21 0 0 1 0.21,-0.21 h 0.19 a 0.18,0.18 0 0 1 0.19,0.17 l 0.07,0.66 a 2.47,2.47 0 0 1 2,-1 2.63,2.63 0 0 1 1,0.19 0.24,0.24 0 0 1 0.18,0.29 l -0.13,0.32 a 0.18,0.18 0 0 1 -0.26,0.08 2.08,2.08 0 0 0 -0.83,-0.19 2.28,2.28 0 0 0 -1.91,1.1 v 4.56 c 0,0.13 -0.06,0.21 -0.2,0.21 h -0.32 c -0.12,0 -0.18,-0.09 -0.18,-0.21 z"
           id="path4623-1" />
        <path
           style="fill:#414042"
           class="cls-2"
           d="m 300.9,145.79 a 0.55,0.55 0 1 1 1.09,0 0.55,0.55 0 0 1 -1.09,0 z m 0.19,3.88 a 0.21,0.21 0 0 1 0.21,-0.21 h 0.29 a 0.21,0.21 0 0 1 0.21,0.21 v 6 a 0.19,0.19 0 0 1 -0.21,0.21 h -0.32 a 0.19,0.19 0 0 1 -0.18,-0.21 z"
           id="path4625-4" />
        <path
           style="fill:#414042"
           class="cls-2"
           d="m 303.93,149.7 c -0.07,-0.13 -0.05,-0.24 0.09,-0.24 h 0.35 a 0.21,0.21 0 0 1 0.21,0.14 l 2.32,5.28 v 0 l 2.34,-5.28 a 0.2,0.2 0 0 1 0.2,-0.14 h 0.36 c 0.14,0 0.16,0.11 0.09,0.24 l -2.78,6.18 a 0.22,0.22 0 0 1 -0.2,0.14 h -0.06 c -0.1,0 -0.14,0 -0.19,-0.14 z"
           id="path4627-3" />
        <path
           style="fill:#414042"
           class="cls-2"
           d="m 311.85,145.79 a 0.54,0.54 0 1 1 1.08,0 0.54,0.54 0 0 1 -1.08,0 z m 0.19,3.88 a 0.21,0.21 0 0 1 0.21,-0.21 h 0.28 a 0.21,0.21 0 0 1 0.21,0.21 v 6 a 0.19,0.19 0 0 1 -0.21,0.21 h -0.32 c -0.11,0 -0.17,-0.09 -0.17,-0.21 z"
           id="path4629-7" />
        <path
           style="fill:#414042"
           class="cls-2"
           d="m 315.81,144.87 a 0.21,0.21 0 0 1 0.21,-0.21 h 0.29 a 0.21,0.21 0 0 1 0.21,0.21 v 10.78 a 0.19,0.19 0 0 1 -0.21,0.21 H 316 a 0.19,0.19 0 0 1 -0.18,-0.21 z"
           id="path4631-2" />
        <path
           style="fill:#414042"
           class="cls-2"
           d="m 322.28,149.3 a 2.82,2.82 0 0 1 2.9,2.93 c 0,0.25 0,0.62 -0.24,0.62 h -5.11 a 2.53,2.53 0 0 0 2.5,2.53 3.4,3.4 0 0 0 1.89,-0.59 c 0.14,-0.1 0.2,-0.11 0.28,0 l 0.16,0.22 c 0,0.07 0,0.16 -0.06,0.26 a 3.88,3.88 0 0 1 -2.32,0.75 3.37,3.37 0 0 1 0,-6.72 z m 2.19,3 a 2.15,2.15 0 0 0 -2.19,-2.34 2.38,2.38 0 0 0 -2.43,2.34 z"
           id="path4633-7" />
        <path
           style="fill:#414042"
           class="cls-2"
           d="m 328.1,153.6 a 2.82,2.82 0 0 1 -0.49,-1.6 2.62,2.62 0 0 1 2.8,-2.7 H 333 a 0.2,0.2 0 0 1 0.21,0.21 v 0.17 a 0.2,0.2 0 0 1 -0.14,0.2 l -1.16,0.08 a 2.16,2.16 0 0 1 1,2 2.58,2.58 0 0 1 -2.66,2.66 2.48,2.48 0 0 1 -1.75,-0.57 1.3,1.3 0 0 0 -0.81,1.15 c 0,0.75 0.64,0.93 1.26,0.93 h 2.32 c 1.38,0 2.37,0.62 2.37,2 0,1.38 -1.31,2.61 -3.26,2.61 -2.18,0 -3.12,-1.28 -3.12,-2.37 a 2,2 0 0 1 1,-1.68 1.58,1.58 0 0 1 -1.24,-1.45 2.06,2.06 0 0 1 1.08,-1.64 z m 2.29,6.57 c 1.44,0 2.55,-0.85 2.55,-1.94 0,-0.74 -0.45,-1.41 -1.64,-1.41 h -2 a 1.75,1.75 0 0 0 -1.3,1.55 c 0,0.89 0.84,1.8 2.39,1.8 z m 1.87,-8.18 a 1.9,1.9 0 0 0 -2,-2.05 2,2 0 0 0 -2,2.05 2,2 0 1 0 4,0 z"
           id="path4635-3" />
        <path
           style="fill:#414042"
           class="cls-2"
           d="m 338.42,149.3 a 2.82,2.82 0 0 1 2.9,2.93 c 0,0.25 0,0.62 -0.24,0.62 H 336 a 2.53,2.53 0 0 0 2.5,2.53 3.4,3.4 0 0 0 1.89,-0.59 c 0.14,-0.1 0.21,-0.11 0.29,0 l 0.16,0.22 c 0.05,0.07 0,0.16 -0.07,0.26 a 3.85,3.85 0 0 1 -2.32,0.75 3.37,3.37 0 0 1 0,-6.72 z m 2.2,3 a 2.16,2.16 0 0 0 -2.2,-2.34 2.38,2.38 0 0 0 -2.43,2.34 z"
           id="path4637-3" />
        <path
           style="fill:#414042"
           class="cls-2"
           d="m 231,163.61 a 0.17,0.17 0 0 1 0.15,-0.11 h 0.18 a 0.16,0.16 0 0 1 0.16,0.11 l 3.29,9.83 v 0 l 3.32,-9.83 a 0.15,0.15 0 0 1 0.16,-0.11 h 0.17 a 0.16,0.16 0 0 1 0.15,0.11 l 2.27,11 c 0,0.16 0,0.21 -0.17,0.21 h -0.39 a 0.19,0.19 0 0 1 -0.19,-0.17 l -1.81,-9.38 v 0 l -3.29,9.62 a 0.2,0.2 0 0 1 -0.22,0.13 h -0.06 c -0.08,0 -0.18,0 -0.21,-0.13 l -3.23,-9.58 v 0 l -1.81,9.38 a 0.19,0.19 0 0 1 -0.19,0.17 h -0.38 c -0.15,0 -0.21,-0.05 -0.18,-0.21 z"
           id="path4639-9" />
        <path
           style="fill:#414042"
           class="cls-2"
           d="m 245.62,170.73 a 5.32,5.32 0 0 1 1.61,0.29 c 0,-1.41 -0.14,-2.11 -1.41,-2.11 a 4.74,4.74 0 0 0 -1.92,0.43 0.17,0.17 0 0 1 -0.24,-0.13 l -0.08,-0.19 a 0.17,0.17 0 0 1 0.1,-0.24 4.65,4.65 0 0 1 2.19,-0.48 c 1.95,0 2,1.17 2,2.8 v 3.55 a 0.2,0.2 0 0 1 -0.2,0.21 h -0.2 c -0.11,0 -0.16,-0.06 -0.19,-0.17 l -0.06,-0.58 A 3.38,3.38 0 0 1 245,175 a 2,2 0 0 1 -2.09,-2.13 c 0.02,-1.21 1.02,-2.14 2.71,-2.14 z m -0.52,3.67 a 2.9,2.9 0 0 0 2.13,-1 v -1.76 a 4.32,4.32 0 0 0 -1.61,-0.33 c -1.22,0 -2,0.62 -2,1.57 a 1.45,1.45 0 0 0 1.48,1.52 z"
           id="path4641-2" />
        <path
           style="fill:#414042"
           class="cls-2"
           d="m 250.91,168.67 a 0.21,0.21 0 0 1 0.22,-0.21 h 0.16 a 0.18,0.18 0 0 1 0.2,0.16 l 0.06,0.69 a 3.4,3.4 0 0 1 2.37,-1 c 1.79,0 2.58,1.14 2.58,2.93 v 3.42 a 0.21,0.21 0 0 1 -0.21,0.21 H 256 a 0.21,0.21 0 0 1 -0.21,-0.21 v -3.42 c 0,-1.47 -0.69,-2.24 -1.9,-2.24 a 3.26,3.26 0 0 0 -2.29,1.1 v 4.56 a 0.19,0.19 0 0 1 -0.21,0.21 h -0.3 c -0.12,0 -0.18,-0.09 -0.18,-0.21 z"
           id="path4643-4" />
        <path
           style="fill:#414042"
           class="cls-2"
           d="m 261.65,170.73 a 5.32,5.32 0 0 1 1.61,0.29 c 0,-1.41 -0.14,-2.11 -1.41,-2.11 a 4.74,4.74 0 0 0 -1.92,0.43 c -0.12,0 -0.2,0 -0.24,-0.13 l -0.08,-0.19 c 0,-0.14 0,-0.21 0.1,-0.24 a 4.65,4.65 0 0 1 2.19,-0.48 c 2,0 2,1.17 2,2.8 v 3.55 a 0.21,0.21 0 0 1 -0.21,0.21 h -0.19 c -0.12,0 -0.16,-0.06 -0.2,-0.17 l -0.06,-0.58 a 3.38,3.38 0 0 1 -2.23,0.91 2,2 0 0 1 -2.09,-2.13 c 0.08,-1.23 1.08,-2.16 2.73,-2.16 z m -0.52,3.67 a 2.9,2.9 0 0 0 2.13,-1 v -1.76 a 4.22,4.22 0 0 0 -1.61,-0.33 c -1.22,0 -2,0.62 -2,1.57 a 1.45,1.45 0 0 0 1.48,1.52 z"
           id="path4645-4" />
        <path
           style="fill:#414042"
           class="cls-2"
           d="m 267.34,172.6 a 2.82,2.82 0 0 1 -0.49,-1.6 2.62,2.62 0 0 1 2.8,-2.7 h 2.62 a 0.2,0.2 0 0 1 0.21,0.21 v 0.17 a 0.2,0.2 0 0 1 -0.14,0.2 l -1.16,0.08 a 2.16,2.16 0 0 1 1,2 2.58,2.58 0 0 1 -2.66,2.66 2.48,2.48 0 0 1 -1.75,-0.57 1.3,1.3 0 0 0 -0.81,1.15 c 0,0.75 0.64,0.93 1.26,0.93 h 2.32 c 1.38,0 2.37,0.62 2.37,2 0,1.38 -1.31,2.61 -3.26,2.61 -2.18,0 -3.12,-1.28 -3.12,-2.37 a 2,2 0 0 1 1,-1.68 1.58,1.58 0 0 1 -1.24,-1.45 2.06,2.06 0 0 1 1.05,-1.64 z m 2.29,6.57 c 1.44,0 2.55,-0.85 2.55,-1.94 0,-0.74 -0.45,-1.41 -1.64,-1.41 h -2 a 1.75,1.75 0 0 0 -1.3,1.55 c -0.01,0.89 0.84,1.8 2.39,1.8 z M 271.5,171 a 1.9,1.9 0 0 0 -2,-2.05 2,2 0 0 0 -2,2.05 1.92,1.92 0 0 0 2,2 1.94,1.94 0 0 0 2,-2 z"
           id="path4647-4" />
        <path
           style="fill:#414042"
           class="cls-2"
           d="m 277.66,168.3 a 2.82,2.82 0 0 1 2.9,2.93 c 0,0.25 0,0.62 -0.24,0.62 h -5.11 a 2.53,2.53 0 0 0 2.5,2.53 3.37,3.37 0 0 0 1.89,-0.59 c 0.14,-0.1 0.21,-0.11 0.29,0 l 0.16,0.22 c 0.05,0.07 0,0.16 -0.07,0.26 a 3.85,3.85 0 0 1 -2.32,0.75 3.37,3.37 0 0 1 0,-6.72 z m 2.2,3 a 2.16,2.16 0 0 0 -2.2,-2.34 2.38,2.38 0 0 0 -2.43,2.34 z"
           id="path4649-9" />
        <path
           style="fill:#414042"
           class="cls-2"
           d="m 283.09,168.67 a 0.2,0.2 0 0 1 0.2,-0.21 h 0.19 a 0.19,0.19 0 0 1 0.2,0.17 l 0.06,0.66 a 2.47,2.47 0 0 1 2,-1 2.58,2.58 0 0 1 1,0.19 c 0.15,0 0.23,0.16 0.18,0.29 l -0.13,0.32 a 0.17,0.17 0 0 1 -0.25,0.08 2.09,2.09 0 0 0 -0.84,-0.19 2.27,2.27 0 0 0 -1.9,1.1 v 4.56 a 0.19,0.19 0 0 1 -0.21,0.21 h -0.32 c -0.11,0 -0.17,-0.09 -0.17,-0.21 z"
           id="path4651-9" />
        <path
           style="fill:#414042"
           class="cls-2"
           d="m 292.83,173.37 0.14,-0.19 c 0.12,-0.13 0.23,-0.17 0.36,-0.06 a 4.67,4.67 0 0 0 3,1.23 2.5,2.5 0 0 0 2.67,-2.15 c 0,-1.42 -1.17,-2.06 -3.11,-2.72 -1.94,-0.66 -3.09,-1.31 -3.09,-3.15 0,-1.2 1,-2.83 3.46,-2.83 a 5.29,5.29 0 0 1 2.75,0.81 0.23,0.23 0 0 1 0.07,0.34 0.92,0.92 0 0 0 -0.13,0.21 0.23,0.23 0 0 1 -0.35,0.08 4.7,4.7 0 0 0 -2.36,-0.76 c -2,0 -2.7,1.22 -2.7,2.13 0,1.37 1,2 2.66,2.49 2.19,0.75 3.58,1.52 3.58,3.37 0,1.6 -1.65,2.85 -3.49,2.85 a 5.23,5.23 0 0 1 -3.39,-1.31 c -0.12,-0.08 -0.2,-0.16 -0.07,-0.34 z"
           id="path4653-3" />
        <path
           style="fill:#414042"
           class="cls-2"
           d="m 301.23,174.67 4.93,-11.14 a 0.22,0.22 0 0 1 0.19,-0.11 v 0 a 0.2,0.2 0 0 1 0.21,0.11 l 4.88,11.14 c 0,0.1 0,0.19 -0.15,0.19 h -0.41 a 0.29,0.29 0 0 1 -0.23,-0.14 l -1.29,-2.95 h -6.12 l -1.24,2.95 a 0.26,0.26 0 0 1 -0.22,0.14 h -0.45 c -0.1,0 -0.15,-0.06 -0.1,-0.19 z m 7.91,-3.52 -2.74,-6.45 v 0 l -2.79,6.45 z"
           id="path4655-8" />
        <path
           style="fill:#414042"
           class="cls-2"
           d="m 312.32,174.67 4.93,-11.14 a 0.22,0.22 0 0 1 0.19,-0.11 h 0.05 a 0.2,0.2 0 0 1 0.21,0.11 l 4.88,11.14 c 0,0.1 0,0.19 -0.15,0.19 H 322 a 0.26,0.26 0 0 1 -0.23,-0.14 l -1.29,-2.95 h -6.12 l -1.28,2.95 a 0.26,0.26 0 0 1 -0.22,0.14 h -0.45 c -0.09,0 -0.14,-0.06 -0.09,-0.19 z m 7.9,-3.52 -2.73,-6.45 v 0 l -2.79,6.45 z"
           id="path4657-3" />
        <path
           style="fill:#414042"
           class="cls-2"
           d="m 324.33,173.37 0.15,-0.19 c 0.11,-0.13 0.22,-0.17 0.35,-0.06 a 4.67,4.67 0 0 0 3,1.23 2.5,2.5 0 0 0 2.69,-2.15 c 0,-1.42 -1.17,-2.06 -3.11,-2.72 -1.94,-0.66 -3.08,-1.31 -3.08,-3.15 0,-1.2 1,-2.83 3.45,-2.83 a 5.3,5.3 0 0 1 2.76,0.81 0.24,0.24 0 0 1 0.06,0.34 0.92,0.92 0 0 0 -0.13,0.21 0.23,0.23 0 0 1 -0.35,0.08 4.69,4.69 0 0 0 -2.35,-0.76 c -2,0 -2.71,1.22 -2.71,2.13 0,1.37 1,2 2.66,2.49 2.19,0.75 3.58,1.52 3.58,3.37 0,1.6 -1.64,2.85 -3.49,2.85 a 5.23,5.23 0 0 1 -3.39,-1.31 0.22,0.22 0 0 1 -0.09,-0.34 z"
           id="path4659-2" />
        <path
           style="fill:#414042"
           class="cls-2"
           d="m 343.72,46.64 v 2.5 c 0,2.59 -1.34,4.11 -4.19,4.11 -1,0 -2,0 -2.95,-0.09 V 42.48 c 0.82,0 1.92,-0.08 3.07,-0.08 2.65,0 4.07,1.54 4.07,4.24 z m -5.23,-2.53 v 7.38 a 9.75,9.75 0 0 0 1.08,0.07 2.06,2.06 0 0 0 2.23,-2.32 v -2.69 c 0,-1.68 -0.82,-2.47 -2.23,-2.47 -0.36,0 -0.73,0 -1.08,0.03 z"
           id="path4661-9" />
        <path
           style="fill:#414042"
           class="cls-2"
           d="m 353.22,53.06 h -2 l -0.57,-2.19 h -3.34 l -0.56,2.19 h -2 l 3.11,-10.48 h 2.27 z m -5.57,-3.82 h 2.58 L 349,44.18 Z"
           id="path4663-5" />
        <path
           style="fill:#414042"
           class="cls-2"
           d="m 360.82,44.34 h -2.88 v 8.72 H 356 v -8.72 h -2.88 v -1.76 h 7.66 z"
           id="path4665-4" />
        <path
           style="fill:#414042"
           class="cls-2"
           d="m 369.26,53.06 h -2.05 l -0.56,-2.19 h -3.35 l -0.56,2.19 h -2 l 3.11,-10.48 h 2.27 z m -5.57,-3.82 h 2.57 L 365,44.18 Z"
           id="path4667-3" />
        <path
           style="fill:#414042"
           class="cls-2"
           d="m 377.37,45 v 0.29 a 2.34,2.34 0 0 1 -1.57,2.31 2.31,2.31 0 0 1 2,2.38 v 0.32 c 0,1.73 -1.13,3 -3.9,3 -0.91,0 -1.59,0 -3,-0.08 V 42.46 c 0.8,0 2.05,-0.08 3,-0.08 2.28,0 3.47,1.13 3.47,2.62 z m -4.63,-0.91 V 47 h 1.17 c 1,0 1.54,-0.53 1.54,-1.4 v -0.3 c 0,-0.8 -0.5,-1.25 -1.8,-1.25 -0.28,0 -0.56,0 -0.91,0.03 z m 0,4.47 v 3 a 11,11 0 0 0 1.17,0.06 c 1.39,0 1.95,-0.56 1.95,-1.42 v -0.29 c 0,-0.83 -0.56,-1.31 -1.87,-1.31 z"
           id="path4669-9" />
        <path
           style="fill:#414042"
           class="cls-2"
           d="m 387.26,53.06 h -2.05 l -0.56,-2.19 h -3.35 l -0.56,2.19 h -2 l 3.11,-10.48 h 2.27 z m -5.57,-3.82 h 2.57 L 383,44.18 Z"
           id="path4671-4" />
        <path
           style="fill:#414042"
           class="cls-2"
           d="m 393.83,42.64 v 1.74 a 16.14,16.14 0 0 0 -2.35,-0.27 c -1,0 -1.38,0.4 -1.38,1.12 v 0.34 c 0,0.58 0.18,0.8 1,1.07 l 1.41,0.47 a 2.56,2.56 0 0 1 2,2.86 v 0.31 c 0,1.92 -1,3 -3.64,3 a 14.42,14.42 0 0 1 -2.47,-0.33 v -1.78 a 11.64,11.64 0 0 0 2.4,0.35 c 1.34,0 1.79,-0.41 1.79,-1.15 v -0.42 c 0,-0.56 -0.22,-0.84 -0.85,-1.05 l -1.55,-0.52 a 2.51,2.51 0 0 1 -2.08,-2.84 v -0.16 c 0,-1.91 1,-3 3.25,-3 a 17,17 0 0 1 2.47,0.26 z"
           id="path4673-9" />
        <path
           style="fill:#414042"
           class="cls-2"
           d="m 402.34,44.34 h -3.92 v 2.53 H 402 v 1.74 h -3.6 v 2.69 h 3.92 v 1.76 H 396.5 V 42.58 h 5.84 z"
           id="path4675-5" />
        <path
           style="fill:#414042"
           class="cls-2"
           d="m 412.9,42.54 v 1.6 a 11.19,11.19 0 0 0 -1.76,-0.15 c -1,0 -1.41,0.44 -1.41,1.26 v 0.29 c 0,0.86 0.55,1.41 1.57,1.41 h 1.28 V 46 h 1.79 v 1 h 1 v 1.58 h -1 v 4.29 a 13.11,13.11 0 0 1 -3.12,0.43 c -2.75,0 -3.73,-1.09 -3.73,-2.83 V 50.1 a 2.53,2.53 0 0 1 1.89,-2.46 2.28,2.28 0 0 1 -1.52,-2.26 V 45 c 0,-1.49 1.09,-2.65 3.06,-2.65 a 14.42,14.42 0 0 1 1.95,0.19 z m -1.69,6 c -1.28,0 -1.86,0.55 -1.86,1.41 v 0.37 c 0,0.85 0.59,1.31 1.9,1.31 a 5.62,5.62 0 0 0 1.3,-0.16 v -2.94 z"
           id="path4677-5" />
        <path
           style="fill:#414042"
           class="cls-2"
           d="m 427.06,45.33 v 0.38 a 2.8,2.8 0 0 1 -1.77,2.63 l 2.59,4.72 h -2.11 l -2.28,-4.22 a 8.72,8.72 0 0 1 -1.23,0 v 4.24 h -1.92 v -10.6 c 0.93,0 2.18,-0.1 2.93,-0.1 2.67,0 3.79,1.16 3.79,2.95 z m -4.81,-1.23 v 3 a 8.86,8.86 0 0 0 1,0.07 c 1.31,0 1.85,-0.58 1.85,-1.52 v -0.26 c 0,-0.91 -0.54,-1.38 -1.87,-1.38 -0.23,0.05 -0.66,0.07 -0.98,0.09 z"
           id="path4679-7" />
        <path
           style="fill:#414042"
           class="cls-2"
           d="m 435.29,44.34 h -3.93 v 2.53 H 435 v 1.74 h -3.61 v 2.69 h 3.93 v 1.76 h -5.85 V 42.58 h 5.85 z"
           id="path4681-3" />
        <path
           style="fill:#414042"
           class="cls-2"
           d="m 444.31,45.44 v 0.35 c 0,2 -1.2,3.27 -3.63,3.27 a 7.28,7.28 0 0 1 -1.2,-0.11 v 4.11 h -1.92 V 42.48 c 0.8,0 1.84,-0.08 2.91,-0.1 2.64,-0.01 3.84,1.19 3.84,3.06 z m -4.85,-1.36 v 3.19 a 9.24,9.24 0 0 0 1.07,0.09 c 1.25,0 1.86,-0.56 1.86,-1.63 v -0.24 c 0,-0.93 -0.56,-1.44 -1.92,-1.44 -0.47,0 -0.74,0.01 -1.01,0.03 z"
           id="path4683-9" />
        <path
           style="fill:#414042"
           class="cls-2"
           d="m 453.32,45.92 v 3.8 c 0,2.2 -1.07,3.53 -3.62,3.53 -2.55,0 -3.6,-1.33 -3.6,-3.53 v -3.8 c 0,-2.24 1.09,-3.54 3.6,-3.54 2.51,0 3.62,1.3 3.62,3.54 z M 448,45.78 v 4.06 a 1.7,1.7 0 0 0 3.39,0 v -4.05 a 1.52,1.52 0 0 0 -1.7,-1.68 1.49,1.49 0 0 0 -1.69,1.67 z"
           id="path4685-0" />
        <path
           style="fill:#414042"
           class="cls-2"
           d="m 462.39,45.33 v 0.38 a 2.8,2.8 0 0 1 -1.78,2.63 l 2.6,4.72 h -2.11 l -2.28,-4.22 a 8.72,8.72 0 0 1 -1.23,0 v 4.24 h -1.92 v -10.6 c 0.93,0 2.18,-0.1 2.93,-0.1 2.67,0 3.79,1.16 3.79,2.95 z m -4.82,-1.23 v 3 a 9,9 0 0 0 1,0.07 c 1.32,0 1.86,-0.58 1.86,-1.52 v -0.26 c 0,-0.91 -0.54,-1.38 -1.87,-1.38 -0.22,0.05 -0.67,0.07 -0.99,0.09 z"
           id="path4687-7" />
        <path
           style="fill:#414042"
           class="cls-2"
           d="m 471.59,44.34 h -2.88 v 8.72 h -1.9 v -8.72 h -2.89 v -1.76 h 7.67 z"
           id="path4689-2" />
        <path
           style="fill:#414042"
           class="cls-2"
           d="m 475.4,53.06 h -1.92 V 42.58 h 1.92 z"
           id="path4691-7" />
        <path
           style="fill:#414042"
           class="cls-2"
           d="m 479.67,45.65 v 7.41 h -1.86 V 42.58 h 2.61 L 483.13,50 V 42.58 H 485 v 10.48 h -2.55 z"
           id="path4693-2" />
        <path
           style="fill:#414042"
           class="cls-2"
           d="m 493.78,42.72 v 1.7 a 17.7,17.7 0 0 0 -2.83,-0.34 c -1.24,0 -1.68,0.45 -1.68,1.59 v 4.25 c 0,1.14 0.44,1.6 1.63,1.6 a 9.19,9.19 0 0 0 1.52,-0.14 v -2.82 h -1.63 v -1.73 h 3.45 v 5.78 a 11.53,11.53 0 0 1 -3.39,0.64 c -2.59,0 -3.5,-1.12 -3.5,-3.34 v -4.18 c 0,-2.3 1,-3.35 3.53,-3.35 a 17.64,17.64 0 0 1 2.9,0.34 z"
           id="path4695-9" />
        <path
           style="fill:#414042"
           class="cls-2"
           d="m 346.49,84.06 h -2.35 l -1.78,-8.42 -1.78,8.42 h -2.35 l -2.29,-10.48 h 2 l 1.52,8.51 1.74,-8.51 h 2.26 l 1.76,8.5 1.51,-8.5 h 2 z"
           id="path4697-0" />
        <path
           style="fill:#414042"
           class="cls-2"
           d="m 356.38,75.34 h -3.93 v 2.53 h 3.61 v 1.74 h -3.61 v 2.69 h 3.93 v 1.76 h -5.85 V 73.58 h 5.85 z"
           id="path4699-5" />
        <path
           style="fill:#414042"
           class="cls-2"
           d="m 365.18,76 v 0.29 a 2.34,2.34 0 0 1 -1.57,2.31 2.31,2.31 0 0 1 2,2.38 v 0.32 c 0,1.73 -1.14,3 -3.9,3 -0.92,0 -1.59,0 -3.05,-0.08 V 73.46 c 0.8,0 2.05,-0.08 3,-0.08 2.34,0 3.52,1.13 3.52,2.62 z m -4.63,-0.91 V 78 h 1.17 c 1,0 1.54,-0.53 1.54,-1.4 v -0.3 c 0,-0.8 -0.5,-1.25 -1.8,-1.25 -0.29,0 -0.56,0 -0.91,0.03 z m 0,4.47 v 3 a 11,11 0 0 0 1.17,0.06 c 1.39,0 1.95,-0.56 1.95,-1.42 v -0.29 c 0,-0.83 -0.56,-1.31 -1.87,-1.31 z"
           id="path4701-0" />
        <path
           style="fill:#414042"
           class="cls-2"
           d="m 376.18,73.64 v 1.74 a 16.14,16.14 0 0 0 -2.35,-0.27 c -1,0 -1.38,0.4 -1.38,1.12 v 0.34 c 0,0.58 0.18,0.8 1,1.07 l 1.41,0.47 a 2.56,2.56 0 0 1 2.03,2.89 v 0.31 c 0,1.92 -1,3 -3.65,3 a 14.42,14.42 0 0 1 -2.47,-0.33 V 82.2 a 11.64,11.64 0 0 0 2.4,0.35 c 1.34,0 1.79,-0.41 1.79,-1.15 v -0.42 c 0,-0.56 -0.22,-0.84 -0.85,-1 l -1.55,-0.52 a 2.51,2.51 0 0 1 -2.08,-2.84 v -0.16 c 0,-1.91 1,-3 3.25,-3 a 17,17 0 0 1 2.45,0.18 z"
           id="path4703-4" />
        <path
           style="fill:#414042"
           class="cls-2"
           d="m 384.69,75.34 h -3.92 v 2.53 h 3.6 v 1.74 h -3.6 v 2.69 h 3.92 v 1.76 h -5.84 V 73.58 h 5.84 z"
           id="path4705-1" />
        <path
           style="fill:#414042"
           class="cls-2"
           d="m 393.69,76.33 v 0.38 a 2.8,2.8 0 0 1 -1.78,2.63 l 2.59,4.72 h -2.11 l -2.27,-4.22 a 8.72,8.72 0 0 1 -1.23,0 v 4.24 H 387 v -10.6 c 0.93,0 2.18,-0.1 2.93,-0.1 2.64,0 3.76,1.16 3.76,2.95 z m -4.82,-1.23 v 3.05 a 8.86,8.86 0 0 0 1,0.07 c 1.31,0 1.86,-0.58 1.86,-1.52 v -0.26 c 0,-0.91 -0.55,-1.38 -1.88,-1.38 z"
           id="path4707-7" />
        <path
           style="fill:#414042"
           class="cls-2"
           d="M 400.34,84.06 H 398 l -3,-10.48 h 2 l 2.13,8.78 2.18,-8.78 h 2 z"
           id="path4709-9" />
        <path
           style="fill:#414042"
           class="cls-2"
           d="M 410.9,75.34 H 407 v 2.53 h 3.6 v 1.74 H 407 v 2.69 h 3.92 v 1.76 h -5.84 V 73.58 h 5.84 z"
           id="path4711-3" />
        <path
           style="fill:#414042"
           class="cls-2"
           d="m 419.89,76.33 v 0.38 a 2.79,2.79 0 0 1 -1.77,2.63 l 2.59,4.72 h -2.11 l -2.27,-4.22 a 8.84,8.84 0 0 1 -1.24,0 v 4.24 h -1.92 v -10.6 c 0.93,0 2.18,-0.1 2.93,-0.1 2.67,0 3.79,1.16 3.79,2.95 z m -4.81,-1.23 v 3.05 a 8.86,8.86 0 0 0 1,0.07 c 1.31,0 1.85,-0.58 1.85,-1.52 v -0.26 c 0,-0.91 -0.54,-1.38 -1.87,-1.38 z"
           id="path4713-6" />
        <path
           style="fill:#414042"
           class="cls-2"
           d="m 343.83,14.43 -1.66,6.15 h -2.08 l -1.67,-6.15 -0.08,7.3 h -1.82 l 0.09,-10.49 h 2.48 l 2.05,7.45 2.05,-7.45 h 2.45 l 0.1,10.49 h -1.81 z"
           id="path4715-2" />
        <path
           style="fill:#414042"
           class="cls-2"
           d="m 355.74,21.73 h -2.05 l -0.56,-2.2 h -3.35 l -0.56,2.2 h -2 l 3.11,-10.49 h 2.27 z m -5.57,-3.83 h 2.57 l -1.28,-5.06 z"
           id="path4717-1" />
        <path
           style="fill:#414042"
           class="cls-2"
           d="m 359.17,14.32 v 7.41 h -1.85 V 11.24 h 2.61 l 2.7,7.41 v -7.41 h 1.84 v 10.49 h -2.54 z"
           id="path4719-2" />
        <path
           style="fill:#414042"
           class="cls-2"
           d="m 374.54,21.73 h -2.05 l -0.56,-2.2 h -3.35 l -0.56,2.2 h -2 l 3.11,-10.49 h 2.27 z M 369,17.9 h 2.57 l -1.28,-5.06 z"
           id="path4721-5" />
        <path
           style="fill:#414042"
           class="cls-2"
           d="m 382.18,11.39 v 1.69 a 18.83,18.83 0 0 0 -2.83,-0.33 c -1.23,0 -1.68,0.45 -1.68,1.58 v 4.26 c 0,1.14 0.45,1.6 1.63,1.6 a 10.43,10.43 0 0 0 1.52,-0.14 v -2.82 h -1.63 V 15.5 h 3.46 v 5.78 a 11.66,11.66 0 0 1 -3.4,0.64 c -2.59,0 -3.5,-1.12 -3.5,-3.35 V 14.4 c 0,-2.31 1,-3.35 3.53,-3.35 a 17.52,17.52 0 0 1 2.9,0.34 z"
           id="path4723-3" />
        <path
           style="fill:#414042"
           class="cls-2"
           d="m 390.84,13 h -3.92 v 2.53 h 3.6 v 1.75 h -3.6 V 20 h 3.92 v 1.76 H 385 V 11.24 h 5.84 z"
           id="path4725-9" />
        <path
           style="fill:#414042"
           class="cls-2"
           d="m 400.36,14.43 -1.67,6.15 h -2.08 l -1.61,-6.15 -0.08,7.3 H 393 l 0.1,-10.49 h 2.48 l 2.05,7.45 2.05,-7.45 h 2.45 l 0.1,10.49 h -1.81 z"
           id="path4727-1" />
        <path
           style="fill:#414042"
           class="cls-2"
           d="m 410.47,13 h -3.92 v 2.53 h 3.6 v 1.75 h -3.6 V 20 h 3.92 v 1.76 h -5.84 V 11.24 h 5.84 z"
           id="path4729-8" />
        <path
           style="fill:#414042"
           class="cls-2"
           d="m 414.6,14.32 v 7.41 h -1.86 V 11.24 h 2.61 l 2.7,7.41 v -7.41 h 1.85 v 10.49 h -2.55 z"
           id="path4731-8" />
        <path
           style="fill:#414042"
           class="cls-2"
           d="m 429.43,13 h -2.88 v 8.73 h -1.9 V 13 h -2.89 v -1.76 h 7.67 z"
           id="path4733-7" />
        <path
           style="fill:#414042"
           class="cls-2"
           d="m 440.53,13 h -3.92 v 2.53 h 3.6 v 1.75 h -3.6 V 20 h 3.92 v 1.76 h -5.84 V 11.24 h 5.84 z"
           id="path4735-0" />
        <path
           style="fill:#414042"
           class="cls-2"
           d="m 444.66,14.32 v 7.41 H 442.8 V 11.24 h 2.61 l 2.71,7.41 V 11.24 H 450 v 10.49 h -2.55 z"
           id="path4737-5" />
        <path
           style="fill:#414042"
           class="cls-2"
           d="m 458.77,11.39 v 1.69 a 18.83,18.83 0 0 0 -2.83,-0.33 c -1.23,0 -1.68,0.45 -1.68,1.58 v 4.26 c 0,1.14 0.45,1.6 1.63,1.6 a 10.43,10.43 0 0 0 1.52,-0.14 v -2.82 h -1.63 V 15.5 h 3.46 v 5.78 a 11.66,11.66 0 0 1 -3.4,0.64 c -2.59,0 -3.5,-1.12 -3.5,-3.35 V 14.4 c 0,-2.31 1,-3.35 3.54,-3.35 a 17.52,17.52 0 0 1 2.89,0.34 z"
           id="path4739-2" />
        <path
           style="fill:#414042"
           class="cls-2"
           d="m 463.51,21.73 h -1.92 V 11.24 h 1.92 z"
           id="path4741-7" />
        <path
           style="fill:#414042"
           class="cls-2"
           d="m 467.78,14.32 v 7.41 h -1.86 V 11.24 h 2.61 l 2.71,7.41 v -7.41 h 1.84 v 10.49 h -2.55 z"
           id="path4743-9" />
        <path
           style="fill:#414042"
           class="cls-2"
           d="m 481.35,13 h -3.92 v 2.53 H 481 v 1.75 h -3.6 V 20 h 3.92 v 1.76 h -5.84 V 11.24 h 5.84 z"
           id="path4745-1" />
        <line
           style="fill:#c6dbef"
           class="cls-6"
           x1="436.51999"
           y1="472.56"
           x2="336.01999"
           y2="306.06"
           id="line4747-9" />
        <line
           style="fill:none;stroke:#616161;stroke-width:2px;stroke-miterlimit:10"
           class="cls-7"
           x1="436.51999"
           y1="472.56"
           x2="339.10001"
           y2="311.17001"
           id="line4749-6" />
        <polygon
           style="fill:#616161"
           class="cls-1"
           points="339.74,312.23 337.38,315.49 336.02,306.06 343.73,311.66 "
           id="polygon4751-3" />
        <line
           style="fill:#c6dbef"
           class="cls-6"
           x1="94.519997"
           y1="472.56"
           x2="224.02"
           y2="306.06"
           id="line4753-6" />
        <line
           style="fill:none;stroke:#616161;stroke-width:2px;stroke-miterlimit:10"
           class="cls-7"
           x1="94.519997"
           y1="472.56"
           x2="220.35001"
           y2="310.76999"
           id="line4755-8" />
        <polygon
           style="fill:#616161"
           class="cls-1"
           points="219.59,311.75 215.71,310.72 224.02,306.06 221.55,315.26 "
           id="polygon4757-4" />
        <line
           style="fill:#c6dbef"
           class="cls-6"
           x1="280.20999"
           y1="472.56"
           x2="280.20999"
           y2="345.06"
           id="line4759-6" />
        <line
           style="fill:none;stroke:#616161;stroke-width:2px;stroke-miterlimit:10"
           class="cls-7"
           x1="280.20999"
           y1="472.56"
           x2="280.20999"
           y2="351.03"
           id="line4761-6" />
        <polygon
           style="fill:#616161"
           class="cls-1"
           points="280.21,352.26 276.51,353.84 280.21,345.06 283.91,353.84 "
           id="polygon4763-7" />
        <line
           style="fill:#c6dbef"
           class="cls-6"
           x1="280.20999"
           y1="193.56"
           x2="280.20999"
           y2="238.56"
           id="line4765-2" />
        <line
           style="fill:none;stroke:#616161;stroke-width:2px;stroke-miterlimit:10"
           class="cls-7"
           x1="280.20999"
           y1="193.56"
           x2="280.20999"
           y2="232.59"
           id="line4767-7" />
        <polygon
           style="fill:#616161"
           class="cls-1"
           points="280.21,231.35 283.91,229.78 280.21,238.56 276.51,229.78 "
           id="polygon4769-4" />
        <path
           style="fill:#616161"
           class="cls-1"
           d="m 97,530.36 c -1.12,0 -2.3,0 -3.55,0 a 81,81 0 0 1 -15.34,-1.17 v -5.29 a 0.93,0.93 0 1 0 -1.86,0 v 4.91 c -3,-0.79 -4.18,-1.71 -4.18,-2.32 0,-8.35 5.6,-11.58 14,-13.86 h 0.15 a 6,6 0 0 0 2.91,3.71 9.07,9.07 0 0 0 8.62,0 6,6 0 0 0 2.91,-3.71 h 0.15 l 0.77,0.21 a 17.61,17.61 0 0 1 2.69,-2.09 c -0.92,-0.3 -1.85,-0.57 -2.77,-0.83 h -0.09 c -1.53,-0.31 -2,-0.61 -2.2,-1.38 3.22,-2.71 6.41,-7.13 6.41,-12.08 0,-9.58 -4.55,-15.3 -12.18,-15.3 -7.63,0 -12.18,5.72 -12.18,15.3 0,4.95 3.19,9.37 6.41,12.08 -0.24,0.77 -0.67,1.07 -2.2,1.38 h -0.08 c -8,2.16 -16.12,5.81 -16.12,16.57 0,3.06 4.19,6.71 24.17,6.71 1.67,0 3.22,0 4.68,-0.08 A 17.56,17.56 0 0 1 97,530.36 Z M 84.07,496.44 c 0,-3.76 0.91,-12.51 9.39,-12.51 8.48,0 9.39,8.75 9.39,12.51 0,4.29 -3.1,8.2 -6,10.43 a 1.4,1.4 0 0 0 -0.53,1.36 c 0.36,2 1.08,3.11 2.59,3.8 a 4.26,4.26 0 0 1 -2.06,2.66 7.16,7.16 0 0 1 -6.76,0 A 4.26,4.26 0 0 1 88,512 c 1.51,-0.69 2.23,-1.82 2.59,-3.8 a 1.4,1.4 0 0 0 -0.53,-1.36 c -2.88,-2.2 -5.99,-6.11 -5.99,-10.4 z"
           id="path4771-1" />
        <path
           style="fill:#616161"
           class="cls-1"
           d="m 113.45,540.63 a 15.34,15.34 0 1 1 15.33,-15.34 15.36,15.36 0 0 1 -15.33,15.34 z m 0,-27.89 A 12.55,12.55 0 1 0 126,525.29 12.56,12.56 0 0 0 113.45,512.74 Z"
           id="path4773-0" />
        <circle
           style="fill:#616161"
           class="cls-1"
           cx="112.75"
           cy="528.83002"
           r="0.41"
           id="circle4775-0" />
        <path
           style="fill:#616161"
           class="cls-1"
           d="m 121.11,524.46 -2.15,-1.9 v -4.5 a 0.38,0.38 0 0 0 -0.38,-0.38 h -2.68 a 0.38,0.38 0 0 0 -0.38,0.38 v 1.48 l -1.88,-1.66 a 0.37,0.37 0 0 0 -0.5,0 l -7.36,6.58 a 0.5,0.5 0 0 0 0,0.71 l 0.2,0.22 a 0.5,0.5 0 0 0 0.71,0 l 0.49,-0.44 v 6.62 h -0.65 a 0.5,0.5 0 0 0 -0.5,0.5 v 0.3 a 0.5,0.5 0 0 0 0.5,0.5 h 13.92 a 0.51,0.51 0 0 0 0.5,-0.5 v -0.3 a 0.5,0.5 0 0 0 -0.5,-0.5 h -0.66 V 525 l 0.5,0.44 a 0.51,0.51 0 0 0 0.71,-0.05 l 0.2,-0.22 a 0.51,0.51 0 0 0 -0.09,-0.71 z M 116.83,519 h 0.83 v 2.44 l -0.83,-0.74 z m -2,12.63 H 112 v -5.07 h 2.81 z m 1,0 v -5.68 a 0.39,0.39 0 0 0 -0.39,-0.39 h -4 a 0.4,0.4 0 0 0 -0.39,0.39 v 5.68 h -2.55 v -7.78 l 4.59,-4.1 v 0 l 0.37,-0.34 0.37,0.33 v 0 l 4.68,4.13 v 7.76 z"
           id="path4777-6" />
        <path
           style="fill:#616161"
           class="cls-1"
           d="m 530.63,530.54 c -1.13,0 -2.31,0 -3.56,0 a 80.86,80.86 0 0 1 -15.33,-1.17 v -5.33 a 0.93,0.93 0 1 0 -1.86,0 V 529 c -3,-0.8 -4.19,-1.72 -4.19,-2.32 0,-8.35 5.6,-11.59 14,-13.87 h 0.15 a 6,6 0 0 0 2.91,3.7 9,9 0 0 0 8.61,0 6,6 0 0 0 2.91,-3.7 h 0.15 l 0.78,0.22 a 17.59,17.59 0 0 1 2.68,-2.1 c -0.92,-0.3 -1.84,-0.57 -2.77,-0.82 h -0.09 c -1.53,-0.31 -2,-0.61 -2.19,-1.38 3.21,-2.71 6.41,-7.14 6.41,-12.08 0,-9.59 -4.56,-15.31 -12.19,-15.31 -7.63,0 -12.18,5.72 -12.18,15.31 0,4.94 3.19,9.37 6.41,12.08 -0.23,0.77 -0.67,1.07 -2.2,1.38 H 519 c -8,2.16 -16.12,5.81 -16.12,16.57 0,3.05 4.2,6.7 24.17,6.7 1.68,0 3.23,0 4.68,-0.08 a 16.51,16.51 0 0 1 -1.1,-2.76 z m -13,-33.92 c 0,-3.77 0.92,-12.52 9.39,-12.52 8.47,0 9.4,8.75 9.4,12.52 0,4.29 -3.11,8.2 -6,10.42 a 1.38,1.38 0 0 0 -0.52,1.36 c 0.36,2 1.08,3.11 2.59,3.81 a 4.22,4.22 0 0 1 -2.07,2.65 7.14,7.14 0 0 1 -6.75,0 4.19,4.19 0 0 1 -2.07,-2.65 c 1.51,-0.7 2.23,-1.82 2.59,-3.81 a 1.4,1.4 0 0 0 -0.52,-1.36 c -2.88,-2.22 -5.99,-6.13 -5.99,-10.42 z"
           id="path4779-4" />
        <path
           style="fill:#616161"
           class="cls-1"
           d="m 547.06,540.81 a 15.34,15.34 0 1 1 15.34,-15.34 15.36,15.36 0 0 1 -15.34,15.34 z m 0,-27.89 a 12.55,12.55 0 1 0 12.55,12.55 12.56,12.56 0 0 0 -12.55,-12.55 z"
           id="path4781-4" />
        <path
           style="fill:#616161"
           class="cls-1"
           d="m 551.57,524.44 h -0.41 v -1.63 a 4.12,4.12 0 1 0 -8.2,0 v 1.63 h -0.41 a 1.44,1.44 0 0 0 -1.43,1.44 v 5.33 a 1.43,1.43 0 0 0 1.43,1.43 h 9 a 1.43,1.43 0 0 0 1.43,-1.43 v -5.33 a 1.44,1.44 0 0 0 -1.41,-1.44 z m -7.38,-1.63 a 2.9,2.9 0 1 1 5.74,0 v 1.63 h -5.74 z m 7.58,8.4 a 0.2,0.2 0 0 1 -0.2,0.2 h -9 a 0.2,0.2 0 0 1 -0.2,-0.2 v -5.33 a 0.21,0.21 0 0 1 0.2,-0.21 h 9 a 0.21,0.21 0 0 1 0.2,0.21 z"
           id="path4783-3" />
        <path
           style="fill:#616161"
           class="cls-1"
           d="m 547.06,526.7 a 1.22,1.22 0 0 0 -0.41,2.38 v 1.1 a 0.41,0.41 0 0 0 0.82,0 v -1.1 a 1.22,1.22 0 0 0 -0.41,-2.38 z"
           id="path4785-7" />
        <path
           style="fill:#616161"
           class="cls-1"
           d="m 304.29,271.87 a 14.89,14.89 0 0 0 0.42,-3.53 15.45,15.45 0 0 0 -15.6,-15.25 15.68,15.68 0 0 0 -13.62,7.81 15.85,15.85 0 0 0 -2.58,-0.21 16.26,16.26 0 0 0 -15.48,11.15 15.84,15.84 0 0 0 1.08,31.65 h 44.4 a 15.83,15.83 0 0 0 1.38,-31.62 z m -1.38,28 h -44.4 a 12.24,12.24 0 1 1 -0.18,-24.47 12.79,12.79 0 0 1 5,1 1.25,1.25 0 0 0 0.46,0.09 1.2,1.2 0 0 0 0.47,-2.3 15,15 0 0 0 -3.51,-1 12.59,12.59 0 0 1 12.12,-8.93 h 0.31 a 13.35,13.35 0 0 1 8.51,3.15 1.14,1.14 0 0 0 0.77,0.29 1.21,1.21 0 0 0 0.92,-0.42 1.19,1.19 0 0 0 -0.14,-1.69 15.81,15.81 0 0 0 -4.75,-2.78 12,12 0 0 1 10.58,-6.16 11.84,11.84 0 0 1 12,11.65 11.32,11.32 0 0 1 -1,4.59 2.38,2.38 0 0 0 -0.11,0.38 15.3,15.3 0 0 0 -4.79,1.86 1.2,1.2 0 0 0 0.61,2.23 1.19,1.19 0 0 0 0.62,-0.17 12.89,12.89 0 0 1 5.76,-1.8 h 0.68 a 12.25,12.25 0 1 1 0,24.48 z"
           id="path4787-3" />
      </g>
    </g>
  </g>
</svg>
