<?xml version="1.0" encoding="UTF-8" standalone="no"?>
<svg
   xmlns:dc="http://purl.org/dc/elements/1.1/"
   xmlns:cc="http://creativecommons.org/ns#"
   xmlns:rdf="http://www.w3.org/1999/02/22-rdf-syntax-ns#"
   xmlns:svg="http://www.w3.org/2000/svg"
   xmlns="http://www.w3.org/2000/svg"
   id="svg84762"
   version="1.1"
   viewBox="0 0 168.04807 64.396935"
   height="64.396935mm"
   width="168.04807mm">
  <defs
     id="defs84756" />
  <metadata
     id="metadata84759">
    <rdf:RDF>
      <cc:Work
         rdf:about="">
        <dc:format>image/svg+xml</dc:format>
        <dc:type
           rdf:resource="http://purl.org/dc/dcmitype/StillImage" />
        <dc:title></dc:title>
      </cc:Work>
    </rdf:RDF>
  </metadata>
  <g
     transform="translate(748.50618,6.5853731)"
     id="layer1">
    <g
       transform="matrix(0.26458333,0,0,0.26458333,-748.50618,-6.5853731)"
       id="Layer_2-86-5"
       data-name="Layer 2">
      <g
         id="Layer_1-2-0488-8"
         data-name="Layer 1">
        <polygon
           style="fill:#5c5d60"
           class="cls-1"
           points="79.45,141.34 79.45,97.44 41.22,115.51 41.22,159.41 "
           id="polygon13915-8" />
        <polygon
           style="fill:#5c5d60"
           class="cls-1"
           points="0,141.34 38.22,159.41 38.22,115.51 0,97.44 "
           id="polygon13917-4" />
        <polygon
           style="fill:#ffb71b"
           class="cls-2"
           points="0,144.66 0,187.06 38.22,205.13 38.22,162.72 "
           id="polygon13919-5" />
        <polygon
           style="fill:#5c5d60"
           class="cls-1"
           points="79.45,94.12 79.45,52.35 41.22,68.34 41.22,112.19 "
           id="polygon13921-6" />
        <polygon
           style="fill:#5c5d60"
           class="cls-1"
           points="0,94.12 38.22,112.19 38.22,68.29 0,50.22 "
           id="polygon13923-5" />
        <polygon
           style="fill:#5c5d60"
           class="cls-1"
           points="39.76,65.7 77.2,50.04 39.69,32.99 2.25,47.97 "
           id="polygon13925-6" />
        <polygon
           style="fill:#5c5d60"
           class="cls-1"
           points="80.97,48.47 118.35,32.83 80.92,16.5 43.54,31.45 "
           id="polygon13927-8" />
        <polygon
           style="fill:#f18a00"
           class="cls-3"
           points="122.17,31.23 159.5,14.94 122.17,0 84.83,14.94 "
           id="polygon13929-4" />
        <polygon
           style="fill:#5c5d60"
           class="cls-1"
           points="120.67,74.63 120.67,35.11 82.44,51.1 82.44,92.7 "
           id="polygon13931-8" />
        <polygon
           style="fill:#ffb71b"
           class="cls-2"
           points="79.45,181.48 41.22,164.1 41.22,205.2 41.22,206.54 79.45,224.61 79.45,188.53 "
           id="polygon13933-8" />
        <polygon
           style="fill:#ffb71b"
           class="cls-2"
           points="43.29,161.75 80.93,178.86 118.6,161.05 80.96,143.94 "
           id="polygon13935-3" />
        <polygon
           style="fill:#f18a00"
           class="cls-3"
           points="123.67,35 123.67,73.22 123.67,74.63 161.89,92.7 161.89,58.46 161.89,55.15 161.89,48.9 "
           id="polygon13937-8" />
        <polygon
           style="fill:#f18a00"
           class="cls-3"
           points="163.4,16.5 126.2,32.74 163.35,46.24 199.2,31.36 "
           id="polygon13939-7" />
        <polygon
           style="fill:#f18a00"
           class="cls-3"
           points="244.33,97.44 206.11,115.51 206.11,159.41 244.33,141.34 "
           id="polygon13941-5" />
        <polygon
           style="fill:#f18a00"
           class="cls-3"
           points="164.89,97.44 164.89,141.34 203.11,159.41 203.11,115.51 "
           id="polygon13943-2" />
        <polygon
           style="fill:#6aa845"
           class="cls-4"
           points="206.11,162.72 206.11,205.13 244.33,187.06 244.33,144.66 "
           id="polygon13945-4" />
        <polygon
           style="fill:#f18a00"
           class="cls-3"
           points="206.11,112.19 244.33,94.12 244.33,50.03 206.11,64.62 "
           id="polygon13947-5" />
        <polygon
           style="fill:#f18a00"
           class="cls-3"
           points="164.89,50.03 164.89,94.12 203.11,112.19 203.11,64.62 "
           id="polygon13949-0" />
        <polygon
           style="fill:#f18a00"
           class="cls-3"
           points="167.44,47.79 204.61,61.99 241.65,47.84 203.13,32.98 "
           id="polygon13951-5" />
        <polygon
           style="fill:#4d8fcc"
           class="cls-5"
           points="161.89,140.59 161.89,139.92 161.89,105.68 161.89,102.36 161.89,96.69 123.67,114.76 123.67,120.44 123.67,121.85 123.67,123.75 123.67,125.17 123.67,158.66 "
           id="polygon13953-7" />
        <polygon
           style="fill:#4d8fcc"
           class="cls-5"
           points="82.44,97.4 82.44,139.92 82.44,141.32 120.67,158.7 120.67,125.17 120.67,121.85 120.67,114.77 "
           id="polygon13955-3" />
        <polygon
           style="fill:#4d8fcc"
           class="cls-5"
           points="84.51,95.04 122.16,112.16 159.82,94.35 122.18,77.23 "
           id="polygon13957-2" />
        <polygon
           style="fill:#ffb71b"
           class="cls-2"
           points="161.89,182.13 123.67,200.2 123.67,243.39 161.89,226.01 161.89,187.14 "
           id="polygon13959-7" />
        <polygon
           style="fill:#ffb71b"
           class="cls-2"
           points="82.44,224.65 82.44,226.01 120.67,243.39 120.67,207.28 120.67,200.22 82.44,182.84 82.44,187.14 "
           id="polygon13961-2" />
        <polygon
           style="fill:#ffb71b"
           class="cls-2"
           points="122.16,197.6 159.82,179.79 122.18,162.68 84.51,180.49 "
           id="polygon13963-1" />
        <polygon
           style="fill:#6aa845"
           class="cls-4"
           points="203.11,164.06 164.89,180.74 164.89,188.53 164.89,224.61 203.11,206.54 203.11,205.2 "
           id="polygon13965-3" />
        <polygon
           style="fill:#6aa845"
           class="cls-4"
           points="200.99,161.72 161.89,143.2 124.28,160.97 163.39,178.13 "
           id="polygon13967-4" />
        <path
           style="fill:#6d6e71"
           class="cls-6"
           d="m 380.15,33.29 a 0.24,0.24 0 0 1 0.24,-0.23 h 7.22 a 0.24,0.24 0 0 1 0.23,0.23 v 0.31 a 0.24,0.24 0 0 1 -0.23,0.23 H 381 v 5 h 5.7 A 0.24,0.24 0 0 1 387,39 v 0.3 a 0.24,0.24 0 0 1 -0.24,0.24 H 381 v 5.33 h 6.59 a 0.23,0.23 0 0 1 0.23,0.23 v 0.29 a 0.24,0.24 0 0 1 -0.23,0.23 h -7.22 a 0.24,0.24 0 0 1 -0.24,-0.23 z"
           id="path13969-9" />
        <path
           style="fill:#6d6e71"
           class="cls-6"
           d="m 391.24,38.69 a 0.24,0.24 0 0 1 0.25,-0.23 h 0.18 a 0.2,0.2 0 0 1 0.22,0.18 l 0.07,0.77 a 3.84,3.84 0 0 1 2.67,-1.13 c 2,0 2.89,1.28 2.89,3.29 v 3.86 a 0.23,0.23 0 0 1 -0.23,0.23 H 397 a 0.24,0.24 0 0 1 -0.24,-0.23 v -3.86 c 0,-1.65 -0.77,-2.52 -2.14,-2.52 A 3.72,3.72 0 0 0 392,40.3 v 5.13 a 0.21,0.21 0 0 1 -0.23,0.23 h -0.34 a 0.21,0.21 0 0 1 -0.2,-0.23 z"
           id="path13971-4" />
        <path
           style="fill:#6d6e71"
           class="cls-6"
           d="m 404.26,38.28 a 3.64,3.64 0 0 1 2.21,0.72 v -5.71 a 0.23,0.23 0 0 1 0.23,-0.23 h 0.3 a 0.23,0.23 0 0 1 0.21,0.23 v 12.14 a 0.23,0.23 0 0 1 -0.23,0.23 h -0.18 a 0.23,0.23 0 0 1 -0.25,-0.23 l -0.06,-0.63 a 3.47,3.47 0 0 1 -2.48,1 3.54,3.54 0 0 1 -3.33,-3.78 3.59,3.59 0 0 1 3.58,-3.74 z m -0.17,6.84 a 2.85,2.85 0 0 0 2.38,-1.28 v -4 a 3.38,3.38 0 0 0 -2.14,-0.76 2.84,2.84 0 0 0 -2.83,3 2.81,2.81 0 0 0 2.59,3.04 z"
           id="path13973-1" />
        <path
           style="fill:#6d6e71"
           class="cls-6"
           d="m 411.83,50.83 a 0.23,0.23 0 0 1 -0.23,0.23 h -0.31 a 0.23,0.23 0 0 1 -0.23,-0.23 V 38.69 a 0.24,0.24 0 0 1 0.25,-0.23 h 0.2 c 0.12,0 0.2,0 0.21,0.18 l 0.06,0.5 a 3.62,3.62 0 0 1 2.36,-0.86 3.57,3.57 0 0 1 3.47,3.78 3.62,3.62 0 0 1 -3.61,3.78 3.31,3.31 0 0 1 -2.14,-0.74 z m 2.05,-5.75 a 2.9,2.9 0 0 0 2.94,-3 2.81,2.81 0 0 0 -2.74,-3 2.86,2.86 0 0 0 -2.23,1 v 4.21 a 2.83,2.83 0 0 0 2.03,0.79 z"
           id="path13975-9" />
        <path
           style="fill:#6d6e71"
           class="cls-6"
           d="M 424,38.28 A 3.78,3.78 0 1 1 420.36,42 3.7,3.7 0 0 1 424,38.28 Z m 0,6.82 A 3,3 0 1 0 421.14,42 2.92,2.92 0 0 0 424,45.1 Z"
           id="path13977-5" />
        <path
           style="fill:#6d6e71"
           class="cls-6"
           d="m 430.66,34.34 a 0.61,0.61 0 1 1 1.22,0 0.61,0.61 0 0 1 -1.22,0 z m 0.22,4.35 a 0.23,0.23 0 0 1 0.23,-0.23 h 0.32 a 0.24,0.24 0 0 1 0.24,0.23 v 6.74 a 0.21,0.21 0 0 1 -0.24,0.23 h -0.36 a 0.21,0.21 0 0 1 -0.19,-0.23 z"
           id="path13979-7" />
        <path
           style="fill:#6d6e71"
           class="cls-6"
           d="m 435.48,38.69 a 0.24,0.24 0 0 1 0.25,-0.23 h 0.19 a 0.2,0.2 0 0 1 0.21,0.18 l 0.07,0.77 a 3.89,3.89 0 0 1 2.67,-1.13 c 2,0 2.9,1.28 2.9,3.29 v 3.86 a 0.24,0.24 0 0 1 -0.24,0.23 h -0.32 a 0.24,0.24 0 0 1 -0.24,-0.23 v -3.86 c 0,-1.65 -0.77,-2.52 -2.14,-2.52 a 3.68,3.68 0 0 0 -2.57,1.25 v 5.13 a 0.21,0.21 0 0 1 -0.24,0.23 h -0.34 a 0.21,0.21 0 0 1 -0.2,-0.23 z"
           id="path13981-4" />
        <path
           style="fill:#6d6e71"
           class="cls-6"
           d="m 445.78,39.16 h -0.85 c -0.18,0 -0.21,-0.09 -0.21,-0.23 v -0.29 c 0,-0.13 0.09,-0.18 0.21,-0.18 h 0.85 v -2 a 0.23,0.23 0 0 1 0.23,-0.24 h 0.31 a 0.23,0.23 0 0 1 0.23,0.24 v 2 h 2.51 a 0.23,0.23 0 0 1 0.23,0.23 v 0.24 a 0.22,0.22 0 0 1 -0.23,0.23 h -2.51 v 4.59 c 0,0.85 0.09,1.32 0.94,1.32 a 3.94,3.94 0 0 0 1.64,-0.49 0.19,0.19 0 0 1 0.29,0.07 l 0.12,0.22 c 0.07,0.13 0.06,0.23 -0.05,0.3 a 3.55,3.55 0 0 1 -2.09,0.67 c -1.49,0 -1.62,-0.88 -1.62,-2 z"
           id="path13983-1" />
        <path
           style="fill:#6d6e71"
           class="cls-6"
           d="m 458,33.29 a 0.24,0.24 0 0 1 0.22,-0.23 H 462 a 6.3,6.3 0 1 1 0,12.6 h -3.81 a 0.24,0.24 0 0 1 -0.22,-0.23 z m 3.89,11.6 a 5.53,5.53 0 1 0 0,-11.06 h -3 v 11.06 z"
           id="path13985-2" />
        <path
           style="fill:#6d6e71"
           class="cls-6"
           d="m 474.67,38.28 a 3.17,3.17 0 0 1 3.26,3.29 c 0,0.29 0,0.71 -0.27,0.71 h -5.74 a 2.84,2.84 0 0 0 2.8,2.84 3.91,3.91 0 0 0 2.13,-0.66 c 0.16,-0.11 0.23,-0.13 0.32,0 l 0.18,0.25 c 0.06,0.07 0,0.18 -0.07,0.29 a 4.35,4.35 0 0 1 -2.61,0.84 3.53,3.53 0 0 1 -3.55,-3.8 3.53,3.53 0 0 1 3.55,-3.76 z m 2.47,3.35 a 2.42,2.42 0 0 0 -2.47,-2.63 2.68,2.68 0 0 0 -2.74,2.63 z"
           id="path13987-2" />
        <path
           style="fill:#6d6e71"
           class="cls-6"
           d="m 481.44,39.16 h -0.85 c -0.18,0 -0.21,-0.09 -0.21,-0.23 v -0.29 c 0,-0.13 0.09,-0.18 0.21,-0.18 h 0.85 v -2 a 0.23,0.23 0 0 1 0.23,-0.24 h 0.31 a 0.24,0.24 0 0 1 0.23,0.24 v 2 h 2.5 a 0.23,0.23 0 0 1 0.24,0.23 v 0.24 a 0.22,0.22 0 0 1 -0.24,0.23 h -2.5 v 4.59 c 0,0.85 0.09,1.32 0.94,1.32 a 3.94,3.94 0 0 0 1.64,-0.49 c 0.16,-0.09 0.23,0 0.28,0.07 l 0.13,0.22 a 0.21,0.21 0 0 1 -0.05,0.3 3.57,3.57 0 0 1 -2.09,0.67 c -1.5,0 -1.62,-0.88 -1.62,-2 z"
           id="path13989-1" />
        <path
           style="fill:#6d6e71"
           class="cls-6"
           d="m 491.16,38.28 a 3.17,3.17 0 0 1 3.26,3.29 c 0,0.29 0,0.71 -0.27,0.71 h -5.75 a 2.85,2.85 0 0 0 2.81,2.84 3.94,3.94 0 0 0 2.13,-0.66 c 0.16,-0.11 0.23,-0.13 0.32,0 l 0.18,0.25 c 0.05,0.07 0,0.18 -0.07,0.29 a 4.37,4.37 0 0 1 -2.61,0.84 3.53,3.53 0 0 1 -3.55,-3.8 3.53,3.53 0 0 1 3.55,-3.76 z m 2.47,3.35 a 2.42,2.42 0 0 0 -2.47,-2.63 2.68,2.68 0 0 0 -2.74,2.63 z"
           id="path13991-6" />
        <path
           style="fill:#6d6e71"
           class="cls-6"
           d="m 500.86,38.28 a 3.48,3.48 0 0 1 2.66,1.13 0.22,0.22 0 0 1 0,0.33 l -0.18,0.18 a 0.25,0.25 0 0 1 -0.38,0 3,3 0 1 0 -2.09,5.2 2.9,2.9 0 0 0 2.22,-1.12 c 0.13,-0.14 0.24,-0.14 0.34,0 l 0.2,0.18 c 0.09,0.09 0.13,0.18 0.06,0.29 a 3.61,3.61 0 0 1 -2.83,1.38 3.78,3.78 0 0 1 0,-7.56 z"
           id="path13993-2" />
        <path
           style="fill:#6d6e71"
           class="cls-6"
           d="m 507.27,39.16 h -0.85 c -0.18,0 -0.22,-0.09 -0.22,-0.23 v -0.29 c 0,-0.13 0.09,-0.18 0.22,-0.18 h 0.85 v -2 a 0.22,0.22 0 0 1 0.23,-0.24 h 0.31 a 0.24,0.24 0 0 1 0.23,0.24 v 2 h 2.5 a 0.23,0.23 0 0 1 0.24,0.23 v 0.24 a 0.22,0.22 0 0 1 -0.24,0.23 H 508 v 4.59 c 0,0.85 0.09,1.32 0.94,1.32 a 3.94,3.94 0 0 0 1.64,-0.49 c 0.16,-0.09 0.23,0 0.28,0.07 l 0.13,0.22 a 0.21,0.21 0 0 1 0,0.3 3.57,3.57 0 0 1 -2.09,0.67 c -1.5,0 -1.62,-0.88 -1.62,-2 z"
           id="path13995-0" />
        <path
           style="fill:#6d6e71"
           class="cls-6"
           d="m 513.75,34.34 a 0.61,0.61 0 1 1 1.22,0 0.61,0.61 0 0 1 -1.22,0 z m 0.21,4.35 a 0.24,0.24 0 0 1 0.24,-0.23 h 0.32 a 0.23,0.23 0 0 1 0.23,0.23 v 6.74 a 0.21,0.21 0 0 1 -0.23,0.23 h -0.36 a 0.21,0.21 0 0 1 -0.2,-0.23 z"
           id="path13997-2" />
        <path
           style="fill:#6d6e71"
           class="cls-6"
           d="M 521.65,38.28 A 3.78,3.78 0 1 1 518,42 a 3.7,3.7 0 0 1 3.65,-3.72 z m 0,6.82 a 3,3 0 1 0 -2.84,-3.1 2.93,2.93 0 0 0 2.84,3.1 z"
           id="path13999-2" />
        <path
           style="fill:#6d6e71"
           class="cls-6"
           d="m 528.54,38.69 a 0.24,0.24 0 0 1 0.25,-0.23 H 529 a 0.2,0.2 0 0 1 0.22,0.18 l 0.07,0.77 a 3.89,3.89 0 0 1 2.67,-1.13 c 2,0 2.9,1.28 2.9,3.29 v 3.86 a 0.24,0.24 0 0 1 -0.24,0.23 h -0.32 a 0.24,0.24 0 0 1 -0.24,-0.23 v -3.86 c 0,-1.65 -0.77,-2.52 -2.14,-2.52 a 3.68,3.68 0 0 0 -2.57,1.25 v 5.13 a 0.21,0.21 0 0 1 -0.24,0.23 h -0.34 a 0.21,0.21 0 0 1 -0.2,-0.23 z"
           id="path14001-9" />
        <path
           style="fill:#6d6e71"
           class="cls-6"
           d="m 546.43,38.89 -0.26,-0.29 a 4.29,4.29 0 0 1 -1.55,-2.93 2.85,2.85 0 0 1 3.08,-2.79 2.69,2.69 0 0 1 2.91,2.72 c 0,1.49 -1.55,2.68 -3,3.42 l 3.67,3.63 A 7,7 0 0 0 552.39,39 c 0,-0.09 0,-0.27 0,-0.36 0,-0.09 0,-0.16 0.14,-0.16 h 0.38 a 0.19,0.19 0 0 1 0.21,0.16 1.23,1.23 0 0 1 0,0.36 8,8 0 0 1 -1.3,4.2 l 1.91,1.8 c 0.14,0.13 0.21,0.29 0.07,0.42 l -0.29,0.26 c -0.14,0.15 -0.27,0.06 -0.36,0 l -1.8,-1.82 a 5.37,5.37 0 0 1 -4.16,2 3.23,3.23 0 0 1 -3.42,-3.29 c 0,-1.91 1.39,-2.99 2.66,-3.68 z m 0.78,6.23 a 4.68,4.68 0 0 0 3.64,-1.78 l -3.91,-4 a 3.77,3.77 0 0 0 -2.38,3.17 2.55,2.55 0 0 0 2.65,2.61 z m 2.61,-9.51 a 2,2 0 0 0 -2.18,-2 2.11,2.11 0 0 0 -2.27,2.11 3.43,3.43 0 0 0 1.23,2.28 c 0.18,0.16 0.34,0.34 0.52,0.53 1.31,-0.7 2.7,-1.62 2.7,-2.92 z"
           id="path14003-7" />
        <path
           style="fill:#6d6e71"
           class="cls-6"
           d="m 562.33,33.29 a 0.23,0.23 0 0 1 0.23,-0.23 H 567 a 3.86,3.86 0 0 1 1,7.61 l 2.63,4.67 c 0.09,0.14 0,0.32 -0.13,0.32 H 570 a 0.26,0.26 0 0 1 -0.26,-0.16 l -2.61,-4.72 c -0.23,0 -0.43,0 -0.66,0 h -3.32 v 4.63 a 0.25,0.25 0 0 1 -0.28,0.23 h -0.33 a 0.24,0.24 0 0 1 -0.23,-0.23 z M 567,40 a 3.15,3.15 0 0 0 3.19,-3.13 3.11,3.11 0 0 0 -3.21,-3 H 563.2 V 40 Z"
           id="path14005-4" />
        <path
           style="fill:#6d6e71"
           class="cls-6"
           d="m 577.11,38.28 a 3.17,3.17 0 0 1 3.26,3.29 c 0,0.29 0,0.71 -0.27,0.71 h -5.75 a 2.85,2.85 0 0 0 2.81,2.84 3.94,3.94 0 0 0 2.13,-0.66 c 0.16,-0.11 0.23,-0.13 0.32,0 l 0.18,0.25 c 0.05,0.07 0,0.18 -0.07,0.29 a 4.37,4.37 0 0 1 -2.61,0.84 3.53,3.53 0 0 1 -3.55,-3.8 3.53,3.53 0 0 1 3.55,-3.76 z m 2.46,3.35 a 2.42,2.42 0 0 0 -2.46,-2.63 2.68,2.68 0 0 0 -2.74,2.63 z"
           id="path14007-3" />
        <path
           style="fill:#6d6e71"
           class="cls-6"
           d="m 583.15,44.78 0.18,-0.29 a 0.22,0.22 0 0 1 0.33,0 3.16,3.16 0 0 0 1.92,0.7 c 1,0 1.73,-0.57 1.73,-1.27 0,-0.7 -0.81,-1.17 -2,-1.62 -1.19,-0.45 -2.22,-1 -2.22,-2.13 a 2.09,2.09 0 0 1 2.36,-1.87 3.74,3.74 0 0 1 2,0.58 0.25,0.25 0 0 1 0.08,0.34 l -0.11,0.2 a 0.25,0.25 0 0 1 -0.34,0.09 3.4,3.4 0 0 0 -1.66,-0.51 c -1.13,0 -1.55,0.67 -1.55,1.15 0,0.72 0.65,1.07 1.71,1.44 1.35,0.51 2.54,1 2.54,2.27 a 2.33,2.33 0 0 1 -2.56,2 3.61,3.61 0 0 1 -2.35,-0.81 0.19,0.19 0 0 1 -0.06,-0.27 z"
           id="path14009-5" />
        <path
           style="fill:#6d6e71"
           class="cls-6"
           d="m 592.08,50.83 a 0.23,0.23 0 0 1 -0.23,0.23 h -0.31 a 0.23,0.23 0 0 1 -0.23,-0.23 V 38.69 a 0.24,0.24 0 0 1 0.25,-0.23 h 0.2 c 0.12,0 0.2,0 0.21,0.18 l 0.06,0.5 a 3.62,3.62 0 0 1 2.36,-0.86 3.57,3.57 0 0 1 3.47,3.78 3.62,3.62 0 0 1 -3.64,3.78 3.31,3.31 0 0 1 -2.14,-0.74 z m 2.06,-5.75 a 2.89,2.89 0 0 0 2.93,-3 2.81,2.81 0 0 0 -2.74,-3 2.86,2.86 0 0 0 -2.23,1 v 4.21 a 2.84,2.84 0 0 0 2.04,0.79 z"
           id="path14011-6" />
        <path
           style="fill:#6d6e71"
           class="cls-6"
           d="m 604.23,38.28 a 3.78,3.78 0 1 1 -3.62,3.72 3.7,3.7 0 0 1 3.62,-3.72 z m 0,6.82 a 3,3 0 1 0 -2.84,-3.1 2.92,2.92 0 0 0 2.84,3.1 z"
           id="path14013-1" />
        <path
           style="fill:#6d6e71"
           class="cls-6"
           d="m 611.13,38.69 a 0.24,0.24 0 0 1 0.25,-0.23 h 0.18 a 0.19,0.19 0 0 1 0.21,0.18 l 0.08,0.77 a 3.83,3.83 0 0 1 2.66,-1.13 c 2,0 2.9,1.28 2.9,3.29 v 3.86 a 0.24,0.24 0 0 1 -0.23,0.23 h -0.33 a 0.23,0.23 0 0 1 -0.23,-0.23 v -3.86 c 0,-1.65 -0.78,-2.52 -2.15,-2.52 a 3.68,3.68 0 0 0 -2.57,1.25 v 5.13 a 0.21,0.21 0 0 1 -0.23,0.23 h -0.35 a 0.21,0.21 0 0 1 -0.19,-0.23 z"
           id="path14015-4" />
        <path
           style="fill:#6d6e71"
           class="cls-6"
           d="m 620.7,44.78 0.18,-0.29 a 0.22,0.22 0 0 1 0.33,0 3.13,3.13 0 0 0 1.92,0.7 c 1,0 1.73,-0.57 1.73,-1.27 0,-0.7 -0.81,-1.17 -2,-1.62 -1.19,-0.45 -2.21,-1 -2.21,-2.13 a 2.09,2.09 0 0 1 2.35,-1.89 3.74,3.74 0 0 1 2,0.58 0.25,0.25 0 0 1 0.08,0.34 l -0.11,0.2 A 0.26,0.26 0 0 1 624.62,39.49 3.35,3.35 0 0 0 623,39 c -1.14,0 -1.55,0.67 -1.55,1.15 0,0.72 0.65,1.07 1.71,1.44 1.35,0.51 2.54,1 2.54,2.27 a 2.33,2.33 0 0 1 -2.56,2 3.67,3.67 0 0 1 -2.36,-0.81 0.2,0.2 0 0 1 -0.08,-0.27 z"
           id="path14017-0" />
        <path
           style="fill:#6d6e71"
           class="cls-6"
           d="m 631.88,38.28 a 3.17,3.17 0 0 1 3.26,3.29 c 0,0.29 0,0.71 -0.27,0.71 h -5.74 a 2.84,2.84 0 0 0 2.8,2.84 3.91,3.91 0 0 0 2.13,-0.66 c 0.16,-0.11 0.23,-0.13 0.32,0 l 0.18,0.25 c 0.06,0.07 0,0.18 -0.07,0.29 a 4.35,4.35 0 0 1 -2.61,0.84 3.53,3.53 0 0 1 -3.55,-3.8 3.53,3.53 0 0 1 3.55,-3.76 z m 2.47,3.35 a 2.42,2.42 0 0 0 -2.47,-2.63 2.68,2.68 0 0 0 -2.74,2.63 z"
           id="path14019-3" />
        <polygon
           style="fill:#5c5d60"
           class="cls-1"
           points="357.54,49.55 357.54,35.4 344.59,40.82 344.59,55.68 "
           id="polygon14021-1" />
        <polygon
           style="fill:#5c5d60"
           class="cls-1"
           points="330.62,49.55 343.57,55.68 343.57,40.8 330.62,34.68 "
           id="polygon14023-2" />
        <polygon
           style="fill:#5c5d60"
           class="cls-1"
           points="344.09,39.93 356.78,34.62 344.07,28.85 331.39,33.92 "
           id="polygon14025-7" />
        <path
           style="fill:#6d6e71"
           class="cls-6"
           d="m 380.15,112.72 a 0.24,0.24 0 0 1 0.24,-0.23 h 3.87 a 4.06,4.06 0 1 1 0,8.12 H 381 v 4.25 c 0,0.13 -0.11,0.23 -0.29,0.23 h -0.32 a 0.23,0.23 0 0 1 -0.24,-0.23 z m 4.07,7.06 a 3.28,3.28 0 0 0 3.26,-3.28 3.23,3.23 0 0 0 -3.28,-3.16 H 381 v 6.44 z"
           id="path14027-7" />
        <path
           style="fill:#6d6e71"
           class="cls-6"
           d="m 391,118.13 a 0.24,0.24 0 0 1 0.24,-0.24 h 0.21 a 0.22,0.22 0 0 1 0.22,0.2 l 0.07,0.74 a 2.77,2.77 0 0 1 2.25,-1.12 2.87,2.87 0 0 1 1.12,0.22 0.25,0.25 0 0 1 0.2,0.32 l -0.15,0.36 c -0.05,0.13 -0.16,0.15 -0.29,0.09 a 2.37,2.37 0 0 0 -0.93,-0.21 2.5,2.5 0 0 0 -2.14,1.24 v 5.13 a 0.21,0.21 0 0 1 -0.24,0.23 h -0.36 a 0.21,0.21 0 0 1 -0.2,-0.23 z"
           id="path14029-9" />
        <path
           style="fill:#6d6e71"
           class="cls-6"
           d="m 397.72,113.77 a 0.61,0.61 0 1 1 1.22,0 0.61,0.61 0 0 1 -1.22,0 z m 0.22,4.36 a 0.23,0.23 0 0 1 0.23,-0.24 h 0.32 a 0.24,0.24 0 0 1 0.24,0.24 v 6.73 a 0.21,0.21 0 0 1 -0.24,0.23 h -0.36 c -0.12,0 -0.19,-0.1 -0.19,-0.23 z"
           id="path14031-8" />
        <path
           style="fill:#6d6e71"
           class="cls-6"
           d="m 401.48,118.16 c -0.07,-0.14 -0.05,-0.27 0.11,-0.27 h 0.4 a 0.24,0.24 0 0 1 0.23,0.16 l 2.61,6 v 0 l 2.63,-6 a 0.24,0.24 0 0 1 0.23,-0.16 h 0.4 c 0.16,0 0.18,0.13 0.11,0.27 l -3.14,7 a 0.23,0.23 0 0 1 -0.21,0.16 h -0.08 c -0.1,0 -0.16,0 -0.21,-0.16 z"
           id="path14033-1" />
        <path
           style="fill:#6d6e71"
           class="cls-6"
           d="m 410.75,113.77 a 0.62,0.62 0 1 1 1.23,0 0.62,0.62 0 0 1 -1.23,0 z m 0.22,4.36 a 0.24,0.24 0 0 1 0.23,-0.24 h 0.33 a 0.24,0.24 0 0 1 0.23,0.24 v 6.73 a 0.21,0.21 0 0 1 -0.23,0.23 h -0.36 a 0.2,0.2 0 0 1 -0.2,-0.23 z"
           id="path14035-0" />
        <path
           style="fill:#6d6e71"
           class="cls-6"
           d="m 415.58,112.72 a 0.23,0.23 0 0 1 0.23,-0.23 h 0.32 a 0.24,0.24 0 0 1 0.24,0.23 v 12.14 a 0.21,0.21 0 0 1 -0.24,0.23 h -0.36 c -0.12,0 -0.19,-0.1 -0.19,-0.23 z"
           id="path14037-7" />
        <path
           style="fill:#6d6e71"
           class="cls-6"
           d="m 423.21,117.71 a 3.17,3.17 0 0 1 3.26,3.3 c 0,0.28 0,0.7 -0.27,0.7 h -5.75 a 2.84,2.84 0 0 0 2.81,2.84 3.86,3.86 0 0 0 2.13,-0.66 c 0.16,-0.11 0.23,-0.13 0.32,0 l 0.18,0.25 c 0.05,0.07 0,0.18 -0.07,0.29 a 4.37,4.37 0 0 1 -2.61,0.84 3.79,3.79 0 0 1 0,-7.56 z m 2.47,3.35 a 2.43,2.43 0 0 0 -2.47,-2.63 2.68,2.68 0 0 0 -2.74,2.63 z"
           id="path14039-6" />
        <path
           style="fill:#6d6e71"
           class="cls-6"
           d="m 430.12,122.55 a 3.09,3.09 0 0 1 -0.56,-1.8 3,3 0 0 1 3.15,-3 h 3 a 0.23,0.23 0 0 1 0.23,0.24 v 0.19 a 0.21,0.21 0 0 1 -0.16,0.22 l -1.3,0.09 a 2.45,2.45 0 0 1 1.12,2.3 2.91,2.91 0 0 1 -3,3 2.68,2.68 0 0 1 -2,-0.65 1.48,1.48 0 0 0 -0.92,1.3 c 0,0.85 0.72,1 1.42,1 h 2.61 c 1.55,0 2.67,0.7 2.67,2.3 0,1.6 -1.48,2.94 -3.68,2.94 -2.45,0 -3.51,-1.44 -3.51,-2.67 a 2.24,2.24 0 0 1 1.14,-1.89 1.8,1.8 0 0 1 -1.41,-1.64 2.3,2.3 0 0 1 1.2,-1.93 z m 2.57,7.39 c 1.62,0 2.87,-1 2.87,-2.18 0,-0.83 -0.51,-1.59 -1.84,-1.59 h -2.27 a 2,2 0 0 0 -1.46,1.75 c 0.01,0.99 1.01,2.02 2.7,2.02 z m 2.11,-9.2 a 2.14,2.14 0 0 0 -2.21,-2.31 2.21,2.21 0 0 0 -2.29,2.31 2.15,2.15 0 0 0 2.29,2.3 2.18,2.18 0 0 0 2.21,-2.3 z"
           id="path14041-0" />
        <path
           style="fill:#6d6e71"
           class="cls-6"
           d="m 442.09,117.71 a 3.17,3.17 0 0 1 3.26,3.3 c 0,0.28 0,0.7 -0.27,0.7 h -5.74 a 2.83,2.83 0 0 0 2.8,2.84 3.83,3.83 0 0 0 2.13,-0.66 c 0.16,-0.11 0.23,-0.13 0.32,0 l 0.18,0.25 c 0.06,0.07 0,0.18 -0.07,0.29 a 4.35,4.35 0 0 1 -2.61,0.84 3.79,3.79 0 0 1 0,-7.56 z m 2.47,3.35 a 2.43,2.43 0 0 0 -2.47,-2.63 2.68,2.68 0 0 0 -2.74,2.63 z"
           id="path14043-1" />
        <path
           style="fill:#6d6e71"
           class="cls-6"
           d="m 455.63,112.44 a 0.16,0.16 0 0 1 0.16,-0.13 h 0.2 a 0.18,0.18 0 0 1 0.18,0.13 l 3.7,11 v 0 l 3.73,-11 a 0.17,0.17 0 0 1 0.18,-0.13 h 0.2 a 0.17,0.17 0 0 1 0.16,0.13 l 2.55,12.42 c 0,0.18 0,0.23 -0.19,0.23 h -0.44 a 0.23,0.23 0 0 1 -0.21,-0.19 l -2,-10.56 v 0 l -3.64,10.79 a 0.23,0.23 0 0 1 -0.25,0.14 h -0.07 c -0.09,0 -0.2,0 -0.24,-0.14 L 456,114.34 v 0 l -2,10.56 a 0.22,0.22 0 0 1 -0.21,0.19 h -0.43 c -0.17,0 -0.24,0 -0.2,-0.23 z"
           id="path14045-0" />
        <path
           style="fill:#6d6e71"
           class="cls-6"
           d="m 472.46,120.45 a 6,6 0 0 1 1.81,0.32 c 0,-1.58 -0.16,-2.37 -1.58,-2.37 a 5.38,5.38 0 0 0 -2.16,0.48 c -0.14,0.06 -0.23,0 -0.27,-0.14 l -0.09,-0.22 a 0.19,0.19 0 0 1 0.11,-0.27 5.26,5.26 0 0 1 2.46,-0.54 c 2.2,0 2.29,1.32 2.29,3.15 v 4 a 0.23,0.23 0 0 1 -0.23,0.23 h -0.22 c -0.13,0 -0.18,-0.07 -0.22,-0.19 l -0.07,-0.65 a 3.77,3.77 0 0 1 -2.5,1 2.26,2.26 0 0 1 -2.36,-2.39 c 0,-1.37 1.14,-2.41 3.03,-2.41 z m -0.58,4.12 a 3.26,3.26 0 0 0 2.39,-1.11 v -2 a 4.82,4.82 0 0 0 -1.81,-0.37 c -1.37,0 -2.29,0.7 -2.29,1.76 a 1.62,1.62 0 0 0 1.71,1.72 z"
           id="path14047-2" />
        <path
           style="fill:#6d6e71"
           class="cls-6"
           d="m 478.77,118.13 a 0.25,0.25 0 0 1 0.25,-0.24 h 0.19 a 0.2,0.2 0 0 1 0.21,0.18 l 0.07,0.78 a 3.84,3.84 0 0 1 2.67,-1.14 c 2,0 2.9,1.28 2.9,3.3 v 3.85 a 0.23,0.23 0 0 1 -0.24,0.23 h -0.32 a 0.23,0.23 0 0 1 -0.23,-0.23 V 121 c 0,-1.66 -0.78,-2.52 -2.15,-2.52 a 3.69,3.69 0 0 0 -2.57,1.24 v 5.13 a 0.21,0.21 0 0 1 -0.24,0.23 H 479 a 0.21,0.21 0 0 1 -0.2,-0.23 z"
           id="path14049-5" />
        <path
           style="fill:#6d6e71"
           class="cls-6"
           d="m 491.21,120.45 a 6,6 0 0 1 1.82,0.32 c 0,-1.58 -0.16,-2.37 -1.59,-2.37 a 5.49,5.49 0 0 0 -2.16,0.48 c -0.14,0.06 -0.23,0 -0.27,-0.14 l -0.09,-0.22 a 0.19,0.19 0 0 1 0.11,-0.27 5.32,5.32 0 0 1 2.47,-0.54 c 2.2,0 2.29,1.32 2.29,3.15 v 4 a 0.23,0.23 0 0 1 -0.24,0.23 h -0.21 c -0.13,0 -0.18,-0.07 -0.22,-0.19 l -0.07,-0.65 a 3.77,3.77 0 0 1 -2.5,1 2.26,2.26 0 0 1 -2.36,-2.39 c 0,-1.37 1.13,-2.41 3.02,-2.41 z m -0.57,4.12 a 3.28,3.28 0 0 0 2.39,-1.11 v -2 a 4.84,4.84 0 0 0 -1.82,-0.37 c -1.37,0 -2.29,0.7 -2.29,1.76 a 1.62,1.62 0 0 0 1.72,1.72 z"
           id="path14051-1" />
        <path
           style="fill:#6d6e71"
           class="cls-6"
           d="m 498,122.55 a 3.09,3.09 0 0 1 -0.56,-1.8 3,3 0 0 1 3.15,-3 h 2.95 a 0.23,0.23 0 0 1 0.24,0.24 v 0.19 a 0.22,0.22 0 0 1 -0.16,0.22 l -1.3,0.09 a 2.45,2.45 0 0 1 1.12,2.3 2.91,2.91 0 0 1 -3,3 2.68,2.68 0 0 1 -2,-0.65 1.48,1.48 0 0 0 -0.92,1.3 c 0,0.85 0.72,1 1.42,1 h 2.61 c 1.55,0 2.66,0.7 2.66,2.3 0,1.6 -1.47,2.94 -3.67,2.94 -2.45,0 -3.51,-1.44 -3.51,-2.67 a 2.25,2.25 0 0 1 1.13,-1.89 1.81,1.81 0 0 1 -1.4,-1.64 2.3,2.3 0 0 1 1.24,-1.93 z m 2.57,7.39 c 1.62,0 2.87,-1 2.87,-2.18 0,-0.83 -0.51,-1.59 -1.84,-1.59 h -2.27 a 2,2 0 0 0 -1.46,1.75 c -0.02,0.99 0.94,2.02 2.68,2.02 z m 2.11,-9.2 a 2.14,2.14 0 0 0 -2.21,-2.31 2.21,2.21 0 0 0 -2.29,2.31 2.15,2.15 0 0 0 2.29,2.3 2.18,2.18 0 0 0 2.19,-2.3 z"
           id="path14053-9" />
        <path
           style="fill:#6d6e71"
           class="cls-6"
           d="m 510,117.71 a 3.17,3.17 0 0 1 3.26,3.3 c 0,0.28 0,0.7 -0.27,0.7 h -5.75 a 2.84,2.84 0 0 0 2.81,2.84 3.83,3.83 0 0 0 2.13,-0.66 c 0.16,-0.11 0.23,-0.13 0.32,0 l 0.18,0.25 c 0.06,0.07 0,0.18 -0.07,0.29 a 4.35,4.35 0 0 1 -2.61,0.84 3.79,3.79 0 0 1 0,-7.56 z m 2.47,3.35 a 2.43,2.43 0 0 0 -2.47,-2.63 2.68,2.68 0 0 0 -2.74,2.63 z"
           id="path14055-7" />
        <path
           style="fill:#6d6e71"
           class="cls-6"
           d="m 516.41,118.13 a 0.24,0.24 0 0 1 0.23,-0.24 h 0.22 a 0.2,0.2 0 0 1 0.2,0.18 l 0.09,0.78 a 3.13,3.13 0 0 1 2.48,-1.14 2.5,2.5 0 0 1 2.37,1.29 3.66,3.66 0 0 1 2.7,-1.32 c 2,0 2.81,1.28 2.81,3.3 v 3.85 a 0.23,0.23 0 0 1 -0.23,0.23 h -0.36 a 0.21,0.21 0 0 1 -0.2,-0.23 V 121 c 0,-1.66 -0.72,-2.52 -2.07,-2.52 a 3.1,3.1 0 0 0 -2.38,1.22 4.67,4.67 0 0 1 0.16,1.3 v 3.85 a 0.23,0.23 0 0 1 -0.23,0.23 h -0.34 a 0.21,0.21 0 0 1 -0.22,-0.23 V 121 c 0,-1.66 -0.74,-2.52 -2.09,-2.52 a 2.88,2.88 0 0 0 -2.34,1.24 v 5.13 a 0.21,0.21 0 0 1 -0.23,0.23 h -0.36 a 0.2,0.2 0 0 1 -0.2,-0.23 z"
           id="path14057-1" />
        <path
           style="fill:#6d6e71"
           class="cls-6"
           d="m 534.25,117.71 a 3.17,3.17 0 0 1 3.26,3.3 c 0,0.28 0,0.7 -0.27,0.7 h -5.75 a 2.84,2.84 0 0 0 2.81,2.84 3.83,3.83 0 0 0 2.13,-0.66 c 0.16,-0.11 0.23,-0.13 0.32,0 l 0.18,0.25 c 0.06,0.07 0,0.18 -0.07,0.29 a 4.35,4.35 0 0 1 -2.61,0.84 3.79,3.79 0 0 1 0,-7.56 z m 2.47,3.35 a 2.43,2.43 0 0 0 -2.47,-2.63 2.68,2.68 0 0 0 -2.74,2.63 z"
           id="path14059-3" />
        <path
           style="fill:#6d6e71"
           class="cls-6"
           d="m 540.71,118.13 a 0.25,0.25 0 0 1 0.25,-0.24 h 0.18 a 0.2,0.2 0 0 1 0.22,0.18 l 0.07,0.78 a 3.79,3.79 0 0 1 2.66,-1.14 c 2,0 2.9,1.28 2.9,3.3 v 3.85 a 0.23,0.23 0 0 1 -0.23,0.23 h -0.33 a 0.23,0.23 0 0 1 -0.23,-0.23 V 121 c 0,-1.66 -0.77,-2.52 -2.14,-2.52 a 3.72,3.72 0 0 0 -2.58,1.24 v 5.13 a 0.21,0.21 0 0 1 -0.23,0.23 h -0.34 a 0.2,0.2 0 0 1 -0.2,-0.23 z"
           id="path14061-1" />
        <path
           style="fill:#6d6e71"
           class="cls-6"
           d="m 551,118.59 h -0.85 c -0.18,0 -0.22,-0.09 -0.22,-0.23 v -0.29 c 0,-0.12 0.09,-0.18 0.22,-0.18 H 551 v -2 a 0.22,0.22 0 0 1 0.23,-0.23 h 0.31 a 0.24,0.24 0 0 1 0.23,0.23 v 2 h 2.5 a 0.23,0.23 0 0 1 0.24,0.24 v 0.23 a 0.22,0.22 0 0 1 -0.24,0.23 h -2.5 v 4.6 c 0,0.84 0.09,1.31 0.94,1.31 a 3.7,3.7 0 0 0 1.63,-0.49 c 0.17,-0.09 0.24,0 0.29,0.08 l 0.13,0.21 a 0.22,0.22 0 0 1 0,0.31 3.69,3.69 0 0 1 -2.09,0.66 c -1.5,0 -1.62,-0.88 -1.62,-2 z"
           id="path14063-2" />
        <polygon
           style="fill:#4d8fcc"
           class="cls-5"
           points="357.54,128.99 357.54,114.84 344.59,120.25 344.59,135.11 "
           id="polygon14065-0" />
        <polygon
           style="fill:#4d8fcc"
           class="cls-5"
           points="330.62,128.99 343.57,135.11 343.57,120.24 330.62,114.11 "
           id="polygon14067-6" />
        <polygon
           style="fill:#4d8fcc"
           class="cls-5"
           points="344.09,119.36 356.78,114.06 344.07,108.28 331.39,113.35 "
           id="polygon14069-8" />
        <path
           style="fill:#6d6e71"
           class="cls-6"
           d="m 378.35,85.16 5.55,-12.53 a 0.24,0.24 0 0 1 0.21,-0.13 h 0.06 a 0.22,0.22 0 0 1 0.23,0.13 l 5.49,12.53 c 0,0.11 0,0.22 -0.16,0.22 h -0.47 a 0.29,0.29 0 0 1 -0.25,-0.17 l -1.46,-3.31 h -6.88 l -1.44,3.31 a 0.27,0.27 0 0 1 -0.25,0.17 h -0.5 c -0.13,0 -0.18,-0.08 -0.13,-0.22 z m 8.9,-4 -3.08,-7.26 v 0 L 381,81.2 Z"
           id="path14071-7" />
        <path
           style="fill:#6d6e71"
           class="cls-6"
           d="m 392.45,78.41 a 0.24,0.24 0 0 1 0.25,-0.24 h 0.18 a 0.2,0.2 0 0 1 0.21,0.18 l 0.08,0.78 A 3.83,3.83 0 0 1 395.83,78 c 2,0 2.9,1.27 2.9,3.29 v 3.85 a 0.24,0.24 0 0 1 -0.23,0.24 h -0.33 a 0.24,0.24 0 0 1 -0.23,-0.24 v -3.85 c 0,-1.66 -0.78,-2.52 -2.14,-2.52 A 3.7,3.7 0 0 0 393.22,80 v 5.13 a 0.21,0.21 0 0 1 -0.23,0.24 h -0.35 c -0.12,0 -0.19,-0.11 -0.19,-0.24 z"
           id="path14073-4" />
        <path
           style="fill:#6d6e71"
           class="cls-6"
           d="m 402.74,78.88 h -0.84 c -0.18,0 -0.22,-0.09 -0.22,-0.24 v -0.29 c 0,-0.12 0.09,-0.18 0.22,-0.18 h 0.84 v -2 A 0.23,0.23 0 0 1 403,76 h 0.3 a 0.24,0.24 0 0 1 0.24,0.23 v 2 H 406 a 0.23,0.23 0 0 1 0.23,0.24 V 78.7 A 0.22,0.22 0 0 1 406,78.94 h -2.5 v 4.59 c 0,0.84 0.09,1.31 0.93,1.31 a 3.9,3.9 0 0 0 1.64,-0.48 c 0.16,-0.09 0.24,0 0.29,0.07 l 0.13,0.21 a 0.21,0.21 0 0 1 -0.06,0.31 3.55,3.55 0 0 1 -2.09,0.67 c -1.49,0 -1.62,-0.89 -1.62,-2 z"
           id="path14075-9" />
        <path
           style="fill:#6d6e71"
           class="cls-6"
           d="m 409.22,74.05 a 0.62,0.62 0 1 1 1.23,0 0.62,0.62 0 0 1 -1.23,0 z m 0.22,4.36 a 0.24,0.24 0 0 1 0.23,-0.24 H 410 a 0.24,0.24 0 0 1 0.23,0.24 v 6.73 A 0.21,0.21 0 0 1 410,85.38 h -0.36 c -0.13,0 -0.2,-0.11 -0.2,-0.24 z"
           id="path14077-2" />
        <path
           style="fill:#6d6e71"
           class="cls-6"
           d="m 413,78.45 c -0.07,-0.15 -0.05,-0.28 0.11,-0.28 h 0.4 a 0.23,0.23 0 0 1 0.23,0.17 l 2.61,5.94 v 0 L 419,78.34 a 0.23,0.23 0 0 1 0.23,-0.17 h 0.4 c 0.16,0 0.18,0.13 0.11,0.28 l -3.14,6.94 c -0.05,0.11 -0.12,0.17 -0.21,0.17 h -0.07 c -0.11,0 -0.17,0 -0.22,-0.17 z"
           id="path14079-4" />
        <path
           style="fill:#6d6e71"
           class="cls-6"
           d="m 422.25,74.05 a 0.62,0.62 0 1 1 1.23,0 0.62,0.62 0 0 1 -1.23,0 z m 0.22,4.36 a 0.24,0.24 0 0 1 0.23,-0.24 h 0.3 a 0.24,0.24 0 0 1 0.23,0.24 v 6.73 A 0.21,0.21 0 0 1 423,85.38 h -0.36 c -0.13,0 -0.2,-0.11 -0.2,-0.24 z"
           id="path14081-4" />
        <path
           style="fill:#6d6e71"
           class="cls-6"
           d="m 427.08,78.41 a 0.24,0.24 0 0 1 0.23,-0.24 h 0.22 a 0.21,0.21 0 0 1 0.21,0.2 l 0.08,0.74 a 2.77,2.77 0 0 1 2.25,-1.11 3.08,3.08 0 0 1 1.11,0.21 0.25,0.25 0 0 1 0.2,0.33 l -0.14,0.35 a 0.2,0.2 0 0 1 -0.29,0.1 2.21,2.21 0 0 0 -0.94,-0.22 2.52,2.52 0 0 0 -2.14,1.23 v 5.13 a 0.21,0.21 0 0 1 -0.23,0.24 h -0.36 c -0.13,0 -0.2,-0.11 -0.2,-0.24 z"
           id="path14083-5" />
        <path
           style="fill:#6d6e71"
           class="cls-6"
           d="m 433.88,78.41 a 0.24,0.24 0 0 1 0.23,-0.24 h 0.33 a 0.24,0.24 0 0 1 0.23,0.24 v 3.87 c 0,1.67 0.78,2.52 2.15,2.52 a 3,3 0 0 0 2.37,-1.26 v -5.13 a 0.22,0.22 0 0 1 0.24,-0.24 h 0.32 a 0.23,0.23 0 0 1 0.23,0.24 v 6.73 a 0.23,0.23 0 0 1 -0.23,0.24 h -0.22 c -0.14,0 -0.19,-0.11 -0.21,-0.22 l -0.07,-0.7 a 3.31,3.31 0 0 1 -2.49,1.1 c -2,0 -2.88,-1.25 -2.88,-3.28 z"
           id="path14085-9" />
        <path
           style="fill:#6d6e71"
           class="cls-6"
           d="m 443.39,84.5 0.18,-0.29 a 0.2,0.2 0 0 1 0.32,0 3.24,3.24 0 0 0 1.93,0.7 c 1,0 1.72,-0.58 1.72,-1.28 0,-0.7 -0.81,-1.17 -2,-1.62 -1.19,-0.45 -2.22,-1 -2.22,-2.12 a 2.09,2.09 0 0 1 2.35,-1.89 3.85,3.85 0 0 1 2,0.57 0.26,0.26 0 0 1 0.07,0.34 l -0.11,0.2 a 0.24,0.24 0 0 1 -0.34,0.09 3.38,3.38 0 0 0 -1.66,-0.5 c -1.13,0 -1.55,0.66 -1.55,1.15 0,0.72 0.65,1.06 1.71,1.44 1.35,0.5 2.54,0.95 2.54,2.27 a 2.32,2.32 0 0 1 -2.55,2 3.68,3.68 0 0 1 -2.36,-0.81 c -0.03,-0.06 -0.09,-0.17 -0.03,-0.25 z"
           id="path14087-1" />
        <path
           style="fill:#6d6e71"
           class="cls-6"
           d="m 454.89,72.92 a 0.23,0.23 0 0 1 0.23,-0.15 h 0.25 c 0.17,0 0.27,0.11 0.22,0.26 l -4,12.18 a 0.25,0.25 0 0 1 -0.23,0.17 h -0.27 c -0.15,0 -0.26,-0.09 -0.2,-0.26 z"
           id="path14089-2" />
        <path
           style="fill:#6d6e71"
           class="cls-6"
           d="m 459,72.83 a 0.25,0.25 0 0 1 0.27,-0.24 h 0.31 l 8.64,11.26 v 0 V 73 a 0.24,0.24 0 0 1 0.24,-0.24 h 0.36 a 0.24,0.24 0 0 1 0.23,0.24 v 12.32 c 0,0.17 -0.14,0.24 -0.29,0.24 h -0.23 c 0,0 -0.16,-0.06 -8.72,-11.36 v 0 10.94 a 0.23,0.23 0 0 1 -0.23,0.24 h -0.34 A 0.24,0.24 0 0 1 459,85.14 Z"
           id="path14091-8" />
        <path
           style="fill:#6d6e71"
           class="cls-6"
           d="m 479.62,72.59 a 6.17,6.17 0 0 1 4.38,1.68 0.22,0.22 0 0 1 0,0.32 c -0.09,0.11 -0.2,0.22 -0.29,0.31 -0.09,0.09 -0.2,0.11 -0.31,0 a 5.52,5.52 0 0 0 -3.8,-1.51 5.67,5.67 0 0 0 0,11.34 6.8,6.8 0 0 0 3.75,-1 v -3.38 h -3.08 c -0.2,0 -0.24,-0.07 -0.24,-0.23 v -0.36 c 0,-0.14 0,-0.22 0.24,-0.22 H 484 a 0.23,0.23 0 0 1 0.23,0.22 v 4.18 a 0.46,0.46 0 0 1 -0.25,0.46 8.24,8.24 0 0 1 -4.32,1.16 6.5,6.5 0 1 1 0,-13 z"
           id="path14093-9" />
        <path
           style="fill:#6d6e71"
           class="cls-6"
           d="m 486.66,85.16 5.54,-12.53 a 0.27,0.27 0 0 1 0.22,-0.13 h 0.05 a 0.24,0.24 0 0 1 0.24,0.13 l 5.49,12.53 c 0,0.11 0,0.22 -0.16,0.22 h -0.47 a 0.27,0.27 0 0 1 -0.25,-0.17 L 495.86,81.9 H 489 l -1.44,3.31 a 0.29,0.29 0 0 1 -0.25,0.17 h -0.51 c -0.14,0 -0.2,-0.08 -0.14,-0.22 z m 8.89,-4 -3.08,-7.26 v 0 l -3.17,7.3 z"
           id="path14095-6" />
        <path
           style="fill:#6d6e71"
           class="cls-6"
           d="m 498.86,73 c -0.07,-0.15 0,-0.24 0.14,-0.24 h 0.49 a 0.22,0.22 0 0 1 0.2,0.13 l 4.86,11.18 v 0 L 509.5,72.9 a 0.22,0.22 0 0 1 0.2,-0.13 h 0.47 c 0.16,0 0.23,0.11 0.16,0.26 l -5.53,12.36 a 0.22,0.22 0 0 1 -0.21,0.17 h -0.09 a 0.24,0.24 0 0 1 -0.2,-0.17 z"
           id="path14097-0" />
        <polygon
           style="fill:#f18a00"
           class="cls-3"
           points="357.54,89.27 357.54,75.12 344.59,80.54 344.59,95.39 "
           id="polygon14099-6" />
        <polygon
           style="fill:#f18a00"
           class="cls-3"
           points="330.62,89.27 343.57,95.39 343.57,80.52 330.62,74.4 "
           id="polygon14101-4" />
        <polygon
           style="fill:#f18a00"
           class="cls-3"
           points="344.09,79.64 356.78,74.34 344.07,68.56 331.39,73.64 "
           id="polygon14103-0" />
        <path
           style="fill:#6d6e71"
           class="cls-6"
           d="m 385.73,191.74 a 6.49,6.49 0 1 1 -6.48,6.5 6.47,6.47 0 0 1 6.48,-6.5 z m 0,12.18 a 5.69,5.69 0 1 0 -5.69,-5.68 5.68,5.68 0 0 0 5.69,5.68 z"
           id="path14105-9" />
        <path
           style="fill:#6d6e71"
           class="cls-6"
           d="m 395.47,202.85 0.16,-0.21 c 0.13,-0.15 0.25,-0.2 0.4,-0.07 a 5.25,5.25 0 0 0 3.33,1.38 c 1.64,0 3,-1.1 3,-2.41 0,-1.6 -1.31,-2.32 -3.49,-3.06 -2.18,-0.74 -3.47,-1.48 -3.47,-3.55 0,-1.35 1.08,-3.19 3.89,-3.19 a 5.88,5.88 0 0 1 3.09,0.92 0.26,0.26 0 0 1 0.07,0.38 1.88,1.88 0 0 0 -0.14,0.24 0.27,0.27 0 0 1 -0.4,0.09 5.2,5.2 0 0 0 -2.64,-0.85 c -2.22,0 -3.05,1.37 -3.05,2.39 0,1.53 1.17,2.2 3,2.79 2.47,0.85 4,1.72 4,3.8 0,1.8 -1.86,3.21 -3.93,3.21 a 5.87,5.87 0 0 1 -3.82,-1.48 0.24,0.24 0 0 1 0,-0.38 z"
           id="path14107-4" />
        <path
           style="fill:#6d6e71"
           class="cls-6"
           d="m 412.07,192.16 a 0.23,0.23 0 0 1 0.23,-0.24 h 3.87 a 4.06,4.06 0 1 1 0,8.12 h -3.28 v 4.25 a 0.26,0.26 0 0 1 -0.29,0.24 h -0.32 a 0.23,0.23 0 0 1 -0.23,-0.24 z m 4.07,7.06 a 3.28,3.28 0 0 0 3.25,-3.28 3.23,3.23 0 0 0 -3.27,-3.17 h -3.21 v 6.45 z"
           id="path14109-5" />
        <path
           style="fill:#6d6e71"
           class="cls-6"
           d="m 425.24,199.88 a 5.65,5.65 0 0 1 1.82,0.33 c 0,-1.59 -0.16,-2.38 -1.58,-2.38 a 5.13,5.13 0 0 0 -2.16,0.49 0.19,0.19 0 0 1 -0.27,-0.15 L 423,198 c -0.06,-0.17 0,-0.24 0.1,-0.27 a 5.23,5.23 0 0 1 2.47,-0.54 c 2.2,0 2.29,1.31 2.29,3.15 v 4 a 0.24,0.24 0 0 1 -0.24,0.24 h -0.21 c -0.13,0 -0.18,-0.07 -0.22,-0.2 l -0.07,-0.65 a 3.78,3.78 0 0 1 -2.5,1 2.27,2.27 0 0 1 -2.36,-2.4 c -0.04,-1.4 1.09,-2.45 2.98,-2.45 z m -0.57,4.13 a 3.28,3.28 0 0 0 2.39,-1.12 v -2 a 4.6,4.6 0 0 0 -1.82,-0.38 c -1.37,0 -2.28,0.7 -2.28,1.77 a 1.63,1.63 0 0 0 1.71,1.72 z"
           id="path14111-4" />
        <path
           style="fill:#6d6e71"
           class="cls-6"
           d="M 431.87,198 H 431 c -0.18,0 -0.22,-0.09 -0.22,-0.24 v -0.28 c 0,-0.13 0.09,-0.18 0.22,-0.18 h 0.85 v -2 a 0.22,0.22 0 0 1 0.23,-0.23 h 0.31 a 0.24,0.24 0 0 1 0.23,0.24 v 2 h 2.5 a 0.22,0.22 0 0 1 0.24,0.23 v 0.23 a 0.22,0.22 0 0 1 -0.24,0.24 h -2.5 v 4.59 c 0,0.85 0.09,1.31 0.94,1.31 a 3.85,3.85 0 0 0 1.63,-0.48 c 0.17,-0.09 0.24,0 0.29,0.07 l 0.13,0.22 a 0.2,0.2 0 0 1 -0.06,0.3 3.54,3.54 0 0 1 -2.08,0.67 c -1.5,0 -1.62,-0.88 -1.62,-2 z"
           id="path14113-6" />
        <path
           style="fill:#6d6e71"
           class="cls-6"
           d="m 441.8,197.15 a 3.51,3.51 0 0 1 2.67,1.13 0.21,0.21 0 0 1 0,0.32 l -0.18,0.18 a 0.25,0.25 0 0 1 -0.38,0 3,3 0 1 0 -2.09,5.2 2.88,2.88 0 0 0 2.25,-1.06 c 0.13,-0.14 0.24,-0.14 0.35,0 l 0.19,0.18 a 0.2,0.2 0 0 1 0.06,0.29 3.59,3.59 0 0 1 -2.83,1.39 3.78,3.78 0 0 1 0,-7.56 z"
           id="path14115-6" />
        <path
           style="fill:#6d6e71"
           class="cls-6"
           d="m 447.9,192.16 a 0.25,0.25 0 0 1 0.25,-0.24 h 0.29 a 0.24,0.24 0 0 1 0.24,0.24 v 6.14 a 3.76,3.76 0 0 1 2.61,-1.15 c 1.87,0 2.9,1.15 2.9,3.29 v 3.85 a 0.24,0.24 0 0 1 -0.24,0.24 h -0.32 a 0.24,0.24 0 0 1 -0.24,-0.24 v -3.85 c 0,-1.66 -0.77,-2.52 -2.14,-2.52 a 3.63,3.63 0 0 0 -2.57,1.26 v 5.11 a 0.22,0.22 0 0 1 -0.24,0.24 h -0.34 c -0.13,0 -0.2,-0.11 -0.2,-0.24 z"
           id="path14117-3" />
        <path
           style="fill:#6d6e71"
           class="cls-6"
           d="m 457.68,193.2 a 0.61,0.61 0 1 1 1.22,0 0.61,0.61 0 0 1 -1.22,0 z m 0.21,4.36 a 0.23,0.23 0 0 1 0.24,-0.23 h 0.32 a 0.23,0.23 0 0 1 0.24,0.23 v 6.73 a 0.22,0.22 0 0 1 -0.24,0.24 h -0.36 a 0.22,0.22 0 0 1 -0.2,-0.24 z"
           id="path14119-9" />
        <path
           style="fill:#6d6e71"
           class="cls-6"
           d="m 462.5,197.56 a 0.24,0.24 0 0 1 0.25,-0.23 h 0.18 a 0.2,0.2 0 0 1 0.22,0.18 l 0.07,0.77 a 3.89,3.89 0 0 1 2.67,-1.13 c 2,0 2.9,1.27 2.9,3.29 v 3.85 a 0.24,0.24 0 0 1 -0.24,0.24 h -0.32 a 0.24,0.24 0 0 1 -0.24,-0.24 v -3.85 c 0,-1.66 -0.77,-2.52 -2.14,-2.52 a 3.66,3.66 0 0 0 -2.57,1.24 v 5.13 a 0.22,0.22 0 0 1 -0.24,0.24 h -0.34 c -0.13,0 -0.2,-0.11 -0.2,-0.24 z"
           id="path14121-9" />
        <path
           style="fill:#6d6e71"
           class="cls-6"
           d="m 472.94,202 a 3.12,3.12 0 0 1 -0.56,-1.8 3,3 0 0 1 3.15,-3 h 3 a 0.22,0.22 0 0 1 0.23,0.23 v 0.2 a 0.2,0.2 0 0 1 -0.16,0.21 l -1.3,0.09 a 2.46,2.46 0 0 1 1.12,2.31 2.9,2.9 0 0 1 -3,3 2.73,2.73 0 0 1 -2,-0.65 1.47,1.47 0 0 0 -0.92,1.3 c 0,0.84 0.72,1 1.42,1 h 2.61 c 1.55,0 2.67,0.7 2.67,2.3 0,1.6 -1.48,2.94 -3.68,2.94 -2.44,0 -3.51,-1.44 -3.51,-2.66 a 2.26,2.26 0 0 1 1.14,-1.9 1.79,1.79 0 0 1 -1.41,-1.63 2.28,2.28 0 0 1 1.2,-1.94 z m 2.58,7.38 c 1.62,0 2.86,-1 2.86,-2.18 0,-0.82 -0.51,-1.58 -1.84,-1.58 h -2.27 a 2,2 0 0 0 -1.46,1.75 c 0,0.98 0.96,2 2.71,2 z m 2.1,-9.2 a 2.13,2.13 0 0 0 -2.21,-2.3 2.21,2.21 0 0 0 -2.29,2.3 2.25,2.25 0 1 0 4.5,0 z"
           id="path14123-5" />
        <polygon
           style="fill:#ffb71b"
           class="cls-2"
           points="357.54,208.42 357.54,194.27 344.59,199.69 344.59,214.54 "
           id="polygon14125-2" />
        <polygon
           style="fill:#ffb71b"
           class="cls-2"
           points="330.62,208.42 343.57,214.54 343.57,199.67 330.62,193.55 "
           id="polygon14127-1" />
        <polygon
           style="fill:#ffb71b"
           class="cls-2"
           points="344.09,198.79 356.78,193.49 344.07,187.71 331.39,192.79 "
           id="polygon14129-3" />
        <path
           style="fill:#6d6e71"
           class="cls-6"
           d="m 378.35,164.6 5.55,-12.54 a 0.23,0.23 0 0 1 0.21,-0.12 h 0.06 a 0.23,0.23 0 0 1 0.23,0.12 l 5.49,12.54 c 0,0.1 0,0.21 -0.16,0.21 h -0.47 a 0.31,0.31 0 0 1 -0.25,-0.16 l -1.46,-3.31 h -6.88 l -1.44,3.31 a 0.28,0.28 0 0 1 -0.25,0.16 h -0.5 c -0.13,0 -0.18,-0.07 -0.13,-0.21 z m 8.9,-4 -3.08,-7.25 v 0 l -3.17,7.28 z"
           id="path14131-0" />
        <path
           style="fill:#6d6e71"
           class="cls-6"
           d="m 393.22,170 a 0.23,0.23 0 0 1 -0.23,0.23 h -0.31 A 0.23,0.23 0 0 1 392.45,170 v -12.16 a 0.24,0.24 0 0 1 0.25,-0.23 h 0.2 a 0.19,0.19 0 0 1 0.21,0.18 l 0.06,0.5 a 3.61,3.61 0 0 1 2.35,-0.86 3.58,3.58 0 0 1 3.48,3.78 3.62,3.62 0 0 1 -3.64,3.78 3.28,3.28 0 0 1 -2.14,-0.74 z m 2,-5.74 a 2.9,2.9 0 0 0 2.94,-3.05 2.81,2.81 0 0 0 -2.74,-3 2.86,2.86 0 0 0 -2.23,1 v 4.21 a 2.8,2.8 0 0 0 2.08,0.82 z"
           id="path14133-9" />
        <path
           style="fill:#6d6e71"
           class="cls-6"
           d="m 403.07,170 a 0.23,0.23 0 0 1 -0.24,0.23 h -0.3 A 0.23,0.23 0 0 1 402.29,170 v -12.16 a 0.24,0.24 0 0 1 0.25,-0.23 h 0.2 a 0.19,0.19 0 0 1 0.22,0.18 l 0.05,0.5 a 3.68,3.68 0 0 1 2.36,-0.86 3.58,3.58 0 0 1 3.48,3.78 3.62,3.62 0 0 1 -3.64,3.78 3.25,3.25 0 0 1 -2.14,-0.74 z m 2.05,-5.74 a 2.9,2.9 0 0 0 2.93,-3.05 2.8,2.8 0 0 0 -2.73,-3 2.89,2.89 0 0 0 -2.24,1 v 4.21 a 2.83,2.83 0 0 0 2.04,0.82 z"
           id="path14135-9" />
        <path
           style="fill:#6d6e71"
           class="cls-6"
           d="m 412.14,152.44 a 0.24,0.24 0 0 1 0.23,-0.23 h 0.33 a 0.24,0.24 0 0 1 0.23,0.23 v 12.14 a 0.21,0.21 0 0 1 -0.23,0.23 h -0.36 a 0.21,0.21 0 0 1 -0.2,-0.23 z"
           id="path14137-1" />
        <path
           style="fill:#6d6e71"
           class="cls-6"
           d="m 416.53,153.49 a 0.61,0.61 0 1 1 1.22,0 0.61,0.61 0 0 1 -1.22,0 z m 0.22,4.35 a 0.23,0.23 0 0 1 0.23,-0.23 h 0.32 a 0.24,0.24 0 0 1 0.24,0.23 v 6.74 a 0.21,0.21 0 0 1 -0.24,0.23 h -0.36 a 0.21,0.21 0 0 1 -0.19,-0.23 z"
           id="path14139-3" />
        <path
           style="fill:#6d6e71"
           class="cls-6"
           d="m 424.6,157.43 a 3.48,3.48 0 0 1 2.66,1.13 0.22,0.22 0 0 1 0,0.33 l -0.18,0.18 a 0.24,0.24 0 0 1 -0.37,0 3,3 0 1 0 -2.09,5.21 2.9,2.9 0 0 0 2.25,-1.07 c 0.12,-0.14 0.23,-0.14 0.34,0 l 0.2,0.18 a 0.21,0.21 0 0 1 0.05,0.29 3.58,3.58 0 0 1 -2.86,1.32 3.78,3.78 0 1 1 0,-7.56 z"
           id="path14141-4" />
        <path
           style="fill:#6d6e71"
           class="cls-6"
           d="m 433.14,160.17 a 6,6 0 0 1 1.82,0.32 c 0,-1.58 -0.16,-2.38 -1.58,-2.38 a 5.31,5.31 0 0 0 -2.16,0.49 0.19,0.19 0 0 1 -0.27,-0.14 l -0.09,-0.22 A 0.19,0.19 0 0 1 431,158 a 5.12,5.12 0 0 1 2.46,-0.54 c 2.2,0 2.29,1.31 2.29,3.15 v 4 a 0.24,0.24 0 0 1 -0.23,0.23 h -0.22 c -0.13,0 -0.18,-0.07 -0.22,-0.2 L 435,164 a 3.73,3.73 0 0 1 -2.5,1 2.27,2.27 0 0 1 -2.36,-2.39 c -0.02,-1.4 1.11,-2.44 3,-2.44 z m -0.57,4.12 a 3.26,3.26 0 0 0 2.39,-1.12 v -2 a 4.6,4.6 0 0 0 -1.82,-0.38 c -1.36,0 -2.28,0.71 -2.28,1.77 a 1.63,1.63 0 0 0 1.71,1.73 z"
           id="path14143-5" />
        <path
           style="fill:#6d6e71"
           class="cls-6"
           d="m 439.77,158.31 h -0.85 c -0.18,0 -0.21,-0.09 -0.21,-0.23 v -0.29 c 0,-0.13 0.09,-0.18 0.21,-0.18 h 0.85 v -2 a 0.23,0.23 0 0 1 0.23,-0.24 h 0.31 a 0.24,0.24 0 0 1 0.23,0.24 v 2 H 443 a 0.23,0.23 0 0 1 0.24,0.23 v 0.24 a 0.22,0.22 0 0 1 -0.24,0.23 h -2.5 v 4.59 c 0,0.85 0.09,1.32 0.94,1.32 a 3.79,3.79 0 0 0 1.64,-0.49 c 0.16,-0.09 0.23,0 0.28,0.07 l 0.13,0.22 a 0.22,0.22 0 0 1 0,0.31 3.66,3.66 0 0 1 -2.09,0.66 c -1.5,0 -1.62,-0.88 -1.62,-2 z"
           id="path14145-8" />
        <path
           style="fill:#6d6e71"
           class="cls-6"
           d="m 446.25,153.49 a 0.61,0.61 0 1 1 1.22,0 0.61,0.61 0 0 1 -1.22,0 z m 0.21,4.35 a 0.24,0.24 0 0 1 0.24,-0.23 h 0.3 a 0.24,0.24 0 0 1 0.24,0.23 v 6.74 a 0.21,0.21 0 0 1 -0.24,0.23 h -0.36 a 0.21,0.21 0 0 1 -0.2,-0.23 z"
           id="path14147-5" />
        <path
           style="fill:#6d6e71"
           class="cls-6"
           d="m 454.15,157.43 a 3.78,3.78 0 1 1 -3.62,3.76 3.7,3.7 0 0 1 3.62,-3.76 z m 0,6.82 a 3,3 0 1 0 -2.84,-3.06 2.92,2.92 0 0 0 2.84,3.06 z"
           id="path14149-7" />
        <path
           style="fill:#6d6e71"
           class="cls-6"
           d="m 461,157.84 a 0.25,0.25 0 0 1 0.26,-0.23 h 0.18 a 0.2,0.2 0 0 1 0.21,0.18 l 0.07,0.77 a 3.89,3.89 0 0 1 2.67,-1.13 c 2,0 2.9,1.28 2.9,3.29 v 3.86 a 0.24,0.24 0 0 1 -0.24,0.23 h -0.32 a 0.23,0.23 0 0 1 -0.23,-0.23 v -3.86 c 0,-1.65 -0.78,-2.52 -2.15,-2.52 a 3.68,3.68 0 0 0 -2.57,1.25 v 5.13 a 0.21,0.21 0 0 1 -0.24,0.23 h -0.34 a 0.21,0.21 0 0 1 -0.2,-0.23 z"
           id="path14151-3" />
        <path
           style="fill:#6d6e71"
           class="cls-6"
           d="m 476.56,152.44 a 0.24,0.24 0 0 1 0.23,-0.23 h 3.87 a 4.06,4.06 0 1 1 0,8.12 h -3.27 v 4.25 c 0,0.12 -0.11,0.23 -0.29,0.23 h -0.33 a 0.24,0.24 0 0 1 -0.23,-0.23 z m 4.07,7.06 a 3.29,3.29 0 0 0 3.26,-3.28 3.24,3.24 0 0 0 -3.28,-3.17 h -3.2 v 6.45 z"
           id="path14153-3" />
        <path
           style="fill:#6d6e71"
           class="cls-6"
           d="m 489.74,160.17 a 6,6 0 0 1 1.81,0.32 c 0,-1.58 -0.16,-2.38 -1.58,-2.38 a 5.31,5.31 0 0 0 -2.16,0.49 0.19,0.19 0 0 1 -0.27,-0.14 l -0.09,-0.22 a 0.19,0.19 0 0 1 0.11,-0.27 5.12,5.12 0 0 1 2.46,-0.54 c 2.2,0 2.29,1.31 2.29,3.15 v 4 a 0.24,0.24 0 0 1 -0.23,0.23 h -0.22 c -0.13,0 -0.18,-0.07 -0.22,-0.2 l -0.07,-0.65 a 3.73,3.73 0 0 1 -2.5,1 2.27,2.27 0 0 1 -2.36,-2.39 c 0,-1.36 1.14,-2.4 3.03,-2.4 z m -0.58,4.12 a 3.26,3.26 0 0 0 2.39,-1.12 v -2 a 4.58,4.58 0 0 0 -1.81,-0.38 c -1.37,0 -2.29,0.71 -2.29,1.77 a 1.63,1.63 0 0 0 1.71,1.73 z"
           id="path14155-8" />
        <path
           style="fill:#6d6e71"
           class="cls-6"
           d="m 496.36,158.31 h -0.85 c -0.18,0 -0.21,-0.09 -0.21,-0.23 v -0.29 c 0,-0.13 0.09,-0.18 0.21,-0.18 h 0.85 v -2 a 0.23,0.23 0 0 1 0.23,-0.24 h 0.31 a 0.24,0.24 0 0 1 0.23,0.24 v 2 h 2.51 a 0.23,0.23 0 0 1 0.23,0.23 v 0.24 a 0.22,0.22 0 0 1 -0.23,0.23 h -2.51 v 4.59 c 0,0.85 0.09,1.32 0.94,1.32 a 3.79,3.79 0 0 0 1.64,-0.49 0.19,0.19 0 0 1 0.29,0.07 l 0.12,0.22 a 0.21,0.21 0 0 1 -0.05,0.31 A 3.63,3.63 0 0 1 498,165 c -1.5,0 -1.62,-0.88 -1.62,-2 z"
           id="path14157-9" />
        <path
           style="fill:#6d6e71"
           class="cls-6"
           d="m 506.3,157.43 a 3.48,3.48 0 0 1 2.66,1.13 0.22,0.22 0 0 1 0,0.33 l -0.18,0.18 a 0.24,0.24 0 0 1 -0.37,0 3,3 0 1 0 -2.09,5.21 2.9,2.9 0 0 0 2.25,-1.07 c 0.12,-0.14 0.23,-0.14 0.34,0 l 0.2,0.18 a 0.21,0.21 0 0 1 0.05,0.29 3.58,3.58 0 0 1 -2.86,1.32 3.78,3.78 0 1 1 0,-7.56 z"
           id="path14159-5" />
        <path
           style="fill:#6d6e71"
           class="cls-6"
           d="m 512.4,152.44 a 0.24,0.24 0 0 1 0.25,-0.23 h 0.29 a 0.24,0.24 0 0 1 0.23,0.23 v 6.14 a 3.83,3.83 0 0 1 2.61,-1.15 c 1.87,0 2.9,1.15 2.9,3.29 v 3.86 a 0.24,0.24 0 0 1 -0.23,0.23 h -0.33 a 0.24,0.24 0 0 1 -0.23,-0.23 v -3.86 c 0,-1.65 -0.78,-2.52 -2.14,-2.52 a 3.63,3.63 0 0 0 -2.58,1.26 v 5.12 a 0.21,0.21 0 0 1 -0.23,0.23 h -0.34 a 0.21,0.21 0 0 1 -0.2,-0.23 z"
           id="path14161-5" />
        <path
           style="fill:#6d6e71"
           class="cls-6"
           d="m 522.17,153.49 a 0.61,0.61 0 1 1 1.22,0 0.61,0.61 0 0 1 -1.22,0 z m 0.22,4.35 a 0.23,0.23 0 0 1 0.23,-0.23 h 0.32 a 0.24,0.24 0 0 1 0.24,0.23 v 6.74 a 0.21,0.21 0 0 1 -0.24,0.23 h -0.36 a 0.21,0.21 0 0 1 -0.19,-0.23 z"
           id="path14163-3" />
        <path
           style="fill:#6d6e71"
           class="cls-6"
           d="m 527,157.84 a 0.25,0.25 0 0 1 0.26,-0.23 h 0.18 a 0.19,0.19 0 0 1 0.21,0.18 l 0.08,0.77 a 3.83,3.83 0 0 1 2.66,-1.13 c 2,0 2.9,1.28 2.9,3.29 v 3.86 a 0.24,0.24 0 0 1 -0.24,0.23 h -0.32 a 0.23,0.23 0 0 1 -0.23,-0.23 v -3.86 c 0,-1.65 -0.78,-2.52 -2.15,-2.52 a 3.68,3.68 0 0 0 -2.57,1.25 v 5.13 a 0.21,0.21 0 0 1 -0.24,0.23 h -0.34 a 0.21,0.21 0 0 1 -0.2,-0.23 z"
           id="path14165-8" />
        <path
           style="fill:#6d6e71"
           class="cls-6"
           d="m 537.43,162.27 a 3.18,3.18 0 0 1 -0.55,-1.8 2.94,2.94 0 0 1 3.15,-3 h 3 a 0.23,0.23 0 0 1 0.24,0.23 v 0.2 a 0.22,0.22 0 0 1 -0.17,0.22 l -1.29,0.09 a 2.45,2.45 0 0 1 1.11,2.3 2.9,2.9 0 0 1 -3,3 2.7,2.7 0 0 1 -2,-0.65 1.5,1.5 0 0 0 -0.92,1.3 c 0,0.85 0.72,1 1.43,1 H 541 c 1.54,0 2.66,0.71 2.66,2.31 0,1.6 -1.48,2.93 -3.67,2.93 -2.45,0 -3.51,-1.44 -3.51,-2.66 a 2.23,2.23 0 0 1 1.13,-1.89 1.8,1.8 0 0 1 -1.4,-1.64 2.3,2.3 0 0 1 1.22,-1.94 z m 2.58,7.39 c 1.62,0 2.86,-1 2.86,-2.18 0,-0.83 -0.5,-1.59 -1.83,-1.59 h -2.27 a 2,2 0 0 0 -1.46,1.75 c 0,0.99 0.95,2.02 2.69,2.02 z m 2.11,-9.21 a 2.14,2.14 0 0 0 -2.22,-2.3 2.21,2.21 0 0 0 -2.28,2.3 2.16,2.16 0 0 0 2.28,2.31 2.19,2.19 0 0 0 2.22,-2.31 z"
           id="path14167-6" />
        <polygon
           style="fill:#6aa845"
           class="cls-4"
           points="357.54,168.71 357.54,154.56 344.59,159.97 344.59,174.83 "
           id="polygon14169-0" />
        <polygon
           style="fill:#6aa845"
           class="cls-4"
           points="330.62,168.71 343.57,174.83 343.57,159.95 330.62,153.83 "
           id="polygon14171-3" />
        <polygon
           style="fill:#6aa845"
           class="cls-4"
           points="344.09,159.08 356.78,153.77 344.07,148 331.39,153.07 "
           id="polygon14173-3" />
      </g>
    </g>
  </g>
</svg>
