<?xml version="1.0" encoding="iso-8859-1"?>
<!-- Generator: Adobe Illustrator 23.0.3, SVG Export Plug-In . SVG Version: 6.00 Build 0)  -->
<svg version="1.1"
	 id="svg70895" xmlns:cc="http://creativecommons.org/ns#" xmlns:dc="http://purl.org/dc/elements/1.1/" xmlns:rdf="http://www.w3.org/1999/02/22-rdf-syntax-ns#" xmlns:svg="http://www.w3.org/2000/svg"
	 xmlns="http://www.w3.org/2000/svg" xmlns:xlink="http://www.w3.org/1999/xlink" x="0px" y="0px" viewBox="0 0 473 457.8"
	 style="enable-background:new 0 0 473 457.8;" xml:space="preserve">
<style type="text/css">
	.st0{fill:#414042;}
	.st1{fill:#616161;}
	.st2{fill:#FFFFFF;}
	.st3{fill:#6AA845;}
	.st4{fill:#4D8FCC;}
	.st5{fill:#FFB71B;}
</style>
<g>
	<path class="st0" d="M198.5,56.9l3.7-8.4l0.1-0.1l0,0l0.2,0.1l3.7,8.4c0,0.1,0,0.1-0.1,0.1h-0.3l-0.2-0.1l-1-2.3H200l-1,2.3
		l-0.2,0.1L198.5,56.9C198.5,57.1,198.5,57,198.5,56.9z M204.4,54.3l-2.1-4.8l-2.1,4.8H204.4z"/>
	<path class="st0" d="M209.7,52.2c0.5,0,1.1,0.2,1.5,0.5v-3.8l0.1-0.2l0,0h0.2l0.1,0.2V57l-0.2,0.2h-0.1l-0.2-0.1l0,0v-0.4
		c-0.8,0.9-2.3,1-3.2,0.1c-0.5-0.5-0.8-1.2-0.7-1.9C207.3,53.4,208.3,52.2,209.7,52.2L209.7,52.2z M209.6,56.7
		c0.6,0,1.2-0.3,1.6-0.8v-2.7c-0.4-0.3-0.9-0.5-1.4-0.5c-1.1,0.1-2,1-1.9,2.2C207.9,55.8,208.6,56.6,209.6,56.7z"/>
	<path class="st0" d="M217.4,48.8l0.1-0.2h2.5c2.3,0,4.2,1.9,4.2,4.2S222.3,57,220,57l0,0h-2.5l-0.1-0.2V48.8z M220,56.6
		c2,0.1,3.8-1.5,3.9-3.5c0.1-2-1.5-3.8-3.5-3.9c-0.1,0-0.2,0-0.3,0h-2v7.4H220z"/>
	<path class="st0" d="M228.3,52.2c1.4-0.1,2.6,1,2.6,2.4c0.1,1.4-1,2.6-2.4,2.6c-1.4,0.1-2.6-1-2.6-2.4v-0.1
		C225.9,53.3,227,52.2,228.3,52.2z M228.3,56.7c1.1,0.1,2.1-0.8,2.2-1.9c0.1-1.1-0.8-2.1-1.9-2.2c-1.1-0.1-2.1,0.8-2.2,1.9v0.1
		C226.4,55.7,227.2,56.7,228.3,56.7L228.3,56.7z"/>
	<path class="st0" d="M232.7,52.4l0.2-0.2h0.1l0.1,0.1l0.1,0.5c0.4-0.5,1-0.8,1.7-0.8c0.6,0,1.3,0.3,1.6,0.9
		c0.4-0.5,1.1-0.9,1.8-0.9c1.3,0,1.9,0.9,1.9,2.2v2.6L240,57h-0.2l-0.1-0.2l0,0v-2.6c0-1.1-0.5-1.7-1.4-1.7c-0.6,0-1.2,0.3-1.6,0.8
		c0.1,0.3,0.1,0.6,0.1,0.9v2.6l-0.2,0.2h-0.2l-0.1-0.1l0,0v-2.6c0-1.1-0.5-1.7-1.4-1.7c-0.6,0-1.2,0.3-1.6,0.8v3.4
		c0,0.1,0,0.2-0.1,0.2H233c-0.1,0-0.1-0.1-0.1-0.2v-4.4H232.7z"/>
	<path class="st0" d="M244,54c0.4,0,0.8,0.1,1.2,0.2c0-1.1-0.1-1.6-1.1-1.6c-0.5,0-1,0.1-1.4,0.3l-0.2-0.1l0,0l-0.1-0.1v-0.2l0,0
		c0.5-0.3,1.1-0.4,1.6-0.4c1.5,0,1.5,0.9,1.5,2.1v2.7l-0.1,0.2l0,0h-0.2l-0.1-0.1v-0.4c-0.5,0.4-1,0.7-1.7,0.7
		c-0.8,0-1.5-0.6-1.6-1.4v-0.2C241.9,54.7,242.7,54,244,54z M243.6,56.8c0.6,0,1.2-0.3,1.6-0.8v-1.3c-0.4-0.2-0.8-0.2-1.2-0.2
		c-0.9,0-1.5,0.5-1.5,1.2C242.4,56.2,242.9,56.7,243.6,56.8L243.6,56.8L243.6,56.8z"/>
	<path class="st0" d="M247.8,49.5c0-0.2,0.1-0.4,0.4-0.5c0.2,0,0.4,0.1,0.5,0.4v0.1c0,0.2-0.2,0.4-0.5,0.4
		C248,49.8,247.8,49.7,247.8,49.5z M247.9,52.4l0.2-0.2h0.2l0.1,0.2v4.5c0,0.1,0,0.2-0.1,0.2h-0.2l-0.1-0.2L247.9,52.4L247.9,52.4z"
		/>
	<path class="st0" d="M250.8,52.4l0.2-0.2l0,0h0.1l0.1,0.1l0,0l0.1,0.5c0.5-0.5,1.1-0.7,1.8-0.8c1.3,0,1.9,0.9,1.9,2.2v2.6l-0.2,0.2
		h-0.2l-0.2-0.2v-2.6c0-1.1-0.5-1.7-1.4-1.7c-0.7,0-1.3,0.3-1.7,0.8v3.4c0,0.1,0,0.2-0.2,0.2h-0.2c-0.1,0-0.1-0.1-0.1-0.2
		L250.8,52.4L250.8,52.4z"/>
	<path class="st1" d="M256.2,100h-61.1c-2,0-3.7,1.6-3.7,3.7v81.8c0,2,1.6,3.7,3.7,3.7h4.5v5.6c0,0.5,0.4,1,1,1h14.8
		c0.5,0,1-0.4,1-1l0,0v-5.6H235v5.6c0,0.5,0.4,1,1,1h14.7c0.5,0,1-0.4,1-1v-5.6h4.5c2,0,3.7-1.6,3.7-3.7v-81.8
		C259.9,101.7,258.2,100,256.2,100L256.2,100z M214.3,193.8h-12.8v-4.6h12.8V193.8z M249.8,193.8H237v-4.6h12.8V193.8z"/>
	<rect x="194.9" y="132.3" class="st2" width="61.4" height="24.6"/>
	<path class="st3" d="M257.1,157.7h-62.9v-26.1h62.9V157.7z M195.7,156.2h59.9V133h-59.9L195.7,156.2L195.7,156.2z"/>
	<path class="st2" d="M195.1,103.5h61.1c0.1,0,0.2,0.1,0.2,0.2v25.2H195v-25.1C194.9,103.6,195,103.5,195.1,103.5L195.1,103.5z"/>
	<path class="st4" d="M257.1,129.6h-62.9v-25.9c0-0.5,0.4-0.9,0.9-0.9h61.1c0.5,0,0.9,0.4,0.9,0.9V129.6z M195.7,128.1h59.9v-23.9
		h-59.9L195.7,128.1L195.7,128.1z"/>
	<path class="st2" d="M256.2,185.7h-61.1c-0.1,0-0.2-0.1-0.2-0.2v-25.1h61.4v25.1C256.4,185.6,256.3,185.7,256.2,185.7z"/>
	<path class="st5" d="M256.2,186.4h-61.1c-0.5,0-0.9-0.4-0.9-0.9v-25.9h62.9v25.9C257.1,186,256.7,186.4,256.2,186.4z M195.7,184.9
		h59.9v-23.8h-59.9L195.7,184.9L195.7,184.9z"/>
	<path class="st1" d="M208,139.2c-3,0-5.4,2.4-5.4,5.4s2.4,5.4,5.4,5.4s5.4-2.4,5.4-5.4l0,0C213.4,141.6,210.9,139.2,208,139.2z
		 M208,148c-1.9,0-3.5-1.5-3.5-3.5c0-1.9,1.5-3.5,3.5-3.5c1.9,0,3.5,1.5,3.5,3.5C211.4,146.5,209.9,148,208,148L208,148z"/>
	<path class="st1" d="M208,121.9c3,0,5.4-2.4,5.4-5.4s-2.4-5.4-5.4-5.4s-5.4,2.4-5.4,5.4S205,121.9,208,121.9z M208,113.1
		c1.9,0,3.5,1.5,3.5,3.5c0,1.9-1.5,3.5-3.5,3.5c-1.9,0-3.5-1.5-3.5-3.5l0,0C204.5,114.6,206.1,113.1,208,113.1z"/>
	<path class="st1" d="M208,167.3c-3,0-5.4,2.4-5.4,5.4s2.4,5.4,5.4,5.4s5.4-2.4,5.4-5.4l0,0C213.4,169.7,210.9,167.3,208,167.3z
		 M208,176.1c-1.9,0-3.5-1.5-3.5-3.5s1.5-3.5,3.5-3.5c1.9,0,3.5,1.5,3.5,3.5C211.4,174.5,209.9,176.1,208,176.1L208,176.1L208,176.1
		z"/>
	<path class="st1" d="M246.3,142.1c1.4,0,2.4,1.1,2.4,2.4c0,1.4-1.1,2.4-2.4,2.4s-2.4-1.1-2.4-2.4
		C243.9,143.2,244.9,142.1,246.3,142.1z"/>
	<path class="st1" d="M237.4,142.1c1.4,0,2.4,1.1,2.4,2.4c0,1.4-1.1,2.4-2.4,2.4c-1.4,0-2.4-1.1-2.4-2.4
		C235,143.2,236.1,142.1,237.4,142.1z"/>
	<path class="st1" d="M228.6,142.1c1.4,0,2.4,1.1,2.4,2.4c0,1.4-1.1,2.4-2.4,2.4c-1.4,0-2.4-1.1-2.4-2.4
		C226.1,143.2,227.2,142.1,228.6,142.1z"/>
	<path class="st1" d="M246.3,119c1.3,0,2.4-1.1,2.5-2.4c0-1.4-1.1-2.4-2.4-2.5c-1.4,0-2.4,1.1-2.5,2.4l0,0
		C243.9,117.9,244.9,119,246.3,119z"/>
	<path class="st1" d="M237.4,119c1.4,0,2.4-1.1,2.4-2.4c0-1.4-1.1-2.4-2.4-2.4c-1.4,0-2.4,1.1-2.4,2.4S236.1,119,237.4,119z"/>
	<path class="st1" d="M228.6,119c1.4,0,2.4-1.1,2.4-2.4c0-1.4-1.1-2.4-2.4-2.4c-1.4,0-2.4,1.1-2.4,2.4
		C226.2,117.9,227.2,119,228.6,119z"/>
	<path class="st1" d="M246.3,170.3c-1.4,0-2.4,1.1-2.4,2.4c0,1.4,1.1,2.4,2.4,2.4c1.3,0,2.4-1.1,2.4-2.4l0,0
		C248.7,171.3,247.6,170.3,246.3,170.3z"/>
	<path class="st1" d="M237.4,170.3c-1.4,0-2.4,1.1-2.4,2.4c0,1.4,1.1,2.4,2.4,2.4c1.4,0,2.4-1.1,2.4-2.4l0,0
		C239.9,171.3,238.8,170.3,237.4,170.3z"/>
	<path class="st1" d="M228.6,170.3c-1.4,0-2.4,1.1-2.4,2.4c0,1.4,1.1,2.4,2.4,2.4c1.4,0,2.4-1.1,2.4-2.4l0,0
		C231,171.3,229.9,170.3,228.6,170.3z"/>
	<path class="st0" d="M207.8,208.7c1.1,0,2.1,0.4,2.9,1.1v0.2l0,0l-0.2,0.2h-0.2c-1.6-1.4-3.9-1.2-5.3,0.4s-1.2,3.9,0.4,5.3
		c0.7,0.6,1.5,0.9,2.4,0.9s1.8-0.4,2.5-1h0.2l0.2,0.2v0.2l0,0c-0.8,0.8-1.8,1.2-2.9,1.2c-2.4,0-4.3-1.9-4.3-4.3
		C203.4,210.7,205.4,208.7,207.8,208.7L207.8,208.7L207.8,208.7z"/>
	<path class="st0" d="M211.6,212.6c-0.1-0.1,0-0.2,0.1-0.2h0.3l0.2,0.1l2.1,4.1l1.9-4.1l0.2-0.1h0.3c0.1,0,0.1,0.1,0.1,0.2l-3.8,8.1
		l-0.2,0.1h-0.3c-0.1,0-0.1-0.1-0.1-0.2l1.6-3.5L211.6,212.6z"/>
	<path class="st0" d="M218.1,209l0.2-0.2h0.2l0.2,0.2v3.8c0.4-0.3,1-0.5,1.5-0.5c1.4,0.1,2.4,1.3,2.3,2.7c-0.1,1.2-1,2.2-2.2,2.3
		c-0.6,0-1.2-0.3-1.7-0.7v0.4l-0.1,0.2l0,0h-0.1l-0.2-0.2L218.1,209z M220.2,216.8c1.1-0.2,1.9-1.2,1.7-2.3c-0.1-1-0.9-1.7-1.9-1.8
		c-0.5,0-1,0.2-1.4,0.5v2.7C219,216.5,219.6,216.8,220.2,216.8z"/>
	<path class="st0" d="M226.5,212.3c1.2,0,2.1,0.9,2.2,2v0.2c0,0.2,0,0.5-0.2,0.5h-3.8c0,1,0.8,1.9,1.9,1.9c0.5,0,1-0.2,1.4-0.4
		c0.1-0.1,0.2-0.1,0.2,0l0.1,0.2v0.2c-0.5,0.4-1.1,0.6-1.7,0.6c-1.4-0.1-2.4-1.3-2.3-2.7C224.2,213.4,225.2,212.4,226.5,212.3z
		 M228.1,214.5c0.1-0.9-0.6-1.7-1.5-1.8h-0.2c-1,0-1.8,0.8-1.8,1.7l0,0h3.5V214.5z"/>
	<path class="st0" d="M230.5,212.6l0.2-0.2h0.1l0.1,0.1v0.5c0.4-0.5,0.9-0.8,1.5-0.8c0.3,0,0.5,0,0.8,0.1c0.1,0,0.2,0.1,0.1,0.2
		l-0.1,0.2l-0.2,0.1l0,0c-0.2-0.1-0.4-0.1-0.6-0.1c-0.6,0-1.1,0.3-1.4,0.8v3.4l-0.1,0.2l0,0h-0.2l-0.1-0.2v-4.3H230.5z"/>
	<path class="st0" d="M233.7,217.1l3.7-8.4l0.1-0.1l0,0l0.2,0.1l3.7,8.4c0,0.1,0,0.1-0.1,0.1H241l-0.2-0.1l-1-2.3h-4.6l-1,2.3
		l-0.2,0.1h-0.3C233.7,217.2,233.7,217.2,233.7,217.1z M239.6,214.4l-2-4.8l-2.1,4.8H239.6z"/>
	<path class="st0" d="M242.9,212.6l0.2-0.2h0.2l0.1,0.1v0.5c0.4-0.5,0.9-0.8,1.5-0.8c0.3,0,0.5,0,0.8,0.1c0.1,0,0.2,0.1,0.1,0.2
		l-0.1,0.2l-0.2,0.1c-0.2-0.1-0.4-0.1-0.6-0.1c-0.6,0-1.1,0.3-1.4,0.8v3.4l-0.1,0.2l0,0H243l-0.1-0.2V212.6z"/>
	<path class="st0" d="M247.2,209l0.2-0.2h0.2l0.2,0.2v5.4l2.6-1.9l0.2-0.1h0.4c0.1,0,0.1,0.2,0,0.2l-2.5,1.9l2.9,2.5v0.2h-0.1h-0.4
		l-0.2-0.1l-2.8-2.4v2.3l-0.1,0.2l0,0h-0.2c-0.1,0-0.1-0.1-0.1-0.2L247.2,209z"/>
	<polygon class="st0" points="181.9,223.2 182,223.1 182,223.1 186.8,223.1 187,223.2 187,223.4 186.8,223.6 182.4,223.6 
		182.4,226.9 186.2,226.9 186.4,227 186.4,227.3 186.2,227.4 182.4,227.4 182.4,231 186.8,231 187,231.1 187,231.3 186.8,231.5 
		182,231.5 181.8,231.3 181.8,231.3 	"/>
	<path class="st0" d="M189,226.8c0-0.1,0.1-0.2,0.2-0.2l0,0h0.1l0.1,0.1v0.5c0.5-0.5,1.1-0.7,1.8-0.8c1.3,0,1.9,0.9,1.9,2.2v2.6
		l-0.2,0.2h-0.2l-0.2-0.2v-2.6c0-1.1-0.5-1.7-1.4-1.7c-0.7,0-1.3,0.3-1.7,0.8v3.4l-0.1,0.2l0,0h-0.2l-0.1-0.1l0,0L189,226.8
		L189,226.8z"/>
	<path class="st0" d="M197.5,226.5c0.5,0,1.1,0.2,1.5,0.5v-3.8l0.1-0.2l0,0h0.2l0.1,0.2v8.1l-0.2,0.2h-0.1l-0.2-0.1l0,0V231
		c-0.4,0.4-1,0.7-1.7,0.7c-1.3-0.1-2.3-1.2-2.3-2.5v-0.1C195.1,227.7,196.1,226.6,197.5,226.5L197.5,226.5z M197.4,231.1
		c0.6,0,1.2-0.3,1.6-0.8v-2.7c-0.4-0.3-0.9-0.5-1.4-0.5c-1.1,0.1-2,1-1.9,2.1C195.7,230.2,196.4,231,197.4,231.1z"/>
	<path class="st0" d="M202.3,234.9l-0.2,0.2h-0.2l-0.2-0.1l0,0v-8.1l0.2-0.2l0,0h0.1l0.1,0.1l0,0v0.3c0.4-0.4,1-0.6,1.6-0.6
		c1.3,0,2.4,1.1,2.3,2.4v0.1c0.1,1.3-1,2.5-2.3,2.5h-0.1c-0.5,0-1-0.2-1.4-0.5L202.3,234.9L202.3,234.9z M203.6,231.1
		c1.1,0,1.9-0.8,2-1.9v-0.1c0.1-1-0.7-1.9-1.7-2h-0.1c-0.6,0-1.1,0.2-1.5,0.7v2.8C202.6,230.9,203.1,231.1,203.6,231.1z"/>
	<path class="st0" d="M210.1,226.5c1.4-0.1,2.6,1,2.6,2.4s-1,2.6-2.4,2.6s-2.6-1-2.6-2.4V229C207.7,227.7,208.8,226.6,210.1,226.5
		L210.1,226.5z M210.1,231.1c1.1,0.1,2.1-0.8,2.2-1.9c0.1-1.1-0.8-2.1-1.9-2.2c-1.1-0.1-2.1,0.8-2.2,1.9v0.1
		C208.2,230.1,209,231,210.1,231.1L210.1,231.1z"/>
	<path class="st0" d="M214.3,223.9c0-0.2,0.1-0.4,0.4-0.5c0.2,0,0.4,0.1,0.5,0.4v0.1c0,0.2-0.2,0.4-0.5,0.4
		C214.5,224.2,214.4,224.1,214.3,223.9z M214.5,226.8l0.2-0.2h0.2l0.2,0.2v4.5l-0.1,0.2l0,0h-0.2l-0.1-0.1l0,0v-4.6H214.5z"/>
	<path class="st0" d="M217.3,226.8l0.2-0.2h0.1l0.1,0.1l0,0v0.5c0.5-0.5,1.1-0.7,1.8-0.8c1.3,0,1.9,0.9,1.9,2.2v2.6l-0.2,0.2H221
		l-0.2-0.2v-2.6c0-1.1-0.5-1.7-1.4-1.7c-0.7,0-1.3,0.3-1.7,0.8v3.4l-0.1,0.2l0,0h-0.2l-0.1-0.2L217.3,226.8L217.3,226.8z"/>
	<path class="st0" d="M223.9,227.1h-0.6c-0.1,0-0.1-0.1-0.1-0.1v-0.2l0.1-0.1h0.6v-1.3l0.1-0.1l0,0h0.2l0.2,0.2v1.3h1.7l0.2,0.1l0,0
		v0.2l-0.1,0.2l0,0h-1.6v3.1c0,0.6,0.1,0.9,0.6,0.9c0.4,0,0.8-0.1,1.1-0.3h0.2l0,0l0.1,0.1v0.2l0,0c-0.4,0.3-0.9,0.4-1.4,0.4
		c-1,0-1.1-0.6-1.1-1.4L223.9,227.1z"/>
	<path class="st0" d="M231.6,223.2l0.2-0.2h2.6c1.5,0,2.7,1.2,2.7,2.7s-1.2,2.7-2.7,2.7h-2.2v2.8c0,0.1-0.1,0.2-0.2,0.2h-0.2
		l-0.2-0.2L231.6,223.2z M234.3,227.9c1.2,0,2.2-1,2.2-2.2s-1-2.1-2.2-2.1h-2.1v4.3H234.3z"/>
	<path class="st0" d="M238.6,226.8l0.2-0.2h0.1l0.1,0.1l0,0l0.1,0.5c0.4-0.5,0.9-0.8,1.5-0.8c0.3,0,0.5,0,0.8,0.1
		c0.1,0,0.2,0.1,0.1,0.2l-0.1,0.2l-0.2,0.1l0,0c-0.2-0.1-0.4-0.1-0.6-0.1c-0.6,0-1.1,0.3-1.4,0.8v3.4c0,0.1,0,0.2-0.2,0.2h-0.3
		l-0.1-0.2L238.6,226.8z"/>
	<path class="st0" d="M242.8,223.9c0-0.2,0.1-0.4,0.4-0.5c0.2,0,0.4,0.1,0.5,0.4v0.1c0,0.2-0.2,0.4-0.5,0.4
		C243,224.2,242.9,224.1,242.8,223.9z M243,226.8l0.2-0.2h0.2l0.2,0.2v4.5l-0.1,0.2l0,0h-0.2l-0.1-0.1l0,0v-4.6H243z"/>
	<path class="st0" d="M245.1,226.8c0-0.1,0-0.2,0.1-0.2h0.3l0.2,0.1l1.7,4l1.7-4l0.2-0.1h0.3c0.1,0,0.1,0.1,0.1,0.2l-2.1,4.6
		l-0.2,0.1l0,0l-0.1-0.1L245.1,226.8z"/>
	<path class="st0" d="M251,223.9c0-0.2,0.1-0.4,0.4-0.5c0.2,0,0.4,0.1,0.5,0.4v0.1c0,0.2-0.2,0.4-0.5,0.4
		C251.2,224.2,251.1,224.1,251,223.9z M251.2,226.8l0.1-0.2h0.2l0.2,0.2v4.5l-0.1,0.2l0,0h-0.2l-0.1-0.2L251.2,226.8L251.2,226.8z"
		/>
	<polygon class="st0" points="254,223.2 254.2,223.1 254.4,223.1 254.5,223.2 254.5,231.3 254.4,231.5 254.4,231.5 254.1,231.5 
		254,231.3 254,231.3 	"/>
	<path class="st0" d="M258.9,226.5c1.2,0,2.1,0.9,2.2,2v0.2c0,0.2,0,0.5-0.2,0.5H257c0,1,0.8,1.9,1.9,1.9c0.5,0,1-0.2,1.4-0.4
		c0.1-0.1,0.2-0.1,0.2,0l0.1,0.2v0.2c-0.5,0.4-1.1,0.6-1.7,0.6c-1.4-0.1-2.4-1.3-2.3-2.7C256.6,227.6,257.6,226.6,258.9,226.5z
		 M260.5,228.8c0.1-0.9-0.6-1.7-1.5-1.7h-0.2c-1,0-1.8,0.8-1.8,1.7l0,0H260.5z"/>
	<path class="st0" d="M263.2,229.8c-0.2-0.3-0.4-0.8-0.4-1.2c0-1.1,0.8-2,1.9-2h0.2h2l0.2,0.1l0,0v0.1L267,227l-0.9,0.1
		c0.5,0.3,0.8,0.9,0.8,1.5c0,1.1-0.8,2-1.9,2h-0.1c-0.5,0-0.9-0.1-1.3-0.4c-0.4,0.1-0.6,0.5-0.6,0.9c0,0.6,0.5,0.7,0.9,0.7h1.7
		c1,0,1.8,0.5,1.8,1.5s-1,2-2.4,2c-1.6,0-2.3-1-2.3-1.8c0-0.5,0.3-1,0.8-1.3c-0.5-0.1-0.9-0.6-0.9-1.1
		C262.5,230.5,262.8,230,263.2,229.8z M264.9,234.7c1.1,0,1.9-0.6,1.9-1.5c0-0.5-0.3-1.1-1.2-1.1h-1.5c-0.5,0.1-0.9,0.6-1,1.2
		C263.1,234,263.8,234.7,264.9,234.7L264.9,234.7z M266.3,228.6c0.1-0.8-0.5-1.5-1.3-1.5h-0.2c-0.8,0-1.5,0.7-1.5,1.5l0,0
		c-0.1,0.8,0.5,1.5,1.3,1.5h0.2c0.8,0,1.5-0.6,1.5-1.4V228.6z"/>
	<path class="st0" d="M271,226.5c1.2,0,2.1,0.9,2.2,2.1v0.1c0,0.2,0,0.5-0.2,0.5h-3.8c0,1,0.8,1.9,1.9,1.9c0.5,0,1-0.2,1.4-0.4
		c0.1-0.1,0.2-0.1,0.2,0l0.1,0.2l-0.1,0.2c-0.5,0.4-1.1,0.6-1.7,0.6c-1.4-0.1-2.4-1.3-2.3-2.7C268.7,227.6,269.7,226.6,271,226.5z
		 M272.6,228.8c0.1-0.9-0.6-1.7-1.5-1.7h-0.2c-1,0-1.8,0.8-1.8,1.7l0,0H272.6z"/>
	<path class="st0" d="M207.2,237.3l0.1-0.1h0.1l0.1,0.1l2.5,7.4l2.5-7.4l0.1-0.1h0.1l0.1,0.1l1.7,8.3c0,0.1,0,0.2-0.1,0.2h-0.3
		l-0.1-0.1l-1.4-7l-2.4,7.2L210,246l0,0c-0.1,0-0.1,0-0.2-0.1l-2.4-7.2l-1.4,7l-0.1,0.1h-0.3c-0.1,0-0.2,0-0.1-0.2L207.2,237.3z"/>
	<path class="st0" d="M218.2,242.6c0.4,0,0.8,0.1,1.2,0.2c0-1.1-0.1-1.6-1.1-1.6c-0.5,0-1,0.1-1.4,0.3c-0.1,0-0.2,0-0.2-0.1
		l-0.1-0.1c0-0.1,0-0.2,0.1-0.2c0.5-0.3,1.1-0.4,1.6-0.4c1.5,0,1.5,0.9,1.5,2.1v2.7l-0.2,0.2h-0.1l-0.1-0.1v-0.4
		c-0.5,0.4-1.1,0.7-1.7,0.7c-0.8,0-1.5-0.6-1.6-1.4v-0.2C216.2,243.3,217,242.6,218.2,242.6z M217.8,245.4c0.6,0,1.2-0.3,1.6-0.8
		v-1.3c-0.4-0.2-0.8-0.2-1.2-0.2c-0.9,0-1.5,0.5-1.5,1.2C216.7,244.9,217.1,245.4,217.8,245.4L217.8,245.4z"/>
	<path class="st0" d="M222.2,241.1c0-0.1,0.1-0.2,0.2-0.2l0,0h0.1l0.1,0.1v0.5c0.5-0.5,1.1-0.7,1.8-0.8c1.3,0,1.9,0.9,1.9,2.2v2.6
		l-0.2,0.2H226l-0.2-0.2V243c0-1.1-0.5-1.7-1.4-1.7c-0.7,0-1.3,0.3-1.7,0.8v3.4l-0.1,0.2l0,0h-0.2l-0.1-0.1l0,0L222.2,241.1z"/>
	<path class="st0" d="M230.2,242.6c0.4,0,0.8,0.1,1.2,0.2c0-1.1-0.1-1.6-1.1-1.6c-0.5,0-1,0.1-1.4,0.3c-0.1,0-0.2,0-0.2-0.1
		l-0.1-0.1c0-0.1,0-0.2,0.1-0.2c0.5-0.3,1.1-0.4,1.6-0.4c1.5,0,1.5,0.9,1.5,2.1v2.7l-0.2,0.2h-0.1l-0.1-0.1v-0.4
		c-0.5,0.4-1,0.7-1.7,0.7c-0.8,0-1.5-0.6-1.6-1.4v-0.2C228.2,243.3,229,242.6,230.2,242.6z M229.9,245.4c0.6,0,1.2-0.3,1.6-0.8v-1.3
		c-0.4-0.2-0.8-0.2-1.2-0.2c-0.9,0-1.5,0.5-1.5,1.2C228.7,244.8,229.2,245.3,229.9,245.4L229.9,245.4z"/>
	<path class="st0" d="M234.5,244c-0.2-0.4-0.4-0.8-0.4-1.2c0-1.1,0.8-2,1.9-2h0.2h2l0.2,0.1l0,0v0.1l-0.1,0.2l-0.9,0.1
		c0.5,0.3,0.8,0.9,0.8,1.5c0,1.1-0.8,2-1.9,2h-0.1c-0.5,0-0.9-0.1-1.3-0.4c-0.4,0.1-0.6,0.5-0.6,0.9c0,0.6,0.5,0.7,0.9,0.7h1.7
		c1,0,1.8,0.5,1.8,1.5s-1,2-2.4,2c-1.6,0-2.3-1-2.3-1.8c0-0.5,0.3-1,0.8-1.3c-0.5-0.1-0.9-0.6-0.9-1.1
		C233.8,244.8,234,244.3,234.5,244z M236.2,248.9c1.1,0,1.9-0.6,1.9-1.5c0-0.5-0.3-1.1-1.2-1.1h-1.5c-0.5,0.1-0.9,0.6-1,1.2
		C234.4,248.3,235.1,248.9,236.2,248.9z M237.6,242.8c0.1-0.8-0.5-1.5-1.3-1.5h-0.2c-0.8,0-1.5,0.7-1.5,1.5l0,0
		c0,0.8,0.7,1.5,1.5,1.5C237,244.3,237.6,243.6,237.6,242.8z"/>
	<path class="st0" d="M242.3,240.8c1.2,0,2.1,0.9,2.2,2.1v0.1c0,0.2,0,0.5-0.2,0.5h-3.8c0,1,0.8,1.9,1.9,1.9c0.5,0,1-0.2,1.4-0.4
		c0.1-0.1,0.2-0.1,0.2,0l0.1,0.2v0.2c-0.5,0.4-1.1,0.6-1.7,0.6c-1.4-0.1-2.4-1.3-2.3-2.7C240,241.9,241,240.9,242.3,240.8z
		 M243.9,243c0.1-0.9-0.6-1.7-1.5-1.7h-0.2c-1,0-1.8,0.8-1.8,1.7l0,0H243.9z"/>
	<path class="st0" d="M246.3,241.1l0.2-0.2h0.1l0.1,0.1v0.5c0.4-0.5,0.9-0.8,1.5-0.8c0.3,0,0.5,0,0.8,0.1c0.1,0,0.2,0.1,0.1,0.2
		l-0.1,0.2l-0.2,0.1c-0.2-0.1-0.4-0.1-0.6-0.1c-0.6,0-1.1,0.3-1.4,0.8v3.4l-0.1,0.2l0,0h-0.2l-0.1-0.2v-4.3H246.3z"/>
	<path class="st0" d="M333.2,431.3c1.1,0,2.1,0.4,2.9,1.1v0.2l-0.2,0.2h-0.2c-1.6-1.4-3.9-1.2-5.3,0.4s-1.2,3.9,0.4,5.3
		c0.7,0.6,1.5,0.9,2.4,0.9s1.8-0.4,2.5-1h0.2l0.2,0.2v0.2l0,0c-0.8,0.8-1.8,1.2-2.9,1.2c-2.4,0-4.3-1.9-4.3-4.3
		S330.8,431.3,333.2,431.3L333.2,431.3z"/>
	<path class="st0" d="M337,435.2c-0.1-0.1,0-0.2,0.1-0.2h0.3l0.2,0.1l2.1,4.1l1.9-4.1l0.2-0.1h0.3c0.1,0,0.1,0.1,0.1,0.2l-3.8,8.1
		l-0.2,0.1h-0.3c-0.1,0-0.1-0.1-0.1-0.2l1.6-3.5L337,435.2z"/>
	<path class="st0" d="M343.5,431.6l0.2-0.2h0.2l0.2,0.2v3.8c0.4-0.3,1-0.5,1.5-0.5c1.4,0.1,2.4,1.3,2.3,2.7c-0.1,1.2-1,2.2-2.2,2.3
		c-0.6,0-1.2-0.3-1.7-0.7v0.4l-0.1,0.2l0,0h-0.1l-0.2-0.1L343.5,431.6z M345.6,439.5c1.1-0.2,1.9-1.2,1.7-2.3
		c-0.1-1-0.9-1.7-1.9-1.8c-0.5,0-1,0.2-1.4,0.5v2.7C344.4,439.2,345,439.5,345.6,439.5L345.6,439.5z"/>
	<path class="st0" d="M351.9,434.9c1.2,0,2.1,0.9,2.2,2v0.2c0,0.2,0,0.5-0.2,0.5H350c0,1,0.8,1.9,1.9,1.9c0.5,0,1-0.2,1.4-0.4
		c0.1-0.1,0.2-0.1,0.2,0l0.1,0.2v0.2c-0.5,0.4-1.1,0.6-1.7,0.6c-1.4-0.1-2.4-1.3-2.3-2.7C349.6,436,350.6,435,351.9,434.9z
		 M353.5,437.2c0.1-0.9-0.6-1.7-1.5-1.7h-0.2c-1,0-1.8,0.8-1.8,1.8l0,0L353.5,437.2L353.5,437.2z"/>
	<path class="st0" d="M355.9,435.2l0.2-0.2h0.1l0.1,0.1l0,0l0.1,0.5c0.4-0.5,0.9-0.8,1.5-0.8c0.3,0,0.5,0,0.8,0.1
		c0.1,0,0.2,0.1,0.1,0.2l-0.1,0.2l-0.2,0.1l0,0c-0.2-0.1-0.4-0.1-0.6-0.1c-0.6,0-1.1,0.3-1.4,0.8v3.4l-0.1,0.2l0,0h-0.2l-0.1-0.1
		l0,0L355.9,435.2z"/>
	<path class="st0" d="M359.1,439.7l3.7-8.4l0.1-0.1l0,0l0.2,0.1l3.7,8.4c0,0.1,0,0.1-0.1,0.1h-0.3l-0.2-0.1l-1-2.2h-4.6l-1,2.2
		l-0.2,0.1h-0.3C359.1,439.8,359.1,439.8,359.1,439.7z M365,437l-2.1-4.8l-2.1,4.8H365z"/>
	<path class="st0" d="M368.3,435.2l0.2-0.2h0.1l0.1,0.1v0.5c0.4-0.5,0.9-0.8,1.5-0.8c0.3,0,0.5,0,0.8,0.1c0.1,0,0.2,0.1,0.1,0.2
		l-0.1,0.2l-0.2,0.1l0,0c-0.2-0.1-0.4-0.1-0.6-0.1c-0.6,0-1.1,0.3-1.4,0.8v3.4l-0.1,0.2l0,0h-0.2l-0.1-0.1l0,0L368.3,435.2
		L368.3,435.2z"/>
	<path class="st0" d="M372.6,431.6l0.2-0.2h0.2l0.2,0.2v5.4l2.6-1.9l0.2-0.1h0.4c0.1,0,0.1,0.2,0,0.2l-2.5,1.9l2.9,2.5v0.2h-0.1
		h-0.4l-0.2-0.1l-2.8-2.4v2.3l-0.1,0.2l0,0H373l-0.1-0.1l0,0L372.6,431.6z"/>
	<polygon class="st0" points="381.7,431.6 381.8,431.4 386.7,431.4 386.8,431.6 386.8,431.8 386.7,431.9 382.3,431.9 382.3,435.3 
		386.1,435.3 386.2,435.4 386.2,435.4 386.2,435.6 386.1,435.8 386.1,435.8 382.3,435.8 382.3,439.3 386.7,439.3 386.8,439.5 
		386.8,439.7 386.7,439.8 381.8,439.8 381.7,439.7 	"/>
	<path class="st0" d="M388.8,435.2l0.2-0.2l0,0h0.1l0.1,0.1l0,0l0.1,0.5c0.5-0.5,1.1-0.7,1.8-0.8c1.3,0,1.9,0.9,1.9,2.2v2.6
		l-0.2,0.2h-0.2l-0.2-0.1l0,0v-2.6c0-1.1-0.5-1.7-1.4-1.7c-0.7,0-1.3,0.3-1.7,0.8v3.4l-0.1,0.1l0,0H389l-0.1-0.1l0,0v-4.4H388.8z"/>
	<path class="st0" d="M397.3,434.9c0.5,0,1.1,0.2,1.5,0.5v-3.8l0.1-0.2l0,0h0.2l0.1,0.2v8.1l-0.2,0.1l0,0l0,0l-0.2-0.1l0,0v-0.4
		c-0.8,0.9-2.3,1-3.2,0.1c-0.5-0.5-0.8-1.2-0.7-1.9C394.9,436.1,395.9,435,397.3,434.9L397.3,434.9z M397.2,439.5
		c0.6,0,1.2-0.3,1.6-0.8V436c-0.4-0.3-0.9-0.5-1.4-0.5c-1.1,0.1-2,1-1.9,2.1C395.5,438.5,396.2,439.3,397.2,439.5z"/>
	<path class="st0" d="M402.1,443.3l-0.2,0.2h-0.2l-0.2-0.2v-8.1c0-0.1,0.1-0.2,0.2-0.2h0.1l0.1,0.1l0,0v0.3c0.4-0.4,1-0.6,1.6-0.6
		c1.3,0,2.4,1.1,2.3,2.4v0.1c0.1,1.3-1,2.5-2.3,2.5h-0.1c-0.5,0-1-0.2-1.4-0.5L402.1,443.3z M403.5,439.4c1.1,0,1.9-0.8,2-1.9v-0.1
		c0.1-1-0.7-1.9-1.7-2c-0.6,0-1.2,0.2-1.6,0.7v2.8C402.5,439.2,402.9,439.4,403.5,439.4L403.5,439.4z"/>
	<path class="st0" d="M409.9,434.9c1.4-0.1,2.6,1,2.6,2.4c0.1,1.4-1,2.6-2.4,2.6c-1.4,0.1-2.6-1-2.6-2.4v-0.1
		C407.5,436.1,408.6,434.9,409.9,434.9z M409.9,439.5c1.1,0.1,2.1-0.8,2.2-1.9s-0.8-2.1-1.9-2.2s-2.1,0.8-2.2,1.9v0.1
		C408,438.5,408.8,439.4,409.9,439.5L409.9,439.5z"/>
	<path class="st0" d="M414.2,432.3c0-0.2,0.2-0.4,0.4-0.4c0.2,0,0.4,0.2,0.4,0.4c0,0.2-0.2,0.4-0.4,0.4
		C414.3,432.7,414.2,432.5,414.2,432.3z M414.3,435.2l0.2-0.2h0.2l0.2,0.2v4.5l-0.1,0.2l0,0h-0.2l-0.1-0.1l0,0v-4.6H414.3z"/>
	<path class="st0" d="M417.1,435.2l0.2-0.2l0,0h0.1l0.1,0.1v0.5c0.5-0.5,1.1-0.7,1.8-0.8c1.4,0,1.9,0.9,1.9,2.2v2.6l-0.2,0.2l0,0
		l0,0l-0.1-0.2V437c0-1.1-0.5-1.7-1.4-1.7c-0.7,0-1.3,0.3-1.7,0.8v3.4l-0.1,0.2l0,0h-0.2l-0.1-0.1l0,0L417.1,435.2z"/>
	<path class="st0" d="M423.8,435.5h-0.5c-0.1,0-0.1-0.1-0.1-0.2v-0.2l0.1-0.1h0.6v-1.3l0.1-0.2l0,0h0.2l0.1,0.2v1.3h1.7l0.2,0.1l0,0
		v0.2l-0.1,0.2l0,0h-1.7v3.1c0,0.6,0.1,0.9,0.6,0.9c0.4,0,0.8-0.1,1.1-0.3h0.2l0,0l0.1,0.1v0.2l0,0c-0.4,0.3-0.9,0.4-1.4,0.4
		c-1,0-1.1-0.6-1.1-1.3L423.8,435.5z"/>
	<path class="st0" d="M431.4,431.6l0.2-0.2h2.6c1.5,0,2.7,1.2,2.7,2.7s-1.2,2.7-2.7,2.7l0,0H432v2.8c0,0.1-0.1,0.1-0.2,0.1h-0.2
		l-0.2-0.1L431.4,431.6z M434.1,436.3c1.2,0,2.2-1,2.2-2.2s-1-2.1-2.2-2.1H432v4.3L434.1,436.3L434.1,436.3z"/>
	<path class="st0" d="M438.4,435.2l0.2-0.2h0.1l0.2,0.1v0.5c0.4-0.5,0.9-0.8,1.5-0.8c0.3,0,0.5,0,0.8,0.1c0.1,0,0.2,0.1,0.1,0.2
		l-0.1,0.2l-0.2,0.1l0,0c-0.2-0.1-0.4-0.1-0.6-0.1c-0.6,0-1.1,0.3-1.4,0.8v3.4l-0.1,0.2l0,0h-0.2l-0.1-0.1l0,0L438.4,435.2z"/>
	<path class="st0" d="M442.7,432.3c0-0.2,0.2-0.4,0.4-0.4c0.2,0,0.4,0.2,0.4,0.4c0,0.2-0.2,0.4-0.4,0.4
		C442.8,432.7,442.7,432.5,442.7,432.3z M442.8,435.2l0.2-0.2h0.2l0.2,0.2v4.5l-0.1,0.2l0,0h-0.2l-0.1-0.1l0,0v-4.6H442.8z"/>
	<path class="st0" d="M444.9,435.2c0-0.1,0-0.2,0.1-0.2h0.3l0.2,0.1l1.7,4l1.8-4l0.2-0.1h0.3c0.1,0,0.1,0.1,0.1,0.2l-2.1,4.6
		l-0.1,0.1l0,0l-0.2-0.1L444.9,435.2z"/>
	<path class="st0" d="M450.9,432.3c0-0.2,0.1-0.4,0.4-0.5c0.2,0,0.4,0.1,0.5,0.4v0.1c0,0.2-0.2,0.4-0.5,0.4
		C451,432.6,450.9,432.5,450.9,432.3z M451,435.2l0.2-0.2h0.2l0.2,0.2v4.5l-0.1,0.2l0,0h-0.2l-0.1-0.1l0,0v-4.6H451z"/>
	<polygon class="st0" points="453.8,431.6 454,431.4 454.2,431.4 454.4,431.6 454.4,439.7 454.2,439.8 454.2,439.8 454,439.8 
		453.8,439.7 453.8,439.7 	"/>
	<path class="st0" d="M458.7,434.9c1.2,0,2.1,0.9,2.2,2.1v0.1c0,0.2,0,0.5-0.2,0.5h-3.8c0,1,0.8,1.9,1.9,1.9c0.5,0,1-0.2,1.4-0.4
		c0.1-0.1,0.2-0.1,0.2,0l0.1,0.2l-0.1,0.2c-0.5,0.4-1.1,0.6-1.7,0.6c-1.4-0.1-2.4-1.3-2.3-2.7C456.5,436,457.4,435,458.7,434.9z
		 M460.3,437.2c0.1-0.9-0.6-1.7-1.5-1.8h-0.2c-1,0-1.8,0.8-1.8,1.8H460.3z"/>
	<path class="st0" d="M463.1,438.1c-0.2-0.4-0.4-0.8-0.4-1.2c0-1.1,0.8-2,1.9-2h0.2h1.9l0.2,0.2l0,0v0.1l-0.1,0.1l-0.9,0.1
		c0.5,0.3,0.8,0.9,0.8,1.5c0,1.1-0.8,2-1.9,2h-0.1c-0.5,0-0.9-0.1-1.3-0.4c-0.4,0.1-0.6,0.5-0.6,0.9c0,0.6,0.5,0.7,1,0.7h1.7
		c1,0,1.8,0.5,1.8,1.5s-1,2-2.5,2c-1.6,0-2.3-1-2.3-1.8c0-0.5,0.3-1,0.8-1.3c-0.5-0.1-0.9-0.6-0.9-1.1
		C462.3,438.8,462.6,438.4,463.1,438.1z M464.8,443.1c1.1,0,1.9-0.6,1.9-1.5c0-0.5-0.3-1.1-1.2-1.1H464c-0.6,0.1-1,0.6-1,1.2
		C463,442.4,463.6,443.1,464.8,443.1z M466.2,436.9c0-0.8-0.6-1.5-1.4-1.5h-0.1c-0.8,0-1.5,0.7-1.5,1.5c-0.1,0.8,0.5,1.5,1.3,1.5
		h0.2c0.8,0,1.5-0.6,1.5-1.4V436.9z"/>
	<path class="st0" d="M470.8,434.9c1.2,0,2.1,0.9,2.2,2v0.2c0,0.2,0,0.5-0.2,0.5H469c0,1,0.8,1.9,1.9,1.9c0.5,0,1-0.2,1.4-0.4
		c0.1-0.1,0.2-0.1,0.2,0l0.1,0.2v0.2c-0.5,0.4-1.1,0.6-1.7,0.6c-1.4-0.1-2.4-1.3-2.3-2.7C468.6,436,469.6,435,470.8,434.9
		L470.8,434.9z M472.4,437.2c0.1-0.9-0.6-1.7-1.5-1.7h-0.2c-1,0-1.8,0.8-1.8,1.8l0,0L472.4,437.2L472.4,437.2z"/>
	<path class="st0" d="M344,445.6l0.1-0.1h0.1l0.1,0.1l2.5,7.4l2.5-7.4l0.1-0.1h0.1l0.1,0.1l1.7,8.3c0,0.1,0,0.1-0.1,0.1h-0.3
		l-0.1-0.1l-1.4-7l-2.4,7.2l-0.2,0.1l0,0l-0.2-0.1l-2.4-7.2l-1.4,7l-0.1,0.1h-0.3c-0.1,0-0.2,0-0.1-0.1L344,445.6z"/>
	<path class="st0" d="M355,451c0.4,0,0.8,0.1,1.2,0.2c0-1.1-0.1-1.6-1.1-1.6c-0.5,0-1,0.1-1.4,0.3h-0.2v-0.1l-0.1-0.1
		c0-0.1,0-0.2,0.1-0.2c0.5-0.3,1.1-0.4,1.7-0.4c1.5,0,1.5,0.9,1.5,2.1v2.7l-0.2,0.1h-0.1l-0.1-0.1l-0.1-0.4c-0.4,0.4-1,0.7-1.7,0.7
		c-0.8,0-1.5-0.6-1.6-1.4v-0.2C352.9,451.7,353.7,451,355,451z M354.6,453.7c0.6,0,1.2-0.3,1.6-0.8v-1.3c-0.4-0.2-0.8-0.3-1.2-0.3
		c-0.9,0-1.5,0.5-1.5,1.2c0,0.6,0.4,1.1,1,1.2L354.6,453.7L354.6,453.7z"/>
	<path class="st0" d="M358.9,449.4c0-0.1,0.1-0.2,0.2-0.2h0.1l0.1,0.1v0.5c0.5-0.5,1.1-0.7,1.8-0.8c1.4,0,1.9,0.9,1.9,2.2v2.6
		l-0.2,0.2h-0.2l-0.2-0.2v-2.6c0-1.1-0.5-1.7-1.4-1.7c-0.7,0-1.3,0.3-1.7,0.8v3.4l-0.1,0.2l0,0H359l-0.1-0.1l0,0V449.4z"/>
	<path class="st0" d="M367,451c0.4,0,0.8,0.1,1.2,0.2c0-1.1-0.1-1.6-1.1-1.6c-0.5,0-1,0.1-1.4,0.3h-0.2v-0.1l-0.1-0.1
		c0-0.1,0-0.2,0.1-0.2c0.5-0.3,1.1-0.4,1.7-0.4c1.5,0,1.5,0.9,1.5,2.1v2.7l-0.2,0.1h-0.1l-0.1-0.1l-0.1-0.4c-0.4,0.4-1,0.7-1.7,0.7
		c-0.8,0-1.5-0.6-1.6-1.4v-0.2C364.9,451.7,365.7,451,367,451z M366.6,453.7c0.6,0,1.2-0.3,1.6-0.8v-1.3c-0.4-0.2-0.8-0.3-1.2-0.3
		c-0.9,0-1.5,0.5-1.5,1.2c0,0.6,0.4,1.1,1,1.2L366.6,453.7L366.6,453.7z"/>
	<path class="st0" d="M371.2,452.4c-0.2-0.4-0.4-0.8-0.4-1.2c0-1.1,0.8-2,1.9-2h0.2h2l0.2,0.2l0,0v0.1l-0.1,0.1l-0.9,0.1
		c0.5,0.3,0.8,0.9,0.8,1.5c0,1.1-0.8,2-1.9,2h-0.1c-0.5,0-0.9-0.1-1.3-0.4c-0.4,0.1-0.6,0.5-0.6,0.9c0,0.6,0.5,0.7,1,0.7h1.7
		c1,0,1.8,0.5,1.8,1.5s-1,2-2.5,2c-1.6,0-2.3-1-2.3-1.8c0-0.5,0.3-1,0.8-1.3c-0.5-0.1-0.9-0.6-0.9-1.1
		C370.5,453.1,370.8,452.6,371.2,452.4z M372.9,457.3c1.1,0,1.9-0.6,1.9-1.5c0-0.5-0.3-1.1-1.2-1.1h-1.5c-0.5,0.1-0.9,0.6-1,1.2
		C371.1,456.6,371.8,457.3,372.9,457.3L372.9,457.3z M374.4,451.2c0-0.8-0.6-1.5-1.4-1.5h-0.1c-0.8,0-1.5,0.7-1.5,1.5
		s0.7,1.5,1.5,1.5C373.7,452.7,374.4,452,374.4,451.2z"/>
	<path class="st0" d="M379,449.2c1.2,0,2.1,0.9,2.2,2v0.2c0,0.2,0,0.5-0.2,0.5h-3.8c0,1,0.8,1.9,1.8,1.9c0.5,0,1-0.2,1.4-0.4
		c0.1-0.1,0.2-0.1,0.2,0l0.1,0.2v0.2c-0.5,0.4-1.1,0.6-1.7,0.6c-1.4-0.1-2.4-1.3-2.3-2.7C376.7,450.3,377.7,449.3,379,449.2
		L379,449.2z M380.6,451.4c0.1-0.9-0.6-1.7-1.5-1.7h-0.2c-1,0-1.8,0.8-1.8,1.8l0,0L380.6,451.4L380.6,451.4z"/>
	<path class="st0" d="M383,449.4l0.2-0.2h0.1l0.1,0.1l0,0l0.1,0.5c0.4-0.5,0.9-0.8,1.5-0.8c0.3,0,0.5,0,0.8,0.1
		c0.1,0,0.2,0.1,0.1,0.2l-0.1,0.2l-0.2,0.1l0,0c-0.2-0.1-0.4-0.1-0.6-0.1c-0.6,0-1.1,0.3-1.4,0.8v3.4l-0.1,0.2l0,0h-0.2l-0.1-0.1
		l0,0L383,449.4z"/>
	<path class="st0" d="M389.6,453.9l3.7-8.4l0.1-0.1l0.1,0.1l3.7,8.4c0,0.1,0,0.1-0.1,0.1h-0.3l-0.2-0.1l-1-2.2h-4.5l-1,2.2l-0.2,0.1
		h-0.3C389.6,454.1,389.6,454,389.6,453.9z M395.6,451.3l-2-4.8l-2.1,4.8H395.6z"/>
	<path class="st0" d="M400.8,449.2c0.5,0,1.1,0.2,1.5,0.5v-3.8l0.1-0.2l0,0h0.2l0.1,0.2v8.1l-0.2,0.1h-0.1l-0.2-0.1l0,0v-0.4
		c-0.8,0.9-2.3,1-3.2,0.1c-0.5-0.5-0.8-1.2-0.7-1.9C398.4,450.4,399.4,449.2,400.8,449.2L400.8,449.2z M400.7,453.8
		c0.6,0,1.2-0.3,1.6-0.8v-2.7c-0.4-0.3-0.9-0.5-1.4-0.5c-1.1,0.1-2,1-1.9,2.1C399,452.8,399.8,453.6,400.7,453.8z"/>
	<path class="st0" d="M405.1,449.4l0.2-0.2h0.1l0.1,0.1l0.1,0.5c0.4-0.5,1-0.8,1.6-0.8c0.7,0,1.3,0.3,1.6,0.9
		c0.4-0.5,1.1-0.9,1.8-0.9c1.3,0,1.9,0.9,1.9,2.2v2.6l-0.2,0.2h-0.2l-0.1-0.1l0,0v-2.6c0-1.1-0.5-1.7-1.4-1.7
		c-0.6,0-1.2,0.3-1.6,0.8c0.1,0.3,0.1,0.6,0.1,0.9v2.6l-0.2,0.1h-0.2l-0.1-0.1l0,0v-2.6c0-1.1-0.5-1.7-1.4-1.7
		c-0.6,0-1.2,0.3-1.6,0.8v3.4l-0.1,0.1l0,0h-0.3l-0.1-0.1l0,0L405.1,449.4z"/>
	<path class="st0" d="M414.6,446.5c0-0.2,0.1-0.4,0.4-0.5c0.2,0,0.4,0.1,0.5,0.4v0.1c0,0.2-0.2,0.4-0.5,0.4
		C414.8,446.9,414.6,446.7,414.6,446.5z M414.8,449.4l0.2-0.2h0.2l0.2,0.2v4.5l-0.1,0.2l0,0h-0.2L415,454l0,0v-4.6H414.8z"/>
	<path class="st0" d="M417.6,449.4c0-0.1,0.1-0.2,0.2-0.2l0,0h0.1l0.1,0.1v0.5c0.5-0.5,1.1-0.7,1.8-0.8c1.3,0,1.9,0.9,1.9,2.2v2.6
		l-0.2,0.2h-0.2l-0.2-0.2v-2.6c0-1.1-0.5-1.7-1.4-1.7c-0.7,0-1.3,0.3-1.7,0.8v3.4l-0.1,0.2l0,0h-0.2l-0.1-0.1l0,0L417.6,449.4
		L417.6,449.4z"/>
	<path class="st0" d="M423.9,446.5c0-0.2,0.1-0.4,0.4-0.5c0.2,0,0.4,0.1,0.5,0.4v0.1c0,0.2-0.2,0.4-0.5,0.4S423.9,446.7,423.9,446.5
		z M424,449.4l0.2-0.2h0.2l0.2,0.2v4.5l-0.1,0.2l0,0h-0.2l-0.1-0.1l0,0v-4.6H424z"/>
	<path class="st0" d="M426.6,453.5l0.1-0.2h0.2l0,0c0.4,0.3,0.8,0.5,1.3,0.5c0.7,0,1.2-0.4,1.2-0.8s-0.5-0.8-1.4-1.1
		c-0.8-0.3-1.5-0.7-1.5-1.4c0.1-0.8,0.7-1.3,1.5-1.3h0.1c0.5,0,0.9,0.1,1.4,0.4l0.1,0.2l-0.1,0.1l-0.2,0.1l0,0
		c-0.3-0.2-0.7-0.3-1.1-0.3c-0.8,0-1,0.4-1,0.8c0,0.5,0.4,0.7,1.1,1c0.9,0.3,1.7,0.6,1.7,1.5c-0.1,0.8-0.9,1.4-1.7,1.3
		c-0.6,0-1.1-0.2-1.6-0.5L426.6,453.5z"/>
	<path class="st0" d="M432,449.7h-0.6c-0.1,0-0.1-0.1-0.1-0.2v-0.2l0.1-0.1h0.6V448l0.1-0.2l0,0h0.2l0.2,0.2v1.3h1.7l0.2,0.1l0,0
		v0.2l-0.1,0.2l0,0h-1.7v3.1c0,0.6,0.1,0.9,0.6,0.9c0.4,0,0.8-0.1,1.1-0.3h0.2l0,0l0.1,0.1v0.2l0,0c-0.4,0.3-0.9,0.4-1.4,0.4
		c-1,0-1.1-0.6-1.1-1.3L432,449.7z"/>
	<path class="st0" d="M436.2,449.4l0.2-0.2h0.1l0.1,0.1l0,0l0.1,0.5c0.4-0.5,0.9-0.8,1.5-0.8c0.3,0,0.5,0,0.8,0.1
		c0.1,0,0.2,0.1,0.1,0.2l-0.1,0.2l-0.2,0.1l0,0c-0.2-0.1-0.4-0.1-0.6-0.1c-0.6,0-1.1,0.3-1.4,0.8v3.4l-0.1,0.2l0,0h-0.2l-0.1-0.1
		l0,0L436.2,449.4z"/>
	<path class="st0" d="M442.2,451c0.4,0,0.8,0.1,1.2,0.2c0-1.1-0.1-1.6-1.1-1.6c-0.5,0-1,0.1-1.4,0.3h-0.2v-0.1l-0.1-0.1l0.1-0.2l0,0
		c0.5-0.3,1.1-0.4,1.6-0.4c1.5,0,1.5,0.9,1.5,2.1v2.7l-0.1,0.1l0,0h-0.1l-0.1-0.1v-0.4c-0.5,0.4-1,0.7-1.7,0.7
		c-0.8,0-1.5-0.6-1.6-1.4v-0.2C440.2,451.7,440.9,451,442.2,451z M441.8,453.7c0.6,0,1.2-0.3,1.6-0.8v-1.3c-0.4-0.2-0.8-0.3-1.2-0.3
		c-0.9,0-1.5,0.5-1.5,1.2c0,0.6,0.4,1.1,1,1.2L441.8,453.7L441.8,453.7z"/>
	<path class="st0" d="M446.4,449.7h-0.6c-0.1,0-0.1-0.1-0.1-0.2v-0.2l0.1-0.1h0.6V448l0.1-0.2l0,0h0.2l0.2,0.2v1.3h1.7l0.2,0.1l0,0
		v0.2l-0.1,0.2l0,0H447v3.1c0,0.6,0.1,0.9,0.6,0.9c0.4,0,0.8-0.1,1.1-0.3h0.2l0,0l0.1,0.1v0.2l0,0c-0.4,0.3-0.9,0.4-1.4,0.4
		c-1,0-1.1-0.6-1.1-1.3v-3.2H446.4z"/>
	<path class="st0" d="M452.6,449.2c1.4-0.1,2.6,1,2.6,2.4s-1,2.6-2.4,2.6c-1.4,0.1-2.6-1-2.6-2.4v-0.1
		C450.2,450.3,451.3,449.2,452.6,449.2z M452.6,453.7c1.1,0.1,2.1-0.8,2.2-1.9s-0.8-2.1-1.9-2.2s-2.1,0.8-2.2,1.9v0.1
		C450.7,452.7,451.5,453.6,452.6,453.7L452.6,453.7z"/>
	<path class="st0" d="M457,449.4l0.2-0.2h0.1l0.2,0.1v0.5c0.4-0.5,0.9-0.8,1.5-0.8c0.3,0,0.5,0,0.8,0.1c0.1,0,0.2,0.1,0.1,0.2
		l-0.1,0.2l-0.2,0.1l0,0c-0.2-0.1-0.4-0.1-0.6-0.1c-0.6,0-1.1,0.3-1.4,0.8v3.4l-0.1,0.2l0,0h-0.2l-0.1-0.1l0,0L457,449.4z"/>
	<path class="st0" d="M208.3,431.6l0.1-0.2l0,0h3c1.4-0.1,2.6,1,2.7,2.4c0.1,1.2-0.8,2.4-2,2.6l1.7,3.1l-0.1,0.2h-0.4l-0.2-0.1
		l-1.7-3.1h-2.7v3.1c0,0.1-0.1,0.2-0.2,0.2h-0.2l-0.2-0.2L208.3,431.6z M211.4,436.1c1.2,0,2.1-0.9,2.1-2.1l0,0c0-1.1-1-2-2.1-2
		h-2.5v4.1H211.4z"/>
	<path class="st0" d="M217.9,434.9c1.2,0,2.1,0.9,2.2,2v0.2c0,0.2,0,0.5-0.2,0.5h-3.8c0,1,0.8,1.9,1.9,1.9c0.5,0,1-0.2,1.4-0.4
		c0.1-0.1,0.2-0.1,0.2,0l0.1,0.2v0.2c-0.5,0.4-1.1,0.6-1.7,0.6c-1.4-0.1-2.4-1.3-2.3-2.7C215.7,436,216.7,435,217.9,434.9z
		 M219.6,437.2c0.1-0.9-0.6-1.7-1.5-1.7h-0.2c-1,0-1.8,0.8-1.8,1.8l0,0L219.6,437.2L219.6,437.2z"/>
	<path class="st0" d="M222,435.2l0.2-0.2h0.1l0.1,0.1l0.1,0.5c0.4-0.5,1-0.8,1.7-0.8c0.6,0,1.3,0.3,1.6,0.9c0.4-0.5,1.1-0.9,1.8-0.9
		c1.3,0,1.9,0.9,1.9,2.2v2.6l-0.2,0.2H229l-0.1-0.1l0,0v-2.6c0-1.1-0.5-1.7-1.4-1.7c-0.6,0-1.2,0.3-1.6,0.8c0.1,0.3,0.1,0.6,0.1,0.9
		v2.6l-0.2,0.1h-0.2l-0.1-0.1l0,0v-2.6c0-1.1-0.5-1.7-1.4-1.7c-0.6,0-1.2,0.3-1.6,0.8v3.4l-0.1,0.1l0,0h-0.2l-0.1-0.1l0,0L222,435.2
		z"/>
	<path class="st0" d="M233.7,434.9c1.4-0.1,2.6,1,2.6,2.4c0.1,1.4-1,2.6-2.4,2.6c-1.4,0.1-2.6-1-2.6-2.4v-0.1
		C231.3,436.1,232.3,434.9,233.7,434.9z M233.7,439.5c1.1,0.1,2.1-0.8,2.2-1.9c0.1-1.1-0.8-2.1-1.9-2.2c-1.1-0.1-2.1,0.8-2.2,1.9
		v0.1C231.8,438.5,232.6,439.4,233.7,439.5L233.7,439.5z"/>
	<path class="st0" d="M238.3,435.5h-0.6c-0.1,0-0.1-0.1-0.1-0.2v-0.2l0.1-0.1h0.6v-1.3l0.1-0.2l0,0h0.2l0.2,0.2v1.3h1.7l0.2,0.1l0,0
		v0.2l-0.1,0.2l0,0h-1.7v3.1c0,0.6,0.1,0.9,0.6,0.9c0.4,0,0.8-0.1,1.1-0.3h0.2l0,0l0.1,0.1v0.2l0,0c-0.4,0.3-0.9,0.4-1.4,0.4
		c-1,0-1.1-0.6-1.1-1.3v-3.1H238.3z"/>
	<path class="st0" d="M244.5,434.9c1.2,0,2.1,0.9,2.2,2v0.2c0,0.2,0,0.5-0.2,0.5h-3.8c0,1,0.8,1.9,1.9,1.9c0.5,0,1-0.2,1.4-0.4
		c0.1-0.1,0.2-0.1,0.2,0l0.1,0.2v0.2c-0.5,0.4-1.1,0.6-1.7,0.6c-1.4-0.1-2.4-1.3-2.3-2.7C242.3,436,243.3,435,244.5,434.9z
		 M246.1,437.2c0.1-0.9-0.6-1.7-1.5-1.8h-0.2c-1,0-1.8,0.8-1.8,1.8H246.1z"/>
	<path class="st0" d="M197.2,445.8l0.1-0.2h0.3l0.1,0.2v7.7h3.8c0.1,0,0.2,0.1,0.2,0.2v0.2c0,0.1-0.1,0.1-0.2,0.1h-4.2l-0.1-0.1
		L197.2,445.8L197.2,445.8z"/>
	<path class="st0" d="M204.9,451c0.4,0,0.8,0.1,1.2,0.2c0-1.1-0.1-1.6-1-1.6c-0.5,0-1,0.1-1.4,0.3c-0.1,0-0.1,0-0.2-0.1l-0.1-0.1
		c0-0.1,0-0.2,0.1-0.2c0.5-0.3,1.1-0.4,1.6-0.4c1.5,0,1.5,0.9,1.5,2.1v2.7l-0.2,0.1h-0.1l-0.1-0.1v-0.4c-0.5,0.4-1,0.7-1.7,0.7
		c-0.8,0-1.5-0.6-1.6-1.4v-0.2C202.8,451.7,203.6,451,204.9,451z M204.5,453.7c0.6,0,1.2-0.3,1.6-0.8v-1.3c-0.4-0.2-0.8-0.3-1.2-0.3
		c-0.9,0-1.5,0.5-1.5,1.2C203.4,453.1,203.8,453.6,204.5,453.7L204.5,453.7L204.5,453.7z"/>
	<path class="st0" d="M209.3,457.5l-0.2,0.2H209l-0.2-0.2v-8.1c0-0.1,0.1-0.2,0.2-0.2l0,0h0.1l0.1,0.1l0,0v0.3
		c0.4-0.4,1-0.6,1.6-0.6c1.3,0,2.4,1.1,2.3,2.4v0.1c0.1,1.3-1,2.5-2.3,2.5h-0.1c-0.5,0-1-0.2-1.4-0.5L209.3,457.5z M210.7,453.7
		c1.1,0,1.9-0.8,2-1.9v-0.1c0.1-1-0.7-1.9-1.7-2c-0.6,0-1.2,0.2-1.6,0.7v2.8C209.7,453.5,210.2,453.7,210.7,453.7L210.7,453.7z"/>
	<path class="st0" d="M215.4,449.7h-0.6c-0.1,0-0.1-0.1-0.1-0.2v-0.2l0.1-0.1h0.6V448l0.1-0.2l0,0h0.2l0.2,0.2v1.3h1.7l0.2,0.1l0,0
		v0.2l-0.1,0.2l0,0H216v3.1c0,0.6,0.1,0.9,0.6,0.9c0.4,0,0.8-0.1,1.1-0.3h0.2l0,0l0.1,0.1v0.2l0,0c-0.4,0.3-0.9,0.4-1.4,0.4
		c-1,0-1.1-0.6-1.1-1.3v-3.2H215.4z"/>
	<path class="st0" d="M221.6,449.2c1.4-0.1,2.6,1,2.6,2.4c0.1,1.4-1,2.6-2.4,2.6c-1.4,0.1-2.6-1-2.6-2.4v-0.1
		C219.2,450.3,220.3,449.2,221.6,449.2z M221.6,453.7c1.1,0.1,2.1-0.8,2.2-1.9c0.1-1.1-0.8-2.1-1.9-2.2c-1.1-0.1-2.1,0.8-2.2,1.9
		v0.1C219.7,452.7,220.5,453.7,221.6,453.7L221.6,453.7z"/>
	<path class="st0" d="M226.5,457.5l-0.2,0.2h-0.2c-0.1,0-0.2-0.1-0.2-0.2v-8.1c0-0.1,0.1-0.2,0.2-0.2l0,0h0.1l0.1,0.1l0,0v0.3
		c0.4-0.4,1-0.6,1.6-0.6c1.3,0,2.4,1.1,2.3,2.4v0.1c0.1,1.3-1,2.5-2.3,2.5h-0.1c-0.5,0-1-0.2-1.4-0.5L226.5,457.5z M227.9,453.7
		c1.1,0,1.9-0.8,2-1.9v-0.1c0.1-1-0.7-1.9-1.7-2c-0.6,0-1.2,0.2-1.6,0.7v2.8C226.9,453.5,227.4,453.7,227.9,453.7L227.9,453.7z"/>
	<path class="st0" d="M235.7,445.8l0.2-0.2h0.2l0.2,0.2v5.1c0,1.4,1.2,2.6,2.6,2.6s2.6-1.2,2.6-2.6v-5.1c0-0.1,0.1-0.2,0.2-0.2h0.2
		l0.2,0.2v5.2c0.1,1.7-1.3,3.2-3,3.3c-1.7,0.1-3.2-1.3-3.3-3c0-0.1,0-0.2,0-0.3L235.7,445.8L235.7,445.8z"/>
	<path class="st0" d="M244,453.5l0.1-0.2h0.2c0.4,0.3,0.8,0.5,1.3,0.5c0.7,0,1.2-0.4,1.2-0.8s-0.5-0.8-1.3-1.1
		c-0.8-0.3-1.5-0.7-1.5-1.4c0.1-0.8,0.8-1.3,1.5-1.3h0.1c0.5,0,0.9,0.1,1.4,0.4v0.2l0,0l-0.1,0.1l-0.2,0.1l0,0
		c-0.3-0.2-0.7-0.3-1.1-0.3c-0.8,0-1,0.4-1,0.8c0,0.5,0.4,0.7,1.1,1c0.9,0.3,1.7,0.6,1.7,1.5c-0.1,0.8-0.9,1.4-1.7,1.3
		c-0.6,0-1.1-0.2-1.6-0.5L244,453.5z"/>
	<path class="st0" d="M251.2,449.2c1.2,0,2.1,0.9,2.2,2.1v0.1c0,0.2,0,0.5-0.2,0.5h-3.8c0,1,0.8,1.9,1.9,1.9l0,0
		c0.5,0,1-0.2,1.4-0.4c0.1-0.1,0.2-0.1,0.2,0l0.1,0.2v0.2c-0.5,0.4-1.1,0.6-1.7,0.6c-1.4-0.1-2.4-1.3-2.3-2.7
		C249,450.3,250,449.3,251.2,449.2L251.2,449.2z M252.9,451.4c0.1-0.9-0.6-1.7-1.5-1.8h-0.2c-1,0-1.8,0.8-1.8,1.8H252.9z"/>
	<path class="st0" d="M255.3,449.4l0.2-0.2h0.1l0.1,0.1v0.5c0.4-0.5,0.9-0.8,1.5-0.8c0.3,0,0.5,0,0.8,0.1c0.1,0,0.2,0.1,0.1,0.2
		l-0.1,0.2l-0.2,0.1l0,0c-0.2-0.1-0.4-0.1-0.6-0.1c-0.6,0-1.1,0.3-1.4,0.8v3.4l-0.1,0.2l0,0h-0.2l-0.1-0.1l0,0L255.3,449.4
		L255.3,449.4z"/>
	<path class="st1" d="M245,303c0.2-0.9,0.3-1.8,0.3-2.6c-0.1-6.4-5.3-11.5-11.7-11.4c-4.2,0-8.1,2.2-10.2,5.8
		c-0.6-0.1-1.3-0.2-1.9-0.2c-5.3,0-10,3.4-11.6,8.4c-6.6,0.3-11.6,5.8-11.3,12.4c0.3,6.5,5.7,11.5,12.1,11.3H244
		c6.6-0.1,11.8-5.4,11.8-12C255.7,308.6,251.1,303.6,245,303z M244,324h-33.3c-5.1,0.2-9.3-3.8-9.5-8.9s3.8-9.3,8.9-9.5
		c0.2,0,0.3,0,0.5,0c1.3,0,2.6,0.3,3.8,0.8c0.1,0,0.2,0.1,0.4,0.1c0.5,0,0.9-0.4,0.9-0.9c0-0.4-0.2-0.7-0.6-0.8
		c-0.8-0.4-1.7-0.6-2.6-0.8c1.2-4,4.9-6.7,9.1-6.7h0.2c2.3,0,4.6,0.9,6.4,2.4c0.2,0.1,0.4,0.2,0.6,0.2c0.3,0,0.5-0.1,0.7-0.3
		c0.3-0.4,0.3-0.9-0.1-1.3l0,0c-1.1-0.9-2.3-1.6-3.6-2.1c1.6-2.9,4.6-4.7,7.9-4.6c4.9-0.1,8.9,3.8,9,8.7c0,1.2-0.3,2.4-0.8,3.4
		c0,0.1-0.1,0.2-0.1,0.3c-1.3,0.3-2.5,0.7-3.6,1.4c-0.4,0.3-0.6,0.8-0.3,1.2c0.2,0.3,0.4,0.4,0.8,0.4c0.2,0,0.3,0,0.5-0.1
		c1.3-0.8,2.8-1.2,4.3-1.3h0.5c5.1-0.2,9.4,3.7,9.6,8.8s-3.7,9.4-8.8,9.6C244.5,324,244.2,324,244,324z"/>
	<path class="st0" d="M207.8,332.7l0.2-0.2h0.3l0.2,0.2v8.1c0,0.1-0.1,0.2-0.2,0.2H208l-0.2-0.2V332.7z"/>
	<path class="st0" d="M210.9,336.3c0-0.1,0.1-0.2,0.2-0.2l0,0h0.1l0.1,0.1v0.5c0.5-0.5,1.1-0.7,1.8-0.8c1.4,0,1.9,0.9,1.9,2.2v2.6
		l-0.2,0.2h-0.2l-0.2-0.1l0,0v-2.6c0-1.1-0.5-1.7-1.4-1.7c-0.7,0-1.3,0.3-1.7,0.8v3.4l-0.1,0.2l0,0H211l-0.1-0.1l0,0V336.3z"/>
	<path class="st0" d="M217.5,336.6h-0.6c-0.1,0-0.1-0.1-0.1-0.1v-0.2l0.1-0.1h0.6v-1.3l0.1-0.1l0,0h0.2l0.1,0.2v1.3h1.7l0.2,0.1l0,0
		v0.2l-0.1,0.2l0,0H218v3.1c0,0.6,0.1,0.9,0.6,0.9c0.4,0,0.8-0.1,1.1-0.3h0.2l0,0l0.1,0.1v0.2l0,0c-0.4,0.3-0.9,0.4-1.4,0.4
		c-1,0-1.1-0.6-1.1-1.4L217.5,336.6z"/>
	<path class="st0" d="M223.7,336c1.2,0,2.1,0.9,2.2,2v0.2c0,0.2,0,0.5-0.2,0.5h-3.8c0,1,0.8,1.9,1.9,1.9c0.5,0,1-0.2,1.4-0.4
		c0.1-0.1,0.2-0.1,0.2,0l0.1,0.2v0.2c-0.5,0.4-1.1,0.6-1.7,0.6c-1.4-0.1-2.4-1.3-2.3-2.7C221.5,337.1,222.5,336.1,223.7,336
		L223.7,336z M225.4,338.3c0.1-0.9-0.6-1.7-1.5-1.7h-0.2c-1,0-1.8,0.8-1.8,1.7l0,0H225.4z"/>
	<path class="st0" d="M227.8,336.3l0.2-0.2h0.1l0.1,0.1l0,0l0.1,0.5c0.4-0.5,0.9-0.8,1.5-0.8c0.3,0,0.5,0,0.8,0.1
		c0.1,0,0.2,0.1,0.1,0.2l-0.1,0.2l-0.2,0.1l0,0c-0.2-0.1-0.4-0.1-0.6-0.1c-0.6,0-1.1,0.3-1.4,0.8v3.4c0,0.1,0,0.2-0.1,0.2h-0.2
		l-0.1-0.2L227.8,336.3z"/>
	<path class="st0" d="M232.2,336.3c0-0.1,0.1-0.2,0.2-0.2l0,0h0.1l0.1,0.1v0.5c0.5-0.5,1.1-0.7,1.8-0.8c1.4,0,1.9,0.9,1.9,2.2v2.6
		l-0.2,0.2H236l-0.2-0.1l0,0v-2.6c0-1.1-0.5-1.7-1.4-1.7c-0.7,0-1.3,0.3-1.7,0.8v3.4l-0.1,0.2l0,0h-0.2l-0.1-0.1l0,0v-4.5H232.2z"/>
	<path class="st0" d="M240.6,336c1.2,0,2.1,0.9,2.2,2.1v0.1c0,0.2,0,0.5-0.2,0.5h-3.8c0,1,0.8,1.9,1.9,1.9c0.5,0,1-0.2,1.4-0.4
		c0.1-0.1,0.2-0.1,0.2,0l0.1,0.2l-0.1,0.2c-0.5,0.4-1.1,0.6-1.7,0.6c-1.4-0.1-2.4-1.3-2.3-2.7C238.4,337.1,239.4,336.1,240.6,336z
		 M242.3,338.3c0.1-0.9-0.6-1.7-1.5-1.7h-0.2c-1,0-1.8,0.8-1.8,1.7l0,0H242.3z"/>
	<path class="st0" d="M244.9,336.6h-0.6c-0.1,0-0.2-0.1-0.2-0.1v-0.2l0.2-0.1h0.6v-1.3l0.1-0.2l0,0h0.2l0.2,0.2v1.3h1.7l0.2,0.1l0,0
		v0.2l-0.1,0.2l0,0h-1.7v3.1c0,0.6,0.1,0.9,0.6,0.9c0.4,0,0.8-0.1,1.1-0.3h0.2l0,0l0.1,0.1v0.2l0,0c-0.4,0.3-0.9,0.4-1.4,0.4
		c-1,0-1.1-0.6-1.1-1.4L244.9,336.6z"/>
	<path class="st1" d="M41,366.3H6.9c-1.5,0-2.7,1.2-2.7,2.7v25.4c0,1.5,1.2,2.7,2.7,2.7H41c1.5,0,2.7-1.2,2.7-2.7V369
		C43.7,367.5,42.5,366.3,41,366.3z M42.2,392.1H5.6v-23.2c0-0.7,0.5-1.2,1.2-1.2l0,0H41c0.7,0,1.2,0.5,1.2,1.2l0,0V392.1z M41,395.5
		H6.9c-0.7,0-1.2-0.5-1.2-1.2l0,0v-1.2h36.6v1.2C42.2,395,41.7,395.5,41,395.5L41,395.5L41,395.5z"/>
	<path class="st1" d="M29.5,402.6c-0.9,0-1.7-0.8-1.7-1.7V398h-1.5v2.9c0,0.6,0.2,1.2,0.5,1.7H21c0.3-0.5,0.5-1.1,0.5-1.7V398H20
		v2.9c0,0.9-0.8,1.7-1.7,1.7h-4.1v1.5h19.5v-1.5H29.5z"/>
	<path class="st1" d="M26.4,393.6c0.3,0,0.6,0.3,0.6,0.6c0,0.3-0.3,0.6-0.6,0.6s-0.6-0.3-0.6-0.6C25.8,393.8,26,393.6,26.4,393.6z"
		/>
	<path class="st1" d="M23.9,393.6c0.3,0,0.6,0.3,0.6,0.6c0,0.3-0.3,0.6-0.6,0.6s-0.6-0.3-0.6-0.6C23.3,393.8,23.6,393.6,23.9,393.6z
		"/>
	<path class="st1" d="M21.5,393.6c0.3,0,0.6,0.3,0.6,0.6c0,0.3-0.3,0.6-0.6,0.6c-0.3,0-0.6-0.3-0.6-0.6
		C20.9,393.8,21.2,393.6,21.5,393.6z"/>
	<polygon class="st1" points="31.6,376.3 24.6,379.6 24.6,380.7 24.6,380.9 24.6,381.3 24.6,381.6 24.6,387.7 31.6,384.4 
		31.6,384.3 31.6,378 31.6,377.4 	"/>
	<polygon class="st1" points="23.3,381.6 23.3,380.9 23.3,379.7 16.3,376.5 16.3,384.3 16.3,384.5 23.3,387.7 	"/>
	<polygon class="st1" points="17,375.3 23.9,378.4 30.8,375.2 23.9,372 	"/>
	<path class="st1" d="M34,325c-1.4,0-2.4-1.1-2.4-2.4s1.1-2.4,2.4-2.4c1.4,0,2.4,1.1,2.4,2.4S35.3,325,34,325z M34,321.3
		c-0.7,0-1.3,0.6-1.3,1.3c0,0.7,0.6,1.3,1.3,1.3s1.3-0.6,1.3-1.3l0,0C35.3,321.9,34.8,321.2,34,321.3L34,321.3L34,321.3z"/>
	<path class="st1" d="M12.6,323.8c-0.7,0-1.2-0.5-1.2-1.2s0.5-1.2,1.2-1.2s1.2,0.5,1.2,1.2C13.8,323.2,13.3,323.7,12.6,323.8
		L12.6,323.8z"/>
	<path class="st1" d="M16.4,323.8c-0.7,0-1.2-0.5-1.2-1.2s0.5-1.2,1.2-1.2c0.7,0,1.2,0.5,1.2,1.2C17.6,323.2,17,323.7,16.4,323.8
		L16.4,323.8z"/>
	<path class="st1" d="M20.1,323.8c-0.7,0-1.2-0.5-1.2-1.2s0.5-1.2,1.2-1.2s1.2,0.5,1.2,1.2C21.3,323.2,20.8,323.7,20.1,323.8
		L20.1,323.8z"/>
	<path class="st1" d="M42.8,328.6H5c-0.5,0-1-0.5-1-1v-10.1c0-0.5,0.4-1,1-1h37.8c0.5,0,1,0.4,1,1v10.1
		C43.8,328.2,43.4,328.6,42.8,328.6z M6,326.6h35.8v-8.1H6V326.6z"/>
	<path class="st1" d="M34,338.9c-1.4,0-2.4-1.1-2.4-2.4c0-1.4,1.1-2.4,2.4-2.4c1.4,0,2.4,1.1,2.4,2.4S35.3,338.9,34,338.9z
		 M34,335.1c-0.7,0-1.3,0.6-1.3,1.3s0.6,1.3,1.3,1.3s1.3-0.6,1.3-1.3l0,0C35.3,335.7,34.8,335.1,34,335.1L34,335.1L34,335.1z"/>
	<path class="st1" d="M12.6,337.6c-0.7,0-1.2-0.5-1.2-1.2s0.5-1.2,1.2-1.2s1.2,0.5,1.2,1.2S13.3,337.6,12.6,337.6L12.6,337.6z"/>
	<path class="st1" d="M16.4,337.6c-0.7,0-1.2-0.5-1.2-1.2s0.5-1.2,1.2-1.2c0.7,0,1.2,0.5,1.2,1.2S17,337.6,16.4,337.6L16.4,337.6z"
		/>
	<path class="st1" d="M20.1,337.6c-0.7,0-1.2-0.5-1.2-1.2s0.5-1.2,1.2-1.2s1.2,0.5,1.2,1.2C21.3,337.1,20.8,337.6,20.1,337.6
		L20.1,337.6z"/>
	<path class="st1" d="M42.8,342.5H5c-0.5,0-1-0.4-1-1v-10.1c0-0.5,0.4-1,1-1h37.8c0.5,0,1,0.4,1,1v10.1
		C43.8,342,43.4,342.5,42.8,342.5z M6,340.5h35.8v-8.1H6V340.5z"/>
	<path class="st1" d="M34,352.7c-1.4,0-2.4-1.1-2.4-2.4s1.1-2.4,2.4-2.4c1.4,0,2.4,1.1,2.4,2.4S35.3,352.7,34,352.7z M34,349
		c-0.7,0-1.3,0.6-1.3,1.3s0.6,1.3,1.3,1.3s1.3-0.6,1.3-1.3l0,0C35.3,349.6,34.8,349,34,349L34,349L34,349z"/>
	<path class="st1" d="M12.6,351.5c-0.7,0-1.2-0.5-1.2-1.2s0.5-1.2,1.2-1.2s1.2,0.5,1.2,1.2C13.8,350.9,13.3,351.5,12.6,351.5
		L12.6,351.5z"/>
	<path class="st1" d="M16.4,351.5c-0.7,0-1.2-0.5-1.2-1.2s0.5-1.2,1.2-1.2c0.7,0,1.2,0.5,1.2,1.2C17.6,350.9,17,351.5,16.4,351.5
		L16.4,351.5z"/>
	<path class="st1" d="M20.1,351.5c-0.7,0-1.2-0.5-1.2-1.2s0.5-1.2,1.2-1.2s1.2,0.5,1.2,1.2C21.3,350.9,20.8,351.5,20.1,351.5
		L20.1,351.5z"/>
	<path class="st1" d="M42.8,356.3H5c-0.5,0-1-0.5-1-1v-10.1c0-0.5,0.4-1,1-1l0,0h37.8c0.5,0,1,0.4,1,1v10.1
		C43.8,355.9,43.4,356.3,42.8,356.3z M6,354.3h35.8v-8.1H6V354.3z"/>
	<path class="st1" d="M111.8,350.7l-3.7-5.9V322c0-1.9-1.6-3.5-3.5-3.5H70c-1.9,0-3.5,1.5-3.5,3.5l0,0v22.8l-3.7,5.9
		c-0.1,0.2-0.2,0.4-0.2,0.6v0.8c0,2.3,1.9,4.2,4.2,4.2h40.9c2.3,0,4.2-1.9,4.2-4.2v-0.8C112,351.1,112,350.9,111.8,350.7z M68.8,322
		c0-0.6,0.5-1.2,1.2-1.2h15.3l0.2,0.8h3.9l0.2-0.8h15.3c0.6,0,1.2,0.5,1.2,1.2v22.4h-37V322H68.8z M68.5,345.9h37.6l3.1,5H93.4
		l-0.3-1.9H81.6l-0.3,1.9H65.4L68.5,345.9z M109.7,352.1c0,1.1-0.9,1.9-1.9,1.9H66.9c-1.1,0-1.9-0.9-1.9-1.9v-0.4h44.8v0.4H109.7z"
		/>
	<path class="st1" d="M70.7,342.8h33.2v-20.1H70.7V342.8z M71.5,323.5h31.6V342H71.5V323.5z"/>
	<path class="st1" d="M93.9,366.5H61c-2.4,0-4.3,1.9-4.3,4.3v23.3c0,2.4,1.9,4.3,4.3,4.3h11v3.6h-4.8c-0.6,0-1.1,0.5-1.1,1.1
		s0.5,1.1,1.1,1.1h20.4c0.6,0,1.1-0.5,1.1-1.1s-0.5-1.1-1.1-1.1h-4.8v-3.6h11.1c2.4,0,4.3-1.9,4.3-4.3v-23.3
		C98.2,368.4,96.3,366.5,93.9,366.5z M80.7,401.9h-6.5v-3.5h6.5V401.9z M96,394c0,1.2-1,2.2-2.2,2.2H61c-1.2,0-2.2-1-2.2-2.2v-23.3
		c0-1.2,1-2.1,2.2-2.1h32.9c1.2,0,2.2,1,2.2,2.2L96,394z"/>
	<path class="st1" d="M109.4,389.5c0.7,0,1.4,0.6,1.4,1.3c0,0.7-0.6,1.4-1.4,1.4s-1.4-0.6-1.4-1.4
		C108.1,390.1,108.7,389.5,109.4,389.5z"/>
	<path class="st1" d="M112.6,371.9h-6.5v5.4h6.5V371.9z M111.6,376.3h-4.3V373h4.3V376.3z"/>
	<path class="st1" d="M109.4,383.5c-1.2,0-2.2,1-2.2,2.2s1,2.2,2.2,2.2s2.2-1,2.2-2.2S110.6,383.5,109.4,383.5z M109.4,386.8
		c-0.6,0-1.1-0.5-1.1-1.1s0.5-1.1,1.1-1.1s1.1,0.5,1.1,1.1S110,386.8,109.4,386.8z"/>
	<path class="st1" d="M113.7,366.3h-8.6c-2.4,0-4.3,1.9-4.3,4.3v29.2c0,2.4,1.9,4.3,4.3,4.3h8.6c2.4,0,4.3-1.9,4.3-4.3v-29.2
		C118,368.2,116.1,366.3,113.7,366.3z M105.1,368.4h8.6c1.2,0,2.2,1,2.2,2.2V397h-13v-26.5C102.9,369.4,103.9,368.4,105.1,368.4z
		 M113.7,401.9h-8.6c-1.2,0-2.2-1-2.2-2.2v-1.6h13v1.6C115.9,400.9,114.9,401.9,113.7,401.9z"/>
	<path class="st1" d="M61.2,393.6h32.4v-22.7H61.2V393.6z M62.3,372h30.2v20.5H62.3V372z"/>
	<path class="st0" d="M17.3,431.3c1.1,0,2.1,0.4,2.9,1.1v0.2l-0.2,0.2h-0.2c-1.6-1.4-3.9-1.2-5.3,0.4s-1.2,3.9,0.4,5.3
		c0.7,0.6,1.5,0.9,2.4,0.9s1.8-0.4,2.5-1H20l0.2,0.2v0.2l0,0c-0.8,0.8-1.8,1.2-2.9,1.2c-2.4,0-4.3-1.9-4.3-4.3
		S14.9,431.3,17.3,431.3L17.3,431.3z"/>
	<path class="st0" d="M24.2,434.9c1.4-0.1,2.6,1,2.6,2.4c0.1,1.4-1,2.6-2.4,2.6c-1.4,0.1-2.6-1-2.6-2.4v-0.1
		C21.8,436.1,22.9,434.9,24.2,434.9z M24.2,439.5c1.1,0.1,2.1-0.8,2.2-1.9s-0.8-2.1-1.9-2.2s-2.1,0.8-2.2,1.9v0.1
		C22.3,438.5,23.1,439.4,24.2,439.5L24.2,439.5z"/>
	<path class="st0" d="M28.6,435.2l0.1-0.2h0.1l0.1,0.1v0.5c0.4-0.5,0.9-0.8,1.5-0.8c0.3,0,0.5,0,0.8,0.1c0.1,0,0.2,0.1,0.1,0.2
		l-0.1,0.2l-0.2,0.1l0,0c-0.2-0.1-0.4-0.1-0.6-0.1c-0.6,0-1.1,0.3-1.4,0.8v3.4l-0.1,0.2l0,0h-0.2l-0.1-0.1l0,0
		C28.6,439.6,28.6,435.2,28.6,435.2z"/>
	<path class="st0" d="M33.5,443.3l-0.2,0.2h-0.2l-0.2-0.2v-8.1l0.2-0.2l0,0h0.1l0.1,0.1l0,0v0.3c0.4-0.4,1-0.6,1.6-0.6
		c1.3,0,2.4,1.1,2.3,2.4v0.1c0.1,1.3-1,2.5-2.3,2.5h-0.1c-0.5,0-1-0.2-1.4-0.5L33.5,443.3z M34.8,439.4c1.1,0,1.9-0.8,2-1.9v-0.1
		c0.1-1-0.7-1.9-1.7-2H35c-0.6,0-1.1,0.2-1.5,0.7v2.8C33.8,439.2,34.3,439.4,34.8,439.4L34.8,439.4z"/>
	<path class="st0" d="M41.3,434.9c1.4-0.1,2.6,1,2.6,2.4s-1,2.6-2.4,2.6c-1.4,0.1-2.6-1-2.6-2.4v-0.1
		C38.9,436.1,40,434.9,41.3,434.9z M41.3,439.5c1.1,0.1,2.1-0.8,2.2-1.9s-0.8-2.1-1.9-2.2c-1.1-0.1-2.1,0.8-2.2,1.9v0.1
		C39.4,438.5,40.2,439.4,41.3,439.5L41.3,439.5z"/>
	<path class="st0" d="M45.7,435.2l0.2-0.2H46l0.1,0.1v0.5c0.4-0.5,0.9-0.8,1.5-0.8c0.3,0,0.5,0,0.8,0.1c0.1,0,0.2,0.1,0.1,0.2
		l-0.1,0.2l-0.2,0.1l0,0c-0.2-0.1-0.4-0.1-0.6-0.1c-0.6,0-1.1,0.3-1.4,0.8v3.4l-0.1,0.2l0,0h-0.2l-0.1-0.1l0,0L45.7,435.2
		L45.7,435.2z"/>
	<path class="st0" d="M51.7,436.7c0.4,0,0.8,0.1,1.2,0.2c0-1.1-0.1-1.6-1.1-1.6c-0.5,0-1,0.1-1.4,0.3h-0.2v-0.1l-0.1-0.1l0.1-0.2
		l0,0c0.5-0.3,1.1-0.4,1.6-0.4c1.5,0,1.5,0.9,1.5,2.1v2.7l-0.2,0.1H53l-0.1-0.1v-0.4c-0.5,0.4-1,0.7-1.7,0.7c-0.8,0-1.5-0.6-1.6-1.4
		v-0.2C49.7,437.4,50.4,436.7,51.7,436.7z M51.3,439.5c0.6,0,1.2-0.3,1.6-0.8v-1.3c-0.4-0.2-0.8-0.3-1.2-0.3c-0.9,0-1.5,0.5-1.5,1.2
		c0,0.6,0.4,1.1,1,1.1L51.3,439.5z"/>
	<path class="st0" d="M55.9,435.5h-0.6c-0.1,0-0.1-0.1-0.1-0.2v-0.2l0.1-0.1h0.6v-1.3l0.1-0.2l0,0h0.2l0.2,0.2v1.3H58l0.2,0.1l0,0
		v0.2l-0.1,0.2l0,0h-1.7v3.1c0,0.6,0.1,0.9,0.6,0.9c0.4,0,0.8-0.1,1.1-0.3h0.2l0,0l0.1,0.1v0.2l0,0c-0.4,0.3-0.9,0.4-1.4,0.4
		c-1,0-1.1-0.6-1.1-1.3C55.9,438.6,55.9,435.5,55.9,435.5z"/>
	<path class="st0" d="M62.1,434.9c1.2,0,2.1,0.9,2.2,2.1v0.1c0,0.2,0,0.5-0.2,0.5h-3.8c0,1,0.8,1.9,1.9,1.9c0.5,0,1-0.2,1.4-0.4
		c0.1-0.1,0.2-0.1,0.2,0l0.1,0.2l-0.1,0.2c-0.5,0.4-1.1,0.6-1.7,0.6c-1.4-0.1-2.4-1.3-2.3-2.7C59.9,436,60.9,435,62.1,434.9z
		 M63.8,437.2c0.1-0.9-0.6-1.7-1.5-1.8h-0.2c-1,0-1.8,0.8-1.8,1.7l0,0L63.8,437.2L63.8,437.2z"/>
	<path class="st0" d="M69.1,438.8l0.1-0.2c0.1-0.1,0.2-0.1,0.3,0c0.6,0.6,1.4,0.9,2.3,0.9c1,0.1,1.9-0.6,2-1.6c0-1.1-0.9-1.6-2.3-2
		c-1.4-0.5-2.3-1-2.3-2.4c0-0.9,0.8-2.1,2.6-2.1c0.7,0,1.5,0.2,2.1,0.6l0.1,0.2l0,0l-0.1,0.2l-0.2,0.1l0,0c-0.5-0.3-1.1-0.5-1.8-0.6
		c-1.5,0-2,0.9-2,1.6c0,1,0.8,1.5,2,1.9c1.6,0.6,2.7,1.1,2.7,2.5c0,1.2-1.2,2.1-2.6,2.1c-0.9,0-1.8-0.4-2.5-1
		C69.1,438.9,69,438.8,69.1,438.8z"/>
	<path class="st0" d="M78.3,434.9c1.2,0,2.1,0.9,2.2,2v0.2c0,0.2,0,0.5-0.2,0.5h-3.8c0,1,0.8,1.9,1.9,1.9c0.5,0,1-0.2,1.4-0.4
		c0.1-0.1,0.2-0.1,0.2,0l0.1,0.2v0.2c-0.5,0.4-1.1,0.6-1.7,0.6c-1.4-0.1-2.4-1.3-2.3-2.7C76,436,77,435,78.3,434.9z M79.9,437.2
		c0.1-0.9-0.6-1.7-1.5-1.8h-0.2c-1,0-1.8,0.8-1.8,1.8H79.9z"/>
	<path class="st0" d="M82.3,435.2l0.2-0.2h0.1l0.1,0.1v0.5c0.4-0.5,0.9-0.8,1.5-0.8c0.3,0,0.5,0,0.8,0.1c0.1,0,0.2,0.1,0.1,0.2
		l-0.1,0.2l-0.2,0.1l0,0c-0.2-0.1-0.4-0.1-0.6-0.1c-0.6,0-1.1,0.3-1.4,0.8v3.4l-0.1,0.2l0,0h-0.2l-0.1-0.1l0,0v-4.4H82.3z"/>
	<path class="st0" d="M86.1,435.2c0-0.1,0-0.2,0.1-0.2h0.3l0.2,0.1l1.7,4l1.7-4l0.2-0.1h0.3c0.1,0,0.1,0.1,0.1,0.2l-2.1,4.6
		l-0.1,0.1l0,0l-0.1-0.1L86.1,435.2z"/>
	<path class="st0" d="M94.2,434.9c1.2,0,2.1,0.9,2.2,2.1v0.1c0,0.2,0,0.5-0.2,0.5h-3.8c0,1,0.8,1.9,1.9,1.9c0.5,0,1-0.2,1.4-0.4
		c0.1-0.1,0.2-0.1,0.2,0l0.1,0.2l-0.1,0.2c-0.5,0.4-1.1,0.6-1.7,0.6c-1.4-0.1-2.4-1.3-2.3-2.7C91.9,436,92.9,435,94.2,434.9z
		 M95.8,437.2c0.1-0.9-0.6-1.7-1.5-1.8h-0.2c-1,0-1.8,0.8-1.8,1.8H95.8z"/>
	<path class="st0" d="M98.2,435.2l0.2-0.2h0.1l0.1,0.1v0.5c0.4-0.5,0.9-0.8,1.5-0.8c0.3,0,0.5,0,0.8,0.1c0.1,0,0.2,0.1,0.1,0.2
		l-0.1,0.2l-0.2,0.1c-0.2-0.1-0.4-0.1-0.6-0.1c-0.6,0-1.1,0.3-1.4,0.8v3.4l-0.1,0.2l0,0h-0.2l-0.1-0.1l0,0v-4.4H98.2z"/>
	<path class="st0" d="M102.3,439.2l0.1-0.2h0.2l0,0c0.4,0.3,0.8,0.5,1.3,0.5c0.7,0,1.2-0.4,1.2-0.8s-0.5-0.8-1.3-1.1
		c-0.8-0.3-1.5-0.7-1.5-1.4c0.1-0.8,0.8-1.3,1.5-1.3h0.1c0.5,0,0.9,0.1,1.4,0.4l0.1,0.2l-0.1,0.1l-0.2,0.1l0,0
		c-0.3-0.2-0.7-0.3-1.1-0.3c-0.8,0-1,0.4-1,0.8c0,0.5,0.4,0.7,1.1,1c0.9,0.3,1.7,0.6,1.7,1.5c-0.1,0.8-0.9,1.4-1.7,1.3
		c-0.6,0-1.1-0.2-1.6-0.5L102.3,439.2z"/>
	<path class="st0" d="M108,439c0.4,0,0.7,0.3,0.7,1.1c0,0.7-0.3,1.3-0.9,1.7c-0.1,0-0.2,0.1-0.2,0l-0.1-0.1v-0.2
		c0.4-0.3,0.6-0.7,0.7-1.1c0-0.2,0-0.3-0.1-0.5l-0.2,0.1c-0.3,0-0.5-0.2-0.5-0.5C107.5,439.2,107.7,439,108,439L108,439z"/>
	<path class="st0" d="M0,445.8l0.1-0.2h0.3l0.1,0.2v7.7h3.8c0.1,0,0.2,0.1,0.2,0.2v0.2L4.3,454H0.1L0,453.9V445.8z"/>
	<path class="st0" d="M7.6,451c0.4,0,0.8,0.1,1.2,0.2c0-1.1-0.1-1.6-1.1-1.6c-0.5,0-1,0.1-1.4,0.3c-0.1,0-0.1,0-0.2-0.1L6,449.7
		c0-0.1,0-0.2,0.1-0.2c0.5-0.3,1.1-0.4,1.6-0.4c1.5,0,1.5,0.9,1.5,2.1v2.7L9,454h0l-0.1-0.1v-0.4c-0.5,0.4-1,0.7-1.7,0.7
		c-0.8,0-1.5-0.6-1.6-1.4v-0.2C5.6,451.7,6.4,451,7.6,451z M7.2,453.8c0.6,0,1.2-0.3,1.6-0.8v-1.3c-0.4-0.2-0.8-0.3-1.2-0.3
		c-0.9,0-1.5,0.5-1.5,1.2C6.1,453.2,6.5,453.7,7.2,453.8L7.2,453.8z"/>
	<path class="st0" d="M12.1,457.5l-0.2,0.2h-0.2l-0.2-0.2v-8.1c0-0.1,0.1-0.2,0.2-0.2l0,0h0.1l0.1,0.1l0,0v0.3
		c0.4-0.4,1-0.6,1.6-0.6c1.3,0,2.4,1.1,2.3,2.4v0.1c0.1,1.3-1,2.5-2.3,2.5h-0.1c-0.5,0-1-0.2-1.4-0.5L12.1,457.5z M13.5,453.7
		c1.1,0,1.9-0.8,2-1.9v-0.1c0.1-1-0.7-1.9-1.7-2c-0.6,0-1.2,0.2-1.6,0.7v2.8C12.5,453.5,13,453.7,13.5,453.7L13.5,453.7z"/>
	<path class="st0" d="M18.1,449.7h-0.6c-0.1,0-0.1-0.1-0.1-0.2v-0.2l0.1-0.1h0.6V448l0.1-0.2l0,0h0.2l0.1,0.2v1.3h1.7l0.2,0.1l0,0
		v0.2l-0.1,0.2l0,0h-1.7v3.1c0,0.6,0.1,0.9,0.6,0.9c0.4,0,0.8-0.1,1.1-0.3h0.2l0,0l0.1,0.1v0.2l0,0c-0.4,0.3-0.9,0.4-1.4,0.4
		c-1,0-1.1-0.6-1.1-1.3C18.1,452.9,18.1,449.7,18.1,449.7z"/>
	<path class="st0" d="M24.4,449.2c1.4-0.1,2.6,1,2.6,2.4c0.1,1.4-1,2.6-2.4,2.6c-1.4,0.1-2.6-1-2.6-2.4v-0.1
		C21.9,450.3,23,449.2,24.4,449.2z M24.4,453.7c1.1,0.1,2.1-0.8,2.2-1.9s-0.8-2.1-1.9-2.2s-2.1,0.8-2.2,1.9v0.1
		C22.4,452.7,23.3,453.7,24.4,453.7L24.4,453.7z"/>
	<path class="st0" d="M29.3,457.5l-0.2,0.2h-0.2c-0.1,0-0.2-0.1-0.2-0.1l0,0v-8.1c0-0.1,0.1-0.2,0.2-0.2l0,0H29l0.1,0.1l0,0v0.3
		c0.4-0.4,1-0.6,1.6-0.6c1.3,0,2.4,1.1,2.3,2.4v0.1c0.1,1.3-1,2.5-2.3,2.5h-0.1c-0.5,0-1-0.2-1.4-0.5L29.3,457.5z M30.6,453.7
		c1.1,0,1.9-0.8,2-1.9v-0.1c0.1-1-0.7-1.9-1.7-2c-0.6,0-1.2,0.2-1.6,0.7v2.8C29.6,453.5,30.1,453.7,30.6,453.7L30.6,453.7z"/>
	<path class="st0" d="M34.8,453.5l0.1-0.2h0.2l0,0c0.4,0.3,0.8,0.5,1.3,0.5c0.7,0,1.1-0.4,1.1-0.8s-0.5-0.8-1.3-1.1
		c-0.8-0.3-1.5-0.7-1.5-1.4c0.1-0.8,0.8-1.3,1.5-1.3h0.1c0.5,0,0.9,0.1,1.4,0.4v0.2l-0.1,0.1l-0.2,0.1l0,0c-0.3-0.2-0.7-0.3-1.1-0.3
		c-0.8,0-1,0.4-1,0.8c0,0.5,0.4,0.7,1.1,1c0.9,0.3,1.7,0.6,1.7,1.5c-0.1,0.8-0.9,1.4-1.7,1.3c-0.6,0-1.1-0.2-1.6-0.5V453.5z"/>
	<path class="st0" d="M40.4,453.2c0.3,0,0.7,0.3,0.7,1.1c0,0.7-0.3,1.3-0.9,1.7H40l-0.1-0.1v-0.2l0,0c0.4-0.3,0.6-0.7,0.7-1.1
		c0-0.2,0-0.3-0.1-0.5l-0.2,0.1c-0.3,0-0.5-0.2-0.5-0.5C40,453.5,40.2,453.2,40.4,453.2z"/>
	<path class="st0" d="M45.5,445.8c0-0.1,0-0.2,0.1-0.2h0.3l0.1,0.1l3.2,7.5l3.3-7.5l0.1-0.1H53c0.1,0,0.2,0.1,0.1,0.2l-3.7,8.3
		l-0.1,0.1h-0.1l-0.1-0.1L45.5,445.8z"/>
	<path class="st0" d="M55.9,445.6l0.1-0.1h0.1l0.1,0.1l2.5,7.4l2.5-7.4l0.1-0.1h0.1l0.1,0.1l1.7,8.3c0,0.1,0,0.2-0.1,0.2h-0.3
		l-0.1-0.1l-1.4-7l-2.4,7.2l-0.2,0.1l0,0l-0.2-0.1l-2.4-7.2l-1.4,7l-0.1,0.1h-0.3c-0.1,0-0.2,0-0.1-0.2L55.9,445.6z"/>
	<path class="st0" d="M64.9,453.5l0.1-0.2h0.2l0,0c0.4,0.3,0.8,0.5,1.3,0.5c0.7,0,1.1-0.4,1.1-0.8s-0.5-0.8-1.3-1.1
		c-0.8-0.3-1.5-0.7-1.5-1.4c0.1-0.8,0.8-1.3,1.5-1.3h0.1c0.5,0,0.9,0.1,1.4,0.4v0.2l-0.1,0.1l-0.2,0.1l0,0c-0.3-0.2-0.7-0.3-1.1-0.3
		c-0.8,0-1,0.4-1,0.8c0,0.5,0.4,0.7,1.1,1c0.9,0.3,1.7,0.6,1.7,1.5c-0.1,0.8-0.9,1.4-1.7,1.3c-0.6,0-1.1-0.2-1.6-0.5V453.5z"/>
	<path class="st0" d="M70.6,453.2c0.3,0,0.7,0.3,0.7,1.1c0,0.7-0.3,1.3-0.9,1.7h-0.2l-0.1-0.1v-0.2l0,0c0.4-0.3,0.6-0.7,0.7-1.1
		c0-0.2,0-0.3-0.1-0.5l-0.2,0.1c-0.3,0-0.5-0.2-0.5-0.5C70.1,453.5,70.3,453.2,70.6,453.2L70.6,453.2z"/>
	<path class="st0" d="M76.8,445.8l0.1-0.2h2.5c2.3,0,4.2,1.9,4.2,4.2c0,2.3-1.9,4.2-4.2,4.2H77l-0.1-0.1L76.8,445.8L76.8,445.8z
		 M79.4,453.6c2,0.1,3.8-1.5,3.9-3.5s-1.5-3.8-3.5-3.9c-0.1,0-0.2,0-0.3,0h-2v7.4H79.4z"/>
	<path class="st0" d="M87.7,449.2c1.2,0,2.1,0.9,2.2,2.1v0.1c0,0.2,0,0.5-0.2,0.5h-3.8c0,1,0.8,1.9,1.9,1.9c0.5,0,1-0.2,1.4-0.4
		c0.1-0.1,0.1-0.1,0.2,0l0.1,0.2v0.2c-0.5,0.4-1.1,0.6-1.7,0.6c-1.4-0.1-2.4-1.3-2.3-2.7C85.5,450.2,86.4,449.2,87.7,449.2z
		 M89.3,451.4c0.1-0.9-0.6-1.7-1.5-1.7h-0.2c-1,0-1.8,0.8-1.8,1.7l0,0H89.3z"/>
	<path class="st0" d="M91.5,453.5l0.1-0.2h0.2l0,0c0.4,0.3,0.8,0.5,1.3,0.5c0.7,0,1.2-0.4,1.2-0.8s-0.5-0.8-1.3-1.1
		c-0.8-0.3-1.5-0.7-1.5-1.4c0.1-0.8,0.8-1.3,1.5-1.3h0.1c0.5,0,0.9,0.1,1.4,0.4l0.1,0.2l-0.1,0.1l-0.2,0.1l0,0
		c-0.3-0.2-0.7-0.3-1.1-0.3c-0.8,0-1,0.4-1,0.8c0,0.5,0.4,0.7,1.1,1c0.9,0.3,1.7,0.6,1.7,1.5c-0.1,0.8-0.9,1.4-1.7,1.3
		c-0.6,0-1.1-0.2-1.6-0.5L91.5,453.5z"/>
	<path class="st0" d="M96.7,445.8l0.2-0.2H97l0.2,0.2v5.4l2.6-1.9l0.2-0.1h0.3c0.1,0,0.1,0.2,0,0.2l-2.6,1.9l2.9,2.5v0.2h-0.1h-0.4
		l-0.2-0.1l-2.8-2.4v2.3L97,454l0,0h-0.2l-0.1-0.1l0,0L96.7,445.8z"/>
	<path class="st0" d="M102.5,449.7h-0.6c-0.1,0-0.1-0.1-0.1-0.2v-0.2l0.1-0.1h0.6V448l0.1-0.2l0,0h0.2l0.2,0.2v1.3h1.7l0.2,0.1l0,0
		v0.2l-0.1,0.2l0,0H103v3.1c0,0.6,0.1,0.9,0.6,0.9c0.4,0,0.8-0.1,1.1-0.3h0.2l0,0l0.1,0.1v0.2l0,0c-0.4,0.3-0.9,0.4-1.4,0.4
		c-1,0-1.1-0.6-1.1-1.3L102.5,449.7z"/>
	<path class="st0" d="M108.8,449.2c1.4-0.1,2.6,1,2.6,2.4s-1,2.6-2.4,2.6c-1.4,0.1-2.6-1-2.6-2.4v-0.1
		C106.3,450.3,107.4,449.2,108.8,449.2z M108.8,453.7c1.1,0.1,2.1-0.8,2.2-1.9s-0.8-2.1-1.9-2.2s-2.1,0.8-2.2,1.9v0.1
		C106.8,452.7,107.6,453.6,108.8,453.7L108.8,453.7z"/>
	<path class="st0" d="M113.6,457.5l-0.1,0.2h-0.2l-0.2-0.2v-8.1l0.2-0.2l0,0h0.1l0.1,0.1l0,0v0.3c0.4-0.4,1-0.6,1.6-0.6
		c1.3,0,2.4,1.1,2.3,2.4v0.1c0.1,1.3-1,2.5-2.3,2.5H115c-0.5,0-1-0.2-1.4-0.5V457.5z M115,453.7c1.1,0,1.9-0.8,2-1.9v-0.1
		c0.1-1-0.7-1.9-1.7-2h-0.1c-0.6,0-1.1,0.2-1.5,0.7v2.8C114,453.5,114.5,453.7,115,453.7L115,453.7z"/>
	<path class="st0" d="M119.2,453.5l0.1-0.2h0.2l0,0c0.4,0.3,0.8,0.5,1.3,0.5c0.7,0,1.2-0.4,1.2-0.8s-0.5-0.8-1.3-1.1
		c-0.8-0.3-1.5-0.7-1.5-1.4c0.1-0.8,0.7-1.3,1.5-1.3h0.1c0.5,0,0.9,0.1,1.4,0.4l0.1,0.2l-0.1,0.1L122,450l0,0
		c-0.3-0.2-0.7-0.3-1.1-0.3c-0.8,0-1,0.4-1,0.8c0,0.5,0.4,0.7,1.1,1c0.9,0.3,1.7,0.6,1.7,1.5c-0.1,0.8-0.9,1.4-1.7,1.3
		c-0.6,0-1.1-0.2-1.6-0.5L119.2,453.5z"/>
	<path class="st0" d="M275.2,145v1.9c0,1.9-1,3.1-3.1,3.1c-0.8,0-1.5,0-2.2-0.1v-8c0.6,0,1.4-0.1,2.3-0.1
		C274.1,141.9,275.2,143,275.2,145z M271.2,143.1v5.5c0.3,0,0.5,0,0.8,0.1c0.8,0.1,1.6-0.6,1.7-1.4c0-0.1,0-0.2,0-0.3v-2
		c0-1.3-0.6-1.9-1.7-1.9C271.8,143.1,271.5,143.1,271.2,143.1z"/>
	<path class="st0" d="M282.3,149.9h-1.5l-0.4-1.6h-2.5l-0.4,1.6H276l2.3-7.9h1.7L282.3,149.9z M278.1,147h1.9l-1-3.8L278.1,147z"/>
	<polygon class="st0" points="288,143.3 285.8,143.3 285.8,149.9 284.4,149.9 284.4,143.3 282.2,143.3 282.2,142 288,142 	"/>
	<path class="st0" d="M294.3,149.9h-1.5l-0.4-1.6h-2.5l-0.4,1.6H288l2.3-7.9h1.7L294.3,149.9z M290.1,147h1.9l-1-3.8L290.1,147z"/>
	<path class="st0" d="M300.4,143.8v0.2c0,0.8-0.4,1.5-1.2,1.7c0.9,0.1,1.5,0.9,1.5,1.8v0.2c0,1.3-0.9,2.3-2.9,2.3
		c-0.7,0-1.2,0-2.3-0.1v-8c0.6,0,1.5-0.1,2.3-0.1C299.5,141.8,300.4,142.7,300.4,143.8z M296.9,143.1v2.2h0.9c0.8,0,1.2-0.4,1.2-1
		V144c0-0.6-0.4-0.9-1.3-0.9C297.4,143.1,297.2,143.1,296.9,143.1z M296.9,146.5v2.3c0.3,0,0.6,0,0.9,0c1.1,0,1.5-0.4,1.5-1.1v-0.2
		c0-0.6-0.4-1-1.4-1H296.9z"/>
	<path class="st0" d="M307.8,149.9h-1.5l-0.4-1.6h-2.5l-0.4,1.6h-1.5l2.3-7.9h1.7L307.8,149.9z M303.6,147h1.9l-1-3.8L303.6,147z"/>
	<path class="st0" d="M312.8,142v1.3c-0.6-0.1-1.2-0.2-1.8-0.2c-0.8,0-1,0.3-1,0.8v0.3c0,0.4,0.1,0.6,0.8,0.8l1.1,0.4
		c1,0.2,1.7,1.1,1.5,2.1v0.2c0,1.4-0.8,2.3-2.7,2.3c-0.6,0-1.2-0.1-1.9-0.2v-1.3c0.6,0.1,1.2,0.2,1.8,0.3c1,0,1.3-0.3,1.3-0.9v-0.3
		c0-0.4-0.2-0.6-0.6-0.8l-1.2-0.4c-1-0.2-1.7-1.1-1.6-2.1v-0.1c0-1.4,0.8-2.3,2.4-2.3C311.5,141.9,312.2,141.9,312.8,142z"/>
	<polygon class="st0" points="319.1,143.3 316.2,143.3 316.2,145.2 318.9,145.2 318.9,146.5 316.2,146.5 316.2,148.5 319.1,148.5 
		319.1,149.9 314.8,149.9 314.8,142 319.1,142 	"/>
	<path class="st0" d="M327.1,142v1.2c-0.4-0.1-0.9-0.1-1.3-0.1c-0.8,0-1.1,0.3-1.1,0.9v0.2c0,0.6,0.4,1.1,1.2,1.1h1v-0.8h1.3v0.8
		h0.8v1.2h-0.8v3.2c-0.8,0.2-1.5,0.3-2.3,0.3c-2.1,0-2.8-0.8-2.8-2.1v-0.3c0-0.9,0.6-1.6,1.4-1.8c-0.7-0.3-1.2-0.9-1.1-1.7v-0.2
		c0-1.1,0.8-2,2.3-2C326.1,141.9,326.6,141.9,327.1,142z M325.8,146.5c-1,0-1.4,0.4-1.4,1.1v0.3c0,0.6,0.4,1,1.4,1
		c0.3,0,0.7,0,1-0.1v-2.2h-1V146.5z"/>
	<path class="st0" d="M337.7,144.1v0.3c0,0.9-0.5,1.7-1.3,2l1.9,3.5h-1.6l-1.7-3.2c-0.3,0-0.6,0-0.9,0v3.2h-1.4v-8
		c0.7,0,1.6-0.1,2.2-0.1C336.8,141.8,337.7,142.7,337.7,144.1z M334.1,143.1v2.3c0.2,0,0.5,0,0.8,0.1c1,0,1.4-0.4,1.4-1.1v-0.2
		c0-0.7-0.4-1-1.4-1L334.1,143.1z"/>
	<polygon class="st0" points="343.8,143.3 340.9,143.3 340.9,145.2 343.6,145.2 343.6,146.5 340.9,146.5 340.9,148.5 343.8,148.5 
		343.8,149.9 339.5,149.9 339.5,142 343.8,142 	"/>
	<path class="st0" d="M350.6,144.1v0.3c0,1.5-0.9,2.5-2.7,2.5c-0.3,0-0.6,0-0.9-0.1v3.1h-1.4V142c0.6,0,1.4-0.1,2.2-0.1
		C349.7,141.8,350.6,142.7,350.6,144.1z M347,143.1v2.4c0.3,0,0.5,0.1,0.8,0.1c0.9,0,1.4-0.4,1.4-1.2v-0.2c0-0.7-0.4-1.1-1.4-1.1
		C347.4,143.1,347.2,143.1,347,143.1z"/>
	<path class="st0" d="M357.4,144.5v2.9c0,1.6-0.8,2.6-2.7,2.6s-2.7-1-2.7-2.6v-2.9c0-1.7,0.8-2.7,2.7-2.7
		C356.5,141.8,357.4,142.8,357.4,144.5z M353.4,144.4v3c0.1,0.7,0.7,1.2,1.4,1.2c0.6,0,1.1-0.5,1.2-1.2v-3c-0.1-0.7-0.7-1.2-1.4-1.2
		C353.9,143.3,353.4,143.8,353.4,144.4L353.4,144.4z"/>
	<path class="st0" d="M364.2,144.1v0.3c0,0.9-0.5,1.7-1.3,2l1.9,3.5h-1.6l-1.7-3.2c-0.3,0-0.6,0-0.9,0v3.2h-1.4v-8
		c0.7,0,1.6-0.1,2.2-0.1C363.3,141.8,364.2,142.7,364.2,144.1z M360.6,143.1v2.3c0.2,0,0.5,0,0.8,0.1c1,0,1.4-0.4,1.4-1.1v-0.2
		c0-0.7-0.4-1-1.4-1C361.1,143.1,360.8,143.1,360.6,143.1z"/>
	<polygon class="st0" points="371.1,143.3 368.9,143.3 368.9,149.9 367.5,149.9 367.5,143.3 365.3,143.3 365.3,142 371.1,142 	"/>
	<rect x="372.5" y="142" class="st0" width="1.4" height="7.9"/>
	<polygon class="st0" points="377.1,144.3 377.1,149.9 375.7,149.9 375.7,142 377.7,142 379.7,147.6 379.7,142 381.1,142 
		381.1,149.9 379.2,149.9 	"/>
	<path class="st0" d="M387.7,142.1v1.3c-0.7-0.1-1.4-0.2-2.1-0.3c-0.9,0-1.3,0.3-1.3,1.2v3.2c0,0.9,0.3,1.2,1.2,1.2
		c0.4,0,0.8,0,1.1-0.1v-2.1h-1.2v-1.3h2.6v4.3c-0.8,0.3-1.7,0.4-2.5,0.5c-2,0-2.6-0.8-2.6-2.5v-3.1c0-1.7,0.8-2.5,2.7-2.5
		C386.3,141.9,387,142,387.7,142.1z"/>
	<polygon class="st0" points="277.2,177.2 275.5,177.2 274.1,170.9 272.8,177.2 271,177.2 269.3,169.4 270.8,169.4 272,175.8 
		273.3,169.4 275,169.4 276.3,175.7 277.4,169.4 278.9,169.4 	"/>
	<polygon class="st0" points="284.7,170.7 281.7,170.7 281.7,172.6 284.4,172.6 284.4,173.9 281.7,173.9 281.7,175.9 284.7,175.9 
		284.7,177.2 280.3,177.2 280.3,169.4 284.7,169.4 	"/>
	<path class="st0" d="M291.3,171.2v0.2c0,0.8-0.4,1.5-1.2,1.7c0.9,0.1,1.5,0.9,1.5,1.8v0.2c0,1.3-0.8,2.3-2.9,2.3
		c-0.7,0-1.2,0-2.3-0.1v-8.1c0.6,0,1.5-0.1,2.3-0.1C290.4,169.2,291.3,170.1,291.3,171.2z M287.8,170.5v2.2h0.9c0.8,0,1.2-0.4,1.2-1
		v-0.2c0-0.6-0.4-0.9-1.3-0.9C288.3,170.5,288.1,170.5,287.8,170.5z M287.8,173.9v2.3c0.3,0,0.6,0,0.9,0c1,0,1.5-0.4,1.5-1.1v-0.2
		c0-0.6-0.4-1-1.4-1H287.8z"/>
	<path class="st0" d="M299.5,169.4v1.3c-0.6-0.1-1.2-0.2-1.8-0.2c-0.8,0-1,0.3-1,0.8v0.3c0,0.4,0.1,0.6,0.8,0.8l1.1,0.4
		c1,0.2,1.7,1.1,1.5,2.1v0.2c0,1.4-0.8,2.3-2.7,2.3c-0.6,0-1.2-0.1-1.8-0.2v-1.3c0.6,0.1,1.2,0.2,1.8,0.3c1,0,1.3-0.3,1.3-0.9V175
		c0-0.4-0.2-0.6-0.6-0.8l-1.2-0.4c-1-0.2-1.7-1.1-1.6-2.1v-0.1c0-1.4,0.8-2.3,2.4-2.3C298.3,169.3,298.9,169.3,299.5,169.4z"/>
	<polygon class="st0" points="305.9,170.7 303,170.7 303,172.6 305.7,172.6 305.7,173.9 303,173.9 303,175.9 305.9,175.9 
		305.9,177.2 301.5,177.2 301.5,169.4 305.9,169.4 	"/>
	<path class="st0" d="M312.6,171.4v0.3c0,0.9-0.5,1.7-1.3,2l2,3.5h-1.6L310,174c-0.3,0-0.6,0-0.9,0v3.2h-1.4v-8
		c0.7,0,1.6-0.1,2.2-0.1C311.8,169.2,312.6,170.1,312.6,171.4z M309,170.5v2.3c0.2,0,0.5,0,0.8,0.1c1,0,1.4-0.4,1.4-1.1v-0.2
		c0-0.7-0.4-1-1.4-1C309.6,170.5,309.3,170.5,309,170.5z"/>
	<polygon class="st0" points="317.6,177.2 315.9,177.2 313.7,169.4 315.2,169.4 316.8,176 318.4,169.4 319.9,169.4 	"/>
	<polygon class="st0" points="325.6,170.7 322.6,170.7 322.6,172.6 325.3,172.6 325.3,173.9 322.6,173.9 322.6,175.9 325.6,175.9 
		325.6,177.2 321.2,177.2 321.2,169.4 325.6,169.4 	"/>
	<path class="st0" d="M332.3,171.4v0.3c0,0.9-0.5,1.7-1.3,2l1.9,3.5h-1.6l-1.7-3.2c-0.3,0-0.6,0-0.9,0v3.2h-1.4v-8
		c0.7,0,1.6-0.1,2.2-0.1C331.5,169.2,332.3,170.1,332.3,171.4z M328.7,170.5v2.3c0.2,0,0.5,0,0.8,0.1c1,0,1.4-0.4,1.4-1.1v-0.2
		c0-0.7-0.4-1-1.4-1L328.7,170.5z"/>
	<polygon class="st0" points="275.3,116.4 274,121 272.5,121 271.2,116.4 271.2,121.9 269.8,121.9 269.9,114 271.7,114 273.2,119.6 
		274.8,114 276.6,114 276.7,121.9 275.3,121.9 	"/>
	<path class="st0" d="M284.2,121.9h-1.5l-0.4-1.6h-2.5l-0.4,1.6h-1.5l2.3-7.9h1.7L284.2,121.9z M280,119h1.9l-1-3.8L280,119z"/>
	<polygon class="st0" points="286.8,116.3 286.8,121.9 285.4,121.9 285.4,114 287.3,114 289.3,119.6 289.3,114 290.7,114 
		290.7,121.9 288.8,121.9 	"/>
	<path class="st0" d="M298.3,121.9h-1.5l-0.4-1.6h-2.5l-0.4,1.6H292l2.3-7.9h1.7L298.3,121.9z M294.1,119h1.9l-1-3.8L294.1,119z"/>
	<path class="st0" d="M304,114.1v1.3c-0.7-0.1-1.4-0.2-2.1-0.2c-0.9,0-1.3,0.3-1.3,1.2v3.2c0,0.9,0.3,1.2,1.2,1.2
		c0.4,0,0.8,0,1.1-0.1v-2.1h-1.3v-1.3h2.6v4.3c-0.8,0.3-1.7,0.4-2.5,0.5c-2,0-2.6-0.8-2.6-2.5v-3.1c0-1.7,0.8-2.5,2.7-2.5
		C302.5,113.9,303.3,114,304,114.1z"/>
	<polygon class="st0" points="310.5,115.3 307.6,115.3 307.6,117.2 310.3,117.2 310.3,118.5 307.6,118.5 307.6,120.5 310.5,120.5 
		310.5,121.8 306.1,121.8 306.1,114 310.5,114 	"/>
	<polygon class="st0" points="317.6,116.4 316.4,121 314.8,121 313.6,116.4 313.5,121.9 312.2,121.9 312.2,114 314.1,114 
		315.6,119.6 317.1,114 319,114 319,121.9 317.7,121.9 	"/>
	<polygon class="st0" points="325.2,115.3 322.3,115.3 322.3,117.2 325,117.2 325,118.5 322.3,118.5 322.3,120.5 325.2,120.5 
		325.2,121.8 320.8,121.8 320.8,114 325.2,114 	"/>
	<polygon class="st0" points="328.3,116.3 328.3,121.9 326.9,121.9 326.9,114 328.9,114 330.9,119.6 330.9,114 332.3,114 
		332.3,121.9 330.4,121.9 	"/>
	<polygon class="st0" points="339.5,115.3 337.3,115.3 337.3,121.9 335.9,121.9 335.9,115.3 333.7,115.3 333.7,114 339.5,114 	"/>
	<polygon class="st0" points="347.8,115.3 344.8,115.3 344.8,117.2 347.5,117.2 347.5,118.5 344.8,118.5 344.8,120.5 347.8,120.5 
		347.8,121.8 343.4,121.8 343.4,114 347.8,114 	"/>
	<polygon class="st0" points="350.9,116.3 350.9,121.9 349.5,121.9 349.5,114 351.4,114 353.5,119.6 353.5,114 354.8,114 
		354.8,121.9 352.9,121.9 	"/>
	<path class="st0" d="M361.5,114.1v1.3c-0.7-0.1-1.4-0.2-2.1-0.2c-0.9,0-1.3,0.3-1.3,1.2v3.2c0,0.9,0.3,1.2,1.2,1.2
		c0.4,0,0.8,0,1.1-0.1v-2.1h-1.2v-1.3h2.6v4.3c-0.8,0.3-1.7,0.4-2.5,0.5c-1.9,0-2.6-0.8-2.6-2.5v-3.1c0-1.7,0.8-2.5,2.7-2.5
		C360,113.9,360.7,114,361.5,114.1z"/>
	<rect x="363.6" y="114" class="st0" width="1.4" height="7.9"/>
	<polygon class="st0" points="368.2,116.3 368.2,121.9 366.8,121.9 366.8,114 368.8,114 370.8,119.6 370.8,114 372.2,114 
		372.2,121.9 370.3,121.9 	"/>
	<polygon class="st0" points="378.4,115.3 375.5,115.3 375.5,117.2 378.2,117.2 378.2,118.5 375.5,118.5 375.5,120.5 378.4,120.5 
		378.4,121.8 374,121.8 374,114 378.4,114 	"/>
	<polygon class="st1" points="276.4,255.3 278.5,254.8 272.4,251.1 274.1,258.1 275.2,256.2 356.5,366.3 357.8,365.4 	"/>
	<polygon class="st1" points="179.2,254.4 113.6,313.9 114.7,315 180.2,255.5 180.9,257.6 183.9,251.1 177.2,253.5 	"/>
	<polygon class="st1" points="227.4,346.7 224.6,353.3 226.6,352.5 226.6,364 228.1,364 228.1,352.5 230.2,353.3 	"/>
	<polygon class="st1" points="227.4,257.1 224.6,263.7 226.6,262.8 226.6,279.6 228.1,279.6 228.1,262.8 230.2,263.7 	"/>
	<polygon class="st1" points="228.1,67 226.6,67 226.6,85.6 224.6,84.8 227.4,91.4 230.2,84.8 228.1,85.6 	"/>
	<path class="st1" d="M179.6,26.3c-1.1,0-2,1-2,2.1s1,2,2.1,2s2-0.9,2-2C181.7,27.2,180.8,26.3,179.6,26.3L179.6,26.3z M179.6,29.4
		c-0.6,0-1.1-0.5-1.1-1.1s0.5-1.1,1.1-1.1s1.1,0.5,1.1,1.1C180.8,28.9,180.3,29.5,179.6,29.4L179.6,29.4L179.6,29.4z"/>
	<path class="st1" d="M176.4,10.2h21.4c1.1,0,1.9-0.9,2-1.9V1.9c0-1.1-0.9-1.9-2-1.9h-21.4c-1.1,0-1.9,0.9-1.9,1.9v6.3
		C174.5,9.3,175.4,10.2,176.4,10.2z M176.2,1.9c0-0.1,0.1-0.3,0.3-0.3h21.4c0.1,0,0.3,0.1,0.3,0.3v6.3c0,0.1-0.1,0.3-0.3,0.3h-21.4
		c-0.1,0-0.3-0.1-0.3-0.3V1.9z"/>
	<path class="st1" d="M179.6,7.2c1.1,0,2.1-0.9,2-2.1c0-1.1-0.9-2.1-2.1-2c-1.1,0-2,0.9-2,2.1C177.5,6.2,178.5,7.2,179.6,7.2z
		 M179.6,4c0.6,0,1.1,0.5,1.1,1.1s-0.5,1.1-1.1,1.1s-1.1-0.5-1.1-1.1S179,4,179.6,4z"/>
	<path class="st1" d="M176.4,21.8h21.4c1.1,0,1.9-0.9,2-1.9v-6.3c0-1.1-0.9-1.9-2-1.9h-21.4c-1.1,0-1.9,0.9-1.9,1.9v6.3
		C174.5,20.9,175.4,21.8,176.4,21.8z M176.2,13.6c0-0.1,0.1-0.3,0.3-0.3h21.4c0.1,0,0.3,0.1,0.3,0.3v6.3c0,0.1-0.1,0.3-0.3,0.3
		h-21.4c-0.1,0-0.3-0.1-0.3-0.3V13.6z"/>
	<path class="st1" d="M179.6,18.8c1.1,0,2.1-0.9,2-2.1c0-1.1-0.9-2.1-2.1-2c-1.1,0-2,0.9-2,2.1C177.5,17.8,178.5,18.8,179.6,18.8z
		 M179.6,15.6c0.6,0,1.1,0.5,1.1,1.1s-0.5,1.1-1.1,1.1s-1.1-0.5-1.1-1.1S179,15.6,179.6,15.6L179.6,15.6z"/>
	<path class="st1" d="M206.9,26.3c-1.1,0-2.1,0.9-2,2.1c0,1.1,0.9,2.1,2.1,2c1.1,0,2-0.9,2-2.1C209,27.2,208.1,26.2,206.9,26.3z
		 M206.9,29.4c-0.6,0-1.1-0.5-1.1-1.1s0.5-1.1,1.1-1.1s1.1,0.5,1.1,1.1C208.1,28.9,207.6,29.5,206.9,29.4L206.9,29.4L206.9,29.4z"/>
	<path class="st1" d="M203.7,10.2h21.4c1.1,0,1.9-0.9,2-1.9V1.9c0-1.1-0.9-1.9-2-1.9h-21.4c-1.1,0-1.9,0.9-2,1.9v6.3
		C201.8,9.3,202.7,10.2,203.7,10.2z M203.5,1.9c0-0.1,0.1-0.3,0.3-0.3h21.4c0.1,0,0.3,0.1,0.3,0.3v6.3c0,0.1-0.1,0.3-0.3,0.3h-21.4
		c-0.1,0-0.2-0.1-0.2-0.3L203.5,1.9z"/>
	<path class="st1" d="M206.9,7.2c1.1,0,2.1-0.9,2-2.1c0-1.1-0.9-2.1-2.1-2c-1.1,0-2,0.9-2,2.1C204.8,6.2,205.8,7.2,206.9,7.2z
		 M206.9,4c0.6,0,1.1,0.5,1.1,1.1s-0.5,1.1-1.1,1.1s-1.1-0.5-1.1-1.1C205.8,4.5,206.3,4,206.9,4z"/>
	<path class="st1" d="M203.7,21.8h21.4c1.1,0,1.9-0.9,2-1.9v-6.3c0-1.1-0.9-1.9-2-1.9h-21.4c-1.1,0-1.9,0.9-2,1.9v6.3
		C201.8,20.9,202.7,21.8,203.7,21.8z M203.5,13.6c0-0.1,0.1-0.3,0.3-0.3h21.4c0.1,0,0.3,0.1,0.3,0.3v6.3c0,0.1-0.1,0.3-0.3,0.3
		h-21.4c-0.1,0-0.3-0.1-0.3-0.3V13.6z"/>
	<path class="st1" d="M206.9,18.8c1.1,0,2.1-0.9,2-2.1c0-1.1-0.9-2.1-2.1-2c-1.1,0-2,0.9-2,2.1C204.8,17.8,205.8,18.8,206.9,18.8z
		 M206.9,15.6c0.6,0,1.1,0.5,1.1,1.1s-0.5,1.1-1.1,1.1s-1.1-0.5-1.1-1.1C205.8,16.1,206.3,15.6,206.9,15.6L206.9,15.6z"/>
	<path class="st1" d="M234.4,26.3c-1.1,0-2,1-2,2.1s1,2,2.1,2s2-0.9,2-2C236.5,27.2,235.6,26.3,234.4,26.3L234.4,26.3z M234.4,29.4
		c-0.6,0-1.1-0.5-1.1-1.1s0.5-1.1,1.1-1.1s1.1,0.5,1.1,1.1S235,29.5,234.4,29.4L234.4,29.4L234.4,29.4z"/>
	<path class="st1" d="M231.2,10.2h21.4c1.1,0,1.9-0.9,2-1.9V1.9c0-1.1-0.9-1.9-2-1.9h-21.4c-1.1,0-1.9,0.9-2,1.9v6.3
		C229.2,9.3,230.1,10.2,231.2,10.2z M230.9,1.9c0-0.1,0.1-0.3,0.3-0.3h21.4c0.1,0,0.3,0.1,0.3,0.3v6.3c0,0.1-0.1,0.3-0.3,0.3h-21.4
		c-0.1,0-0.3-0.1-0.3-0.3V1.9z"/>
	<path class="st1" d="M234.4,7.2c1.1,0,2.1-0.9,2-2.1c0-1.1-0.9-2.1-2.1-2c-1.1,0-2,0.9-2,2.1C232.3,6.2,233.2,7.2,234.4,7.2z
		 M234.4,4c0.6,0,1.1,0.5,1.1,1.1s-0.5,1.1-1.1,1.1s-1.1-0.5-1.1-1.1C233.2,4.5,233.7,4,234.4,4z"/>
	<path class="st1" d="M231.2,21.8h21.4c1.1,0,1.9-0.9,2-1.9v-6.3c0-1.1-0.9-1.9-2-1.9l0,0h-21.4c-1.1,0-1.9,0.9-2,1.9v6.3
		C229.2,20.9,230.1,21.8,231.2,21.8z M230.9,13.6c0-0.1,0.1-0.3,0.3-0.3h21.4c0.1,0,0.3,0.1,0.3,0.3v6.3c0,0.1-0.1,0.3-0.3,0.3
		h-21.4c-0.1,0-0.3-0.1-0.3-0.3V13.6z"/>
	<path class="st1" d="M234.4,18.8c1.1,0,2.1-0.9,2-2.1c0-1.1-0.9-2.1-2.1-2c-1.1,0-2,0.9-2,2.1C232.3,17.8,233.2,18.8,234.4,18.8z
		 M234.4,15.6c0.6,0,1.1,0.5,1.1,1.1s-0.5,1.1-1.1,1.1s-1.1-0.5-1.1-1.1C233.2,16.1,233.7,15.6,234.4,15.6L234.4,15.6z"/>
	<path class="st1" d="M288.4,37.4h-18.5v-4h10c1.1,0,1.9-0.9,2-1.9v-6.3c0-1.1-0.9-1.9-2-1.9h-21.4c-1.1,0-1.9,0.9-2,1.9v6.3
		c0,1.1,0.9,1.9,2,1.9h9.4v4h-25.2v-4h10c1.1,0,1.9-0.9,2-1.9v-6.3c0-1.1-0.9-1.9-2-1.9h-21.4c-1.1,0-1.9,0.9-2,1.9v6.3
		c0,1.1,0.9,1.9,2,1.9h9.4v4h-25.3v-4h10c1.1,0,1.9-0.9,2-1.9v-6.3c0-1.1-0.9-1.9-2-1.9H204c-1.1,0-1.9,0.9-2,1.9v6.3
		c0,1.1,0.9,1.9,2,1.9h9.4v4h-25.2v-4h10c1.1,0,1.9-0.9,2-1.9v-6.3c0-1.1-0.9-1.9-2-1.9h-21.4c-1.1,0-1.9,0.9-1.9,1.9v6.3
		c0,1.1,0.9,1.9,1.9,1.9h9.4v4h-18.5c-0.6,0-1,0.5-1,1c0,0.6,0.5,1,1,1h121.1c0.6,0,1-0.5,1-1C289.4,37.9,289,37.4,288.4,37.4z
		 M176.2,31.5v-6.3c0-0.1,0.1-0.3,0.3-0.3h21.4c0.1,0,0.3,0.1,0.3,0.3v6.3c0,0.1-0.1,0.3-0.3,0.3h-21.4
		C176.3,31.8,176.2,31.6,176.2,31.5z M203.5,31.5v-6.3c0-0.1,0.1-0.3,0.3-0.3h21.4c0.1,0,0.3,0.1,0.3,0.3v6.3c0,0.1-0.1,0.3-0.3,0.3
		h-21.4C203.6,31.7,203.5,31.6,203.5,31.5z M230.9,31.5v-6.3c0-0.1,0.1-0.3,0.3-0.3h21.4c0.1,0,0.3,0.1,0.3,0.3v6.3
		c0,0.1-0.1,0.3-0.3,0.3h-21.4C231,31.8,230.9,31.6,230.9,31.5L230.9,31.5z M258.2,31.5v-6.3c0-0.1,0.1-0.3,0.3-0.3h21.4
		c0.1,0,0.3,0.1,0.3,0.3v6.3c0,0.1-0.1,0.3-0.3,0.3h-21.4C258.3,31.7,258.2,31.6,258.2,31.5z"/>
	<path class="st1" d="M261.7,26.3c-1.1,0-2.1,0.9-2,2.1s0.9,2.1,2.1,2c1.1,0,2-0.9,2-2.1C263.7,27.2,262.8,26.2,261.7,26.3z
		 M261.7,29.4c-0.6,0-1.1-0.5-1.1-1.1s0.5-1.1,1.1-1.1s1.1,0.5,1.1,1.1C262.8,28.9,262.3,29.5,261.7,29.4L261.7,29.4L261.7,29.4z"/>
	<path class="st1" d="M258.5,10.2h21.4c1.1,0,1.9-0.9,2-1.9V1.9c0-1.1-0.9-1.9-2-1.9h-21.4c-1.1,0-1.9,0.9-2,1.9v6.3
		C256.5,9.3,257.4,10.2,258.5,10.2z M258.2,1.9c0-0.1,0.1-0.3,0.3-0.3h21.4c0.1,0,0.3,0.1,0.3,0.3v6.3c0,0.1-0.1,0.3-0.3,0.3h-21.4
		c-0.1,0-0.2-0.1-0.2-0.3L258.2,1.9z"/>
	<path class="st1" d="M261.7,7.2c1.1,0,2.1-0.9,2-2.1c0-1.1-0.9-2.1-2.1-2c-1.1,0-2,0.9-2,2.1C259.6,6.2,260.5,7.2,261.7,7.2z
		 M261.7,4c0.6,0,1.1,0.5,1.1,1.1s-0.5,1.1-1.1,1.1s-1.1-0.5-1.1-1.1C260.5,4.5,261,4,261.7,4z"/>
	<path class="st1" d="M258.5,21.8h21.4c1.1,0,1.9-0.9,2-1.9v-6.3c0-1.1-0.9-1.9-2-1.9h-21.4c-1.1,0-1.9,0.9-2,1.9v6.3
		C256.5,20.9,257.4,21.8,258.5,21.8z M258.2,13.6c0-0.1,0.1-0.3,0.3-0.3h21.4c0.1,0,0.3,0.1,0.3,0.3v6.3c0,0.1-0.1,0.3-0.3,0.3
		h-21.4c-0.1,0-0.3-0.1-0.3-0.3V13.6z"/>
	<path class="st1" d="M261.7,18.8c1.1,0,2.1-0.9,2-2.1c0-1.1-0.9-2.1-2.1-2c-1.1,0-2,0.9-2,2.1C259.6,17.8,260.5,18.8,261.7,18.8z
		 M261.7,15.6c0.6,0,1.1,0.5,1.1,1.1s-0.5,1.1-1.1,1.1s-1.1-0.5-1.1-1.1C260.5,16.1,261,15.6,261.7,15.6L261.7,15.6z"/>
	<path class="st1" d="M405.8,404.7l-3.7-5.9V376c0-1.9-1.6-3.5-3.5-3.5h-34.7c-1.9,0-3.5,1.6-3.5,3.5v22.8l-3.7,5.9
		c-0.1,0.2-0.2,0.4-0.2,0.6v0.8c0,2.3,1.9,4.2,4.2,4.2h40.9c2.3,0,4.2-1.9,4.2-4.2v-0.8C405.9,405,405.9,404.8,405.8,404.7z
		 M362.7,376c0-0.6,0.5-1.2,1.2-1.2h15.3l0.2,0.8h3.9l0.2-0.8h15.3c0.6,0,1.2,0.5,1.2,1.2v22.4h-37V376H362.7z M362.5,399.9h37.6
		l3.1,5h-15.8L387,403h-11.6l-0.3,1.9h-15.8L362.5,399.9z M403.6,406c0,1.1-0.9,1.9-1.9,1.9h-40.9c-1.1,0-1.9-0.9-1.9-1.9v-0.4h44.7
		L403.6,406z"/>
	<path class="st1" d="M364.7,396.8h33.2v-20h-33.2V396.8z M365.4,377.5H397V396h-31.6V377.5z"/>
	<path class="st1" d="M429.3,408.7c-0.8,0-1.7,0-2.7,0c-3.9,0.1-7.7-0.2-11.5-0.9v-4c0-0.4-0.3-0.7-0.7-0.7c-0.4,0-0.7,0.3-0.7,0.7
		v3.7c-2.3-0.6-3.1-1.3-3.1-1.7c0-6.3,4.2-8.7,10.5-10.4h0.1c0.3,1.2,1.1,2.2,2.2,2.8c2,1.1,4.4,1.1,6.5,0c1.1-0.6,1.9-1.6,2.2-2.8
		h0.1l0.6,0.2c0.6-0.6,1.3-1.1,2-1.6c-0.7-0.2-1.4-0.4-2.1-0.6h-0.1c-1.1-0.2-1.5-0.5-1.7-1c2.4-2,4.8-5.3,4.8-9.1
		c0-7.2-3.4-11.5-9.1-11.5s-9.1,4.3-9.1,11.5c0,3.7,2.4,7,4.8,9.1c-0.2,0.6-0.5,0.8-1.6,1h-0.1c-6,1.6-12.1,4.4-12.1,12.4
		c0,2.3,3.2,5,18.1,5c1.3,0,2.4,0,3.5-0.1C429.8,410,429.6,409.4,429.3,408.7z M419.6,383.3c0-2.8,0.7-9.4,7-9.4c6.4,0,7,6.5,7,9.4
		c0,3.2-2.3,6.2-4.5,7.8c-0.3,0.2-0.5,0.6-0.4,1c0.3,1.5,0.8,2.3,2,2.8c-0.2,0.8-0.8,1.5-1.6,2c-1.6,0.8-3.5,0.8-5.1,0
		c-0.8-0.4-1.3-1.1-1.6-2c1.1-0.5,1.7-1.4,1.9-2.9c0.1-0.4-0.1-0.8-0.4-1C422,389.4,419.6,386.4,419.6,383.3z"/>
	<path class="st1" d="M441.7,416.4c-6.4,0-11.5-5.2-11.5-11.5c0-6.4,5.2-11.5,11.5-11.5c6.4,0,11.5,5.2,11.5,11.5
		C453.2,411.2,448,416.3,441.7,416.4z M441.7,395.4c-5.2,0-9.4,4.2-9.4,9.4s4.2,9.4,9.4,9.4c5.2,0,9.4-4.2,9.4-9.4
		C451.1,399.7,446.9,395.4,441.7,395.4z"/>
	<path class="st1" d="M445,404.1h-0.3v-1.2c0.2-1.7-1.1-3.2-2.8-3.4s-3.2,1.1-3.4,2.8c0,0.2,0,0.4,0,0.6v1.2h-0.3
		c-0.6,0-1.1,0.5-1.1,1.1v4c0,0.6,0.5,1.1,1.1,1.1h6.8c0.6,0,1.1-0.5,1.1-1.1v-4C446.1,404.6,445.6,404.1,445,404.1z M439.5,402.9
		c-0.2-1.2,0.7-2.3,1.8-2.5c1.2-0.2,2.3,0.7,2.5,1.8c0,0.2,0,0.4,0,0.6v1.2h-4.3V402.9z M445.2,409.2l-0.2,0.2h-6.8l-0.1-0.2v-4
		l0.1-0.1h6.8l0.2,0.1V409.2z"/>
	<path class="st1" d="M441.7,405.8c-0.5,0-0.9,0.4-0.9,0.9c0,0.4,0.2,0.7,0.6,0.9v0.8c0,0.2,0.1,0.3,0.3,0.3c0.2,0,0.3-0.1,0.3-0.3
		v-0.8c0.5-0.2,0.7-0.7,0.6-1.2C442.4,406,442.1,405.7,441.7,405.8z"/>
	<path class="st1" d="M232.3,404.7l-3.7-5.9V376c0-1.9-1.6-3.5-3.5-3.5h-34.7c-1.9,0-3.5,1.6-3.5,3.5v22.8l-3.7,5.9
		c-0.1,0.2-0.2,0.4-0.2,0.6v0.8c0,2.3,1.9,4.2,4.2,4.2h40.9c2.3,0,4.2-1.9,4.2-4.2v-0.8C232.5,405.1,232.4,404.8,232.3,404.7z
		 M189.3,376c0-0.6,0.5-1.2,1.2-1.2h15.3l0.2,0.8h3.9l0.2-0.8h15.3c0.6,0,1.2,0.5,1.2,1.2v22.4h-37V376H189.3z M189,399.9h37.6
		l3.1,5h-15.8l-0.3-1.9H202l-0.3,1.9h-15.8L189,399.9z M230.2,406c0,1.1-0.8,1.9-1.9,2h-0.1h-40.9c-1.1,0-1.9-0.9-1.9-1.9v-0.4h44.7
		v0.3H230.2z"/>
	<path class="st1" d="M191.2,396.8h33.2v-20h-33.2V396.8z M192,377.5h31.6V396H192V377.5z"/>
	<path class="st1" d="M256,408.2c-0.8,0-1.7,0-2.7,0c-3.9,0.1-7.7-0.2-11.5-0.9v-4c0-0.4-0.3-0.7-0.7-0.7s-0.7,0.3-0.7,0.7l0,0v3.7
		c-2.3-0.6-3.1-1.3-3.1-1.7c0-6.3,4.2-8.7,10.5-10.4h0.1c0.3,1.2,1.1,2.2,2.2,2.8c2,1.1,4.5,1.1,6.5,0c1.1-0.6,1.9-1.6,2.2-2.8h0.1
		l0.6,0.2c0.6-0.6,1.3-1.1,2-1.6c-0.7-0.2-1.4-0.4-2.1-0.6h-0.1c-1.1-0.2-1.5-0.5-1.6-1c2.4-2,4.8-5.3,4.8-9.1
		c0-7.2-3.4-11.5-9.1-11.5s-9.1,4.3-9.1,11.5c0,3.7,2.4,7,4.8,9.1c-0.2,0.6-0.5,0.8-1.7,1h-0.1c-6,1.6-12.1,4.4-12.1,12.4
		c0,2.3,3.1,5,18.1,5c1.3,0,2.4,0,3.5-0.1C256.5,409.6,256.2,408.9,256,408.2z M246.2,382.7c0-2.8,0.7-9.4,7-9.4s7,6.6,7,9.4
		c0,3.2-2.3,6.2-4.5,7.8c-0.3,0.2-0.5,0.6-0.4,1c0.3,1.5,0.8,2.3,1.9,2.9c-0.2,0.9-0.8,1.6-1.5,2c-1.6,0.8-3.5,0.8-5.1,0
		c-0.8-0.4-1.3-1.1-1.5-2c1.1-0.5,1.7-1.4,1.9-2.9c0.1-0.4-0.1-0.8-0.4-1C248.6,388.9,246.2,386,246.2,382.7z"/>
	<path class="st1" d="M268.3,415.9c-6.4,0-11.5-5.1-11.5-11.5s5.1-11.5,11.5-11.5s11.5,5.1,11.5,11.5l0,0
		C279.8,410.7,274.6,415.9,268.3,415.9z M268.3,395c-5.2,0-9.4,4.2-9.4,9.4s4.2,9.4,9.4,9.4s9.4-4.2,9.4-9.4
		C277.7,399.2,273.5,395,268.3,395z"/>
	<circle class="st1" cx="267.8" cy="407" r="0.3"/>
	<path class="st1" d="M274,403.8l-1.6-1.4V399c0-0.2-0.1-0.3-0.3-0.3h-2c-0.2,0-0.3,0.1-0.3,0.3v1.1l-1.4-1.2
		c-0.1-0.1-0.3-0.1-0.4,0l-5.5,4.9c-0.1,0.1-0.1,0.4,0,0.5l0,0l0.2,0.2c0.1,0.1,0.4,0.1,0.5,0l0.4-0.3v5h-0.5
		c-0.2,0-0.4,0.2-0.4,0.4v0.2c0,0.2,0.2,0.4,0.4,0.4h10.4c0.2,0,0.4-0.2,0.4-0.4v-0.2c0-0.2-0.2-0.4-0.4-0.4H273v-5l0.4,0.3
		c0.1,0.1,0.4,0.1,0.5,0l0.1-0.2C274.2,404.2,274.2,404,274,403.8L274,403.8z M270.8,399.6h0.6v1.8l-0.6-0.5V399.6z M269.3,409.1
		h-2.1v-3.8h2.1V409.1z M270,409.1v-4.3c0-0.2-0.1-0.3-0.3-0.3h-3c-0.2,0-0.3,0.1-0.3,0.3l0,0v4.3h-1.9v-5.8l3.4-3.1l0.3-0.2
		l0.3,0.2l3.5,3.1v5.8H270z"/>
</g>
<text transform="matrix(1 0 0 1 -107.1992 112.6001)" style="font-family:'NimbusSanL-ReguCond'; font-size:30px;"> </text>
</svg>
